M48
; DRILL file {KiCad 8.0.5} date 2024-09-30T13:59:48-0700
; FORMAT={-:-/ absolute / inch / decimal}
; #@! TF.CreationDate,2024-09-30T13:59:48-07:00
; #@! TF.GenerationSoftware,Kicad,Pcbnew,8.0.5
; #@! TF.FileFunction,Plated,1,4,PTH
FMAT,2
INCH
; #@! TA.AperFunction,Plated,PTH,ViaDrill
T1C0.0138
; #@! TA.AperFunction,Plated,PTH,ComponentDrill
T2C0.0138
; #@! TA.AperFunction,Plated,PTH,ComponentDrill
T3C0.0197
; #@! TA.AperFunction,Plated,PTH,ComponentDrill
T4C0.0315
; #@! TA.AperFunction,Plated,PTH,ComponentDrill
T5C0.0394
; #@! TA.AperFunction,Plated,PTH,ComponentDrill
T6C0.0591
%
G90
G05
T1
X1.4857Y0.8902
X1.5796Y0.2997
X2.1862Y0.4231
X2.1882Y0.9257
X2.7589Y0.2997
X2.7743Y0.8671
X3.0124Y2.5468
X3.0138Y2.5127
X3.0138Y2.4777
X3.0154Y1.8533
X3.1589Y2.3074
X3.1839Y2.111
X3.3874Y2.3285
X3.4024Y0.6243
X3.6207Y1.9782
X3.6625Y2.095
X3.6819Y2.6033
X3.7091Y2.0702
X3.7244Y1.9135
X3.7402Y2.0691
X3.8058Y1.7302
X3.8083Y2.056
X3.8382Y1.5595
X3.8417Y2.5005
X3.8457Y2.0686
X3.849Y1.797
X3.8735Y1.5506
X3.876Y2.6048
X3.8823Y2.0484
X3.8917Y1.9454
X3.9054Y2.0706
X3.9087Y2.5509
X3.9087Y2.2954
X3.9312Y2.0991
X3.949Y1.8304
X3.9519Y1.5436
X3.9555Y1.7714
X3.9558Y2.1896
X3.9558Y1.0083
X3.9826Y1.788
X3.9862Y1.8436
X3.9978Y2.063
X4.0004Y2.0991
X4.0143Y1.9389
X4.0277Y1.7891
X4.0449Y2.0855
X4.0584Y1.8623
X4.0735Y0.5406
X4.1036Y2.1591
X4.1045Y2.0844
X4.1718Y1.9087
X4.2848Y1.4449
X4.3087Y1.4015
X4.3087Y1.3614
X4.3393Y1.608
X4.437Y1.7854
X4.4451Y1.3737
X4.5259Y0.2997
X4.5267Y1.0083
X4.5439Y1.5932
X4.7691Y1.3094
X4.7943Y0.41
X4.998Y2.458
X4.998Y2.4237
X4.9988Y2.5194
X4.9988Y2.4907
X5.0991Y1.1265
X5.128Y0.4219
X5.205Y1.0726
X5.2697Y1.145
X5.3673Y0.5743
X5.4384Y2.1748
X5.485Y2.101
X5.5507Y1.7388
X5.578Y1.8744
X5.6085Y1.7388
X5.6661Y1.7388
X5.7107Y1.8184
X5.7125Y0.654
X5.7504Y1.656
X5.7571Y1.7368
X5.792Y1.8303
X5.814Y1.7388
X5.8172Y2.0398
X5.8215Y1.6522
X5.8441Y1.5237
X5.8457Y1.8395
X5.8504Y1.697
X5.8801Y1.7819
X5.8861Y2.1078
X5.8867Y1.7523
X5.8884Y2.0728
X5.8962Y1.9734
X5.9307Y2.3505
X5.9319Y2.4159
X5.932Y2.3844
X5.9322Y2.3155
X5.9362Y1.5094
X5.9674Y1.9126
X5.9674Y1.8576
X5.9868Y1.5937
X5.9987Y1.6703
X6.0328Y1.5534
X6.0752Y1.6254
X6.077Y2.1228
X6.1349Y1.7373
X6.1491Y1.4914
X6.155Y1.5406
X6.1755Y1.5169
X6.1896Y1.739
X6.2264Y1.5718
X6.2335Y1.6332
X6.244Y1.7318
X6.301Y0.6656
X6.3154Y1.0497
X6.317Y1.5601
X6.3788Y1.7157
X6.3906Y1.8577
X6.4272Y1.6407
X6.4553Y1.4048
X6.4597Y1.7189
X6.4651Y1.3625
X6.4871Y1.742
X6.507Y1.4558
X6.5213Y1.7097
X6.5264Y1.6753
X6.5449Y1.4795
X6.5831Y1.72
X6.6366Y1.6237
X6.6612Y1.3627
X6.7957Y1.6911
X6.9256Y1.03
X6.9267Y0.6187
T2
X3.7569Y2.0227
X3.7569Y1.9725
X3.7569Y1.9224
X3.8071Y2.0227
X3.8071Y1.9725
X3.8071Y1.9224
X3.8573Y2.0227
X3.8573Y1.9725
X3.8573Y1.9224
T3
X3.6154Y1.6281
X3.739Y1.6245
T4
X5.1291Y2.2307
X5.1291Y1.9307
X5.2291Y2.2307
X5.2291Y1.9307
X5.3291Y2.2307
X5.3291Y1.9307
X5.4291Y2.2307
X5.4291Y1.9307
X5.5291Y2.2307
X5.5291Y1.9307
X5.6291Y2.2307
X5.6291Y1.9307
X5.7291Y2.2307
X5.7291Y1.9307
X5.8291Y2.2307
X5.8291Y1.9307
X6.0256Y2.2264
X6.0256Y1.9264
X6.1256Y2.2264
X6.1256Y1.9264
X6.2256Y2.2264
X6.2256Y1.9264
X6.3256Y2.2264
X6.3256Y1.9264
X6.4256Y2.2264
X6.4256Y1.9264
X6.5256Y2.2264
X6.5256Y1.9264
X6.6256Y2.2264
X6.6256Y1.9264
X6.7256Y2.2264
X6.7256Y1.9264
T5
X1.6846Y2.0072
X1.6846Y1.6135
X2.2181Y1.4398
X2.3181Y1.4398
X2.4181Y1.4398
X2.5181Y1.4398
X2.6181Y1.4398
X2.7181Y1.4398
X2.8181Y1.4398
X2.8847Y2.4151
X2.8847Y2.3151
X2.9181Y1.4398
X3.0181Y1.4398
X3.1181Y1.4398
X5.2181Y1.4398
X5.3181Y1.4398
X5.4181Y1.4398
X5.5181Y1.4398
X5.6181Y1.4398
X5.7181Y1.4398
X5.8181Y1.4398
X5.9181Y1.4398
X6.0181Y1.4398
X6.1181Y1.4398
X6.2181Y1.4398
T6
X6.8287Y2.6666
X6.8311Y2.4391
T3
G00X2.8251Y1.9023
M15
G01X2.8251Y1.9456
M16
G05
G00X2.9097Y2.0204
M15
G01X2.9097Y2.048
M16
G05
G00X2.9097Y1.7999
M15
G01X2.9097Y1.8275
M16
G05
M30
