%TF.GenerationSoftware,KiCad,Pcbnew,8.0.5*%
%TF.CreationDate,2024-09-30T13:59:48-07:00*%
%TF.ProjectId,combo_board,636f6d62-6f5f-4626-9f61-72642e6b6963,1*%
%TF.SameCoordinates,Original*%
%TF.FileFunction,Copper,L3,Inr*%
%TF.FilePolarity,Positive*%
%FSLAX46Y46*%
G04 Gerber Fmt 4.6, Leading zero omitted, Abs format (unit mm)*
G04 Created by KiCad (PCBNEW 8.0.5) date 2024-09-30 13:59:48*
%MOMM*%
%LPD*%
G01*
G04 APERTURE LIST*
%TA.AperFunction,ComponentPad*%
%ADD10O,1.700000X2.000000*%
%TD*%
%TA.AperFunction,ComponentPad*%
%ADD11O,1.100000X1.800000*%
%TD*%
%TA.AperFunction,ComponentPad*%
%ADD12O,1.100000X2.200000*%
%TD*%
%TA.AperFunction,ComponentPad*%
%ADD13R,1.700000X1.700000*%
%TD*%
%TA.AperFunction,ComponentPad*%
%ADD14O,1.700000X1.700000*%
%TD*%
%TA.AperFunction,ComponentPad*%
%ADD15C,0.600000*%
%TD*%
%TA.AperFunction,ComponentPad*%
%ADD16R,2.000000X2.000000*%
%TD*%
%TA.AperFunction,ComponentPad*%
%ADD17C,2.000000*%
%TD*%
%TA.AperFunction,ComponentPad*%
%ADD18C,3.000000*%
%TD*%
%TA.AperFunction,ComponentPad*%
%ADD19R,1.600000X1.600000*%
%TD*%
%TA.AperFunction,ComponentPad*%
%ADD20O,1.600000X1.600000*%
%TD*%
%TA.AperFunction,ComponentPad*%
%ADD21R,1.000000X1.000000*%
%TD*%
%TA.AperFunction,ViaPad*%
%ADD22C,0.600000*%
%TD*%
%TA.AperFunction,Conductor*%
%ADD23C,0.600000*%
%TD*%
%TA.AperFunction,Conductor*%
%ADD24C,1.000000*%
%TD*%
%TA.AperFunction,Conductor*%
%ADD25C,0.200000*%
%TD*%
%TA.AperFunction,Conductor*%
%ADD26C,0.150000*%
%TD*%
%TA.AperFunction,Conductor*%
%ADD27C,0.800000*%
%TD*%
%TA.AperFunction,Conductor*%
%ADD28C,0.500000*%
%TD*%
G04 APERTURE END LIST*
D10*
%TO.N,Net-(DS1-F1{slash}GND)*%
%TO.C,DS1*%
X56340000Y36570000D03*
%TO.N,PS3*%
X58880000Y36570000D03*
%TO.N,PS2*%
X61420000Y36570000D03*
%TO.N,PS1*%
X63960000Y36570000D03*
%TO.N,Pg*%
X66500000Y36570000D03*
%TO.N,PDP*%
X69040000Y36570000D03*
%TO.N,G0*%
X71580000Y36570000D03*
%TO.N,G1*%
X74120000Y36570000D03*
%TO.N,G2*%
X76660000Y36570000D03*
%TO.N,G3*%
X79200000Y36570000D03*
%TO.N,G4*%
X132540000Y36570000D03*
%TO.N,G5*%
X135080000Y36570000D03*
%TO.N,G6*%
X137620000Y36570000D03*
%TO.N,G7*%
X140160000Y36570000D03*
%TO.N,Pd*%
X142700000Y36570000D03*
%TO.N,Pe*%
X145240000Y36570000D03*
%TO.N,Pc*%
X147780000Y36570000D03*
%TO.N,Pf*%
X150320000Y36570000D03*
%TO.N,Pb*%
X152860000Y36570000D03*
%TO.N,Pa*%
X155400000Y36570000D03*
%TO.N,Net-(DS1-F2{slash}+5V)*%
X157940000Y36570000D03*
%TD*%
D11*
%TO.N,GND*%
%TO.C,J3*%
X73907400Y46068100D03*
D12*
X71757400Y48868100D03*
D11*
X73907400Y51668100D03*
%TD*%
D13*
%TO.N,/~{USB_BOOT}*%
%TO.C,J2*%
X73272400Y61343100D03*
D14*
%TO.N,GND*%
X73272400Y58803100D03*
%TD*%
D15*
%TO.N,GND*%
%TO.C,U3*%
X97975000Y51377700D03*
X96700000Y51377700D03*
X95425000Y51377700D03*
X97975000Y50102700D03*
X96700000Y50102700D03*
X95425000Y50102700D03*
X97975000Y48827700D03*
X96700000Y48827700D03*
X95425000Y48827700D03*
%TD*%
D16*
%TO.N,/GPIO28_ADC2*%
%TO.C,LS1*%
X42790000Y40982700D03*
D17*
%TO.N,/GPIO29_ADC3*%
X42790000Y50982700D03*
%TD*%
D18*
%TO.N,GND*%
%TO.C,TP4*%
X173450000Y67732683D03*
%TD*%
D19*
%TO.N,PDP*%
%TO.C,J204*%
X153050000Y56550000D03*
D20*
%TO.N,PS1*%
X155590000Y56550000D03*
%TO.N,Pd*%
X158130000Y56550000D03*
%TO.N,Pe*%
X160670000Y56550000D03*
%TO.N,Pf*%
X163210000Y56550000D03*
%TO.N,Pg*%
X165750000Y56550000D03*
%TO.N,PS3*%
X168290000Y56550000D03*
%TO.N,PS2*%
X170830000Y56550000D03*
%TO.N,Pb*%
X170830000Y48930000D03*
%TO.N,Pa*%
X168290000Y48930000D03*
%TO.N,Pc*%
X165750000Y48930000D03*
%TO.N,G0*%
X163210000Y48930000D03*
%TO.N,G1*%
X160670000Y48930000D03*
%TO.N,G4*%
X158130000Y48930000D03*
%TO.N,G3*%
X155590000Y48930000D03*
%TO.N,G2*%
X153050000Y48930000D03*
%TD*%
D18*
%TO.N,EXT_5V*%
%TO.C,TP5*%
X173510000Y61952683D03*
%TD*%
D21*
%TO.N,/GPIO26_ADC0*%
%TO.C,TP2*%
X94970000Y41262683D03*
%TD*%
%TO.N,/GPIO27_ADC1*%
%TO.C,TP3*%
X91830000Y41352683D03*
%TD*%
D19*
%TO.N,F1*%
%TO.C,J203*%
X130280000Y56660000D03*
D20*
%TO.N,F2*%
X132820000Y56660000D03*
%TO.N,S2*%
X135360000Y56660000D03*
%TO.N,S1*%
X137900000Y56660000D03*
%TO.N,S0*%
X140440000Y56660000D03*
%TO.N,G5*%
X142980000Y56660000D03*
%TO.N,G7*%
X145520000Y56660000D03*
%TO.N,G6*%
X148060000Y56660000D03*
%TO.N,RL0*%
X148060000Y49040000D03*
%TO.N,RL1*%
X145520000Y49040000D03*
%TO.N,RL6*%
X142980000Y49040000D03*
%TO.N,RL4*%
X140440000Y49040000D03*
%TO.N,RL2*%
X137900000Y49040000D03*
%TO.N,RL5*%
X135360000Y49040000D03*
%TO.N,RL3*%
X132820000Y49040000D03*
%TO.N,GND2*%
X130280000Y49040000D03*
%TD*%
D22*
%TO.N,GND*%
X86040000Y59143000D03*
X99280000Y64792700D03*
X97580000Y63513000D03*
X99280000Y58303000D03*
%TO.N,+3V3*%
X158150000Y39922683D03*
X168570000Y41243000D03*
X158330000Y41483000D03*
X165770000Y42553000D03*
X155826000Y44127000D03*
X97680000Y52543000D03*
X94210000Y52583000D03*
X97765100Y45643000D03*
X148440000Y38702683D03*
X96730000Y52223000D03*
X172610000Y42953000D03*
X100470000Y44993000D03*
X163250000Y41673000D03*
X148600000Y43102683D03*
X98450000Y66162700D03*
X80869900Y53620000D03*
%TO.N,+1V1*%
X98850000Y49413000D03*
X94600000Y48603000D03*
X91964900Y50247000D03*
X101964400Y49247000D03*
%TO.N,/QSPI_SS*%
X93027800Y53213000D03*
X80235300Y58607000D03*
%TO.N,/G5_3V*%
X100478000Y55616000D03*
X139318000Y53366000D03*
%TO.N,/G7_3V*%
X147118000Y46490000D03*
X95000900Y52556000D03*
%TO.N,/G2_3V*%
X149764000Y50124000D03*
X98610600Y52029000D03*
%TO.N,/G6_3V*%
X104231100Y54840000D03*
X149354000Y45261000D03*
X112699000Y45350000D03*
%TO.N,/PDP_3V*%
X101610800Y53318000D03*
X152064000Y40480000D03*
X115416000Y40468000D03*
X99852500Y53318000D03*
%TO.N,/G3_3V*%
X110217000Y40844000D03*
X154310000Y41285000D03*
X102739200Y52971000D03*
%TO.N,/PD_3V*%
X147758000Y51810000D03*
X157217000Y44171000D03*
X99198400Y52594000D03*
%TO.N,/G4_3V*%
X149508000Y53538000D03*
X104253600Y52943000D03*
%TO.N,/PS1_3V*%
X154357000Y53919000D03*
X149565000Y52648000D03*
X101544600Y52400000D03*
%TO.N,/PF_3V*%
X156856520Y38529156D03*
X100379300Y39208000D03*
%TO.N,/PE_3V*%
X153234000Y39457000D03*
X162320000Y47186000D03*
X98387200Y39386000D03*
%TO.N,/G1_3V*%
X158597000Y43988000D03*
X164076000Y43660000D03*
X96668200Y43946000D03*
X147866000Y41967000D03*
%TO.N,/G0_3V*%
X156337094Y39131820D03*
X97490300Y39611000D03*
X160451000Y39627000D03*
X162022000Y43579000D03*
%TO.N,/PC_3V*%
X151572000Y47184000D03*
X105964000Y48480000D03*
X165642000Y43426000D03*
X148481000Y46724000D03*
%TO.N,/PG_3V*%
X166241000Y37579000D03*
X103082600Y47302000D03*
X112906000Y34893000D03*
%TO.N,/PS3_3V*%
X165277000Y36978000D03*
X102304800Y45444000D03*
X108834000Y36700000D03*
%TO.N,/PA_3V*%
X152366000Y42426000D03*
X167211000Y43687000D03*
X100304000Y46493000D03*
%TO.N,/PS2_3V*%
X101249700Y46828000D03*
X109441000Y35598000D03*
X163964000Y35682000D03*
%TO.N,/VBUS*%
X76515000Y64687700D03*
X76550000Y63823000D03*
X76550000Y62933000D03*
X93520000Y66122700D03*
X76590000Y47073000D03*
%TO.N,/PB_3V*%
X101157200Y45414000D03*
X109441000Y34579000D03*
X164214000Y34608000D03*
%TO.N,G2*%
X146061000Y42062000D03*
%TO.N,PS2*%
X169195000Y34612000D03*
%TO.N,Pg*%
X156187280Y37881820D03*
%TO.N,G0*%
X146230000Y44115000D03*
%TO.N,G3*%
X149522000Y44509000D03*
%TO.N,G7*%
X143920000Y44166000D03*
%TO.N,G4*%
X140987000Y44166000D03*
%TO.N,Net-(DS1-F2{slash}+5V)*%
X150678517Y58812683D03*
X150640000Y59702683D03*
X150672672Y60562683D03*
X150670000Y61362683D03*
%TO.N,Net-(DS1-F1{slash}GND)*%
X126950000Y62432683D03*
X126970000Y63262683D03*
X126950000Y61562683D03*
X126970000Y63992683D03*
%TO.N,PDP*%
X150779000Y38338000D03*
%TO.N,G1*%
X147675000Y44166000D03*
%TO.N,RL5*%
X114959000Y7613000D03*
X114979000Y25612000D03*
%TO.N,S2*%
X138135000Y55241000D03*
X129518000Y28612000D03*
%TO.N,RL3*%
X86420000Y15857000D03*
X142455000Y44166000D03*
X145097000Y16612000D03*
%TO.N,RL4*%
X103465700Y13731000D03*
X130251000Y10715000D03*
X100478000Y25612000D03*
%TO.N,RL2*%
X121135000Y33258000D03*
X70466000Y22024000D03*
X70076000Y7613000D03*
X175910000Y26163000D03*
%TO.N,S1*%
X121774000Y10413000D03*
%TO.N,RL0*%
X164773000Y44247000D03*
X40122500Y7613000D03*
X175938000Y15716000D03*
X151572000Y48580000D03*
X37736300Y22612000D03*
%TO.N,RL6*%
X133850000Y29083000D03*
X132206000Y27243000D03*
X160410000Y26663000D03*
X141681000Y47611000D03*
%TO.N,S0*%
X136330000Y14588000D03*
%TO.N,RL1*%
X55580800Y23514000D03*
X160046000Y16905000D03*
X55528500Y10747000D03*
X145053000Y46188000D03*
%TD*%
D23*
%TO.N,+3V3*%
X98850000Y45003000D02*
X98860000Y44993000D01*
D24*
X88970000Y55083000D02*
X95660000Y56643000D01*
D25*
X98850000Y45103000D02*
X98950000Y45003000D01*
X98380000Y45573000D02*
X98850000Y45103000D01*
D23*
X98870000Y45003000D02*
X98950000Y45003000D01*
D25*
X97765100Y45643000D02*
X98380000Y45573000D01*
D23*
X98860000Y44993000D02*
X98870000Y45003000D01*
X98850000Y47903000D02*
X98850000Y45103000D01*
X98450000Y59433000D02*
X95660000Y56643000D01*
X98850000Y45103000D02*
X98850000Y45003000D01*
X98450000Y66162700D02*
X98450000Y59433000D01*
X98950000Y45003000D02*
X100450000Y45003000D01*
D24*
X95660000Y56643000D02*
X96550000Y55753000D01*
X96550000Y55753000D02*
X96550000Y52463000D01*
X80869900Y53620000D02*
X88970000Y55083000D01*
D26*
%TO.N,/G5_3V*%
X101951300Y54143000D02*
X138541000Y54143000D01*
X100478000Y55616000D02*
X101951300Y54143000D01*
X138541000Y54143000D02*
X139318000Y53366000D01*
%TO.N,/G7_3V*%
X95000900Y52556000D02*
X96062500Y51494000D01*
X144320000Y46707000D02*
X144396000Y46782000D01*
X98292000Y50724000D02*
X102308800Y46707000D01*
X96062500Y51494000D02*
X96062500Y51254000D01*
X96062500Y51254000D02*
X96592500Y50724000D01*
X144396000Y46782000D02*
X146825000Y46782000D01*
X96592500Y50724000D02*
X98292000Y50724000D01*
X102308800Y46707000D02*
X144320000Y46707000D01*
X146825000Y46782000D02*
X147118000Y46490000D01*
%TO.N,/G2_3V*%
X100516100Y50124000D02*
X149764000Y50124000D01*
X98610600Y52029000D02*
X100516100Y50124000D01*
%TO.N,/G6_3V*%
X112788000Y45261000D02*
X149354000Y45261000D01*
X112699000Y45350000D02*
X112788000Y45261000D01*
%TO.N,/PDP_3V*%
X115428000Y40480000D02*
X115416000Y40468000D01*
X99852500Y53318000D02*
X101610800Y53318000D01*
X152064000Y40480000D02*
X115428000Y40480000D01*
%TO.N,/G3_3V*%
X154032000Y41006000D02*
X110379000Y41006000D01*
X110379000Y41006000D02*
X110217000Y40844000D01*
X154310000Y41285000D02*
X154032000Y41006000D01*
%TO.N,/PD_3V*%
X147758000Y51810000D02*
X99982300Y51810000D01*
X99982300Y51810000D02*
X99198400Y52594000D01*
%TO.N,/G4_3V*%
X104357000Y52839000D02*
X104253600Y52943000D01*
X148809000Y52839000D02*
X104357000Y52839000D01*
X149508000Y53538000D02*
X148809000Y52839000D01*
%TO.N,/PS1_3V*%
X149316000Y52400000D02*
X149565000Y52648000D01*
X101544600Y52400000D02*
X149316000Y52400000D01*
%TO.N,/PF_3V*%
X155972030Y38613000D02*
X156078210Y38506820D01*
X156702158Y38613000D02*
X156772676Y38613000D01*
X156595978Y38506820D02*
X156702158Y38613000D01*
X156078210Y38506820D02*
X156595978Y38506820D01*
X156772676Y38613000D02*
X156856520Y38529156D01*
X150700000Y39282683D02*
X151249000Y38613000D01*
X151249000Y38613000D02*
X155972030Y38613000D01*
X100379300Y39208000D02*
X150700000Y39282683D01*
%TO.N,/PE_3V*%
X98736500Y39735000D02*
X107916000Y39735000D01*
X98387200Y39386000D02*
X98736500Y39735000D01*
X107916000Y39735000D02*
X108040000Y39611000D01*
X108040000Y39611000D02*
X153080000Y39611000D01*
X153080000Y39611000D02*
X153234000Y39457000D01*
%TO.N,/G1_3V*%
X163631000Y44106000D02*
X164076000Y43660000D01*
X148249000Y44376000D02*
X147930000Y42652683D01*
X96886700Y43728000D02*
X116781000Y43728000D01*
X158715000Y44106000D02*
X163631000Y44106000D01*
X147932000Y44693000D02*
X148249000Y44376000D01*
X147930000Y42652683D02*
X147866000Y41967000D01*
X117746000Y44693000D02*
X147932000Y44693000D01*
X116781000Y43728000D02*
X117746000Y44693000D01*
X96668200Y43946000D02*
X96886700Y43728000D01*
X158597000Y43988000D02*
X158715000Y44106000D01*
%TO.N,/G0_3V*%
X152365000Y40035000D02*
X155433914Y40035000D01*
X115198000Y39913000D02*
X152243000Y39913000D01*
X97916600Y40037000D02*
X115074000Y40037000D01*
X115074000Y40037000D02*
X115198000Y39913000D01*
X97490300Y39611000D02*
X97916600Y40037000D01*
X152243000Y39913000D02*
X152365000Y40035000D01*
X155433914Y40035000D02*
X156337094Y39131820D01*
%TO.N,/PC_3V*%
X142458000Y47057000D02*
X142550000Y47149000D01*
X165269000Y43053000D02*
X155704000Y43053000D01*
X148056000Y47149000D02*
X148481000Y46724000D01*
X142550000Y47149000D02*
X148056000Y47149000D01*
X155704000Y43053000D02*
X151572000Y47184000D01*
X165642000Y43426000D02*
X165269000Y43053000D01*
X105964000Y48480000D02*
X107387000Y47057000D01*
X107387000Y47057000D02*
X142458000Y47057000D01*
%TO.N,/PG_3V*%
X166241000Y37197000D02*
X164179000Y35135000D01*
X164179000Y35135000D02*
X163752000Y35135000D01*
X163285000Y34668000D02*
X113131000Y34668000D01*
X166241000Y37579000D02*
X166241000Y37197000D01*
X163752000Y35135000D02*
X163285000Y34668000D01*
X113131000Y34668000D02*
X112906000Y34893000D01*
%TO.N,/PS3_3V*%
X165277000Y36978000D02*
X161646000Y36978000D01*
X131624000Y35322000D02*
X130246000Y36700000D01*
X159991000Y35322000D02*
X131624000Y35322000D01*
X130246000Y36700000D02*
X108834000Y36700000D01*
X161646000Y36978000D02*
X159991000Y35322000D01*
%TO.N,/PA_3V*%
X144835000Y45662000D02*
X145271000Y45662000D01*
X100618100Y46179000D02*
X144318000Y46179000D01*
X149579000Y45836000D02*
X152366000Y43049000D01*
X145271000Y45662000D02*
X145446000Y45836000D01*
X144318000Y46179000D02*
X144835000Y45662000D01*
X145446000Y45836000D02*
X149579000Y45836000D01*
X100304000Y46493000D02*
X100618100Y46179000D01*
X152366000Y43049000D02*
X152366000Y42426000D01*
%TO.N,/PS2_3V*%
X163873000Y35682000D02*
X163160000Y34970000D01*
X130860000Y35598000D02*
X109441000Y35598000D01*
X131488000Y34970000D02*
X130860000Y35598000D01*
X163160000Y34970000D02*
X131488000Y34970000D01*
X163964000Y35682000D02*
X163873000Y35682000D01*
D23*
%TO.N,/VBUS*%
X77960000Y66132700D02*
X76515000Y64687700D01*
X76550000Y64652700D02*
X76550000Y63823000D01*
X76515000Y64687700D02*
X76550000Y64652700D01*
X93520000Y66122700D02*
X77960000Y66132700D01*
X76550000Y63823000D02*
X76550000Y62933000D01*
D26*
%TO.N,/PB_3V*%
X109654000Y34366000D02*
X109441000Y34579000D01*
X164214000Y34608000D02*
X163972000Y34366000D01*
X163972000Y34366000D02*
X109654000Y34366000D01*
%TO.N,G2*%
X145671000Y41673000D02*
X97900100Y41673000D01*
X146061000Y42062000D02*
X145671000Y41673000D01*
X78661900Y38572000D02*
X76660000Y36570000D01*
X94799200Y38572000D02*
X78661900Y38572000D01*
X97900100Y41673000D02*
X94799200Y38572000D01*
%TO.N,PS2*%
X121644000Y33785000D02*
X121669000Y33760000D01*
X61420000Y36570000D02*
X64204900Y33785000D01*
X121669000Y33760000D02*
X168343000Y33760000D01*
X64204900Y33785000D02*
X121644000Y33785000D01*
X168343000Y33760000D02*
X169195000Y34612000D01*
%TO.N,Pg*%
X68068300Y35002000D02*
X106390000Y35002000D01*
X66500000Y36570000D02*
X68068300Y35002000D01*
X156117460Y37812000D02*
X156187280Y37881820D01*
X109200000Y37812000D02*
X156117460Y37812000D01*
X106390000Y35002000D02*
X109200000Y37812000D01*
%TO.N,G0*%
X144411000Y42295000D02*
X97669100Y42295000D01*
X97669100Y42295000D02*
X95860200Y40486000D01*
X146230000Y44115000D02*
X144411000Y42295000D01*
X95860200Y40486000D02*
X75496300Y40486000D01*
X75496300Y40486000D02*
X71580000Y36570000D01*
%TO.N,G3*%
X93224000Y36570000D02*
X79200000Y36570000D01*
X98025100Y41371000D02*
X93224000Y36570000D01*
X149522000Y44509000D02*
X149522000Y42874000D01*
X149522000Y42874000D02*
X148020000Y41371000D01*
X148020000Y41371000D02*
X98025100Y41371000D01*
D27*
%TO.N,Net-(DS1-F2{slash}+5V)*%
X157940000Y36570000D02*
X157940000Y38789180D01*
X150720000Y46393000D02*
X150670000Y61362683D01*
X157200000Y39529180D02*
X157200000Y39913000D01*
X157200000Y39913000D02*
X150720000Y46393000D01*
X157940000Y38789180D02*
X157200000Y39529180D01*
D26*
%TO.N,PDP*%
X150100000Y38162683D02*
X150779000Y38338000D01*
X107040000Y38236000D02*
X150100000Y38162683D01*
X69040000Y36570000D02*
X70306600Y35303000D01*
X70306600Y35303000D02*
X104107700Y35303000D01*
X104107700Y35303000D02*
X107040000Y38236000D01*
%TO.N,G1*%
X97794100Y41994000D02*
X95985200Y40185000D01*
X95985200Y40185000D02*
X77734600Y40185000D01*
X77734600Y40185000D02*
X74120000Y36570000D01*
X145243000Y41994000D02*
X97794100Y41994000D01*
X147675000Y44166000D02*
X147416000Y44166000D01*
X147416000Y44166000D02*
X145243000Y41994000D01*
%TO.N,S2*%
X136779000Y55241000D02*
X138135000Y55241000D01*
X135360000Y56660000D02*
X136779000Y55241000D01*
D28*
%TO.N,RL3*%
X145097000Y16612000D02*
X141960000Y18993000D01*
X141960000Y18993000D02*
X88700000Y18993000D01*
X88700000Y18993000D02*
X86420000Y15857000D01*
D26*
%TO.N,RL2*%
X121135000Y33258000D02*
X168815000Y33258000D01*
X168815000Y33258000D02*
X175910000Y26163000D01*
%TO.N,RL0*%
X163637000Y45382000D02*
X154769000Y45382000D01*
D28*
X40122500Y7613000D02*
X44783900Y12274000D01*
D26*
X164773000Y44247000D02*
X163637000Y45382000D01*
X154769000Y45382000D02*
X151572000Y48580000D01*
D28*
X172496000Y12274000D02*
X175938000Y15716000D01*
X44783900Y12274000D02*
X172496000Y12274000D01*
%TO.N,RL6*%
X157990000Y29083000D02*
X133850000Y29083000D01*
X160410000Y26663000D02*
X157990000Y29083000D01*
%TO.N,RL1*%
X156210000Y16905000D02*
X149601000Y23513000D01*
X55580800Y23513000D02*
X55580800Y23514000D01*
X160046000Y16905000D02*
X156210000Y16905000D01*
X149601000Y23513000D02*
X55580800Y23513000D01*
%TD*%
%TA.AperFunction,Conductor*%
%TO.N,+3V3*%
G36*
X94601149Y52881009D02*
G01*
X94622823Y52828683D01*
X94616136Y52797942D01*
X94564202Y52684224D01*
X94545767Y52556000D01*
X94564202Y52427777D01*
X94564202Y52427776D01*
X94564203Y52427774D01*
X94618018Y52309937D01*
X94702851Y52212033D01*
X94811831Y52141996D01*
X94936128Y52105500D01*
X95065671Y52105500D01*
X95065672Y52105500D01*
X95075108Y52108271D01*
X95131419Y52102219D01*
X95148295Y52089585D01*
X95310226Y51927592D01*
X95331890Y51875263D01*
X95310206Y51822941D01*
X95278739Y51804275D01*
X95235933Y51791706D01*
X95126954Y51721669D01*
X95126950Y51721666D01*
X95042119Y51623765D01*
X95042118Y51623764D01*
X95042118Y51623763D01*
X95038114Y51614996D01*
X94988302Y51505924D01*
X94969867Y51377700D01*
X94988302Y51249477D01*
X94988302Y51249476D01*
X94988303Y51249474D01*
X95042118Y51131637D01*
X95126951Y51033733D01*
X95235931Y50963696D01*
X95360228Y50927200D01*
X95489772Y50927200D01*
X95614069Y50963696D01*
X95723049Y51033733D01*
X95782794Y51102685D01*
X95833437Y51128035D01*
X95887177Y51110150D01*
X95891044Y51106550D01*
X95945171Y51052423D01*
X95945173Y51052422D01*
X96397109Y50600486D01*
X96397112Y50600482D01*
X96427710Y50569884D01*
X96449384Y50517558D01*
X96427710Y50465232D01*
X96415394Y50455307D01*
X96401955Y50446671D01*
X96401950Y50446666D01*
X96317119Y50348765D01*
X96263302Y50230924D01*
X96244867Y50102700D01*
X96263302Y49974477D01*
X96263302Y49974476D01*
X96263303Y49974474D01*
X96317118Y49856637D01*
X96401951Y49758733D01*
X96510931Y49688696D01*
X96635228Y49652200D01*
X96764772Y49652200D01*
X96889069Y49688696D01*
X96998049Y49758733D01*
X97082882Y49856637D01*
X97136697Y49974474D01*
X97155133Y50102700D01*
X97136697Y50230926D01*
X97082882Y50348763D01*
X97082880Y50348765D01*
X97082880Y50348766D01*
X97082878Y50348768D01*
X97059247Y50376040D01*
X97041361Y50429779D01*
X97066712Y50480425D01*
X97115172Y50498500D01*
X97559828Y50498500D01*
X97612154Y50476826D01*
X97633828Y50424500D01*
X97615753Y50376040D01*
X97592121Y50348768D01*
X97592119Y50348766D01*
X97538302Y50230924D01*
X97519867Y50102700D01*
X97538302Y49974477D01*
X97538302Y49974476D01*
X97538303Y49974474D01*
X97592118Y49856637D01*
X97676951Y49758733D01*
X97785931Y49688696D01*
X97910228Y49652200D01*
X98039772Y49652200D01*
X98164069Y49688696D01*
X98273049Y49758733D01*
X98357882Y49856637D01*
X98411697Y49974474D01*
X98429740Y50099969D01*
X98458639Y50148675D01*
X98513517Y50162682D01*
X98555313Y50141760D01*
X98734402Y49962662D01*
X98756075Y49910335D01*
X98734400Y49858010D01*
X98702923Y49839335D01*
X98660934Y49827007D01*
X98660933Y49827006D01*
X98551954Y49756969D01*
X98551950Y49756966D01*
X98467119Y49659065D01*
X98413302Y49541224D01*
X98394867Y49413000D01*
X98413302Y49284777D01*
X98413302Y49284776D01*
X98413303Y49284774D01*
X98418213Y49274023D01*
X98465006Y49171561D01*
X98465392Y49160726D01*
X98483232Y49148340D01*
X98551947Y49069037D01*
X98551948Y49069036D01*
X98551951Y49069033D01*
X98660931Y48998996D01*
X98785228Y48962500D01*
X98914772Y48962500D01*
X99039069Y48998996D01*
X99148049Y49069033D01*
X99232882Y49166937D01*
X99281787Y49274025D01*
X99323239Y49312616D01*
X99379840Y49310595D01*
X99401423Y49295610D01*
X99478327Y49218701D01*
X99500000Y49166377D01*
X99500000Y47376683D01*
X99478326Y47324357D01*
X99426000Y47302683D01*
X93974000Y47302683D01*
X93921674Y47324357D01*
X93900000Y47376683D01*
X93900000Y48603000D01*
X94144867Y48603000D01*
X94163302Y48474777D01*
X94163302Y48474776D01*
X94163303Y48474774D01*
X94217118Y48356937D01*
X94301951Y48259033D01*
X94410931Y48188996D01*
X94535228Y48152500D01*
X94664772Y48152500D01*
X94789069Y48188996D01*
X94898049Y48259033D01*
X94982882Y48356937D01*
X95024863Y48448863D01*
X95066313Y48487453D01*
X95122915Y48485432D01*
X95132179Y48480373D01*
X95235931Y48413696D01*
X95360228Y48377200D01*
X95489772Y48377200D01*
X95614069Y48413696D01*
X95723049Y48483733D01*
X95807882Y48581637D01*
X95861697Y48699474D01*
X95880133Y48827700D01*
X96244867Y48827700D01*
X96263302Y48699477D01*
X96263302Y48699476D01*
X96263303Y48699474D01*
X96317118Y48581637D01*
X96401951Y48483733D01*
X96510931Y48413696D01*
X96635228Y48377200D01*
X96764772Y48377200D01*
X96889069Y48413696D01*
X96998049Y48483733D01*
X97082882Y48581637D01*
X97136697Y48699474D01*
X97155133Y48827700D01*
X97519867Y48827700D01*
X97538302Y48699477D01*
X97538302Y48699476D01*
X97538303Y48699474D01*
X97592118Y48581637D01*
X97676951Y48483733D01*
X97785931Y48413696D01*
X97910228Y48377200D01*
X98039772Y48377200D01*
X98164069Y48413696D01*
X98273049Y48483733D01*
X98357882Y48581637D01*
X98411697Y48699474D01*
X98430133Y48827700D01*
X98411697Y48955926D01*
X98359992Y49069141D01*
X98359606Y49079976D01*
X98341767Y49092361D01*
X98273052Y49171664D01*
X98273050Y49171665D01*
X98273049Y49171667D01*
X98199861Y49218702D01*
X98164068Y49241705D01*
X98039772Y49278200D01*
X97910228Y49278200D01*
X97785931Y49241705D01*
X97676954Y49171669D01*
X97676950Y49171666D01*
X97592119Y49073765D01*
X97538302Y48955924D01*
X97519867Y48827700D01*
X97155133Y48827700D01*
X97136697Y48955926D01*
X97082882Y49073763D01*
X96998049Y49171667D01*
X96924861Y49218702D01*
X96889068Y49241705D01*
X96764772Y49278200D01*
X96635228Y49278200D01*
X96510931Y49241705D01*
X96401954Y49171669D01*
X96401950Y49171666D01*
X96317119Y49073765D01*
X96263302Y48955924D01*
X96244867Y48827700D01*
X95880133Y48827700D01*
X95861697Y48955926D01*
X95807882Y49073763D01*
X95723049Y49171667D01*
X95649861Y49218702D01*
X95614068Y49241705D01*
X95489772Y49278200D01*
X95360228Y49278200D01*
X95235931Y49241705D01*
X95126954Y49171669D01*
X95126950Y49171666D01*
X95042118Y49073764D01*
X95042115Y49073760D01*
X95000137Y48981841D01*
X94958685Y48943247D01*
X94902084Y48945270D01*
X94892818Y48950329D01*
X94789068Y49017005D01*
X94664772Y49053500D01*
X94535228Y49053500D01*
X94410931Y49017005D01*
X94301954Y48946969D01*
X94301950Y48946966D01*
X94217119Y48849065D01*
X94163302Y48731224D01*
X94144867Y48603000D01*
X93900000Y48603000D01*
X93900000Y50102700D01*
X94969867Y50102700D01*
X94988302Y49974477D01*
X94988302Y49974476D01*
X94988303Y49974474D01*
X95042118Y49856637D01*
X95126951Y49758733D01*
X95235931Y49688696D01*
X95360228Y49652200D01*
X95489772Y49652200D01*
X95614069Y49688696D01*
X95723049Y49758733D01*
X95807882Y49856637D01*
X95861697Y49974474D01*
X95880133Y50102700D01*
X95861697Y50230926D01*
X95807882Y50348763D01*
X95723049Y50446667D01*
X95642395Y50498500D01*
X95614068Y50516705D01*
X95489772Y50553200D01*
X95360228Y50553200D01*
X95235931Y50516705D01*
X95126954Y50446669D01*
X95126950Y50446666D01*
X95042119Y50348765D01*
X94988302Y50230924D01*
X94969867Y50102700D01*
X93900000Y50102700D01*
X93900000Y52828683D01*
X93921674Y52881009D01*
X93974000Y52902683D01*
X94548823Y52902683D01*
X94601149Y52881009D01*
G37*
%TD.AperFunction*%
%TA.AperFunction,Conductor*%
G36*
X98781295Y52881009D02*
G01*
X98802969Y52828683D01*
X98796282Y52797942D01*
X98761702Y52722224D01*
X98743267Y52594001D01*
X98747576Y52564031D01*
X98733569Y52509153D01*
X98684860Y52480253D01*
X98674329Y52479500D01*
X98545828Y52479500D01*
X98421531Y52443005D01*
X98312554Y52372969D01*
X98312550Y52372966D01*
X98227719Y52275065D01*
X98173902Y52157224D01*
X98155467Y52029000D01*
X98174322Y51897856D01*
X98160315Y51842978D01*
X98111606Y51814078D01*
X98080228Y51816322D01*
X98039773Y51828200D01*
X98039772Y51828200D01*
X97910228Y51828200D01*
X97785931Y51791705D01*
X97676954Y51721669D01*
X97676950Y51721666D01*
X97592119Y51623765D01*
X97592118Y51623764D01*
X97592118Y51623763D01*
X97588114Y51614996D01*
X97538302Y51505924D01*
X97519867Y51377700D01*
X97538302Y51249477D01*
X97592119Y51131635D01*
X97592120Y51131633D01*
X97643828Y51071959D01*
X97661713Y51018221D01*
X97636361Y50967574D01*
X97587902Y50949500D01*
X97087098Y50949500D01*
X97034772Y50971174D01*
X97013098Y51023500D01*
X97031172Y51071959D01*
X97082879Y51131633D01*
X97082880Y51131635D01*
X97082879Y51131635D01*
X97082882Y51131637D01*
X97136697Y51249474D01*
X97155133Y51377700D01*
X97136697Y51505926D01*
X97082882Y51623763D01*
X96998049Y51721667D01*
X96902711Y51782937D01*
X96889068Y51791705D01*
X96764772Y51828200D01*
X96635228Y51828200D01*
X96510931Y51791705D01*
X96401954Y51721669D01*
X96401946Y51721663D01*
X96338770Y51648753D01*
X96288124Y51623402D01*
X96234385Y51641288D01*
X96230519Y51644887D01*
X96219190Y51656216D01*
X96020641Y51854840D01*
X95465075Y52410615D01*
X95443412Y52462944D01*
X95444164Y52473454D01*
X95456033Y52556000D01*
X95437597Y52684226D01*
X95385663Y52797943D01*
X95383643Y52854543D01*
X95422236Y52895996D01*
X95452977Y52902683D01*
X98728969Y52902683D01*
X98781295Y52881009D01*
G37*
%TD.AperFunction*%
%TD*%
M02*
