%TF.GenerationSoftware,KiCad,Pcbnew,8.0.5*%
%TF.CreationDate,2024-09-30T13:59:48-07:00*%
%TF.ProjectId,combo_board,636f6d62-6f5f-4626-9f61-72642e6b6963,1*%
%TF.SameCoordinates,Original*%
%TF.FileFunction,Soldermask,Bot*%
%TF.FilePolarity,Negative*%
%FSLAX46Y46*%
G04 Gerber Fmt 4.6, Leading zero omitted, Abs format (unit mm)*
G04 Created by KiCad (PCBNEW 8.0.5) date 2024-09-30 13:59:48*
%MOMM*%
%LPD*%
G01*
G04 APERTURE LIST*
G04 APERTURE END LIST*
G36*
X56601546Y37582203D02*
G01*
X56764728Y37514611D01*
X56911588Y37416482D01*
X57036482Y37291588D01*
X57134611Y37144728D01*
X57202203Y36981546D01*
X57236661Y36808313D01*
X57241000Y36720000D01*
X57241000Y36420000D01*
X57236661Y36331687D01*
X57202203Y36158454D01*
X57134611Y35995272D01*
X57036482Y35848412D01*
X56911588Y35723518D01*
X56764728Y35625389D01*
X56601546Y35557797D01*
X56428313Y35523339D01*
X56251687Y35523339D01*
X56078454Y35557797D01*
X55915272Y35625389D01*
X55768412Y35723518D01*
X55643518Y35848412D01*
X55545389Y35995272D01*
X55477797Y36158454D01*
X55443339Y36331687D01*
X55439000Y36420000D01*
X55439000Y36720000D01*
X55443339Y36808313D01*
X55477797Y36981546D01*
X55545389Y37144728D01*
X55643518Y37291588D01*
X55768412Y37416482D01*
X55915272Y37514611D01*
X56078454Y37582203D01*
X56251687Y37616661D01*
X56428313Y37616661D01*
X56601546Y37582203D01*
G37*
G36*
X59141546Y37582203D02*
G01*
X59304728Y37514611D01*
X59451588Y37416482D01*
X59576482Y37291588D01*
X59674611Y37144728D01*
X59742203Y36981546D01*
X59776661Y36808313D01*
X59781000Y36720000D01*
X59781000Y36420000D01*
X59776661Y36331687D01*
X59742203Y36158454D01*
X59674611Y35995272D01*
X59576482Y35848412D01*
X59451588Y35723518D01*
X59304728Y35625389D01*
X59141546Y35557797D01*
X58968313Y35523339D01*
X58791687Y35523339D01*
X58618454Y35557797D01*
X58455272Y35625389D01*
X58308412Y35723518D01*
X58183518Y35848412D01*
X58085389Y35995272D01*
X58017797Y36158454D01*
X57983339Y36331687D01*
X57979000Y36420000D01*
X57979000Y36720000D01*
X57983339Y36808313D01*
X58017797Y36981546D01*
X58085389Y37144728D01*
X58183518Y37291588D01*
X58308412Y37416482D01*
X58455272Y37514611D01*
X58618454Y37582203D01*
X58791687Y37616661D01*
X58968313Y37616661D01*
X59141546Y37582203D01*
G37*
G36*
X61681546Y37582203D02*
G01*
X61844728Y37514611D01*
X61991588Y37416482D01*
X62116482Y37291588D01*
X62214611Y37144728D01*
X62282203Y36981546D01*
X62316661Y36808313D01*
X62321000Y36720000D01*
X62321000Y36420000D01*
X62316661Y36331687D01*
X62282203Y36158454D01*
X62214611Y35995272D01*
X62116482Y35848412D01*
X61991588Y35723518D01*
X61844728Y35625389D01*
X61681546Y35557797D01*
X61508313Y35523339D01*
X61331687Y35523339D01*
X61158454Y35557797D01*
X60995272Y35625389D01*
X60848412Y35723518D01*
X60723518Y35848412D01*
X60625389Y35995272D01*
X60557797Y36158454D01*
X60523339Y36331687D01*
X60519000Y36420000D01*
X60519000Y36720000D01*
X60523339Y36808313D01*
X60557797Y36981546D01*
X60625389Y37144728D01*
X60723518Y37291588D01*
X60848412Y37416482D01*
X60995272Y37514611D01*
X61158454Y37582203D01*
X61331687Y37616661D01*
X61508313Y37616661D01*
X61681546Y37582203D01*
G37*
G36*
X64221546Y37582203D02*
G01*
X64384728Y37514611D01*
X64531588Y37416482D01*
X64656482Y37291588D01*
X64754611Y37144728D01*
X64822203Y36981546D01*
X64856661Y36808313D01*
X64861000Y36720000D01*
X64861000Y36420000D01*
X64856661Y36331687D01*
X64822203Y36158454D01*
X64754611Y35995272D01*
X64656482Y35848412D01*
X64531588Y35723518D01*
X64384728Y35625389D01*
X64221546Y35557797D01*
X64048313Y35523339D01*
X63871687Y35523339D01*
X63698454Y35557797D01*
X63535272Y35625389D01*
X63388412Y35723518D01*
X63263518Y35848412D01*
X63165389Y35995272D01*
X63097797Y36158454D01*
X63063339Y36331687D01*
X63059000Y36420000D01*
X63059000Y36720000D01*
X63063339Y36808313D01*
X63097797Y36981546D01*
X63165389Y37144728D01*
X63263518Y37291588D01*
X63388412Y37416482D01*
X63535272Y37514611D01*
X63698454Y37582203D01*
X63871687Y37616661D01*
X64048313Y37616661D01*
X64221546Y37582203D01*
G37*
G36*
X66761546Y37582203D02*
G01*
X66924728Y37514611D01*
X67071588Y37416482D01*
X67196482Y37291588D01*
X67294611Y37144728D01*
X67362203Y36981546D01*
X67396661Y36808313D01*
X67401000Y36720000D01*
X67401000Y36420000D01*
X67396661Y36331687D01*
X67362203Y36158454D01*
X67294611Y35995272D01*
X67196482Y35848412D01*
X67071588Y35723518D01*
X66924728Y35625389D01*
X66761546Y35557797D01*
X66588313Y35523339D01*
X66411687Y35523339D01*
X66238454Y35557797D01*
X66075272Y35625389D01*
X65928412Y35723518D01*
X65803518Y35848412D01*
X65705389Y35995272D01*
X65637797Y36158454D01*
X65603339Y36331687D01*
X65599000Y36420000D01*
X65599000Y36720000D01*
X65603339Y36808313D01*
X65637797Y36981546D01*
X65705389Y37144728D01*
X65803518Y37291588D01*
X65928412Y37416482D01*
X66075272Y37514611D01*
X66238454Y37582203D01*
X66411687Y37616661D01*
X66588313Y37616661D01*
X66761546Y37582203D01*
G37*
G36*
X69301546Y37582203D02*
G01*
X69464728Y37514611D01*
X69611588Y37416482D01*
X69736482Y37291588D01*
X69834611Y37144728D01*
X69902203Y36981546D01*
X69936661Y36808313D01*
X69941000Y36720000D01*
X69941000Y36420000D01*
X69936661Y36331687D01*
X69902203Y36158454D01*
X69834611Y35995272D01*
X69736482Y35848412D01*
X69611588Y35723518D01*
X69464728Y35625389D01*
X69301546Y35557797D01*
X69128313Y35523339D01*
X68951687Y35523339D01*
X68778454Y35557797D01*
X68615272Y35625389D01*
X68468412Y35723518D01*
X68343518Y35848412D01*
X68245389Y35995272D01*
X68177797Y36158454D01*
X68143339Y36331687D01*
X68139000Y36420000D01*
X68139000Y36720000D01*
X68143339Y36808313D01*
X68177797Y36981546D01*
X68245389Y37144728D01*
X68343518Y37291588D01*
X68468412Y37416482D01*
X68615272Y37514611D01*
X68778454Y37582203D01*
X68951687Y37616661D01*
X69128313Y37616661D01*
X69301546Y37582203D01*
G37*
G36*
X71841546Y37582203D02*
G01*
X72004728Y37514611D01*
X72151588Y37416482D01*
X72276482Y37291588D01*
X72374611Y37144728D01*
X72442203Y36981546D01*
X72476661Y36808313D01*
X72481000Y36720000D01*
X72481000Y36420000D01*
X72476661Y36331687D01*
X72442203Y36158454D01*
X72374611Y35995272D01*
X72276482Y35848412D01*
X72151588Y35723518D01*
X72004728Y35625389D01*
X71841546Y35557797D01*
X71668313Y35523339D01*
X71491687Y35523339D01*
X71318454Y35557797D01*
X71155272Y35625389D01*
X71008412Y35723518D01*
X70883518Y35848412D01*
X70785389Y35995272D01*
X70717797Y36158454D01*
X70683339Y36331687D01*
X70679000Y36420000D01*
X70679000Y36720000D01*
X70683339Y36808313D01*
X70717797Y36981546D01*
X70785389Y37144728D01*
X70883518Y37291588D01*
X71008412Y37416482D01*
X71155272Y37514611D01*
X71318454Y37582203D01*
X71491687Y37616661D01*
X71668313Y37616661D01*
X71841546Y37582203D01*
G37*
G36*
X74381546Y37582203D02*
G01*
X74544728Y37514611D01*
X74691588Y37416482D01*
X74816482Y37291588D01*
X74914611Y37144728D01*
X74982203Y36981546D01*
X75016661Y36808313D01*
X75021000Y36720000D01*
X75021000Y36420000D01*
X75016661Y36331687D01*
X74982203Y36158454D01*
X74914611Y35995272D01*
X74816482Y35848412D01*
X74691588Y35723518D01*
X74544728Y35625389D01*
X74381546Y35557797D01*
X74208313Y35523339D01*
X74031687Y35523339D01*
X73858454Y35557797D01*
X73695272Y35625389D01*
X73548412Y35723518D01*
X73423518Y35848412D01*
X73325389Y35995272D01*
X73257797Y36158454D01*
X73223339Y36331687D01*
X73219000Y36420000D01*
X73219000Y36720000D01*
X73223339Y36808313D01*
X73257797Y36981546D01*
X73325389Y37144728D01*
X73423518Y37291588D01*
X73548412Y37416482D01*
X73695272Y37514611D01*
X73858454Y37582203D01*
X74031687Y37616661D01*
X74208313Y37616661D01*
X74381546Y37582203D01*
G37*
G36*
X76921546Y37582203D02*
G01*
X77084728Y37514611D01*
X77231588Y37416482D01*
X77356482Y37291588D01*
X77454611Y37144728D01*
X77522203Y36981546D01*
X77556661Y36808313D01*
X77561000Y36720000D01*
X77561000Y36420000D01*
X77556661Y36331687D01*
X77522203Y36158454D01*
X77454611Y35995272D01*
X77356482Y35848412D01*
X77231588Y35723518D01*
X77084728Y35625389D01*
X76921546Y35557797D01*
X76748313Y35523339D01*
X76571687Y35523339D01*
X76398454Y35557797D01*
X76235272Y35625389D01*
X76088412Y35723518D01*
X75963518Y35848412D01*
X75865389Y35995272D01*
X75797797Y36158454D01*
X75763339Y36331687D01*
X75759000Y36420000D01*
X75759000Y36720000D01*
X75763339Y36808313D01*
X75797797Y36981546D01*
X75865389Y37144728D01*
X75963518Y37291588D01*
X76088412Y37416482D01*
X76235272Y37514611D01*
X76398454Y37582203D01*
X76571687Y37616661D01*
X76748313Y37616661D01*
X76921546Y37582203D01*
G37*
G36*
X79461546Y37582203D02*
G01*
X79624728Y37514611D01*
X79771588Y37416482D01*
X79896482Y37291588D01*
X79994611Y37144728D01*
X80062203Y36981546D01*
X80096661Y36808313D01*
X80101000Y36720000D01*
X80101000Y36420000D01*
X80096661Y36331687D01*
X80062203Y36158454D01*
X79994611Y35995272D01*
X79896482Y35848412D01*
X79771588Y35723518D01*
X79624728Y35625389D01*
X79461546Y35557797D01*
X79288313Y35523339D01*
X79111687Y35523339D01*
X78938454Y35557797D01*
X78775272Y35625389D01*
X78628412Y35723518D01*
X78503518Y35848412D01*
X78405389Y35995272D01*
X78337797Y36158454D01*
X78303339Y36331687D01*
X78299000Y36420000D01*
X78299000Y36720000D01*
X78303339Y36808313D01*
X78337797Y36981546D01*
X78405389Y37144728D01*
X78503518Y37291588D01*
X78628412Y37416482D01*
X78775272Y37514611D01*
X78938454Y37582203D01*
X79111687Y37616661D01*
X79288313Y37616661D01*
X79461546Y37582203D01*
G37*
G36*
X132801546Y37582203D02*
G01*
X132964728Y37514611D01*
X133111588Y37416482D01*
X133236482Y37291588D01*
X133334611Y37144728D01*
X133402203Y36981546D01*
X133436661Y36808313D01*
X133441000Y36720000D01*
X133441000Y36420000D01*
X133436661Y36331687D01*
X133402203Y36158454D01*
X133334611Y35995272D01*
X133236482Y35848412D01*
X133111588Y35723518D01*
X132964728Y35625389D01*
X132801546Y35557797D01*
X132628313Y35523339D01*
X132451687Y35523339D01*
X132278454Y35557797D01*
X132115272Y35625389D01*
X131968412Y35723518D01*
X131843518Y35848412D01*
X131745389Y35995272D01*
X131677797Y36158454D01*
X131643339Y36331687D01*
X131639000Y36420000D01*
X131639000Y36720000D01*
X131643339Y36808313D01*
X131677797Y36981546D01*
X131745389Y37144728D01*
X131843518Y37291588D01*
X131968412Y37416482D01*
X132115272Y37514611D01*
X132278454Y37582203D01*
X132451687Y37616661D01*
X132628313Y37616661D01*
X132801546Y37582203D01*
G37*
G36*
X135341546Y37582203D02*
G01*
X135504728Y37514611D01*
X135651588Y37416482D01*
X135776482Y37291588D01*
X135874611Y37144728D01*
X135942203Y36981546D01*
X135976661Y36808313D01*
X135981000Y36720000D01*
X135981000Y36420000D01*
X135976661Y36331687D01*
X135942203Y36158454D01*
X135874611Y35995272D01*
X135776482Y35848412D01*
X135651588Y35723518D01*
X135504728Y35625389D01*
X135341546Y35557797D01*
X135168313Y35523339D01*
X134991687Y35523339D01*
X134818454Y35557797D01*
X134655272Y35625389D01*
X134508412Y35723518D01*
X134383518Y35848412D01*
X134285389Y35995272D01*
X134217797Y36158454D01*
X134183339Y36331687D01*
X134179000Y36420000D01*
X134179000Y36720000D01*
X134183339Y36808313D01*
X134217797Y36981546D01*
X134285389Y37144728D01*
X134383518Y37291588D01*
X134508412Y37416482D01*
X134655272Y37514611D01*
X134818454Y37582203D01*
X134991687Y37616661D01*
X135168313Y37616661D01*
X135341546Y37582203D01*
G37*
G36*
X137881546Y37582203D02*
G01*
X138044728Y37514611D01*
X138191588Y37416482D01*
X138316482Y37291588D01*
X138414611Y37144728D01*
X138482203Y36981546D01*
X138516661Y36808313D01*
X138521000Y36720000D01*
X138521000Y36420000D01*
X138516661Y36331687D01*
X138482203Y36158454D01*
X138414611Y35995272D01*
X138316482Y35848412D01*
X138191588Y35723518D01*
X138044728Y35625389D01*
X137881546Y35557797D01*
X137708313Y35523339D01*
X137531687Y35523339D01*
X137358454Y35557797D01*
X137195272Y35625389D01*
X137048412Y35723518D01*
X136923518Y35848412D01*
X136825389Y35995272D01*
X136757797Y36158454D01*
X136723339Y36331687D01*
X136719000Y36420000D01*
X136719000Y36720000D01*
X136723339Y36808313D01*
X136757797Y36981546D01*
X136825389Y37144728D01*
X136923518Y37291588D01*
X137048412Y37416482D01*
X137195272Y37514611D01*
X137358454Y37582203D01*
X137531687Y37616661D01*
X137708313Y37616661D01*
X137881546Y37582203D01*
G37*
G36*
X140421546Y37582203D02*
G01*
X140584728Y37514611D01*
X140731588Y37416482D01*
X140856482Y37291588D01*
X140954611Y37144728D01*
X141022203Y36981546D01*
X141056661Y36808313D01*
X141061000Y36720000D01*
X141061000Y36420000D01*
X141056661Y36331687D01*
X141022203Y36158454D01*
X140954611Y35995272D01*
X140856482Y35848412D01*
X140731588Y35723518D01*
X140584728Y35625389D01*
X140421546Y35557797D01*
X140248313Y35523339D01*
X140071687Y35523339D01*
X139898454Y35557797D01*
X139735272Y35625389D01*
X139588412Y35723518D01*
X139463518Y35848412D01*
X139365389Y35995272D01*
X139297797Y36158454D01*
X139263339Y36331687D01*
X139259000Y36420000D01*
X139259000Y36720000D01*
X139263339Y36808313D01*
X139297797Y36981546D01*
X139365389Y37144728D01*
X139463518Y37291588D01*
X139588412Y37416482D01*
X139735272Y37514611D01*
X139898454Y37582203D01*
X140071687Y37616661D01*
X140248313Y37616661D01*
X140421546Y37582203D01*
G37*
G36*
X142961546Y37582203D02*
G01*
X143124728Y37514611D01*
X143271588Y37416482D01*
X143396482Y37291588D01*
X143494611Y37144728D01*
X143562203Y36981546D01*
X143596661Y36808313D01*
X143601000Y36720000D01*
X143601000Y36420000D01*
X143596661Y36331687D01*
X143562203Y36158454D01*
X143494611Y35995272D01*
X143396482Y35848412D01*
X143271588Y35723518D01*
X143124728Y35625389D01*
X142961546Y35557797D01*
X142788313Y35523339D01*
X142611687Y35523339D01*
X142438454Y35557797D01*
X142275272Y35625389D01*
X142128412Y35723518D01*
X142003518Y35848412D01*
X141905389Y35995272D01*
X141837797Y36158454D01*
X141803339Y36331687D01*
X141799000Y36420000D01*
X141799000Y36720000D01*
X141803339Y36808313D01*
X141837797Y36981546D01*
X141905389Y37144728D01*
X142003518Y37291588D01*
X142128412Y37416482D01*
X142275272Y37514611D01*
X142438454Y37582203D01*
X142611687Y37616661D01*
X142788313Y37616661D01*
X142961546Y37582203D01*
G37*
G36*
X145501546Y37582203D02*
G01*
X145664728Y37514611D01*
X145811588Y37416482D01*
X145936482Y37291588D01*
X146034611Y37144728D01*
X146102203Y36981546D01*
X146136661Y36808313D01*
X146141000Y36720000D01*
X146141000Y36420000D01*
X146136661Y36331687D01*
X146102203Y36158454D01*
X146034611Y35995272D01*
X145936482Y35848412D01*
X145811588Y35723518D01*
X145664728Y35625389D01*
X145501546Y35557797D01*
X145328313Y35523339D01*
X145151687Y35523339D01*
X144978454Y35557797D01*
X144815272Y35625389D01*
X144668412Y35723518D01*
X144543518Y35848412D01*
X144445389Y35995272D01*
X144377797Y36158454D01*
X144343339Y36331687D01*
X144339000Y36420000D01*
X144339000Y36720000D01*
X144343339Y36808313D01*
X144377797Y36981546D01*
X144445389Y37144728D01*
X144543518Y37291588D01*
X144668412Y37416482D01*
X144815272Y37514611D01*
X144978454Y37582203D01*
X145151687Y37616661D01*
X145328313Y37616661D01*
X145501546Y37582203D01*
G37*
G36*
X148041546Y37582203D02*
G01*
X148204728Y37514611D01*
X148351588Y37416482D01*
X148476482Y37291588D01*
X148574611Y37144728D01*
X148642203Y36981546D01*
X148676661Y36808313D01*
X148681000Y36720000D01*
X148681000Y36420000D01*
X148676661Y36331687D01*
X148642203Y36158454D01*
X148574611Y35995272D01*
X148476482Y35848412D01*
X148351588Y35723518D01*
X148204728Y35625389D01*
X148041546Y35557797D01*
X147868313Y35523339D01*
X147691687Y35523339D01*
X147518454Y35557797D01*
X147355272Y35625389D01*
X147208412Y35723518D01*
X147083518Y35848412D01*
X146985389Y35995272D01*
X146917797Y36158454D01*
X146883339Y36331687D01*
X146879000Y36420000D01*
X146879000Y36720000D01*
X146883339Y36808313D01*
X146917797Y36981546D01*
X146985389Y37144728D01*
X147083518Y37291588D01*
X147208412Y37416482D01*
X147355272Y37514611D01*
X147518454Y37582203D01*
X147691687Y37616661D01*
X147868313Y37616661D01*
X148041546Y37582203D01*
G37*
G36*
X150581546Y37582203D02*
G01*
X150744728Y37514611D01*
X150891588Y37416482D01*
X151016482Y37291588D01*
X151114611Y37144728D01*
X151182203Y36981546D01*
X151216661Y36808313D01*
X151221000Y36720000D01*
X151221000Y36420000D01*
X151216661Y36331687D01*
X151182203Y36158454D01*
X151114611Y35995272D01*
X151016482Y35848412D01*
X150891588Y35723518D01*
X150744728Y35625389D01*
X150581546Y35557797D01*
X150408313Y35523339D01*
X150231687Y35523339D01*
X150058454Y35557797D01*
X149895272Y35625389D01*
X149748412Y35723518D01*
X149623518Y35848412D01*
X149525389Y35995272D01*
X149457797Y36158454D01*
X149423339Y36331687D01*
X149419000Y36420000D01*
X149419000Y36720000D01*
X149423339Y36808313D01*
X149457797Y36981546D01*
X149525389Y37144728D01*
X149623518Y37291588D01*
X149748412Y37416482D01*
X149895272Y37514611D01*
X150058454Y37582203D01*
X150231687Y37616661D01*
X150408313Y37616661D01*
X150581546Y37582203D01*
G37*
G36*
X153121546Y37582203D02*
G01*
X153284728Y37514611D01*
X153431588Y37416482D01*
X153556482Y37291588D01*
X153654611Y37144728D01*
X153722203Y36981546D01*
X153756661Y36808313D01*
X153761000Y36720000D01*
X153761000Y36420000D01*
X153756661Y36331687D01*
X153722203Y36158454D01*
X153654611Y35995272D01*
X153556482Y35848412D01*
X153431588Y35723518D01*
X153284728Y35625389D01*
X153121546Y35557797D01*
X152948313Y35523339D01*
X152771687Y35523339D01*
X152598454Y35557797D01*
X152435272Y35625389D01*
X152288412Y35723518D01*
X152163518Y35848412D01*
X152065389Y35995272D01*
X151997797Y36158454D01*
X151963339Y36331687D01*
X151959000Y36420000D01*
X151959000Y36720000D01*
X151963339Y36808313D01*
X151997797Y36981546D01*
X152065389Y37144728D01*
X152163518Y37291588D01*
X152288412Y37416482D01*
X152435272Y37514611D01*
X152598454Y37582203D01*
X152771687Y37616661D01*
X152948313Y37616661D01*
X153121546Y37582203D01*
G37*
G36*
X155661546Y37582203D02*
G01*
X155824728Y37514611D01*
X155971588Y37416482D01*
X156096482Y37291588D01*
X156194611Y37144728D01*
X156262203Y36981546D01*
X156296661Y36808313D01*
X156301000Y36720000D01*
X156301000Y36420000D01*
X156296661Y36331687D01*
X156262203Y36158454D01*
X156194611Y35995272D01*
X156096482Y35848412D01*
X155971588Y35723518D01*
X155824728Y35625389D01*
X155661546Y35557797D01*
X155488313Y35523339D01*
X155311687Y35523339D01*
X155138454Y35557797D01*
X154975272Y35625389D01*
X154828412Y35723518D01*
X154703518Y35848412D01*
X154605389Y35995272D01*
X154537797Y36158454D01*
X154503339Y36331687D01*
X154499000Y36420000D01*
X154499000Y36720000D01*
X154503339Y36808313D01*
X154537797Y36981546D01*
X154605389Y37144728D01*
X154703518Y37291588D01*
X154828412Y37416482D01*
X154975272Y37514611D01*
X155138454Y37582203D01*
X155311687Y37616661D01*
X155488313Y37616661D01*
X155661546Y37582203D01*
G37*
G36*
X158201546Y37582203D02*
G01*
X158364728Y37514611D01*
X158511588Y37416482D01*
X158636482Y37291588D01*
X158734611Y37144728D01*
X158802203Y36981546D01*
X158836661Y36808313D01*
X158841000Y36720000D01*
X158841000Y36420000D01*
X158836661Y36331687D01*
X158802203Y36158454D01*
X158734611Y35995272D01*
X158636482Y35848412D01*
X158511588Y35723518D01*
X158364728Y35625389D01*
X158201546Y35557797D01*
X158028313Y35523339D01*
X157851687Y35523339D01*
X157678454Y35557797D01*
X157515272Y35625389D01*
X157368412Y35723518D01*
X157243518Y35848412D01*
X157145389Y35995272D01*
X157077797Y36158454D01*
X157043339Y36331687D01*
X157039000Y36420000D01*
X157039000Y36720000D01*
X157043339Y36808313D01*
X157077797Y36981546D01*
X157145389Y37144728D01*
X157243518Y37291588D01*
X157368412Y37416482D01*
X157515272Y37514611D01*
X157678454Y37582203D01*
X157851687Y37616661D01*
X158028313Y37616661D01*
X158201546Y37582203D01*
G37*
G36*
X43809517Y42029818D02*
G01*
X43826062Y42018762D01*
X43837118Y42002217D01*
X43841000Y41982700D01*
X43841000Y39982700D01*
X43837118Y39963183D01*
X43826062Y39946638D01*
X43809517Y39935582D01*
X43790000Y39931700D01*
X41790000Y39931700D01*
X41770483Y39935582D01*
X41753938Y39946638D01*
X41742882Y39963183D01*
X41739000Y39982700D01*
X41739000Y41982700D01*
X41742882Y42002217D01*
X41753938Y42018762D01*
X41770483Y42029818D01*
X41790000Y42033700D01*
X43790000Y42033700D01*
X43809517Y42029818D01*
G37*
G36*
X165732785Y40802206D02*
G01*
X165781773Y40769473D01*
X165814506Y40720485D01*
X165826000Y40662700D01*
X165826000Y40462700D01*
X165814506Y40404915D01*
X165781773Y40355927D01*
X165732785Y40323194D01*
X165675000Y40311700D01*
X165225000Y40311700D01*
X165167215Y40323194D01*
X165118227Y40355927D01*
X165085494Y40404915D01*
X165074000Y40462700D01*
X165074000Y40662700D01*
X165085494Y40720485D01*
X165118227Y40769473D01*
X165167215Y40802206D01*
X165225000Y40813700D01*
X165675000Y40813700D01*
X165732785Y40802206D01*
G37*
G36*
X167632785Y40802206D02*
G01*
X167681773Y40769473D01*
X167714506Y40720485D01*
X167726000Y40662700D01*
X167726000Y40462700D01*
X167714506Y40404915D01*
X167681773Y40355927D01*
X167632785Y40323194D01*
X167575000Y40311700D01*
X167125000Y40311700D01*
X167067215Y40323194D01*
X167018227Y40355927D01*
X166985494Y40404915D01*
X166974000Y40462700D01*
X166974000Y40662700D01*
X166985494Y40720485D01*
X167018227Y40769473D01*
X167067215Y40802206D01*
X167125000Y40813700D01*
X167575000Y40813700D01*
X167632785Y40802206D01*
G37*
G36*
X170832785Y40802206D02*
G01*
X170881773Y40769473D01*
X170914506Y40720485D01*
X170926000Y40662700D01*
X170926000Y40462700D01*
X170914506Y40404915D01*
X170881773Y40355927D01*
X170832785Y40323194D01*
X170775000Y40311700D01*
X170325000Y40311700D01*
X170267215Y40323194D01*
X170218227Y40355927D01*
X170185494Y40404915D01*
X170174000Y40462700D01*
X170174000Y40662700D01*
X170185494Y40720485D01*
X170218227Y40769473D01*
X170267215Y40802206D01*
X170325000Y40813700D01*
X170775000Y40813700D01*
X170832785Y40802206D01*
G37*
G36*
X172732785Y40802206D02*
G01*
X172781773Y40769473D01*
X172814506Y40720485D01*
X172826000Y40662700D01*
X172826000Y40462700D01*
X172814506Y40404915D01*
X172781773Y40355927D01*
X172732785Y40323194D01*
X172675000Y40311700D01*
X172225000Y40311700D01*
X172167215Y40323194D01*
X172118227Y40355927D01*
X172085494Y40404915D01*
X172074000Y40462700D01*
X172074000Y40662700D01*
X172085494Y40720485D01*
X172118227Y40769473D01*
X172167215Y40802206D01*
X172225000Y40813700D01*
X172675000Y40813700D01*
X172732785Y40802206D01*
G37*
G36*
X160652785Y40924706D02*
G01*
X160701773Y40891973D01*
X160734506Y40842985D01*
X160746000Y40785200D01*
X160746000Y40585200D01*
X160734506Y40527415D01*
X160701773Y40478427D01*
X160652785Y40445694D01*
X160595000Y40434200D01*
X160145000Y40434200D01*
X160087215Y40445694D01*
X160038227Y40478427D01*
X160005494Y40527415D01*
X159994000Y40585200D01*
X159994000Y40785200D01*
X160005494Y40842985D01*
X160038227Y40891973D01*
X160087215Y40924706D01*
X160145000Y40936200D01*
X160595000Y40936200D01*
X160652785Y40924706D01*
G37*
G36*
X162552785Y40924706D02*
G01*
X162601773Y40891973D01*
X162634506Y40842985D01*
X162646000Y40785200D01*
X162646000Y40585200D01*
X162634506Y40527415D01*
X162601773Y40478427D01*
X162552785Y40445694D01*
X162495000Y40434200D01*
X162045000Y40434200D01*
X161987215Y40445694D01*
X161938227Y40478427D01*
X161905494Y40527415D01*
X161894000Y40585200D01*
X161894000Y40785200D01*
X161905494Y40842985D01*
X161938227Y40891973D01*
X161987215Y40924706D01*
X162045000Y40936200D01*
X162495000Y40936200D01*
X162552785Y40924706D01*
G37*
G36*
X155732785Y41002206D02*
G01*
X155781773Y40969473D01*
X155814506Y40920485D01*
X155826000Y40862700D01*
X155826000Y40662700D01*
X155814506Y40604915D01*
X155781773Y40555927D01*
X155732785Y40523194D01*
X155675000Y40511700D01*
X155225000Y40511700D01*
X155167215Y40523194D01*
X155118227Y40555927D01*
X155085494Y40604915D01*
X155074000Y40662700D01*
X155074000Y40862700D01*
X155085494Y40920485D01*
X155118227Y40969473D01*
X155167215Y41002206D01*
X155225000Y41013700D01*
X155675000Y41013700D01*
X155732785Y41002206D01*
G37*
G36*
X157632785Y41002206D02*
G01*
X157681773Y40969473D01*
X157714506Y40920485D01*
X157726000Y40862700D01*
X157726000Y40662700D01*
X157714506Y40604915D01*
X157681773Y40555927D01*
X157632785Y40523194D01*
X157575000Y40511700D01*
X157125000Y40511700D01*
X157067215Y40523194D01*
X157018227Y40555927D01*
X156985494Y40604915D01*
X156974000Y40662700D01*
X156974000Y40862700D01*
X156985494Y40920485D01*
X157018227Y40969473D01*
X157067215Y41002206D01*
X157125000Y41013700D01*
X157575000Y41013700D01*
X157632785Y41002206D01*
G37*
G36*
X148932785Y41102206D02*
G01*
X148981773Y41069473D01*
X149014506Y41020485D01*
X149026000Y40962700D01*
X149026000Y40762700D01*
X149014506Y40704915D01*
X148981773Y40655927D01*
X148932785Y40623194D01*
X148875000Y40611700D01*
X148425000Y40611700D01*
X148367215Y40623194D01*
X148318227Y40655927D01*
X148285494Y40704915D01*
X148274000Y40762700D01*
X148274000Y40962700D01*
X148285494Y41020485D01*
X148318227Y41069473D01*
X148367215Y41102206D01*
X148425000Y41113700D01*
X148875000Y41113700D01*
X148932785Y41102206D01*
G37*
G36*
X150832785Y41102206D02*
G01*
X150881773Y41069473D01*
X150914506Y41020485D01*
X150926000Y40962700D01*
X150926000Y40762700D01*
X150914506Y40704915D01*
X150881773Y40655927D01*
X150832785Y40623194D01*
X150775000Y40611700D01*
X150325000Y40611700D01*
X150267215Y40623194D01*
X150218227Y40655927D01*
X150185494Y40704915D01*
X150174000Y40762700D01*
X150174000Y40962700D01*
X150185494Y41020485D01*
X150218227Y41069473D01*
X150267215Y41102206D01*
X150325000Y41113700D01*
X150775000Y41113700D01*
X150832785Y41102206D01*
G37*
G36*
X95489517Y41809801D02*
G01*
X95506062Y41798745D01*
X95517118Y41782200D01*
X95521000Y41762683D01*
X95521000Y40762683D01*
X95517118Y40743166D01*
X95506062Y40726621D01*
X95489517Y40715565D01*
X95470000Y40711683D01*
X94470000Y40711683D01*
X94450483Y40715565D01*
X94433938Y40726621D01*
X94422882Y40743166D01*
X94419000Y40762683D01*
X94419000Y41762683D01*
X94422882Y41782200D01*
X94433938Y41798745D01*
X94450483Y41809801D01*
X94470000Y41813683D01*
X95470000Y41813683D01*
X95489517Y41809801D01*
G37*
G36*
X92349517Y41899801D02*
G01*
X92366062Y41888745D01*
X92377118Y41872200D01*
X92381000Y41852683D01*
X92381000Y40852683D01*
X92377118Y40833166D01*
X92366062Y40816621D01*
X92349517Y40805565D01*
X92330000Y40801683D01*
X91330000Y40801683D01*
X91310483Y40805565D01*
X91293938Y40816621D01*
X91282882Y40833166D01*
X91279000Y40852683D01*
X91279000Y41852683D01*
X91282882Y41872200D01*
X91293938Y41888745D01*
X91310483Y41899801D01*
X91330000Y41903683D01*
X92330000Y41903683D01*
X92349517Y41899801D01*
G37*
G36*
X165732785Y41452206D02*
G01*
X165781773Y41419473D01*
X165814506Y41370485D01*
X165826000Y41312700D01*
X165826000Y41112700D01*
X165814506Y41054915D01*
X165781773Y41005927D01*
X165732785Y40973194D01*
X165675000Y40961700D01*
X165225000Y40961700D01*
X165167215Y40973194D01*
X165118227Y41005927D01*
X165085494Y41054915D01*
X165074000Y41112700D01*
X165074000Y41312700D01*
X165085494Y41370485D01*
X165118227Y41419473D01*
X165167215Y41452206D01*
X165225000Y41463700D01*
X165675000Y41463700D01*
X165732785Y41452206D01*
G37*
G36*
X167632785Y41452206D02*
G01*
X167681773Y41419473D01*
X167714506Y41370485D01*
X167726000Y41312700D01*
X167726000Y41112700D01*
X167714506Y41054915D01*
X167681773Y41005927D01*
X167632785Y40973194D01*
X167575000Y40961700D01*
X167125000Y40961700D01*
X167067215Y40973194D01*
X167018227Y41005927D01*
X166985494Y41054915D01*
X166974000Y41112700D01*
X166974000Y41312700D01*
X166985494Y41370485D01*
X167018227Y41419473D01*
X167067215Y41452206D01*
X167125000Y41463700D01*
X167575000Y41463700D01*
X167632785Y41452206D01*
G37*
G36*
X170832785Y41452206D02*
G01*
X170881773Y41419473D01*
X170914506Y41370485D01*
X170926000Y41312700D01*
X170926000Y41112700D01*
X170914506Y41054915D01*
X170881773Y41005927D01*
X170832785Y40973194D01*
X170775000Y40961700D01*
X170325000Y40961700D01*
X170267215Y40973194D01*
X170218227Y41005927D01*
X170185494Y41054915D01*
X170174000Y41112700D01*
X170174000Y41312700D01*
X170185494Y41370485D01*
X170218227Y41419473D01*
X170267215Y41452206D01*
X170325000Y41463700D01*
X170775000Y41463700D01*
X170832785Y41452206D01*
G37*
G36*
X172732785Y41452206D02*
G01*
X172781773Y41419473D01*
X172814506Y41370485D01*
X172826000Y41312700D01*
X172826000Y41112700D01*
X172814506Y41054915D01*
X172781773Y41005927D01*
X172732785Y40973194D01*
X172675000Y40961700D01*
X172225000Y40961700D01*
X172167215Y40973194D01*
X172118227Y41005927D01*
X172085494Y41054915D01*
X172074000Y41112700D01*
X172074000Y41312700D01*
X172085494Y41370485D01*
X172118227Y41419473D01*
X172167215Y41452206D01*
X172225000Y41463700D01*
X172675000Y41463700D01*
X172732785Y41452206D01*
G37*
G36*
X160652785Y41574706D02*
G01*
X160701773Y41541973D01*
X160734506Y41492985D01*
X160746000Y41435200D01*
X160746000Y41235200D01*
X160734506Y41177415D01*
X160701773Y41128427D01*
X160652785Y41095694D01*
X160595000Y41084200D01*
X160145000Y41084200D01*
X160087215Y41095694D01*
X160038227Y41128427D01*
X160005494Y41177415D01*
X159994000Y41235200D01*
X159994000Y41435200D01*
X160005494Y41492985D01*
X160038227Y41541973D01*
X160087215Y41574706D01*
X160145000Y41586200D01*
X160595000Y41586200D01*
X160652785Y41574706D01*
G37*
G36*
X162552785Y41574706D02*
G01*
X162601773Y41541973D01*
X162634506Y41492985D01*
X162646000Y41435200D01*
X162646000Y41235200D01*
X162634506Y41177415D01*
X162601773Y41128427D01*
X162552785Y41095694D01*
X162495000Y41084200D01*
X162045000Y41084200D01*
X161987215Y41095694D01*
X161938227Y41128427D01*
X161905494Y41177415D01*
X161894000Y41235200D01*
X161894000Y41435200D01*
X161905494Y41492985D01*
X161938227Y41541973D01*
X161987215Y41574706D01*
X162045000Y41586200D01*
X162495000Y41586200D01*
X162552785Y41574706D01*
G37*
G36*
X155732785Y41652206D02*
G01*
X155781773Y41619473D01*
X155814506Y41570485D01*
X155826000Y41512700D01*
X155826000Y41312700D01*
X155814506Y41254915D01*
X155781773Y41205927D01*
X155732785Y41173194D01*
X155675000Y41161700D01*
X155225000Y41161700D01*
X155167215Y41173194D01*
X155118227Y41205927D01*
X155085494Y41254915D01*
X155074000Y41312700D01*
X155074000Y41512700D01*
X155085494Y41570485D01*
X155118227Y41619473D01*
X155167215Y41652206D01*
X155225000Y41663700D01*
X155675000Y41663700D01*
X155732785Y41652206D01*
G37*
G36*
X157632785Y41652206D02*
G01*
X157681773Y41619473D01*
X157714506Y41570485D01*
X157726000Y41512700D01*
X157726000Y41312700D01*
X157714506Y41254915D01*
X157681773Y41205927D01*
X157632785Y41173194D01*
X157575000Y41161700D01*
X157125000Y41161700D01*
X157067215Y41173194D01*
X157018227Y41205927D01*
X156985494Y41254915D01*
X156974000Y41312700D01*
X156974000Y41512700D01*
X156985494Y41570485D01*
X157018227Y41619473D01*
X157067215Y41652206D01*
X157125000Y41663700D01*
X157575000Y41663700D01*
X157632785Y41652206D01*
G37*
G36*
X148932785Y41752206D02*
G01*
X148981773Y41719473D01*
X149014506Y41670485D01*
X149026000Y41612700D01*
X149026000Y41412700D01*
X149014506Y41354915D01*
X148981773Y41305927D01*
X148932785Y41273194D01*
X148875000Y41261700D01*
X148425000Y41261700D01*
X148367215Y41273194D01*
X148318227Y41305927D01*
X148285494Y41354915D01*
X148274000Y41412700D01*
X148274000Y41612700D01*
X148285494Y41670485D01*
X148318227Y41719473D01*
X148367215Y41752206D01*
X148425000Y41763700D01*
X148875000Y41763700D01*
X148932785Y41752206D01*
G37*
G36*
X150832785Y41752206D02*
G01*
X150881773Y41719473D01*
X150914506Y41670485D01*
X150926000Y41612700D01*
X150926000Y41412700D01*
X150914506Y41354915D01*
X150881773Y41305927D01*
X150832785Y41273194D01*
X150775000Y41261700D01*
X150325000Y41261700D01*
X150267215Y41273194D01*
X150218227Y41305927D01*
X150185494Y41354915D01*
X150174000Y41412700D01*
X150174000Y41612700D01*
X150185494Y41670485D01*
X150218227Y41719473D01*
X150267215Y41752206D01*
X150325000Y41763700D01*
X150775000Y41763700D01*
X150832785Y41752206D01*
G37*
G36*
X165732785Y42102206D02*
G01*
X165781773Y42069473D01*
X165814506Y42020485D01*
X165826000Y41962700D01*
X165826000Y41762700D01*
X165814506Y41704915D01*
X165781773Y41655927D01*
X165732785Y41623194D01*
X165675000Y41611700D01*
X165225000Y41611700D01*
X165167215Y41623194D01*
X165118227Y41655927D01*
X165085494Y41704915D01*
X165074000Y41762700D01*
X165074000Y41962700D01*
X165085494Y42020485D01*
X165118227Y42069473D01*
X165167215Y42102206D01*
X165225000Y42113700D01*
X165675000Y42113700D01*
X165732785Y42102206D01*
G37*
G36*
X167632785Y42102206D02*
G01*
X167681773Y42069473D01*
X167714506Y42020485D01*
X167726000Y41962700D01*
X167726000Y41762700D01*
X167714506Y41704915D01*
X167681773Y41655927D01*
X167632785Y41623194D01*
X167575000Y41611700D01*
X167125000Y41611700D01*
X167067215Y41623194D01*
X167018227Y41655927D01*
X166985494Y41704915D01*
X166974000Y41762700D01*
X166974000Y41962700D01*
X166985494Y42020485D01*
X167018227Y42069473D01*
X167067215Y42102206D01*
X167125000Y42113700D01*
X167575000Y42113700D01*
X167632785Y42102206D01*
G37*
G36*
X170832785Y42102206D02*
G01*
X170881773Y42069473D01*
X170914506Y42020485D01*
X170926000Y41962700D01*
X170926000Y41762700D01*
X170914506Y41704915D01*
X170881773Y41655927D01*
X170832785Y41623194D01*
X170775000Y41611700D01*
X170325000Y41611700D01*
X170267215Y41623194D01*
X170218227Y41655927D01*
X170185494Y41704915D01*
X170174000Y41762700D01*
X170174000Y41962700D01*
X170185494Y42020485D01*
X170218227Y42069473D01*
X170267215Y42102206D01*
X170325000Y42113700D01*
X170775000Y42113700D01*
X170832785Y42102206D01*
G37*
G36*
X172732785Y42102206D02*
G01*
X172781773Y42069473D01*
X172814506Y42020485D01*
X172826000Y41962700D01*
X172826000Y41762700D01*
X172814506Y41704915D01*
X172781773Y41655927D01*
X172732785Y41623194D01*
X172675000Y41611700D01*
X172225000Y41611700D01*
X172167215Y41623194D01*
X172118227Y41655927D01*
X172085494Y41704915D01*
X172074000Y41762700D01*
X172074000Y41962700D01*
X172085494Y42020485D01*
X172118227Y42069473D01*
X172167215Y42102206D01*
X172225000Y42113700D01*
X172675000Y42113700D01*
X172732785Y42102206D01*
G37*
G36*
X160652785Y42224706D02*
G01*
X160701773Y42191973D01*
X160734506Y42142985D01*
X160746000Y42085200D01*
X160746000Y41885200D01*
X160734506Y41827415D01*
X160701773Y41778427D01*
X160652785Y41745694D01*
X160595000Y41734200D01*
X160145000Y41734200D01*
X160087215Y41745694D01*
X160038227Y41778427D01*
X160005494Y41827415D01*
X159994000Y41885200D01*
X159994000Y42085200D01*
X160005494Y42142985D01*
X160038227Y42191973D01*
X160087215Y42224706D01*
X160145000Y42236200D01*
X160595000Y42236200D01*
X160652785Y42224706D01*
G37*
G36*
X162552785Y42224706D02*
G01*
X162601773Y42191973D01*
X162634506Y42142985D01*
X162646000Y42085200D01*
X162646000Y41885200D01*
X162634506Y41827415D01*
X162601773Y41778427D01*
X162552785Y41745694D01*
X162495000Y41734200D01*
X162045000Y41734200D01*
X161987215Y41745694D01*
X161938227Y41778427D01*
X161905494Y41827415D01*
X161894000Y41885200D01*
X161894000Y42085200D01*
X161905494Y42142985D01*
X161938227Y42191973D01*
X161987215Y42224706D01*
X162045000Y42236200D01*
X162495000Y42236200D01*
X162552785Y42224706D01*
G37*
G36*
X155732785Y42302206D02*
G01*
X155781773Y42269473D01*
X155814506Y42220485D01*
X155826000Y42162700D01*
X155826000Y41962700D01*
X155814506Y41904915D01*
X155781773Y41855927D01*
X155732785Y41823194D01*
X155675000Y41811700D01*
X155225000Y41811700D01*
X155167215Y41823194D01*
X155118227Y41855927D01*
X155085494Y41904915D01*
X155074000Y41962700D01*
X155074000Y42162700D01*
X155085494Y42220485D01*
X155118227Y42269473D01*
X155167215Y42302206D01*
X155225000Y42313700D01*
X155675000Y42313700D01*
X155732785Y42302206D01*
G37*
G36*
X157632785Y42302206D02*
G01*
X157681773Y42269473D01*
X157714506Y42220485D01*
X157726000Y42162700D01*
X157726000Y41962700D01*
X157714506Y41904915D01*
X157681773Y41855927D01*
X157632785Y41823194D01*
X157575000Y41811700D01*
X157125000Y41811700D01*
X157067215Y41823194D01*
X157018227Y41855927D01*
X156985494Y41904915D01*
X156974000Y41962700D01*
X156974000Y42162700D01*
X156985494Y42220485D01*
X157018227Y42269473D01*
X157067215Y42302206D01*
X157125000Y42313700D01*
X157575000Y42313700D01*
X157632785Y42302206D01*
G37*
G36*
X148932785Y42402206D02*
G01*
X148981773Y42369473D01*
X149014506Y42320485D01*
X149026000Y42262700D01*
X149026000Y42062700D01*
X149014506Y42004915D01*
X148981773Y41955927D01*
X148932785Y41923194D01*
X148875000Y41911700D01*
X148425000Y41911700D01*
X148367215Y41923194D01*
X148318227Y41955927D01*
X148285494Y42004915D01*
X148274000Y42062700D01*
X148274000Y42262700D01*
X148285494Y42320485D01*
X148318227Y42369473D01*
X148367215Y42402206D01*
X148425000Y42413700D01*
X148875000Y42413700D01*
X148932785Y42402206D01*
G37*
G36*
X150832785Y42402206D02*
G01*
X150881773Y42369473D01*
X150914506Y42320485D01*
X150926000Y42262700D01*
X150926000Y42062700D01*
X150914506Y42004915D01*
X150881773Y41955927D01*
X150832785Y41923194D01*
X150775000Y41911700D01*
X150325000Y41911700D01*
X150267215Y41923194D01*
X150218227Y41955927D01*
X150185494Y42004915D01*
X150174000Y42062700D01*
X150174000Y42262700D01*
X150185494Y42320485D01*
X150218227Y42369473D01*
X150267215Y42402206D01*
X150325000Y42413700D01*
X150775000Y42413700D01*
X150832785Y42402206D01*
G37*
G36*
X98381893Y44374561D02*
G01*
X98443857Y44333157D01*
X98485261Y44271193D01*
X98499800Y44198100D01*
X98499800Y43918100D01*
X98485261Y43845007D01*
X98443857Y43783043D01*
X98381893Y43741639D01*
X98308800Y43727100D01*
X97968800Y43727100D01*
X97895707Y43741639D01*
X97833743Y43783043D01*
X97792339Y43845007D01*
X97777800Y43918100D01*
X97777800Y44198100D01*
X97792339Y44271193D01*
X97833743Y44333157D01*
X97895707Y44374561D01*
X97968800Y44389100D01*
X98308800Y44389100D01*
X98381893Y44374561D01*
G37*
G36*
X94023093Y44689144D02*
G01*
X94085057Y44647740D01*
X94126461Y44585776D01*
X94141000Y44512683D01*
X94141000Y44232683D01*
X94126461Y44159590D01*
X94085057Y44097626D01*
X94023093Y44056222D01*
X93950000Y44041683D01*
X93610000Y44041683D01*
X93536907Y44056222D01*
X93474943Y44097626D01*
X93433539Y44159590D01*
X93419000Y44232683D01*
X93419000Y44512683D01*
X93433539Y44585776D01*
X93474943Y44647740D01*
X93536907Y44689144D01*
X93610000Y44703683D01*
X93950000Y44703683D01*
X94023093Y44689144D01*
G37*
G36*
X153007179Y45176842D02*
G01*
X153067522Y45136522D01*
X153107842Y45076179D01*
X153122000Y45005000D01*
X153122000Y44735000D01*
X153107842Y44663821D01*
X153067522Y44603478D01*
X153007179Y44563158D01*
X152936000Y44549000D01*
X152566000Y44549000D01*
X152494821Y44563158D01*
X152434478Y44603478D01*
X152394158Y44663821D01*
X152380000Y44735000D01*
X152380000Y45005000D01*
X152394158Y45076179D01*
X152434478Y45136522D01*
X152494821Y45176842D01*
X152566000Y45191000D01*
X152936000Y45191000D01*
X153007179Y45176842D01*
G37*
G36*
X154270379Y45176842D02*
G01*
X154330722Y45136522D01*
X154371042Y45076179D01*
X154385200Y45005000D01*
X154385200Y44735000D01*
X154371042Y44663821D01*
X154330722Y44603478D01*
X154270379Y44563158D01*
X154199200Y44549000D01*
X153829200Y44549000D01*
X153758021Y44563158D01*
X153697678Y44603478D01*
X153657358Y44663821D01*
X153643200Y44735000D01*
X153643200Y45005000D01*
X153657358Y45076179D01*
X153697678Y45136522D01*
X153758021Y45176842D01*
X153829200Y45191000D01*
X154199200Y45191000D01*
X154270379Y45176842D01*
G37*
G36*
X155533679Y45176842D02*
G01*
X155594022Y45136522D01*
X155634342Y45076179D01*
X155648500Y45005000D01*
X155648500Y44735000D01*
X155634342Y44663821D01*
X155594022Y44603478D01*
X155533679Y44563158D01*
X155462500Y44549000D01*
X155092500Y44549000D01*
X155021321Y44563158D01*
X154960978Y44603478D01*
X154920658Y44663821D01*
X154906500Y44735000D01*
X154906500Y45005000D01*
X154920658Y45076179D01*
X154960978Y45136522D01*
X155021321Y45176842D01*
X155092500Y45191000D01*
X155462500Y45191000D01*
X155533679Y45176842D01*
G37*
G36*
X156796879Y45176842D02*
G01*
X156857222Y45136522D01*
X156897542Y45076179D01*
X156911700Y45005000D01*
X156911700Y44735000D01*
X156897542Y44663821D01*
X156857222Y44603478D01*
X156796879Y44563158D01*
X156725700Y44549000D01*
X156355700Y44549000D01*
X156284521Y44563158D01*
X156224178Y44603478D01*
X156183858Y44663821D01*
X156169700Y44735000D01*
X156169700Y45005000D01*
X156183858Y45076179D01*
X156224178Y45136522D01*
X156284521Y45176842D01*
X156355700Y45191000D01*
X156725700Y45191000D01*
X156796879Y45176842D01*
G37*
G36*
X158060079Y45176842D02*
G01*
X158120422Y45136522D01*
X158160742Y45076179D01*
X158174900Y45005000D01*
X158174900Y44735000D01*
X158160742Y44663821D01*
X158120422Y44603478D01*
X158060079Y44563158D01*
X157988900Y44549000D01*
X157618900Y44549000D01*
X157547721Y44563158D01*
X157487378Y44603478D01*
X157447058Y44663821D01*
X157432900Y44735000D01*
X157432900Y45005000D01*
X157447058Y45076179D01*
X157487378Y45136522D01*
X157547721Y45176842D01*
X157618900Y45191000D01*
X157988900Y45191000D01*
X158060079Y45176842D01*
G37*
G36*
X159323279Y45176842D02*
G01*
X159383622Y45136522D01*
X159423942Y45076179D01*
X159438100Y45005000D01*
X159438100Y44735000D01*
X159423942Y44663821D01*
X159383622Y44603478D01*
X159323279Y44563158D01*
X159252100Y44549000D01*
X158882100Y44549000D01*
X158810921Y44563158D01*
X158750578Y44603478D01*
X158710258Y44663821D01*
X158696100Y44735000D01*
X158696100Y45005000D01*
X158710258Y45076179D01*
X158750578Y45136522D01*
X158810921Y45176842D01*
X158882100Y45191000D01*
X159252100Y45191000D01*
X159323279Y45176842D01*
G37*
G36*
X160586579Y45176842D02*
G01*
X160646922Y45136522D01*
X160687242Y45076179D01*
X160701400Y45005000D01*
X160701400Y44735000D01*
X160687242Y44663821D01*
X160646922Y44603478D01*
X160586579Y44563158D01*
X160515400Y44549000D01*
X160145400Y44549000D01*
X160074221Y44563158D01*
X160013878Y44603478D01*
X159973558Y44663821D01*
X159959400Y44735000D01*
X159959400Y45005000D01*
X159973558Y45076179D01*
X160013878Y45136522D01*
X160074221Y45176842D01*
X160145400Y45191000D01*
X160515400Y45191000D01*
X160586579Y45176842D01*
G37*
G36*
X161849779Y45176842D02*
G01*
X161910122Y45136522D01*
X161950442Y45076179D01*
X161964600Y45005000D01*
X161964600Y44735000D01*
X161950442Y44663821D01*
X161910122Y44603478D01*
X161849779Y44563158D01*
X161778600Y44549000D01*
X161408600Y44549000D01*
X161337421Y44563158D01*
X161277078Y44603478D01*
X161236758Y44663821D01*
X161222600Y44735000D01*
X161222600Y45005000D01*
X161236758Y45076179D01*
X161277078Y45136522D01*
X161337421Y45176842D01*
X161408600Y45191000D01*
X161778600Y45191000D01*
X161849779Y45176842D01*
G37*
G36*
X163112979Y45176842D02*
G01*
X163173322Y45136522D01*
X163213642Y45076179D01*
X163227800Y45005000D01*
X163227800Y44735000D01*
X163213642Y44663821D01*
X163173322Y44603478D01*
X163112979Y44563158D01*
X163041800Y44549000D01*
X162671800Y44549000D01*
X162600621Y44563158D01*
X162540278Y44603478D01*
X162499958Y44663821D01*
X162485800Y44735000D01*
X162485800Y45005000D01*
X162499958Y45076179D01*
X162540278Y45136522D01*
X162600621Y45176842D01*
X162671800Y45191000D01*
X163041800Y45191000D01*
X163112979Y45176842D01*
G37*
G36*
X164376179Y45176842D02*
G01*
X164436522Y45136522D01*
X164476842Y45076179D01*
X164491000Y45005000D01*
X164491000Y44735000D01*
X164476842Y44663821D01*
X164436522Y44603478D01*
X164376179Y44563158D01*
X164305000Y44549000D01*
X163935000Y44549000D01*
X163863821Y44563158D01*
X163803478Y44603478D01*
X163763158Y44663821D01*
X163749000Y44735000D01*
X163749000Y45005000D01*
X163763158Y45076179D01*
X163803478Y45136522D01*
X163863821Y45176842D01*
X163935000Y45191000D01*
X164305000Y45191000D01*
X164376179Y45176842D01*
G37*
G36*
X165639479Y45176842D02*
G01*
X165699822Y45136522D01*
X165740142Y45076179D01*
X165754300Y45005000D01*
X165754300Y44735000D01*
X165740142Y44663821D01*
X165699822Y44603478D01*
X165639479Y44563158D01*
X165568300Y44549000D01*
X165198300Y44549000D01*
X165127121Y44563158D01*
X165066778Y44603478D01*
X165026458Y44663821D01*
X165012300Y44735000D01*
X165012300Y45005000D01*
X165026458Y45076179D01*
X165066778Y45136522D01*
X165127121Y45176842D01*
X165198300Y45191000D01*
X165568300Y45191000D01*
X165639479Y45176842D01*
G37*
G36*
X166902679Y45176842D02*
G01*
X166963022Y45136522D01*
X167003342Y45076179D01*
X167017500Y45005000D01*
X167017500Y44735000D01*
X167003342Y44663821D01*
X166963022Y44603478D01*
X166902679Y44563158D01*
X166831500Y44549000D01*
X166461500Y44549000D01*
X166390321Y44563158D01*
X166329978Y44603478D01*
X166289658Y44663821D01*
X166275500Y44735000D01*
X166275500Y45005000D01*
X166289658Y45076179D01*
X166329978Y45136522D01*
X166390321Y45176842D01*
X166461500Y45191000D01*
X166831500Y45191000D01*
X166902679Y45176842D01*
G37*
G36*
X168165879Y45176842D02*
G01*
X168226222Y45136522D01*
X168266542Y45076179D01*
X168280700Y45005000D01*
X168280700Y44735000D01*
X168266542Y44663821D01*
X168226222Y44603478D01*
X168165879Y44563158D01*
X168094700Y44549000D01*
X167724700Y44549000D01*
X167653521Y44563158D01*
X167593178Y44603478D01*
X167552858Y44663821D01*
X167538700Y44735000D01*
X167538700Y45005000D01*
X167552858Y45076179D01*
X167593178Y45136522D01*
X167653521Y45176842D01*
X167724700Y45191000D01*
X168094700Y45191000D01*
X168165879Y45176842D01*
G37*
G36*
X169429079Y45176842D02*
G01*
X169489422Y45136522D01*
X169529742Y45076179D01*
X169543900Y45005000D01*
X169543900Y44735000D01*
X169529742Y44663821D01*
X169489422Y44603478D01*
X169429079Y44563158D01*
X169357900Y44549000D01*
X168987900Y44549000D01*
X168916721Y44563158D01*
X168856378Y44603478D01*
X168816058Y44663821D01*
X168801900Y44735000D01*
X168801900Y45005000D01*
X168816058Y45076179D01*
X168856378Y45136522D01*
X168916721Y45176842D01*
X168987900Y45191000D01*
X169357900Y45191000D01*
X169429079Y45176842D01*
G37*
G36*
X170692379Y45176842D02*
G01*
X170752722Y45136522D01*
X170793042Y45076179D01*
X170807200Y45005000D01*
X170807200Y44735000D01*
X170793042Y44663821D01*
X170752722Y44603478D01*
X170692379Y44563158D01*
X170621200Y44549000D01*
X170251200Y44549000D01*
X170180021Y44563158D01*
X170119678Y44603478D01*
X170079358Y44663821D01*
X170065200Y44735000D01*
X170065200Y45005000D01*
X170079358Y45076179D01*
X170119678Y45136522D01*
X170180021Y45176842D01*
X170251200Y45191000D01*
X170621200Y45191000D01*
X170692379Y45176842D01*
G37*
G36*
X171955579Y45176842D02*
G01*
X172015922Y45136522D01*
X172056242Y45076179D01*
X172070400Y45005000D01*
X172070400Y44735000D01*
X172056242Y44663821D01*
X172015922Y44603478D01*
X171955579Y44563158D01*
X171884400Y44549000D01*
X171514400Y44549000D01*
X171443221Y44563158D01*
X171382878Y44603478D01*
X171342558Y44663821D01*
X171328400Y44735000D01*
X171328400Y45005000D01*
X171342558Y45076179D01*
X171382878Y45136522D01*
X171443221Y45176842D01*
X171514400Y45191000D01*
X171884400Y45191000D01*
X171955579Y45176842D01*
G37*
G36*
X143733179Y45206842D02*
G01*
X143793522Y45166522D01*
X143833842Y45106179D01*
X143848000Y45035000D01*
X143848000Y44765000D01*
X143833842Y44693821D01*
X143793522Y44633478D01*
X143733179Y44593158D01*
X143662000Y44579000D01*
X143292000Y44579000D01*
X143220821Y44593158D01*
X143160478Y44633478D01*
X143120158Y44693821D01*
X143106000Y44765000D01*
X143106000Y45035000D01*
X143120158Y45106179D01*
X143160478Y45166522D01*
X143220821Y45206842D01*
X143292000Y45221000D01*
X143662000Y45221000D01*
X143733179Y45206842D01*
G37*
G36*
X146146179Y45206842D02*
G01*
X146206522Y45166522D01*
X146246842Y45106179D01*
X146261000Y45035000D01*
X146261000Y44765000D01*
X146246842Y44693821D01*
X146206522Y44633478D01*
X146146179Y44593158D01*
X146075000Y44579000D01*
X145705000Y44579000D01*
X145633821Y44593158D01*
X145573478Y44633478D01*
X145533158Y44693821D01*
X145519000Y44765000D01*
X145519000Y45035000D01*
X145533158Y45106179D01*
X145573478Y45166522D01*
X145633821Y45206842D01*
X145705000Y45221000D01*
X146075000Y45221000D01*
X146146179Y45206842D01*
G37*
G36*
X148686179Y45206842D02*
G01*
X148746522Y45166522D01*
X148786842Y45106179D01*
X148801000Y45035000D01*
X148801000Y44765000D01*
X148786842Y44693821D01*
X148746522Y44633478D01*
X148686179Y44593158D01*
X148615000Y44579000D01*
X148245000Y44579000D01*
X148173821Y44593158D01*
X148113478Y44633478D01*
X148073158Y44693821D01*
X148059000Y44765000D01*
X148059000Y45035000D01*
X148073158Y45106179D01*
X148113478Y45166522D01*
X148173821Y45206842D01*
X148245000Y45221000D01*
X148615000Y45221000D01*
X148686179Y45206842D01*
G37*
G36*
X98381893Y45334561D02*
G01*
X98443857Y45293157D01*
X98485261Y45231193D01*
X98499800Y45158100D01*
X98499800Y44878100D01*
X98485261Y44805007D01*
X98443857Y44743043D01*
X98381893Y44701639D01*
X98308800Y44687100D01*
X97968800Y44687100D01*
X97895707Y44701639D01*
X97833743Y44743043D01*
X97792339Y44805007D01*
X97777800Y44878100D01*
X97777800Y45158100D01*
X97792339Y45231193D01*
X97833743Y45293157D01*
X97895707Y45334561D01*
X97968800Y45349100D01*
X98308800Y45349100D01*
X98381893Y45334561D01*
G37*
G36*
X94023093Y45649144D02*
G01*
X94085057Y45607740D01*
X94126461Y45545776D01*
X94141000Y45472683D01*
X94141000Y45192683D01*
X94126461Y45119590D01*
X94085057Y45057626D01*
X94023093Y45016222D01*
X93950000Y45001683D01*
X93610000Y45001683D01*
X93536907Y45016222D01*
X93474943Y45057626D01*
X93433539Y45119590D01*
X93419000Y45192683D01*
X93419000Y45472683D01*
X93433539Y45545776D01*
X93474943Y45607740D01*
X93536907Y45649144D01*
X93610000Y45663683D01*
X93950000Y45663683D01*
X94023093Y45649144D01*
G37*
G36*
X73976500Y47013958D02*
G01*
X73985846Y47013958D01*
X74012774Y47006743D01*
X74081795Y46993014D01*
X74114371Y46979521D01*
X74137393Y46973352D01*
X74158033Y46961436D01*
X74190609Y46947942D01*
X74249120Y46908846D01*
X74273266Y46894905D01*
X74279875Y46888296D01*
X74288531Y46882512D01*
X74371811Y46799232D01*
X74377594Y46790577D01*
X74384205Y46783966D01*
X74398147Y46759817D01*
X74437241Y46701310D01*
X74450733Y46668737D01*
X74462652Y46648093D01*
X74468821Y46625068D01*
X74482313Y46592496D01*
X74496040Y46523485D01*
X74503258Y46496546D01*
X74504172Y46482602D01*
X74505505Y46475900D01*
X74508182Y46421420D01*
X74508400Y46418100D01*
X74508400Y45718100D01*
X74508182Y45714778D01*
X74505505Y45660301D01*
X74504172Y45653601D01*
X74503258Y45639654D01*
X74496039Y45612713D01*
X74482313Y45543705D01*
X74468822Y45511136D01*
X74462652Y45488107D01*
X74450731Y45467461D01*
X74437241Y45434891D01*
X74398152Y45376391D01*
X74384205Y45352234D01*
X74377592Y45345622D01*
X74371811Y45336969D01*
X74288531Y45253689D01*
X74279878Y45247908D01*
X74273266Y45241295D01*
X74249109Y45227348D01*
X74190609Y45188259D01*
X74158039Y45174769D01*
X74137393Y45162848D01*
X74114364Y45156678D01*
X74081795Y45143187D01*
X74012780Y45129459D01*
X73985846Y45122242D01*
X73976499Y45122242D01*
X73966289Y45120211D01*
X73848511Y45120211D01*
X73838301Y45122242D01*
X73828954Y45122242D01*
X73802020Y45129459D01*
X73733004Y45143187D01*
X73700432Y45156679D01*
X73677407Y45162848D01*
X73656763Y45174767D01*
X73624190Y45188259D01*
X73565683Y45227353D01*
X73541534Y45241295D01*
X73534923Y45247906D01*
X73526268Y45253689D01*
X73442988Y45336969D01*
X73437204Y45345625D01*
X73430595Y45352234D01*
X73416654Y45376380D01*
X73377558Y45434891D01*
X73364064Y45467467D01*
X73352148Y45488107D01*
X73345979Y45511129D01*
X73332486Y45543705D01*
X73318756Y45612728D01*
X73311542Y45639654D01*
X73310628Y45653593D01*
X73309294Y45660301D01*
X73306617Y45714783D01*
X73306400Y45718100D01*
X73306400Y46418100D01*
X73306617Y46421415D01*
X73309294Y46475900D01*
X73310628Y46482609D01*
X73311542Y46496546D01*
X73318756Y46523470D01*
X73332486Y46592496D01*
X73345980Y46625075D01*
X73352148Y46648093D01*
X73364063Y46668731D01*
X73377558Y46701310D01*
X73416658Y46759828D01*
X73430595Y46783966D01*
X73437202Y46790574D01*
X73442988Y46799232D01*
X73526268Y46882512D01*
X73534926Y46888298D01*
X73541534Y46894905D01*
X73565672Y46908842D01*
X73624190Y46947942D01*
X73656769Y46961437D01*
X73677407Y46973352D01*
X73700425Y46979520D01*
X73733004Y46993014D01*
X73802026Y47006743D01*
X73828954Y47013958D01*
X73838300Y47013958D01*
X73848511Y47015989D01*
X73966289Y47015989D01*
X73976500Y47013958D01*
G37*
G36*
X153007179Y46196842D02*
G01*
X153067522Y46156522D01*
X153107842Y46096179D01*
X153122000Y46025000D01*
X153122000Y45755000D01*
X153107842Y45683821D01*
X153067522Y45623478D01*
X153007179Y45583158D01*
X152936000Y45569000D01*
X152566000Y45569000D01*
X152494821Y45583158D01*
X152434478Y45623478D01*
X152394158Y45683821D01*
X152380000Y45755000D01*
X152380000Y46025000D01*
X152394158Y46096179D01*
X152434478Y46156522D01*
X152494821Y46196842D01*
X152566000Y46211000D01*
X152936000Y46211000D01*
X153007179Y46196842D01*
G37*
G36*
X154270379Y46196842D02*
G01*
X154330722Y46156522D01*
X154371042Y46096179D01*
X154385200Y46025000D01*
X154385200Y45755000D01*
X154371042Y45683821D01*
X154330722Y45623478D01*
X154270379Y45583158D01*
X154199200Y45569000D01*
X153829200Y45569000D01*
X153758021Y45583158D01*
X153697678Y45623478D01*
X153657358Y45683821D01*
X153643200Y45755000D01*
X153643200Y46025000D01*
X153657358Y46096179D01*
X153697678Y46156522D01*
X153758021Y46196842D01*
X153829200Y46211000D01*
X154199200Y46211000D01*
X154270379Y46196842D01*
G37*
G36*
X155533679Y46196842D02*
G01*
X155594022Y46156522D01*
X155634342Y46096179D01*
X155648500Y46025000D01*
X155648500Y45755000D01*
X155634342Y45683821D01*
X155594022Y45623478D01*
X155533679Y45583158D01*
X155462500Y45569000D01*
X155092500Y45569000D01*
X155021321Y45583158D01*
X154960978Y45623478D01*
X154920658Y45683821D01*
X154906500Y45755000D01*
X154906500Y46025000D01*
X154920658Y46096179D01*
X154960978Y46156522D01*
X155021321Y46196842D01*
X155092500Y46211000D01*
X155462500Y46211000D01*
X155533679Y46196842D01*
G37*
G36*
X156796879Y46196842D02*
G01*
X156857222Y46156522D01*
X156897542Y46096179D01*
X156911700Y46025000D01*
X156911700Y45755000D01*
X156897542Y45683821D01*
X156857222Y45623478D01*
X156796879Y45583158D01*
X156725700Y45569000D01*
X156355700Y45569000D01*
X156284521Y45583158D01*
X156224178Y45623478D01*
X156183858Y45683821D01*
X156169700Y45755000D01*
X156169700Y46025000D01*
X156183858Y46096179D01*
X156224178Y46156522D01*
X156284521Y46196842D01*
X156355700Y46211000D01*
X156725700Y46211000D01*
X156796879Y46196842D01*
G37*
G36*
X158060079Y46196842D02*
G01*
X158120422Y46156522D01*
X158160742Y46096179D01*
X158174900Y46025000D01*
X158174900Y45755000D01*
X158160742Y45683821D01*
X158120422Y45623478D01*
X158060079Y45583158D01*
X157988900Y45569000D01*
X157618900Y45569000D01*
X157547721Y45583158D01*
X157487378Y45623478D01*
X157447058Y45683821D01*
X157432900Y45755000D01*
X157432900Y46025000D01*
X157447058Y46096179D01*
X157487378Y46156522D01*
X157547721Y46196842D01*
X157618900Y46211000D01*
X157988900Y46211000D01*
X158060079Y46196842D01*
G37*
G36*
X159323279Y46196842D02*
G01*
X159383622Y46156522D01*
X159423942Y46096179D01*
X159438100Y46025000D01*
X159438100Y45755000D01*
X159423942Y45683821D01*
X159383622Y45623478D01*
X159323279Y45583158D01*
X159252100Y45569000D01*
X158882100Y45569000D01*
X158810921Y45583158D01*
X158750578Y45623478D01*
X158710258Y45683821D01*
X158696100Y45755000D01*
X158696100Y46025000D01*
X158710258Y46096179D01*
X158750578Y46156522D01*
X158810921Y46196842D01*
X158882100Y46211000D01*
X159252100Y46211000D01*
X159323279Y46196842D01*
G37*
G36*
X160586579Y46196842D02*
G01*
X160646922Y46156522D01*
X160687242Y46096179D01*
X160701400Y46025000D01*
X160701400Y45755000D01*
X160687242Y45683821D01*
X160646922Y45623478D01*
X160586579Y45583158D01*
X160515400Y45569000D01*
X160145400Y45569000D01*
X160074221Y45583158D01*
X160013878Y45623478D01*
X159973558Y45683821D01*
X159959400Y45755000D01*
X159959400Y46025000D01*
X159973558Y46096179D01*
X160013878Y46156522D01*
X160074221Y46196842D01*
X160145400Y46211000D01*
X160515400Y46211000D01*
X160586579Y46196842D01*
G37*
G36*
X161849779Y46196842D02*
G01*
X161910122Y46156522D01*
X161950442Y46096179D01*
X161964600Y46025000D01*
X161964600Y45755000D01*
X161950442Y45683821D01*
X161910122Y45623478D01*
X161849779Y45583158D01*
X161778600Y45569000D01*
X161408600Y45569000D01*
X161337421Y45583158D01*
X161277078Y45623478D01*
X161236758Y45683821D01*
X161222600Y45755000D01*
X161222600Y46025000D01*
X161236758Y46096179D01*
X161277078Y46156522D01*
X161337421Y46196842D01*
X161408600Y46211000D01*
X161778600Y46211000D01*
X161849779Y46196842D01*
G37*
G36*
X163112979Y46196842D02*
G01*
X163173322Y46156522D01*
X163213642Y46096179D01*
X163227800Y46025000D01*
X163227800Y45755000D01*
X163213642Y45683821D01*
X163173322Y45623478D01*
X163112979Y45583158D01*
X163041800Y45569000D01*
X162671800Y45569000D01*
X162600621Y45583158D01*
X162540278Y45623478D01*
X162499958Y45683821D01*
X162485800Y45755000D01*
X162485800Y46025000D01*
X162499958Y46096179D01*
X162540278Y46156522D01*
X162600621Y46196842D01*
X162671800Y46211000D01*
X163041800Y46211000D01*
X163112979Y46196842D01*
G37*
G36*
X164376179Y46196842D02*
G01*
X164436522Y46156522D01*
X164476842Y46096179D01*
X164491000Y46025000D01*
X164491000Y45755000D01*
X164476842Y45683821D01*
X164436522Y45623478D01*
X164376179Y45583158D01*
X164305000Y45569000D01*
X163935000Y45569000D01*
X163863821Y45583158D01*
X163803478Y45623478D01*
X163763158Y45683821D01*
X163749000Y45755000D01*
X163749000Y46025000D01*
X163763158Y46096179D01*
X163803478Y46156522D01*
X163863821Y46196842D01*
X163935000Y46211000D01*
X164305000Y46211000D01*
X164376179Y46196842D01*
G37*
G36*
X165639479Y46196842D02*
G01*
X165699822Y46156522D01*
X165740142Y46096179D01*
X165754300Y46025000D01*
X165754300Y45755000D01*
X165740142Y45683821D01*
X165699822Y45623478D01*
X165639479Y45583158D01*
X165568300Y45569000D01*
X165198300Y45569000D01*
X165127121Y45583158D01*
X165066778Y45623478D01*
X165026458Y45683821D01*
X165012300Y45755000D01*
X165012300Y46025000D01*
X165026458Y46096179D01*
X165066778Y46156522D01*
X165127121Y46196842D01*
X165198300Y46211000D01*
X165568300Y46211000D01*
X165639479Y46196842D01*
G37*
G36*
X166902679Y46196842D02*
G01*
X166963022Y46156522D01*
X167003342Y46096179D01*
X167017500Y46025000D01*
X167017500Y45755000D01*
X167003342Y45683821D01*
X166963022Y45623478D01*
X166902679Y45583158D01*
X166831500Y45569000D01*
X166461500Y45569000D01*
X166390321Y45583158D01*
X166329978Y45623478D01*
X166289658Y45683821D01*
X166275500Y45755000D01*
X166275500Y46025000D01*
X166289658Y46096179D01*
X166329978Y46156522D01*
X166390321Y46196842D01*
X166461500Y46211000D01*
X166831500Y46211000D01*
X166902679Y46196842D01*
G37*
G36*
X168165879Y46196842D02*
G01*
X168226222Y46156522D01*
X168266542Y46096179D01*
X168280700Y46025000D01*
X168280700Y45755000D01*
X168266542Y45683821D01*
X168226222Y45623478D01*
X168165879Y45583158D01*
X168094700Y45569000D01*
X167724700Y45569000D01*
X167653521Y45583158D01*
X167593178Y45623478D01*
X167552858Y45683821D01*
X167538700Y45755000D01*
X167538700Y46025000D01*
X167552858Y46096179D01*
X167593178Y46156522D01*
X167653521Y46196842D01*
X167724700Y46211000D01*
X168094700Y46211000D01*
X168165879Y46196842D01*
G37*
G36*
X169429079Y46196842D02*
G01*
X169489422Y46156522D01*
X169529742Y46096179D01*
X169543900Y46025000D01*
X169543900Y45755000D01*
X169529742Y45683821D01*
X169489422Y45623478D01*
X169429079Y45583158D01*
X169357900Y45569000D01*
X168987900Y45569000D01*
X168916721Y45583158D01*
X168856378Y45623478D01*
X168816058Y45683821D01*
X168801900Y45755000D01*
X168801900Y46025000D01*
X168816058Y46096179D01*
X168856378Y46156522D01*
X168916721Y46196842D01*
X168987900Y46211000D01*
X169357900Y46211000D01*
X169429079Y46196842D01*
G37*
G36*
X170692379Y46196842D02*
G01*
X170752722Y46156522D01*
X170793042Y46096179D01*
X170807200Y46025000D01*
X170807200Y45755000D01*
X170793042Y45683821D01*
X170752722Y45623478D01*
X170692379Y45583158D01*
X170621200Y45569000D01*
X170251200Y45569000D01*
X170180021Y45583158D01*
X170119678Y45623478D01*
X170079358Y45683821D01*
X170065200Y45755000D01*
X170065200Y46025000D01*
X170079358Y46096179D01*
X170119678Y46156522D01*
X170180021Y46196842D01*
X170251200Y46211000D01*
X170621200Y46211000D01*
X170692379Y46196842D01*
G37*
G36*
X171955579Y46196842D02*
G01*
X172015922Y46156522D01*
X172056242Y46096179D01*
X172070400Y46025000D01*
X172070400Y45755000D01*
X172056242Y45683821D01*
X172015922Y45623478D01*
X171955579Y45583158D01*
X171884400Y45569000D01*
X171514400Y45569000D01*
X171443221Y45583158D01*
X171382878Y45623478D01*
X171342558Y45683821D01*
X171328400Y45755000D01*
X171328400Y46025000D01*
X171342558Y46096179D01*
X171382878Y46156522D01*
X171443221Y46196842D01*
X171514400Y46211000D01*
X171884400Y46211000D01*
X171955579Y46196842D01*
G37*
G36*
X143733179Y46226842D02*
G01*
X143793522Y46186522D01*
X143833842Y46126179D01*
X143848000Y46055000D01*
X143848000Y45785000D01*
X143833842Y45713821D01*
X143793522Y45653478D01*
X143733179Y45613158D01*
X143662000Y45599000D01*
X143292000Y45599000D01*
X143220821Y45613158D01*
X143160478Y45653478D01*
X143120158Y45713821D01*
X143106000Y45785000D01*
X143106000Y46055000D01*
X143120158Y46126179D01*
X143160478Y46186522D01*
X143220821Y46226842D01*
X143292000Y46241000D01*
X143662000Y46241000D01*
X143733179Y46226842D01*
G37*
G36*
X146146179Y46226842D02*
G01*
X146206522Y46186522D01*
X146246842Y46126179D01*
X146261000Y46055000D01*
X146261000Y45785000D01*
X146246842Y45713821D01*
X146206522Y45653478D01*
X146146179Y45613158D01*
X146075000Y45599000D01*
X145705000Y45599000D01*
X145633821Y45613158D01*
X145573478Y45653478D01*
X145533158Y45713821D01*
X145519000Y45785000D01*
X145519000Y46055000D01*
X145533158Y46126179D01*
X145573478Y46186522D01*
X145633821Y46226842D01*
X145705000Y46241000D01*
X146075000Y46241000D01*
X146146179Y46226842D01*
G37*
G36*
X148686179Y46226842D02*
G01*
X148746522Y46186522D01*
X148786842Y46126179D01*
X148801000Y46055000D01*
X148801000Y45785000D01*
X148786842Y45713821D01*
X148746522Y45653478D01*
X148686179Y45613158D01*
X148615000Y45599000D01*
X148245000Y45599000D01*
X148173821Y45613158D01*
X148113478Y45653478D01*
X148073158Y45713821D01*
X148059000Y45785000D01*
X148059000Y46055000D01*
X148073158Y46126179D01*
X148113478Y46186522D01*
X148173821Y46226842D01*
X148245000Y46241000D01*
X148615000Y46241000D01*
X148686179Y46226842D01*
G37*
G36*
X89948093Y46449161D02*
G01*
X90010057Y46407757D01*
X90051461Y46345793D01*
X90066000Y46272700D01*
X90066000Y45932700D01*
X90051461Y45859607D01*
X90010057Y45797643D01*
X89948093Y45756239D01*
X89875000Y45741700D01*
X89595000Y45741700D01*
X89521907Y45756239D01*
X89459943Y45797643D01*
X89418539Y45859607D01*
X89404000Y45932700D01*
X89404000Y46272700D01*
X89418539Y46345793D01*
X89459943Y46407757D01*
X89521907Y46449161D01*
X89595000Y46463700D01*
X89875000Y46463700D01*
X89948093Y46449161D01*
G37*
G36*
X90908093Y46449161D02*
G01*
X90970057Y46407757D01*
X91011461Y46345793D01*
X91026000Y46272700D01*
X91026000Y45932700D01*
X91011461Y45859607D01*
X90970057Y45797643D01*
X90908093Y45756239D01*
X90835000Y45741700D01*
X90555000Y45741700D01*
X90481907Y45756239D01*
X90419943Y45797643D01*
X90378539Y45859607D01*
X90364000Y45932700D01*
X90364000Y46272700D01*
X90378539Y46345793D01*
X90419943Y46407757D01*
X90481907Y46449161D01*
X90555000Y46463700D01*
X90835000Y46463700D01*
X90908093Y46449161D01*
G37*
G36*
X110549517Y51578318D02*
G01*
X110566062Y51567262D01*
X110577118Y51550717D01*
X110581000Y51531200D01*
X110581000Y45931200D01*
X110577118Y45911683D01*
X110566062Y45895138D01*
X110549517Y45884082D01*
X110530000Y45880200D01*
X108430000Y45880200D01*
X108410483Y45884082D01*
X108393938Y45895138D01*
X108382882Y45911683D01*
X108379000Y45931200D01*
X108379000Y51531200D01*
X108382882Y51550717D01*
X108393938Y51567262D01*
X108410483Y51578318D01*
X108430000Y51582200D01*
X110530000Y51582200D01*
X110549517Y51578318D01*
G37*
G36*
X94188651Y47146012D02*
G01*
X94221418Y47124118D01*
X94243312Y47091351D01*
X94251000Y47052700D01*
X94251000Y46277700D01*
X94243312Y46239049D01*
X94221418Y46206282D01*
X94188651Y46184388D01*
X94150000Y46176700D01*
X94050000Y46176700D01*
X94011349Y46184388D01*
X93978582Y46206282D01*
X93956688Y46239049D01*
X93949000Y46277700D01*
X93949000Y47052700D01*
X93956688Y47091351D01*
X93978582Y47124118D01*
X94011349Y47146012D01*
X94050000Y47153700D01*
X94150000Y47153700D01*
X94188651Y47146012D01*
G37*
G36*
X94588651Y47146012D02*
G01*
X94621418Y47124118D01*
X94643312Y47091351D01*
X94651000Y47052700D01*
X94651000Y46277700D01*
X94643312Y46239049D01*
X94621418Y46206282D01*
X94588651Y46184388D01*
X94550000Y46176700D01*
X94450000Y46176700D01*
X94411349Y46184388D01*
X94378582Y46206282D01*
X94356688Y46239049D01*
X94349000Y46277700D01*
X94349000Y47052700D01*
X94356688Y47091351D01*
X94378582Y47124118D01*
X94411349Y47146012D01*
X94450000Y47153700D01*
X94550000Y47153700D01*
X94588651Y47146012D01*
G37*
G36*
X94988651Y47146012D02*
G01*
X95021418Y47124118D01*
X95043312Y47091351D01*
X95051000Y47052700D01*
X95051000Y46277700D01*
X95043312Y46239049D01*
X95021418Y46206282D01*
X94988651Y46184388D01*
X94950000Y46176700D01*
X94850000Y46176700D01*
X94811349Y46184388D01*
X94778582Y46206282D01*
X94756688Y46239049D01*
X94749000Y46277700D01*
X94749000Y47052700D01*
X94756688Y47091351D01*
X94778582Y47124118D01*
X94811349Y47146012D01*
X94850000Y47153700D01*
X94950000Y47153700D01*
X94988651Y47146012D01*
G37*
G36*
X95388651Y47146012D02*
G01*
X95421418Y47124118D01*
X95443312Y47091351D01*
X95451000Y47052700D01*
X95451000Y46277700D01*
X95443312Y46239049D01*
X95421418Y46206282D01*
X95388651Y46184388D01*
X95350000Y46176700D01*
X95250000Y46176700D01*
X95211349Y46184388D01*
X95178582Y46206282D01*
X95156688Y46239049D01*
X95149000Y46277700D01*
X95149000Y47052700D01*
X95156688Y47091351D01*
X95178582Y47124118D01*
X95211349Y47146012D01*
X95250000Y47153700D01*
X95350000Y47153700D01*
X95388651Y47146012D01*
G37*
G36*
X95788651Y47146012D02*
G01*
X95821418Y47124118D01*
X95843312Y47091351D01*
X95851000Y47052700D01*
X95851000Y46277700D01*
X95843312Y46239049D01*
X95821418Y46206282D01*
X95788651Y46184388D01*
X95750000Y46176700D01*
X95650000Y46176700D01*
X95611349Y46184388D01*
X95578582Y46206282D01*
X95556688Y46239049D01*
X95549000Y46277700D01*
X95549000Y47052700D01*
X95556688Y47091351D01*
X95578582Y47124118D01*
X95611349Y47146012D01*
X95650000Y47153700D01*
X95750000Y47153700D01*
X95788651Y47146012D01*
G37*
G36*
X96188651Y47146012D02*
G01*
X96221418Y47124118D01*
X96243312Y47091351D01*
X96251000Y47052700D01*
X96251000Y46277700D01*
X96243312Y46239049D01*
X96221418Y46206282D01*
X96188651Y46184388D01*
X96150000Y46176700D01*
X96050000Y46176700D01*
X96011349Y46184388D01*
X95978582Y46206282D01*
X95956688Y46239049D01*
X95949000Y46277700D01*
X95949000Y47052700D01*
X95956688Y47091351D01*
X95978582Y47124118D01*
X96011349Y47146012D01*
X96050000Y47153700D01*
X96150000Y47153700D01*
X96188651Y47146012D01*
G37*
G36*
X96588651Y47146012D02*
G01*
X96621418Y47124118D01*
X96643312Y47091351D01*
X96651000Y47052700D01*
X96651000Y46277700D01*
X96643312Y46239049D01*
X96621418Y46206282D01*
X96588651Y46184388D01*
X96550000Y46176700D01*
X96450000Y46176700D01*
X96411349Y46184388D01*
X96378582Y46206282D01*
X96356688Y46239049D01*
X96349000Y46277700D01*
X96349000Y47052700D01*
X96356688Y47091351D01*
X96378582Y47124118D01*
X96411349Y47146012D01*
X96450000Y47153700D01*
X96550000Y47153700D01*
X96588651Y47146012D01*
G37*
G36*
X96988651Y47146012D02*
G01*
X97021418Y47124118D01*
X97043312Y47091351D01*
X97051000Y47052700D01*
X97051000Y46277700D01*
X97043312Y46239049D01*
X97021418Y46206282D01*
X96988651Y46184388D01*
X96950000Y46176700D01*
X96850000Y46176700D01*
X96811349Y46184388D01*
X96778582Y46206282D01*
X96756688Y46239049D01*
X96749000Y46277700D01*
X96749000Y47052700D01*
X96756688Y47091351D01*
X96778582Y47124118D01*
X96811349Y47146012D01*
X96850000Y47153700D01*
X96950000Y47153700D01*
X96988651Y47146012D01*
G37*
G36*
X97388651Y47146012D02*
G01*
X97421418Y47124118D01*
X97443312Y47091351D01*
X97451000Y47052700D01*
X97451000Y46277700D01*
X97443312Y46239049D01*
X97421418Y46206282D01*
X97388651Y46184388D01*
X97350000Y46176700D01*
X97250000Y46176700D01*
X97211349Y46184388D01*
X97178582Y46206282D01*
X97156688Y46239049D01*
X97149000Y46277700D01*
X97149000Y47052700D01*
X97156688Y47091351D01*
X97178582Y47124118D01*
X97211349Y47146012D01*
X97250000Y47153700D01*
X97350000Y47153700D01*
X97388651Y47146012D01*
G37*
G36*
X97788651Y47146012D02*
G01*
X97821418Y47124118D01*
X97843312Y47091351D01*
X97851000Y47052700D01*
X97851000Y46277700D01*
X97843312Y46239049D01*
X97821418Y46206282D01*
X97788651Y46184388D01*
X97750000Y46176700D01*
X97650000Y46176700D01*
X97611349Y46184388D01*
X97578582Y46206282D01*
X97556688Y46239049D01*
X97549000Y46277700D01*
X97549000Y47052700D01*
X97556688Y47091351D01*
X97578582Y47124118D01*
X97611349Y47146012D01*
X97650000Y47153700D01*
X97750000Y47153700D01*
X97788651Y47146012D01*
G37*
G36*
X98188651Y47146012D02*
G01*
X98221418Y47124118D01*
X98243312Y47091351D01*
X98251000Y47052700D01*
X98251000Y46277700D01*
X98243312Y46239049D01*
X98221418Y46206282D01*
X98188651Y46184388D01*
X98150000Y46176700D01*
X98050000Y46176700D01*
X98011349Y46184388D01*
X97978582Y46206282D01*
X97956688Y46239049D01*
X97949000Y46277700D01*
X97949000Y47052700D01*
X97956688Y47091351D01*
X97978582Y47124118D01*
X98011349Y47146012D01*
X98050000Y47153700D01*
X98150000Y47153700D01*
X98188651Y47146012D01*
G37*
G36*
X98588651Y47146012D02*
G01*
X98621418Y47124118D01*
X98643312Y47091351D01*
X98651000Y47052700D01*
X98651000Y46277700D01*
X98643312Y46239049D01*
X98621418Y46206282D01*
X98588651Y46184388D01*
X98550000Y46176700D01*
X98450000Y46176700D01*
X98411349Y46184388D01*
X98378582Y46206282D01*
X98356688Y46239049D01*
X98349000Y46277700D01*
X98349000Y47052700D01*
X98356688Y47091351D01*
X98378582Y47124118D01*
X98411349Y47146012D01*
X98450000Y47153700D01*
X98550000Y47153700D01*
X98588651Y47146012D01*
G37*
G36*
X98988651Y47146012D02*
G01*
X99021418Y47124118D01*
X99043312Y47091351D01*
X99051000Y47052700D01*
X99051000Y46277700D01*
X99043312Y46239049D01*
X99021418Y46206282D01*
X98988651Y46184388D01*
X98950000Y46176700D01*
X98850000Y46176700D01*
X98811349Y46184388D01*
X98778582Y46206282D01*
X98756688Y46239049D01*
X98749000Y46277700D01*
X98749000Y47052700D01*
X98756688Y47091351D01*
X98778582Y47124118D01*
X98811349Y47146012D01*
X98850000Y47153700D01*
X98950000Y47153700D01*
X98988651Y47146012D01*
G37*
G36*
X99388651Y47146012D02*
G01*
X99421418Y47124118D01*
X99443312Y47091351D01*
X99451000Y47052700D01*
X99451000Y46277700D01*
X99443312Y46239049D01*
X99421418Y46206282D01*
X99388651Y46184388D01*
X99350000Y46176700D01*
X99250000Y46176700D01*
X99211349Y46184388D01*
X99178582Y46206282D01*
X99156688Y46239049D01*
X99149000Y46277700D01*
X99149000Y47052700D01*
X99156688Y47091351D01*
X99178582Y47124118D01*
X99211349Y47146012D01*
X99250000Y47153700D01*
X99350000Y47153700D01*
X99388651Y47146012D01*
G37*
G36*
X89948093Y47449161D02*
G01*
X90010057Y47407757D01*
X90051461Y47345793D01*
X90066000Y47272700D01*
X90066000Y46932700D01*
X90051461Y46859607D01*
X90010057Y46797643D01*
X89948093Y46756239D01*
X89875000Y46741700D01*
X89595000Y46741700D01*
X89521907Y46756239D01*
X89459943Y46797643D01*
X89418539Y46859607D01*
X89404000Y46932700D01*
X89404000Y47272700D01*
X89418539Y47345793D01*
X89459943Y47407757D01*
X89521907Y47449161D01*
X89595000Y47463700D01*
X89875000Y47463700D01*
X89948093Y47449161D01*
G37*
G36*
X90908093Y47449161D02*
G01*
X90970057Y47407757D01*
X91011461Y47345793D01*
X91026000Y47272700D01*
X91026000Y46932700D01*
X91011461Y46859607D01*
X90970057Y46797643D01*
X90908093Y46756239D01*
X90835000Y46741700D01*
X90555000Y46741700D01*
X90481907Y46756239D01*
X90419943Y46797643D01*
X90378539Y46859607D01*
X90364000Y46932700D01*
X90364000Y47272700D01*
X90378539Y47345793D01*
X90419943Y47407757D01*
X90481907Y47449161D01*
X90555000Y47463700D01*
X90835000Y47463700D01*
X90908093Y47449161D01*
G37*
G36*
X74426917Y47840218D02*
G01*
X74443462Y47829162D01*
X74454518Y47812617D01*
X74458400Y47793100D01*
X74458400Y47343100D01*
X74454518Y47323583D01*
X74443462Y47307038D01*
X74426917Y47295982D01*
X74407400Y47292100D01*
X72907400Y47292100D01*
X72887883Y47295982D01*
X72871338Y47307038D01*
X72860282Y47323583D01*
X72856400Y47343100D01*
X72856400Y47793100D01*
X72860282Y47812617D01*
X72871338Y47829162D01*
X72887883Y47840218D01*
X72907400Y47844100D01*
X74407400Y47844100D01*
X74426917Y47840218D01*
G37*
G36*
X93688651Y47646012D02*
G01*
X93721418Y47624118D01*
X93743312Y47591351D01*
X93751000Y47552700D01*
X93751000Y47452700D01*
X93743312Y47414049D01*
X93721418Y47381282D01*
X93688651Y47359388D01*
X93650000Y47351700D01*
X92875000Y47351700D01*
X92836349Y47359388D01*
X92803582Y47381282D01*
X92781688Y47414049D01*
X92774000Y47452700D01*
X92774000Y47552700D01*
X92781688Y47591351D01*
X92803582Y47624118D01*
X92836349Y47646012D01*
X92875000Y47653700D01*
X93650000Y47653700D01*
X93688651Y47646012D01*
G37*
G36*
X100563651Y47646012D02*
G01*
X100596418Y47624118D01*
X100618312Y47591351D01*
X100626000Y47552700D01*
X100626000Y47452700D01*
X100618312Y47414049D01*
X100596418Y47381282D01*
X100563651Y47359388D01*
X100525000Y47351700D01*
X99750000Y47351700D01*
X99711349Y47359388D01*
X99678582Y47381282D01*
X99656688Y47414049D01*
X99649000Y47452700D01*
X99649000Y47552700D01*
X99656688Y47591351D01*
X99678582Y47624118D01*
X99711349Y47646012D01*
X99750000Y47653700D01*
X100525000Y47653700D01*
X100563651Y47646012D01*
G37*
G36*
X71826500Y50013958D02*
G01*
X71835846Y50013958D01*
X71862774Y50006743D01*
X71931795Y49993014D01*
X71964371Y49979521D01*
X71987393Y49973352D01*
X72008033Y49961436D01*
X72040609Y49947942D01*
X72099120Y49908846D01*
X72123266Y49894905D01*
X72129875Y49888296D01*
X72138531Y49882512D01*
X72221811Y49799232D01*
X72227594Y49790577D01*
X72234205Y49783966D01*
X72248147Y49759817D01*
X72287241Y49701310D01*
X72300733Y49668737D01*
X72312652Y49648093D01*
X72318821Y49625068D01*
X72332313Y49592496D01*
X72346040Y49523485D01*
X72353258Y49496546D01*
X72354172Y49482602D01*
X72355505Y49475900D01*
X72358182Y49421420D01*
X72358400Y49418100D01*
X72358400Y48318100D01*
X72358182Y48314778D01*
X72355505Y48260301D01*
X72354172Y48253601D01*
X72353258Y48239654D01*
X72346039Y48212713D01*
X72332313Y48143705D01*
X72318822Y48111136D01*
X72312652Y48088107D01*
X72300731Y48067461D01*
X72287241Y48034891D01*
X72248152Y47976391D01*
X72234205Y47952234D01*
X72227592Y47945622D01*
X72221811Y47936969D01*
X72138531Y47853689D01*
X72129878Y47847908D01*
X72123266Y47841295D01*
X72099109Y47827348D01*
X72040609Y47788259D01*
X72008039Y47774769D01*
X71987393Y47762848D01*
X71964364Y47756678D01*
X71931795Y47743187D01*
X71862780Y47729459D01*
X71835846Y47722242D01*
X71826499Y47722242D01*
X71816289Y47720211D01*
X71698511Y47720211D01*
X71688301Y47722242D01*
X71678954Y47722242D01*
X71652020Y47729459D01*
X71583004Y47743187D01*
X71550432Y47756679D01*
X71527407Y47762848D01*
X71506763Y47774767D01*
X71474190Y47788259D01*
X71415683Y47827353D01*
X71391534Y47841295D01*
X71384923Y47847906D01*
X71376268Y47853689D01*
X71292988Y47936969D01*
X71287204Y47945625D01*
X71280595Y47952234D01*
X71266654Y47976380D01*
X71227558Y48034891D01*
X71214064Y48067467D01*
X71202148Y48088107D01*
X71195979Y48111129D01*
X71182486Y48143705D01*
X71168756Y48212728D01*
X71161542Y48239654D01*
X71160628Y48253593D01*
X71159294Y48260301D01*
X71156617Y48314783D01*
X71156400Y48318100D01*
X71156400Y49418100D01*
X71156617Y49421415D01*
X71159294Y49475900D01*
X71160628Y49482609D01*
X71161542Y49496546D01*
X71168756Y49523470D01*
X71182486Y49592496D01*
X71195980Y49625075D01*
X71202148Y49648093D01*
X71214063Y49668731D01*
X71227558Y49701310D01*
X71266658Y49759828D01*
X71280595Y49783966D01*
X71287202Y49790574D01*
X71292988Y49799232D01*
X71376268Y49882512D01*
X71384926Y49888298D01*
X71391534Y49894905D01*
X71415672Y49908842D01*
X71474190Y49947942D01*
X71506769Y49961437D01*
X71527407Y49973352D01*
X71550425Y49979520D01*
X71583004Y49993014D01*
X71652026Y50006743D01*
X71678954Y50013958D01*
X71688300Y50013958D01*
X71698511Y50015989D01*
X71816289Y50015989D01*
X71826500Y50013958D01*
G37*
G36*
X89911179Y48459542D02*
G01*
X89971522Y48419222D01*
X90011842Y48358879D01*
X90026000Y48287700D01*
X90026000Y47917700D01*
X90011842Y47846521D01*
X89971522Y47786178D01*
X89911179Y47745858D01*
X89840000Y47731700D01*
X89570000Y47731700D01*
X89498821Y47745858D01*
X89438478Y47786178D01*
X89398158Y47846521D01*
X89384000Y47917700D01*
X89384000Y48287700D01*
X89398158Y48358879D01*
X89438478Y48419222D01*
X89498821Y48459542D01*
X89570000Y48473700D01*
X89840000Y48473700D01*
X89911179Y48459542D01*
G37*
G36*
X90931179Y48459542D02*
G01*
X90991522Y48419222D01*
X91031842Y48358879D01*
X91046000Y48287700D01*
X91046000Y47917700D01*
X91031842Y47846521D01*
X90991522Y47786178D01*
X90931179Y47745858D01*
X90860000Y47731700D01*
X90590000Y47731700D01*
X90518821Y47745858D01*
X90458478Y47786178D01*
X90418158Y47846521D01*
X90404000Y47917700D01*
X90404000Y48287700D01*
X90418158Y48358879D01*
X90458478Y48419222D01*
X90518821Y48459542D01*
X90590000Y48473700D01*
X90860000Y48473700D01*
X90931179Y48459542D01*
G37*
G36*
X93688651Y48046012D02*
G01*
X93721418Y48024118D01*
X93743312Y47991351D01*
X93751000Y47952700D01*
X93751000Y47852700D01*
X93743312Y47814049D01*
X93721418Y47781282D01*
X93688651Y47759388D01*
X93650000Y47751700D01*
X92875000Y47751700D01*
X92836349Y47759388D01*
X92803582Y47781282D01*
X92781688Y47814049D01*
X92774000Y47852700D01*
X92774000Y47952700D01*
X92781688Y47991351D01*
X92803582Y48024118D01*
X92836349Y48046012D01*
X92875000Y48053700D01*
X93650000Y48053700D01*
X93688651Y48046012D01*
G37*
G36*
X100563651Y48046012D02*
G01*
X100596418Y48024118D01*
X100618312Y47991351D01*
X100626000Y47952700D01*
X100626000Y47852700D01*
X100618312Y47814049D01*
X100596418Y47781282D01*
X100563651Y47759388D01*
X100525000Y47751700D01*
X99750000Y47751700D01*
X99711349Y47759388D01*
X99678582Y47781282D01*
X99656688Y47814049D01*
X99649000Y47852700D01*
X99649000Y47952700D01*
X99656688Y47991351D01*
X99678582Y48024118D01*
X99711349Y48046012D01*
X99750000Y48053700D01*
X100525000Y48053700D01*
X100563651Y48046012D01*
G37*
G36*
X74426917Y48490218D02*
G01*
X74443462Y48479162D01*
X74454518Y48462617D01*
X74458400Y48443100D01*
X74458400Y47993100D01*
X74454518Y47973583D01*
X74443462Y47957038D01*
X74426917Y47945982D01*
X74407400Y47942100D01*
X72907400Y47942100D01*
X72887883Y47945982D01*
X72871338Y47957038D01*
X72860282Y47973583D01*
X72856400Y47993100D01*
X72856400Y48443100D01*
X72860282Y48462617D01*
X72871338Y48479162D01*
X72887883Y48490218D01*
X72907400Y48494100D01*
X74407400Y48494100D01*
X74426917Y48490218D01*
G37*
G36*
X153312973Y49739349D02*
G01*
X153475500Y49666988D01*
X153619430Y49562416D01*
X153738473Y49430205D01*
X153827427Y49276133D01*
X153882404Y49106933D01*
X153901000Y48930000D01*
X153882404Y48753067D01*
X153827427Y48583867D01*
X153738473Y48429795D01*
X153619430Y48297584D01*
X153475500Y48193012D01*
X153312973Y48120651D01*
X153138954Y48083662D01*
X152961046Y48083662D01*
X152787027Y48120651D01*
X152624500Y48193012D01*
X152480570Y48297584D01*
X152361527Y48429795D01*
X152272573Y48583867D01*
X152217596Y48753067D01*
X152199000Y48930000D01*
X152217596Y49106933D01*
X152272573Y49276133D01*
X152361527Y49430205D01*
X152480570Y49562416D01*
X152624500Y49666988D01*
X152787027Y49739349D01*
X152961046Y49776338D01*
X153138954Y49776338D01*
X153312973Y49739349D01*
G37*
G36*
X155852973Y49739349D02*
G01*
X156015500Y49666988D01*
X156159430Y49562416D01*
X156278473Y49430205D01*
X156367427Y49276133D01*
X156422404Y49106933D01*
X156441000Y48930000D01*
X156422404Y48753067D01*
X156367427Y48583867D01*
X156278473Y48429795D01*
X156159430Y48297584D01*
X156015500Y48193012D01*
X155852973Y48120651D01*
X155678954Y48083662D01*
X155501046Y48083662D01*
X155327027Y48120651D01*
X155164500Y48193012D01*
X155020570Y48297584D01*
X154901527Y48429795D01*
X154812573Y48583867D01*
X154757596Y48753067D01*
X154739000Y48930000D01*
X154757596Y49106933D01*
X154812573Y49276133D01*
X154901527Y49430205D01*
X155020570Y49562416D01*
X155164500Y49666988D01*
X155327027Y49739349D01*
X155501046Y49776338D01*
X155678954Y49776338D01*
X155852973Y49739349D01*
G37*
G36*
X158392973Y49739349D02*
G01*
X158555500Y49666988D01*
X158699430Y49562416D01*
X158818473Y49430205D01*
X158907427Y49276133D01*
X158962404Y49106933D01*
X158981000Y48930000D01*
X158962404Y48753067D01*
X158907427Y48583867D01*
X158818473Y48429795D01*
X158699430Y48297584D01*
X158555500Y48193012D01*
X158392973Y48120651D01*
X158218954Y48083662D01*
X158041046Y48083662D01*
X157867027Y48120651D01*
X157704500Y48193012D01*
X157560570Y48297584D01*
X157441527Y48429795D01*
X157352573Y48583867D01*
X157297596Y48753067D01*
X157279000Y48930000D01*
X157297596Y49106933D01*
X157352573Y49276133D01*
X157441527Y49430205D01*
X157560570Y49562416D01*
X157704500Y49666988D01*
X157867027Y49739349D01*
X158041046Y49776338D01*
X158218954Y49776338D01*
X158392973Y49739349D01*
G37*
G36*
X160932973Y49739349D02*
G01*
X161095500Y49666988D01*
X161239430Y49562416D01*
X161358473Y49430205D01*
X161447427Y49276133D01*
X161502404Y49106933D01*
X161521000Y48930000D01*
X161502404Y48753067D01*
X161447427Y48583867D01*
X161358473Y48429795D01*
X161239430Y48297584D01*
X161095500Y48193012D01*
X160932973Y48120651D01*
X160758954Y48083662D01*
X160581046Y48083662D01*
X160407027Y48120651D01*
X160244500Y48193012D01*
X160100570Y48297584D01*
X159981527Y48429795D01*
X159892573Y48583867D01*
X159837596Y48753067D01*
X159819000Y48930000D01*
X159837596Y49106933D01*
X159892573Y49276133D01*
X159981527Y49430205D01*
X160100570Y49562416D01*
X160244500Y49666988D01*
X160407027Y49739349D01*
X160581046Y49776338D01*
X160758954Y49776338D01*
X160932973Y49739349D01*
G37*
G36*
X163472973Y49739349D02*
G01*
X163635500Y49666988D01*
X163779430Y49562416D01*
X163898473Y49430205D01*
X163987427Y49276133D01*
X164042404Y49106933D01*
X164061000Y48930000D01*
X164042404Y48753067D01*
X163987427Y48583867D01*
X163898473Y48429795D01*
X163779430Y48297584D01*
X163635500Y48193012D01*
X163472973Y48120651D01*
X163298954Y48083662D01*
X163121046Y48083662D01*
X162947027Y48120651D01*
X162784500Y48193012D01*
X162640570Y48297584D01*
X162521527Y48429795D01*
X162432573Y48583867D01*
X162377596Y48753067D01*
X162359000Y48930000D01*
X162377596Y49106933D01*
X162432573Y49276133D01*
X162521527Y49430205D01*
X162640570Y49562416D01*
X162784500Y49666988D01*
X162947027Y49739349D01*
X163121046Y49776338D01*
X163298954Y49776338D01*
X163472973Y49739349D01*
G37*
G36*
X166012973Y49739349D02*
G01*
X166175500Y49666988D01*
X166319430Y49562416D01*
X166438473Y49430205D01*
X166527427Y49276133D01*
X166582404Y49106933D01*
X166601000Y48930000D01*
X166582404Y48753067D01*
X166527427Y48583867D01*
X166438473Y48429795D01*
X166319430Y48297584D01*
X166175500Y48193012D01*
X166012973Y48120651D01*
X165838954Y48083662D01*
X165661046Y48083662D01*
X165487027Y48120651D01*
X165324500Y48193012D01*
X165180570Y48297584D01*
X165061527Y48429795D01*
X164972573Y48583867D01*
X164917596Y48753067D01*
X164899000Y48930000D01*
X164917596Y49106933D01*
X164972573Y49276133D01*
X165061527Y49430205D01*
X165180570Y49562416D01*
X165324500Y49666988D01*
X165487027Y49739349D01*
X165661046Y49776338D01*
X165838954Y49776338D01*
X166012973Y49739349D01*
G37*
G36*
X168552973Y49739349D02*
G01*
X168715500Y49666988D01*
X168859430Y49562416D01*
X168978473Y49430205D01*
X169067427Y49276133D01*
X169122404Y49106933D01*
X169141000Y48930000D01*
X169122404Y48753067D01*
X169067427Y48583867D01*
X168978473Y48429795D01*
X168859430Y48297584D01*
X168715500Y48193012D01*
X168552973Y48120651D01*
X168378954Y48083662D01*
X168201046Y48083662D01*
X168027027Y48120651D01*
X167864500Y48193012D01*
X167720570Y48297584D01*
X167601527Y48429795D01*
X167512573Y48583867D01*
X167457596Y48753067D01*
X167439000Y48930000D01*
X167457596Y49106933D01*
X167512573Y49276133D01*
X167601527Y49430205D01*
X167720570Y49562416D01*
X167864500Y49666988D01*
X168027027Y49739349D01*
X168201046Y49776338D01*
X168378954Y49776338D01*
X168552973Y49739349D01*
G37*
G36*
X171092973Y49739349D02*
G01*
X171255500Y49666988D01*
X171399430Y49562416D01*
X171518473Y49430205D01*
X171607427Y49276133D01*
X171662404Y49106933D01*
X171681000Y48930000D01*
X171662404Y48753067D01*
X171607427Y48583867D01*
X171518473Y48429795D01*
X171399430Y48297584D01*
X171255500Y48193012D01*
X171092973Y48120651D01*
X170918954Y48083662D01*
X170741046Y48083662D01*
X170567027Y48120651D01*
X170404500Y48193012D01*
X170260570Y48297584D01*
X170141527Y48429795D01*
X170052573Y48583867D01*
X169997596Y48753067D01*
X169979000Y48930000D01*
X169997596Y49106933D01*
X170052573Y49276133D01*
X170141527Y49430205D01*
X170260570Y49562416D01*
X170404500Y49666988D01*
X170567027Y49739349D01*
X170741046Y49776338D01*
X170918954Y49776338D01*
X171092973Y49739349D01*
G37*
G36*
X93688651Y48446012D02*
G01*
X93721418Y48424118D01*
X93743312Y48391351D01*
X93751000Y48352700D01*
X93751000Y48252700D01*
X93743312Y48214049D01*
X93721418Y48181282D01*
X93688651Y48159388D01*
X93650000Y48151700D01*
X92875000Y48151700D01*
X92836349Y48159388D01*
X92803582Y48181282D01*
X92781688Y48214049D01*
X92774000Y48252700D01*
X92774000Y48352700D01*
X92781688Y48391351D01*
X92803582Y48424118D01*
X92836349Y48446012D01*
X92875000Y48453700D01*
X93650000Y48453700D01*
X93688651Y48446012D01*
G37*
G36*
X100563651Y48446012D02*
G01*
X100596418Y48424118D01*
X100618312Y48391351D01*
X100626000Y48352700D01*
X100626000Y48252700D01*
X100618312Y48214049D01*
X100596418Y48181282D01*
X100563651Y48159388D01*
X100525000Y48151700D01*
X99750000Y48151700D01*
X99711349Y48159388D01*
X99678582Y48181282D01*
X99656688Y48214049D01*
X99649000Y48252700D01*
X99649000Y48352700D01*
X99656688Y48391351D01*
X99678582Y48424118D01*
X99711349Y48446012D01*
X99750000Y48453700D01*
X100525000Y48453700D01*
X100563651Y48446012D01*
G37*
G36*
X130542973Y49849349D02*
G01*
X130705500Y49776988D01*
X130849430Y49672416D01*
X130968473Y49540205D01*
X131057427Y49386133D01*
X131112404Y49216933D01*
X131131000Y49040000D01*
X131112404Y48863067D01*
X131057427Y48693867D01*
X130968473Y48539795D01*
X130849430Y48407584D01*
X130705500Y48303012D01*
X130542973Y48230651D01*
X130368954Y48193662D01*
X130191046Y48193662D01*
X130017027Y48230651D01*
X129854500Y48303012D01*
X129710570Y48407584D01*
X129591527Y48539795D01*
X129502573Y48693867D01*
X129447596Y48863067D01*
X129429000Y49040000D01*
X129447596Y49216933D01*
X129502573Y49386133D01*
X129591527Y49540205D01*
X129710570Y49672416D01*
X129854500Y49776988D01*
X130017027Y49849349D01*
X130191046Y49886338D01*
X130368954Y49886338D01*
X130542973Y49849349D01*
G37*
G36*
X133082973Y49849349D02*
G01*
X133245500Y49776988D01*
X133389430Y49672416D01*
X133508473Y49540205D01*
X133597427Y49386133D01*
X133652404Y49216933D01*
X133671000Y49040000D01*
X133652404Y48863067D01*
X133597427Y48693867D01*
X133508473Y48539795D01*
X133389430Y48407584D01*
X133245500Y48303012D01*
X133082973Y48230651D01*
X132908954Y48193662D01*
X132731046Y48193662D01*
X132557027Y48230651D01*
X132394500Y48303012D01*
X132250570Y48407584D01*
X132131527Y48539795D01*
X132042573Y48693867D01*
X131987596Y48863067D01*
X131969000Y49040000D01*
X131987596Y49216933D01*
X132042573Y49386133D01*
X132131527Y49540205D01*
X132250570Y49672416D01*
X132394500Y49776988D01*
X132557027Y49849349D01*
X132731046Y49886338D01*
X132908954Y49886338D01*
X133082973Y49849349D01*
G37*
G36*
X135622973Y49849349D02*
G01*
X135785500Y49776988D01*
X135929430Y49672416D01*
X136048473Y49540205D01*
X136137427Y49386133D01*
X136192404Y49216933D01*
X136211000Y49040000D01*
X136192404Y48863067D01*
X136137427Y48693867D01*
X136048473Y48539795D01*
X135929430Y48407584D01*
X135785500Y48303012D01*
X135622973Y48230651D01*
X135448954Y48193662D01*
X135271046Y48193662D01*
X135097027Y48230651D01*
X134934500Y48303012D01*
X134790570Y48407584D01*
X134671527Y48539795D01*
X134582573Y48693867D01*
X134527596Y48863067D01*
X134509000Y49040000D01*
X134527596Y49216933D01*
X134582573Y49386133D01*
X134671527Y49540205D01*
X134790570Y49672416D01*
X134934500Y49776988D01*
X135097027Y49849349D01*
X135271046Y49886338D01*
X135448954Y49886338D01*
X135622973Y49849349D01*
G37*
G36*
X138162973Y49849349D02*
G01*
X138325500Y49776988D01*
X138469430Y49672416D01*
X138588473Y49540205D01*
X138677427Y49386133D01*
X138732404Y49216933D01*
X138751000Y49040000D01*
X138732404Y48863067D01*
X138677427Y48693867D01*
X138588473Y48539795D01*
X138469430Y48407584D01*
X138325500Y48303012D01*
X138162973Y48230651D01*
X137988954Y48193662D01*
X137811046Y48193662D01*
X137637027Y48230651D01*
X137474500Y48303012D01*
X137330570Y48407584D01*
X137211527Y48539795D01*
X137122573Y48693867D01*
X137067596Y48863067D01*
X137049000Y49040000D01*
X137067596Y49216933D01*
X137122573Y49386133D01*
X137211527Y49540205D01*
X137330570Y49672416D01*
X137474500Y49776988D01*
X137637027Y49849349D01*
X137811046Y49886338D01*
X137988954Y49886338D01*
X138162973Y49849349D01*
G37*
G36*
X140702973Y49849349D02*
G01*
X140865500Y49776988D01*
X141009430Y49672416D01*
X141128473Y49540205D01*
X141217427Y49386133D01*
X141272404Y49216933D01*
X141291000Y49040000D01*
X141272404Y48863067D01*
X141217427Y48693867D01*
X141128473Y48539795D01*
X141009430Y48407584D01*
X140865500Y48303012D01*
X140702973Y48230651D01*
X140528954Y48193662D01*
X140351046Y48193662D01*
X140177027Y48230651D01*
X140014500Y48303012D01*
X139870570Y48407584D01*
X139751527Y48539795D01*
X139662573Y48693867D01*
X139607596Y48863067D01*
X139589000Y49040000D01*
X139607596Y49216933D01*
X139662573Y49386133D01*
X139751527Y49540205D01*
X139870570Y49672416D01*
X140014500Y49776988D01*
X140177027Y49849349D01*
X140351046Y49886338D01*
X140528954Y49886338D01*
X140702973Y49849349D01*
G37*
G36*
X143242973Y49849349D02*
G01*
X143405500Y49776988D01*
X143549430Y49672416D01*
X143668473Y49540205D01*
X143757427Y49386133D01*
X143812404Y49216933D01*
X143831000Y49040000D01*
X143812404Y48863067D01*
X143757427Y48693867D01*
X143668473Y48539795D01*
X143549430Y48407584D01*
X143405500Y48303012D01*
X143242973Y48230651D01*
X143068954Y48193662D01*
X142891046Y48193662D01*
X142717027Y48230651D01*
X142554500Y48303012D01*
X142410570Y48407584D01*
X142291527Y48539795D01*
X142202573Y48693867D01*
X142147596Y48863067D01*
X142129000Y49040000D01*
X142147596Y49216933D01*
X142202573Y49386133D01*
X142291527Y49540205D01*
X142410570Y49672416D01*
X142554500Y49776988D01*
X142717027Y49849349D01*
X142891046Y49886338D01*
X143068954Y49886338D01*
X143242973Y49849349D01*
G37*
G36*
X145782973Y49849349D02*
G01*
X145945500Y49776988D01*
X146089430Y49672416D01*
X146208473Y49540205D01*
X146297427Y49386133D01*
X146352404Y49216933D01*
X146371000Y49040000D01*
X146352404Y48863067D01*
X146297427Y48693867D01*
X146208473Y48539795D01*
X146089430Y48407584D01*
X145945500Y48303012D01*
X145782973Y48230651D01*
X145608954Y48193662D01*
X145431046Y48193662D01*
X145257027Y48230651D01*
X145094500Y48303012D01*
X144950570Y48407584D01*
X144831527Y48539795D01*
X144742573Y48693867D01*
X144687596Y48863067D01*
X144669000Y49040000D01*
X144687596Y49216933D01*
X144742573Y49386133D01*
X144831527Y49540205D01*
X144950570Y49672416D01*
X145094500Y49776988D01*
X145257027Y49849349D01*
X145431046Y49886338D01*
X145608954Y49886338D01*
X145782973Y49849349D01*
G37*
G36*
X148322973Y49849349D02*
G01*
X148485500Y49776988D01*
X148629430Y49672416D01*
X148748473Y49540205D01*
X148837427Y49386133D01*
X148892404Y49216933D01*
X148911000Y49040000D01*
X148892404Y48863067D01*
X148837427Y48693867D01*
X148748473Y48539795D01*
X148629430Y48407584D01*
X148485500Y48303012D01*
X148322973Y48230651D01*
X148148954Y48193662D01*
X147971046Y48193662D01*
X147797027Y48230651D01*
X147634500Y48303012D01*
X147490570Y48407584D01*
X147371527Y48539795D01*
X147282573Y48693867D01*
X147227596Y48863067D01*
X147209000Y49040000D01*
X147227596Y49216933D01*
X147282573Y49386133D01*
X147371527Y49540205D01*
X147490570Y49672416D01*
X147634500Y49776988D01*
X147797027Y49849349D01*
X147971046Y49886338D01*
X148148954Y49886338D01*
X148322973Y49849349D01*
G37*
G36*
X102918093Y48949161D02*
G01*
X102980057Y48907757D01*
X103021461Y48845793D01*
X103036000Y48772700D01*
X103036000Y48432700D01*
X103021461Y48359607D01*
X102980057Y48297643D01*
X102918093Y48256239D01*
X102845000Y48241700D01*
X102565000Y48241700D01*
X102491907Y48256239D01*
X102429943Y48297643D01*
X102388539Y48359607D01*
X102374000Y48432700D01*
X102374000Y48772700D01*
X102388539Y48845793D01*
X102429943Y48907757D01*
X102491907Y48949161D01*
X102565000Y48963700D01*
X102845000Y48963700D01*
X102918093Y48949161D01*
G37*
G36*
X103878093Y48949161D02*
G01*
X103940057Y48907757D01*
X103981461Y48845793D01*
X103996000Y48772700D01*
X103996000Y48432700D01*
X103981461Y48359607D01*
X103940057Y48297643D01*
X103878093Y48256239D01*
X103805000Y48241700D01*
X103525000Y48241700D01*
X103451907Y48256239D01*
X103389943Y48297643D01*
X103348539Y48359607D01*
X103334000Y48432700D01*
X103334000Y48772700D01*
X103348539Y48845793D01*
X103389943Y48907757D01*
X103451907Y48949161D01*
X103525000Y48963700D01*
X103805000Y48963700D01*
X103878093Y48949161D01*
G37*
G36*
X98230623Y51738857D02*
G01*
X98293886Y51696586D01*
X98336157Y51633323D01*
X98351000Y51558700D01*
X98351000Y48646700D01*
X98336157Y48572077D01*
X98293886Y48508814D01*
X98230623Y48466543D01*
X98156000Y48451700D01*
X95244000Y48451700D01*
X95169377Y48466543D01*
X95106114Y48508814D01*
X95063843Y48572077D01*
X95049000Y48646700D01*
X95049000Y51558700D01*
X95063843Y51633323D01*
X95106114Y51696586D01*
X95169377Y51738857D01*
X95244000Y51753700D01*
X98156000Y51753700D01*
X98230623Y51738857D01*
G37*
G36*
X93688651Y48846012D02*
G01*
X93721418Y48824118D01*
X93743312Y48791351D01*
X93751000Y48752700D01*
X93751000Y48652700D01*
X93743312Y48614049D01*
X93721418Y48581282D01*
X93688651Y48559388D01*
X93650000Y48551700D01*
X92875000Y48551700D01*
X92836349Y48559388D01*
X92803582Y48581282D01*
X92781688Y48614049D01*
X92774000Y48652700D01*
X92774000Y48752700D01*
X92781688Y48791351D01*
X92803582Y48824118D01*
X92836349Y48846012D01*
X92875000Y48853700D01*
X93650000Y48853700D01*
X93688651Y48846012D01*
G37*
G36*
X100563651Y48846012D02*
G01*
X100596418Y48824118D01*
X100618312Y48791351D01*
X100626000Y48752700D01*
X100626000Y48652700D01*
X100618312Y48614049D01*
X100596418Y48581282D01*
X100563651Y48559388D01*
X100525000Y48551700D01*
X99750000Y48551700D01*
X99711349Y48559388D01*
X99678582Y48581282D01*
X99656688Y48614049D01*
X99649000Y48652700D01*
X99649000Y48752700D01*
X99656688Y48791351D01*
X99678582Y48824118D01*
X99711349Y48846012D01*
X99750000Y48853700D01*
X100525000Y48853700D01*
X100563651Y48846012D01*
G37*
G36*
X74426917Y49140218D02*
G01*
X74443462Y49129162D01*
X74454518Y49112617D01*
X74458400Y49093100D01*
X74458400Y48643100D01*
X74454518Y48623583D01*
X74443462Y48607038D01*
X74426917Y48595982D01*
X74407400Y48592100D01*
X72907400Y48592100D01*
X72887883Y48595982D01*
X72871338Y48607038D01*
X72860282Y48623583D01*
X72856400Y48643100D01*
X72856400Y49093100D01*
X72860282Y49112617D01*
X72871338Y49129162D01*
X72887883Y49140218D01*
X72907400Y49144100D01*
X74407400Y49144100D01*
X74426917Y49140218D01*
G37*
G36*
X89911179Y49459542D02*
G01*
X89971522Y49419222D01*
X90011842Y49358879D01*
X90026000Y49287700D01*
X90026000Y48917700D01*
X90011842Y48846521D01*
X89971522Y48786178D01*
X89911179Y48745858D01*
X89840000Y48731700D01*
X89570000Y48731700D01*
X89498821Y48745858D01*
X89438478Y48786178D01*
X89398158Y48846521D01*
X89384000Y48917700D01*
X89384000Y49287700D01*
X89398158Y49358879D01*
X89438478Y49419222D01*
X89498821Y49459542D01*
X89570000Y49473700D01*
X89840000Y49473700D01*
X89911179Y49459542D01*
G37*
G36*
X90931179Y49459542D02*
G01*
X90991522Y49419222D01*
X91031842Y49358879D01*
X91046000Y49287700D01*
X91046000Y48917700D01*
X91031842Y48846521D01*
X90991522Y48786178D01*
X90931179Y48745858D01*
X90860000Y48731700D01*
X90590000Y48731700D01*
X90518821Y48745858D01*
X90458478Y48786178D01*
X90418158Y48846521D01*
X90404000Y48917700D01*
X90404000Y49287700D01*
X90418158Y49358879D01*
X90458478Y49419222D01*
X90518821Y49459542D01*
X90590000Y49473700D01*
X90860000Y49473700D01*
X90931179Y49459542D01*
G37*
G36*
X93688651Y49246012D02*
G01*
X93721418Y49224118D01*
X93743312Y49191351D01*
X93751000Y49152700D01*
X93751000Y49052700D01*
X93743312Y49014049D01*
X93721418Y48981282D01*
X93688651Y48959388D01*
X93650000Y48951700D01*
X92875000Y48951700D01*
X92836349Y48959388D01*
X92803582Y48981282D01*
X92781688Y49014049D01*
X92774000Y49052700D01*
X92774000Y49152700D01*
X92781688Y49191351D01*
X92803582Y49224118D01*
X92836349Y49246012D01*
X92875000Y49253700D01*
X93650000Y49253700D01*
X93688651Y49246012D01*
G37*
G36*
X100563651Y49246012D02*
G01*
X100596418Y49224118D01*
X100618312Y49191351D01*
X100626000Y49152700D01*
X100626000Y49052700D01*
X100618312Y49014049D01*
X100596418Y48981282D01*
X100563651Y48959388D01*
X100525000Y48951700D01*
X99750000Y48951700D01*
X99711349Y48959388D01*
X99678582Y48981282D01*
X99656688Y49014049D01*
X99649000Y49052700D01*
X99649000Y49152700D01*
X99656688Y49191351D01*
X99678582Y49224118D01*
X99711349Y49246012D01*
X99750000Y49253700D01*
X100525000Y49253700D01*
X100563651Y49246012D01*
G37*
G36*
X74426917Y49790218D02*
G01*
X74443462Y49779162D01*
X74454518Y49762617D01*
X74458400Y49743100D01*
X74458400Y49293100D01*
X74454518Y49273583D01*
X74443462Y49257038D01*
X74426917Y49245982D01*
X74407400Y49242100D01*
X72907400Y49242100D01*
X72887883Y49245982D01*
X72871338Y49257038D01*
X72860282Y49273583D01*
X72856400Y49293100D01*
X72856400Y49743100D01*
X72860282Y49762617D01*
X72871338Y49779162D01*
X72887883Y49790218D01*
X72907400Y49794100D01*
X74407400Y49794100D01*
X74426917Y49790218D01*
G37*
G36*
X93688651Y49646012D02*
G01*
X93721418Y49624118D01*
X93743312Y49591351D01*
X93751000Y49552700D01*
X93751000Y49452700D01*
X93743312Y49414049D01*
X93721418Y49381282D01*
X93688651Y49359388D01*
X93650000Y49351700D01*
X92875000Y49351700D01*
X92836349Y49359388D01*
X92803582Y49381282D01*
X92781688Y49414049D01*
X92774000Y49452700D01*
X92774000Y49552700D01*
X92781688Y49591351D01*
X92803582Y49624118D01*
X92836349Y49646012D01*
X92875000Y49653700D01*
X93650000Y49653700D01*
X93688651Y49646012D01*
G37*
G36*
X100563651Y49646012D02*
G01*
X100596418Y49624118D01*
X100618312Y49591351D01*
X100626000Y49552700D01*
X100626000Y49452700D01*
X100618312Y49414049D01*
X100596418Y49381282D01*
X100563651Y49359388D01*
X100525000Y49351700D01*
X99750000Y49351700D01*
X99711349Y49359388D01*
X99678582Y49381282D01*
X99656688Y49414049D01*
X99649000Y49452700D01*
X99649000Y49552700D01*
X99656688Y49591351D01*
X99678582Y49624118D01*
X99711349Y49646012D01*
X99750000Y49653700D01*
X100525000Y49653700D01*
X100563651Y49646012D01*
G37*
G36*
X102918093Y50068161D02*
G01*
X102980057Y50026757D01*
X103021461Y49964793D01*
X103036000Y49891700D01*
X103036000Y49551700D01*
X103021461Y49478607D01*
X102980057Y49416643D01*
X102918093Y49375239D01*
X102845000Y49360700D01*
X102565000Y49360700D01*
X102491907Y49375239D01*
X102429943Y49416643D01*
X102388539Y49478607D01*
X102374000Y49551700D01*
X102374000Y49891700D01*
X102388539Y49964793D01*
X102429943Y50026757D01*
X102491907Y50068161D01*
X102565000Y50082700D01*
X102845000Y50082700D01*
X102918093Y50068161D01*
G37*
G36*
X103878093Y50068161D02*
G01*
X103940057Y50026757D01*
X103981461Y49964793D01*
X103996000Y49891700D01*
X103996000Y49551700D01*
X103981461Y49478607D01*
X103940057Y49416643D01*
X103878093Y49375239D01*
X103805000Y49360700D01*
X103525000Y49360700D01*
X103451907Y49375239D01*
X103389943Y49416643D01*
X103348539Y49478607D01*
X103334000Y49551700D01*
X103334000Y49891700D01*
X103348539Y49964793D01*
X103389943Y50026757D01*
X103451907Y50068161D01*
X103525000Y50082700D01*
X103805000Y50082700D01*
X103878093Y50068161D01*
G37*
G36*
X88948093Y50449161D02*
G01*
X89010057Y50407757D01*
X89051461Y50345793D01*
X89066000Y50272700D01*
X89066000Y49932700D01*
X89051461Y49859607D01*
X89010057Y49797643D01*
X88948093Y49756239D01*
X88875000Y49741700D01*
X88595000Y49741700D01*
X88521907Y49756239D01*
X88459943Y49797643D01*
X88418539Y49859607D01*
X88404000Y49932700D01*
X88404000Y50272700D01*
X88418539Y50345793D01*
X88459943Y50407757D01*
X88521907Y50449161D01*
X88595000Y50463700D01*
X88875000Y50463700D01*
X88948093Y50449161D01*
G37*
G36*
X89908093Y50449161D02*
G01*
X89970057Y50407757D01*
X90011461Y50345793D01*
X90026000Y50272700D01*
X90026000Y49932700D01*
X90011461Y49859607D01*
X89970057Y49797643D01*
X89908093Y49756239D01*
X89835000Y49741700D01*
X89555000Y49741700D01*
X89481907Y49756239D01*
X89419943Y49797643D01*
X89378539Y49859607D01*
X89364000Y49932700D01*
X89364000Y50272700D01*
X89378539Y50345793D01*
X89419943Y50407757D01*
X89481907Y50449161D01*
X89555000Y50463700D01*
X89835000Y50463700D01*
X89908093Y50449161D01*
G37*
G36*
X93688651Y50046012D02*
G01*
X93721418Y50024118D01*
X93743312Y49991351D01*
X93751000Y49952700D01*
X93751000Y49852700D01*
X93743312Y49814049D01*
X93721418Y49781282D01*
X93688651Y49759388D01*
X93650000Y49751700D01*
X92875000Y49751700D01*
X92836349Y49759388D01*
X92803582Y49781282D01*
X92781688Y49814049D01*
X92774000Y49852700D01*
X92774000Y49952700D01*
X92781688Y49991351D01*
X92803582Y50024118D01*
X92836349Y50046012D01*
X92875000Y50053700D01*
X93650000Y50053700D01*
X93688651Y50046012D01*
G37*
G36*
X100563651Y50046012D02*
G01*
X100596418Y50024118D01*
X100618312Y49991351D01*
X100626000Y49952700D01*
X100626000Y49852700D01*
X100618312Y49814049D01*
X100596418Y49781282D01*
X100563651Y49759388D01*
X100525000Y49751700D01*
X99750000Y49751700D01*
X99711349Y49759388D01*
X99678582Y49781282D01*
X99656688Y49814049D01*
X99649000Y49852700D01*
X99649000Y49952700D01*
X99656688Y49991351D01*
X99678582Y50024118D01*
X99711349Y50046012D01*
X99750000Y50053700D01*
X100525000Y50053700D01*
X100563651Y50046012D01*
G37*
G36*
X105943093Y50454161D02*
G01*
X106005057Y50412757D01*
X106046461Y50350793D01*
X106061000Y50277700D01*
X106061000Y49997700D01*
X106046461Y49924607D01*
X106005057Y49862643D01*
X105943093Y49821239D01*
X105870000Y49806700D01*
X105530000Y49806700D01*
X105456907Y49821239D01*
X105394943Y49862643D01*
X105353539Y49924607D01*
X105339000Y49997700D01*
X105339000Y50277700D01*
X105353539Y50350793D01*
X105394943Y50412757D01*
X105456907Y50454161D01*
X105530000Y50468700D01*
X105870000Y50468700D01*
X105943093Y50454161D01*
G37*
G36*
X74426917Y50440218D02*
G01*
X74443462Y50429162D01*
X74454518Y50412617D01*
X74458400Y50393100D01*
X74458400Y49943100D01*
X74454518Y49923583D01*
X74443462Y49907038D01*
X74426917Y49895982D01*
X74407400Y49892100D01*
X72907400Y49892100D01*
X72887883Y49895982D01*
X72871338Y49907038D01*
X72860282Y49923583D01*
X72856400Y49943100D01*
X72856400Y50393100D01*
X72860282Y50412617D01*
X72871338Y50429162D01*
X72887883Y50440218D01*
X72907400Y50444100D01*
X74407400Y50444100D01*
X74426917Y50440218D01*
G37*
G36*
X42837465Y52029025D02*
G01*
X42886955Y52029025D01*
X42942070Y52018723D01*
X42995040Y52013505D01*
X43035279Y52001299D01*
X43077570Y51993393D01*
X43136142Y51970703D01*
X43192200Y51953697D01*
X43224231Y51936577D01*
X43258382Y51923346D01*
X43317719Y51886607D01*
X43373904Y51856575D01*
X43397509Y51837203D01*
X43423251Y51821264D01*
X43480290Y51769266D01*
X43533169Y51725869D01*
X43548839Y51706776D01*
X43566557Y51690623D01*
X43617989Y51622516D01*
X43663875Y51566604D01*
X43672748Y51550003D01*
X43683415Y51535878D01*
X43725860Y51450636D01*
X43760997Y51384900D01*
X43764743Y51372549D01*
X43769848Y51362298D01*
X43799997Y51256332D01*
X43820805Y51187740D01*
X43821488Y51180800D01*
X43822915Y51175786D01*
X43837739Y51015807D01*
X43841000Y50982700D01*
X43837738Y50949591D01*
X43822915Y50789615D01*
X43821488Y50784603D01*
X43820805Y50777660D01*
X43799993Y50709054D01*
X43769848Y50603103D01*
X43764744Y50592854D01*
X43760997Y50580500D01*
X43725853Y50514751D01*
X43683415Y50429523D01*
X43672750Y50415401D01*
X43663875Y50398796D01*
X43617979Y50342873D01*
X43566557Y50274778D01*
X43548842Y50258629D01*
X43533169Y50239531D01*
X43480279Y50196126D01*
X43423251Y50144137D01*
X43397514Y50128202D01*
X43373904Y50108825D01*
X43317707Y50078788D01*
X43258382Y50042055D01*
X43224238Y50028828D01*
X43192200Y50011703D01*
X43136130Y49994695D01*
X43077570Y49972008D01*
X43035286Y49964104D01*
X42995040Y49951895D01*
X42942067Y49946678D01*
X42886955Y49936375D01*
X42837465Y49936375D01*
X42790000Y49931700D01*
X42742535Y49936375D01*
X42693045Y49936375D01*
X42637931Y49946678D01*
X42584960Y49951895D01*
X42544714Y49964104D01*
X42502429Y49972008D01*
X42443865Y49994696D01*
X42387800Y50011703D01*
X42355764Y50028827D01*
X42321617Y50042055D01*
X42262285Y50078792D01*
X42206096Y50108825D01*
X42182488Y50128200D01*
X42156748Y50144137D01*
X42099710Y50196135D01*
X42046831Y50239531D01*
X42031160Y50258626D01*
X42013442Y50274778D01*
X41962007Y50342889D01*
X41916125Y50398796D01*
X41907252Y50415397D01*
X41896584Y50429523D01*
X41854131Y50514779D01*
X41819003Y50580500D01*
X41815257Y50592849D01*
X41810151Y50603103D01*
X41779990Y50709107D01*
X41759195Y50777660D01*
X41758511Y50784597D01*
X41757084Y50789615D01*
X41742244Y50949762D01*
X41739000Y50982700D01*
X41742243Y51015636D01*
X41757084Y51175786D01*
X41758511Y51180805D01*
X41759195Y51187740D01*
X41779986Y51256279D01*
X41810151Y51362298D01*
X41815257Y51372554D01*
X41819003Y51384900D01*
X41854124Y51450609D01*
X41896584Y51535878D01*
X41907253Y51550008D01*
X41916125Y51566604D01*
X41961998Y51622501D01*
X42013442Y51690623D01*
X42031163Y51706779D01*
X42046831Y51725869D01*
X42099699Y51769257D01*
X42156748Y51821264D01*
X42182493Y51837205D01*
X42206096Y51856575D01*
X42262273Y51886603D01*
X42321617Y51923346D01*
X42355771Y51936578D01*
X42387800Y51953697D01*
X42443853Y51970701D01*
X42502429Y51993393D01*
X42544721Y52001299D01*
X42584960Y52013505D01*
X42637928Y52018723D01*
X42693045Y52029025D01*
X42742535Y52029025D01*
X42790000Y52033700D01*
X42837465Y52029025D01*
G37*
G36*
X93688651Y50446012D02*
G01*
X93721418Y50424118D01*
X93743312Y50391351D01*
X93751000Y50352700D01*
X93751000Y50252700D01*
X93743312Y50214049D01*
X93721418Y50181282D01*
X93688651Y50159388D01*
X93650000Y50151700D01*
X92875000Y50151700D01*
X92836349Y50159388D01*
X92803582Y50181282D01*
X92781688Y50214049D01*
X92774000Y50252700D01*
X92774000Y50352700D01*
X92781688Y50391351D01*
X92803582Y50424118D01*
X92836349Y50446012D01*
X92875000Y50453700D01*
X93650000Y50453700D01*
X93688651Y50446012D01*
G37*
G36*
X100563651Y50446012D02*
G01*
X100596418Y50424118D01*
X100618312Y50391351D01*
X100626000Y50352700D01*
X100626000Y50252700D01*
X100618312Y50214049D01*
X100596418Y50181282D01*
X100563651Y50159388D01*
X100525000Y50151700D01*
X99750000Y50151700D01*
X99711349Y50159388D01*
X99678582Y50181282D01*
X99656688Y50214049D01*
X99649000Y50252700D01*
X99649000Y50352700D01*
X99656688Y50391351D01*
X99678582Y50424118D01*
X99711349Y50446012D01*
X99750000Y50453700D01*
X100525000Y50453700D01*
X100563651Y50446012D01*
G37*
G36*
X93688651Y50846012D02*
G01*
X93721418Y50824118D01*
X93743312Y50791351D01*
X93751000Y50752700D01*
X93751000Y50652700D01*
X93743312Y50614049D01*
X93721418Y50581282D01*
X93688651Y50559388D01*
X93650000Y50551700D01*
X92875000Y50551700D01*
X92836349Y50559388D01*
X92803582Y50581282D01*
X92781688Y50614049D01*
X92774000Y50652700D01*
X92774000Y50752700D01*
X92781688Y50791351D01*
X92803582Y50824118D01*
X92836349Y50846012D01*
X92875000Y50853700D01*
X93650000Y50853700D01*
X93688651Y50846012D01*
G37*
G36*
X100563651Y50846012D02*
G01*
X100596418Y50824118D01*
X100618312Y50791351D01*
X100626000Y50752700D01*
X100626000Y50652700D01*
X100618312Y50614049D01*
X100596418Y50581282D01*
X100563651Y50559388D01*
X100525000Y50551700D01*
X99750000Y50551700D01*
X99711349Y50559388D01*
X99678582Y50581282D01*
X99656688Y50614049D01*
X99649000Y50652700D01*
X99649000Y50752700D01*
X99656688Y50791351D01*
X99678582Y50824118D01*
X99711349Y50846012D01*
X99750000Y50853700D01*
X100525000Y50853700D01*
X100563651Y50846012D01*
G37*
G36*
X73976500Y52613958D02*
G01*
X73985846Y52613958D01*
X74012774Y52606743D01*
X74081795Y52593014D01*
X74114371Y52579521D01*
X74137393Y52573352D01*
X74158033Y52561436D01*
X74190609Y52547942D01*
X74249120Y52508846D01*
X74273266Y52494905D01*
X74279875Y52488296D01*
X74288531Y52482512D01*
X74371811Y52399232D01*
X74377594Y52390577D01*
X74384205Y52383966D01*
X74398147Y52359817D01*
X74437241Y52301310D01*
X74450733Y52268737D01*
X74462652Y52248093D01*
X74468821Y52225068D01*
X74482313Y52192496D01*
X74496040Y52123485D01*
X74503258Y52096546D01*
X74504172Y52082602D01*
X74505505Y52075900D01*
X74508182Y52021420D01*
X74508400Y52018100D01*
X74508400Y51318100D01*
X74508182Y51314778D01*
X74505505Y51260301D01*
X74504172Y51253601D01*
X74503258Y51239654D01*
X74496039Y51212713D01*
X74482313Y51143705D01*
X74468822Y51111136D01*
X74462652Y51088107D01*
X74450731Y51067461D01*
X74437241Y51034891D01*
X74398152Y50976391D01*
X74384205Y50952234D01*
X74377592Y50945622D01*
X74371811Y50936969D01*
X74288531Y50853689D01*
X74279878Y50847908D01*
X74273266Y50841295D01*
X74249109Y50827348D01*
X74190609Y50788259D01*
X74158039Y50774769D01*
X74137393Y50762848D01*
X74114364Y50756678D01*
X74081795Y50743187D01*
X74012780Y50729459D01*
X73985846Y50722242D01*
X73976499Y50722242D01*
X73966289Y50720211D01*
X73848511Y50720211D01*
X73838301Y50722242D01*
X73828954Y50722242D01*
X73802020Y50729459D01*
X73733004Y50743187D01*
X73700432Y50756679D01*
X73677407Y50762848D01*
X73656763Y50774767D01*
X73624190Y50788259D01*
X73565683Y50827353D01*
X73541534Y50841295D01*
X73534923Y50847906D01*
X73526268Y50853689D01*
X73442988Y50936969D01*
X73437204Y50945625D01*
X73430595Y50952234D01*
X73416654Y50976380D01*
X73377558Y51034891D01*
X73364064Y51067467D01*
X73352148Y51088107D01*
X73345979Y51111129D01*
X73332486Y51143705D01*
X73318756Y51212728D01*
X73311542Y51239654D01*
X73310628Y51253593D01*
X73309294Y51260301D01*
X73306617Y51314783D01*
X73306400Y51318100D01*
X73306400Y52018100D01*
X73306617Y52021415D01*
X73309294Y52075900D01*
X73310628Y52082609D01*
X73311542Y52096546D01*
X73318756Y52123470D01*
X73332486Y52192496D01*
X73345980Y52225075D01*
X73352148Y52248093D01*
X73364063Y52268731D01*
X73377558Y52301310D01*
X73416658Y52359828D01*
X73430595Y52383966D01*
X73437202Y52390574D01*
X73442988Y52399232D01*
X73526268Y52482512D01*
X73534926Y52488298D01*
X73541534Y52494905D01*
X73565672Y52508842D01*
X73624190Y52547942D01*
X73656769Y52561437D01*
X73677407Y52573352D01*
X73700425Y52579520D01*
X73733004Y52593014D01*
X73802026Y52606743D01*
X73828954Y52613958D01*
X73838300Y52613958D01*
X73848511Y52615989D01*
X73966289Y52615989D01*
X73976500Y52613958D01*
G37*
G36*
X88948093Y51449161D02*
G01*
X89010057Y51407757D01*
X89051461Y51345793D01*
X89066000Y51272700D01*
X89066000Y50932700D01*
X89051461Y50859607D01*
X89010057Y50797643D01*
X88948093Y50756239D01*
X88875000Y50741700D01*
X88595000Y50741700D01*
X88521907Y50756239D01*
X88459943Y50797643D01*
X88418539Y50859607D01*
X88404000Y50932700D01*
X88404000Y51272700D01*
X88418539Y51345793D01*
X88459943Y51407757D01*
X88521907Y51449161D01*
X88595000Y51463700D01*
X88875000Y51463700D01*
X88948093Y51449161D01*
G37*
G36*
X89908093Y51449161D02*
G01*
X89970057Y51407757D01*
X90011461Y51345793D01*
X90026000Y51272700D01*
X90026000Y50932700D01*
X90011461Y50859607D01*
X89970057Y50797643D01*
X89908093Y50756239D01*
X89835000Y50741700D01*
X89555000Y50741700D01*
X89481907Y50756239D01*
X89419943Y50797643D01*
X89378539Y50859607D01*
X89364000Y50932700D01*
X89364000Y51272700D01*
X89378539Y51345793D01*
X89419943Y51407757D01*
X89481907Y51449161D01*
X89555000Y51463700D01*
X89835000Y51463700D01*
X89908093Y51449161D01*
G37*
G36*
X105943093Y51414161D02*
G01*
X106005057Y51372757D01*
X106046461Y51310793D01*
X106061000Y51237700D01*
X106061000Y50957700D01*
X106046461Y50884607D01*
X106005057Y50822643D01*
X105943093Y50781239D01*
X105870000Y50766700D01*
X105530000Y50766700D01*
X105456907Y50781239D01*
X105394943Y50822643D01*
X105353539Y50884607D01*
X105339000Y50957700D01*
X105339000Y51237700D01*
X105353539Y51310793D01*
X105394943Y51372757D01*
X105456907Y51414161D01*
X105530000Y51428700D01*
X105870000Y51428700D01*
X105943093Y51414161D01*
G37*
G36*
X93688651Y51246012D02*
G01*
X93721418Y51224118D01*
X93743312Y51191351D01*
X93751000Y51152700D01*
X93751000Y51052700D01*
X93743312Y51014049D01*
X93721418Y50981282D01*
X93688651Y50959388D01*
X93650000Y50951700D01*
X92875000Y50951700D01*
X92836349Y50959388D01*
X92803582Y50981282D01*
X92781688Y51014049D01*
X92774000Y51052700D01*
X92774000Y51152700D01*
X92781688Y51191351D01*
X92803582Y51224118D01*
X92836349Y51246012D01*
X92875000Y51253700D01*
X93650000Y51253700D01*
X93688651Y51246012D01*
G37*
G36*
X100563651Y51246012D02*
G01*
X100596418Y51224118D01*
X100618312Y51191351D01*
X100626000Y51152700D01*
X100626000Y51052700D01*
X100618312Y51014049D01*
X100596418Y50981282D01*
X100563651Y50959388D01*
X100525000Y50951700D01*
X99750000Y50951700D01*
X99711349Y50959388D01*
X99678582Y50981282D01*
X99656688Y51014049D01*
X99649000Y51052700D01*
X99649000Y51152700D01*
X99656688Y51191351D01*
X99678582Y51224118D01*
X99711349Y51246012D01*
X99750000Y51253700D01*
X100525000Y51253700D01*
X100563651Y51246012D01*
G37*
G36*
X103511179Y51759542D02*
G01*
X103571522Y51719222D01*
X103611842Y51658879D01*
X103626000Y51587700D01*
X103626000Y51217700D01*
X103611842Y51146521D01*
X103571522Y51086178D01*
X103511179Y51045858D01*
X103440000Y51031700D01*
X103170000Y51031700D01*
X103098821Y51045858D01*
X103038478Y51086178D01*
X102998158Y51146521D01*
X102984000Y51217700D01*
X102984000Y51587700D01*
X102998158Y51658879D01*
X103038478Y51719222D01*
X103098821Y51759542D01*
X103170000Y51773700D01*
X103440000Y51773700D01*
X103511179Y51759542D01*
G37*
G36*
X104531179Y51759542D02*
G01*
X104591522Y51719222D01*
X104631842Y51658879D01*
X104646000Y51587700D01*
X104646000Y51217700D01*
X104631842Y51146521D01*
X104591522Y51086178D01*
X104531179Y51045858D01*
X104460000Y51031700D01*
X104190000Y51031700D01*
X104118821Y51045858D01*
X104058478Y51086178D01*
X104018158Y51146521D01*
X104004000Y51217700D01*
X104004000Y51587700D01*
X104018158Y51658879D01*
X104058478Y51719222D01*
X104118821Y51759542D01*
X104190000Y51773700D01*
X104460000Y51773700D01*
X104531179Y51759542D01*
G37*
G36*
X93688651Y51646012D02*
G01*
X93721418Y51624118D01*
X93743312Y51591351D01*
X93751000Y51552700D01*
X93751000Y51452700D01*
X93743312Y51414049D01*
X93721418Y51381282D01*
X93688651Y51359388D01*
X93650000Y51351700D01*
X92875000Y51351700D01*
X92836349Y51359388D01*
X92803582Y51381282D01*
X92781688Y51414049D01*
X92774000Y51452700D01*
X92774000Y51552700D01*
X92781688Y51591351D01*
X92803582Y51624118D01*
X92836349Y51646012D01*
X92875000Y51653700D01*
X93650000Y51653700D01*
X93688651Y51646012D01*
G37*
G36*
X100563651Y51646012D02*
G01*
X100596418Y51624118D01*
X100618312Y51591351D01*
X100626000Y51552700D01*
X100626000Y51452700D01*
X100618312Y51414049D01*
X100596418Y51381282D01*
X100563651Y51359388D01*
X100525000Y51351700D01*
X99750000Y51351700D01*
X99711349Y51359388D01*
X99678582Y51381282D01*
X99656688Y51414049D01*
X99649000Y51452700D01*
X99649000Y51552700D01*
X99656688Y51591351D01*
X99678582Y51624118D01*
X99711349Y51646012D01*
X99750000Y51653700D01*
X100525000Y51653700D01*
X100563651Y51646012D01*
G37*
G36*
X93688651Y52046012D02*
G01*
X93721418Y52024118D01*
X93743312Y51991351D01*
X93751000Y51952700D01*
X93751000Y51852700D01*
X93743312Y51814049D01*
X93721418Y51781282D01*
X93688651Y51759388D01*
X93650000Y51751700D01*
X92875000Y51751700D01*
X92836349Y51759388D01*
X92803582Y51781282D01*
X92781688Y51814049D01*
X92774000Y51852700D01*
X92774000Y51952700D01*
X92781688Y51991351D01*
X92803582Y52024118D01*
X92836349Y52046012D01*
X92875000Y52053700D01*
X93650000Y52053700D01*
X93688651Y52046012D01*
G37*
G36*
X100563651Y52046012D02*
G01*
X100596418Y52024118D01*
X100618312Y51991351D01*
X100626000Y51952700D01*
X100626000Y51852700D01*
X100618312Y51814049D01*
X100596418Y51781282D01*
X100563651Y51759388D01*
X100525000Y51751700D01*
X99750000Y51751700D01*
X99711349Y51759388D01*
X99678582Y51781282D01*
X99656688Y51814049D01*
X99649000Y51852700D01*
X99649000Y51952700D01*
X99656688Y51991351D01*
X99678582Y52024118D01*
X99711349Y52046012D01*
X99750000Y52053700D01*
X100525000Y52053700D01*
X100563651Y52046012D01*
G37*
G36*
X93688651Y52446012D02*
G01*
X93721418Y52424118D01*
X93743312Y52391351D01*
X93751000Y52352700D01*
X93751000Y52252700D01*
X93743312Y52214049D01*
X93721418Y52181282D01*
X93688651Y52159388D01*
X93650000Y52151700D01*
X92875000Y52151700D01*
X92836349Y52159388D01*
X92803582Y52181282D01*
X92781688Y52214049D01*
X92774000Y52252700D01*
X92774000Y52352700D01*
X92781688Y52391351D01*
X92803582Y52424118D01*
X92836349Y52446012D01*
X92875000Y52453700D01*
X93650000Y52453700D01*
X93688651Y52446012D01*
G37*
G36*
X100563651Y52446012D02*
G01*
X100596418Y52424118D01*
X100618312Y52391351D01*
X100626000Y52352700D01*
X100626000Y52252700D01*
X100618312Y52214049D01*
X100596418Y52181282D01*
X100563651Y52159388D01*
X100525000Y52151700D01*
X99750000Y52151700D01*
X99711349Y52159388D01*
X99678582Y52181282D01*
X99656688Y52214049D01*
X99649000Y52252700D01*
X99649000Y52352700D01*
X99656688Y52391351D01*
X99678582Y52424118D01*
X99711349Y52446012D01*
X99750000Y52453700D01*
X100525000Y52453700D01*
X100563651Y52446012D01*
G37*
G36*
X93688651Y52846012D02*
G01*
X93721418Y52824118D01*
X93743312Y52791351D01*
X93751000Y52752700D01*
X93751000Y52652700D01*
X93743312Y52614049D01*
X93721418Y52581282D01*
X93688651Y52559388D01*
X93650000Y52551700D01*
X92875000Y52551700D01*
X92836349Y52559388D01*
X92803582Y52581282D01*
X92781688Y52614049D01*
X92774000Y52652700D01*
X92774000Y52752700D01*
X92781688Y52791351D01*
X92803582Y52824118D01*
X92836349Y52846012D01*
X92875000Y52853700D01*
X93650000Y52853700D01*
X93688651Y52846012D01*
G37*
G36*
X100563651Y52846012D02*
G01*
X100596418Y52824118D01*
X100618312Y52791351D01*
X100626000Y52752700D01*
X100626000Y52652700D01*
X100618312Y52614049D01*
X100596418Y52581282D01*
X100563651Y52559388D01*
X100525000Y52551700D01*
X99750000Y52551700D01*
X99711349Y52559388D01*
X99678582Y52581282D01*
X99656688Y52614049D01*
X99649000Y52652700D01*
X99649000Y52752700D01*
X99656688Y52791351D01*
X99678582Y52824118D01*
X99711349Y52846012D01*
X99750000Y52853700D01*
X100525000Y52853700D01*
X100563651Y52846012D01*
G37*
G36*
X82296919Y54288400D02*
G01*
X82362128Y54244828D01*
X82405700Y54179619D01*
X82421000Y54102700D01*
X82421000Y52802700D01*
X82405700Y52725781D01*
X82362128Y52660572D01*
X82296919Y52617000D01*
X82220000Y52601700D01*
X81920000Y52601700D01*
X81843081Y52617000D01*
X81777872Y52660572D01*
X81734300Y52725781D01*
X81719000Y52802700D01*
X81719000Y54102700D01*
X81734300Y54179619D01*
X81777872Y54244828D01*
X81843081Y54288400D01*
X81920000Y54303700D01*
X82220000Y54303700D01*
X82296919Y54288400D01*
G37*
G36*
X83566919Y54288400D02*
G01*
X83632128Y54244828D01*
X83675700Y54179619D01*
X83691000Y54102700D01*
X83691000Y52802700D01*
X83675700Y52725781D01*
X83632128Y52660572D01*
X83566919Y52617000D01*
X83490000Y52601700D01*
X83190000Y52601700D01*
X83113081Y52617000D01*
X83047872Y52660572D01*
X83004300Y52725781D01*
X82989000Y52802700D01*
X82989000Y54102700D01*
X83004300Y54179619D01*
X83047872Y54244828D01*
X83113081Y54288400D01*
X83190000Y54303700D01*
X83490000Y54303700D01*
X83566919Y54288400D01*
G37*
G36*
X84836919Y54288400D02*
G01*
X84902128Y54244828D01*
X84945700Y54179619D01*
X84961000Y54102700D01*
X84961000Y52802700D01*
X84945700Y52725781D01*
X84902128Y52660572D01*
X84836919Y52617000D01*
X84760000Y52601700D01*
X84460000Y52601700D01*
X84383081Y52617000D01*
X84317872Y52660572D01*
X84274300Y52725781D01*
X84259000Y52802700D01*
X84259000Y54102700D01*
X84274300Y54179619D01*
X84317872Y54244828D01*
X84383081Y54288400D01*
X84460000Y54303700D01*
X84760000Y54303700D01*
X84836919Y54288400D01*
G37*
G36*
X86106919Y54288400D02*
G01*
X86172128Y54244828D01*
X86215700Y54179619D01*
X86231000Y54102700D01*
X86231000Y52802700D01*
X86215700Y52725781D01*
X86172128Y52660572D01*
X86106919Y52617000D01*
X86030000Y52601700D01*
X85730000Y52601700D01*
X85653081Y52617000D01*
X85587872Y52660572D01*
X85544300Y52725781D01*
X85529000Y52802700D01*
X85529000Y54102700D01*
X85544300Y54179619D01*
X85587872Y54244828D01*
X85653081Y54288400D01*
X85730000Y54303700D01*
X86030000Y54303700D01*
X86106919Y54288400D01*
G37*
G36*
X105943093Y53424161D02*
G01*
X106005057Y53382757D01*
X106046461Y53320793D01*
X106061000Y53247700D01*
X106061000Y52967700D01*
X106046461Y52894607D01*
X106005057Y52832643D01*
X105943093Y52791239D01*
X105870000Y52776700D01*
X105530000Y52776700D01*
X105456907Y52791239D01*
X105394943Y52832643D01*
X105353539Y52894607D01*
X105339000Y52967700D01*
X105339000Y53247700D01*
X105353539Y53320793D01*
X105394943Y53382757D01*
X105456907Y53424161D01*
X105530000Y53438700D01*
X105870000Y53438700D01*
X105943093Y53424161D01*
G37*
G36*
X94188651Y54021012D02*
G01*
X94221418Y53999118D01*
X94243312Y53966351D01*
X94251000Y53927700D01*
X94251000Y53152700D01*
X94243312Y53114049D01*
X94221418Y53081282D01*
X94188651Y53059388D01*
X94150000Y53051700D01*
X94050000Y53051700D01*
X94011349Y53059388D01*
X93978582Y53081282D01*
X93956688Y53114049D01*
X93949000Y53152700D01*
X93949000Y53927700D01*
X93956688Y53966351D01*
X93978582Y53999118D01*
X94011349Y54021012D01*
X94050000Y54028700D01*
X94150000Y54028700D01*
X94188651Y54021012D01*
G37*
G36*
X94588651Y54021012D02*
G01*
X94621418Y53999118D01*
X94643312Y53966351D01*
X94651000Y53927700D01*
X94651000Y53152700D01*
X94643312Y53114049D01*
X94621418Y53081282D01*
X94588651Y53059388D01*
X94550000Y53051700D01*
X94450000Y53051700D01*
X94411349Y53059388D01*
X94378582Y53081282D01*
X94356688Y53114049D01*
X94349000Y53152700D01*
X94349000Y53927700D01*
X94356688Y53966351D01*
X94378582Y53999118D01*
X94411349Y54021012D01*
X94450000Y54028700D01*
X94550000Y54028700D01*
X94588651Y54021012D01*
G37*
G36*
X94988651Y54021012D02*
G01*
X95021418Y53999118D01*
X95043312Y53966351D01*
X95051000Y53927700D01*
X95051000Y53152700D01*
X95043312Y53114049D01*
X95021418Y53081282D01*
X94988651Y53059388D01*
X94950000Y53051700D01*
X94850000Y53051700D01*
X94811349Y53059388D01*
X94778582Y53081282D01*
X94756688Y53114049D01*
X94749000Y53152700D01*
X94749000Y53927700D01*
X94756688Y53966351D01*
X94778582Y53999118D01*
X94811349Y54021012D01*
X94850000Y54028700D01*
X94950000Y54028700D01*
X94988651Y54021012D01*
G37*
G36*
X95388651Y54021012D02*
G01*
X95421418Y53999118D01*
X95443312Y53966351D01*
X95451000Y53927700D01*
X95451000Y53152700D01*
X95443312Y53114049D01*
X95421418Y53081282D01*
X95388651Y53059388D01*
X95350000Y53051700D01*
X95250000Y53051700D01*
X95211349Y53059388D01*
X95178582Y53081282D01*
X95156688Y53114049D01*
X95149000Y53152700D01*
X95149000Y53927700D01*
X95156688Y53966351D01*
X95178582Y53999118D01*
X95211349Y54021012D01*
X95250000Y54028700D01*
X95350000Y54028700D01*
X95388651Y54021012D01*
G37*
G36*
X95788651Y54021012D02*
G01*
X95821418Y53999118D01*
X95843312Y53966351D01*
X95851000Y53927700D01*
X95851000Y53152700D01*
X95843312Y53114049D01*
X95821418Y53081282D01*
X95788651Y53059388D01*
X95750000Y53051700D01*
X95650000Y53051700D01*
X95611349Y53059388D01*
X95578582Y53081282D01*
X95556688Y53114049D01*
X95549000Y53152700D01*
X95549000Y53927700D01*
X95556688Y53966351D01*
X95578582Y53999118D01*
X95611349Y54021012D01*
X95650000Y54028700D01*
X95750000Y54028700D01*
X95788651Y54021012D01*
G37*
G36*
X96188651Y54021012D02*
G01*
X96221418Y53999118D01*
X96243312Y53966351D01*
X96251000Y53927700D01*
X96251000Y53152700D01*
X96243312Y53114049D01*
X96221418Y53081282D01*
X96188651Y53059388D01*
X96150000Y53051700D01*
X96050000Y53051700D01*
X96011349Y53059388D01*
X95978582Y53081282D01*
X95956688Y53114049D01*
X95949000Y53152700D01*
X95949000Y53927700D01*
X95956688Y53966351D01*
X95978582Y53999118D01*
X96011349Y54021012D01*
X96050000Y54028700D01*
X96150000Y54028700D01*
X96188651Y54021012D01*
G37*
G36*
X96588651Y54021012D02*
G01*
X96621418Y53999118D01*
X96643312Y53966351D01*
X96651000Y53927700D01*
X96651000Y53152700D01*
X96643312Y53114049D01*
X96621418Y53081282D01*
X96588651Y53059388D01*
X96550000Y53051700D01*
X96450000Y53051700D01*
X96411349Y53059388D01*
X96378582Y53081282D01*
X96356688Y53114049D01*
X96349000Y53152700D01*
X96349000Y53927700D01*
X96356688Y53966351D01*
X96378582Y53999118D01*
X96411349Y54021012D01*
X96450000Y54028700D01*
X96550000Y54028700D01*
X96588651Y54021012D01*
G37*
G36*
X96988651Y54021012D02*
G01*
X97021418Y53999118D01*
X97043312Y53966351D01*
X97051000Y53927700D01*
X97051000Y53152700D01*
X97043312Y53114049D01*
X97021418Y53081282D01*
X96988651Y53059388D01*
X96950000Y53051700D01*
X96850000Y53051700D01*
X96811349Y53059388D01*
X96778582Y53081282D01*
X96756688Y53114049D01*
X96749000Y53152700D01*
X96749000Y53927700D01*
X96756688Y53966351D01*
X96778582Y53999118D01*
X96811349Y54021012D01*
X96850000Y54028700D01*
X96950000Y54028700D01*
X96988651Y54021012D01*
G37*
G36*
X97388651Y54021012D02*
G01*
X97421418Y53999118D01*
X97443312Y53966351D01*
X97451000Y53927700D01*
X97451000Y53152700D01*
X97443312Y53114049D01*
X97421418Y53081282D01*
X97388651Y53059388D01*
X97350000Y53051700D01*
X97250000Y53051700D01*
X97211349Y53059388D01*
X97178582Y53081282D01*
X97156688Y53114049D01*
X97149000Y53152700D01*
X97149000Y53927700D01*
X97156688Y53966351D01*
X97178582Y53999118D01*
X97211349Y54021012D01*
X97250000Y54028700D01*
X97350000Y54028700D01*
X97388651Y54021012D01*
G37*
G36*
X97788651Y54021012D02*
G01*
X97821418Y53999118D01*
X97843312Y53966351D01*
X97851000Y53927700D01*
X97851000Y53152700D01*
X97843312Y53114049D01*
X97821418Y53081282D01*
X97788651Y53059388D01*
X97750000Y53051700D01*
X97650000Y53051700D01*
X97611349Y53059388D01*
X97578582Y53081282D01*
X97556688Y53114049D01*
X97549000Y53152700D01*
X97549000Y53927700D01*
X97556688Y53966351D01*
X97578582Y53999118D01*
X97611349Y54021012D01*
X97650000Y54028700D01*
X97750000Y54028700D01*
X97788651Y54021012D01*
G37*
G36*
X98188651Y54021012D02*
G01*
X98221418Y53999118D01*
X98243312Y53966351D01*
X98251000Y53927700D01*
X98251000Y53152700D01*
X98243312Y53114049D01*
X98221418Y53081282D01*
X98188651Y53059388D01*
X98150000Y53051700D01*
X98050000Y53051700D01*
X98011349Y53059388D01*
X97978582Y53081282D01*
X97956688Y53114049D01*
X97949000Y53152700D01*
X97949000Y53927700D01*
X97956688Y53966351D01*
X97978582Y53999118D01*
X98011349Y54021012D01*
X98050000Y54028700D01*
X98150000Y54028700D01*
X98188651Y54021012D01*
G37*
G36*
X98588651Y54021012D02*
G01*
X98621418Y53999118D01*
X98643312Y53966351D01*
X98651000Y53927700D01*
X98651000Y53152700D01*
X98643312Y53114049D01*
X98621418Y53081282D01*
X98588651Y53059388D01*
X98550000Y53051700D01*
X98450000Y53051700D01*
X98411349Y53059388D01*
X98378582Y53081282D01*
X98356688Y53114049D01*
X98349000Y53152700D01*
X98349000Y53927700D01*
X98356688Y53966351D01*
X98378582Y53999118D01*
X98411349Y54021012D01*
X98450000Y54028700D01*
X98550000Y54028700D01*
X98588651Y54021012D01*
G37*
G36*
X98988651Y54021012D02*
G01*
X99021418Y53999118D01*
X99043312Y53966351D01*
X99051000Y53927700D01*
X99051000Y53152700D01*
X99043312Y53114049D01*
X99021418Y53081282D01*
X98988651Y53059388D01*
X98950000Y53051700D01*
X98850000Y53051700D01*
X98811349Y53059388D01*
X98778582Y53081282D01*
X98756688Y53114049D01*
X98749000Y53152700D01*
X98749000Y53927700D01*
X98756688Y53966351D01*
X98778582Y53999118D01*
X98811349Y54021012D01*
X98850000Y54028700D01*
X98950000Y54028700D01*
X98988651Y54021012D01*
G37*
G36*
X99388651Y54021012D02*
G01*
X99421418Y53999118D01*
X99443312Y53966351D01*
X99451000Y53927700D01*
X99451000Y53152700D01*
X99443312Y53114049D01*
X99421418Y53081282D01*
X99388651Y53059388D01*
X99350000Y53051700D01*
X99250000Y53051700D01*
X99211349Y53059388D01*
X99178582Y53081282D01*
X99156688Y53114049D01*
X99149000Y53152700D01*
X99149000Y53927700D01*
X99156688Y53966351D01*
X99178582Y53999118D01*
X99211349Y54021012D01*
X99250000Y54028700D01*
X99350000Y54028700D01*
X99388651Y54021012D01*
G37*
G36*
X79773093Y53754161D02*
G01*
X79835057Y53712757D01*
X79876461Y53650793D01*
X79891000Y53577700D01*
X79891000Y53297700D01*
X79876461Y53224607D01*
X79835057Y53162643D01*
X79773093Y53121239D01*
X79700000Y53106700D01*
X79360000Y53106700D01*
X79286907Y53121239D01*
X79224943Y53162643D01*
X79183539Y53224607D01*
X79169000Y53297700D01*
X79169000Y53577700D01*
X79183539Y53650793D01*
X79224943Y53712757D01*
X79286907Y53754161D01*
X79360000Y53768700D01*
X79700000Y53768700D01*
X79773093Y53754161D01*
G37*
G36*
X105943093Y54384161D02*
G01*
X106005057Y54342757D01*
X106046461Y54280793D01*
X106061000Y54207700D01*
X106061000Y53927700D01*
X106046461Y53854607D01*
X106005057Y53792643D01*
X105943093Y53751239D01*
X105870000Y53736700D01*
X105530000Y53736700D01*
X105456907Y53751239D01*
X105394943Y53792643D01*
X105353539Y53854607D01*
X105339000Y53927700D01*
X105339000Y54207700D01*
X105353539Y54280793D01*
X105394943Y54342757D01*
X105456907Y54384161D01*
X105530000Y54398700D01*
X105870000Y54398700D01*
X105943093Y54384161D01*
G37*
G36*
X79773093Y54714161D02*
G01*
X79835057Y54672757D01*
X79876461Y54610793D01*
X79891000Y54537700D01*
X79891000Y54257700D01*
X79876461Y54184607D01*
X79835057Y54122643D01*
X79773093Y54081239D01*
X79700000Y54066700D01*
X79360000Y54066700D01*
X79286907Y54081239D01*
X79224943Y54122643D01*
X79183539Y54184607D01*
X79169000Y54257700D01*
X79169000Y54537700D01*
X79183539Y54610793D01*
X79224943Y54672757D01*
X79286907Y54714161D01*
X79360000Y54728700D01*
X79700000Y54728700D01*
X79773093Y54714161D01*
G37*
G36*
X94673093Y55189144D02*
G01*
X94735057Y55147740D01*
X94776461Y55085776D01*
X94791000Y55012683D01*
X94791000Y54732683D01*
X94776461Y54659590D01*
X94735057Y54597626D01*
X94673093Y54556222D01*
X94600000Y54541683D01*
X94260000Y54541683D01*
X94186907Y54556222D01*
X94124943Y54597626D01*
X94083539Y54659590D01*
X94069000Y54732683D01*
X94069000Y55012683D01*
X94083539Y55085776D01*
X94124943Y55147740D01*
X94186907Y55189144D01*
X94260000Y55203683D01*
X94600000Y55203683D01*
X94673093Y55189144D01*
G37*
G36*
X93551893Y55204561D02*
G01*
X93613857Y55163157D01*
X93655261Y55101193D01*
X93669800Y55028100D01*
X93669800Y54748100D01*
X93655261Y54675007D01*
X93613857Y54613043D01*
X93551893Y54571639D01*
X93478800Y54557100D01*
X93138800Y54557100D01*
X93065707Y54571639D01*
X93003743Y54613043D01*
X92962339Y54675007D01*
X92947800Y54748100D01*
X92947800Y55028100D01*
X92962339Y55101193D01*
X93003743Y55163157D01*
X93065707Y55204561D01*
X93138800Y55219100D01*
X93478800Y55219100D01*
X93551893Y55204561D01*
G37*
G36*
X98033093Y55489144D02*
G01*
X98095057Y55447740D01*
X98136461Y55385776D01*
X98151000Y55312683D01*
X98151000Y55032683D01*
X98136461Y54959590D01*
X98095057Y54897626D01*
X98033093Y54856222D01*
X97960000Y54841683D01*
X97620000Y54841683D01*
X97546907Y54856222D01*
X97484943Y54897626D01*
X97443539Y54959590D01*
X97429000Y55032683D01*
X97429000Y55312683D01*
X97443539Y55385776D01*
X97484943Y55447740D01*
X97546907Y55489144D01*
X97620000Y55503683D01*
X97960000Y55503683D01*
X98033093Y55489144D01*
G37*
G36*
X110549517Y60578318D02*
G01*
X110566062Y60567262D01*
X110577118Y60550717D01*
X110581000Y60531200D01*
X110581000Y54931200D01*
X110577118Y54911683D01*
X110566062Y54895138D01*
X110549517Y54884082D01*
X110530000Y54880200D01*
X108430000Y54880200D01*
X108410483Y54884082D01*
X108393938Y54895138D01*
X108382882Y54911683D01*
X108379000Y54931200D01*
X108379000Y60531200D01*
X108382882Y60550717D01*
X108393938Y60567262D01*
X108410483Y60578318D01*
X108430000Y60582200D01*
X110530000Y60582200D01*
X110549517Y60578318D01*
G37*
G36*
X94673093Y56149144D02*
G01*
X94735057Y56107740D01*
X94776461Y56045776D01*
X94791000Y55972683D01*
X94791000Y55692683D01*
X94776461Y55619590D01*
X94735057Y55557626D01*
X94673093Y55516222D01*
X94600000Y55501683D01*
X94260000Y55501683D01*
X94186907Y55516222D01*
X94124943Y55557626D01*
X94083539Y55619590D01*
X94069000Y55692683D01*
X94069000Y55972683D01*
X94083539Y56045776D01*
X94124943Y56107740D01*
X94186907Y56149144D01*
X94260000Y56163683D01*
X94600000Y56163683D01*
X94673093Y56149144D01*
G37*
G36*
X93551893Y56164561D02*
G01*
X93613857Y56123157D01*
X93655261Y56061193D01*
X93669800Y55988100D01*
X93669800Y55708100D01*
X93655261Y55635007D01*
X93613857Y55573043D01*
X93551893Y55531639D01*
X93478800Y55517100D01*
X93138800Y55517100D01*
X93065707Y55531639D01*
X93003743Y55573043D01*
X92962339Y55635007D01*
X92947800Y55708100D01*
X92947800Y55988100D01*
X92962339Y56061193D01*
X93003743Y56123157D01*
X93065707Y56164561D01*
X93138800Y56179100D01*
X93478800Y56179100D01*
X93551893Y56164561D01*
G37*
G36*
X153869517Y57397118D02*
G01*
X153886062Y57386062D01*
X153897118Y57369517D01*
X153901000Y57350000D01*
X153901000Y55750000D01*
X153897118Y55730483D01*
X153886062Y55713938D01*
X153869517Y55702882D01*
X153850000Y55699000D01*
X152250000Y55699000D01*
X152230483Y55702882D01*
X152213938Y55713938D01*
X152202882Y55730483D01*
X152199000Y55750000D01*
X152199000Y57350000D01*
X152202882Y57369517D01*
X152213938Y57386062D01*
X152230483Y57397118D01*
X152250000Y57401000D01*
X153850000Y57401000D01*
X153869517Y57397118D01*
G37*
G36*
X155852973Y57359349D02*
G01*
X156015500Y57286988D01*
X156159430Y57182416D01*
X156278473Y57050205D01*
X156367427Y56896133D01*
X156422404Y56726933D01*
X156441000Y56550000D01*
X156422404Y56373067D01*
X156367427Y56203867D01*
X156278473Y56049795D01*
X156159430Y55917584D01*
X156015500Y55813012D01*
X155852973Y55740651D01*
X155678954Y55703662D01*
X155501046Y55703662D01*
X155327027Y55740651D01*
X155164500Y55813012D01*
X155020570Y55917584D01*
X154901527Y56049795D01*
X154812573Y56203867D01*
X154757596Y56373067D01*
X154739000Y56550000D01*
X154757596Y56726933D01*
X154812573Y56896133D01*
X154901527Y57050205D01*
X155020570Y57182416D01*
X155164500Y57286988D01*
X155327027Y57359349D01*
X155501046Y57396338D01*
X155678954Y57396338D01*
X155852973Y57359349D01*
G37*
G36*
X158392973Y57359349D02*
G01*
X158555500Y57286988D01*
X158699430Y57182416D01*
X158818473Y57050205D01*
X158907427Y56896133D01*
X158962404Y56726933D01*
X158981000Y56550000D01*
X158962404Y56373067D01*
X158907427Y56203867D01*
X158818473Y56049795D01*
X158699430Y55917584D01*
X158555500Y55813012D01*
X158392973Y55740651D01*
X158218954Y55703662D01*
X158041046Y55703662D01*
X157867027Y55740651D01*
X157704500Y55813012D01*
X157560570Y55917584D01*
X157441527Y56049795D01*
X157352573Y56203867D01*
X157297596Y56373067D01*
X157279000Y56550000D01*
X157297596Y56726933D01*
X157352573Y56896133D01*
X157441527Y57050205D01*
X157560570Y57182416D01*
X157704500Y57286988D01*
X157867027Y57359349D01*
X158041046Y57396338D01*
X158218954Y57396338D01*
X158392973Y57359349D01*
G37*
G36*
X160932973Y57359349D02*
G01*
X161095500Y57286988D01*
X161239430Y57182416D01*
X161358473Y57050205D01*
X161447427Y56896133D01*
X161502404Y56726933D01*
X161521000Y56550000D01*
X161502404Y56373067D01*
X161447427Y56203867D01*
X161358473Y56049795D01*
X161239430Y55917584D01*
X161095500Y55813012D01*
X160932973Y55740651D01*
X160758954Y55703662D01*
X160581046Y55703662D01*
X160407027Y55740651D01*
X160244500Y55813012D01*
X160100570Y55917584D01*
X159981527Y56049795D01*
X159892573Y56203867D01*
X159837596Y56373067D01*
X159819000Y56550000D01*
X159837596Y56726933D01*
X159892573Y56896133D01*
X159981527Y57050205D01*
X160100570Y57182416D01*
X160244500Y57286988D01*
X160407027Y57359349D01*
X160581046Y57396338D01*
X160758954Y57396338D01*
X160932973Y57359349D01*
G37*
G36*
X163472973Y57359349D02*
G01*
X163635500Y57286988D01*
X163779430Y57182416D01*
X163898473Y57050205D01*
X163987427Y56896133D01*
X164042404Y56726933D01*
X164061000Y56550000D01*
X164042404Y56373067D01*
X163987427Y56203867D01*
X163898473Y56049795D01*
X163779430Y55917584D01*
X163635500Y55813012D01*
X163472973Y55740651D01*
X163298954Y55703662D01*
X163121046Y55703662D01*
X162947027Y55740651D01*
X162784500Y55813012D01*
X162640570Y55917584D01*
X162521527Y56049795D01*
X162432573Y56203867D01*
X162377596Y56373067D01*
X162359000Y56550000D01*
X162377596Y56726933D01*
X162432573Y56896133D01*
X162521527Y57050205D01*
X162640570Y57182416D01*
X162784500Y57286988D01*
X162947027Y57359349D01*
X163121046Y57396338D01*
X163298954Y57396338D01*
X163472973Y57359349D01*
G37*
G36*
X166012973Y57359349D02*
G01*
X166175500Y57286988D01*
X166319430Y57182416D01*
X166438473Y57050205D01*
X166527427Y56896133D01*
X166582404Y56726933D01*
X166601000Y56550000D01*
X166582404Y56373067D01*
X166527427Y56203867D01*
X166438473Y56049795D01*
X166319430Y55917584D01*
X166175500Y55813012D01*
X166012973Y55740651D01*
X165838954Y55703662D01*
X165661046Y55703662D01*
X165487027Y55740651D01*
X165324500Y55813012D01*
X165180570Y55917584D01*
X165061527Y56049795D01*
X164972573Y56203867D01*
X164917596Y56373067D01*
X164899000Y56550000D01*
X164917596Y56726933D01*
X164972573Y56896133D01*
X165061527Y57050205D01*
X165180570Y57182416D01*
X165324500Y57286988D01*
X165487027Y57359349D01*
X165661046Y57396338D01*
X165838954Y57396338D01*
X166012973Y57359349D01*
G37*
G36*
X168552973Y57359349D02*
G01*
X168715500Y57286988D01*
X168859430Y57182416D01*
X168978473Y57050205D01*
X169067427Y56896133D01*
X169122404Y56726933D01*
X169141000Y56550000D01*
X169122404Y56373067D01*
X169067427Y56203867D01*
X168978473Y56049795D01*
X168859430Y55917584D01*
X168715500Y55813012D01*
X168552973Y55740651D01*
X168378954Y55703662D01*
X168201046Y55703662D01*
X168027027Y55740651D01*
X167864500Y55813012D01*
X167720570Y55917584D01*
X167601527Y56049795D01*
X167512573Y56203867D01*
X167457596Y56373067D01*
X167439000Y56550000D01*
X167457596Y56726933D01*
X167512573Y56896133D01*
X167601527Y57050205D01*
X167720570Y57182416D01*
X167864500Y57286988D01*
X168027027Y57359349D01*
X168201046Y57396338D01*
X168378954Y57396338D01*
X168552973Y57359349D01*
G37*
G36*
X171092973Y57359349D02*
G01*
X171255500Y57286988D01*
X171399430Y57182416D01*
X171518473Y57050205D01*
X171607427Y56896133D01*
X171662404Y56726933D01*
X171681000Y56550000D01*
X171662404Y56373067D01*
X171607427Y56203867D01*
X171518473Y56049795D01*
X171399430Y55917584D01*
X171255500Y55813012D01*
X171092973Y55740651D01*
X170918954Y55703662D01*
X170741046Y55703662D01*
X170567027Y55740651D01*
X170404500Y55813012D01*
X170260570Y55917584D01*
X170141527Y56049795D01*
X170052573Y56203867D01*
X169997596Y56373067D01*
X169979000Y56550000D01*
X169997596Y56726933D01*
X170052573Y56896133D01*
X170141527Y57050205D01*
X170260570Y57182416D01*
X170404500Y57286988D01*
X170567027Y57359349D01*
X170741046Y57396338D01*
X170918954Y57396338D01*
X171092973Y57359349D01*
G37*
G36*
X98033093Y56449144D02*
G01*
X98095057Y56407740D01*
X98136461Y56345776D01*
X98151000Y56272683D01*
X98151000Y55992683D01*
X98136461Y55919590D01*
X98095057Y55857626D01*
X98033093Y55816222D01*
X97960000Y55801683D01*
X97620000Y55801683D01*
X97546907Y55816222D01*
X97484943Y55857626D01*
X97443539Y55919590D01*
X97429000Y55992683D01*
X97429000Y56272683D01*
X97443539Y56345776D01*
X97484943Y56407740D01*
X97546907Y56449144D01*
X97620000Y56463683D01*
X97960000Y56463683D01*
X98033093Y56449144D01*
G37*
G36*
X131099517Y57507118D02*
G01*
X131116062Y57496062D01*
X131127118Y57479517D01*
X131131000Y57460000D01*
X131131000Y55860000D01*
X131127118Y55840483D01*
X131116062Y55823938D01*
X131099517Y55812882D01*
X131080000Y55809000D01*
X129480000Y55809000D01*
X129460483Y55812882D01*
X129443938Y55823938D01*
X129432882Y55840483D01*
X129429000Y55860000D01*
X129429000Y57460000D01*
X129432882Y57479517D01*
X129443938Y57496062D01*
X129460483Y57507118D01*
X129480000Y57511000D01*
X131080000Y57511000D01*
X131099517Y57507118D01*
G37*
G36*
X133082973Y57469349D02*
G01*
X133245500Y57396988D01*
X133389430Y57292416D01*
X133508473Y57160205D01*
X133597427Y57006133D01*
X133652404Y56836933D01*
X133671000Y56660000D01*
X133652404Y56483067D01*
X133597427Y56313867D01*
X133508473Y56159795D01*
X133389430Y56027584D01*
X133245500Y55923012D01*
X133082973Y55850651D01*
X132908954Y55813662D01*
X132731046Y55813662D01*
X132557027Y55850651D01*
X132394500Y55923012D01*
X132250570Y56027584D01*
X132131527Y56159795D01*
X132042573Y56313867D01*
X131987596Y56483067D01*
X131969000Y56660000D01*
X131987596Y56836933D01*
X132042573Y57006133D01*
X132131527Y57160205D01*
X132250570Y57292416D01*
X132394500Y57396988D01*
X132557027Y57469349D01*
X132731046Y57506338D01*
X132908954Y57506338D01*
X133082973Y57469349D01*
G37*
G36*
X135622973Y57469349D02*
G01*
X135785500Y57396988D01*
X135929430Y57292416D01*
X136048473Y57160205D01*
X136137427Y57006133D01*
X136192404Y56836933D01*
X136211000Y56660000D01*
X136192404Y56483067D01*
X136137427Y56313867D01*
X136048473Y56159795D01*
X135929430Y56027584D01*
X135785500Y55923012D01*
X135622973Y55850651D01*
X135448954Y55813662D01*
X135271046Y55813662D01*
X135097027Y55850651D01*
X134934500Y55923012D01*
X134790570Y56027584D01*
X134671527Y56159795D01*
X134582573Y56313867D01*
X134527596Y56483067D01*
X134509000Y56660000D01*
X134527596Y56836933D01*
X134582573Y57006133D01*
X134671527Y57160205D01*
X134790570Y57292416D01*
X134934500Y57396988D01*
X135097027Y57469349D01*
X135271046Y57506338D01*
X135448954Y57506338D01*
X135622973Y57469349D01*
G37*
G36*
X138162973Y57469349D02*
G01*
X138325500Y57396988D01*
X138469430Y57292416D01*
X138588473Y57160205D01*
X138677427Y57006133D01*
X138732404Y56836933D01*
X138751000Y56660000D01*
X138732404Y56483067D01*
X138677427Y56313867D01*
X138588473Y56159795D01*
X138469430Y56027584D01*
X138325500Y55923012D01*
X138162973Y55850651D01*
X137988954Y55813662D01*
X137811046Y55813662D01*
X137637027Y55850651D01*
X137474500Y55923012D01*
X137330570Y56027584D01*
X137211527Y56159795D01*
X137122573Y56313867D01*
X137067596Y56483067D01*
X137049000Y56660000D01*
X137067596Y56836933D01*
X137122573Y57006133D01*
X137211527Y57160205D01*
X137330570Y57292416D01*
X137474500Y57396988D01*
X137637027Y57469349D01*
X137811046Y57506338D01*
X137988954Y57506338D01*
X138162973Y57469349D01*
G37*
G36*
X140702973Y57469349D02*
G01*
X140865500Y57396988D01*
X141009430Y57292416D01*
X141128473Y57160205D01*
X141217427Y57006133D01*
X141272404Y56836933D01*
X141291000Y56660000D01*
X141272404Y56483067D01*
X141217427Y56313867D01*
X141128473Y56159795D01*
X141009430Y56027584D01*
X140865500Y55923012D01*
X140702973Y55850651D01*
X140528954Y55813662D01*
X140351046Y55813662D01*
X140177027Y55850651D01*
X140014500Y55923012D01*
X139870570Y56027584D01*
X139751527Y56159795D01*
X139662573Y56313867D01*
X139607596Y56483067D01*
X139589000Y56660000D01*
X139607596Y56836933D01*
X139662573Y57006133D01*
X139751527Y57160205D01*
X139870570Y57292416D01*
X140014500Y57396988D01*
X140177027Y57469349D01*
X140351046Y57506338D01*
X140528954Y57506338D01*
X140702973Y57469349D01*
G37*
G36*
X143242973Y57469349D02*
G01*
X143405500Y57396988D01*
X143549430Y57292416D01*
X143668473Y57160205D01*
X143757427Y57006133D01*
X143812404Y56836933D01*
X143831000Y56660000D01*
X143812404Y56483067D01*
X143757427Y56313867D01*
X143668473Y56159795D01*
X143549430Y56027584D01*
X143405500Y55923012D01*
X143242973Y55850651D01*
X143068954Y55813662D01*
X142891046Y55813662D01*
X142717027Y55850651D01*
X142554500Y55923012D01*
X142410570Y56027584D01*
X142291527Y56159795D01*
X142202573Y56313867D01*
X142147596Y56483067D01*
X142129000Y56660000D01*
X142147596Y56836933D01*
X142202573Y57006133D01*
X142291527Y57160205D01*
X142410570Y57292416D01*
X142554500Y57396988D01*
X142717027Y57469349D01*
X142891046Y57506338D01*
X143068954Y57506338D01*
X143242973Y57469349D01*
G37*
G36*
X145782973Y57469349D02*
G01*
X145945500Y57396988D01*
X146089430Y57292416D01*
X146208473Y57160205D01*
X146297427Y57006133D01*
X146352404Y56836933D01*
X146371000Y56660000D01*
X146352404Y56483067D01*
X146297427Y56313867D01*
X146208473Y56159795D01*
X146089430Y56027584D01*
X145945500Y55923012D01*
X145782973Y55850651D01*
X145608954Y55813662D01*
X145431046Y55813662D01*
X145257027Y55850651D01*
X145094500Y55923012D01*
X144950570Y56027584D01*
X144831527Y56159795D01*
X144742573Y56313867D01*
X144687596Y56483067D01*
X144669000Y56660000D01*
X144687596Y56836933D01*
X144742573Y57006133D01*
X144831527Y57160205D01*
X144950570Y57292416D01*
X145094500Y57396988D01*
X145257027Y57469349D01*
X145431046Y57506338D01*
X145608954Y57506338D01*
X145782973Y57469349D01*
G37*
G36*
X148322973Y57469349D02*
G01*
X148485500Y57396988D01*
X148629430Y57292416D01*
X148748473Y57160205D01*
X148837427Y57006133D01*
X148892404Y56836933D01*
X148911000Y56660000D01*
X148892404Y56483067D01*
X148837427Y56313867D01*
X148748473Y56159795D01*
X148629430Y56027584D01*
X148485500Y55923012D01*
X148322973Y55850651D01*
X148148954Y55813662D01*
X147971046Y55813662D01*
X147797027Y55850651D01*
X147634500Y55923012D01*
X147490570Y56027584D01*
X147371527Y56159795D01*
X147282573Y56313867D01*
X147227596Y56483067D01*
X147209000Y56660000D01*
X147227596Y56836933D01*
X147282573Y57006133D01*
X147371527Y57160205D01*
X147490570Y57292416D01*
X147634500Y57396988D01*
X147797027Y57469349D01*
X147971046Y57506338D01*
X148148954Y57506338D01*
X148322973Y57469349D01*
G37*
G36*
X73320313Y59699164D02*
G01*
X73366580Y59699164D01*
X73406529Y59690673D01*
X73448133Y59686575D01*
X73500398Y59670721D01*
X73550824Y59660002D01*
X73583094Y59645635D01*
X73617112Y59635315D01*
X73671167Y59606422D01*
X73722900Y59583389D01*
X73746951Y59565915D01*
X73772847Y59552073D01*
X73825671Y59508722D01*
X73875287Y59472673D01*
X73891396Y59454782D01*
X73909348Y59440049D01*
X73957588Y59381269D01*
X74001324Y59332695D01*
X74010511Y59316781D01*
X74021372Y59303548D01*
X74061549Y59228381D01*
X74095504Y59169570D01*
X74099409Y59157550D01*
X74104614Y59147813D01*
X74133313Y59053204D01*
X74153711Y58990428D01*
X74154428Y58983598D01*
X74155874Y58978834D01*
X74169936Y58836058D01*
X74173400Y58803100D01*
X74169935Y58770141D01*
X74155874Y58627367D01*
X74154429Y58622604D01*
X74153711Y58615772D01*
X74133309Y58552983D01*
X74104614Y58458388D01*
X74099410Y58448653D01*
X74095504Y58436630D01*
X74061542Y58377807D01*
X74021372Y58302653D01*
X74010513Y58289423D01*
X74001324Y58273505D01*
X73957578Y58224922D01*
X73909348Y58166152D01*
X73891400Y58151423D01*
X73875287Y58133527D01*
X73825660Y58097472D01*
X73772847Y58054128D01*
X73746957Y58040290D01*
X73722900Y58022811D01*
X73671156Y57999774D01*
X73617112Y57970886D01*
X73583101Y57960569D01*
X73550824Y57946198D01*
X73500387Y57935478D01*
X73448133Y57919626D01*
X73406538Y57915530D01*
X73366580Y57907036D01*
X73320303Y57907036D01*
X73272400Y57902318D01*
X73224497Y57907036D01*
X73178220Y57907036D01*
X73138262Y57915530D01*
X73096666Y57919626D01*
X73044409Y57935479D01*
X72993976Y57946198D01*
X72961700Y57960568D01*
X72927687Y57970886D01*
X72873637Y57999777D01*
X72821900Y58022811D01*
X72797845Y58040288D01*
X72771952Y58054128D01*
X72719130Y58097478D01*
X72669513Y58133527D01*
X72653402Y58151420D01*
X72635451Y58166152D01*
X72587209Y58224934D01*
X72543476Y58273505D01*
X72534288Y58289419D01*
X72523427Y58302653D01*
X72483244Y58377831D01*
X72449296Y58436630D01*
X72445391Y58448649D01*
X72440185Y58458388D01*
X72411475Y58553029D01*
X72391089Y58615772D01*
X72390371Y58622599D01*
X72388925Y58627367D01*
X72374848Y58770292D01*
X72371400Y58803100D01*
X72374848Y58835906D01*
X72388925Y58978834D01*
X72390371Y58983603D01*
X72391089Y58990428D01*
X72411471Y59053158D01*
X72440185Y59147813D01*
X72445391Y59157555D01*
X72449296Y59169570D01*
X72483236Y59228358D01*
X72523427Y59303548D01*
X72534290Y59316786D01*
X72543476Y59332695D01*
X72587200Y59381257D01*
X72635451Y59440049D01*
X72653405Y59454785D01*
X72669513Y59472673D01*
X72719120Y59508715D01*
X72771952Y59552073D01*
X72797850Y59565917D01*
X72821900Y59583389D01*
X72873626Y59606419D01*
X72927687Y59635315D01*
X72961707Y59645636D01*
X72993976Y59660002D01*
X73044398Y59670720D01*
X73096666Y59686575D01*
X73138271Y59690673D01*
X73178220Y59699164D01*
X73224486Y59699164D01*
X73272400Y59703883D01*
X73320313Y59699164D01*
G37*
G36*
X78704979Y59524942D02*
G01*
X78765322Y59484622D01*
X78805642Y59424279D01*
X78819800Y59353100D01*
X78819800Y58983100D01*
X78805642Y58911921D01*
X78765322Y58851578D01*
X78704979Y58811258D01*
X78633800Y58797100D01*
X78363800Y58797100D01*
X78292621Y58811258D01*
X78232278Y58851578D01*
X78191958Y58911921D01*
X78177800Y58983100D01*
X78177800Y59353100D01*
X78191958Y59424279D01*
X78232278Y59484622D01*
X78292621Y59524942D01*
X78363800Y59539100D01*
X78633800Y59539100D01*
X78704979Y59524942D01*
G37*
G36*
X79724979Y59524942D02*
G01*
X79785322Y59484622D01*
X79825642Y59424279D01*
X79839800Y59353100D01*
X79839800Y58983100D01*
X79825642Y58911921D01*
X79785322Y58851578D01*
X79724979Y58811258D01*
X79653800Y58797100D01*
X79383800Y58797100D01*
X79312621Y58811258D01*
X79252278Y58851578D01*
X79211958Y58911921D01*
X79197800Y58983100D01*
X79197800Y59353100D01*
X79211958Y59424279D01*
X79252278Y59484622D01*
X79312621Y59524942D01*
X79383800Y59539100D01*
X79653800Y59539100D01*
X79724979Y59524942D01*
G37*
G36*
X133759517Y60609801D02*
G01*
X133776062Y60598745D01*
X133787118Y60582200D01*
X133791000Y60562683D01*
X133791000Y59562683D01*
X133787118Y59543166D01*
X133776062Y59526621D01*
X133759517Y59515565D01*
X133740000Y59511683D01*
X132240000Y59511683D01*
X132220483Y59515565D01*
X132203938Y59526621D01*
X132192882Y59543166D01*
X132189000Y59562683D01*
X132189000Y60562683D01*
X132192882Y60582200D01*
X132203938Y60598745D01*
X132220483Y60609801D01*
X132240000Y60613683D01*
X133740000Y60613683D01*
X133759517Y60609801D01*
G37*
G36*
X130999517Y60649801D02*
G01*
X131016062Y60638745D01*
X131027118Y60622200D01*
X131031000Y60602683D01*
X131031000Y59602683D01*
X131027118Y59583166D01*
X131016062Y59566621D01*
X130999517Y59555565D01*
X130980000Y59551683D01*
X129480000Y59551683D01*
X129460483Y59555565D01*
X129443938Y59566621D01*
X129432882Y59583166D01*
X129429000Y59602683D01*
X129429000Y60602683D01*
X129432882Y60622200D01*
X129443938Y60638745D01*
X129460483Y60649801D01*
X129480000Y60653683D01*
X130980000Y60653683D01*
X130999517Y60649801D01*
G37*
G36*
X82296919Y61488400D02*
G01*
X82362128Y61444828D01*
X82405700Y61379619D01*
X82421000Y61302700D01*
X82421000Y60002700D01*
X82405700Y59925781D01*
X82362128Y59860572D01*
X82296919Y59817000D01*
X82220000Y59801700D01*
X81920000Y59801700D01*
X81843081Y59817000D01*
X81777872Y59860572D01*
X81734300Y59925781D01*
X81719000Y60002700D01*
X81719000Y61302700D01*
X81734300Y61379619D01*
X81777872Y61444828D01*
X81843081Y61488400D01*
X81920000Y61503700D01*
X82220000Y61503700D01*
X82296919Y61488400D01*
G37*
G36*
X83566919Y61488400D02*
G01*
X83632128Y61444828D01*
X83675700Y61379619D01*
X83691000Y61302700D01*
X83691000Y60002700D01*
X83675700Y59925781D01*
X83632128Y59860572D01*
X83566919Y59817000D01*
X83490000Y59801700D01*
X83190000Y59801700D01*
X83113081Y59817000D01*
X83047872Y59860572D01*
X83004300Y59925781D01*
X82989000Y60002700D01*
X82989000Y61302700D01*
X83004300Y61379619D01*
X83047872Y61444828D01*
X83113081Y61488400D01*
X83190000Y61503700D01*
X83490000Y61503700D01*
X83566919Y61488400D01*
G37*
G36*
X84836919Y61488400D02*
G01*
X84902128Y61444828D01*
X84945700Y61379619D01*
X84961000Y61302700D01*
X84961000Y60002700D01*
X84945700Y59925781D01*
X84902128Y59860572D01*
X84836919Y59817000D01*
X84760000Y59801700D01*
X84460000Y59801700D01*
X84383081Y59817000D01*
X84317872Y59860572D01*
X84274300Y59925781D01*
X84259000Y60002700D01*
X84259000Y61302700D01*
X84274300Y61379619D01*
X84317872Y61444828D01*
X84383081Y61488400D01*
X84460000Y61503700D01*
X84760000Y61503700D01*
X84836919Y61488400D01*
G37*
G36*
X86106919Y61488400D02*
G01*
X86172128Y61444828D01*
X86215700Y61379619D01*
X86231000Y61302700D01*
X86231000Y60002700D01*
X86215700Y59925781D01*
X86172128Y59860572D01*
X86106919Y59817000D01*
X86030000Y59801700D01*
X85730000Y59801700D01*
X85653081Y59817000D01*
X85587872Y59860572D01*
X85544300Y59925781D01*
X85529000Y60002700D01*
X85529000Y61302700D01*
X85544300Y61379619D01*
X85587872Y61444828D01*
X85653081Y61488400D01*
X85730000Y61503700D01*
X86030000Y61503700D01*
X86106919Y61488400D01*
G37*
G36*
X49519517Y62139801D02*
G01*
X49536062Y62128745D01*
X49547118Y62112200D01*
X49551000Y62092683D01*
X49551000Y60092683D01*
X49547118Y60073166D01*
X49536062Y60056621D01*
X49519517Y60045565D01*
X49500000Y60041683D01*
X45700000Y60041683D01*
X45680483Y60045565D01*
X45663938Y60056621D01*
X45652882Y60073166D01*
X45649000Y60092683D01*
X45649000Y62092683D01*
X45652882Y62112200D01*
X45663938Y62128745D01*
X45680483Y62139801D01*
X45700000Y62143683D01*
X49500000Y62143683D01*
X49519517Y62139801D01*
G37*
G36*
X173752630Y63484588D02*
G01*
X173989285Y63427772D01*
X174214139Y63334634D01*
X174421655Y63207468D01*
X174606723Y63049406D01*
X174764785Y62864338D01*
X174891951Y62656822D01*
X174985089Y62431968D01*
X175041905Y62195313D01*
X175061000Y61952683D01*
X175041905Y61710053D01*
X174985089Y61473398D01*
X174891951Y61248544D01*
X174764785Y61041028D01*
X174606723Y60855960D01*
X174421655Y60697898D01*
X174214139Y60570732D01*
X173989285Y60477594D01*
X173752630Y60420778D01*
X173510000Y60401683D01*
X173267370Y60420778D01*
X173030715Y60477594D01*
X172805861Y60570732D01*
X172598345Y60697898D01*
X172413277Y60855960D01*
X172255215Y61041028D01*
X172128049Y61248544D01*
X172034911Y61473398D01*
X171978095Y61710053D01*
X171959000Y61952683D01*
X171978095Y62195313D01*
X172034911Y62431968D01*
X172128049Y62656822D01*
X172255215Y62864338D01*
X172413277Y63049406D01*
X172598345Y63207468D01*
X172805861Y63334634D01*
X173030715Y63427772D01*
X173267370Y63484588D01*
X173510000Y63503683D01*
X173752630Y63484588D01*
G37*
G36*
X74141917Y62240218D02*
G01*
X74158462Y62229162D01*
X74169518Y62212617D01*
X74173400Y62193100D01*
X74173400Y60493100D01*
X74169518Y60473583D01*
X74158462Y60457038D01*
X74141917Y60445982D01*
X74122400Y60442100D01*
X72422400Y60442100D01*
X72402883Y60445982D01*
X72386338Y60457038D01*
X72375282Y60473583D01*
X72371400Y60493100D01*
X72371400Y62193100D01*
X72375282Y62212617D01*
X72386338Y62229162D01*
X72402883Y62240218D01*
X72422400Y62244100D01*
X74122400Y62244100D01*
X74141917Y62240218D01*
G37*
G36*
X133759517Y61909801D02*
G01*
X133776062Y61898745D01*
X133787118Y61882200D01*
X133791000Y61862683D01*
X133791000Y60862683D01*
X133787118Y60843166D01*
X133776062Y60826621D01*
X133759517Y60815565D01*
X133740000Y60811683D01*
X132240000Y60811683D01*
X132220483Y60815565D01*
X132203938Y60826621D01*
X132192882Y60843166D01*
X132189000Y60862683D01*
X132189000Y61862683D01*
X132192882Y61882200D01*
X132203938Y61898745D01*
X132220483Y61909801D01*
X132240000Y61913683D01*
X133740000Y61913683D01*
X133759517Y61909801D01*
G37*
G36*
X130999517Y61949801D02*
G01*
X131016062Y61938745D01*
X131027118Y61922200D01*
X131031000Y61902683D01*
X131031000Y60902683D01*
X131027118Y60883166D01*
X131016062Y60866621D01*
X130999517Y60855565D01*
X130980000Y60851683D01*
X129480000Y60851683D01*
X129460483Y60855565D01*
X129443938Y60866621D01*
X129432882Y60883166D01*
X129429000Y60902683D01*
X129429000Y61902683D01*
X129432882Y61922200D01*
X129443938Y61938745D01*
X129460483Y61949801D01*
X129480000Y61953683D01*
X130980000Y61953683D01*
X130999517Y61949801D01*
G37*
G36*
X120180094Y63502877D02*
G01*
X120264687Y63493782D01*
X120284743Y63486302D01*
X120306641Y63482833D01*
X120341055Y63465299D01*
X120378937Y63451169D01*
X120400573Y63434972D01*
X120425397Y63422324D01*
X120449000Y63398721D01*
X120475900Y63378584D01*
X120496036Y63351685D01*
X120519641Y63328080D01*
X120532289Y63303256D01*
X120548485Y63281621D01*
X120562612Y63243743D01*
X120580150Y63209324D01*
X120583618Y63187424D01*
X120591098Y63167371D01*
X120600190Y63082797D01*
X120601000Y63077683D01*
X120601000Y62327683D01*
X120600190Y62322570D01*
X120591098Y62237996D01*
X120583618Y62217944D01*
X120580150Y62196042D01*
X120562611Y62161621D01*
X120548485Y62123746D01*
X120532291Y62102114D01*
X120519641Y62077286D01*
X120496033Y62053679D01*
X120475900Y62026783D01*
X120449004Y62006650D01*
X120425397Y61983042D01*
X120400569Y61970392D01*
X120378937Y61954198D01*
X120341062Y61940072D01*
X120306641Y61922533D01*
X120284739Y61919065D01*
X120264687Y61911585D01*
X120180115Y61902494D01*
X120175000Y61901683D01*
X118925000Y61901683D01*
X118919888Y61902493D01*
X118835312Y61911585D01*
X118815259Y61919065D01*
X118793359Y61922533D01*
X118758940Y61940071D01*
X118721062Y61954198D01*
X118699427Y61970394D01*
X118674603Y61983042D01*
X118650998Y62006647D01*
X118624099Y62026783D01*
X118603962Y62053683D01*
X118580359Y62077286D01*
X118567711Y62102110D01*
X118551514Y62123746D01*
X118537384Y62161628D01*
X118519850Y62196042D01*
X118516381Y62217940D01*
X118508901Y62237996D01*
X118499807Y62322587D01*
X118499000Y62327683D01*
X118499000Y63077683D01*
X118499806Y63082776D01*
X118508901Y63167371D01*
X118516382Y63187429D01*
X118519850Y63209324D01*
X118537383Y63243736D01*
X118551514Y63281621D01*
X118567712Y63303261D01*
X118580359Y63328080D01*
X118603959Y63351681D01*
X118624099Y63378584D01*
X118651002Y63398724D01*
X118674603Y63422324D01*
X118699422Y63434971D01*
X118721062Y63451169D01*
X118758947Y63465300D01*
X118793359Y63482833D01*
X118815254Y63486301D01*
X118835312Y63493782D01*
X118919905Y63502877D01*
X118925000Y63503683D01*
X120175000Y63503683D01*
X120180094Y63502877D01*
G37*
G36*
X133759517Y63209801D02*
G01*
X133776062Y63198745D01*
X133787118Y63182200D01*
X133791000Y63162683D01*
X133791000Y62162683D01*
X133787118Y62143166D01*
X133776062Y62126621D01*
X133759517Y62115565D01*
X133740000Y62111683D01*
X132240000Y62111683D01*
X132220483Y62115565D01*
X132203938Y62126621D01*
X132192882Y62143166D01*
X132189000Y62162683D01*
X132189000Y63162683D01*
X132192882Y63182200D01*
X132203938Y63198745D01*
X132220483Y63209801D01*
X132240000Y63213683D01*
X133740000Y63213683D01*
X133759517Y63209801D01*
G37*
G36*
X130999517Y63249801D02*
G01*
X131016062Y63238745D01*
X131027118Y63222200D01*
X131031000Y63202683D01*
X131031000Y62202683D01*
X131027118Y62183166D01*
X131016062Y62166621D01*
X130999517Y62155565D01*
X130980000Y62151683D01*
X129480000Y62151683D01*
X129460483Y62155565D01*
X129443938Y62166621D01*
X129432882Y62183166D01*
X129429000Y62202683D01*
X129429000Y63202683D01*
X129432882Y63222200D01*
X129443938Y63238745D01*
X129460483Y63249801D01*
X129480000Y63253683D01*
X130980000Y63253683D01*
X130999517Y63249801D01*
G37*
G36*
X109178914Y64400688D02*
G01*
X109183645Y64398599D01*
X109186811Y64398182D01*
X109226442Y64379702D01*
X109280106Y64356007D01*
X109358324Y64277789D01*
X109382028Y64224104D01*
X109400498Y64184495D01*
X109400914Y64181332D01*
X109403005Y64176597D01*
X109411000Y64107683D01*
X109411000Y63157683D01*
X109403005Y63088769D01*
X109400914Y63084035D01*
X109400498Y63080872D01*
X109382036Y63041281D01*
X109358324Y62987577D01*
X109280106Y62909359D01*
X109226402Y62885647D01*
X109186811Y62867185D01*
X109183648Y62866769D01*
X109178914Y62864678D01*
X109110000Y62856683D01*
X108610000Y62856683D01*
X108541086Y62864678D01*
X108536351Y62866769D01*
X108533188Y62867185D01*
X108493579Y62885655D01*
X108439894Y62909359D01*
X108361676Y62987577D01*
X108337981Y63041241D01*
X108319501Y63080872D01*
X108319084Y63084038D01*
X108316995Y63088769D01*
X108309000Y63157683D01*
X108309000Y64107683D01*
X108316995Y64176597D01*
X108319084Y64181329D01*
X108319501Y64184495D01*
X108337989Y64224145D01*
X108361676Y64277789D01*
X108439894Y64356007D01*
X108493538Y64379694D01*
X108533188Y64398182D01*
X108536354Y64398599D01*
X108541086Y64400688D01*
X108610000Y64408683D01*
X109110000Y64408683D01*
X109178914Y64400688D01*
G37*
G36*
X111078914Y64400688D02*
G01*
X111083645Y64398599D01*
X111086811Y64398182D01*
X111126442Y64379702D01*
X111180106Y64356007D01*
X111258324Y64277789D01*
X111282028Y64224104D01*
X111300498Y64184495D01*
X111300914Y64181332D01*
X111303005Y64176597D01*
X111311000Y64107683D01*
X111311000Y63157683D01*
X111303005Y63088769D01*
X111300914Y63084035D01*
X111300498Y63080872D01*
X111282036Y63041281D01*
X111258324Y62987577D01*
X111180106Y62909359D01*
X111126402Y62885647D01*
X111086811Y62867185D01*
X111083648Y62866769D01*
X111078914Y62864678D01*
X111010000Y62856683D01*
X110510000Y62856683D01*
X110441086Y62864678D01*
X110436351Y62866769D01*
X110433188Y62867185D01*
X110393579Y62885655D01*
X110339894Y62909359D01*
X110261676Y62987577D01*
X110237981Y63041241D01*
X110219501Y63080872D01*
X110219084Y63084038D01*
X110216995Y63088769D01*
X110209000Y63157683D01*
X110209000Y64107683D01*
X110216995Y64176597D01*
X110219084Y64181329D01*
X110219501Y64184495D01*
X110237989Y64224145D01*
X110261676Y64277789D01*
X110339894Y64356007D01*
X110393538Y64379694D01*
X110433188Y64398182D01*
X110436354Y64398599D01*
X110441086Y64400688D01*
X110510000Y64408683D01*
X111010000Y64408683D01*
X111078914Y64400688D01*
G37*
G36*
X113880457Y66938016D02*
G01*
X113887673Y66935171D01*
X113892507Y66934534D01*
X113956418Y66908062D01*
X114020051Y66882968D01*
X114023725Y66880182D01*
X114025306Y66879527D01*
X114085736Y66833157D01*
X114139616Y66792299D01*
X114180493Y66738394D01*
X114226843Y66677990D01*
X114227497Y66676410D01*
X114230285Y66672734D01*
X114255385Y66609083D01*
X114281850Y66545192D01*
X114282486Y66540359D01*
X114285333Y66533140D01*
X114301000Y66402683D01*
X114301000Y63602683D01*
X114285333Y63472226D01*
X114282485Y63465007D01*
X114281850Y63460176D01*
X114255398Y63396316D01*
X114230285Y63332632D01*
X114227496Y63328955D01*
X114226843Y63327377D01*
X114180558Y63267058D01*
X114139616Y63213067D01*
X114085625Y63172125D01*
X114025306Y63125840D01*
X114023728Y63125187D01*
X114020051Y63122398D01*
X113956378Y63097290D01*
X113892508Y63070833D01*
X113887676Y63070197D01*
X113880457Y63067350D01*
X113750000Y63051683D01*
X112750000Y63051683D01*
X112619543Y63067350D01*
X112612323Y63070197D01*
X112607492Y63070833D01*
X112543611Y63097294D01*
X112479949Y63122398D01*
X112476273Y63125186D01*
X112474693Y63125840D01*
X112414289Y63172190D01*
X112360384Y63213067D01*
X112319526Y63266947D01*
X112273156Y63327377D01*
X112272501Y63328958D01*
X112269715Y63332632D01*
X112244626Y63396255D01*
X112218149Y63460175D01*
X112217512Y63465011D01*
X112214667Y63472226D01*
X112199000Y63602683D01*
X112199000Y66402683D01*
X112214667Y66533140D01*
X112217512Y66540356D01*
X112218149Y66545191D01*
X112244629Y66609122D01*
X112269715Y66672734D01*
X112272500Y66676407D01*
X112273156Y66677990D01*
X112319590Y66738506D01*
X112360384Y66792299D01*
X112414177Y66833093D01*
X112474693Y66879527D01*
X112476276Y66880183D01*
X112479949Y66882968D01*
X112543550Y66908049D01*
X112607491Y66934534D01*
X112612327Y66935171D01*
X112619543Y66938016D01*
X112750000Y66953683D01*
X113750000Y66953683D01*
X113880457Y66938016D01*
G37*
G36*
X95780285Y64587206D02*
G01*
X95829273Y64554473D01*
X95862006Y64505485D01*
X95873500Y64447700D01*
X95873500Y63997700D01*
X95862006Y63939915D01*
X95829273Y63890927D01*
X95780285Y63858194D01*
X95722500Y63846700D01*
X95522500Y63846700D01*
X95464715Y63858194D01*
X95415727Y63890927D01*
X95382994Y63939915D01*
X95371500Y63997700D01*
X95371500Y64447700D01*
X95382994Y64505485D01*
X95415727Y64554473D01*
X95464715Y64587206D01*
X95522500Y64598700D01*
X95722500Y64598700D01*
X95780285Y64587206D01*
G37*
G36*
X96430285Y64587206D02*
G01*
X96479273Y64554473D01*
X96512006Y64505485D01*
X96523500Y64447700D01*
X96523500Y63997700D01*
X96512006Y63939915D01*
X96479273Y63890927D01*
X96430285Y63858194D01*
X96372500Y63846700D01*
X96172500Y63846700D01*
X96114715Y63858194D01*
X96065727Y63890927D01*
X96032994Y63939915D01*
X96021500Y63997700D01*
X96021500Y64447700D01*
X96032994Y64505485D01*
X96065727Y64554473D01*
X96114715Y64587206D01*
X96172500Y64598700D01*
X96372500Y64598700D01*
X96430285Y64587206D01*
G37*
G36*
X97080285Y64587206D02*
G01*
X97129273Y64554473D01*
X97162006Y64505485D01*
X97173500Y64447700D01*
X97173500Y63997700D01*
X97162006Y63939915D01*
X97129273Y63890927D01*
X97080285Y63858194D01*
X97022500Y63846700D01*
X96822500Y63846700D01*
X96764715Y63858194D01*
X96715727Y63890927D01*
X96682994Y63939915D01*
X96671500Y63997700D01*
X96671500Y64447700D01*
X96682994Y64505485D01*
X96715727Y64554473D01*
X96764715Y64587206D01*
X96822500Y64598700D01*
X97022500Y64598700D01*
X97080285Y64587206D01*
G37*
G36*
X120180094Y65802877D02*
G01*
X120264687Y65793782D01*
X120284743Y65786302D01*
X120306641Y65782833D01*
X120341055Y65765299D01*
X120378937Y65751169D01*
X120400573Y65734972D01*
X120425397Y65722324D01*
X120449000Y65698721D01*
X120475900Y65678584D01*
X120496036Y65651685D01*
X120519641Y65628080D01*
X120532289Y65603256D01*
X120548485Y65581621D01*
X120562612Y65543743D01*
X120580150Y65509324D01*
X120583618Y65487424D01*
X120591098Y65467371D01*
X120600190Y65382797D01*
X120601000Y65377683D01*
X120601000Y64627683D01*
X120600190Y64622570D01*
X120591098Y64537996D01*
X120583618Y64517944D01*
X120580150Y64496042D01*
X120562611Y64461621D01*
X120548485Y64423746D01*
X120532291Y64402114D01*
X120519641Y64377286D01*
X120496035Y64353680D01*
X120475900Y64326783D01*
X120449004Y64306650D01*
X120425397Y64283042D01*
X120400569Y64270392D01*
X120378937Y64254198D01*
X120341062Y64240072D01*
X120306641Y64222533D01*
X120284739Y64219065D01*
X120264687Y64211585D01*
X120180115Y64202494D01*
X120175000Y64201683D01*
X118925000Y64201683D01*
X118919888Y64202493D01*
X118835312Y64211585D01*
X118815259Y64219065D01*
X118793359Y64222533D01*
X118758940Y64240071D01*
X118721062Y64254198D01*
X118699427Y64270394D01*
X118674603Y64283042D01*
X118650998Y64306647D01*
X118624099Y64326783D01*
X118603962Y64353683D01*
X118580359Y64377286D01*
X118567711Y64402110D01*
X118551514Y64423746D01*
X118537384Y64461628D01*
X118519850Y64496042D01*
X118516381Y64517940D01*
X118508901Y64537996D01*
X118499807Y64622587D01*
X118499000Y64627683D01*
X118499000Y65377683D01*
X118499806Y65382776D01*
X118508901Y65467371D01*
X118516382Y65487429D01*
X118519850Y65509324D01*
X118537383Y65543736D01*
X118551514Y65581621D01*
X118567712Y65603261D01*
X118580359Y65628080D01*
X118603959Y65651681D01*
X118624099Y65678584D01*
X118651002Y65698724D01*
X118674603Y65722324D01*
X118699422Y65734971D01*
X118721062Y65751169D01*
X118758947Y65765300D01*
X118793359Y65782833D01*
X118815254Y65786301D01*
X118835312Y65793782D01*
X118919905Y65802877D01*
X118925000Y65803683D01*
X120175000Y65803683D01*
X120180094Y65802877D01*
G37*
G36*
X123363914Y65455688D02*
G01*
X123368645Y65453599D01*
X123371811Y65453182D01*
X123411442Y65434702D01*
X123465106Y65411007D01*
X123543324Y65332789D01*
X123567028Y65279104D01*
X123585498Y65239495D01*
X123585914Y65236332D01*
X123588005Y65231597D01*
X123596000Y65162683D01*
X123596000Y64662683D01*
X123588005Y64593769D01*
X123585914Y64589035D01*
X123585498Y64585872D01*
X123567036Y64546281D01*
X123543324Y64492577D01*
X123465106Y64414359D01*
X123411402Y64390647D01*
X123371811Y64372185D01*
X123368648Y64371769D01*
X123363914Y64369678D01*
X123295000Y64361683D01*
X122345000Y64361683D01*
X122276086Y64369678D01*
X122271351Y64371769D01*
X122268188Y64372185D01*
X122228579Y64390655D01*
X122174894Y64414359D01*
X122096676Y64492577D01*
X122072981Y64546241D01*
X122054501Y64585872D01*
X122054084Y64589038D01*
X122051995Y64593769D01*
X122044000Y64662683D01*
X122044000Y65162683D01*
X122051995Y65231597D01*
X122054084Y65236329D01*
X122054501Y65239495D01*
X122072989Y65279145D01*
X122096676Y65332789D01*
X122174894Y65411007D01*
X122228538Y65434694D01*
X122268188Y65453182D01*
X122271354Y65453599D01*
X122276086Y65455688D01*
X122345000Y65463683D01*
X123295000Y65463683D01*
X123363914Y65455688D01*
G37*
G36*
X109118914Y67190688D02*
G01*
X109123645Y67188599D01*
X109126811Y67188182D01*
X109166442Y67169702D01*
X109220106Y67146007D01*
X109298324Y67067789D01*
X109322028Y67014104D01*
X109340498Y66974495D01*
X109340914Y66971332D01*
X109343005Y66966597D01*
X109351000Y66897683D01*
X109351000Y65947683D01*
X109343005Y65878769D01*
X109340914Y65874035D01*
X109340498Y65870872D01*
X109322036Y65831281D01*
X109298324Y65777577D01*
X109220106Y65699359D01*
X109166402Y65675647D01*
X109126811Y65657185D01*
X109123648Y65656769D01*
X109118914Y65654678D01*
X109050000Y65646683D01*
X108550000Y65646683D01*
X108481086Y65654678D01*
X108476351Y65656769D01*
X108473188Y65657185D01*
X108433579Y65675655D01*
X108379894Y65699359D01*
X108301676Y65777577D01*
X108277981Y65831241D01*
X108259501Y65870872D01*
X108259084Y65874038D01*
X108256995Y65878769D01*
X108249000Y65947683D01*
X108249000Y66897683D01*
X108256995Y66966597D01*
X108259084Y66971329D01*
X108259501Y66974495D01*
X108277989Y67014145D01*
X108301676Y67067789D01*
X108379894Y67146007D01*
X108433538Y67169694D01*
X108473188Y67188182D01*
X108476354Y67188599D01*
X108481086Y67190688D01*
X108550000Y67198683D01*
X109050000Y67198683D01*
X109118914Y67190688D01*
G37*
G36*
X111018914Y67190688D02*
G01*
X111023645Y67188599D01*
X111026811Y67188182D01*
X111066442Y67169702D01*
X111120106Y67146007D01*
X111198324Y67067789D01*
X111222028Y67014104D01*
X111240498Y66974495D01*
X111240914Y66971332D01*
X111243005Y66966597D01*
X111251000Y66897683D01*
X111251000Y65947683D01*
X111243005Y65878769D01*
X111240914Y65874035D01*
X111240498Y65870872D01*
X111222036Y65831281D01*
X111198324Y65777577D01*
X111120106Y65699359D01*
X111066402Y65675647D01*
X111026811Y65657185D01*
X111023648Y65656769D01*
X111018914Y65654678D01*
X110950000Y65646683D01*
X110450000Y65646683D01*
X110381086Y65654678D01*
X110376351Y65656769D01*
X110373188Y65657185D01*
X110333579Y65675655D01*
X110279894Y65699359D01*
X110201676Y65777577D01*
X110177981Y65831241D01*
X110159501Y65870872D01*
X110159084Y65874038D01*
X110156995Y65878769D01*
X110149000Y65947683D01*
X110149000Y66897683D01*
X110156995Y66966597D01*
X110159084Y66971329D01*
X110159501Y66974495D01*
X110177989Y67014145D01*
X110201676Y67067789D01*
X110279894Y67146007D01*
X110333538Y67169694D01*
X110373188Y67188182D01*
X110376354Y67188599D01*
X110381086Y67190688D01*
X110450000Y67198683D01*
X110950000Y67198683D01*
X111018914Y67190688D01*
G37*
G36*
X95780285Y66487206D02*
G01*
X95829273Y66454473D01*
X95862006Y66405485D01*
X95873500Y66347700D01*
X95873500Y65897700D01*
X95862006Y65839915D01*
X95829273Y65790927D01*
X95780285Y65758194D01*
X95722500Y65746700D01*
X95522500Y65746700D01*
X95464715Y65758194D01*
X95415727Y65790927D01*
X95382994Y65839915D01*
X95371500Y65897700D01*
X95371500Y66347700D01*
X95382994Y66405485D01*
X95415727Y66454473D01*
X95464715Y66487206D01*
X95522500Y66498700D01*
X95722500Y66498700D01*
X95780285Y66487206D01*
G37*
G36*
X96430285Y66487206D02*
G01*
X96479273Y66454473D01*
X96512006Y66405485D01*
X96523500Y66347700D01*
X96523500Y65897700D01*
X96512006Y65839915D01*
X96479273Y65790927D01*
X96430285Y65758194D01*
X96372500Y65746700D01*
X96172500Y65746700D01*
X96114715Y65758194D01*
X96065727Y65790927D01*
X96032994Y65839915D01*
X96021500Y65897700D01*
X96021500Y66347700D01*
X96032994Y66405485D01*
X96065727Y66454473D01*
X96114715Y66487206D01*
X96172500Y66498700D01*
X96372500Y66498700D01*
X96430285Y66487206D01*
G37*
G36*
X97080285Y66487206D02*
G01*
X97129273Y66454473D01*
X97162006Y66405485D01*
X97173500Y66347700D01*
X97173500Y65897700D01*
X97162006Y65839915D01*
X97129273Y65790927D01*
X97080285Y65758194D01*
X97022500Y65746700D01*
X96822500Y65746700D01*
X96764715Y65758194D01*
X96715727Y65790927D01*
X96682994Y65839915D01*
X96671500Y65897700D01*
X96671500Y66347700D01*
X96682994Y66405485D01*
X96715727Y66454473D01*
X96764715Y66487206D01*
X96822500Y66498700D01*
X97022500Y66498700D01*
X97080285Y66487206D01*
G37*
G36*
X173692630Y69264588D02*
G01*
X173929285Y69207772D01*
X174154139Y69114634D01*
X174361655Y68987468D01*
X174546723Y68829406D01*
X174704785Y68644338D01*
X174831951Y68436822D01*
X174925089Y68211968D01*
X174981905Y67975313D01*
X175001000Y67732683D01*
X174981905Y67490053D01*
X174925089Y67253398D01*
X174831951Y67028544D01*
X174704785Y66821028D01*
X174546723Y66635960D01*
X174361655Y66477898D01*
X174154139Y66350732D01*
X173929285Y66257594D01*
X173692630Y66200778D01*
X173450000Y66181683D01*
X173207370Y66200778D01*
X172970715Y66257594D01*
X172745861Y66350732D01*
X172538345Y66477898D01*
X172353277Y66635960D01*
X172195215Y66821028D01*
X172068049Y67028544D01*
X171974911Y67253398D01*
X171918095Y67490053D01*
X171899000Y67732683D01*
X171918095Y67975313D01*
X171974911Y68211968D01*
X172068049Y68436822D01*
X172195215Y68644338D01*
X172353277Y68829406D01*
X172538345Y68987468D01*
X172745861Y69114634D01*
X172970715Y69207772D01*
X173207370Y69264588D01*
X173450000Y69283683D01*
X173692630Y69264588D01*
G37*
G36*
X123363914Y67355688D02*
G01*
X123368645Y67353599D01*
X123371811Y67353182D01*
X123411442Y67334702D01*
X123465106Y67311007D01*
X123543324Y67232789D01*
X123567028Y67179104D01*
X123585498Y67139495D01*
X123585914Y67136332D01*
X123588005Y67131597D01*
X123596000Y67062683D01*
X123596000Y66562683D01*
X123588005Y66493769D01*
X123585914Y66489035D01*
X123585498Y66485872D01*
X123567036Y66446281D01*
X123543324Y66392577D01*
X123465106Y66314359D01*
X123411402Y66290647D01*
X123371811Y66272185D01*
X123368648Y66271769D01*
X123363914Y66269678D01*
X123295000Y66261683D01*
X122345000Y66261683D01*
X122276086Y66269678D01*
X122271351Y66271769D01*
X122268188Y66272185D01*
X122228579Y66290655D01*
X122174894Y66314359D01*
X122096676Y66392577D01*
X122072981Y66446241D01*
X122054501Y66485872D01*
X122054084Y66489038D01*
X122051995Y66493769D01*
X122044000Y66562683D01*
X122044000Y67062683D01*
X122051995Y67131597D01*
X122054084Y67136329D01*
X122054501Y67139495D01*
X122072989Y67179145D01*
X122096676Y67232789D01*
X122174894Y67311007D01*
X122228538Y67334694D01*
X122268188Y67353182D01*
X122271354Y67353599D01*
X122276086Y67355688D01*
X122345000Y67363683D01*
X123295000Y67363683D01*
X123363914Y67355688D01*
G37*
G36*
X120180094Y68102877D02*
G01*
X120264687Y68093782D01*
X120284743Y68086302D01*
X120306641Y68082833D01*
X120341055Y68065299D01*
X120378937Y68051169D01*
X120400573Y68034972D01*
X120425397Y68022324D01*
X120449000Y67998721D01*
X120475900Y67978584D01*
X120496036Y67951685D01*
X120519641Y67928080D01*
X120532289Y67903256D01*
X120548485Y67881621D01*
X120562612Y67843743D01*
X120580150Y67809324D01*
X120583618Y67787424D01*
X120591098Y67767371D01*
X120600190Y67682797D01*
X120601000Y67677683D01*
X120601000Y66927683D01*
X120600190Y66922570D01*
X120591098Y66837996D01*
X120583618Y66817944D01*
X120580150Y66796042D01*
X120562611Y66761621D01*
X120548485Y66723746D01*
X120532291Y66702114D01*
X120519641Y66677286D01*
X120496033Y66653679D01*
X120475900Y66626783D01*
X120449004Y66606650D01*
X120425397Y66583042D01*
X120400569Y66570392D01*
X120378937Y66554198D01*
X120341062Y66540072D01*
X120306641Y66522533D01*
X120284739Y66519065D01*
X120264687Y66511585D01*
X120180115Y66502494D01*
X120175000Y66501683D01*
X118925000Y66501683D01*
X118919888Y66502493D01*
X118835312Y66511585D01*
X118815259Y66519065D01*
X118793359Y66522533D01*
X118758940Y66540071D01*
X118721062Y66554198D01*
X118699427Y66570394D01*
X118674603Y66583042D01*
X118650998Y66606647D01*
X118624099Y66626783D01*
X118603962Y66653683D01*
X118580359Y66677286D01*
X118567711Y66702110D01*
X118551514Y66723746D01*
X118537384Y66761628D01*
X118519850Y66796042D01*
X118516381Y66817940D01*
X118508901Y66837996D01*
X118499807Y66922587D01*
X118499000Y66927683D01*
X118499000Y67677683D01*
X118499806Y67682776D01*
X118508901Y67767371D01*
X118516382Y67787429D01*
X118519850Y67809324D01*
X118537383Y67843736D01*
X118551514Y67881621D01*
X118567712Y67903261D01*
X118580359Y67928080D01*
X118603959Y67951681D01*
X118624099Y67978584D01*
X118651002Y67998724D01*
X118674603Y68022324D01*
X118699422Y68034971D01*
X118721062Y68051169D01*
X118758947Y68065300D01*
X118793359Y68082833D01*
X118815254Y68086301D01*
X118835312Y68093782D01*
X118919905Y68102877D01*
X118925000Y68103683D01*
X120175000Y68103683D01*
X120180094Y68102877D01*
G37*
M02*
