%TF.GenerationSoftware,KiCad,Pcbnew,8.0.5*%
%TF.CreationDate,2024-09-30T13:59:48-07:00*%
%TF.ProjectId,combo_board,636f6d62-6f5f-4626-9f61-72642e6b6963,1*%
%TF.SameCoordinates,Original*%
%TF.FileFunction,Profile,NP*%
%FSLAX46Y46*%
G04 Gerber Fmt 4.6, Leading zero omitted, Abs format (unit mm)*
G04 Created by KiCad (PCBNEW 8.0.5) date 2024-09-30 13:59:48*
%MOMM*%
%LPD*%
G01*
G04 APERTURE LIST*
%TA.AperFunction,Profile*%
%ADD10C,0.359833*%
%TD*%
G04 APERTURE END LIST*
D10*
X69248861Y15783103D02*
X69257567Y15897583D01*
X175919704Y38321422D02*
X176119005Y38148782D01*
X13663574Y6776195D02*
X13604398Y6719776D01*
X53413514Y16365518D02*
X53394015Y16450003D01*
X31418558Y56681785D02*
X31357037Y57026281D01*
X51023025Y14404576D02*
X51102325Y14373309D01*
X97382789Y17622611D02*
X97303488Y17653878D01*
X7895015Y9015565D02*
X8274191Y9123240D01*
X19325325Y31883920D02*
X19556958Y31640968D01*
X183653210Y66222234D02*
X183676171Y66303091D01*
X67460553Y18222045D02*
X67349543Y18241869D01*
X53428871Y16279524D02*
X53413514Y16365518D01*
X28414878Y11525078D02*
X28689150Y11720117D01*
X24143589Y62602906D02*
X23788323Y62575892D01*
X490000Y72010000D02*
X490000Y65617674D01*
X15954924Y6776195D02*
X15893098Y6829750D01*
X19105450Y32137751D02*
X19325325Y31883920D01*
X68440158Y17753081D02*
X68354999Y17820003D01*
X64754926Y16129590D02*
X64751993Y16013586D01*
X28131045Y61599236D02*
X27838091Y61767680D01*
X157679525Y18832002D02*
X157781317Y18866444D01*
X14383413Y7165196D02*
X14302555Y7142235D01*
X176418050Y50152034D02*
X176454531Y50120433D01*
X16510949Y66816609D02*
X16504369Y66903141D01*
X183561791Y67467643D02*
X183524163Y67541112D01*
X13856572Y6927839D02*
X13789768Y6880333D01*
X13443840Y67748405D02*
X13396335Y67681601D01*
X98050565Y17124367D02*
X97995680Y17187729D01*
X18897773Y51430857D02*
X19105450Y51166585D01*
X50945672Y14439546D02*
X51023025Y14404576D01*
X29681838Y41291271D02*
X29450205Y41534223D01*
X22098266Y30016504D02*
X22423310Y29906522D01*
X180425385Y4929061D02*
X180455894Y4851684D01*
X13997060Y65230662D02*
X14070530Y65193033D01*
X181142364Y6972159D02*
X181073231Y6927839D01*
X25218838Y10366461D02*
X25568939Y10410948D01*
X21169072Y30436342D02*
X21470708Y30281853D01*
X158241916Y8715633D02*
X158212069Y8677651D01*
X20592286Y30786747D02*
X20876118Y30604786D01*
X158164049Y22797848D02*
X158072307Y22850599D01*
X52679088Y14565579D02*
X52747552Y14614264D01*
X9362261Y64829736D02*
X9008316Y64989751D01*
X31791951Y8406665D02*
X31745235Y8422471D01*
X97877212Y14720990D02*
X97937858Y14778810D01*
X183045384Y6880333D02*
X182978580Y6927839D01*
X19105450Y21775767D02*
X18897773Y21511495D01*
X158164049Y19050672D02*
X158252936Y19107655D01*
X68266617Y17882852D02*
X68175155Y17941488D01*
X26908897Y49045334D02*
X27226577Y49170591D01*
X13105333Y66728926D02*
X13107550Y66641243D01*
X490000Y212683D02*
X24746996Y212683D01*
X17822505Y15245653D02*
X17932488Y14920609D01*
X51350814Y17724362D02*
X51266329Y17704863D01*
X13396335Y4562250D02*
X13443840Y4495446D01*
X32279962Y8024398D02*
X32251931Y8063817D01*
X158133678Y8555337D02*
X158111475Y8511986D01*
X52813520Y14666105D02*
X52876881Y14720990D01*
X23788323Y24285391D02*
X23438223Y24240904D01*
X13403646Y14007056D02*
X13529269Y14378324D01*
X176541854Y46941935D02*
X176326503Y46788795D01*
X31648881Y8447246D02*
X31599369Y8456088D01*
X159002793Y19974478D02*
X159046665Y20071520D01*
X183695197Y5171525D02*
X183710182Y5255433D01*
X183483135Y65845384D02*
X183524163Y65916739D01*
X18520773Y32960127D02*
X18702734Y32676294D01*
X16070519Y4369251D02*
X16124074Y4431077D01*
X17728237Y53868120D02*
X17822505Y53536153D01*
X183658390Y49936046D02*
X183705106Y49951853D01*
X180455894Y66065685D02*
X180490016Y65990208D01*
X180341626Y66469437D02*
X180356610Y66385528D01*
X53150760Y16989934D02*
X53102074Y17058399D01*
X30486389Y32960127D02*
X30654834Y33253081D01*
X51702745Y17759840D02*
X51612883Y17757568D01*
X180174507Y47851656D02*
X179895560Y47872867D01*
X9706792Y9728407D02*
X10041407Y9920807D01*
X19556958Y60563051D02*
X19325325Y60320099D01*
X170500658Y212683D02*
X188513491Y212683D01*
X51881289Y17750824D02*
X51792607Y17757568D01*
X175211373Y39100855D02*
X175374434Y38893355D01*
X182909447Y68186161D02*
X182838093Y68227189D01*
X21470708Y23631668D02*
X21169072Y23477180D01*
X169669521Y9069926D02*
X169619204Y9076320D01*
X20592286Y61417274D02*
X20318014Y61222235D01*
X14070530Y65193033D02*
X14146007Y65158910D01*
X52608237Y14520157D02*
X52679088Y14565579D01*
X98102406Y14968785D02*
X98151093Y15037249D01*
X8274191Y9123240D02*
X8645458Y9248863D01*
X96102653Y14373309D02*
X96183790Y14345855D01*
X156274818Y18866444D02*
X156376609Y18832002D01*
X176318242Y57060293D02*
X176288394Y57022312D01*
X170037753Y8935955D02*
X169995649Y8960164D01*
X53446719Y16103448D02*
X53439976Y16192131D01*
X183721017Y5340707D02*
X183727597Y5427238D01*
X183045384Y68094335D02*
X182978580Y68141840D01*
X18352328Y39922110D02*
X18197839Y39620474D01*
X24946737Y8063813D02*
X24918706Y8024395D01*
X23788323Y48656961D02*
X24143589Y48629946D01*
X20876118Y61599236D02*
X20592286Y61417274D01*
X181287189Y3979035D02*
X181362666Y3944913D01*
X180568673Y6398468D02*
X180527645Y6327113D01*
X95035342Y16532869D02*
X95011811Y16450003D01*
X30809323Y14293050D02*
X30949415Y14602928D01*
X50528606Y17306196D02*
X50467960Y17248375D01*
X26583853Y29906522D02*
X26908897Y30016504D01*
X25112875Y8238084D02*
X25076394Y8206483D01*
X29681838Y60320099D02*
X29450205Y60563051D01*
X182532600Y7142235D02*
X182451743Y7165196D01*
X94959107Y16103448D02*
X94956835Y16013586D01*
X181213719Y7013187D02*
X181142364Y6972159D01*
X180455894Y4851684D02*
X180490016Y4776207D01*
X155272552Y19613498D02*
X155337588Y19530738D01*
X181287189Y7050816D02*
X181213719Y7013187D01*
X158954412Y19880017D02*
X159002793Y19974478D01*
X66028936Y18045549D02*
X65931737Y17995767D01*
X20876118Y23308735D02*
X20592286Y23126773D01*
X184310454Y39539064D02*
X184442712Y39769084D01*
X17588602Y18391284D02*
X17544115Y18041184D01*
X6715058Y8805259D02*
X7114947Y8856073D01*
X67883699Y13936494D02*
X67983554Y13981637D01*
X68812657Y14664839D02*
X68875507Y14753219D01*
X179051299Y36922865D02*
X179330245Y36901653D01*
X26583853Y43268674D02*
X26251886Y43362942D01*
X66662944Y18241869D02*
X66551935Y18222045D01*
X182461103Y37689709D02*
X182683961Y37832581D01*
X182909447Y6972159D02*
X182838093Y7013187D01*
X18702734Y51705129D02*
X18897773Y51430857D01*
X16266484Y65845384D02*
X16307512Y65916739D01*
X25913435Y43441056D02*
X25568939Y43502576D01*
X180398597Y5008232D02*
X180425385Y4929061D01*
X180821056Y67933776D02*
X180764637Y67874600D01*
X15761925Y68141840D02*
X15692791Y68186161D01*
X14383413Y3864654D02*
X14465849Y3845628D01*
X16493533Y5774413D02*
X16478549Y5858322D01*
X170520514Y8127840D02*
X170516631Y8178899D01*
X183676171Y5940759D02*
X183653210Y6021617D01*
X170521822Y8076101D02*
X170500658Y8065512D01*
X69038205Y16990901D02*
X68988422Y17088100D01*
X65837336Y14085699D02*
X65931737Y14031420D01*
X97303488Y17653878D02*
X97222350Y17681332D01*
X13547979Y65583251D02*
X13604398Y65524075D01*
X67236727Y13770982D02*
X67349543Y13785318D01*
X6715058Y65576424D02*
X6309270Y65607280D01*
X51792607Y14269619D02*
X51881289Y14276363D01*
X13105333Y5514921D02*
X13107550Y5427238D01*
X50303414Y17058399D02*
X50254729Y16989934D01*
X13856572Y68141840D02*
X13789768Y68094335D01*
X23788323Y43547064D02*
X23438223Y43502576D01*
X53394015Y15577175D02*
X53413514Y15661659D01*
X181213719Y65230662D02*
X181287189Y65193033D01*
X49976620Y15747652D02*
X49991976Y15661659D01*
X68745736Y17447504D02*
X68674883Y17529299D01*
X180527645Y4702738D02*
X180568673Y4631383D01*
X176492513Y50090585D02*
X176531931Y50062554D01*
X10678879Y10351421D02*
X10980732Y10588631D01*
X13208726Y6100788D02*
X13181938Y6021617D01*
X158718560Y22317780D02*
X158649703Y22397271D01*
X15472490Y68298941D02*
X15395112Y68329450D01*
X181006427Y68094335D02*
X180942058Y68043751D01*
X64974288Y16990901D02*
X64929144Y16891046D01*
X30654834Y13991415D02*
X30809323Y14293050D01*
X13403646Y60374634D02*
X13260576Y60737492D01*
X26251886Y29812254D02*
X26583853Y29906522D01*
X154862570Y20590630D02*
X154881836Y20482747D01*
X13443840Y6534406D02*
X13396335Y6467601D01*
X28414878Y49815579D02*
X28689150Y50010618D01*
X64853340Y16683934D02*
X64822963Y16576961D01*
X12731703Y12611106D02*
X12924102Y12945721D01*
X31967601Y8322116D02*
X31925497Y8346325D01*
X180942058Y6829750D02*
X180880232Y6776195D01*
X31463045Y18041184D02*
X31418558Y18391284D01*
X176383133Y50185325D02*
X176418050Y50152034D01*
X183045384Y4149518D02*
X183109752Y4200102D01*
X13239235Y4851684D02*
X13273357Y4776207D01*
X13636943Y14757500D02*
X13726165Y15144082D01*
X31278923Y57364732D02*
X31184655Y57696699D01*
X20318014Y61222235D02*
X20053742Y61014559D01*
X158212069Y8677651D02*
X158184038Y8638233D01*
X30486389Y59243891D02*
X30304428Y59527724D01*
X16345141Y4776207D02*
X16379264Y4851684D01*
X182689147Y68298941D02*
X182611770Y68329450D01*
X181287189Y68264818D02*
X181213719Y68227189D01*
X16124074Y6598774D02*
X16070519Y6660600D01*
X65337609Y17529299D02*
X65266757Y17447504D01*
X183524163Y67541112D02*
X183483135Y67612467D01*
X182689147Y7084938D02*
X182611770Y7115447D01*
X13158977Y5089089D02*
X13181938Y5008232D01*
X180568673Y65845384D02*
X180612993Y65776250D01*
X13636943Y59624190D02*
X13529269Y60003366D01*
X98238563Y15181227D02*
X98277127Y15256521D01*
X176260363Y56982893D02*
X176234211Y56942101D01*
X95129032Y15256521D02*
X95167595Y15181227D01*
X18197839Y14293050D02*
X18352328Y13991415D01*
X185077295Y41825655D02*
X185098507Y42104602D01*
X176940956Y49902429D02*
X176991273Y49896035D01*
X95011811Y16450003D02*
X94992312Y16365518D01*
X10041407Y9920807D02*
X10365603Y10128646D01*
X177094072Y57426168D02*
X177042333Y57424860D01*
X183838651Y50012193D02*
X183880755Y50036402D01*
X51350814Y14302825D02*
X51436808Y14287468D01*
X14549758Y3830643D02*
X14635032Y3819807D01*
X50254729Y15037249D02*
X50303414Y14968785D01*
X52382463Y14404576D02*
X52459815Y14439546D01*
X17650123Y35177740D02*
X17728237Y34839288D01*
X50011475Y16450003D02*
X49991976Y16365518D01*
X182838093Y4016664D02*
X182909447Y4057692D01*
X182532600Y65101612D02*
X182611770Y65128401D01*
X65837336Y17941488D02*
X65745874Y17882852D01*
X15828729Y65363517D02*
X15893098Y65414101D01*
X52222025Y17681332D02*
X52139159Y17704863D01*
X174367106Y44020632D02*
X174293090Y43759980D01*
X65136986Y17273964D02*
X65078350Y17182502D01*
X176187799Y50460372D02*
X176210002Y50417020D01*
X21780586Y43033434D02*
X21470708Y42893341D01*
X184674009Y40249229D02*
X184772357Y40498664D01*
X157781317Y18866444D02*
X157880803Y18905670D01*
X181142364Y68186161D02*
X181073231Y68141840D01*
X184193116Y56982900D02*
X184165085Y57022319D01*
X11548163Y63277339D02*
X11270661Y63541912D01*
X169952297Y8982367D02*
X169907761Y9002501D01*
X158844677Y19699390D02*
X158901661Y19788275D01*
X180490016Y67467643D02*
X180455894Y67392166D01*
X13139951Y67072323D02*
X13124966Y66988415D01*
X155717315Y19168734D02*
X155803206Y19107655D01*
X13114130Y66903141D02*
X13107550Y66816609D01*
X32446479Y7565061D02*
X32440085Y7615378D01*
X183171577Y67990195D02*
X183109752Y68043751D01*
X158783597Y19613498D02*
X158844677Y19699390D01*
X14983464Y7210042D02*
X14896931Y7216622D01*
X169719033Y9061084D02*
X169669521Y9069926D01*
X98447055Y16103448D02*
X98440312Y16192131D01*
X51792607Y17757568D02*
X51702745Y17759840D01*
X155009488Y21776999D02*
X154970262Y21677513D01*
X25599298Y8456088D02*
X25549787Y8447246D01*
X50128697Y15256521D02*
X50167260Y15181227D01*
X180821056Y6719776D02*
X180764637Y6660600D01*
X17517100Y55976418D02*
X17507997Y55616426D01*
X13663574Y67990195D02*
X13604398Y67933776D01*
X30654834Y39922110D02*
X30486389Y40215064D01*
X31463045Y56331684D02*
X31418558Y56681785D01*
X183750764Y57347169D02*
X183705106Y57365171D01*
X31074673Y14920609D02*
X31184655Y15245653D01*
X52937528Y14778810D02*
X52995348Y14839456D01*
X178240176Y37067432D02*
X178505919Y37006099D01*
X97747881Y17412922D02*
X97679416Y17461608D01*
X13181938Y66222234D02*
X13208726Y66143063D01*
X95658268Y14614264D02*
X95726731Y14565579D01*
X181750938Y37326153D02*
X181994246Y37436150D01*
X14896931Y68430627D02*
X14809248Y68432844D01*
X183287171Y67874600D02*
X183230753Y67933776D01*
X174661806Y44768590D02*
X174551809Y44525282D01*
X15954924Y4253657D02*
X16014100Y4310076D01*
X29681838Y22029598D02*
X29450205Y22272550D01*
X49956499Y16013586D02*
X49958771Y15923725D01*
X10365603Y64253040D02*
X10041407Y64460878D01*
X25549787Y8447246D02*
X25501144Y8436019D01*
X13310986Y4702738D02*
X13352014Y4631383D01*
X17544115Y16610668D02*
X17588602Y16260567D01*
X50093727Y16693308D02*
X50062460Y16614008D01*
X25008185Y8138276D02*
X24976585Y8101795D01*
X16222164Y65776250D02*
X16266484Y65845384D01*
X31418558Y35522236D02*
X31463045Y35872338D01*
X13725399Y68043751D02*
X13663574Y67990195D01*
X26251886Y62391770D02*
X25913435Y62469884D01*
X14983464Y65033804D02*
X15068738Y65044640D01*
X185098507Y42104602D02*
X185105654Y42387258D01*
X94959107Y15923725D02*
X94965850Y15835044D01*
X181440044Y7115447D02*
X181362666Y7084938D01*
X95094062Y16693308D02*
X95062796Y16614008D01*
X184343645Y56410177D02*
X184364824Y56420763D01*
X68674883Y17529299D02*
X68600242Y17607588D01*
X19799910Y60794684D02*
X19556958Y60563051D01*
X183676171Y66303091D02*
X183695197Y66385528D01*
X31499163Y17325926D02*
X31490060Y17685918D01*
X11270661Y63541912D02*
X10980732Y63793055D01*
X17507997Y36587599D02*
X17517100Y36227605D01*
X29901712Y60066267D02*
X29681838Y60320099D01*
X157028063Y18733511D02*
X157140798Y18736361D01*
X24863572Y62602906D02*
X24503580Y62612009D01*
X182764624Y3979035D02*
X182838093Y4016664D01*
X18520773Y20953391D02*
X18352328Y20660437D01*
X30949415Y14602928D02*
X31074673Y14920609D01*
X13114130Y5340707D02*
X13124966Y5255433D01*
X14223384Y68329450D02*
X14146007Y68298941D01*
X66335901Y18166496D02*
X66231159Y18131056D01*
X13925705Y68186161D02*
X13856572Y68141840D01*
X51702745Y14267347D02*
X51792607Y14269619D01*
X183348833Y49890840D02*
X183359407Y49890844D01*
X66775760Y13770982D02*
X66890240Y13762277D01*
X95797582Y14520157D02*
X95870708Y14478110D01*
X174127312Y42104602D02*
X174148523Y41825655D01*
X183411146Y49892152D02*
X183462206Y49896035D01*
X178505919Y37006099D02*
X178776409Y36957795D01*
X97222350Y17681332D02*
X97139483Y17704863D01*
X183512524Y49902429D02*
X183562036Y49911271D01*
X13726165Y59237608D02*
X13636943Y59624190D01*
X13663574Y4253657D02*
X13725399Y4200102D01*
X16222164Y6467601D02*
X16174658Y6534406D01*
X12063879Y11671780D02*
X12301089Y11973633D01*
X182025911Y3811010D02*
X182113594Y3813227D01*
X22423310Y43268674D02*
X22098266Y43158691D01*
X30109389Y40773168D02*
X29901712Y41037440D01*
X15235083Y7165196D02*
X15152647Y7184222D01*
X17517100Y36227605D02*
X17544115Y35872338D01*
X158032757Y8278725D02*
X158023915Y8229214D01*
X155803206Y22740865D02*
X155717315Y22679786D01*
X13181938Y6021617D02*
X13158977Y5940759D01*
X16409773Y67314788D02*
X16379264Y67392166D01*
X16307512Y6327113D02*
X16266484Y6398468D01*
X25752413Y8467672D02*
X25700674Y8466364D01*
X98394350Y15577175D02*
X98413849Y15661659D01*
X181600073Y3864654D02*
X181682510Y3845628D01*
X184994061Y41280276D02*
X185042365Y41550765D01*
X183653210Y67235617D02*
X183626422Y67314788D01*
X94976955Y15747652D02*
X94992312Y15661659D01*
X180711083Y6598774D02*
X180660499Y6534406D01*
X17932488Y53211110D02*
X18057746Y52893429D01*
X97608565Y14520157D02*
X97679416Y14565579D01*
X24503580Y29592016D02*
X24863572Y29601119D01*
X183411146Y57424872D02*
X183359407Y57426180D01*
X50726400Y17461608D02*
X50657935Y17412922D01*
X182909447Y4057692D02*
X182978580Y4102012D01*
X183230753Y4310076D02*
X183287171Y4369251D01*
X181600073Y65078651D02*
X181682510Y65059625D01*
X180821056Y4310076D02*
X180880232Y4253657D01*
X17544115Y18041184D02*
X17517100Y17685918D01*
X97813850Y14666105D02*
X97877212Y14720990D01*
X158017522Y8178898D02*
X158013639Y8127839D01*
X23093728Y48762969D02*
X23438223Y48701449D01*
X15893098Y6829750D02*
X15828729Y6880333D01*
X32372660Y7853615D02*
X32352526Y7898151D01*
X98413849Y15661659D02*
X98429206Y15747652D01*
X64763632Y15783103D02*
X64777967Y15670288D01*
X30486389Y20953391D02*
X30304428Y21237223D01*
X53050234Y14902818D02*
X53102074Y14968785D01*
X183483135Y67612467D02*
X183438815Y67681601D01*
X68875507Y14753219D02*
X68934142Y14844681D01*
X16513166Y5514921D02*
X16510949Y5602605D01*
X14896931Y3813227D02*
X14983464Y3819807D01*
X180821056Y65524075D02*
X180880232Y65467656D01*
X176541854Y37832581D02*
X176764711Y37689709D01*
X157252054Y18744821D02*
X157361692Y18758753D01*
X95094062Y15333873D02*
X95129032Y15256521D01*
X181851694Y3819807D02*
X181938227Y3813227D01*
X180880232Y65467656D02*
X180942058Y65414101D01*
X184135238Y57060301D02*
X184103637Y57096782D01*
X17728237Y57364732D02*
X17650123Y57026281D01*
X13796434Y15537568D02*
X13847248Y15937457D01*
X183438815Y6467601D02*
X183391309Y6534406D01*
X64822963Y15450217D02*
X64853340Y15343245D01*
X32440085Y7615378D02*
X32431243Y7664889D01*
X16493533Y5255433D02*
X16504369Y5340707D01*
X52535110Y14478110D02*
X52608237Y14520157D01*
X95946003Y17587641D02*
X95870708Y17549077D01*
X13494424Y65645077D02*
X13547979Y65583251D01*
X180356610Y67072323D02*
X180341626Y66988415D01*
X30809323Y58649302D02*
X30654834Y58950937D01*
X159193585Y21257890D02*
X159174319Y21365773D01*
X96881611Y17750824D02*
X96792928Y17757568D01*
X182113594Y65027224D02*
X182200125Y65033804D01*
X17588602Y56681785D02*
X17544115Y56331684D01*
X181682510Y7184222D02*
X181600073Y7165196D01*
X178776409Y36957795D02*
X179051299Y36922865D01*
X15152647Y68398226D02*
X15068738Y68413211D01*
X52876881Y17306196D02*
X52813520Y17361081D01*
X176795090Y57380967D02*
X176748374Y57365161D01*
X182285399Y3830643D02*
X182369307Y3845628D01*
X19799910Y12147668D02*
X20053742Y11927793D01*
X16345141Y6253643D02*
X16307512Y6327113D01*
X23788323Y10366461D02*
X24143589Y10339446D01*
X177724309Y37227804D02*
X177979524Y37141449D01*
X52747552Y14614264D02*
X52813520Y14666105D01*
X27226577Y43033434D02*
X26908897Y43158691D01*
X20053742Y50218294D02*
X20318014Y50010618D01*
X180449398Y47816725D02*
X180174507Y47851656D01*
X32451670Y7462263D02*
X32451670Y7451673D01*
X25649615Y8462481D02*
X25599298Y8456088D01*
X96524524Y14276363D02*
X96613205Y14269619D01*
X50797250Y17507029D02*
X50726400Y17461608D01*
X170260635Y8752117D02*
X170227344Y8787034D01*
X157469575Y23070503D02*
X157361692Y23089769D01*
X68080754Y14031420D02*
X68175155Y14085699D01*
X32451670Y212683D02*
X158012331Y212683D01*
X170442812Y8467453D02*
X170422678Y8511989D01*
X181501503Y37227804D02*
X181750938Y37326153D01*
X98370819Y15494310D02*
X98394350Y15577175D01*
X30949415Y33864595D02*
X31074673Y34182276D01*
X18197839Y20358801D02*
X18057746Y20048923D01*
X64797792Y16467898D02*
X64777967Y16356888D01*
X183727597Y5427238D02*
X183729814Y5514921D01*
X65412250Y17607588D02*
X65337609Y17529299D01*
X183496872Y38503294D02*
X183678744Y38694054D01*
X30654834Y52281915D02*
X30809323Y52583551D01*
X18520773Y40215064D02*
X18352328Y39922110D01*
X21169072Y11174672D02*
X21470708Y11020183D01*
X16014100Y4310076D02*
X16070519Y4369251D01*
X490000Y8742842D02*
X490000Y212683D01*
X24752187Y7565059D02*
X24748304Y7514001D01*
X95410474Y17187729D02*
X95355589Y17124367D01*
X16510949Y5427238D02*
X16513166Y5514921D01*
X24863572Y29601119D02*
X25218838Y29628133D01*
X95468294Y17248375D02*
X95410474Y17187729D01*
X27838091Y61767680D02*
X27536455Y61922169D01*
X28689150Y30981785D02*
X28953421Y31189461D01*
X15152647Y65059625D02*
X15235083Y65078651D01*
X180880232Y6776195D02*
X180821056Y6719776D01*
X31357037Y54206572D02*
X31418558Y54551068D01*
X17650123Y18735780D02*
X17588602Y18391284D01*
X184135238Y50256723D02*
X184165085Y50294705D01*
X53439976Y16192131D02*
X53428871Y16279524D01*
X18057746Y52893429D02*
X18197839Y52583551D01*
X158718560Y19530738D02*
X158783597Y19613498D01*
X18352328Y13991415D02*
X18520773Y13698461D01*
X176093846Y50793463D02*
X176100240Y50743146D01*
X31499163Y55616426D02*
X31490060Y55976418D01*
X18057746Y20048923D02*
X17932488Y19731243D01*
X53196181Y15108100D02*
X53238229Y15181227D01*
X16222164Y67681601D02*
X16174658Y67748405D01*
X181440044Y3914404D02*
X181519215Y3887615D01*
X51436808Y14287468D02*
X51524201Y14276363D01*
X30304428Y51705129D02*
X30486389Y51988961D01*
X15472490Y7084938D02*
X15395112Y7115447D01*
X13443840Y4495446D02*
X13494424Y4431077D01*
X24826007Y7853612D02*
X24808004Y7807954D01*
X21470708Y11020183D02*
X21780586Y10880090D01*
X183496872Y46271219D02*
X183306113Y46453092D01*
X26583853Y24007001D02*
X26251886Y24101269D01*
X30109389Y51430857D02*
X30304428Y51705129D01*
X50528606Y14720990D02*
X50591968Y14666105D01*
X95209642Y15108100D02*
X95255064Y15037249D01*
X16436561Y66222234D02*
X16459522Y66303091D01*
X67676588Y18166496D02*
X67569615Y18196873D01*
X21780586Y49170591D02*
X22098266Y49045334D01*
X16478549Y5171525D02*
X16493533Y5255433D01*
X184303816Y50550566D02*
X184319623Y50597281D01*
X184265680Y50460372D02*
X184285814Y50504908D01*
X15761925Y6927839D02*
X15692791Y6972159D01*
X18352328Y20660437D02*
X18197839Y20358801D01*
X184994061Y43494237D02*
X184932729Y43759980D01*
X176234211Y50374917D02*
X176260363Y50334124D01*
X183721017Y66903141D02*
X183710182Y66988415D01*
X31184655Y57696699D02*
X31074673Y58021743D01*
X69234526Y15670288D02*
X69248861Y15783103D01*
X180356610Y5171525D02*
X180375636Y5089089D01*
X25406717Y8406664D02*
X25361060Y8388662D01*
X169907761Y9002501D02*
X169862104Y9020503D01*
X158577164Y22473354D02*
X158501079Y22545893D01*
X180612993Y65776250D02*
X180660499Y65709446D01*
X178505919Y47768421D02*
X178240176Y47707087D01*
X69083349Y15136135D02*
X69123712Y15238503D01*
X176994731Y47217066D02*
X176764711Y47084807D01*
X182909447Y65271690D02*
X182978580Y65316011D01*
X176100240Y56573871D02*
X176093846Y56523554D01*
X154848638Y21148252D02*
X154840178Y21036996D01*
X17517100Y16965934D02*
X17544115Y16610668D01*
X95797582Y17507029D02*
X95726731Y17461608D01*
X180612993Y6467601D02*
X180568673Y6398468D01*
X16345141Y67467643D02*
X16307512Y67541112D01*
X18702734Y32676294D02*
X18897773Y32402023D01*
X185042365Y43223748D02*
X184994061Y43494237D01*
X64797792Y15559279D02*
X64822963Y15450217D01*
X170510237Y8229216D02*
X170501396Y8278727D01*
X176748374Y49951853D02*
X176795090Y49936046D01*
X13847248Y58444234D02*
X13796434Y58844122D01*
X69189530Y15450217D02*
X69214701Y15559279D01*
X98413849Y16365518D02*
X98394350Y16450003D01*
X18702734Y59527724D02*
X18520773Y59243891D01*
X24503580Y10330343D02*
X24863572Y10339446D01*
X67569615Y13830314D02*
X67676588Y13860691D01*
X31074673Y53211110D02*
X31184655Y53536153D01*
X96183790Y14345855D02*
X96266656Y14322324D01*
X183230753Y65524075D02*
X183287171Y65583251D01*
X95303749Y17058399D02*
X95255064Y16989934D01*
X15761925Y4102012D02*
X15828729Y4149518D01*
X15235083Y65078651D02*
X15315941Y65101612D01*
X65657493Y14207183D02*
X65745874Y14144334D01*
X53150760Y15037249D02*
X53196181Y15108100D01*
X28414878Y42388446D02*
X28131045Y42570408D01*
X183998948Y57196591D02*
X183960967Y57226439D01*
X183287171Y6660600D02*
X183230753Y6719776D01*
X50167260Y15181227D02*
X50209307Y15108100D01*
X18352328Y52281915D02*
X18520773Y51988961D01*
X183524163Y65916739D02*
X183561791Y65990208D01*
X14983464Y3819807D02*
X15068738Y3830643D01*
X97679416Y14565579D02*
X97747881Y14614264D01*
X180330790Y5689138D02*
X180324210Y5602605D01*
X180375636Y66303091D02*
X180398597Y66222234D01*
X181073231Y68141840D02*
X181006427Y68094335D01*
X13352014Y6398468D02*
X13310986Y6327113D01*
X97382789Y14404576D02*
X97460142Y14439546D01*
X22423310Y24007001D02*
X22098266Y23897018D01*
X29207253Y50438169D02*
X29450205Y50669802D01*
X184932729Y43759980D02*
X184858712Y44020632D01*
X64751993Y16013586D02*
X64754926Y15897583D01*
X158273516Y8752114D02*
X158241916Y8715633D01*
X28953421Y41985731D02*
X28689150Y42193407D01*
X179330245Y47872867D02*
X179051299Y47851656D01*
X94956835Y16013586D02*
X94959107Y15923725D01*
X69123712Y16788676D02*
X69083349Y16891046D01*
X182764624Y68264818D02*
X182689147Y68298941D01*
X14983464Y68424047D02*
X14896931Y68430627D01*
X158184038Y8638233D02*
X158157886Y8597440D01*
X16266484Y4631383D02*
X16307512Y4702738D01*
X53238229Y15181227D02*
X53276793Y15256521D01*
X182978580Y68141840D02*
X182909447Y68186161D01*
X155983833Y22850599D02*
X155892091Y22797848D01*
X181142364Y65271690D02*
X181213719Y65230662D01*
X7114947Y65525610D02*
X6715058Y65576424D01*
X14896931Y65027224D02*
X14983464Y65033804D01*
X176088655Y50896261D02*
X176089964Y50844523D01*
X65657493Y17820003D02*
X65572334Y17753081D01*
X180660499Y65709446D02*
X180711083Y65645077D01*
X156915329Y23112161D02*
X156804074Y23103700D01*
X13158977Y67154760D02*
X13139951Y67072323D01*
X175547073Y38694054D02*
X175728945Y38503294D01*
X68600242Y17607588D02*
X68521953Y17682229D01*
X25273172Y8346324D02*
X25231068Y8322115D01*
X28953421Y61014559D02*
X28689150Y61222235D01*
X66442873Y13830314D02*
X66551935Y13805142D01*
X24808004Y7807954D02*
X24792197Y7761239D01*
X183626422Y4929061D02*
X183653210Y5008232D01*
X13260576Y60737492D02*
X13100560Y61091437D01*
X27226577Y10880090D02*
X27536455Y11020183D01*
X50355255Y17124367D02*
X50303414Y17058399D01*
X30809323Y20358801D02*
X30654834Y20660437D01*
X13396335Y67681601D02*
X13352014Y67612467D01*
X183462206Y49896035D02*
X183512524Y49902429D01*
X182611770Y7115447D02*
X182532600Y7142235D01*
X183340726Y6598774D02*
X183287171Y6660600D01*
X25501144Y8436019D02*
X25453433Y8422471D01*
X96351139Y14302825D02*
X96437132Y14287468D01*
X97139483Y14322324D02*
X97222350Y14345855D01*
X66028936Y13981637D02*
X66128790Y13936494D01*
X157469575Y18778019D02*
X157575565Y18802481D01*
X158091340Y8467450D02*
X158073338Y8421793D01*
X24758581Y7615376D02*
X24752187Y7565059D01*
X5898085Y8764006D02*
X6309270Y8774403D01*
X181006427Y4149518D02*
X181073231Y4102012D01*
X13114130Y66554711D02*
X13124966Y66469437D01*
X28689150Y42193407D02*
X28414878Y42388446D01*
X155053360Y21874041D02*
X155009488Y21776999D01*
X177042333Y57424860D02*
X176991273Y57420978D01*
X14809248Y7218840D02*
X14721564Y7216622D01*
X31435671Y8446516D02*
X31446253Y8467672D01*
X68175155Y17941488D02*
X68080754Y17995767D01*
X94992312Y15661659D02*
X95011811Y15577175D01*
X183561791Y65990208D02*
X183595913Y66065685D01*
X14146007Y65158910D02*
X14223384Y65128401D01*
X31184655Y53536153D02*
X31278923Y53868120D01*
X31418558Y37652957D02*
X31357037Y37997453D01*
X19105450Y41037440D02*
X18897773Y40773168D01*
X31357037Y37997453D02*
X31278923Y38335905D01*
X16504369Y66903141D02*
X16493533Y66988415D01*
X32330322Y7941502D02*
X32306113Y7983605D01*
X155892091Y22797848D02*
X155803206Y22740865D01*
X96792928Y14269619D02*
X96881611Y14276363D01*
X14146007Y7084938D02*
X14070530Y7050816D01*
X154848638Y20700269D02*
X154862570Y20590630D01*
X182532600Y3887615D02*
X182611770Y3914404D01*
X176326503Y46788795D02*
X176119005Y46625732D01*
X10041407Y64460878D02*
X9706792Y64653278D01*
X50209307Y15108100D02*
X50254729Y15037249D01*
X27536455Y42893341D02*
X27226577Y43033434D01*
X180527645Y6327113D02*
X180490016Y6253643D01*
X158901661Y19788275D02*
X158954412Y19880017D01*
X96969004Y17739719D02*
X96881611Y17750824D01*
X52876881Y14720990D02*
X52937528Y14778810D01*
X30809323Y52583551D02*
X30949415Y52893429D01*
X184344398Y56623389D02*
X184333171Y56672032D01*
X159002793Y21874041D02*
X158954412Y21968501D01*
X12924102Y61435968D02*
X12731703Y61770583D01*
X95209642Y16919083D02*
X95167595Y16845955D01*
X68080754Y17995767D02*
X67983554Y18045549D01*
X65337609Y14497886D02*
X65412250Y14419598D01*
X156175334Y18905670D02*
X156274818Y18866444D01*
X24143589Y29601119D02*
X24503580Y29592016D01*
X96023354Y17622611D02*
X95946003Y17587641D01*
X52459815Y14439546D02*
X52535110Y14478110D01*
X13208726Y66143063D02*
X13239235Y66065685D01*
X50726400Y14565579D02*
X50797250Y14520157D01*
X180425385Y67314788D02*
X180398597Y67235617D01*
X16070519Y6660600D02*
X16014100Y6719776D01*
X159215977Y20811525D02*
X159218828Y20924261D01*
X180425385Y66143063D02*
X180455894Y66065685D01*
X21780586Y30141761D02*
X22098266Y30016504D01*
X16345141Y65990208D02*
X16379264Y66065685D01*
X69260500Y16013586D02*
X69257567Y16129590D01*
X181851694Y65033804D02*
X181938227Y65027224D01*
X97139483Y17704863D02*
X97054998Y17724362D01*
X95658268Y17412922D02*
X95592301Y17361081D01*
X155101740Y19880017D02*
X155154490Y19788275D01*
X13352014Y67612467D02*
X13310986Y67541112D01*
X28689150Y11720117D02*
X28953421Y11927793D01*
X15828729Y68094335D02*
X15761925Y68141840D01*
X19105450Y12876085D02*
X19325325Y12622253D01*
X24143589Y48629946D02*
X24503580Y48620844D01*
X13158977Y5940759D02*
X13139951Y5858322D01*
X50467960Y17248375D02*
X50410140Y17187729D01*
X13139951Y5858322D02*
X13124966Y5774413D01*
X29450205Y50669802D02*
X29681838Y50912754D01*
X96613205Y17757568D02*
X96524524Y17750824D01*
X181246286Y37141449D02*
X181501503Y37227804D01*
X52995348Y17187729D02*
X52937528Y17248375D01*
X176940956Y57414584D02*
X176891444Y57405742D01*
X31184655Y34507320D02*
X31278923Y34839288D01*
X184353240Y56573878D02*
X184344398Y56623389D01*
X183230753Y6719776D02*
X183171577Y6776195D01*
X10980732Y10588631D02*
X11270661Y10839774D01*
X18352328Y33253081D02*
X18520773Y32960127D01*
X95062796Y15413172D02*
X95094062Y15333873D01*
X157361692Y23089769D02*
X157252054Y23103700D01*
X53311763Y15333873D02*
X53343030Y15413172D01*
X12523864Y12286909D02*
X12731703Y12611106D01*
X169862104Y9020503D02*
X169815388Y9036309D01*
X49958771Y16103448D02*
X49956499Y16013586D01*
X158864620Y9069926D02*
X158815109Y9061084D01*
X21169072Y42738853D02*
X20876118Y42570408D01*
X13124966Y66988415D02*
X13114130Y66903141D01*
X32450361Y7514001D02*
X32446479Y7565061D01*
X184564012Y44768590D02*
X184442712Y45005427D01*
X14302555Y3887615D02*
X14383413Y3864654D01*
X18352328Y58950937D02*
X18197839Y58649302D01*
X180660499Y4495446D02*
X180711083Y4431077D01*
X26908897Y10754833D02*
X27226577Y10880090D01*
X158965995Y9080202D02*
X158914936Y9076320D01*
X24863572Y10339446D02*
X25218838Y10366461D01*
X15315941Y7142235D02*
X15235083Y7165196D01*
X11270661Y10839774D02*
X11548163Y11104348D01*
X51266329Y17704863D02*
X51183463Y17681332D01*
X170422678Y8511989D02*
X170400475Y8555340D01*
X49965515Y15835044D02*
X49976620Y15747652D01*
X175919704Y46453092D02*
X175728945Y46271219D01*
X30304428Y13414628D02*
X30486389Y13698461D01*
X176119005Y38148782D02*
X176326503Y37985720D01*
X12523864Y62094779D02*
X12301089Y62408055D01*
X156480567Y18802481D02*
X156586556Y18778019D01*
X17822505Y34507320D02*
X17932488Y34182276D01*
X182369307Y68398226D02*
X182285399Y68413211D01*
X155009488Y20071520D02*
X155053360Y19974478D01*
X18520773Y13698461D02*
X18702734Y13414628D01*
X52139159Y14322324D02*
X52222025Y14345855D01*
X158338828Y22679786D02*
X158252936Y22740865D01*
X182200125Y3819807D02*
X182285399Y3830643D01*
X65490539Y14344956D02*
X65572334Y14274104D01*
X170227344Y8787034D02*
X170192427Y8820324D01*
X158496395Y8935953D02*
X158455603Y8909801D01*
X31490060Y16965934D02*
X31499163Y17325926D01*
X32085794Y8238087D02*
X32047812Y8267934D01*
X17932488Y19731243D02*
X17822505Y19406199D01*
X8645458Y9248863D02*
X9008316Y9391933D01*
X53343030Y15413172D02*
X53370484Y15494310D01*
X24748304Y7514001D02*
X24746996Y7462263D01*
X65199835Y17362345D02*
X65136986Y17273964D01*
X23438223Y29672621D02*
X23788323Y29628133D01*
X180330790Y5340707D02*
X180341626Y5255433D01*
X19325325Y22029598D02*
X19105450Y21775767D01*
X97054998Y17724362D02*
X96969004Y17739719D01*
X68745736Y14579680D02*
X68812657Y14664839D01*
X183727597Y66641243D02*
X183729814Y66728926D01*
X15152647Y7184222D02*
X15068738Y7199207D01*
X68988422Y14939082D02*
X69038205Y15036280D01*
X24746996Y7451673D02*
X24746996Y7462263D01*
X22423310Y62297502D02*
X22098266Y62187519D01*
X68674883Y14497886D02*
X68745736Y14579680D01*
X14465849Y65059625D02*
X14549758Y65044640D01*
X176100240Y50743146D02*
X176109082Y50693635D01*
X183653210Y5008232D02*
X183676171Y5089089D01*
X169568144Y9080202D02*
X169516405Y9081510D01*
X52995348Y14839456D02*
X53050234Y14902818D01*
X155154490Y22060243D02*
X155101740Y21968501D01*
X177083483Y57405012D02*
X177094072Y57426168D01*
X27536455Y61922169D02*
X27226577Y62062262D01*
X13124966Y66469437D02*
X13139951Y66385528D01*
X183721017Y66554711D02*
X183727597Y66641243D01*
X31837609Y8388663D02*
X31791951Y8406665D01*
X22423310Y48935351D02*
X22755277Y48841083D01*
X17822505Y19406199D02*
X17728237Y19074232D01*
X13181938Y5008232D02*
X13208726Y4929061D01*
X30486389Y51988961D02*
X30654834Y52281915D01*
X170192427Y8820324D02*
X170155946Y8851925D01*
X158718757Y9036309D02*
X158672042Y9020502D01*
X181440044Y65128401D02*
X181519215Y65101612D01*
X183109752Y68043751D02*
X183045384Y68094335D01*
X180880232Y4253657D02*
X180942058Y4200102D01*
X14809248Y65025007D02*
X14896931Y65027224D01*
X13124966Y5255433D02*
X13139951Y5171525D01*
X17822505Y38667872D02*
X17728237Y38335905D01*
X67676588Y13860691D02*
X67781330Y13896131D01*
X95303749Y14968785D02*
X95355589Y14902818D01*
X176089964Y56472494D02*
X176088655Y56420755D01*
X23093728Y43441056D02*
X22755277Y43362942D01*
X23093728Y62469884D02*
X22755277Y62391770D01*
X69257567Y16129590D02*
X69248861Y16244071D01*
X155101740Y21968501D02*
X155053360Y21874041D01*
X30109389Y32402023D02*
X30304428Y32676294D01*
X159046665Y21776999D02*
X159002793Y21874041D01*
X16379264Y4851684D02*
X16409773Y4929061D01*
X183306113Y38321422D02*
X183496872Y38503294D01*
X183340726Y67812774D02*
X183287171Y67874600D01*
X184442712Y45005427D02*
X184310454Y45235447D01*
X25568939Y29672621D02*
X25913435Y29734141D01*
X95355589Y14902818D02*
X95410474Y14839456D01*
X174551809Y40249229D02*
X174661806Y40005921D01*
X13856572Y65316011D02*
X13925705Y65271690D01*
X13158977Y66303091D02*
X13181938Y66222234D01*
X51524201Y17750824D02*
X51436808Y17739719D01*
X169995649Y8960164D02*
X169952297Y8982367D01*
X52054675Y14302825D02*
X52139159Y14322324D01*
X68354999Y14207183D02*
X68440158Y14274104D01*
X183710182Y5774413D02*
X183695197Y5858322D01*
X96703066Y14267347D02*
X96792928Y14269619D01*
X32420017Y7713531D02*
X32406469Y7761242D01*
X24863572Y48629946D02*
X25218838Y48656961D01*
X17588602Y16260567D02*
X17650123Y15916071D01*
X14721564Y3813227D02*
X14809248Y3811010D01*
X29450205Y22272550D02*
X29207253Y22504184D01*
X13997060Y68227189D02*
X13925705Y68186161D01*
X16307512Y67541112D02*
X16266484Y67612467D01*
X30949415Y20048923D02*
X30809323Y20358801D01*
X178240176Y47707087D02*
X177979524Y47633070D01*
X176133856Y50597281D02*
X176149663Y50550566D01*
X16379264Y6178166D02*
X16345141Y6253643D01*
X31490060Y17685918D02*
X31463045Y18041184D01*
X20592286Y11525078D02*
X20876118Y11343117D01*
X22755277Y29812254D02*
X23093728Y29734141D01*
X50355255Y14902818D02*
X50410140Y14839456D01*
X15235083Y3864654D02*
X15315941Y3887615D01*
X17507997Y17325926D02*
X17517100Y16965934D01*
X183438815Y4562250D02*
X183483135Y4631383D01*
X30654834Y58950937D02*
X30486389Y59243891D01*
X25568939Y43502576D02*
X25218838Y43547064D01*
X16409773Y66143063D02*
X16436561Y66222234D01*
X50128697Y16770660D02*
X50093727Y16693308D01*
X13789768Y68094335D02*
X13725399Y68043751D01*
X16174658Y6534406D02*
X16124074Y6598774D01*
X30949415Y52893429D02*
X31074673Y53211110D01*
X183109752Y65414101D02*
X183171577Y65467656D01*
X184359633Y50793463D02*
X184363516Y50844523D01*
X13208726Y4929061D02*
X13239235Y4851684D01*
X15068738Y7199207D02*
X14983464Y7210042D01*
X23093728Y29734141D02*
X23438223Y29672621D01*
X17507997Y55616426D02*
X17517100Y55256434D01*
X6309270Y65607280D02*
X5898085Y65617678D01*
X32406469Y7761242D02*
X32390662Y7807958D01*
X12924102Y12945721D02*
X13100560Y13290252D01*
X24143589Y43574079D02*
X23788323Y43547064D01*
X16379264Y66065685D02*
X16409773Y66143063D01*
X14383413Y68379200D02*
X14302555Y68356239D01*
X159085892Y20171006D02*
X159120335Y20272797D01*
X158013639Y8127839D02*
X158012331Y8076101D01*
X11812737Y62999837D02*
X11548163Y63277339D01*
X158023915Y8229214D02*
X158017522Y8178898D01*
X16409773Y6100788D02*
X16379264Y6178166D01*
X180764637Y6660600D02*
X180711083Y6598774D01*
X66551935Y18222045D02*
X66442873Y18196873D01*
X9706792Y64653278D02*
X9362261Y64829736D01*
X98429206Y16279524D02*
X98413849Y16365518D01*
X156078293Y18949542D02*
X156175334Y18905670D01*
X20592286Y42388446D02*
X20318014Y42193407D01*
X16504369Y5689138D02*
X16493533Y5774413D01*
X181213719Y68227189D02*
X181142364Y68186161D01*
X23093728Y10472468D02*
X23438223Y10410948D01*
X16459522Y66303091D02*
X16478549Y66385528D01*
X66231159Y18131056D02*
X66128790Y18090693D01*
X184285814Y56812116D02*
X184265680Y56856652D01*
X13352014Y65845384D02*
X13396335Y65776250D01*
X182461103Y47084807D02*
X182231083Y47217066D01*
X181362666Y3944913D02*
X181440044Y3914404D01*
X64888781Y16788676D02*
X64853340Y16683934D01*
X182231083Y37557451D02*
X182461103Y37689709D01*
X16459522Y5089089D02*
X16478549Y5171525D01*
X29207253Y12147668D02*
X29450205Y12379301D01*
X174453461Y40498664D02*
X174551809Y40249229D01*
X177724309Y47546714D02*
X177474874Y47448365D01*
X64754926Y15897583D02*
X64763632Y15783103D01*
X175211373Y45673657D02*
X175058234Y45458306D01*
X24868344Y7941499D02*
X24846141Y7898147D01*
X156804074Y23103700D02*
X156694438Y23089769D01*
X184165085Y57022319D02*
X184135238Y57060301D01*
X23788323Y62575892D02*
X23438223Y62531404D01*
X183483135Y4631383D02*
X183524163Y4702738D01*
X16174658Y65709446D02*
X16222164Y65776250D01*
X20053742Y31189461D02*
X20318014Y30981785D01*
X158577164Y19375165D02*
X158649703Y19451248D01*
X95468294Y14778810D02*
X95528940Y14720990D01*
X182532600Y68356239D02*
X182451743Y68379200D01*
X22755277Y10550582D02*
X23093728Y10472468D01*
X52382463Y17622611D02*
X52303163Y17653878D01*
X183109752Y4200102D02*
X183171577Y4253657D01*
X17932488Y34182276D02*
X18057746Y33864595D01*
X182451743Y7165196D02*
X182369307Y7184222D01*
X16436561Y6021617D02*
X16409773Y6100788D01*
X179051299Y47851656D02*
X178776409Y47816725D01*
X98449327Y16013586D02*
X98447055Y16103448D01*
X181851694Y7210042D02*
X181766420Y7199207D01*
X13796434Y58844122D02*
X13726165Y59237608D01*
X155478983Y19375165D02*
X155555066Y19302626D01*
X68600242Y14419598D02*
X68674883Y14497886D01*
X155803206Y19107655D02*
X155892091Y19050672D01*
X18197839Y52583551D02*
X18352328Y52281915D01*
X31278923Y34839288D02*
X31357037Y35177740D01*
X181073231Y65316011D02*
X181142364Y65271690D01*
X180321993Y5514921D02*
X180324210Y5427238D01*
X184319623Y56719743D02*
X184303816Y56766458D01*
X176318242Y50256723D02*
X176349842Y50220242D01*
X27838091Y30436342D02*
X28131045Y30604786D01*
X179612902Y36894506D02*
X179895560Y36901653D01*
X157679525Y23016519D02*
X157575565Y23046040D01*
X68988422Y17088100D02*
X68934142Y17182502D01*
X94965850Y15835044D02*
X94976955Y15747652D01*
X180375636Y5089089D02*
X180398597Y5008232D01*
X20318014Y11720117D02*
X20592286Y11525078D01*
X170078546Y8909803D02*
X170037753Y8935955D01*
X176109082Y50693635D02*
X176120308Y50644992D01*
X29681838Y31883920D02*
X29901712Y32137751D01*
X64777967Y16356888D02*
X64763632Y16244071D01*
X67781330Y18131056D02*
X67676588Y18166496D01*
X182451743Y65078651D02*
X182532600Y65101612D01*
X176658180Y57327024D02*
X176614828Y57304821D01*
X52813520Y17361081D02*
X52747552Y17412922D01*
X22423310Y29906522D02*
X22755277Y29812254D01*
X184303816Y56766458D02*
X184285814Y56812116D01*
X18897773Y59801996D02*
X18702734Y59527724D01*
X22098266Y43158691D02*
X21780586Y43033434D01*
X184353240Y50743146D02*
X184359633Y50793463D01*
X158072307Y18997922D02*
X158164049Y19050672D01*
X176089964Y50844523D02*
X176093846Y50793463D01*
X181362666Y7084938D02*
X181287189Y7050816D01*
X19556958Y50669802D02*
X19799910Y50438169D01*
X174661806Y40005921D02*
X174783105Y39769084D01*
X30109389Y59801996D02*
X29901712Y60066267D01*
X50797250Y14520157D02*
X50870378Y14478110D01*
X13260576Y13644198D02*
X13403646Y14007056D01*
X184103637Y57096782D02*
X184070347Y57131699D01*
X50870378Y14478110D02*
X50945672Y14439546D01*
X154935820Y20272797D02*
X154970262Y20171006D01*
X96969004Y14287468D02*
X97054998Y14302825D01*
X69038205Y15036280D02*
X69083349Y15136135D01*
X182200125Y7210042D02*
X182113594Y7216622D01*
X176891444Y57405742D02*
X176842801Y57394516D01*
X67460553Y13805142D02*
X67569615Y13830314D01*
X14302555Y7142235D02*
X14223384Y7115447D01*
X13789768Y6880333D02*
X13725399Y6829750D01*
X53413514Y15661659D02*
X53428871Y15747652D01*
X29207253Y22504184D02*
X28953421Y22724058D01*
X180490016Y65990208D02*
X180527645Y65916739D01*
X183391309Y67748405D02*
X183340726Y67812774D01*
X13878105Y16343245D02*
X13888502Y16754431D01*
X176088655Y50896261D02*
X176088655Y56410177D01*
X29207253Y60794684D02*
X28953421Y61014559D01*
X183561791Y4776207D02*
X183595913Y4851684D01*
X7508433Y65455341D02*
X7114947Y65525610D01*
X182764624Y65193033D02*
X182838093Y65230662D01*
X50167260Y16845955D02*
X50128697Y16770660D01*
X155478983Y22473354D02*
X155406444Y22397271D01*
X32122275Y8206486D02*
X32085794Y8238087D01*
X13107550Y5427238D02*
X13114130Y5340707D01*
X170376266Y8597444D02*
X170350114Y8638236D01*
X13547979Y4369251D02*
X13604398Y4310076D01*
X170460814Y8421796D02*
X170442812Y8467453D01*
X25913435Y62469884D02*
X25568939Y62531404D01*
X30809323Y39620474D02*
X30654834Y39922110D01*
X64929144Y16891046D02*
X64888781Y16788676D01*
X16510949Y5602605D02*
X16504369Y5689138D01*
X24863572Y24312406D02*
X24503580Y24321508D01*
X28689150Y50010618D02*
X28953421Y50218294D01*
X52139159Y17704863D02*
X52054675Y17724362D01*
X14223384Y3914404D02*
X14302555Y3887615D01*
X185098507Y42669914D02*
X185077295Y42948859D01*
X17932488Y14920609D02*
X18057746Y14602928D01*
X181994246Y37436150D02*
X182231083Y37557451D01*
X182200125Y65033804D02*
X182285399Y65044640D01*
X29901712Y12876085D02*
X30109389Y13140356D01*
X13273357Y6253643D02*
X13239235Y6178166D01*
X183653210Y6021617D02*
X183626422Y6100788D01*
X184165085Y50294705D02*
X184193116Y50334124D01*
X98394350Y16450003D02*
X98370819Y16532869D01*
X14721564Y68430627D02*
X14635032Y68424047D01*
X13139951Y5171525D02*
X13158977Y5089089D01*
X65266757Y14579680D02*
X65337609Y14497886D01*
X158111475Y8511986D02*
X158091340Y8467450D01*
X26583853Y48935351D02*
X26908897Y49045334D01*
X15547967Y65193033D02*
X15621436Y65230662D01*
X181750938Y47448365D02*
X181501503Y47546714D01*
X156694438Y23089769D02*
X156586556Y23070503D01*
X179895560Y36901653D02*
X180174507Y36922865D01*
X184070347Y57131699D02*
X184035429Y57164990D01*
X15547967Y7050816D02*
X15472490Y7084938D01*
X14549758Y65044640D02*
X14635032Y65033804D01*
X159207517Y21148252D02*
X159193585Y21257890D01*
X174783105Y45005427D02*
X174661806Y44768590D01*
X30949415Y58339424D02*
X30809323Y58649302D01*
X177094072Y49890844D02*
X177083483Y49890840D01*
X8645458Y65132821D02*
X8274191Y65258444D01*
X174453461Y44275848D02*
X174367106Y44020632D01*
X156694438Y18758753D02*
X156804074Y18744821D01*
X50303414Y14968785D02*
X50355255Y14902818D01*
X96524524Y17750824D02*
X96437132Y17739719D01*
X96183790Y17681332D02*
X96102653Y17653878D01*
X16070519Y65583251D02*
X16124074Y65645077D01*
X14465849Y3845628D02*
X14549758Y3830643D01*
X68934142Y17182502D02*
X68875507Y17273964D01*
X15761925Y65316011D02*
X15828729Y65363517D01*
X183880755Y50036402D02*
X183921548Y50062554D01*
X24918706Y8024395D02*
X24892554Y7983602D01*
X159174319Y20482747D02*
X159193585Y20590630D01*
X174293090Y43759980D02*
X174231757Y43494237D01*
X178776409Y47816725D02*
X178505919Y47768421D01*
X17728237Y38335905D02*
X17650123Y37997453D01*
X50657935Y14614264D02*
X50726400Y14565579D01*
X183483135Y6398468D02*
X183438815Y6467601D01*
X28131045Y11343117D02*
X28414878Y11525078D01*
X183610679Y57394527D02*
X183562036Y57405753D01*
X65931737Y17995767D02*
X65837336Y17941488D01*
X14302555Y65101612D02*
X14383413Y65078651D01*
X50011475Y15577175D02*
X50035006Y15494310D01*
X65136986Y14753219D02*
X65199835Y14664839D01*
X176531931Y50062554D02*
X176572724Y50036402D01*
X29901712Y51166585D02*
X30109389Y51430857D01*
X13124966Y5774413D02*
X13114130Y5689138D01*
X17728237Y15577620D02*
X17822505Y15245653D01*
X158421588Y22614749D02*
X158338828Y22679786D01*
X13310986Y67541112D02*
X13273357Y67467643D01*
X181519215Y68356239D02*
X181440044Y68329450D01*
X13107550Y5602605D02*
X13105333Y5514921D01*
X23093728Y24179383D02*
X22755277Y24101269D01*
X16307512Y65916739D02*
X16345141Y65990208D01*
X184364824Y50896261D02*
X184343645Y50885675D01*
X176658180Y49989989D02*
X176702716Y49969855D01*
X26908897Y43158691D02*
X26583853Y43268674D01*
X69189530Y16576961D02*
X69159153Y16683934D01*
X13663574Y65467656D02*
X13725399Y65414101D01*
X157575565Y18802481D02*
X157679525Y18832002D01*
X158252936Y19107655D02*
X158338828Y19168734D01*
X14721564Y7216622D02*
X14635032Y7210042D01*
X26908897Y30016504D02*
X27226577Y30141761D01*
X159007158Y9060339D02*
X169505831Y9060339D01*
X25741831Y8446516D02*
X31435671Y8446516D01*
X184035429Y57164990D02*
X183998948Y57196591D01*
X175547073Y46080459D02*
X175374434Y45881157D01*
X170117965Y8881772D02*
X170078546Y8909803D01*
X182689147Y65158910D02*
X182764624Y65193033D01*
X19799910Y41765857D02*
X19556958Y41534223D01*
X16478549Y66385528D02*
X16493533Y66469437D01*
X158252936Y22740865D02*
X158164049Y22797848D01*
X96437132Y17739719D02*
X96351139Y17724362D01*
X65931737Y14031420D02*
X66028936Y13981637D01*
X180612993Y67681601D02*
X180568673Y67612467D01*
X95011811Y15577175D02*
X95035342Y15494310D01*
X19325325Y60320099D02*
X19105450Y60066267D01*
X15395112Y65128401D02*
X15472490Y65158910D01*
X21780586Y23771761D02*
X21470708Y23631668D01*
X159017733Y9081510D02*
X159007158Y9060339D01*
X154970262Y20171006D02*
X155009488Y20071520D01*
X14549758Y68413211D02*
X14465849Y68398226D01*
X185077295Y42948859D02*
X185042365Y43223748D01*
X159085892Y21677513D02*
X159046665Y21776999D01*
X53343030Y16614008D02*
X53311763Y16693308D01*
X176109082Y56623382D02*
X176100240Y56573871D01*
X13604398Y67933776D02*
X13547979Y67874600D01*
X176842801Y49922498D02*
X176891444Y49911271D01*
X176288394Y57022312D02*
X176260363Y56982893D01*
X157252054Y23103700D02*
X157140798Y23112161D01*
X51612883Y17757568D02*
X51524201Y17750824D01*
X31599369Y8456088D02*
X31549052Y8462481D01*
X98196515Y15108100D02*
X98238563Y15181227D01*
X24143589Y10339446D02*
X24503580Y10330343D01*
X97937858Y14778810D02*
X97995680Y14839456D01*
X66551935Y13805142D02*
X66662944Y13785318D01*
X22098266Y49045334D02*
X22423310Y48935351D01*
X66890240Y13762277D02*
X67006243Y13759344D01*
X65572334Y14274104D02*
X65657493Y14207183D01*
X176764711Y37689709D02*
X176994731Y37557451D01*
X53196181Y16919083D02*
X53150760Y16989934D01*
X95592301Y17361081D02*
X95528940Y17306196D01*
X68812657Y17362345D02*
X68745736Y17447504D01*
X65199835Y14664839D02*
X65266757Y14579680D01*
X28414878Y23126773D02*
X28131045Y23308735D01*
X14070530Y7050816D02*
X13997060Y7013187D01*
X97222350Y14345855D02*
X97303488Y14373309D01*
X28953421Y50218294D02*
X29207253Y50438169D01*
X155053360Y19974478D02*
X155101740Y19880017D01*
X5898085Y8764006D02*
X5887499Y8742842D01*
X13856572Y4102012D02*
X13925705Y4057692D01*
X180660499Y6534406D02*
X180612993Y6467601D01*
X180942058Y68043751D02*
X180880232Y67990195D01*
X158914936Y9076320D02*
X158864620Y9069926D01*
X181682510Y65059625D02*
X181766420Y65044640D01*
X183678744Y38694054D02*
X183851383Y38893355D01*
X183678744Y46080459D02*
X183496872Y46271219D01*
X95528940Y17306196D02*
X95468294Y17248375D01*
X176120308Y50644992D02*
X176133856Y50597281D01*
X14223384Y65128401D02*
X14302555Y65101612D01*
X157977845Y18949542D02*
X158072307Y18997922D01*
X180985633Y47707087D02*
X180719889Y47768421D01*
X17544115Y35872338D02*
X17588602Y35522236D01*
X159218828Y20924261D02*
X159215977Y21036996D01*
X15692791Y68186161D02*
X15621436Y68227189D01*
X184219268Y56942107D02*
X184193116Y56982900D01*
X24863572Y43574079D02*
X24503580Y43583181D01*
X176795090Y49936046D02*
X176842801Y49922498D01*
X16436561Y67235617D02*
X16409773Y67314788D01*
X177474874Y47448365D02*
X177231567Y47338367D01*
X14635032Y7210042D02*
X14549758Y7199207D01*
X180341626Y5255433D02*
X180356610Y5171525D01*
X95528940Y14720990D02*
X95592301Y14666105D01*
X13888502Y57616674D02*
X13888502Y16754431D01*
X183705106Y49951853D02*
X183750764Y49969855D01*
X184285814Y50504908D02*
X184303816Y50550566D01*
X31745235Y8422471D02*
X31697524Y8436019D01*
X180324210Y5427238D02*
X180330790Y5340707D01*
X180490016Y4776207D02*
X180527645Y4702738D01*
X175058234Y39316206D02*
X175211373Y39100855D01*
X66442873Y18196873D02*
X66335901Y18166496D01*
X180375636Y67154760D02*
X180356610Y67072323D01*
X64822963Y16576961D02*
X64797792Y16467898D01*
X16459522Y5940759D02*
X16436561Y6021617D01*
X31278923Y38335905D02*
X31184655Y38667872D01*
X180356610Y66385528D02*
X180375636Y66303091D01*
X68354999Y17820003D02*
X68266617Y17882852D01*
X65572334Y17753081D02*
X65490539Y17682229D01*
X67569615Y18196873D02*
X67460553Y18222045D01*
X17517100Y36947591D02*
X17507997Y36587599D01*
X31278923Y19074232D02*
X31184655Y19406199D01*
X14070530Y3979035D02*
X14146007Y3944913D01*
X25913435Y10472468D02*
X26251886Y10550582D01*
X158538499Y8960162D02*
X158496395Y8935953D01*
X53238229Y16845955D02*
X53196181Y16919083D01*
X16493533Y66469437D02*
X16504369Y66554711D01*
X184343645Y56410177D02*
X184343645Y50885675D01*
X183626422Y6100788D02*
X183595913Y6178166D01*
X182838093Y68227189D02*
X182764624Y68264818D01*
X182025911Y7218840D02*
X181938227Y7216622D01*
X176133856Y56719736D02*
X176120308Y56672025D01*
X17588602Y35522236D02*
X17650123Y35177740D01*
X158012331Y8065512D02*
X158012331Y8076101D01*
X176167665Y50504908D02*
X176187799Y50460372D01*
X98151093Y16989934D02*
X98102406Y17058399D01*
X181994246Y47338367D02*
X181750938Y47448365D01*
X13726165Y15144082D02*
X13796434Y15537568D01*
X183348833Y49890840D02*
X177083483Y49890840D01*
X158815109Y9061084D02*
X158766467Y9049857D01*
X13114130Y5689138D02*
X13107550Y5602605D01*
X154970262Y21677513D02*
X154935820Y21575722D01*
X30304428Y40498896D02*
X30109389Y40773168D01*
X17650123Y54206572D02*
X17728237Y53868120D01*
X26251886Y10550582D02*
X26583853Y10644850D01*
X24892554Y7983602D02*
X24868344Y7941499D01*
X50945672Y17587641D02*
X50870378Y17549077D01*
X184772357Y44275848D02*
X184674009Y44525282D01*
X66128790Y18090693D02*
X66028936Y18045549D01*
X14465849Y7184222D02*
X14383413Y7165196D01*
X180568673Y4631383D02*
X180612993Y4562250D01*
X97679416Y17461608D02*
X97608565Y17507029D01*
X10365603Y10128646D02*
X10678879Y10351421D01*
X13494424Y4431077D02*
X13547979Y4369251D01*
X18897773Y13140356D02*
X19105450Y12876085D01*
X158455603Y8909801D02*
X158416185Y8881770D01*
X179895560Y47872867D02*
X179612902Y47880014D01*
X23438223Y24240904D02*
X23093728Y24179383D01*
X170350114Y8638236D02*
X170322083Y8677655D01*
X25076394Y8206483D02*
X25041476Y8173193D01*
X95726731Y14565579D02*
X95797582Y14520157D01*
X13725399Y4200102D02*
X13789768Y4149518D01*
X13997060Y7013187D02*
X13925705Y6972159D01*
X24746996Y212683D02*
X24746996Y7451673D01*
X154881836Y20482747D02*
X154906299Y20376757D01*
X180880232Y67990195D02*
X180821056Y67933776D01*
X13725399Y6829750D02*
X13663574Y6776195D01*
X51612883Y14269619D02*
X51702745Y14267347D01*
X50657935Y17412922D02*
X50591968Y17361081D01*
X53439976Y15835044D02*
X53446719Y15923725D01*
X31074673Y34182276D02*
X31184655Y34507320D01*
X15893098Y68043751D02*
X15828729Y68094335D01*
X16504369Y66554711D02*
X16510949Y66641243D01*
X97937858Y17248375D02*
X97877212Y17306196D01*
X66231159Y13896131D02*
X66335901Y13860691D01*
X28131045Y23308735D02*
X27838091Y23477180D01*
X13878105Y58038446D02*
X13847248Y58444234D01*
X158421588Y19233770D02*
X158501079Y19302626D01*
X14635032Y68424047D02*
X14549758Y68413211D01*
X15472490Y3944913D02*
X15547967Y3979035D01*
X69214701Y15559279D02*
X69234526Y15670288D01*
X183230753Y67933776D02*
X183171577Y67990195D01*
X183462206Y57420989D02*
X183411146Y57424872D01*
X13604398Y65524075D02*
X13663574Y65467656D01*
X19799910Y50438169D02*
X20053742Y50218294D01*
X180711083Y4431077D02*
X180764637Y4369251D01*
X13494424Y67812774D02*
X13443840Y67748405D01*
X180711083Y65645077D02*
X180764637Y65583251D01*
X183626422Y66143063D02*
X183653210Y66222234D01*
X17517100Y17685918D02*
X17507997Y17325926D01*
X19799910Y22504184D02*
X19556958Y22272550D01*
X18057746Y39310596D02*
X17932488Y38992916D01*
X155211473Y22149129D02*
X155154490Y22060243D01*
X31074673Y58021743D02*
X30949415Y58339424D01*
X25218838Y62575892D02*
X24863572Y62602906D01*
X31463045Y35872338D02*
X31490060Y36227605D01*
X15692791Y6972159D02*
X15621436Y7013187D01*
X158073338Y8421793D02*
X158057532Y8375077D01*
X13888502Y57627260D02*
X13888502Y57616674D01*
X184363516Y50844523D02*
X184364824Y50896261D01*
X157880803Y18905670D02*
X157977845Y18949542D01*
X183626422Y67314788D02*
X183595913Y67392166D01*
X25361060Y8388662D02*
X25316524Y8368527D01*
X179330245Y36901653D02*
X179612902Y36894506D01*
X28689150Y22931734D02*
X28414878Y23126773D01*
X96881611Y14276363D02*
X96969004Y14287468D01*
X157140798Y18736361D02*
X157252054Y18744821D01*
X176349842Y57096774D02*
X176318242Y57060293D01*
X95167595Y16845955D02*
X95129032Y16770660D01*
X490000Y65617674D02*
X5887499Y65617674D01*
X50062460Y15413172D02*
X50093727Y15333873D01*
X53394015Y16450003D02*
X53370484Y16532869D01*
X22098266Y62187519D02*
X21780586Y62062262D01*
X17650123Y37997453D02*
X17588602Y37652957D01*
X32451670Y7462263D02*
X32450361Y7514001D01*
X181287189Y65193033D02*
X181362666Y65158910D01*
X18057746Y14602928D02*
X18197839Y14293050D01*
X188513491Y212683D02*
X188513491Y72010000D01*
X25041476Y8173193D02*
X25008185Y8138276D01*
X15828729Y4149518D02*
X15893098Y4200102D01*
X28414878Y30786747D02*
X28689150Y30981785D01*
X13529269Y60003366D02*
X13403646Y60374634D01*
X15954924Y65467656D02*
X16014100Y65524075D01*
X53428871Y15747652D02*
X53439976Y15835044D01*
X14721564Y65027224D02*
X14809248Y65025007D01*
X154881836Y21365773D02*
X154862570Y21257890D01*
X53276793Y15256521D02*
X53311763Y15333873D01*
X156175334Y22942851D02*
X156078293Y22898979D01*
X156274818Y22982077D02*
X156175334Y22942851D01*
X13547979Y6660600D02*
X13494424Y6598774D01*
X95129032Y16770660D02*
X95094062Y16693308D01*
X25913435Y24179383D02*
X25568939Y24240904D01*
X31499163Y36587599D02*
X31490060Y36947591D01*
X64929144Y15136135D02*
X64974288Y15036280D01*
X24503580Y43583181D02*
X24143589Y43574079D01*
X32190483Y8138279D02*
X32157192Y8173196D01*
X183287171Y65583251D02*
X183340726Y65645077D01*
X15315941Y3887615D02*
X15395112Y3914404D01*
X16124074Y67812774D02*
X16070519Y67874600D01*
X97608565Y17507029D02*
X97535437Y17549077D01*
X177979524Y37141449D02*
X178240176Y37067432D01*
X18057746Y58339424D02*
X17932488Y58021743D01*
X183595913Y67392166D02*
X183561791Y67467643D01*
X20053742Y41985731D02*
X19799910Y41765857D01*
X157977845Y22898979D02*
X157880803Y22942851D01*
X176991273Y49896035D02*
X177042333Y49892152D01*
X53276793Y16770660D02*
X53238229Y16845955D01*
X182231083Y47217066D02*
X181994246Y47338367D01*
X183658390Y57380978D02*
X183610679Y57394527D01*
X23438223Y10410948D02*
X23788323Y10366461D01*
X25218838Y48656961D02*
X25568939Y48701449D01*
X180985633Y37067432D02*
X181246286Y37141449D01*
X68266617Y14144334D02*
X68354999Y14207183D01*
X22755277Y62391770D02*
X22423310Y62297502D01*
X15472490Y65158910D02*
X15547967Y65193033D01*
X5887499Y8742842D02*
X490000Y8742842D01*
X52054675Y17724362D02*
X51968681Y17739719D01*
X25453433Y8422471D02*
X25406717Y8406664D01*
X27536455Y11020183D02*
X27838091Y11174672D01*
X29450205Y41534223D02*
X29207253Y41765857D01*
X177042333Y49892152D02*
X177094072Y49890844D01*
X170516631Y8178899D02*
X170510237Y8229216D01*
X14635032Y3819807D02*
X14721564Y3813227D01*
X31490060Y55256434D02*
X31499163Y55616426D01*
X15621436Y68227189D02*
X15547967Y68264818D01*
X18897773Y40773168D02*
X18702734Y40498896D01*
X182899312Y46788795D02*
X182683961Y46941935D01*
X8274191Y65258444D02*
X7895015Y65366118D01*
X16174658Y67748405D02*
X16124074Y67812774D01*
X180341626Y5774413D02*
X180330790Y5689138D01*
X170292236Y8715636D02*
X170260635Y8752117D01*
X181362666Y68298941D02*
X181287189Y68264818D01*
X183705106Y57365171D02*
X183658390Y57380978D01*
X14383413Y65078651D02*
X14465849Y65059625D01*
X18197839Y58649302D02*
X18057746Y58339424D01*
X182611770Y3914404D02*
X182689147Y3944913D01*
X175374434Y38893355D02*
X175547073Y38694054D01*
X16014100Y6719776D02*
X15954924Y6776195D01*
X183171577Y65467656D02*
X183230753Y65524075D01*
X51102325Y17653878D02*
X51023025Y17622611D01*
X22423310Y10644850D02*
X22755277Y10550582D01*
X181006427Y6880333D02*
X180942058Y6829750D01*
X5887499Y65617674D02*
X5898085Y65617678D01*
X176288394Y50294705D02*
X176318242Y50256723D01*
X181938227Y65027224D02*
X182025911Y65025007D01*
X15621436Y7013187D02*
X15547967Y7050816D01*
X156586556Y18778019D02*
X156694438Y18758753D01*
X67983554Y13981637D02*
X68080754Y14031420D01*
X182689147Y3944913D02*
X182764624Y3979035D01*
X180341626Y66988415D02*
X180330790Y66903141D01*
X64777967Y15670288D02*
X64797792Y15559279D01*
X96266656Y17704863D02*
X96183790Y17681332D01*
X15068738Y65044640D02*
X15152647Y65059625D01*
X181682510Y3845628D02*
X181766420Y3830643D01*
X49965515Y16192131D02*
X49958771Y16103448D01*
X32431243Y7664889D02*
X32420017Y7713531D01*
X158072307Y22850599D02*
X157977845Y22898979D01*
X170500658Y8065512D02*
X170500658Y212683D01*
X17588602Y54551068D02*
X17650123Y54206572D01*
X183391309Y4495446D02*
X183438815Y4562250D01*
X9008316Y64989751D02*
X8645458Y65132821D01*
X50254729Y16989934D02*
X50209307Y16919083D01*
X176187799Y56856645D02*
X176167665Y56812109D01*
X32157192Y8173196D02*
X32122275Y8206486D01*
X98238563Y16845955D02*
X98196515Y16919083D01*
X170400475Y8555340D02*
X170376266Y8597444D01*
X95355589Y17124367D02*
X95303749Y17058399D01*
X15068738Y3830643D02*
X15152647Y3845628D01*
X184319623Y50597281D02*
X184333171Y50644992D01*
X65412250Y14419598D02*
X65490539Y14344956D01*
X23438223Y48701449D02*
X23788323Y48656961D01*
X176418050Y57164982D02*
X176383133Y57131691D01*
X20318014Y30981785D02*
X20592286Y30786747D01*
X176531931Y57254461D02*
X176492513Y57226430D01*
X13107550Y66641243D02*
X13114130Y66554711D01*
X182838093Y7013187D02*
X182764624Y7050816D01*
X18057746Y33864595D02*
X18197839Y33554717D01*
X9362261Y9551949D02*
X9706792Y9728407D01*
X17728237Y19074232D02*
X17650123Y18735780D01*
X156915329Y18736361D02*
X157028063Y18733511D01*
X188513491Y72010000D02*
X490000Y72010000D01*
X181213719Y4016664D02*
X181287189Y3979035D01*
X30654834Y33253081D02*
X30809323Y33554717D01*
X13100560Y61091437D02*
X12924102Y61435968D01*
X97813850Y17361081D02*
X97747881Y17412922D01*
X20876118Y42570408D02*
X20592286Y42388446D01*
X181938227Y68430627D02*
X181851694Y68424047D01*
X182113594Y3813227D02*
X182200125Y3819807D01*
X13396335Y6467601D02*
X13352014Y6398468D01*
X174293090Y41014532D02*
X174367106Y40753880D01*
X182369307Y7184222D02*
X182285399Y7199207D01*
X20876118Y30604786D02*
X21169072Y30436342D01*
X51436808Y17739719D02*
X51350814Y17724362D01*
X174915363Y45235447D02*
X174783105Y45005427D01*
X64853340Y15343245D02*
X64888781Y15238503D01*
X169505831Y9060339D02*
X169516405Y9081510D01*
X155717315Y22679786D02*
X155634556Y22614749D01*
X27226577Y30141761D02*
X27536455Y30281853D01*
X69083349Y16891046D02*
X69038205Y16990901D01*
X156586556Y23070503D02*
X156480567Y23046040D01*
X69123712Y15238503D02*
X69159153Y15343245D01*
X175728945Y38503294D02*
X175919704Y38321422D01*
X98196515Y16919083D02*
X98151093Y16989934D01*
X15621436Y4016664D02*
X15692791Y4057692D01*
X24143589Y24312406D02*
X23788323Y24285391D01*
X13181938Y67235617D02*
X13158977Y67154760D01*
X13925705Y6972159D02*
X13856572Y6927839D01*
X15547967Y68264818D02*
X15472490Y68298941D01*
X98440312Y15835044D02*
X98447055Y15923725D01*
X176210002Y50417020D02*
X176234211Y50374917D01*
X183695197Y5858322D02*
X183676171Y5940759D01*
X181851694Y68424047D02*
X181766420Y68413211D01*
X159017733Y9081510D02*
X158965995Y9080202D01*
X15893098Y4200102D02*
X15954924Y4253657D01*
X67236727Y18256205D02*
X67122246Y18264910D01*
X180942058Y65414101D02*
X181006427Y65363517D01*
X180425385Y6100788D02*
X180398597Y6021617D01*
X21470708Y30281853D02*
X21780586Y30141761D01*
X176260363Y50334124D02*
X176288394Y50294705D01*
X156376609Y18832002D02*
X156480567Y18802481D01*
X170490169Y8327370D02*
X170476621Y8375080D01*
X30486389Y40215064D02*
X30304428Y40498896D01*
X15621436Y65230662D02*
X15692791Y65271690D01*
X69159153Y15343245D02*
X69189530Y15450217D01*
X183391309Y65709446D02*
X183438815Y65776250D01*
X18702734Y21237223D02*
X18520773Y20953391D01*
X184167584Y45458306D02*
X184014445Y45673657D01*
X174148523Y42948859D02*
X174127312Y42669914D01*
X18897773Y21511495D02*
X18702734Y21237223D01*
X15954924Y67990195D02*
X15893098Y68043751D01*
X31549052Y8462481D02*
X31497992Y8466364D01*
X176088655Y56420755D02*
X176088655Y56410177D01*
X65745874Y14144334D02*
X65837336Y14085699D01*
X24846141Y7898147D02*
X24826007Y7853612D01*
X95870708Y17549077D02*
X95797582Y17507029D01*
X180660499Y67748405D02*
X180612993Y67681601D01*
X184442712Y39769084D02*
X184564012Y40005921D01*
X183562036Y49911271D02*
X183610679Y49922498D01*
X15893098Y65414101D02*
X15954924Y65467656D01*
X51968681Y17739719D02*
X51881289Y17750824D01*
X12731703Y61770583D02*
X12523864Y62094779D01*
X183727597Y66816609D02*
X183721017Y66903141D01*
X176492513Y57226430D02*
X176454531Y57196582D01*
X9008316Y9391933D02*
X9362261Y9551949D01*
X97877212Y17306196D02*
X97813850Y17361081D01*
X176748374Y57365161D02*
X176702716Y57347159D01*
X181142364Y4057692D02*
X181213719Y4016664D01*
X98312097Y15333873D02*
X98343364Y15413172D01*
X95870708Y14478110D02*
X95946003Y14439546D01*
X183340726Y65645077D02*
X183391309Y65709446D01*
X51881289Y14276363D02*
X51968681Y14287468D01*
X183171577Y4253657D02*
X183230753Y4310076D01*
X23438223Y62531404D02*
X23093728Y62469884D01*
X98050565Y14902818D02*
X98102406Y14968785D01*
X95035342Y15494310D02*
X95062796Y15413172D01*
X180527645Y65916739D02*
X180568673Y65845384D01*
X180612993Y4562250D02*
X180660499Y4495446D01*
X65024070Y14939082D02*
X65078350Y14844681D01*
X181501503Y47546714D02*
X181246286Y47633070D01*
X176991273Y57420978D02*
X176940956Y57414584D01*
X176702716Y57347159D02*
X176658180Y57327024D01*
X155555066Y19302626D02*
X155634556Y19233770D01*
X170322083Y8677655D02*
X170292236Y8715636D01*
X25568939Y24240904D02*
X25218838Y24285391D01*
X52747552Y17412922D02*
X52679088Y17461608D01*
X16513166Y66728926D02*
X16510949Y66816609D01*
X20053742Y11927793D02*
X20318014Y11720117D01*
X182025911Y65025007D02*
X182113594Y65027224D01*
X181440044Y68329450D02*
X181362666Y68298941D01*
X17544115Y37302857D02*
X17517100Y36947591D01*
X176093846Y56523554D02*
X176089964Y56472494D01*
X182369307Y65059625D02*
X182451743Y65078651D01*
X7895015Y65366118D02*
X7508433Y65455341D01*
X14070530Y68264818D02*
X13997060Y68227189D01*
X51183463Y17681332D02*
X51102325Y17653878D01*
X184858712Y44020632D02*
X184772357Y44275848D01*
X65266757Y17447504D02*
X65199835Y17362345D01*
X181600073Y68379200D02*
X181519215Y68356239D01*
X176383133Y57131691D02*
X176349842Y57096774D01*
X184070347Y50185325D02*
X184103637Y50220242D01*
X180174507Y36922865D02*
X180449398Y36957795D01*
X159149856Y21471763D02*
X159120335Y21575722D01*
X180330790Y66554711D02*
X180341626Y66469437D01*
X20053742Y61014559D02*
X19799910Y60794684D01*
X181766420Y68413211D02*
X181682510Y68398226D01*
X23438223Y43502576D02*
X23093728Y43441056D01*
X19556958Y22272550D02*
X19325325Y22029598D01*
X97460142Y17587641D02*
X97382789Y17622611D01*
X181682510Y68398226D02*
X181600073Y68379200D01*
X27226577Y49170591D02*
X27536455Y49310684D01*
X64974288Y15036280D02*
X65024070Y14939082D01*
X176614828Y57304821D02*
X176572724Y57280612D01*
X29450205Y60563051D02*
X29207253Y60794684D01*
X67883699Y18090693D02*
X67781330Y18131056D01*
X68440158Y14274104D02*
X68521953Y14344956D01*
X182025911Y68432844D02*
X181938227Y68430627D01*
X67349543Y18241869D02*
X67236727Y18256205D01*
X158626385Y9002500D02*
X158581850Y8982365D01*
X13396335Y65776250D02*
X13443840Y65709446D01*
X183795300Y57327035D02*
X183750764Y57347169D01*
X180719889Y47768421D02*
X180449398Y47816725D01*
X66662944Y13785318D02*
X66775760Y13770982D01*
X49991976Y16365518D02*
X49976620Y16279524D01*
X183595913Y6178166D02*
X183561791Y6253643D01*
X182451743Y3864654D02*
X182532600Y3887615D01*
X157140798Y23112161D02*
X157028063Y23115011D01*
X181362666Y65158910D02*
X181440044Y65128401D01*
X31184655Y19406199D02*
X31074673Y19731243D01*
X184219268Y50374917D02*
X184243477Y50417020D01*
X97303488Y14373309D02*
X97382789Y14404576D01*
X13239235Y6178166D02*
X13208726Y6100788D01*
X154935820Y21575722D02*
X154906299Y21471763D01*
X155272552Y22235021D02*
X155211473Y22149129D01*
X26251886Y48841083D02*
X26583853Y48935351D01*
X51524201Y14276363D02*
X51612883Y14269619D01*
X14809248Y68432844D02*
X14721564Y68430627D01*
X51266329Y14322324D02*
X51350814Y14302825D01*
X183438815Y67681601D02*
X183391309Y67748405D01*
X175374434Y45881157D02*
X175211373Y45673657D01*
X50410140Y17187729D02*
X50355255Y17124367D01*
X52459815Y17587641D02*
X52382463Y17622611D01*
X182764624Y7050816D02*
X182689147Y7084938D01*
X25218838Y29628133D02*
X25568939Y29672621D01*
X26251886Y24101269D02*
X25913435Y24179383D01*
X16379264Y67392166D02*
X16345141Y67467643D01*
X19325325Y41291271D02*
X19105450Y41037440D01*
X182899312Y37985720D02*
X183106811Y38148782D01*
X184265680Y56856652D02*
X184243477Y56900004D01*
X14146007Y68298941D02*
X14070530Y68264818D01*
X94992312Y16365518D02*
X94976955Y16279524D01*
X158012331Y212683D02*
X158012331Y8065512D01*
X50591968Y14666105D02*
X50657935Y14614264D01*
X53050234Y17124367D02*
X52995348Y17187729D01*
X169767676Y9049858D02*
X169719033Y9061084D01*
X183610679Y49922498D02*
X183658390Y49936046D01*
X17650123Y57026281D02*
X17588602Y56681785D01*
X16266484Y67612467D02*
X16222164Y67681601D01*
X52937528Y17248375D02*
X52876881Y17306196D01*
X181006427Y65363517D02*
X181073231Y65316011D01*
X29207253Y41765857D02*
X28953421Y41985731D01*
X155406444Y22397271D02*
X155337588Y22317780D01*
X30304428Y59527724D02*
X30109389Y59801996D01*
X181519215Y7142235D02*
X181440044Y7115447D01*
X13604398Y4310076D02*
X13663574Y4253657D01*
X97747881Y14614264D02*
X97813850Y14666105D01*
X15692791Y65271690D02*
X15761925Y65316011D01*
X158416185Y8881770D02*
X158378204Y8851922D01*
X183561791Y6253643D02*
X183524163Y6327113D01*
X159046665Y20071520D02*
X159085892Y20171006D01*
X174231757Y41280276D02*
X174293090Y41014532D01*
X15152647Y3845628D02*
X15235083Y3864654D01*
X98447055Y15923725D02*
X98449327Y16013586D01*
X183851383Y45881157D02*
X183678744Y46080459D01*
X15315941Y68356239D02*
X15235083Y68379200D01*
X183727597Y5602605D02*
X183721017Y5689138D01*
X28131045Y49633617D02*
X28414878Y49815579D01*
X177474874Y37326153D02*
X177724309Y37227804D01*
X181073231Y4102012D02*
X181142364Y4057692D01*
X17932488Y58021743D02*
X17822505Y57696699D01*
X69159153Y16683934D02*
X69123712Y16788676D01*
X155406444Y19451248D02*
X155478983Y19375165D01*
X13100560Y13290252D02*
X13260576Y13644198D01*
X18702734Y40498896D02*
X18520773Y40215064D01*
X67781330Y13896131D02*
X67883699Y13936494D01*
X157781317Y22982077D02*
X157679525Y23016519D01*
X53448992Y16013586D02*
X53446719Y16103448D01*
X17588602Y37652957D02*
X17544115Y37302857D01*
X174120165Y42387258D02*
X174127312Y42104602D01*
X67006243Y13759344D02*
X67122246Y13762277D01*
X16070519Y67874600D02*
X16014100Y67933776D01*
X27838091Y11174672D02*
X28131045Y11343117D01*
X25218838Y43547064D02*
X24863572Y43574079D01*
X182200125Y68424047D02*
X182113594Y68430627D01*
X20318014Y22931734D02*
X20053742Y22724058D01*
X183880755Y57280622D02*
X183838651Y57304831D01*
X96266656Y14322324D02*
X96351139Y14302825D01*
X29681838Y50912754D02*
X29901712Y51166585D01*
X19325325Y12622253D02*
X19556958Y12379301D01*
X157880803Y22942851D02*
X157781317Y22982077D01*
X51968681Y14287468D02*
X52054675Y14302825D01*
X184167584Y39316206D02*
X184310454Y39539064D01*
X6309270Y8774403D02*
X6715058Y8805259D01*
X184310454Y45235447D02*
X184167584Y45458306D01*
X184333171Y50644992D02*
X184344398Y50693635D01*
X183512524Y57414595D02*
X183462206Y57420989D01*
X180711083Y67812774D02*
X180660499Y67748405D01*
X53446719Y15923725D02*
X53448992Y16013586D01*
X19105450Y60066267D02*
X18897773Y59801996D01*
X18702734Y13414628D02*
X18897773Y13140356D01*
X176891444Y49911271D02*
X176940956Y49902429D01*
X68521953Y14344956D02*
X68600242Y14419598D01*
X31882145Y8368528D02*
X31837609Y8388663D01*
X13443840Y65709446D02*
X13494424Y65645077D01*
X183359407Y57426180D02*
X183348833Y57405012D01*
X184035429Y50152034D02*
X184070347Y50185325D01*
X98343364Y15413172D02*
X98370819Y15494310D01*
X156078293Y22898979D02*
X155983833Y22850599D01*
X17822505Y53536153D02*
X17932488Y53211110D01*
X49991976Y15661659D02*
X50011475Y15577175D01*
X183106811Y38148782D02*
X183306113Y38321422D01*
X158057532Y8375077D02*
X158043984Y8327367D01*
X13239235Y67392166D02*
X13208726Y67314788D01*
X13107550Y66816609D02*
X13105333Y66728926D01*
X31697524Y8436019D02*
X31648881Y8447246D01*
X158157886Y8597440D02*
X158133678Y8555337D01*
X27226577Y62062262D02*
X26908897Y62187519D01*
X174367106Y40753880D02*
X174453461Y40498664D01*
X96437132Y14287468D02*
X96524524Y14276363D01*
X180321993Y66728926D02*
X180324210Y66641243D01*
X13604398Y6719776D02*
X13547979Y6660600D01*
X25316524Y8368527D02*
X25273172Y8346324D01*
X181073231Y6927839D02*
X181006427Y6880333D01*
X28414878Y61417274D02*
X28131045Y61599236D01*
X25568939Y48701449D02*
X25913435Y48762969D01*
X98440312Y16192131D02*
X98429206Y16279524D01*
X15395112Y3914404D02*
X15472490Y3944913D01*
X170476621Y8375080D02*
X170460814Y8421796D01*
X28689150Y61222235D02*
X28414878Y61417274D01*
X184014445Y39100855D02*
X184167584Y39316206D01*
X158378204Y8851922D02*
X158341723Y8820322D01*
X7508433Y8926343D02*
X7895015Y9015565D01*
X182113594Y7216622D02*
X182025911Y7218840D01*
X25913435Y29734141D02*
X26251886Y29812254D01*
X155154490Y19788275D02*
X155211473Y19699390D01*
X26908897Y62187519D02*
X26583853Y62297502D01*
X184363516Y56472501D02*
X184359633Y56523561D01*
X26251886Y43362942D02*
X25913435Y43441056D01*
X32251931Y8063817D02*
X32222083Y8101798D01*
X181600073Y7165196D02*
X181519215Y7142235D01*
X180764637Y65583251D02*
X180821056Y65524075D01*
X95255064Y15037249D02*
X95303749Y14968785D01*
X28131045Y30604786D02*
X28414878Y30786747D01*
X95062796Y16614008D02*
X95035342Y16532869D01*
X29901712Y41037440D02*
X29681838Y41291271D01*
X15235083Y68379200D02*
X15152647Y68398226D01*
X68175155Y14085699D02*
X68266617Y14144334D01*
X177231567Y37436150D02*
X177474874Y37326153D01*
X15692791Y4057692D02*
X15761925Y4102012D01*
X67122246Y13762277D02*
X67236727Y13770982D01*
X179612902Y47880014D02*
X179330245Y47872867D01*
X155337588Y19530738D02*
X155406444Y19451248D01*
X16124074Y65645077D02*
X16174658Y65709446D01*
X32451670Y7451673D02*
X32451670Y212683D01*
X31357037Y18735780D02*
X31278923Y19074232D01*
X183562036Y57405753D02*
X183512524Y57414595D01*
X175728945Y46271219D02*
X175547073Y46080459D01*
X174231757Y43494237D02*
X174183453Y43223748D01*
X21470708Y49310684D02*
X21780586Y49170591D01*
X98312097Y16693308D02*
X98277127Y16770660D01*
X51102325Y14373309D02*
X51183463Y14345855D01*
X50093727Y15333873D02*
X50128697Y15256521D01*
X20876118Y11343117D02*
X21169072Y11174672D01*
X158649703Y19451248D02*
X158718560Y19530738D01*
X182683961Y46941935D02*
X182461103Y47084807D01*
X183109752Y6829750D02*
X183045384Y6880333D01*
X14465849Y68398226D02*
X14383413Y68379200D01*
X176349842Y50220242D02*
X176383133Y50185325D01*
X159120335Y20272797D02*
X159149856Y20376757D01*
X25752413Y8467672D02*
X25741831Y8446516D01*
X67006243Y18267843D02*
X66890240Y18264910D01*
X17544115Y54901168D02*
X17588602Y54551068D01*
X30109389Y21511495D02*
X29901712Y21775767D01*
X22755277Y43362942D02*
X22423310Y43268674D01*
X13789768Y4149518D02*
X13856572Y4102012D01*
X96023354Y14404576D02*
X96102653Y14373309D01*
X11812737Y11381851D02*
X12063879Y11671780D01*
X182978580Y4102012D02*
X183045384Y4149518D01*
X31490060Y36947591D02*
X31463045Y37302857D01*
X31278923Y53868120D02*
X31357037Y54206572D01*
X180398597Y66222234D02*
X180425385Y66143063D01*
X174783105Y39769084D02*
X174915363Y39539064D01*
X180398597Y6021617D02*
X180375636Y5940759D01*
X17728237Y34839288D02*
X17822505Y34507320D01*
X28953421Y11927793D02*
X29207253Y12147668D01*
X15315941Y65101612D02*
X15395112Y65128401D01*
X27536455Y49310684D02*
X27838091Y49465172D01*
X29681838Y12622253D02*
X29901712Y12876085D01*
X15068738Y68413211D02*
X14983464Y68424047D01*
X158649703Y22397271D02*
X158577164Y22473354D01*
X64763632Y16244071D02*
X64754926Y16129590D01*
X183695197Y67072323D02*
X183676171Y67154760D01*
X52303163Y17653878D02*
X52222025Y17681332D01*
X19556958Y12379301D02*
X19799910Y12147668D01*
X184364824Y56420763D02*
X184363516Y56472501D01*
X159174319Y21365773D02*
X159149856Y21471763D01*
X13273357Y4776207D02*
X13310986Y4702738D01*
X181246286Y47633070D02*
X180985633Y47707087D01*
X184193116Y50334124D02*
X184219268Y50374917D01*
X185105654Y42387258D02*
X185098507Y42669914D01*
X183676171Y67154760D02*
X183653210Y67235617D01*
X10678879Y64030265D02*
X10365603Y64253040D01*
X155211473Y19699390D02*
X155272552Y19613498D01*
X98151093Y15037249D02*
X98196515Y15108100D01*
X19556958Y41534223D02*
X19325325Y41291271D01*
X183106811Y46625732D02*
X182899312Y46788795D01*
X155337588Y22317780D02*
X155272552Y22235021D01*
X180490016Y6253643D02*
X180455894Y6178166D01*
X19556958Y31640968D02*
X19799910Y31409336D01*
X30809323Y33554717D02*
X30949415Y33864595D01*
X31418558Y16260567D02*
X31463045Y16610668D01*
X94976955Y16279524D02*
X94965850Y16192131D01*
X184359633Y56523561D02*
X184353240Y56573878D01*
X154862570Y21257890D02*
X154848638Y21148252D01*
X176842801Y57394516D02*
X176795090Y57380967D01*
X17517100Y55256434D02*
X17544115Y54901168D01*
X51183463Y14345855D02*
X51266329Y14322324D01*
X27838091Y42738853D02*
X27536455Y42893341D01*
X16014100Y65524075D02*
X16070519Y65583251D01*
X23788323Y29628133D02*
X24143589Y29601119D01*
X14146007Y3944913D02*
X14223384Y3914404D01*
X13494424Y6598774D02*
X13443840Y6534406D01*
X16124074Y4431077D02*
X16174658Y4495446D01*
X21169072Y61767680D02*
X20876118Y61599236D01*
X32306113Y7983605D02*
X32279962Y8024398D01*
X98429206Y15747652D02*
X98440312Y15835044D01*
X13847248Y15937457D02*
X13878105Y16343245D01*
X11548163Y11104348D02*
X11812737Y11381851D01*
X184243477Y56900004D02*
X184219268Y56942107D01*
X7114947Y8856073D02*
X7508433Y8926343D01*
X13789768Y65363517D02*
X13856572Y65316011D01*
X25190275Y8295963D02*
X25150856Y8267932D01*
X159207517Y20700269D02*
X159215977Y20811525D01*
X16478549Y67072323D02*
X16459522Y67154760D01*
X154906299Y20376757D02*
X154935820Y20272797D01*
X181766420Y7199207D02*
X181682510Y7184222D01*
X29207253Y31409336D02*
X29450205Y31640968D01*
X16174658Y4495446D02*
X16222164Y4562250D01*
X180398597Y67235617D02*
X180375636Y67154760D01*
X52535110Y17549077D02*
X52459815Y17587641D01*
X19799910Y31409336D02*
X20053742Y31189461D01*
X16459522Y67154760D02*
X16436561Y67235617D01*
X183851383Y38893355D02*
X184014445Y39100855D01*
X97535437Y14478110D02*
X97608565Y14520157D01*
X26583853Y10644850D02*
X26908897Y10754833D01*
X67349543Y13785318D02*
X67460553Y13805142D01*
X96613205Y14269619D02*
X96703066Y14267347D01*
X20053742Y22724058D02*
X19799910Y22504184D01*
X184103637Y50220242D02*
X184135238Y50256723D01*
X50062460Y16614008D02*
X50035006Y16532869D01*
X13310986Y65916739D02*
X13352014Y65845384D01*
X183524163Y4702738D02*
X183561791Y4776207D01*
X156804074Y18744821D02*
X156915329Y18736361D01*
X12301089Y11973633D02*
X12523864Y12286909D01*
X50209307Y16919083D02*
X50167260Y16845955D01*
X97995680Y14839456D02*
X98050565Y14902818D01*
X22755277Y48841083D02*
X23093728Y48762969D01*
X183710182Y66469437D02*
X183721017Y66554711D01*
X15828729Y6880333D02*
X15761925Y6927839D01*
X174148523Y41825655D02*
X174183453Y41550765D01*
X180375636Y5940759D02*
X180356610Y5858322D01*
X170521822Y8076101D02*
X170520514Y8127840D01*
X183524163Y6327113D02*
X183483135Y6398468D01*
X182113594Y68430627D02*
X182025911Y68432844D01*
X51023025Y17622611D02*
X50945672Y17587641D01*
X24767422Y7664887D02*
X24758581Y7615376D01*
X183838651Y57304831D02*
X183795300Y57327035D01*
X184564012Y40005921D02*
X184674009Y40249229D01*
X18197839Y39620474D02*
X18057746Y39310596D01*
X180764637Y67874600D02*
X180711083Y67812774D01*
X13725399Y65414101D02*
X13789768Y65363517D01*
X30486389Y13698461D02*
X30654834Y13991415D01*
X175058234Y45458306D02*
X174915363Y45235447D01*
X69234526Y16356888D02*
X69214701Y16467898D01*
X13997060Y4016664D02*
X14070530Y3979035D01*
X96703066Y17759840D02*
X96613205Y17757568D01*
X13529269Y14378324D02*
X13636943Y14757500D01*
X183359407Y49890844D02*
X183411146Y49892152D01*
X50035006Y15494310D02*
X50062460Y15413172D01*
X18520773Y51988961D02*
X18702734Y51705129D01*
X17932488Y38992916D02*
X17822505Y38667872D01*
X13273357Y65990208D02*
X13310986Y65916739D01*
X19325325Y50912754D02*
X19556958Y50669802D01*
X180527645Y67541112D02*
X180490016Y67467643D01*
X28953421Y31189461D02*
X29207253Y31409336D01*
X159120335Y21575722D02*
X159085892Y21677513D01*
X18520773Y59243891D02*
X18352328Y58950937D01*
X49976620Y16279524D02*
X49965515Y16192131D01*
X68875507Y17273964D02*
X68812657Y17362345D01*
X155555066Y22545893D02*
X155478983Y22473354D01*
X183391309Y6534406D02*
X183340726Y6598774D01*
X32352526Y7898151D02*
X32330322Y7941502D01*
X18897773Y32402023D02*
X19105450Y32137751D01*
X68521953Y17682229D02*
X68440158Y17753081D01*
X66890240Y18264910D02*
X66775760Y18256205D01*
X182285399Y65044640D02*
X182369307Y65059625D01*
X157361692Y18758753D02*
X157469575Y18778019D01*
X183340726Y4431077D02*
X183391309Y4495446D01*
X50870378Y17549077D02*
X50797250Y17507029D01*
X174183453Y41550765D02*
X174231757Y41280276D01*
X27838091Y49465172D02*
X28131045Y49633617D01*
X67983554Y18045549D02*
X67883699Y18090693D01*
X16504369Y5340707D02*
X16510949Y5427238D01*
X176120308Y56672025D02*
X176109082Y56623382D01*
X174551809Y44525282D02*
X174453461Y44275848D01*
X31418558Y18391284D02*
X31357037Y18735780D01*
X184014445Y45673657D02*
X183851383Y45881157D01*
X176119005Y46625732D02*
X175919704Y46453092D01*
X183438815Y65776250D02*
X183483135Y65845384D01*
X24778649Y7713529D02*
X24767422Y7664887D01*
X95410474Y14839456D02*
X95468294Y14778810D01*
X154840178Y20811525D02*
X154848638Y20700269D01*
X31357037Y57026281D02*
X31278923Y57364732D01*
X16222164Y4562250D02*
X16266484Y4631383D01*
X28953421Y22724058D02*
X28689150Y22931734D01*
X13139951Y66385528D02*
X13158977Y66303091D01*
X52608237Y17507029D02*
X52535110Y17549077D01*
X31357037Y15916071D02*
X31418558Y16260567D01*
X65490539Y17682229D02*
X65412250Y17607588D01*
X16307512Y4702738D02*
X16345141Y4776207D01*
X20592286Y49815579D02*
X20876118Y49633617D01*
X180719889Y37006099D02*
X180985633Y37067432D01*
X13352014Y4631383D02*
X13396335Y4562250D01*
X183045384Y65363517D02*
X183109752Y65414101D01*
X16436561Y5008232D02*
X16459522Y5089089D01*
X21470708Y42893341D02*
X21169072Y42738853D01*
X183729814Y66728926D02*
X183727597Y66816609D01*
X184333171Y56672032D02*
X184319623Y56719743D01*
X98343364Y16614008D02*
X98312097Y16693308D01*
X31463045Y37302857D02*
X31418558Y37652957D01*
X184344398Y50693635D02*
X184353240Y50743146D01*
X158672042Y9020502D02*
X158626385Y9002500D01*
X176454531Y50120433D02*
X176492513Y50090585D01*
X29901712Y32137751D02*
X30109389Y32402023D01*
X157575565Y23046040D02*
X157469575Y23070503D01*
X176167665Y56812109D02*
X176149663Y56766452D01*
X16510949Y66641243D02*
X16513166Y66728926D01*
X65745874Y17882852D02*
X65657493Y17820003D01*
X158306806Y8787031D02*
X158273516Y8752114D01*
X180455894Y67392166D02*
X180425385Y67314788D01*
X184243477Y50417020D02*
X184265680Y50460372D01*
X183921548Y50062554D02*
X183960967Y50090585D01*
X180764637Y4369251D02*
X180821056Y4310076D01*
X184858712Y40753880D02*
X184932729Y41014532D01*
X182978580Y65316011D02*
X183045384Y65363517D01*
X24976585Y8101795D02*
X24946737Y8063813D01*
X69248861Y16244071D02*
X69234526Y16356888D01*
X20318014Y50010618D02*
X20592286Y49815579D01*
X49958771Y15923725D02*
X49965515Y15835044D01*
X182451743Y68379200D02*
X182369307Y68398226D01*
X69214701Y16467898D02*
X69189530Y16576961D01*
X176234211Y56942101D02*
X176210002Y56899997D01*
X170501396Y8278727D02*
X170490169Y8327370D01*
X155892091Y19050672D02*
X155983833Y18997922D01*
X95255064Y16989934D02*
X95209642Y16919083D01*
X29450205Y31640968D02*
X29681838Y31883920D01*
X31357037Y35177740D02*
X31418558Y35522236D01*
X53370484Y16532869D02*
X53343030Y16614008D01*
X98277127Y15256521D02*
X98312097Y15333873D01*
X183960967Y57226439D02*
X183921548Y57254470D01*
X31463045Y54901168D02*
X31490060Y55256434D01*
X181519215Y65101612D02*
X181600073Y65078651D01*
X180324210Y66641243D02*
X180330790Y66554711D01*
X170155946Y8851925D02*
X170117965Y8881772D01*
X24792197Y7761239D02*
X24778649Y7713529D01*
X176149663Y56766452D02*
X176133856Y56719736D01*
X31184655Y38667872D02*
X31074673Y38992916D01*
X27838091Y23477180D02*
X27536455Y23631668D01*
X181519215Y3887615D02*
X181600073Y3864654D01*
X50467960Y14778810D02*
X50528606Y14720990D01*
X25231068Y8322115D02*
X25190275Y8295963D01*
X17650123Y15916071D02*
X17728237Y15577620D01*
X21780586Y62062262D02*
X21470708Y61922169D01*
X155983833Y18997922D02*
X156078293Y18949542D01*
X156480567Y23046040D02*
X156376609Y23016519D01*
X174127312Y42669914D02*
X174120165Y42387258D01*
X31463045Y16610668D02*
X31490060Y16965934D01*
X180324210Y66816609D02*
X180321993Y66728926D01*
X154906299Y21471763D02*
X154881836Y21365773D01*
X21169072Y23477180D02*
X20876118Y23308735D01*
X154837328Y20924261D02*
X154840178Y20811525D01*
X159215977Y21036996D02*
X159207517Y21148252D01*
X32390662Y7807958D02*
X32372660Y7853615D01*
X28131045Y42570408D02*
X27838091Y42738853D01*
X97535437Y17549077D02*
X97460142Y17587641D01*
X64888781Y15238503D02*
X64929144Y15136135D01*
X17544115Y56331684D02*
X17517100Y55976418D01*
X14223384Y7115447D02*
X14146007Y7084938D01*
X65024070Y17088100D02*
X64974288Y16990901D01*
X176994731Y37557451D02*
X177231567Y37436150D01*
X97054998Y14302825D02*
X97139483Y14322324D01*
X31278923Y15577620D02*
X31357037Y15916071D01*
X13925705Y65271690D02*
X13997060Y65230662D01*
X15395112Y68329450D02*
X15315941Y68356239D01*
X22098266Y23897018D02*
X21780586Y23771761D01*
X12301089Y62408055D02*
X12063879Y62709908D01*
X30654834Y20660437D02*
X30486389Y20953391D01*
X185042365Y41550765D02*
X185077295Y41825655D01*
X66775760Y18256205D02*
X66662944Y18241869D01*
X14896931Y7216622D02*
X14809248Y7218840D01*
X21169072Y49465172D02*
X21470708Y49310684D01*
X96102653Y17653878D02*
X96023354Y17622611D01*
X183729814Y5514921D02*
X183727597Y5602605D01*
X183921548Y57254470D02*
X183880755Y57280622D01*
X158901661Y22060243D02*
X158844677Y22149129D01*
X95946003Y14439546D02*
X96023354Y14404576D01*
X29450205Y12379301D02*
X29681838Y12622253D01*
X183721017Y5689138D02*
X183710182Y5774413D01*
X53102074Y17058399D02*
X53050234Y17124367D01*
X182838093Y65230662D02*
X182909447Y65271690D01*
X24503580Y24321508D02*
X24143589Y24312406D01*
X50035006Y16532869D02*
X50011475Y16450003D01*
X182285399Y7199207D02*
X182200125Y7210042D01*
X176702716Y49969855D02*
X176748374Y49951853D01*
X176764711Y47084807D02*
X176541854Y46941935D01*
X156376609Y23016519D02*
X156274818Y22982077D01*
X25913435Y48762969D02*
X26251886Y48841083D01*
X16409773Y4929061D02*
X16436561Y5008232D01*
X30949415Y39310596D02*
X30809323Y39620474D01*
X158954412Y21968501D02*
X158901661Y22060243D01*
X13239235Y66065685D02*
X13273357Y65990208D01*
X13925705Y4057692D02*
X13997060Y4016664D01*
X31925497Y8346325D02*
X31882145Y8368528D01*
X27226577Y23771761D02*
X26908897Y23897018D01*
X98370819Y16532869D02*
X98343364Y16614008D01*
X13208726Y67314788D02*
X13181938Y67235617D01*
X14635032Y65033804D02*
X14721564Y65027224D01*
X98102406Y17058399D02*
X98050565Y17124367D01*
X180455894Y6178166D02*
X180425385Y6100788D01*
X31074673Y19731243D02*
X30949415Y20048923D01*
X13310986Y6327113D02*
X13273357Y6253643D01*
X182611770Y68329450D02*
X182532600Y68356239D01*
X14302555Y68356239D02*
X14223384Y68329450D01*
X180330790Y66903141D02*
X180324210Y66816609D01*
X182978580Y6927839D02*
X182909447Y6972159D01*
X30109389Y13140356D02*
X30304428Y13414628D01*
X176572724Y57280612D02*
X176531931Y57254461D01*
X65078350Y17182502D02*
X65024070Y17088100D01*
X184932729Y41014532D02*
X184994061Y41280276D01*
X159193585Y20590630D02*
X159207517Y20700269D01*
X20876118Y49633617D02*
X21169072Y49465172D01*
X20592286Y23126773D02*
X20318014Y22931734D01*
X31418558Y54551068D02*
X31463045Y54901168D01*
X16266484Y6398468D02*
X16222164Y6467601D01*
X13547979Y67874600D02*
X13494424Y67812774D01*
X13888502Y57627260D02*
X13878105Y58038446D01*
X94965850Y16192131D02*
X94959107Y16103448D01*
X53311763Y16693308D02*
X53276793Y16770660D01*
X13273357Y67467643D02*
X13239235Y67392166D01*
X53370484Y15494310D02*
X53394015Y15577175D01*
X95167595Y15181227D02*
X95209642Y15108100D01*
X32222083Y8101798D02*
X32190483Y8138279D01*
X177231567Y47338367D02*
X176994731Y47217066D01*
X32047812Y8267934D02*
X32008394Y8295965D01*
X180568673Y67612467D02*
X180527645Y67541112D01*
X158338828Y19168734D02*
X158421588Y19233770D01*
X155634556Y22614749D02*
X155555066Y22545893D01*
X27536455Y30281853D02*
X27838091Y30436342D01*
X30304428Y21237223D02*
X30109389Y21511495D01*
X25568939Y62531404D02*
X25218838Y62575892D01*
X180324210Y5602605D02*
X180321993Y5514921D01*
X184772357Y40498664D02*
X184858712Y40753880D01*
X174183453Y43223748D02*
X174148523Y42948859D01*
X14549758Y7199207D02*
X14465849Y7184222D01*
X65078350Y14844681D02*
X65136986Y14753219D01*
X29901712Y21775767D02*
X29681838Y22029598D01*
X183595913Y66065685D02*
X183626422Y66143063D01*
X180449398Y36957795D02*
X180719889Y37006099D01*
X177979524Y47633070D02*
X177724309Y47546714D01*
X53102074Y14968785D02*
X53150760Y15037249D01*
X26908897Y23897018D02*
X26583853Y24007001D01*
X31184655Y15245653D02*
X31278923Y15577620D01*
X169619204Y9076320D02*
X169568144Y9080202D01*
X183710182Y66988415D02*
X183695197Y67072323D01*
X176210002Y56899997D02*
X176187799Y56856645D01*
X98277127Y16770660D02*
X98238563Y16845955D01*
X158766467Y9049857D02*
X158718757Y9036309D01*
X177083483Y57405012D02*
X183348833Y57405012D01*
X176454531Y57196582D02*
X176418050Y57164982D01*
X14809248Y3811010D02*
X14896931Y3813227D01*
X180356610Y5858322D02*
X180341626Y5774413D01*
X158783597Y22235021D02*
X158718560Y22317780D01*
X158501079Y19302626D02*
X158577164Y19375165D01*
X181766420Y3830643D02*
X181851694Y3819807D01*
X52303163Y14373309D02*
X52382463Y14404576D01*
X16014100Y67933776D02*
X15954924Y67990195D01*
X174915363Y39539064D02*
X175058234Y39316206D01*
X17822505Y57696699D02*
X17728237Y57364732D01*
X24503580Y48620844D02*
X24863572Y48629946D01*
X157028063Y23115011D02*
X156915329Y23112161D01*
X183998948Y50120433D02*
X184035429Y50152034D01*
X96351139Y17724362D02*
X96266656Y17704863D01*
X10980732Y63793055D02*
X10678879Y64030265D01*
X169815388Y9036309D02*
X169767676Y9049858D01*
X22098266Y10754833D02*
X22423310Y10644850D01*
X155634556Y19233770D02*
X155717315Y19168734D01*
X182285399Y68413211D02*
X182200125Y68424047D01*
X176614828Y50012193D02*
X176658180Y49989989D01*
X95592301Y14666105D02*
X95658268Y14614264D01*
X158043984Y8327367D02*
X158032757Y8278725D01*
X66335901Y13860691D02*
X66442873Y13830314D01*
X21470708Y61922169D02*
X21169072Y61767680D01*
X183306113Y46453092D02*
X183106811Y46625732D01*
X27536455Y23631668D02*
X27226577Y23771761D01*
X69257567Y15897583D02*
X69260500Y16013586D01*
X31497992Y8466364D02*
X31446253Y8467672D01*
X158501079Y22545893D02*
X158421588Y22614749D01*
X31490060Y36227605D02*
X31499163Y36587599D01*
X31074673Y38992916D02*
X30949415Y39310596D01*
X25150856Y8267932D02*
X25112875Y8238084D01*
X183750764Y49969855D02*
X183795300Y49989989D01*
X19105450Y51166585D02*
X19325325Y50912754D01*
X181766420Y65044640D02*
X181851694Y65033804D01*
X32008394Y8295965D02*
X31967601Y8322116D01*
X159149856Y20376757D02*
X159174319Y20482747D01*
X158581850Y8982365D02*
X158538499Y8960162D01*
X96792928Y17757568D02*
X96703066Y17759840D01*
X18197839Y33554717D02*
X18352328Y33253081D01*
X97995680Y17187729D02*
X97937858Y17248375D01*
X183695197Y66385528D02*
X183710182Y66469437D01*
X97460142Y14439546D02*
X97535437Y14478110D01*
X183595913Y4851684D02*
X183626422Y4929061D01*
X183676171Y5089089D02*
X183695197Y5171525D01*
X68934142Y14844681D02*
X68988422Y14939082D01*
X21780586Y10880090D02*
X22098266Y10754833D01*
X183287171Y4369251D02*
X183340726Y4431077D01*
X158341723Y8820322D02*
X158306806Y8787031D01*
X20318014Y42193407D02*
X20053742Y41985731D01*
X183795300Y49989989D02*
X183838651Y50012193D01*
X182611770Y65128401D02*
X182689147Y65158910D01*
X182369307Y3845628D02*
X182451743Y3864654D01*
X181938227Y7216622D02*
X181851694Y7210042D01*
X176572724Y50036402D02*
X176614828Y50012193D01*
X52679088Y17461608D02*
X52608237Y17507029D01*
X158844677Y22149129D02*
X158783597Y22235021D01*
X181938227Y3813227D02*
X182025911Y3811010D01*
X52222025Y14345855D02*
X52303163Y14373309D01*
X16478549Y5858322D02*
X16459522Y5940759D01*
X26583853Y62297502D02*
X26251886Y62391770D01*
X50410140Y14839456D02*
X50467960Y14778810D01*
X16493533Y66988415D02*
X16478549Y67072323D01*
X95726731Y17461608D02*
X95658268Y17412922D01*
X25700674Y8466364D02*
X25649615Y8462481D01*
X183960967Y50090585D02*
X183998948Y50120433D01*
X50591968Y17361081D02*
X50528606Y17306196D01*
X25218838Y24285391D02*
X24863572Y24312406D01*
X15547967Y3979035D02*
X15621436Y4016664D01*
X176326503Y37985720D02*
X176541854Y37832581D01*
X183710182Y5255433D02*
X183721017Y5340707D01*
X180942058Y4200102D02*
X181006427Y4149518D01*
X176149663Y50550566D02*
X176167665Y50504908D01*
X25568939Y10410948D02*
X25913435Y10472468D01*
X67122246Y18264910D02*
X67006243Y18267843D01*
X182683961Y37832581D02*
X182899312Y37985720D01*
X154840178Y21036996D02*
X154837328Y20924261D01*
X31490060Y55976418D02*
X31463045Y56331684D01*
X24503580Y62612009D02*
X24143589Y62602906D01*
X183171577Y6776195D02*
X183109752Y6829750D01*
X30304428Y32676294D02*
X30486389Y32960127D01*
X184674009Y44525282D02*
X184564012Y44768590D01*
X66128790Y13936494D02*
X66231159Y13896131D01*
X15395112Y7115447D02*
X15315941Y7142235D01*
X22755277Y24101269D02*
X22423310Y24007001D01*
X12063879Y62709908D02*
X11812737Y62999837D01*
M02*
