%TF.GenerationSoftware,KiCad,Pcbnew,8.0.5*%
%TF.CreationDate,2024-09-30T13:59:48-07:00*%
%TF.ProjectId,combo_board,636f6d62-6f5f-4626-9f61-72642e6b6963,1*%
%TF.SameCoordinates,Original*%
%TF.FileFunction,Paste,Top*%
%TF.FilePolarity,Positive*%
%FSLAX46Y46*%
G04 Gerber Fmt 4.6, Leading zero omitted, Abs format (unit mm)*
G04 Created by KiCad (PCBNEW 8.0.5) date 2024-09-30 13:59:48*
%MOMM*%
%LPD*%
G01*
G04 APERTURE LIST*
G04 Aperture macros list*
%AMFreePoly0*
4,1,28,2.106233,-2.909135,1.942468,-2.881932,1.621993,-2.795252,1.313310,-2.673056,1.020340,-2.516897,0.746805,-2.328759,0.496181,-2.111033,0.271653,-1.866484,0.076072,-1.598221,-0.088076,-1.309651,-0.218705,-1.004441,-0.314156,-0.686469,-0.373216,-0.359775,-0.395135,-0.028509,-0.379633,0.303118,-0.326908,0.630895,-0.237631,0.950655,-0.112934,1.258336,0.045596,1.550030,0.235947,1.822029,
0.455700,2.070879,0.702062,2.293416,0.971904,2.486814,1.261796,2.648615,1.568056,2.776764,1.886792,2.869632,2.100000,2.900000,2.106233,-2.909135,2.106233,-2.909135,$1*%
G04 Aperture macros list end*
%ADD10FreePoly0,0.000000*%
%ADD11FreePoly0,180.000000*%
G04 APERTURE END LIST*
D10*
%TO.C,SW18*%
X131360000Y7842700D03*
D11*
X136510000Y7842700D03*
%TD*%
D10*
%TO.C,SW10*%
X71440000Y7872700D03*
D11*
X76590000Y7872700D03*
%TD*%
D10*
%TO.C,SW7*%
X131450000Y24382700D03*
D11*
X136600000Y24382700D03*
%TD*%
D10*
%TO.C,SW2*%
X56440000Y24372700D03*
D11*
X61590000Y24372700D03*
%TD*%
D10*
%TO.C,SW19*%
X146790000Y27022700D03*
D11*
X151940000Y27022700D03*
%TD*%
D10*
%TO.C,SW13*%
X116390000Y7872700D03*
D11*
X121540000Y7872700D03*
%TD*%
D10*
%TO.C,SW3*%
X71410000Y24422700D03*
D11*
X76560000Y24422700D03*
%TD*%
D10*
%TO.C,SW16*%
X176770000Y27022700D03*
D11*
X181920000Y27022700D03*
%TD*%
D10*
%TO.C,SW1*%
X41420000Y24380000D03*
D11*
X46570000Y24380000D03*
%TD*%
D10*
%TO.C,SW6*%
X116430000Y24392700D03*
D11*
X121580000Y24392700D03*
%TD*%
D10*
%TO.C,SW4*%
X86420000Y24392700D03*
D11*
X91570000Y24392700D03*
%TD*%
D10*
%TO.C,SW11*%
X86460000Y7872700D03*
D11*
X91610000Y7872700D03*
%TD*%
D10*
%TO.C,SW14*%
X176800000Y15622700D03*
D11*
X181950000Y15622700D03*
%TD*%
D10*
%TO.C,SW8*%
X41410000Y7872700D03*
D11*
X46560000Y7872700D03*
%TD*%
D10*
%TO.C,SW5*%
X101420000Y24392700D03*
D11*
X106570000Y24392700D03*
%TD*%
D10*
%TO.C,SW17*%
X146790000Y15632700D03*
D11*
X151940000Y15632700D03*
%TD*%
D10*
%TO.C,SW9*%
X56440000Y7852700D03*
D11*
X61590000Y7852700D03*
%TD*%
D10*
%TO.C,SW20*%
X161790000Y27022700D03*
D11*
X166940000Y27022700D03*
%TD*%
D10*
%TO.C,SW15*%
X161750000Y15632700D03*
D11*
X166900000Y15632700D03*
%TD*%
D10*
%TO.C,SW12*%
X101370000Y7872700D03*
D11*
X106520000Y7872700D03*
%TD*%
M02*
