%TF.GenerationSoftware,KiCad,Pcbnew,8.0.5*%
%TF.CreationDate,2024-09-30T13:59:48-07:00*%
%TF.ProjectId,combo_board,636f6d62-6f5f-4626-9f61-72642e6b6963,1*%
%TF.SameCoordinates,Original*%
%TF.FileFunction,Legend,Top*%
%TF.FilePolarity,Positive*%
%FSLAX46Y46*%
G04 Gerber Fmt 4.6, Leading zero omitted, Abs format (unit mm)*
G04 Created by KiCad (PCBNEW 8.0.5) date 2024-09-30 13:59:48*
%MOMM*%
%LPD*%
G01*
G04 APERTURE LIST*
G04 Aperture macros list*
%AMRoundRect*
0 Rectangle with rounded corners*
0 $1 Rounding radius*
0 $2 $3 $4 $5 $6 $7 $8 $9 X,Y pos of 4 corners*
0 Add a 4 corners polygon primitive as box body*
4,1,4,$2,$3,$4,$5,$6,$7,$8,$9,$2,$3,0*
0 Add four circle primitives for the rounded corners*
1,1,$1+$1,$2,$3*
1,1,$1+$1,$4,$5*
1,1,$1+$1,$6,$7*
1,1,$1+$1,$8,$9*
0 Add four rect primitives between the rounded corners*
20,1,$1+$1,$2,$3,$4,$5,0*
20,1,$1+$1,$4,$5,$6,$7,0*
20,1,$1+$1,$6,$7,$8,$9,0*
20,1,$1+$1,$8,$9,$2,$3,0*%
%AMFreePoly0*
4,1,59,2.130617,2.940787,2.150490,2.907192,2.151000,2.900055,2.157233,-2.909080,2.142334,-2.945159,2.106288,-2.960135,2.097876,-2.959446,1.934111,-2.932243,1.929152,-2.931163,1.608677,-2.844483,1.603221,-2.842672,1.294538,-2.720476,1.289321,-2.718062,0.996351,-2.561903,0.991438,-2.558917,0.717903,-2.370779,0.713358,-2.367260,0.462734,-2.149534,0.458614,-2.145525,0.234086,-1.900976,
0.230443,-1.896529,0.034862,-1.628266,0.031742,-1.623437,-0.132406,-1.334867,-0.134962,-1.329718,-0.265591,-1.024508,-0.267552,-1.019104,-0.363003,-0.701132,-0.364343,-0.695542,-0.423403,-0.368848,-0.424105,-0.363142,-0.446024,-0.031876,-0.446079,-0.026128,-0.430577,0.305499,-0.429986,0.311218,-0.377261,0.638995,-0.376029,0.644610,-0.286752,0.964370,-0.284897,0.969811,-0.160200,1.277492,
-0.157744,1.282689,0.000786,1.574383,0.003812,1.579272,0.194163,1.851271,0.197719,1.855787,0.417472,2.104637,0.421514,2.108725,0.667876,2.331262,0.672352,2.334869,0.942194,2.528267,0.947048,2.531347,1.236940,2.693148,1.242110,2.695662,1.548370,2.823811,1.553790,2.825728,1.872526,2.918596,1.879600,2.920122,2.092808,2.950490,2.130617,2.940787,2.130617,2.940787,
$1*%
G04 Aperture macros list end*
%ADD10C,0.150000*%
%ADD11C,0.100000*%
%ADD12C,3.225000*%
%ADD13FreePoly0,0.000000*%
%ADD14FreePoly0,180.000000*%
%ADD15O,1.802000X2.102000*%
%ADD16O,1.202000X1.902000*%
%ADD17O,1.202000X2.302000*%
%ADD18RoundRect,0.051000X0.850000X0.850000X-0.850000X0.850000X-0.850000X-0.850000X0.850000X-0.850000X0*%
%ADD19O,1.802000X1.802000*%
%ADD20RoundRect,0.051000X1.000000X-1.000000X1.000000X1.000000X-1.000000X1.000000X-1.000000X-1.000000X0*%
%ADD21C,2.102000*%
%ADD22C,3.102000*%
%ADD23RoundRect,0.051000X-0.800000X0.800000X-0.800000X-0.800000X0.800000X-0.800000X0.800000X0.800000X0*%
%ADD24O,1.702000X1.702000*%
%ADD25RoundRect,0.051000X0.500000X0.500000X-0.500000X0.500000X-0.500000X-0.500000X0.500000X-0.500000X0*%
G04 APERTURE END LIST*
D10*
X132600588Y32942864D02*
X132029160Y32942864D01*
X132314874Y32942864D02*
X132314874Y33942864D01*
X132314874Y33942864D02*
X132219636Y33800007D01*
X132219636Y33800007D02*
X132124398Y33704769D01*
X132124398Y33704769D02*
X132029160Y33657150D01*
X133552969Y32942864D02*
X132981541Y32942864D01*
X133267255Y32942864D02*
X133267255Y33942864D01*
X133267255Y33942864D02*
X133172017Y33800007D01*
X133172017Y33800007D02*
X133076779Y33704769D01*
X133076779Y33704769D02*
X132981541Y33657150D01*
X15149819Y31622494D02*
X15864104Y31622494D01*
X15864104Y31622494D02*
X16006961Y31574875D01*
X16006961Y31574875D02*
X16102200Y31479637D01*
X16102200Y31479637D02*
X16149819Y31336780D01*
X16149819Y31336780D02*
X16149819Y31241542D01*
X16149819Y32574875D02*
X16149819Y32098685D01*
X16149819Y32098685D02*
X15149819Y32098685D01*
X16054580Y33479637D02*
X16102200Y33432018D01*
X16102200Y33432018D02*
X16149819Y33289161D01*
X16149819Y33289161D02*
X16149819Y33193923D01*
X16149819Y33193923D02*
X16102200Y33051066D01*
X16102200Y33051066D02*
X16006961Y32955828D01*
X16006961Y32955828D02*
X15911723Y32908209D01*
X15911723Y32908209D02*
X15721247Y32860590D01*
X15721247Y32860590D02*
X15578390Y32860590D01*
X15578390Y32860590D02*
X15387914Y32908209D01*
X15387914Y32908209D02*
X15292676Y32955828D01*
X15292676Y32955828D02*
X15197438Y33051066D01*
X15197438Y33051066D02*
X15149819Y33193923D01*
X15149819Y33193923D02*
X15149819Y33289161D01*
X15149819Y33289161D02*
X15197438Y33432018D01*
X15197438Y33432018D02*
X15245057Y33479637D01*
X15149819Y34193923D02*
X15864104Y34193923D01*
X15864104Y34193923D02*
X16006961Y34146304D01*
X16006961Y34146304D02*
X16102200Y34051066D01*
X16102200Y34051066D02*
X16149819Y33908209D01*
X16149819Y33908209D02*
X16149819Y33812971D01*
X16149819Y35146304D02*
X16149819Y34670114D01*
X16149819Y34670114D02*
X15149819Y34670114D01*
X16054580Y36051066D02*
X16102200Y36003447D01*
X16102200Y36003447D02*
X16149819Y35860590D01*
X16149819Y35860590D02*
X16149819Y35765352D01*
X16149819Y35765352D02*
X16102200Y35622495D01*
X16102200Y35622495D02*
X16006961Y35527257D01*
X16006961Y35527257D02*
X15911723Y35479638D01*
X15911723Y35479638D02*
X15721247Y35432019D01*
X15721247Y35432019D02*
X15578390Y35432019D01*
X15578390Y35432019D02*
X15387914Y35479638D01*
X15387914Y35479638D02*
X15292676Y35527257D01*
X15292676Y35527257D02*
X15197438Y35622495D01*
X15197438Y35622495D02*
X15149819Y35765352D01*
X15149819Y35765352D02*
X15149819Y35860590D01*
X15149819Y35860590D02*
X15197438Y36003447D01*
X15197438Y36003447D02*
X15245057Y36051066D01*
X15149819Y36765352D02*
X15864104Y36765352D01*
X15864104Y36765352D02*
X16006961Y36717733D01*
X16006961Y36717733D02*
X16102200Y36622495D01*
X16102200Y36622495D02*
X16149819Y36479638D01*
X16149819Y36479638D02*
X16149819Y36384400D01*
X16149819Y37717733D02*
X16149819Y37241543D01*
X16149819Y37241543D02*
X15149819Y37241543D01*
X16054580Y38622495D02*
X16102200Y38574876D01*
X16102200Y38574876D02*
X16149819Y38432019D01*
X16149819Y38432019D02*
X16149819Y38336781D01*
X16149819Y38336781D02*
X16102200Y38193924D01*
X16102200Y38193924D02*
X16006961Y38098686D01*
X16006961Y38098686D02*
X15911723Y38051067D01*
X15911723Y38051067D02*
X15721247Y38003448D01*
X15721247Y38003448D02*
X15578390Y38003448D01*
X15578390Y38003448D02*
X15387914Y38051067D01*
X15387914Y38051067D02*
X15292676Y38098686D01*
X15292676Y38098686D02*
X15197438Y38193924D01*
X15197438Y38193924D02*
X15149819Y38336781D01*
X15149819Y38336781D02*
X15149819Y38432019D01*
X15149819Y38432019D02*
X15197438Y38574876D01*
X15197438Y38574876D02*
X15245057Y38622495D01*
X15149819Y39336781D02*
X15864104Y39336781D01*
X15864104Y39336781D02*
X16006961Y39289162D01*
X16006961Y39289162D02*
X16102200Y39193924D01*
X16102200Y39193924D02*
X16149819Y39051067D01*
X16149819Y39051067D02*
X16149819Y38955829D01*
X16149819Y40289162D02*
X16149819Y39812972D01*
X16149819Y39812972D02*
X15149819Y39812972D01*
X16054580Y41193924D02*
X16102200Y41146305D01*
X16102200Y41146305D02*
X16149819Y41003448D01*
X16149819Y41003448D02*
X16149819Y40908210D01*
X16149819Y40908210D02*
X16102200Y40765353D01*
X16102200Y40765353D02*
X16006961Y40670115D01*
X16006961Y40670115D02*
X15911723Y40622496D01*
X15911723Y40622496D02*
X15721247Y40574877D01*
X15721247Y40574877D02*
X15578390Y40574877D01*
X15578390Y40574877D02*
X15387914Y40622496D01*
X15387914Y40622496D02*
X15292676Y40670115D01*
X15292676Y40670115D02*
X15197438Y40765353D01*
X15197438Y40765353D02*
X15149819Y40908210D01*
X15149819Y40908210D02*
X15149819Y41003448D01*
X15149819Y41003448D02*
X15197438Y41146305D01*
X15197438Y41146305D02*
X15245057Y41193924D01*
X56870588Y33102864D02*
X56299160Y33102864D01*
X56584874Y33102864D02*
X56584874Y34102864D01*
X56584874Y34102864D02*
X56489636Y33960007D01*
X56489636Y33960007D02*
X56394398Y33864769D01*
X56394398Y33864769D02*
X56299160Y33817150D01*
X157869160Y33927626D02*
X157916779Y33975245D01*
X157916779Y33975245D02*
X158012017Y34022864D01*
X158012017Y34022864D02*
X158250112Y34022864D01*
X158250112Y34022864D02*
X158345350Y33975245D01*
X158345350Y33975245D02*
X158392969Y33927626D01*
X158392969Y33927626D02*
X158440588Y33832388D01*
X158440588Y33832388D02*
X158440588Y33737150D01*
X158440588Y33737150D02*
X158392969Y33594293D01*
X158392969Y33594293D02*
X157821541Y33022864D01*
X157821541Y33022864D02*
X158440588Y33022864D01*
X159392969Y33022864D02*
X158821541Y33022864D01*
X159107255Y33022864D02*
X159107255Y34022864D01*
X159107255Y34022864D02*
X159012017Y33880007D01*
X159012017Y33880007D02*
X158916779Y33784769D01*
X158916779Y33784769D02*
X158821541Y33737150D01*
X79410588Y33102864D02*
X78839160Y33102864D01*
X79124874Y33102864D02*
X79124874Y34102864D01*
X79124874Y34102864D02*
X79029636Y33960007D01*
X79029636Y33960007D02*
X78934398Y33864769D01*
X78934398Y33864769D02*
X78839160Y33817150D01*
X80029636Y34102864D02*
X80124874Y34102864D01*
X80124874Y34102864D02*
X80220112Y34055245D01*
X80220112Y34055245D02*
X80267731Y34007626D01*
X80267731Y34007626D02*
X80315350Y33912388D01*
X80315350Y33912388D02*
X80362969Y33721912D01*
X80362969Y33721912D02*
X80362969Y33483817D01*
X80362969Y33483817D02*
X80315350Y33293341D01*
X80315350Y33293341D02*
X80267731Y33198103D01*
X80267731Y33198103D02*
X80220112Y33150483D01*
X80220112Y33150483D02*
X80124874Y33102864D01*
X80124874Y33102864D02*
X80029636Y33102864D01*
X80029636Y33102864D02*
X79934398Y33150483D01*
X79934398Y33150483D02*
X79886779Y33198103D01*
X79886779Y33198103D02*
X79839160Y33293341D01*
X79839160Y33293341D02*
X79791541Y33483817D01*
X79791541Y33483817D02*
X79791541Y33721912D01*
X79791541Y33721912D02*
X79839160Y33912388D01*
X79839160Y33912388D02*
X79886779Y34007626D01*
X79886779Y34007626D02*
X79934398Y34055245D01*
X79934398Y34055245D02*
X80029636Y34102864D01*
D11*
X136850476Y9932900D02*
X136993333Y9885281D01*
X136993333Y9885281D02*
X137231428Y9885281D01*
X137231428Y9885281D02*
X137326666Y9932900D01*
X137326666Y9932900D02*
X137374285Y9980520D01*
X137374285Y9980520D02*
X137421904Y10075758D01*
X137421904Y10075758D02*
X137421904Y10170996D01*
X137421904Y10170996D02*
X137374285Y10266234D01*
X137374285Y10266234D02*
X137326666Y10313853D01*
X137326666Y10313853D02*
X137231428Y10361472D01*
X137231428Y10361472D02*
X137040952Y10409091D01*
X137040952Y10409091D02*
X136945714Y10456710D01*
X136945714Y10456710D02*
X136898095Y10504329D01*
X136898095Y10504329D02*
X136850476Y10599567D01*
X136850476Y10599567D02*
X136850476Y10694805D01*
X136850476Y10694805D02*
X136898095Y10790043D01*
X136898095Y10790043D02*
X136945714Y10837662D01*
X136945714Y10837662D02*
X137040952Y10885281D01*
X137040952Y10885281D02*
X137279047Y10885281D01*
X137279047Y10885281D02*
X137421904Y10837662D01*
X137755238Y10885281D02*
X137993333Y9885281D01*
X137993333Y9885281D02*
X138183809Y10599567D01*
X138183809Y10599567D02*
X138374285Y9885281D01*
X138374285Y9885281D02*
X138612381Y10885281D01*
X139517142Y9885281D02*
X138945714Y9885281D01*
X139231428Y9885281D02*
X139231428Y10885281D01*
X139231428Y10885281D02*
X139136190Y10742424D01*
X139136190Y10742424D02*
X139040952Y10647186D01*
X139040952Y10647186D02*
X138945714Y10599567D01*
X140088571Y10456710D02*
X139993333Y10504329D01*
X139993333Y10504329D02*
X139945714Y10551948D01*
X139945714Y10551948D02*
X139898095Y10647186D01*
X139898095Y10647186D02*
X139898095Y10694805D01*
X139898095Y10694805D02*
X139945714Y10790043D01*
X139945714Y10790043D02*
X139993333Y10837662D01*
X139993333Y10837662D02*
X140088571Y10885281D01*
X140088571Y10885281D02*
X140279047Y10885281D01*
X140279047Y10885281D02*
X140374285Y10837662D01*
X140374285Y10837662D02*
X140421904Y10790043D01*
X140421904Y10790043D02*
X140469523Y10694805D01*
X140469523Y10694805D02*
X140469523Y10647186D01*
X140469523Y10647186D02*
X140421904Y10551948D01*
X140421904Y10551948D02*
X140374285Y10504329D01*
X140374285Y10504329D02*
X140279047Y10456710D01*
X140279047Y10456710D02*
X140088571Y10456710D01*
X140088571Y10456710D02*
X139993333Y10409091D01*
X139993333Y10409091D02*
X139945714Y10361472D01*
X139945714Y10361472D02*
X139898095Y10266234D01*
X139898095Y10266234D02*
X139898095Y10075758D01*
X139898095Y10075758D02*
X139945714Y9980520D01*
X139945714Y9980520D02*
X139993333Y9932900D01*
X139993333Y9932900D02*
X140088571Y9885281D01*
X140088571Y9885281D02*
X140279047Y9885281D01*
X140279047Y9885281D02*
X140374285Y9932900D01*
X140374285Y9932900D02*
X140421904Y9980520D01*
X140421904Y9980520D02*
X140469523Y10075758D01*
X140469523Y10075758D02*
X140469523Y10266234D01*
X140469523Y10266234D02*
X140421904Y10361472D01*
X140421904Y10361472D02*
X140374285Y10409091D01*
X140374285Y10409091D02*
X140279047Y10456710D01*
X76930476Y9962900D02*
X77073333Y9915281D01*
X77073333Y9915281D02*
X77311428Y9915281D01*
X77311428Y9915281D02*
X77406666Y9962900D01*
X77406666Y9962900D02*
X77454285Y10010520D01*
X77454285Y10010520D02*
X77501904Y10105758D01*
X77501904Y10105758D02*
X77501904Y10200996D01*
X77501904Y10200996D02*
X77454285Y10296234D01*
X77454285Y10296234D02*
X77406666Y10343853D01*
X77406666Y10343853D02*
X77311428Y10391472D01*
X77311428Y10391472D02*
X77120952Y10439091D01*
X77120952Y10439091D02*
X77025714Y10486710D01*
X77025714Y10486710D02*
X76978095Y10534329D01*
X76978095Y10534329D02*
X76930476Y10629567D01*
X76930476Y10629567D02*
X76930476Y10724805D01*
X76930476Y10724805D02*
X76978095Y10820043D01*
X76978095Y10820043D02*
X77025714Y10867662D01*
X77025714Y10867662D02*
X77120952Y10915281D01*
X77120952Y10915281D02*
X77359047Y10915281D01*
X77359047Y10915281D02*
X77501904Y10867662D01*
X77835238Y10915281D02*
X78073333Y9915281D01*
X78073333Y9915281D02*
X78263809Y10629567D01*
X78263809Y10629567D02*
X78454285Y9915281D01*
X78454285Y9915281D02*
X78692381Y10915281D01*
X79597142Y9915281D02*
X79025714Y9915281D01*
X79311428Y9915281D02*
X79311428Y10915281D01*
X79311428Y10915281D02*
X79216190Y10772424D01*
X79216190Y10772424D02*
X79120952Y10677186D01*
X79120952Y10677186D02*
X79025714Y10629567D01*
X80216190Y10915281D02*
X80311428Y10915281D01*
X80311428Y10915281D02*
X80406666Y10867662D01*
X80406666Y10867662D02*
X80454285Y10820043D01*
X80454285Y10820043D02*
X80501904Y10724805D01*
X80501904Y10724805D02*
X80549523Y10534329D01*
X80549523Y10534329D02*
X80549523Y10296234D01*
X80549523Y10296234D02*
X80501904Y10105758D01*
X80501904Y10105758D02*
X80454285Y10010520D01*
X80454285Y10010520D02*
X80406666Y9962900D01*
X80406666Y9962900D02*
X80311428Y9915281D01*
X80311428Y9915281D02*
X80216190Y9915281D01*
X80216190Y9915281D02*
X80120952Y9962900D01*
X80120952Y9962900D02*
X80073333Y10010520D01*
X80073333Y10010520D02*
X80025714Y10105758D01*
X80025714Y10105758D02*
X79978095Y10296234D01*
X79978095Y10296234D02*
X79978095Y10534329D01*
X79978095Y10534329D02*
X80025714Y10724805D01*
X80025714Y10724805D02*
X80073333Y10820043D01*
X80073333Y10820043D02*
X80120952Y10867662D01*
X80120952Y10867662D02*
X80216190Y10915281D01*
X137416667Y26472900D02*
X137559524Y26425281D01*
X137559524Y26425281D02*
X137797619Y26425281D01*
X137797619Y26425281D02*
X137892857Y26472900D01*
X137892857Y26472900D02*
X137940476Y26520520D01*
X137940476Y26520520D02*
X137988095Y26615758D01*
X137988095Y26615758D02*
X137988095Y26710996D01*
X137988095Y26710996D02*
X137940476Y26806234D01*
X137940476Y26806234D02*
X137892857Y26853853D01*
X137892857Y26853853D02*
X137797619Y26901472D01*
X137797619Y26901472D02*
X137607143Y26949091D01*
X137607143Y26949091D02*
X137511905Y26996710D01*
X137511905Y26996710D02*
X137464286Y27044329D01*
X137464286Y27044329D02*
X137416667Y27139567D01*
X137416667Y27139567D02*
X137416667Y27234805D01*
X137416667Y27234805D02*
X137464286Y27330043D01*
X137464286Y27330043D02*
X137511905Y27377662D01*
X137511905Y27377662D02*
X137607143Y27425281D01*
X137607143Y27425281D02*
X137845238Y27425281D01*
X137845238Y27425281D02*
X137988095Y27377662D01*
X138321429Y27425281D02*
X138559524Y26425281D01*
X138559524Y26425281D02*
X138750000Y27139567D01*
X138750000Y27139567D02*
X138940476Y26425281D01*
X138940476Y26425281D02*
X139178572Y27425281D01*
X139464286Y27425281D02*
X140130952Y27425281D01*
X140130952Y27425281D02*
X139702381Y26425281D01*
X62406667Y26462900D02*
X62549524Y26415281D01*
X62549524Y26415281D02*
X62787619Y26415281D01*
X62787619Y26415281D02*
X62882857Y26462900D01*
X62882857Y26462900D02*
X62930476Y26510520D01*
X62930476Y26510520D02*
X62978095Y26605758D01*
X62978095Y26605758D02*
X62978095Y26700996D01*
X62978095Y26700996D02*
X62930476Y26796234D01*
X62930476Y26796234D02*
X62882857Y26843853D01*
X62882857Y26843853D02*
X62787619Y26891472D01*
X62787619Y26891472D02*
X62597143Y26939091D01*
X62597143Y26939091D02*
X62501905Y26986710D01*
X62501905Y26986710D02*
X62454286Y27034329D01*
X62454286Y27034329D02*
X62406667Y27129567D01*
X62406667Y27129567D02*
X62406667Y27224805D01*
X62406667Y27224805D02*
X62454286Y27320043D01*
X62454286Y27320043D02*
X62501905Y27367662D01*
X62501905Y27367662D02*
X62597143Y27415281D01*
X62597143Y27415281D02*
X62835238Y27415281D01*
X62835238Y27415281D02*
X62978095Y27367662D01*
X63311429Y27415281D02*
X63549524Y26415281D01*
X63549524Y26415281D02*
X63740000Y27129567D01*
X63740000Y27129567D02*
X63930476Y26415281D01*
X63930476Y26415281D02*
X64168572Y27415281D01*
X64501905Y27320043D02*
X64549524Y27367662D01*
X64549524Y27367662D02*
X64644762Y27415281D01*
X64644762Y27415281D02*
X64882857Y27415281D01*
X64882857Y27415281D02*
X64978095Y27367662D01*
X64978095Y27367662D02*
X65025714Y27320043D01*
X65025714Y27320043D02*
X65073333Y27224805D01*
X65073333Y27224805D02*
X65073333Y27129567D01*
X65073333Y27129567D02*
X65025714Y26986710D01*
X65025714Y26986710D02*
X64454286Y26415281D01*
X64454286Y26415281D02*
X65073333Y26415281D01*
X152280476Y29112900D02*
X152423333Y29065281D01*
X152423333Y29065281D02*
X152661428Y29065281D01*
X152661428Y29065281D02*
X152756666Y29112900D01*
X152756666Y29112900D02*
X152804285Y29160520D01*
X152804285Y29160520D02*
X152851904Y29255758D01*
X152851904Y29255758D02*
X152851904Y29350996D01*
X152851904Y29350996D02*
X152804285Y29446234D01*
X152804285Y29446234D02*
X152756666Y29493853D01*
X152756666Y29493853D02*
X152661428Y29541472D01*
X152661428Y29541472D02*
X152470952Y29589091D01*
X152470952Y29589091D02*
X152375714Y29636710D01*
X152375714Y29636710D02*
X152328095Y29684329D01*
X152328095Y29684329D02*
X152280476Y29779567D01*
X152280476Y29779567D02*
X152280476Y29874805D01*
X152280476Y29874805D02*
X152328095Y29970043D01*
X152328095Y29970043D02*
X152375714Y30017662D01*
X152375714Y30017662D02*
X152470952Y30065281D01*
X152470952Y30065281D02*
X152709047Y30065281D01*
X152709047Y30065281D02*
X152851904Y30017662D01*
X153185238Y30065281D02*
X153423333Y29065281D01*
X153423333Y29065281D02*
X153613809Y29779567D01*
X153613809Y29779567D02*
X153804285Y29065281D01*
X153804285Y29065281D02*
X154042381Y30065281D01*
X154947142Y29065281D02*
X154375714Y29065281D01*
X154661428Y29065281D02*
X154661428Y30065281D01*
X154661428Y30065281D02*
X154566190Y29922424D01*
X154566190Y29922424D02*
X154470952Y29827186D01*
X154470952Y29827186D02*
X154375714Y29779567D01*
X155423333Y29065281D02*
X155613809Y29065281D01*
X155613809Y29065281D02*
X155709047Y29112900D01*
X155709047Y29112900D02*
X155756666Y29160520D01*
X155756666Y29160520D02*
X155851904Y29303377D01*
X155851904Y29303377D02*
X155899523Y29493853D01*
X155899523Y29493853D02*
X155899523Y29874805D01*
X155899523Y29874805D02*
X155851904Y29970043D01*
X155851904Y29970043D02*
X155804285Y30017662D01*
X155804285Y30017662D02*
X155709047Y30065281D01*
X155709047Y30065281D02*
X155518571Y30065281D01*
X155518571Y30065281D02*
X155423333Y30017662D01*
X155423333Y30017662D02*
X155375714Y29970043D01*
X155375714Y29970043D02*
X155328095Y29874805D01*
X155328095Y29874805D02*
X155328095Y29636710D01*
X155328095Y29636710D02*
X155375714Y29541472D01*
X155375714Y29541472D02*
X155423333Y29493853D01*
X155423333Y29493853D02*
X155518571Y29446234D01*
X155518571Y29446234D02*
X155709047Y29446234D01*
X155709047Y29446234D02*
X155804285Y29493853D01*
X155804285Y29493853D02*
X155851904Y29541472D01*
X155851904Y29541472D02*
X155899523Y29636710D01*
X121880476Y9962900D02*
X122023333Y9915281D01*
X122023333Y9915281D02*
X122261428Y9915281D01*
X122261428Y9915281D02*
X122356666Y9962900D01*
X122356666Y9962900D02*
X122404285Y10010520D01*
X122404285Y10010520D02*
X122451904Y10105758D01*
X122451904Y10105758D02*
X122451904Y10200996D01*
X122451904Y10200996D02*
X122404285Y10296234D01*
X122404285Y10296234D02*
X122356666Y10343853D01*
X122356666Y10343853D02*
X122261428Y10391472D01*
X122261428Y10391472D02*
X122070952Y10439091D01*
X122070952Y10439091D02*
X121975714Y10486710D01*
X121975714Y10486710D02*
X121928095Y10534329D01*
X121928095Y10534329D02*
X121880476Y10629567D01*
X121880476Y10629567D02*
X121880476Y10724805D01*
X121880476Y10724805D02*
X121928095Y10820043D01*
X121928095Y10820043D02*
X121975714Y10867662D01*
X121975714Y10867662D02*
X122070952Y10915281D01*
X122070952Y10915281D02*
X122309047Y10915281D01*
X122309047Y10915281D02*
X122451904Y10867662D01*
X122785238Y10915281D02*
X123023333Y9915281D01*
X123023333Y9915281D02*
X123213809Y10629567D01*
X123213809Y10629567D02*
X123404285Y9915281D01*
X123404285Y9915281D02*
X123642381Y10915281D01*
X124547142Y9915281D02*
X123975714Y9915281D01*
X124261428Y9915281D02*
X124261428Y10915281D01*
X124261428Y10915281D02*
X124166190Y10772424D01*
X124166190Y10772424D02*
X124070952Y10677186D01*
X124070952Y10677186D02*
X123975714Y10629567D01*
X124880476Y10915281D02*
X125499523Y10915281D01*
X125499523Y10915281D02*
X125166190Y10534329D01*
X125166190Y10534329D02*
X125309047Y10534329D01*
X125309047Y10534329D02*
X125404285Y10486710D01*
X125404285Y10486710D02*
X125451904Y10439091D01*
X125451904Y10439091D02*
X125499523Y10343853D01*
X125499523Y10343853D02*
X125499523Y10105758D01*
X125499523Y10105758D02*
X125451904Y10010520D01*
X125451904Y10010520D02*
X125404285Y9962900D01*
X125404285Y9962900D02*
X125309047Y9915281D01*
X125309047Y9915281D02*
X125023333Y9915281D01*
X125023333Y9915281D02*
X124928095Y9962900D01*
X124928095Y9962900D02*
X124880476Y10010520D01*
X77376667Y26512900D02*
X77519524Y26465281D01*
X77519524Y26465281D02*
X77757619Y26465281D01*
X77757619Y26465281D02*
X77852857Y26512900D01*
X77852857Y26512900D02*
X77900476Y26560520D01*
X77900476Y26560520D02*
X77948095Y26655758D01*
X77948095Y26655758D02*
X77948095Y26750996D01*
X77948095Y26750996D02*
X77900476Y26846234D01*
X77900476Y26846234D02*
X77852857Y26893853D01*
X77852857Y26893853D02*
X77757619Y26941472D01*
X77757619Y26941472D02*
X77567143Y26989091D01*
X77567143Y26989091D02*
X77471905Y27036710D01*
X77471905Y27036710D02*
X77424286Y27084329D01*
X77424286Y27084329D02*
X77376667Y27179567D01*
X77376667Y27179567D02*
X77376667Y27274805D01*
X77376667Y27274805D02*
X77424286Y27370043D01*
X77424286Y27370043D02*
X77471905Y27417662D01*
X77471905Y27417662D02*
X77567143Y27465281D01*
X77567143Y27465281D02*
X77805238Y27465281D01*
X77805238Y27465281D02*
X77948095Y27417662D01*
X78281429Y27465281D02*
X78519524Y26465281D01*
X78519524Y26465281D02*
X78710000Y27179567D01*
X78710000Y27179567D02*
X78900476Y26465281D01*
X78900476Y26465281D02*
X79138572Y27465281D01*
X79424286Y27465281D02*
X80043333Y27465281D01*
X80043333Y27465281D02*
X79710000Y27084329D01*
X79710000Y27084329D02*
X79852857Y27084329D01*
X79852857Y27084329D02*
X79948095Y27036710D01*
X79948095Y27036710D02*
X79995714Y26989091D01*
X79995714Y26989091D02*
X80043333Y26893853D01*
X80043333Y26893853D02*
X80043333Y26655758D01*
X80043333Y26655758D02*
X79995714Y26560520D01*
X79995714Y26560520D02*
X79948095Y26512900D01*
X79948095Y26512900D02*
X79852857Y26465281D01*
X79852857Y26465281D02*
X79567143Y26465281D01*
X79567143Y26465281D02*
X79471905Y26512900D01*
X79471905Y26512900D02*
X79424286Y26560520D01*
X182260476Y29112900D02*
X182403333Y29065281D01*
X182403333Y29065281D02*
X182641428Y29065281D01*
X182641428Y29065281D02*
X182736666Y29112900D01*
X182736666Y29112900D02*
X182784285Y29160520D01*
X182784285Y29160520D02*
X182831904Y29255758D01*
X182831904Y29255758D02*
X182831904Y29350996D01*
X182831904Y29350996D02*
X182784285Y29446234D01*
X182784285Y29446234D02*
X182736666Y29493853D01*
X182736666Y29493853D02*
X182641428Y29541472D01*
X182641428Y29541472D02*
X182450952Y29589091D01*
X182450952Y29589091D02*
X182355714Y29636710D01*
X182355714Y29636710D02*
X182308095Y29684329D01*
X182308095Y29684329D02*
X182260476Y29779567D01*
X182260476Y29779567D02*
X182260476Y29874805D01*
X182260476Y29874805D02*
X182308095Y29970043D01*
X182308095Y29970043D02*
X182355714Y30017662D01*
X182355714Y30017662D02*
X182450952Y30065281D01*
X182450952Y30065281D02*
X182689047Y30065281D01*
X182689047Y30065281D02*
X182831904Y30017662D01*
X183165238Y30065281D02*
X183403333Y29065281D01*
X183403333Y29065281D02*
X183593809Y29779567D01*
X183593809Y29779567D02*
X183784285Y29065281D01*
X183784285Y29065281D02*
X184022381Y30065281D01*
X184927142Y29065281D02*
X184355714Y29065281D01*
X184641428Y29065281D02*
X184641428Y30065281D01*
X184641428Y30065281D02*
X184546190Y29922424D01*
X184546190Y29922424D02*
X184450952Y29827186D01*
X184450952Y29827186D02*
X184355714Y29779567D01*
X185784285Y30065281D02*
X185593809Y30065281D01*
X185593809Y30065281D02*
X185498571Y30017662D01*
X185498571Y30017662D02*
X185450952Y29970043D01*
X185450952Y29970043D02*
X185355714Y29827186D01*
X185355714Y29827186D02*
X185308095Y29636710D01*
X185308095Y29636710D02*
X185308095Y29255758D01*
X185308095Y29255758D02*
X185355714Y29160520D01*
X185355714Y29160520D02*
X185403333Y29112900D01*
X185403333Y29112900D02*
X185498571Y29065281D01*
X185498571Y29065281D02*
X185689047Y29065281D01*
X185689047Y29065281D02*
X185784285Y29112900D01*
X185784285Y29112900D02*
X185831904Y29160520D01*
X185831904Y29160520D02*
X185879523Y29255758D01*
X185879523Y29255758D02*
X185879523Y29493853D01*
X185879523Y29493853D02*
X185831904Y29589091D01*
X185831904Y29589091D02*
X185784285Y29636710D01*
X185784285Y29636710D02*
X185689047Y29684329D01*
X185689047Y29684329D02*
X185498571Y29684329D01*
X185498571Y29684329D02*
X185403333Y29636710D01*
X185403333Y29636710D02*
X185355714Y29589091D01*
X185355714Y29589091D02*
X185308095Y29493853D01*
X47386667Y26470200D02*
X47529524Y26422581D01*
X47529524Y26422581D02*
X47767619Y26422581D01*
X47767619Y26422581D02*
X47862857Y26470200D01*
X47862857Y26470200D02*
X47910476Y26517820D01*
X47910476Y26517820D02*
X47958095Y26613058D01*
X47958095Y26613058D02*
X47958095Y26708296D01*
X47958095Y26708296D02*
X47910476Y26803534D01*
X47910476Y26803534D02*
X47862857Y26851153D01*
X47862857Y26851153D02*
X47767619Y26898772D01*
X47767619Y26898772D02*
X47577143Y26946391D01*
X47577143Y26946391D02*
X47481905Y26994010D01*
X47481905Y26994010D02*
X47434286Y27041629D01*
X47434286Y27041629D02*
X47386667Y27136867D01*
X47386667Y27136867D02*
X47386667Y27232105D01*
X47386667Y27232105D02*
X47434286Y27327343D01*
X47434286Y27327343D02*
X47481905Y27374962D01*
X47481905Y27374962D02*
X47577143Y27422581D01*
X47577143Y27422581D02*
X47815238Y27422581D01*
X47815238Y27422581D02*
X47958095Y27374962D01*
X48291429Y27422581D02*
X48529524Y26422581D01*
X48529524Y26422581D02*
X48720000Y27136867D01*
X48720000Y27136867D02*
X48910476Y26422581D01*
X48910476Y26422581D02*
X49148572Y27422581D01*
X50053333Y26422581D02*
X49481905Y26422581D01*
X49767619Y26422581D02*
X49767619Y27422581D01*
X49767619Y27422581D02*
X49672381Y27279724D01*
X49672381Y27279724D02*
X49577143Y27184486D01*
X49577143Y27184486D02*
X49481905Y27136867D01*
X122396667Y26482900D02*
X122539524Y26435281D01*
X122539524Y26435281D02*
X122777619Y26435281D01*
X122777619Y26435281D02*
X122872857Y26482900D01*
X122872857Y26482900D02*
X122920476Y26530520D01*
X122920476Y26530520D02*
X122968095Y26625758D01*
X122968095Y26625758D02*
X122968095Y26720996D01*
X122968095Y26720996D02*
X122920476Y26816234D01*
X122920476Y26816234D02*
X122872857Y26863853D01*
X122872857Y26863853D02*
X122777619Y26911472D01*
X122777619Y26911472D02*
X122587143Y26959091D01*
X122587143Y26959091D02*
X122491905Y27006710D01*
X122491905Y27006710D02*
X122444286Y27054329D01*
X122444286Y27054329D02*
X122396667Y27149567D01*
X122396667Y27149567D02*
X122396667Y27244805D01*
X122396667Y27244805D02*
X122444286Y27340043D01*
X122444286Y27340043D02*
X122491905Y27387662D01*
X122491905Y27387662D02*
X122587143Y27435281D01*
X122587143Y27435281D02*
X122825238Y27435281D01*
X122825238Y27435281D02*
X122968095Y27387662D01*
X123301429Y27435281D02*
X123539524Y26435281D01*
X123539524Y26435281D02*
X123730000Y27149567D01*
X123730000Y27149567D02*
X123920476Y26435281D01*
X123920476Y26435281D02*
X124158572Y27435281D01*
X124968095Y27435281D02*
X124777619Y27435281D01*
X124777619Y27435281D02*
X124682381Y27387662D01*
X124682381Y27387662D02*
X124634762Y27340043D01*
X124634762Y27340043D02*
X124539524Y27197186D01*
X124539524Y27197186D02*
X124491905Y27006710D01*
X124491905Y27006710D02*
X124491905Y26625758D01*
X124491905Y26625758D02*
X124539524Y26530520D01*
X124539524Y26530520D02*
X124587143Y26482900D01*
X124587143Y26482900D02*
X124682381Y26435281D01*
X124682381Y26435281D02*
X124872857Y26435281D01*
X124872857Y26435281D02*
X124968095Y26482900D01*
X124968095Y26482900D02*
X125015714Y26530520D01*
X125015714Y26530520D02*
X125063333Y26625758D01*
X125063333Y26625758D02*
X125063333Y26863853D01*
X125063333Y26863853D02*
X125015714Y26959091D01*
X125015714Y26959091D02*
X124968095Y27006710D01*
X124968095Y27006710D02*
X124872857Y27054329D01*
X124872857Y27054329D02*
X124682381Y27054329D01*
X124682381Y27054329D02*
X124587143Y27006710D01*
X124587143Y27006710D02*
X124539524Y26959091D01*
X124539524Y26959091D02*
X124491905Y26863853D01*
X92386667Y26482900D02*
X92529524Y26435281D01*
X92529524Y26435281D02*
X92767619Y26435281D01*
X92767619Y26435281D02*
X92862857Y26482900D01*
X92862857Y26482900D02*
X92910476Y26530520D01*
X92910476Y26530520D02*
X92958095Y26625758D01*
X92958095Y26625758D02*
X92958095Y26720996D01*
X92958095Y26720996D02*
X92910476Y26816234D01*
X92910476Y26816234D02*
X92862857Y26863853D01*
X92862857Y26863853D02*
X92767619Y26911472D01*
X92767619Y26911472D02*
X92577143Y26959091D01*
X92577143Y26959091D02*
X92481905Y27006710D01*
X92481905Y27006710D02*
X92434286Y27054329D01*
X92434286Y27054329D02*
X92386667Y27149567D01*
X92386667Y27149567D02*
X92386667Y27244805D01*
X92386667Y27244805D02*
X92434286Y27340043D01*
X92434286Y27340043D02*
X92481905Y27387662D01*
X92481905Y27387662D02*
X92577143Y27435281D01*
X92577143Y27435281D02*
X92815238Y27435281D01*
X92815238Y27435281D02*
X92958095Y27387662D01*
X93291429Y27435281D02*
X93529524Y26435281D01*
X93529524Y26435281D02*
X93720000Y27149567D01*
X93720000Y27149567D02*
X93910476Y26435281D01*
X93910476Y26435281D02*
X94148572Y27435281D01*
X94958095Y27101948D02*
X94958095Y26435281D01*
X94720000Y27482900D02*
X94481905Y26768615D01*
X94481905Y26768615D02*
X95100952Y26768615D01*
X91950476Y9962900D02*
X92093333Y9915281D01*
X92093333Y9915281D02*
X92331428Y9915281D01*
X92331428Y9915281D02*
X92426666Y9962900D01*
X92426666Y9962900D02*
X92474285Y10010520D01*
X92474285Y10010520D02*
X92521904Y10105758D01*
X92521904Y10105758D02*
X92521904Y10200996D01*
X92521904Y10200996D02*
X92474285Y10296234D01*
X92474285Y10296234D02*
X92426666Y10343853D01*
X92426666Y10343853D02*
X92331428Y10391472D01*
X92331428Y10391472D02*
X92140952Y10439091D01*
X92140952Y10439091D02*
X92045714Y10486710D01*
X92045714Y10486710D02*
X91998095Y10534329D01*
X91998095Y10534329D02*
X91950476Y10629567D01*
X91950476Y10629567D02*
X91950476Y10724805D01*
X91950476Y10724805D02*
X91998095Y10820043D01*
X91998095Y10820043D02*
X92045714Y10867662D01*
X92045714Y10867662D02*
X92140952Y10915281D01*
X92140952Y10915281D02*
X92379047Y10915281D01*
X92379047Y10915281D02*
X92521904Y10867662D01*
X92855238Y10915281D02*
X93093333Y9915281D01*
X93093333Y9915281D02*
X93283809Y10629567D01*
X93283809Y10629567D02*
X93474285Y9915281D01*
X93474285Y9915281D02*
X93712381Y10915281D01*
X94617142Y9915281D02*
X94045714Y9915281D01*
X94331428Y9915281D02*
X94331428Y10915281D01*
X94331428Y10915281D02*
X94236190Y10772424D01*
X94236190Y10772424D02*
X94140952Y10677186D01*
X94140952Y10677186D02*
X94045714Y10629567D01*
X95569523Y9915281D02*
X94998095Y9915281D01*
X95283809Y9915281D02*
X95283809Y10915281D01*
X95283809Y10915281D02*
X95188571Y10772424D01*
X95188571Y10772424D02*
X95093333Y10677186D01*
X95093333Y10677186D02*
X94998095Y10629567D01*
X182290476Y17712900D02*
X182433333Y17665281D01*
X182433333Y17665281D02*
X182671428Y17665281D01*
X182671428Y17665281D02*
X182766666Y17712900D01*
X182766666Y17712900D02*
X182814285Y17760520D01*
X182814285Y17760520D02*
X182861904Y17855758D01*
X182861904Y17855758D02*
X182861904Y17950996D01*
X182861904Y17950996D02*
X182814285Y18046234D01*
X182814285Y18046234D02*
X182766666Y18093853D01*
X182766666Y18093853D02*
X182671428Y18141472D01*
X182671428Y18141472D02*
X182480952Y18189091D01*
X182480952Y18189091D02*
X182385714Y18236710D01*
X182385714Y18236710D02*
X182338095Y18284329D01*
X182338095Y18284329D02*
X182290476Y18379567D01*
X182290476Y18379567D02*
X182290476Y18474805D01*
X182290476Y18474805D02*
X182338095Y18570043D01*
X182338095Y18570043D02*
X182385714Y18617662D01*
X182385714Y18617662D02*
X182480952Y18665281D01*
X182480952Y18665281D02*
X182719047Y18665281D01*
X182719047Y18665281D02*
X182861904Y18617662D01*
X183195238Y18665281D02*
X183433333Y17665281D01*
X183433333Y17665281D02*
X183623809Y18379567D01*
X183623809Y18379567D02*
X183814285Y17665281D01*
X183814285Y17665281D02*
X184052381Y18665281D01*
X184957142Y17665281D02*
X184385714Y17665281D01*
X184671428Y17665281D02*
X184671428Y18665281D01*
X184671428Y18665281D02*
X184576190Y18522424D01*
X184576190Y18522424D02*
X184480952Y18427186D01*
X184480952Y18427186D02*
X184385714Y18379567D01*
X185814285Y18331948D02*
X185814285Y17665281D01*
X185576190Y18712900D02*
X185338095Y17998615D01*
X185338095Y17998615D02*
X185957142Y17998615D01*
X47376667Y9962900D02*
X47519524Y9915281D01*
X47519524Y9915281D02*
X47757619Y9915281D01*
X47757619Y9915281D02*
X47852857Y9962900D01*
X47852857Y9962900D02*
X47900476Y10010520D01*
X47900476Y10010520D02*
X47948095Y10105758D01*
X47948095Y10105758D02*
X47948095Y10200996D01*
X47948095Y10200996D02*
X47900476Y10296234D01*
X47900476Y10296234D02*
X47852857Y10343853D01*
X47852857Y10343853D02*
X47757619Y10391472D01*
X47757619Y10391472D02*
X47567143Y10439091D01*
X47567143Y10439091D02*
X47471905Y10486710D01*
X47471905Y10486710D02*
X47424286Y10534329D01*
X47424286Y10534329D02*
X47376667Y10629567D01*
X47376667Y10629567D02*
X47376667Y10724805D01*
X47376667Y10724805D02*
X47424286Y10820043D01*
X47424286Y10820043D02*
X47471905Y10867662D01*
X47471905Y10867662D02*
X47567143Y10915281D01*
X47567143Y10915281D02*
X47805238Y10915281D01*
X47805238Y10915281D02*
X47948095Y10867662D01*
X48281429Y10915281D02*
X48519524Y9915281D01*
X48519524Y9915281D02*
X48710000Y10629567D01*
X48710000Y10629567D02*
X48900476Y9915281D01*
X48900476Y9915281D02*
X49138572Y10915281D01*
X49662381Y10486710D02*
X49567143Y10534329D01*
X49567143Y10534329D02*
X49519524Y10581948D01*
X49519524Y10581948D02*
X49471905Y10677186D01*
X49471905Y10677186D02*
X49471905Y10724805D01*
X49471905Y10724805D02*
X49519524Y10820043D01*
X49519524Y10820043D02*
X49567143Y10867662D01*
X49567143Y10867662D02*
X49662381Y10915281D01*
X49662381Y10915281D02*
X49852857Y10915281D01*
X49852857Y10915281D02*
X49948095Y10867662D01*
X49948095Y10867662D02*
X49995714Y10820043D01*
X49995714Y10820043D02*
X50043333Y10724805D01*
X50043333Y10724805D02*
X50043333Y10677186D01*
X50043333Y10677186D02*
X49995714Y10581948D01*
X49995714Y10581948D02*
X49948095Y10534329D01*
X49948095Y10534329D02*
X49852857Y10486710D01*
X49852857Y10486710D02*
X49662381Y10486710D01*
X49662381Y10486710D02*
X49567143Y10439091D01*
X49567143Y10439091D02*
X49519524Y10391472D01*
X49519524Y10391472D02*
X49471905Y10296234D01*
X49471905Y10296234D02*
X49471905Y10105758D01*
X49471905Y10105758D02*
X49519524Y10010520D01*
X49519524Y10010520D02*
X49567143Y9962900D01*
X49567143Y9962900D02*
X49662381Y9915281D01*
X49662381Y9915281D02*
X49852857Y9915281D01*
X49852857Y9915281D02*
X49948095Y9962900D01*
X49948095Y9962900D02*
X49995714Y10010520D01*
X49995714Y10010520D02*
X50043333Y10105758D01*
X50043333Y10105758D02*
X50043333Y10296234D01*
X50043333Y10296234D02*
X49995714Y10391472D01*
X49995714Y10391472D02*
X49948095Y10439091D01*
X49948095Y10439091D02*
X49852857Y10486710D01*
X107386667Y26482900D02*
X107529524Y26435281D01*
X107529524Y26435281D02*
X107767619Y26435281D01*
X107767619Y26435281D02*
X107862857Y26482900D01*
X107862857Y26482900D02*
X107910476Y26530520D01*
X107910476Y26530520D02*
X107958095Y26625758D01*
X107958095Y26625758D02*
X107958095Y26720996D01*
X107958095Y26720996D02*
X107910476Y26816234D01*
X107910476Y26816234D02*
X107862857Y26863853D01*
X107862857Y26863853D02*
X107767619Y26911472D01*
X107767619Y26911472D02*
X107577143Y26959091D01*
X107577143Y26959091D02*
X107481905Y27006710D01*
X107481905Y27006710D02*
X107434286Y27054329D01*
X107434286Y27054329D02*
X107386667Y27149567D01*
X107386667Y27149567D02*
X107386667Y27244805D01*
X107386667Y27244805D02*
X107434286Y27340043D01*
X107434286Y27340043D02*
X107481905Y27387662D01*
X107481905Y27387662D02*
X107577143Y27435281D01*
X107577143Y27435281D02*
X107815238Y27435281D01*
X107815238Y27435281D02*
X107958095Y27387662D01*
X108291429Y27435281D02*
X108529524Y26435281D01*
X108529524Y26435281D02*
X108720000Y27149567D01*
X108720000Y27149567D02*
X108910476Y26435281D01*
X108910476Y26435281D02*
X109148572Y27435281D01*
X110005714Y27435281D02*
X109529524Y27435281D01*
X109529524Y27435281D02*
X109481905Y26959091D01*
X109481905Y26959091D02*
X109529524Y27006710D01*
X109529524Y27006710D02*
X109624762Y27054329D01*
X109624762Y27054329D02*
X109862857Y27054329D01*
X109862857Y27054329D02*
X109958095Y27006710D01*
X109958095Y27006710D02*
X110005714Y26959091D01*
X110005714Y26959091D02*
X110053333Y26863853D01*
X110053333Y26863853D02*
X110053333Y26625758D01*
X110053333Y26625758D02*
X110005714Y26530520D01*
X110005714Y26530520D02*
X109958095Y26482900D01*
X109958095Y26482900D02*
X109862857Y26435281D01*
X109862857Y26435281D02*
X109624762Y26435281D01*
X109624762Y26435281D02*
X109529524Y26482900D01*
X109529524Y26482900D02*
X109481905Y26530520D01*
X152280476Y17722900D02*
X152423333Y17675281D01*
X152423333Y17675281D02*
X152661428Y17675281D01*
X152661428Y17675281D02*
X152756666Y17722900D01*
X152756666Y17722900D02*
X152804285Y17770520D01*
X152804285Y17770520D02*
X152851904Y17865758D01*
X152851904Y17865758D02*
X152851904Y17960996D01*
X152851904Y17960996D02*
X152804285Y18056234D01*
X152804285Y18056234D02*
X152756666Y18103853D01*
X152756666Y18103853D02*
X152661428Y18151472D01*
X152661428Y18151472D02*
X152470952Y18199091D01*
X152470952Y18199091D02*
X152375714Y18246710D01*
X152375714Y18246710D02*
X152328095Y18294329D01*
X152328095Y18294329D02*
X152280476Y18389567D01*
X152280476Y18389567D02*
X152280476Y18484805D01*
X152280476Y18484805D02*
X152328095Y18580043D01*
X152328095Y18580043D02*
X152375714Y18627662D01*
X152375714Y18627662D02*
X152470952Y18675281D01*
X152470952Y18675281D02*
X152709047Y18675281D01*
X152709047Y18675281D02*
X152851904Y18627662D01*
X153185238Y18675281D02*
X153423333Y17675281D01*
X153423333Y17675281D02*
X153613809Y18389567D01*
X153613809Y18389567D02*
X153804285Y17675281D01*
X153804285Y17675281D02*
X154042381Y18675281D01*
X154947142Y17675281D02*
X154375714Y17675281D01*
X154661428Y17675281D02*
X154661428Y18675281D01*
X154661428Y18675281D02*
X154566190Y18532424D01*
X154566190Y18532424D02*
X154470952Y18437186D01*
X154470952Y18437186D02*
X154375714Y18389567D01*
X155280476Y18675281D02*
X155947142Y18675281D01*
X155947142Y18675281D02*
X155518571Y17675281D01*
X168335714Y70185264D02*
X168335714Y71185264D01*
X168335714Y71185264D02*
X168573809Y71185264D01*
X168573809Y71185264D02*
X168716666Y71137645D01*
X168716666Y71137645D02*
X168811904Y71042407D01*
X168811904Y71042407D02*
X168859523Y70947169D01*
X168859523Y70947169D02*
X168907142Y70756693D01*
X168907142Y70756693D02*
X168907142Y70613836D01*
X168907142Y70613836D02*
X168859523Y70423360D01*
X168859523Y70423360D02*
X168811904Y70328122D01*
X168811904Y70328122D02*
X168716666Y70232883D01*
X168716666Y70232883D02*
X168573809Y70185264D01*
X168573809Y70185264D02*
X168335714Y70185264D01*
X169288095Y70232883D02*
X169430952Y70185264D01*
X169430952Y70185264D02*
X169669047Y70185264D01*
X169669047Y70185264D02*
X169764285Y70232883D01*
X169764285Y70232883D02*
X169811904Y70280503D01*
X169811904Y70280503D02*
X169859523Y70375741D01*
X169859523Y70375741D02*
X169859523Y70470979D01*
X169859523Y70470979D02*
X169811904Y70566217D01*
X169811904Y70566217D02*
X169764285Y70613836D01*
X169764285Y70613836D02*
X169669047Y70661455D01*
X169669047Y70661455D02*
X169478571Y70709074D01*
X169478571Y70709074D02*
X169383333Y70756693D01*
X169383333Y70756693D02*
X169335714Y70804312D01*
X169335714Y70804312D02*
X169288095Y70899550D01*
X169288095Y70899550D02*
X169288095Y70994788D01*
X169288095Y70994788D02*
X169335714Y71090026D01*
X169335714Y71090026D02*
X169383333Y71137645D01*
X169383333Y71137645D02*
X169478571Y71185264D01*
X169478571Y71185264D02*
X169716666Y71185264D01*
X169716666Y71185264D02*
X169859523Y71137645D01*
X170811904Y70185264D02*
X170240476Y70185264D01*
X170526190Y70185264D02*
X170526190Y71185264D01*
X170526190Y71185264D02*
X170430952Y71042407D01*
X170430952Y71042407D02*
X170335714Y70947169D01*
X170335714Y70947169D02*
X170240476Y70899550D01*
X62406667Y9942900D02*
X62549524Y9895281D01*
X62549524Y9895281D02*
X62787619Y9895281D01*
X62787619Y9895281D02*
X62882857Y9942900D01*
X62882857Y9942900D02*
X62930476Y9990520D01*
X62930476Y9990520D02*
X62978095Y10085758D01*
X62978095Y10085758D02*
X62978095Y10180996D01*
X62978095Y10180996D02*
X62930476Y10276234D01*
X62930476Y10276234D02*
X62882857Y10323853D01*
X62882857Y10323853D02*
X62787619Y10371472D01*
X62787619Y10371472D02*
X62597143Y10419091D01*
X62597143Y10419091D02*
X62501905Y10466710D01*
X62501905Y10466710D02*
X62454286Y10514329D01*
X62454286Y10514329D02*
X62406667Y10609567D01*
X62406667Y10609567D02*
X62406667Y10704805D01*
X62406667Y10704805D02*
X62454286Y10800043D01*
X62454286Y10800043D02*
X62501905Y10847662D01*
X62501905Y10847662D02*
X62597143Y10895281D01*
X62597143Y10895281D02*
X62835238Y10895281D01*
X62835238Y10895281D02*
X62978095Y10847662D01*
X63311429Y10895281D02*
X63549524Y9895281D01*
X63549524Y9895281D02*
X63740000Y10609567D01*
X63740000Y10609567D02*
X63930476Y9895281D01*
X63930476Y9895281D02*
X64168572Y10895281D01*
X64597143Y9895281D02*
X64787619Y9895281D01*
X64787619Y9895281D02*
X64882857Y9942900D01*
X64882857Y9942900D02*
X64930476Y9990520D01*
X64930476Y9990520D02*
X65025714Y10133377D01*
X65025714Y10133377D02*
X65073333Y10323853D01*
X65073333Y10323853D02*
X65073333Y10704805D01*
X65073333Y10704805D02*
X65025714Y10800043D01*
X65025714Y10800043D02*
X64978095Y10847662D01*
X64978095Y10847662D02*
X64882857Y10895281D01*
X64882857Y10895281D02*
X64692381Y10895281D01*
X64692381Y10895281D02*
X64597143Y10847662D01*
X64597143Y10847662D02*
X64549524Y10800043D01*
X64549524Y10800043D02*
X64501905Y10704805D01*
X64501905Y10704805D02*
X64501905Y10466710D01*
X64501905Y10466710D02*
X64549524Y10371472D01*
X64549524Y10371472D02*
X64597143Y10323853D01*
X64597143Y10323853D02*
X64692381Y10276234D01*
X64692381Y10276234D02*
X64882857Y10276234D01*
X64882857Y10276234D02*
X64978095Y10323853D01*
X64978095Y10323853D02*
X65025714Y10371472D01*
X65025714Y10371472D02*
X65073333Y10466710D01*
X167280476Y29112900D02*
X167423333Y29065281D01*
X167423333Y29065281D02*
X167661428Y29065281D01*
X167661428Y29065281D02*
X167756666Y29112900D01*
X167756666Y29112900D02*
X167804285Y29160520D01*
X167804285Y29160520D02*
X167851904Y29255758D01*
X167851904Y29255758D02*
X167851904Y29350996D01*
X167851904Y29350996D02*
X167804285Y29446234D01*
X167804285Y29446234D02*
X167756666Y29493853D01*
X167756666Y29493853D02*
X167661428Y29541472D01*
X167661428Y29541472D02*
X167470952Y29589091D01*
X167470952Y29589091D02*
X167375714Y29636710D01*
X167375714Y29636710D02*
X167328095Y29684329D01*
X167328095Y29684329D02*
X167280476Y29779567D01*
X167280476Y29779567D02*
X167280476Y29874805D01*
X167280476Y29874805D02*
X167328095Y29970043D01*
X167328095Y29970043D02*
X167375714Y30017662D01*
X167375714Y30017662D02*
X167470952Y30065281D01*
X167470952Y30065281D02*
X167709047Y30065281D01*
X167709047Y30065281D02*
X167851904Y30017662D01*
X168185238Y30065281D02*
X168423333Y29065281D01*
X168423333Y29065281D02*
X168613809Y29779567D01*
X168613809Y29779567D02*
X168804285Y29065281D01*
X168804285Y29065281D02*
X169042381Y30065281D01*
X169375714Y29970043D02*
X169423333Y30017662D01*
X169423333Y30017662D02*
X169518571Y30065281D01*
X169518571Y30065281D02*
X169756666Y30065281D01*
X169756666Y30065281D02*
X169851904Y30017662D01*
X169851904Y30017662D02*
X169899523Y29970043D01*
X169899523Y29970043D02*
X169947142Y29874805D01*
X169947142Y29874805D02*
X169947142Y29779567D01*
X169947142Y29779567D02*
X169899523Y29636710D01*
X169899523Y29636710D02*
X169328095Y29065281D01*
X169328095Y29065281D02*
X169947142Y29065281D01*
X170566190Y30065281D02*
X170661428Y30065281D01*
X170661428Y30065281D02*
X170756666Y30017662D01*
X170756666Y30017662D02*
X170804285Y29970043D01*
X170804285Y29970043D02*
X170851904Y29874805D01*
X170851904Y29874805D02*
X170899523Y29684329D01*
X170899523Y29684329D02*
X170899523Y29446234D01*
X170899523Y29446234D02*
X170851904Y29255758D01*
X170851904Y29255758D02*
X170804285Y29160520D01*
X170804285Y29160520D02*
X170756666Y29112900D01*
X170756666Y29112900D02*
X170661428Y29065281D01*
X170661428Y29065281D02*
X170566190Y29065281D01*
X170566190Y29065281D02*
X170470952Y29112900D01*
X170470952Y29112900D02*
X170423333Y29160520D01*
X170423333Y29160520D02*
X170375714Y29255758D01*
X170375714Y29255758D02*
X170328095Y29446234D01*
X170328095Y29446234D02*
X170328095Y29684329D01*
X170328095Y29684329D02*
X170375714Y29874805D01*
X170375714Y29874805D02*
X170423333Y29970043D01*
X170423333Y29970043D02*
X170470952Y30017662D01*
X170470952Y30017662D02*
X170566190Y30065281D01*
X167240476Y17722900D02*
X167383333Y17675281D01*
X167383333Y17675281D02*
X167621428Y17675281D01*
X167621428Y17675281D02*
X167716666Y17722900D01*
X167716666Y17722900D02*
X167764285Y17770520D01*
X167764285Y17770520D02*
X167811904Y17865758D01*
X167811904Y17865758D02*
X167811904Y17960996D01*
X167811904Y17960996D02*
X167764285Y18056234D01*
X167764285Y18056234D02*
X167716666Y18103853D01*
X167716666Y18103853D02*
X167621428Y18151472D01*
X167621428Y18151472D02*
X167430952Y18199091D01*
X167430952Y18199091D02*
X167335714Y18246710D01*
X167335714Y18246710D02*
X167288095Y18294329D01*
X167288095Y18294329D02*
X167240476Y18389567D01*
X167240476Y18389567D02*
X167240476Y18484805D01*
X167240476Y18484805D02*
X167288095Y18580043D01*
X167288095Y18580043D02*
X167335714Y18627662D01*
X167335714Y18627662D02*
X167430952Y18675281D01*
X167430952Y18675281D02*
X167669047Y18675281D01*
X167669047Y18675281D02*
X167811904Y18627662D01*
X168145238Y18675281D02*
X168383333Y17675281D01*
X168383333Y17675281D02*
X168573809Y18389567D01*
X168573809Y18389567D02*
X168764285Y17675281D01*
X168764285Y17675281D02*
X169002381Y18675281D01*
X169907142Y17675281D02*
X169335714Y17675281D01*
X169621428Y17675281D02*
X169621428Y18675281D01*
X169621428Y18675281D02*
X169526190Y18532424D01*
X169526190Y18532424D02*
X169430952Y18437186D01*
X169430952Y18437186D02*
X169335714Y18389567D01*
X170811904Y18675281D02*
X170335714Y18675281D01*
X170335714Y18675281D02*
X170288095Y18199091D01*
X170288095Y18199091D02*
X170335714Y18246710D01*
X170335714Y18246710D02*
X170430952Y18294329D01*
X170430952Y18294329D02*
X170669047Y18294329D01*
X170669047Y18294329D02*
X170764285Y18246710D01*
X170764285Y18246710D02*
X170811904Y18199091D01*
X170811904Y18199091D02*
X170859523Y18103853D01*
X170859523Y18103853D02*
X170859523Y17865758D01*
X170859523Y17865758D02*
X170811904Y17770520D01*
X170811904Y17770520D02*
X170764285Y17722900D01*
X170764285Y17722900D02*
X170669047Y17675281D01*
X170669047Y17675281D02*
X170430952Y17675281D01*
X170430952Y17675281D02*
X170335714Y17722900D01*
X170335714Y17722900D02*
X170288095Y17770520D01*
X106860476Y9962900D02*
X107003333Y9915281D01*
X107003333Y9915281D02*
X107241428Y9915281D01*
X107241428Y9915281D02*
X107336666Y9962900D01*
X107336666Y9962900D02*
X107384285Y10010520D01*
X107384285Y10010520D02*
X107431904Y10105758D01*
X107431904Y10105758D02*
X107431904Y10200996D01*
X107431904Y10200996D02*
X107384285Y10296234D01*
X107384285Y10296234D02*
X107336666Y10343853D01*
X107336666Y10343853D02*
X107241428Y10391472D01*
X107241428Y10391472D02*
X107050952Y10439091D01*
X107050952Y10439091D02*
X106955714Y10486710D01*
X106955714Y10486710D02*
X106908095Y10534329D01*
X106908095Y10534329D02*
X106860476Y10629567D01*
X106860476Y10629567D02*
X106860476Y10724805D01*
X106860476Y10724805D02*
X106908095Y10820043D01*
X106908095Y10820043D02*
X106955714Y10867662D01*
X106955714Y10867662D02*
X107050952Y10915281D01*
X107050952Y10915281D02*
X107289047Y10915281D01*
X107289047Y10915281D02*
X107431904Y10867662D01*
X107765238Y10915281D02*
X108003333Y9915281D01*
X108003333Y9915281D02*
X108193809Y10629567D01*
X108193809Y10629567D02*
X108384285Y9915281D01*
X108384285Y9915281D02*
X108622381Y10915281D01*
X109527142Y9915281D02*
X108955714Y9915281D01*
X109241428Y9915281D02*
X109241428Y10915281D01*
X109241428Y10915281D02*
X109146190Y10772424D01*
X109146190Y10772424D02*
X109050952Y10677186D01*
X109050952Y10677186D02*
X108955714Y10629567D01*
X109908095Y10820043D02*
X109955714Y10867662D01*
X109955714Y10867662D02*
X110050952Y10915281D01*
X110050952Y10915281D02*
X110289047Y10915281D01*
X110289047Y10915281D02*
X110384285Y10867662D01*
X110384285Y10867662D02*
X110431904Y10820043D01*
X110431904Y10820043D02*
X110479523Y10724805D01*
X110479523Y10724805D02*
X110479523Y10629567D01*
X110479523Y10629567D02*
X110431904Y10486710D01*
X110431904Y10486710D02*
X109860476Y9915281D01*
X109860476Y9915281D02*
X110479523Y9915281D01*
%TO.C,DS1*%
X42090000Y73570000D02*
X165840000Y73570000D01*
X165840000Y34570000D01*
X42090000Y34570000D01*
X42090000Y73570000D01*
X58840000Y65970000D02*
X148840000Y65970000D01*
X148840000Y44970000D01*
X58840000Y44970000D01*
X58840000Y65970000D01*
%TD*%
%LPC*%
%TO.C,SW18*%
D12*
X135572500Y7842700D02*
G75*
G02*
X132347500Y7842700I-1612500J0D01*
G01*
X132347500Y7842700D02*
G75*
G02*
X135572500Y7842700I1612500J0D01*
G01*
%TO.C,SW10*%
X75652500Y7872700D02*
G75*
G02*
X72427500Y7872700I-1612500J0D01*
G01*
X72427500Y7872700D02*
G75*
G02*
X75652500Y7872700I1612500J0D01*
G01*
%TO.C,SW7*%
X135662500Y24382700D02*
G75*
G02*
X132437500Y24382700I-1612500J0D01*
G01*
X132437500Y24382700D02*
G75*
G02*
X135662500Y24382700I1612500J0D01*
G01*
%TO.C,SW2*%
X60652500Y24372700D02*
G75*
G02*
X57427500Y24372700I-1612500J0D01*
G01*
X57427500Y24372700D02*
G75*
G02*
X60652500Y24372700I1612500J0D01*
G01*
%TO.C,SW19*%
X151002500Y27022700D02*
G75*
G02*
X147777500Y27022700I-1612500J0D01*
G01*
X147777500Y27022700D02*
G75*
G02*
X151002500Y27022700I1612500J0D01*
G01*
%TO.C,SW13*%
X120602500Y7872700D02*
G75*
G02*
X117377500Y7872700I-1612500J0D01*
G01*
X117377500Y7872700D02*
G75*
G02*
X120602500Y7872700I1612500J0D01*
G01*
%TO.C,SW3*%
X75622500Y24422700D02*
G75*
G02*
X72397500Y24422700I-1612500J0D01*
G01*
X72397500Y24422700D02*
G75*
G02*
X75622500Y24422700I1612500J0D01*
G01*
%TO.C,SW16*%
X180982500Y27022700D02*
G75*
G02*
X177757500Y27022700I-1612500J0D01*
G01*
X177757500Y27022700D02*
G75*
G02*
X180982500Y27022700I1612500J0D01*
G01*
%TO.C,SW1*%
X45632500Y24380000D02*
G75*
G02*
X42407500Y24380000I-1612500J0D01*
G01*
X42407500Y24380000D02*
G75*
G02*
X45632500Y24380000I1612500J0D01*
G01*
%TO.C,SW6*%
X120642500Y24392700D02*
G75*
G02*
X117417500Y24392700I-1612500J0D01*
G01*
X117417500Y24392700D02*
G75*
G02*
X120642500Y24392700I1612500J0D01*
G01*
%TO.C,SW4*%
X90632500Y24392700D02*
G75*
G02*
X87407500Y24392700I-1612500J0D01*
G01*
X87407500Y24392700D02*
G75*
G02*
X90632500Y24392700I1612500J0D01*
G01*
%TO.C,SW11*%
X90672500Y7872700D02*
G75*
G02*
X87447500Y7872700I-1612500J0D01*
G01*
X87447500Y7872700D02*
G75*
G02*
X90672500Y7872700I1612500J0D01*
G01*
%TO.C,SW14*%
X181012500Y15622700D02*
G75*
G02*
X177787500Y15622700I-1612500J0D01*
G01*
X177787500Y15622700D02*
G75*
G02*
X181012500Y15622700I1612500J0D01*
G01*
%TO.C,SW8*%
X45622500Y7872700D02*
G75*
G02*
X42397500Y7872700I-1612500J0D01*
G01*
X42397500Y7872700D02*
G75*
G02*
X45622500Y7872700I1612500J0D01*
G01*
%TO.C,SW5*%
X105632500Y24392700D02*
G75*
G02*
X102407500Y24392700I-1612500J0D01*
G01*
X102407500Y24392700D02*
G75*
G02*
X105632500Y24392700I1612500J0D01*
G01*
%TO.C,SW17*%
X151002500Y15632700D02*
G75*
G02*
X147777500Y15632700I-1612500J0D01*
G01*
X147777500Y15632700D02*
G75*
G02*
X151002500Y15632700I1612500J0D01*
G01*
%TO.C,SW9*%
X60652500Y7852700D02*
G75*
G02*
X57427500Y7852700I-1612500J0D01*
G01*
X57427500Y7852700D02*
G75*
G02*
X60652500Y7852700I1612500J0D01*
G01*
%TO.C,SW20*%
X166002500Y27022700D02*
G75*
G02*
X162777500Y27022700I-1612500J0D01*
G01*
X162777500Y27022700D02*
G75*
G02*
X166002500Y27022700I1612500J0D01*
G01*
%TO.C,SW15*%
X165962500Y15632700D02*
G75*
G02*
X162737500Y15632700I-1612500J0D01*
G01*
X162737500Y15632700D02*
G75*
G02*
X165962500Y15632700I1612500J0D01*
G01*
%TO.C,SW12*%
X105582500Y7872700D02*
G75*
G02*
X102357500Y7872700I-1612500J0D01*
G01*
X102357500Y7872700D02*
G75*
G02*
X105582500Y7872700I1612500J0D01*
G01*
%TD*%
D13*
%TO.C,SW18*%
X131360000Y7842700D03*
D14*
X136510000Y7842700D03*
%TD*%
D13*
%TO.C,SW10*%
X71440000Y7872700D03*
D14*
X76590000Y7872700D03*
%TD*%
D13*
%TO.C,SW7*%
X131450000Y24382700D03*
D14*
X136600000Y24382700D03*
%TD*%
D13*
%TO.C,SW2*%
X56440000Y24372700D03*
D14*
X61590000Y24372700D03*
%TD*%
D13*
%TO.C,SW19*%
X146790000Y27022700D03*
D14*
X151940000Y27022700D03*
%TD*%
D13*
%TO.C,SW13*%
X116390000Y7872700D03*
D14*
X121540000Y7872700D03*
%TD*%
D13*
%TO.C,SW3*%
X71410000Y24422700D03*
D14*
X76560000Y24422700D03*
%TD*%
D13*
%TO.C,SW16*%
X176770000Y27022700D03*
D14*
X181920000Y27022700D03*
%TD*%
D13*
%TO.C,SW1*%
X41420000Y24380000D03*
D14*
X46570000Y24380000D03*
%TD*%
D13*
%TO.C,SW6*%
X116430000Y24392700D03*
D14*
X121580000Y24392700D03*
%TD*%
D13*
%TO.C,SW4*%
X86420000Y24392700D03*
D14*
X91570000Y24392700D03*
%TD*%
D13*
%TO.C,SW11*%
X86460000Y7872700D03*
D14*
X91610000Y7872700D03*
%TD*%
D13*
%TO.C,SW14*%
X176800000Y15622700D03*
D14*
X181950000Y15622700D03*
%TD*%
D13*
%TO.C,SW8*%
X41410000Y7872700D03*
D14*
X46560000Y7872700D03*
%TD*%
D13*
%TO.C,SW5*%
X101420000Y24392700D03*
D14*
X106570000Y24392700D03*
%TD*%
D13*
%TO.C,SW17*%
X146790000Y15632700D03*
D14*
X151940000Y15632700D03*
%TD*%
D15*
%TO.C,DS1*%
X56340000Y36570000D03*
X58880000Y36570000D03*
X61420000Y36570000D03*
X63960000Y36570000D03*
X66500000Y36570000D03*
X69040000Y36570000D03*
X71580000Y36570000D03*
X74120000Y36570000D03*
X76660000Y36570000D03*
X79200000Y36570000D03*
X132540000Y36570000D03*
X135080000Y36570000D03*
X137620000Y36570000D03*
X140160000Y36570000D03*
X142700000Y36570000D03*
X145240000Y36570000D03*
X147780000Y36570000D03*
X150320000Y36570000D03*
X152860000Y36570000D03*
X155400000Y36570000D03*
X157940000Y36570000D03*
%TD*%
D13*
%TO.C,SW9*%
X56440000Y7852700D03*
D14*
X61590000Y7852700D03*
%TD*%
D13*
%TO.C,SW20*%
X161790000Y27022700D03*
D14*
X166940000Y27022700D03*
%TD*%
D13*
%TO.C,SW15*%
X161750000Y15632700D03*
D14*
X166900000Y15632700D03*
%TD*%
D13*
%TO.C,SW12*%
X101370000Y7872700D03*
D14*
X106520000Y7872700D03*
%TD*%
D16*
%TO.C,J3*%
X73907400Y46068100D03*
D17*
X71757400Y48868100D03*
D16*
X73907400Y51668100D03*
%TD*%
D18*
%TO.C,J2*%
X73272400Y61343100D03*
D19*
X73272400Y58803100D03*
%TD*%
D20*
%TO.C,LS1*%
X42790000Y40982700D03*
D21*
X42790000Y50982700D03*
%TD*%
D22*
%TO.C,TP4*%
X173450000Y67732683D03*
%TD*%
D23*
%TO.C,J204*%
X153050000Y56550000D03*
D24*
X155590000Y56550000D03*
X158130000Y56550000D03*
X160670000Y56550000D03*
X163210000Y56550000D03*
X165750000Y56550000D03*
X168290000Y56550000D03*
X170830000Y56550000D03*
X170830000Y48930000D03*
X168290000Y48930000D03*
X165750000Y48930000D03*
X163210000Y48930000D03*
X160670000Y48930000D03*
X158130000Y48930000D03*
X155590000Y48930000D03*
X153050000Y48930000D03*
%TD*%
D22*
%TO.C,TP5*%
X173510000Y61952683D03*
%TD*%
D25*
%TO.C,TP2*%
X94970000Y41262683D03*
%TD*%
%TO.C,TP3*%
X91830000Y41352683D03*
%TD*%
D23*
%TO.C,J203*%
X130280000Y56660000D03*
D24*
X132820000Y56660000D03*
X135360000Y56660000D03*
X137900000Y56660000D03*
X140440000Y56660000D03*
X142980000Y56660000D03*
X145520000Y56660000D03*
X148060000Y56660000D03*
X148060000Y49040000D03*
X145520000Y49040000D03*
X142980000Y49040000D03*
X140440000Y49040000D03*
X137900000Y49040000D03*
X135360000Y49040000D03*
X132820000Y49040000D03*
X130280000Y49040000D03*
%TD*%
%LPD*%
M02*
