0
SECTION
2
HEADER
9
$INSUNITS
70
4
9
$ACADVER
1
AC1014
9
$HANDSEED
5
FFFF
0
ENDSEC
0
SECTION
2
TABLES
0
TABLE
2
VPORT
5
8
100
AcDbSymbolTable
0
ENDTAB
0
TABLE
2
LTYPE
5
5
100
AcDbSymbolTable
0
LTYPE
5
14
100
AcDbSymbolTableRecord
100
AcDbLinetypeTableRecord
2
BYBLOCK
70
0
0
LTYPE
5
15
100
AcDbSymbolTableRecord
100
AcDbLinetypeTableRecord
2
BYLAYER
70
0
0
ENDTAB
0
TABLE
2
LAYER
5
2
100
AcDbSymbolTable
70
2
0
LAYER
5
50
100
AcDbSymbolTableRecord
100
AcDbLayerTableRecord
2
0
70
0
6
CONTINUOUS
0
ENDTAB
0
TABLE
2
STYLE
5
3
100
AcDbSymbolTable
70
1
0
STYLE
5
11
100
AcDbSymbolTableRecord
100
AcDbTextStyleTableRecord
2
STANDARD
70
0
0
ENDTAB
0
TABLE
2
VIEW
5
6
100
AcDbSymbolTable
70
0
0
ENDTAB
0
TABLE
2
UCS
5
7
100
AcDbSymbolTable
70
0
0
ENDTAB
0
TABLE
2
APPID
5
9
100
AcDbSymbolTable
70
2
0
APPID
5
12
100
AcDbSymbolTableRecord
100
AcDbRegAppTableRecord
2
ACAD
70
0
0
ENDTAB
0
TABLE
2
DIMSTYLE
5
A
100
AcDbSymbolTable
70
1
0
ENDTAB
0
TABLE
2
BLOCK_RECORD
5
1
100
AcDbSymbolTable
70
1
0
BLOCK_RECORD
5
1F
100
AcDbSymbolTableRecord
100
AcDbBlockTableRecord
2
*MODEL_SPACE
0
BLOCK_RECORD
5
1B
100
AcDbSymbolTableRecord
100
AcDbBlockTableRecord
2
*PAPER_SPACE
0
ENDTAB
0
ENDSEC
0
SECTION
2
BLOCKS
0
BLOCK
5
20
100
AcDbEntity
100
AcDbBlockBegin
2
*MODEL_SPACE
0
ENDBLK
5
21
100
AcDbEntity
100
AcDbBlockEnd
0
BLOCK
5
1C
100
AcDbEntity
100
AcDbBlockBegin
2
*PAPER_SPACE
0
ENDBLK
5
1D
100
AcDbEntity
100
AcDbBlockEnd
0
ENDSEC
0
SECTION
2
ENTITIES
0
LWPOLYLINE
5
100
100
AcDbEntity
8
0
100
AcDbPolyline
90
9
70
1
43
0.0
10
-93.999999999991843
20
35.899999999999729
10
93.999999999993364
20
35.899999999999721
10
-93.999999999991843
20
-35.899999999999139
10
-93.999999999991843
20
-27.360000000000273
10
-88.599999999991866
20
-27.360000000000273
42
0.41421356237309509
10
-80.599999999991851
20
-19.360000000000269
10
-80.599999999991851
20
21.499999999999687
42
0.41421356237309509
10
-88.599999999991866
20
29.499999999999687
10
-93.999999999991843
20
29.499999999999726
0
LINE
5
101
100
AcDbEntity
8
0
100
AcDbLine
10
93.999999999993364
20
35.899999999999721
30
0
11
93.999999999993364
21
-35.900000000000269
31
0
0
LINE
5
102
100
AcDbEntity
8
0
100
AcDbLine
10
-93.999999999991843
20
35.899999999999729
30
0
11
93.999999999993364
21
-35.900000000000269
31
0
0
CIRCLE
5
103
100
AcDbEntity
8
0
100
AcDbCircle
10
-79.69999999999186
20
30.599999999999731
30
0
40
1.7000000000000013
210
0
220
0
230
1
0
CIRCLE
5
104
100
AcDbEntity
8
0
100
AcDbCircle
10
-79.69999999999186
20
-30.600000000000275
30
0
40
1.7000000000000013
210
0
220
0
230
1
0
CIRCLE
5
105
100
AcDbEntity
8
0
100
AcDbCircle
10
87.499999999993349
20
30.599999999999731
30
0
40
1.7000000000000013
210
0
220
0
230
1
0
CIRCLE
5
106
100
AcDbEntity
8
0
100
AcDbCircle
10
87.499999999993349
20
-30.600000000000271
30
0
40
1.7000000000000013
210
0
220
0
230
1
0
LINE
5
107
100
AcDbEntity
8
0
100
AcDbLine
10
75.999999999993349
20
-35.900000000000269
30
0
11
75.999999999993349
21
-28.050000000000267
31
0
0
LINE
5
108
100
AcDbEntity
8
0
100
AcDbLine
10
74.999999999993349
20
-27.050000000000271
30
0
11
64.499999999993349
21
-27.050000000000267
31
0
0
LINE
5
109
100
AcDbEntity
8
0
100
AcDbLine
10
63.499999999993349
20
-28.050000000000267
30
0
11
63.499999999993349
21
-35.900000000000269
31
0
0
LINE
5
110
100
AcDbEntity
8
0
100
AcDbLine
10
93.999999999993364
20
-35.900000000000269
30
0
11
75.999999999993349
21
-35.900000000000269
31
0
0
LWPOLYLINE
5
111
100
AcDbEntity
8
0
100
AcDbPolyline
90
8
70
1
43
0.0
10
82.569999999993357
20
21.299999999999727
10
88.829999999993362
20
21.299999999999724
42
-0.41421356237309509
10
89.829999999993362
20
20.299999999999727
10
89.829999999993362
20
14.779999999999728
42
-0.41421356237309509
10
88.829999999993362
20
13.779999999999731
10
82.569999999993357
20
13.779999999999731
42
-0.4142135623730957
10
81.569999999993357
20
14.779999999999729
10
81.569999999993357
20
20.299999999999727
42
-0.41421356237309509
0
CIRCLE
5
112
100
AcDbEntity
8
0
100
AcDbCircle
10
85.099999999993358
20
6.2599999999997262
30
0
40
5.5
210
0
220
0
230
1
0
LINE
5
113
100
AcDbEntity
8
0
100
AcDbLine
10
85.099999999993358
20
11.759999999999726
30
0
11
93.999999999993364
21
11.759999999999726
31
0
0
LINE
5
114
100
AcDbEntity
8
0
100
AcDbLine
10
90.599999999993358
20
11.759999999999726
30
0
11
90.599999999993358
21
6.2599999999997262
31
0
0
LINE
5
115
100
AcDbEntity
8
0
100
AcDbLine
10
-70.000000000006651
20
31.205834851556098
30
0
11
-70.000000000006651
21
-35.899999999999316
31
0
0
CIRCLE
5
116
100
AcDbEntity
8
0
100
AcDbCircle
10
-70.000000000006651
20
19.499999999999726
30
0
40
7.0000000000000018
210
0
220
0
230
1
0
CIRCLE
5
117
100
AcDbEntity
8
0
100
AcDbCircle
10
-70.000000000006651
20
0.45999999999972285
30
0
40
7.0000000000000018
210
0
220
0
230
1
0
CIRCLE
5
118
100
AcDbEntity
8
0
100
AcDbCircle
10
-70.000000000006651
20
-18.800000000000274
30
0
40
7.0000000000000018
210
0
220
0
230
1
0
LINE
5
119
100
AcDbEntity
8
0
100
AcDbLine
10
-78.259426061391736
20
26.49999999999973
30
0
11
-55.200050236704072
21
26.49999999999973
31
0
0
LINE
5
120
100
AcDbEntity
8
0
100
AcDbLine
10
-78.259426061391736
20
-25.800000000000267
30
0
11
-55.200050236704072
21
-25.800000000000267
31
0
0
LINE
5
121
100
AcDbEntity
8
0
100
AcDbLine
10
-78.259426061391736
20
7.4599999999997246
30
0
11
-55.200050236704072
21
7.4599999999997246
31
0
0
LINE
5
122
100
AcDbEntity
8
0
100
AcDbLine
10
-63.000000000006651
20
-8.9477500786915432
30
0
11
-63.000000000006651
21
-22.302600942410269
31
0
0
LINE
5
123
100
AcDbEntity
8
0
100
AcDbLine
10
-62.049999999991847
20
-35.899999999999309
30
0
11
-62.049999999991847
21
-28.669999999999312
31
0
0
LINE
5
124
100
AcDbEntity
8
0
100
AcDbLine
10
-63.04999999999184
20
-27.669999999999316
30
0
11
-68.749999999991843
21
-27.669999999999312
31
0
0
LINE
5
125
100
AcDbEntity
8
0
100
AcDbLine
10
-69.749999999991843
20
-28.669999999999312
30
0
11
-69.749999999991843
21
-35.899999999999309
31
0
0
LINE
5
126
100
AcDbEntity
8
0
100
AcDbLine
10
63.499999999993349
20
-35.900000000000269
30
0
11
-62.049999999991847
21
-35.899999999999309
31
0
0
LINE
5
127
100
AcDbEntity
8
0
100
AcDbLine
10
-69.749999999991843
20
-35.899999999999309
30
0
11
-93.999999999991843
21
-35.899999999999139
31
0
0
ARC
5
128
100
AcDbEntity
8
0
100
AcDbCircle
10
-68.749999999991857
20
-28.669999999999302
30
0
40
0.99999999999999201
210
0
220
-0
230
1
100
AcDbArc
50
89.99999999999919
51
180
0
ARC
5
129
100
AcDbEntity
8
0
100
AcDbCircle
10
-63.049999999991833
20
-28.669999999999302
30
0
40
0.99999999999998757
210
0
220
0
230
1
100
AcDbArc
50
0
51
90.000000000000398
0
ARC
5
130
100
AcDbEntity
8
0
100
AcDbCircle
10
64.499999999993335
20
-28.05000000000026
30
0
40
0.99999999999999201
210
0
220
-0
230
1
100
AcDbArc
50
89.99999999999919
51
180
0
ARC
5
131
100
AcDbEntity
8
0
100
AcDbCircle
10
74.999999999993364
20
-28.05000000000026
30
0
40
0.99999999999998757
210
0
220
0
230
1
100
AcDbArc
50
0
51
90.00000000000081
0
LINE
5
132
100
AcDbEntity
8
0
100
AcDbLine
10
-37.600000000006645
20
0.39999999999972502
30
0
11
63.499999999993349
21
0.39999999999972502
31
0
0
LINE
5
133
100
AcDbEntity
8
0
100
AcDbLine
10
-47.47551907113661
20
-20.099999999999735
30
0
11
34.136849376574851
21
-20.099999999999735
31
0
0
CIRCLE
5
134
100
AcDbEntity
8
0
100
AcDbCircle
10
-43.099999999991851
20
-20.099999999999643
30
0
40
1.7500000000000002
210
0
220
0
230
1
0
CIRCLE
5
135
100
AcDbEntity
8
0
100
AcDbCircle
10
-28.099999999991851
20
-20.099999999999735
30
0
40
2.25
210
0
220
0
230
1
0
CIRCLE
5
136
100
AcDbEntity
8
0
100
AcDbCircle
10
1.9000000000081485
20
-20.099999999999735
30
0
40
1.7500000000000002
210
0
220
0
230
1
0
CIRCLE
5
137
100
AcDbEntity
8
0
100
AcDbCircle
10
62.499999999993356
20
-15.200000000000264
30
0
40
2.2000000000000002
210
0
220
0
230
1
0
LINE
5
138
100
AcDbEntity
8
0
100
AcDbLine
10
-55.08931751537186
20
-11.699999999999772
30
0
11
51.81848047434422
21
-11.699999999999772
31
0
0
CIRCLE
5
139
100
AcDbEntity
8
0
100
AcDbCircle
10
76.379999999993359
20
20.499999999999726
30
0
40
0.50800000000000112
210
0
220
0
230
1
0
CIRCLE
5
140
100
AcDbEntity
8
0
100
AcDbCircle
10
73.839999999993353
20
20.499999999999726
30
0
40
0.50800000000000112
210
0
220
0
230
1
0
CIRCLE
5
141
100
AcDbEntity
8
0
100
AcDbCircle
10
71.299999999993361
20
20.499999999999726
30
0
40
0.50800000000000112
210
0
220
0
230
1
0
CIRCLE
5
142
100
AcDbEntity
8
0
100
AcDbCircle
10
68.759999999993354
20
20.499999999999726
30
0
40
0.50800000000000112
210
0
220
0
230
1
0
CIRCLE
5
143
100
AcDbEntity
8
0
100
AcDbCircle
10
66.219999999993348
20
20.499999999999726
30
0
40
0.50800000000000112
210
0
220
0
230
1
0
CIRCLE
5
144
100
AcDbEntity
8
0
100
AcDbCircle
10
63.679999999993356
20
20.499999999999726
30
0
40
0.50800000000000112
210
0
220
0
230
1
0
CIRCLE
5
145
100
AcDbEntity
8
0
100
AcDbCircle
10
61.139999999993357
20
20.499999999999726
30
0
40
0.50800000000000112
210
0
220
0
230
1
0
CIRCLE
5
146
100
AcDbEntity
8
0
100
AcDbCircle
10
58.599999999993351
20
20.499999999999726
30
0
40
0.50800000000000112
210
0
220
0
230
1
0
CIRCLE
5
147
100
AcDbEntity
8
0
100
AcDbCircle
10
76.379999999993359
20
12.879999999999727
30
0
40
0.50800000000000112
210
0
220
0
230
1
0
CIRCLE
5
148
100
AcDbEntity
8
0
100
AcDbCircle
10
73.839999999993353
20
12.879999999999727
30
0
40
0.50800000000000112
210
0
220
0
230
1
0
CIRCLE
5
149
100
AcDbEntity
8
0
100
AcDbCircle
10
71.299999999993361
20
12.879999999999727
30
0
40
0.50800000000000112
210
0
220
0
230
1
0
CIRCLE
5
150
100
AcDbEntity
8
0
100
AcDbCircle
10
68.759999999993354
20
12.879999999999727
30
0
40
0.50800000000000112
210
0
220
0
230
1
0
CIRCLE
5
151
100
AcDbEntity
8
0
100
AcDbCircle
10
66.219999999993348
20
12.879999999999727
30
0
40
0.50800000000000112
210
0
220
0
230
1
0
CIRCLE
5
152
100
AcDbEntity
8
0
100
AcDbCircle
10
63.679999999993356
20
12.879999999999727
30
0
40
0.50800000000000112
210
0
220
0
230
1
0
CIRCLE
5
153
100
AcDbEntity
8
0
100
AcDbCircle
10
61.139999999993357
20
12.879999999999727
30
0
40
0.50800000000000112
210
0
220
0
230
1
0
CIRCLE
5
154
100
AcDbEntity
8
0
100
AcDbCircle
10
58.599999999993351
20
12.879999999999727
30
0
40
0.50800000000000112
210
0
220
0
230
1
0
CIRCLE
5
155
100
AcDbEntity
8
0
100
AcDbCircle
10
43.359999999993349
20
12.879999999999727
30
0
40
0.50800000000000112
210
0
220
0
230
1
0
CIRCLE
5
156
100
AcDbEntity
8
0
100
AcDbCircle
10
53.519999999993352
20
12.879999999999727
30
0
40
0.50800000000000112
210
0
220
0
230
1
0
CIRCLE
5
157
100
AcDbEntity
8
0
100
AcDbCircle
10
50.979999999993346
20
20.499999999999726
30
0
40
0.50800000000000112
210
0
220
0
230
1
0
CIRCLE
5
158
100
AcDbEntity
8
0
100
AcDbCircle
10
48.439999999993347
20
12.879999999999727
30
0
40
0.50800000000000112
210
0
220
0
230
1
0
CIRCLE
5
159
100
AcDbEntity
8
0
100
AcDbCircle
10
45.899999999993355
20
20.499999999999726
30
0
40
0.50800000000000112
210
0
220
0
230
1
0
CIRCLE
5
160
100
AcDbEntity
8
0
100
AcDbCircle
10
38.27999999999335
20
20.499999999999726
30
0
40
0.50800000000000112
210
0
220
0
230
1
0
CIRCLE
5
161
100
AcDbEntity
8
0
100
AcDbCircle
10
40.819999999993342
20
12.879999999999727
30
0
40
0.50800000000000112
210
0
220
0
230
1
0
CIRCLE
5
162
100
AcDbEntity
8
0
100
AcDbCircle
10
35.739999999993351
20
20.499999999999726
30
0
40
0.50800000000000112
210
0
220
0
230
1
0
CIRCLE
5
163
100
AcDbEntity
8
0
100
AcDbCircle
10
40.819999999993342
20
20.499999999999726
30
0
40
0.50800000000000112
210
0
220
0
230
1
0
CIRCLE
5
164
100
AcDbEntity
8
0
100
AcDbCircle
10
50.979999999993346
20
12.879999999999727
30
0
40
0.50800000000000112
210
0
220
0
230
1
0
CIRCLE
5
165
100
AcDbEntity
8
0
100
AcDbCircle
10
38.27999999999335
20
12.879999999999727
30
0
40
0.50800000000000112
210
0
220
0
230
1
0
CIRCLE
5
166
100
AcDbEntity
8
0
100
AcDbCircle
10
45.899999999993355
20
12.879999999999727
30
0
40
0.50800000000000112
210
0
220
0
230
1
0
CIRCLE
5
167
100
AcDbEntity
8
0
100
AcDbCircle
10
43.359999999993349
20
20.499999999999726
30
0
40
0.50800000000000112
210
0
220
0
230
1
0
CIRCLE
5
168
100
AcDbEntity
8
0
100
AcDbCircle
10
48.439999999993347
20
20.499999999999726
30
0
40
0.50800000000000112
210
0
220
0
230
1
0
CIRCLE
5
169
100
AcDbEntity
8
0
100
AcDbCircle
10
53.519999999993352
20
20.499999999999726
30
0
40
0.50800000000000112
210
0
220
0
230
1
0
CIRCLE
5
170
100
AcDbEntity
8
0
100
AcDbCircle
10
35.739999999993351
20
12.879999999999727
30
0
40
0.50800000000000112
210
0
220
0
230
1
0
CIRCLE
5
171
100
AcDbEntity
8
0
100
AcDbCircle
10
63.499999999993349
20
0.39999999999972502
30
0
40
0.50800000000000012
210
0
220
0
230
1
0
CIRCLE
5
172
100
AcDbEntity
8
0
100
AcDbCircle
10
60.959999999993357
20
0.39999999999972502
30
0
40
0.50800000000000012
210
0
220
0
230
1
0
CIRCLE
5
173
100
AcDbEntity
8
0
100
AcDbCircle
10
58.419999999993351
20
0.39999999999972502
30
0
40
0.50800000000000012
210
0
220
0
230
1
0
CIRCLE
5
174
100
AcDbEntity
8
0
100
AcDbCircle
10
55.879999999993345
20
0.39999999999972502
30
0
40
0.50800000000000012
210
0
220
0
230
1
0
CIRCLE
5
175
100
AcDbEntity
8
0
100
AcDbCircle
10
53.339999999993353
20
0.39999999999972502
30
0
40
0.50800000000000012
210
0
220
0
230
1
0
CIRCLE
5
176
100
AcDbEntity
8
0
100
AcDbCircle
10
50.799999999993361
20
0.39999999999972502
30
0
40
0.50800000000000012
210
0
220
0
230
1
0
CIRCLE
5
177
100
AcDbEntity
8
0
100
AcDbCircle
10
48.259999999993354
20
0.39999999999972502
30
0
40
0.50800000000000012
210
0
220
0
230
1
0
CIRCLE
5
178
100
AcDbEntity
8
0
100
AcDbCircle
10
45.719999999993348
20
0.39999999999972502
30
0
40
0.50800000000000012
210
0
220
0
230
1
0
CIRCLE
5
179
100
AcDbEntity
8
0
100
AcDbCircle
10
43.179999999993356
20
0.39999999999972502
30
0
40
0.50800000000000012
210
0
220
0
230
1
0
CIRCLE
5
180
100
AcDbEntity
8
0
100
AcDbCircle
10
40.639999999993357
20
0.39999999999972502
30
0
40
0.50800000000000012
210
0
220
0
230
1
0
CIRCLE
5
181
100
AcDbEntity
8
0
100
AcDbCircle
10
38.099999999993351
20
0.39999999999972502
30
0
40
0.50800000000000012
210
0
220
0
230
1
0
CIRCLE
5
182
100
AcDbEntity
8
0
100
AcDbCircle
10
-14.740000000006642
20
0.39999999999972502
30
0
40
0.50799999999999934
210
0
220
0
230
1
0
CIRCLE
5
183
100
AcDbEntity
8
0
100
AcDbCircle
10
-17.280000000006641
20
0.39999999999972502
30
0
40
0.50799999999999934
210
0
220
0
230
1
0
CIRCLE
5
184
100
AcDbEntity
8
0
100
AcDbCircle
10
-19.82000000000664
20
0.39999999999972502
30
0
40
0.50799999999999934
210
0
220
0
230
1
0
CIRCLE
5
185
100
AcDbEntity
8
0
100
AcDbCircle
10
-22.360000000006643
20
0.39999999999972502
30
0
40
0.50799999999999934
210
0
220
0
230
1
0
CIRCLE
5
186
100
AcDbEntity
8
0
100
AcDbCircle
10
-24.900000000006642
20
0.39999999999972502
30
0
40
0.50799999999999934
210
0
220
0
230
1
0
CIRCLE
5
187
100
AcDbEntity
8
0
100
AcDbCircle
10
-27.440000000006641
20
0.39999999999972502
30
0
40
0.50799999999999934
210
0
220
0
230
1
0
CIRCLE
5
188
100
AcDbEntity
8
0
100
AcDbCircle
10
-29.98000000000664
20
0.39999999999972502
30
0
40
0.50799999999999934
210
0
220
0
230
1
0
CIRCLE
5
189
100
AcDbEntity
8
0
100
AcDbCircle
10
-32.52000000000664
20
0.39999999999972502
30
0
40
0.50799999999999934
210
0
220
0
230
1
0
CIRCLE
5
190
100
AcDbEntity
8
0
100
AcDbCircle
10
-35.060000000006639
20
0.39999999999972502
30
0
40
0.50799999999999934
210
0
220
0
230
1
0
CIRCLE
5
191
100
AcDbEntity
8
0
100
AcDbCircle
10
-37.600000000006645
20
0.39999999999972502
30
0
40
0.50799999999999934
210
0
220
0
230
1
0
ENDSEC
0
SECTION
2
OBJECTS
0
DICTIONARY
5
C
100
AcDbDictionary
3
ACAD_GROUP
350
D
3
ACAD_MLINESTYLE
350
17
0
DICTIONARY
5
D
100
AcDbDictionary
0
DICTIONARY
5
1A
330
C
100
AcDbDictionary
0
DICTIONARY
5
17
100
AcDbDictionary
0
ENDSEC
0
EOF
