M48
; DRILL file {KiCad 8.0.5} date 2024-09-23T16:37:59-0700
; FORMAT={-:-/ absolute / inch / decimal}
; #@! TF.CreationDate,2024-09-23T16:37:59-07:00
; #@! TF.GenerationSoftware,Kicad,Pcbnew,8.0.5
; #@! TF.FileFunction,Plated,1,4,PTH
FMAT,2
INCH
; #@! TA.AperFunction,Plated,PTH,ViaDrill
T1C0.0138
; #@! TA.AperFunction,Plated,PTH,ComponentDrill
T2C0.0138
; #@! TA.AperFunction,Plated,PTH,ComponentDrill
T3C0.0197
; #@! TA.AperFunction,Plated,PTH,ComponentDrill
T4C0.0217
; #@! TA.AperFunction,Plated,PTH,ComponentDrill
T5C0.0315
; #@! TA.AperFunction,Plated,PTH,ComponentDrill
T6C0.0394
; #@! TA.AperFunction,Plated,PTH,ComponentDrill
T7C0.0591
%
G90
G05
T1
X0.0811Y-1.5118
X0.1217Y-1.4169
X0.1783Y-1.515
X0.1846Y-2.1373
X0.2035Y-1.4118
X0.2154Y-1.4598
X0.2693Y-1.802
X0.2893Y-1.3694
X0.3303Y-1.7952
X0.3303Y-2.1373
X0.3331Y-1.3622
X0.3803Y-1.3504
X0.4219Y-1.4649
X0.4248Y-1.7312
X0.4253Y-1.9512
X0.439Y-2.0348
X0.4728Y-1.9362
X0.4728Y-1.9803
X0.4784Y-2.0348
X0.4906Y-1.5079
X0.5034Y-1.3278
X0.5053Y-1.9037
X0.5099Y-2.0308
X0.5103Y-1.8062
X0.5354Y-1.4782
X0.5453Y-2.0308
X0.5575Y-1.3465
X0.5744Y-1.9527
X0.5753Y-1.3068
X0.578Y-2.0204
X0.6022Y-1.459
X0.6044Y-2.0072
X0.665Y-1.502
X0.68Y-1.8843
X0.686Y-2.0143
X0.6893Y-1.7476
X0.6925Y-1.6222
X0.6965Y-1.9448
X0.7225Y-2.1922
X0.7453Y-1.6115
X0.7543Y-1.3386
X0.7591Y-2.1233
X0.7591Y-2.1548
X0.7591Y-2.1903
X0.7704Y-1.6352
X0.8078Y-2.1726
X0.8618Y-1.9488
X0.902Y-1.3236
X0.9115Y-1.6647
X0.9263Y-1.7966
X0.9512Y-1.5118
X0.9633Y-2.0426
X0.9681Y-1.9133
X0.9787Y-1.3465
X0.9875Y-1.4322
X0.994Y-1.935
X1.0862Y-2.0393
X1.0862Y-2.0787
X1.1256Y-1.8818
X1.1256Y-1.9212
X1.1335Y-1.3681
X1.1453Y-1.4016
X1.2044Y-1.559
X1.2437Y-1.313
X1.321Y-2.0682
X1.321Y-2.1076
X1.4299Y-1.5842
X1.4563Y-2.061
X1.4563Y-1.7125
X1.5638Y-2.1483
X1.5987Y-2.1426
X1.9472Y-1.4134
X1.9472Y-1.4646
X1.9472Y-1.5118
X1.9472Y-1.5551
X2.2465Y-0.8701
X2.2465Y-0.9291
X2.3016Y-0.8701
X2.3016Y-0.9291
X2.3244Y-0.502
X2.3528Y-0.8701
X2.3528Y-0.9291
X2.4118Y-0.8701
X2.4118Y-0.9291
X2.4492Y-0.748
X2.493Y-2.0584
X2.5091Y-1.9142
X2.6689Y-2.0575
X2.6729Y-1.9222
T2
X0.7289Y-1.871
X0.7289Y-1.9212
X0.7289Y-1.9714
X0.7791Y-1.871
X0.7791Y-1.9212
X0.7791Y-1.9714
X0.8293Y-1.871
X0.8293Y-1.9212
X0.8293Y-1.9714
T3
X1.792Y-2.1233
X1.9771Y-2.1233
T5
X0.2Y-0.25
X0.2Y-0.55
X0.2Y-0.8
X0.2Y-1.1
X0.3Y-0.25
X0.3Y-0.55
X0.3Y-0.8
X0.3Y-1.1
X0.4Y-0.25
X0.4Y-0.55
X0.4Y-0.8
X0.4Y-1.1
X0.5Y-0.25
X0.5Y-0.55
X0.5Y-0.8
X0.5Y-1.1
X0.6Y-0.25
X0.6Y-0.55
X0.6Y-0.8
X0.6Y-1.1
X0.7Y-0.25
X0.7Y-0.55
X0.7Y-0.8
X0.7Y-1.1
X0.8Y-0.25
X0.8Y-0.55
X0.8Y-0.8
X0.8Y-1.1
X0.9Y-0.25
X0.9Y-0.55
X0.9Y-0.8
X0.9Y-1.1
X1.1Y-0.25
X1.1Y-0.55
X1.1Y-0.8
X1.1Y-1.1
X1.2Y-0.25
X1.2Y-0.55
X1.2Y-0.8
X1.2Y-1.1
X1.3Y-0.25
X1.3Y-0.55
X1.3Y-0.8
X1.3Y-1.1
X1.4Y-0.25
X1.4Y-0.55
X1.4Y-0.8
X1.4Y-1.1
X1.5Y-0.25
X1.5Y-0.55
X1.5Y-0.8
X1.5Y-1.1
X1.6Y-0.25
X1.6Y-0.55
X1.6Y-0.8
X1.6Y-1.1
X1.7Y-0.25
X1.7Y-0.55
X1.7Y-0.8
X1.7Y-1.1
X1.8Y-0.25
X1.8Y-0.55
X1.8Y-0.8
X1.8Y-1.1
X2.3244Y-0.3051
X2.4228Y-0.3051
T6
X1.7015Y-1.4787
X1.7015Y-1.5787
X2.1906Y-1.4291
X2.5843Y-1.4291
T7
X0.1106Y-0.1102
T3
G00X2.7152Y-1.8276
M15
G01X2.7407Y-1.8276
M16
G05
G00X2.7152Y-2.1032
M15
G01X2.7407Y-2.1032
M16
G05
T4
G00X2.6217Y-1.8729
M15
G01X2.6217Y-1.861
M16
G05
G00X2.6217Y-2.0697
M15
G01X2.6217Y-2.0579
M16
G05
M30
