%TF.GenerationSoftware,KiCad,Pcbnew,8.0.4*%
%TF.CreationDate,2024-08-25T12:57:10-07:00*%
%TF.ProjectId,fluke_884x_continuity_buzzer,666c756b-655f-4383-9834-785f636f6e74,3*%
%TF.SameCoordinates,Original*%
%TF.FileFunction,Copper,L1,Top*%
%TF.FilePolarity,Positive*%
%FSLAX46Y46*%
G04 Gerber Fmt 4.6, Leading zero omitted, Abs format (unit mm)*
G04 Created by KiCad (PCBNEW 8.0.4) date 2024-08-25 12:57:11*
%MOMM*%
%LPD*%
G01*
G04 APERTURE LIST*
G04 Aperture macros list*
%AMRoundRect*
0 Rectangle with rounded corners*
0 $1 Rounding radius*
0 $2 $3 $4 $5 $6 $7 $8 $9 X,Y pos of 4 corners*
0 Add a 4 corners polygon primitive as box body*
4,1,4,$2,$3,$4,$5,$6,$7,$8,$9,$2,$3,0*
0 Add four circle primitives for the rounded corners*
1,1,$1+$1,$2,$3*
1,1,$1+$1,$4,$5*
1,1,$1+$1,$6,$7*
1,1,$1+$1,$8,$9*
0 Add four rect primitives between the rounded corners*
20,1,$1+$1,$2,$3,$4,$5,0*
20,1,$1+$1,$4,$5,$6,$7,0*
20,1,$1+$1,$6,$7,$8,$9,0*
20,1,$1+$1,$8,$9,$2,$3,0*%
G04 Aperture macros list end*
%TA.AperFunction,SMDPad,CuDef*%
%ADD10RoundRect,0.250000X-0.475000X0.250000X-0.475000X-0.250000X0.475000X-0.250000X0.475000X0.250000X0*%
%TD*%
%TA.AperFunction,SMDPad,CuDef*%
%ADD11R,1.350000X0.400000*%
%TD*%
%TA.AperFunction,ComponentPad*%
%ADD12O,1.550000X0.890000*%
%TD*%
%TA.AperFunction,SMDPad,CuDef*%
%ADD13R,1.550000X1.200000*%
%TD*%
%TA.AperFunction,ComponentPad*%
%ADD14O,0.950000X1.250000*%
%TD*%
%TA.AperFunction,SMDPad,CuDef*%
%ADD15R,1.550000X1.500000*%
%TD*%
%TA.AperFunction,ComponentPad*%
%ADD16R,1.700000X1.700000*%
%TD*%
%TA.AperFunction,ComponentPad*%
%ADD17O,1.700000X1.700000*%
%TD*%
%TA.AperFunction,SMDPad,CuDef*%
%ADD18RoundRect,0.140000X-0.140000X-0.170000X0.140000X-0.170000X0.140000X0.170000X-0.140000X0.170000X0*%
%TD*%
%TA.AperFunction,SMDPad,CuDef*%
%ADD19RoundRect,0.140000X0.170000X-0.140000X0.170000X0.140000X-0.170000X0.140000X-0.170000X-0.140000X0*%
%TD*%
%TA.AperFunction,SMDPad,CuDef*%
%ADD20RoundRect,0.135000X0.135000X0.185000X-0.135000X0.185000X-0.135000X-0.185000X0.135000X-0.185000X0*%
%TD*%
%TA.AperFunction,SMDPad,CuDef*%
%ADD21RoundRect,0.375000X0.625000X0.375000X-0.625000X0.375000X-0.625000X-0.375000X0.625000X-0.375000X0*%
%TD*%
%TA.AperFunction,SMDPad,CuDef*%
%ADD22RoundRect,0.500000X0.500000X1.400000X-0.500000X1.400000X-0.500000X-1.400000X0.500000X-1.400000X0*%
%TD*%
%TA.AperFunction,SMDPad,CuDef*%
%ADD23RoundRect,0.150000X-0.150000X0.650000X-0.150000X-0.650000X0.150000X-0.650000X0.150000X0.650000X0*%
%TD*%
%TA.AperFunction,SMDPad,CuDef*%
%ADD24RoundRect,0.140000X-0.170000X0.140000X-0.170000X-0.140000X0.170000X-0.140000X0.170000X0.140000X0*%
%TD*%
%TA.AperFunction,SMDPad,CuDef*%
%ADD25RoundRect,0.135000X-0.135000X-0.185000X0.135000X-0.185000X0.135000X0.185000X-0.135000X0.185000X0*%
%TD*%
%TA.AperFunction,SMDPad,CuDef*%
%ADD26RoundRect,0.140000X0.140000X0.170000X-0.140000X0.170000X-0.140000X-0.170000X0.140000X-0.170000X0*%
%TD*%
%TA.AperFunction,SMDPad,CuDef*%
%ADD27RoundRect,0.050000X-0.050000X0.387500X-0.050000X-0.387500X0.050000X-0.387500X0.050000X0.387500X0*%
%TD*%
%TA.AperFunction,SMDPad,CuDef*%
%ADD28RoundRect,0.050000X-0.387500X0.050000X-0.387500X-0.050000X0.387500X-0.050000X0.387500X0.050000X0*%
%TD*%
%TA.AperFunction,ComponentPad*%
%ADD29C,0.600000*%
%TD*%
%TA.AperFunction,SMDPad,CuDef*%
%ADD30RoundRect,0.144000X-1.456000X1.456000X-1.456000X-1.456000X1.456000X-1.456000X1.456000X1.456000X0*%
%TD*%
%TA.AperFunction,SMDPad,CuDef*%
%ADD31R,2.100000X5.600000*%
%TD*%
%TA.AperFunction,SMDPad,CuDef*%
%ADD32RoundRect,0.135000X-0.185000X0.135000X-0.185000X-0.135000X0.185000X-0.135000X0.185000X0.135000X0*%
%TD*%
%TA.AperFunction,SMDPad,CuDef*%
%ADD33RoundRect,0.100000X0.225000X0.100000X-0.225000X0.100000X-0.225000X-0.100000X0.225000X-0.100000X0*%
%TD*%
%TA.AperFunction,ComponentPad*%
%ADD34R,2.000000X2.000000*%
%TD*%
%TA.AperFunction,ComponentPad*%
%ADD35C,2.000000*%
%TD*%
%TA.AperFunction,ComponentPad*%
%ADD36R,1.000000X1.000000*%
%TD*%
%TA.AperFunction,ComponentPad*%
%ADD37C,1.600000*%
%TD*%
%TA.AperFunction,ComponentPad*%
%ADD38R,1.600000X1.600000*%
%TD*%
%TA.AperFunction,ComponentPad*%
%ADD39O,1.600000X1.600000*%
%TD*%
%TA.AperFunction,SMDPad,CuDef*%
%ADD40R,3.800000X2.000000*%
%TD*%
%TA.AperFunction,SMDPad,CuDef*%
%ADD41RoundRect,0.112500X-0.237500X0.112500X-0.237500X-0.112500X0.237500X-0.112500X0.237500X0.112500X0*%
%TD*%
%TA.AperFunction,ViaPad*%
%ADD42C,0.600000*%
%TD*%
%TA.AperFunction,Conductor*%
%ADD43C,0.150000*%
%TD*%
%TA.AperFunction,Conductor*%
%ADD44C,0.200000*%
%TD*%
%TA.AperFunction,Conductor*%
%ADD45C,1.000000*%
%TD*%
%TA.AperFunction,Conductor*%
%ADD46C,0.800000*%
%TD*%
%TA.AperFunction,Conductor*%
%ADD47C,0.600000*%
%TD*%
%TA.AperFunction,Conductor*%
%ADD48C,0.300000*%
%TD*%
%TA.AperFunction,Conductor*%
%ADD49C,0.400000*%
%TD*%
G04 APERTURE END LIST*
D10*
%TO.P,C2,1*%
%TO.N,+3V3*%
X51210000Y-17075000D03*
%TO.P,C2,2*%
%TO.N,GND*%
X51210000Y-18975000D03*
%TD*%
D11*
%TO.P,J3,1,VBUS*%
%TO.N,/VBUS*%
X66553600Y-53737500D03*
%TO.P,J3,2,D-*%
%TO.N,/USB_D-*%
X66553600Y-53087500D03*
%TO.P,J3,3,D+*%
%TO.N,/USB_D+*%
X66553600Y-52437500D03*
%TO.P,J3,4,ID*%
%TO.N,unconnected-(J3-ID-Pad4)*%
X66553600Y-51787500D03*
%TO.P,J3,5,GND*%
%TO.N,GND*%
X66553600Y-51137500D03*
D12*
%TO.P,J3,6,Shield*%
X69253600Y-55937500D03*
D13*
X69253600Y-55337500D03*
D14*
X66553600Y-54937500D03*
D15*
X69253600Y-53437500D03*
X69253600Y-51437500D03*
D14*
X66553600Y-49937500D03*
D13*
X69253600Y-49537500D03*
D12*
X69253600Y-48937500D03*
%TD*%
D16*
%TO.P,J2,1,Pin_1*%
%TO.N,/~{USB_BOOT}*%
X41123600Y-45225000D03*
D17*
%TO.P,J2,2,Pin_2*%
%TO.N,GND*%
X41123600Y-47765000D03*
%TD*%
D18*
%TO.P,C15,1*%
%TO.N,+3V3*%
X26467400Y-55315400D03*
%TO.P,C15,2*%
%TO.N,GND*%
X27427400Y-55315400D03*
%TD*%
%TO.P,C13,1*%
%TO.N,+1V1*%
X26467400Y-54315400D03*
%TO.P,C13,2*%
%TO.N,GND*%
X27427400Y-54315400D03*
%TD*%
D19*
%TO.P,C4,1*%
%TO.N,+3V3*%
X19223600Y-45395000D03*
%TO.P,C4,2*%
%TO.N,GND*%
X19223600Y-44435000D03*
%TD*%
%TO.P,C6,1*%
%TO.N,+3V3*%
X37632400Y-47980400D03*
%TO.P,C6,2*%
%TO.N,GND*%
X37632400Y-47020400D03*
%TD*%
D20*
%TO.P,R27,1*%
%TO.N,+3V3*%
X38657400Y-40815400D03*
%TO.P,R27,2*%
%TO.N,/QSPI_SS*%
X37637400Y-40815400D03*
%TD*%
D21*
%TO.P,U1,1,GND*%
%TO.N,GND*%
X60510000Y-19300000D03*
%TO.P,U1,2,VO*%
%TO.N,+3V3*%
X60510000Y-17000000D03*
D22*
X54210000Y-17000000D03*
D21*
%TO.P,U1,3,VI*%
%TO.N,Net-(D1A-K)*%
X60510000Y-14700000D03*
%TD*%
D23*
%TO.P,U2,1,~{CS}*%
%TO.N,/QSPI_SS*%
X35092400Y-40765400D03*
%TO.P,U2,2,DO(IO1)*%
%TO.N,/QSPI_SD1*%
X33822400Y-40765400D03*
%TO.P,U2,3,IO2*%
%TO.N,/QSPI_SD2*%
X32552400Y-40765400D03*
%TO.P,U2,4,GND*%
%TO.N,GND*%
X31282400Y-40765400D03*
%TO.P,U2,5,DI(IO0)*%
%TO.N,/QSPI_SD0*%
X31282400Y-47965400D03*
%TO.P,U2,6,CLK*%
%TO.N,/QSPI_SCLK*%
X32552400Y-47965400D03*
%TO.P,U2,7,IO3*%
%TO.N,/QSPI_SD3*%
X33822400Y-47965400D03*
%TO.P,U2,8,VCC*%
%TO.N,+3V3*%
X35092400Y-47965400D03*
%TD*%
D24*
%TO.P,C9,1*%
%TO.N,Net-(C9-Pad1)*%
X11462400Y-50320400D03*
%TO.P,C9,2*%
%TO.N,GND*%
X11462400Y-51280400D03*
%TD*%
D25*
%TO.P,R28,1*%
%TO.N,/QSPI_SS*%
X37643600Y-42250000D03*
%TO.P,R28,2*%
%TO.N,/~{USB_BOOT}*%
X38663600Y-42250000D03*
%TD*%
D18*
%TO.P,C10,1*%
%TO.N,+3V3*%
X27467400Y-51315400D03*
%TO.P,C10,2*%
%TO.N,GND*%
X28427400Y-51315400D03*
%TD*%
D24*
%TO.P,C17,1*%
%TO.N,+3V3*%
X19023600Y-56400000D03*
%TO.P,C17,2*%
%TO.N,GND*%
X19023600Y-57360000D03*
%TD*%
D26*
%TO.P,C11,1*%
%TO.N,+3V3*%
X14457400Y-51696400D03*
%TO.P,C11,2*%
%TO.N,GND*%
X13497400Y-51696400D03*
%TD*%
D20*
%TO.P,R30,1*%
%TO.N,/USB_D+*%
X27457400Y-52315400D03*
%TO.P,R30,2*%
%TO.N,Net-(U3-USB_DP)*%
X26437400Y-52315400D03*
%TD*%
D26*
%TO.P,C12,1*%
%TO.N,+1V1*%
X14457400Y-52815400D03*
%TO.P,C12,2*%
%TO.N,GND*%
X13497400Y-52815400D03*
%TD*%
D10*
%TO.P,C1,1*%
%TO.N,Net-(D1A-K)*%
X63710000Y-15987500D03*
%TO.P,C1,2*%
%TO.N,GND*%
X63710000Y-17887500D03*
%TD*%
D19*
%TO.P,C5,1*%
%TO.N,+3V3*%
X23853600Y-46530000D03*
%TO.P,C5,2*%
%TO.N,GND*%
X23853600Y-45570000D03*
%TD*%
D26*
%TO.P,C16,1*%
%TO.N,+3V3*%
X36220000Y-56050000D03*
%TO.P,C16,2*%
%TO.N,GND*%
X35260000Y-56050000D03*
%TD*%
D27*
%TO.P,U3,1,IOVDD*%
%TO.N,+3V3*%
X23062400Y-47877900D03*
%TO.P,U3,2,GPIO0*%
%TO.N,/GPIO0*%
X22662400Y-47877900D03*
%TO.P,U3,3,GPIO1*%
%TO.N,/GPIO1*%
X22262400Y-47877900D03*
%TO.P,U3,4,GPIO2*%
%TO.N,/GPIO2*%
X21862400Y-47877900D03*
%TO.P,U3,5,GPIO3*%
%TO.N,/GPIO3*%
X21462400Y-47877900D03*
%TO.P,U3,6,GPIO4*%
%TO.N,/GPIO4*%
X21062400Y-47877900D03*
%TO.P,U3,7,GPIO5*%
%TO.N,G5_3V*%
X20662400Y-47877900D03*
%TO.P,U3,8,GPIO6*%
%TO.N,/GPIO6*%
X20262400Y-47877900D03*
%TO.P,U3,9,GPIO7*%
%TO.N,G7_3V*%
X19862400Y-47877900D03*
%TO.P,U3,10,IOVDD*%
%TO.N,+3V3*%
X19462400Y-47877900D03*
%TO.P,U3,11,GPIO8*%
%TO.N,/GPIO8*%
X19062400Y-47877900D03*
%TO.P,U3,12,GPIO9*%
%TO.N,G6_3V*%
X18662400Y-47877900D03*
%TO.P,U3,13,GPIO10*%
%TO.N,G2_3V*%
X18262400Y-47877900D03*
%TO.P,U3,14,GPIO11*%
%TO.N,PDP_3V*%
X17862400Y-47877900D03*
D28*
%TO.P,U3,15,GPIO12*%
%TO.N,G3_3V*%
X17024900Y-48715400D03*
%TO.P,U3,16,GPIO13*%
%TO.N,PS1_3V*%
X17024900Y-49115400D03*
%TO.P,U3,17,GPIO14*%
%TO.N,G4_3V*%
X17024900Y-49515400D03*
%TO.P,U3,18,GPIO15*%
%TO.N,PD_3V*%
X17024900Y-49915400D03*
%TO.P,U3,19,TESTEN*%
%TO.N,GND*%
X17024900Y-50315400D03*
%TO.P,U3,20,XIN*%
%TO.N,/XIN*%
X17024900Y-50715400D03*
%TO.P,U3,21,XOUT*%
%TO.N,/XOUT*%
X17024900Y-51115400D03*
%TO.P,U3,22,IOVDD*%
%TO.N,+3V3*%
X17024900Y-51515400D03*
%TO.P,U3,23,DVDD*%
%TO.N,+1V1*%
X17024900Y-51915400D03*
%TO.P,U3,24,SWCLK*%
%TO.N,unconnected-(U3-SWCLK-Pad24)*%
X17024900Y-52315400D03*
%TO.P,U3,25,SWD*%
%TO.N,unconnected-(U3-SWD-Pad25)*%
X17024900Y-52715400D03*
%TO.P,U3,26,RUN*%
%TO.N,unconnected-(U3-RUN-Pad26)*%
X17024900Y-53115400D03*
%TO.P,U3,27,GPIO16*%
%TO.N,PC_3V*%
X17024900Y-53515400D03*
%TO.P,U3,28,GPIO17*%
%TO.N,PG_3V*%
X17024900Y-53915400D03*
D27*
%TO.P,U3,29,GPIO18*%
%TO.N,PA_3V*%
X17862400Y-54752900D03*
%TO.P,U3,30,GPIO19*%
%TO.N,PS3_3V*%
X18262400Y-54752900D03*
%TO.P,U3,31,GPIO20*%
%TO.N,PB_3V*%
X18662400Y-54752900D03*
%TO.P,U3,32,GPIO21*%
%TO.N,PS2_3V*%
X19062400Y-54752900D03*
%TO.P,U3,33,IOVDD*%
%TO.N,+3V3*%
X19462400Y-54752900D03*
%TO.P,U3,34,GPIO22*%
%TO.N,PF_3V*%
X19862400Y-54752900D03*
%TO.P,U3,35,GPIO23*%
%TO.N,G0_3V*%
X20262400Y-54752900D03*
%TO.P,U3,36,GPIO24*%
%TO.N,G1_3V*%
X20662400Y-54752900D03*
%TO.P,U3,37,GPIO25*%
%TO.N,PE_3V*%
X21062400Y-54752900D03*
%TO.P,U3,38,GPIO26_ADC0*%
%TO.N,/GPIO26_ADC0*%
X21462400Y-54752900D03*
%TO.P,U3,39,GPIO27_ADC1*%
%TO.N,/GPIO27_ADC1*%
X21862400Y-54752900D03*
%TO.P,U3,40,GPIO28_ADC2*%
%TO.N,/GPIO28_ADC2*%
X22262400Y-54752900D03*
%TO.P,U3,41,GPIO29_ADC3*%
%TO.N,/GPIO29_ADC3*%
X22662400Y-54752900D03*
%TO.P,U3,42,IOVDD*%
%TO.N,+3V3*%
X23062400Y-54752900D03*
D28*
%TO.P,U3,43,ADC_AVDD*%
X23899900Y-53915400D03*
%TO.P,U3,44,VREG_IN*%
X23899900Y-53515400D03*
%TO.P,U3,45,VREG_VOUT*%
%TO.N,+1V1*%
X23899900Y-53115400D03*
%TO.P,U3,46,USB_DM*%
%TO.N,Net-(U3-USB_DM)*%
X23899900Y-52715400D03*
%TO.P,U3,47,USB_DP*%
%TO.N,Net-(U3-USB_DP)*%
X23899900Y-52315400D03*
%TO.P,U3,48,USB_VDD*%
%TO.N,+3V3*%
X23899900Y-51915400D03*
%TO.P,U3,49,IOVDD*%
X23899900Y-51515400D03*
%TO.P,U3,50,DVDD*%
%TO.N,+1V1*%
X23899900Y-51115400D03*
%TO.P,U3,51,QSPI_SD3*%
%TO.N,/QSPI_SD3*%
X23899900Y-50715400D03*
%TO.P,U3,52,QSPI_SCLK*%
%TO.N,/QSPI_SCLK*%
X23899900Y-50315400D03*
%TO.P,U3,53,QSPI_SD0*%
%TO.N,/QSPI_SD0*%
X23899900Y-49915400D03*
%TO.P,U3,54,QSPI_SD2*%
%TO.N,/QSPI_SD2*%
X23899900Y-49515400D03*
%TO.P,U3,55,QSPI_SD1*%
%TO.N,/QSPI_SD1*%
X23899900Y-49115400D03*
%TO.P,U3,56,QSPI_SS*%
%TO.N,/QSPI_SS*%
X23899900Y-48715400D03*
D29*
%TO.P,U3,57,GND*%
%TO.N,GND*%
X21737400Y-50040400D03*
X20462400Y-50040400D03*
X19187400Y-50040400D03*
X21737400Y-51315400D03*
X20462400Y-51315400D03*
D30*
X20462400Y-51315400D03*
D29*
X19187400Y-51315400D03*
X21737400Y-52590400D03*
X20462400Y-52590400D03*
X19187400Y-52590400D03*
%TD*%
D19*
%TO.P,C7,1*%
%TO.N,/XIN*%
X11462400Y-48310400D03*
%TO.P,C7,2*%
%TO.N,GND*%
X11462400Y-47350400D03*
%TD*%
D20*
%TO.P,R31,1*%
%TO.N,/USB_D-*%
X27457400Y-53315400D03*
%TO.P,R31,2*%
%TO.N,Net-(U3-USB_DM)*%
X26437400Y-53315400D03*
%TD*%
D18*
%TO.P,C8,1*%
%TO.N,+1V1*%
X27467400Y-50315400D03*
%TO.P,C8,2*%
%TO.N,GND*%
X28427400Y-50315400D03*
%TD*%
D26*
%TO.P,C14,1*%
%TO.N,+3V3*%
X36220000Y-54650000D03*
%TO.P,C14,2*%
%TO.N,GND*%
X35260000Y-54650000D03*
%TD*%
D20*
%TO.P,R29,1*%
%TO.N,/XOUT*%
X13857400Y-50015400D03*
%TO.P,R29,2*%
%TO.N,Net-(C9-Pad1)*%
X12837400Y-50015400D03*
%TD*%
D31*
%TO.P,Y1,1,1*%
%TO.N,/XIN*%
X7346400Y-44656400D03*
%TO.P,Y1,2,2*%
%TO.N,Net-(C9-Pad1)*%
X7346400Y-53656400D03*
%TD*%
D10*
%TO.P,C3,1*%
%TO.N,+3V3*%
X54432800Y-21919600D03*
%TO.P,C3,2*%
%TO.N,GND*%
X54432800Y-23819600D03*
%TD*%
D32*
%TO.P,R7,1*%
%TO.N,/Pf*%
X11491000Y-31090000D03*
%TO.P,R7,2*%
%TO.N,PF_3V*%
X11491000Y-32110000D03*
%TD*%
%TO.P,R10,1*%
%TO.N,/G1*%
X15280600Y-31090000D03*
%TO.P,R10,2*%
%TO.N,G1_3V*%
X15280600Y-32110000D03*
%TD*%
D33*
%TO.P,D5,1,A*%
%TO.N,G3_3V*%
X19110000Y-36850000D03*
%TO.P,D5,2,A*%
%TO.N,PS1_3V*%
X19110000Y-36200000D03*
%TO.P,D5,3,K*%
%TO.N,+3V3*%
X19110000Y-35550000D03*
%TO.P,D5,4,A*%
%TO.N,G4_3V*%
X17210000Y-35550000D03*
%TO.P,D5,5,A*%
%TO.N,PD_3V*%
X17210000Y-36200000D03*
%TO.P,D5,6,K*%
%TO.N,+3V3*%
X17210000Y-36850000D03*
%TD*%
%TO.P,D6,1,A*%
%TO.N,G1_3V*%
X14310000Y-36950000D03*
%TO.P,D6,2,A*%
%TO.N,PE_3V*%
X14310000Y-36300000D03*
%TO.P,D6,3,K*%
%TO.N,+3V3*%
X14310000Y-35650000D03*
%TO.P,D6,4,A*%
%TO.N,G0_3V*%
X12410000Y-35650000D03*
%TO.P,D6,5,A*%
%TO.N,PF_3V*%
X12410000Y-36300000D03*
%TO.P,D6,6,K*%
%TO.N,+3V3*%
X12410000Y-36950000D03*
%TD*%
D34*
%TO.P,LS1,1,1*%
%TO.N,/GPIO28_ADC2*%
X65640000Y-36300000D03*
D35*
%TO.P,LS1,2,2*%
%TO.N,/GPIO29_ADC3*%
X55640000Y-36300000D03*
%TD*%
D32*
%TO.P,R15,1*%
%TO.N,/PDP*%
X21596800Y-31090000D03*
%TO.P,R15,2*%
%TO.N,PDP_3V*%
X21596800Y-32110000D03*
%TD*%
%TO.P,R16,1*%
%TO.N,/G2*%
X22860000Y-31090000D03*
%TO.P,R16,2*%
%TO.N,G2_3V*%
X22860000Y-32110000D03*
%TD*%
%TO.P,R17,1*%
%TO.N,/G6*%
X26771600Y-31090000D03*
%TO.P,R17,2*%
%TO.N,G6_3V*%
X26771600Y-32110000D03*
%TD*%
%TO.P,R4,1*%
%TO.N,/Pa*%
X7701300Y-31090000D03*
%TO.P,R4,2*%
%TO.N,PA_3V*%
X7701300Y-32110000D03*
%TD*%
D36*
%TO.P,TP2,1,1*%
%TO.N,/GPIO26_ADC0*%
X50890000Y-56450000D03*
%TD*%
D32*
%TO.P,R2,1*%
%TO.N,/Pb*%
X5174800Y-31090000D03*
%TO.P,R2,2*%
%TO.N,PB_3V*%
X5174800Y-32110000D03*
%TD*%
D37*
%TO.P,C18,1*%
%TO.N,Net-(D1A-K)*%
X59040000Y-7750000D03*
%TO.P,C18,2*%
%TO.N,GND*%
X61540000Y-7750000D03*
%TD*%
D33*
%TO.P,D8,1,A*%
%TO.N,PB_3V*%
X4010000Y-37050000D03*
%TO.P,D8,2,A*%
%TO.N,PS2_3V*%
X4010000Y-36400000D03*
%TO.P,D8,3,K*%
%TO.N,unconnected-(D8C-K-Pad3)*%
X4010000Y-35750000D03*
%TO.P,D8,4,A*%
%TO.N,unconnected-(D8C-A-Pad4)*%
X2110000Y-35750000D03*
%TO.P,D8,5,A*%
%TO.N,unconnected-(D8D-A-Pad5)*%
X2110000Y-36400000D03*
%TO.P,D8,6,K*%
%TO.N,+3V3*%
X2110000Y-37050000D03*
%TD*%
D38*
%TO.P,J204,1,Pin_1*%
%TO.N,/PDP*%
X22860000Y-20320000D03*
D39*
%TO.P,J204,2,Pin_2*%
%TO.N,/PS1*%
X20320000Y-20320000D03*
%TO.P,J204,3,Pin_3*%
%TO.N,/Pd*%
X17780000Y-20320000D03*
%TO.P,J204,4,Pin_4*%
%TO.N,/Pe*%
X15240000Y-20320000D03*
%TO.P,J204,5,Pin_5*%
%TO.N,/Pf*%
X12700000Y-20320000D03*
%TO.P,J204,6,Pin_6*%
%TO.N,/Pg*%
X10160000Y-20320000D03*
%TO.P,J204,7,Pin_7*%
%TO.N,/PS3*%
X7620000Y-20320000D03*
%TO.P,J204,8,Pin_8*%
%TO.N,/PS2*%
X5080000Y-20320000D03*
%TO.P,J204,9,Pin_9*%
%TO.N,/Pb*%
X5080000Y-27940000D03*
%TO.P,J204,10,Pin_10*%
%TO.N,/Pa*%
X7620000Y-27940000D03*
%TO.P,J204,11,Pin_11*%
%TO.N,/Pc*%
X10160000Y-27940000D03*
%TO.P,J204,12,Pin_12*%
%TO.N,/G0*%
X12700000Y-27940000D03*
%TO.P,J204,13,Pin_13*%
%TO.N,/G1*%
X15240000Y-27940000D03*
%TO.P,J204,14,Pin_14*%
%TO.N,/G4*%
X17780000Y-27940000D03*
%TO.P,J204,15,Pin_15*%
%TO.N,/G3*%
X20320000Y-27940000D03*
%TO.P,J204,16,Pin_16*%
%TO.N,/G2*%
X22860000Y-27940000D03*
%TD*%
D38*
%TO.P,J203,1,Pin_1*%
%TO.N,/F1*%
X45720000Y-20320000D03*
D39*
%TO.P,J203,2,Pin_2*%
%TO.N,/F2*%
X43180000Y-20320000D03*
%TO.P,J203,3,Pin_3*%
%TO.N,/S2*%
X40640000Y-20320000D03*
%TO.P,J203,4,Pin_4*%
%TO.N,/S1*%
X38100000Y-20320000D03*
%TO.P,J203,5,Pin_5*%
%TO.N,/S0*%
X35560000Y-20320000D03*
%TO.P,J203,6,Pin_6*%
%TO.N,/G5*%
X33020000Y-20320000D03*
%TO.P,J203,7,Pin_7*%
%TO.N,/G7*%
X30480000Y-20320000D03*
%TO.P,J203,8,Pin_8*%
%TO.N,/G6*%
X27940000Y-20320000D03*
%TO.P,J203,9,Pin_9*%
%TO.N,/RL0*%
X27940000Y-27940000D03*
%TO.P,J203,10,Pin_10*%
%TO.N,/RL1*%
X30480000Y-27940000D03*
%TO.P,J203,11,Pin_11*%
%TO.N,/RL6*%
X33020000Y-27940000D03*
%TO.P,J203,12,Pin_12*%
%TO.N,/RL4*%
X35560000Y-27940000D03*
%TO.P,J203,13,Pin_13*%
%TO.N,/RL2*%
X38100000Y-27940000D03*
%TO.P,J203,14,Pin_14*%
%TO.N,/RL5*%
X40640000Y-27940000D03*
%TO.P,J203,15,Pin_15*%
%TO.N,/RL3*%
X43180000Y-27940000D03*
%TO.P,J203,16,Pin_16*%
%TO.N,GND*%
X45720000Y-27940000D03*
%TD*%
D32*
%TO.P,R9,1*%
%TO.N,/Pe*%
X14017400Y-31090000D03*
%TO.P,R9,2*%
%TO.N,PE_3V*%
X14017400Y-32110000D03*
%TD*%
%TO.P,R11,1*%
%TO.N,/Pd*%
X16543900Y-31090000D03*
%TO.P,R11,2*%
%TO.N,PD_3V*%
X16543900Y-32110000D03*
%TD*%
D36*
%TO.P,TP3,1,1*%
%TO.N,/GPIO27_ADC1*%
X46190000Y-56450000D03*
%TD*%
D32*
%TO.P,R14,1*%
%TO.N,/G3*%
X20333500Y-31090000D03*
%TO.P,R14,2*%
%TO.N,G3_3V*%
X20333500Y-32110000D03*
%TD*%
D33*
%TO.P,D2,1,A*%
%TO.N,G7_3V*%
X32210000Y-36650000D03*
%TO.P,D2,2,A*%
%TO.N,G5_3V*%
X32210000Y-36000000D03*
%TO.P,D2,3,K*%
%TO.N,Net-(D1A-K)*%
X32210000Y-35350000D03*
%TO.P,D2,4,A*%
%TO.N,/VBUS*%
X30310000Y-35350000D03*
%TO.P,D2,5,A*%
X30310000Y-36000000D03*
%TO.P,D2,6,K*%
%TO.N,+3V3*%
X30310000Y-36650000D03*
%TD*%
D32*
%TO.P,R3,1*%
%TO.N,/PS3*%
X6438100Y-31090000D03*
%TO.P,R3,2*%
%TO.N,PS3_3V*%
X6438100Y-32110000D03*
%TD*%
D40*
%TO.P,TP1,1,1*%
%TO.N,GND*%
X64460000Y-23200000D03*
%TD*%
D41*
%TO.P,D1,1,A*%
%TO.N,/F2*%
X51190000Y-6100000D03*
%TO.P,D1,2,K*%
%TO.N,/F1*%
X51190000Y-7400000D03*
%TO.P,D1,3,K*%
%TO.N,Net-(D1A-K)*%
X53190000Y-6750000D03*
%TD*%
D33*
%TO.P,D4,1,A*%
%TO.N,unconnected-(D4A-A-Pad1)*%
X25910000Y-36750000D03*
%TO.P,D4,2,A*%
%TO.N,G6_3V*%
X25910000Y-36100000D03*
%TO.P,D4,3,K*%
%TO.N,+3V3*%
X25910000Y-35450000D03*
%TO.P,D4,4,A*%
%TO.N,G2_3V*%
X24010000Y-35450000D03*
%TO.P,D4,5,A*%
%TO.N,PDP_3V*%
X24010000Y-36100000D03*
%TO.P,D4,6,K*%
%TO.N,+3V3*%
X24010000Y-36750000D03*
%TD*%
D32*
%TO.P,R12,1*%
%TO.N,/G4*%
X17807100Y-31090000D03*
%TO.P,R12,2*%
%TO.N,G4_3V*%
X17807100Y-32110000D03*
%TD*%
%TO.P,R19,1*%
%TO.N,/G5*%
X31724600Y-31090000D03*
%TO.P,R19,2*%
%TO.N,G5_3V*%
X31724600Y-32110000D03*
%TD*%
%TO.P,R18,1*%
%TO.N,/G7*%
X29311600Y-31090000D03*
%TO.P,R18,2*%
%TO.N,G7_3V*%
X29311600Y-32110000D03*
%TD*%
%TO.P,R6,1*%
%TO.N,/Pc*%
X10227700Y-31090000D03*
%TO.P,R6,2*%
%TO.N,PC_3V*%
X10227700Y-32110000D03*
%TD*%
D33*
%TO.P,D7,1,A*%
%TO.N,PC_3V*%
X9110000Y-37050000D03*
%TO.P,D7,2,A*%
%TO.N,PG_3V*%
X9110000Y-36400000D03*
%TO.P,D7,3,K*%
%TO.N,+3V3*%
X9110000Y-35750000D03*
%TO.P,D7,4,A*%
%TO.N,PA_3V*%
X7210000Y-35750000D03*
%TO.P,D7,5,A*%
%TO.N,PS3_3V*%
X7210000Y-36400000D03*
%TO.P,D7,6,K*%
%TO.N,+3V3*%
X7210000Y-37050000D03*
%TD*%
D32*
%TO.P,R1,1*%
%TO.N,/PS2*%
X3911600Y-31090000D03*
%TO.P,R1,2*%
%TO.N,PS2_3V*%
X3911600Y-32110000D03*
%TD*%
%TO.P,R13,1*%
%TO.N,/PS1*%
X19070300Y-31090000D03*
%TO.P,R13,2*%
%TO.N,PS1_3V*%
X19070300Y-32110000D03*
%TD*%
%TO.P,R8,1*%
%TO.N,/G0*%
X12754200Y-31090000D03*
%TO.P,R8,2*%
%TO.N,G0_3V*%
X12754200Y-32110000D03*
%TD*%
%TO.P,R5,1*%
%TO.N,/Pg*%
X8964500Y-31090000D03*
%TO.P,R5,2*%
%TO.N,PG_3V*%
X8964500Y-32110000D03*
%TD*%
D38*
%TO.P,P204,1,Pin_1*%
%TO.N,/G2*%
X22860000Y-13970000D03*
D39*
%TO.P,P204,2,Pin_2*%
%TO.N,/G3*%
X20320000Y-13970000D03*
%TO.P,P204,3,Pin_3*%
%TO.N,/G4*%
X17780000Y-13970000D03*
%TO.P,P204,4,Pin_4*%
%TO.N,/G1*%
X15240000Y-13970000D03*
%TO.P,P204,5,Pin_5*%
%TO.N,/G0*%
X12700000Y-13970000D03*
%TO.P,P204,6,Pin_6*%
%TO.N,/Pc*%
X10160000Y-13970000D03*
%TO.P,P204,7,Pin_7*%
%TO.N,/Pa*%
X7620000Y-13970000D03*
%TO.P,P204,8,Pin_8*%
%TO.N,/Pb*%
X5080000Y-13970000D03*
%TO.P,P204,9,Pin_9*%
%TO.N,/PS2*%
X5080000Y-6350000D03*
%TO.P,P204,10,Pin_10*%
%TO.N,/PS3*%
X7620000Y-6350000D03*
%TO.P,P204,11,Pin_11*%
%TO.N,/Pg*%
X10160000Y-6350000D03*
%TO.P,P204,12,Pin_12*%
%TO.N,/Pf*%
X12700000Y-6350000D03*
%TO.P,P204,13,Pin_13*%
%TO.N,/Pe*%
X15240000Y-6350000D03*
%TO.P,P204,14,Pin_14*%
%TO.N,/Pd*%
X17780000Y-6350000D03*
%TO.P,P204,15,Pin_15*%
%TO.N,/PS1*%
X20320000Y-6350000D03*
%TO.P,P204,16,Pin_16*%
%TO.N,/PDP*%
X22860000Y-6350000D03*
%TD*%
D38*
%TO.P,P203,1,Pin_1*%
%TO.N,GND*%
X45720000Y-13970000D03*
D39*
%TO.P,P203,2,Pin_2*%
%TO.N,/RL3*%
X43180000Y-13970000D03*
%TO.P,P203,3,Pin_3*%
%TO.N,/RL5*%
X40640000Y-13970000D03*
%TO.P,P203,4,Pin_4*%
%TO.N,/RL2*%
X38100000Y-13970000D03*
%TO.P,P203,5,Pin_5*%
%TO.N,/RL4*%
X35560000Y-13970000D03*
%TO.P,P203,6,Pin_6*%
%TO.N,/RL6*%
X33020000Y-13970000D03*
%TO.P,P203,7,Pin_7*%
%TO.N,/RL1*%
X30480000Y-13970000D03*
%TO.P,P203,8,Pin_8*%
%TO.N,/RL0*%
X27940000Y-13970000D03*
%TO.P,P203,9,Pin_9*%
%TO.N,/G6*%
X27940000Y-6350000D03*
%TO.P,P203,10,Pin_10*%
%TO.N,/G7*%
X30480000Y-6350000D03*
%TO.P,P203,11,Pin_11*%
%TO.N,/G5*%
X33020000Y-6350000D03*
%TO.P,P203,12,Pin_12*%
%TO.N,/S0*%
X35560000Y-6350000D03*
%TO.P,P203,13,Pin_13*%
%TO.N,/S1*%
X38100000Y-6350000D03*
%TO.P,P203,14,Pin_14*%
%TO.N,/S2*%
X40640000Y-6350000D03*
%TO.P,P203,15,Pin_15*%
%TO.N,/F2*%
X43180000Y-6350000D03*
%TO.P,P203,16,Pin_16*%
%TO.N,/F1*%
X45720000Y-6350000D03*
%TD*%
D42*
%TO.N,GND*%
X58460000Y-23600000D03*
X9062400Y-48115400D03*
X62210000Y-19000000D03*
X12680400Y-51696400D03*
X19023600Y-58200000D03*
X9062400Y-41405400D03*
X64404000Y-51137500D03*
X29262000Y-50315400D03*
X57060000Y-23600000D03*
X11462400Y-46489400D03*
X34225000Y-56050000D03*
X12680400Y-52815400D03*
X59760000Y-23600000D03*
X37663000Y-46015400D03*
X61260000Y-22100000D03*
X57060000Y-22100000D03*
X28262000Y-55315400D03*
X67754000Y-54777900D03*
X9062400Y-50105400D03*
X58460000Y-22100000D03*
X23823600Y-44800000D03*
X9062400Y-56805400D03*
X5930600Y-41405400D03*
X59760000Y-22100000D03*
X13505900Y-50870900D03*
X28262000Y-54315400D03*
X29262000Y-51315400D03*
X34225000Y-55050000D03*
X61260000Y-23600000D03*
X11473900Y-52077400D03*
X13632900Y-48394400D03*
X31263000Y-42115400D03*
X67854000Y-51340200D03*
X7562400Y-49205400D03*
X5362400Y-56805400D03*
X19603600Y-43450000D03*
%TO.N,+3V3*%
X25140000Y-54400000D03*
X37360000Y-54950000D03*
X17944800Y-50378800D03*
X17235000Y-38300000D03*
X7360000Y-38400000D03*
X12460000Y-38300000D03*
X19160000Y-34000000D03*
X24860000Y-34200000D03*
X14160000Y-34200000D03*
X49460000Y-39500000D03*
X24160000Y-38400000D03*
X25920400Y-51665400D03*
X21590000Y-42650000D03*
X2060000Y-38400000D03*
X49460000Y-35900000D03*
X8460000Y-34600000D03*
X20240000Y-44050000D03*
X18097100Y-53680800D03*
X30310000Y-37750000D03*
X49460000Y-37200000D03*
X24890000Y-45150000D03*
X49460000Y-38400000D03*
%TO.N,+1V1*%
X22562400Y-52015400D03*
X25262400Y-51115400D03*
X18362400Y-51915400D03*
X15262400Y-52115400D03*
%TO.N,/QSPI_SS*%
X24199500Y-48149800D03*
X36992000Y-42755500D03*
%TO.N,Net-(D1A-K)*%
X59040000Y-12750000D03*
X31590000Y-33350000D03*
%TO.N,G0_3V*%
X19953600Y-57250000D03*
X12787400Y-33726900D03*
%TO.N,G1_3V*%
X15297100Y-37059800D03*
X19953600Y-58150000D03*
%TO.N,G2_3V*%
X18179600Y-46904800D03*
X22911000Y-33620400D03*
%TO.N,G6_3V*%
X18262400Y-43721600D03*
X25081400Y-36376900D03*
%TO.N,PA_3V*%
X7349100Y-34783000D03*
X14523600Y-54100000D03*
%TO.N,PB_3V*%
X5116900Y-36986400D03*
X12823600Y-54200000D03*
%TO.N,PC_3V*%
X10716000Y-37207400D03*
X16023600Y-53500000D03*
%TO.N,PE_3V*%
X14612600Y-33193200D03*
X21190000Y-57700000D03*
%TO.N,PG_3V*%
X15352700Y-53835400D03*
X9660000Y-34300000D03*
%TO.N,PS2_3V*%
X11823600Y-54200000D03*
X3292200Y-37515700D03*
%TO.N,PS3_3V*%
X5696500Y-42730800D03*
X13623600Y-54100000D03*
%TO.N,/GPIO29_ADC3*%
X40392000Y-57084700D03*
%TO.N,/GPIO28_ADC2*%
X41280000Y-56939500D03*
%TO.N,/VBUS*%
X64240000Y-54800000D03*
X29040000Y-36850000D03*
%TO.N,PF_3V*%
X13598600Y-37545500D03*
X19953600Y-56450000D03*
X16637400Y-57395700D03*
%TD*%
D43*
%TO.N,/GPIO26_ADC0*%
X50890000Y-57250000D02*
X50890000Y-56450000D01*
%TO.N,/GPIO27_ADC1*%
X21862400Y-54752900D02*
X21862400Y-55229222D01*
X21862400Y-55229222D02*
X24683178Y-58050000D01*
X45090000Y-58050000D02*
X45890000Y-57250000D01*
X24683178Y-58050000D02*
X45090000Y-58050000D01*
X45890000Y-57250000D02*
X46190000Y-56450000D01*
%TO.N,GND*%
X31282000Y-41513300D02*
X31282000Y-41512900D01*
X67854000Y-51340200D02*
X68429000Y-51340200D01*
X11462400Y-52065900D02*
X11462400Y-51285400D01*
D44*
X68429000Y-51407600D02*
X68429000Y-51340200D01*
X27432000Y-54315400D02*
X28262000Y-54315400D01*
D43*
X11473900Y-52077400D02*
X11462400Y-52065900D01*
D44*
X37633000Y-46720400D02*
X37663000Y-46690400D01*
X28432000Y-51315400D02*
X29262000Y-51315400D01*
X17024900Y-50315400D02*
X15807900Y-50315400D01*
D43*
X34625000Y-54650000D02*
X34225000Y-55050000D01*
D44*
X37663000Y-46690400D02*
X37663000Y-46015400D01*
X31283000Y-42095400D02*
X31263000Y-42115400D01*
D43*
X68429000Y-54088900D02*
X68602000Y-54088900D01*
D44*
X60510000Y-19300000D02*
X61910000Y-19300000D01*
D43*
X68429000Y-53744400D02*
X68946700Y-53744400D01*
D44*
X62772000Y-18437500D02*
X63148000Y-18437500D01*
X63335000Y-17875000D02*
X62772000Y-18437500D01*
X37632000Y-46794300D02*
X37632000Y-46850800D01*
D43*
X23853600Y-45345000D02*
X23853600Y-45570000D01*
X19023600Y-57360000D02*
X19023600Y-58200000D01*
X68429000Y-51407600D02*
X69223700Y-51407600D01*
D44*
X35255000Y-56050000D02*
X34225000Y-56050000D01*
X37633000Y-46831000D02*
X37633000Y-46794100D01*
X19223600Y-44430000D02*
X19603600Y-43450000D01*
X68429000Y-54777900D02*
X68429000Y-54897500D01*
X31282000Y-41762700D02*
X31282000Y-41513300D01*
X68429000Y-53744400D02*
X68429000Y-54088900D01*
X31282000Y-41512900D02*
X31282000Y-41264000D01*
X15807900Y-50315400D02*
X13886900Y-48394400D01*
X66553600Y-51137500D02*
X64404000Y-51137500D01*
D43*
X12196900Y-50870900D02*
X12362900Y-50870900D01*
X67754000Y-54777900D02*
X68429000Y-54777900D01*
D44*
X61910000Y-19300000D02*
X62210000Y-19000000D01*
X37633000Y-46794100D02*
X37632000Y-46794300D01*
X37633000Y-46867900D02*
X37633000Y-46831000D01*
X68429000Y-51340200D02*
X68429000Y-49977500D01*
X31282000Y-41513300D02*
X31282000Y-41512900D01*
X68429000Y-53400000D02*
X68429000Y-53744400D01*
D43*
X23823600Y-45315000D02*
X23853600Y-45345000D01*
D44*
X13886900Y-48394400D02*
X13632900Y-48394400D01*
X31283000Y-41430400D02*
X31283000Y-41762900D01*
X13492400Y-51696400D02*
X12680400Y-51696400D01*
X13492400Y-52815400D02*
X12680400Y-52815400D01*
D43*
X35255000Y-54650000D02*
X34625000Y-54650000D01*
D44*
X28432000Y-50315400D02*
X29262000Y-50315400D01*
X31283000Y-41762900D02*
X31282000Y-41762700D01*
D43*
X31282000Y-41512900D02*
X31282000Y-41264000D01*
D44*
X62772000Y-18437500D02*
X62210000Y-19000000D01*
D43*
X11462400Y-51285400D02*
X11782400Y-51285400D01*
D44*
X27432000Y-55315400D02*
X28262000Y-55315400D01*
X68429000Y-54088900D02*
X68429000Y-54777900D01*
X9062400Y-48115400D02*
X9862400Y-48115400D01*
X37633000Y-46794100D02*
X37633000Y-46720400D01*
X11462400Y-47345400D02*
X11462400Y-46489400D01*
X23823600Y-45315000D02*
X23823600Y-44800000D01*
D43*
X11782400Y-51285400D02*
X12196900Y-50870900D01*
X69253600Y-55937500D02*
X69253600Y-55337500D01*
D44*
X63148000Y-18437500D02*
X63710000Y-17875000D01*
X31283000Y-41762900D02*
X31283000Y-42095400D01*
%TO.N,+3V3*%
X25910000Y-35450000D02*
X25910000Y-35250000D01*
X24010000Y-36750000D02*
X24010000Y-38250000D01*
D45*
X54433000Y-21932100D02*
X54432800Y-21932100D01*
D44*
X17260000Y-38300000D02*
X17235000Y-38300000D01*
D45*
X49460000Y-38400000D02*
X49460000Y-39500000D01*
X49460000Y-35900000D02*
X49460000Y-37200000D01*
X54210000Y-17000000D02*
X60510000Y-17000000D01*
D44*
X23899900Y-53515400D02*
X23262400Y-53515400D01*
X12410000Y-36950000D02*
X12410000Y-38250000D01*
X27462000Y-51315400D02*
X26700000Y-51315400D01*
D45*
X54432800Y-21932100D02*
X53733000Y-21932100D01*
D44*
X24010000Y-38250000D02*
X24160000Y-38400000D01*
X7210000Y-37050000D02*
X7210000Y-38250000D01*
X26700000Y-51315400D02*
X26350000Y-51665400D01*
X17024900Y-51515400D02*
X14956900Y-51515400D01*
D45*
X49460000Y-26204900D02*
X49460000Y-35900000D01*
D44*
X17024900Y-51515400D02*
X17662400Y-51515400D01*
X23899900Y-53915400D02*
X23062400Y-53915400D01*
X23899900Y-51915400D02*
X24662400Y-51915400D01*
X26350000Y-51665400D02*
X25920400Y-51665400D01*
D43*
X19223600Y-45265100D02*
X20240000Y-44248700D01*
D44*
X23062400Y-47877900D02*
X23062400Y-47015400D01*
X24662400Y-51915400D02*
X24912400Y-51665400D01*
D43*
X20240000Y-44248700D02*
X20240000Y-44050000D01*
D44*
X17210000Y-36850000D02*
X17210000Y-38250000D01*
X23062400Y-53715400D02*
X23062400Y-53915400D01*
X30310000Y-37750000D02*
X30310000Y-36650000D01*
X23262400Y-53515400D02*
X23062400Y-53715400D01*
X17210000Y-38250000D02*
X17260000Y-38300000D01*
X23262400Y-51915400D02*
X23062400Y-51715400D01*
X14775900Y-51696400D02*
X14457400Y-51696400D01*
X7210000Y-38250000D02*
X7360000Y-38400000D01*
X19160000Y-34000000D02*
X19160000Y-35500000D01*
D45*
X54210000Y-19704400D02*
X54210000Y-21709300D01*
D44*
X14956900Y-51515400D02*
X14775900Y-51696400D01*
D43*
X54122000Y-19616900D02*
X54122000Y-17087500D01*
D45*
X49460000Y-37200000D02*
X49460000Y-38400000D01*
D44*
X35093000Y-47965400D02*
X37613000Y-47965400D01*
X23899900Y-51915400D02*
X23262400Y-51915400D01*
X14310000Y-35650000D02*
X14310000Y-34350000D01*
X25920400Y-51665400D02*
X24912400Y-51665400D01*
X12410000Y-38250000D02*
X12460000Y-38300000D01*
X24762400Y-51515400D02*
X23899900Y-51515400D01*
X9110000Y-35250000D02*
X8460000Y-34600000D01*
X23899900Y-51515400D02*
X23462400Y-51515400D01*
X14310000Y-34350000D02*
X14160000Y-34200000D01*
X24362400Y-53515400D02*
X26162400Y-55315400D01*
D45*
X54210000Y-17699500D02*
X54210000Y-19704400D01*
D44*
X19462400Y-54752900D02*
X19453600Y-55850000D01*
X24912400Y-51665400D02*
X24762400Y-51515400D01*
X25910000Y-35250000D02*
X24860000Y-34200000D01*
X19423600Y-45600000D02*
X19223600Y-45400000D01*
D45*
X53733000Y-21932100D02*
X49460000Y-26204900D01*
D44*
X2110000Y-38350000D02*
X2060000Y-38400000D01*
X19462400Y-47877900D02*
X19462400Y-45515400D01*
X2110000Y-37050000D02*
X2110000Y-38350000D01*
X23899900Y-53515400D02*
X24362400Y-53515400D01*
X19453600Y-55850000D02*
X19282400Y-56141200D01*
X17662400Y-51515400D02*
X17862400Y-51315400D01*
D45*
X51210000Y-17087500D02*
X54122000Y-17087500D01*
D44*
X23062400Y-47015400D02*
X23823600Y-46795000D01*
X19282400Y-56141200D02*
X19023600Y-56400000D01*
D43*
X54210000Y-19704400D02*
X54122000Y-19616900D01*
D44*
X9110000Y-35750000D02*
X9110000Y-35250000D01*
D45*
X54210000Y-21709300D02*
X54433000Y-21932100D01*
D44*
X36225000Y-56050000D02*
X36225000Y-54650000D01*
X26162400Y-55315400D02*
X26462000Y-55315400D01*
X23062400Y-53915400D02*
X23062400Y-54752900D01*
D43*
%TO.N,+1V1*%
X22462400Y-51715400D02*
X22562400Y-51815400D01*
D44*
X14562400Y-52815400D02*
X14761100Y-52616700D01*
X25862400Y-54315400D02*
X26462000Y-54315400D01*
X25262400Y-51115400D02*
X26367000Y-51115400D01*
X23899900Y-51115400D02*
X25262400Y-51115400D01*
X23899900Y-53115400D02*
X23062400Y-53115400D01*
X26367000Y-51115400D02*
X27167000Y-50315400D01*
X24662400Y-53115400D02*
X25862400Y-54315400D01*
X27167000Y-50315400D02*
X27462000Y-50315400D01*
X17024900Y-51915400D02*
X15462400Y-51915400D01*
X15462400Y-51915400D02*
X15262400Y-52115400D01*
X14761100Y-52616700D02*
X15262400Y-52115400D01*
X14656100Y-52616700D02*
X14457400Y-52815400D01*
X23899900Y-53115400D02*
X24662400Y-53115400D01*
D43*
X22562400Y-51815400D02*
X22562400Y-52015400D01*
D44*
X14761100Y-52616700D02*
X14656100Y-52616700D01*
%TO.N,/XIN*%
X12262400Y-49115400D02*
X11462400Y-48315400D01*
X15524600Y-50715400D02*
X13924600Y-49115400D01*
X17024900Y-50715400D02*
X15524600Y-50715400D01*
X10811900Y-48965900D02*
X8679900Y-48965900D01*
X7346400Y-47632400D02*
X7346400Y-44656400D01*
X11462400Y-48315400D02*
X10811900Y-48965900D01*
X8679900Y-48965900D02*
X7346400Y-47632400D01*
X13924600Y-49115400D02*
X12262400Y-49115400D01*
%TO.N,/USB_D-*%
X64754000Y-53300000D02*
X66553600Y-53087500D01*
D46*
X27457000Y-53290400D02*
X64754000Y-53300000D01*
X27445000Y-53302900D02*
X27457000Y-53290400D01*
%TO.N,/USB_D+*%
X27457400Y-52327900D02*
X64668000Y-52327900D01*
D44*
X65529000Y-52400000D02*
X66553600Y-52437500D01*
X64668000Y-52327900D02*
X65529000Y-52400000D01*
D43*
%TO.N,/~{USB_BOOT}*%
X40269000Y-44148300D02*
X39946000Y-43825000D01*
D44*
X39946000Y-43825000D02*
X38767000Y-42425000D01*
X40535000Y-44525000D02*
X39946000Y-43825000D01*
D43*
X41124000Y-44686600D02*
X41124000Y-44148300D01*
X41124000Y-44148300D02*
X40269000Y-44148300D01*
%TO.N,/QSPI_SS*%
X37644000Y-41973700D02*
X37644000Y-42064700D01*
D44*
X37663000Y-42155800D02*
X37663000Y-41954300D01*
D43*
X23899900Y-48449400D02*
X23899900Y-48715400D01*
D44*
X37663000Y-41954300D02*
X37663000Y-41752900D01*
D43*
X37663000Y-41190400D02*
X37663000Y-41752900D01*
X37663000Y-41102900D02*
X37637400Y-41077300D01*
X24199500Y-48149800D02*
X23899900Y-48449400D01*
X37292100Y-42455600D02*
X36992000Y-42755500D01*
X37592000Y-42155800D02*
X37292100Y-42455600D01*
X35093000Y-40765400D02*
X37587000Y-40765400D01*
D44*
X37663000Y-41015500D02*
X37663000Y-41102900D01*
D43*
X37292100Y-42455600D02*
X37438000Y-42455600D01*
X37663000Y-41954300D02*
X37644000Y-41973700D01*
X37438000Y-42455600D02*
X37643600Y-42250000D01*
X37637400Y-41077300D02*
X37637400Y-40815400D01*
D44*
X37663000Y-41102900D02*
X37663000Y-41190400D01*
%TO.N,/XOUT*%
X14262400Y-50015400D02*
X13857400Y-50015400D01*
X17024900Y-51115400D02*
X15362400Y-51115400D01*
X15362400Y-51115400D02*
X14262400Y-50015400D01*
D43*
%TO.N,/QSPI_SD1*%
X33607000Y-40060200D02*
X33714500Y-40167700D01*
D44*
X23899900Y-49115400D02*
X24462400Y-49115400D01*
X33392000Y-39845300D02*
X33607000Y-40060200D01*
D43*
X33392000Y-39845300D02*
X33607000Y-40060200D01*
D44*
X32963000Y-39415400D02*
X33392000Y-39845300D01*
X30663000Y-39415400D02*
X32963000Y-39415400D01*
X33607000Y-40060200D02*
X33714500Y-40167700D01*
X24462400Y-49115400D02*
X29763000Y-43815400D01*
X29763000Y-43815400D02*
X29763000Y-40315400D01*
X29763000Y-40315400D02*
X30663000Y-39415400D01*
%TO.N,/QSPI_SD2*%
X32553000Y-41825400D02*
X32553000Y-41560400D01*
X23899900Y-49515400D02*
X24862400Y-49515400D01*
D43*
X32553000Y-41560400D02*
X32552000Y-41559800D01*
X32552000Y-41559800D02*
X32552000Y-41361200D01*
D44*
X32553000Y-41560400D02*
X32553000Y-41295400D01*
X24862400Y-49515400D02*
X32553000Y-41825400D01*
%TO.N,/QSPI_SD0*%
X23899900Y-49915400D02*
X25262400Y-49915400D01*
X25262400Y-49915400D02*
X27162000Y-48015400D01*
X27162000Y-48015400D02*
X31232000Y-48015400D01*
D43*
%TO.N,/QSPI_SCLK*%
X25996600Y-50226400D02*
X27362000Y-48615400D01*
X29562000Y-48615400D02*
X30063000Y-49115400D01*
X23899900Y-50315400D02*
X25996600Y-50226400D01*
X32258000Y-48820500D02*
X32552400Y-48526100D01*
X31963000Y-49115400D02*
X32258000Y-48820500D01*
X27362000Y-48615400D02*
X29562000Y-48615400D01*
X30063000Y-49115400D02*
X31963000Y-49115400D01*
D44*
X23899900Y-50305400D02*
X23899900Y-50315400D01*
X23894900Y-50310400D02*
X23899900Y-50305400D01*
D43*
%TO.N,/QSPI_SD3*%
X24548800Y-50607400D02*
X26225100Y-50566700D01*
X33387000Y-48990500D02*
X33822000Y-48555500D01*
X33387000Y-48990500D02*
X33822000Y-48555600D01*
X27562000Y-49215400D02*
X29362000Y-49215400D01*
X26225100Y-50566700D02*
X27562000Y-49215400D01*
X29362000Y-49215400D02*
X29863000Y-49715400D01*
X29863000Y-49715400D02*
X32663000Y-49715400D01*
X24337400Y-50715400D02*
X24548800Y-50607400D01*
X23899900Y-50715400D02*
X24337400Y-50715400D01*
X32663000Y-49715400D02*
X33387000Y-48990500D01*
D47*
%TO.N,/F1*%
X47170000Y-18870000D02*
X45720000Y-20320000D01*
X47170000Y-7800000D02*
X47170000Y-18870000D01*
X50140000Y-6350000D02*
X51190000Y-7400000D01*
X45720000Y-6350000D02*
X47170000Y-7800000D01*
X45720000Y-6350000D02*
X50140000Y-6350000D01*
%TO.N,/F2*%
X44430000Y-19070000D02*
X43180000Y-20320000D01*
X43180000Y-6350000D02*
X44430000Y-7600000D01*
X43180000Y-6350000D02*
X44430000Y-5100000D01*
X50190000Y-5100000D02*
X51190000Y-6100000D01*
X44430000Y-5100000D02*
X50190000Y-5100000D01*
X44430000Y-7600000D02*
X44430000Y-19070000D01*
D48*
%TO.N,/S2*%
X41740000Y-7450000D02*
X41740000Y-19220000D01*
X41740000Y-19220000D02*
X40640000Y-20320000D01*
X40640000Y-6350000D02*
X41740000Y-7450000D01*
%TO.N,/S1*%
X39200000Y-7450000D02*
X39200000Y-19220000D01*
X39200000Y-19220000D02*
X38100000Y-20320000D01*
X38100000Y-6350000D02*
X39200000Y-7450000D01*
%TO.N,/S0*%
X35560000Y-6350000D02*
X36660000Y-7450000D01*
X36660000Y-19220000D02*
X35560000Y-20320000D01*
X36660000Y-7450000D02*
X36660000Y-19220000D01*
%TO.N,/G5*%
X33020000Y-21346900D02*
X33020000Y-20320000D01*
D43*
X31738000Y-30669500D02*
X31725000Y-30682400D01*
D48*
X31728000Y-31090100D02*
X31738000Y-30669500D01*
X33020000Y-6350000D02*
X34120000Y-7450000D01*
X34120000Y-19220000D02*
X33020000Y-20320000D01*
D43*
X31725000Y-30682400D02*
X31725000Y-30886200D01*
D48*
X31725000Y-22410100D02*
X33020000Y-21346900D01*
X34120000Y-7450000D02*
X34120000Y-19220000D01*
X31738000Y-30669500D02*
X31750000Y-30124400D01*
X31750000Y-30124400D02*
X31725000Y-22410100D01*
%TO.N,/G7*%
X29312000Y-22515300D02*
X29312000Y-29434000D01*
X30480000Y-6350000D02*
X31580000Y-7450000D01*
D43*
X29312000Y-30362400D02*
X29312000Y-30362800D01*
X29312000Y-30726400D02*
X29312000Y-31090000D01*
X29312000Y-30726400D02*
X29311600Y-30726800D01*
D44*
X29312000Y-30726400D02*
X29312000Y-31090000D01*
X29312000Y-30362800D02*
X29312000Y-30726400D01*
D48*
X30480000Y-20320000D02*
X30480000Y-21346900D01*
X31580000Y-7450000D02*
X31580000Y-19220000D01*
D43*
X29312000Y-30362800D02*
X29312000Y-30726400D01*
D44*
X29312000Y-29434000D02*
X29312000Y-30362400D01*
X29312000Y-30362400D02*
X29312000Y-30362800D01*
D48*
X30480000Y-21346900D02*
X29312000Y-22515300D01*
D43*
X29311600Y-30726800D02*
X29311600Y-31090000D01*
D48*
X31580000Y-19220000D02*
X30480000Y-20320000D01*
D44*
%TO.N,/G6*%
X26772000Y-30362400D02*
X26772000Y-30362800D01*
D43*
X26772000Y-30362400D02*
X26772000Y-30362800D01*
D44*
X26772000Y-30726400D02*
X26772000Y-31090000D01*
D43*
X26772000Y-30726400D02*
X26772000Y-31090000D01*
D48*
X29040000Y-19220000D02*
X27940000Y-20320000D01*
D44*
X26772000Y-30362800D02*
X26772000Y-30726400D01*
D43*
X26772000Y-30726400D02*
X26771600Y-30726800D01*
D48*
X26772000Y-22515300D02*
X27940000Y-21346900D01*
X27940000Y-21346900D02*
X27940000Y-20320000D01*
X27940000Y-6350000D02*
X29040000Y-7450000D01*
D43*
X26771600Y-30726800D02*
X26771600Y-31090000D01*
X26772000Y-30362800D02*
X26772000Y-30726400D01*
D48*
X29040000Y-7450000D02*
X29040000Y-19220000D01*
X26772000Y-29434000D02*
X26772000Y-22515300D01*
D44*
X26772000Y-29434000D02*
X26772000Y-30362400D01*
D45*
%TO.N,Net-(D1A-K)*%
X59040000Y-7750000D02*
X59040000Y-13230000D01*
X53190000Y-6750000D02*
X58040000Y-6750000D01*
X62410000Y-14700000D02*
X63710000Y-16000000D01*
X58040000Y-6750000D02*
X59040000Y-7750000D01*
X60510000Y-14700000D02*
X62410000Y-14700000D01*
X59040000Y-13230000D02*
X60510000Y-14700000D01*
D49*
X32210000Y-35350000D02*
X32210000Y-33970000D01*
X32210000Y-33970000D02*
X31590000Y-33350000D01*
D48*
%TO.N,/PDP*%
X21596800Y-31090000D02*
X21596800Y-22610100D01*
X22860000Y-6350000D02*
X23960000Y-7450000D01*
X23960000Y-7450000D02*
X23960000Y-19220000D01*
X21596800Y-22610100D02*
X22860000Y-21346900D01*
X23960000Y-19220000D02*
X22860000Y-20320000D01*
X22860000Y-21346900D02*
X22860000Y-20320000D01*
%TO.N,/PS1*%
X21590000Y-19050000D02*
X20320000Y-20320000D01*
X21590000Y-7620000D02*
X21590000Y-19050000D01*
X20320000Y-20320000D02*
X20320000Y-21346900D01*
X20320000Y-6350000D02*
X21590000Y-7620000D01*
X19070300Y-22596600D02*
X19070300Y-31090000D01*
X20320000Y-21346900D02*
X19070300Y-22596600D01*
%TO.N,/Pd*%
X17780000Y-6350000D02*
X19050000Y-7620000D01*
X19050000Y-19050000D02*
X17780000Y-20320000D01*
X17780000Y-20320000D02*
X17780000Y-21346900D01*
X16543900Y-22583000D02*
X16543900Y-31090000D01*
X17780000Y-21346900D02*
X16543900Y-22583000D01*
X19050000Y-7620000D02*
X19050000Y-19050000D01*
%TO.N,/Pe*%
X16340000Y-7450000D02*
X16340000Y-19220000D01*
X15240000Y-21346900D02*
X14017400Y-22569500D01*
X14017400Y-22569500D02*
X14017400Y-31090000D01*
X15240000Y-20320000D02*
X15240000Y-21346900D01*
X16340000Y-19220000D02*
X15240000Y-20320000D01*
X15240000Y-6350000D02*
X16340000Y-7450000D01*
%TO.N,/Pf*%
X11491000Y-22555900D02*
X11491000Y-31090000D01*
X12700000Y-21346900D02*
X11491000Y-22555900D01*
X12700000Y-20320000D02*
X12700000Y-21346900D01*
X13800000Y-19220000D02*
X12700000Y-20320000D01*
X12700000Y-6350000D02*
X13800000Y-7450000D01*
X13800000Y-7450000D02*
X13800000Y-19220000D01*
%TO.N,/Pg*%
X10160000Y-21346900D02*
X8964500Y-22542400D01*
X10160000Y-6350000D02*
X11260000Y-7450000D01*
X11260000Y-19220000D02*
X10160000Y-20320000D01*
X11260000Y-7450000D02*
X11260000Y-19220000D01*
X10160000Y-20320000D02*
X10160000Y-21346900D01*
X8964500Y-22542400D02*
X8964500Y-31090000D01*
%TO.N,/PS3*%
X8720000Y-7450000D02*
X8720000Y-19220000D01*
X7620000Y-6350000D02*
X8720000Y-7450000D01*
X7620000Y-20320000D02*
X7620000Y-21346900D01*
X8720000Y-19220000D02*
X7620000Y-20320000D01*
X7620000Y-21346900D02*
X6438100Y-22528800D01*
X6438100Y-22528800D02*
X6438100Y-31090000D01*
%TO.N,/PS2*%
X6180000Y-7450000D02*
X6180000Y-19220000D01*
X5080000Y-6350000D02*
X6180000Y-7450000D01*
X3911600Y-22515300D02*
X3911600Y-31090000D01*
X6180000Y-19220000D02*
X5080000Y-20320000D01*
X5080000Y-21346900D02*
X3911600Y-22515300D01*
X5080000Y-20320000D02*
X5080000Y-21346900D01*
%TO.N,/Pb*%
X5174800Y-29061700D02*
X5174800Y-31090000D01*
X5080000Y-28966900D02*
X5174800Y-29061700D01*
X5080000Y-27940000D02*
X5080000Y-28966900D01*
%TO.N,/Pa*%
X7701300Y-29048200D02*
X7701300Y-31090000D01*
X7620000Y-27940000D02*
X7620000Y-28966900D01*
X7620000Y-28966900D02*
X7701300Y-29048200D01*
%TO.N,/Pc*%
X10227700Y-29034600D02*
X10227700Y-31090000D01*
X10160000Y-28966900D02*
X10227700Y-29034600D01*
X10160000Y-27940000D02*
X10160000Y-28966900D01*
%TO.N,/G0*%
X12754200Y-29021100D02*
X12754200Y-31090000D01*
X12700000Y-27940000D02*
X12700000Y-28966900D01*
X12700000Y-28966900D02*
X12754200Y-29021100D01*
%TO.N,/G1*%
X15240000Y-27940000D02*
X15240000Y-28966900D01*
X15240000Y-28966900D02*
X15280600Y-29007500D01*
X15280600Y-29007500D02*
X15280600Y-31090000D01*
%TO.N,/G4*%
X17780000Y-27940000D02*
X17780000Y-28966900D01*
X17780000Y-28966900D02*
X17807100Y-28994000D01*
X17807100Y-28994000D02*
X17807100Y-31090000D01*
%TO.N,/G3*%
X20320000Y-28966900D02*
X20333500Y-28980400D01*
X20320000Y-27940000D02*
X20320000Y-28966900D01*
X20333500Y-28980400D02*
X20333500Y-31090000D01*
%TO.N,/G2*%
X22860000Y-27940000D02*
X22860000Y-31090000D01*
D44*
%TO.N,G0_3V*%
X12754200Y-35305800D02*
X12410000Y-35650000D01*
X20503600Y-56700000D02*
X19953600Y-57250000D01*
X20262400Y-54752900D02*
X20262400Y-55981000D01*
X20503600Y-56222200D02*
X20503600Y-56700000D01*
X12754200Y-33760100D02*
X12754200Y-35305800D01*
X12754200Y-32110000D02*
X12754200Y-33760100D01*
X20262400Y-55981000D02*
X20503600Y-56222200D01*
D43*
X12787400Y-33726900D02*
X12754200Y-33760100D01*
%TO.N,G1_3V*%
X15187300Y-36950000D02*
X15297100Y-37059800D01*
D44*
X19953600Y-58150000D02*
X20853600Y-57250000D01*
X20853600Y-57250000D02*
X20890000Y-55900000D01*
X15280600Y-32110000D02*
X15280600Y-36354400D01*
X14685000Y-36950000D02*
X14310000Y-36950000D01*
X20662400Y-55366000D02*
X20662400Y-54752900D01*
X15280600Y-36354400D02*
X14685000Y-36950000D01*
X20890000Y-55900000D02*
X20662400Y-55366000D01*
D43*
X14685000Y-36950000D02*
X15187300Y-36950000D01*
%TO.N,G2_3V*%
X18179600Y-46904800D02*
X18262400Y-46987600D01*
X22911000Y-34351000D02*
X22911000Y-33620400D01*
D44*
X22860000Y-34300000D02*
X22911000Y-34351000D01*
X22860000Y-32110000D02*
X22860000Y-34300000D01*
D43*
X18262400Y-46987600D02*
X18262400Y-47877900D01*
D44*
X22911000Y-34351000D02*
X24010000Y-35450000D01*
D43*
%TO.N,G3_3V*%
X19485000Y-36850000D02*
X19297500Y-36850000D01*
X19297500Y-37851400D02*
X19297500Y-36850000D01*
X19297500Y-38852900D02*
X19297500Y-37851400D01*
D44*
X19485000Y-36850000D02*
X19297500Y-36850000D01*
X20333500Y-36001500D02*
X19485000Y-36850000D01*
D43*
X17024900Y-41125500D02*
X19297500Y-38852900D01*
X19297500Y-37851400D02*
X19661700Y-37487200D01*
X19661700Y-36850000D02*
X19485000Y-36850000D01*
X17024900Y-48715400D02*
X17024900Y-41125500D01*
X19661700Y-37487200D02*
X19661700Y-36850000D01*
D44*
X20333500Y-32110000D02*
X20333500Y-36001500D01*
D43*
%TO.N,G4_3V*%
X16016500Y-49078200D02*
X16016500Y-40293100D01*
X16453700Y-49515400D02*
X16016500Y-49078200D01*
X16016500Y-40293100D02*
X17811700Y-38497900D01*
D44*
X17807100Y-32110000D02*
X17160000Y-33700000D01*
D43*
X17024900Y-49515400D02*
X16453700Y-49515400D01*
D44*
X17185000Y-34625000D02*
X17210000Y-35550000D01*
D43*
X17811700Y-35251700D02*
X17185000Y-34625000D01*
D44*
X17160000Y-33700000D02*
X17185000Y-34625000D01*
D43*
X17811700Y-38497900D02*
X17811700Y-35251700D01*
%TO.N,G5_3V*%
X32760000Y-35830000D02*
X32590000Y-36000000D01*
X30453000Y-38784900D02*
X29072000Y-38784900D01*
X31337300Y-37900000D02*
X31244000Y-37993300D01*
X32210000Y-36000000D02*
X32535000Y-36000000D01*
X20662400Y-46979100D02*
X20662400Y-47877900D01*
X32760000Y-33145400D02*
X32760000Y-35830000D01*
X31724600Y-32110000D02*
X32760000Y-33145400D01*
X29072000Y-38784900D02*
X21475000Y-46382400D01*
X32535000Y-36000000D02*
X32760000Y-36225000D01*
X31935000Y-37900000D02*
X31337300Y-37900000D01*
X21475000Y-46382400D02*
X21259100Y-46382400D01*
X32760000Y-37075000D02*
X31935000Y-37900000D01*
X21259100Y-46382400D02*
X20662400Y-46979100D01*
X31244000Y-37993300D02*
X30453000Y-38784900D01*
X32590000Y-36000000D02*
X32210000Y-36000000D01*
X32760000Y-36225000D02*
X32760000Y-37075000D01*
D44*
%TO.N,G6_3V*%
X26772000Y-35763400D02*
X25910000Y-36100000D01*
D43*
X18262400Y-46242700D02*
X18262400Y-43721600D01*
X26772000Y-33845800D02*
X26772000Y-33845400D01*
X26772000Y-32326900D02*
X26772000Y-32272600D01*
X25081400Y-36376900D02*
X25358300Y-36100000D01*
X26772000Y-33845400D02*
X26772000Y-32977700D01*
D44*
X26772000Y-33845800D02*
X26772000Y-35763400D01*
D43*
X18662400Y-47877900D02*
X18706300Y-47834000D01*
D44*
X26772000Y-32977700D02*
X26772000Y-33845400D01*
X26772000Y-32326900D02*
X26772000Y-32543800D01*
X26772000Y-32272600D02*
X26772000Y-32326900D01*
X26772000Y-33845400D02*
X26772000Y-33845800D01*
D43*
X18706300Y-46686600D02*
X18262400Y-46242700D01*
X18706300Y-47834000D02*
X18706300Y-46686600D01*
X25358300Y-36100000D02*
X25910000Y-36100000D01*
X26772000Y-32977700D02*
X26772000Y-32543800D01*
D44*
X26772000Y-32543800D02*
X26772000Y-32977700D01*
D43*
X26772000Y-32543800D02*
X26772000Y-32326900D01*
%TO.N,G7_3V*%
X29096107Y-38336809D02*
X30476227Y-38336809D01*
X19862400Y-47877900D02*
X19862400Y-45604637D01*
X31340000Y-36650000D02*
X32210000Y-36650000D01*
X30476227Y-38336809D02*
X32163036Y-36650000D01*
X24611457Y-42821459D02*
X29096107Y-38336809D01*
X19862400Y-45604637D02*
X22645578Y-42821459D01*
X31290000Y-34088400D02*
X31290000Y-36600000D01*
X32163036Y-36650000D02*
X32210000Y-36650000D01*
X29311600Y-32110000D02*
X31290000Y-34088400D01*
X22645578Y-42821459D02*
X24611457Y-42821459D01*
X31290000Y-36600000D02*
X31340000Y-36650000D01*
D44*
%TO.N,PA_3V*%
X15176400Y-54752900D02*
X14523600Y-54100000D01*
D43*
X7381200Y-34815100D02*
X7349100Y-34783000D01*
X7701300Y-34815100D02*
X7381200Y-34815100D01*
D44*
X7701300Y-35258700D02*
X7210000Y-35750000D01*
X17862400Y-54752900D02*
X15176400Y-54752900D01*
X7701300Y-32110000D02*
X7701300Y-34815100D01*
X7701300Y-34815100D02*
X7701300Y-35258700D01*
D43*
%TO.N,PB_3V*%
X4782800Y-36652300D02*
X4782800Y-36652200D01*
D44*
X5174800Y-32110000D02*
X5174800Y-36260200D01*
X5174800Y-36260200D02*
X4782800Y-36652200D01*
X14413900Y-55790400D02*
X12823600Y-54200000D01*
X4782800Y-36652200D02*
X4385000Y-37050000D01*
X4385000Y-37050000D02*
X4010000Y-37050000D01*
X18183000Y-55790400D02*
X14413900Y-55790400D01*
X18662400Y-55311000D02*
X18183000Y-55790400D01*
D43*
X5116900Y-36986400D02*
X4782800Y-36652300D01*
D44*
X18662400Y-54752900D02*
X18662400Y-55311000D01*
%TO.N,PC_3V*%
X10227700Y-36457300D02*
X9681200Y-37003800D01*
D43*
X9884800Y-37207400D02*
X9681200Y-37003800D01*
D44*
X9635000Y-37050000D02*
X9110000Y-37050000D01*
X17024900Y-53515400D02*
X16038900Y-53515400D01*
X9681200Y-37003800D02*
X9635000Y-37050000D01*
X10227700Y-32110000D02*
X10227700Y-36457300D01*
X16038900Y-53515400D02*
X16023600Y-53500000D01*
D43*
X10716000Y-37207400D02*
X9884800Y-37207400D01*
D44*
%TO.N,PD_3V*%
X16543900Y-35908900D02*
X16676900Y-36041900D01*
D43*
X16676900Y-36424900D02*
X16676900Y-36041900D01*
X17024900Y-49915400D02*
X16367500Y-49915400D01*
D44*
X16676900Y-36041900D02*
X16835000Y-36200000D01*
D43*
X15680900Y-37420900D02*
X16676900Y-36424900D01*
D44*
X16835000Y-36200000D02*
X17210000Y-36200000D01*
D43*
X16367500Y-49915400D02*
X15680900Y-49228800D01*
D44*
X16543900Y-32110000D02*
X16543900Y-35908900D01*
D43*
X15680900Y-49228800D02*
X15680900Y-37420900D01*
D44*
%TO.N,PE_3V*%
X14885000Y-36250000D02*
X14835000Y-36300000D01*
X14885000Y-33465600D02*
X14885000Y-36250000D01*
X14017400Y-32110000D02*
X14885000Y-32977600D01*
X21190000Y-57700000D02*
X21290000Y-55800000D01*
D43*
X14885000Y-33465600D02*
X14612600Y-33193200D01*
D44*
X21062400Y-55216100D02*
X21062400Y-54752900D01*
X14885000Y-32977600D02*
X14885000Y-33465600D01*
X14835000Y-36300000D02*
X14310000Y-36300000D01*
X21290000Y-55800000D02*
X21062400Y-55216100D01*
%TO.N,PG_3V*%
X15423600Y-53800000D02*
X15388100Y-53835400D01*
X9485000Y-36400000D02*
X9685000Y-36200000D01*
D43*
X9660000Y-34300000D02*
X9685000Y-34300000D01*
D44*
X16890200Y-54050000D02*
X15673600Y-54050000D01*
X9685000Y-34300000D02*
X9685000Y-32830500D01*
X15673600Y-54050000D02*
X15423600Y-53800000D01*
X9685000Y-36200000D02*
X9685000Y-34300000D01*
X15388100Y-53835400D02*
X15352700Y-53835400D01*
X17024900Y-53915400D02*
X16890200Y-54050000D01*
X9685000Y-32830500D02*
X8964500Y-32110000D01*
X9110000Y-36400000D02*
X9485000Y-36400000D01*
D43*
%TO.N,PS1_3V*%
X16527800Y-49115400D02*
X16322200Y-48909800D01*
X16322200Y-40828800D02*
X18293000Y-38858000D01*
X18293000Y-36442000D02*
X18560000Y-36175000D01*
D44*
X18585000Y-36200000D02*
X19110000Y-36200000D01*
D43*
X16322200Y-48909800D02*
X16322200Y-40828800D01*
X17024900Y-49115400D02*
X16527800Y-49115400D01*
D44*
X19070300Y-32110000D02*
X18535000Y-32645300D01*
X18535000Y-36150000D02*
X18560000Y-36175000D01*
X18535000Y-32645300D02*
X18535000Y-36150000D01*
D43*
X18293000Y-38858000D02*
X18293000Y-36442000D01*
D44*
X18560000Y-36175000D02*
X18585000Y-36200000D01*
%TO.N,PS2_3V*%
X13763900Y-56140400D02*
X11823600Y-54200000D01*
X19062400Y-54752900D02*
X19062400Y-55406000D01*
X18327900Y-56140400D02*
X13763900Y-56140400D01*
X3911600Y-32110000D02*
X3435000Y-32586600D01*
X3560000Y-36400000D02*
X4010000Y-36400000D01*
X19062400Y-55406000D02*
X18327900Y-56140400D01*
X3435000Y-36275000D02*
X3560000Y-36400000D01*
D43*
X3292200Y-37515700D02*
X3292200Y-36667800D01*
D44*
X3435000Y-32586600D02*
X3435000Y-36275000D01*
D43*
X3292200Y-36667800D02*
X3560000Y-36400000D01*
D44*
%TO.N,PS3_3V*%
X6438100Y-36153100D02*
X6438100Y-32110000D01*
D43*
X5387900Y-37697100D02*
X5387900Y-42422200D01*
D44*
X7210000Y-36400000D02*
X6685000Y-36400000D01*
X18262400Y-54752900D02*
X18262400Y-55216100D01*
X14963900Y-55440400D02*
X13623600Y-54100000D01*
X6685000Y-36400000D02*
X6438100Y-36153100D01*
X18038000Y-55440400D02*
X14963900Y-55440400D01*
X18262400Y-55216100D02*
X18038000Y-55440400D01*
D43*
X6685000Y-36400000D02*
X5387900Y-37697100D01*
X5387900Y-42422200D02*
X5696500Y-42730800D01*
D44*
%TO.N,PDP_3V*%
X24010000Y-36100000D02*
X23485000Y-36100000D01*
X23485000Y-36100000D02*
X21596800Y-34211800D01*
D43*
X17652900Y-41932100D02*
X17652900Y-47668400D01*
X23485000Y-36100000D02*
X17652900Y-41932100D01*
X17652900Y-47668400D02*
X17862400Y-47877900D01*
D44*
X21596800Y-34211800D02*
X21596800Y-32110000D01*
D43*
%TO.N,/GPIO26_ADC0*%
X49790000Y-58350000D02*
X50890000Y-57250000D01*
X21462400Y-55347407D02*
X24464993Y-58350000D01*
X21462400Y-54752900D02*
X21462400Y-55347407D01*
X24464993Y-58350000D02*
X49790000Y-58350000D01*
%TO.N,/GPIO29_ADC3*%
X22662400Y-54752900D02*
X22662400Y-55180694D01*
X24566406Y-57084700D02*
X40392000Y-57084700D01*
X22662400Y-55180694D02*
X24566406Y-57084700D01*
%TO.N,/GPIO28_ADC2*%
X41190000Y-57029100D02*
X41190000Y-56850000D01*
X24667142Y-57609700D02*
X40609000Y-57609700D01*
X41190000Y-56850000D02*
X41280000Y-56939500D01*
X22262400Y-54752900D02*
X22262400Y-55204958D01*
X40609000Y-57609700D02*
X41190000Y-57029100D01*
X22262400Y-55204958D02*
X24667142Y-57609700D01*
D44*
%TO.N,Net-(C9-Pad1)*%
X7346400Y-50680400D02*
X8679900Y-49346900D01*
X11462400Y-50117900D02*
X11462400Y-50167200D01*
D43*
X12837400Y-50015400D02*
X12262400Y-50015400D01*
D44*
X8679900Y-49346900D02*
X10691400Y-49346900D01*
D43*
X11962400Y-50315400D02*
X11467400Y-50315400D01*
X12262400Y-50015400D02*
X11962400Y-50315400D01*
D44*
X10691400Y-49346900D02*
X11462400Y-50117900D01*
X7346400Y-53656400D02*
X7346400Y-50680400D01*
D49*
%TO.N,/VBUS*%
X29890000Y-36000000D02*
X29040000Y-36850000D01*
X65016100Y-54800000D02*
X64240000Y-54800000D01*
X30310000Y-36000000D02*
X29890000Y-36000000D01*
X66553600Y-53737500D02*
X66078600Y-53737500D01*
X30310000Y-35350000D02*
X30310000Y-36000000D01*
X66078600Y-53737500D02*
X65016100Y-54800000D01*
D44*
%TO.N,Net-(U3-USB_DP)*%
X23899900Y-52315400D02*
X26437000Y-52315400D01*
%TO.N,Net-(U3-USB_DM)*%
X25162400Y-52715400D02*
X25762400Y-53315400D01*
X23899900Y-52715400D02*
X25162400Y-52715400D01*
X25762400Y-53315400D02*
X26437000Y-53315400D01*
%TO.N,PF_3V*%
X11491000Y-35906000D02*
X11491000Y-32110000D01*
D43*
X12410000Y-36300000D02*
X12961700Y-36300000D01*
D44*
X11885000Y-36300000D02*
X11491000Y-35906000D01*
X19953600Y-56450000D02*
X19862400Y-55838800D01*
X19862400Y-55838800D02*
X19862400Y-54752900D01*
D43*
X12961700Y-36300000D02*
X12961700Y-36908600D01*
X12961700Y-36908600D02*
X13598600Y-37545500D01*
D44*
X12410000Y-36300000D02*
X11885000Y-36300000D01*
%TD*%
%TA.AperFunction,Conductor*%
%TO.N,+1V1*%
G36*
X22640700Y-49137074D02*
G01*
X22662374Y-49189400D01*
X22662374Y-51915400D01*
X22788374Y-51915400D01*
X22840700Y-51937074D01*
X22862374Y-51989400D01*
X22862374Y-52315400D01*
X23188374Y-52315400D01*
X23240700Y-52337074D01*
X23262374Y-52389400D01*
X23262374Y-53194825D01*
X23240700Y-53247151D01*
X23216694Y-53263191D01*
X23184488Y-53276532D01*
X23184487Y-53276533D01*
X23142980Y-53293726D01*
X23113770Y-53305825D01*
X23113473Y-53305110D01*
X23079551Y-53315400D01*
X22336374Y-53315400D01*
X22284048Y-53293726D01*
X22262374Y-53241400D01*
X22262374Y-49715400D01*
X22221536Y-49715400D01*
X22169210Y-49693726D01*
X22165570Y-49690086D01*
X22165570Y-49690085D01*
X22087715Y-49612230D01*
X21986994Y-49567757D01*
X21986990Y-49567756D01*
X21962368Y-49564900D01*
X18962432Y-49564900D01*
X18937809Y-49567756D01*
X18937805Y-49567757D01*
X18837084Y-49612230D01*
X18759230Y-49690084D01*
X18714757Y-49790805D01*
X18714756Y-49790809D01*
X18711900Y-49815432D01*
X18711900Y-52241400D01*
X18690226Y-52293726D01*
X18637900Y-52315400D01*
X18136374Y-52315400D01*
X18084048Y-52293726D01*
X18062374Y-52241400D01*
X18062374Y-51589400D01*
X18084048Y-51537074D01*
X18136374Y-51515400D01*
X18262374Y-51515400D01*
X18262374Y-50727833D01*
X18280446Y-50679376D01*
X18327682Y-50624863D01*
X18381497Y-50507026D01*
X18399933Y-50378800D01*
X18381497Y-50250574D01*
X18327682Y-50132737D01*
X18327680Y-50132735D01*
X18327680Y-50132734D01*
X18280448Y-50078224D01*
X18262374Y-50029765D01*
X18262374Y-49189400D01*
X18284048Y-49137074D01*
X18336374Y-49115400D01*
X22588374Y-49115400D01*
X22640700Y-49137074D01*
G37*
%TD.AperFunction*%
%TD*%
%TA.AperFunction,Conductor*%
%TO.N,+3V3*%
G36*
X23262374Y-51315400D02*
G01*
X23262374Y-52115400D01*
X23262374Y-52176707D01*
X23259103Y-52176385D01*
X23247885Y-52171738D01*
X23247875Y-52171735D01*
X23208028Y-52163809D01*
X23188374Y-52159900D01*
X23188372Y-52159900D01*
X23091874Y-52159900D01*
X23039548Y-52138226D01*
X23017874Y-52085900D01*
X23017874Y-51989401D01*
X23017028Y-51985148D01*
X23006037Y-51929893D01*
X23006035Y-51929889D01*
X23005770Y-51928555D01*
X23003718Y-51919318D01*
X22999097Y-51887177D01*
X22999097Y-51887174D01*
X22945282Y-51769337D01*
X22860449Y-51671433D01*
X22851862Y-51665914D01*
X22819564Y-51619390D01*
X22817874Y-51603664D01*
X22817874Y-49189401D01*
X22806038Y-49129898D01*
X22806037Y-49129897D01*
X22806037Y-49129893D01*
X22784363Y-49077567D01*
X22784357Y-49077556D01*
X22764068Y-49042413D01*
X22764066Y-49042411D01*
X22700209Y-48993412D01*
X22700205Y-48993410D01*
X22647885Y-48971738D01*
X22647875Y-48971735D01*
X22608028Y-48963809D01*
X22588374Y-48959900D01*
X18336374Y-48959900D01*
X18319505Y-48963255D01*
X18276872Y-48971735D01*
X18276862Y-48971738D01*
X18224547Y-48993408D01*
X18224530Y-48993416D01*
X18189387Y-49013705D01*
X18189385Y-49013707D01*
X18140386Y-49077564D01*
X18140384Y-49077568D01*
X18118712Y-49129888D01*
X18118709Y-49129898D01*
X18106874Y-49189401D01*
X18106874Y-50029759D01*
X18106875Y-50029775D01*
X18116676Y-50084099D01*
X18116677Y-50084102D01*
X18116678Y-50084106D01*
X18126318Y-50109952D01*
X18134751Y-50132563D01*
X18162927Y-50180053D01*
X18162928Y-50180054D01*
X18188552Y-50209625D01*
X18199940Y-50227344D01*
X18226341Y-50285154D01*
X18232275Y-50305364D01*
X18241319Y-50368268D01*
X18241319Y-50389330D01*
X18232275Y-50452233D01*
X18226341Y-50472443D01*
X18199941Y-50530250D01*
X18188555Y-50547967D01*
X18162925Y-50577547D01*
X18134749Y-50625037D01*
X18116675Y-50673496D01*
X18106874Y-50727831D01*
X18106874Y-51309862D01*
X18085200Y-51362188D01*
X18061194Y-51378228D01*
X18024541Y-51393411D01*
X18024538Y-51393412D01*
X18024537Y-51393413D01*
X18024530Y-51393416D01*
X17989387Y-51413705D01*
X17989385Y-51413707D01*
X17940386Y-51477564D01*
X17940384Y-51477568D01*
X17918712Y-51529888D01*
X17918709Y-51529898D01*
X17906874Y-51589401D01*
X17906874Y-52241398D01*
X17918709Y-52300901D01*
X17918712Y-52300911D01*
X17940382Y-52353226D01*
X17940390Y-52353243D01*
X17960679Y-52388386D01*
X17960681Y-52388388D01*
X17960682Y-52388389D01*
X18024541Y-52437389D01*
X18076867Y-52459063D01*
X18136374Y-52470900D01*
X18136376Y-52470900D01*
X18637900Y-52470900D01*
X18690226Y-52492574D01*
X18711900Y-52544900D01*
X18711900Y-52815367D01*
X18714756Y-52839990D01*
X18714757Y-52839994D01*
X18759230Y-52940715D01*
X18837085Y-53018570D01*
X18937806Y-53063043D01*
X18962432Y-53065900D01*
X21962368Y-53065900D01*
X21986994Y-53063043D01*
X22002983Y-53055982D01*
X22059604Y-53054673D01*
X22100568Y-53093785D01*
X22106874Y-53123677D01*
X22106874Y-53241398D01*
X22118709Y-53300901D01*
X22118712Y-53300911D01*
X22140382Y-53353226D01*
X22140390Y-53353243D01*
X22160679Y-53388386D01*
X22160681Y-53388388D01*
X22160682Y-53388389D01*
X22224541Y-53437389D01*
X22276867Y-53459063D01*
X22336374Y-53470900D01*
X22336376Y-53470900D01*
X23079550Y-53470900D01*
X23079551Y-53470900D01*
X23124690Y-53464204D01*
X23158612Y-53453914D01*
X23158611Y-53453913D01*
X23171439Y-53450022D01*
X23173789Y-53449351D01*
X23175260Y-53448957D01*
X23176981Y-53448341D01*
X23180390Y-53447307D01*
X23181941Y-53445899D01*
X23202487Y-53437390D01*
X23202488Y-53437389D01*
X23202493Y-53437387D01*
X23209222Y-53434600D01*
X23209222Y-53434599D01*
X23243995Y-53420196D01*
X23243998Y-53420194D01*
X23262374Y-53412581D01*
X23262374Y-54115400D01*
X17662374Y-54115400D01*
X17662374Y-48515400D01*
X23262374Y-48515400D01*
X23262374Y-51315400D01*
G37*
%TD.AperFunction*%
%TD*%
%TA.AperFunction,Conductor*%
%TO.N,GND*%
G36*
X5004521Y-40925402D02*
G01*
X5051014Y-40979058D01*
X5062400Y-41031400D01*
X5062400Y-42379347D01*
X5062400Y-42465053D01*
X5084582Y-42547839D01*
X5084583Y-42547841D01*
X5084584Y-42547843D01*
X5128956Y-42624697D01*
X5145694Y-42693693D01*
X5144759Y-42704142D01*
X5141250Y-42730798D01*
X5141250Y-42730800D01*
X5160170Y-42874509D01*
X5215637Y-43008424D01*
X5303878Y-43123421D01*
X5418875Y-43211662D01*
X5502995Y-43246504D01*
X5552791Y-43267130D01*
X5696500Y-43286050D01*
X5840209Y-43267130D01*
X5871684Y-43254092D01*
X5942272Y-43246504D01*
X6005759Y-43278283D01*
X6041986Y-43339341D01*
X6045900Y-43370502D01*
X6045900Y-47481077D01*
X6060433Y-47554139D01*
X6060434Y-47554140D01*
X6115799Y-47637001D01*
X6198660Y-47692366D01*
X6271726Y-47706900D01*
X6911943Y-47706900D01*
X6980064Y-47726902D01*
X7021062Y-47769899D01*
X7026837Y-47779901D01*
X7065930Y-47847612D01*
X7065932Y-47847614D01*
X7065935Y-47847618D01*
X8285622Y-49067305D01*
X8319648Y-49129617D01*
X8314583Y-49200432D01*
X8285622Y-49245495D01*
X7065935Y-50465181D01*
X7065929Y-50465189D01*
X7021062Y-50542901D01*
X6969679Y-50591894D01*
X6911943Y-50605900D01*
X6271722Y-50605900D01*
X6198660Y-50620433D01*
X6115799Y-50675799D01*
X6060433Y-50758660D01*
X6045900Y-50831722D01*
X6045900Y-56481077D01*
X6060433Y-56554139D01*
X6060434Y-56554140D01*
X6115799Y-56637001D01*
X6198660Y-56692366D01*
X6271726Y-56706900D01*
X8421074Y-56706900D01*
X8494140Y-56692366D01*
X8577001Y-56637001D01*
X8632366Y-56554140D01*
X8646900Y-56481074D01*
X8646900Y-51530400D01*
X10657895Y-51530400D01*
X10700369Y-51676597D01*
X10782680Y-51815777D01*
X10782683Y-51815781D01*
X10897018Y-51930116D01*
X10897022Y-51930119D01*
X11036202Y-52012430D01*
X11191483Y-52057544D01*
X11212399Y-52059190D01*
X11212400Y-52059190D01*
X11212400Y-51530400D01*
X10657895Y-51530400D01*
X8646900Y-51530400D01*
X8646900Y-50831726D01*
X8632366Y-50758660D01*
X8577001Y-50675799D01*
X8494140Y-50620434D01*
X8494139Y-50620433D01*
X8421077Y-50605900D01*
X8421074Y-50605900D01*
X8220772Y-50605900D01*
X8152651Y-50585898D01*
X8106158Y-50532242D01*
X8096054Y-50461968D01*
X8125548Y-50397388D01*
X8131677Y-50390805D01*
X8788177Y-49734305D01*
X8850489Y-49700279D01*
X8877272Y-49697400D01*
X10494028Y-49697400D01*
X10562149Y-49717402D01*
X10583123Y-49734305D01*
X10869708Y-50020890D01*
X10903734Y-50083202D01*
X10905063Y-50129689D01*
X10901900Y-50149666D01*
X10901900Y-50491133D01*
X10910270Y-50543982D01*
X10901169Y-50614393D01*
X10874917Y-50652785D01*
X10782680Y-50745022D01*
X10700369Y-50884202D01*
X10657894Y-51030399D01*
X10657895Y-51030400D01*
X11586400Y-51030400D01*
X11654521Y-51050402D01*
X11701014Y-51104058D01*
X11712400Y-51156400D01*
X11712400Y-52059189D01*
X11726492Y-52058081D01*
X11795972Y-52072679D01*
X11846530Y-52122523D01*
X11862374Y-52183693D01*
X11862374Y-53529146D01*
X11842372Y-53597267D01*
X11788716Y-53643760D01*
X11752821Y-53654068D01*
X11679890Y-53663670D01*
X11545975Y-53719137D01*
X11430978Y-53807378D01*
X11342737Y-53922375D01*
X11287270Y-54056290D01*
X11268350Y-54199999D01*
X11268350Y-54200000D01*
X11287270Y-54343709D01*
X11342737Y-54477624D01*
X11430978Y-54592621D01*
X11545975Y-54680862D01*
X11630421Y-54715839D01*
X11679891Y-54736330D01*
X11752821Y-54745931D01*
X11817747Y-54774653D01*
X11856839Y-54833918D01*
X11862374Y-54870853D01*
X11862374Y-57179400D01*
X11842372Y-57247521D01*
X11788716Y-57294014D01*
X11736374Y-57305400D01*
X4588374Y-57305400D01*
X4520253Y-57285398D01*
X4473760Y-57231742D01*
X4462374Y-57179400D01*
X4462374Y-41031400D01*
X4482376Y-40963279D01*
X4536032Y-40916786D01*
X4588374Y-40905400D01*
X4936400Y-40905400D01*
X5004521Y-40925402D01*
G37*
%TD.AperFunction*%
%TA.AperFunction,Conductor*%
G36*
X13391432Y-50430713D02*
G01*
X13436495Y-50459674D01*
X13495296Y-50518475D01*
X13495298Y-50518476D01*
X13610882Y-50574982D01*
X13685818Y-50585900D01*
X13685824Y-50585900D01*
X14028976Y-50585900D01*
X14028982Y-50585900D01*
X14103918Y-50574982D01*
X14103920Y-50574981D01*
X14172460Y-50541474D01*
X14242444Y-50529525D01*
X14307778Y-50557309D01*
X14316894Y-50565576D01*
X14672123Y-50920805D01*
X14706149Y-50983117D01*
X14701084Y-51053932D01*
X14658537Y-51110768D01*
X14592017Y-51135579D01*
X14583028Y-51135900D01*
X14286667Y-51135900D01*
X14195226Y-51150382D01*
X14085008Y-51206541D01*
X14059808Y-51231742D01*
X14023053Y-51268496D01*
X13960744Y-51302520D01*
X13933960Y-51305400D01*
X12398399Y-51305400D01*
X12330278Y-51285398D01*
X12283785Y-51231742D01*
X12272399Y-51179400D01*
X12272399Y-51075764D01*
X12269545Y-51039488D01*
X12224430Y-50884202D01*
X12138084Y-50738199D01*
X12140342Y-50736863D01*
X12119064Y-50682648D01*
X12132974Y-50613028D01*
X12158010Y-50583293D01*
X12156422Y-50581705D01*
X12205885Y-50532242D01*
X12258379Y-50479747D01*
X12320690Y-50445723D01*
X12391506Y-50450787D01*
X12436569Y-50479748D01*
X12475296Y-50518475D01*
X12475298Y-50518476D01*
X12590882Y-50574982D01*
X12665818Y-50585900D01*
X12665824Y-50585900D01*
X13008976Y-50585900D01*
X13008982Y-50585900D01*
X13083918Y-50574982D01*
X13199502Y-50518476D01*
X13226845Y-50491133D01*
X13258305Y-50459674D01*
X13320617Y-50425648D01*
X13391432Y-50430713D01*
G37*
%TD.AperFunction*%
%TA.AperFunction,Conductor*%
G36*
X13704495Y-40925402D02*
G01*
X13750988Y-40979058D01*
X13762374Y-41031400D01*
X13762374Y-48005401D01*
X15825469Y-50068495D01*
X15859494Y-50130807D01*
X15862374Y-50157590D01*
X15862374Y-50238900D01*
X15842372Y-50307021D01*
X15788716Y-50353514D01*
X15736374Y-50364900D01*
X15721972Y-50364900D01*
X15653851Y-50344898D01*
X15632877Y-50327995D01*
X14139818Y-48834935D01*
X14139808Y-48834927D01*
X14059892Y-48788787D01*
X14049359Y-48785964D01*
X13970744Y-48764900D01*
X13970742Y-48764900D01*
X12459772Y-48764900D01*
X12391651Y-48744898D01*
X12370677Y-48727995D01*
X12059804Y-48417122D01*
X12025778Y-48354810D01*
X12022899Y-48328027D01*
X12022899Y-48139667D01*
X12014529Y-48086818D01*
X12023629Y-48016407D01*
X12049883Y-47978013D01*
X12142119Y-47885777D01*
X12224430Y-47746597D01*
X12266905Y-47600400D01*
X10657895Y-47600400D01*
X10700369Y-47746597D01*
X10782680Y-47885777D01*
X10782683Y-47885781D01*
X10874916Y-47978014D01*
X10908942Y-48040326D01*
X10910270Y-48086819D01*
X10901900Y-48139666D01*
X10901900Y-48328026D01*
X10881898Y-48396147D01*
X10864996Y-48417121D01*
X10703623Y-48578495D01*
X10641311Y-48612520D01*
X10614527Y-48615400D01*
X8877272Y-48615400D01*
X8809151Y-48595398D01*
X8788177Y-48578495D01*
X8131677Y-47921995D01*
X8097651Y-47859683D01*
X8102716Y-47788868D01*
X8145263Y-47732032D01*
X8211783Y-47707221D01*
X8220772Y-47706900D01*
X8421074Y-47706900D01*
X8494140Y-47692366D01*
X8577001Y-47637001D01*
X8632366Y-47554140D01*
X8646900Y-47481074D01*
X8646900Y-47100399D01*
X10657894Y-47100399D01*
X10657895Y-47100400D01*
X11212400Y-47100400D01*
X11712400Y-47100400D01*
X12266905Y-47100400D01*
X12266905Y-47100399D01*
X12224430Y-46954202D01*
X12142119Y-46815022D01*
X12142116Y-46815018D01*
X12027781Y-46700683D01*
X12027777Y-46700680D01*
X11888597Y-46618369D01*
X11733312Y-46573254D01*
X11712400Y-46571608D01*
X11712400Y-47100400D01*
X11212400Y-47100400D01*
X11212400Y-46571609D01*
X11212399Y-46571608D01*
X11191488Y-46573254D01*
X11191487Y-46573254D01*
X11036202Y-46618369D01*
X10897022Y-46700680D01*
X10897018Y-46700683D01*
X10782683Y-46815018D01*
X10782680Y-46815022D01*
X10700369Y-46954202D01*
X10657894Y-47100399D01*
X8646900Y-47100399D01*
X8646900Y-41831726D01*
X8632366Y-41758660D01*
X8577001Y-41675799D01*
X8494140Y-41620434D01*
X8494139Y-41620433D01*
X8421077Y-41605900D01*
X8421074Y-41605900D01*
X6271726Y-41605900D01*
X6271722Y-41605900D01*
X6198660Y-41620433D01*
X6115799Y-41675799D01*
X6060433Y-41758660D01*
X6045900Y-41831722D01*
X6045900Y-42091097D01*
X6025898Y-42159218D01*
X5972242Y-42205711D01*
X5901968Y-42215815D01*
X5871684Y-42207507D01*
X5840207Y-42194469D01*
X5840202Y-42194468D01*
X5822948Y-42192196D01*
X5758022Y-42163471D01*
X5718933Y-42104204D01*
X5713400Y-42067275D01*
X5713400Y-41031400D01*
X5733402Y-40963279D01*
X5787058Y-40916786D01*
X5839400Y-40905400D01*
X13636374Y-40905400D01*
X13704495Y-40925402D01*
G37*
%TD.AperFunction*%
%TD*%
%TA.AperFunction,Conductor*%
%TO.N,+3V3*%
G36*
X70438637Y-33374568D02*
G01*
X70474634Y-33424044D01*
X70479500Y-33454700D01*
X70479500Y-59384100D01*
X70460593Y-59442291D01*
X70411093Y-59478255D01*
X70380500Y-59483100D01*
X399500Y-59483100D01*
X341309Y-59464193D01*
X305345Y-59414693D01*
X300500Y-59384100D01*
X300500Y-37200000D01*
X1487934Y-37200000D01*
X1499833Y-37275142D01*
X1499834Y-37275145D01*
X1557359Y-37388044D01*
X1646956Y-37477641D01*
X1759848Y-37535163D01*
X1759852Y-37535164D01*
X1853515Y-37549999D01*
X1960000Y-37549999D01*
X1960000Y-37200001D01*
X1959999Y-37200000D01*
X1487934Y-37200000D01*
X300500Y-37200000D01*
X300500Y-36900000D01*
X1487933Y-36900000D01*
X2732065Y-36900000D01*
X2732066Y-36899999D01*
X2720166Y-36824857D01*
X2720165Y-36824854D01*
X2662640Y-36711955D01*
X2646260Y-36695575D01*
X2618483Y-36641058D01*
X2625701Y-36585582D01*
X2632585Y-36569991D01*
X2635500Y-36544865D01*
X2635499Y-36255136D01*
X2632585Y-36230009D01*
X2587206Y-36127235D01*
X2587205Y-36127234D01*
X2583500Y-36118843D01*
X2585875Y-36117794D01*
X2572462Y-36072261D01*
X2585526Y-36032051D01*
X2583500Y-36031157D01*
X2587204Y-36022766D01*
X2587206Y-36022765D01*
X2632585Y-35919991D01*
X2635500Y-35894865D01*
X2635499Y-35605136D01*
X2632585Y-35580009D01*
X2587206Y-35477235D01*
X2507765Y-35397794D01*
X2404991Y-35352415D01*
X2404990Y-35352414D01*
X2404988Y-35352414D01*
X2379868Y-35349500D01*
X1840139Y-35349500D01*
X1840136Y-35349501D01*
X1815009Y-35352414D01*
X1712235Y-35397794D01*
X1632794Y-35477235D01*
X1587414Y-35580011D01*
X1584500Y-35605130D01*
X1584500Y-35894859D01*
X1584501Y-35894864D01*
X1587414Y-35919990D01*
X1605196Y-35960262D01*
X1632451Y-36021989D01*
X1636500Y-36031157D01*
X1634126Y-36032205D01*
X1647537Y-36077757D01*
X1634477Y-36117949D01*
X1636500Y-36118843D01*
X1632794Y-36127234D01*
X1632794Y-36127235D01*
X1613823Y-36170200D01*
X1587414Y-36230011D01*
X1584500Y-36255130D01*
X1584500Y-36544859D01*
X1584501Y-36544864D01*
X1587414Y-36569990D01*
X1587415Y-36569992D01*
X1594299Y-36585582D01*
X1600508Y-36646452D01*
X1573740Y-36695573D01*
X1557361Y-36711952D01*
X1557359Y-36711955D01*
X1499836Y-36824848D01*
X1499835Y-36824852D01*
X1487933Y-36900000D01*
X300500Y-36900000D01*
X300500Y-33501903D01*
X319407Y-33443712D01*
X368907Y-33407748D01*
X399429Y-33402903D01*
X3035437Y-33401125D01*
X3093637Y-33419992D01*
X3129634Y-33469468D01*
X3134500Y-33500124D01*
X3134500Y-36314562D01*
X3140675Y-36337607D01*
X3145345Y-36355035D01*
X3142143Y-36416136D01*
X3119723Y-36450661D01*
X3085874Y-36484511D01*
X3058643Y-36511742D01*
X3023975Y-36595436D01*
X3016700Y-36613000D01*
X3016700Y-37043749D01*
X2997793Y-37101940D01*
X2971224Y-37127033D01*
X2961069Y-37133558D01*
X2892525Y-37212664D01*
X2840129Y-37244260D01*
X2779168Y-37239024D01*
X2742426Y-37212128D01*
X2732068Y-37200000D01*
X2260001Y-37200000D01*
X2260000Y-37200001D01*
X2260000Y-37549998D01*
X2260001Y-37549999D01*
X2366483Y-37549999D01*
X2366485Y-37549998D01*
X2460141Y-37535166D01*
X2460151Y-37535163D01*
X2573044Y-37477640D01*
X2573046Y-37477639D01*
X2618469Y-37432216D01*
X2672985Y-37404438D01*
X2733417Y-37414009D01*
X2776682Y-37457273D01*
X2785192Y-37508619D01*
X2786553Y-37508619D01*
X2786553Y-37515702D01*
X2807034Y-37658156D01*
X2829752Y-37707900D01*
X2866823Y-37789073D01*
X2961072Y-37897843D01*
X2961073Y-37897844D01*
X3039633Y-37948331D01*
X3082147Y-37975653D01*
X3183638Y-38005453D01*
X3220235Y-38016199D01*
X3220236Y-38016199D01*
X3220239Y-38016200D01*
X3220241Y-38016200D01*
X3364159Y-38016200D01*
X3364161Y-38016200D01*
X3502253Y-37975653D01*
X3623328Y-37897843D01*
X3717577Y-37789073D01*
X3777365Y-37658157D01*
X3782204Y-37624500D01*
X3795014Y-37535410D01*
X3822010Y-37480502D01*
X3876124Y-37451949D01*
X3893006Y-37450499D01*
X4279861Y-37450499D01*
X4279864Y-37450499D01*
X4304991Y-37447585D01*
X4407765Y-37402206D01*
X4453492Y-37356478D01*
X4495000Y-37332514D01*
X4494996Y-37332503D01*
X4495086Y-37332465D01*
X4497876Y-37330855D01*
X4500989Y-37330021D01*
X4569511Y-37290460D01*
X4573935Y-37286035D01*
X4628448Y-37258257D01*
X4688880Y-37267825D01*
X4718759Y-37291206D01*
X4785770Y-37368542D01*
X4785772Y-37368543D01*
X4904047Y-37444554D01*
X4906847Y-37446353D01*
X5044939Y-37486900D01*
X5051733Y-37488895D01*
X5051233Y-37490596D01*
X5098114Y-37513641D01*
X5126673Y-37567752D01*
X5120589Y-37622529D01*
X5112400Y-37642299D01*
X5112400Y-40560952D01*
X5093493Y-40619143D01*
X5043993Y-40655107D01*
X4999311Y-40658944D01*
X4936406Y-40649900D01*
X4936400Y-40649900D01*
X4588374Y-40649900D01*
X4552168Y-40653792D01*
X4534063Y-40655739D01*
X4534062Y-40655739D01*
X4481735Y-40667122D01*
X4481729Y-40667123D01*
X4481723Y-40667125D01*
X4455346Y-40674361D01*
X4368715Y-40723692D01*
X4365522Y-40726459D01*
X4315052Y-40770191D01*
X4283434Y-40802959D01*
X4283431Y-40802963D01*
X4237226Y-40891294D01*
X4237222Y-40891302D01*
X4217225Y-40959410D01*
X4217221Y-40959426D01*
X4206874Y-41031394D01*
X4206874Y-41031400D01*
X4206874Y-57179400D01*
X4212713Y-57233709D01*
X4224099Y-57286051D01*
X4231335Y-57312428D01*
X4280666Y-57399059D01*
X4327159Y-57452715D01*
X4359935Y-57484341D01*
X4448271Y-57530549D01*
X4448273Y-57530549D01*
X4448276Y-57530551D01*
X4478900Y-57539542D01*
X4516392Y-57550551D01*
X4528836Y-57552340D01*
X4588369Y-57560900D01*
X4588374Y-57560900D01*
X11736370Y-57560900D01*
X11736374Y-57560900D01*
X11790683Y-57555061D01*
X11843025Y-57543675D01*
X11869402Y-57536439D01*
X11956033Y-57487108D01*
X12009689Y-57440615D01*
X12041315Y-57407839D01*
X12047666Y-57395697D01*
X16131753Y-57395697D01*
X16131753Y-57395702D01*
X16152234Y-57538156D01*
X16212022Y-57669071D01*
X16212023Y-57669073D01*
X16297619Y-57767857D01*
X16306273Y-57777844D01*
X16427342Y-57855650D01*
X16427347Y-57855653D01*
X16498779Y-57876627D01*
X16565435Y-57896199D01*
X16565436Y-57896199D01*
X16565439Y-57896200D01*
X16565441Y-57896200D01*
X16709359Y-57896200D01*
X16709361Y-57896200D01*
X16847453Y-57855653D01*
X16968528Y-57777843D01*
X17062777Y-57669073D01*
X17122565Y-57538157D01*
X17130302Y-57484342D01*
X17143047Y-57395702D01*
X17143047Y-57395697D01*
X17122565Y-57253243D01*
X17104128Y-57212873D01*
X17062777Y-57122327D01*
X16968528Y-57013557D01*
X16968527Y-57013556D01*
X16968526Y-57013555D01*
X16847457Y-56935749D01*
X16847454Y-56935747D01*
X16847453Y-56935747D01*
X16847450Y-56935746D01*
X16709364Y-56895200D01*
X16709361Y-56895200D01*
X16565439Y-56895200D01*
X16565435Y-56895200D01*
X16427349Y-56935746D01*
X16427342Y-56935749D01*
X16306273Y-57013555D01*
X16212022Y-57122328D01*
X16152234Y-57253243D01*
X16131753Y-57395697D01*
X12047666Y-57395697D01*
X12087523Y-57319503D01*
X12088007Y-57317857D01*
X12102938Y-57267003D01*
X12107525Y-57251382D01*
X12110906Y-57227863D01*
X12117874Y-57179405D01*
X12117874Y-55158286D01*
X12136781Y-55100095D01*
X12186281Y-55064131D01*
X12247467Y-55064131D01*
X12286877Y-55088282D01*
X13519145Y-56320614D01*
X13519158Y-56320629D01*
X13559809Y-56361281D01*
X13559812Y-56361283D01*
X13579491Y-56380963D01*
X13579744Y-56381151D01*
X13581935Y-56382330D01*
X13611675Y-56399500D01*
X13611678Y-56399502D01*
X13642770Y-56417454D01*
X13645703Y-56419391D01*
X13647370Y-56420276D01*
X13647910Y-56420420D01*
X13647911Y-56420421D01*
X13685787Y-56430570D01*
X13685790Y-56430572D01*
X13685791Y-56430571D01*
X13691649Y-56432141D01*
X13724334Y-56440900D01*
X13763892Y-56440900D01*
X13803454Y-56440901D01*
X13803458Y-56440900D01*
X18314601Y-56440900D01*
X18372792Y-56459807D01*
X18408756Y-56509307D01*
X18413601Y-56539900D01*
X18413601Y-56593003D01*
X18416386Y-56622721D01*
X18416387Y-56622726D01*
X18460194Y-56747920D01*
X18538958Y-56854639D01*
X18538963Y-56854644D01*
X18560584Y-56870601D01*
X18596177Y-56920368D01*
X18595719Y-56981552D01*
X18575316Y-57014569D01*
X18575344Y-57014589D01*
X18575012Y-57015061D01*
X18571804Y-57020255D01*
X18570377Y-57021681D01*
X18570374Y-57021686D01*
X18519629Y-57130510D01*
X18519628Y-57130511D01*
X18516359Y-57155345D01*
X18513184Y-57179465D01*
X18513100Y-57180100D01*
X18513100Y-57539895D01*
X18513101Y-57539907D01*
X18519627Y-57589486D01*
X18519627Y-57589488D01*
X18570374Y-57698313D01*
X18570375Y-57698314D01*
X18570376Y-57698316D01*
X18626111Y-57754051D01*
X18653887Y-57808566D01*
X18644316Y-57868998D01*
X18630927Y-57888882D01*
X18598223Y-57926626D01*
X18538434Y-58057543D01*
X18517953Y-58199997D01*
X18517953Y-58200002D01*
X18538434Y-58342456D01*
X18590926Y-58457396D01*
X18598223Y-58473373D01*
X18649148Y-58532144D01*
X18692473Y-58582144D01*
X18813542Y-58659950D01*
X18813547Y-58659953D01*
X18920003Y-58691211D01*
X18951635Y-58700499D01*
X18951636Y-58700499D01*
X18951639Y-58700500D01*
X18951641Y-58700500D01*
X19095559Y-58700500D01*
X19095561Y-58700500D01*
X19233653Y-58659953D01*
X19354728Y-58582143D01*
X19435444Y-58488990D01*
X19487838Y-58457396D01*
X19548799Y-58462631D01*
X19585081Y-58488992D01*
X19622470Y-58532141D01*
X19622472Y-58532143D01*
X19702467Y-58583553D01*
X19743547Y-58609953D01*
X19850003Y-58641211D01*
X19881635Y-58650499D01*
X19881636Y-58650499D01*
X19881639Y-58650500D01*
X19881641Y-58650500D01*
X20025559Y-58650500D01*
X20025561Y-58650500D01*
X20163653Y-58609953D01*
X20284728Y-58532143D01*
X20378977Y-58423373D01*
X20438765Y-58292457D01*
X20451986Y-58200500D01*
X20459247Y-58150002D01*
X20459247Y-58150000D01*
X20456158Y-58128518D01*
X20466590Y-58068228D01*
X20484143Y-58044426D01*
X20598143Y-57930426D01*
X20652658Y-57902651D01*
X20713090Y-57912222D01*
X20756355Y-57955487D01*
X20758198Y-57959305D01*
X20764621Y-57973371D01*
X20764623Y-57973373D01*
X20835866Y-58055593D01*
X20858873Y-58082144D01*
X20964463Y-58150002D01*
X20979947Y-58159953D01*
X21086403Y-58191211D01*
X21118035Y-58200499D01*
X21118036Y-58200499D01*
X21118039Y-58200500D01*
X21118041Y-58200500D01*
X21261959Y-58200500D01*
X21261961Y-58200500D01*
X21400053Y-58159953D01*
X21521128Y-58082143D01*
X21615377Y-57973373D01*
X21675165Y-57842457D01*
X21695647Y-57700000D01*
X21695404Y-57698313D01*
X21675165Y-57557543D01*
X21671970Y-57550548D01*
X21615377Y-57426627D01*
X21537746Y-57337036D01*
X21513930Y-57280677D01*
X21513704Y-57267003D01*
X21519581Y-57155345D01*
X21575954Y-56084243D01*
X21597893Y-56027128D01*
X21649215Y-55993816D01*
X21710316Y-55997031D01*
X21744821Y-56019444D01*
X24308935Y-58583558D01*
X24308936Y-58583558D01*
X24308937Y-58583559D01*
X24410191Y-58625500D01*
X24410193Y-58625500D01*
X49844799Y-58625500D01*
X49844800Y-58625500D01*
X49946058Y-58583557D01*
X50023557Y-58506058D01*
X51123557Y-57406058D01*
X51135948Y-57376143D01*
X51165500Y-57304800D01*
X51165500Y-57249500D01*
X51184407Y-57191309D01*
X51233907Y-57155345D01*
X51264500Y-57150500D01*
X51409747Y-57150500D01*
X51409748Y-57150500D01*
X51468231Y-57138867D01*
X51534552Y-57094552D01*
X51578867Y-57028231D01*
X51590500Y-56969748D01*
X51590500Y-55930252D01*
X51589534Y-55925398D01*
X51581102Y-55883006D01*
X51578867Y-55871769D01*
X51534552Y-55805448D01*
X51526457Y-55800039D01*
X51468233Y-55761134D01*
X51468231Y-55761133D01*
X51468228Y-55761132D01*
X51468227Y-55761132D01*
X51409758Y-55749501D01*
X51409748Y-55749500D01*
X50370252Y-55749500D01*
X50370251Y-55749500D01*
X50370241Y-55749501D01*
X50311772Y-55761132D01*
X50311766Y-55761134D01*
X50245451Y-55805445D01*
X50245445Y-55805451D01*
X50201134Y-55871766D01*
X50201132Y-55871772D01*
X50189501Y-55930241D01*
X50189500Y-55930253D01*
X50189500Y-56969746D01*
X50189501Y-56969758D01*
X50199831Y-57021686D01*
X50201133Y-57028231D01*
X50245448Y-57094552D01*
X50311769Y-57138867D01*
X50333847Y-57143258D01*
X50370237Y-57150498D01*
X50370246Y-57150498D01*
X50370252Y-57150500D01*
X50370257Y-57150500D01*
X50370969Y-57150570D01*
X50371277Y-57150704D01*
X50375023Y-57151450D01*
X50374859Y-57152271D01*
X50427030Y-57175081D01*
X50457977Y-57227863D01*
X50451990Y-57288755D01*
X50431285Y-57319099D01*
X49704881Y-58045504D01*
X49650364Y-58073281D01*
X49634877Y-58074500D01*
X45694123Y-58074500D01*
X45635932Y-58055593D01*
X45599968Y-58006093D01*
X45599968Y-57944907D01*
X45624119Y-57905497D01*
X46039653Y-57489961D01*
X46051902Y-57479556D01*
X46053882Y-57478132D01*
X46053891Y-57478129D01*
X46086992Y-57442700D01*
X46089299Y-57440315D01*
X46102987Y-57426627D01*
X46123557Y-57406058D01*
X46123559Y-57406051D01*
X46124915Y-57404024D01*
X46125346Y-57403480D01*
X46127110Y-57400740D01*
X46127424Y-57400129D01*
X46128714Y-57398048D01*
X46128717Y-57398045D01*
X46145744Y-57352636D01*
X46146941Y-57349601D01*
X46165500Y-57304800D01*
X46165500Y-57304794D01*
X46165977Y-57302398D01*
X46170376Y-57286951D01*
X46190342Y-57233711D01*
X46197458Y-57214737D01*
X46235595Y-57166891D01*
X46290154Y-57150500D01*
X46709747Y-57150500D01*
X46709748Y-57150500D01*
X46768231Y-57138867D01*
X46834552Y-57094552D01*
X46878867Y-57028231D01*
X46890500Y-56969748D01*
X46890500Y-55930252D01*
X46889534Y-55925398D01*
X46881102Y-55883006D01*
X46878867Y-55871769D01*
X46834552Y-55805448D01*
X46826457Y-55800039D01*
X46768233Y-55761134D01*
X46768231Y-55761133D01*
X46768228Y-55761132D01*
X46768227Y-55761132D01*
X46709758Y-55749501D01*
X46709748Y-55749500D01*
X45670252Y-55749500D01*
X45670251Y-55749500D01*
X45670241Y-55749501D01*
X45611772Y-55761132D01*
X45611766Y-55761134D01*
X45545451Y-55805445D01*
X45545445Y-55805451D01*
X45501134Y-55871766D01*
X45501132Y-55871772D01*
X45489501Y-55930241D01*
X45489500Y-55930253D01*
X45489500Y-56969746D01*
X45489501Y-56969758D01*
X45499831Y-57021686D01*
X45501133Y-57028231D01*
X45537031Y-57081956D01*
X45544522Y-57093166D01*
X45561131Y-57152054D01*
X45539954Y-57209458D01*
X45532211Y-57218171D01*
X45004881Y-57745503D01*
X44950364Y-57773281D01*
X44934877Y-57774500D01*
X41072960Y-57774500D01*
X41014769Y-57755593D01*
X40978805Y-57706093D01*
X40978805Y-57644907D01*
X41002981Y-57605472D01*
X41139575Y-57468972D01*
X41194101Y-57441214D01*
X41209554Y-57440000D01*
X41351959Y-57440000D01*
X41351961Y-57440000D01*
X41490053Y-57399453D01*
X41611128Y-57321643D01*
X41705377Y-57212873D01*
X41765165Y-57081957D01*
X41781298Y-56969748D01*
X41785647Y-56939502D01*
X41785647Y-56939497D01*
X41765165Y-56797043D01*
X41739476Y-56740793D01*
X41705377Y-56666127D01*
X41611128Y-56557357D01*
X41611127Y-56557356D01*
X41611126Y-56557355D01*
X41490057Y-56479549D01*
X41490054Y-56479547D01*
X41490053Y-56479547D01*
X41490050Y-56479546D01*
X41351964Y-56439000D01*
X41351961Y-56439000D01*
X41208039Y-56439000D01*
X41208035Y-56439000D01*
X41069949Y-56479546D01*
X41069942Y-56479549D01*
X40948873Y-56557355D01*
X40854619Y-56666132D01*
X40853139Y-56668435D01*
X40851371Y-56669879D01*
X40849987Y-56671478D01*
X40849710Y-56671238D01*
X40805771Y-56707163D01*
X40744685Y-56710653D01*
X40716335Y-56698191D01*
X40602057Y-56624749D01*
X40602054Y-56624747D01*
X40602053Y-56624747D01*
X40602050Y-56624746D01*
X40463964Y-56584200D01*
X40463961Y-56584200D01*
X40320039Y-56584200D01*
X40320035Y-56584200D01*
X40181949Y-56624746D01*
X40181942Y-56624749D01*
X40060873Y-56702555D01*
X40042835Y-56723373D01*
X39998072Y-56775031D01*
X39945678Y-56806627D01*
X39923254Y-56809200D01*
X36591043Y-56809200D01*
X36532852Y-56790293D01*
X36496888Y-56740793D01*
X36496888Y-56679607D01*
X36532852Y-56630107D01*
X36558345Y-56616756D01*
X36567920Y-56613405D01*
X36674639Y-56534641D01*
X36674641Y-56534639D01*
X36753405Y-56427920D01*
X36797212Y-56302727D01*
X36800000Y-56273000D01*
X36800000Y-56200001D01*
X36799999Y-56200000D01*
X36169000Y-56200000D01*
X36110809Y-56181093D01*
X36074845Y-56131593D01*
X36070000Y-56101000D01*
X36070000Y-55999000D01*
X36088907Y-55940809D01*
X36138407Y-55904845D01*
X36169000Y-55900000D01*
X36799998Y-55900000D01*
X36799999Y-55899999D01*
X36799999Y-55826996D01*
X36797213Y-55797278D01*
X36797212Y-55797273D01*
X36753405Y-55672079D01*
X36674641Y-55565360D01*
X36674639Y-55565358D01*
X36567922Y-55486595D01*
X36444603Y-55443445D01*
X36395922Y-55406379D01*
X36378325Y-55347779D01*
X36398533Y-55290027D01*
X36444603Y-55256555D01*
X36567922Y-55213404D01*
X36674639Y-55134641D01*
X36674641Y-55134639D01*
X36753405Y-55027920D01*
X36797212Y-54902727D01*
X36800000Y-54873000D01*
X36800000Y-54800001D01*
X36799999Y-54800000D01*
X36169000Y-54800000D01*
X36110809Y-54781093D01*
X36074845Y-54731593D01*
X36070000Y-54701000D01*
X36070000Y-54599000D01*
X36088907Y-54540809D01*
X36138407Y-54504845D01*
X36169000Y-54500000D01*
X36799998Y-54500000D01*
X36799999Y-54499999D01*
X36799999Y-54426996D01*
X36797213Y-54397278D01*
X36797212Y-54397273D01*
X36753405Y-54272079D01*
X36674641Y-54165360D01*
X36674639Y-54165358D01*
X36567918Y-54086593D01*
X36567919Y-54086593D01*
X36565351Y-54085695D01*
X36563382Y-54084196D01*
X36561365Y-54083130D01*
X36561542Y-54082794D01*
X36516671Y-54048629D01*
X36499076Y-53990028D01*
X36519286Y-53932276D01*
X36569581Y-53897434D01*
X36598073Y-53893252D01*
X64767830Y-53900503D01*
X64832899Y-53900520D01*
X64832899Y-53900519D01*
X64832902Y-53900520D01*
X64963163Y-53865653D01*
X64985633Y-53859639D01*
X64985633Y-53859638D01*
X64985640Y-53859637D01*
X65122592Y-53780615D01*
X65234425Y-53668840D01*
X65285845Y-53579826D01*
X65331321Y-53538900D01*
X65359951Y-53531034D01*
X65483304Y-53516469D01*
X65543310Y-53528422D01*
X65584830Y-53573364D01*
X65592004Y-53634127D01*
X65564916Y-53684790D01*
X64879203Y-54370504D01*
X64824686Y-54398281D01*
X64809199Y-54399500D01*
X64571632Y-54399500D01*
X64518110Y-54383784D01*
X64450053Y-54340047D01*
X64437905Y-54336480D01*
X64311964Y-54299500D01*
X64311961Y-54299500D01*
X64168039Y-54299500D01*
X64168035Y-54299500D01*
X64029949Y-54340046D01*
X64029942Y-54340049D01*
X63908873Y-54417855D01*
X63814622Y-54526628D01*
X63754834Y-54657543D01*
X63734353Y-54799997D01*
X63734353Y-54800000D01*
X63754834Y-54942456D01*
X63805503Y-55053403D01*
X63814623Y-55073373D01*
X63894364Y-55165400D01*
X63908873Y-55182144D01*
X64024661Y-55256556D01*
X64029947Y-55259953D01*
X64132371Y-55290027D01*
X64168035Y-55300499D01*
X64168036Y-55300499D01*
X64168039Y-55300500D01*
X64168041Y-55300500D01*
X64311959Y-55300500D01*
X64311961Y-55300500D01*
X64450053Y-55259953D01*
X64518110Y-55216215D01*
X64571632Y-55200500D01*
X65068825Y-55200500D01*
X65068827Y-55200500D01*
X65170688Y-55173207D01*
X65170690Y-55173205D01*
X65170692Y-55173205D01*
X65262008Y-55120483D01*
X65262008Y-55120482D01*
X65262013Y-55120480D01*
X65709098Y-54673394D01*
X65763613Y-54645619D01*
X65824045Y-54655190D01*
X65867310Y-54698455D01*
X65878100Y-54743400D01*
X65878100Y-55154031D01*
X65904060Y-55284537D01*
X65954978Y-55407466D01*
X65954979Y-55407468D01*
X65954980Y-55407469D01*
X66028905Y-55518106D01*
X66122994Y-55612195D01*
X66233631Y-55686120D01*
X66233632Y-55686120D01*
X66233633Y-55686121D01*
X66261209Y-55697543D01*
X66356564Y-55737040D01*
X66487069Y-55763000D01*
X66487070Y-55763000D01*
X66620130Y-55763000D01*
X66620131Y-55763000D01*
X66750636Y-55737040D01*
X66873569Y-55686120D01*
X66984206Y-55612195D01*
X67078295Y-55518106D01*
X67152220Y-55407469D01*
X67203140Y-55284536D01*
X67224844Y-55175424D01*
X67254741Y-55122042D01*
X67310307Y-55096426D01*
X67370316Y-55108363D01*
X67396761Y-55129909D01*
X67400861Y-55134641D01*
X67422871Y-55160042D01*
X67422872Y-55160043D01*
X67505903Y-55213404D01*
X67543947Y-55237853D01*
X67619214Y-55259953D01*
X67682035Y-55278399D01*
X67682036Y-55278399D01*
X67682039Y-55278400D01*
X67682041Y-55278400D01*
X67825959Y-55278400D01*
X67825961Y-55278400D01*
X67964053Y-55237853D01*
X68085128Y-55160043D01*
X68099726Y-55143194D01*
X68152117Y-55111598D01*
X68213078Y-55116831D01*
X68237170Y-55133051D01*
X68237486Y-55132620D01*
X68237512Y-55132639D01*
X68238415Y-55133889D01*
X68244550Y-55138020D01*
X68249078Y-55142548D01*
X68246518Y-55145107D01*
X68273339Y-55182238D01*
X68278100Y-55212571D01*
X68278100Y-56001078D01*
X68302905Y-56125782D01*
X68302907Y-56125788D01*
X68351565Y-56243258D01*
X68351566Y-56243259D01*
X68422208Y-56348982D01*
X68512118Y-56438892D01*
X68617841Y-56509534D01*
X68735315Y-56558194D01*
X68860024Y-56583000D01*
X68860025Y-56583000D01*
X69647175Y-56583000D01*
X69647176Y-56583000D01*
X69771885Y-56558194D01*
X69889359Y-56509534D01*
X69995082Y-56438892D01*
X70084992Y-56348982D01*
X70155634Y-56243259D01*
X70204294Y-56125785D01*
X70229100Y-56001076D01*
X70229100Y-55873924D01*
X70229100Y-54717752D01*
X70217467Y-54659269D01*
X70173152Y-54592948D01*
X70169434Y-54590464D01*
X70101117Y-54544815D01*
X70063238Y-54496765D01*
X70060836Y-54435627D01*
X70094829Y-54384753D01*
X70101117Y-54380185D01*
X70115605Y-54370504D01*
X70173152Y-54332052D01*
X70217467Y-54265731D01*
X70229100Y-54207248D01*
X70229100Y-52667752D01*
X70217467Y-52609269D01*
X70173152Y-52542948D01*
X70138530Y-52519814D01*
X70100652Y-52471765D01*
X70098250Y-52410627D01*
X70132243Y-52359754D01*
X70138524Y-52355189D01*
X70173152Y-52332052D01*
X70217467Y-52265731D01*
X70229100Y-52207248D01*
X70229100Y-50667752D01*
X70226742Y-50655900D01*
X70220101Y-50622513D01*
X70217467Y-50609269D01*
X70173152Y-50542948D01*
X70152418Y-50529094D01*
X70101117Y-50494815D01*
X70063238Y-50446765D01*
X70060836Y-50385627D01*
X70094829Y-50334753D01*
X70101117Y-50330185D01*
X70123248Y-50315397D01*
X70173152Y-50282052D01*
X70217467Y-50215731D01*
X70229100Y-50157248D01*
X70229100Y-48917752D01*
X70229100Y-48873924D01*
X70204294Y-48749215D01*
X70155634Y-48631741D01*
X70084992Y-48526018D01*
X69995082Y-48436108D01*
X69921124Y-48386691D01*
X69889358Y-48365465D01*
X69771888Y-48316807D01*
X69771882Y-48316805D01*
X69647178Y-48292000D01*
X69647176Y-48292000D01*
X68860024Y-48292000D01*
X68860021Y-48292000D01*
X68735317Y-48316805D01*
X68735311Y-48316807D01*
X68617841Y-48365465D01*
X68512118Y-48436108D01*
X68512114Y-48436111D01*
X68422211Y-48526014D01*
X68422208Y-48526018D01*
X68351565Y-48631741D01*
X68302907Y-48749211D01*
X68302905Y-48749217D01*
X68278100Y-48873921D01*
X68278100Y-49662427D01*
X68259193Y-49720618D01*
X68248397Y-49731771D01*
X68249077Y-49732451D01*
X68188539Y-49792989D01*
X68148980Y-49861507D01*
X68148978Y-49861511D01*
X68128500Y-49937935D01*
X68128500Y-50766922D01*
X68109593Y-50825113D01*
X68060093Y-50861077D01*
X68001609Y-50861912D01*
X67925964Y-50839700D01*
X67925961Y-50839700D01*
X67782039Y-50839700D01*
X67782035Y-50839700D01*
X67643949Y-50880246D01*
X67643947Y-50880247D01*
X67569103Y-50928346D01*
X67509927Y-50943899D01*
X67452911Y-50921700D01*
X67419832Y-50870228D01*
X67418488Y-50864402D01*
X67417467Y-50859269D01*
X67373152Y-50792948D01*
X67368848Y-50790072D01*
X67306833Y-50748634D01*
X67306831Y-50748633D01*
X67306828Y-50748632D01*
X67306827Y-50748632D01*
X67248358Y-50737001D01*
X67248348Y-50737000D01*
X67248347Y-50737000D01*
X67098408Y-50737000D01*
X67040217Y-50718093D01*
X67004253Y-50668593D01*
X67004253Y-50607407D01*
X67028402Y-50567998D01*
X67078295Y-50518106D01*
X67152220Y-50407469D01*
X67203140Y-50284536D01*
X67229100Y-50154031D01*
X67229100Y-49720969D01*
X67203140Y-49590464D01*
X67174066Y-49520272D01*
X67152221Y-49467533D01*
X67134309Y-49440726D01*
X67078295Y-49356894D01*
X66984206Y-49262805D01*
X66873569Y-49188880D01*
X66873568Y-49188879D01*
X66873566Y-49188878D01*
X66750637Y-49137960D01*
X66620131Y-49112000D01*
X66487069Y-49112000D01*
X66487068Y-49112000D01*
X66356562Y-49137960D01*
X66233633Y-49188878D01*
X66122997Y-49262802D01*
X66028902Y-49356897D01*
X65954978Y-49467533D01*
X65904060Y-49590462D01*
X65878100Y-49720968D01*
X65878100Y-50154031D01*
X65904060Y-50284537D01*
X65954978Y-50407466D01*
X66025238Y-50512619D01*
X66028905Y-50518106D01*
X66078797Y-50567998D01*
X66106573Y-50622513D01*
X66097002Y-50682945D01*
X66053737Y-50726210D01*
X66008792Y-50737000D01*
X65858852Y-50737000D01*
X65858851Y-50737000D01*
X65858841Y-50737001D01*
X65800372Y-50748632D01*
X65800366Y-50748634D01*
X65734051Y-50792945D01*
X65734047Y-50792949D01*
X65734013Y-50793001D01*
X65733932Y-50793064D01*
X65727154Y-50799843D01*
X65726351Y-50799040D01*
X65685963Y-50830881D01*
X65651697Y-50837000D01*
X64851083Y-50837000D01*
X64792892Y-50818093D01*
X64776264Y-50802831D01*
X64773675Y-50799843D01*
X64735128Y-50755357D01*
X64677144Y-50718093D01*
X64614057Y-50677549D01*
X64614054Y-50677547D01*
X64614053Y-50677547D01*
X64614050Y-50677546D01*
X64475964Y-50637000D01*
X64475961Y-50637000D01*
X64332039Y-50637000D01*
X64332035Y-50637000D01*
X64193949Y-50677546D01*
X64193942Y-50677549D01*
X64072873Y-50755355D01*
X63978622Y-50864128D01*
X63918834Y-50995043D01*
X63898353Y-51137497D01*
X63898353Y-51137502D01*
X63918834Y-51279956D01*
X63978622Y-51410871D01*
X63978623Y-51410873D01*
X64072872Y-51519643D01*
X64112509Y-51545116D01*
X64151240Y-51592482D01*
X64154732Y-51653568D01*
X64121653Y-51705040D01*
X64064637Y-51727239D01*
X64058985Y-51727400D01*
X29778115Y-51727400D01*
X29719924Y-51708493D01*
X29683960Y-51658993D01*
X29683960Y-51597807D01*
X29688062Y-51587273D01*
X29696806Y-51568126D01*
X29747165Y-51457857D01*
X29759620Y-51371228D01*
X29767647Y-51315402D01*
X29767647Y-51315397D01*
X29747165Y-51172943D01*
X29730979Y-51137502D01*
X29687377Y-51042027D01*
X29593128Y-50933257D01*
X29593127Y-50933256D01*
X29593126Y-50933255D01*
X29539331Y-50898684D01*
X29500600Y-50851319D01*
X29497106Y-50790233D01*
X29530185Y-50738760D01*
X29539331Y-50732116D01*
X29593128Y-50697543D01*
X29687377Y-50588773D01*
X29747165Y-50457857D01*
X29764398Y-50338000D01*
X29767647Y-50315402D01*
X29767647Y-50315397D01*
X29747165Y-50172943D01*
X29747165Y-50172941D01*
X29728043Y-50131070D01*
X29721068Y-50070284D01*
X29751154Y-50017007D01*
X29806811Y-49991589D01*
X29817990Y-49990944D01*
X29862179Y-49990900D01*
X29862280Y-49990900D01*
X32598506Y-49990900D01*
X32598902Y-49990938D01*
X32608369Y-49990932D01*
X32608371Y-49990933D01*
X32661559Y-49990900D01*
X32717800Y-49990900D01*
X32717804Y-49990898D01*
X32717968Y-49990865D01*
X32717971Y-49990865D01*
X32768103Y-49970063D01*
X32768104Y-49970062D01*
X32768104Y-49970063D01*
X32768113Y-49970058D01*
X32819058Y-49948957D01*
X32819060Y-49948954D01*
X32819069Y-49948951D01*
X32819198Y-49948865D01*
X32819202Y-49948860D01*
X32819204Y-49948860D01*
X32858632Y-49909382D01*
X32896557Y-49871458D01*
X32896557Y-49871457D01*
X32903366Y-49864649D01*
X32903625Y-49864333D01*
X32905780Y-49862176D01*
X33582095Y-49185019D01*
X33772271Y-48994887D01*
X33826791Y-48967117D01*
X33842266Y-48965900D01*
X34005657Y-48965900D01*
X34005660Y-48965900D01*
X34073793Y-48955973D01*
X34178883Y-48904598D01*
X34261598Y-48821883D01*
X34312973Y-48716793D01*
X34312972Y-48716793D01*
X34316350Y-48709886D01*
X34317949Y-48710667D01*
X34347691Y-48668447D01*
X34405599Y-48648691D01*
X34464060Y-48666745D01*
X34500491Y-48714982D01*
X34540053Y-48828045D01*
X34620607Y-48937190D01*
X34620609Y-48937192D01*
X34729752Y-49017745D01*
X34857799Y-49062549D01*
X34888188Y-49065399D01*
X34942399Y-49065398D01*
X34942400Y-49065398D01*
X34942400Y-48115401D01*
X35242400Y-48115401D01*
X35242400Y-49065398D01*
X35242401Y-49065399D01*
X35296603Y-49065399D01*
X35327000Y-49062549D01*
X35327002Y-49062549D01*
X35455047Y-49017745D01*
X35564190Y-48937192D01*
X35564192Y-48937190D01*
X35644745Y-48828047D01*
X35689549Y-48700001D01*
X35692399Y-48669611D01*
X35692400Y-48669610D01*
X35692400Y-48130401D01*
X37022401Y-48130401D01*
X37022401Y-48173403D01*
X37025186Y-48203121D01*
X37025187Y-48203126D01*
X37068994Y-48328320D01*
X37147758Y-48435039D01*
X37147760Y-48435041D01*
X37254479Y-48513805D01*
X37379672Y-48557612D01*
X37409399Y-48560399D01*
X37482399Y-48560398D01*
X37482400Y-48560398D01*
X37482400Y-48130401D01*
X37782400Y-48130401D01*
X37782400Y-48560398D01*
X37782401Y-48560399D01*
X37855404Y-48560399D01*
X37885121Y-48557613D01*
X37885126Y-48557612D01*
X38010320Y-48513805D01*
X38117039Y-48435041D01*
X38117041Y-48435039D01*
X38195805Y-48328320D01*
X38239612Y-48203127D01*
X38242400Y-48173400D01*
X38242400Y-48130401D01*
X38242399Y-48130400D01*
X37782401Y-48130400D01*
X37782400Y-48130401D01*
X37482400Y-48130401D01*
X37482399Y-48130400D01*
X37022402Y-48130400D01*
X37022401Y-48130401D01*
X35692400Y-48130401D01*
X35692400Y-48115401D01*
X35692399Y-48115400D01*
X35242401Y-48115400D01*
X35242400Y-48115401D01*
X34942400Y-48115401D01*
X34942400Y-46865401D01*
X35242400Y-46865401D01*
X35242400Y-47815399D01*
X35242401Y-47815400D01*
X35692398Y-47815400D01*
X35692399Y-47815399D01*
X35692399Y-47787399D01*
X37022400Y-47787399D01*
X37022400Y-47830399D01*
X37022401Y-47830400D01*
X38242398Y-47830400D01*
X38242399Y-47830399D01*
X38242399Y-47787396D01*
X38240299Y-47764996D01*
X40068017Y-47764996D01*
X40068017Y-47765003D01*
X40088298Y-47970929D01*
X40088299Y-47970934D01*
X40148368Y-48168954D01*
X40245916Y-48351452D01*
X40367147Y-48499173D01*
X40377190Y-48511410D01*
X40393181Y-48524533D01*
X40537147Y-48642683D01*
X40537148Y-48642683D01*
X40537150Y-48642685D01*
X40719646Y-48740232D01*
X40827247Y-48772872D01*
X40917665Y-48800300D01*
X40917670Y-48800301D01*
X41123597Y-48820583D01*
X41123600Y-48820583D01*
X41123603Y-48820583D01*
X41329529Y-48800301D01*
X41329534Y-48800300D01*
X41360113Y-48791024D01*
X41527554Y-48740232D01*
X41710050Y-48642685D01*
X41870010Y-48511410D01*
X42001285Y-48351450D01*
X42098832Y-48168954D01*
X42158900Y-47970934D01*
X42158901Y-47970929D01*
X42179183Y-47765003D01*
X42179183Y-47764996D01*
X42158901Y-47559070D01*
X42158900Y-47559065D01*
X42140678Y-47498997D01*
X42098832Y-47361046D01*
X42001285Y-47178550D01*
X41971981Y-47142843D01*
X41870014Y-47018595D01*
X41870010Y-47018590D01*
X41870004Y-47018585D01*
X41710052Y-46887316D01*
X41527554Y-46789768D01*
X41329534Y-46729699D01*
X41329529Y-46729698D01*
X41123603Y-46709417D01*
X41123597Y-46709417D01*
X40917670Y-46729698D01*
X40917665Y-46729699D01*
X40719645Y-46789768D01*
X40537147Y-46887316D01*
X40377195Y-47018585D01*
X40377185Y-47018595D01*
X40245916Y-47178547D01*
X40148368Y-47361045D01*
X40088299Y-47559065D01*
X40088298Y-47559070D01*
X40068017Y-47764996D01*
X38240299Y-47764996D01*
X38239613Y-47757678D01*
X38239612Y-47757673D01*
X38195805Y-47632479D01*
X38117041Y-47525760D01*
X38117039Y-47525758D01*
X38095414Y-47509798D01*
X38059822Y-47460030D01*
X38060280Y-47398846D01*
X38080684Y-47365830D01*
X38080656Y-47365811D01*
X38080997Y-47365322D01*
X38084202Y-47360137D01*
X38085624Y-47358716D01*
X38136372Y-47249887D01*
X38142900Y-47200301D01*
X38142899Y-46840500D01*
X38136372Y-46790913D01*
X38136372Y-46790911D01*
X38085625Y-46682086D01*
X38085624Y-46682085D01*
X38085624Y-46682084D01*
X38000716Y-46597176D01*
X38000714Y-46597175D01*
X37994591Y-46591052D01*
X37996798Y-46588844D01*
X37968893Y-46551810D01*
X37963500Y-46519581D01*
X37963500Y-46469293D01*
X37982407Y-46411102D01*
X37989741Y-46403111D01*
X37989491Y-46402894D01*
X37994128Y-46397543D01*
X38088377Y-46288773D01*
X38148165Y-46157857D01*
X38160026Y-46075360D01*
X38168647Y-46015402D01*
X38168647Y-46015397D01*
X38148165Y-45872943D01*
X38137521Y-45849636D01*
X38088377Y-45742027D01*
X37994128Y-45633257D01*
X37994127Y-45633256D01*
X37994126Y-45633255D01*
X37873057Y-45555449D01*
X37873054Y-45555447D01*
X37873053Y-45555447D01*
X37873050Y-45555446D01*
X37734964Y-45514900D01*
X37734961Y-45514900D01*
X37591039Y-45514900D01*
X37591035Y-45514900D01*
X37452949Y-45555446D01*
X37452942Y-45555449D01*
X37331873Y-45633255D01*
X37237622Y-45742028D01*
X37177834Y-45872943D01*
X37157353Y-46015397D01*
X37157353Y-46015402D01*
X37177834Y-46157856D01*
X37237623Y-46288773D01*
X37336509Y-46402894D01*
X37334471Y-46404659D01*
X37359925Y-46446858D01*
X37362500Y-46469293D01*
X37362500Y-46488213D01*
X37343593Y-46546404D01*
X37305340Y-46577937D01*
X37264086Y-46597174D01*
X37179174Y-46682086D01*
X37128429Y-46790910D01*
X37128428Y-46790911D01*
X37121900Y-46840500D01*
X37121900Y-47200295D01*
X37121901Y-47200307D01*
X37128427Y-47249886D01*
X37128427Y-47249888D01*
X37179174Y-47358713D01*
X37179175Y-47358714D01*
X37179176Y-47358716D01*
X37180601Y-47360141D01*
X37181742Y-47362381D01*
X37184144Y-47365811D01*
X37183661Y-47366148D01*
X37208377Y-47414656D01*
X37198806Y-47475088D01*
X37169386Y-47509797D01*
X37147762Y-47525756D01*
X37147758Y-47525760D01*
X37068994Y-47632479D01*
X37025187Y-47757672D01*
X37022400Y-47787399D01*
X35692399Y-47787399D01*
X35692399Y-47261196D01*
X35689549Y-47230799D01*
X35689549Y-47230797D01*
X35644745Y-47102752D01*
X35564192Y-46993609D01*
X35564190Y-46993607D01*
X35455047Y-46913054D01*
X35327001Y-46868250D01*
X35296611Y-46865400D01*
X35242401Y-46865400D01*
X35242400Y-46865401D01*
X34942400Y-46865401D01*
X34942400Y-46865399D01*
X34888196Y-46865400D01*
X34857799Y-46868250D01*
X34857797Y-46868250D01*
X34729752Y-46913054D01*
X34620609Y-46993607D01*
X34620607Y-46993609D01*
X34540053Y-47102754D01*
X34500491Y-47215817D01*
X34463426Y-47264497D01*
X34404825Y-47282094D01*
X34347074Y-47261886D01*
X34317915Y-47220148D01*
X34316350Y-47220914D01*
X34291785Y-47170667D01*
X34261598Y-47108917D01*
X34178883Y-47026202D01*
X34163323Y-47018595D01*
X34073795Y-46974827D01*
X34046539Y-46970856D01*
X34005660Y-46964900D01*
X33639140Y-46964900D01*
X33605073Y-46969863D01*
X33571004Y-46974827D01*
X33465918Y-47026201D01*
X33383201Y-47108918D01*
X33331827Y-47214004D01*
X33321900Y-47282143D01*
X33321900Y-48624976D01*
X33302993Y-48683167D01*
X33292903Y-48694980D01*
X33237713Y-48750169D01*
X33237397Y-48750430D01*
X33215102Y-48772751D01*
X33160602Y-48800560D01*
X33100164Y-48791024D01*
X33056874Y-48747784D01*
X33047093Y-48688513D01*
X33049848Y-48669610D01*
X33052900Y-48648660D01*
X33052900Y-47282140D01*
X33042973Y-47214007D01*
X32991598Y-47108917D01*
X32908883Y-47026202D01*
X32893323Y-47018595D01*
X32803795Y-46974827D01*
X32776539Y-46970856D01*
X32735660Y-46964900D01*
X32369140Y-46964900D01*
X32335073Y-46969863D01*
X32301004Y-46974827D01*
X32195918Y-47026201D01*
X32113201Y-47108918D01*
X32061827Y-47214004D01*
X32051900Y-47282143D01*
X32051900Y-48595963D01*
X32032993Y-48654154D01*
X32022897Y-48665973D01*
X31949996Y-48738848D01*
X31895476Y-48766616D01*
X31835046Y-48757034D01*
X31791789Y-48713762D01*
X31782041Y-48654557D01*
X31782899Y-48648665D01*
X31782900Y-48648658D01*
X31782900Y-47282143D01*
X31779848Y-47261196D01*
X31772973Y-47214007D01*
X31721598Y-47108917D01*
X31638883Y-47026202D01*
X31623323Y-47018595D01*
X31533795Y-46974827D01*
X31506539Y-46970856D01*
X31465660Y-46964900D01*
X31099140Y-46964900D01*
X31065073Y-46969863D01*
X31031004Y-46974827D01*
X30925918Y-47026201D01*
X30843201Y-47108918D01*
X30791827Y-47214004D01*
X30781900Y-47282143D01*
X30781900Y-47615900D01*
X30762993Y-47674091D01*
X30713493Y-47710055D01*
X30682900Y-47714900D01*
X27327047Y-47714900D01*
X27268856Y-47695993D01*
X27232892Y-47646493D01*
X27232892Y-47585307D01*
X27257046Y-47545894D01*
X27388294Y-47414656D01*
X32731865Y-42071501D01*
X32731880Y-42071490D01*
X32737509Y-42065860D01*
X32737511Y-42065860D01*
X32772004Y-42031367D01*
X32789608Y-42013764D01*
X32792382Y-42011282D01*
X32793376Y-42010210D01*
X32795087Y-42007440D01*
X32795596Y-42006667D01*
X32796991Y-42003794D01*
X32813904Y-41974501D01*
X32830061Y-41946517D01*
X32831986Y-41943601D01*
X32833247Y-41941227D01*
X32833389Y-41940774D01*
X32834251Y-41936797D01*
X32841711Y-41908958D01*
X32852743Y-41867791D01*
X32853454Y-41865425D01*
X32853500Y-41865112D01*
X32853500Y-41835302D01*
X32853501Y-41801052D01*
X32853501Y-41793465D01*
X32872410Y-41735277D01*
X32902609Y-41709916D01*
X32902212Y-41709360D01*
X32908877Y-41704600D01*
X32908883Y-41704598D01*
X32991598Y-41621883D01*
X33042973Y-41516793D01*
X33052900Y-41448660D01*
X33052900Y-40170158D01*
X33071807Y-40111967D01*
X33121307Y-40076003D01*
X33182493Y-40076003D01*
X33221886Y-40100137D01*
X33292887Y-40171105D01*
X33320677Y-40225614D01*
X33321900Y-40241124D01*
X33321900Y-41448660D01*
X33328518Y-41494082D01*
X33331827Y-41516795D01*
X33383201Y-41621881D01*
X33383202Y-41621883D01*
X33465917Y-41704598D01*
X33509657Y-41725981D01*
X33571004Y-41755972D01*
X33571005Y-41755972D01*
X33571007Y-41755973D01*
X33639140Y-41765900D01*
X33639143Y-41765900D01*
X34005657Y-41765900D01*
X34005660Y-41765900D01*
X34073793Y-41755973D01*
X34178883Y-41704598D01*
X34261598Y-41621883D01*
X34312973Y-41516793D01*
X34322900Y-41448660D01*
X34322900Y-40082140D01*
X34591900Y-40082140D01*
X34591900Y-41448660D01*
X34598518Y-41494082D01*
X34601827Y-41516795D01*
X34653201Y-41621881D01*
X34653202Y-41621883D01*
X34735917Y-41704598D01*
X34779657Y-41725981D01*
X34841004Y-41755972D01*
X34841005Y-41755972D01*
X34841007Y-41755973D01*
X34909140Y-41765900D01*
X34909143Y-41765900D01*
X35275657Y-41765900D01*
X35275660Y-41765900D01*
X35343793Y-41755973D01*
X35448883Y-41704598D01*
X35531598Y-41621883D01*
X35582973Y-41516793D01*
X35592900Y-41448660D01*
X35592900Y-41139900D01*
X35611807Y-41081709D01*
X35661307Y-41045745D01*
X35691900Y-41040900D01*
X37088032Y-41040900D01*
X37146223Y-41059807D01*
X37177756Y-41098061D01*
X37223333Y-41195801D01*
X37223334Y-41195802D01*
X37223335Y-41195804D01*
X37306996Y-41279465D01*
X37330338Y-41290349D01*
X37375087Y-41332077D01*
X37387500Y-41380074D01*
X37387500Y-41607005D01*
X37384126Y-41632629D01*
X37360820Y-41719606D01*
X37359354Y-41719213D01*
X37336286Y-41767569D01*
X37319415Y-41779716D01*
X37320291Y-41780967D01*
X37313199Y-41785932D01*
X37229533Y-41869598D01*
X37179532Y-41976824D01*
X37179532Y-41976825D01*
X37173100Y-42025685D01*
X37173100Y-42143992D01*
X37154193Y-42202183D01*
X37144086Y-42214013D01*
X37142052Y-42216046D01*
X37141974Y-42216111D01*
X37136043Y-42222042D01*
X37136042Y-42222043D01*
X37132079Y-42226005D01*
X37077565Y-42253781D01*
X37062078Y-42255000D01*
X36920035Y-42255000D01*
X36781949Y-42295546D01*
X36781942Y-42295549D01*
X36660873Y-42373355D01*
X36566622Y-42482128D01*
X36506834Y-42613043D01*
X36486353Y-42755497D01*
X36486353Y-42755502D01*
X36506834Y-42897956D01*
X36548892Y-42990049D01*
X36566623Y-43028873D01*
X36660872Y-43137643D01*
X36660873Y-43137644D01*
X36721532Y-43176627D01*
X36781947Y-43215453D01*
X36888403Y-43246711D01*
X36920035Y-43255999D01*
X36920036Y-43255999D01*
X36920039Y-43256000D01*
X36920041Y-43256000D01*
X37063959Y-43256000D01*
X37063961Y-43256000D01*
X37202053Y-43215453D01*
X37323128Y-43137643D01*
X37417377Y-43028873D01*
X37477165Y-42897957D01*
X37483282Y-42855410D01*
X37510277Y-42800504D01*
X37564391Y-42771950D01*
X37581274Y-42770500D01*
X37817914Y-42770500D01*
X37817916Y-42770500D01*
X37866773Y-42764068D01*
X37974004Y-42714065D01*
X38057665Y-42630404D01*
X38063875Y-42617085D01*
X38105603Y-42572337D01*
X38165664Y-42560662D01*
X38221117Y-42586519D01*
X38243324Y-42617084D01*
X38249535Y-42630404D01*
X38333196Y-42714065D01*
X38333197Y-42714065D01*
X38333198Y-42714066D01*
X38440424Y-42764067D01*
X38440425Y-42764067D01*
X38440427Y-42764068D01*
X38489284Y-42770500D01*
X38619040Y-42770500D01*
X38677231Y-42789407D01*
X38694764Y-42805728D01*
X39631556Y-43918118D01*
X39715701Y-44018036D01*
X39715692Y-44018042D01*
X39715725Y-44018064D01*
X40049852Y-44415159D01*
X40072849Y-44471855D01*
X40073100Y-44478896D01*
X40073100Y-46094746D01*
X40073101Y-46094758D01*
X40083860Y-46148843D01*
X40084733Y-46153231D01*
X40129048Y-46219552D01*
X40195369Y-46263867D01*
X40239831Y-46272711D01*
X40253841Y-46275498D01*
X40253846Y-46275498D01*
X40253852Y-46275500D01*
X40253853Y-46275500D01*
X41993347Y-46275500D01*
X41993348Y-46275500D01*
X42051831Y-46263867D01*
X42118152Y-46219552D01*
X42162467Y-46153231D01*
X42174100Y-46094748D01*
X42174100Y-44355252D01*
X42162467Y-44296769D01*
X42118152Y-44230448D01*
X42080832Y-44205511D01*
X42051833Y-44186134D01*
X42051831Y-44186133D01*
X42051828Y-44186132D01*
X42051827Y-44186132D01*
X41993358Y-44174501D01*
X41993348Y-44174500D01*
X41993347Y-44174500D01*
X41496859Y-44174500D01*
X41438668Y-44155593D01*
X41402704Y-44106093D01*
X41399762Y-44094816D01*
X41399500Y-44093502D01*
X41399500Y-44093500D01*
X41357557Y-43992242D01*
X41280058Y-43914743D01*
X41178800Y-43872800D01*
X41178799Y-43872800D01*
X40425027Y-43872800D01*
X40366836Y-43853893D01*
X40349276Y-43837540D01*
X40344735Y-43832143D01*
X40205589Y-43666774D01*
X40205413Y-43666535D01*
X40201336Y-43661694D01*
X40201336Y-43661693D01*
X40174912Y-43630316D01*
X40150461Y-43601257D01*
X40150459Y-43601256D01*
X40146483Y-43596530D01*
X40146288Y-43596326D01*
X39157375Y-42422043D01*
X39134354Y-42365354D01*
X39134100Y-42358272D01*
X39134100Y-42025685D01*
X39132985Y-42017218D01*
X39127668Y-41976827D01*
X39126583Y-41974501D01*
X39077666Y-41869598D01*
X39077665Y-41869597D01*
X39077665Y-41869596D01*
X38994004Y-41785935D01*
X38994002Y-41785934D01*
X38994001Y-41785933D01*
X38886775Y-41735932D01*
X38854201Y-41731644D01*
X38837916Y-41729500D01*
X38489284Y-41729500D01*
X38472998Y-41731644D01*
X38440425Y-41735932D01*
X38440424Y-41735932D01*
X38333198Y-41785933D01*
X38249533Y-41869598D01*
X38243324Y-41882915D01*
X38201595Y-41927663D01*
X38141534Y-41939337D01*
X38086082Y-41913478D01*
X38063876Y-41882915D01*
X38057666Y-41869598D01*
X38057665Y-41869597D01*
X38057665Y-41869596D01*
X37992494Y-41804425D01*
X37964719Y-41749911D01*
X37963500Y-41734424D01*
X37963500Y-41713337D01*
X37963499Y-41713335D01*
X37941874Y-41632629D01*
X37938500Y-41607005D01*
X37938500Y-41349776D01*
X37957407Y-41291585D01*
X37967496Y-41279773D01*
X37967804Y-41279465D01*
X38012990Y-41234278D01*
X38067504Y-41206502D01*
X38127936Y-41216073D01*
X38162647Y-41245495D01*
X38211331Y-41311460D01*
X38211336Y-41311465D01*
X38316845Y-41389335D01*
X38440616Y-41432644D01*
X38469996Y-41435399D01*
X38470000Y-41435400D01*
X38507399Y-41435400D01*
X38507400Y-41435399D01*
X38507400Y-40965401D01*
X38807400Y-40965401D01*
X38807400Y-41435399D01*
X38807401Y-41435400D01*
X38844800Y-41435400D01*
X38844803Y-41435399D01*
X38874183Y-41432644D01*
X38997954Y-41389335D01*
X39103463Y-41311465D01*
X39103465Y-41311463D01*
X39181335Y-41205954D01*
X39224644Y-41082183D01*
X39227399Y-41052803D01*
X39227400Y-41052800D01*
X39227400Y-40965401D01*
X39227399Y-40965400D01*
X38807401Y-40965400D01*
X38807400Y-40965401D01*
X38507400Y-40965401D01*
X38507400Y-40195401D01*
X38807400Y-40195401D01*
X38807400Y-40665399D01*
X38807401Y-40665400D01*
X39227399Y-40665400D01*
X39227400Y-40665399D01*
X39227400Y-40578000D01*
X39227399Y-40577996D01*
X39224644Y-40548616D01*
X39181335Y-40424845D01*
X39103465Y-40319336D01*
X39103463Y-40319334D01*
X38997954Y-40241464D01*
X38874183Y-40198155D01*
X38844803Y-40195400D01*
X38807401Y-40195400D01*
X38807400Y-40195401D01*
X38507400Y-40195401D01*
X38507399Y-40195400D01*
X38469996Y-40195400D01*
X38440616Y-40198155D01*
X38316845Y-40241464D01*
X38211336Y-40319334D01*
X38211334Y-40319336D01*
X38162647Y-40385305D01*
X38112879Y-40420897D01*
X38051695Y-40420439D01*
X38012990Y-40396521D01*
X37967804Y-40351335D01*
X37967802Y-40351334D01*
X37967801Y-40351333D01*
X37860575Y-40301332D01*
X37828001Y-40297044D01*
X37811716Y-40294900D01*
X37463084Y-40294900D01*
X37446798Y-40297044D01*
X37414225Y-40301332D01*
X37414224Y-40301332D01*
X37306998Y-40351333D01*
X37223332Y-40434999D01*
X37218367Y-40442091D01*
X37216733Y-40440946D01*
X37182660Y-40477487D01*
X37134663Y-40489900D01*
X35691900Y-40489900D01*
X35633709Y-40470993D01*
X35597745Y-40421493D01*
X35592900Y-40390900D01*
X35592900Y-40082143D01*
X35592900Y-40082140D01*
X35582973Y-40014007D01*
X35531598Y-39908917D01*
X35448883Y-39826202D01*
X35421440Y-39812786D01*
X35343795Y-39774827D01*
X35316539Y-39770856D01*
X35275660Y-39764900D01*
X34909140Y-39764900D01*
X34877424Y-39769521D01*
X34841004Y-39774827D01*
X34735918Y-39826201D01*
X34653201Y-39908918D01*
X34601827Y-40014004D01*
X34601827Y-40014007D01*
X34591900Y-40082140D01*
X34322900Y-40082140D01*
X34312973Y-40014007D01*
X34261598Y-39908917D01*
X34178883Y-39826202D01*
X34151440Y-39812786D01*
X34073795Y-39774827D01*
X34046539Y-39770856D01*
X34005660Y-39764900D01*
X34005657Y-39764900D01*
X33777626Y-39764900D01*
X33719435Y-39745993D01*
X33707639Y-39735920D01*
X33604525Y-39632854D01*
X33604435Y-39632764D01*
X33208207Y-39235703D01*
X33207729Y-39235158D01*
X33175864Y-39203292D01*
X33175868Y-39203287D01*
X33175798Y-39203227D01*
X33147763Y-39175133D01*
X33147758Y-39175130D01*
X33147754Y-39175126D01*
X33147645Y-39175042D01*
X33147516Y-39174943D01*
X33147177Y-39174747D01*
X33113636Y-39155382D01*
X33113565Y-39155303D01*
X33113549Y-39155332D01*
X33079281Y-39135500D01*
X33079280Y-39135499D01*
X33079274Y-39135496D01*
X33079264Y-39135492D01*
X33078999Y-39135382D01*
X33078990Y-39135379D01*
X33078989Y-39135379D01*
X33040921Y-39125178D01*
X33036524Y-39123995D01*
X33002865Y-39114938D01*
X33002570Y-39114900D01*
X33002562Y-39114900D01*
X32962838Y-39114900D01*
X32917745Y-39114852D01*
X32917014Y-39114900D01*
X30751622Y-39114900D01*
X30693431Y-39095993D01*
X30657467Y-39046493D01*
X30657467Y-38985307D01*
X30681616Y-38945898D01*
X30686557Y-38940958D01*
X30686557Y-38940955D01*
X30693556Y-38933957D01*
X30693705Y-38933774D01*
X31243279Y-38383784D01*
X31422404Y-38204523D01*
X31476910Y-38176725D01*
X31492434Y-38175500D01*
X31989799Y-38175500D01*
X31989800Y-38175500D01*
X32091058Y-38133557D01*
X32168557Y-38056058D01*
X32168556Y-38056058D01*
X32993557Y-37231059D01*
X33006890Y-37198869D01*
X33010373Y-37190461D01*
X33022936Y-37160130D01*
X33035500Y-37129800D01*
X33035500Y-36300000D01*
X54434357Y-36300000D01*
X54454885Y-36521536D01*
X54515771Y-36735528D01*
X54614942Y-36934689D01*
X54749019Y-37112236D01*
X54913438Y-37262124D01*
X55102599Y-37379247D01*
X55310060Y-37459618D01*
X55528757Y-37500500D01*
X55751243Y-37500500D01*
X55969940Y-37459618D01*
X56177401Y-37379247D01*
X56366562Y-37262124D01*
X56530981Y-37112236D01*
X56665058Y-36934689D01*
X56764229Y-36735528D01*
X56825115Y-36521536D01*
X56845643Y-36300000D01*
X56825115Y-36078464D01*
X56764229Y-35864472D01*
X56665058Y-35665311D01*
X56530981Y-35487764D01*
X56366562Y-35337876D01*
X56273497Y-35280253D01*
X64439500Y-35280253D01*
X64439500Y-37319746D01*
X64439501Y-37319758D01*
X64451132Y-37378227D01*
X64451134Y-37378233D01*
X64493705Y-37441944D01*
X64495448Y-37444552D01*
X64561769Y-37488867D01*
X64606231Y-37497711D01*
X64620241Y-37500498D01*
X64620246Y-37500498D01*
X64620252Y-37500500D01*
X64620253Y-37500500D01*
X66659747Y-37500500D01*
X66659748Y-37500500D01*
X66718231Y-37488867D01*
X66784552Y-37444552D01*
X66828867Y-37378231D01*
X66840500Y-37319748D01*
X66840500Y-35280252D01*
X66828867Y-35221769D01*
X66784552Y-35155448D01*
X66784548Y-35155445D01*
X66718233Y-35111134D01*
X66718231Y-35111133D01*
X66718228Y-35111132D01*
X66718227Y-35111132D01*
X66659758Y-35099501D01*
X66659748Y-35099500D01*
X64620252Y-35099500D01*
X64620251Y-35099500D01*
X64620241Y-35099501D01*
X64561772Y-35111132D01*
X64561766Y-35111134D01*
X64495451Y-35155445D01*
X64495445Y-35155451D01*
X64451134Y-35221766D01*
X64451132Y-35221772D01*
X64439501Y-35280241D01*
X64439500Y-35280253D01*
X56273497Y-35280253D01*
X56177401Y-35220753D01*
X55969940Y-35140382D01*
X55969939Y-35140381D01*
X55969937Y-35140381D01*
X55751243Y-35099500D01*
X55528757Y-35099500D01*
X55310062Y-35140381D01*
X55260569Y-35159555D01*
X55102599Y-35220753D01*
X54941542Y-35320475D01*
X54913438Y-35337876D01*
X54897490Y-35352415D01*
X54749019Y-35487764D01*
X54719135Y-35527337D01*
X54614943Y-35665309D01*
X54614938Y-35665318D01*
X54515772Y-35864469D01*
X54515771Y-35864472D01*
X54454885Y-36078464D01*
X54434357Y-36300000D01*
X33035500Y-36300000D01*
X33035500Y-36170200D01*
X32993557Y-36068942D01*
X32993557Y-36068941D01*
X32993556Y-36068940D01*
X32992084Y-36065386D01*
X32987283Y-36004390D01*
X32992084Y-35989614D01*
X32995218Y-35982050D01*
X33011002Y-35943942D01*
X33035500Y-35884800D01*
X33035500Y-33479823D01*
X33054407Y-33421632D01*
X33103907Y-33385668D01*
X33134427Y-33380823D01*
X70380437Y-33355701D01*
X70438637Y-33374568D01*
G37*
%TD.AperFunction*%
%TA.AperFunction,Conductor*%
G36*
X17841993Y-52213201D02*
G01*
X17858998Y-52252077D01*
X17872517Y-52320042D01*
X17894189Y-52372364D01*
X17927242Y-52424969D01*
X17930819Y-52430661D01*
X18005407Y-52483583D01*
X18057733Y-52505257D01*
X18136374Y-52520900D01*
X18136375Y-52520900D01*
X18562900Y-52520900D01*
X18621091Y-52539807D01*
X18657055Y-52589307D01*
X18661900Y-52619899D01*
X18661900Y-52811759D01*
X18661901Y-52811767D01*
X18668505Y-52861938D01*
X18668505Y-52861940D01*
X18719847Y-52972042D01*
X18719848Y-52972043D01*
X18719849Y-52972045D01*
X18805755Y-53057951D01*
X18915861Y-53109294D01*
X18966037Y-53115900D01*
X21957874Y-53115899D01*
X22016065Y-53134806D01*
X22052029Y-53184306D01*
X22056874Y-53214899D01*
X22056874Y-53241400D01*
X22072517Y-53320042D01*
X22094189Y-53372364D01*
X22122875Y-53418019D01*
X22130819Y-53430661D01*
X22205407Y-53483583D01*
X22257733Y-53505257D01*
X22336374Y-53520900D01*
X22336375Y-53520900D01*
X23065457Y-53520900D01*
X23123648Y-53539807D01*
X23159612Y-53589307D01*
X23163423Y-53605628D01*
X23172312Y-53666649D01*
X23172315Y-53666657D01*
X23174890Y-53671925D01*
X23183458Y-53732508D01*
X23174890Y-53758875D01*
X23172313Y-53764146D01*
X23164846Y-53815400D01*
X23799899Y-53815400D01*
X23799900Y-53815399D01*
X23799900Y-53514900D01*
X23818807Y-53456709D01*
X23868307Y-53420745D01*
X23898900Y-53415900D01*
X23900900Y-53415900D01*
X23959091Y-53434807D01*
X23995055Y-53484307D01*
X23999900Y-53514900D01*
X23999900Y-53815399D01*
X23999901Y-53815400D01*
X24634953Y-53815400D01*
X24626388Y-53756606D01*
X24636709Y-53696297D01*
X24680507Y-53653572D01*
X24741053Y-53644752D01*
X24794358Y-53672329D01*
X25621940Y-54499911D01*
X25621939Y-54499911D01*
X25677889Y-54555860D01*
X25746407Y-54595419D01*
X25746411Y-54595421D01*
X25822835Y-54615899D01*
X25822837Y-54615900D01*
X25822838Y-54615900D01*
X25901962Y-54615900D01*
X25949483Y-54615900D01*
X26007674Y-54634807D01*
X26039206Y-54673059D01*
X26044176Y-54683716D01*
X26044177Y-54683717D01*
X26044179Y-54683721D01*
X26045967Y-54686275D01*
X26047104Y-54689994D01*
X26047837Y-54691566D01*
X26047616Y-54691668D01*
X26063856Y-54744786D01*
X26043935Y-54802638D01*
X26023663Y-54822710D01*
X26012765Y-54830753D01*
X26012758Y-54830760D01*
X25933994Y-54937479D01*
X25890187Y-55062672D01*
X25887400Y-55092399D01*
X25887400Y-55165399D01*
X25887401Y-55165400D01*
X26518400Y-55165400D01*
X26576591Y-55184307D01*
X26612555Y-55233807D01*
X26617400Y-55264400D01*
X26617400Y-55925398D01*
X26617401Y-55925399D01*
X26660404Y-55925399D01*
X26690121Y-55922613D01*
X26690126Y-55922612D01*
X26815320Y-55878805D01*
X26922039Y-55800041D01*
X26922042Y-55800038D01*
X26938000Y-55778416D01*
X26987767Y-55742823D01*
X27048950Y-55743279D01*
X27081970Y-55763683D01*
X27081989Y-55763656D01*
X27082459Y-55763985D01*
X27087657Y-55767197D01*
X27089084Y-55768624D01*
X27197913Y-55819372D01*
X27247499Y-55825900D01*
X27607300Y-55825899D01*
X27656887Y-55819372D01*
X27656888Y-55819372D01*
X27748551Y-55776628D01*
X27765716Y-55768624D01*
X27817191Y-55717148D01*
X27871705Y-55689372D01*
X27932137Y-55698943D01*
X27940702Y-55703860D01*
X28051947Y-55775353D01*
X28136021Y-55800039D01*
X28190035Y-55815899D01*
X28190036Y-55815899D01*
X28190039Y-55815900D01*
X28190041Y-55815900D01*
X28333959Y-55815900D01*
X28333961Y-55815900D01*
X28472053Y-55775353D01*
X28593128Y-55697543D01*
X28687377Y-55588773D01*
X28747165Y-55457857D01*
X28756792Y-55390900D01*
X28767647Y-55315402D01*
X28767647Y-55315397D01*
X28747165Y-55172943D01*
X28738500Y-55153970D01*
X28687377Y-55042027D01*
X28593128Y-54933257D01*
X28593127Y-54933256D01*
X28593126Y-54933255D01*
X28539331Y-54898684D01*
X28500600Y-54851319D01*
X28497106Y-54790233D01*
X28530185Y-54738760D01*
X28539331Y-54732116D01*
X28556676Y-54720969D01*
X28593128Y-54697543D01*
X28687377Y-54588773D01*
X28747165Y-54457857D01*
X28756094Y-54395756D01*
X28767647Y-54315402D01*
X28767647Y-54315397D01*
X28747165Y-54172943D01*
X28684436Y-54035587D01*
X28686138Y-54034809D01*
X28672936Y-53984586D01*
X28695135Y-53927569D01*
X28746607Y-53894490D01*
X28771793Y-53891237D01*
X35842531Y-53893057D01*
X35900715Y-53911979D01*
X35936666Y-53961489D01*
X35936651Y-54022674D01*
X35900674Y-54072165D01*
X35875211Y-54085498D01*
X35872081Y-54086593D01*
X35765360Y-54165358D01*
X35765356Y-54165362D01*
X35749397Y-54186986D01*
X35699628Y-54222577D01*
X35638445Y-54222118D01*
X35605430Y-54201716D01*
X35605411Y-54201744D01*
X35604936Y-54201411D01*
X35599741Y-54198201D01*
X35598316Y-54196776D01*
X35598314Y-54196775D01*
X35598313Y-54196774D01*
X35489489Y-54146029D01*
X35489488Y-54146028D01*
X35472958Y-54143852D01*
X35439901Y-54139500D01*
X35439899Y-54139500D01*
X35080104Y-54139500D01*
X35080092Y-54139501D01*
X35030513Y-54146027D01*
X35030511Y-54146027D01*
X34921686Y-54196774D01*
X34836774Y-54281686D01*
X34820149Y-54317340D01*
X34778421Y-54362088D01*
X34730425Y-54374500D01*
X34570199Y-54374500D01*
X34498599Y-54404158D01*
X34468943Y-54416442D01*
X34468937Y-54416446D01*
X34364879Y-54520504D01*
X34310363Y-54548281D01*
X34294876Y-54549500D01*
X34153035Y-54549500D01*
X34014949Y-54590046D01*
X34014942Y-54590049D01*
X33893873Y-54667855D01*
X33799622Y-54776628D01*
X33739834Y-54907543D01*
X33719353Y-55049997D01*
X33719353Y-55050002D01*
X33739834Y-55192456D01*
X33789177Y-55300499D01*
X33799623Y-55323373D01*
X33893872Y-55432143D01*
X33933884Y-55457857D01*
X33947669Y-55466716D01*
X33986400Y-55514082D01*
X33989893Y-55575168D01*
X33956813Y-55626640D01*
X33947670Y-55633282D01*
X33917116Y-55652919D01*
X33893872Y-55667857D01*
X33799622Y-55776628D01*
X33739834Y-55907543D01*
X33719353Y-56049997D01*
X33719353Y-56050002D01*
X33739834Y-56192456D01*
X33793281Y-56309487D01*
X33799623Y-56323373D01*
X33883715Y-56420421D01*
X33893873Y-56432144D01*
X34014295Y-56509534D01*
X34014947Y-56509953D01*
X34099021Y-56534639D01*
X34153035Y-56550499D01*
X34153036Y-56550499D01*
X34153039Y-56550500D01*
X34153041Y-56550500D01*
X34296959Y-56550500D01*
X34296961Y-56550500D01*
X34435053Y-56509953D01*
X34556128Y-56432143D01*
X34597264Y-56384668D01*
X34649660Y-56353073D01*
X34672083Y-56350500D01*
X34742083Y-56350500D01*
X34800274Y-56369407D01*
X34831806Y-56407659D01*
X34836776Y-56418316D01*
X34921684Y-56503224D01*
X35030513Y-56553972D01*
X35080099Y-56560500D01*
X35439900Y-56560499D01*
X35489487Y-56553972D01*
X35489488Y-56553972D01*
X35577321Y-56513014D01*
X35598316Y-56503224D01*
X35599737Y-56501802D01*
X35601972Y-56500663D01*
X35605411Y-56498256D01*
X35605749Y-56498739D01*
X35654250Y-56474023D01*
X35714682Y-56483590D01*
X35749398Y-56513014D01*
X35765358Y-56534639D01*
X35765360Y-56534641D01*
X35872079Y-56613405D01*
X35881655Y-56616756D01*
X35930336Y-56653822D01*
X35947932Y-56712422D01*
X35927723Y-56770174D01*
X35877429Y-56805017D01*
X35848957Y-56809200D01*
X24721530Y-56809200D01*
X24663339Y-56790293D01*
X24651526Y-56780204D01*
X23379552Y-55508230D01*
X23357730Y-55465401D01*
X25887401Y-55465401D01*
X25887401Y-55538403D01*
X25890186Y-55568121D01*
X25890187Y-55568126D01*
X25933994Y-55693320D01*
X26012758Y-55800039D01*
X26012760Y-55800041D01*
X26119479Y-55878805D01*
X26244672Y-55922612D01*
X26274399Y-55925399D01*
X26317400Y-55925398D01*
X26317400Y-55465401D01*
X26317399Y-55465400D01*
X25887402Y-55465400D01*
X25887401Y-55465401D01*
X23357730Y-55465401D01*
X23351775Y-55453713D01*
X23361346Y-55393281D01*
X23379552Y-55368222D01*
X23401186Y-55346587D01*
X23452487Y-55241648D01*
X23462400Y-55173615D01*
X23462400Y-54852901D01*
X23462399Y-54852900D01*
X23061900Y-54852900D01*
X23003709Y-54833993D01*
X22967745Y-54784493D01*
X22962900Y-54753900D01*
X22962900Y-54340726D01*
X22962876Y-54340483D01*
X22962400Y-54330784D01*
X22962400Y-54017845D01*
X22911151Y-54025312D01*
X22806212Y-54076613D01*
X22796922Y-54085904D01*
X22742405Y-54113681D01*
X22726918Y-54114900D01*
X22587726Y-54114900D01*
X22587725Y-54114900D01*
X22587715Y-54114901D01*
X22514663Y-54129433D01*
X22514661Y-54129433D01*
X22514660Y-54129434D01*
X22514659Y-54129434D01*
X22505651Y-54133166D01*
X22504816Y-54131151D01*
X22458512Y-54144211D01*
X22419786Y-54131627D01*
X22419149Y-54133166D01*
X22410142Y-54129435D01*
X22410140Y-54129434D01*
X22410136Y-54129433D01*
X22337084Y-54114901D01*
X22337074Y-54114900D01*
X22187726Y-54114900D01*
X22187725Y-54114900D01*
X22187715Y-54114901D01*
X22114663Y-54129433D01*
X22114661Y-54129433D01*
X22114660Y-54129434D01*
X22114659Y-54129434D01*
X22105651Y-54133166D01*
X22104816Y-54131151D01*
X22058512Y-54144211D01*
X22019786Y-54131627D01*
X22019149Y-54133166D01*
X22010142Y-54129435D01*
X22010140Y-54129434D01*
X22010136Y-54129433D01*
X21937084Y-54114901D01*
X21937074Y-54114900D01*
X21787726Y-54114900D01*
X21787725Y-54114900D01*
X21787715Y-54114901D01*
X21714663Y-54129433D01*
X21714661Y-54129433D01*
X21714660Y-54129434D01*
X21714659Y-54129434D01*
X21705651Y-54133166D01*
X21704816Y-54131151D01*
X21658512Y-54144211D01*
X21619786Y-54131627D01*
X21619149Y-54133166D01*
X21610142Y-54129435D01*
X21610140Y-54129434D01*
X21610136Y-54129433D01*
X21537084Y-54114901D01*
X21537074Y-54114900D01*
X21387726Y-54114900D01*
X21387725Y-54114900D01*
X21387715Y-54114901D01*
X21314663Y-54129433D01*
X21314661Y-54129433D01*
X21314660Y-54129434D01*
X21314659Y-54129434D01*
X21305651Y-54133166D01*
X21304816Y-54131151D01*
X21258512Y-54144211D01*
X21219786Y-54131627D01*
X21219149Y-54133166D01*
X21210142Y-54129435D01*
X21210140Y-54129434D01*
X21210136Y-54129433D01*
X21137084Y-54114901D01*
X21137074Y-54114900D01*
X20987726Y-54114900D01*
X20987725Y-54114900D01*
X20987715Y-54114901D01*
X20914663Y-54129433D01*
X20914661Y-54129433D01*
X20914660Y-54129434D01*
X20914659Y-54129434D01*
X20905651Y-54133166D01*
X20904816Y-54131151D01*
X20858512Y-54144211D01*
X20819786Y-54131627D01*
X20819149Y-54133166D01*
X20810142Y-54129435D01*
X20810140Y-54129434D01*
X20810136Y-54129433D01*
X20737084Y-54114901D01*
X20737074Y-54114900D01*
X20587726Y-54114900D01*
X20587725Y-54114900D01*
X20587715Y-54114901D01*
X20514663Y-54129433D01*
X20514661Y-54129433D01*
X20514660Y-54129434D01*
X20514659Y-54129434D01*
X20505651Y-54133166D01*
X20504816Y-54131151D01*
X20458512Y-54144211D01*
X20419786Y-54131627D01*
X20419149Y-54133166D01*
X20410142Y-54129435D01*
X20410140Y-54129434D01*
X20410136Y-54129433D01*
X20337084Y-54114901D01*
X20337074Y-54114900D01*
X20187726Y-54114900D01*
X20187725Y-54114900D01*
X20187715Y-54114901D01*
X20114663Y-54129433D01*
X20114661Y-54129433D01*
X20114660Y-54129434D01*
X20114659Y-54129434D01*
X20105651Y-54133166D01*
X20104816Y-54131151D01*
X20058512Y-54144211D01*
X20019786Y-54131627D01*
X20019149Y-54133166D01*
X20010142Y-54129435D01*
X20010140Y-54129434D01*
X20010136Y-54129433D01*
X19937084Y-54114901D01*
X19937074Y-54114900D01*
X19797882Y-54114900D01*
X19739691Y-54095993D01*
X19727878Y-54085904D01*
X19718587Y-54076613D01*
X19613646Y-54025311D01*
X19562400Y-54017843D01*
X19562400Y-54330784D01*
X19561924Y-54340483D01*
X19561900Y-54340726D01*
X19561900Y-55788851D01*
X19542993Y-55847042D01*
X19493493Y-55883006D01*
X19432307Y-55883006D01*
X19404115Y-55868509D01*
X19401521Y-55866595D01*
X19272625Y-55821492D01*
X19223945Y-55784427D01*
X19206348Y-55725826D01*
X19226556Y-55668075D01*
X19235309Y-55658055D01*
X19240456Y-55652908D01*
X19240486Y-55652884D01*
X19246909Y-55646460D01*
X19246911Y-55646460D01*
X19276417Y-55616954D01*
X19300588Y-55592785D01*
X19302888Y-55590635D01*
X19302899Y-55590621D01*
X19304308Y-55588003D01*
X19325957Y-55550506D01*
X19325958Y-55550503D01*
X19325960Y-55550500D01*
X19342153Y-55522456D01*
X19342427Y-55521991D01*
X19342729Y-55521264D01*
X19344653Y-55516725D01*
X19362400Y-55492350D01*
X19362400Y-55455894D01*
X19362900Y-55448392D01*
X19362900Y-55390902D01*
X19362900Y-55390898D01*
X19362902Y-55366459D01*
X19362900Y-55366454D01*
X19362901Y-55360411D01*
X19362900Y-55360377D01*
X19362900Y-54340726D01*
X19362876Y-54340483D01*
X19362400Y-54330784D01*
X19362400Y-54017845D01*
X19311151Y-54025312D01*
X19206212Y-54076613D01*
X19196922Y-54085904D01*
X19142405Y-54113681D01*
X19126918Y-54114900D01*
X18987726Y-54114900D01*
X18987725Y-54114900D01*
X18987715Y-54114901D01*
X18914663Y-54129433D01*
X18914661Y-54129433D01*
X18914660Y-54129434D01*
X18914659Y-54129434D01*
X18905651Y-54133166D01*
X18904816Y-54131151D01*
X18858512Y-54144211D01*
X18819786Y-54131627D01*
X18819149Y-54133166D01*
X18810142Y-54129435D01*
X18810140Y-54129434D01*
X18810136Y-54129433D01*
X18737084Y-54114901D01*
X18737074Y-54114900D01*
X18587726Y-54114900D01*
X18587725Y-54114900D01*
X18587715Y-54114901D01*
X18514663Y-54129433D01*
X18514661Y-54129433D01*
X18514660Y-54129434D01*
X18514659Y-54129434D01*
X18505651Y-54133166D01*
X18504816Y-54131151D01*
X18458512Y-54144211D01*
X18419786Y-54131627D01*
X18419149Y-54133166D01*
X18410142Y-54129435D01*
X18410140Y-54129434D01*
X18410136Y-54129433D01*
X18337084Y-54114901D01*
X18337074Y-54114900D01*
X18187726Y-54114900D01*
X18187725Y-54114900D01*
X18187715Y-54114901D01*
X18114663Y-54129433D01*
X18114661Y-54129433D01*
X18114660Y-54129434D01*
X18114659Y-54129434D01*
X18105651Y-54133166D01*
X18104816Y-54131151D01*
X18058512Y-54144211D01*
X18019786Y-54131627D01*
X18019149Y-54133166D01*
X18010142Y-54129435D01*
X18010140Y-54129434D01*
X18010136Y-54129433D01*
X17937084Y-54114901D01*
X17937074Y-54114900D01*
X17787726Y-54114900D01*
X17787720Y-54114900D01*
X17777221Y-54116989D01*
X17716460Y-54109797D01*
X17671530Y-54068263D01*
X17661391Y-54017289D01*
X23162400Y-54017289D01*
X23162400Y-54652899D01*
X23162401Y-54652900D01*
X23462398Y-54652900D01*
X23462399Y-54652899D01*
X23462399Y-54414399D01*
X23481306Y-54356208D01*
X23530806Y-54320244D01*
X23561399Y-54315399D01*
X23799899Y-54315399D01*
X23799900Y-54315398D01*
X23799900Y-54015401D01*
X23999900Y-54015401D01*
X23999900Y-54315398D01*
X23999901Y-54315399D01*
X24320613Y-54315399D01*
X24320616Y-54315398D01*
X24388650Y-54305487D01*
X24493588Y-54254185D01*
X24576186Y-54171587D01*
X24627487Y-54066648D01*
X24634954Y-54015400D01*
X23999901Y-54015400D01*
X23999900Y-54015401D01*
X23799900Y-54015401D01*
X23799899Y-54015400D01*
X23164289Y-54015400D01*
X23162400Y-54017289D01*
X17661391Y-54017289D01*
X17659594Y-54008254D01*
X17660807Y-54000595D01*
X17662900Y-53990074D01*
X17662900Y-53840726D01*
X17660095Y-53826627D01*
X17655935Y-53805712D01*
X17648366Y-53767660D01*
X17648362Y-53767655D01*
X17644633Y-53758648D01*
X17646648Y-53757813D01*
X17633589Y-53711520D01*
X17646173Y-53672789D01*
X17644633Y-53672152D01*
X17648361Y-53663146D01*
X17648366Y-53663140D01*
X17662900Y-53590074D01*
X17662900Y-53440726D01*
X17648366Y-53367660D01*
X17648362Y-53367655D01*
X17644633Y-53358648D01*
X17646648Y-53357813D01*
X17633589Y-53311520D01*
X17646173Y-53272789D01*
X17644633Y-53272152D01*
X17648361Y-53263146D01*
X17648366Y-53263140D01*
X17662900Y-53190074D01*
X17662900Y-53040726D01*
X17662765Y-53040049D01*
X17654699Y-52999500D01*
X17648366Y-52967660D01*
X17648362Y-52967655D01*
X17644633Y-52958648D01*
X17646648Y-52957813D01*
X17633589Y-52911520D01*
X17646173Y-52872789D01*
X17644633Y-52872152D01*
X17648361Y-52863146D01*
X17648366Y-52863140D01*
X17662900Y-52790074D01*
X17662900Y-52640726D01*
X17648366Y-52567660D01*
X17648362Y-52567655D01*
X17644633Y-52558648D01*
X17646648Y-52557813D01*
X17633589Y-52511520D01*
X17646173Y-52472789D01*
X17644633Y-52472152D01*
X17648361Y-52463146D01*
X17648366Y-52463140D01*
X17662900Y-52390074D01*
X17662900Y-52271392D01*
X17681807Y-52213201D01*
X17731307Y-52177237D01*
X17792493Y-52177237D01*
X17841993Y-52213201D01*
G37*
%TD.AperFunction*%
%TA.AperFunction,Conductor*%
G36*
X30412213Y-39079307D02*
G01*
X30448177Y-39128807D01*
X30448177Y-39189993D01*
X30424027Y-39229401D01*
X29578489Y-40074940D01*
X29578488Y-40074939D01*
X29522539Y-40130889D01*
X29482980Y-40199407D01*
X29482978Y-40199411D01*
X29462500Y-40275835D01*
X29462500Y-43649906D01*
X29443593Y-43708097D01*
X29433500Y-43719914D01*
X24865438Y-48287458D01*
X24810919Y-48315232D01*
X24750488Y-48305657D01*
X24707226Y-48262390D01*
X24697446Y-48203360D01*
X24697481Y-48203121D01*
X24705147Y-48149800D01*
X24705146Y-48149796D01*
X24684665Y-48007343D01*
X24668035Y-47970929D01*
X24624877Y-47876427D01*
X24530628Y-47767657D01*
X24530627Y-47767656D01*
X24530626Y-47767655D01*
X24409557Y-47689849D01*
X24409554Y-47689847D01*
X24409553Y-47689847D01*
X24409550Y-47689846D01*
X24271464Y-47649300D01*
X24271461Y-47649300D01*
X24127539Y-47649300D01*
X24127535Y-47649300D01*
X23989449Y-47689846D01*
X23989442Y-47689849D01*
X23868373Y-47767655D01*
X23774122Y-47876428D01*
X23714334Y-48007343D01*
X23693853Y-48149796D01*
X23693853Y-48149797D01*
X23693853Y-48149800D01*
X23701386Y-48202195D01*
X23690951Y-48262484D01*
X23673402Y-48286282D01*
X23666342Y-48293342D01*
X23652864Y-48325882D01*
X23613127Y-48372408D01*
X23553632Y-48386691D01*
X23497104Y-48363276D01*
X23465135Y-48311107D01*
X23462400Y-48287996D01*
X23462400Y-47977901D01*
X23462399Y-47977900D01*
X23162401Y-47977900D01*
X23162400Y-47977901D01*
X23162400Y-48612954D01*
X23168688Y-48618392D01*
X23208935Y-48625280D01*
X23251660Y-48669078D01*
X23261900Y-48712926D01*
X23261900Y-48790072D01*
X23261901Y-48790084D01*
X23270741Y-48834522D01*
X23276434Y-48863140D01*
X23276435Y-48863142D01*
X23280166Y-48872149D01*
X23278151Y-48872983D01*
X23291211Y-48919288D01*
X23278627Y-48958013D01*
X23280166Y-48958651D01*
X23276433Y-48967663D01*
X23261901Y-49040715D01*
X23261900Y-49040727D01*
X23261900Y-49190072D01*
X23261901Y-49190084D01*
X23276367Y-49262802D01*
X23276434Y-49263140D01*
X23276435Y-49263142D01*
X23280166Y-49272149D01*
X23278151Y-49272983D01*
X23291211Y-49319288D01*
X23278627Y-49358013D01*
X23280166Y-49358651D01*
X23276433Y-49367663D01*
X23261901Y-49440715D01*
X23261900Y-49440727D01*
X23261900Y-49590072D01*
X23261901Y-49590084D01*
X23272990Y-49645827D01*
X23276434Y-49663140D01*
X23276435Y-49663142D01*
X23280166Y-49672149D01*
X23278151Y-49672983D01*
X23291211Y-49719288D01*
X23278627Y-49758013D01*
X23280166Y-49758651D01*
X23276433Y-49767663D01*
X23261901Y-49840715D01*
X23261900Y-49840727D01*
X23261900Y-49990072D01*
X23261901Y-49990084D01*
X23272234Y-50042027D01*
X23276434Y-50063140D01*
X23276435Y-50063142D01*
X23280166Y-50072149D01*
X23278151Y-50072983D01*
X23291211Y-50119288D01*
X23278627Y-50158013D01*
X23280166Y-50158651D01*
X23276433Y-50167663D01*
X23261901Y-50240715D01*
X23261900Y-50240727D01*
X23261900Y-50390072D01*
X23261901Y-50390084D01*
X23273528Y-50448532D01*
X23276434Y-50463140D01*
X23276435Y-50463142D01*
X23280166Y-50472149D01*
X23278151Y-50472983D01*
X23291211Y-50519288D01*
X23278627Y-50558013D01*
X23280166Y-50558651D01*
X23276433Y-50567663D01*
X23261901Y-50640715D01*
X23261900Y-50640727D01*
X23261900Y-50790072D01*
X23261901Y-50790084D01*
X23276190Y-50861912D01*
X23276434Y-50863140D01*
X23276435Y-50863142D01*
X23280166Y-50872149D01*
X23278151Y-50872983D01*
X23291211Y-50919288D01*
X23278627Y-50958013D01*
X23280166Y-50958651D01*
X23276433Y-50967663D01*
X23261901Y-51040715D01*
X23261900Y-51040727D01*
X23261900Y-51179917D01*
X23242993Y-51238108D01*
X23232906Y-51249918D01*
X23223614Y-51259210D01*
X23172312Y-51364151D01*
X23164846Y-51415400D01*
X23477785Y-51415400D01*
X23487486Y-51415876D01*
X23487722Y-51415899D01*
X23487726Y-51415900D01*
X23860338Y-51415900D01*
X24815317Y-51415900D01*
X24873508Y-51434807D01*
X24890133Y-51450067D01*
X24931272Y-51497543D01*
X24982587Y-51530521D01*
X25052102Y-51575196D01*
X25052347Y-51575353D01*
X25158803Y-51606611D01*
X25190435Y-51615899D01*
X25190436Y-51615899D01*
X25190439Y-51615900D01*
X25190441Y-51615900D01*
X25334359Y-51615900D01*
X25334361Y-51615900D01*
X25472453Y-51575353D01*
X25593528Y-51497543D01*
X25634664Y-51450068D01*
X25687060Y-51418473D01*
X25709483Y-51415900D01*
X26406563Y-51415900D01*
X26406563Y-51415899D01*
X26482989Y-51395421D01*
X26551511Y-51355860D01*
X26591974Y-51315397D01*
X26607461Y-51299911D01*
X26700323Y-51207048D01*
X26744682Y-51162688D01*
X26799197Y-51134911D01*
X26859629Y-51144482D01*
X26884689Y-51162688D01*
X26887401Y-51165400D01*
X27518400Y-51165400D01*
X27576591Y-51184307D01*
X27612555Y-51233807D01*
X27617400Y-51264400D01*
X27617400Y-51366400D01*
X27598493Y-51424591D01*
X27548993Y-51460555D01*
X27518400Y-51465400D01*
X26887402Y-51465400D01*
X26887401Y-51465401D01*
X26887401Y-51538403D01*
X26890186Y-51568121D01*
X26890187Y-51568126D01*
X26933995Y-51693322D01*
X26933995Y-51693323D01*
X27014509Y-51802412D01*
X27033852Y-51860459D01*
X27015381Y-51918790D01*
X27004859Y-51931205D01*
X26996270Y-51939794D01*
X26941753Y-51967571D01*
X26881321Y-51958000D01*
X26856262Y-51939794D01*
X26851465Y-51934997D01*
X26851465Y-51934996D01*
X26767804Y-51851335D01*
X26767802Y-51851334D01*
X26767801Y-51851333D01*
X26660575Y-51801332D01*
X26628001Y-51797044D01*
X26611716Y-51794900D01*
X26263084Y-51794900D01*
X26246798Y-51797044D01*
X26214225Y-51801332D01*
X26214224Y-51801332D01*
X26106998Y-51851333D01*
X26023333Y-51934998D01*
X26012729Y-51957740D01*
X25971001Y-52002488D01*
X25923005Y-52014900D01*
X23898900Y-52014900D01*
X23840709Y-51995993D01*
X23804745Y-51946493D01*
X23799900Y-51915900D01*
X23799900Y-51615401D01*
X23999900Y-51615401D01*
X23999900Y-51815399D01*
X23999901Y-51815400D01*
X24634953Y-51815400D01*
X24627487Y-51764149D01*
X24624911Y-51758880D01*
X24616340Y-51698298D01*
X24624911Y-51671918D01*
X24627487Y-51666646D01*
X24634954Y-51615400D01*
X23999901Y-51615400D01*
X23999900Y-51615401D01*
X23799900Y-51615401D01*
X23799899Y-51615400D01*
X23164846Y-51615400D01*
X23172311Y-51666649D01*
X23172312Y-51666651D01*
X23174890Y-51671925D01*
X23183458Y-51732508D01*
X23174886Y-51758885D01*
X23174113Y-51760466D01*
X23131567Y-51804438D01*
X23071301Y-51815004D01*
X23016334Y-51788129D01*
X22995121Y-51758109D01*
X22987777Y-51742027D01*
X22893528Y-51633257D01*
X22893527Y-51633256D01*
X22892054Y-51631556D01*
X22868237Y-51575196D01*
X22867874Y-51566725D01*
X22867874Y-49189401D01*
X22867874Y-49189400D01*
X22852231Y-49110759D01*
X22837287Y-49074680D01*
X22830558Y-49058435D01*
X22824055Y-49048086D01*
X22793929Y-49000139D01*
X22762187Y-48977617D01*
X22719340Y-48947216D01*
X22695138Y-48937192D01*
X22667015Y-48925543D01*
X22588374Y-48909900D01*
X18336374Y-48909900D01*
X18336373Y-48909900D01*
X18257731Y-48925543D01*
X18205409Y-48947215D01*
X18147113Y-48983844D01*
X18094190Y-49058433D01*
X18087461Y-49074680D01*
X18074374Y-49106277D01*
X18072517Y-49110760D01*
X18056874Y-49189399D01*
X18056874Y-50029767D01*
X18069830Y-50101579D01*
X18087902Y-50150035D01*
X18087904Y-50150039D01*
X18125139Y-50212795D01*
X18143704Y-50234221D01*
X18158938Y-50257925D01*
X18176381Y-50296120D01*
X18184319Y-50323155D01*
X18190294Y-50364708D01*
X18190294Y-50392890D01*
X18184319Y-50434443D01*
X18176381Y-50461478D01*
X18158939Y-50499671D01*
X18143707Y-50523373D01*
X18125140Y-50544801D01*
X18087901Y-50607564D01*
X18069829Y-50656020D01*
X18056874Y-50727831D01*
X18056874Y-51260342D01*
X18037967Y-51318533D01*
X18008314Y-51344011D01*
X18008936Y-51345000D01*
X18005408Y-51347216D01*
X18005407Y-51347217D01*
X17961239Y-51374969D01*
X17947113Y-51383845D01*
X17931086Y-51406433D01*
X17881992Y-51442950D01*
X17820811Y-51443636D01*
X17770911Y-51408229D01*
X17755611Y-51371228D01*
X17754756Y-51371493D01*
X17752487Y-51364150D01*
X17701185Y-51259210D01*
X17701183Y-51259208D01*
X17691894Y-51249918D01*
X17664118Y-51195401D01*
X17662900Y-51179917D01*
X17662900Y-51040727D01*
X17662898Y-51040715D01*
X17659415Y-51023208D01*
X17648366Y-50967660D01*
X17648362Y-50967655D01*
X17644633Y-50958648D01*
X17646648Y-50957813D01*
X17633589Y-50911520D01*
X17646173Y-50872789D01*
X17644633Y-50872152D01*
X17648361Y-50863146D01*
X17648366Y-50863140D01*
X17662900Y-50790074D01*
X17662900Y-50640726D01*
X17648366Y-50567660D01*
X17648362Y-50567655D01*
X17644633Y-50558648D01*
X17646648Y-50557813D01*
X17633589Y-50511520D01*
X17646173Y-50472789D01*
X17644633Y-50472152D01*
X17648361Y-50463146D01*
X17648366Y-50463140D01*
X17662900Y-50390074D01*
X17662900Y-50240726D01*
X17648366Y-50167660D01*
X17648362Y-50167655D01*
X17644633Y-50158648D01*
X17646648Y-50157813D01*
X17633589Y-50111520D01*
X17646173Y-50072789D01*
X17644633Y-50072152D01*
X17648361Y-50063146D01*
X17648366Y-50063140D01*
X17662900Y-49990074D01*
X17662900Y-49840726D01*
X17648366Y-49767660D01*
X17648362Y-49767655D01*
X17644633Y-49758648D01*
X17646648Y-49757813D01*
X17633589Y-49711520D01*
X17646173Y-49672789D01*
X17644633Y-49672152D01*
X17648361Y-49663146D01*
X17648366Y-49663140D01*
X17662900Y-49590074D01*
X17662900Y-49440726D01*
X17648366Y-49367660D01*
X17648362Y-49367655D01*
X17644633Y-49358648D01*
X17646648Y-49357813D01*
X17633589Y-49311520D01*
X17646173Y-49272789D01*
X17644633Y-49272152D01*
X17648361Y-49263146D01*
X17648366Y-49263140D01*
X17662900Y-49190074D01*
X17662900Y-49040726D01*
X17648366Y-48967660D01*
X17648362Y-48967655D01*
X17644633Y-48958648D01*
X17646648Y-48957813D01*
X17633589Y-48911520D01*
X17646173Y-48872789D01*
X17644633Y-48872152D01*
X17648361Y-48863146D01*
X17648366Y-48863140D01*
X17662900Y-48790074D01*
X17662900Y-48640726D01*
X17660811Y-48630225D01*
X17668000Y-48569465D01*
X17709530Y-48524533D01*
X17769539Y-48512594D01*
X17777212Y-48513808D01*
X17787726Y-48515900D01*
X17787727Y-48515900D01*
X17937073Y-48515900D01*
X17937074Y-48515900D01*
X18010140Y-48501366D01*
X18010146Y-48501361D01*
X18019152Y-48497633D01*
X18019986Y-48499648D01*
X18066280Y-48486589D01*
X18105010Y-48499173D01*
X18105648Y-48497633D01*
X18114655Y-48501362D01*
X18114660Y-48501366D01*
X18165154Y-48511410D01*
X18187715Y-48515898D01*
X18187720Y-48515898D01*
X18187726Y-48515900D01*
X18187727Y-48515900D01*
X18337073Y-48515900D01*
X18337074Y-48515900D01*
X18410140Y-48501366D01*
X18410146Y-48501361D01*
X18419152Y-48497633D01*
X18419986Y-48499648D01*
X18466280Y-48486589D01*
X18505010Y-48499173D01*
X18505648Y-48497633D01*
X18514655Y-48501362D01*
X18514660Y-48501366D01*
X18565154Y-48511410D01*
X18587715Y-48515898D01*
X18587720Y-48515898D01*
X18587726Y-48515900D01*
X18587727Y-48515900D01*
X18737073Y-48515900D01*
X18737074Y-48515900D01*
X18810140Y-48501366D01*
X18810146Y-48501361D01*
X18819152Y-48497633D01*
X18819986Y-48499648D01*
X18866280Y-48486589D01*
X18905010Y-48499173D01*
X18905648Y-48497633D01*
X18914655Y-48501362D01*
X18914660Y-48501366D01*
X18965154Y-48511410D01*
X18987715Y-48515898D01*
X18987720Y-48515898D01*
X18987726Y-48515900D01*
X18987727Y-48515900D01*
X19126918Y-48515900D01*
X19185109Y-48534807D01*
X19196922Y-48544896D01*
X19206212Y-48554186D01*
X19311151Y-48605487D01*
X19362400Y-48612954D01*
X19362400Y-48300013D01*
X19362877Y-48290304D01*
X19362899Y-48290077D01*
X19362900Y-48290074D01*
X19362900Y-47465726D01*
X19362876Y-47465483D01*
X19362400Y-47455784D01*
X19362400Y-47142845D01*
X19311151Y-47150312D01*
X19206212Y-47201613D01*
X19196922Y-47210904D01*
X19142405Y-47238681D01*
X19126918Y-47239900D01*
X19080800Y-47239900D01*
X19022609Y-47220993D01*
X18986645Y-47171493D01*
X18981800Y-47140900D01*
X18981800Y-46631800D01*
X18950515Y-46556271D01*
X18939857Y-46530541D01*
X18566896Y-46157579D01*
X18539119Y-46103063D01*
X18537900Y-46087576D01*
X18537900Y-45878073D01*
X18556807Y-45819882D01*
X18606307Y-45783918D01*
X18667493Y-45783918D01*
X18716555Y-45819285D01*
X18738955Y-45849636D01*
X18738960Y-45849641D01*
X18845679Y-45928405D01*
X18970872Y-45972212D01*
X19000599Y-45974999D01*
X19073599Y-45974998D01*
X19073600Y-45974998D01*
X19073600Y-45344000D01*
X19092507Y-45285809D01*
X19142007Y-45249845D01*
X19172600Y-45245000D01*
X19274600Y-45245000D01*
X19332791Y-45263907D01*
X19368755Y-45313407D01*
X19373600Y-45344000D01*
X19373600Y-45974998D01*
X19373601Y-45974999D01*
X19446603Y-45974999D01*
X19478661Y-45971994D01*
X19538362Y-45985388D01*
X19578788Y-46031316D01*
X19586900Y-46070562D01*
X19586900Y-47076386D01*
X19567993Y-47134577D01*
X19562400Y-47140665D01*
X19562400Y-47455784D01*
X19561924Y-47465483D01*
X19561900Y-47465726D01*
X19561900Y-48290074D01*
X19561900Y-48290077D01*
X19561923Y-48290304D01*
X19562400Y-48300013D01*
X19562400Y-48612953D01*
X19613652Y-48605486D01*
X19718588Y-48554186D01*
X19718589Y-48554185D01*
X19727876Y-48544899D01*
X19782392Y-48517119D01*
X19797882Y-48515900D01*
X19937073Y-48515900D01*
X19937074Y-48515900D01*
X20010140Y-48501366D01*
X20010146Y-48501361D01*
X20019152Y-48497633D01*
X20019986Y-48499648D01*
X20066280Y-48486589D01*
X20105010Y-48499173D01*
X20105648Y-48497633D01*
X20114655Y-48501362D01*
X20114660Y-48501366D01*
X20165154Y-48511410D01*
X20187715Y-48515898D01*
X20187720Y-48515898D01*
X20187726Y-48515900D01*
X20187727Y-48515900D01*
X20337073Y-48515900D01*
X20337074Y-48515900D01*
X20410140Y-48501366D01*
X20410146Y-48501361D01*
X20419152Y-48497633D01*
X20419986Y-48499648D01*
X20466280Y-48486589D01*
X20505010Y-48499173D01*
X20505648Y-48497633D01*
X20514655Y-48501362D01*
X20514660Y-48501366D01*
X20565154Y-48511410D01*
X20587715Y-48515898D01*
X20587720Y-48515898D01*
X20587726Y-48515900D01*
X20587727Y-48515900D01*
X20737073Y-48515900D01*
X20737074Y-48515900D01*
X20810140Y-48501366D01*
X20810146Y-48501361D01*
X20819152Y-48497633D01*
X20819986Y-48499648D01*
X20866280Y-48486589D01*
X20905010Y-48499173D01*
X20905648Y-48497633D01*
X20914655Y-48501362D01*
X20914660Y-48501366D01*
X20965154Y-48511410D01*
X20987715Y-48515898D01*
X20987720Y-48515898D01*
X20987726Y-48515900D01*
X20987727Y-48515900D01*
X21137073Y-48515900D01*
X21137074Y-48515900D01*
X21210140Y-48501366D01*
X21210146Y-48501361D01*
X21219152Y-48497633D01*
X21219986Y-48499648D01*
X21266280Y-48486589D01*
X21305010Y-48499173D01*
X21305648Y-48497633D01*
X21314655Y-48501362D01*
X21314660Y-48501366D01*
X21365154Y-48511410D01*
X21387715Y-48515898D01*
X21387720Y-48515898D01*
X21387726Y-48515900D01*
X21387727Y-48515900D01*
X21537073Y-48515900D01*
X21537074Y-48515900D01*
X21610140Y-48501366D01*
X21610146Y-48501361D01*
X21619152Y-48497633D01*
X21619986Y-48499648D01*
X21666280Y-48486589D01*
X21705010Y-48499173D01*
X21705648Y-48497633D01*
X21714655Y-48501362D01*
X21714660Y-48501366D01*
X21765154Y-48511410D01*
X21787715Y-48515898D01*
X21787720Y-48515898D01*
X21787726Y-48515900D01*
X21787727Y-48515900D01*
X21937073Y-48515900D01*
X21937074Y-48515900D01*
X22010140Y-48501366D01*
X22010146Y-48501361D01*
X22019152Y-48497633D01*
X22019986Y-48499648D01*
X22066280Y-48486589D01*
X22105010Y-48499173D01*
X22105648Y-48497633D01*
X22114655Y-48501362D01*
X22114660Y-48501366D01*
X22165154Y-48511410D01*
X22187715Y-48515898D01*
X22187720Y-48515898D01*
X22187726Y-48515900D01*
X22187727Y-48515900D01*
X22337073Y-48515900D01*
X22337074Y-48515900D01*
X22410140Y-48501366D01*
X22410146Y-48501361D01*
X22419152Y-48497633D01*
X22419986Y-48499648D01*
X22466280Y-48486589D01*
X22505010Y-48499173D01*
X22505648Y-48497633D01*
X22514655Y-48501362D01*
X22514660Y-48501366D01*
X22565154Y-48511410D01*
X22587715Y-48515898D01*
X22587720Y-48515898D01*
X22587726Y-48515900D01*
X22587727Y-48515900D01*
X22726918Y-48515900D01*
X22785109Y-48534807D01*
X22796922Y-48544896D01*
X22806212Y-48554186D01*
X22911151Y-48605487D01*
X22962400Y-48612954D01*
X22962400Y-48300013D01*
X22962877Y-48290304D01*
X22962899Y-48290077D01*
X22962900Y-48290074D01*
X22962900Y-47777899D01*
X23162400Y-47777899D01*
X23162401Y-47777900D01*
X23462398Y-47777900D01*
X23462399Y-47777899D01*
X23462399Y-47457186D01*
X23462398Y-47457183D01*
X23452487Y-47389149D01*
X23401185Y-47284211D01*
X23318587Y-47201613D01*
X23213646Y-47150311D01*
X23162400Y-47142843D01*
X23162400Y-47777899D01*
X22962900Y-47777899D01*
X22962900Y-47465726D01*
X22962876Y-47465483D01*
X22962400Y-47455784D01*
X22962400Y-47142845D01*
X22911151Y-47150312D01*
X22806212Y-47201613D01*
X22796922Y-47210904D01*
X22742405Y-47238681D01*
X22726918Y-47239900D01*
X22587726Y-47239900D01*
X22587725Y-47239900D01*
X22587715Y-47239901D01*
X22514663Y-47254433D01*
X22514661Y-47254433D01*
X22514660Y-47254434D01*
X22514659Y-47254434D01*
X22505651Y-47258166D01*
X22504816Y-47256151D01*
X22458512Y-47269211D01*
X22419786Y-47256627D01*
X22419149Y-47258166D01*
X22410142Y-47254435D01*
X22410140Y-47254434D01*
X22410136Y-47254433D01*
X22337084Y-47239901D01*
X22337074Y-47239900D01*
X22187726Y-47239900D01*
X22187725Y-47239900D01*
X22187715Y-47239901D01*
X22114663Y-47254433D01*
X22114661Y-47254433D01*
X22114660Y-47254434D01*
X22114659Y-47254434D01*
X22105651Y-47258166D01*
X22104816Y-47256151D01*
X22058512Y-47269211D01*
X22019786Y-47256627D01*
X22019149Y-47258166D01*
X22010142Y-47254435D01*
X22010140Y-47254434D01*
X22010136Y-47254433D01*
X21937084Y-47239901D01*
X21937074Y-47239900D01*
X21787726Y-47239900D01*
X21787725Y-47239900D01*
X21787715Y-47239901D01*
X21714663Y-47254433D01*
X21714661Y-47254433D01*
X21714660Y-47254434D01*
X21714659Y-47254434D01*
X21705651Y-47258166D01*
X21704816Y-47256151D01*
X21658512Y-47269211D01*
X21619786Y-47256627D01*
X21619149Y-47258166D01*
X21610142Y-47254435D01*
X21610140Y-47254434D01*
X21610136Y-47254433D01*
X21537084Y-47239901D01*
X21537074Y-47239900D01*
X21387726Y-47239900D01*
X21387725Y-47239900D01*
X21387715Y-47239901D01*
X21314663Y-47254433D01*
X21314661Y-47254433D01*
X21314660Y-47254434D01*
X21314659Y-47254434D01*
X21305651Y-47258166D01*
X21304816Y-47256151D01*
X21258512Y-47269211D01*
X21219786Y-47256627D01*
X21219149Y-47258166D01*
X21210142Y-47254435D01*
X21210140Y-47254434D01*
X21210136Y-47254433D01*
X21137084Y-47239901D01*
X21137074Y-47239900D01*
X21036900Y-47239900D01*
X20978709Y-47220993D01*
X20942745Y-47171493D01*
X20937900Y-47140900D01*
X20937900Y-47134222D01*
X20956807Y-47076031D01*
X20966889Y-47064225D01*
X21344221Y-46686893D01*
X21357748Y-46680001D01*
X23243601Y-46680001D01*
X23243601Y-46723003D01*
X23246386Y-46752721D01*
X23246387Y-46752726D01*
X23290194Y-46877920D01*
X23368958Y-46984639D01*
X23368960Y-46984641D01*
X23475679Y-47063405D01*
X23600872Y-47107212D01*
X23630599Y-47109999D01*
X23703599Y-47109998D01*
X23703600Y-47109998D01*
X23703600Y-46680001D01*
X24003600Y-46680001D01*
X24003600Y-47109998D01*
X24003601Y-47109999D01*
X24076604Y-47109999D01*
X24106321Y-47107213D01*
X24106326Y-47107212D01*
X24231520Y-47063405D01*
X24338239Y-46984641D01*
X24338241Y-46984639D01*
X24417005Y-46877920D01*
X24460812Y-46752727D01*
X24463600Y-46723000D01*
X24463600Y-46680001D01*
X24463599Y-46680000D01*
X24003601Y-46680000D01*
X24003600Y-46680001D01*
X23703600Y-46680001D01*
X23703599Y-46680000D01*
X23243602Y-46680000D01*
X23243601Y-46680001D01*
X21357748Y-46680001D01*
X21398735Y-46659119D01*
X21414222Y-46657900D01*
X21420207Y-46657900D01*
X21420209Y-46657901D01*
X21456742Y-46657900D01*
X21529800Y-46657900D01*
X21529946Y-46657900D01*
X21530242Y-46657835D01*
X21533015Y-46656570D01*
X21540558Y-46653444D01*
X21581056Y-46636668D01*
X21616902Y-46621820D01*
X21627843Y-46617289D01*
X21631410Y-46615956D01*
X21634823Y-46612862D01*
X21634889Y-46612807D01*
X21637977Y-46609040D01*
X21681001Y-46566014D01*
X21708557Y-46538458D01*
X21708557Y-46538455D01*
X21718065Y-46528948D01*
X21718069Y-46528941D01*
X23226957Y-45019954D01*
X23281471Y-44992176D01*
X23341903Y-45001746D01*
X23385169Y-45045009D01*
X23387014Y-45048830D01*
X23398221Y-45073371D01*
X23398223Y-45073373D01*
X23412357Y-45089685D01*
X23436174Y-45146044D01*
X23422315Y-45205639D01*
X23407543Y-45224516D01*
X23400377Y-45231682D01*
X23400374Y-45231686D01*
X23349629Y-45340510D01*
X23349628Y-45340511D01*
X23343100Y-45390100D01*
X23343100Y-45749895D01*
X23343101Y-45749907D01*
X23349627Y-45799486D01*
X23349627Y-45799488D01*
X23400374Y-45908313D01*
X23400375Y-45908314D01*
X23400376Y-45908316D01*
X23401801Y-45909741D01*
X23402942Y-45911981D01*
X23405344Y-45915411D01*
X23404861Y-45915748D01*
X23429577Y-45964256D01*
X23420006Y-46024688D01*
X23390586Y-46059397D01*
X23368962Y-46075356D01*
X23368958Y-46075360D01*
X23290194Y-46182079D01*
X23246387Y-46307272D01*
X23243600Y-46336999D01*
X23243600Y-46379999D01*
X23243601Y-46380000D01*
X24463598Y-46380000D01*
X24463599Y-46379999D01*
X24463599Y-46336996D01*
X24460813Y-46307278D01*
X24460812Y-46307273D01*
X24417005Y-46182079D01*
X24338241Y-46075360D01*
X24338239Y-46075358D01*
X24316614Y-46059398D01*
X24281022Y-46009630D01*
X24281480Y-45948446D01*
X24301884Y-45915430D01*
X24301856Y-45915411D01*
X24302197Y-45914922D01*
X24305402Y-45909737D01*
X24306824Y-45908316D01*
X24357572Y-45799487D01*
X24364100Y-45749901D01*
X24364099Y-45390100D01*
X24357572Y-45340513D01*
X24357572Y-45340511D01*
X24306825Y-45231686D01*
X24306824Y-45231685D01*
X24306824Y-45231684D01*
X24266082Y-45190942D01*
X24238307Y-45136428D01*
X24247190Y-45080340D01*
X24246036Y-45079813D01*
X24255606Y-45058856D01*
X24308765Y-44942457D01*
X24329247Y-44800000D01*
X24326433Y-44780430D01*
X24308765Y-44657543D01*
X24248977Y-44526628D01*
X24248977Y-44526627D01*
X24154728Y-44417857D01*
X24092356Y-44377773D01*
X24059784Y-44356840D01*
X24021053Y-44309474D01*
X24017561Y-44248388D01*
X24043300Y-44203557D01*
X28652040Y-39594516D01*
X29157125Y-39089399D01*
X29211641Y-39061619D01*
X29227131Y-39060400D01*
X30354022Y-39060400D01*
X30412213Y-39079307D01*
G37*
%TD.AperFunction*%
%TA.AperFunction,Conductor*%
G36*
X15183660Y-51359192D02*
G01*
X15246411Y-51395421D01*
X15322835Y-51415899D01*
X15322837Y-51415900D01*
X17025900Y-51415900D01*
X17084091Y-51434807D01*
X17120055Y-51484307D01*
X17124900Y-51514900D01*
X17124900Y-51515900D01*
X17105993Y-51574091D01*
X17056493Y-51610055D01*
X17025900Y-51614900D01*
X15501962Y-51614900D01*
X15422838Y-51614900D01*
X15403418Y-51620102D01*
X15349909Y-51619465D01*
X15334363Y-51614900D01*
X15334361Y-51614900D01*
X15190439Y-51614900D01*
X15190437Y-51614900D01*
X15164288Y-51622578D01*
X15103128Y-51620829D01*
X15054676Y-51583465D01*
X15037399Y-51527587D01*
X15037399Y-51473400D01*
X15035596Y-51454172D01*
X15048989Y-51394471D01*
X15094915Y-51354043D01*
X15155833Y-51348331D01*
X15183660Y-51359192D01*
G37*
%TD.AperFunction*%
%TA.AperFunction,Conductor*%
G36*
X11149637Y-33414559D02*
G01*
X11185634Y-33464035D01*
X11190500Y-33494691D01*
X11190500Y-35945564D01*
X11208461Y-36012593D01*
X11210979Y-36021989D01*
X11238087Y-36068941D01*
X11238088Y-36068943D01*
X11250538Y-36090508D01*
X11250539Y-36090510D01*
X11644539Y-36484511D01*
X11678936Y-36518907D01*
X11700489Y-36540460D01*
X11747578Y-36567646D01*
X11768489Y-36579720D01*
X11809429Y-36625190D01*
X11815824Y-36686040D01*
X11807198Y-36710400D01*
X11799836Y-36724847D01*
X11799835Y-36724852D01*
X11787933Y-36800000D01*
X12461000Y-36800000D01*
X12519191Y-36818907D01*
X12555155Y-36868407D01*
X12560000Y-36899000D01*
X12560000Y-37449998D01*
X12560001Y-37449999D01*
X12666483Y-37449999D01*
X12666485Y-37449998D01*
X12760141Y-37435166D01*
X12760151Y-37435163D01*
X12873047Y-37377639D01*
X12887080Y-37363606D01*
X12941595Y-37335827D01*
X13002028Y-37345397D01*
X13027086Y-37363601D01*
X13072497Y-37409013D01*
X13100274Y-37463529D01*
X13100486Y-37493104D01*
X13093457Y-37542000D01*
X13092953Y-37545503D01*
X13113434Y-37687956D01*
X13161878Y-37794031D01*
X13173223Y-37818873D01*
X13267472Y-37927643D01*
X13267473Y-37927644D01*
X13342177Y-37975653D01*
X13388547Y-38005453D01*
X13495003Y-38036711D01*
X13526635Y-38045999D01*
X13526636Y-38045999D01*
X13526639Y-38046000D01*
X13526641Y-38046000D01*
X13670559Y-38046000D01*
X13670561Y-38046000D01*
X13808653Y-38005453D01*
X13929728Y-37927643D01*
X14023977Y-37818873D01*
X14083765Y-37687957D01*
X14093172Y-37622529D01*
X14104247Y-37545502D01*
X14104247Y-37545495D01*
X14092471Y-37463587D01*
X14102905Y-37403298D01*
X14146783Y-37360656D01*
X14190463Y-37350499D01*
X14579861Y-37350499D01*
X14579864Y-37350499D01*
X14604991Y-37347585D01*
X14707765Y-37302206D01*
X14709784Y-37300185D01*
X14713411Y-37298337D01*
X14715334Y-37297021D01*
X14715505Y-37297270D01*
X14764298Y-37272406D01*
X14824731Y-37281974D01*
X14867998Y-37325236D01*
X14869844Y-37329059D01*
X14870664Y-37330854D01*
X14871723Y-37333173D01*
X14945577Y-37418406D01*
X14965973Y-37441944D01*
X15084056Y-37517831D01*
X15087047Y-37519753D01*
X15188800Y-37549630D01*
X15225135Y-37560299D01*
X15225136Y-37560299D01*
X15225139Y-37560300D01*
X15225141Y-37560300D01*
X15306400Y-37560300D01*
X15364591Y-37579207D01*
X15400555Y-37628707D01*
X15405400Y-37659300D01*
X15405400Y-49048086D01*
X15386493Y-49106277D01*
X15336993Y-49142241D01*
X15275807Y-49142241D01*
X15236396Y-49118090D01*
X14046870Y-47928564D01*
X14019093Y-47874047D01*
X14017874Y-47858560D01*
X14017874Y-41031403D01*
X14017873Y-41031394D01*
X14012035Y-40977091D01*
X14000649Y-40924749D01*
X13993413Y-40898372D01*
X13944082Y-40811741D01*
X13897589Y-40758085D01*
X13864813Y-40726459D01*
X13864811Y-40726458D01*
X13864810Y-40726457D01*
X13776479Y-40680252D01*
X13776471Y-40680248D01*
X13708363Y-40660251D01*
X13708361Y-40660250D01*
X13708356Y-40660249D01*
X13708353Y-40660248D01*
X13708347Y-40660247D01*
X13636379Y-40649900D01*
X13636374Y-40649900D01*
X5839400Y-40649900D01*
X5803194Y-40653792D01*
X5785089Y-40655739D01*
X5785076Y-40655741D01*
X5783424Y-40656101D01*
X5783075Y-40656066D01*
X5782471Y-40656164D01*
X5782444Y-40656002D01*
X5722545Y-40649982D01*
X5676890Y-40609249D01*
X5663400Y-40559359D01*
X5663400Y-37852222D01*
X5682307Y-37794031D01*
X5692390Y-37782224D01*
X6274614Y-37200000D01*
X6587934Y-37200000D01*
X6599833Y-37275142D01*
X6599834Y-37275145D01*
X6657359Y-37388044D01*
X6746956Y-37477641D01*
X6859848Y-37535163D01*
X6859852Y-37535164D01*
X6953515Y-37549999D01*
X7060000Y-37549999D01*
X7060000Y-37200001D01*
X7360000Y-37200001D01*
X7360000Y-37549998D01*
X7360001Y-37549999D01*
X7466483Y-37549999D01*
X7466485Y-37549998D01*
X7560141Y-37535166D01*
X7560151Y-37535163D01*
X7673043Y-37477641D01*
X7762641Y-37388043D01*
X7820163Y-37275151D01*
X7820164Y-37275147D01*
X7832067Y-37200000D01*
X7360001Y-37200000D01*
X7360000Y-37200001D01*
X7060000Y-37200001D01*
X7059999Y-37200000D01*
X6587934Y-37200000D01*
X6274614Y-37200000D01*
X6545620Y-36928994D01*
X6600135Y-36901219D01*
X6615622Y-36900000D01*
X7832065Y-36900000D01*
X7832066Y-36899999D01*
X7820166Y-36824857D01*
X7820165Y-36824854D01*
X7762640Y-36711955D01*
X7746260Y-36695575D01*
X7718483Y-36641058D01*
X7725701Y-36585582D01*
X7732585Y-36569991D01*
X7735500Y-36544865D01*
X7735499Y-36255136D01*
X7732585Y-36230009D01*
X7687206Y-36127235D01*
X7687205Y-36127234D01*
X7683500Y-36118843D01*
X7685875Y-36117794D01*
X7672462Y-36072261D01*
X7685526Y-36032051D01*
X7683500Y-36031157D01*
X7687204Y-36022766D01*
X7687206Y-36022765D01*
X7732585Y-35919991D01*
X7735500Y-35894865D01*
X7735499Y-35690476D01*
X7754406Y-35632287D01*
X7764489Y-35620480D01*
X7784969Y-35600000D01*
X8487933Y-35600000D01*
X8959999Y-35600000D01*
X8960000Y-35599999D01*
X8960000Y-35250000D01*
X8853517Y-35250000D01*
X8853514Y-35250001D01*
X8759858Y-35264833D01*
X8759848Y-35264836D01*
X8646956Y-35322358D01*
X8557358Y-35411956D01*
X8499836Y-35524848D01*
X8499835Y-35524852D01*
X8487933Y-35600000D01*
X7784969Y-35600000D01*
X7941760Y-35443211D01*
X7954128Y-35421789D01*
X7981321Y-35374689D01*
X8001800Y-35298262D01*
X8001800Y-34775538D01*
X8001800Y-33496708D01*
X8020707Y-33438517D01*
X8070207Y-33402553D01*
X8100726Y-33397709D01*
X9285436Y-33396909D01*
X9343637Y-33415777D01*
X9379634Y-33465253D01*
X9384500Y-33495909D01*
X9384500Y-33828049D01*
X9365593Y-33886240D01*
X9339024Y-33911333D01*
X9328872Y-33917857D01*
X9234622Y-34026628D01*
X9174834Y-34157543D01*
X9154353Y-34299997D01*
X9154353Y-34300002D01*
X9174834Y-34442456D01*
X9226811Y-34556268D01*
X9234623Y-34573373D01*
X9328872Y-34682143D01*
X9336963Y-34687343D01*
X9339022Y-34688666D01*
X9377754Y-34736032D01*
X9384500Y-34771951D01*
X9384500Y-35151000D01*
X9365593Y-35209191D01*
X9316093Y-35245155D01*
X9285500Y-35250000D01*
X9260001Y-35250000D01*
X9260000Y-35250001D01*
X9260000Y-35801000D01*
X9241093Y-35859191D01*
X9191593Y-35895155D01*
X9161000Y-35900000D01*
X8487934Y-35900000D01*
X8499833Y-35975142D01*
X8499834Y-35975145D01*
X8557359Y-36088044D01*
X8573739Y-36104424D01*
X8601516Y-36158941D01*
X8594301Y-36214414D01*
X8587414Y-36230011D01*
X8584500Y-36255130D01*
X8584500Y-36544859D01*
X8584501Y-36544864D01*
X8587414Y-36569990D01*
X8602933Y-36605136D01*
X8631062Y-36668843D01*
X8636500Y-36681157D01*
X8634126Y-36682205D01*
X8647537Y-36727757D01*
X8634477Y-36767949D01*
X8636500Y-36768843D01*
X8632794Y-36777234D01*
X8632794Y-36777235D01*
X8606471Y-36836852D01*
X8587414Y-36880011D01*
X8584500Y-36905130D01*
X8584500Y-37194859D01*
X8584501Y-37194864D01*
X8587414Y-37219990D01*
X8600886Y-37250500D01*
X8632794Y-37322765D01*
X8712235Y-37402206D01*
X8815009Y-37447585D01*
X8840135Y-37450500D01*
X9379864Y-37450499D01*
X9404991Y-37447585D01*
X9507765Y-37402206D01*
X9528874Y-37381096D01*
X9583388Y-37353319D01*
X9643820Y-37362890D01*
X9668880Y-37381096D01*
X9701794Y-37414009D01*
X9728742Y-37440957D01*
X9830000Y-37482900D01*
X10247254Y-37482900D01*
X10305445Y-37501807D01*
X10322071Y-37517066D01*
X10359532Y-37560299D01*
X10384873Y-37589544D01*
X10493416Y-37659300D01*
X10505947Y-37667353D01*
X10576119Y-37687957D01*
X10644035Y-37707899D01*
X10644036Y-37707899D01*
X10644039Y-37707900D01*
X10644041Y-37707900D01*
X10787959Y-37707900D01*
X10787961Y-37707900D01*
X10926053Y-37667353D01*
X11047128Y-37589543D01*
X11141377Y-37480773D01*
X11201165Y-37349857D01*
X11215450Y-37250500D01*
X11221647Y-37207402D01*
X11221647Y-37207397D01*
X11206205Y-37100000D01*
X11787934Y-37100000D01*
X11799833Y-37175142D01*
X11799834Y-37175145D01*
X11857359Y-37288044D01*
X11946956Y-37377641D01*
X12059848Y-37435163D01*
X12059852Y-37435164D01*
X12153515Y-37449999D01*
X12260000Y-37449999D01*
X12260000Y-37100001D01*
X12259999Y-37100000D01*
X11787934Y-37100000D01*
X11206205Y-37100000D01*
X11201165Y-37064943D01*
X11185977Y-37031686D01*
X11141377Y-36934027D01*
X11047128Y-36825257D01*
X11047127Y-36825256D01*
X11047126Y-36825255D01*
X10926057Y-36747449D01*
X10926054Y-36747447D01*
X10926053Y-36747447D01*
X10926050Y-36747446D01*
X10787964Y-36706900D01*
X10787961Y-36706900D01*
X10644039Y-36706900D01*
X10644038Y-36706900D01*
X10644030Y-36706901D01*
X10624278Y-36712701D01*
X10563118Y-36710953D01*
X10514666Y-36673589D01*
X10497429Y-36614882D01*
X10507300Y-36580140D01*
X10505238Y-36579286D01*
X10507720Y-36573293D01*
X10507720Y-36573290D01*
X10507722Y-36573288D01*
X10528200Y-36496862D01*
X10528200Y-36417738D01*
X10528200Y-33495004D01*
X10547107Y-33436813D01*
X10596607Y-33400849D01*
X10627126Y-33396005D01*
X11091435Y-33395691D01*
X11149637Y-33414559D01*
G37*
%TD.AperFunction*%
%TA.AperFunction,Conductor*%
G36*
X30211947Y-33401701D02*
G01*
X30223814Y-33411829D01*
X30985504Y-34173519D01*
X31013281Y-34228036D01*
X31014500Y-34243523D01*
X31014500Y-35122696D01*
X30995593Y-35180887D01*
X30946093Y-35216851D01*
X30884907Y-35216851D01*
X30835407Y-35180887D01*
X30824935Y-35162684D01*
X30787206Y-35077235D01*
X30707765Y-34997794D01*
X30604991Y-34952415D01*
X30604990Y-34952414D01*
X30604988Y-34952414D01*
X30579869Y-34949500D01*
X30579865Y-34949500D01*
X30362728Y-34949500D01*
X30362727Y-34949500D01*
X30257273Y-34949500D01*
X30257270Y-34949500D01*
X30040138Y-34949500D01*
X30040135Y-34949501D01*
X30015009Y-34952414D01*
X29912235Y-34997794D01*
X29832794Y-35077235D01*
X29787414Y-35180011D01*
X29784500Y-35205130D01*
X29784500Y-35494859D01*
X29784501Y-35494869D01*
X29788266Y-35527337D01*
X29776187Y-35587318D01*
X29739426Y-35624475D01*
X29644085Y-35679520D01*
X29569519Y-35754086D01*
X29569520Y-35754087D01*
X29569518Y-35754089D01*
X28994496Y-36329110D01*
X28952384Y-36354096D01*
X28829947Y-36390047D01*
X28829942Y-36390049D01*
X28708873Y-36467855D01*
X28614622Y-36576628D01*
X28554834Y-36707543D01*
X28534353Y-36849997D01*
X28534353Y-36850002D01*
X28554834Y-36992456D01*
X28600185Y-37091759D01*
X28614623Y-37123373D01*
X28703116Y-37225500D01*
X28708873Y-37232144D01*
X28817892Y-37302206D01*
X28829947Y-37309953D01*
X28915809Y-37335164D01*
X28968035Y-37350499D01*
X28968036Y-37350499D01*
X28968039Y-37350500D01*
X28968041Y-37350500D01*
X29111959Y-37350500D01*
X29111961Y-37350500D01*
X29250053Y-37309953D01*
X29371128Y-37232143D01*
X29465377Y-37123373D01*
X29525165Y-36992457D01*
X29530757Y-36953559D01*
X29557751Y-36898654D01*
X29558612Y-36897779D01*
X29563457Y-36892934D01*
X29617970Y-36865160D01*
X29678402Y-36874731D01*
X29721666Y-36917995D01*
X29757358Y-36988043D01*
X29846956Y-37077641D01*
X29959848Y-37135163D01*
X29959852Y-37135164D01*
X30053515Y-37149999D01*
X30160000Y-37149999D01*
X30160000Y-36599000D01*
X30178907Y-36540809D01*
X30228407Y-36504845D01*
X30259000Y-36500000D01*
X30361000Y-36500000D01*
X30419191Y-36518907D01*
X30455155Y-36568407D01*
X30460000Y-36599000D01*
X30460000Y-37149998D01*
X30460001Y-37149999D01*
X30566483Y-37149999D01*
X30566485Y-37149998D01*
X30660141Y-37135166D01*
X30660151Y-37135163D01*
X30773043Y-37077641D01*
X30862641Y-36988043D01*
X30920163Y-36875151D01*
X30920164Y-36875147D01*
X30924686Y-36846602D01*
X30952463Y-36792085D01*
X31006980Y-36764308D01*
X31067412Y-36773879D01*
X31092469Y-36792085D01*
X31143741Y-36843357D01*
X31183943Y-36883559D01*
X31294208Y-36929232D01*
X31293252Y-36931539D01*
X31334346Y-36954547D01*
X31359968Y-37010109D01*
X31348037Y-37070120D01*
X31331659Y-37091759D01*
X30391108Y-38032312D01*
X30336591Y-38060090D01*
X30321104Y-38061309D01*
X29150907Y-38061309D01*
X29041307Y-38061309D01*
X28940049Y-38103252D01*
X24526338Y-42516963D01*
X24471821Y-42544740D01*
X24456334Y-42545959D01*
X22590778Y-42545959D01*
X22521293Y-42574741D01*
X22521292Y-42574741D01*
X22489521Y-42587900D01*
X19961491Y-45115929D01*
X19906974Y-45143706D01*
X19846542Y-45134135D01*
X19803277Y-45090870D01*
X19798043Y-45078623D01*
X19787005Y-45047079D01*
X19708241Y-44940360D01*
X19708239Y-44940358D01*
X19686614Y-44924398D01*
X19651022Y-44874630D01*
X19651480Y-44813446D01*
X19671884Y-44780430D01*
X19671856Y-44780411D01*
X19672197Y-44779922D01*
X19675402Y-44774737D01*
X19676824Y-44773316D01*
X19727572Y-44664487D01*
X19734100Y-44614901D01*
X19734099Y-44255100D01*
X19727572Y-44205513D01*
X19727572Y-44205511D01*
X19693751Y-44132982D01*
X19686294Y-44072253D01*
X19691171Y-44055352D01*
X19715642Y-43992243D01*
X19721429Y-43977316D01*
X19760095Y-43929898D01*
X19785841Y-43918118D01*
X19813653Y-43909953D01*
X19934728Y-43832143D01*
X20028977Y-43723373D01*
X20088765Y-43592457D01*
X20109247Y-43450000D01*
X20108992Y-43448228D01*
X20088765Y-43307543D01*
X20028977Y-43176628D01*
X20028977Y-43176627D01*
X19934728Y-43067857D01*
X19934727Y-43067856D01*
X19934726Y-43067855D01*
X19813657Y-42990049D01*
X19813654Y-42990047D01*
X19813653Y-42990047D01*
X19813650Y-42990046D01*
X19675564Y-42949500D01*
X19675561Y-42949500D01*
X19531639Y-42949500D01*
X19531635Y-42949500D01*
X19393549Y-42990046D01*
X19393542Y-42990049D01*
X19272473Y-43067855D01*
X19178222Y-43176628D01*
X19118434Y-43307543D01*
X19097953Y-43449997D01*
X19097953Y-43450002D01*
X19118434Y-43592456D01*
X19159293Y-43681923D01*
X19166268Y-43742710D01*
X19161544Y-43758841D01*
X19110186Y-43891291D01*
X19071520Y-43938710D01*
X19017895Y-43954500D01*
X19013710Y-43954500D01*
X19013692Y-43954501D01*
X18964113Y-43961027D01*
X18964111Y-43961028D01*
X18876210Y-44002017D01*
X18815481Y-44009474D01*
X18761967Y-43979811D01*
X18736109Y-43924358D01*
X18744320Y-43871162D01*
X18747565Y-43864057D01*
X18765012Y-43742710D01*
X18768047Y-43721602D01*
X18768047Y-43721597D01*
X18747565Y-43579143D01*
X18687777Y-43448227D01*
X18593528Y-43339457D01*
X18593527Y-43339456D01*
X18593526Y-43339455D01*
X18472457Y-43261649D01*
X18472454Y-43261647D01*
X18472453Y-43261647D01*
X18472450Y-43261646D01*
X18334364Y-43221100D01*
X18334361Y-43221100D01*
X18190439Y-43221100D01*
X18190435Y-43221100D01*
X18055291Y-43260782D01*
X17994131Y-43259034D01*
X17945678Y-43221671D01*
X17928400Y-43165792D01*
X17928400Y-42087222D01*
X17947307Y-42029031D01*
X17957390Y-42017224D01*
X23074614Y-36900000D01*
X23387934Y-36900000D01*
X23399833Y-36975142D01*
X23399834Y-36975145D01*
X23457359Y-37088044D01*
X23546956Y-37177641D01*
X23659848Y-37235163D01*
X23659852Y-37235164D01*
X23753515Y-37249999D01*
X23860000Y-37249999D01*
X23860000Y-36900001D01*
X23859999Y-36900000D01*
X23387934Y-36900000D01*
X23074614Y-36900000D01*
X23345620Y-36628994D01*
X23400135Y-36601219D01*
X23415622Y-36600000D01*
X24061000Y-36600000D01*
X24119191Y-36618907D01*
X24155155Y-36668407D01*
X24160000Y-36699000D01*
X24160000Y-37249998D01*
X24160001Y-37249999D01*
X24266483Y-37249999D01*
X24266485Y-37249998D01*
X24360141Y-37235166D01*
X24360151Y-37235163D01*
X24473043Y-37177641D01*
X24562641Y-37088043D01*
X24620163Y-36975151D01*
X24620164Y-36975147D01*
X24634999Y-36881485D01*
X24634999Y-36866271D01*
X24653903Y-36808079D01*
X24703401Y-36772113D01*
X24764587Y-36772110D01*
X24787518Y-36782980D01*
X24871347Y-36836853D01*
X24971537Y-36866271D01*
X25009435Y-36877399D01*
X25009436Y-36877399D01*
X25009439Y-36877400D01*
X25009441Y-36877400D01*
X25153359Y-36877400D01*
X25153361Y-36877400D01*
X25262466Y-36845364D01*
X25323625Y-36847111D01*
X25372078Y-36884474D01*
X25385883Y-36914362D01*
X25387413Y-36919987D01*
X25391391Y-36928996D01*
X25432794Y-37022765D01*
X25512235Y-37102206D01*
X25615009Y-37147585D01*
X25640135Y-37150500D01*
X26179864Y-37150499D01*
X26204991Y-37147585D01*
X26307765Y-37102206D01*
X26387206Y-37022765D01*
X26432585Y-36919991D01*
X26435500Y-36894865D01*
X26435499Y-36605136D01*
X26432585Y-36580009D01*
X26387206Y-36477235D01*
X26387205Y-36477234D01*
X26383500Y-36468843D01*
X26385875Y-36467794D01*
X26372462Y-36422261D01*
X26385526Y-36382051D01*
X26383500Y-36381157D01*
X26387204Y-36372766D01*
X26387206Y-36372765D01*
X26432585Y-36269991D01*
X26432585Y-36269985D01*
X26434540Y-36262805D01*
X26437334Y-36263565D01*
X26457432Y-36219650D01*
X26494301Y-36194434D01*
X26860733Y-36051347D01*
X26871115Y-36047941D01*
X26887989Y-36043421D01*
X26896021Y-36038782D01*
X26909515Y-36032298D01*
X26918155Y-36028926D01*
X26932233Y-36018571D01*
X26941366Y-36012603D01*
X26956511Y-36003860D01*
X26963073Y-35997297D01*
X26974419Y-35987549D01*
X26981898Y-35982050D01*
X26992814Y-35968408D01*
X27000096Y-35960273D01*
X27012460Y-35947911D01*
X27017103Y-35939867D01*
X27025544Y-35927511D01*
X27031337Y-35920275D01*
X27038355Y-35904262D01*
X27043283Y-35894521D01*
X27052021Y-35879389D01*
X27054420Y-35870430D01*
X27059380Y-35856298D01*
X27059902Y-35855105D01*
X27063102Y-35847808D01*
X27065735Y-35830541D01*
X27067979Y-35819834D01*
X27072499Y-35802964D01*
X27072500Y-35802964D01*
X27072500Y-35793680D01*
X27073631Y-35778757D01*
X27074199Y-35775029D01*
X27075029Y-35769589D01*
X27073103Y-35752224D01*
X27072500Y-35741311D01*
X27072500Y-33483845D01*
X27091407Y-33425654D01*
X27140907Y-33389690D01*
X27171427Y-33384845D01*
X30153747Y-33382834D01*
X30211947Y-33401701D01*
G37*
%TD.AperFunction*%
%TA.AperFunction,Conductor*%
G36*
X17319191Y-36718907D02*
G01*
X17355155Y-36768407D01*
X17360000Y-36799000D01*
X17360000Y-37349998D01*
X17360001Y-37349999D01*
X17437200Y-37349999D01*
X17495391Y-37368906D01*
X17531355Y-37418406D01*
X17536200Y-37448999D01*
X17536200Y-38342776D01*
X17517293Y-38400967D01*
X17507204Y-38412780D01*
X16125404Y-39794580D01*
X16070887Y-39822357D01*
X16010455Y-39812786D01*
X15967190Y-39769521D01*
X15956400Y-39724576D01*
X15956400Y-37576022D01*
X15975307Y-37517831D01*
X15985396Y-37506019D01*
X16209441Y-37281974D01*
X16441523Y-37049891D01*
X16496038Y-37022115D01*
X16556470Y-37031686D01*
X16599734Y-37074951D01*
X16657357Y-37188042D01*
X16746956Y-37277641D01*
X16859848Y-37335163D01*
X16859852Y-37335164D01*
X16953515Y-37349999D01*
X17060000Y-37349999D01*
X17060000Y-36799000D01*
X17078907Y-36740809D01*
X17128407Y-36704845D01*
X17159000Y-36700000D01*
X17261000Y-36700000D01*
X17319191Y-36718907D01*
G37*
%TD.AperFunction*%
%TA.AperFunction,Conductor*%
G36*
X14148441Y-33412536D02*
G01*
X14180357Y-33451540D01*
X14187221Y-33466570D01*
X14187222Y-33466571D01*
X14187223Y-33466573D01*
X14243402Y-33531407D01*
X14281473Y-33575344D01*
X14391720Y-33646195D01*
X14402547Y-33653153D01*
X14513391Y-33685699D01*
X14563898Y-33720234D01*
X14584460Y-33777861D01*
X14584500Y-33780689D01*
X14584500Y-35051000D01*
X14565593Y-35109191D01*
X14516093Y-35145155D01*
X14485500Y-35150000D01*
X14460001Y-35150000D01*
X14460000Y-35150001D01*
X14460000Y-35701000D01*
X14441093Y-35759191D01*
X14391593Y-35795155D01*
X14361000Y-35800000D01*
X13687934Y-35800000D01*
X13699833Y-35875142D01*
X13699834Y-35875145D01*
X13757359Y-35988044D01*
X13773739Y-36004424D01*
X13801516Y-36058941D01*
X13794301Y-36114413D01*
X13792740Y-36117949D01*
X13787414Y-36130011D01*
X13784500Y-36155130D01*
X13784500Y-36444859D01*
X13784501Y-36444864D01*
X13787414Y-36469990D01*
X13800886Y-36500500D01*
X13831569Y-36569991D01*
X13836500Y-36581157D01*
X13834126Y-36582205D01*
X13847537Y-36627757D01*
X13834477Y-36667949D01*
X13836500Y-36668843D01*
X13832794Y-36677234D01*
X13832794Y-36677235D01*
X13801792Y-36747449D01*
X13787414Y-36780011D01*
X13784500Y-36805130D01*
X13784500Y-36947129D01*
X13765593Y-37005320D01*
X13716093Y-37041284D01*
X13677642Y-37044588D01*
X13677642Y-37045000D01*
X13672852Y-37045000D01*
X13671421Y-37045123D01*
X13670565Y-37045000D01*
X13670561Y-37045000D01*
X13528724Y-37045000D01*
X13470533Y-37026093D01*
X13458720Y-37016004D01*
X13266196Y-36823480D01*
X13238419Y-36768963D01*
X13237200Y-36753476D01*
X13237200Y-36245200D01*
X13230908Y-36230011D01*
X13195257Y-36143942D01*
X13117758Y-36066443D01*
X13016500Y-36024500D01*
X13016499Y-36024500D01*
X12994219Y-36024500D01*
X12936028Y-36005593D01*
X12900064Y-35956093D01*
X12900064Y-35894907D01*
X12903649Y-35885524D01*
X12932585Y-35819991D01*
X12935500Y-35794865D01*
X12935499Y-35590477D01*
X12954406Y-35532288D01*
X12964487Y-35520483D01*
X12984971Y-35500000D01*
X13687933Y-35500000D01*
X14159999Y-35500000D01*
X14160000Y-35499999D01*
X14160000Y-35150000D01*
X14053517Y-35150000D01*
X14053514Y-35150001D01*
X13959858Y-35164833D01*
X13959848Y-35164836D01*
X13846956Y-35222358D01*
X13757358Y-35311956D01*
X13699836Y-35424848D01*
X13699835Y-35424852D01*
X13687933Y-35500000D01*
X12984971Y-35500000D01*
X12994660Y-35490311D01*
X12994663Y-35490306D01*
X12995091Y-35489565D01*
X12995100Y-35489547D01*
X13034221Y-35421789D01*
X13034222Y-35421788D01*
X13054699Y-35345364D01*
X13054700Y-35345362D01*
X13054700Y-34204120D01*
X13073607Y-34145929D01*
X13100179Y-34120835D01*
X13118523Y-34109046D01*
X13118522Y-34109046D01*
X13118528Y-34109043D01*
X13212777Y-34000273D01*
X13272565Y-33869357D01*
X13281698Y-33805838D01*
X13293047Y-33726902D01*
X13293047Y-33726897D01*
X13272565Y-33584443D01*
X13249666Y-33534301D01*
X13242691Y-33473514D01*
X13272777Y-33420237D01*
X13328433Y-33394819D01*
X13339626Y-33394175D01*
X14090240Y-33393669D01*
X14148441Y-33412536D01*
G37*
%TD.AperFunction*%
%TA.AperFunction,Conductor*%
G36*
X19992137Y-33408594D02*
G01*
X20028134Y-33458070D01*
X20033000Y-33488726D01*
X20033000Y-35836021D01*
X20014093Y-35894212D01*
X20004004Y-35906024D01*
X19803057Y-36106970D01*
X19748542Y-36134747D01*
X19688110Y-36125176D01*
X19644845Y-36081911D01*
X19634714Y-36048369D01*
X19634664Y-36047940D01*
X19632585Y-36030009D01*
X19630153Y-36024500D01*
X19625701Y-36014417D01*
X19619492Y-35953547D01*
X19646263Y-35904423D01*
X19662639Y-35888047D01*
X19720164Y-35775149D01*
X19720164Y-35775147D01*
X19732067Y-35700000D01*
X19059000Y-35700000D01*
X19000809Y-35681093D01*
X18964845Y-35631593D01*
X18960000Y-35601000D01*
X18960000Y-35050001D01*
X19260000Y-35050001D01*
X19260000Y-35399999D01*
X19260001Y-35400000D01*
X19732065Y-35400000D01*
X19732066Y-35399999D01*
X19720166Y-35324857D01*
X19720165Y-35324854D01*
X19662640Y-35211955D01*
X19573043Y-35122358D01*
X19460151Y-35064836D01*
X19460147Y-35064835D01*
X19366484Y-35050000D01*
X19260001Y-35050000D01*
X19260000Y-35050001D01*
X18960000Y-35050001D01*
X18960000Y-35050000D01*
X18934500Y-35050000D01*
X18876309Y-35031093D01*
X18840345Y-34981593D01*
X18835500Y-34951000D01*
X18835500Y-33489401D01*
X18854407Y-33431210D01*
X18903907Y-33395246D01*
X18934428Y-33390401D01*
X19933937Y-33389727D01*
X19992137Y-33408594D01*
G37*
%TD.AperFunction*%
%TA.AperFunction,Conductor*%
G36*
X26430637Y-33404252D02*
G01*
X26466634Y-33453728D01*
X26471500Y-33484384D01*
X26471500Y-34910971D01*
X26452593Y-34969162D01*
X26403093Y-35005126D01*
X26341907Y-35005126D01*
X26327555Y-34999181D01*
X26260148Y-34964835D01*
X26166484Y-34950000D01*
X26060001Y-34950000D01*
X26060000Y-34950001D01*
X26060000Y-35501000D01*
X26041093Y-35559191D01*
X25991593Y-35595155D01*
X25961000Y-35600000D01*
X25287934Y-35600000D01*
X25299833Y-35675142D01*
X25299835Y-35675148D01*
X25314689Y-35704301D01*
X25324260Y-35764733D01*
X25296482Y-35819249D01*
X25264366Y-35840709D01*
X25229540Y-35855135D01*
X25202242Y-35866442D01*
X25202241Y-35866442D01*
X25196396Y-35868864D01*
X25158509Y-35876400D01*
X25009435Y-35876400D01*
X24871349Y-35916946D01*
X24871342Y-35916949D01*
X24750272Y-35994756D01*
X24750270Y-35994758D01*
X24709318Y-36042020D01*
X24656922Y-36073616D01*
X24595962Y-36068380D01*
X24549721Y-36028313D01*
X24535499Y-35977189D01*
X24535499Y-35955140D01*
X24535499Y-35955136D01*
X24532585Y-35930009D01*
X24487206Y-35827235D01*
X24487205Y-35827234D01*
X24483500Y-35818843D01*
X24485875Y-35817794D01*
X24472462Y-35772261D01*
X24485526Y-35732051D01*
X24483500Y-35731157D01*
X24487204Y-35722766D01*
X24487206Y-35722765D01*
X24532585Y-35619991D01*
X24535500Y-35594865D01*
X24535499Y-35305136D01*
X24534903Y-35300000D01*
X25287933Y-35300000D01*
X25759999Y-35300000D01*
X25760000Y-35299999D01*
X25760000Y-34950000D01*
X25653517Y-34950000D01*
X25653514Y-34950001D01*
X25559858Y-34964833D01*
X25559848Y-34964836D01*
X25446956Y-35022358D01*
X25357358Y-35111956D01*
X25299836Y-35224848D01*
X25299835Y-35224852D01*
X25287933Y-35300000D01*
X24534903Y-35300000D01*
X24532585Y-35280009D01*
X24487206Y-35177235D01*
X24407765Y-35097794D01*
X24304991Y-35052415D01*
X24304990Y-35052414D01*
X24304988Y-35052414D01*
X24279869Y-35049500D01*
X24279865Y-35049500D01*
X24075479Y-35049500D01*
X24017288Y-35030593D01*
X24005475Y-35020504D01*
X23215496Y-34230525D01*
X23187719Y-34176008D01*
X23186500Y-34160521D01*
X23186500Y-34092351D01*
X23205407Y-34034160D01*
X23231978Y-34009066D01*
X23234439Y-34007484D01*
X23242128Y-34002543D01*
X23336377Y-33893773D01*
X23396165Y-33762857D01*
X23411938Y-33653153D01*
X23416647Y-33620402D01*
X23416647Y-33620397D01*
X23399396Y-33500412D01*
X23409829Y-33440123D01*
X23453707Y-33397480D01*
X23497316Y-33387324D01*
X26372435Y-33385384D01*
X26430637Y-33404252D01*
G37*
%TD.AperFunction*%
%TD*%
%TA.AperFunction,Conductor*%
%TO.N,GND*%
G36*
X67186367Y-4349349D02*
G01*
X67253301Y-4369386D01*
X67298777Y-4422430D01*
X67309713Y-4473635D01*
X67260285Y-25776934D01*
X67240445Y-25843927D01*
X67187535Y-25889560D01*
X67136934Y-25900644D01*
X50970321Y-25985285D01*
X50903180Y-25965952D01*
X50857149Y-25913388D01*
X50846843Y-25844283D01*
X50875535Y-25780576D01*
X50881967Y-25773631D01*
X52536090Y-24119586D01*
X53207801Y-24119586D01*
X53218294Y-24222297D01*
X53273441Y-24388719D01*
X53273443Y-24388724D01*
X53365484Y-24537945D01*
X53489454Y-24661915D01*
X53638675Y-24753956D01*
X53638680Y-24753958D01*
X53805102Y-24809105D01*
X53805109Y-24809106D01*
X53907819Y-24819599D01*
X54182799Y-24819599D01*
X54682800Y-24819599D01*
X54957772Y-24819599D01*
X54957786Y-24819598D01*
X55060497Y-24809105D01*
X55226919Y-24753958D01*
X55226924Y-24753956D01*
X55376145Y-24661915D01*
X55500115Y-24537945D01*
X55592156Y-24388724D01*
X55592158Y-24388719D01*
X55638840Y-24247844D01*
X62060000Y-24247844D01*
X62066401Y-24307372D01*
X62066403Y-24307379D01*
X62116645Y-24442086D01*
X62116649Y-24442093D01*
X62202809Y-24557187D01*
X62202812Y-24557190D01*
X62317906Y-24643350D01*
X62317913Y-24643354D01*
X62452620Y-24693596D01*
X62452627Y-24693598D01*
X62512155Y-24699999D01*
X62512172Y-24700000D01*
X64210000Y-24700000D01*
X64710000Y-24700000D01*
X66407828Y-24700000D01*
X66407844Y-24699999D01*
X66467372Y-24693598D01*
X66467379Y-24693596D01*
X66602086Y-24643354D01*
X66602093Y-24643350D01*
X66717187Y-24557190D01*
X66717190Y-24557187D01*
X66803350Y-24442093D01*
X66803354Y-24442086D01*
X66853596Y-24307379D01*
X66853598Y-24307372D01*
X66859999Y-24247844D01*
X66860000Y-24247827D01*
X66860000Y-23450000D01*
X64710000Y-23450000D01*
X64710000Y-24700000D01*
X64210000Y-24700000D01*
X64210000Y-23450000D01*
X62060000Y-23450000D01*
X62060000Y-24247844D01*
X55638840Y-24247844D01*
X55647305Y-24222297D01*
X55647306Y-24222290D01*
X55657799Y-24119586D01*
X55657800Y-24119573D01*
X55657800Y-24069600D01*
X54682800Y-24069600D01*
X54682800Y-24819599D01*
X54182799Y-24819599D01*
X54182800Y-24819598D01*
X54182800Y-24069600D01*
X53207801Y-24069600D01*
X53207801Y-24119586D01*
X52536090Y-24119586D01*
X53059274Y-23596427D01*
X53120595Y-23562945D01*
X53190286Y-23567931D01*
X53192883Y-23569600D01*
X55657799Y-23569600D01*
X55657799Y-23519628D01*
X55657798Y-23519613D01*
X55647305Y-23416902D01*
X55592158Y-23250480D01*
X55592156Y-23250475D01*
X55500115Y-23101254D01*
X55376145Y-22977284D01*
X55226924Y-22885243D01*
X55226919Y-22885241D01*
X55058717Y-22829505D01*
X55001272Y-22789733D01*
X54974449Y-22725217D01*
X54986764Y-22656441D01*
X55034307Y-22605241D01*
X55056766Y-22594758D01*
X55120682Y-22572393D01*
X55229950Y-22491750D01*
X55310593Y-22382482D01*
X55333019Y-22318390D01*
X55355446Y-22254301D01*
X55355446Y-22254299D01*
X55358300Y-22223869D01*
X55358300Y-22152155D01*
X62060000Y-22152155D01*
X62060000Y-22950000D01*
X64210000Y-22950000D01*
X64710000Y-22950000D01*
X66860000Y-22950000D01*
X66860000Y-22152172D01*
X66859999Y-22152155D01*
X66853598Y-22092627D01*
X66853596Y-22092620D01*
X66803354Y-21957913D01*
X66803350Y-21957906D01*
X66717190Y-21842812D01*
X66717187Y-21842809D01*
X66602093Y-21756649D01*
X66602086Y-21756645D01*
X66467379Y-21706403D01*
X66467372Y-21706401D01*
X66407844Y-21700000D01*
X64710000Y-21700000D01*
X64710000Y-22950000D01*
X64210000Y-22950000D01*
X64210000Y-21700000D01*
X62512155Y-21700000D01*
X62452627Y-21706401D01*
X62452620Y-21706403D01*
X62317913Y-21756645D01*
X62317906Y-21756649D01*
X62202812Y-21842809D01*
X62202809Y-21842812D01*
X62116649Y-21957906D01*
X62116645Y-21957913D01*
X62066403Y-22092620D01*
X62066401Y-22092627D01*
X62060000Y-22152155D01*
X55358300Y-22152155D01*
X55358300Y-21615330D01*
X55355446Y-21584900D01*
X55355446Y-21584898D01*
X55310593Y-21456719D01*
X55310592Y-21456717D01*
X55229950Y-21347450D01*
X55120682Y-21266807D01*
X55120680Y-21266806D01*
X54993545Y-21222319D01*
X54936769Y-21181597D01*
X54911022Y-21116644D01*
X54910500Y-21105278D01*
X54910500Y-19751096D01*
X59010000Y-19751096D01*
X59012897Y-19793824D01*
X59058831Y-19978523D01*
X59143390Y-20149022D01*
X59143392Y-20149025D01*
X59262632Y-20297366D01*
X59262633Y-20297367D01*
X59410974Y-20416607D01*
X59410977Y-20416609D01*
X59581476Y-20501168D01*
X59766175Y-20547102D01*
X59808903Y-20550000D01*
X60260000Y-20550000D01*
X60760000Y-20550000D01*
X61211097Y-20550000D01*
X61253824Y-20547102D01*
X61438523Y-20501168D01*
X61609022Y-20416609D01*
X61609025Y-20416607D01*
X61757366Y-20297367D01*
X61757367Y-20297366D01*
X61876607Y-20149025D01*
X61876609Y-20149022D01*
X61961168Y-19978523D01*
X62007102Y-19793824D01*
X62010000Y-19751096D01*
X62010000Y-19550000D01*
X60760000Y-19550000D01*
X60760000Y-20550000D01*
X60260000Y-20550000D01*
X60260000Y-19550000D01*
X59010000Y-19550000D01*
X59010000Y-19751096D01*
X54910500Y-19751096D01*
X54910500Y-19162485D01*
X54930185Y-19095446D01*
X54982989Y-19049691D01*
X54997609Y-19044100D01*
X54999606Y-19043478D01*
X55145185Y-18955472D01*
X55265472Y-18835185D01*
X55353478Y-18689606D01*
X55404086Y-18527196D01*
X55410500Y-18456616D01*
X55410500Y-17824500D01*
X55430185Y-17757461D01*
X55482989Y-17711706D01*
X55534500Y-17700500D01*
X59348213Y-17700500D01*
X59415252Y-17720185D01*
X59446588Y-17749013D01*
X59474545Y-17785447D01*
X59474547Y-17785448D01*
X59474549Y-17785451D01*
X59594767Y-17877698D01*
X59594769Y-17877698D01*
X59601215Y-17882645D01*
X59600347Y-17883775D01*
X59642507Y-17927987D01*
X59655732Y-17996594D01*
X59629766Y-18061459D01*
X59587388Y-18095899D01*
X59410974Y-18183392D01*
X59262633Y-18302632D01*
X59262632Y-18302633D01*
X59143392Y-18450974D01*
X59143390Y-18450977D01*
X59058831Y-18621476D01*
X59012897Y-18806175D01*
X59010000Y-18848903D01*
X59010000Y-19050000D01*
X62010000Y-19050000D01*
X62010000Y-18848903D01*
X62007102Y-18806175D01*
X61961168Y-18621476D01*
X61876609Y-18450977D01*
X61876607Y-18450974D01*
X61757367Y-18302633D01*
X61757366Y-18302632D01*
X61614118Y-18187486D01*
X62485001Y-18187486D01*
X62495494Y-18290197D01*
X62550641Y-18456619D01*
X62550643Y-18456624D01*
X62642684Y-18605845D01*
X62766654Y-18729815D01*
X62915875Y-18821856D01*
X62915880Y-18821858D01*
X63082302Y-18877005D01*
X63082309Y-18877006D01*
X63185019Y-18887499D01*
X63459999Y-18887499D01*
X63960000Y-18887499D01*
X64234972Y-18887499D01*
X64234986Y-18887498D01*
X64337697Y-18877005D01*
X64504119Y-18821858D01*
X64504124Y-18821856D01*
X64653345Y-18729815D01*
X64777315Y-18605845D01*
X64869356Y-18456624D01*
X64869358Y-18456619D01*
X64924505Y-18290197D01*
X64924506Y-18290190D01*
X64934999Y-18187486D01*
X64935000Y-18187473D01*
X64935000Y-18137500D01*
X63960000Y-18137500D01*
X63960000Y-18887499D01*
X63459999Y-18887499D01*
X63460000Y-18887498D01*
X63460000Y-18137500D01*
X62485001Y-18137500D01*
X62485001Y-18187486D01*
X61614118Y-18187486D01*
X61609025Y-18183392D01*
X61432611Y-18095899D01*
X61381299Y-18048478D01*
X61363770Y-17980843D01*
X61385589Y-17914468D01*
X61419311Y-17883331D01*
X61418785Y-17882645D01*
X61425230Y-17877698D01*
X61425233Y-17877698D01*
X61545451Y-17785451D01*
X61637698Y-17665233D01*
X61695687Y-17525236D01*
X61710500Y-17412720D01*
X61710500Y-16587280D01*
X61695687Y-16474764D01*
X61637698Y-16334767D01*
X61545451Y-16214549D01*
X61425233Y-16122302D01*
X61425229Y-16122300D01*
X61347638Y-16090161D01*
X61285236Y-16064313D01*
X61271171Y-16062461D01*
X61172727Y-16049500D01*
X61172720Y-16049500D01*
X59847280Y-16049500D01*
X59847272Y-16049500D01*
X59734764Y-16064313D01*
X59734763Y-16064313D01*
X59594770Y-16122300D01*
X59474545Y-16214552D01*
X59446588Y-16250987D01*
X59390160Y-16292189D01*
X59348213Y-16299500D01*
X55534500Y-16299500D01*
X55467461Y-16279815D01*
X55421706Y-16227011D01*
X55410500Y-16175500D01*
X55410500Y-15543386D01*
X55408795Y-15524619D01*
X55404086Y-15472804D01*
X55353478Y-15310394D01*
X55265472Y-15164815D01*
X55265470Y-15164813D01*
X55265469Y-15164811D01*
X55145188Y-15044530D01*
X54999606Y-14956522D01*
X54837196Y-14905914D01*
X54837194Y-14905913D01*
X54837192Y-14905913D01*
X54787778Y-14901423D01*
X54766616Y-14899500D01*
X53653384Y-14899500D01*
X53634145Y-14901248D01*
X53582807Y-14905913D01*
X53420393Y-14956522D01*
X53274811Y-15044530D01*
X53154530Y-15164811D01*
X53066522Y-15310393D01*
X53015913Y-15472807D01*
X53009500Y-15543386D01*
X53009500Y-16263000D01*
X52989815Y-16330039D01*
X52937011Y-16375794D01*
X52885500Y-16387000D01*
X51818335Y-16387000D01*
X51777379Y-16380041D01*
X51769698Y-16377353D01*
X51769699Y-16377353D01*
X51739270Y-16374500D01*
X51739266Y-16374500D01*
X50680734Y-16374500D01*
X50680730Y-16374500D01*
X50650300Y-16377353D01*
X50650298Y-16377353D01*
X50522119Y-16422206D01*
X50522117Y-16422207D01*
X50412850Y-16502850D01*
X50332207Y-16612117D01*
X50332206Y-16612119D01*
X50287353Y-16740298D01*
X50287353Y-16740300D01*
X50284500Y-16770730D01*
X50284500Y-17379269D01*
X50287353Y-17409699D01*
X50287353Y-17409701D01*
X50327782Y-17525236D01*
X50332207Y-17537882D01*
X50412850Y-17647150D01*
X50522118Y-17727793D01*
X50586033Y-17750158D01*
X50642807Y-17790878D01*
X50668555Y-17855830D01*
X50655099Y-17924392D01*
X50606712Y-17974795D01*
X50584082Y-17984904D01*
X50415878Y-18040642D01*
X50415875Y-18040643D01*
X50266654Y-18132684D01*
X50142684Y-18256654D01*
X50050643Y-18405875D01*
X50050641Y-18405880D01*
X49995494Y-18572302D01*
X49995493Y-18572309D01*
X49985000Y-18675013D01*
X49985000Y-18725000D01*
X52434999Y-18725000D01*
X52434999Y-18675028D01*
X52434998Y-18675013D01*
X52424505Y-18572302D01*
X52369358Y-18405880D01*
X52369356Y-18405875D01*
X52277315Y-18256654D01*
X52153345Y-18132684D01*
X52004124Y-18040643D01*
X52004119Y-18040641D01*
X51971118Y-18029706D01*
X51913673Y-17989933D01*
X51886850Y-17925418D01*
X51899165Y-17856642D01*
X51946708Y-17805442D01*
X52010122Y-17788000D01*
X52885500Y-17788000D01*
X52952539Y-17807685D01*
X52998294Y-17860489D01*
X53009500Y-17912000D01*
X53009500Y-18456616D01*
X53009501Y-18456624D01*
X53015913Y-18527192D01*
X53066522Y-18689606D01*
X53154530Y-18835188D01*
X53274811Y-18955469D01*
X53274813Y-18955470D01*
X53274815Y-18955472D01*
X53420394Y-19043478D01*
X53422386Y-19044098D01*
X53423663Y-19044949D01*
X53427235Y-19046557D01*
X53426967Y-19047150D01*
X53480535Y-19082833D01*
X53508511Y-19146857D01*
X53509500Y-19162485D01*
X53509500Y-21183606D01*
X53489815Y-21250645D01*
X53437011Y-21296400D01*
X53432953Y-21298167D01*
X53401193Y-21311322D01*
X53338907Y-21352940D01*
X53338906Y-21352940D01*
X53286479Y-21387969D01*
X53286473Y-21387973D01*
X53286470Y-21387976D01*
X53286464Y-21387981D01*
X53286458Y-21387986D01*
X53286455Y-21387988D01*
X53286452Y-21387991D01*
X53286443Y-21387999D01*
X53243832Y-21430611D01*
X53243830Y-21430613D01*
X49013461Y-25660783D01*
X49013457Y-25660785D01*
X49013458Y-25660786D01*
X48979856Y-25694387D01*
X48915894Y-25758346D01*
X48915879Y-25758367D01*
X48881507Y-25809807D01*
X48881507Y-25809809D01*
X48839233Y-25873074D01*
X48839228Y-25873081D01*
X48839227Y-25873084D01*
X48839221Y-25873097D01*
X48819545Y-25920598D01*
X48775703Y-25975001D01*
X48709409Y-25997065D01*
X48705634Y-25997142D01*
X48285511Y-25999342D01*
X48218370Y-25980009D01*
X48172339Y-25927445D01*
X48160865Y-25874491D01*
X48206379Y-19274986D01*
X49985001Y-19274986D01*
X49995494Y-19377697D01*
X50050641Y-19544119D01*
X50050643Y-19544124D01*
X50142684Y-19693345D01*
X50266654Y-19817315D01*
X50415875Y-19909356D01*
X50415880Y-19909358D01*
X50582302Y-19964505D01*
X50582309Y-19964506D01*
X50685019Y-19974999D01*
X50959999Y-19974999D01*
X51460000Y-19974999D01*
X51734972Y-19974999D01*
X51734986Y-19974998D01*
X51837697Y-19964505D01*
X52004119Y-19909358D01*
X52004124Y-19909356D01*
X52153345Y-19817315D01*
X52277315Y-19693345D01*
X52369356Y-19544124D01*
X52369358Y-19544119D01*
X52424505Y-19377697D01*
X52424506Y-19377690D01*
X52434999Y-19274986D01*
X52435000Y-19274973D01*
X52435000Y-19225000D01*
X51460000Y-19225000D01*
X51460000Y-19974999D01*
X50959999Y-19974999D01*
X50960000Y-19974998D01*
X50960000Y-19225000D01*
X49985001Y-19225000D01*
X49985001Y-19274986D01*
X48206379Y-19274986D01*
X48224323Y-16673141D01*
X48291217Y-6973645D01*
X48311363Y-6906743D01*
X48364482Y-6861353D01*
X48415214Y-6850500D01*
X49881324Y-6850500D01*
X49948363Y-6870185D01*
X49969005Y-6886819D01*
X50610969Y-7528782D01*
X50642136Y-7585861D01*
X50642847Y-7585654D01*
X50643789Y-7588888D01*
X50644454Y-7590105D01*
X50644915Y-7592750D01*
X50645501Y-7594760D01*
X50692150Y-7694799D01*
X50770201Y-7772850D01*
X50870240Y-7819499D01*
X50904537Y-7824014D01*
X50950352Y-7839566D01*
X50996814Y-7866392D01*
X51124107Y-7900500D01*
X51124109Y-7900500D01*
X51255890Y-7900500D01*
X51255892Y-7900500D01*
X51383186Y-7866392D01*
X51429651Y-7839564D01*
X51475462Y-7824013D01*
X51509760Y-7819499D01*
X51609799Y-7772850D01*
X51687850Y-7694799D01*
X51734499Y-7594760D01*
X51740500Y-7549179D01*
X51740499Y-7250822D01*
X51734499Y-7205240D01*
X51687850Y-7105201D01*
X51609799Y-7027150D01*
X51509760Y-6980501D01*
X51509758Y-6980500D01*
X51500648Y-6977845D01*
X51501445Y-6975108D01*
X51451381Y-6952961D01*
X51443782Y-6945969D01*
X51316808Y-6818995D01*
X52489499Y-6818995D01*
X52516418Y-6954322D01*
X52516421Y-6954332D01*
X52569221Y-7081804D01*
X52569228Y-7081817D01*
X52645885Y-7196541D01*
X52645888Y-7196545D01*
X52743454Y-7294111D01*
X52743458Y-7294114D01*
X52858182Y-7370771D01*
X52858195Y-7370778D01*
X52985667Y-7423578D01*
X52985672Y-7423580D01*
X52985676Y-7423580D01*
X52985677Y-7423581D01*
X53121004Y-7450500D01*
X53121007Y-7450500D01*
X57698481Y-7450500D01*
X57765520Y-7470185D01*
X57786162Y-7486819D01*
X58001681Y-7702338D01*
X58035166Y-7763661D01*
X58037403Y-7777865D01*
X58053975Y-7946129D01*
X58053976Y-7946132D01*
X58101729Y-8103553D01*
X58111188Y-8134733D01*
X58204086Y-8308532D01*
X58204090Y-8308539D01*
X58270189Y-8389079D01*
X58311353Y-8439238D01*
X58338666Y-8503546D01*
X58339500Y-8517902D01*
X58339500Y-13161006D01*
X58339500Y-13298994D01*
X58339500Y-13298996D01*
X58339499Y-13298996D01*
X58366418Y-13434322D01*
X58366421Y-13434332D01*
X58419222Y-13561807D01*
X58495887Y-13676545D01*
X58495888Y-13676546D01*
X59273181Y-14453838D01*
X59306666Y-14515161D01*
X59309500Y-14541519D01*
X59309500Y-15112727D01*
X59324313Y-15225235D01*
X59324313Y-15225236D01*
X59369657Y-15334707D01*
X59382302Y-15365233D01*
X59474549Y-15485451D01*
X59594767Y-15577698D01*
X59734764Y-15635687D01*
X59847280Y-15650500D01*
X59847287Y-15650500D01*
X61172713Y-15650500D01*
X61172720Y-15650500D01*
X61285236Y-15635687D01*
X61425233Y-15577698D01*
X61545451Y-15485451D01*
X61555156Y-15472804D01*
X61573412Y-15449013D01*
X61629840Y-15407811D01*
X61671787Y-15400500D01*
X62068481Y-15400500D01*
X62135520Y-15420185D01*
X62156162Y-15436819D01*
X62748181Y-16028838D01*
X62781666Y-16090161D01*
X62784500Y-16116519D01*
X62784500Y-16291769D01*
X62787353Y-16322199D01*
X62787353Y-16322201D01*
X62822348Y-16422207D01*
X62832207Y-16450382D01*
X62912850Y-16559650D01*
X63022118Y-16640293D01*
X63086033Y-16662658D01*
X63142807Y-16703378D01*
X63168555Y-16768330D01*
X63155099Y-16836892D01*
X63106712Y-16887295D01*
X63084082Y-16897404D01*
X62915878Y-16953142D01*
X62915875Y-16953143D01*
X62766654Y-17045184D01*
X62642684Y-17169154D01*
X62550643Y-17318375D01*
X62550641Y-17318380D01*
X62495494Y-17484802D01*
X62495493Y-17484809D01*
X62485000Y-17587513D01*
X62485000Y-17637500D01*
X64934999Y-17637500D01*
X64934999Y-17587528D01*
X64934998Y-17587513D01*
X64924505Y-17484802D01*
X64869358Y-17318380D01*
X64869356Y-17318375D01*
X64777315Y-17169154D01*
X64653345Y-17045184D01*
X64504124Y-16953143D01*
X64504119Y-16953141D01*
X64335917Y-16897405D01*
X64278472Y-16857633D01*
X64251649Y-16793117D01*
X64263964Y-16724341D01*
X64311507Y-16673141D01*
X64333966Y-16662658D01*
X64333972Y-16662656D01*
X64397882Y-16640293D01*
X64507150Y-16559650D01*
X64587793Y-16450382D01*
X64614345Y-16374500D01*
X64632646Y-16322201D01*
X64632646Y-16322199D01*
X64635500Y-16291769D01*
X64635500Y-15683230D01*
X64632646Y-15652800D01*
X64632646Y-15652798D01*
X64587793Y-15524619D01*
X64587792Y-15524617D01*
X64507150Y-15415350D01*
X64397882Y-15334707D01*
X64397880Y-15334706D01*
X64269700Y-15289853D01*
X64239270Y-15287000D01*
X64239266Y-15287000D01*
X64039019Y-15287000D01*
X63971980Y-15267315D01*
X63951338Y-15250681D01*
X62856546Y-14155888D01*
X62856545Y-14155887D01*
X62741807Y-14079222D01*
X62614332Y-14026421D01*
X62614322Y-14026418D01*
X62478996Y-13999500D01*
X62478994Y-13999500D01*
X62478993Y-13999500D01*
X61671787Y-13999500D01*
X61604748Y-13979815D01*
X61573412Y-13950987D01*
X61545454Y-13914552D01*
X61545452Y-13914550D01*
X61545451Y-13914549D01*
X61425233Y-13822302D01*
X61425229Y-13822300D01*
X61361801Y-13796027D01*
X61285236Y-13764313D01*
X61271171Y-13762461D01*
X61172727Y-13749500D01*
X61172720Y-13749500D01*
X60601519Y-13749500D01*
X60534480Y-13729815D01*
X60513838Y-13713181D01*
X59776819Y-12976162D01*
X59743334Y-12914839D01*
X59740500Y-12888481D01*
X59740500Y-8517902D01*
X59760185Y-8450863D01*
X59768642Y-8439242D01*
X59875910Y-8308538D01*
X59935893Y-8196317D01*
X59968812Y-8134731D01*
X59968812Y-8134730D01*
X59968814Y-8134727D01*
X60017146Y-7975396D01*
X60055443Y-7916960D01*
X60119255Y-7888504D01*
X60188322Y-7899064D01*
X60240716Y-7945288D01*
X60255581Y-7979300D01*
X60313731Y-8196320D01*
X60313735Y-8196331D01*
X60409863Y-8402478D01*
X60460974Y-8475472D01*
X61140000Y-7796446D01*
X61140000Y-7802661D01*
X61167259Y-7904394D01*
X61219920Y-7995606D01*
X61294394Y-8070080D01*
X61385606Y-8122741D01*
X61487339Y-8150000D01*
X61493553Y-8150000D01*
X60814526Y-8829025D01*
X60887513Y-8880132D01*
X60887521Y-8880136D01*
X61093668Y-8976264D01*
X61093682Y-8976269D01*
X61313389Y-9035139D01*
X61313400Y-9035141D01*
X61539998Y-9054966D01*
X61540002Y-9054966D01*
X61766599Y-9035141D01*
X61766610Y-9035139D01*
X61986317Y-8976269D01*
X61986331Y-8976264D01*
X62192478Y-8880136D01*
X62265471Y-8829024D01*
X61586447Y-8150000D01*
X61592661Y-8150000D01*
X61694394Y-8122741D01*
X61785606Y-8070080D01*
X61860080Y-7995606D01*
X61912741Y-7904394D01*
X61940000Y-7802661D01*
X61940000Y-7796447D01*
X62619024Y-8475471D01*
X62670136Y-8402478D01*
X62766264Y-8196331D01*
X62766269Y-8196317D01*
X62825139Y-7976610D01*
X62825141Y-7976599D01*
X62844966Y-7750002D01*
X62844966Y-7749997D01*
X62825141Y-7523400D01*
X62825139Y-7523389D01*
X62766269Y-7303682D01*
X62766264Y-7303668D01*
X62670136Y-7097521D01*
X62670132Y-7097513D01*
X62619025Y-7024526D01*
X61940000Y-7703551D01*
X61940000Y-7697339D01*
X61912741Y-7595606D01*
X61860080Y-7504394D01*
X61785606Y-7429920D01*
X61694394Y-7377259D01*
X61592661Y-7350000D01*
X61586448Y-7350000D01*
X62265472Y-6670974D01*
X62192478Y-6619863D01*
X61986331Y-6523735D01*
X61986317Y-6523730D01*
X61766610Y-6464860D01*
X61766599Y-6464858D01*
X61540002Y-6445034D01*
X61539998Y-6445034D01*
X61313400Y-6464858D01*
X61313389Y-6464860D01*
X61093682Y-6523730D01*
X61093673Y-6523734D01*
X60887516Y-6619866D01*
X60887512Y-6619868D01*
X60814526Y-6670973D01*
X60814526Y-6670974D01*
X61493553Y-7350000D01*
X61487339Y-7350000D01*
X61385606Y-7377259D01*
X61294394Y-7429920D01*
X61219920Y-7504394D01*
X61167259Y-7595606D01*
X61140000Y-7697339D01*
X61140000Y-7703552D01*
X60460974Y-7024526D01*
X60460973Y-7024526D01*
X60409868Y-7097512D01*
X60409866Y-7097516D01*
X60313734Y-7303673D01*
X60313731Y-7303680D01*
X60255581Y-7520699D01*
X60219216Y-7580359D01*
X60156369Y-7610888D01*
X60086993Y-7602593D01*
X60033115Y-7558108D01*
X60017146Y-7524603D01*
X59968814Y-7365273D01*
X59968812Y-7365270D01*
X59968812Y-7365268D01*
X59875913Y-7191467D01*
X59875909Y-7191460D01*
X59750883Y-7039116D01*
X59598539Y-6914090D01*
X59598532Y-6914086D01*
X59424733Y-6821188D01*
X59424727Y-6821186D01*
X59236132Y-6763976D01*
X59236129Y-6763975D01*
X59067865Y-6747403D01*
X59003078Y-6721242D01*
X58992338Y-6711681D01*
X58486546Y-6205888D01*
X58486545Y-6205887D01*
X58371807Y-6129222D01*
X58244332Y-6076421D01*
X58244322Y-6076418D01*
X58108996Y-6049500D01*
X58108994Y-6049500D01*
X58108993Y-6049500D01*
X53121007Y-6049500D01*
X53121005Y-6049500D01*
X52985677Y-6076418D01*
X52985667Y-6076421D01*
X52858195Y-6129221D01*
X52858182Y-6129228D01*
X52743458Y-6205885D01*
X52743454Y-6205888D01*
X52645888Y-6303454D01*
X52645885Y-6303458D01*
X52569228Y-6418182D01*
X52569221Y-6418195D01*
X52516421Y-6545667D01*
X52516418Y-6545677D01*
X52489500Y-6681004D01*
X52489500Y-6681007D01*
X52489500Y-6818993D01*
X52489500Y-6818995D01*
X52489499Y-6818995D01*
X51316808Y-6818995D01*
X51283481Y-6785668D01*
X51249996Y-6724345D01*
X51254980Y-6654653D01*
X51296852Y-6598720D01*
X51339066Y-6578213D01*
X51383186Y-6566392D01*
X51429654Y-6539563D01*
X51475463Y-6524013D01*
X51509760Y-6519499D01*
X51609799Y-6472850D01*
X51687850Y-6394799D01*
X51734499Y-6294760D01*
X51740500Y-6249179D01*
X51740499Y-5950822D01*
X51734499Y-5905240D01*
X51687850Y-5805201D01*
X51609799Y-5727150D01*
X51509760Y-5680501D01*
X51509758Y-5680500D01*
X51500648Y-5677845D01*
X51501445Y-5675108D01*
X51451379Y-5652958D01*
X51443783Y-5645969D01*
X50497316Y-4699502D01*
X50497314Y-4699500D01*
X50440250Y-4666554D01*
X50383187Y-4633608D01*
X50319539Y-4616554D01*
X50255892Y-4599500D01*
X48432448Y-4599500D01*
X48365409Y-4579815D01*
X48319654Y-4527011D01*
X48308451Y-4474645D01*
X48309146Y-4373794D01*
X48329292Y-4306892D01*
X48382410Y-4261502D01*
X48433793Y-4250651D01*
X67186367Y-4349349D01*
G37*
%TD.AperFunction*%
%TD*%
M02*
