%TF.GenerationSoftware,KiCad,Pcbnew,8.0.0-rc2*%
%TF.CreationDate,2024-01-29T17:44:33-08:00*%
%TF.ProjectId,fluke_884x_continuity_buzzer,666c756b-655f-4383-9834-785f636f6e74,REV1*%
%TF.SameCoordinates,Original*%
%TF.FileFunction,Copper,L4,Bot*%
%TF.FilePolarity,Positive*%
%FSLAX46Y46*%
G04 Gerber Fmt 4.6, Leading zero omitted, Abs format (unit mm)*
G04 Created by KiCad (PCBNEW 8.0.0-rc2) date 2024-01-29 17:44:33*
%MOMM*%
%LPD*%
G01*
G04 APERTURE LIST*
%TA.AperFunction,ComponentPad*%
%ADD10O,1.550000X0.890000*%
%TD*%
%TA.AperFunction,ComponentPad*%
%ADD11O,0.950000X1.250000*%
%TD*%
%TA.AperFunction,ComponentPad*%
%ADD12R,1.700000X1.700000*%
%TD*%
%TA.AperFunction,ComponentPad*%
%ADD13O,1.700000X1.700000*%
%TD*%
%TA.AperFunction,ComponentPad*%
%ADD14C,0.600000*%
%TD*%
%TA.AperFunction,ComponentPad*%
%ADD15R,2.000000X2.000000*%
%TD*%
%TA.AperFunction,ComponentPad*%
%ADD16C,2.000000*%
%TD*%
%TA.AperFunction,ComponentPad*%
%ADD17C,1.000000*%
%TD*%
%TA.AperFunction,ComponentPad*%
%ADD18R,1.600000X1.600000*%
%TD*%
%TA.AperFunction,ComponentPad*%
%ADD19O,1.600000X1.600000*%
%TD*%
%TA.AperFunction,ViaPad*%
%ADD20C,0.600000*%
%TD*%
%TA.AperFunction,Conductor*%
%ADD21C,0.600000*%
%TD*%
%TA.AperFunction,Conductor*%
%ADD22C,0.200000*%
%TD*%
%TA.AperFunction,Conductor*%
%ADD23C,0.400000*%
%TD*%
%TA.AperFunction,Conductor*%
%ADD24C,0.300000*%
%TD*%
G04 APERTURE END LIST*
D10*
%TO.P,J3,6,Shield*%
%TO.N,GND*%
X65990000Y-64537500D03*
D11*
X63290000Y-63537500D03*
X63290000Y-58537500D03*
D10*
X65990000Y-57537500D03*
%TD*%
D12*
%TO.P,J2,1,Pin_1*%
%TO.N,/~{USB_BOOT}*%
X37860000Y-53825000D03*
D13*
%TO.P,J2,2,Pin_2*%
%TO.N,GND*%
X37860000Y-56365000D03*
%TD*%
D14*
%TO.P,U3,57,GND*%
%TO.N,GND*%
X18473800Y-58640400D03*
X17198800Y-58640400D03*
X15923800Y-58640400D03*
X18473800Y-59915400D03*
X17198800Y-59915400D03*
X15923800Y-59915400D03*
X18473800Y-61190400D03*
X17198800Y-61190400D03*
X15923800Y-61190400D03*
%TD*%
D15*
%TO.P,LS1,1,1*%
%TO.N,/GPIO28_ADC2*%
X57240000Y-48750000D03*
D16*
%TO.P,LS1,2,2*%
%TO.N,/GPIO29_ADC3*%
X47240000Y-48750000D03*
%TD*%
D17*
%TO.P,TP3,1,1*%
%TO.N,/GPIO27_ADC1*%
X24990000Y-68950000D03*
%TD*%
D18*
%TO.P,P204,1,Pin_1*%
%TO.N,/PDP*%
X22860000Y-6350000D03*
D19*
%TO.P,P204,2,Pin_2*%
%TO.N,/PS1*%
X20320000Y-6350000D03*
%TO.P,P204,3,Pin_3*%
%TO.N,/Pd*%
X17780000Y-6350000D03*
%TO.P,P204,4,Pin_4*%
%TO.N,/Pe*%
X15240000Y-6350000D03*
%TO.P,P204,5,Pin_5*%
%TO.N,/Pf*%
X12700000Y-6350000D03*
%TO.P,P204,6,Pin_6*%
%TO.N,/Pg*%
X10160000Y-6350000D03*
%TO.P,P204,7,Pin_7*%
%TO.N,/PS3*%
X7620000Y-6350000D03*
%TO.P,P204,8,Pin_8*%
%TO.N,/PS2*%
X5080000Y-6350000D03*
%TO.P,P204,9,Pin_9*%
%TO.N,/Pb*%
X5080000Y-13970000D03*
%TO.P,P204,10,Pin_10*%
%TO.N,/Pa*%
X7620000Y-13970000D03*
%TO.P,P204,11,Pin_11*%
%TO.N,/Pc*%
X10160000Y-13970000D03*
%TO.P,P204,12,Pin_12*%
%TO.N,/G0*%
X12700000Y-13970000D03*
%TO.P,P204,13,Pin_13*%
%TO.N,/G1*%
X15240000Y-13970000D03*
%TO.P,P204,14,Pin_14*%
%TO.N,/G4*%
X17780000Y-13970000D03*
%TO.P,P204,15,Pin_15*%
%TO.N,/G3*%
X20320000Y-13970000D03*
%TO.P,P204,16,Pin_16*%
%TO.N,/G2*%
X22860000Y-13970000D03*
%TD*%
D18*
%TO.P,J204,1,Pin_1*%
%TO.N,/PDP*%
X22860000Y-20320000D03*
D19*
%TO.P,J204,2,Pin_2*%
%TO.N,/PS1*%
X20320000Y-20320000D03*
%TO.P,J204,3,Pin_3*%
%TO.N,/Pd*%
X17780000Y-20320000D03*
%TO.P,J204,4,Pin_4*%
%TO.N,/Pe*%
X15240000Y-20320000D03*
%TO.P,J204,5,Pin_5*%
%TO.N,/Pf*%
X12700000Y-20320000D03*
%TO.P,J204,6,Pin_6*%
%TO.N,/Pg*%
X10160000Y-20320000D03*
%TO.P,J204,7,Pin_7*%
%TO.N,/PS3*%
X7620000Y-20320000D03*
%TO.P,J204,8,Pin_8*%
%TO.N,/PS2*%
X5080000Y-20320000D03*
%TO.P,J204,9,Pin_9*%
%TO.N,/Pb*%
X5080000Y-27940000D03*
%TO.P,J204,10,Pin_10*%
%TO.N,/Pa*%
X7620000Y-27940000D03*
%TO.P,J204,11,Pin_11*%
%TO.N,/Pc*%
X10160000Y-27940000D03*
%TO.P,J204,12,Pin_12*%
%TO.N,/G0*%
X12700000Y-27940000D03*
%TO.P,J204,13,Pin_13*%
%TO.N,/G1*%
X15240000Y-27940000D03*
%TO.P,J204,14,Pin_14*%
%TO.N,/G4*%
X17780000Y-27940000D03*
%TO.P,J204,15,Pin_15*%
%TO.N,/G3*%
X20320000Y-27940000D03*
%TO.P,J204,16,Pin_16*%
%TO.N,/G2*%
X22860000Y-27940000D03*
%TD*%
D18*
%TO.P,J203,1,Pin_1*%
%TO.N,/F1*%
X45720000Y-20320000D03*
D19*
%TO.P,J203,2,Pin_2*%
%TO.N,/F2*%
X43180000Y-20320000D03*
%TO.P,J203,3,Pin_3*%
%TO.N,/S2*%
X40640000Y-20320000D03*
%TO.P,J203,4,Pin_4*%
%TO.N,/S1*%
X38100000Y-20320000D03*
%TO.P,J203,5,Pin_5*%
%TO.N,/S0*%
X35560000Y-20320000D03*
%TO.P,J203,6,Pin_6*%
%TO.N,/G5*%
X33020000Y-20320000D03*
%TO.P,J203,7,Pin_7*%
%TO.N,/G7*%
X30480000Y-20320000D03*
%TO.P,J203,8,Pin_8*%
%TO.N,/G6*%
X27940000Y-20320000D03*
%TO.P,J203,9,Pin_9*%
%TO.N,/RL0*%
X27940000Y-27940000D03*
%TO.P,J203,10,Pin_10*%
%TO.N,/RL1*%
X30480000Y-27940000D03*
%TO.P,J203,11,Pin_11*%
%TO.N,/RL6*%
X33020000Y-27940000D03*
%TO.P,J203,12,Pin_12*%
%TO.N,/RL4*%
X35560000Y-27940000D03*
%TO.P,J203,13,Pin_13*%
%TO.N,/RL2*%
X38100000Y-27940000D03*
%TO.P,J203,14,Pin_14*%
%TO.N,/RL5*%
X40640000Y-27940000D03*
%TO.P,J203,15,Pin_15*%
%TO.N,/RL3*%
X43180000Y-27940000D03*
%TO.P,J203,16,Pin_16*%
%TO.N,GND*%
X45720000Y-27940000D03*
%TD*%
D17*
%TO.P,TP1,1,1*%
%TO.N,GND*%
X64460000Y-23200000D03*
%TD*%
%TO.P,TP2,1,1*%
%TO.N,/GPIO26_ADC0*%
X21940000Y-68950000D03*
%TD*%
D18*
%TO.P,P203,1,Pin_1*%
%TO.N,/F1*%
X45720000Y-6350000D03*
D19*
%TO.P,P203,2,Pin_2*%
%TO.N,/F2*%
X43180000Y-6350000D03*
%TO.P,P203,3,Pin_3*%
%TO.N,/S2*%
X40640000Y-6350000D03*
%TO.P,P203,4,Pin_4*%
%TO.N,/S1*%
X38100000Y-6350000D03*
%TO.P,P203,5,Pin_5*%
%TO.N,/S0*%
X35560000Y-6350000D03*
%TO.P,P203,6,Pin_6*%
%TO.N,/G5*%
X33020000Y-6350000D03*
%TO.P,P203,7,Pin_7*%
%TO.N,/G7*%
X30480000Y-6350000D03*
%TO.P,P203,8,Pin_8*%
%TO.N,/G6*%
X27940000Y-6350000D03*
%TO.P,P203,9,Pin_9*%
%TO.N,/RL0*%
X27940000Y-13970000D03*
%TO.P,P203,10,Pin_10*%
%TO.N,/RL1*%
X30480000Y-13970000D03*
%TO.P,P203,11,Pin_11*%
%TO.N,/RL6*%
X33020000Y-13970000D03*
%TO.P,P203,12,Pin_12*%
%TO.N,/RL4*%
X35560000Y-13970000D03*
%TO.P,P203,13,Pin_13*%
%TO.N,/RL2*%
X38100000Y-13970000D03*
%TO.P,P203,14,Pin_14*%
%TO.N,/RL5*%
X40640000Y-13970000D03*
%TO.P,P203,15,Pin_15*%
%TO.N,/RL3*%
X43180000Y-13970000D03*
%TO.P,P203,16,Pin_16*%
%TO.N,GND*%
X45720000Y-13970000D03*
%TD*%
D20*
%TO.N,GND*%
X9860000Y-68800000D03*
X25998800Y-58915400D03*
X5798800Y-58705400D03*
X57060000Y-23600000D03*
X16340000Y-52050000D03*
X25998800Y-59915400D03*
X8210300Y-60677400D03*
X58460000Y-22100000D03*
X24998800Y-62915400D03*
X5798800Y-56715400D03*
X4298800Y-57805400D03*
X24998800Y-63915400D03*
X2667000Y-50005400D03*
X5798800Y-65405400D03*
X59760000Y-23600000D03*
X2098800Y-65405400D03*
X5798800Y-50005400D03*
X9416800Y-61415400D03*
X58460000Y-23600000D03*
X9860000Y-67800000D03*
X15760000Y-66800000D03*
X61260000Y-23600000D03*
X27999000Y-50715400D03*
X8198800Y-55089400D03*
X59760000Y-22100000D03*
X61140000Y-59737500D03*
X10242300Y-59470900D03*
X63315200Y-56437500D03*
X34399000Y-54615400D03*
X57060000Y-22100000D03*
X9416800Y-60296400D03*
X61260000Y-22100000D03*
X20560000Y-53400000D03*
X10369300Y-56994400D03*
X63315200Y-65637500D03*
X62209800Y-19000000D03*
%TO.N,+3V3*%
X17235000Y-38300000D03*
X2060000Y-38400000D03*
X49460000Y-37200000D03*
X24160000Y-38400000D03*
X12995000Y-67700000D03*
X49460000Y-39500000D03*
X8460000Y-34600000D03*
X24860000Y-34200000D03*
X38132500Y-38027500D03*
X14681200Y-58978800D03*
X14833600Y-62280800D03*
X30360000Y-38100000D03*
X12460000Y-38300000D03*
X19160000Y-34000000D03*
X39160000Y-34500000D03*
X7360000Y-38400000D03*
X49460000Y-35900000D03*
X32210000Y-34250000D03*
X22656800Y-60265400D03*
X14160000Y-34200000D03*
X49460000Y-38400000D03*
%TO.N,+1V1*%
X19298800Y-60615400D03*
X21998800Y-59715400D03*
X11998800Y-60715400D03*
X15098800Y-60515400D03*
%TO.N,G0_3V*%
X16690000Y-65850000D03*
X15860000Y-43800000D03*
%TO.N,G1_3V*%
X16690000Y-66750000D03*
X15360000Y-38800000D03*
%TO.N,PA_3V*%
X11260000Y-62700000D03*
X13719488Y-46764116D03*
%TO.N,PB_3V*%
X9560000Y-62800000D03*
X12410000Y-49100000D03*
%TO.N,PC_3V*%
X12760000Y-62100000D03*
X15760000Y-46400000D03*
%TO.N,PE_3V*%
X18090000Y-66150000D03*
X14660000Y-39200000D03*
%TO.N,PG_3V*%
X12089177Y-62435411D03*
X9660000Y-34300000D03*
%TO.N,PS2_3V*%
X8560000Y-62800000D03*
X11860000Y-50400000D03*
%TO.N,PS3_3V*%
X12960000Y-47700000D03*
X10360000Y-62700000D03*
%TO.N,/GPIO29_ADC3*%
X51590000Y-64600000D03*
%TO.N,/GPIO28_ADC2*%
X52990000Y-65200000D03*
%TO.N,PF_3V*%
X15960000Y-45100000D03*
X16690000Y-65050000D03*
%TD*%
D21*
%TO.N,GND*%
X63315200Y-65637500D02*
X63315200Y-56437500D01*
D22*
%TO.N,+3V3*%
X38132500Y-38027500D02*
X39160000Y-37000000D01*
X24860000Y-34200000D02*
X24160000Y-34900000D01*
X19160000Y-36375000D02*
X19160000Y-34000000D01*
X7360000Y-38400000D02*
X8460000Y-37300000D01*
X12460000Y-35900000D02*
X12460000Y-38300000D01*
X8460000Y-37300000D02*
X8460000Y-34600000D01*
X32210000Y-34250000D02*
X30360000Y-36100000D01*
X24160000Y-34900000D02*
X24160000Y-38400000D01*
X39160000Y-34500000D02*
X39160000Y-37000000D01*
X17235000Y-38300000D02*
X19160000Y-36375000D01*
X30360000Y-36100000D02*
X30360000Y-38100000D01*
X14160000Y-34200000D02*
X12460000Y-35900000D01*
D23*
%TO.N,+1V1*%
X11998800Y-60715400D02*
X12208800Y-60505400D01*
X12208800Y-60505400D02*
X15088900Y-60505400D01*
X21998800Y-59715400D02*
X20188800Y-59715400D01*
X19298800Y-60605400D02*
X19298800Y-60615400D01*
X15098800Y-60515400D02*
X15098800Y-61284639D01*
X18753800Y-61840400D02*
X19298800Y-61295400D01*
X19298800Y-61295400D02*
X19298800Y-60615400D01*
X15654561Y-61840400D02*
X18753800Y-61840400D01*
X15088900Y-60505400D02*
X15098800Y-60515400D01*
X20188800Y-59715400D02*
X19298800Y-60605400D01*
X15098800Y-61284639D02*
X15654561Y-61840400D01*
D24*
%TO.N,/RL0*%
X29040000Y-15070000D02*
X29040000Y-26840000D01*
X27940000Y-13970000D02*
X29040000Y-15070000D01*
X29040000Y-26840000D02*
X27940000Y-27940000D01*
%TO.N,/RL1*%
X31580000Y-26840000D02*
X30480000Y-27940000D01*
X31580000Y-15070000D02*
X31580000Y-26840000D01*
X30480000Y-13970000D02*
X31580000Y-15070000D01*
%TO.N,/RL6*%
X34120000Y-15070000D02*
X34120000Y-26840000D01*
X33020000Y-13970000D02*
X34120000Y-15070000D01*
X34120000Y-26840000D02*
X33020000Y-27940000D01*
%TO.N,/RL4*%
X36660000Y-26840000D02*
X35560000Y-27940000D01*
X35560000Y-13970000D02*
X36660000Y-15070000D01*
X36660000Y-15070000D02*
X36660000Y-26840000D01*
%TO.N,/RL2*%
X39200000Y-15070000D02*
X39200000Y-26840000D01*
X39200000Y-26840000D02*
X38100000Y-27940000D01*
X38100000Y-13970000D02*
X39200000Y-15070000D01*
%TO.N,/RL5*%
X40640000Y-13970000D02*
X41740000Y-15070000D01*
X41740000Y-15070000D02*
X41740000Y-26840000D01*
X41740000Y-26840000D02*
X40640000Y-27940000D01*
%TO.N,/RL3*%
X44280000Y-15070000D02*
X44280000Y-26840000D01*
X43180000Y-13970000D02*
X44280000Y-15070000D01*
X44280000Y-26840000D02*
X43180000Y-27940000D01*
%TO.N,/Pb*%
X5080000Y-13970000D02*
X6180000Y-15070000D01*
X6180000Y-26840000D02*
X5080000Y-27940000D01*
X6180000Y-15070000D02*
X6180000Y-26840000D01*
%TO.N,/Pa*%
X8720000Y-15070000D02*
X8720000Y-26840000D01*
X8720000Y-26840000D02*
X7620000Y-27940000D01*
X7620000Y-13970000D02*
X8720000Y-15070000D01*
%TO.N,/Pc*%
X10160000Y-13970000D02*
X11260000Y-15070000D01*
X11260000Y-15070000D02*
X11260000Y-26840000D01*
X11260000Y-26840000D02*
X10160000Y-27940000D01*
%TO.N,/G0*%
X12700000Y-13970000D02*
X13800000Y-15070000D01*
X13800000Y-26840000D02*
X12700000Y-27940000D01*
X13800000Y-15070000D02*
X13800000Y-26840000D01*
%TO.N,/G1*%
X16340000Y-15070000D02*
X16340000Y-26840000D01*
X15240000Y-13970000D02*
X16340000Y-15070000D01*
X16340000Y-26840000D02*
X15240000Y-27940000D01*
%TO.N,/G4*%
X17780000Y-13970000D02*
X18880000Y-15070000D01*
X18880000Y-15070000D02*
X18880000Y-26840000D01*
X18880000Y-26840000D02*
X17780000Y-27940000D01*
%TO.N,/G3*%
X21420000Y-26840000D02*
X20320000Y-27940000D01*
X20320000Y-13970000D02*
X21420000Y-15070000D01*
X21420000Y-15070000D02*
X21420000Y-26840000D01*
%TO.N,/G2*%
X22860000Y-13970000D02*
X23960000Y-15070000D01*
X23960000Y-26840000D02*
X22860000Y-27940000D01*
X23960000Y-15070000D02*
X23960000Y-26840000D01*
D22*
%TO.N,/GPIO29_ADC3*%
X51590000Y-50350000D02*
X49990000Y-48750000D01*
X51590000Y-64600000D02*
X51590000Y-50350000D01*
X49990000Y-48750000D02*
X47240000Y-48750000D01*
%TO.N,/GPIO28_ADC2*%
X53840000Y-48800000D02*
X52990000Y-49650000D01*
X57640000Y-48800000D02*
X53840000Y-48800000D01*
X52990000Y-49650000D02*
X52990000Y-65200000D01*
%TD*%
%TA.AperFunction,Conductor*%
%TO.N,GND*%
G36*
X67088691Y-319407D02*
G01*
X67124655Y-368907D01*
X67129500Y-399500D01*
X67129500Y-57081678D01*
X67110593Y-57139869D01*
X67061093Y-57175833D01*
X66999907Y-57175833D01*
X66950407Y-57139869D01*
X66948185Y-57136680D01*
X66898679Y-57062590D01*
X66794909Y-56958820D01*
X66672887Y-56877287D01*
X66537309Y-56821130D01*
X66393378Y-56792500D01*
X66140001Y-56792500D01*
X66140000Y-56792501D01*
X66140000Y-57287500D01*
X65840000Y-57287500D01*
X65840000Y-56792501D01*
X65839999Y-56792500D01*
X65586621Y-56792500D01*
X65442691Y-56821130D01*
X65442689Y-56821130D01*
X65307112Y-56877287D01*
X65307111Y-56877287D01*
X65185090Y-56958820D01*
X65081320Y-57062590D01*
X64999787Y-57184611D01*
X64999787Y-57184612D01*
X64943630Y-57320189D01*
X64930241Y-57387500D01*
X65461446Y-57387500D01*
X65453060Y-57395886D01*
X65415000Y-57487772D01*
X65415000Y-57587228D01*
X65453060Y-57679114D01*
X65461446Y-57687500D01*
X64930241Y-57687500D01*
X64943630Y-57754810D01*
X64999787Y-57890387D01*
X64999787Y-57890388D01*
X65081320Y-58012409D01*
X65185090Y-58116179D01*
X65307112Y-58197712D01*
X65442690Y-58253869D01*
X65586621Y-58282499D01*
X65586625Y-58282500D01*
X65839999Y-58282500D01*
X65840000Y-58282499D01*
X65840000Y-57787500D01*
X66140000Y-57787500D01*
X66140000Y-58282499D01*
X66140001Y-58282500D01*
X66393375Y-58282500D01*
X66393378Y-58282499D01*
X66537308Y-58253869D01*
X66537310Y-58253869D01*
X66672887Y-58197712D01*
X66672888Y-58197712D01*
X66794909Y-58116179D01*
X66898678Y-58012410D01*
X66948184Y-57938320D01*
X66996234Y-57900440D01*
X67057372Y-57898038D01*
X67108246Y-57932031D01*
X67129424Y-57989434D01*
X67129500Y-57993321D01*
X67129500Y-64081678D01*
X67110593Y-64139869D01*
X67061093Y-64175833D01*
X66999907Y-64175833D01*
X66950407Y-64139869D01*
X66948185Y-64136680D01*
X66898679Y-64062590D01*
X66794909Y-63958820D01*
X66672887Y-63877287D01*
X66537309Y-63821130D01*
X66393378Y-63792500D01*
X66140001Y-63792500D01*
X66140000Y-63792501D01*
X66140000Y-64287500D01*
X65840000Y-64287500D01*
X65840000Y-63792501D01*
X65839999Y-63792500D01*
X65586621Y-63792500D01*
X65442691Y-63821130D01*
X65442689Y-63821130D01*
X65307112Y-63877287D01*
X65307111Y-63877287D01*
X65185090Y-63958820D01*
X65081320Y-64062590D01*
X64999787Y-64184611D01*
X64999787Y-64184612D01*
X64943630Y-64320189D01*
X64930241Y-64387500D01*
X65461446Y-64387500D01*
X65453060Y-64395886D01*
X65415000Y-64487772D01*
X65415000Y-64587228D01*
X65453060Y-64679114D01*
X65461446Y-64687500D01*
X64930241Y-64687500D01*
X64943630Y-64754810D01*
X64999787Y-64890387D01*
X64999787Y-64890388D01*
X65081320Y-65012409D01*
X65185090Y-65116179D01*
X65307112Y-65197712D01*
X65442690Y-65253869D01*
X65586621Y-65282499D01*
X65586625Y-65282500D01*
X65839999Y-65282500D01*
X65840000Y-65282499D01*
X65840000Y-64787500D01*
X66140000Y-64787500D01*
X66140000Y-65282499D01*
X66140001Y-65282500D01*
X66393375Y-65282500D01*
X66393378Y-65282499D01*
X66537308Y-65253869D01*
X66537310Y-65253869D01*
X66672887Y-65197712D01*
X66672888Y-65197712D01*
X66794909Y-65116179D01*
X66898678Y-65012410D01*
X66948184Y-64938320D01*
X66996234Y-64900440D01*
X67057372Y-64898038D01*
X67108246Y-64932031D01*
X67129424Y-64989434D01*
X67129500Y-64993321D01*
X67129500Y-70984100D01*
X67110593Y-71042291D01*
X67061093Y-71078255D01*
X67030500Y-71083100D01*
X399500Y-71083100D01*
X341309Y-71064193D01*
X305345Y-71014693D01*
X300500Y-70984100D01*
X300500Y-68950000D01*
X21234355Y-68950000D01*
X21254860Y-69118872D01*
X21315182Y-69277930D01*
X21411817Y-69417929D01*
X21539148Y-69530734D01*
X21689775Y-69609790D01*
X21854944Y-69650500D01*
X21854947Y-69650500D01*
X22025053Y-69650500D01*
X22025056Y-69650500D01*
X22190225Y-69609790D01*
X22340852Y-69530734D01*
X22468183Y-69417929D01*
X22564818Y-69277930D01*
X22625140Y-69118872D01*
X22645645Y-68950000D01*
X24284355Y-68950000D01*
X24304860Y-69118872D01*
X24365182Y-69277930D01*
X24461817Y-69417929D01*
X24589148Y-69530734D01*
X24739775Y-69609790D01*
X24904944Y-69650500D01*
X24904947Y-69650500D01*
X25075053Y-69650500D01*
X25075056Y-69650500D01*
X25240225Y-69609790D01*
X25390852Y-69530734D01*
X25518183Y-69417929D01*
X25614818Y-69277930D01*
X25675140Y-69118872D01*
X25695645Y-68950000D01*
X25675140Y-68781128D01*
X25614818Y-68622070D01*
X25518183Y-68482071D01*
X25390852Y-68369266D01*
X25240225Y-68290210D01*
X25240224Y-68290209D01*
X25240223Y-68290209D01*
X25075058Y-68249500D01*
X25075056Y-68249500D01*
X24904944Y-68249500D01*
X24904941Y-68249500D01*
X24739776Y-68290209D01*
X24589146Y-68369267D01*
X24461818Y-68482069D01*
X24461817Y-68482071D01*
X24365182Y-68622070D01*
X24304860Y-68781128D01*
X24284355Y-68950000D01*
X22645645Y-68950000D01*
X22625140Y-68781128D01*
X22564818Y-68622070D01*
X22468183Y-68482071D01*
X22340852Y-68369266D01*
X22190225Y-68290210D01*
X22190224Y-68290209D01*
X22190223Y-68290209D01*
X22025058Y-68249500D01*
X22025056Y-68249500D01*
X21854944Y-68249500D01*
X21854941Y-68249500D01*
X21689776Y-68290209D01*
X21539146Y-68369267D01*
X21411818Y-68482069D01*
X21411817Y-68482071D01*
X21315182Y-68622070D01*
X21254860Y-68781128D01*
X21234355Y-68950000D01*
X300500Y-68950000D01*
X300500Y-67700002D01*
X12489353Y-67700002D01*
X12509834Y-67842456D01*
X12569622Y-67973371D01*
X12569623Y-67973373D01*
X12663872Y-68082143D01*
X12663873Y-68082144D01*
X12784942Y-68159950D01*
X12784947Y-68159953D01*
X12891403Y-68191211D01*
X12923035Y-68200499D01*
X12923036Y-68200499D01*
X12923039Y-68200500D01*
X12923041Y-68200500D01*
X13066959Y-68200500D01*
X13066961Y-68200500D01*
X13205053Y-68159953D01*
X13326128Y-68082143D01*
X13420377Y-67973373D01*
X13480165Y-67842457D01*
X13500647Y-67700000D01*
X13480165Y-67557543D01*
X13420377Y-67426627D01*
X13326128Y-67317857D01*
X13326127Y-67317856D01*
X13326126Y-67317855D01*
X13205057Y-67240049D01*
X13205054Y-67240047D01*
X13205053Y-67240047D01*
X13205050Y-67240046D01*
X13066964Y-67199500D01*
X13066961Y-67199500D01*
X12923039Y-67199500D01*
X12923035Y-67199500D01*
X12784949Y-67240046D01*
X12784942Y-67240049D01*
X12663873Y-67317855D01*
X12569622Y-67426628D01*
X12509834Y-67557543D01*
X12489353Y-67699997D01*
X12489353Y-67700002D01*
X300500Y-67700002D01*
X300500Y-66750002D01*
X16184353Y-66750002D01*
X16204834Y-66892456D01*
X16264622Y-67023371D01*
X16264623Y-67023373D01*
X16358872Y-67132143D01*
X16358873Y-67132144D01*
X16479942Y-67209950D01*
X16479947Y-67209953D01*
X16582436Y-67240046D01*
X16618035Y-67250499D01*
X16618036Y-67250499D01*
X16618039Y-67250500D01*
X16618041Y-67250500D01*
X16761959Y-67250500D01*
X16761961Y-67250500D01*
X16900053Y-67209953D01*
X17021128Y-67132143D01*
X17115377Y-67023373D01*
X17175165Y-66892457D01*
X17195647Y-66750000D01*
X17175165Y-66607543D01*
X17115377Y-66476627D01*
X17021128Y-66367857D01*
X17018506Y-66364831D01*
X16994688Y-66308472D01*
X17008547Y-66248876D01*
X17018506Y-66235169D01*
X17021128Y-66232143D01*
X17092303Y-66150002D01*
X17584353Y-66150002D01*
X17604834Y-66292456D01*
X17637887Y-66364831D01*
X17664623Y-66423373D01*
X17758872Y-66532143D01*
X17758873Y-66532144D01*
X17876197Y-66607543D01*
X17879947Y-66609953D01*
X17986403Y-66641211D01*
X18018035Y-66650499D01*
X18018036Y-66650499D01*
X18018039Y-66650500D01*
X18018041Y-66650500D01*
X18161959Y-66650500D01*
X18161961Y-66650500D01*
X18300053Y-66609953D01*
X18421128Y-66532143D01*
X18515377Y-66423373D01*
X18575165Y-66292457D01*
X18595647Y-66150000D01*
X18591818Y-66123371D01*
X18575165Y-66007543D01*
X18515377Y-65876628D01*
X18515377Y-65876627D01*
X18421128Y-65767857D01*
X18421127Y-65767856D01*
X18421126Y-65767855D01*
X18300057Y-65690049D01*
X18300054Y-65690047D01*
X18300053Y-65690047D01*
X18300050Y-65690046D01*
X18161964Y-65649500D01*
X18161961Y-65649500D01*
X18018039Y-65649500D01*
X18018035Y-65649500D01*
X17879949Y-65690046D01*
X17879942Y-65690049D01*
X17758873Y-65767855D01*
X17664622Y-65876628D01*
X17604834Y-66007543D01*
X17584353Y-66149997D01*
X17584353Y-66150002D01*
X17092303Y-66150002D01*
X17115377Y-66123373D01*
X17175165Y-65992457D01*
X17195647Y-65850000D01*
X17183836Y-65767855D01*
X17175165Y-65707543D01*
X17148657Y-65649500D01*
X17115377Y-65576627D01*
X17061828Y-65514828D01*
X17038012Y-65458473D01*
X17051870Y-65398877D01*
X17061820Y-65385180D01*
X17115377Y-65323373D01*
X17171719Y-65200002D01*
X52484353Y-65200002D01*
X52504834Y-65342456D01*
X52550080Y-65441529D01*
X52564623Y-65473373D01*
X52654093Y-65576628D01*
X52658873Y-65582144D01*
X52779942Y-65659950D01*
X52779947Y-65659953D01*
X52882436Y-65690046D01*
X52918035Y-65700499D01*
X52918036Y-65700499D01*
X52918039Y-65700500D01*
X52918041Y-65700500D01*
X53061959Y-65700500D01*
X53061961Y-65700500D01*
X53200053Y-65659953D01*
X53321128Y-65582143D01*
X53415377Y-65473373D01*
X53475165Y-65342457D01*
X53495647Y-65200000D01*
X53494562Y-65192457D01*
X53475165Y-65057543D01*
X53440731Y-64982144D01*
X53415377Y-64926627D01*
X53321128Y-64817857D01*
X53321127Y-64817856D01*
X53316491Y-64812506D01*
X53318524Y-64810743D01*
X53293067Y-64768505D01*
X53290500Y-64746105D01*
X53290500Y-63763833D01*
X62515000Y-63763833D01*
X62544783Y-63913558D01*
X62544783Y-63913560D01*
X62603202Y-64054597D01*
X62688015Y-64181530D01*
X62795969Y-64289484D01*
X62922902Y-64374297D01*
X63063940Y-64432716D01*
X63140000Y-64447846D01*
X63140000Y-63923026D01*
X63235299Y-63962500D01*
X63344701Y-63962500D01*
X63440000Y-63923026D01*
X63440000Y-64447845D01*
X63516058Y-64432716D01*
X63516060Y-64432716D01*
X63657097Y-64374297D01*
X63784030Y-64289484D01*
X63891984Y-64181530D01*
X63976797Y-64054597D01*
X64035216Y-63913560D01*
X64035216Y-63913558D01*
X64064999Y-63763833D01*
X64065000Y-63763829D01*
X64065000Y-63687501D01*
X64064999Y-63687500D01*
X63565000Y-63687500D01*
X63565000Y-63387500D01*
X64064999Y-63387500D01*
X64065000Y-63387499D01*
X64065000Y-63311170D01*
X64064999Y-63311166D01*
X64035216Y-63161441D01*
X64035216Y-63161439D01*
X63976797Y-63020402D01*
X63891984Y-62893469D01*
X63784030Y-62785515D01*
X63657099Y-62700703D01*
X63516059Y-62642283D01*
X63440000Y-62627153D01*
X63440000Y-63151973D01*
X63344701Y-63112500D01*
X63235299Y-63112500D01*
X63140000Y-63151973D01*
X63140000Y-62627153D01*
X63063940Y-62642283D01*
X62922900Y-62700703D01*
X62795969Y-62785515D01*
X62688015Y-62893469D01*
X62603202Y-63020402D01*
X62544783Y-63161439D01*
X62544783Y-63161441D01*
X62515000Y-63311166D01*
X62515000Y-63387499D01*
X62515001Y-63387500D01*
X63015000Y-63387500D01*
X63015000Y-63687500D01*
X62515001Y-63687500D01*
X62515000Y-63687501D01*
X62515000Y-63763833D01*
X53290500Y-63763833D01*
X53290500Y-58763833D01*
X62515000Y-58763833D01*
X62544783Y-58913558D01*
X62544783Y-58913560D01*
X62603202Y-59054597D01*
X62688015Y-59181530D01*
X62795969Y-59289484D01*
X62922902Y-59374297D01*
X63063940Y-59432716D01*
X63140000Y-59447846D01*
X63140000Y-58923026D01*
X63235299Y-58962500D01*
X63344701Y-58962500D01*
X63440000Y-58923026D01*
X63440000Y-59447845D01*
X63516058Y-59432716D01*
X63516060Y-59432716D01*
X63657097Y-59374297D01*
X63784030Y-59289484D01*
X63891984Y-59181530D01*
X63976797Y-59054597D01*
X64035216Y-58913560D01*
X64035216Y-58913558D01*
X64064999Y-58763833D01*
X64065000Y-58763829D01*
X64065000Y-58687501D01*
X64064999Y-58687500D01*
X63565000Y-58687500D01*
X63565000Y-58387500D01*
X64064999Y-58387500D01*
X64065000Y-58387499D01*
X64065000Y-58311170D01*
X64064999Y-58311166D01*
X64035216Y-58161441D01*
X64035216Y-58161439D01*
X63976797Y-58020402D01*
X63891984Y-57893469D01*
X63784030Y-57785515D01*
X63657099Y-57700703D01*
X63516059Y-57642283D01*
X63440000Y-57627153D01*
X63440000Y-58151973D01*
X63344701Y-58112500D01*
X63235299Y-58112500D01*
X63140000Y-58151973D01*
X63140000Y-57627153D01*
X63063940Y-57642283D01*
X62922900Y-57700703D01*
X62795969Y-57785515D01*
X62688015Y-57893469D01*
X62603202Y-58020402D01*
X62544783Y-58161439D01*
X62544783Y-58161441D01*
X62515000Y-58311166D01*
X62515000Y-58387499D01*
X62515001Y-58387500D01*
X63015000Y-58387500D01*
X63015000Y-58687500D01*
X62515001Y-58687500D01*
X62515000Y-58687501D01*
X62515000Y-58763833D01*
X53290500Y-58763833D01*
X53290500Y-49815479D01*
X53309407Y-49757288D01*
X53319496Y-49745475D01*
X53935475Y-49129496D01*
X53989992Y-49101719D01*
X54005479Y-49100500D01*
X55940500Y-49100500D01*
X55998691Y-49119407D01*
X56034655Y-49168907D01*
X56039500Y-49199500D01*
X56039500Y-49769746D01*
X56039501Y-49769758D01*
X56040439Y-49774471D01*
X56051133Y-49828231D01*
X56095448Y-49894552D01*
X56161769Y-49938867D01*
X56206231Y-49947711D01*
X56220241Y-49950498D01*
X56220246Y-49950498D01*
X56220252Y-49950500D01*
X56220253Y-49950500D01*
X58259747Y-49950500D01*
X58259748Y-49950500D01*
X58318231Y-49938867D01*
X58384552Y-49894552D01*
X58428867Y-49828231D01*
X58440500Y-49769748D01*
X58440500Y-47730252D01*
X58428867Y-47671769D01*
X58384552Y-47605448D01*
X58362005Y-47590382D01*
X58318233Y-47561134D01*
X58318231Y-47561133D01*
X58318228Y-47561132D01*
X58318227Y-47561132D01*
X58259758Y-47549501D01*
X58259748Y-47549500D01*
X56220252Y-47549500D01*
X56220251Y-47549500D01*
X56220241Y-47549501D01*
X56161772Y-47561132D01*
X56161766Y-47561134D01*
X56095451Y-47605445D01*
X56095445Y-47605451D01*
X56051134Y-47671766D01*
X56051132Y-47671772D01*
X56039501Y-47730241D01*
X56039500Y-47730253D01*
X56039500Y-48400500D01*
X56020593Y-48458691D01*
X55971093Y-48494655D01*
X55940500Y-48499500D01*
X53879562Y-48499500D01*
X53800438Y-48499500D01*
X53762968Y-48509540D01*
X53724007Y-48519979D01*
X53655493Y-48559536D01*
X52805489Y-49409540D01*
X52805488Y-49409539D01*
X52749539Y-49465489D01*
X52709980Y-49534007D01*
X52709978Y-49534011D01*
X52689500Y-49610435D01*
X52689500Y-64746105D01*
X52670593Y-64804296D01*
X52663258Y-64812289D01*
X52663509Y-64812506D01*
X52658872Y-64817856D01*
X52658872Y-64817857D01*
X52596025Y-64890387D01*
X52564622Y-64926628D01*
X52504834Y-65057543D01*
X52484353Y-65199997D01*
X52484353Y-65200002D01*
X17171719Y-65200002D01*
X17175165Y-65192457D01*
X17188386Y-65100500D01*
X17195647Y-65050002D01*
X17195647Y-65049997D01*
X17175165Y-64907543D01*
X17134206Y-64817857D01*
X17115377Y-64776627D01*
X17021128Y-64667857D01*
X17021127Y-64667856D01*
X17021126Y-64667855D01*
X16900057Y-64590049D01*
X16900054Y-64590047D01*
X16900053Y-64590047D01*
X16900050Y-64590046D01*
X16761964Y-64549500D01*
X16761961Y-64549500D01*
X16618039Y-64549500D01*
X16618035Y-64549500D01*
X16479949Y-64590046D01*
X16479942Y-64590049D01*
X16358873Y-64667855D01*
X16264622Y-64776628D01*
X16204834Y-64907543D01*
X16184353Y-65049997D01*
X16184353Y-65050002D01*
X16204834Y-65192456D01*
X16264623Y-65323373D01*
X16318169Y-65385170D01*
X16341986Y-65441529D01*
X16328127Y-65501124D01*
X16318169Y-65514830D01*
X16264623Y-65576626D01*
X16204834Y-65707543D01*
X16184353Y-65849997D01*
X16184353Y-65850002D01*
X16204834Y-65992456D01*
X16264622Y-66123371D01*
X16264623Y-66123373D01*
X16358509Y-66231725D01*
X16361494Y-66235169D01*
X16385311Y-66291529D01*
X16371452Y-66351124D01*
X16361494Y-66364831D01*
X16264622Y-66476628D01*
X16204834Y-66607543D01*
X16184353Y-66749997D01*
X16184353Y-66750002D01*
X300500Y-66750002D01*
X300500Y-62800002D01*
X8054353Y-62800002D01*
X8074834Y-62942456D01*
X8122233Y-63046244D01*
X8134623Y-63073373D01*
X8210932Y-63161439D01*
X8228873Y-63182144D01*
X8257436Y-63200500D01*
X8349947Y-63259953D01*
X8456403Y-63291211D01*
X8488035Y-63300499D01*
X8488036Y-63300499D01*
X8488039Y-63300500D01*
X8488041Y-63300500D01*
X8631959Y-63300500D01*
X8631961Y-63300500D01*
X8770053Y-63259953D01*
X8891128Y-63182143D01*
X8985182Y-63073597D01*
X9037576Y-63042003D01*
X9098537Y-63047238D01*
X9134816Y-63073596D01*
X9210932Y-63161439D01*
X9228873Y-63182144D01*
X9257436Y-63200500D01*
X9349947Y-63259953D01*
X9456403Y-63291211D01*
X9488035Y-63300499D01*
X9488036Y-63300499D01*
X9488039Y-63300500D01*
X9488041Y-63300500D01*
X9631959Y-63300500D01*
X9631961Y-63300500D01*
X9770053Y-63259953D01*
X9891128Y-63182143D01*
X9939876Y-63125883D01*
X9992272Y-63094287D01*
X10053233Y-63099522D01*
X10068219Y-63107430D01*
X10096934Y-63125884D01*
X10149947Y-63159953D01*
X10256403Y-63191211D01*
X10288035Y-63200499D01*
X10288036Y-63200499D01*
X10288039Y-63200500D01*
X10288041Y-63200500D01*
X10431959Y-63200500D01*
X10431961Y-63200500D01*
X10570053Y-63159953D01*
X10691128Y-63082143D01*
X10735181Y-63031302D01*
X10787576Y-62999707D01*
X10848537Y-63004942D01*
X10884817Y-63031301D01*
X10894091Y-63042003D01*
X10928873Y-63082144D01*
X10996934Y-63125884D01*
X11049947Y-63159953D01*
X11156403Y-63191211D01*
X11188035Y-63200499D01*
X11188036Y-63200499D01*
X11188039Y-63200500D01*
X11188041Y-63200500D01*
X11331959Y-63200500D01*
X11331961Y-63200500D01*
X11470053Y-63159953D01*
X11591128Y-63082143D01*
X11685377Y-62973373D01*
X11709419Y-62920728D01*
X11750789Y-62875653D01*
X11810755Y-62863501D01*
X11852992Y-62878570D01*
X11879124Y-62895364D01*
X11961175Y-62919456D01*
X12017212Y-62935910D01*
X12017213Y-62935910D01*
X12017216Y-62935911D01*
X12017218Y-62935911D01*
X12161136Y-62935911D01*
X12161138Y-62935911D01*
X12299230Y-62895364D01*
X12420305Y-62817554D01*
X12514554Y-62708784D01*
X12543035Y-62646417D01*
X12584406Y-62601342D01*
X12644372Y-62589190D01*
X12660979Y-62592555D01*
X12688035Y-62600499D01*
X12688036Y-62600499D01*
X12688039Y-62600500D01*
X12688040Y-62600500D01*
X12831959Y-62600500D01*
X12831961Y-62600500D01*
X12970053Y-62559953D01*
X13091128Y-62482143D01*
X13185377Y-62373373D01*
X13245165Y-62242457D01*
X13256727Y-62162038D01*
X13265647Y-62100002D01*
X13265647Y-62099997D01*
X13245165Y-61957543D01*
X13213858Y-61888992D01*
X13185377Y-61826627D01*
X13091128Y-61717857D01*
X13091127Y-61717856D01*
X13091126Y-61717855D01*
X12970057Y-61640049D01*
X12970054Y-61640047D01*
X12970053Y-61640047D01*
X12970050Y-61640046D01*
X12831964Y-61599500D01*
X12831961Y-61599500D01*
X12688039Y-61599500D01*
X12688035Y-61599500D01*
X12549949Y-61640046D01*
X12549942Y-61640049D01*
X12428873Y-61717855D01*
X12334622Y-61826628D01*
X12306141Y-61888992D01*
X12264769Y-61934069D01*
X12204802Y-61946220D01*
X12188199Y-61942856D01*
X12161139Y-61934911D01*
X12161138Y-61934911D01*
X12017216Y-61934911D01*
X12017212Y-61934911D01*
X11879126Y-61975457D01*
X11879119Y-61975460D01*
X11758050Y-62053266D01*
X11663799Y-62162038D01*
X11639757Y-62214682D01*
X11598384Y-62259759D01*
X11538417Y-62271908D01*
X11496181Y-62256838D01*
X11470057Y-62240049D01*
X11470054Y-62240047D01*
X11470053Y-62240047D01*
X11470050Y-62240046D01*
X11331964Y-62199500D01*
X11331961Y-62199500D01*
X11188039Y-62199500D01*
X11188035Y-62199500D01*
X11049949Y-62240046D01*
X11049942Y-62240049D01*
X10928872Y-62317856D01*
X10928870Y-62317858D01*
X10884819Y-62368696D01*
X10832423Y-62400292D01*
X10771462Y-62395056D01*
X10735181Y-62368696D01*
X10691129Y-62317858D01*
X10691127Y-62317856D01*
X10570057Y-62240049D01*
X10570054Y-62240047D01*
X10570053Y-62240047D01*
X10570050Y-62240046D01*
X10431964Y-62199500D01*
X10431961Y-62199500D01*
X10288039Y-62199500D01*
X10288035Y-62199500D01*
X10149949Y-62240046D01*
X10149942Y-62240049D01*
X10028872Y-62317856D01*
X9980122Y-62374117D01*
X9927726Y-62405712D01*
X9866765Y-62400476D01*
X9851780Y-62392569D01*
X9770057Y-62340049D01*
X9770054Y-62340047D01*
X9770053Y-62340047D01*
X9770050Y-62340046D01*
X9631964Y-62299500D01*
X9631961Y-62299500D01*
X9488039Y-62299500D01*
X9488035Y-62299500D01*
X9349949Y-62340046D01*
X9349942Y-62340049D01*
X9228872Y-62417856D01*
X9228870Y-62417858D01*
X9134819Y-62526400D01*
X9082424Y-62557996D01*
X9021463Y-62552760D01*
X8985181Y-62526400D01*
X8891129Y-62417858D01*
X8891127Y-62417856D01*
X8770057Y-62340049D01*
X8770054Y-62340047D01*
X8770053Y-62340047D01*
X8770050Y-62340046D01*
X8631964Y-62299500D01*
X8631961Y-62299500D01*
X8488039Y-62299500D01*
X8488035Y-62299500D01*
X8349949Y-62340046D01*
X8349942Y-62340049D01*
X8228873Y-62417855D01*
X8134622Y-62526628D01*
X8074834Y-62657543D01*
X8054353Y-62799997D01*
X8054353Y-62800002D01*
X300500Y-62800002D01*
X300500Y-60715402D01*
X11493153Y-60715402D01*
X11513634Y-60857856D01*
X11568579Y-60978167D01*
X11573423Y-60988773D01*
X11662237Y-61091271D01*
X11667673Y-61097544D01*
X11788742Y-61175350D01*
X11788747Y-61175353D01*
X11892734Y-61205886D01*
X11926835Y-61215899D01*
X11926836Y-61215899D01*
X11926839Y-61215900D01*
X11926841Y-61215900D01*
X12070759Y-61215900D01*
X12070761Y-61215900D01*
X12208853Y-61175353D01*
X12329928Y-61097543D01*
X12424177Y-60988773D01*
X12435594Y-60963772D01*
X12476965Y-60918696D01*
X12525647Y-60905900D01*
X14599300Y-60905900D01*
X14657491Y-60924807D01*
X14693455Y-60974307D01*
X14698300Y-61004900D01*
X14698300Y-61231912D01*
X14698300Y-61337366D01*
X14705812Y-61365400D01*
X14725594Y-61439231D01*
X14778316Y-61530547D01*
X14778318Y-61530549D01*
X14778320Y-61530552D01*
X14859065Y-61611297D01*
X14886842Y-61665813D01*
X14877271Y-61726245D01*
X14834006Y-61769510D01*
X14789061Y-61780300D01*
X14761635Y-61780300D01*
X14623549Y-61820846D01*
X14623542Y-61820849D01*
X14502473Y-61898655D01*
X14408222Y-62007428D01*
X14348434Y-62138343D01*
X14327953Y-62280797D01*
X14327953Y-62280802D01*
X14348434Y-62423256D01*
X14375328Y-62482144D01*
X14408223Y-62554173D01*
X14449095Y-62601342D01*
X14502473Y-62662944D01*
X14573799Y-62708782D01*
X14623547Y-62740753D01*
X14730003Y-62772011D01*
X14761635Y-62781299D01*
X14761636Y-62781299D01*
X14761639Y-62781300D01*
X14761641Y-62781300D01*
X14905559Y-62781300D01*
X14905561Y-62781300D01*
X15043653Y-62740753D01*
X15164728Y-62662943D01*
X15258977Y-62554173D01*
X15318765Y-62423257D01*
X15339247Y-62280800D01*
X15339247Y-62280797D01*
X15339670Y-62277858D01*
X15366666Y-62222951D01*
X15420780Y-62194397D01*
X15481342Y-62203104D01*
X15487150Y-62206204D01*
X15499973Y-62213607D01*
X15601834Y-62240901D01*
X15601836Y-62240901D01*
X15713351Y-62240901D01*
X15713367Y-62240900D01*
X18806525Y-62240900D01*
X18806527Y-62240900D01*
X18908388Y-62213607D01*
X18908390Y-62213605D01*
X18908392Y-62213605D01*
X18999708Y-62160883D01*
X18999708Y-62160882D01*
X18999713Y-62160880D01*
X19619280Y-61541313D01*
X19649905Y-61488267D01*
X19671969Y-61450053D01*
X19671979Y-61450034D01*
X19672006Y-61449988D01*
X19672007Y-61449987D01*
X19699300Y-61348127D01*
X19699300Y-60954408D01*
X19718207Y-60896217D01*
X19723484Y-60889573D01*
X19723623Y-60889411D01*
X19724177Y-60888773D01*
X19783965Y-60757857D01*
X19791236Y-60707281D01*
X19818229Y-60652378D01*
X19819224Y-60651368D01*
X20325698Y-60144896D01*
X20380214Y-60117119D01*
X20395701Y-60115900D01*
X21667168Y-60115900D01*
X21720689Y-60131615D01*
X21788747Y-60175353D01*
X21895203Y-60206611D01*
X21926835Y-60215899D01*
X21926836Y-60215899D01*
X21926839Y-60215900D01*
X21926841Y-60215900D01*
X22058252Y-60215900D01*
X22116443Y-60234807D01*
X22152407Y-60284307D01*
X22156244Y-60300811D01*
X22171634Y-60407856D01*
X22196103Y-60461434D01*
X22231423Y-60538773D01*
X22325672Y-60647543D01*
X22325673Y-60647544D01*
X22431263Y-60715402D01*
X22446747Y-60725353D01*
X22553203Y-60756611D01*
X22584835Y-60765899D01*
X22584836Y-60765899D01*
X22584839Y-60765900D01*
X22584841Y-60765900D01*
X22728759Y-60765900D01*
X22728761Y-60765900D01*
X22866853Y-60725353D01*
X22987928Y-60647543D01*
X23082177Y-60538773D01*
X23141965Y-60407857D01*
X23162447Y-60265400D01*
X23161016Y-60255449D01*
X23141965Y-60122943D01*
X23127103Y-60090400D01*
X23082177Y-59992027D01*
X22987928Y-59883257D01*
X22987927Y-59883256D01*
X22987926Y-59883255D01*
X22866857Y-59805449D01*
X22866854Y-59805447D01*
X22866853Y-59805447D01*
X22866850Y-59805446D01*
X22728764Y-59764900D01*
X22728761Y-59764900D01*
X22597348Y-59764900D01*
X22539157Y-59745993D01*
X22503193Y-59696493D01*
X22499356Y-59679989D01*
X22483965Y-59572943D01*
X22441199Y-59479300D01*
X22424177Y-59442027D01*
X22329928Y-59333257D01*
X22329927Y-59333256D01*
X22329926Y-59333255D01*
X22208857Y-59255449D01*
X22208854Y-59255447D01*
X22208853Y-59255447D01*
X22197696Y-59252171D01*
X22070764Y-59214900D01*
X22070761Y-59214900D01*
X21926839Y-59214900D01*
X21926835Y-59214900D01*
X21788749Y-59255446D01*
X21788746Y-59255447D01*
X21765898Y-59270131D01*
X21720689Y-59299184D01*
X21667168Y-59314900D01*
X20241527Y-59314900D01*
X20136073Y-59314900D01*
X20081114Y-59329626D01*
X20034207Y-59342194D01*
X19942891Y-59394916D01*
X19942886Y-59394920D01*
X19239137Y-60098667D01*
X19197031Y-60123651D01*
X19191607Y-60125244D01*
X19130447Y-60123501D01*
X19081992Y-60086141D01*
X19064750Y-60027435D01*
X19065557Y-60017334D01*
X19078977Y-59915400D01*
X19078977Y-59915399D01*
X19058356Y-59758772D01*
X19058354Y-59758764D01*
X18997901Y-59612816D01*
X18997899Y-59612813D01*
X18993826Y-59607505D01*
X18647158Y-59954172D01*
X18648800Y-59950210D01*
X18648800Y-59880590D01*
X18622157Y-59816271D01*
X18572929Y-59767043D01*
X18508610Y-59740400D01*
X18438990Y-59740400D01*
X18374671Y-59767043D01*
X18325443Y-59816271D01*
X18298800Y-59880590D01*
X18298800Y-59950210D01*
X18325443Y-60014529D01*
X18374671Y-60063757D01*
X18438990Y-60090400D01*
X18508610Y-60090400D01*
X18512572Y-60088758D01*
X18165904Y-60435427D01*
X18171212Y-60439499D01*
X18224172Y-60461436D01*
X18270698Y-60501172D01*
X18284982Y-60560667D01*
X18261568Y-60617195D01*
X18224173Y-60644364D01*
X18171212Y-60666301D01*
X18165905Y-60670372D01*
X18512575Y-61017042D01*
X18508610Y-61015400D01*
X18438990Y-61015400D01*
X18374671Y-61042043D01*
X18325443Y-61091271D01*
X18298800Y-61155590D01*
X18298800Y-61225210D01*
X18300442Y-61229175D01*
X17953772Y-60882505D01*
X17949701Y-60887812D01*
X17927764Y-60940773D01*
X17888027Y-60987298D01*
X17828532Y-61001582D01*
X17772005Y-60978167D01*
X17744836Y-60940772D01*
X17722901Y-60887816D01*
X17722899Y-60887813D01*
X17718825Y-60882505D01*
X17372159Y-61229170D01*
X17373800Y-61225210D01*
X17373800Y-61155590D01*
X17347157Y-61091271D01*
X17297929Y-61042043D01*
X17233610Y-61015400D01*
X17163990Y-61015400D01*
X17099671Y-61042043D01*
X17050443Y-61091271D01*
X17023800Y-61155590D01*
X17023800Y-61225210D01*
X17025442Y-61229175D01*
X16678772Y-60882505D01*
X16674701Y-60887812D01*
X16652764Y-60940773D01*
X16613027Y-60987298D01*
X16553532Y-61001582D01*
X16497005Y-60978167D01*
X16469836Y-60940772D01*
X16447901Y-60887816D01*
X16447899Y-60887813D01*
X16443826Y-60882505D01*
X16097158Y-61229173D01*
X16098800Y-61225210D01*
X16098800Y-61155590D01*
X16072157Y-61091271D01*
X16022929Y-61042043D01*
X15958610Y-61015400D01*
X15888990Y-61015400D01*
X15885022Y-61017043D01*
X16231694Y-60670371D01*
X16231695Y-60670371D01*
X16226387Y-60666300D01*
X16173427Y-60644363D01*
X16126902Y-60604626D01*
X16112618Y-60545131D01*
X16136033Y-60488604D01*
X16173429Y-60461434D01*
X16226392Y-60439496D01*
X16231694Y-60435427D01*
X16231695Y-60435426D01*
X16890904Y-60435426D01*
X16896212Y-60439499D01*
X16949172Y-60461436D01*
X16995698Y-60501172D01*
X17009982Y-60560667D01*
X16986568Y-60617195D01*
X16949173Y-60644364D01*
X16896212Y-60666301D01*
X16890905Y-60670372D01*
X17198800Y-60978267D01*
X17506695Y-60670372D01*
X17506695Y-60670371D01*
X17501387Y-60666300D01*
X17448427Y-60644363D01*
X17401902Y-60604626D01*
X17387618Y-60545131D01*
X17411033Y-60488604D01*
X17448429Y-60461434D01*
X17501392Y-60439496D01*
X17506694Y-60435427D01*
X17198799Y-60127532D01*
X16890904Y-60435426D01*
X16231695Y-60435426D01*
X15923800Y-60127531D01*
X15923800Y-60127532D01*
X15885025Y-60088757D01*
X15888990Y-60090400D01*
X15958610Y-60090400D01*
X16022929Y-60063757D01*
X16072157Y-60014529D01*
X16098800Y-59950210D01*
X16098800Y-59915399D01*
X16135932Y-59915399D01*
X16443827Y-60223294D01*
X16447896Y-60217992D01*
X16469834Y-60165029D01*
X16509570Y-60118503D01*
X16569065Y-60104218D01*
X16625593Y-60127632D01*
X16652763Y-60165027D01*
X16674700Y-60217987D01*
X16678772Y-60223295D01*
X16951857Y-59950210D01*
X17023800Y-59950210D01*
X17050443Y-60014529D01*
X17099671Y-60063757D01*
X17163990Y-60090400D01*
X17233610Y-60090400D01*
X17297929Y-60063757D01*
X17347157Y-60014529D01*
X17373800Y-59950210D01*
X17373800Y-59915399D01*
X17410932Y-59915399D01*
X17718827Y-60223294D01*
X17722896Y-60217992D01*
X17744834Y-60165029D01*
X17784570Y-60118503D01*
X17844065Y-60104218D01*
X17900593Y-60127632D01*
X17927763Y-60165027D01*
X17949700Y-60217987D01*
X17953772Y-60223295D01*
X18261667Y-59915400D01*
X17953772Y-59607505D01*
X17949701Y-59612812D01*
X17927764Y-59665773D01*
X17888027Y-59712298D01*
X17828532Y-59726582D01*
X17772005Y-59703167D01*
X17744836Y-59665772D01*
X17722901Y-59612816D01*
X17722899Y-59612813D01*
X17718825Y-59607505D01*
X17410932Y-59915399D01*
X17373800Y-59915399D01*
X17373800Y-59880590D01*
X17347157Y-59816271D01*
X17297929Y-59767043D01*
X17233610Y-59740400D01*
X17163990Y-59740400D01*
X17099671Y-59767043D01*
X17050443Y-59816271D01*
X17023800Y-59880590D01*
X17023800Y-59950210D01*
X16951857Y-59950210D01*
X16986667Y-59915400D01*
X16678772Y-59607505D01*
X16674701Y-59612812D01*
X16652764Y-59665773D01*
X16613027Y-59712298D01*
X16553532Y-59726582D01*
X16497005Y-59703167D01*
X16469836Y-59665772D01*
X16447901Y-59612816D01*
X16447899Y-59612813D01*
X16443825Y-59607505D01*
X16135932Y-59915399D01*
X16098800Y-59915399D01*
X16098800Y-59880590D01*
X16072157Y-59816271D01*
X16022929Y-59767043D01*
X15958610Y-59740400D01*
X15888990Y-59740400D01*
X15824671Y-59767043D01*
X15775443Y-59816271D01*
X15748800Y-59880590D01*
X15748800Y-59950210D01*
X15750442Y-59954174D01*
X15403772Y-59607505D01*
X15399700Y-59612813D01*
X15339245Y-59758764D01*
X15339243Y-59758772D01*
X15318623Y-59915399D01*
X15318623Y-59921889D01*
X15316760Y-59921889D01*
X15307196Y-59973477D01*
X15262812Y-60015593D01*
X15202150Y-60023577D01*
X15192305Y-60021225D01*
X15170766Y-60014901D01*
X15170762Y-60014900D01*
X15170761Y-60014900D01*
X15026839Y-60014900D01*
X15026835Y-60014900D01*
X14888749Y-60055446D01*
X14888746Y-60055447D01*
X14875816Y-60063757D01*
X14836249Y-60089184D01*
X14782728Y-60104900D01*
X12261527Y-60104900D01*
X12156073Y-60104900D01*
X12105305Y-60118503D01*
X12054207Y-60132194D01*
X11962891Y-60184916D01*
X11962884Y-60184921D01*
X11953294Y-60194512D01*
X11911185Y-60219496D01*
X11788747Y-60255447D01*
X11788742Y-60255449D01*
X11667673Y-60333255D01*
X11573422Y-60442028D01*
X11513634Y-60572943D01*
X11493153Y-60715397D01*
X11493153Y-60715402D01*
X300500Y-60715402D01*
X300500Y-58978802D01*
X14175553Y-58978802D01*
X14196034Y-59121256D01*
X14255822Y-59252171D01*
X14255823Y-59252173D01*
X14326082Y-59333257D01*
X14350073Y-59360944D01*
X14461753Y-59432716D01*
X14471147Y-59438753D01*
X14577603Y-59470011D01*
X14609235Y-59479299D01*
X14609236Y-59479299D01*
X14609239Y-59479300D01*
X14609241Y-59479300D01*
X14753159Y-59479300D01*
X14753161Y-59479300D01*
X14891253Y-59438753D01*
X15012328Y-59360943D01*
X15106577Y-59252173D01*
X15148477Y-59160426D01*
X15615904Y-59160426D01*
X15621212Y-59164499D01*
X15674172Y-59186436D01*
X15720698Y-59226172D01*
X15734982Y-59285667D01*
X15711568Y-59342195D01*
X15674173Y-59369364D01*
X15621212Y-59391301D01*
X15615905Y-59395372D01*
X15923800Y-59703267D01*
X16231695Y-59395372D01*
X16231695Y-59395371D01*
X16226387Y-59391300D01*
X16173427Y-59369363D01*
X16126902Y-59329626D01*
X16112618Y-59270131D01*
X16136033Y-59213604D01*
X16173429Y-59186434D01*
X16226392Y-59164496D01*
X16231694Y-59160427D01*
X16231693Y-59160426D01*
X16890904Y-59160426D01*
X16896212Y-59164499D01*
X16949172Y-59186436D01*
X16995698Y-59226172D01*
X17009982Y-59285667D01*
X16986568Y-59342195D01*
X16949173Y-59369364D01*
X16896212Y-59391301D01*
X16890905Y-59395372D01*
X17198800Y-59703267D01*
X17506695Y-59395372D01*
X17506695Y-59395371D01*
X17501387Y-59391300D01*
X17448427Y-59369363D01*
X17401902Y-59329626D01*
X17387618Y-59270131D01*
X17411033Y-59213604D01*
X17448429Y-59186434D01*
X17501392Y-59164496D01*
X17506694Y-59160427D01*
X17506693Y-59160426D01*
X18165904Y-59160426D01*
X18171212Y-59164499D01*
X18224172Y-59186436D01*
X18270698Y-59226172D01*
X18284982Y-59285667D01*
X18261568Y-59342195D01*
X18224173Y-59369364D01*
X18171212Y-59391301D01*
X18165905Y-59395372D01*
X18473800Y-59703267D01*
X18781695Y-59395372D01*
X18781695Y-59395371D01*
X18776387Y-59391300D01*
X18723427Y-59369363D01*
X18676902Y-59329626D01*
X18662618Y-59270131D01*
X18686033Y-59213604D01*
X18723429Y-59186434D01*
X18776392Y-59164496D01*
X18781694Y-59160427D01*
X18473799Y-58852532D01*
X18165904Y-59160426D01*
X17506693Y-59160426D01*
X17198799Y-58852532D01*
X16890904Y-59160426D01*
X16231693Y-59160426D01*
X15923799Y-58852532D01*
X15615904Y-59160426D01*
X15148477Y-59160426D01*
X15166365Y-59121257D01*
X15186847Y-58978800D01*
X15184503Y-58962500D01*
X15177967Y-58917039D01*
X15188400Y-58856749D01*
X15209048Y-58836682D01*
X15160344Y-58810238D01*
X15159225Y-58808581D01*
X15298871Y-58808581D01*
X15346955Y-58833952D01*
X15367423Y-58865064D01*
X15399699Y-58942986D01*
X15403772Y-58948295D01*
X15676857Y-58675210D01*
X15748800Y-58675210D01*
X15775443Y-58739529D01*
X15824671Y-58788757D01*
X15888990Y-58815400D01*
X15958610Y-58815400D01*
X16022929Y-58788757D01*
X16072157Y-58739529D01*
X16098800Y-58675210D01*
X16098800Y-58640399D01*
X16135932Y-58640399D01*
X16443827Y-58948294D01*
X16447896Y-58942992D01*
X16469834Y-58890029D01*
X16509570Y-58843503D01*
X16569065Y-58829218D01*
X16625593Y-58852632D01*
X16652763Y-58890027D01*
X16674700Y-58942987D01*
X16678772Y-58948295D01*
X16951857Y-58675210D01*
X17023800Y-58675210D01*
X17050443Y-58739529D01*
X17099671Y-58788757D01*
X17163990Y-58815400D01*
X17233610Y-58815400D01*
X17297929Y-58788757D01*
X17347157Y-58739529D01*
X17373800Y-58675210D01*
X17373800Y-58640399D01*
X17410932Y-58640399D01*
X17718827Y-58948294D01*
X17722896Y-58942992D01*
X17744834Y-58890029D01*
X17784570Y-58843503D01*
X17844065Y-58829218D01*
X17900593Y-58852632D01*
X17927763Y-58890027D01*
X17949700Y-58942987D01*
X17953772Y-58948295D01*
X18226857Y-58675210D01*
X18298800Y-58675210D01*
X18325443Y-58739529D01*
X18374671Y-58788757D01*
X18438990Y-58815400D01*
X18508610Y-58815400D01*
X18572929Y-58788757D01*
X18622157Y-58739529D01*
X18648800Y-58675210D01*
X18648800Y-58640399D01*
X18685932Y-58640399D01*
X18993827Y-58948294D01*
X18997898Y-58942990D01*
X19058355Y-58797030D01*
X19058356Y-58797030D01*
X19078977Y-58640400D01*
X19078977Y-58640399D01*
X19058356Y-58483772D01*
X19058354Y-58483764D01*
X18997901Y-58337816D01*
X18997899Y-58337813D01*
X18993825Y-58332505D01*
X18685932Y-58640399D01*
X18648800Y-58640399D01*
X18648800Y-58605590D01*
X18622157Y-58541271D01*
X18572929Y-58492043D01*
X18508610Y-58465400D01*
X18438990Y-58465400D01*
X18374671Y-58492043D01*
X18325443Y-58541271D01*
X18298800Y-58605590D01*
X18298800Y-58675210D01*
X18226857Y-58675210D01*
X18261667Y-58640400D01*
X17953772Y-58332505D01*
X17949701Y-58337812D01*
X17927764Y-58390773D01*
X17888027Y-58437298D01*
X17828532Y-58451582D01*
X17772005Y-58428167D01*
X17744836Y-58390772D01*
X17722901Y-58337816D01*
X17722899Y-58337813D01*
X17718825Y-58332505D01*
X17410932Y-58640399D01*
X17373800Y-58640399D01*
X17373800Y-58605590D01*
X17347157Y-58541271D01*
X17297929Y-58492043D01*
X17233610Y-58465400D01*
X17163990Y-58465400D01*
X17099671Y-58492043D01*
X17050443Y-58541271D01*
X17023800Y-58605590D01*
X17023800Y-58675210D01*
X16951857Y-58675210D01*
X16986667Y-58640400D01*
X16678772Y-58332505D01*
X16674701Y-58337812D01*
X16652764Y-58390773D01*
X16613027Y-58437298D01*
X16553532Y-58451582D01*
X16497005Y-58428167D01*
X16469836Y-58390772D01*
X16447901Y-58337816D01*
X16447899Y-58337813D01*
X16443825Y-58332505D01*
X16135932Y-58640399D01*
X16098800Y-58640399D01*
X16098800Y-58605590D01*
X16072157Y-58541271D01*
X16022929Y-58492043D01*
X15958610Y-58465400D01*
X15888990Y-58465400D01*
X15824671Y-58492043D01*
X15775443Y-58541271D01*
X15748800Y-58605590D01*
X15748800Y-58675210D01*
X15676857Y-58675210D01*
X15711667Y-58640400D01*
X15403772Y-58332505D01*
X15399700Y-58337813D01*
X15339245Y-58483764D01*
X15339243Y-58483772D01*
X15318623Y-58640399D01*
X15318623Y-58640400D01*
X15330309Y-58729169D01*
X15319159Y-58789330D01*
X15298871Y-58808581D01*
X15159225Y-58808581D01*
X15142104Y-58783221D01*
X15106577Y-58705427D01*
X15012328Y-58596657D01*
X15012327Y-58596656D01*
X15012326Y-58596655D01*
X14891257Y-58518849D01*
X14891254Y-58518847D01*
X14891253Y-58518847D01*
X14891250Y-58518846D01*
X14753164Y-58478300D01*
X14753161Y-58478300D01*
X14609239Y-58478300D01*
X14609235Y-58478300D01*
X14471149Y-58518846D01*
X14471142Y-58518849D01*
X14350073Y-58596655D01*
X14255822Y-58705428D01*
X14196034Y-58836343D01*
X14175553Y-58978797D01*
X14175553Y-58978802D01*
X300500Y-58978802D01*
X300500Y-58120372D01*
X15615905Y-58120372D01*
X15923800Y-58428267D01*
X16231695Y-58120372D01*
X16890905Y-58120372D01*
X17198800Y-58428267D01*
X17506695Y-58120372D01*
X18165905Y-58120372D01*
X18473800Y-58428267D01*
X18781695Y-58120372D01*
X18781695Y-58120371D01*
X18776386Y-58116299D01*
X18630431Y-58055844D01*
X18630430Y-58055843D01*
X18473801Y-58035223D01*
X18473799Y-58035223D01*
X18317172Y-58055843D01*
X18317164Y-58055845D01*
X18171213Y-58116300D01*
X18165905Y-58120372D01*
X17506695Y-58120372D01*
X17506695Y-58120371D01*
X17501386Y-58116299D01*
X17355431Y-58055844D01*
X17355430Y-58055843D01*
X17198801Y-58035223D01*
X17198799Y-58035223D01*
X17042172Y-58055843D01*
X17042164Y-58055845D01*
X16896213Y-58116300D01*
X16890905Y-58120372D01*
X16231695Y-58120372D01*
X16231695Y-58120371D01*
X16226386Y-58116299D01*
X16080431Y-58055844D01*
X16080430Y-58055843D01*
X15923801Y-58035223D01*
X15923799Y-58035223D01*
X15767172Y-58055843D01*
X15767164Y-58055845D01*
X15621213Y-58116300D01*
X15615905Y-58120372D01*
X300500Y-58120372D01*
X300500Y-56515000D01*
X36718973Y-56515000D01*
X36724738Y-56577216D01*
X36783064Y-56782210D01*
X36878057Y-56972983D01*
X36878062Y-56972992D01*
X37006496Y-57143064D01*
X37006506Y-57143075D01*
X37163995Y-57286647D01*
X37163994Y-57286647D01*
X37345206Y-57398847D01*
X37543941Y-57475838D01*
X37709999Y-57506880D01*
X37710000Y-57506880D01*
X37710000Y-56842445D01*
X37794174Y-56865000D01*
X37925826Y-56865000D01*
X38010000Y-56842445D01*
X38010000Y-57506880D01*
X38176058Y-57475838D01*
X38374793Y-57398847D01*
X38556004Y-57286647D01*
X38713493Y-57143075D01*
X38713503Y-57143064D01*
X38841937Y-56972992D01*
X38841942Y-56972983D01*
X38936935Y-56782210D01*
X38995261Y-56577216D01*
X39001027Y-56515000D01*
X38337445Y-56515000D01*
X38360000Y-56430826D01*
X38360000Y-56299174D01*
X38337445Y-56215000D01*
X39001026Y-56215000D01*
X38995261Y-56152783D01*
X38936935Y-55947789D01*
X38841942Y-55757016D01*
X38841937Y-55757007D01*
X38713503Y-55586935D01*
X38713493Y-55586924D01*
X38556004Y-55443352D01*
X38556005Y-55443352D01*
X38374793Y-55331152D01*
X38176061Y-55254162D01*
X38176055Y-55254160D01*
X38010000Y-55223118D01*
X38010000Y-55887554D01*
X37925826Y-55865000D01*
X37794174Y-55865000D01*
X37710000Y-55887554D01*
X37710000Y-55223119D01*
X37709999Y-55223118D01*
X37543944Y-55254160D01*
X37543938Y-55254162D01*
X37345206Y-55331152D01*
X37163995Y-55443352D01*
X37006506Y-55586924D01*
X37006496Y-55586935D01*
X36878062Y-55757007D01*
X36878057Y-55757016D01*
X36783064Y-55947789D01*
X36724738Y-56152783D01*
X36718973Y-56215000D01*
X37382555Y-56215000D01*
X37360000Y-56299174D01*
X37360000Y-56430826D01*
X37382555Y-56515000D01*
X36718973Y-56515000D01*
X300500Y-56515000D01*
X300500Y-54694746D01*
X36809500Y-54694746D01*
X36809501Y-54694758D01*
X36821132Y-54753227D01*
X36821133Y-54753231D01*
X36865448Y-54819552D01*
X36931769Y-54863867D01*
X36976231Y-54872711D01*
X36990241Y-54875498D01*
X36990246Y-54875498D01*
X36990252Y-54875500D01*
X36990253Y-54875500D01*
X38729747Y-54875500D01*
X38729748Y-54875500D01*
X38788231Y-54863867D01*
X38854552Y-54819552D01*
X38898867Y-54753231D01*
X38910500Y-54694748D01*
X38910500Y-52955252D01*
X38898867Y-52896769D01*
X38854552Y-52830448D01*
X38854548Y-52830445D01*
X38788233Y-52786134D01*
X38788231Y-52786133D01*
X38788228Y-52786132D01*
X38788227Y-52786132D01*
X38729758Y-52774501D01*
X38729748Y-52774500D01*
X36990252Y-52774500D01*
X36990251Y-52774500D01*
X36990241Y-52774501D01*
X36931772Y-52786132D01*
X36931766Y-52786134D01*
X36865451Y-52830445D01*
X36865445Y-52830451D01*
X36821134Y-52896766D01*
X36821132Y-52896772D01*
X36809501Y-52955241D01*
X36809500Y-52955253D01*
X36809500Y-54694746D01*
X300500Y-54694746D01*
X300500Y-50400002D01*
X11354353Y-50400002D01*
X11374834Y-50542456D01*
X11434622Y-50673371D01*
X11434623Y-50673373D01*
X11528872Y-50782143D01*
X11528873Y-50782144D01*
X11649942Y-50859950D01*
X11649947Y-50859953D01*
X11756403Y-50891211D01*
X11788035Y-50900499D01*
X11788036Y-50900499D01*
X11788039Y-50900500D01*
X11788041Y-50900500D01*
X11931959Y-50900500D01*
X11931961Y-50900500D01*
X12070053Y-50859953D01*
X12191128Y-50782143D01*
X12285377Y-50673373D01*
X12345165Y-50542457D01*
X12365647Y-50400000D01*
X12345165Y-50257543D01*
X12345164Y-50257541D01*
X12285377Y-50126628D01*
X12285377Y-50126627D01*
X12191128Y-50017857D01*
X12191127Y-50017856D01*
X12191126Y-50017855D01*
X12070057Y-49940049D01*
X12070054Y-49940047D01*
X12070053Y-49940047D01*
X12070050Y-49940046D01*
X11931964Y-49899500D01*
X11931961Y-49899500D01*
X11788039Y-49899500D01*
X11788035Y-49899500D01*
X11649949Y-49940046D01*
X11649942Y-49940049D01*
X11528873Y-50017855D01*
X11434622Y-50126628D01*
X11374835Y-50257542D01*
X11374834Y-50257543D01*
X11354353Y-50399997D01*
X11354353Y-50400002D01*
X300500Y-50400002D01*
X300500Y-49100002D01*
X11904353Y-49100002D01*
X11924834Y-49242456D01*
X11984622Y-49373371D01*
X11984623Y-49373373D01*
X12078872Y-49482143D01*
X12078873Y-49482144D01*
X12159574Y-49534007D01*
X12199947Y-49559953D01*
X12306403Y-49591211D01*
X12338035Y-49600499D01*
X12338036Y-49600499D01*
X12338039Y-49600500D01*
X12338041Y-49600500D01*
X12481959Y-49600500D01*
X12481961Y-49600500D01*
X12620053Y-49559953D01*
X12741128Y-49482143D01*
X12835377Y-49373373D01*
X12895165Y-49242457D01*
X12911406Y-49129496D01*
X12915647Y-49100002D01*
X12915647Y-49099997D01*
X12895165Y-48957543D01*
X12835377Y-48826628D01*
X12835377Y-48826627D01*
X12768980Y-48750000D01*
X46034357Y-48750000D01*
X46054885Y-48971536D01*
X46115771Y-49185528D01*
X46214942Y-49384689D01*
X46349019Y-49562236D01*
X46513438Y-49712124D01*
X46702599Y-49829247D01*
X46910060Y-49909618D01*
X47128757Y-49950500D01*
X47351243Y-49950500D01*
X47569940Y-49909618D01*
X47777401Y-49829247D01*
X47966562Y-49712124D01*
X48130981Y-49562236D01*
X48265058Y-49384689D01*
X48364229Y-49185528D01*
X48382189Y-49122405D01*
X48416299Y-49071612D01*
X48473751Y-49050568D01*
X48477409Y-49050500D01*
X49824521Y-49050500D01*
X49882712Y-49069407D01*
X49894525Y-49079496D01*
X51260504Y-50445475D01*
X51288281Y-50499992D01*
X51289500Y-50515479D01*
X51289500Y-64146105D01*
X51270593Y-64204296D01*
X51263258Y-64212289D01*
X51263509Y-64212506D01*
X51258872Y-64217856D01*
X51258872Y-64217857D01*
X51196807Y-64289484D01*
X51164622Y-64326628D01*
X51104834Y-64457543D01*
X51084353Y-64599997D01*
X51084353Y-64600002D01*
X51104834Y-64742456D01*
X51139269Y-64817857D01*
X51164623Y-64873373D01*
X51258872Y-64982143D01*
X51258873Y-64982144D01*
X51364463Y-65050002D01*
X51379947Y-65059953D01*
X51486403Y-65091211D01*
X51518035Y-65100499D01*
X51518036Y-65100499D01*
X51518039Y-65100500D01*
X51518041Y-65100500D01*
X51661959Y-65100500D01*
X51661961Y-65100500D01*
X51800053Y-65059953D01*
X51921128Y-64982143D01*
X52015377Y-64873373D01*
X52075165Y-64742457D01*
X52095647Y-64600000D01*
X52094216Y-64590049D01*
X52075165Y-64457543D01*
X52043177Y-64387500D01*
X52015377Y-64326627D01*
X51921128Y-64217857D01*
X51921127Y-64217856D01*
X51916491Y-64212506D01*
X51918524Y-64210743D01*
X51893067Y-64168505D01*
X51890500Y-64146105D01*
X51890500Y-50310439D01*
X51890500Y-50310438D01*
X51876327Y-50257543D01*
X51876327Y-50257542D01*
X51876327Y-50257541D01*
X51870022Y-50234012D01*
X51870020Y-50234008D01*
X51830463Y-50165493D01*
X51830461Y-50165491D01*
X51830460Y-50165489D01*
X50174511Y-48509540D01*
X50174508Y-48509538D01*
X50157121Y-48499499D01*
X50157121Y-48499500D01*
X50105989Y-48469979D01*
X50105988Y-48469978D01*
X50105987Y-48469978D01*
X50029564Y-48449500D01*
X50029562Y-48449500D01*
X48477409Y-48449500D01*
X48419218Y-48430593D01*
X48383254Y-48381093D01*
X48382196Y-48377621D01*
X48364229Y-48314472D01*
X48265058Y-48115311D01*
X48130981Y-47937764D01*
X47966562Y-47787876D01*
X47777401Y-47670753D01*
X47569940Y-47590382D01*
X47569939Y-47590381D01*
X47569937Y-47590381D01*
X47351243Y-47549500D01*
X47128757Y-47549500D01*
X46910062Y-47590381D01*
X46833797Y-47619926D01*
X46702599Y-47670753D01*
X46606503Y-47730253D01*
X46513438Y-47787876D01*
X46349020Y-47937763D01*
X46214943Y-48115309D01*
X46214938Y-48115318D01*
X46115772Y-48314469D01*
X46115771Y-48314472D01*
X46054885Y-48528464D01*
X46034357Y-48750000D01*
X12768980Y-48750000D01*
X12741128Y-48717857D01*
X12741127Y-48717856D01*
X12741126Y-48717855D01*
X12620057Y-48640049D01*
X12620054Y-48640047D01*
X12620053Y-48640047D01*
X12620050Y-48640046D01*
X12481964Y-48599500D01*
X12481961Y-48599500D01*
X12338039Y-48599500D01*
X12338035Y-48599500D01*
X12199949Y-48640046D01*
X12199942Y-48640049D01*
X12078873Y-48717855D01*
X11984622Y-48826628D01*
X11924834Y-48957543D01*
X11904353Y-49099997D01*
X11904353Y-49100002D01*
X300500Y-49100002D01*
X300500Y-47700002D01*
X12454353Y-47700002D01*
X12474834Y-47842456D01*
X12518360Y-47937763D01*
X12534623Y-47973373D01*
X12628872Y-48082143D01*
X12628873Y-48082144D01*
X12680493Y-48115318D01*
X12749947Y-48159953D01*
X12856403Y-48191211D01*
X12888035Y-48200499D01*
X12888036Y-48200499D01*
X12888039Y-48200500D01*
X12888041Y-48200500D01*
X13031959Y-48200500D01*
X13031961Y-48200500D01*
X13170053Y-48159953D01*
X13291128Y-48082143D01*
X13385377Y-47973373D01*
X13445165Y-47842457D01*
X13453012Y-47787876D01*
X13465647Y-47700002D01*
X13465647Y-47699997D01*
X13445165Y-47557543D01*
X13385377Y-47426628D01*
X13385377Y-47426627D01*
X13291128Y-47317857D01*
X13291127Y-47317856D01*
X13286491Y-47312506D01*
X13287529Y-47311606D01*
X13286419Y-47309767D01*
X13269648Y-47304052D01*
X13170057Y-47240049D01*
X13170054Y-47240047D01*
X13170053Y-47240047D01*
X13170050Y-47240046D01*
X13031964Y-47199500D01*
X13031961Y-47199500D01*
X12888039Y-47199500D01*
X12888035Y-47199500D01*
X12749949Y-47240046D01*
X12749942Y-47240049D01*
X12628873Y-47317855D01*
X12534622Y-47426628D01*
X12474834Y-47557543D01*
X12454353Y-47699997D01*
X12454353Y-47700002D01*
X300500Y-47700002D01*
X300500Y-46764118D01*
X13213841Y-46764118D01*
X13234322Y-46906572D01*
X13294110Y-47037487D01*
X13294111Y-47037489D01*
X13388360Y-47146259D01*
X13392997Y-47151610D01*
X13391957Y-47152510D01*
X13393065Y-47154346D01*
X13409839Y-47160063D01*
X13509430Y-47224066D01*
X13509435Y-47224069D01*
X13563859Y-47240049D01*
X13647523Y-47264615D01*
X13647524Y-47264615D01*
X13647527Y-47264616D01*
X13647529Y-47264616D01*
X13791447Y-47264616D01*
X13791449Y-47264616D01*
X13929541Y-47224069D01*
X14050616Y-47146259D01*
X14144865Y-47037489D01*
X14204653Y-46906573D01*
X14225135Y-46764116D01*
X14204653Y-46621659D01*
X14144865Y-46490743D01*
X14066238Y-46400002D01*
X15254353Y-46400002D01*
X15274834Y-46542456D01*
X15334622Y-46673371D01*
X15334623Y-46673373D01*
X15428872Y-46782143D01*
X15428873Y-46782144D01*
X15549942Y-46859950D01*
X15549947Y-46859953D01*
X15656403Y-46891211D01*
X15688035Y-46900499D01*
X15688036Y-46900499D01*
X15688039Y-46900500D01*
X15688041Y-46900500D01*
X15831959Y-46900500D01*
X15831961Y-46900500D01*
X15970053Y-46859953D01*
X16091128Y-46782143D01*
X16185377Y-46673373D01*
X16245165Y-46542457D01*
X16265647Y-46400000D01*
X16263055Y-46381973D01*
X16245165Y-46257543D01*
X16185377Y-46126628D01*
X16185377Y-46126627D01*
X16091128Y-46017857D01*
X16091127Y-46017856D01*
X16091126Y-46017855D01*
X15970057Y-45940049D01*
X15970054Y-45940047D01*
X15970053Y-45940047D01*
X15970050Y-45940046D01*
X15831964Y-45899500D01*
X15831961Y-45899500D01*
X15688039Y-45899500D01*
X15688035Y-45899500D01*
X15549949Y-45940046D01*
X15549942Y-45940049D01*
X15428873Y-46017855D01*
X15334622Y-46126628D01*
X15274834Y-46257543D01*
X15254353Y-46399997D01*
X15254353Y-46400002D01*
X14066238Y-46400002D01*
X14050616Y-46381973D01*
X14050615Y-46381972D01*
X14050614Y-46381971D01*
X13929545Y-46304165D01*
X13929542Y-46304163D01*
X13929541Y-46304163D01*
X13929538Y-46304162D01*
X13791452Y-46263616D01*
X13791449Y-46263616D01*
X13647527Y-46263616D01*
X13647523Y-46263616D01*
X13509437Y-46304162D01*
X13509430Y-46304165D01*
X13388361Y-46381971D01*
X13294110Y-46490744D01*
X13234322Y-46621659D01*
X13213841Y-46764113D01*
X13213841Y-46764118D01*
X300500Y-46764118D01*
X300500Y-45100002D01*
X15454353Y-45100002D01*
X15474834Y-45242456D01*
X15534622Y-45373371D01*
X15534623Y-45373373D01*
X15628872Y-45482143D01*
X15628873Y-45482144D01*
X15749942Y-45559950D01*
X15749947Y-45559953D01*
X15856403Y-45591211D01*
X15888035Y-45600499D01*
X15888036Y-45600499D01*
X15888039Y-45600500D01*
X15888041Y-45600500D01*
X16031959Y-45600500D01*
X16031961Y-45600500D01*
X16170053Y-45559953D01*
X16291128Y-45482143D01*
X16385377Y-45373373D01*
X16445165Y-45242457D01*
X16465647Y-45100000D01*
X16445165Y-44957543D01*
X16385377Y-44826627D01*
X16291128Y-44717857D01*
X16291127Y-44717856D01*
X16291126Y-44717855D01*
X16170057Y-44640049D01*
X16170054Y-44640047D01*
X16170053Y-44640047D01*
X16170050Y-44640046D01*
X16031964Y-44599500D01*
X16031961Y-44599500D01*
X15888039Y-44599500D01*
X15888035Y-44599500D01*
X15749949Y-44640046D01*
X15749942Y-44640049D01*
X15628873Y-44717855D01*
X15534622Y-44826628D01*
X15474834Y-44957543D01*
X15454353Y-45099997D01*
X15454353Y-45100002D01*
X300500Y-45100002D01*
X300500Y-43800002D01*
X15354353Y-43800002D01*
X15374834Y-43942456D01*
X15434622Y-44073371D01*
X15434623Y-44073373D01*
X15528872Y-44182143D01*
X15528873Y-44182144D01*
X15649942Y-44259950D01*
X15649947Y-44259953D01*
X15756403Y-44291211D01*
X15788035Y-44300499D01*
X15788036Y-44300499D01*
X15788039Y-44300500D01*
X15788041Y-44300500D01*
X15931959Y-44300500D01*
X15931961Y-44300500D01*
X16070053Y-44259953D01*
X16191128Y-44182143D01*
X16285377Y-44073373D01*
X16345165Y-43942457D01*
X16365647Y-43800000D01*
X16345165Y-43657543D01*
X16285377Y-43526627D01*
X16191128Y-43417857D01*
X16191127Y-43417856D01*
X16191126Y-43417855D01*
X16070057Y-43340049D01*
X16070054Y-43340047D01*
X16070053Y-43340047D01*
X16070050Y-43340046D01*
X15931964Y-43299500D01*
X15931961Y-43299500D01*
X15788039Y-43299500D01*
X15788035Y-43299500D01*
X15649949Y-43340046D01*
X15649942Y-43340049D01*
X15528873Y-43417855D01*
X15434622Y-43526628D01*
X15374834Y-43657543D01*
X15354353Y-43799997D01*
X15354353Y-43800002D01*
X300500Y-43800002D01*
X300500Y-39200002D01*
X14154353Y-39200002D01*
X14174834Y-39342456D01*
X14234622Y-39473371D01*
X14234623Y-39473373D01*
X14328872Y-39582143D01*
X14328873Y-39582144D01*
X14449942Y-39659950D01*
X14449947Y-39659953D01*
X14556403Y-39691211D01*
X14588035Y-39700499D01*
X14588036Y-39700499D01*
X14588039Y-39700500D01*
X14588041Y-39700500D01*
X14731959Y-39700500D01*
X14731961Y-39700500D01*
X14870053Y-39659953D01*
X14991128Y-39582143D01*
X15062303Y-39500002D01*
X48954353Y-39500002D01*
X48974834Y-39642456D01*
X49034622Y-39773371D01*
X49034623Y-39773373D01*
X49128872Y-39882143D01*
X49128873Y-39882144D01*
X49249942Y-39959950D01*
X49249947Y-39959953D01*
X49356403Y-39991211D01*
X49388035Y-40000499D01*
X49388036Y-40000499D01*
X49388039Y-40000500D01*
X49388041Y-40000500D01*
X49531959Y-40000500D01*
X49531961Y-40000500D01*
X49670053Y-39959953D01*
X49791128Y-39882143D01*
X49885377Y-39773373D01*
X49945165Y-39642457D01*
X49965647Y-39500000D01*
X49961818Y-39473371D01*
X49945165Y-39357543D01*
X49938275Y-39342456D01*
X49885377Y-39226627D01*
X49791128Y-39117857D01*
X49791127Y-39117856D01*
X49791126Y-39117855D01*
X49664097Y-39036219D01*
X49664761Y-39035184D01*
X49624990Y-38998683D01*
X49612838Y-38938716D01*
X49638255Y-38883060D01*
X49664317Y-38864124D01*
X49664097Y-38863781D01*
X49763342Y-38800000D01*
X49791128Y-38782143D01*
X49885377Y-38673373D01*
X49945165Y-38542457D01*
X49963080Y-38417855D01*
X49965647Y-38400002D01*
X49965647Y-38399997D01*
X49945165Y-38257543D01*
X49885377Y-38126628D01*
X49885377Y-38126627D01*
X49791128Y-38017857D01*
X49791127Y-38017856D01*
X49791126Y-38017855D01*
X49670057Y-37940049D01*
X49670054Y-37940047D01*
X49670053Y-37940047D01*
X49670050Y-37940046D01*
X49531964Y-37899500D01*
X49531961Y-37899500D01*
X49388039Y-37899500D01*
X49388035Y-37899500D01*
X49249949Y-37940046D01*
X49249942Y-37940049D01*
X49128873Y-38017855D01*
X49034622Y-38126628D01*
X48974834Y-38257543D01*
X48954353Y-38399997D01*
X48954353Y-38400002D01*
X48974834Y-38542456D01*
X49034622Y-38673371D01*
X49034623Y-38673373D01*
X49128872Y-38782143D01*
X49128873Y-38782144D01*
X49255903Y-38863781D01*
X49255238Y-38864815D01*
X49295012Y-38901322D01*
X49307160Y-38961290D01*
X49281740Y-39016945D01*
X49255682Y-39035876D01*
X49255903Y-39036219D01*
X49128873Y-39117855D01*
X49034622Y-39226628D01*
X48974834Y-39357543D01*
X48954353Y-39499997D01*
X48954353Y-39500002D01*
X15062303Y-39500002D01*
X15085377Y-39473373D01*
X15143319Y-39346498D01*
X15184689Y-39301423D01*
X15244656Y-39289272D01*
X15261260Y-39292637D01*
X15280133Y-39298178D01*
X15288035Y-39300499D01*
X15288036Y-39300499D01*
X15288039Y-39300500D01*
X15288040Y-39300500D01*
X15431959Y-39300500D01*
X15431961Y-39300500D01*
X15570053Y-39259953D01*
X15691128Y-39182143D01*
X15785377Y-39073373D01*
X15845165Y-38942457D01*
X15856328Y-38864815D01*
X15865647Y-38800002D01*
X15865647Y-38799997D01*
X15845165Y-38657543D01*
X15819114Y-38600500D01*
X15785377Y-38526627D01*
X15691128Y-38417857D01*
X15691127Y-38417856D01*
X15691126Y-38417855D01*
X15570057Y-38340049D01*
X15570054Y-38340047D01*
X15570053Y-38340047D01*
X15570050Y-38340046D01*
X15433674Y-38300002D01*
X16729353Y-38300002D01*
X16749834Y-38442456D01*
X16795504Y-38542457D01*
X16809623Y-38573373D01*
X16879052Y-38653499D01*
X16903873Y-38682144D01*
X17024942Y-38759950D01*
X17024947Y-38759953D01*
X17131403Y-38791211D01*
X17163035Y-38800499D01*
X17163036Y-38800499D01*
X17163039Y-38800500D01*
X17163041Y-38800500D01*
X17306959Y-38800500D01*
X17306961Y-38800500D01*
X17445053Y-38759953D01*
X17566128Y-38682143D01*
X17660377Y-38573373D01*
X17720165Y-38442457D01*
X17726269Y-38400002D01*
X23654353Y-38400002D01*
X23674834Y-38542456D01*
X23734622Y-38673371D01*
X23734623Y-38673373D01*
X23828872Y-38782143D01*
X23828873Y-38782144D01*
X23857436Y-38800500D01*
X23949947Y-38859953D01*
X24056403Y-38891211D01*
X24088035Y-38900499D01*
X24088036Y-38900499D01*
X24088039Y-38900500D01*
X24088041Y-38900500D01*
X24231959Y-38900500D01*
X24231961Y-38900500D01*
X24370053Y-38859953D01*
X24491128Y-38782143D01*
X24585377Y-38673373D01*
X24645165Y-38542457D01*
X24663080Y-38417855D01*
X24665647Y-38400002D01*
X24665647Y-38399997D01*
X24645165Y-38257543D01*
X24585377Y-38126628D01*
X24585377Y-38126627D01*
X24562306Y-38100002D01*
X29854353Y-38100002D01*
X29874834Y-38242456D01*
X29919403Y-38340046D01*
X29934623Y-38373373D01*
X30028872Y-38482143D01*
X30028873Y-38482144D01*
X30149942Y-38559950D01*
X30149947Y-38559953D01*
X30256403Y-38591211D01*
X30288035Y-38600499D01*
X30288036Y-38600499D01*
X30288039Y-38600500D01*
X30288041Y-38600500D01*
X30431959Y-38600500D01*
X30431961Y-38600500D01*
X30570053Y-38559953D01*
X30691128Y-38482143D01*
X30785377Y-38373373D01*
X30845165Y-38242457D01*
X30865647Y-38100000D01*
X30855223Y-38027502D01*
X37626853Y-38027502D01*
X37647334Y-38169956D01*
X37696914Y-38278518D01*
X37707123Y-38300873D01*
X37793018Y-38400002D01*
X37801373Y-38409644D01*
X37914184Y-38482143D01*
X37922447Y-38487453D01*
X38028903Y-38518711D01*
X38060535Y-38527999D01*
X38060536Y-38527999D01*
X38060539Y-38528000D01*
X38060541Y-38528000D01*
X38204459Y-38528000D01*
X38204461Y-38528000D01*
X38342553Y-38487453D01*
X38463628Y-38409643D01*
X38557877Y-38300873D01*
X38617665Y-38169957D01*
X38638147Y-38027500D01*
X38635058Y-38006017D01*
X38645490Y-37945728D01*
X38663043Y-37921926D01*
X39384969Y-37200002D01*
X48954353Y-37200002D01*
X48974834Y-37342456D01*
X49008414Y-37415985D01*
X49034623Y-37473373D01*
X49128872Y-37582143D01*
X49128873Y-37582144D01*
X49227232Y-37645355D01*
X49249947Y-37659953D01*
X49356403Y-37691211D01*
X49388035Y-37700499D01*
X49388036Y-37700499D01*
X49388039Y-37700500D01*
X49388041Y-37700500D01*
X49531959Y-37700500D01*
X49531961Y-37700500D01*
X49670053Y-37659953D01*
X49791128Y-37582143D01*
X49885377Y-37473373D01*
X49945165Y-37342457D01*
X49965647Y-37200000D01*
X49963351Y-37184034D01*
X49945165Y-37057543D01*
X49885377Y-36926628D01*
X49885377Y-36926627D01*
X49791128Y-36817857D01*
X49791127Y-36817856D01*
X49791126Y-36817855D01*
X49670057Y-36740049D01*
X49670054Y-36740047D01*
X49670053Y-36740047D01*
X49670050Y-36740046D01*
X49531964Y-36699500D01*
X49531961Y-36699500D01*
X49388039Y-36699500D01*
X49388035Y-36699500D01*
X49249949Y-36740046D01*
X49249942Y-36740049D01*
X49128873Y-36817855D01*
X49034622Y-36926628D01*
X48974834Y-37057543D01*
X48954353Y-37199997D01*
X48954353Y-37200002D01*
X39384969Y-37200002D01*
X39400460Y-37184511D01*
X39400736Y-37184031D01*
X39400754Y-37184015D01*
X39400748Y-37184012D01*
X39405646Y-37175529D01*
X39440021Y-37115989D01*
X39460500Y-37039562D01*
X39460500Y-35900002D01*
X48954353Y-35900002D01*
X48974834Y-36042456D01*
X48985348Y-36065478D01*
X49034623Y-36173373D01*
X49101479Y-36250529D01*
X49128873Y-36282144D01*
X49249942Y-36359950D01*
X49249947Y-36359953D01*
X49356403Y-36391211D01*
X49388035Y-36400499D01*
X49388036Y-36400499D01*
X49388039Y-36400500D01*
X49388041Y-36400500D01*
X49531959Y-36400500D01*
X49531961Y-36400500D01*
X49670053Y-36359953D01*
X49791128Y-36282143D01*
X49885377Y-36173373D01*
X49945165Y-36042457D01*
X49965647Y-35900000D01*
X49959958Y-35860435D01*
X49945165Y-35757543D01*
X49900408Y-35659540D01*
X49885377Y-35626627D01*
X49791128Y-35517857D01*
X49791127Y-35517856D01*
X49791126Y-35517855D01*
X49670057Y-35440049D01*
X49670054Y-35440047D01*
X49670053Y-35440047D01*
X49670050Y-35440046D01*
X49531964Y-35399500D01*
X49531961Y-35399500D01*
X49388039Y-35399500D01*
X49388035Y-35399500D01*
X49249949Y-35440046D01*
X49249942Y-35440049D01*
X49128873Y-35517855D01*
X49034622Y-35626628D01*
X48974834Y-35757543D01*
X48954353Y-35899997D01*
X48954353Y-35900002D01*
X39460500Y-35900002D01*
X39460500Y-34953893D01*
X39479407Y-34895702D01*
X39486741Y-34887711D01*
X39486491Y-34887494D01*
X39509935Y-34860438D01*
X39585377Y-34773373D01*
X39645165Y-34642457D01*
X39665647Y-34500000D01*
X39661818Y-34473371D01*
X39645165Y-34357543D01*
X39621431Y-34305574D01*
X39585377Y-34226627D01*
X39491128Y-34117857D01*
X39491127Y-34117856D01*
X39491126Y-34117855D01*
X39370057Y-34040049D01*
X39370054Y-34040047D01*
X39370053Y-34040047D01*
X39370050Y-34040046D01*
X39231964Y-33999500D01*
X39231961Y-33999500D01*
X39088039Y-33999500D01*
X39088035Y-33999500D01*
X38949949Y-34040046D01*
X38949942Y-34040049D01*
X38828873Y-34117855D01*
X38734622Y-34226628D01*
X38674834Y-34357543D01*
X38654353Y-34499997D01*
X38654353Y-34500002D01*
X38674834Y-34642456D01*
X38720504Y-34742457D01*
X38734623Y-34773373D01*
X38758128Y-34800500D01*
X38833509Y-34887494D01*
X38831471Y-34889259D01*
X38856925Y-34931458D01*
X38859500Y-34953893D01*
X38859500Y-36834520D01*
X38840593Y-36892711D01*
X38830504Y-36904524D01*
X38237024Y-37498004D01*
X38182507Y-37525781D01*
X38167020Y-37527000D01*
X38060535Y-37527000D01*
X37922449Y-37567546D01*
X37922442Y-37567549D01*
X37801373Y-37645355D01*
X37707122Y-37754128D01*
X37647334Y-37885043D01*
X37626853Y-38027497D01*
X37626853Y-38027502D01*
X30855223Y-38027502D01*
X30845165Y-37957543D01*
X30823792Y-37910743D01*
X30785377Y-37826627D01*
X30691128Y-37717857D01*
X30691127Y-37717856D01*
X30686491Y-37712506D01*
X30688524Y-37710743D01*
X30663067Y-37668505D01*
X30660500Y-37646105D01*
X30660500Y-36265478D01*
X30679407Y-36207287D01*
X30689490Y-36195480D01*
X32105474Y-34779495D01*
X32159991Y-34751719D01*
X32175478Y-34750500D01*
X32281959Y-34750500D01*
X32281961Y-34750500D01*
X32420053Y-34709953D01*
X32541128Y-34632143D01*
X32635377Y-34523373D01*
X32695165Y-34392457D01*
X32712287Y-34273373D01*
X32715647Y-34250002D01*
X32715647Y-34249997D01*
X32695165Y-34107543D01*
X32691492Y-34099500D01*
X32635377Y-33976627D01*
X32541128Y-33867857D01*
X32541127Y-33867856D01*
X32541126Y-33867855D01*
X32420057Y-33790049D01*
X32420054Y-33790047D01*
X32420053Y-33790047D01*
X32420050Y-33790046D01*
X32281964Y-33749500D01*
X32281961Y-33749500D01*
X32138039Y-33749500D01*
X32138035Y-33749500D01*
X31999949Y-33790046D01*
X31999942Y-33790049D01*
X31878873Y-33867855D01*
X31784622Y-33976628D01*
X31724834Y-34107543D01*
X31704353Y-34249997D01*
X31704353Y-34250003D01*
X31707441Y-34271482D01*
X31697007Y-34331771D01*
X31679453Y-34355574D01*
X30175489Y-35859540D01*
X30175488Y-35859539D01*
X30119539Y-35915489D01*
X30079980Y-35984007D01*
X30079978Y-35984011D01*
X30059500Y-36060435D01*
X30059500Y-37646105D01*
X30040593Y-37704296D01*
X30033258Y-37712289D01*
X30033509Y-37712506D01*
X30028872Y-37717856D01*
X30028872Y-37717857D01*
X29960915Y-37796283D01*
X29934622Y-37826628D01*
X29874834Y-37957543D01*
X29854353Y-38099997D01*
X29854353Y-38100002D01*
X24562306Y-38100002D01*
X24491128Y-38017857D01*
X24491127Y-38017856D01*
X24486491Y-38012506D01*
X24488524Y-38010743D01*
X24463067Y-37968505D01*
X24460500Y-37946105D01*
X24460500Y-35065477D01*
X24479407Y-35007286D01*
X24489484Y-34995486D01*
X24755475Y-34729494D01*
X24809990Y-34701719D01*
X24825477Y-34700500D01*
X24931959Y-34700500D01*
X24931961Y-34700500D01*
X25070053Y-34659953D01*
X25191128Y-34582143D01*
X25285377Y-34473373D01*
X25345165Y-34342457D01*
X25362558Y-34221483D01*
X25365647Y-34200002D01*
X25365647Y-34199997D01*
X25345165Y-34057543D01*
X25331046Y-34026627D01*
X25285377Y-33926627D01*
X25191128Y-33817857D01*
X25191127Y-33817856D01*
X25191126Y-33817855D01*
X25070057Y-33740049D01*
X25070054Y-33740047D01*
X25070053Y-33740047D01*
X25070050Y-33740046D01*
X24931964Y-33699500D01*
X24931961Y-33699500D01*
X24788039Y-33699500D01*
X24788035Y-33699500D01*
X24649949Y-33740046D01*
X24649942Y-33740049D01*
X24528873Y-33817855D01*
X24434622Y-33926628D01*
X24374834Y-34057543D01*
X24354353Y-34199996D01*
X24354353Y-34199997D01*
X24354353Y-34200000D01*
X24357442Y-34221482D01*
X24357442Y-34221483D01*
X24347007Y-34281772D01*
X24329453Y-34305574D01*
X23975489Y-34659539D01*
X23919539Y-34715489D01*
X23879980Y-34784007D01*
X23879978Y-34784011D01*
X23859500Y-34860435D01*
X23859500Y-37946105D01*
X23840593Y-38004296D01*
X23833258Y-38012289D01*
X23833509Y-38012506D01*
X23828872Y-38017856D01*
X23828872Y-38017857D01*
X23820515Y-38027502D01*
X23734622Y-38126628D01*
X23674834Y-38257543D01*
X23654353Y-38399997D01*
X23654353Y-38400002D01*
X17726269Y-38400002D01*
X17738026Y-38318228D01*
X17740647Y-38300002D01*
X17740647Y-38300000D01*
X17737558Y-38278518D01*
X17747990Y-38218228D01*
X17765543Y-38194426D01*
X19400460Y-36559511D01*
X19440021Y-36490989D01*
X19460500Y-36414562D01*
X19460500Y-34453893D01*
X19479407Y-34395702D01*
X19486741Y-34387711D01*
X19486491Y-34387494D01*
X19491128Y-34382143D01*
X19585377Y-34273373D01*
X19645165Y-34142457D01*
X19665647Y-34000000D01*
X19665575Y-33999500D01*
X19645165Y-33857543D01*
X19614340Y-33790046D01*
X19585377Y-33726627D01*
X19491128Y-33617857D01*
X19491127Y-33617856D01*
X19491126Y-33617855D01*
X19370057Y-33540049D01*
X19370054Y-33540047D01*
X19370053Y-33540047D01*
X19370050Y-33540046D01*
X19231964Y-33499500D01*
X19231961Y-33499500D01*
X19088039Y-33499500D01*
X19088035Y-33499500D01*
X18949949Y-33540046D01*
X18949942Y-33540049D01*
X18828873Y-33617855D01*
X18734622Y-33726628D01*
X18674834Y-33857543D01*
X18654353Y-33999997D01*
X18654353Y-34000002D01*
X18674834Y-34142456D01*
X18713275Y-34226628D01*
X18734623Y-34273373D01*
X18794483Y-34342456D01*
X18833509Y-34387494D01*
X18831471Y-34389259D01*
X18856925Y-34431458D01*
X18859500Y-34453893D01*
X18859500Y-36209520D01*
X18840593Y-36267711D01*
X18830504Y-36279524D01*
X17339524Y-37770504D01*
X17285007Y-37798281D01*
X17269520Y-37799500D01*
X17163035Y-37799500D01*
X17024949Y-37840046D01*
X17024942Y-37840049D01*
X16903873Y-37917855D01*
X16809622Y-38026628D01*
X16749834Y-38157543D01*
X16729353Y-38299997D01*
X16729353Y-38300002D01*
X15433674Y-38300002D01*
X15431964Y-38299500D01*
X15431961Y-38299500D01*
X15288039Y-38299500D01*
X15288035Y-38299500D01*
X15149949Y-38340046D01*
X15149942Y-38340049D01*
X15028873Y-38417855D01*
X14934622Y-38526628D01*
X14876681Y-38653499D01*
X14835309Y-38698576D01*
X14775342Y-38710727D01*
X14758737Y-38707362D01*
X14731964Y-38699500D01*
X14731961Y-38699500D01*
X14588039Y-38699500D01*
X14588035Y-38699500D01*
X14449949Y-38740046D01*
X14449942Y-38740049D01*
X14328873Y-38817855D01*
X14234622Y-38926628D01*
X14174834Y-39057543D01*
X14154353Y-39199997D01*
X14154353Y-39200002D01*
X300500Y-39200002D01*
X300500Y-38400002D01*
X1554353Y-38400002D01*
X1574834Y-38542456D01*
X1634622Y-38673371D01*
X1634623Y-38673373D01*
X1728872Y-38782143D01*
X1728873Y-38782144D01*
X1757436Y-38800500D01*
X1849947Y-38859953D01*
X1956403Y-38891211D01*
X1988035Y-38900499D01*
X1988036Y-38900499D01*
X1988039Y-38900500D01*
X1988041Y-38900500D01*
X2131959Y-38900500D01*
X2131961Y-38900500D01*
X2270053Y-38859953D01*
X2391128Y-38782143D01*
X2485377Y-38673373D01*
X2545165Y-38542457D01*
X2563080Y-38417855D01*
X2565647Y-38400002D01*
X6854353Y-38400002D01*
X6874834Y-38542456D01*
X6934622Y-38673371D01*
X6934623Y-38673373D01*
X7028872Y-38782143D01*
X7028873Y-38782144D01*
X7057436Y-38800500D01*
X7149947Y-38859953D01*
X7256403Y-38891211D01*
X7288035Y-38900499D01*
X7288036Y-38900499D01*
X7288039Y-38900500D01*
X7288041Y-38900500D01*
X7431959Y-38900500D01*
X7431961Y-38900500D01*
X7570053Y-38859953D01*
X7691128Y-38782143D01*
X7785377Y-38673373D01*
X7845165Y-38542457D01*
X7863080Y-38417855D01*
X7865647Y-38400002D01*
X7865647Y-38400000D01*
X7862558Y-38378518D01*
X7872990Y-38318228D01*
X7886431Y-38300002D01*
X11954353Y-38300002D01*
X11974834Y-38442456D01*
X12020504Y-38542457D01*
X12034623Y-38573373D01*
X12104052Y-38653499D01*
X12128873Y-38682144D01*
X12249942Y-38759950D01*
X12249947Y-38759953D01*
X12356403Y-38791211D01*
X12388035Y-38800499D01*
X12388036Y-38800499D01*
X12388039Y-38800500D01*
X12388041Y-38800500D01*
X12531959Y-38800500D01*
X12531961Y-38800500D01*
X12670053Y-38759953D01*
X12791128Y-38682143D01*
X12885377Y-38573373D01*
X12945165Y-38442457D01*
X12963026Y-38318228D01*
X12965647Y-38300002D01*
X12965647Y-38299997D01*
X12945165Y-38157543D01*
X12931046Y-38126627D01*
X12885377Y-38026627D01*
X12791128Y-37917857D01*
X12791127Y-37917856D01*
X12786491Y-37912506D01*
X12788524Y-37910743D01*
X12763067Y-37868505D01*
X12760500Y-37846105D01*
X12760500Y-36065478D01*
X12779407Y-36007287D01*
X12789490Y-35995480D01*
X14055474Y-34729495D01*
X14109991Y-34701719D01*
X14125478Y-34700500D01*
X14231959Y-34700500D01*
X14231961Y-34700500D01*
X14370053Y-34659953D01*
X14491128Y-34582143D01*
X14585377Y-34473373D01*
X14645165Y-34342457D01*
X14662558Y-34221483D01*
X14665647Y-34200002D01*
X14665647Y-34199997D01*
X14645165Y-34057543D01*
X14631046Y-34026627D01*
X14585377Y-33926627D01*
X14491128Y-33817857D01*
X14491127Y-33817856D01*
X14491126Y-33817855D01*
X14370057Y-33740049D01*
X14370054Y-33740047D01*
X14370053Y-33740047D01*
X14370050Y-33740046D01*
X14231964Y-33699500D01*
X14231961Y-33699500D01*
X14088039Y-33699500D01*
X14088035Y-33699500D01*
X13949949Y-33740046D01*
X13949942Y-33740049D01*
X13828873Y-33817855D01*
X13734622Y-33926628D01*
X13674834Y-34057543D01*
X13654353Y-34199997D01*
X13654353Y-34200003D01*
X13657441Y-34221482D01*
X13647007Y-34281771D01*
X13629453Y-34305574D01*
X12275489Y-35659540D01*
X12275488Y-35659539D01*
X12219539Y-35715489D01*
X12179980Y-35784007D01*
X12179978Y-35784011D01*
X12159500Y-35860435D01*
X12159500Y-37846105D01*
X12140593Y-37904296D01*
X12133258Y-37912289D01*
X12133509Y-37912506D01*
X12128872Y-37917856D01*
X12128872Y-37917857D01*
X12109643Y-37940049D01*
X12034622Y-38026628D01*
X11974834Y-38157543D01*
X11954353Y-38299997D01*
X11954353Y-38300002D01*
X7886431Y-38300002D01*
X7890543Y-38294426D01*
X8700460Y-37484511D01*
X8718526Y-37453220D01*
X8740021Y-37415989D01*
X8760500Y-37339562D01*
X8760500Y-35053893D01*
X8779407Y-34995702D01*
X8786741Y-34987711D01*
X8786491Y-34987494D01*
X8791128Y-34982143D01*
X8885377Y-34873373D01*
X8945165Y-34742457D01*
X8959543Y-34642456D01*
X8965647Y-34600002D01*
X8965647Y-34599997D01*
X8945165Y-34457543D01*
X8933252Y-34431458D01*
X8885377Y-34326627D01*
X8862306Y-34300002D01*
X9154353Y-34300002D01*
X9174834Y-34442456D01*
X9234622Y-34573371D01*
X9234623Y-34573373D01*
X9328872Y-34682143D01*
X9328873Y-34682144D01*
X9449942Y-34759950D01*
X9449947Y-34759953D01*
X9531882Y-34784011D01*
X9588035Y-34800499D01*
X9588036Y-34800499D01*
X9588039Y-34800500D01*
X9588041Y-34800500D01*
X9731959Y-34800500D01*
X9731961Y-34800500D01*
X9870053Y-34759953D01*
X9991128Y-34682143D01*
X10085377Y-34573373D01*
X10145165Y-34442457D01*
X10165647Y-34300000D01*
X10163026Y-34281772D01*
X10145165Y-34157543D01*
X10127040Y-34117855D01*
X10085377Y-34026627D01*
X9991128Y-33917857D01*
X9991127Y-33917856D01*
X9991126Y-33917855D01*
X9870057Y-33840049D01*
X9870054Y-33840047D01*
X9870053Y-33840047D01*
X9870050Y-33840046D01*
X9731964Y-33799500D01*
X9731961Y-33799500D01*
X9588039Y-33799500D01*
X9588035Y-33799500D01*
X9449949Y-33840046D01*
X9449942Y-33840049D01*
X9328873Y-33917855D01*
X9234622Y-34026628D01*
X9174834Y-34157543D01*
X9154353Y-34299997D01*
X9154353Y-34300002D01*
X8862306Y-34300002D01*
X8791128Y-34217857D01*
X8791127Y-34217856D01*
X8791126Y-34217855D01*
X8670057Y-34140049D01*
X8670054Y-34140047D01*
X8670053Y-34140047D01*
X8670050Y-34140046D01*
X8531964Y-34099500D01*
X8531961Y-34099500D01*
X8388039Y-34099500D01*
X8388035Y-34099500D01*
X8249949Y-34140046D01*
X8249942Y-34140049D01*
X8128873Y-34217855D01*
X8034622Y-34326628D01*
X7974834Y-34457543D01*
X7954353Y-34599997D01*
X7954353Y-34600002D01*
X7974834Y-34742456D01*
X8028714Y-34860435D01*
X8034623Y-34873373D01*
X8104393Y-34953893D01*
X8133509Y-34987494D01*
X8131471Y-34989259D01*
X8156925Y-35031458D01*
X8159500Y-35053893D01*
X8159500Y-37134520D01*
X8140593Y-37192711D01*
X8130504Y-37204524D01*
X7464524Y-37870504D01*
X7410007Y-37898281D01*
X7394520Y-37899500D01*
X7288035Y-37899500D01*
X7149949Y-37940046D01*
X7149942Y-37940049D01*
X7028873Y-38017855D01*
X6934622Y-38126628D01*
X6874834Y-38257543D01*
X6854353Y-38399997D01*
X6854353Y-38400002D01*
X2565647Y-38400002D01*
X2565647Y-38399997D01*
X2545165Y-38257543D01*
X2485377Y-38126628D01*
X2485377Y-38126627D01*
X2391128Y-38017857D01*
X2391127Y-38017856D01*
X2391126Y-38017855D01*
X2270057Y-37940049D01*
X2270054Y-37940047D01*
X2270053Y-37940047D01*
X2270050Y-37940046D01*
X2131964Y-37899500D01*
X2131961Y-37899500D01*
X1988039Y-37899500D01*
X1988035Y-37899500D01*
X1849949Y-37940046D01*
X1849942Y-37940049D01*
X1728873Y-38017855D01*
X1634622Y-38126628D01*
X1574834Y-38257543D01*
X1554353Y-38399997D01*
X1554353Y-38400002D01*
X300500Y-38400002D01*
X300500Y-27940003D01*
X4074659Y-27940003D01*
X4093974Y-28136126D01*
X4093975Y-28136129D01*
X4151187Y-28324730D01*
X4151188Y-28324732D01*
X4222218Y-28457618D01*
X4244090Y-28498538D01*
X4244092Y-28498540D01*
X4244093Y-28498542D01*
X4369112Y-28650878D01*
X4369121Y-28650887D01*
X4409762Y-28684240D01*
X4521462Y-28775910D01*
X4695273Y-28868814D01*
X4883868Y-28926024D01*
X4883870Y-28926024D01*
X4883873Y-28926025D01*
X5079997Y-28945341D01*
X5080000Y-28945341D01*
X5080003Y-28945341D01*
X5276126Y-28926025D01*
X5276127Y-28926024D01*
X5276132Y-28926024D01*
X5464727Y-28868814D01*
X5638538Y-28775910D01*
X5790883Y-28650883D01*
X5915910Y-28498538D01*
X6008814Y-28324727D01*
X6066024Y-28136132D01*
X6070568Y-28090001D01*
X6085341Y-27940003D01*
X6085341Y-27939996D01*
X6066025Y-27743873D01*
X6066024Y-27743871D01*
X6066024Y-27743870D01*
X6066024Y-27743868D01*
X6014772Y-27574913D01*
X6015973Y-27513743D01*
X6039504Y-27476176D01*
X6460470Y-27055212D01*
X6506614Y-26975288D01*
X6530500Y-26886144D01*
X6530500Y-20799334D01*
X6549407Y-20741143D01*
X6598907Y-20705179D01*
X6660093Y-20705179D01*
X6709593Y-20741143D01*
X6716809Y-20752665D01*
X6784090Y-20878538D01*
X6784092Y-20878540D01*
X6784093Y-20878542D01*
X6909112Y-21030878D01*
X6909121Y-21030887D01*
X7041781Y-21139758D01*
X7061462Y-21155910D01*
X7235273Y-21248814D01*
X7423868Y-21306024D01*
X7423870Y-21306024D01*
X7423873Y-21306025D01*
X7619997Y-21325341D01*
X7620000Y-21325341D01*
X7620003Y-21325341D01*
X7816126Y-21306025D01*
X7816127Y-21306024D01*
X7816132Y-21306024D01*
X8004727Y-21248814D01*
X8178538Y-21155910D01*
X8207694Y-21131981D01*
X8264671Y-21109681D01*
X8323874Y-21125129D01*
X8362690Y-21172426D01*
X8369500Y-21208509D01*
X8369500Y-26653810D01*
X8350593Y-26712001D01*
X8340503Y-26723814D01*
X8083823Y-26980493D01*
X8029307Y-27008270D01*
X7985082Y-27005226D01*
X7816132Y-26953975D01*
X7816126Y-26953974D01*
X7620003Y-26934659D01*
X7619997Y-26934659D01*
X7423873Y-26953974D01*
X7423870Y-26953975D01*
X7235269Y-27011187D01*
X7235267Y-27011188D01*
X7061467Y-27104087D01*
X7061457Y-27104093D01*
X6909121Y-27229112D01*
X6909112Y-27229121D01*
X6784093Y-27381457D01*
X6784087Y-27381467D01*
X6691188Y-27555267D01*
X6691187Y-27555269D01*
X6633975Y-27743870D01*
X6633974Y-27743873D01*
X6614659Y-27939996D01*
X6614659Y-27940003D01*
X6633974Y-28136126D01*
X6633975Y-28136129D01*
X6691187Y-28324730D01*
X6691188Y-28324732D01*
X6762218Y-28457618D01*
X6784090Y-28498538D01*
X6784092Y-28498540D01*
X6784093Y-28498542D01*
X6909112Y-28650878D01*
X6909121Y-28650887D01*
X6949762Y-28684240D01*
X7061462Y-28775910D01*
X7235273Y-28868814D01*
X7423868Y-28926024D01*
X7423870Y-28926024D01*
X7423873Y-28926025D01*
X7619997Y-28945341D01*
X7620000Y-28945341D01*
X7620003Y-28945341D01*
X7816126Y-28926025D01*
X7816127Y-28926024D01*
X7816132Y-28926024D01*
X8004727Y-28868814D01*
X8178538Y-28775910D01*
X8330883Y-28650883D01*
X8455910Y-28498538D01*
X8548814Y-28324727D01*
X8606024Y-28136132D01*
X8610568Y-28090001D01*
X8625341Y-27940003D01*
X8625341Y-27939996D01*
X8606025Y-27743873D01*
X8606024Y-27743871D01*
X8606024Y-27743870D01*
X8606024Y-27743868D01*
X8554772Y-27574913D01*
X8555973Y-27513743D01*
X8579504Y-27476176D01*
X9000470Y-27055212D01*
X9046614Y-26975288D01*
X9070500Y-26886144D01*
X9070500Y-20799334D01*
X9089407Y-20741143D01*
X9138907Y-20705179D01*
X9200093Y-20705179D01*
X9249593Y-20741143D01*
X9256809Y-20752665D01*
X9324090Y-20878538D01*
X9324092Y-20878540D01*
X9324093Y-20878542D01*
X9449112Y-21030878D01*
X9449121Y-21030887D01*
X9581781Y-21139758D01*
X9601462Y-21155910D01*
X9775273Y-21248814D01*
X9963868Y-21306024D01*
X9963870Y-21306024D01*
X9963873Y-21306025D01*
X10159997Y-21325341D01*
X10160000Y-21325341D01*
X10160003Y-21325341D01*
X10356126Y-21306025D01*
X10356127Y-21306024D01*
X10356132Y-21306024D01*
X10544727Y-21248814D01*
X10718538Y-21155910D01*
X10747694Y-21131981D01*
X10804671Y-21109681D01*
X10863874Y-21125129D01*
X10902690Y-21172426D01*
X10909500Y-21208509D01*
X10909500Y-26653810D01*
X10890593Y-26712001D01*
X10880503Y-26723814D01*
X10623823Y-26980493D01*
X10569307Y-27008270D01*
X10525082Y-27005226D01*
X10356132Y-26953975D01*
X10356126Y-26953974D01*
X10160003Y-26934659D01*
X10159997Y-26934659D01*
X9963873Y-26953974D01*
X9963870Y-26953975D01*
X9775269Y-27011187D01*
X9775267Y-27011188D01*
X9601467Y-27104087D01*
X9601457Y-27104093D01*
X9449121Y-27229112D01*
X9449112Y-27229121D01*
X9324093Y-27381457D01*
X9324087Y-27381467D01*
X9231188Y-27555267D01*
X9231187Y-27555269D01*
X9173975Y-27743870D01*
X9173974Y-27743873D01*
X9154659Y-27939996D01*
X9154659Y-27940003D01*
X9173974Y-28136126D01*
X9173975Y-28136129D01*
X9231187Y-28324730D01*
X9231188Y-28324732D01*
X9302218Y-28457618D01*
X9324090Y-28498538D01*
X9324092Y-28498540D01*
X9324093Y-28498542D01*
X9449112Y-28650878D01*
X9449121Y-28650887D01*
X9489762Y-28684240D01*
X9601462Y-28775910D01*
X9775273Y-28868814D01*
X9963868Y-28926024D01*
X9963870Y-28926024D01*
X9963873Y-28926025D01*
X10159997Y-28945341D01*
X10160000Y-28945341D01*
X10160003Y-28945341D01*
X10356126Y-28926025D01*
X10356127Y-28926024D01*
X10356132Y-28926024D01*
X10544727Y-28868814D01*
X10718538Y-28775910D01*
X10870883Y-28650883D01*
X10995910Y-28498538D01*
X11088814Y-28324727D01*
X11146024Y-28136132D01*
X11150568Y-28090001D01*
X11165341Y-27940003D01*
X11165341Y-27939996D01*
X11146025Y-27743873D01*
X11146024Y-27743871D01*
X11146024Y-27743870D01*
X11146024Y-27743868D01*
X11094772Y-27574913D01*
X11095973Y-27513743D01*
X11119504Y-27476176D01*
X11540470Y-27055212D01*
X11586614Y-26975288D01*
X11610500Y-26886144D01*
X11610500Y-20799334D01*
X11629407Y-20741143D01*
X11678907Y-20705179D01*
X11740093Y-20705179D01*
X11789593Y-20741143D01*
X11796809Y-20752665D01*
X11864090Y-20878538D01*
X11864092Y-20878540D01*
X11864093Y-20878542D01*
X11989112Y-21030878D01*
X11989121Y-21030887D01*
X12121781Y-21139758D01*
X12141462Y-21155910D01*
X12315273Y-21248814D01*
X12503868Y-21306024D01*
X12503870Y-21306024D01*
X12503873Y-21306025D01*
X12699997Y-21325341D01*
X12700000Y-21325341D01*
X12700003Y-21325341D01*
X12896126Y-21306025D01*
X12896127Y-21306024D01*
X12896132Y-21306024D01*
X13084727Y-21248814D01*
X13258538Y-21155910D01*
X13287694Y-21131981D01*
X13344671Y-21109681D01*
X13403874Y-21125129D01*
X13442690Y-21172426D01*
X13449500Y-21208509D01*
X13449500Y-26653810D01*
X13430593Y-26712001D01*
X13420503Y-26723814D01*
X13163823Y-26980493D01*
X13109307Y-27008270D01*
X13065082Y-27005226D01*
X12896132Y-26953975D01*
X12896126Y-26953974D01*
X12700003Y-26934659D01*
X12699997Y-26934659D01*
X12503873Y-26953974D01*
X12503870Y-26953975D01*
X12315269Y-27011187D01*
X12315267Y-27011188D01*
X12141467Y-27104087D01*
X12141457Y-27104093D01*
X11989121Y-27229112D01*
X11989112Y-27229121D01*
X11864093Y-27381457D01*
X11864087Y-27381467D01*
X11771188Y-27555267D01*
X11771187Y-27555269D01*
X11713975Y-27743870D01*
X11713974Y-27743873D01*
X11694659Y-27939996D01*
X11694659Y-27940003D01*
X11713974Y-28136126D01*
X11713975Y-28136129D01*
X11771187Y-28324730D01*
X11771188Y-28324732D01*
X11842218Y-28457618D01*
X11864090Y-28498538D01*
X11864092Y-28498540D01*
X11864093Y-28498542D01*
X11989112Y-28650878D01*
X11989121Y-28650887D01*
X12029762Y-28684240D01*
X12141462Y-28775910D01*
X12315273Y-28868814D01*
X12503868Y-28926024D01*
X12503870Y-28926024D01*
X12503873Y-28926025D01*
X12699997Y-28945341D01*
X12700000Y-28945341D01*
X12700003Y-28945341D01*
X12896126Y-28926025D01*
X12896127Y-28926024D01*
X12896132Y-28926024D01*
X13084727Y-28868814D01*
X13258538Y-28775910D01*
X13410883Y-28650883D01*
X13535910Y-28498538D01*
X13628814Y-28324727D01*
X13686024Y-28136132D01*
X13690568Y-28090001D01*
X13705341Y-27940003D01*
X13705341Y-27939996D01*
X13686025Y-27743873D01*
X13686024Y-27743871D01*
X13686024Y-27743870D01*
X13686024Y-27743868D01*
X13634772Y-27574913D01*
X13635973Y-27513743D01*
X13659504Y-27476176D01*
X14080470Y-27055212D01*
X14126614Y-26975288D01*
X14150500Y-26886144D01*
X14150500Y-20799334D01*
X14169407Y-20741143D01*
X14218907Y-20705179D01*
X14280093Y-20705179D01*
X14329593Y-20741143D01*
X14336809Y-20752665D01*
X14404090Y-20878538D01*
X14404092Y-20878540D01*
X14404093Y-20878542D01*
X14529112Y-21030878D01*
X14529121Y-21030887D01*
X14661781Y-21139758D01*
X14681462Y-21155910D01*
X14855273Y-21248814D01*
X15043868Y-21306024D01*
X15043870Y-21306024D01*
X15043873Y-21306025D01*
X15239997Y-21325341D01*
X15240000Y-21325341D01*
X15240003Y-21325341D01*
X15436126Y-21306025D01*
X15436127Y-21306024D01*
X15436132Y-21306024D01*
X15624727Y-21248814D01*
X15798538Y-21155910D01*
X15827694Y-21131981D01*
X15884671Y-21109681D01*
X15943874Y-21125129D01*
X15982690Y-21172426D01*
X15989500Y-21208509D01*
X15989500Y-26653810D01*
X15970593Y-26712001D01*
X15960503Y-26723814D01*
X15703823Y-26980493D01*
X15649307Y-27008270D01*
X15605082Y-27005226D01*
X15436132Y-26953975D01*
X15436126Y-26953974D01*
X15240003Y-26934659D01*
X15239997Y-26934659D01*
X15043873Y-26953974D01*
X15043870Y-26953975D01*
X14855269Y-27011187D01*
X14855267Y-27011188D01*
X14681467Y-27104087D01*
X14681457Y-27104093D01*
X14529121Y-27229112D01*
X14529112Y-27229121D01*
X14404093Y-27381457D01*
X14404087Y-27381467D01*
X14311188Y-27555267D01*
X14311187Y-27555269D01*
X14253975Y-27743870D01*
X14253974Y-27743873D01*
X14234659Y-27939996D01*
X14234659Y-27940003D01*
X14253974Y-28136126D01*
X14253975Y-28136129D01*
X14311187Y-28324730D01*
X14311188Y-28324732D01*
X14382218Y-28457618D01*
X14404090Y-28498538D01*
X14404092Y-28498540D01*
X14404093Y-28498542D01*
X14529112Y-28650878D01*
X14529121Y-28650887D01*
X14569762Y-28684240D01*
X14681462Y-28775910D01*
X14855273Y-28868814D01*
X15043868Y-28926024D01*
X15043870Y-28926024D01*
X15043873Y-28926025D01*
X15239997Y-28945341D01*
X15240000Y-28945341D01*
X15240003Y-28945341D01*
X15436126Y-28926025D01*
X15436127Y-28926024D01*
X15436132Y-28926024D01*
X15624727Y-28868814D01*
X15798538Y-28775910D01*
X15950883Y-28650883D01*
X16075910Y-28498538D01*
X16168814Y-28324727D01*
X16226024Y-28136132D01*
X16230568Y-28090001D01*
X16245341Y-27940003D01*
X16245341Y-27939996D01*
X16226025Y-27743873D01*
X16226024Y-27743871D01*
X16226024Y-27743870D01*
X16226024Y-27743868D01*
X16174772Y-27574913D01*
X16175973Y-27513743D01*
X16199504Y-27476176D01*
X16620470Y-27055212D01*
X16666614Y-26975288D01*
X16690500Y-26886144D01*
X16690500Y-20799334D01*
X16709407Y-20741143D01*
X16758907Y-20705179D01*
X16820093Y-20705179D01*
X16869593Y-20741143D01*
X16876809Y-20752665D01*
X16944090Y-20878538D01*
X16944092Y-20878540D01*
X16944093Y-20878542D01*
X17069112Y-21030878D01*
X17069121Y-21030887D01*
X17201781Y-21139758D01*
X17221462Y-21155910D01*
X17395273Y-21248814D01*
X17583868Y-21306024D01*
X17583870Y-21306024D01*
X17583873Y-21306025D01*
X17779997Y-21325341D01*
X17780000Y-21325341D01*
X17780003Y-21325341D01*
X17976126Y-21306025D01*
X17976127Y-21306024D01*
X17976132Y-21306024D01*
X18164727Y-21248814D01*
X18338538Y-21155910D01*
X18367694Y-21131981D01*
X18424671Y-21109681D01*
X18483874Y-21125129D01*
X18522690Y-21172426D01*
X18529500Y-21208509D01*
X18529500Y-26653810D01*
X18510593Y-26712001D01*
X18500503Y-26723814D01*
X18243823Y-26980493D01*
X18189307Y-27008270D01*
X18145082Y-27005226D01*
X17976132Y-26953975D01*
X17976126Y-26953974D01*
X17780003Y-26934659D01*
X17779997Y-26934659D01*
X17583873Y-26953974D01*
X17583870Y-26953975D01*
X17395269Y-27011187D01*
X17395267Y-27011188D01*
X17221467Y-27104087D01*
X17221457Y-27104093D01*
X17069121Y-27229112D01*
X17069112Y-27229121D01*
X16944093Y-27381457D01*
X16944087Y-27381467D01*
X16851188Y-27555267D01*
X16851187Y-27555269D01*
X16793975Y-27743870D01*
X16793974Y-27743873D01*
X16774659Y-27939996D01*
X16774659Y-27940003D01*
X16793974Y-28136126D01*
X16793975Y-28136129D01*
X16851187Y-28324730D01*
X16851188Y-28324732D01*
X16922218Y-28457618D01*
X16944090Y-28498538D01*
X16944092Y-28498540D01*
X16944093Y-28498542D01*
X17069112Y-28650878D01*
X17069121Y-28650887D01*
X17109762Y-28684240D01*
X17221462Y-28775910D01*
X17395273Y-28868814D01*
X17583868Y-28926024D01*
X17583870Y-28926024D01*
X17583873Y-28926025D01*
X17779997Y-28945341D01*
X17780000Y-28945341D01*
X17780003Y-28945341D01*
X17976126Y-28926025D01*
X17976127Y-28926024D01*
X17976132Y-28926024D01*
X18164727Y-28868814D01*
X18338538Y-28775910D01*
X18490883Y-28650883D01*
X18615910Y-28498538D01*
X18708814Y-28324727D01*
X18766024Y-28136132D01*
X18770568Y-28090001D01*
X18785341Y-27940003D01*
X18785341Y-27939996D01*
X18766025Y-27743873D01*
X18766024Y-27743871D01*
X18766024Y-27743870D01*
X18766024Y-27743868D01*
X18714772Y-27574913D01*
X18715973Y-27513743D01*
X18739504Y-27476176D01*
X19160470Y-27055212D01*
X19206614Y-26975288D01*
X19230500Y-26886144D01*
X19230500Y-20799334D01*
X19249407Y-20741143D01*
X19298907Y-20705179D01*
X19360093Y-20705179D01*
X19409593Y-20741143D01*
X19416809Y-20752665D01*
X19484090Y-20878538D01*
X19484092Y-20878540D01*
X19484093Y-20878542D01*
X19609112Y-21030878D01*
X19609121Y-21030887D01*
X19741781Y-21139758D01*
X19761462Y-21155910D01*
X19935273Y-21248814D01*
X20123868Y-21306024D01*
X20123870Y-21306024D01*
X20123873Y-21306025D01*
X20319997Y-21325341D01*
X20320000Y-21325341D01*
X20320003Y-21325341D01*
X20516126Y-21306025D01*
X20516127Y-21306024D01*
X20516132Y-21306024D01*
X20704727Y-21248814D01*
X20878538Y-21155910D01*
X20907694Y-21131981D01*
X20964671Y-21109681D01*
X21023874Y-21125129D01*
X21062690Y-21172426D01*
X21069500Y-21208509D01*
X21069500Y-26653810D01*
X21050593Y-26712001D01*
X21040503Y-26723814D01*
X20783823Y-26980493D01*
X20729307Y-27008270D01*
X20685082Y-27005226D01*
X20516132Y-26953975D01*
X20516126Y-26953974D01*
X20320003Y-26934659D01*
X20319997Y-26934659D01*
X20123873Y-26953974D01*
X20123870Y-26953975D01*
X19935269Y-27011187D01*
X19935267Y-27011188D01*
X19761467Y-27104087D01*
X19761457Y-27104093D01*
X19609121Y-27229112D01*
X19609112Y-27229121D01*
X19484093Y-27381457D01*
X19484087Y-27381467D01*
X19391188Y-27555267D01*
X19391187Y-27555269D01*
X19333975Y-27743870D01*
X19333974Y-27743873D01*
X19314659Y-27939996D01*
X19314659Y-27940003D01*
X19333974Y-28136126D01*
X19333975Y-28136129D01*
X19391187Y-28324730D01*
X19391188Y-28324732D01*
X19462218Y-28457618D01*
X19484090Y-28498538D01*
X19484092Y-28498540D01*
X19484093Y-28498542D01*
X19609112Y-28650878D01*
X19609121Y-28650887D01*
X19649762Y-28684240D01*
X19761462Y-28775910D01*
X19935273Y-28868814D01*
X20123868Y-28926024D01*
X20123870Y-28926024D01*
X20123873Y-28926025D01*
X20319997Y-28945341D01*
X20320000Y-28945341D01*
X20320003Y-28945341D01*
X20516126Y-28926025D01*
X20516127Y-28926024D01*
X20516132Y-28926024D01*
X20704727Y-28868814D01*
X20878538Y-28775910D01*
X21030883Y-28650883D01*
X21155910Y-28498538D01*
X21248814Y-28324727D01*
X21306024Y-28136132D01*
X21310568Y-28090001D01*
X21325341Y-27940003D01*
X21325341Y-27939996D01*
X21306025Y-27743873D01*
X21306024Y-27743871D01*
X21306024Y-27743870D01*
X21306024Y-27743868D01*
X21254772Y-27574913D01*
X21255973Y-27513743D01*
X21279504Y-27476176D01*
X21700470Y-27055212D01*
X21746614Y-26975288D01*
X21770500Y-26886144D01*
X21770500Y-21352916D01*
X21789407Y-21294725D01*
X21838907Y-21258761D01*
X21900093Y-21258761D01*
X21924495Y-21270597D01*
X21981769Y-21308867D01*
X22026231Y-21317711D01*
X22040241Y-21320498D01*
X22040246Y-21320498D01*
X22040252Y-21320500D01*
X23510500Y-21320500D01*
X23568691Y-21339407D01*
X23604655Y-21388907D01*
X23609500Y-21419500D01*
X23609500Y-26653810D01*
X23590593Y-26712001D01*
X23580503Y-26723814D01*
X23323823Y-26980493D01*
X23269307Y-27008270D01*
X23225082Y-27005226D01*
X23056132Y-26953975D01*
X23056126Y-26953974D01*
X22860003Y-26934659D01*
X22859997Y-26934659D01*
X22663873Y-26953974D01*
X22663870Y-26953975D01*
X22475269Y-27011187D01*
X22475267Y-27011188D01*
X22301467Y-27104087D01*
X22301457Y-27104093D01*
X22149121Y-27229112D01*
X22149112Y-27229121D01*
X22024093Y-27381457D01*
X22024087Y-27381467D01*
X21931188Y-27555267D01*
X21931187Y-27555269D01*
X21873975Y-27743870D01*
X21873974Y-27743873D01*
X21854659Y-27939996D01*
X21854659Y-27940003D01*
X21873974Y-28136126D01*
X21873975Y-28136129D01*
X21931187Y-28324730D01*
X21931188Y-28324732D01*
X22002218Y-28457618D01*
X22024090Y-28498538D01*
X22024092Y-28498540D01*
X22024093Y-28498542D01*
X22149112Y-28650878D01*
X22149121Y-28650887D01*
X22189762Y-28684240D01*
X22301462Y-28775910D01*
X22475273Y-28868814D01*
X22663868Y-28926024D01*
X22663870Y-28926024D01*
X22663873Y-28926025D01*
X22859997Y-28945341D01*
X22860000Y-28945341D01*
X22860003Y-28945341D01*
X23056126Y-28926025D01*
X23056127Y-28926024D01*
X23056132Y-28926024D01*
X23244727Y-28868814D01*
X23418538Y-28775910D01*
X23570883Y-28650883D01*
X23695910Y-28498538D01*
X23788814Y-28324727D01*
X23846024Y-28136132D01*
X23850568Y-28090001D01*
X23865341Y-27940003D01*
X26934659Y-27940003D01*
X26953974Y-28136126D01*
X26953975Y-28136129D01*
X27011187Y-28324730D01*
X27011188Y-28324732D01*
X27082218Y-28457618D01*
X27104090Y-28498538D01*
X27104092Y-28498540D01*
X27104093Y-28498542D01*
X27229112Y-28650878D01*
X27229121Y-28650887D01*
X27269762Y-28684240D01*
X27381462Y-28775910D01*
X27555273Y-28868814D01*
X27743868Y-28926024D01*
X27743870Y-28926024D01*
X27743873Y-28926025D01*
X27939997Y-28945341D01*
X27940000Y-28945341D01*
X27940003Y-28945341D01*
X28136126Y-28926025D01*
X28136127Y-28926024D01*
X28136132Y-28926024D01*
X28324727Y-28868814D01*
X28498538Y-28775910D01*
X28650883Y-28650883D01*
X28775910Y-28498538D01*
X28868814Y-28324727D01*
X28926024Y-28136132D01*
X28930568Y-28090001D01*
X28945341Y-27940003D01*
X28945341Y-27939996D01*
X28926025Y-27743873D01*
X28926024Y-27743871D01*
X28926024Y-27743870D01*
X28926024Y-27743868D01*
X28874772Y-27574913D01*
X28875973Y-27513743D01*
X28899504Y-27476176D01*
X29320470Y-27055212D01*
X29366614Y-26975288D01*
X29390500Y-26886144D01*
X29390500Y-20799334D01*
X29409407Y-20741143D01*
X29458907Y-20705179D01*
X29520093Y-20705179D01*
X29569593Y-20741143D01*
X29576809Y-20752665D01*
X29644090Y-20878538D01*
X29644092Y-20878540D01*
X29644093Y-20878542D01*
X29769112Y-21030878D01*
X29769121Y-21030887D01*
X29901781Y-21139758D01*
X29921462Y-21155910D01*
X30095273Y-21248814D01*
X30283868Y-21306024D01*
X30283870Y-21306024D01*
X30283873Y-21306025D01*
X30479997Y-21325341D01*
X30480000Y-21325341D01*
X30480003Y-21325341D01*
X30676126Y-21306025D01*
X30676127Y-21306024D01*
X30676132Y-21306024D01*
X30864727Y-21248814D01*
X31038538Y-21155910D01*
X31067694Y-21131981D01*
X31124671Y-21109681D01*
X31183874Y-21125129D01*
X31222690Y-21172426D01*
X31229500Y-21208509D01*
X31229500Y-26653810D01*
X31210593Y-26712001D01*
X31200503Y-26723814D01*
X30943823Y-26980493D01*
X30889307Y-27008270D01*
X30845082Y-27005226D01*
X30676132Y-26953975D01*
X30676126Y-26953974D01*
X30480003Y-26934659D01*
X30479997Y-26934659D01*
X30283873Y-26953974D01*
X30283870Y-26953975D01*
X30095269Y-27011187D01*
X30095267Y-27011188D01*
X29921467Y-27104087D01*
X29921457Y-27104093D01*
X29769121Y-27229112D01*
X29769112Y-27229121D01*
X29644093Y-27381457D01*
X29644087Y-27381467D01*
X29551188Y-27555267D01*
X29551187Y-27555269D01*
X29493975Y-27743870D01*
X29493974Y-27743873D01*
X29474659Y-27939996D01*
X29474659Y-27940003D01*
X29493974Y-28136126D01*
X29493975Y-28136129D01*
X29551187Y-28324730D01*
X29551188Y-28324732D01*
X29622218Y-28457618D01*
X29644090Y-28498538D01*
X29644092Y-28498540D01*
X29644093Y-28498542D01*
X29769112Y-28650878D01*
X29769121Y-28650887D01*
X29809762Y-28684240D01*
X29921462Y-28775910D01*
X30095273Y-28868814D01*
X30283868Y-28926024D01*
X30283870Y-28926024D01*
X30283873Y-28926025D01*
X30479997Y-28945341D01*
X30480000Y-28945341D01*
X30480003Y-28945341D01*
X30676126Y-28926025D01*
X30676127Y-28926024D01*
X30676132Y-28926024D01*
X30864727Y-28868814D01*
X31038538Y-28775910D01*
X31190883Y-28650883D01*
X31315910Y-28498538D01*
X31408814Y-28324727D01*
X31466024Y-28136132D01*
X31470568Y-28090001D01*
X31485341Y-27940003D01*
X31485341Y-27939996D01*
X31466025Y-27743873D01*
X31466024Y-27743871D01*
X31466024Y-27743870D01*
X31466024Y-27743868D01*
X31414772Y-27574913D01*
X31415973Y-27513743D01*
X31439504Y-27476176D01*
X31860470Y-27055212D01*
X31906614Y-26975288D01*
X31930500Y-26886144D01*
X31930500Y-20799334D01*
X31949407Y-20741143D01*
X31998907Y-20705179D01*
X32060093Y-20705179D01*
X32109593Y-20741143D01*
X32116809Y-20752665D01*
X32184090Y-20878538D01*
X32184092Y-20878540D01*
X32184093Y-20878542D01*
X32309112Y-21030878D01*
X32309121Y-21030887D01*
X32441781Y-21139758D01*
X32461462Y-21155910D01*
X32635273Y-21248814D01*
X32823868Y-21306024D01*
X32823870Y-21306024D01*
X32823873Y-21306025D01*
X33019997Y-21325341D01*
X33020000Y-21325341D01*
X33020003Y-21325341D01*
X33216126Y-21306025D01*
X33216127Y-21306024D01*
X33216132Y-21306024D01*
X33404727Y-21248814D01*
X33578538Y-21155910D01*
X33607694Y-21131981D01*
X33664671Y-21109681D01*
X33723874Y-21125129D01*
X33762690Y-21172426D01*
X33769500Y-21208509D01*
X33769500Y-26653810D01*
X33750593Y-26712001D01*
X33740503Y-26723814D01*
X33483823Y-26980493D01*
X33429307Y-27008270D01*
X33385082Y-27005226D01*
X33216132Y-26953975D01*
X33216126Y-26953974D01*
X33020003Y-26934659D01*
X33019997Y-26934659D01*
X32823873Y-26953974D01*
X32823870Y-26953975D01*
X32635269Y-27011187D01*
X32635267Y-27011188D01*
X32461467Y-27104087D01*
X32461457Y-27104093D01*
X32309121Y-27229112D01*
X32309112Y-27229121D01*
X32184093Y-27381457D01*
X32184087Y-27381467D01*
X32091188Y-27555267D01*
X32091187Y-27555269D01*
X32033975Y-27743870D01*
X32033974Y-27743873D01*
X32014659Y-27939996D01*
X32014659Y-27940003D01*
X32033974Y-28136126D01*
X32033975Y-28136129D01*
X32091187Y-28324730D01*
X32091188Y-28324732D01*
X32162218Y-28457618D01*
X32184090Y-28498538D01*
X32184092Y-28498540D01*
X32184093Y-28498542D01*
X32309112Y-28650878D01*
X32309121Y-28650887D01*
X32349762Y-28684240D01*
X32461462Y-28775910D01*
X32635273Y-28868814D01*
X32823868Y-28926024D01*
X32823870Y-28926024D01*
X32823873Y-28926025D01*
X33019997Y-28945341D01*
X33020000Y-28945341D01*
X33020003Y-28945341D01*
X33216126Y-28926025D01*
X33216127Y-28926024D01*
X33216132Y-28926024D01*
X33404727Y-28868814D01*
X33578538Y-28775910D01*
X33730883Y-28650883D01*
X33855910Y-28498538D01*
X33948814Y-28324727D01*
X34006024Y-28136132D01*
X34010568Y-28090001D01*
X34025341Y-27940003D01*
X34025341Y-27939996D01*
X34006025Y-27743873D01*
X34006024Y-27743871D01*
X34006024Y-27743870D01*
X34006024Y-27743868D01*
X33954772Y-27574913D01*
X33955973Y-27513743D01*
X33979504Y-27476176D01*
X34400470Y-27055212D01*
X34446614Y-26975288D01*
X34470500Y-26886144D01*
X34470500Y-20799334D01*
X34489407Y-20741143D01*
X34538907Y-20705179D01*
X34600093Y-20705179D01*
X34649593Y-20741143D01*
X34656809Y-20752665D01*
X34724090Y-20878538D01*
X34724092Y-20878540D01*
X34724093Y-20878542D01*
X34849112Y-21030878D01*
X34849121Y-21030887D01*
X34981781Y-21139758D01*
X35001462Y-21155910D01*
X35175273Y-21248814D01*
X35363868Y-21306024D01*
X35363870Y-21306024D01*
X35363873Y-21306025D01*
X35559997Y-21325341D01*
X35560000Y-21325341D01*
X35560003Y-21325341D01*
X35756126Y-21306025D01*
X35756127Y-21306024D01*
X35756132Y-21306024D01*
X35944727Y-21248814D01*
X36118538Y-21155910D01*
X36147694Y-21131981D01*
X36204671Y-21109681D01*
X36263874Y-21125129D01*
X36302690Y-21172426D01*
X36309500Y-21208509D01*
X36309500Y-26653810D01*
X36290593Y-26712001D01*
X36280503Y-26723814D01*
X36023823Y-26980493D01*
X35969307Y-27008270D01*
X35925082Y-27005226D01*
X35756132Y-26953975D01*
X35756126Y-26953974D01*
X35560003Y-26934659D01*
X35559997Y-26934659D01*
X35363873Y-26953974D01*
X35363870Y-26953975D01*
X35175269Y-27011187D01*
X35175267Y-27011188D01*
X35001467Y-27104087D01*
X35001457Y-27104093D01*
X34849121Y-27229112D01*
X34849112Y-27229121D01*
X34724093Y-27381457D01*
X34724087Y-27381467D01*
X34631188Y-27555267D01*
X34631187Y-27555269D01*
X34573975Y-27743870D01*
X34573974Y-27743873D01*
X34554659Y-27939996D01*
X34554659Y-27940003D01*
X34573974Y-28136126D01*
X34573975Y-28136129D01*
X34631187Y-28324730D01*
X34631188Y-28324732D01*
X34702218Y-28457618D01*
X34724090Y-28498538D01*
X34724092Y-28498540D01*
X34724093Y-28498542D01*
X34849112Y-28650878D01*
X34849121Y-28650887D01*
X34889762Y-28684240D01*
X35001462Y-28775910D01*
X35175273Y-28868814D01*
X35363868Y-28926024D01*
X35363870Y-28926024D01*
X35363873Y-28926025D01*
X35559997Y-28945341D01*
X35560000Y-28945341D01*
X35560003Y-28945341D01*
X35756126Y-28926025D01*
X35756127Y-28926024D01*
X35756132Y-28926024D01*
X35944727Y-28868814D01*
X36118538Y-28775910D01*
X36270883Y-28650883D01*
X36395910Y-28498538D01*
X36488814Y-28324727D01*
X36546024Y-28136132D01*
X36550568Y-28090001D01*
X36565341Y-27940003D01*
X36565341Y-27939996D01*
X36546025Y-27743873D01*
X36546024Y-27743871D01*
X36546024Y-27743870D01*
X36546024Y-27743868D01*
X36494772Y-27574913D01*
X36495973Y-27513743D01*
X36519504Y-27476176D01*
X36940470Y-27055212D01*
X36986614Y-26975288D01*
X37010500Y-26886144D01*
X37010500Y-20799334D01*
X37029407Y-20741143D01*
X37078907Y-20705179D01*
X37140093Y-20705179D01*
X37189593Y-20741143D01*
X37196809Y-20752665D01*
X37264090Y-20878538D01*
X37264092Y-20878540D01*
X37264093Y-20878542D01*
X37389112Y-21030878D01*
X37389121Y-21030887D01*
X37521781Y-21139758D01*
X37541462Y-21155910D01*
X37715273Y-21248814D01*
X37903868Y-21306024D01*
X37903870Y-21306024D01*
X37903873Y-21306025D01*
X38099997Y-21325341D01*
X38100000Y-21325341D01*
X38100003Y-21325341D01*
X38296126Y-21306025D01*
X38296127Y-21306024D01*
X38296132Y-21306024D01*
X38484727Y-21248814D01*
X38658538Y-21155910D01*
X38687694Y-21131981D01*
X38744671Y-21109681D01*
X38803874Y-21125129D01*
X38842690Y-21172426D01*
X38849500Y-21208509D01*
X38849500Y-26653810D01*
X38830593Y-26712001D01*
X38820503Y-26723814D01*
X38563823Y-26980493D01*
X38509307Y-27008270D01*
X38465082Y-27005226D01*
X38296132Y-26953975D01*
X38296126Y-26953974D01*
X38100003Y-26934659D01*
X38099997Y-26934659D01*
X37903873Y-26953974D01*
X37903870Y-26953975D01*
X37715269Y-27011187D01*
X37715267Y-27011188D01*
X37541467Y-27104087D01*
X37541457Y-27104093D01*
X37389121Y-27229112D01*
X37389112Y-27229121D01*
X37264093Y-27381457D01*
X37264087Y-27381467D01*
X37171188Y-27555267D01*
X37171187Y-27555269D01*
X37113975Y-27743870D01*
X37113974Y-27743873D01*
X37094659Y-27939996D01*
X37094659Y-27940003D01*
X37113974Y-28136126D01*
X37113975Y-28136129D01*
X37171187Y-28324730D01*
X37171188Y-28324732D01*
X37242218Y-28457618D01*
X37264090Y-28498538D01*
X37264092Y-28498540D01*
X37264093Y-28498542D01*
X37389112Y-28650878D01*
X37389121Y-28650887D01*
X37429762Y-28684240D01*
X37541462Y-28775910D01*
X37715273Y-28868814D01*
X37903868Y-28926024D01*
X37903870Y-28926024D01*
X37903873Y-28926025D01*
X38099997Y-28945341D01*
X38100000Y-28945341D01*
X38100003Y-28945341D01*
X38296126Y-28926025D01*
X38296127Y-28926024D01*
X38296132Y-28926024D01*
X38484727Y-28868814D01*
X38658538Y-28775910D01*
X38810883Y-28650883D01*
X38935910Y-28498538D01*
X39028814Y-28324727D01*
X39086024Y-28136132D01*
X39090568Y-28090001D01*
X39105341Y-27940003D01*
X39105341Y-27939996D01*
X39086025Y-27743873D01*
X39086024Y-27743871D01*
X39086024Y-27743870D01*
X39086024Y-27743868D01*
X39034772Y-27574913D01*
X39035973Y-27513743D01*
X39059504Y-27476176D01*
X39480470Y-27055212D01*
X39526614Y-26975288D01*
X39550500Y-26886144D01*
X39550500Y-20799334D01*
X39569407Y-20741143D01*
X39618907Y-20705179D01*
X39680093Y-20705179D01*
X39729593Y-20741143D01*
X39736809Y-20752665D01*
X39804090Y-20878538D01*
X39804092Y-20878540D01*
X39804093Y-20878542D01*
X39929112Y-21030878D01*
X39929121Y-21030887D01*
X40061781Y-21139758D01*
X40081462Y-21155910D01*
X40255273Y-21248814D01*
X40443868Y-21306024D01*
X40443870Y-21306024D01*
X40443873Y-21306025D01*
X40639997Y-21325341D01*
X40640000Y-21325341D01*
X40640003Y-21325341D01*
X40836126Y-21306025D01*
X40836127Y-21306024D01*
X40836132Y-21306024D01*
X41024727Y-21248814D01*
X41198538Y-21155910D01*
X41227694Y-21131981D01*
X41284671Y-21109681D01*
X41343874Y-21125129D01*
X41382690Y-21172426D01*
X41389500Y-21208509D01*
X41389500Y-26653810D01*
X41370593Y-26712001D01*
X41360503Y-26723814D01*
X41103823Y-26980493D01*
X41049307Y-27008270D01*
X41005082Y-27005226D01*
X40836132Y-26953975D01*
X40836126Y-26953974D01*
X40640003Y-26934659D01*
X40639997Y-26934659D01*
X40443873Y-26953974D01*
X40443870Y-26953975D01*
X40255269Y-27011187D01*
X40255267Y-27011188D01*
X40081467Y-27104087D01*
X40081457Y-27104093D01*
X39929121Y-27229112D01*
X39929112Y-27229121D01*
X39804093Y-27381457D01*
X39804087Y-27381467D01*
X39711188Y-27555267D01*
X39711187Y-27555269D01*
X39653975Y-27743870D01*
X39653974Y-27743873D01*
X39634659Y-27939996D01*
X39634659Y-27940003D01*
X39653974Y-28136126D01*
X39653975Y-28136129D01*
X39711187Y-28324730D01*
X39711188Y-28324732D01*
X39782218Y-28457618D01*
X39804090Y-28498538D01*
X39804092Y-28498540D01*
X39804093Y-28498542D01*
X39929112Y-28650878D01*
X39929121Y-28650887D01*
X39969762Y-28684240D01*
X40081462Y-28775910D01*
X40255273Y-28868814D01*
X40443868Y-28926024D01*
X40443870Y-28926024D01*
X40443873Y-28926025D01*
X40639997Y-28945341D01*
X40640000Y-28945341D01*
X40640003Y-28945341D01*
X40836126Y-28926025D01*
X40836127Y-28926024D01*
X40836132Y-28926024D01*
X41024727Y-28868814D01*
X41198538Y-28775910D01*
X41350883Y-28650883D01*
X41475910Y-28498538D01*
X41568814Y-28324727D01*
X41626024Y-28136132D01*
X41630568Y-28090001D01*
X41645341Y-27940003D01*
X41645341Y-27939996D01*
X41626025Y-27743873D01*
X41626024Y-27743871D01*
X41626024Y-27743870D01*
X41626024Y-27743868D01*
X41574772Y-27574913D01*
X41575973Y-27513743D01*
X41599504Y-27476176D01*
X42020470Y-27055212D01*
X42066614Y-26975288D01*
X42090500Y-26886144D01*
X42090500Y-20799334D01*
X42109407Y-20741143D01*
X42158907Y-20705179D01*
X42220093Y-20705179D01*
X42269593Y-20741143D01*
X42276809Y-20752665D01*
X42344090Y-20878538D01*
X42344092Y-20878540D01*
X42344093Y-20878542D01*
X42469112Y-21030878D01*
X42469121Y-21030887D01*
X42601781Y-21139758D01*
X42621462Y-21155910D01*
X42795273Y-21248814D01*
X42983868Y-21306024D01*
X42983870Y-21306024D01*
X42983873Y-21306025D01*
X43179997Y-21325341D01*
X43180000Y-21325341D01*
X43180003Y-21325341D01*
X43376126Y-21306025D01*
X43376127Y-21306024D01*
X43376132Y-21306024D01*
X43564727Y-21248814D01*
X43738538Y-21155910D01*
X43767694Y-21131981D01*
X43824671Y-21109681D01*
X43883874Y-21125129D01*
X43922690Y-21172426D01*
X43929500Y-21208509D01*
X43929500Y-26653810D01*
X43910593Y-26712001D01*
X43900503Y-26723814D01*
X43643823Y-26980493D01*
X43589307Y-27008270D01*
X43545082Y-27005226D01*
X43376132Y-26953975D01*
X43376126Y-26953974D01*
X43180003Y-26934659D01*
X43179997Y-26934659D01*
X42983873Y-26953974D01*
X42983870Y-26953975D01*
X42795269Y-27011187D01*
X42795267Y-27011188D01*
X42621467Y-27104087D01*
X42621457Y-27104093D01*
X42469121Y-27229112D01*
X42469112Y-27229121D01*
X42344093Y-27381457D01*
X42344087Y-27381467D01*
X42251188Y-27555267D01*
X42251187Y-27555269D01*
X42193975Y-27743870D01*
X42193974Y-27743873D01*
X42174659Y-27939996D01*
X42174659Y-27940003D01*
X42193974Y-28136126D01*
X42193975Y-28136129D01*
X42251187Y-28324730D01*
X42251188Y-28324732D01*
X42322218Y-28457618D01*
X42344090Y-28498538D01*
X42344092Y-28498540D01*
X42344093Y-28498542D01*
X42469112Y-28650878D01*
X42469121Y-28650887D01*
X42509762Y-28684240D01*
X42621462Y-28775910D01*
X42795273Y-28868814D01*
X42983868Y-28926024D01*
X42983870Y-28926024D01*
X42983873Y-28926025D01*
X43179997Y-28945341D01*
X43180000Y-28945341D01*
X43180003Y-28945341D01*
X43376126Y-28926025D01*
X43376127Y-28926024D01*
X43376132Y-28926024D01*
X43564727Y-28868814D01*
X43738538Y-28775910D01*
X43890883Y-28650883D01*
X44015910Y-28498538D01*
X44108814Y-28324727D01*
X44166024Y-28136132D01*
X44170568Y-28090001D01*
X44170568Y-28090000D01*
X44629187Y-28090000D01*
X44634097Y-28142989D01*
X44689887Y-28339070D01*
X44780750Y-28521548D01*
X44780755Y-28521557D01*
X44903608Y-28684240D01*
X45054266Y-28821582D01*
X45227581Y-28928895D01*
X45227586Y-28928898D01*
X45417683Y-29002541D01*
X45569999Y-29031014D01*
X45570000Y-29031014D01*
X45570000Y-28313918D01*
X45667339Y-28340000D01*
X45772661Y-28340000D01*
X45870000Y-28313918D01*
X45870000Y-29031014D01*
X46022316Y-29002541D01*
X46212413Y-28928898D01*
X46212418Y-28928895D01*
X46385733Y-28821582D01*
X46536391Y-28684240D01*
X46659244Y-28521557D01*
X46659249Y-28521548D01*
X46750112Y-28339070D01*
X46805902Y-28142989D01*
X46810813Y-28090000D01*
X46093918Y-28090000D01*
X46120000Y-27992661D01*
X46120000Y-27887339D01*
X46093918Y-27790000D01*
X46810812Y-27790000D01*
X46805902Y-27737010D01*
X46750112Y-27540929D01*
X46659249Y-27358451D01*
X46659244Y-27358442D01*
X46536391Y-27195759D01*
X46385733Y-27058417D01*
X46212418Y-26951104D01*
X46212413Y-26951101D01*
X46022319Y-26877459D01*
X46022313Y-26877457D01*
X45870000Y-26848984D01*
X45870000Y-27566081D01*
X45772661Y-27540000D01*
X45667339Y-27540000D01*
X45570000Y-27566081D01*
X45570000Y-26848985D01*
X45569999Y-26848984D01*
X45417686Y-26877457D01*
X45417680Y-26877459D01*
X45227586Y-26951101D01*
X45227581Y-26951104D01*
X45054266Y-27058417D01*
X44903608Y-27195759D01*
X44780755Y-27358442D01*
X44780750Y-27358451D01*
X44689887Y-27540929D01*
X44634097Y-27737010D01*
X44629187Y-27790000D01*
X45346082Y-27790000D01*
X45320000Y-27887339D01*
X45320000Y-27992661D01*
X45346082Y-28090000D01*
X44629187Y-28090000D01*
X44170568Y-28090000D01*
X44185341Y-27940003D01*
X44185341Y-27939996D01*
X44166025Y-27743873D01*
X44166024Y-27743871D01*
X44166024Y-27743870D01*
X44166024Y-27743868D01*
X44114772Y-27574913D01*
X44115973Y-27513743D01*
X44139504Y-27476176D01*
X44560470Y-27055212D01*
X44606614Y-26975288D01*
X44630500Y-26886144D01*
X44630500Y-23200004D01*
X63654938Y-23200004D01*
X63675121Y-23379137D01*
X63675124Y-23379149D01*
X63734663Y-23549302D01*
X63797908Y-23649957D01*
X64210000Y-23237865D01*
X64210000Y-23249728D01*
X64248060Y-23341614D01*
X64318386Y-23411940D01*
X64410272Y-23450000D01*
X64422131Y-23450000D01*
X64010040Y-23862089D01*
X64110697Y-23925336D01*
X64280850Y-23984875D01*
X64280862Y-23984878D01*
X64459996Y-24005062D01*
X64460004Y-24005062D01*
X64639137Y-23984878D01*
X64639149Y-23984875D01*
X64809303Y-23925335D01*
X64809307Y-23925334D01*
X64909957Y-23862090D01*
X64497867Y-23450000D01*
X64509728Y-23450000D01*
X64601614Y-23411940D01*
X64671940Y-23341614D01*
X64710000Y-23249728D01*
X64710000Y-23237867D01*
X65122090Y-23649957D01*
X65185334Y-23549307D01*
X65185335Y-23549303D01*
X65244875Y-23379149D01*
X65244878Y-23379137D01*
X65265062Y-23200004D01*
X65265062Y-23199995D01*
X65244878Y-23020862D01*
X65244875Y-23020850D01*
X65185336Y-22850697D01*
X65122089Y-22750040D01*
X64710000Y-23162130D01*
X64710000Y-23150272D01*
X64671940Y-23058386D01*
X64601614Y-22988060D01*
X64509728Y-22950000D01*
X64497865Y-22950000D01*
X64909957Y-22537908D01*
X64809302Y-22474663D01*
X64639149Y-22415124D01*
X64639137Y-22415121D01*
X64460004Y-22394938D01*
X64459996Y-22394938D01*
X64280862Y-22415121D01*
X64280850Y-22415124D01*
X64110697Y-22474663D01*
X64010041Y-22537908D01*
X64422133Y-22950000D01*
X64410272Y-22950000D01*
X64318386Y-22988060D01*
X64248060Y-23058386D01*
X64210000Y-23150272D01*
X64210000Y-23162133D01*
X63797908Y-22750041D01*
X63734663Y-22850697D01*
X63675124Y-23020850D01*
X63675121Y-23020862D01*
X63654938Y-23199995D01*
X63654938Y-23200004D01*
X44630500Y-23200004D01*
X44630500Y-21352916D01*
X44649407Y-21294725D01*
X44698907Y-21258761D01*
X44760093Y-21258761D01*
X44784495Y-21270597D01*
X44841769Y-21308867D01*
X44886231Y-21317711D01*
X44900241Y-21320498D01*
X44900246Y-21320498D01*
X44900252Y-21320500D01*
X44900253Y-21320500D01*
X46539747Y-21320500D01*
X46539748Y-21320500D01*
X46598231Y-21308867D01*
X46664552Y-21264552D01*
X46708867Y-21198231D01*
X46720500Y-21139748D01*
X46720500Y-19500252D01*
X46708867Y-19441769D01*
X46664552Y-19375448D01*
X46655498Y-19369398D01*
X46598233Y-19331134D01*
X46598231Y-19331133D01*
X46598228Y-19331132D01*
X46598227Y-19331132D01*
X46539758Y-19319501D01*
X46539748Y-19319500D01*
X44900252Y-19319500D01*
X44900251Y-19319500D01*
X44900241Y-19319501D01*
X44841772Y-19331132D01*
X44841766Y-19331134D01*
X44784502Y-19369398D01*
X44725614Y-19386007D01*
X44668210Y-19364830D01*
X44634217Y-19313956D01*
X44630500Y-19287083D01*
X44630500Y-15023857D01*
X44617500Y-14975341D01*
X44606614Y-14934712D01*
X44585888Y-14898814D01*
X44585888Y-14898813D01*
X44560470Y-14854788D01*
X44139506Y-14433823D01*
X44111729Y-14379307D01*
X44114772Y-14335083D01*
X44166024Y-14166132D01*
X44170568Y-14120001D01*
X44170568Y-14120000D01*
X44629187Y-14120000D01*
X44634097Y-14172989D01*
X44689887Y-14369070D01*
X44780750Y-14551548D01*
X44780755Y-14551557D01*
X44903608Y-14714240D01*
X45054266Y-14851582D01*
X45227581Y-14958895D01*
X45227586Y-14958898D01*
X45417683Y-15032541D01*
X45569999Y-15061014D01*
X45570000Y-15061014D01*
X45570000Y-14343918D01*
X45667339Y-14370000D01*
X45772661Y-14370000D01*
X45870000Y-14343918D01*
X45870000Y-15061014D01*
X46022316Y-15032541D01*
X46212413Y-14958898D01*
X46212418Y-14958895D01*
X46385733Y-14851582D01*
X46536391Y-14714240D01*
X46659244Y-14551557D01*
X46659249Y-14551548D01*
X46750112Y-14369070D01*
X46805902Y-14172989D01*
X46810813Y-14120000D01*
X46093918Y-14120000D01*
X46120000Y-14022661D01*
X46120000Y-13917339D01*
X46093918Y-13820000D01*
X46810812Y-13820000D01*
X46805902Y-13767010D01*
X46750112Y-13570929D01*
X46659249Y-13388451D01*
X46659244Y-13388442D01*
X46536391Y-13225759D01*
X46385733Y-13088417D01*
X46212418Y-12981104D01*
X46212413Y-12981101D01*
X46022319Y-12907459D01*
X46022313Y-12907457D01*
X45870000Y-12878984D01*
X45870000Y-13596081D01*
X45772661Y-13570000D01*
X45667339Y-13570000D01*
X45570000Y-13596081D01*
X45570000Y-12878985D01*
X45569999Y-12878984D01*
X45417686Y-12907457D01*
X45417680Y-12907459D01*
X45227586Y-12981101D01*
X45227581Y-12981104D01*
X45054266Y-13088417D01*
X44903608Y-13225759D01*
X44780755Y-13388442D01*
X44780750Y-13388451D01*
X44689887Y-13570929D01*
X44634097Y-13767010D01*
X44629187Y-13820000D01*
X45346082Y-13820000D01*
X45320000Y-13917339D01*
X45320000Y-14022661D01*
X45346082Y-14120000D01*
X44629187Y-14120000D01*
X44170568Y-14120000D01*
X44185341Y-13970003D01*
X44185341Y-13969996D01*
X44166025Y-13773873D01*
X44166024Y-13773870D01*
X44166024Y-13773868D01*
X44108814Y-13585273D01*
X44100650Y-13570000D01*
X44086942Y-13544353D01*
X44015910Y-13411462D01*
X43997018Y-13388442D01*
X43890887Y-13259121D01*
X43890878Y-13259112D01*
X43738542Y-13134093D01*
X43738540Y-13134092D01*
X43738538Y-13134090D01*
X43653090Y-13088417D01*
X43564732Y-13041188D01*
X43564730Y-13041187D01*
X43376129Y-12983975D01*
X43376126Y-12983974D01*
X43180003Y-12964659D01*
X43179997Y-12964659D01*
X42983873Y-12983974D01*
X42983870Y-12983975D01*
X42795269Y-13041187D01*
X42795267Y-13041188D01*
X42621467Y-13134087D01*
X42621457Y-13134093D01*
X42469121Y-13259112D01*
X42469112Y-13259121D01*
X42344093Y-13411457D01*
X42344087Y-13411467D01*
X42251188Y-13585267D01*
X42251187Y-13585269D01*
X42193975Y-13773870D01*
X42193974Y-13773873D01*
X42174659Y-13969996D01*
X42174659Y-13970003D01*
X42193974Y-14166126D01*
X42193975Y-14166129D01*
X42251187Y-14354730D01*
X42251188Y-14354732D01*
X42322218Y-14487618D01*
X42344090Y-14528538D01*
X42344092Y-14528540D01*
X42344093Y-14528542D01*
X42469112Y-14680878D01*
X42469121Y-14680887D01*
X42509762Y-14714240D01*
X42621462Y-14805910D01*
X42795273Y-14898814D01*
X42983868Y-14956024D01*
X42983870Y-14956024D01*
X42983873Y-14956025D01*
X43179997Y-14975341D01*
X43180000Y-14975341D01*
X43180003Y-14975341D01*
X43376126Y-14956025D01*
X43376127Y-14956024D01*
X43376132Y-14956024D01*
X43545082Y-14904773D01*
X43606255Y-14905974D01*
X43643824Y-14929506D01*
X43900504Y-15186186D01*
X43928281Y-15240703D01*
X43929500Y-15256190D01*
X43929500Y-19431490D01*
X43910593Y-19489681D01*
X43861093Y-19525645D01*
X43799907Y-19525645D01*
X43767696Y-19508019D01*
X43753885Y-19496685D01*
X43738538Y-19484090D01*
X43659361Y-19441769D01*
X43564732Y-19391188D01*
X43564730Y-19391187D01*
X43376129Y-19333975D01*
X43376126Y-19333974D01*
X43180003Y-19314659D01*
X43179997Y-19314659D01*
X42983873Y-19333974D01*
X42983870Y-19333975D01*
X42795269Y-19391187D01*
X42795267Y-19391188D01*
X42621467Y-19484087D01*
X42621457Y-19484093D01*
X42469121Y-19609112D01*
X42469112Y-19609121D01*
X42344093Y-19761457D01*
X42344089Y-19761463D01*
X42276810Y-19887334D01*
X42232704Y-19929740D01*
X42172096Y-19938123D01*
X42118135Y-19909280D01*
X42091434Y-19854229D01*
X42090500Y-19840665D01*
X42090500Y-15023857D01*
X42077500Y-14975341D01*
X42066614Y-14934712D01*
X42045888Y-14898814D01*
X42045888Y-14898813D01*
X42020470Y-14854788D01*
X41599506Y-14433823D01*
X41571729Y-14379307D01*
X41574772Y-14335083D01*
X41626024Y-14166132D01*
X41630568Y-14120001D01*
X41645341Y-13970003D01*
X41645341Y-13969996D01*
X41626025Y-13773873D01*
X41626024Y-13773870D01*
X41626024Y-13773868D01*
X41568814Y-13585273D01*
X41560650Y-13570000D01*
X41546942Y-13544353D01*
X41475910Y-13411462D01*
X41457018Y-13388442D01*
X41350887Y-13259121D01*
X41350878Y-13259112D01*
X41198542Y-13134093D01*
X41198540Y-13134092D01*
X41198538Y-13134090D01*
X41113090Y-13088417D01*
X41024732Y-13041188D01*
X41024730Y-13041187D01*
X40836129Y-12983975D01*
X40836126Y-12983974D01*
X40640003Y-12964659D01*
X40639997Y-12964659D01*
X40443873Y-12983974D01*
X40443870Y-12983975D01*
X40255269Y-13041187D01*
X40255267Y-13041188D01*
X40081467Y-13134087D01*
X40081457Y-13134093D01*
X39929121Y-13259112D01*
X39929112Y-13259121D01*
X39804093Y-13411457D01*
X39804087Y-13411467D01*
X39711188Y-13585267D01*
X39711187Y-13585269D01*
X39653975Y-13773870D01*
X39653974Y-13773873D01*
X39634659Y-13969996D01*
X39634659Y-13970003D01*
X39653974Y-14166126D01*
X39653975Y-14166129D01*
X39711187Y-14354730D01*
X39711188Y-14354732D01*
X39782218Y-14487618D01*
X39804090Y-14528538D01*
X39804092Y-14528540D01*
X39804093Y-14528542D01*
X39929112Y-14680878D01*
X39929121Y-14680887D01*
X39969762Y-14714240D01*
X40081462Y-14805910D01*
X40255273Y-14898814D01*
X40443868Y-14956024D01*
X40443870Y-14956024D01*
X40443873Y-14956025D01*
X40639997Y-14975341D01*
X40640000Y-14975341D01*
X40640003Y-14975341D01*
X40836126Y-14956025D01*
X40836127Y-14956024D01*
X40836132Y-14956024D01*
X41005082Y-14904773D01*
X41066255Y-14905974D01*
X41103824Y-14929506D01*
X41360504Y-15186186D01*
X41388281Y-15240703D01*
X41389500Y-15256190D01*
X41389500Y-19431490D01*
X41370593Y-19489681D01*
X41321093Y-19525645D01*
X41259907Y-19525645D01*
X41227696Y-19508019D01*
X41213885Y-19496685D01*
X41198538Y-19484090D01*
X41119361Y-19441769D01*
X41024732Y-19391188D01*
X41024730Y-19391187D01*
X40836129Y-19333975D01*
X40836126Y-19333974D01*
X40640003Y-19314659D01*
X40639997Y-19314659D01*
X40443873Y-19333974D01*
X40443870Y-19333975D01*
X40255269Y-19391187D01*
X40255267Y-19391188D01*
X40081467Y-19484087D01*
X40081457Y-19484093D01*
X39929121Y-19609112D01*
X39929112Y-19609121D01*
X39804093Y-19761457D01*
X39804089Y-19761463D01*
X39736810Y-19887334D01*
X39692704Y-19929740D01*
X39632096Y-19938123D01*
X39578135Y-19909280D01*
X39551434Y-19854229D01*
X39550500Y-19840665D01*
X39550500Y-15023857D01*
X39537500Y-14975341D01*
X39526614Y-14934712D01*
X39505888Y-14898814D01*
X39505888Y-14898813D01*
X39480470Y-14854788D01*
X39059506Y-14433823D01*
X39031729Y-14379307D01*
X39034772Y-14335083D01*
X39086024Y-14166132D01*
X39090568Y-14120001D01*
X39105341Y-13970003D01*
X39105341Y-13969996D01*
X39086025Y-13773873D01*
X39086024Y-13773870D01*
X39086024Y-13773868D01*
X39028814Y-13585273D01*
X39020650Y-13570000D01*
X39006942Y-13544353D01*
X38935910Y-13411462D01*
X38917018Y-13388442D01*
X38810887Y-13259121D01*
X38810878Y-13259112D01*
X38658542Y-13134093D01*
X38658540Y-13134092D01*
X38658538Y-13134090D01*
X38573090Y-13088417D01*
X38484732Y-13041188D01*
X38484730Y-13041187D01*
X38296129Y-12983975D01*
X38296126Y-12983974D01*
X38100003Y-12964659D01*
X38099997Y-12964659D01*
X37903873Y-12983974D01*
X37903870Y-12983975D01*
X37715269Y-13041187D01*
X37715267Y-13041188D01*
X37541467Y-13134087D01*
X37541457Y-13134093D01*
X37389121Y-13259112D01*
X37389112Y-13259121D01*
X37264093Y-13411457D01*
X37264087Y-13411467D01*
X37171188Y-13585267D01*
X37171187Y-13585269D01*
X37113975Y-13773870D01*
X37113974Y-13773873D01*
X37094659Y-13969996D01*
X37094659Y-13970003D01*
X37113974Y-14166126D01*
X37113975Y-14166129D01*
X37171187Y-14354730D01*
X37171188Y-14354732D01*
X37242218Y-14487618D01*
X37264090Y-14528538D01*
X37264092Y-14528540D01*
X37264093Y-14528542D01*
X37389112Y-14680878D01*
X37389121Y-14680887D01*
X37429762Y-14714240D01*
X37541462Y-14805910D01*
X37715273Y-14898814D01*
X37903868Y-14956024D01*
X37903870Y-14956024D01*
X37903873Y-14956025D01*
X38099997Y-14975341D01*
X38100000Y-14975341D01*
X38100003Y-14975341D01*
X38296126Y-14956025D01*
X38296127Y-14956024D01*
X38296132Y-14956024D01*
X38465082Y-14904773D01*
X38526255Y-14905974D01*
X38563824Y-14929506D01*
X38820504Y-15186186D01*
X38848281Y-15240703D01*
X38849500Y-15256190D01*
X38849500Y-19431490D01*
X38830593Y-19489681D01*
X38781093Y-19525645D01*
X38719907Y-19525645D01*
X38687696Y-19508019D01*
X38673885Y-19496685D01*
X38658538Y-19484090D01*
X38579361Y-19441769D01*
X38484732Y-19391188D01*
X38484730Y-19391187D01*
X38296129Y-19333975D01*
X38296126Y-19333974D01*
X38100003Y-19314659D01*
X38099997Y-19314659D01*
X37903873Y-19333974D01*
X37903870Y-19333975D01*
X37715269Y-19391187D01*
X37715267Y-19391188D01*
X37541467Y-19484087D01*
X37541457Y-19484093D01*
X37389121Y-19609112D01*
X37389112Y-19609121D01*
X37264093Y-19761457D01*
X37264089Y-19761463D01*
X37196810Y-19887334D01*
X37152704Y-19929740D01*
X37092096Y-19938123D01*
X37038135Y-19909280D01*
X37011434Y-19854229D01*
X37010500Y-19840665D01*
X37010500Y-15023857D01*
X36997500Y-14975341D01*
X36986614Y-14934712D01*
X36965888Y-14898814D01*
X36965888Y-14898813D01*
X36940470Y-14854788D01*
X36519506Y-14433823D01*
X36491729Y-14379307D01*
X36494772Y-14335083D01*
X36546024Y-14166132D01*
X36550568Y-14120001D01*
X36565341Y-13970003D01*
X36565341Y-13969996D01*
X36546025Y-13773873D01*
X36546024Y-13773870D01*
X36546024Y-13773868D01*
X36488814Y-13585273D01*
X36480650Y-13570000D01*
X36466942Y-13544353D01*
X36395910Y-13411462D01*
X36377018Y-13388442D01*
X36270887Y-13259121D01*
X36270878Y-13259112D01*
X36118542Y-13134093D01*
X36118540Y-13134092D01*
X36118538Y-13134090D01*
X36033090Y-13088417D01*
X35944732Y-13041188D01*
X35944730Y-13041187D01*
X35756129Y-12983975D01*
X35756126Y-12983974D01*
X35560003Y-12964659D01*
X35559997Y-12964659D01*
X35363873Y-12983974D01*
X35363870Y-12983975D01*
X35175269Y-13041187D01*
X35175267Y-13041188D01*
X35001467Y-13134087D01*
X35001457Y-13134093D01*
X34849121Y-13259112D01*
X34849112Y-13259121D01*
X34724093Y-13411457D01*
X34724087Y-13411467D01*
X34631188Y-13585267D01*
X34631187Y-13585269D01*
X34573975Y-13773870D01*
X34573974Y-13773873D01*
X34554659Y-13969996D01*
X34554659Y-13970003D01*
X34573974Y-14166126D01*
X34573975Y-14166129D01*
X34631187Y-14354730D01*
X34631188Y-14354732D01*
X34702218Y-14487618D01*
X34724090Y-14528538D01*
X34724092Y-14528540D01*
X34724093Y-14528542D01*
X34849112Y-14680878D01*
X34849121Y-14680887D01*
X34889762Y-14714240D01*
X35001462Y-14805910D01*
X35175273Y-14898814D01*
X35363868Y-14956024D01*
X35363870Y-14956024D01*
X35363873Y-14956025D01*
X35559997Y-14975341D01*
X35560000Y-14975341D01*
X35560003Y-14975341D01*
X35756126Y-14956025D01*
X35756127Y-14956024D01*
X35756132Y-14956024D01*
X35925082Y-14904773D01*
X35986255Y-14905974D01*
X36023824Y-14929506D01*
X36280504Y-15186186D01*
X36308281Y-15240703D01*
X36309500Y-15256190D01*
X36309500Y-19431490D01*
X36290593Y-19489681D01*
X36241093Y-19525645D01*
X36179907Y-19525645D01*
X36147696Y-19508019D01*
X36133885Y-19496685D01*
X36118538Y-19484090D01*
X36039361Y-19441769D01*
X35944732Y-19391188D01*
X35944730Y-19391187D01*
X35756129Y-19333975D01*
X35756126Y-19333974D01*
X35560003Y-19314659D01*
X35559997Y-19314659D01*
X35363873Y-19333974D01*
X35363870Y-19333975D01*
X35175269Y-19391187D01*
X35175267Y-19391188D01*
X35001467Y-19484087D01*
X35001457Y-19484093D01*
X34849121Y-19609112D01*
X34849112Y-19609121D01*
X34724093Y-19761457D01*
X34724089Y-19761463D01*
X34656810Y-19887334D01*
X34612704Y-19929740D01*
X34552096Y-19938123D01*
X34498135Y-19909280D01*
X34471434Y-19854229D01*
X34470500Y-19840665D01*
X34470500Y-15023857D01*
X34457500Y-14975341D01*
X34446614Y-14934712D01*
X34425888Y-14898814D01*
X34425888Y-14898813D01*
X34400470Y-14854788D01*
X33979506Y-14433823D01*
X33951729Y-14379307D01*
X33954772Y-14335083D01*
X34006024Y-14166132D01*
X34010568Y-14120001D01*
X34025341Y-13970003D01*
X34025341Y-13969996D01*
X34006025Y-13773873D01*
X34006024Y-13773870D01*
X34006024Y-13773868D01*
X33948814Y-13585273D01*
X33940650Y-13570000D01*
X33926942Y-13544353D01*
X33855910Y-13411462D01*
X33837018Y-13388442D01*
X33730887Y-13259121D01*
X33730878Y-13259112D01*
X33578542Y-13134093D01*
X33578540Y-13134092D01*
X33578538Y-13134090D01*
X33493090Y-13088417D01*
X33404732Y-13041188D01*
X33404730Y-13041187D01*
X33216129Y-12983975D01*
X33216126Y-12983974D01*
X33020003Y-12964659D01*
X33019997Y-12964659D01*
X32823873Y-12983974D01*
X32823870Y-12983975D01*
X32635269Y-13041187D01*
X32635267Y-13041188D01*
X32461467Y-13134087D01*
X32461457Y-13134093D01*
X32309121Y-13259112D01*
X32309112Y-13259121D01*
X32184093Y-13411457D01*
X32184087Y-13411467D01*
X32091188Y-13585267D01*
X32091187Y-13585269D01*
X32033975Y-13773870D01*
X32033974Y-13773873D01*
X32014659Y-13969996D01*
X32014659Y-13970003D01*
X32033974Y-14166126D01*
X32033975Y-14166129D01*
X32091187Y-14354730D01*
X32091188Y-14354732D01*
X32162218Y-14487618D01*
X32184090Y-14528538D01*
X32184092Y-14528540D01*
X32184093Y-14528542D01*
X32309112Y-14680878D01*
X32309121Y-14680887D01*
X32349762Y-14714240D01*
X32461462Y-14805910D01*
X32635273Y-14898814D01*
X32823868Y-14956024D01*
X32823870Y-14956024D01*
X32823873Y-14956025D01*
X33019997Y-14975341D01*
X33020000Y-14975341D01*
X33020003Y-14975341D01*
X33216126Y-14956025D01*
X33216127Y-14956024D01*
X33216132Y-14956024D01*
X33385082Y-14904773D01*
X33446255Y-14905974D01*
X33483824Y-14929506D01*
X33740504Y-15186186D01*
X33768281Y-15240703D01*
X33769500Y-15256190D01*
X33769500Y-19431490D01*
X33750593Y-19489681D01*
X33701093Y-19525645D01*
X33639907Y-19525645D01*
X33607696Y-19508019D01*
X33593885Y-19496685D01*
X33578538Y-19484090D01*
X33499361Y-19441769D01*
X33404732Y-19391188D01*
X33404730Y-19391187D01*
X33216129Y-19333975D01*
X33216126Y-19333974D01*
X33020003Y-19314659D01*
X33019997Y-19314659D01*
X32823873Y-19333974D01*
X32823870Y-19333975D01*
X32635269Y-19391187D01*
X32635267Y-19391188D01*
X32461467Y-19484087D01*
X32461457Y-19484093D01*
X32309121Y-19609112D01*
X32309112Y-19609121D01*
X32184093Y-19761457D01*
X32184089Y-19761463D01*
X32116810Y-19887334D01*
X32072704Y-19929740D01*
X32012096Y-19938123D01*
X31958135Y-19909280D01*
X31931434Y-19854229D01*
X31930500Y-19840665D01*
X31930500Y-15023857D01*
X31917500Y-14975341D01*
X31906614Y-14934712D01*
X31885888Y-14898814D01*
X31885888Y-14898813D01*
X31860470Y-14854788D01*
X31439506Y-14433823D01*
X31411729Y-14379307D01*
X31414772Y-14335083D01*
X31466024Y-14166132D01*
X31470568Y-14120001D01*
X31485341Y-13970003D01*
X31485341Y-13969996D01*
X31466025Y-13773873D01*
X31466024Y-13773870D01*
X31466024Y-13773868D01*
X31408814Y-13585273D01*
X31400650Y-13570000D01*
X31386942Y-13544353D01*
X31315910Y-13411462D01*
X31297018Y-13388442D01*
X31190887Y-13259121D01*
X31190878Y-13259112D01*
X31038542Y-13134093D01*
X31038540Y-13134092D01*
X31038538Y-13134090D01*
X30953090Y-13088417D01*
X30864732Y-13041188D01*
X30864730Y-13041187D01*
X30676129Y-12983975D01*
X30676126Y-12983974D01*
X30480003Y-12964659D01*
X30479997Y-12964659D01*
X30283873Y-12983974D01*
X30283870Y-12983975D01*
X30095269Y-13041187D01*
X30095267Y-13041188D01*
X29921467Y-13134087D01*
X29921457Y-13134093D01*
X29769121Y-13259112D01*
X29769112Y-13259121D01*
X29644093Y-13411457D01*
X29644087Y-13411467D01*
X29551188Y-13585267D01*
X29551187Y-13585269D01*
X29493975Y-13773870D01*
X29493974Y-13773873D01*
X29474659Y-13969996D01*
X29474659Y-13970003D01*
X29493974Y-14166126D01*
X29493975Y-14166129D01*
X29551187Y-14354730D01*
X29551188Y-14354732D01*
X29622218Y-14487618D01*
X29644090Y-14528538D01*
X29644092Y-14528540D01*
X29644093Y-14528542D01*
X29769112Y-14680878D01*
X29769121Y-14680887D01*
X29809762Y-14714240D01*
X29921462Y-14805910D01*
X30095273Y-14898814D01*
X30283868Y-14956024D01*
X30283870Y-14956024D01*
X30283873Y-14956025D01*
X30479997Y-14975341D01*
X30480000Y-14975341D01*
X30480003Y-14975341D01*
X30676126Y-14956025D01*
X30676127Y-14956024D01*
X30676132Y-14956024D01*
X30845082Y-14904773D01*
X30906255Y-14905974D01*
X30943824Y-14929506D01*
X31200504Y-15186186D01*
X31228281Y-15240703D01*
X31229500Y-15256190D01*
X31229500Y-19431490D01*
X31210593Y-19489681D01*
X31161093Y-19525645D01*
X31099907Y-19525645D01*
X31067696Y-19508019D01*
X31053885Y-19496685D01*
X31038538Y-19484090D01*
X30959361Y-19441769D01*
X30864732Y-19391188D01*
X30864730Y-19391187D01*
X30676129Y-19333975D01*
X30676126Y-19333974D01*
X30480003Y-19314659D01*
X30479997Y-19314659D01*
X30283873Y-19333974D01*
X30283870Y-19333975D01*
X30095269Y-19391187D01*
X30095267Y-19391188D01*
X29921467Y-19484087D01*
X29921457Y-19484093D01*
X29769121Y-19609112D01*
X29769112Y-19609121D01*
X29644093Y-19761457D01*
X29644089Y-19761463D01*
X29576810Y-19887334D01*
X29532704Y-19929740D01*
X29472096Y-19938123D01*
X29418135Y-19909280D01*
X29391434Y-19854229D01*
X29390500Y-19840665D01*
X29390500Y-15023857D01*
X29377500Y-14975341D01*
X29366614Y-14934712D01*
X29345888Y-14898814D01*
X29345888Y-14898813D01*
X29320470Y-14854788D01*
X28899506Y-14433823D01*
X28871729Y-14379307D01*
X28874772Y-14335083D01*
X28926024Y-14166132D01*
X28930568Y-14120001D01*
X28945341Y-13970003D01*
X28945341Y-13969996D01*
X28926025Y-13773873D01*
X28926024Y-13773870D01*
X28926024Y-13773868D01*
X28868814Y-13585273D01*
X28860650Y-13570000D01*
X28846942Y-13544353D01*
X28775910Y-13411462D01*
X28757018Y-13388442D01*
X28650887Y-13259121D01*
X28650878Y-13259112D01*
X28498542Y-13134093D01*
X28498540Y-13134092D01*
X28498538Y-13134090D01*
X28413090Y-13088417D01*
X28324732Y-13041188D01*
X28324730Y-13041187D01*
X28136129Y-12983975D01*
X28136126Y-12983974D01*
X27940003Y-12964659D01*
X27939997Y-12964659D01*
X27743873Y-12983974D01*
X27743870Y-12983975D01*
X27555269Y-13041187D01*
X27555267Y-13041188D01*
X27381467Y-13134087D01*
X27381457Y-13134093D01*
X27229121Y-13259112D01*
X27229112Y-13259121D01*
X27104093Y-13411457D01*
X27104087Y-13411467D01*
X27011188Y-13585267D01*
X27011187Y-13585269D01*
X26953975Y-13773870D01*
X26953974Y-13773873D01*
X26934659Y-13969996D01*
X26934659Y-13970003D01*
X26953974Y-14166126D01*
X26953975Y-14166129D01*
X27011187Y-14354730D01*
X27011188Y-14354732D01*
X27082218Y-14487618D01*
X27104090Y-14528538D01*
X27104092Y-14528540D01*
X27104093Y-14528542D01*
X27229112Y-14680878D01*
X27229121Y-14680887D01*
X27269762Y-14714240D01*
X27381462Y-14805910D01*
X27555273Y-14898814D01*
X27743868Y-14956024D01*
X27743870Y-14956024D01*
X27743873Y-14956025D01*
X27939997Y-14975341D01*
X27940000Y-14975341D01*
X27940003Y-14975341D01*
X28136126Y-14956025D01*
X28136127Y-14956024D01*
X28136132Y-14956024D01*
X28305082Y-14904773D01*
X28366255Y-14905974D01*
X28403824Y-14929506D01*
X28660504Y-15186186D01*
X28688281Y-15240703D01*
X28689500Y-15256190D01*
X28689500Y-19431490D01*
X28670593Y-19489681D01*
X28621093Y-19525645D01*
X28559907Y-19525645D01*
X28527696Y-19508019D01*
X28513885Y-19496685D01*
X28498538Y-19484090D01*
X28419361Y-19441769D01*
X28324732Y-19391188D01*
X28324730Y-19391187D01*
X28136129Y-19333975D01*
X28136126Y-19333974D01*
X27940003Y-19314659D01*
X27939997Y-19314659D01*
X27743873Y-19333974D01*
X27743870Y-19333975D01*
X27555269Y-19391187D01*
X27555267Y-19391188D01*
X27381467Y-19484087D01*
X27381457Y-19484093D01*
X27229121Y-19609112D01*
X27229112Y-19609121D01*
X27104093Y-19761457D01*
X27104087Y-19761467D01*
X27011188Y-19935267D01*
X27011187Y-19935269D01*
X26953975Y-20123870D01*
X26953974Y-20123873D01*
X26934659Y-20319996D01*
X26934659Y-20320003D01*
X26953974Y-20516126D01*
X26953975Y-20516129D01*
X27011187Y-20704730D01*
X27011188Y-20704732D01*
X27082218Y-20837618D01*
X27104090Y-20878538D01*
X27104092Y-20878540D01*
X27104093Y-20878542D01*
X27229112Y-21030878D01*
X27229121Y-21030887D01*
X27361781Y-21139758D01*
X27381462Y-21155910D01*
X27555273Y-21248814D01*
X27743868Y-21306024D01*
X27743870Y-21306024D01*
X27743873Y-21306025D01*
X27939997Y-21325341D01*
X27940000Y-21325341D01*
X27940003Y-21325341D01*
X28136126Y-21306025D01*
X28136127Y-21306024D01*
X28136132Y-21306024D01*
X28324727Y-21248814D01*
X28498538Y-21155910D01*
X28527694Y-21131981D01*
X28584671Y-21109681D01*
X28643874Y-21125129D01*
X28682690Y-21172426D01*
X28689500Y-21208509D01*
X28689500Y-26653810D01*
X28670593Y-26712001D01*
X28660503Y-26723814D01*
X28403823Y-26980493D01*
X28349307Y-27008270D01*
X28305082Y-27005226D01*
X28136132Y-26953975D01*
X28136126Y-26953974D01*
X27940003Y-26934659D01*
X27939997Y-26934659D01*
X27743873Y-26953974D01*
X27743870Y-26953975D01*
X27555269Y-27011187D01*
X27555267Y-27011188D01*
X27381467Y-27104087D01*
X27381457Y-27104093D01*
X27229121Y-27229112D01*
X27229112Y-27229121D01*
X27104093Y-27381457D01*
X27104087Y-27381467D01*
X27011188Y-27555267D01*
X27011187Y-27555269D01*
X26953975Y-27743870D01*
X26953974Y-27743873D01*
X26934659Y-27939996D01*
X26934659Y-27940003D01*
X23865341Y-27940003D01*
X23865341Y-27939996D01*
X23846025Y-27743873D01*
X23846024Y-27743871D01*
X23846024Y-27743870D01*
X23846024Y-27743868D01*
X23794772Y-27574913D01*
X23795973Y-27513743D01*
X23819504Y-27476176D01*
X24240470Y-27055212D01*
X24286614Y-26975288D01*
X24310500Y-26886144D01*
X24310500Y-15023856D01*
X24286614Y-14934712D01*
X24265888Y-14898814D01*
X24265888Y-14898813D01*
X24240470Y-14854788D01*
X23819506Y-14433823D01*
X23791729Y-14379307D01*
X23794772Y-14335083D01*
X23846024Y-14166132D01*
X23850568Y-14120001D01*
X23865341Y-13970003D01*
X23865341Y-13969996D01*
X23846025Y-13773873D01*
X23846024Y-13773870D01*
X23846024Y-13773868D01*
X23788814Y-13585273D01*
X23780650Y-13570000D01*
X23766942Y-13544353D01*
X23695910Y-13411462D01*
X23677018Y-13388442D01*
X23570887Y-13259121D01*
X23570878Y-13259112D01*
X23418542Y-13134093D01*
X23418540Y-13134092D01*
X23418538Y-13134090D01*
X23333090Y-13088417D01*
X23244732Y-13041188D01*
X23244730Y-13041187D01*
X23056129Y-12983975D01*
X23056126Y-12983974D01*
X22860003Y-12964659D01*
X22859997Y-12964659D01*
X22663873Y-12983974D01*
X22663870Y-12983975D01*
X22475269Y-13041187D01*
X22475267Y-13041188D01*
X22301467Y-13134087D01*
X22301457Y-13134093D01*
X22149121Y-13259112D01*
X22149112Y-13259121D01*
X22024093Y-13411457D01*
X22024087Y-13411467D01*
X21931188Y-13585267D01*
X21931187Y-13585269D01*
X21873975Y-13773870D01*
X21873974Y-13773873D01*
X21854659Y-13969996D01*
X21854659Y-13970003D01*
X21873974Y-14166126D01*
X21873975Y-14166129D01*
X21931187Y-14354730D01*
X21931188Y-14354732D01*
X22002218Y-14487618D01*
X22024090Y-14528538D01*
X22024092Y-14528540D01*
X22024093Y-14528542D01*
X22149112Y-14680878D01*
X22149121Y-14680887D01*
X22189762Y-14714240D01*
X22301462Y-14805910D01*
X22475273Y-14898814D01*
X22663868Y-14956024D01*
X22663870Y-14956024D01*
X22663873Y-14956025D01*
X22859997Y-14975341D01*
X22860000Y-14975341D01*
X22860003Y-14975341D01*
X23056126Y-14956025D01*
X23056127Y-14956024D01*
X23056132Y-14956024D01*
X23225082Y-14904773D01*
X23286255Y-14905974D01*
X23323824Y-14929506D01*
X23580504Y-15186186D01*
X23608281Y-15240703D01*
X23609500Y-15256190D01*
X23609500Y-19220500D01*
X23590593Y-19278691D01*
X23541093Y-19314655D01*
X23510500Y-19319500D01*
X22040252Y-19319500D01*
X22040251Y-19319500D01*
X22040241Y-19319501D01*
X21981772Y-19331132D01*
X21981766Y-19331134D01*
X21924502Y-19369398D01*
X21865614Y-19386007D01*
X21808210Y-19364830D01*
X21774217Y-19313956D01*
X21770500Y-19287083D01*
X21770500Y-15023857D01*
X21757500Y-14975341D01*
X21746614Y-14934712D01*
X21725888Y-14898814D01*
X21725888Y-14898813D01*
X21700470Y-14854788D01*
X21279506Y-14433823D01*
X21251729Y-14379307D01*
X21254772Y-14335083D01*
X21306024Y-14166132D01*
X21310568Y-14120001D01*
X21325341Y-13970003D01*
X21325341Y-13969996D01*
X21306025Y-13773873D01*
X21306024Y-13773870D01*
X21306024Y-13773868D01*
X21248814Y-13585273D01*
X21240650Y-13570000D01*
X21226942Y-13544353D01*
X21155910Y-13411462D01*
X21137018Y-13388442D01*
X21030887Y-13259121D01*
X21030878Y-13259112D01*
X20878542Y-13134093D01*
X20878540Y-13134092D01*
X20878538Y-13134090D01*
X20793090Y-13088417D01*
X20704732Y-13041188D01*
X20704730Y-13041187D01*
X20516129Y-12983975D01*
X20516126Y-12983974D01*
X20320003Y-12964659D01*
X20319997Y-12964659D01*
X20123873Y-12983974D01*
X20123870Y-12983975D01*
X19935269Y-13041187D01*
X19935267Y-13041188D01*
X19761467Y-13134087D01*
X19761457Y-13134093D01*
X19609121Y-13259112D01*
X19609112Y-13259121D01*
X19484093Y-13411457D01*
X19484087Y-13411467D01*
X19391188Y-13585267D01*
X19391187Y-13585269D01*
X19333975Y-13773870D01*
X19333974Y-13773873D01*
X19314659Y-13969996D01*
X19314659Y-13970003D01*
X19333974Y-14166126D01*
X19333975Y-14166129D01*
X19391187Y-14354730D01*
X19391188Y-14354732D01*
X19462218Y-14487618D01*
X19484090Y-14528538D01*
X19484092Y-14528540D01*
X19484093Y-14528542D01*
X19609112Y-14680878D01*
X19609121Y-14680887D01*
X19649762Y-14714240D01*
X19761462Y-14805910D01*
X19935273Y-14898814D01*
X20123868Y-14956024D01*
X20123870Y-14956024D01*
X20123873Y-14956025D01*
X20319997Y-14975341D01*
X20320000Y-14975341D01*
X20320003Y-14975341D01*
X20516126Y-14956025D01*
X20516127Y-14956024D01*
X20516132Y-14956024D01*
X20685082Y-14904773D01*
X20746255Y-14905974D01*
X20783824Y-14929506D01*
X21040504Y-15186186D01*
X21068281Y-15240703D01*
X21069500Y-15256190D01*
X21069500Y-19431490D01*
X21050593Y-19489681D01*
X21001093Y-19525645D01*
X20939907Y-19525645D01*
X20907696Y-19508019D01*
X20893885Y-19496685D01*
X20878538Y-19484090D01*
X20799361Y-19441769D01*
X20704732Y-19391188D01*
X20704730Y-19391187D01*
X20516129Y-19333975D01*
X20516126Y-19333974D01*
X20320003Y-19314659D01*
X20319997Y-19314659D01*
X20123873Y-19333974D01*
X20123870Y-19333975D01*
X19935269Y-19391187D01*
X19935267Y-19391188D01*
X19761467Y-19484087D01*
X19761457Y-19484093D01*
X19609121Y-19609112D01*
X19609112Y-19609121D01*
X19484093Y-19761457D01*
X19484089Y-19761463D01*
X19416810Y-19887334D01*
X19372704Y-19929740D01*
X19312096Y-19938123D01*
X19258135Y-19909280D01*
X19231434Y-19854229D01*
X19230500Y-19840665D01*
X19230500Y-15023857D01*
X19217500Y-14975341D01*
X19206614Y-14934712D01*
X19185888Y-14898814D01*
X19185888Y-14898813D01*
X19160470Y-14854788D01*
X18739506Y-14433823D01*
X18711729Y-14379307D01*
X18714772Y-14335083D01*
X18766024Y-14166132D01*
X18770568Y-14120001D01*
X18785341Y-13970003D01*
X18785341Y-13969996D01*
X18766025Y-13773873D01*
X18766024Y-13773870D01*
X18766024Y-13773868D01*
X18708814Y-13585273D01*
X18700650Y-13570000D01*
X18686942Y-13544353D01*
X18615910Y-13411462D01*
X18597018Y-13388442D01*
X18490887Y-13259121D01*
X18490878Y-13259112D01*
X18338542Y-13134093D01*
X18338540Y-13134092D01*
X18338538Y-13134090D01*
X18253090Y-13088417D01*
X18164732Y-13041188D01*
X18164730Y-13041187D01*
X17976129Y-12983975D01*
X17976126Y-12983974D01*
X17780003Y-12964659D01*
X17779997Y-12964659D01*
X17583873Y-12983974D01*
X17583870Y-12983975D01*
X17395269Y-13041187D01*
X17395267Y-13041188D01*
X17221467Y-13134087D01*
X17221457Y-13134093D01*
X17069121Y-13259112D01*
X17069112Y-13259121D01*
X16944093Y-13411457D01*
X16944087Y-13411467D01*
X16851188Y-13585267D01*
X16851187Y-13585269D01*
X16793975Y-13773870D01*
X16793974Y-13773873D01*
X16774659Y-13969996D01*
X16774659Y-13970003D01*
X16793974Y-14166126D01*
X16793975Y-14166129D01*
X16851187Y-14354730D01*
X16851188Y-14354732D01*
X16922218Y-14487618D01*
X16944090Y-14528538D01*
X16944092Y-14528540D01*
X16944093Y-14528542D01*
X17069112Y-14680878D01*
X17069121Y-14680887D01*
X17109762Y-14714240D01*
X17221462Y-14805910D01*
X17395273Y-14898814D01*
X17583868Y-14956024D01*
X17583870Y-14956024D01*
X17583873Y-14956025D01*
X17779997Y-14975341D01*
X17780000Y-14975341D01*
X17780003Y-14975341D01*
X17976126Y-14956025D01*
X17976127Y-14956024D01*
X17976132Y-14956024D01*
X18145082Y-14904773D01*
X18206255Y-14905974D01*
X18243824Y-14929506D01*
X18500504Y-15186186D01*
X18528281Y-15240703D01*
X18529500Y-15256190D01*
X18529500Y-19431490D01*
X18510593Y-19489681D01*
X18461093Y-19525645D01*
X18399907Y-19525645D01*
X18367696Y-19508019D01*
X18353885Y-19496685D01*
X18338538Y-19484090D01*
X18259361Y-19441769D01*
X18164732Y-19391188D01*
X18164730Y-19391187D01*
X17976129Y-19333975D01*
X17976126Y-19333974D01*
X17780003Y-19314659D01*
X17779997Y-19314659D01*
X17583873Y-19333974D01*
X17583870Y-19333975D01*
X17395269Y-19391187D01*
X17395267Y-19391188D01*
X17221467Y-19484087D01*
X17221457Y-19484093D01*
X17069121Y-19609112D01*
X17069112Y-19609121D01*
X16944093Y-19761457D01*
X16944089Y-19761463D01*
X16876810Y-19887334D01*
X16832704Y-19929740D01*
X16772096Y-19938123D01*
X16718135Y-19909280D01*
X16691434Y-19854229D01*
X16690500Y-19840665D01*
X16690500Y-15023857D01*
X16677500Y-14975341D01*
X16666614Y-14934712D01*
X16645888Y-14898814D01*
X16645888Y-14898813D01*
X16620470Y-14854788D01*
X16199506Y-14433823D01*
X16171729Y-14379307D01*
X16174772Y-14335083D01*
X16226024Y-14166132D01*
X16230568Y-14120001D01*
X16245341Y-13970003D01*
X16245341Y-13969996D01*
X16226025Y-13773873D01*
X16226024Y-13773870D01*
X16226024Y-13773868D01*
X16168814Y-13585273D01*
X16160650Y-13570000D01*
X16146942Y-13544353D01*
X16075910Y-13411462D01*
X16057018Y-13388442D01*
X15950887Y-13259121D01*
X15950878Y-13259112D01*
X15798542Y-13134093D01*
X15798540Y-13134092D01*
X15798538Y-13134090D01*
X15713090Y-13088417D01*
X15624732Y-13041188D01*
X15624730Y-13041187D01*
X15436129Y-12983975D01*
X15436126Y-12983974D01*
X15240003Y-12964659D01*
X15239997Y-12964659D01*
X15043873Y-12983974D01*
X15043870Y-12983975D01*
X14855269Y-13041187D01*
X14855267Y-13041188D01*
X14681467Y-13134087D01*
X14681457Y-13134093D01*
X14529121Y-13259112D01*
X14529112Y-13259121D01*
X14404093Y-13411457D01*
X14404087Y-13411467D01*
X14311188Y-13585267D01*
X14311187Y-13585269D01*
X14253975Y-13773870D01*
X14253974Y-13773873D01*
X14234659Y-13969996D01*
X14234659Y-13970003D01*
X14253974Y-14166126D01*
X14253975Y-14166129D01*
X14311187Y-14354730D01*
X14311188Y-14354732D01*
X14382218Y-14487618D01*
X14404090Y-14528538D01*
X14404092Y-14528540D01*
X14404093Y-14528542D01*
X14529112Y-14680878D01*
X14529121Y-14680887D01*
X14569762Y-14714240D01*
X14681462Y-14805910D01*
X14855273Y-14898814D01*
X15043868Y-14956024D01*
X15043870Y-14956024D01*
X15043873Y-14956025D01*
X15239997Y-14975341D01*
X15240000Y-14975341D01*
X15240003Y-14975341D01*
X15436126Y-14956025D01*
X15436127Y-14956024D01*
X15436132Y-14956024D01*
X15605082Y-14904773D01*
X15666255Y-14905974D01*
X15703824Y-14929506D01*
X15960504Y-15186186D01*
X15988281Y-15240703D01*
X15989500Y-15256190D01*
X15989500Y-19431490D01*
X15970593Y-19489681D01*
X15921093Y-19525645D01*
X15859907Y-19525645D01*
X15827696Y-19508019D01*
X15813885Y-19496685D01*
X15798538Y-19484090D01*
X15719361Y-19441769D01*
X15624732Y-19391188D01*
X15624730Y-19391187D01*
X15436129Y-19333975D01*
X15436126Y-19333974D01*
X15240003Y-19314659D01*
X15239997Y-19314659D01*
X15043873Y-19333974D01*
X15043870Y-19333975D01*
X14855269Y-19391187D01*
X14855267Y-19391188D01*
X14681467Y-19484087D01*
X14681457Y-19484093D01*
X14529121Y-19609112D01*
X14529112Y-19609121D01*
X14404093Y-19761457D01*
X14404089Y-19761463D01*
X14336810Y-19887334D01*
X14292704Y-19929740D01*
X14232096Y-19938123D01*
X14178135Y-19909280D01*
X14151434Y-19854229D01*
X14150500Y-19840665D01*
X14150500Y-15023857D01*
X14137500Y-14975341D01*
X14126614Y-14934712D01*
X14105888Y-14898814D01*
X14105888Y-14898813D01*
X14080470Y-14854788D01*
X13659506Y-14433823D01*
X13631729Y-14379307D01*
X13634772Y-14335083D01*
X13686024Y-14166132D01*
X13690568Y-14120001D01*
X13705341Y-13970003D01*
X13705341Y-13969996D01*
X13686025Y-13773873D01*
X13686024Y-13773870D01*
X13686024Y-13773868D01*
X13628814Y-13585273D01*
X13620650Y-13570000D01*
X13606942Y-13544353D01*
X13535910Y-13411462D01*
X13517018Y-13388442D01*
X13410887Y-13259121D01*
X13410878Y-13259112D01*
X13258542Y-13134093D01*
X13258540Y-13134092D01*
X13258538Y-13134090D01*
X13173090Y-13088417D01*
X13084732Y-13041188D01*
X13084730Y-13041187D01*
X12896129Y-12983975D01*
X12896126Y-12983974D01*
X12700003Y-12964659D01*
X12699997Y-12964659D01*
X12503873Y-12983974D01*
X12503870Y-12983975D01*
X12315269Y-13041187D01*
X12315267Y-13041188D01*
X12141467Y-13134087D01*
X12141457Y-13134093D01*
X11989121Y-13259112D01*
X11989112Y-13259121D01*
X11864093Y-13411457D01*
X11864087Y-13411467D01*
X11771188Y-13585267D01*
X11771187Y-13585269D01*
X11713975Y-13773870D01*
X11713974Y-13773873D01*
X11694659Y-13969996D01*
X11694659Y-13970003D01*
X11713974Y-14166126D01*
X11713975Y-14166129D01*
X11771187Y-14354730D01*
X11771188Y-14354732D01*
X11842218Y-14487618D01*
X11864090Y-14528538D01*
X11864092Y-14528540D01*
X11864093Y-14528542D01*
X11989112Y-14680878D01*
X11989121Y-14680887D01*
X12029762Y-14714240D01*
X12141462Y-14805910D01*
X12315273Y-14898814D01*
X12503868Y-14956024D01*
X12503870Y-14956024D01*
X12503873Y-14956025D01*
X12699997Y-14975341D01*
X12700000Y-14975341D01*
X12700003Y-14975341D01*
X12896126Y-14956025D01*
X12896127Y-14956024D01*
X12896132Y-14956024D01*
X13065082Y-14904773D01*
X13126255Y-14905974D01*
X13163824Y-14929506D01*
X13420504Y-15186186D01*
X13448281Y-15240703D01*
X13449500Y-15256190D01*
X13449500Y-19431490D01*
X13430593Y-19489681D01*
X13381093Y-19525645D01*
X13319907Y-19525645D01*
X13287696Y-19508019D01*
X13273885Y-19496685D01*
X13258538Y-19484090D01*
X13179361Y-19441769D01*
X13084732Y-19391188D01*
X13084730Y-19391187D01*
X12896129Y-19333975D01*
X12896126Y-19333974D01*
X12700003Y-19314659D01*
X12699997Y-19314659D01*
X12503873Y-19333974D01*
X12503870Y-19333975D01*
X12315269Y-19391187D01*
X12315267Y-19391188D01*
X12141467Y-19484087D01*
X12141457Y-19484093D01*
X11989121Y-19609112D01*
X11989112Y-19609121D01*
X11864093Y-19761457D01*
X11864089Y-19761463D01*
X11796810Y-19887334D01*
X11752704Y-19929740D01*
X11692096Y-19938123D01*
X11638135Y-19909280D01*
X11611434Y-19854229D01*
X11610500Y-19840665D01*
X11610500Y-15023857D01*
X11597500Y-14975341D01*
X11586614Y-14934712D01*
X11565888Y-14898814D01*
X11565888Y-14898813D01*
X11540470Y-14854788D01*
X11119506Y-14433823D01*
X11091729Y-14379307D01*
X11094772Y-14335083D01*
X11146024Y-14166132D01*
X11150568Y-14120001D01*
X11165341Y-13970003D01*
X11165341Y-13969996D01*
X11146025Y-13773873D01*
X11146024Y-13773870D01*
X11146024Y-13773868D01*
X11088814Y-13585273D01*
X11080650Y-13570000D01*
X11066942Y-13544353D01*
X10995910Y-13411462D01*
X10977018Y-13388442D01*
X10870887Y-13259121D01*
X10870878Y-13259112D01*
X10718542Y-13134093D01*
X10718540Y-13134092D01*
X10718538Y-13134090D01*
X10633090Y-13088417D01*
X10544732Y-13041188D01*
X10544730Y-13041187D01*
X10356129Y-12983975D01*
X10356126Y-12983974D01*
X10160003Y-12964659D01*
X10159997Y-12964659D01*
X9963873Y-12983974D01*
X9963870Y-12983975D01*
X9775269Y-13041187D01*
X9775267Y-13041188D01*
X9601467Y-13134087D01*
X9601457Y-13134093D01*
X9449121Y-13259112D01*
X9449112Y-13259121D01*
X9324093Y-13411457D01*
X9324087Y-13411467D01*
X9231188Y-13585267D01*
X9231187Y-13585269D01*
X9173975Y-13773870D01*
X9173974Y-13773873D01*
X9154659Y-13969996D01*
X9154659Y-13970003D01*
X9173974Y-14166126D01*
X9173975Y-14166129D01*
X9231187Y-14354730D01*
X9231188Y-14354732D01*
X9302218Y-14487618D01*
X9324090Y-14528538D01*
X9324092Y-14528540D01*
X9324093Y-14528542D01*
X9449112Y-14680878D01*
X9449121Y-14680887D01*
X9489762Y-14714240D01*
X9601462Y-14805910D01*
X9775273Y-14898814D01*
X9963868Y-14956024D01*
X9963870Y-14956024D01*
X9963873Y-14956025D01*
X10159997Y-14975341D01*
X10160000Y-14975341D01*
X10160003Y-14975341D01*
X10356126Y-14956025D01*
X10356127Y-14956024D01*
X10356132Y-14956024D01*
X10525082Y-14904773D01*
X10586255Y-14905974D01*
X10623824Y-14929506D01*
X10880504Y-15186186D01*
X10908281Y-15240703D01*
X10909500Y-15256190D01*
X10909500Y-19431490D01*
X10890593Y-19489681D01*
X10841093Y-19525645D01*
X10779907Y-19525645D01*
X10747696Y-19508019D01*
X10733885Y-19496685D01*
X10718538Y-19484090D01*
X10639361Y-19441769D01*
X10544732Y-19391188D01*
X10544730Y-19391187D01*
X10356129Y-19333975D01*
X10356126Y-19333974D01*
X10160003Y-19314659D01*
X10159997Y-19314659D01*
X9963873Y-19333974D01*
X9963870Y-19333975D01*
X9775269Y-19391187D01*
X9775267Y-19391188D01*
X9601467Y-19484087D01*
X9601457Y-19484093D01*
X9449121Y-19609112D01*
X9449112Y-19609121D01*
X9324093Y-19761457D01*
X9324089Y-19761463D01*
X9256810Y-19887334D01*
X9212704Y-19929740D01*
X9152096Y-19938123D01*
X9098135Y-19909280D01*
X9071434Y-19854229D01*
X9070500Y-19840665D01*
X9070500Y-15023857D01*
X9057500Y-14975341D01*
X9046614Y-14934712D01*
X9025888Y-14898814D01*
X9025888Y-14898813D01*
X9000470Y-14854788D01*
X8579506Y-14433823D01*
X8551729Y-14379307D01*
X8554772Y-14335083D01*
X8606024Y-14166132D01*
X8610568Y-14120001D01*
X8625341Y-13970003D01*
X8625341Y-13969996D01*
X8606025Y-13773873D01*
X8606024Y-13773870D01*
X8606024Y-13773868D01*
X8548814Y-13585273D01*
X8540650Y-13570000D01*
X8526942Y-13544353D01*
X8455910Y-13411462D01*
X8437018Y-13388442D01*
X8330887Y-13259121D01*
X8330878Y-13259112D01*
X8178542Y-13134093D01*
X8178540Y-13134092D01*
X8178538Y-13134090D01*
X8093090Y-13088417D01*
X8004732Y-13041188D01*
X8004730Y-13041187D01*
X7816129Y-12983975D01*
X7816126Y-12983974D01*
X7620003Y-12964659D01*
X7619997Y-12964659D01*
X7423873Y-12983974D01*
X7423870Y-12983975D01*
X7235269Y-13041187D01*
X7235267Y-13041188D01*
X7061467Y-13134087D01*
X7061457Y-13134093D01*
X6909121Y-13259112D01*
X6909112Y-13259121D01*
X6784093Y-13411457D01*
X6784087Y-13411467D01*
X6691188Y-13585267D01*
X6691187Y-13585269D01*
X6633975Y-13773870D01*
X6633974Y-13773873D01*
X6614659Y-13969996D01*
X6614659Y-13970003D01*
X6633974Y-14166126D01*
X6633975Y-14166129D01*
X6691187Y-14354730D01*
X6691188Y-14354732D01*
X6762218Y-14487618D01*
X6784090Y-14528538D01*
X6784092Y-14528540D01*
X6784093Y-14528542D01*
X6909112Y-14680878D01*
X6909121Y-14680887D01*
X6949762Y-14714240D01*
X7061462Y-14805910D01*
X7235273Y-14898814D01*
X7423868Y-14956024D01*
X7423870Y-14956024D01*
X7423873Y-14956025D01*
X7619997Y-14975341D01*
X7620000Y-14975341D01*
X7620003Y-14975341D01*
X7816126Y-14956025D01*
X7816127Y-14956024D01*
X7816132Y-14956024D01*
X7985082Y-14904773D01*
X8046255Y-14905974D01*
X8083824Y-14929506D01*
X8340504Y-15186186D01*
X8368281Y-15240703D01*
X8369500Y-15256190D01*
X8369500Y-19431490D01*
X8350593Y-19489681D01*
X8301093Y-19525645D01*
X8239907Y-19525645D01*
X8207696Y-19508019D01*
X8193885Y-19496685D01*
X8178538Y-19484090D01*
X8099361Y-19441769D01*
X8004732Y-19391188D01*
X8004730Y-19391187D01*
X7816129Y-19333975D01*
X7816126Y-19333974D01*
X7620003Y-19314659D01*
X7619997Y-19314659D01*
X7423873Y-19333974D01*
X7423870Y-19333975D01*
X7235269Y-19391187D01*
X7235267Y-19391188D01*
X7061467Y-19484087D01*
X7061457Y-19484093D01*
X6909121Y-19609112D01*
X6909112Y-19609121D01*
X6784093Y-19761457D01*
X6784089Y-19761463D01*
X6716810Y-19887334D01*
X6672704Y-19929740D01*
X6612096Y-19938123D01*
X6558135Y-19909280D01*
X6531434Y-19854229D01*
X6530500Y-19840665D01*
X6530500Y-15023857D01*
X6517500Y-14975341D01*
X6506614Y-14934712D01*
X6485888Y-14898814D01*
X6485888Y-14898813D01*
X6460470Y-14854788D01*
X6039506Y-14433823D01*
X6011729Y-14379307D01*
X6014772Y-14335083D01*
X6066024Y-14166132D01*
X6070568Y-14120001D01*
X6085341Y-13970003D01*
X6085341Y-13969996D01*
X6066025Y-13773873D01*
X6066024Y-13773870D01*
X6066024Y-13773868D01*
X6008814Y-13585273D01*
X6000650Y-13570000D01*
X5986942Y-13544353D01*
X5915910Y-13411462D01*
X5897018Y-13388442D01*
X5790887Y-13259121D01*
X5790878Y-13259112D01*
X5638542Y-13134093D01*
X5638540Y-13134092D01*
X5638538Y-13134090D01*
X5553090Y-13088417D01*
X5464732Y-13041188D01*
X5464730Y-13041187D01*
X5276129Y-12983975D01*
X5276126Y-12983974D01*
X5080003Y-12964659D01*
X5079997Y-12964659D01*
X4883873Y-12983974D01*
X4883870Y-12983975D01*
X4695269Y-13041187D01*
X4695267Y-13041188D01*
X4521467Y-13134087D01*
X4521457Y-13134093D01*
X4369121Y-13259112D01*
X4369112Y-13259121D01*
X4244093Y-13411457D01*
X4244087Y-13411467D01*
X4151188Y-13585267D01*
X4151187Y-13585269D01*
X4093975Y-13773870D01*
X4093974Y-13773873D01*
X4074659Y-13969996D01*
X4074659Y-13970003D01*
X4093974Y-14166126D01*
X4093975Y-14166129D01*
X4151187Y-14354730D01*
X4151188Y-14354732D01*
X4222218Y-14487618D01*
X4244090Y-14528538D01*
X4244092Y-14528540D01*
X4244093Y-14528542D01*
X4369112Y-14680878D01*
X4369121Y-14680887D01*
X4409762Y-14714240D01*
X4521462Y-14805910D01*
X4695273Y-14898814D01*
X4883868Y-14956024D01*
X4883870Y-14956024D01*
X4883873Y-14956025D01*
X5079997Y-14975341D01*
X5080000Y-14975341D01*
X5080003Y-14975341D01*
X5276126Y-14956025D01*
X5276127Y-14956024D01*
X5276132Y-14956024D01*
X5445082Y-14904773D01*
X5506255Y-14905974D01*
X5543824Y-14929506D01*
X5800504Y-15186186D01*
X5828281Y-15240703D01*
X5829500Y-15256190D01*
X5829500Y-19431490D01*
X5810593Y-19489681D01*
X5761093Y-19525645D01*
X5699907Y-19525645D01*
X5667696Y-19508019D01*
X5653885Y-19496685D01*
X5638538Y-19484090D01*
X5559361Y-19441769D01*
X5464732Y-19391188D01*
X5464730Y-19391187D01*
X5276129Y-19333975D01*
X5276126Y-19333974D01*
X5080003Y-19314659D01*
X5079997Y-19314659D01*
X4883873Y-19333974D01*
X4883870Y-19333975D01*
X4695269Y-19391187D01*
X4695267Y-19391188D01*
X4521467Y-19484087D01*
X4521457Y-19484093D01*
X4369121Y-19609112D01*
X4369112Y-19609121D01*
X4244093Y-19761457D01*
X4244087Y-19761467D01*
X4151188Y-19935267D01*
X4151187Y-19935269D01*
X4093975Y-20123870D01*
X4093974Y-20123873D01*
X4074659Y-20319996D01*
X4074659Y-20320003D01*
X4093974Y-20516126D01*
X4093975Y-20516129D01*
X4151187Y-20704730D01*
X4151188Y-20704732D01*
X4222218Y-20837618D01*
X4244090Y-20878538D01*
X4244092Y-20878540D01*
X4244093Y-20878542D01*
X4369112Y-21030878D01*
X4369121Y-21030887D01*
X4501781Y-21139758D01*
X4521462Y-21155910D01*
X4695273Y-21248814D01*
X4883868Y-21306024D01*
X4883870Y-21306024D01*
X4883873Y-21306025D01*
X5079997Y-21325341D01*
X5080000Y-21325341D01*
X5080003Y-21325341D01*
X5276126Y-21306025D01*
X5276127Y-21306024D01*
X5276132Y-21306024D01*
X5464727Y-21248814D01*
X5638538Y-21155910D01*
X5667694Y-21131981D01*
X5724671Y-21109681D01*
X5783874Y-21125129D01*
X5822690Y-21172426D01*
X5829500Y-21208509D01*
X5829500Y-26653810D01*
X5810593Y-26712001D01*
X5800503Y-26723814D01*
X5543823Y-26980493D01*
X5489307Y-27008270D01*
X5445082Y-27005226D01*
X5276132Y-26953975D01*
X5276126Y-26953974D01*
X5080003Y-26934659D01*
X5079997Y-26934659D01*
X4883873Y-26953974D01*
X4883870Y-26953975D01*
X4695269Y-27011187D01*
X4695267Y-27011188D01*
X4521467Y-27104087D01*
X4521457Y-27104093D01*
X4369121Y-27229112D01*
X4369112Y-27229121D01*
X4244093Y-27381457D01*
X4244087Y-27381467D01*
X4151188Y-27555267D01*
X4151187Y-27555269D01*
X4093975Y-27743870D01*
X4093974Y-27743873D01*
X4074659Y-27939996D01*
X4074659Y-27940003D01*
X300500Y-27940003D01*
X300500Y-6350003D01*
X4074659Y-6350003D01*
X4093974Y-6546126D01*
X4093975Y-6546129D01*
X4151187Y-6734730D01*
X4151188Y-6734732D01*
X4222218Y-6867618D01*
X4244090Y-6908538D01*
X4244092Y-6908540D01*
X4244093Y-6908542D01*
X4369112Y-7060878D01*
X4369121Y-7060887D01*
X4501781Y-7169758D01*
X4521462Y-7185910D01*
X4695273Y-7278814D01*
X4883868Y-7336024D01*
X4883870Y-7336024D01*
X4883873Y-7336025D01*
X5079997Y-7355341D01*
X5080000Y-7355341D01*
X5080003Y-7355341D01*
X5276126Y-7336025D01*
X5276127Y-7336024D01*
X5276132Y-7336024D01*
X5464727Y-7278814D01*
X5638538Y-7185910D01*
X5790883Y-7060883D01*
X5915910Y-6908538D01*
X6008814Y-6734727D01*
X6066024Y-6546132D01*
X6085341Y-6350003D01*
X6614659Y-6350003D01*
X6633974Y-6546126D01*
X6633975Y-6546129D01*
X6691187Y-6734730D01*
X6691188Y-6734732D01*
X6762218Y-6867618D01*
X6784090Y-6908538D01*
X6784092Y-6908540D01*
X6784093Y-6908542D01*
X6909112Y-7060878D01*
X6909121Y-7060887D01*
X7041781Y-7169758D01*
X7061462Y-7185910D01*
X7235273Y-7278814D01*
X7423868Y-7336024D01*
X7423870Y-7336024D01*
X7423873Y-7336025D01*
X7619997Y-7355341D01*
X7620000Y-7355341D01*
X7620003Y-7355341D01*
X7816126Y-7336025D01*
X7816127Y-7336024D01*
X7816132Y-7336024D01*
X8004727Y-7278814D01*
X8178538Y-7185910D01*
X8330883Y-7060883D01*
X8455910Y-6908538D01*
X8548814Y-6734727D01*
X8606024Y-6546132D01*
X8625341Y-6350003D01*
X9154659Y-6350003D01*
X9173974Y-6546126D01*
X9173975Y-6546129D01*
X9231187Y-6734730D01*
X9231188Y-6734732D01*
X9302218Y-6867618D01*
X9324090Y-6908538D01*
X9324092Y-6908540D01*
X9324093Y-6908542D01*
X9449112Y-7060878D01*
X9449121Y-7060887D01*
X9581781Y-7169758D01*
X9601462Y-7185910D01*
X9775273Y-7278814D01*
X9963868Y-7336024D01*
X9963870Y-7336024D01*
X9963873Y-7336025D01*
X10159997Y-7355341D01*
X10160000Y-7355341D01*
X10160003Y-7355341D01*
X10356126Y-7336025D01*
X10356127Y-7336024D01*
X10356132Y-7336024D01*
X10544727Y-7278814D01*
X10718538Y-7185910D01*
X10870883Y-7060883D01*
X10995910Y-6908538D01*
X11088814Y-6734727D01*
X11146024Y-6546132D01*
X11165341Y-6350003D01*
X11694659Y-6350003D01*
X11713974Y-6546126D01*
X11713975Y-6546129D01*
X11771187Y-6734730D01*
X11771188Y-6734732D01*
X11842218Y-6867618D01*
X11864090Y-6908538D01*
X11864092Y-6908540D01*
X11864093Y-6908542D01*
X11989112Y-7060878D01*
X11989121Y-7060887D01*
X12121781Y-7169758D01*
X12141462Y-7185910D01*
X12315273Y-7278814D01*
X12503868Y-7336024D01*
X12503870Y-7336024D01*
X12503873Y-7336025D01*
X12699997Y-7355341D01*
X12700000Y-7355341D01*
X12700003Y-7355341D01*
X12896126Y-7336025D01*
X12896127Y-7336024D01*
X12896132Y-7336024D01*
X13084727Y-7278814D01*
X13258538Y-7185910D01*
X13410883Y-7060883D01*
X13535910Y-6908538D01*
X13628814Y-6734727D01*
X13686024Y-6546132D01*
X13705341Y-6350003D01*
X14234659Y-6350003D01*
X14253974Y-6546126D01*
X14253975Y-6546129D01*
X14311187Y-6734730D01*
X14311188Y-6734732D01*
X14382218Y-6867618D01*
X14404090Y-6908538D01*
X14404092Y-6908540D01*
X14404093Y-6908542D01*
X14529112Y-7060878D01*
X14529121Y-7060887D01*
X14661781Y-7169758D01*
X14681462Y-7185910D01*
X14855273Y-7278814D01*
X15043868Y-7336024D01*
X15043870Y-7336024D01*
X15043873Y-7336025D01*
X15239997Y-7355341D01*
X15240000Y-7355341D01*
X15240003Y-7355341D01*
X15436126Y-7336025D01*
X15436127Y-7336024D01*
X15436132Y-7336024D01*
X15624727Y-7278814D01*
X15798538Y-7185910D01*
X15950883Y-7060883D01*
X16075910Y-6908538D01*
X16168814Y-6734727D01*
X16226024Y-6546132D01*
X16245341Y-6350003D01*
X16774659Y-6350003D01*
X16793974Y-6546126D01*
X16793975Y-6546129D01*
X16851187Y-6734730D01*
X16851188Y-6734732D01*
X16922218Y-6867618D01*
X16944090Y-6908538D01*
X16944092Y-6908540D01*
X16944093Y-6908542D01*
X17069112Y-7060878D01*
X17069121Y-7060887D01*
X17201781Y-7169758D01*
X17221462Y-7185910D01*
X17395273Y-7278814D01*
X17583868Y-7336024D01*
X17583870Y-7336024D01*
X17583873Y-7336025D01*
X17779997Y-7355341D01*
X17780000Y-7355341D01*
X17780003Y-7355341D01*
X17976126Y-7336025D01*
X17976127Y-7336024D01*
X17976132Y-7336024D01*
X18164727Y-7278814D01*
X18338538Y-7185910D01*
X18490883Y-7060883D01*
X18615910Y-6908538D01*
X18708814Y-6734727D01*
X18766024Y-6546132D01*
X18785341Y-6350003D01*
X19314659Y-6350003D01*
X19333974Y-6546126D01*
X19333975Y-6546129D01*
X19391187Y-6734730D01*
X19391188Y-6734732D01*
X19462218Y-6867618D01*
X19484090Y-6908538D01*
X19484092Y-6908540D01*
X19484093Y-6908542D01*
X19609112Y-7060878D01*
X19609121Y-7060887D01*
X19741781Y-7169758D01*
X19761462Y-7185910D01*
X19935273Y-7278814D01*
X20123868Y-7336024D01*
X20123870Y-7336024D01*
X20123873Y-7336025D01*
X20319997Y-7355341D01*
X20320000Y-7355341D01*
X20320003Y-7355341D01*
X20516126Y-7336025D01*
X20516127Y-7336024D01*
X20516132Y-7336024D01*
X20704727Y-7278814D01*
X20878538Y-7185910D01*
X20898234Y-7169746D01*
X21859500Y-7169746D01*
X21859501Y-7169758D01*
X21871132Y-7228227D01*
X21871134Y-7228233D01*
X21904932Y-7278814D01*
X21915448Y-7294552D01*
X21981769Y-7338867D01*
X22026231Y-7347711D01*
X22040241Y-7350498D01*
X22040246Y-7350498D01*
X22040252Y-7350500D01*
X22040253Y-7350500D01*
X23679747Y-7350500D01*
X23679748Y-7350500D01*
X23738231Y-7338867D01*
X23804552Y-7294552D01*
X23848867Y-7228231D01*
X23860500Y-7169748D01*
X23860500Y-6350003D01*
X26934659Y-6350003D01*
X26953974Y-6546126D01*
X26953975Y-6546129D01*
X27011187Y-6734730D01*
X27011188Y-6734732D01*
X27082218Y-6867618D01*
X27104090Y-6908538D01*
X27104092Y-6908540D01*
X27104093Y-6908542D01*
X27229112Y-7060878D01*
X27229121Y-7060887D01*
X27361781Y-7169758D01*
X27381462Y-7185910D01*
X27555273Y-7278814D01*
X27743868Y-7336024D01*
X27743870Y-7336024D01*
X27743873Y-7336025D01*
X27939997Y-7355341D01*
X27940000Y-7355341D01*
X27940003Y-7355341D01*
X28136126Y-7336025D01*
X28136127Y-7336024D01*
X28136132Y-7336024D01*
X28324727Y-7278814D01*
X28498538Y-7185910D01*
X28650883Y-7060883D01*
X28775910Y-6908538D01*
X28868814Y-6734727D01*
X28926024Y-6546132D01*
X28945341Y-6350003D01*
X29474659Y-6350003D01*
X29493974Y-6546126D01*
X29493975Y-6546129D01*
X29551187Y-6734730D01*
X29551188Y-6734732D01*
X29622218Y-6867618D01*
X29644090Y-6908538D01*
X29644092Y-6908540D01*
X29644093Y-6908542D01*
X29769112Y-7060878D01*
X29769121Y-7060887D01*
X29901781Y-7169758D01*
X29921462Y-7185910D01*
X30095273Y-7278814D01*
X30283868Y-7336024D01*
X30283870Y-7336024D01*
X30283873Y-7336025D01*
X30479997Y-7355341D01*
X30480000Y-7355341D01*
X30480003Y-7355341D01*
X30676126Y-7336025D01*
X30676127Y-7336024D01*
X30676132Y-7336024D01*
X30864727Y-7278814D01*
X31038538Y-7185910D01*
X31190883Y-7060883D01*
X31315910Y-6908538D01*
X31408814Y-6734727D01*
X31466024Y-6546132D01*
X31485341Y-6350003D01*
X32014659Y-6350003D01*
X32033974Y-6546126D01*
X32033975Y-6546129D01*
X32091187Y-6734730D01*
X32091188Y-6734732D01*
X32162218Y-6867618D01*
X32184090Y-6908538D01*
X32184092Y-6908540D01*
X32184093Y-6908542D01*
X32309112Y-7060878D01*
X32309121Y-7060887D01*
X32441781Y-7169758D01*
X32461462Y-7185910D01*
X32635273Y-7278814D01*
X32823868Y-7336024D01*
X32823870Y-7336024D01*
X32823873Y-7336025D01*
X33019997Y-7355341D01*
X33020000Y-7355341D01*
X33020003Y-7355341D01*
X33216126Y-7336025D01*
X33216127Y-7336024D01*
X33216132Y-7336024D01*
X33404727Y-7278814D01*
X33578538Y-7185910D01*
X33730883Y-7060883D01*
X33855910Y-6908538D01*
X33948814Y-6734727D01*
X34006024Y-6546132D01*
X34025341Y-6350003D01*
X34554659Y-6350003D01*
X34573974Y-6546126D01*
X34573975Y-6546129D01*
X34631187Y-6734730D01*
X34631188Y-6734732D01*
X34702218Y-6867618D01*
X34724090Y-6908538D01*
X34724092Y-6908540D01*
X34724093Y-6908542D01*
X34849112Y-7060878D01*
X34849121Y-7060887D01*
X34981781Y-7169758D01*
X35001462Y-7185910D01*
X35175273Y-7278814D01*
X35363868Y-7336024D01*
X35363870Y-7336024D01*
X35363873Y-7336025D01*
X35559997Y-7355341D01*
X35560000Y-7355341D01*
X35560003Y-7355341D01*
X35756126Y-7336025D01*
X35756127Y-7336024D01*
X35756132Y-7336024D01*
X35944727Y-7278814D01*
X36118538Y-7185910D01*
X36270883Y-7060883D01*
X36395910Y-6908538D01*
X36488814Y-6734727D01*
X36546024Y-6546132D01*
X36565341Y-6350003D01*
X37094659Y-6350003D01*
X37113974Y-6546126D01*
X37113975Y-6546129D01*
X37171187Y-6734730D01*
X37171188Y-6734732D01*
X37242218Y-6867618D01*
X37264090Y-6908538D01*
X37264092Y-6908540D01*
X37264093Y-6908542D01*
X37389112Y-7060878D01*
X37389121Y-7060887D01*
X37521781Y-7169758D01*
X37541462Y-7185910D01*
X37715273Y-7278814D01*
X37903868Y-7336024D01*
X37903870Y-7336024D01*
X37903873Y-7336025D01*
X38099997Y-7355341D01*
X38100000Y-7355341D01*
X38100003Y-7355341D01*
X38296126Y-7336025D01*
X38296127Y-7336024D01*
X38296132Y-7336024D01*
X38484727Y-7278814D01*
X38658538Y-7185910D01*
X38810883Y-7060883D01*
X38935910Y-6908538D01*
X39028814Y-6734727D01*
X39086024Y-6546132D01*
X39105341Y-6350003D01*
X39634659Y-6350003D01*
X39653974Y-6546126D01*
X39653975Y-6546129D01*
X39711187Y-6734730D01*
X39711188Y-6734732D01*
X39782218Y-6867618D01*
X39804090Y-6908538D01*
X39804092Y-6908540D01*
X39804093Y-6908542D01*
X39929112Y-7060878D01*
X39929121Y-7060887D01*
X40061781Y-7169758D01*
X40081462Y-7185910D01*
X40255273Y-7278814D01*
X40443868Y-7336024D01*
X40443870Y-7336024D01*
X40443873Y-7336025D01*
X40639997Y-7355341D01*
X40640000Y-7355341D01*
X40640003Y-7355341D01*
X40836126Y-7336025D01*
X40836127Y-7336024D01*
X40836132Y-7336024D01*
X41024727Y-7278814D01*
X41198538Y-7185910D01*
X41350883Y-7060883D01*
X41475910Y-6908538D01*
X41568814Y-6734727D01*
X41626024Y-6546132D01*
X41645341Y-6350003D01*
X42174659Y-6350003D01*
X42193974Y-6546126D01*
X42193975Y-6546129D01*
X42251187Y-6734730D01*
X42251188Y-6734732D01*
X42322218Y-6867618D01*
X42344090Y-6908538D01*
X42344092Y-6908540D01*
X42344093Y-6908542D01*
X42469112Y-7060878D01*
X42469121Y-7060887D01*
X42601781Y-7169758D01*
X42621462Y-7185910D01*
X42795273Y-7278814D01*
X42983868Y-7336024D01*
X42983870Y-7336024D01*
X42983873Y-7336025D01*
X43179997Y-7355341D01*
X43180000Y-7355341D01*
X43180003Y-7355341D01*
X43376126Y-7336025D01*
X43376127Y-7336024D01*
X43376132Y-7336024D01*
X43564727Y-7278814D01*
X43738538Y-7185910D01*
X43758234Y-7169746D01*
X44719500Y-7169746D01*
X44719501Y-7169758D01*
X44731132Y-7228227D01*
X44731134Y-7228233D01*
X44764932Y-7278814D01*
X44775448Y-7294552D01*
X44841769Y-7338867D01*
X44886231Y-7347711D01*
X44900241Y-7350498D01*
X44900246Y-7350498D01*
X44900252Y-7350500D01*
X44900253Y-7350500D01*
X46539747Y-7350500D01*
X46539748Y-7350500D01*
X46598231Y-7338867D01*
X46664552Y-7294552D01*
X46708867Y-7228231D01*
X46720500Y-7169748D01*
X46720500Y-5530252D01*
X46708867Y-5471769D01*
X46664552Y-5405448D01*
X46602486Y-5363976D01*
X46598233Y-5361134D01*
X46598231Y-5361133D01*
X46598228Y-5361132D01*
X46598227Y-5361132D01*
X46539758Y-5349501D01*
X46539748Y-5349500D01*
X44900252Y-5349500D01*
X44900251Y-5349500D01*
X44900241Y-5349501D01*
X44841772Y-5361132D01*
X44841766Y-5361134D01*
X44775451Y-5405445D01*
X44775445Y-5405451D01*
X44731134Y-5471766D01*
X44731132Y-5471772D01*
X44719501Y-5530241D01*
X44719500Y-5530253D01*
X44719500Y-7169746D01*
X43758234Y-7169746D01*
X43890883Y-7060883D01*
X44015910Y-6908538D01*
X44108814Y-6734727D01*
X44166024Y-6546132D01*
X44185341Y-6350000D01*
X44185341Y-6349996D01*
X44166025Y-6153873D01*
X44166024Y-6153870D01*
X44166024Y-6153868D01*
X44108814Y-5965273D01*
X44015910Y-5791462D01*
X44015906Y-5791457D01*
X43890887Y-5639121D01*
X43890878Y-5639112D01*
X43738542Y-5514093D01*
X43738540Y-5514092D01*
X43738538Y-5514090D01*
X43659361Y-5471769D01*
X43564732Y-5421188D01*
X43564730Y-5421187D01*
X43376129Y-5363975D01*
X43376126Y-5363974D01*
X43180003Y-5344659D01*
X43179997Y-5344659D01*
X42983873Y-5363974D01*
X42983870Y-5363975D01*
X42795269Y-5421187D01*
X42795267Y-5421188D01*
X42621467Y-5514087D01*
X42621457Y-5514093D01*
X42469121Y-5639112D01*
X42469112Y-5639121D01*
X42344093Y-5791457D01*
X42344087Y-5791467D01*
X42251188Y-5965267D01*
X42251187Y-5965269D01*
X42193975Y-6153870D01*
X42193974Y-6153873D01*
X42174659Y-6349996D01*
X42174659Y-6350003D01*
X41645341Y-6350003D01*
X41645341Y-6350000D01*
X41645341Y-6349996D01*
X41626025Y-6153873D01*
X41626024Y-6153870D01*
X41626024Y-6153868D01*
X41568814Y-5965273D01*
X41475910Y-5791462D01*
X41475906Y-5791457D01*
X41350887Y-5639121D01*
X41350878Y-5639112D01*
X41198542Y-5514093D01*
X41198540Y-5514092D01*
X41198538Y-5514090D01*
X41119361Y-5471769D01*
X41024732Y-5421188D01*
X41024730Y-5421187D01*
X40836129Y-5363975D01*
X40836126Y-5363974D01*
X40640003Y-5344659D01*
X40639997Y-5344659D01*
X40443873Y-5363974D01*
X40443870Y-5363975D01*
X40255269Y-5421187D01*
X40255267Y-5421188D01*
X40081467Y-5514087D01*
X40081457Y-5514093D01*
X39929121Y-5639112D01*
X39929112Y-5639121D01*
X39804093Y-5791457D01*
X39804087Y-5791467D01*
X39711188Y-5965267D01*
X39711187Y-5965269D01*
X39653975Y-6153870D01*
X39653974Y-6153873D01*
X39634659Y-6349996D01*
X39634659Y-6350003D01*
X39105341Y-6350003D01*
X39105341Y-6350000D01*
X39105341Y-6349996D01*
X39086025Y-6153873D01*
X39086024Y-6153870D01*
X39086024Y-6153868D01*
X39028814Y-5965273D01*
X38935910Y-5791462D01*
X38935906Y-5791457D01*
X38810887Y-5639121D01*
X38810878Y-5639112D01*
X38658542Y-5514093D01*
X38658540Y-5514092D01*
X38658538Y-5514090D01*
X38579361Y-5471769D01*
X38484732Y-5421188D01*
X38484730Y-5421187D01*
X38296129Y-5363975D01*
X38296126Y-5363974D01*
X38100003Y-5344659D01*
X38099997Y-5344659D01*
X37903873Y-5363974D01*
X37903870Y-5363975D01*
X37715269Y-5421187D01*
X37715267Y-5421188D01*
X37541467Y-5514087D01*
X37541457Y-5514093D01*
X37389121Y-5639112D01*
X37389112Y-5639121D01*
X37264093Y-5791457D01*
X37264087Y-5791467D01*
X37171188Y-5965267D01*
X37171187Y-5965269D01*
X37113975Y-6153870D01*
X37113974Y-6153873D01*
X37094659Y-6349996D01*
X37094659Y-6350003D01*
X36565341Y-6350003D01*
X36565341Y-6350000D01*
X36565341Y-6349996D01*
X36546025Y-6153873D01*
X36546024Y-6153870D01*
X36546024Y-6153868D01*
X36488814Y-5965273D01*
X36395910Y-5791462D01*
X36395906Y-5791457D01*
X36270887Y-5639121D01*
X36270878Y-5639112D01*
X36118542Y-5514093D01*
X36118540Y-5514092D01*
X36118538Y-5514090D01*
X36039361Y-5471769D01*
X35944732Y-5421188D01*
X35944730Y-5421187D01*
X35756129Y-5363975D01*
X35756126Y-5363974D01*
X35560003Y-5344659D01*
X35559997Y-5344659D01*
X35363873Y-5363974D01*
X35363870Y-5363975D01*
X35175269Y-5421187D01*
X35175267Y-5421188D01*
X35001467Y-5514087D01*
X35001457Y-5514093D01*
X34849121Y-5639112D01*
X34849112Y-5639121D01*
X34724093Y-5791457D01*
X34724087Y-5791467D01*
X34631188Y-5965267D01*
X34631187Y-5965269D01*
X34573975Y-6153870D01*
X34573974Y-6153873D01*
X34554659Y-6349996D01*
X34554659Y-6350003D01*
X34025341Y-6350003D01*
X34025341Y-6350000D01*
X34025341Y-6349996D01*
X34006025Y-6153873D01*
X34006024Y-6153870D01*
X34006024Y-6153868D01*
X33948814Y-5965273D01*
X33855910Y-5791462D01*
X33855906Y-5791457D01*
X33730887Y-5639121D01*
X33730878Y-5639112D01*
X33578542Y-5514093D01*
X33578540Y-5514092D01*
X33578538Y-5514090D01*
X33499361Y-5471769D01*
X33404732Y-5421188D01*
X33404730Y-5421187D01*
X33216129Y-5363975D01*
X33216126Y-5363974D01*
X33020003Y-5344659D01*
X33019997Y-5344659D01*
X32823873Y-5363974D01*
X32823870Y-5363975D01*
X32635269Y-5421187D01*
X32635267Y-5421188D01*
X32461467Y-5514087D01*
X32461457Y-5514093D01*
X32309121Y-5639112D01*
X32309112Y-5639121D01*
X32184093Y-5791457D01*
X32184087Y-5791467D01*
X32091188Y-5965267D01*
X32091187Y-5965269D01*
X32033975Y-6153870D01*
X32033974Y-6153873D01*
X32014659Y-6349996D01*
X32014659Y-6350003D01*
X31485341Y-6350003D01*
X31485341Y-6350000D01*
X31485341Y-6349996D01*
X31466025Y-6153873D01*
X31466024Y-6153870D01*
X31466024Y-6153868D01*
X31408814Y-5965273D01*
X31315910Y-5791462D01*
X31315906Y-5791457D01*
X31190887Y-5639121D01*
X31190878Y-5639112D01*
X31038542Y-5514093D01*
X31038540Y-5514092D01*
X31038538Y-5514090D01*
X30959361Y-5471769D01*
X30864732Y-5421188D01*
X30864730Y-5421187D01*
X30676129Y-5363975D01*
X30676126Y-5363974D01*
X30480003Y-5344659D01*
X30479997Y-5344659D01*
X30283873Y-5363974D01*
X30283870Y-5363975D01*
X30095269Y-5421187D01*
X30095267Y-5421188D01*
X29921467Y-5514087D01*
X29921457Y-5514093D01*
X29769121Y-5639112D01*
X29769112Y-5639121D01*
X29644093Y-5791457D01*
X29644087Y-5791467D01*
X29551188Y-5965267D01*
X29551187Y-5965269D01*
X29493975Y-6153870D01*
X29493974Y-6153873D01*
X29474659Y-6349996D01*
X29474659Y-6350003D01*
X28945341Y-6350003D01*
X28945341Y-6350000D01*
X28945341Y-6349996D01*
X28926025Y-6153873D01*
X28926024Y-6153870D01*
X28926024Y-6153868D01*
X28868814Y-5965273D01*
X28775910Y-5791462D01*
X28775906Y-5791457D01*
X28650887Y-5639121D01*
X28650878Y-5639112D01*
X28498542Y-5514093D01*
X28498540Y-5514092D01*
X28498538Y-5514090D01*
X28419361Y-5471769D01*
X28324732Y-5421188D01*
X28324730Y-5421187D01*
X28136129Y-5363975D01*
X28136126Y-5363974D01*
X27940003Y-5344659D01*
X27939997Y-5344659D01*
X27743873Y-5363974D01*
X27743870Y-5363975D01*
X27555269Y-5421187D01*
X27555267Y-5421188D01*
X27381467Y-5514087D01*
X27381457Y-5514093D01*
X27229121Y-5639112D01*
X27229112Y-5639121D01*
X27104093Y-5791457D01*
X27104087Y-5791467D01*
X27011188Y-5965267D01*
X27011187Y-5965269D01*
X26953975Y-6153870D01*
X26953974Y-6153873D01*
X26934659Y-6349996D01*
X26934659Y-6350003D01*
X23860500Y-6350003D01*
X23860500Y-5530252D01*
X23848867Y-5471769D01*
X23804552Y-5405448D01*
X23742486Y-5363976D01*
X23738233Y-5361134D01*
X23738231Y-5361133D01*
X23738228Y-5361132D01*
X23738227Y-5361132D01*
X23679758Y-5349501D01*
X23679748Y-5349500D01*
X22040252Y-5349500D01*
X22040251Y-5349500D01*
X22040241Y-5349501D01*
X21981772Y-5361132D01*
X21981766Y-5361134D01*
X21915451Y-5405445D01*
X21915445Y-5405451D01*
X21871134Y-5471766D01*
X21871132Y-5471772D01*
X21859501Y-5530241D01*
X21859500Y-5530253D01*
X21859500Y-7169746D01*
X20898234Y-7169746D01*
X21030883Y-7060883D01*
X21155910Y-6908538D01*
X21248814Y-6734727D01*
X21306024Y-6546132D01*
X21325341Y-6350000D01*
X21325341Y-6349996D01*
X21306025Y-6153873D01*
X21306024Y-6153870D01*
X21306024Y-6153868D01*
X21248814Y-5965273D01*
X21155910Y-5791462D01*
X21155906Y-5791457D01*
X21030887Y-5639121D01*
X21030878Y-5639112D01*
X20878542Y-5514093D01*
X20878540Y-5514092D01*
X20878538Y-5514090D01*
X20799361Y-5471769D01*
X20704732Y-5421188D01*
X20704730Y-5421187D01*
X20516129Y-5363975D01*
X20516126Y-5363974D01*
X20320003Y-5344659D01*
X20319997Y-5344659D01*
X20123873Y-5363974D01*
X20123870Y-5363975D01*
X19935269Y-5421187D01*
X19935267Y-5421188D01*
X19761467Y-5514087D01*
X19761457Y-5514093D01*
X19609121Y-5639112D01*
X19609112Y-5639121D01*
X19484093Y-5791457D01*
X19484087Y-5791467D01*
X19391188Y-5965267D01*
X19391187Y-5965269D01*
X19333975Y-6153870D01*
X19333974Y-6153873D01*
X19314659Y-6349996D01*
X19314659Y-6350003D01*
X18785341Y-6350003D01*
X18785341Y-6350000D01*
X18785341Y-6349996D01*
X18766025Y-6153873D01*
X18766024Y-6153870D01*
X18766024Y-6153868D01*
X18708814Y-5965273D01*
X18615910Y-5791462D01*
X18615906Y-5791457D01*
X18490887Y-5639121D01*
X18490878Y-5639112D01*
X18338542Y-5514093D01*
X18338540Y-5514092D01*
X18338538Y-5514090D01*
X18259361Y-5471769D01*
X18164732Y-5421188D01*
X18164730Y-5421187D01*
X17976129Y-5363975D01*
X17976126Y-5363974D01*
X17780003Y-5344659D01*
X17779997Y-5344659D01*
X17583873Y-5363974D01*
X17583870Y-5363975D01*
X17395269Y-5421187D01*
X17395267Y-5421188D01*
X17221467Y-5514087D01*
X17221457Y-5514093D01*
X17069121Y-5639112D01*
X17069112Y-5639121D01*
X16944093Y-5791457D01*
X16944087Y-5791467D01*
X16851188Y-5965267D01*
X16851187Y-5965269D01*
X16793975Y-6153870D01*
X16793974Y-6153873D01*
X16774659Y-6349996D01*
X16774659Y-6350003D01*
X16245341Y-6350003D01*
X16245341Y-6350000D01*
X16245341Y-6349996D01*
X16226025Y-6153873D01*
X16226024Y-6153870D01*
X16226024Y-6153868D01*
X16168814Y-5965273D01*
X16075910Y-5791462D01*
X16075906Y-5791457D01*
X15950887Y-5639121D01*
X15950878Y-5639112D01*
X15798542Y-5514093D01*
X15798540Y-5514092D01*
X15798538Y-5514090D01*
X15719361Y-5471769D01*
X15624732Y-5421188D01*
X15624730Y-5421187D01*
X15436129Y-5363975D01*
X15436126Y-5363974D01*
X15240003Y-5344659D01*
X15239997Y-5344659D01*
X15043873Y-5363974D01*
X15043870Y-5363975D01*
X14855269Y-5421187D01*
X14855267Y-5421188D01*
X14681467Y-5514087D01*
X14681457Y-5514093D01*
X14529121Y-5639112D01*
X14529112Y-5639121D01*
X14404093Y-5791457D01*
X14404087Y-5791467D01*
X14311188Y-5965267D01*
X14311187Y-5965269D01*
X14253975Y-6153870D01*
X14253974Y-6153873D01*
X14234659Y-6349996D01*
X14234659Y-6350003D01*
X13705341Y-6350003D01*
X13705341Y-6350000D01*
X13705341Y-6349996D01*
X13686025Y-6153873D01*
X13686024Y-6153870D01*
X13686024Y-6153868D01*
X13628814Y-5965273D01*
X13535910Y-5791462D01*
X13535906Y-5791457D01*
X13410887Y-5639121D01*
X13410878Y-5639112D01*
X13258542Y-5514093D01*
X13258540Y-5514092D01*
X13258538Y-5514090D01*
X13179361Y-5471769D01*
X13084732Y-5421188D01*
X13084730Y-5421187D01*
X12896129Y-5363975D01*
X12896126Y-5363974D01*
X12700003Y-5344659D01*
X12699997Y-5344659D01*
X12503873Y-5363974D01*
X12503870Y-5363975D01*
X12315269Y-5421187D01*
X12315267Y-5421188D01*
X12141467Y-5514087D01*
X12141457Y-5514093D01*
X11989121Y-5639112D01*
X11989112Y-5639121D01*
X11864093Y-5791457D01*
X11864087Y-5791467D01*
X11771188Y-5965267D01*
X11771187Y-5965269D01*
X11713975Y-6153870D01*
X11713974Y-6153873D01*
X11694659Y-6349996D01*
X11694659Y-6350003D01*
X11165341Y-6350003D01*
X11165341Y-6350000D01*
X11165341Y-6349996D01*
X11146025Y-6153873D01*
X11146024Y-6153870D01*
X11146024Y-6153868D01*
X11088814Y-5965273D01*
X10995910Y-5791462D01*
X10995906Y-5791457D01*
X10870887Y-5639121D01*
X10870878Y-5639112D01*
X10718542Y-5514093D01*
X10718540Y-5514092D01*
X10718538Y-5514090D01*
X10639361Y-5471769D01*
X10544732Y-5421188D01*
X10544730Y-5421187D01*
X10356129Y-5363975D01*
X10356126Y-5363974D01*
X10160003Y-5344659D01*
X10159997Y-5344659D01*
X9963873Y-5363974D01*
X9963870Y-5363975D01*
X9775269Y-5421187D01*
X9775267Y-5421188D01*
X9601467Y-5514087D01*
X9601457Y-5514093D01*
X9449121Y-5639112D01*
X9449112Y-5639121D01*
X9324093Y-5791457D01*
X9324087Y-5791467D01*
X9231188Y-5965267D01*
X9231187Y-5965269D01*
X9173975Y-6153870D01*
X9173974Y-6153873D01*
X9154659Y-6349996D01*
X9154659Y-6350003D01*
X8625341Y-6350003D01*
X8625341Y-6350000D01*
X8625341Y-6349996D01*
X8606025Y-6153873D01*
X8606024Y-6153870D01*
X8606024Y-6153868D01*
X8548814Y-5965273D01*
X8455910Y-5791462D01*
X8455906Y-5791457D01*
X8330887Y-5639121D01*
X8330878Y-5639112D01*
X8178542Y-5514093D01*
X8178540Y-5514092D01*
X8178538Y-5514090D01*
X8099361Y-5471769D01*
X8004732Y-5421188D01*
X8004730Y-5421187D01*
X7816129Y-5363975D01*
X7816126Y-5363974D01*
X7620003Y-5344659D01*
X7619997Y-5344659D01*
X7423873Y-5363974D01*
X7423870Y-5363975D01*
X7235269Y-5421187D01*
X7235267Y-5421188D01*
X7061467Y-5514087D01*
X7061457Y-5514093D01*
X6909121Y-5639112D01*
X6909112Y-5639121D01*
X6784093Y-5791457D01*
X6784087Y-5791467D01*
X6691188Y-5965267D01*
X6691187Y-5965269D01*
X6633975Y-6153870D01*
X6633974Y-6153873D01*
X6614659Y-6349996D01*
X6614659Y-6350003D01*
X6085341Y-6350003D01*
X6085341Y-6350000D01*
X6085341Y-6349996D01*
X6066025Y-6153873D01*
X6066024Y-6153870D01*
X6066024Y-6153868D01*
X6008814Y-5965273D01*
X5915910Y-5791462D01*
X5915906Y-5791457D01*
X5790887Y-5639121D01*
X5790878Y-5639112D01*
X5638542Y-5514093D01*
X5638540Y-5514092D01*
X5638538Y-5514090D01*
X5559361Y-5471769D01*
X5464732Y-5421188D01*
X5464730Y-5421187D01*
X5276129Y-5363975D01*
X5276126Y-5363974D01*
X5080003Y-5344659D01*
X5079997Y-5344659D01*
X4883873Y-5363974D01*
X4883870Y-5363975D01*
X4695269Y-5421187D01*
X4695267Y-5421188D01*
X4521467Y-5514087D01*
X4521457Y-5514093D01*
X4369121Y-5639112D01*
X4369112Y-5639121D01*
X4244093Y-5791457D01*
X4244087Y-5791467D01*
X4151188Y-5965267D01*
X4151187Y-5965269D01*
X4093975Y-6153870D01*
X4093974Y-6153873D01*
X4074659Y-6349996D01*
X4074659Y-6350003D01*
X300500Y-6350003D01*
X300500Y-399500D01*
X319407Y-341309D01*
X368907Y-305345D01*
X399500Y-300500D01*
X67030500Y-300500D01*
X67088691Y-319407D01*
G37*
%TD.AperFunction*%
%TD*%
M02*
