%TF.GenerationSoftware,KiCad,Pcbnew,8.0.0-rc2*%
%TF.CreationDate,2024-02-11T10:59:49-08:00*%
%TF.ProjectId,fluke_884x_continuity_buzzer,666c756b-655f-4383-9834-785f636f6e74,REV1*%
%TF.SameCoordinates,Original*%
%TF.FileFunction,Legend,Bot*%
%TF.FilePolarity,Positive*%
%FSLAX46Y46*%
G04 Gerber Fmt 4.6, Leading zero omitted, Abs format (unit mm)*
G04 Created by KiCad (PCBNEW 8.0.0-rc2) date 2024-02-11 10:59:49*
%MOMM*%
%LPD*%
G01*
G04 APERTURE LIST*
G04 Aperture macros list*
%AMRoundRect*
0 Rectangle with rounded corners*
0 $1 Rounding radius*
0 $2 $3 $4 $5 $6 $7 $8 $9 X,Y pos of 4 corners*
0 Add a 4 corners polygon primitive as box body*
4,1,4,$2,$3,$4,$5,$6,$7,$8,$9,$2,$3,0*
0 Add four circle primitives for the rounded corners*
1,1,$1+$1,$2,$3*
1,1,$1+$1,$4,$5*
1,1,$1+$1,$6,$7*
1,1,$1+$1,$8,$9*
0 Add four rect primitives between the rounded corners*
20,1,$1+$1,$2,$3,$4,$5,0*
20,1,$1+$1,$4,$5,$6,$7,0*
20,1,$1+$1,$6,$7,$8,$9,0*
20,1,$1+$1,$8,$9,$2,$3,0*%
G04 Aperture macros list end*
%ADD10O,1.652000X0.992000*%
%ADD11O,1.052000X1.352000*%
%ADD12RoundRect,0.051000X-0.850000X-0.850000X0.850000X-0.850000X0.850000X0.850000X-0.850000X0.850000X0*%
%ADD13O,1.802000X1.802000*%
%ADD14RoundRect,0.051000X1.000000X1.000000X-1.000000X1.000000X-1.000000X-1.000000X1.000000X-1.000000X0*%
%ADD15C,2.102000*%
%ADD16RoundRect,0.051000X-0.800000X0.800000X-0.800000X-0.800000X0.800000X-0.800000X0.800000X0.800000X0*%
%ADD17O,1.702000X1.702000*%
%ADD18C,1.102000*%
G04 APERTURE END LIST*
%LPC*%
D10*
%TO.C,J3*%
X69253600Y-55937500D03*
D11*
X66553600Y-54937500D03*
X66553600Y-49937500D03*
D10*
X69253600Y-48937500D03*
%TD*%
D12*
%TO.C,J2*%
X41123600Y-45225000D03*
D13*
X41123600Y-47765000D03*
%TD*%
D14*
%TO.C,LS1*%
X65640000Y-36300000D03*
D15*
X55640000Y-36300000D03*
%TD*%
D16*
%TO.C,P204*%
X22860000Y-6350000D03*
D17*
X20320000Y-6350000D03*
X17780000Y-6350000D03*
X15240000Y-6350000D03*
X12700000Y-6350000D03*
X10160000Y-6350000D03*
X7620000Y-6350000D03*
X5080000Y-6350000D03*
X5080000Y-13970000D03*
X7620000Y-13970000D03*
X10160000Y-13970000D03*
X12700000Y-13970000D03*
X15240000Y-13970000D03*
X17780000Y-13970000D03*
X20320000Y-13970000D03*
X22860000Y-13970000D03*
%TD*%
D16*
%TO.C,J204*%
X22860000Y-20320000D03*
D17*
X20320000Y-20320000D03*
X17780000Y-20320000D03*
X15240000Y-20320000D03*
X12700000Y-20320000D03*
X10160000Y-20320000D03*
X7620000Y-20320000D03*
X5080000Y-20320000D03*
X5080000Y-27940000D03*
X7620000Y-27940000D03*
X10160000Y-27940000D03*
X12700000Y-27940000D03*
X15240000Y-27940000D03*
X17780000Y-27940000D03*
X20320000Y-27940000D03*
X22860000Y-27940000D03*
%TD*%
D16*
%TO.C,J203*%
X45720000Y-20320000D03*
D17*
X43180000Y-20320000D03*
X40640000Y-20320000D03*
X38100000Y-20320000D03*
X35560000Y-20320000D03*
X33020000Y-20320000D03*
X30480000Y-20320000D03*
X27940000Y-20320000D03*
X27940000Y-27940000D03*
X30480000Y-27940000D03*
X33020000Y-27940000D03*
X35560000Y-27940000D03*
X38100000Y-27940000D03*
X40640000Y-27940000D03*
X43180000Y-27940000D03*
X45720000Y-27940000D03*
%TD*%
D18*
%TO.C,TP1*%
X64460000Y-23200000D03*
%TD*%
D16*
%TO.C,P203*%
X45720000Y-6350000D03*
D17*
X43180000Y-6350000D03*
X40640000Y-6350000D03*
X38100000Y-6350000D03*
X35560000Y-6350000D03*
X33020000Y-6350000D03*
X30480000Y-6350000D03*
X27940000Y-6350000D03*
X27940000Y-13970000D03*
X30480000Y-13970000D03*
X33020000Y-13970000D03*
X35560000Y-13970000D03*
X38100000Y-13970000D03*
X40640000Y-13970000D03*
X43180000Y-13970000D03*
X45720000Y-13970000D03*
%TD*%
%LPD*%
M02*
