%TF.GenerationSoftware,KiCad,Pcbnew,8.0.0-rc2*%
%TF.CreationDate,2024-01-29T17:44:33-08:00*%
%TF.ProjectId,fluke_884x_continuity_buzzer,666c756b-655f-4383-9834-785f636f6e74,REV1*%
%TF.SameCoordinates,Original*%
%TF.FileFunction,Soldermask,Top*%
%TF.FilePolarity,Negative*%
%FSLAX46Y46*%
G04 Gerber Fmt 4.6, Leading zero omitted, Abs format (unit mm)*
G04 Created by KiCad (PCBNEW 8.0.0-rc2) date 2024-01-29 17:44:33*
%MOMM*%
%LPD*%
G01*
G04 APERTURE LIST*
G04 APERTURE END LIST*
G36*
X22082609Y-68417775D02*
G01*
X22215500Y-68472820D01*
X22329616Y-68560384D01*
X22417180Y-68674500D01*
X22472225Y-68807391D01*
X22491000Y-68950000D01*
X22472225Y-69092609D01*
X22417180Y-69225500D01*
X22329616Y-69339616D01*
X22215500Y-69427180D01*
X22082609Y-69482225D01*
X21940000Y-69501000D01*
X21797391Y-69482225D01*
X21664500Y-69427180D01*
X21550384Y-69339616D01*
X21462820Y-69225500D01*
X21407775Y-69092609D01*
X21389000Y-68950000D01*
X21407775Y-68807391D01*
X21462820Y-68674500D01*
X21550384Y-68560384D01*
X21664500Y-68472820D01*
X21797391Y-68417775D01*
X21940000Y-68399000D01*
X22082609Y-68417775D01*
G37*
G36*
X25132609Y-68417775D02*
G01*
X25265500Y-68472820D01*
X25379616Y-68560384D01*
X25467180Y-68674500D01*
X25522225Y-68807391D01*
X25541000Y-68950000D01*
X25522225Y-69092609D01*
X25467180Y-69225500D01*
X25379616Y-69339616D01*
X25265500Y-69427180D01*
X25132609Y-69482225D01*
X24990000Y-69501000D01*
X24847391Y-69482225D01*
X24714500Y-69427180D01*
X24600384Y-69339616D01*
X24512820Y-69225500D01*
X24457775Y-69092609D01*
X24439000Y-68950000D01*
X24457775Y-68807391D01*
X24512820Y-68674500D01*
X24600384Y-68560384D01*
X24714500Y-68472820D01*
X24847391Y-68417775D01*
X24990000Y-68399000D01*
X25132609Y-68417775D01*
G37*
G36*
X11108093Y-68453539D02*
G01*
X11170057Y-68494943D01*
X11211461Y-68556907D01*
X11226000Y-68630000D01*
X11226000Y-68970000D01*
X11211461Y-69043093D01*
X11170057Y-69105057D01*
X11108093Y-69146461D01*
X11035000Y-69161000D01*
X10755000Y-69161000D01*
X10681907Y-69146461D01*
X10619943Y-69105057D01*
X10578539Y-69043093D01*
X10564000Y-68970000D01*
X10564000Y-68630000D01*
X10578539Y-68556907D01*
X10619943Y-68494943D01*
X10681907Y-68453539D01*
X10755000Y-68439000D01*
X11035000Y-68439000D01*
X11108093Y-68453539D01*
G37*
G36*
X12068093Y-68453539D02*
G01*
X12130057Y-68494943D01*
X12171461Y-68556907D01*
X12186000Y-68630000D01*
X12186000Y-68970000D01*
X12171461Y-69043093D01*
X12130057Y-69105057D01*
X12068093Y-69146461D01*
X11995000Y-69161000D01*
X11715000Y-69161000D01*
X11641907Y-69146461D01*
X11579943Y-69105057D01*
X11538539Y-69043093D01*
X11524000Y-68970000D01*
X11524000Y-68630000D01*
X11538539Y-68556907D01*
X11579943Y-68494943D01*
X11641907Y-68453539D01*
X11715000Y-68439000D01*
X11995000Y-68439000D01*
X12068093Y-68453539D01*
G37*
G36*
X11108093Y-67053539D02*
G01*
X11170057Y-67094943D01*
X11211461Y-67156907D01*
X11226000Y-67230000D01*
X11226000Y-67570000D01*
X11211461Y-67643093D01*
X11170057Y-67705057D01*
X11108093Y-67746461D01*
X11035000Y-67761000D01*
X10755000Y-67761000D01*
X10681907Y-67746461D01*
X10619943Y-67705057D01*
X10578539Y-67643093D01*
X10564000Y-67570000D01*
X10564000Y-67230000D01*
X10578539Y-67156907D01*
X10619943Y-67094943D01*
X10681907Y-67053539D01*
X10755000Y-67039000D01*
X11035000Y-67039000D01*
X11108093Y-67053539D01*
G37*
G36*
X12068093Y-67053539D02*
G01*
X12130057Y-67094943D01*
X12171461Y-67156907D01*
X12186000Y-67230000D01*
X12186000Y-67570000D01*
X12171461Y-67643093D01*
X12130057Y-67705057D01*
X12068093Y-67746461D01*
X11995000Y-67761000D01*
X11715000Y-67761000D01*
X11641907Y-67746461D01*
X11579943Y-67705057D01*
X11538539Y-67643093D01*
X11524000Y-67570000D01*
X11524000Y-67230000D01*
X11538539Y-67156907D01*
X11579943Y-67094943D01*
X11641907Y-67053539D01*
X11715000Y-67039000D01*
X11995000Y-67039000D01*
X12068093Y-67053539D01*
G37*
G36*
X16003093Y-65643539D02*
G01*
X16065057Y-65684943D01*
X16106461Y-65746907D01*
X16121000Y-65820000D01*
X16121000Y-66100000D01*
X16106461Y-66173093D01*
X16065057Y-66235057D01*
X16003093Y-66276461D01*
X15930000Y-66291000D01*
X15590000Y-66291000D01*
X15516907Y-66276461D01*
X15454943Y-66235057D01*
X15413539Y-66173093D01*
X15399000Y-66100000D01*
X15399000Y-65820000D01*
X15413539Y-65746907D01*
X15454943Y-65684943D01*
X15516907Y-65643539D01*
X15590000Y-65629000D01*
X15930000Y-65629000D01*
X16003093Y-65643539D01*
G37*
G36*
X16003093Y-64683539D02*
G01*
X16065057Y-64724943D01*
X16106461Y-64786907D01*
X16121000Y-64860000D01*
X16121000Y-65140000D01*
X16106461Y-65213093D01*
X16065057Y-65275057D01*
X16003093Y-65316461D01*
X15930000Y-65331000D01*
X15590000Y-65331000D01*
X15516907Y-65316461D01*
X15454943Y-65275057D01*
X15413539Y-65213093D01*
X15399000Y-65140000D01*
X15399000Y-64860000D01*
X15413539Y-64786907D01*
X15454943Y-64724943D01*
X15516907Y-64683539D01*
X15590000Y-64669000D01*
X15930000Y-64669000D01*
X16003093Y-64683539D01*
G37*
G36*
X5152317Y-59409282D02*
G01*
X5168862Y-59420338D01*
X5179918Y-59436883D01*
X5183800Y-59456400D01*
X5183800Y-65056400D01*
X5179918Y-65075917D01*
X5168862Y-65092462D01*
X5152317Y-65103518D01*
X5132800Y-65107400D01*
X3032800Y-65107400D01*
X3013283Y-65103518D01*
X2996738Y-65092462D01*
X2985682Y-65075917D01*
X2981800Y-65056400D01*
X2981800Y-59456400D01*
X2985682Y-59436883D01*
X2996738Y-59420338D01*
X3013283Y-59409282D01*
X3032800Y-59405400D01*
X5132800Y-59405400D01*
X5152317Y-59409282D01*
G37*
G36*
X66784517Y-63290382D02*
G01*
X66801062Y-63301438D01*
X66812118Y-63317983D01*
X66816000Y-63337500D01*
X66816000Y-64537500D01*
X66812118Y-64557017D01*
X66811757Y-64557557D01*
X66811757Y-64602241D01*
X66778244Y-64727311D01*
X66713503Y-64839446D01*
X66621946Y-64931003D01*
X66509811Y-64995744D01*
X66384741Y-65029257D01*
X65660000Y-65033500D01*
X65595259Y-65029257D01*
X65470189Y-64995744D01*
X65358054Y-64931003D01*
X65266497Y-64839446D01*
X65201756Y-64727311D01*
X65168243Y-64602241D01*
X65168243Y-64557557D01*
X65167882Y-64557017D01*
X65164000Y-64537500D01*
X65164000Y-63337500D01*
X65167882Y-63317983D01*
X65178938Y-63301438D01*
X65195483Y-63290382D01*
X65215000Y-63286500D01*
X66765000Y-63286500D01*
X66784517Y-63290382D01*
G37*
G36*
X23416893Y-63568939D02*
G01*
X23478857Y-63610343D01*
X23520261Y-63672307D01*
X23534800Y-63745400D01*
X23534800Y-64085400D01*
X23520261Y-64158493D01*
X23478857Y-64220457D01*
X23416893Y-64261861D01*
X23343800Y-64276400D01*
X23063800Y-64276400D01*
X22990707Y-64261861D01*
X22928743Y-64220457D01*
X22887339Y-64158493D01*
X22872800Y-64085400D01*
X22872800Y-63745400D01*
X22887339Y-63672307D01*
X22928743Y-63610343D01*
X22990707Y-63568939D01*
X23063800Y-63554400D01*
X23343800Y-63554400D01*
X23416893Y-63568939D01*
G37*
G36*
X24376893Y-63568939D02*
G01*
X24438857Y-63610343D01*
X24480261Y-63672307D01*
X24494800Y-63745400D01*
X24494800Y-64085400D01*
X24480261Y-64158493D01*
X24438857Y-64220457D01*
X24376893Y-64261861D01*
X24303800Y-64276400D01*
X24023800Y-64276400D01*
X23950707Y-64261861D01*
X23888743Y-64220457D01*
X23847339Y-64158493D01*
X23832800Y-64085400D01*
X23832800Y-63745400D01*
X23847339Y-63672307D01*
X23888743Y-63610343D01*
X23950707Y-63568939D01*
X24023800Y-63554400D01*
X24303800Y-63554400D01*
X24376893Y-63568939D01*
G37*
G36*
X63491291Y-62901539D02*
G01*
X63610209Y-62970196D01*
X63707304Y-63067291D01*
X63775961Y-63186209D01*
X63811500Y-63318843D01*
X63816000Y-63687500D01*
X63811500Y-63756157D01*
X63775961Y-63888791D01*
X63707304Y-64007709D01*
X63610209Y-64104804D01*
X63491291Y-64173461D01*
X63358657Y-64209000D01*
X63221343Y-64209000D01*
X63088709Y-64173461D01*
X62969791Y-64104804D01*
X62872696Y-64007709D01*
X62804039Y-63888791D01*
X62768500Y-63756157D01*
X62764000Y-63387500D01*
X62768500Y-63318843D01*
X62804039Y-63186209D01*
X62872696Y-63067291D01*
X62969791Y-62970196D01*
X63088709Y-62901539D01*
X63221343Y-62866000D01*
X63358657Y-62866000D01*
X63491291Y-62901539D01*
G37*
G36*
X14687451Y-62872088D02*
G01*
X14720218Y-62893982D01*
X14742112Y-62926749D01*
X14749800Y-62965400D01*
X14749800Y-63740400D01*
X14742112Y-63779051D01*
X14720218Y-63811818D01*
X14687451Y-63833712D01*
X14648800Y-63841400D01*
X14548800Y-63841400D01*
X14510149Y-63833712D01*
X14477382Y-63811818D01*
X14455488Y-63779051D01*
X14447800Y-63740400D01*
X14447800Y-62965400D01*
X14455488Y-62926749D01*
X14477382Y-62893982D01*
X14510149Y-62872088D01*
X14548800Y-62864400D01*
X14648800Y-62864400D01*
X14687451Y-62872088D01*
G37*
G36*
X15087451Y-62872088D02*
G01*
X15120218Y-62893982D01*
X15142112Y-62926749D01*
X15149800Y-62965400D01*
X15149800Y-63740400D01*
X15142112Y-63779051D01*
X15120218Y-63811818D01*
X15087451Y-63833712D01*
X15048800Y-63841400D01*
X14948800Y-63841400D01*
X14910149Y-63833712D01*
X14877382Y-63811818D01*
X14855488Y-63779051D01*
X14847800Y-63740400D01*
X14847800Y-62965400D01*
X14855488Y-62926749D01*
X14877382Y-62893982D01*
X14910149Y-62872088D01*
X14948800Y-62864400D01*
X15048800Y-62864400D01*
X15087451Y-62872088D01*
G37*
G36*
X15487451Y-62872088D02*
G01*
X15520218Y-62893982D01*
X15542112Y-62926749D01*
X15549800Y-62965400D01*
X15549800Y-63740400D01*
X15542112Y-63779051D01*
X15520218Y-63811818D01*
X15487451Y-63833712D01*
X15448800Y-63841400D01*
X15348800Y-63841400D01*
X15310149Y-63833712D01*
X15277382Y-63811818D01*
X15255488Y-63779051D01*
X15247800Y-63740400D01*
X15247800Y-62965400D01*
X15255488Y-62926749D01*
X15277382Y-62893982D01*
X15310149Y-62872088D01*
X15348800Y-62864400D01*
X15448800Y-62864400D01*
X15487451Y-62872088D01*
G37*
G36*
X15887451Y-62872088D02*
G01*
X15920218Y-62893982D01*
X15942112Y-62926749D01*
X15949800Y-62965400D01*
X15949800Y-63740400D01*
X15942112Y-63779051D01*
X15920218Y-63811818D01*
X15887451Y-63833712D01*
X15848800Y-63841400D01*
X15748800Y-63841400D01*
X15710149Y-63833712D01*
X15677382Y-63811818D01*
X15655488Y-63779051D01*
X15647800Y-63740400D01*
X15647800Y-62965400D01*
X15655488Y-62926749D01*
X15677382Y-62893982D01*
X15710149Y-62872088D01*
X15748800Y-62864400D01*
X15848800Y-62864400D01*
X15887451Y-62872088D01*
G37*
G36*
X16287451Y-62872088D02*
G01*
X16320218Y-62893982D01*
X16342112Y-62926749D01*
X16349800Y-62965400D01*
X16349800Y-63740400D01*
X16342112Y-63779051D01*
X16320218Y-63811818D01*
X16287451Y-63833712D01*
X16248800Y-63841400D01*
X16148800Y-63841400D01*
X16110149Y-63833712D01*
X16077382Y-63811818D01*
X16055488Y-63779051D01*
X16047800Y-63740400D01*
X16047800Y-62965400D01*
X16055488Y-62926749D01*
X16077382Y-62893982D01*
X16110149Y-62872088D01*
X16148800Y-62864400D01*
X16248800Y-62864400D01*
X16287451Y-62872088D01*
G37*
G36*
X16687451Y-62872088D02*
G01*
X16720218Y-62893982D01*
X16742112Y-62926749D01*
X16749800Y-62965400D01*
X16749800Y-63740400D01*
X16742112Y-63779051D01*
X16720218Y-63811818D01*
X16687451Y-63833712D01*
X16648800Y-63841400D01*
X16548800Y-63841400D01*
X16510149Y-63833712D01*
X16477382Y-63811818D01*
X16455488Y-63779051D01*
X16447800Y-63740400D01*
X16447800Y-62965400D01*
X16455488Y-62926749D01*
X16477382Y-62893982D01*
X16510149Y-62872088D01*
X16548800Y-62864400D01*
X16648800Y-62864400D01*
X16687451Y-62872088D01*
G37*
G36*
X17087451Y-62872088D02*
G01*
X17120218Y-62893982D01*
X17142112Y-62926749D01*
X17149800Y-62965400D01*
X17149800Y-63740400D01*
X17142112Y-63779051D01*
X17120218Y-63811818D01*
X17087451Y-63833712D01*
X17048800Y-63841400D01*
X16948800Y-63841400D01*
X16910149Y-63833712D01*
X16877382Y-63811818D01*
X16855488Y-63779051D01*
X16847800Y-63740400D01*
X16847800Y-62965400D01*
X16855488Y-62926749D01*
X16877382Y-62893982D01*
X16910149Y-62872088D01*
X16948800Y-62864400D01*
X17048800Y-62864400D01*
X17087451Y-62872088D01*
G37*
G36*
X17487451Y-62872088D02*
G01*
X17520218Y-62893982D01*
X17542112Y-62926749D01*
X17549800Y-62965400D01*
X17549800Y-63740400D01*
X17542112Y-63779051D01*
X17520218Y-63811818D01*
X17487451Y-63833712D01*
X17448800Y-63841400D01*
X17348800Y-63841400D01*
X17310149Y-63833712D01*
X17277382Y-63811818D01*
X17255488Y-63779051D01*
X17247800Y-63740400D01*
X17247800Y-62965400D01*
X17255488Y-62926749D01*
X17277382Y-62893982D01*
X17310149Y-62872088D01*
X17348800Y-62864400D01*
X17448800Y-62864400D01*
X17487451Y-62872088D01*
G37*
G36*
X17887451Y-62872088D02*
G01*
X17920218Y-62893982D01*
X17942112Y-62926749D01*
X17949800Y-62965400D01*
X17949800Y-63740400D01*
X17942112Y-63779051D01*
X17920218Y-63811818D01*
X17887451Y-63833712D01*
X17848800Y-63841400D01*
X17748800Y-63841400D01*
X17710149Y-63833712D01*
X17677382Y-63811818D01*
X17655488Y-63779051D01*
X17647800Y-63740400D01*
X17647800Y-62965400D01*
X17655488Y-62926749D01*
X17677382Y-62893982D01*
X17710149Y-62872088D01*
X17748800Y-62864400D01*
X17848800Y-62864400D01*
X17887451Y-62872088D01*
G37*
G36*
X18287451Y-62872088D02*
G01*
X18320218Y-62893982D01*
X18342112Y-62926749D01*
X18349800Y-62965400D01*
X18349800Y-63740400D01*
X18342112Y-63779051D01*
X18320218Y-63811818D01*
X18287451Y-63833712D01*
X18248800Y-63841400D01*
X18148800Y-63841400D01*
X18110149Y-63833712D01*
X18077382Y-63811818D01*
X18055488Y-63779051D01*
X18047800Y-63740400D01*
X18047800Y-62965400D01*
X18055488Y-62926749D01*
X18077382Y-62893982D01*
X18110149Y-62872088D01*
X18148800Y-62864400D01*
X18248800Y-62864400D01*
X18287451Y-62872088D01*
G37*
G36*
X18687451Y-62872088D02*
G01*
X18720218Y-62893982D01*
X18742112Y-62926749D01*
X18749800Y-62965400D01*
X18749800Y-63740400D01*
X18742112Y-63779051D01*
X18720218Y-63811818D01*
X18687451Y-63833712D01*
X18648800Y-63841400D01*
X18548800Y-63841400D01*
X18510149Y-63833712D01*
X18477382Y-63811818D01*
X18455488Y-63779051D01*
X18447800Y-63740400D01*
X18447800Y-62965400D01*
X18455488Y-62926749D01*
X18477382Y-62893982D01*
X18510149Y-62872088D01*
X18548800Y-62864400D01*
X18648800Y-62864400D01*
X18687451Y-62872088D01*
G37*
G36*
X19087451Y-62872088D02*
G01*
X19120218Y-62893982D01*
X19142112Y-62926749D01*
X19149800Y-62965400D01*
X19149800Y-63740400D01*
X19142112Y-63779051D01*
X19120218Y-63811818D01*
X19087451Y-63833712D01*
X19048800Y-63841400D01*
X18948800Y-63841400D01*
X18910149Y-63833712D01*
X18877382Y-63811818D01*
X18855488Y-63779051D01*
X18847800Y-63740400D01*
X18847800Y-62965400D01*
X18855488Y-62926749D01*
X18877382Y-62893982D01*
X18910149Y-62872088D01*
X18948800Y-62864400D01*
X19048800Y-62864400D01*
X19087451Y-62872088D01*
G37*
G36*
X19487451Y-62872088D02*
G01*
X19520218Y-62893982D01*
X19542112Y-62926749D01*
X19549800Y-62965400D01*
X19549800Y-63740400D01*
X19542112Y-63779051D01*
X19520218Y-63811818D01*
X19487451Y-63833712D01*
X19448800Y-63841400D01*
X19348800Y-63841400D01*
X19310149Y-63833712D01*
X19277382Y-63811818D01*
X19255488Y-63779051D01*
X19247800Y-63740400D01*
X19247800Y-62965400D01*
X19255488Y-62926749D01*
X19277382Y-62893982D01*
X19310149Y-62872088D01*
X19348800Y-62864400D01*
X19448800Y-62864400D01*
X19487451Y-62872088D01*
G37*
G36*
X19887451Y-62872088D02*
G01*
X19920218Y-62893982D01*
X19942112Y-62926749D01*
X19949800Y-62965400D01*
X19949800Y-63740400D01*
X19942112Y-63779051D01*
X19920218Y-63811818D01*
X19887451Y-63833712D01*
X19848800Y-63841400D01*
X19748800Y-63841400D01*
X19710149Y-63833712D01*
X19677382Y-63811818D01*
X19655488Y-63779051D01*
X19647800Y-63740400D01*
X19647800Y-62965400D01*
X19655488Y-62926749D01*
X19677382Y-62893982D01*
X19710149Y-62872088D01*
X19748800Y-62864400D01*
X19848800Y-62864400D01*
X19887451Y-62872088D01*
G37*
G36*
X23416893Y-62568939D02*
G01*
X23478857Y-62610343D01*
X23520261Y-62672307D01*
X23534800Y-62745400D01*
X23534800Y-63085400D01*
X23520261Y-63158493D01*
X23478857Y-63220457D01*
X23416893Y-63261861D01*
X23343800Y-63276400D01*
X23063800Y-63276400D01*
X22990707Y-63261861D01*
X22928743Y-63220457D01*
X22887339Y-63158493D01*
X22872800Y-63085400D01*
X22872800Y-62745400D01*
X22887339Y-62672307D01*
X22928743Y-62610343D01*
X22990707Y-62568939D01*
X23063800Y-62554400D01*
X23343800Y-62554400D01*
X23416893Y-62568939D01*
G37*
G36*
X24376893Y-62568939D02*
G01*
X24438857Y-62610343D01*
X24480261Y-62672307D01*
X24494800Y-62745400D01*
X24494800Y-63085400D01*
X24480261Y-63158493D01*
X24438857Y-63220457D01*
X24376893Y-63261861D01*
X24303800Y-63276400D01*
X24023800Y-63276400D01*
X23950707Y-63261861D01*
X23888743Y-63220457D01*
X23847339Y-63158493D01*
X23832800Y-63085400D01*
X23832800Y-62745400D01*
X23847339Y-62672307D01*
X23888743Y-62610343D01*
X23950707Y-62568939D01*
X24023800Y-62554400D01*
X24303800Y-62554400D01*
X24376893Y-62568939D01*
G37*
G36*
X66784517Y-61240382D02*
G01*
X66801062Y-61251438D01*
X66812118Y-61267983D01*
X66816000Y-61287500D01*
X66816000Y-62787500D01*
X66812118Y-62807017D01*
X66801062Y-62823562D01*
X66784517Y-62834618D01*
X66765000Y-62838500D01*
X65215000Y-62838500D01*
X65195483Y-62834618D01*
X65178938Y-62823562D01*
X65167882Y-62807017D01*
X65164000Y-62787500D01*
X65164000Y-61287500D01*
X65167882Y-61267983D01*
X65178938Y-61251438D01*
X65195483Y-61240382D01*
X65215000Y-61236500D01*
X66765000Y-61236500D01*
X66784517Y-61240382D01*
G37*
G36*
X14187451Y-62372088D02*
G01*
X14220218Y-62393982D01*
X14242112Y-62426749D01*
X14249800Y-62465400D01*
X14249800Y-62565400D01*
X14242112Y-62604051D01*
X14220218Y-62636818D01*
X14187451Y-62658712D01*
X14148800Y-62666400D01*
X13373800Y-62666400D01*
X13335149Y-62658712D01*
X13302382Y-62636818D01*
X13280488Y-62604051D01*
X13272800Y-62565400D01*
X13272800Y-62465400D01*
X13280488Y-62426749D01*
X13302382Y-62393982D01*
X13335149Y-62372088D01*
X13373800Y-62364400D01*
X14148800Y-62364400D01*
X14187451Y-62372088D01*
G37*
G36*
X21062451Y-62372088D02*
G01*
X21095218Y-62393982D01*
X21117112Y-62426749D01*
X21124800Y-62465400D01*
X21124800Y-62565400D01*
X21117112Y-62604051D01*
X21095218Y-62636818D01*
X21062451Y-62658712D01*
X21023800Y-62666400D01*
X20248800Y-62666400D01*
X20210149Y-62658712D01*
X20177382Y-62636818D01*
X20155488Y-62604051D01*
X20147800Y-62565400D01*
X20147800Y-62465400D01*
X20155488Y-62426749D01*
X20177382Y-62393982D01*
X20210149Y-62372088D01*
X20248800Y-62364400D01*
X21023800Y-62364400D01*
X21062451Y-62372088D01*
G37*
G36*
X63984517Y-62090382D02*
G01*
X64001062Y-62101438D01*
X64012118Y-62117983D01*
X64016000Y-62137500D01*
X64016000Y-62537500D01*
X64012118Y-62557017D01*
X64001062Y-62573562D01*
X63984517Y-62584618D01*
X63965000Y-62588500D01*
X62615000Y-62588500D01*
X62595483Y-62584618D01*
X62578938Y-62573562D01*
X62567882Y-62557017D01*
X62564000Y-62537500D01*
X62564000Y-62137500D01*
X62567882Y-62117983D01*
X62578938Y-62101438D01*
X62595483Y-62090382D01*
X62615000Y-62086500D01*
X63965000Y-62086500D01*
X63984517Y-62090382D01*
G37*
G36*
X23379979Y-61558558D02*
G01*
X23440322Y-61598878D01*
X23480642Y-61659221D01*
X23494800Y-61730400D01*
X23494800Y-62100400D01*
X23480642Y-62171579D01*
X23440322Y-62231922D01*
X23379979Y-62272242D01*
X23308800Y-62286400D01*
X23038800Y-62286400D01*
X22967621Y-62272242D01*
X22907278Y-62231922D01*
X22866958Y-62171579D01*
X22852800Y-62100400D01*
X22852800Y-61730400D01*
X22866958Y-61659221D01*
X22907278Y-61598878D01*
X22967621Y-61558558D01*
X23038800Y-61544400D01*
X23308800Y-61544400D01*
X23379979Y-61558558D01*
G37*
G36*
X24399979Y-61558558D02*
G01*
X24460322Y-61598878D01*
X24500642Y-61659221D01*
X24514800Y-61730400D01*
X24514800Y-62100400D01*
X24500642Y-62171579D01*
X24460322Y-62231922D01*
X24399979Y-62272242D01*
X24328800Y-62286400D01*
X24058800Y-62286400D01*
X23987621Y-62272242D01*
X23927278Y-62231922D01*
X23886958Y-62171579D01*
X23872800Y-62100400D01*
X23872800Y-61730400D01*
X23886958Y-61659221D01*
X23927278Y-61598878D01*
X23987621Y-61558558D01*
X24058800Y-61544400D01*
X24328800Y-61544400D01*
X24399979Y-61558558D01*
G37*
G36*
X14187451Y-61972088D02*
G01*
X14220218Y-61993982D01*
X14242112Y-62026749D01*
X14249800Y-62065400D01*
X14249800Y-62165400D01*
X14242112Y-62204051D01*
X14220218Y-62236818D01*
X14187451Y-62258712D01*
X14148800Y-62266400D01*
X13373800Y-62266400D01*
X13335149Y-62258712D01*
X13302382Y-62236818D01*
X13280488Y-62204051D01*
X13272800Y-62165400D01*
X13272800Y-62065400D01*
X13280488Y-62026749D01*
X13302382Y-61993982D01*
X13335149Y-61972088D01*
X13373800Y-61964400D01*
X14148800Y-61964400D01*
X14187451Y-61972088D01*
G37*
G36*
X21062451Y-61972088D02*
G01*
X21095218Y-61993982D01*
X21117112Y-62026749D01*
X21124800Y-62065400D01*
X21124800Y-62165400D01*
X21117112Y-62204051D01*
X21095218Y-62236818D01*
X21062451Y-62258712D01*
X21023800Y-62266400D01*
X20248800Y-62266400D01*
X20210149Y-62258712D01*
X20177382Y-62236818D01*
X20155488Y-62204051D01*
X20147800Y-62165400D01*
X20147800Y-62065400D01*
X20155488Y-62026749D01*
X20177382Y-61993982D01*
X20210149Y-61972088D01*
X20248800Y-61964400D01*
X21023800Y-61964400D01*
X21062451Y-61972088D01*
G37*
G36*
X63984517Y-61440382D02*
G01*
X64001062Y-61451438D01*
X64012118Y-61467983D01*
X64016000Y-61487500D01*
X64016000Y-61887500D01*
X64012118Y-61907017D01*
X64001062Y-61923562D01*
X63984517Y-61934618D01*
X63965000Y-61938500D01*
X62615000Y-61938500D01*
X62595483Y-61934618D01*
X62578938Y-61923562D01*
X62567882Y-61907017D01*
X62564000Y-61887500D01*
X62564000Y-61487500D01*
X62567882Y-61467983D01*
X62578938Y-61451438D01*
X62595483Y-61440382D01*
X62615000Y-61436500D01*
X63965000Y-61436500D01*
X63984517Y-61440382D01*
G37*
G36*
X14187451Y-61572088D02*
G01*
X14220218Y-61593982D01*
X14242112Y-61626749D01*
X14249800Y-61665400D01*
X14249800Y-61765400D01*
X14242112Y-61804051D01*
X14220218Y-61836818D01*
X14187451Y-61858712D01*
X14148800Y-61866400D01*
X13373800Y-61866400D01*
X13335149Y-61858712D01*
X13302382Y-61836818D01*
X13280488Y-61804051D01*
X13272800Y-61765400D01*
X13272800Y-61665400D01*
X13280488Y-61626749D01*
X13302382Y-61593982D01*
X13335149Y-61572088D01*
X13373800Y-61564400D01*
X14148800Y-61564400D01*
X14187451Y-61572088D01*
G37*
G36*
X21062451Y-61572088D02*
G01*
X21095218Y-61593982D01*
X21117112Y-61626749D01*
X21124800Y-61665400D01*
X21124800Y-61765400D01*
X21117112Y-61804051D01*
X21095218Y-61836818D01*
X21062451Y-61858712D01*
X21023800Y-61866400D01*
X20248800Y-61866400D01*
X20210149Y-61858712D01*
X20177382Y-61836818D01*
X20155488Y-61804051D01*
X20147800Y-61765400D01*
X20147800Y-61665400D01*
X20155488Y-61626749D01*
X20177382Y-61593982D01*
X20210149Y-61572088D01*
X20248800Y-61564400D01*
X21023800Y-61564400D01*
X21062451Y-61572088D01*
G37*
G36*
X10446893Y-61068939D02*
G01*
X10508857Y-61110343D01*
X10550261Y-61172307D01*
X10564800Y-61245400D01*
X10564800Y-61585400D01*
X10550261Y-61658493D01*
X10508857Y-61720457D01*
X10446893Y-61761861D01*
X10373800Y-61776400D01*
X10093800Y-61776400D01*
X10020707Y-61761861D01*
X9958743Y-61720457D01*
X9917339Y-61658493D01*
X9902800Y-61585400D01*
X9902800Y-61245400D01*
X9917339Y-61172307D01*
X9958743Y-61110343D01*
X10020707Y-61068939D01*
X10093800Y-61054400D01*
X10373800Y-61054400D01*
X10446893Y-61068939D01*
G37*
G36*
X11406893Y-61068939D02*
G01*
X11468857Y-61110343D01*
X11510261Y-61172307D01*
X11524800Y-61245400D01*
X11524800Y-61585400D01*
X11510261Y-61658493D01*
X11468857Y-61720457D01*
X11406893Y-61761861D01*
X11333800Y-61776400D01*
X11053800Y-61776400D01*
X10980707Y-61761861D01*
X10918743Y-61720457D01*
X10877339Y-61658493D01*
X10862800Y-61585400D01*
X10862800Y-61245400D01*
X10877339Y-61172307D01*
X10918743Y-61110343D01*
X10980707Y-61068939D01*
X11053800Y-61054400D01*
X11333800Y-61054400D01*
X11406893Y-61068939D01*
G37*
G36*
X18729423Y-58279243D02*
G01*
X18792686Y-58321514D01*
X18834957Y-58384777D01*
X18849800Y-58459400D01*
X18849800Y-61371400D01*
X18834957Y-61446023D01*
X18792686Y-61509286D01*
X18729423Y-61551557D01*
X18654800Y-61566400D01*
X15742800Y-61566400D01*
X15668177Y-61551557D01*
X15604914Y-61509286D01*
X15562643Y-61446023D01*
X15547800Y-61371400D01*
X15547800Y-58459400D01*
X15562643Y-58384777D01*
X15604914Y-58321514D01*
X15668177Y-58279243D01*
X15742800Y-58264400D01*
X18654800Y-58264400D01*
X18729423Y-58279243D01*
G37*
G36*
X14187451Y-61172088D02*
G01*
X14220218Y-61193982D01*
X14242112Y-61226749D01*
X14249800Y-61265400D01*
X14249800Y-61365400D01*
X14242112Y-61404051D01*
X14220218Y-61436818D01*
X14187451Y-61458712D01*
X14148800Y-61466400D01*
X13373800Y-61466400D01*
X13335149Y-61458712D01*
X13302382Y-61436818D01*
X13280488Y-61404051D01*
X13272800Y-61365400D01*
X13272800Y-61265400D01*
X13280488Y-61226749D01*
X13302382Y-61193982D01*
X13335149Y-61172088D01*
X13373800Y-61164400D01*
X14148800Y-61164400D01*
X14187451Y-61172088D01*
G37*
G36*
X21062451Y-61172088D02*
G01*
X21095218Y-61193982D01*
X21117112Y-61226749D01*
X21124800Y-61265400D01*
X21124800Y-61365400D01*
X21117112Y-61404051D01*
X21095218Y-61436818D01*
X21062451Y-61458712D01*
X21023800Y-61466400D01*
X20248800Y-61466400D01*
X20210149Y-61458712D01*
X20177382Y-61436818D01*
X20155488Y-61404051D01*
X20147800Y-61365400D01*
X20147800Y-61265400D01*
X20155488Y-61226749D01*
X20177382Y-61193982D01*
X20210149Y-61172088D01*
X20248800Y-61164400D01*
X21023800Y-61164400D01*
X21062451Y-61172088D01*
G37*
G36*
X63984517Y-60790382D02*
G01*
X64001062Y-60801438D01*
X64012118Y-60817983D01*
X64016000Y-60837500D01*
X64016000Y-61237500D01*
X64012118Y-61257017D01*
X64001062Y-61273562D01*
X63984517Y-61284618D01*
X63965000Y-61288500D01*
X62615000Y-61288500D01*
X62595483Y-61284618D01*
X62578938Y-61273562D01*
X62567882Y-61257017D01*
X62564000Y-61237500D01*
X62564000Y-60837500D01*
X62567882Y-60817983D01*
X62578938Y-60801438D01*
X62595483Y-60790382D01*
X62615000Y-60786500D01*
X63965000Y-60786500D01*
X63984517Y-60790382D01*
G37*
G36*
X23379979Y-60558558D02*
G01*
X23440322Y-60598878D01*
X23480642Y-60659221D01*
X23494800Y-60730400D01*
X23494800Y-61100400D01*
X23480642Y-61171579D01*
X23440322Y-61231922D01*
X23379979Y-61272242D01*
X23308800Y-61286400D01*
X23038800Y-61286400D01*
X22967621Y-61272242D01*
X22907278Y-61231922D01*
X22866958Y-61171579D01*
X22852800Y-61100400D01*
X22852800Y-60730400D01*
X22866958Y-60659221D01*
X22907278Y-60598878D01*
X22967621Y-60558558D01*
X23038800Y-60544400D01*
X23308800Y-60544400D01*
X23379979Y-60558558D01*
G37*
G36*
X24399979Y-60558558D02*
G01*
X24460322Y-60598878D01*
X24500642Y-60659221D01*
X24514800Y-60730400D01*
X24514800Y-61100400D01*
X24500642Y-61171579D01*
X24460322Y-61231922D01*
X24399979Y-61272242D01*
X24328800Y-61286400D01*
X24058800Y-61286400D01*
X23987621Y-61272242D01*
X23927278Y-61231922D01*
X23886958Y-61171579D01*
X23872800Y-61100400D01*
X23872800Y-60730400D01*
X23886958Y-60659221D01*
X23927278Y-60598878D01*
X23987621Y-60558558D01*
X24058800Y-60544400D01*
X24328800Y-60544400D01*
X24399979Y-60558558D01*
G37*
G36*
X14187451Y-60772088D02*
G01*
X14220218Y-60793982D01*
X14242112Y-60826749D01*
X14249800Y-60865400D01*
X14249800Y-60965400D01*
X14242112Y-61004051D01*
X14220218Y-61036818D01*
X14187451Y-61058712D01*
X14148800Y-61066400D01*
X13373800Y-61066400D01*
X13335149Y-61058712D01*
X13302382Y-61036818D01*
X13280488Y-61004051D01*
X13272800Y-60965400D01*
X13272800Y-60865400D01*
X13280488Y-60826749D01*
X13302382Y-60793982D01*
X13335149Y-60772088D01*
X13373800Y-60764400D01*
X14148800Y-60764400D01*
X14187451Y-60772088D01*
G37*
G36*
X21062451Y-60772088D02*
G01*
X21095218Y-60793982D01*
X21117112Y-60826749D01*
X21124800Y-60865400D01*
X21124800Y-60965400D01*
X21117112Y-61004051D01*
X21095218Y-61036818D01*
X21062451Y-61058712D01*
X21023800Y-61066400D01*
X20248800Y-61066400D01*
X20210149Y-61058712D01*
X20177382Y-61036818D01*
X20155488Y-61004051D01*
X20147800Y-60965400D01*
X20147800Y-60865400D01*
X20155488Y-60826749D01*
X20177382Y-60793982D01*
X20210149Y-60772088D01*
X20248800Y-60764400D01*
X21023800Y-60764400D01*
X21062451Y-60772088D01*
G37*
G36*
X66784517Y-59240382D02*
G01*
X66801062Y-59251438D01*
X66812118Y-59267983D01*
X66816000Y-59287500D01*
X66816000Y-60787500D01*
X66812118Y-60807017D01*
X66801062Y-60823562D01*
X66784517Y-60834618D01*
X66765000Y-60838500D01*
X65215000Y-60838500D01*
X65195483Y-60834618D01*
X65178938Y-60823562D01*
X65167882Y-60807017D01*
X65164000Y-60787500D01*
X65164000Y-59287500D01*
X65167882Y-59267983D01*
X65178938Y-59251438D01*
X65195483Y-59240382D01*
X65215000Y-59236500D01*
X66765000Y-59236500D01*
X66784517Y-59240382D01*
G37*
G36*
X14187451Y-60372088D02*
G01*
X14220218Y-60393982D01*
X14242112Y-60426749D01*
X14249800Y-60465400D01*
X14249800Y-60565400D01*
X14242112Y-60604051D01*
X14220218Y-60636818D01*
X14187451Y-60658712D01*
X14148800Y-60666400D01*
X13373800Y-60666400D01*
X13335149Y-60658712D01*
X13302382Y-60636818D01*
X13280488Y-60604051D01*
X13272800Y-60565400D01*
X13272800Y-60465400D01*
X13280488Y-60426749D01*
X13302382Y-60393982D01*
X13335149Y-60372088D01*
X13373800Y-60364400D01*
X14148800Y-60364400D01*
X14187451Y-60372088D01*
G37*
G36*
X21062451Y-60372088D02*
G01*
X21095218Y-60393982D01*
X21117112Y-60426749D01*
X21124800Y-60465400D01*
X21124800Y-60565400D01*
X21117112Y-60604051D01*
X21095218Y-60636818D01*
X21062451Y-60658712D01*
X21023800Y-60666400D01*
X20248800Y-60666400D01*
X20210149Y-60658712D01*
X20177382Y-60636818D01*
X20155488Y-60604051D01*
X20147800Y-60565400D01*
X20147800Y-60465400D01*
X20155488Y-60426749D01*
X20177382Y-60393982D01*
X20210149Y-60372088D01*
X20248800Y-60364400D01*
X21023800Y-60364400D01*
X21062451Y-60372088D01*
G37*
G36*
X10446893Y-59949939D02*
G01*
X10508857Y-59991343D01*
X10550261Y-60053307D01*
X10564800Y-60126400D01*
X10564800Y-60466400D01*
X10550261Y-60539493D01*
X10508857Y-60601457D01*
X10446893Y-60642861D01*
X10373800Y-60657400D01*
X10093800Y-60657400D01*
X10020707Y-60642861D01*
X9958743Y-60601457D01*
X9917339Y-60539493D01*
X9902800Y-60466400D01*
X9902800Y-60126400D01*
X9917339Y-60053307D01*
X9958743Y-59991343D01*
X10020707Y-59949939D01*
X10093800Y-59935400D01*
X10373800Y-59935400D01*
X10446893Y-59949939D01*
G37*
G36*
X11406893Y-59949939D02*
G01*
X11468857Y-59991343D01*
X11510261Y-60053307D01*
X11524800Y-60126400D01*
X11524800Y-60466400D01*
X11510261Y-60539493D01*
X11468857Y-60601457D01*
X11406893Y-60642861D01*
X11333800Y-60657400D01*
X11053800Y-60657400D01*
X10980707Y-60642861D01*
X10918743Y-60601457D01*
X10877339Y-60539493D01*
X10862800Y-60466400D01*
X10862800Y-60126400D01*
X10877339Y-60053307D01*
X10918743Y-59991343D01*
X10980707Y-59949939D01*
X11053800Y-59935400D01*
X11333800Y-59935400D01*
X11406893Y-59949939D01*
G37*
G36*
X63984517Y-60140382D02*
G01*
X64001062Y-60151438D01*
X64012118Y-60167983D01*
X64016000Y-60187500D01*
X64016000Y-60587500D01*
X64012118Y-60607017D01*
X64001062Y-60623562D01*
X63984517Y-60634618D01*
X63965000Y-60638500D01*
X62615000Y-60638500D01*
X62595483Y-60634618D01*
X62578938Y-60623562D01*
X62567882Y-60607017D01*
X62564000Y-60587500D01*
X62564000Y-60187500D01*
X62567882Y-60167983D01*
X62578938Y-60151438D01*
X62595483Y-60140382D01*
X62615000Y-60136500D01*
X63965000Y-60136500D01*
X63984517Y-60140382D01*
G37*
G36*
X24416893Y-59568939D02*
G01*
X24478857Y-59610343D01*
X24520261Y-59672307D01*
X24534800Y-59745400D01*
X24534800Y-60085400D01*
X24520261Y-60158493D01*
X24478857Y-60220457D01*
X24416893Y-60261861D01*
X24343800Y-60276400D01*
X24063800Y-60276400D01*
X23990707Y-60261861D01*
X23928743Y-60220457D01*
X23887339Y-60158493D01*
X23872800Y-60085400D01*
X23872800Y-59745400D01*
X23887339Y-59672307D01*
X23928743Y-59610343D01*
X23990707Y-59568939D01*
X24063800Y-59554400D01*
X24343800Y-59554400D01*
X24416893Y-59568939D01*
G37*
G36*
X25376893Y-59568939D02*
G01*
X25438857Y-59610343D01*
X25480261Y-59672307D01*
X25494800Y-59745400D01*
X25494800Y-60085400D01*
X25480261Y-60158493D01*
X25438857Y-60220457D01*
X25376893Y-60261861D01*
X25303800Y-60276400D01*
X25023800Y-60276400D01*
X24950707Y-60261861D01*
X24888743Y-60220457D01*
X24847339Y-60158493D01*
X24832800Y-60085400D01*
X24832800Y-59745400D01*
X24847339Y-59672307D01*
X24888743Y-59610343D01*
X24950707Y-59568939D01*
X25023800Y-59554400D01*
X25303800Y-59554400D01*
X25376893Y-59568939D01*
G37*
G36*
X14187451Y-59972088D02*
G01*
X14220218Y-59993982D01*
X14242112Y-60026749D01*
X14249800Y-60065400D01*
X14249800Y-60165400D01*
X14242112Y-60204051D01*
X14220218Y-60236818D01*
X14187451Y-60258712D01*
X14148800Y-60266400D01*
X13373800Y-60266400D01*
X13335149Y-60258712D01*
X13302382Y-60236818D01*
X13280488Y-60204051D01*
X13272800Y-60165400D01*
X13272800Y-60065400D01*
X13280488Y-60026749D01*
X13302382Y-59993982D01*
X13335149Y-59972088D01*
X13373800Y-59964400D01*
X14148800Y-59964400D01*
X14187451Y-59972088D01*
G37*
G36*
X21062451Y-59972088D02*
G01*
X21095218Y-59993982D01*
X21117112Y-60026749D01*
X21124800Y-60065400D01*
X21124800Y-60165400D01*
X21117112Y-60204051D01*
X21095218Y-60236818D01*
X21062451Y-60258712D01*
X21023800Y-60266400D01*
X20248800Y-60266400D01*
X20210149Y-60258712D01*
X20177382Y-60236818D01*
X20155488Y-60204051D01*
X20147800Y-60165400D01*
X20147800Y-60065400D01*
X20155488Y-60026749D01*
X20177382Y-59993982D01*
X20210149Y-59972088D01*
X20248800Y-59964400D01*
X21023800Y-59964400D01*
X21062451Y-59972088D01*
G37*
G36*
X8441893Y-59563939D02*
G01*
X8503857Y-59605343D01*
X8545261Y-59667307D01*
X8559800Y-59740400D01*
X8559800Y-60020400D01*
X8545261Y-60093493D01*
X8503857Y-60155457D01*
X8441893Y-60196861D01*
X8368800Y-60211400D01*
X8028800Y-60211400D01*
X7955707Y-60196861D01*
X7893743Y-60155457D01*
X7852339Y-60093493D01*
X7837800Y-60020400D01*
X7837800Y-59740400D01*
X7852339Y-59667307D01*
X7893743Y-59605343D01*
X7955707Y-59563939D01*
X8028800Y-59549400D01*
X8368800Y-59549400D01*
X8441893Y-59563939D01*
G37*
G36*
X63984517Y-59490382D02*
G01*
X64001062Y-59501438D01*
X64012118Y-59517983D01*
X64016000Y-59537500D01*
X64016000Y-59937500D01*
X64012118Y-59957017D01*
X64001062Y-59973562D01*
X63984517Y-59984618D01*
X63965000Y-59988500D01*
X62615000Y-59988500D01*
X62595483Y-59984618D01*
X62578938Y-59973562D01*
X62567882Y-59957017D01*
X62564000Y-59937500D01*
X62564000Y-59537500D01*
X62567882Y-59517983D01*
X62578938Y-59501438D01*
X62595483Y-59490382D01*
X62615000Y-59486500D01*
X63965000Y-59486500D01*
X63984517Y-59490382D01*
G37*
G36*
X14187451Y-59572088D02*
G01*
X14220218Y-59593982D01*
X14242112Y-59626749D01*
X14249800Y-59665400D01*
X14249800Y-59765400D01*
X14242112Y-59804051D01*
X14220218Y-59836818D01*
X14187451Y-59858712D01*
X14148800Y-59866400D01*
X13373800Y-59866400D01*
X13335149Y-59858712D01*
X13302382Y-59836818D01*
X13280488Y-59804051D01*
X13272800Y-59765400D01*
X13272800Y-59665400D01*
X13280488Y-59626749D01*
X13302382Y-59593982D01*
X13335149Y-59572088D01*
X13373800Y-59564400D01*
X14148800Y-59564400D01*
X14187451Y-59572088D01*
G37*
G36*
X21062451Y-59572088D02*
G01*
X21095218Y-59593982D01*
X21117112Y-59626749D01*
X21124800Y-59665400D01*
X21124800Y-59765400D01*
X21117112Y-59804051D01*
X21095218Y-59836818D01*
X21062451Y-59858712D01*
X21023800Y-59866400D01*
X20248800Y-59866400D01*
X20210149Y-59858712D01*
X20177382Y-59836818D01*
X20155488Y-59804051D01*
X20147800Y-59765400D01*
X20147800Y-59665400D01*
X20155488Y-59626749D01*
X20177382Y-59593982D01*
X20210149Y-59572088D01*
X20248800Y-59564400D01*
X21023800Y-59564400D01*
X21062451Y-59572088D01*
G37*
G36*
X14187451Y-59172088D02*
G01*
X14220218Y-59193982D01*
X14242112Y-59226749D01*
X14249800Y-59265400D01*
X14249800Y-59365400D01*
X14242112Y-59404051D01*
X14220218Y-59436818D01*
X14187451Y-59458712D01*
X14148800Y-59466400D01*
X13373800Y-59466400D01*
X13335149Y-59458712D01*
X13302382Y-59436818D01*
X13280488Y-59404051D01*
X13272800Y-59365400D01*
X13272800Y-59265400D01*
X13280488Y-59226749D01*
X13302382Y-59193982D01*
X13335149Y-59172088D01*
X13373800Y-59164400D01*
X14148800Y-59164400D01*
X14187451Y-59172088D01*
G37*
G36*
X21062451Y-59172088D02*
G01*
X21095218Y-59193982D01*
X21117112Y-59226749D01*
X21124800Y-59265400D01*
X21124800Y-59365400D01*
X21117112Y-59404051D01*
X21095218Y-59436818D01*
X21062451Y-59458712D01*
X21023800Y-59466400D01*
X20248800Y-59466400D01*
X20210149Y-59458712D01*
X20177382Y-59436818D01*
X20155488Y-59404051D01*
X20147800Y-59365400D01*
X20147800Y-59265400D01*
X20155488Y-59226749D01*
X20177382Y-59193982D01*
X20210149Y-59172088D01*
X20248800Y-59164400D01*
X21023800Y-59164400D01*
X21062451Y-59172088D01*
G37*
G36*
X24416893Y-58568939D02*
G01*
X24478857Y-58610343D01*
X24520261Y-58672307D01*
X24534800Y-58745400D01*
X24534800Y-59085400D01*
X24520261Y-59158493D01*
X24478857Y-59220457D01*
X24416893Y-59261861D01*
X24343800Y-59276400D01*
X24063800Y-59276400D01*
X23990707Y-59261861D01*
X23928743Y-59220457D01*
X23887339Y-59158493D01*
X23872800Y-59085400D01*
X23872800Y-58745400D01*
X23887339Y-58672307D01*
X23928743Y-58610343D01*
X23990707Y-58568939D01*
X24063800Y-58554400D01*
X24343800Y-58554400D01*
X24416893Y-58568939D01*
G37*
G36*
X25376893Y-58568939D02*
G01*
X25438857Y-58610343D01*
X25480261Y-58672307D01*
X25494800Y-58745400D01*
X25494800Y-59085400D01*
X25480261Y-59158493D01*
X25438857Y-59220457D01*
X25376893Y-59261861D01*
X25303800Y-59276400D01*
X25023800Y-59276400D01*
X24950707Y-59261861D01*
X24888743Y-59220457D01*
X24847339Y-59158493D01*
X24832800Y-59085400D01*
X24832800Y-58745400D01*
X24847339Y-58672307D01*
X24888743Y-58610343D01*
X24950707Y-58568939D01*
X25023800Y-58554400D01*
X25303800Y-58554400D01*
X25376893Y-58568939D01*
G37*
G36*
X8441893Y-58603939D02*
G01*
X8503857Y-58645343D01*
X8545261Y-58707307D01*
X8559800Y-58780400D01*
X8559800Y-59060400D01*
X8545261Y-59133493D01*
X8503857Y-59195457D01*
X8441893Y-59236861D01*
X8368800Y-59251400D01*
X8028800Y-59251400D01*
X7955707Y-59236861D01*
X7893743Y-59195457D01*
X7852339Y-59133493D01*
X7837800Y-59060400D01*
X7837800Y-58780400D01*
X7852339Y-58707307D01*
X7893743Y-58645343D01*
X7955707Y-58603939D01*
X8028800Y-58589400D01*
X8368800Y-58589400D01*
X8441893Y-58603939D01*
G37*
G36*
X63491291Y-57901539D02*
G01*
X63610209Y-57970196D01*
X63707304Y-58067291D01*
X63775961Y-58186209D01*
X63811500Y-58318843D01*
X63816000Y-58687500D01*
X63811500Y-58756157D01*
X63775961Y-58888791D01*
X63707304Y-59007709D01*
X63610209Y-59104804D01*
X63491291Y-59173461D01*
X63358657Y-59209000D01*
X63221343Y-59209000D01*
X63088709Y-59173461D01*
X62969791Y-59104804D01*
X62872696Y-59007709D01*
X62804039Y-58888791D01*
X62768500Y-58756157D01*
X62764000Y-58387500D01*
X62768500Y-58318843D01*
X62804039Y-58186209D01*
X62872696Y-58067291D01*
X62969791Y-57970196D01*
X63088709Y-57901539D01*
X63221343Y-57866000D01*
X63358657Y-57866000D01*
X63491291Y-57901539D01*
G37*
G36*
X14187451Y-58772088D02*
G01*
X14220218Y-58793982D01*
X14242112Y-58826749D01*
X14249800Y-58865400D01*
X14249800Y-58965400D01*
X14242112Y-59004051D01*
X14220218Y-59036818D01*
X14187451Y-59058712D01*
X14148800Y-59066400D01*
X13373800Y-59066400D01*
X13335149Y-59058712D01*
X13302382Y-59036818D01*
X13280488Y-59004051D01*
X13272800Y-58965400D01*
X13272800Y-58865400D01*
X13280488Y-58826749D01*
X13302382Y-58793982D01*
X13335149Y-58772088D01*
X13373800Y-58764400D01*
X14148800Y-58764400D01*
X14187451Y-58772088D01*
G37*
G36*
X21062451Y-58772088D02*
G01*
X21095218Y-58793982D01*
X21117112Y-58826749D01*
X21124800Y-58865400D01*
X21124800Y-58965400D01*
X21117112Y-59004051D01*
X21095218Y-59036818D01*
X21062451Y-59058712D01*
X21023800Y-59066400D01*
X20248800Y-59066400D01*
X20210149Y-59058712D01*
X20177382Y-59036818D01*
X20155488Y-59004051D01*
X20147800Y-58965400D01*
X20147800Y-58865400D01*
X20155488Y-58826749D01*
X20177382Y-58793982D01*
X20210149Y-58772088D01*
X20248800Y-58764400D01*
X21023800Y-58764400D01*
X21062451Y-58772088D01*
G37*
G36*
X9779979Y-58258558D02*
G01*
X9840322Y-58298878D01*
X9880642Y-58359221D01*
X9894800Y-58430400D01*
X9894800Y-58800400D01*
X9880642Y-58871579D01*
X9840322Y-58931922D01*
X9779979Y-58972242D01*
X9708800Y-58986400D01*
X9438800Y-58986400D01*
X9367621Y-58972242D01*
X9307278Y-58931922D01*
X9266958Y-58871579D01*
X9252800Y-58800400D01*
X9252800Y-58430400D01*
X9266958Y-58359221D01*
X9307278Y-58298878D01*
X9367621Y-58258558D01*
X9438800Y-58244400D01*
X9708800Y-58244400D01*
X9779979Y-58258558D01*
G37*
G36*
X10799979Y-58258558D02*
G01*
X10860322Y-58298878D01*
X10900642Y-58359221D01*
X10914800Y-58430400D01*
X10914800Y-58800400D01*
X10900642Y-58871579D01*
X10860322Y-58931922D01*
X10799979Y-58972242D01*
X10728800Y-58986400D01*
X10458800Y-58986400D01*
X10387621Y-58972242D01*
X10327278Y-58931922D01*
X10286958Y-58871579D01*
X10272800Y-58800400D01*
X10272800Y-58430400D01*
X10286958Y-58359221D01*
X10327278Y-58298878D01*
X10387621Y-58258558D01*
X10458800Y-58244400D01*
X10728800Y-58244400D01*
X10799979Y-58258558D01*
G37*
G36*
X66384741Y-57045743D02*
G01*
X66509811Y-57079256D01*
X66621946Y-57143997D01*
X66713503Y-57235554D01*
X66778244Y-57347689D01*
X66811757Y-57472759D01*
X66811757Y-57517442D01*
X66812118Y-57517983D01*
X66816000Y-57537500D01*
X66816000Y-58737500D01*
X66812118Y-58757017D01*
X66801062Y-58773562D01*
X66784517Y-58784618D01*
X66765000Y-58788500D01*
X65215000Y-58788500D01*
X65195483Y-58784618D01*
X65178938Y-58773562D01*
X65167882Y-58757017D01*
X65164000Y-58737500D01*
X65164000Y-57537500D01*
X65167882Y-57517983D01*
X65168243Y-57517442D01*
X65168243Y-57472759D01*
X65201756Y-57347689D01*
X65266497Y-57235554D01*
X65358054Y-57143997D01*
X65470189Y-57079256D01*
X65595259Y-57045743D01*
X66320000Y-57041500D01*
X66384741Y-57045743D01*
G37*
G36*
X14187451Y-58372088D02*
G01*
X14220218Y-58393982D01*
X14242112Y-58426749D01*
X14249800Y-58465400D01*
X14249800Y-58565400D01*
X14242112Y-58604051D01*
X14220218Y-58636818D01*
X14187451Y-58658712D01*
X14148800Y-58666400D01*
X13373800Y-58666400D01*
X13335149Y-58658712D01*
X13302382Y-58636818D01*
X13280488Y-58604051D01*
X13272800Y-58565400D01*
X13272800Y-58465400D01*
X13280488Y-58426749D01*
X13302382Y-58393982D01*
X13335149Y-58372088D01*
X13373800Y-58364400D01*
X14148800Y-58364400D01*
X14187451Y-58372088D01*
G37*
G36*
X21062451Y-58372088D02*
G01*
X21095218Y-58393982D01*
X21117112Y-58426749D01*
X21124800Y-58465400D01*
X21124800Y-58565400D01*
X21117112Y-58604051D01*
X21095218Y-58636818D01*
X21062451Y-58658712D01*
X21023800Y-58666400D01*
X20248800Y-58666400D01*
X20210149Y-58658712D01*
X20177382Y-58636818D01*
X20155488Y-58604051D01*
X20147800Y-58565400D01*
X20147800Y-58465400D01*
X20155488Y-58426749D01*
X20177382Y-58393982D01*
X20210149Y-58372088D01*
X20248800Y-58364400D01*
X21023800Y-58364400D01*
X21062451Y-58372088D01*
G37*
G36*
X14187451Y-57972088D02*
G01*
X14220218Y-57993982D01*
X14242112Y-58026749D01*
X14249800Y-58065400D01*
X14249800Y-58165400D01*
X14242112Y-58204051D01*
X14220218Y-58236818D01*
X14187451Y-58258712D01*
X14148800Y-58266400D01*
X13373800Y-58266400D01*
X13335149Y-58258712D01*
X13302382Y-58236818D01*
X13280488Y-58204051D01*
X13272800Y-58165400D01*
X13272800Y-58065400D01*
X13280488Y-58026749D01*
X13302382Y-57993982D01*
X13335149Y-57972088D01*
X13373800Y-57964400D01*
X14148800Y-57964400D01*
X14187451Y-57972088D01*
G37*
G36*
X21062451Y-57972088D02*
G01*
X21095218Y-57993982D01*
X21117112Y-58026749D01*
X21124800Y-58065400D01*
X21124800Y-58165400D01*
X21117112Y-58204051D01*
X21095218Y-58236818D01*
X21062451Y-58258712D01*
X21023800Y-58266400D01*
X20248800Y-58266400D01*
X20210149Y-58258712D01*
X20177382Y-58236818D01*
X20155488Y-58204051D01*
X20147800Y-58165400D01*
X20147800Y-58065400D01*
X20155488Y-58026749D01*
X20177382Y-57993982D01*
X20210149Y-57972088D01*
X20248800Y-57964400D01*
X21023800Y-57964400D01*
X21062451Y-57972088D01*
G37*
G36*
X14187451Y-57572088D02*
G01*
X14220218Y-57593982D01*
X14242112Y-57626749D01*
X14249800Y-57665400D01*
X14249800Y-57765400D01*
X14242112Y-57804051D01*
X14220218Y-57836818D01*
X14187451Y-57858712D01*
X14148800Y-57866400D01*
X13373800Y-57866400D01*
X13335149Y-57858712D01*
X13302382Y-57836818D01*
X13280488Y-57804051D01*
X13272800Y-57765400D01*
X13272800Y-57665400D01*
X13280488Y-57626749D01*
X13302382Y-57593982D01*
X13335149Y-57572088D01*
X13373800Y-57564400D01*
X14148800Y-57564400D01*
X14187451Y-57572088D01*
G37*
G36*
X21062451Y-57572088D02*
G01*
X21095218Y-57593982D01*
X21117112Y-57626749D01*
X21124800Y-57665400D01*
X21124800Y-57765400D01*
X21117112Y-57804051D01*
X21095218Y-57836818D01*
X21062451Y-57858712D01*
X21023800Y-57866400D01*
X20248800Y-57866400D01*
X20210149Y-57858712D01*
X20177382Y-57836818D01*
X20155488Y-57804051D01*
X20147800Y-57765400D01*
X20147800Y-57665400D01*
X20155488Y-57626749D01*
X20177382Y-57593982D01*
X20210149Y-57572088D01*
X20248800Y-57564400D01*
X21023800Y-57564400D01*
X21062451Y-57572088D01*
G37*
G36*
X14187451Y-57172088D02*
G01*
X14220218Y-57193982D01*
X14242112Y-57226749D01*
X14249800Y-57265400D01*
X14249800Y-57365400D01*
X14242112Y-57404051D01*
X14220218Y-57436818D01*
X14187451Y-57458712D01*
X14148800Y-57466400D01*
X13373800Y-57466400D01*
X13335149Y-57458712D01*
X13302382Y-57436818D01*
X13280488Y-57404051D01*
X13272800Y-57365400D01*
X13272800Y-57265400D01*
X13280488Y-57226749D01*
X13302382Y-57193982D01*
X13335149Y-57172088D01*
X13373800Y-57164400D01*
X14148800Y-57164400D01*
X14187451Y-57172088D01*
G37*
G36*
X21062451Y-57172088D02*
G01*
X21095218Y-57193982D01*
X21117112Y-57226749D01*
X21124800Y-57265400D01*
X21124800Y-57365400D01*
X21117112Y-57404051D01*
X21095218Y-57436818D01*
X21062451Y-57458712D01*
X21023800Y-57466400D01*
X20248800Y-57466400D01*
X20210149Y-57458712D01*
X20177382Y-57436818D01*
X20155488Y-57404051D01*
X20147800Y-57365400D01*
X20147800Y-57265400D01*
X20155488Y-57226749D01*
X20177382Y-57193982D01*
X20210149Y-57172088D01*
X20248800Y-57164400D01*
X21023800Y-57164400D01*
X21062451Y-57172088D01*
G37*
G36*
X28245719Y-55729700D02*
G01*
X28310928Y-55773272D01*
X28354500Y-55838481D01*
X28369800Y-55915400D01*
X28369800Y-57215400D01*
X28354500Y-57292319D01*
X28310928Y-57357528D01*
X28245719Y-57401100D01*
X28168800Y-57416400D01*
X27868800Y-57416400D01*
X27791881Y-57401100D01*
X27726672Y-57357528D01*
X27683100Y-57292319D01*
X27667800Y-57215400D01*
X27667800Y-55915400D01*
X27683100Y-55838481D01*
X27726672Y-55773272D01*
X27791881Y-55729700D01*
X27868800Y-55714400D01*
X28168800Y-55714400D01*
X28245719Y-55729700D01*
G37*
G36*
X29515719Y-55729700D02*
G01*
X29580928Y-55773272D01*
X29624500Y-55838481D01*
X29639800Y-55915400D01*
X29639800Y-57215400D01*
X29624500Y-57292319D01*
X29580928Y-57357528D01*
X29515719Y-57401100D01*
X29438800Y-57416400D01*
X29138800Y-57416400D01*
X29061881Y-57401100D01*
X28996672Y-57357528D01*
X28953100Y-57292319D01*
X28937800Y-57215400D01*
X28937800Y-55915400D01*
X28953100Y-55838481D01*
X28996672Y-55773272D01*
X29061881Y-55729700D01*
X29138800Y-55714400D01*
X29438800Y-55714400D01*
X29515719Y-55729700D01*
G37*
G36*
X30785719Y-55729700D02*
G01*
X30850928Y-55773272D01*
X30894500Y-55838481D01*
X30909800Y-55915400D01*
X30909800Y-57215400D01*
X30894500Y-57292319D01*
X30850928Y-57357528D01*
X30785719Y-57401100D01*
X30708800Y-57416400D01*
X30408800Y-57416400D01*
X30331881Y-57401100D01*
X30266672Y-57357528D01*
X30223100Y-57292319D01*
X30207800Y-57215400D01*
X30207800Y-55915400D01*
X30223100Y-55838481D01*
X30266672Y-55773272D01*
X30331881Y-55729700D01*
X30408800Y-55714400D01*
X30708800Y-55714400D01*
X30785719Y-55729700D01*
G37*
G36*
X32055719Y-55729700D02*
G01*
X32120928Y-55773272D01*
X32164500Y-55838481D01*
X32179800Y-55915400D01*
X32179800Y-57215400D01*
X32164500Y-57292319D01*
X32120928Y-57357528D01*
X32055719Y-57401100D01*
X31978800Y-57416400D01*
X31678800Y-57416400D01*
X31601881Y-57401100D01*
X31536672Y-57357528D01*
X31493100Y-57292319D01*
X31477800Y-57215400D01*
X31477800Y-55915400D01*
X31493100Y-55838481D01*
X31536672Y-55773272D01*
X31601881Y-55729700D01*
X31678800Y-55714400D01*
X31978800Y-55714400D01*
X32055719Y-55729700D01*
G37*
G36*
X37907913Y-55468936D02*
G01*
X37954180Y-55468936D01*
X37994129Y-55477427D01*
X38035733Y-55481525D01*
X38087998Y-55497379D01*
X38138424Y-55508098D01*
X38170694Y-55522465D01*
X38204712Y-55532785D01*
X38258767Y-55561678D01*
X38310500Y-55584711D01*
X38334551Y-55602185D01*
X38360447Y-55616027D01*
X38413271Y-55659378D01*
X38462887Y-55695427D01*
X38478996Y-55713318D01*
X38496948Y-55728051D01*
X38545188Y-55786831D01*
X38588924Y-55835405D01*
X38598111Y-55851319D01*
X38608972Y-55864552D01*
X38649149Y-55939719D01*
X38683104Y-55998530D01*
X38687009Y-56010550D01*
X38692214Y-56020287D01*
X38720913Y-56114896D01*
X38741311Y-56177672D01*
X38742028Y-56184502D01*
X38743474Y-56189266D01*
X38757536Y-56332042D01*
X38761000Y-56365000D01*
X38757535Y-56397959D01*
X38743474Y-56540733D01*
X38742029Y-56545496D01*
X38741311Y-56552328D01*
X38720909Y-56615117D01*
X38692214Y-56709712D01*
X38687010Y-56719447D01*
X38683104Y-56731470D01*
X38649142Y-56790293D01*
X38608972Y-56865447D01*
X38598113Y-56878677D01*
X38588924Y-56894595D01*
X38545178Y-56943178D01*
X38496948Y-57001948D01*
X38479000Y-57016677D01*
X38462887Y-57034573D01*
X38413260Y-57070628D01*
X38360447Y-57113972D01*
X38334557Y-57127810D01*
X38310500Y-57145289D01*
X38258756Y-57168326D01*
X38204712Y-57197214D01*
X38170701Y-57207531D01*
X38138424Y-57221902D01*
X38087987Y-57232622D01*
X38035733Y-57248474D01*
X37994138Y-57252570D01*
X37954180Y-57261064D01*
X37907903Y-57261064D01*
X37860000Y-57265782D01*
X37812097Y-57261064D01*
X37765820Y-57261064D01*
X37725862Y-57252570D01*
X37684266Y-57248474D01*
X37632009Y-57232621D01*
X37581576Y-57221902D01*
X37549300Y-57207532D01*
X37515287Y-57197214D01*
X37461237Y-57168323D01*
X37409500Y-57145289D01*
X37385445Y-57127812D01*
X37359552Y-57113972D01*
X37306730Y-57070622D01*
X37257113Y-57034573D01*
X37241002Y-57016680D01*
X37223051Y-57001948D01*
X37174809Y-56943166D01*
X37131076Y-56894595D01*
X37121888Y-56878681D01*
X37111027Y-56865447D01*
X37070844Y-56790269D01*
X37036896Y-56731470D01*
X37032991Y-56719451D01*
X37027785Y-56709712D01*
X36999075Y-56615071D01*
X36978689Y-56552328D01*
X36977971Y-56545501D01*
X36976525Y-56540733D01*
X36962448Y-56397808D01*
X36959000Y-56365000D01*
X36962448Y-56332194D01*
X36976525Y-56189266D01*
X36977971Y-56184497D01*
X36978689Y-56177672D01*
X36999071Y-56114942D01*
X37027785Y-56020287D01*
X37032991Y-56010545D01*
X37036896Y-55998530D01*
X37070836Y-55939742D01*
X37111027Y-55864552D01*
X37121890Y-55851314D01*
X37131076Y-55835405D01*
X37174800Y-55786843D01*
X37223051Y-55728051D01*
X37241005Y-55713315D01*
X37257113Y-55695427D01*
X37306720Y-55659385D01*
X37359552Y-55616027D01*
X37385450Y-55602183D01*
X37409500Y-55584711D01*
X37461226Y-55561681D01*
X37515287Y-55532785D01*
X37549307Y-55522464D01*
X37581576Y-55508098D01*
X37631998Y-55497380D01*
X37684266Y-55481525D01*
X37725871Y-55477427D01*
X37765820Y-55468936D01*
X37812086Y-55468936D01*
X37860000Y-55464217D01*
X37907913Y-55468936D01*
G37*
G36*
X8441893Y-56593939D02*
G01*
X8503857Y-56635343D01*
X8545261Y-56697307D01*
X8559800Y-56770400D01*
X8559800Y-57050400D01*
X8545261Y-57123493D01*
X8503857Y-57185457D01*
X8441893Y-57226861D01*
X8368800Y-57241400D01*
X8028800Y-57241400D01*
X7955707Y-57226861D01*
X7893743Y-57185457D01*
X7852339Y-57123493D01*
X7837800Y-57050400D01*
X7837800Y-56770400D01*
X7852339Y-56697307D01*
X7893743Y-56635343D01*
X7955707Y-56593939D01*
X8028800Y-56579400D01*
X8368800Y-56579400D01*
X8441893Y-56593939D01*
G37*
G36*
X14687451Y-55997088D02*
G01*
X14720218Y-56018982D01*
X14742112Y-56051749D01*
X14749800Y-56090400D01*
X14749800Y-56865400D01*
X14742112Y-56904051D01*
X14720218Y-56936818D01*
X14687451Y-56958712D01*
X14648800Y-56966400D01*
X14548800Y-56966400D01*
X14510149Y-56958712D01*
X14477382Y-56936818D01*
X14455488Y-56904051D01*
X14447800Y-56865400D01*
X14447800Y-56090400D01*
X14455488Y-56051749D01*
X14477382Y-56018982D01*
X14510149Y-55997088D01*
X14548800Y-55989400D01*
X14648800Y-55989400D01*
X14687451Y-55997088D01*
G37*
G36*
X15087451Y-55997088D02*
G01*
X15120218Y-56018982D01*
X15142112Y-56051749D01*
X15149800Y-56090400D01*
X15149800Y-56865400D01*
X15142112Y-56904051D01*
X15120218Y-56936818D01*
X15087451Y-56958712D01*
X15048800Y-56966400D01*
X14948800Y-56966400D01*
X14910149Y-56958712D01*
X14877382Y-56936818D01*
X14855488Y-56904051D01*
X14847800Y-56865400D01*
X14847800Y-56090400D01*
X14855488Y-56051749D01*
X14877382Y-56018982D01*
X14910149Y-55997088D01*
X14948800Y-55989400D01*
X15048800Y-55989400D01*
X15087451Y-55997088D01*
G37*
G36*
X15487451Y-55997088D02*
G01*
X15520218Y-56018982D01*
X15542112Y-56051749D01*
X15549800Y-56090400D01*
X15549800Y-56865400D01*
X15542112Y-56904051D01*
X15520218Y-56936818D01*
X15487451Y-56958712D01*
X15448800Y-56966400D01*
X15348800Y-56966400D01*
X15310149Y-56958712D01*
X15277382Y-56936818D01*
X15255488Y-56904051D01*
X15247800Y-56865400D01*
X15247800Y-56090400D01*
X15255488Y-56051749D01*
X15277382Y-56018982D01*
X15310149Y-55997088D01*
X15348800Y-55989400D01*
X15448800Y-55989400D01*
X15487451Y-55997088D01*
G37*
G36*
X15887451Y-55997088D02*
G01*
X15920218Y-56018982D01*
X15942112Y-56051749D01*
X15949800Y-56090400D01*
X15949800Y-56865400D01*
X15942112Y-56904051D01*
X15920218Y-56936818D01*
X15887451Y-56958712D01*
X15848800Y-56966400D01*
X15748800Y-56966400D01*
X15710149Y-56958712D01*
X15677382Y-56936818D01*
X15655488Y-56904051D01*
X15647800Y-56865400D01*
X15647800Y-56090400D01*
X15655488Y-56051749D01*
X15677382Y-56018982D01*
X15710149Y-55997088D01*
X15748800Y-55989400D01*
X15848800Y-55989400D01*
X15887451Y-55997088D01*
G37*
G36*
X16287451Y-55997088D02*
G01*
X16320218Y-56018982D01*
X16342112Y-56051749D01*
X16349800Y-56090400D01*
X16349800Y-56865400D01*
X16342112Y-56904051D01*
X16320218Y-56936818D01*
X16287451Y-56958712D01*
X16248800Y-56966400D01*
X16148800Y-56966400D01*
X16110149Y-56958712D01*
X16077382Y-56936818D01*
X16055488Y-56904051D01*
X16047800Y-56865400D01*
X16047800Y-56090400D01*
X16055488Y-56051749D01*
X16077382Y-56018982D01*
X16110149Y-55997088D01*
X16148800Y-55989400D01*
X16248800Y-55989400D01*
X16287451Y-55997088D01*
G37*
G36*
X16687451Y-55997088D02*
G01*
X16720218Y-56018982D01*
X16742112Y-56051749D01*
X16749800Y-56090400D01*
X16749800Y-56865400D01*
X16742112Y-56904051D01*
X16720218Y-56936818D01*
X16687451Y-56958712D01*
X16648800Y-56966400D01*
X16548800Y-56966400D01*
X16510149Y-56958712D01*
X16477382Y-56936818D01*
X16455488Y-56904051D01*
X16447800Y-56865400D01*
X16447800Y-56090400D01*
X16455488Y-56051749D01*
X16477382Y-56018982D01*
X16510149Y-55997088D01*
X16548800Y-55989400D01*
X16648800Y-55989400D01*
X16687451Y-55997088D01*
G37*
G36*
X17087451Y-55997088D02*
G01*
X17120218Y-56018982D01*
X17142112Y-56051749D01*
X17149800Y-56090400D01*
X17149800Y-56865400D01*
X17142112Y-56904051D01*
X17120218Y-56936818D01*
X17087451Y-56958712D01*
X17048800Y-56966400D01*
X16948800Y-56966400D01*
X16910149Y-56958712D01*
X16877382Y-56936818D01*
X16855488Y-56904051D01*
X16847800Y-56865400D01*
X16847800Y-56090400D01*
X16855488Y-56051749D01*
X16877382Y-56018982D01*
X16910149Y-55997088D01*
X16948800Y-55989400D01*
X17048800Y-55989400D01*
X17087451Y-55997088D01*
G37*
G36*
X17487451Y-55997088D02*
G01*
X17520218Y-56018982D01*
X17542112Y-56051749D01*
X17549800Y-56090400D01*
X17549800Y-56865400D01*
X17542112Y-56904051D01*
X17520218Y-56936818D01*
X17487451Y-56958712D01*
X17448800Y-56966400D01*
X17348800Y-56966400D01*
X17310149Y-56958712D01*
X17277382Y-56936818D01*
X17255488Y-56904051D01*
X17247800Y-56865400D01*
X17247800Y-56090400D01*
X17255488Y-56051749D01*
X17277382Y-56018982D01*
X17310149Y-55997088D01*
X17348800Y-55989400D01*
X17448800Y-55989400D01*
X17487451Y-55997088D01*
G37*
G36*
X17887451Y-55997088D02*
G01*
X17920218Y-56018982D01*
X17942112Y-56051749D01*
X17949800Y-56090400D01*
X17949800Y-56865400D01*
X17942112Y-56904051D01*
X17920218Y-56936818D01*
X17887451Y-56958712D01*
X17848800Y-56966400D01*
X17748800Y-56966400D01*
X17710149Y-56958712D01*
X17677382Y-56936818D01*
X17655488Y-56904051D01*
X17647800Y-56865400D01*
X17647800Y-56090400D01*
X17655488Y-56051749D01*
X17677382Y-56018982D01*
X17710149Y-55997088D01*
X17748800Y-55989400D01*
X17848800Y-55989400D01*
X17887451Y-55997088D01*
G37*
G36*
X18287451Y-55997088D02*
G01*
X18320218Y-56018982D01*
X18342112Y-56051749D01*
X18349800Y-56090400D01*
X18349800Y-56865400D01*
X18342112Y-56904051D01*
X18320218Y-56936818D01*
X18287451Y-56958712D01*
X18248800Y-56966400D01*
X18148800Y-56966400D01*
X18110149Y-56958712D01*
X18077382Y-56936818D01*
X18055488Y-56904051D01*
X18047800Y-56865400D01*
X18047800Y-56090400D01*
X18055488Y-56051749D01*
X18077382Y-56018982D01*
X18110149Y-55997088D01*
X18148800Y-55989400D01*
X18248800Y-55989400D01*
X18287451Y-55997088D01*
G37*
G36*
X18687451Y-55997088D02*
G01*
X18720218Y-56018982D01*
X18742112Y-56051749D01*
X18749800Y-56090400D01*
X18749800Y-56865400D01*
X18742112Y-56904051D01*
X18720218Y-56936818D01*
X18687451Y-56958712D01*
X18648800Y-56966400D01*
X18548800Y-56966400D01*
X18510149Y-56958712D01*
X18477382Y-56936818D01*
X18455488Y-56904051D01*
X18447800Y-56865400D01*
X18447800Y-56090400D01*
X18455488Y-56051749D01*
X18477382Y-56018982D01*
X18510149Y-55997088D01*
X18548800Y-55989400D01*
X18648800Y-55989400D01*
X18687451Y-55997088D01*
G37*
G36*
X19087451Y-55997088D02*
G01*
X19120218Y-56018982D01*
X19142112Y-56051749D01*
X19149800Y-56090400D01*
X19149800Y-56865400D01*
X19142112Y-56904051D01*
X19120218Y-56936818D01*
X19087451Y-56958712D01*
X19048800Y-56966400D01*
X18948800Y-56966400D01*
X18910149Y-56958712D01*
X18877382Y-56936818D01*
X18855488Y-56904051D01*
X18847800Y-56865400D01*
X18847800Y-56090400D01*
X18855488Y-56051749D01*
X18877382Y-56018982D01*
X18910149Y-55997088D01*
X18948800Y-55989400D01*
X19048800Y-55989400D01*
X19087451Y-55997088D01*
G37*
G36*
X19487451Y-55997088D02*
G01*
X19520218Y-56018982D01*
X19542112Y-56051749D01*
X19549800Y-56090400D01*
X19549800Y-56865400D01*
X19542112Y-56904051D01*
X19520218Y-56936818D01*
X19487451Y-56958712D01*
X19448800Y-56966400D01*
X19348800Y-56966400D01*
X19310149Y-56958712D01*
X19277382Y-56936818D01*
X19255488Y-56904051D01*
X19247800Y-56865400D01*
X19247800Y-56090400D01*
X19255488Y-56051749D01*
X19277382Y-56018982D01*
X19310149Y-55997088D01*
X19348800Y-55989400D01*
X19448800Y-55989400D01*
X19487451Y-55997088D01*
G37*
G36*
X19887451Y-55997088D02*
G01*
X19920218Y-56018982D01*
X19942112Y-56051749D01*
X19949800Y-56090400D01*
X19949800Y-56865400D01*
X19942112Y-56904051D01*
X19920218Y-56936818D01*
X19887451Y-56958712D01*
X19848800Y-56966400D01*
X19748800Y-56966400D01*
X19710149Y-56958712D01*
X19677382Y-56936818D01*
X19655488Y-56904051D01*
X19647800Y-56865400D01*
X19647800Y-56090400D01*
X19655488Y-56051749D01*
X19677382Y-56018982D01*
X19710149Y-55997088D01*
X19748800Y-55989400D01*
X19848800Y-55989400D01*
X19887451Y-55997088D01*
G37*
G36*
X34611893Y-56263939D02*
G01*
X34673857Y-56305343D01*
X34715261Y-56367307D01*
X34729800Y-56440400D01*
X34729800Y-56720400D01*
X34715261Y-56793493D01*
X34673857Y-56855457D01*
X34611893Y-56896861D01*
X34538800Y-56911400D01*
X34198800Y-56911400D01*
X34125707Y-56896861D01*
X34063743Y-56855457D01*
X34022339Y-56793493D01*
X34007800Y-56720400D01*
X34007800Y-56440400D01*
X34022339Y-56367307D01*
X34063743Y-56305343D01*
X34125707Y-56263939D01*
X34198800Y-56249400D01*
X34538800Y-56249400D01*
X34611893Y-56263939D01*
G37*
G36*
X8441893Y-55633939D02*
G01*
X8503857Y-55675343D01*
X8545261Y-55737307D01*
X8559800Y-55810400D01*
X8559800Y-56090400D01*
X8545261Y-56163493D01*
X8503857Y-56225457D01*
X8441893Y-56266861D01*
X8368800Y-56281400D01*
X8028800Y-56281400D01*
X7955707Y-56266861D01*
X7893743Y-56225457D01*
X7852339Y-56163493D01*
X7837800Y-56090400D01*
X7837800Y-55810400D01*
X7852339Y-55737307D01*
X7893743Y-55675343D01*
X7955707Y-55633939D01*
X8028800Y-55619400D01*
X8368800Y-55619400D01*
X8441893Y-55633939D01*
G37*
G36*
X5152317Y-50409282D02*
G01*
X5168862Y-50420338D01*
X5179918Y-50436883D01*
X5183800Y-50456400D01*
X5183800Y-56056400D01*
X5179918Y-56075917D01*
X5168862Y-56092462D01*
X5152317Y-56103518D01*
X5132800Y-56107400D01*
X3032800Y-56107400D01*
X3013283Y-56103518D01*
X2996738Y-56092462D01*
X2985682Y-56075917D01*
X2981800Y-56056400D01*
X2981800Y-50456400D01*
X2985682Y-50436883D01*
X2996738Y-50420338D01*
X3013283Y-50409282D01*
X3032800Y-50405400D01*
X5132800Y-50405400D01*
X5152317Y-50409282D01*
G37*
G36*
X34611893Y-55303939D02*
G01*
X34673857Y-55345343D01*
X34715261Y-55407307D01*
X34729800Y-55480400D01*
X34729800Y-55760400D01*
X34715261Y-55833493D01*
X34673857Y-55895457D01*
X34611893Y-55936861D01*
X34538800Y-55951400D01*
X34198800Y-55951400D01*
X34125707Y-55936861D01*
X34063743Y-55895457D01*
X34022339Y-55833493D01*
X34007800Y-55760400D01*
X34007800Y-55480400D01*
X34022339Y-55407307D01*
X34063743Y-55345343D01*
X34125707Y-55303939D01*
X34198800Y-55289400D01*
X34538800Y-55289400D01*
X34611893Y-55303939D01*
G37*
G36*
X20833093Y-54813539D02*
G01*
X20895057Y-54854943D01*
X20936461Y-54916907D01*
X20951000Y-54990000D01*
X20951000Y-55270000D01*
X20936461Y-55343093D01*
X20895057Y-55405057D01*
X20833093Y-55446461D01*
X20760000Y-55461000D01*
X20420000Y-55461000D01*
X20346907Y-55446461D01*
X20284943Y-55405057D01*
X20243539Y-55343093D01*
X20229000Y-55270000D01*
X20229000Y-54990000D01*
X20243539Y-54916907D01*
X20284943Y-54854943D01*
X20346907Y-54813539D01*
X20420000Y-54799000D01*
X20760000Y-54799000D01*
X20833093Y-54813539D01*
G37*
G36*
X38729517Y-52927882D02*
G01*
X38746062Y-52938938D01*
X38757118Y-52955483D01*
X38761000Y-52975000D01*
X38761000Y-54675000D01*
X38757118Y-54694517D01*
X38746062Y-54711062D01*
X38729517Y-54722118D01*
X38710000Y-54726000D01*
X37010000Y-54726000D01*
X36990483Y-54722118D01*
X36973938Y-54711062D01*
X36962882Y-54694517D01*
X36959000Y-54675000D01*
X36959000Y-52975000D01*
X36962882Y-52955483D01*
X36973938Y-52938938D01*
X36990483Y-52927882D01*
X37010000Y-52924000D01*
X38710000Y-52924000D01*
X38729517Y-52927882D01*
G37*
G36*
X20833093Y-53853539D02*
G01*
X20895057Y-53894943D01*
X20936461Y-53956907D01*
X20951000Y-54030000D01*
X20951000Y-54310000D01*
X20936461Y-54383093D01*
X20895057Y-54445057D01*
X20833093Y-54486461D01*
X20760000Y-54501000D01*
X20420000Y-54501000D01*
X20346907Y-54486461D01*
X20284943Y-54445057D01*
X20243539Y-54383093D01*
X20229000Y-54310000D01*
X20229000Y-54030000D01*
X20243539Y-53956907D01*
X20284943Y-53894943D01*
X20346907Y-53853539D01*
X20420000Y-53839000D01*
X20760000Y-53839000D01*
X20833093Y-53853539D01*
G37*
G36*
X16203093Y-53678539D02*
G01*
X16265057Y-53719943D01*
X16306461Y-53781907D01*
X16321000Y-53855000D01*
X16321000Y-54135000D01*
X16306461Y-54208093D01*
X16265057Y-54270057D01*
X16203093Y-54311461D01*
X16130000Y-54326000D01*
X15790000Y-54326000D01*
X15716907Y-54311461D01*
X15654943Y-54270057D01*
X15613539Y-54208093D01*
X15599000Y-54135000D01*
X15599000Y-53855000D01*
X15613539Y-53781907D01*
X15654943Y-53719943D01*
X15716907Y-53678539D01*
X15790000Y-53664000D01*
X16130000Y-53664000D01*
X16203093Y-53678539D01*
G37*
G36*
X16203093Y-52718539D02*
G01*
X16265057Y-52759943D01*
X16306461Y-52821907D01*
X16321000Y-52895000D01*
X16321000Y-53175000D01*
X16306461Y-53248093D01*
X16265057Y-53310057D01*
X16203093Y-53351461D01*
X16130000Y-53366000D01*
X15790000Y-53366000D01*
X15716907Y-53351461D01*
X15654943Y-53310057D01*
X15613539Y-53248093D01*
X15599000Y-53175000D01*
X15599000Y-52895000D01*
X15613539Y-52821907D01*
X15654943Y-52759943D01*
X15716907Y-52718539D01*
X15790000Y-52704000D01*
X16130000Y-52704000D01*
X16203093Y-52718539D01*
G37*
G36*
X34586179Y-50493158D02*
G01*
X34646522Y-50533478D01*
X34686842Y-50593821D01*
X34701000Y-50665000D01*
X34701000Y-51035000D01*
X34686842Y-51106179D01*
X34646522Y-51166522D01*
X34586179Y-51206842D01*
X34515000Y-51221000D01*
X34245000Y-51221000D01*
X34173821Y-51206842D01*
X34113478Y-51166522D01*
X34073158Y-51106179D01*
X34059000Y-51035000D01*
X34059000Y-50665000D01*
X34073158Y-50593821D01*
X34113478Y-50533478D01*
X34173821Y-50493158D01*
X34245000Y-50479000D01*
X34515000Y-50479000D01*
X34586179Y-50493158D01*
G37*
G36*
X35606179Y-50493158D02*
G01*
X35666522Y-50533478D01*
X35706842Y-50593821D01*
X35721000Y-50665000D01*
X35721000Y-51035000D01*
X35706842Y-51106179D01*
X35666522Y-51166522D01*
X35606179Y-51206842D01*
X35535000Y-51221000D01*
X35265000Y-51221000D01*
X35193821Y-51206842D01*
X35133478Y-51166522D01*
X35093158Y-51106179D01*
X35079000Y-51035000D01*
X35079000Y-50665000D01*
X35093158Y-50593821D01*
X35133478Y-50533478D01*
X35193821Y-50493158D01*
X35265000Y-50479000D01*
X35535000Y-50479000D01*
X35606179Y-50493158D01*
G37*
G36*
X28245719Y-48529700D02*
G01*
X28310928Y-48573272D01*
X28354500Y-48638481D01*
X28369800Y-48715400D01*
X28369800Y-50015400D01*
X28354500Y-50092319D01*
X28310928Y-50157528D01*
X28245719Y-50201100D01*
X28168800Y-50216400D01*
X27868800Y-50216400D01*
X27791881Y-50201100D01*
X27726672Y-50157528D01*
X27683100Y-50092319D01*
X27667800Y-50015400D01*
X27667800Y-48715400D01*
X27683100Y-48638481D01*
X27726672Y-48573272D01*
X27791881Y-48529700D01*
X27868800Y-48514400D01*
X28168800Y-48514400D01*
X28245719Y-48529700D01*
G37*
G36*
X29515719Y-48529700D02*
G01*
X29580928Y-48573272D01*
X29624500Y-48638481D01*
X29639800Y-48715400D01*
X29639800Y-50015400D01*
X29624500Y-50092319D01*
X29580928Y-50157528D01*
X29515719Y-50201100D01*
X29438800Y-50216400D01*
X29138800Y-50216400D01*
X29061881Y-50201100D01*
X28996672Y-50157528D01*
X28953100Y-50092319D01*
X28937800Y-50015400D01*
X28937800Y-48715400D01*
X28953100Y-48638481D01*
X28996672Y-48573272D01*
X29061881Y-48529700D01*
X29138800Y-48514400D01*
X29438800Y-48514400D01*
X29515719Y-48529700D01*
G37*
G36*
X30785719Y-48529700D02*
G01*
X30850928Y-48573272D01*
X30894500Y-48638481D01*
X30909800Y-48715400D01*
X30909800Y-50015400D01*
X30894500Y-50092319D01*
X30850928Y-50157528D01*
X30785719Y-50201100D01*
X30708800Y-50216400D01*
X30408800Y-50216400D01*
X30331881Y-50201100D01*
X30266672Y-50157528D01*
X30223100Y-50092319D01*
X30207800Y-50015400D01*
X30207800Y-48715400D01*
X30223100Y-48638481D01*
X30266672Y-48573272D01*
X30331881Y-48529700D01*
X30408800Y-48514400D01*
X30708800Y-48514400D01*
X30785719Y-48529700D01*
G37*
G36*
X32055719Y-48529700D02*
G01*
X32120928Y-48573272D01*
X32164500Y-48638481D01*
X32179800Y-48715400D01*
X32179800Y-50015400D01*
X32164500Y-50092319D01*
X32120928Y-50157528D01*
X32055719Y-50201100D01*
X31978800Y-50216400D01*
X31678800Y-50216400D01*
X31601881Y-50201100D01*
X31536672Y-50157528D01*
X31493100Y-50092319D01*
X31477800Y-50015400D01*
X31477800Y-48715400D01*
X31493100Y-48638481D01*
X31536672Y-48573272D01*
X31601881Y-48529700D01*
X31678800Y-48514400D01*
X31978800Y-48514400D01*
X32055719Y-48529700D01*
G37*
G36*
X47287465Y-47703675D02*
G01*
X47336955Y-47703675D01*
X47392070Y-47713977D01*
X47445040Y-47719195D01*
X47485279Y-47731401D01*
X47527570Y-47739307D01*
X47586142Y-47761997D01*
X47642200Y-47779003D01*
X47674231Y-47796123D01*
X47708382Y-47809354D01*
X47767719Y-47846093D01*
X47823904Y-47876125D01*
X47847509Y-47895497D01*
X47873251Y-47911436D01*
X47930290Y-47963434D01*
X47983169Y-48006831D01*
X47998839Y-48025924D01*
X48016557Y-48042077D01*
X48067989Y-48110184D01*
X48113875Y-48166096D01*
X48122748Y-48182697D01*
X48133415Y-48196822D01*
X48175860Y-48282064D01*
X48210997Y-48347800D01*
X48214743Y-48360151D01*
X48219848Y-48370402D01*
X48249997Y-48476368D01*
X48270805Y-48544960D01*
X48271488Y-48551900D01*
X48272915Y-48556914D01*
X48287739Y-48716893D01*
X48291000Y-48750000D01*
X48287738Y-48783109D01*
X48272915Y-48943085D01*
X48271488Y-48948097D01*
X48270805Y-48955040D01*
X48249993Y-49023646D01*
X48219848Y-49129597D01*
X48214744Y-49139846D01*
X48210997Y-49152200D01*
X48175853Y-49217949D01*
X48133415Y-49303177D01*
X48122750Y-49317299D01*
X48113875Y-49333904D01*
X48067979Y-49389827D01*
X48016557Y-49457922D01*
X47998842Y-49474071D01*
X47983169Y-49493169D01*
X47930279Y-49536574D01*
X47873251Y-49588563D01*
X47847514Y-49604498D01*
X47823904Y-49623875D01*
X47767707Y-49653912D01*
X47708382Y-49690645D01*
X47674238Y-49703872D01*
X47642200Y-49720997D01*
X47586130Y-49738005D01*
X47527570Y-49760692D01*
X47485286Y-49768596D01*
X47445040Y-49780805D01*
X47392067Y-49786022D01*
X47336955Y-49796325D01*
X47287465Y-49796325D01*
X47240000Y-49801000D01*
X47192535Y-49796325D01*
X47143045Y-49796325D01*
X47087931Y-49786022D01*
X47034960Y-49780805D01*
X46994714Y-49768596D01*
X46952429Y-49760692D01*
X46893865Y-49738004D01*
X46837800Y-49720997D01*
X46805764Y-49703873D01*
X46771617Y-49690645D01*
X46712285Y-49653908D01*
X46656096Y-49623875D01*
X46632488Y-49604500D01*
X46606748Y-49588563D01*
X46549710Y-49536565D01*
X46496831Y-49493169D01*
X46481160Y-49474074D01*
X46463442Y-49457922D01*
X46412007Y-49389811D01*
X46366125Y-49333904D01*
X46357252Y-49317303D01*
X46346584Y-49303177D01*
X46304131Y-49217921D01*
X46269003Y-49152200D01*
X46265257Y-49139851D01*
X46260151Y-49129597D01*
X46229990Y-49023593D01*
X46209195Y-48955040D01*
X46208511Y-48948103D01*
X46207084Y-48943085D01*
X46192244Y-48782938D01*
X46189000Y-48750000D01*
X46192243Y-48717064D01*
X46207084Y-48556914D01*
X46208511Y-48551895D01*
X46209195Y-48544960D01*
X46229986Y-48476421D01*
X46260151Y-48370402D01*
X46265257Y-48360146D01*
X46269003Y-48347800D01*
X46304124Y-48282091D01*
X46346584Y-48196822D01*
X46357253Y-48182692D01*
X46366125Y-48166096D01*
X46411998Y-48110199D01*
X46463442Y-48042077D01*
X46481163Y-48025921D01*
X46496831Y-48006831D01*
X46549699Y-47963443D01*
X46606748Y-47911436D01*
X46632493Y-47895495D01*
X46656096Y-47876125D01*
X46712273Y-47846097D01*
X46771617Y-47809354D01*
X46805771Y-47796122D01*
X46837800Y-47779003D01*
X46893853Y-47761999D01*
X46952429Y-47739307D01*
X46994721Y-47731401D01*
X47034960Y-47719195D01*
X47087928Y-47713977D01*
X47143045Y-47703675D01*
X47192535Y-47703675D01*
X47240000Y-47699000D01*
X47287465Y-47703675D01*
G37*
G36*
X58259517Y-47702882D02*
G01*
X58276062Y-47713938D01*
X58287118Y-47730483D01*
X58291000Y-47750000D01*
X58291000Y-49750000D01*
X58287118Y-49769517D01*
X58276062Y-49786062D01*
X58259517Y-49797118D01*
X58240000Y-49801000D01*
X56240000Y-49801000D01*
X56220483Y-49797118D01*
X56203938Y-49786062D01*
X56192882Y-49769517D01*
X56189000Y-49750000D01*
X56189000Y-47750000D01*
X56192882Y-47730483D01*
X56203938Y-47713938D01*
X56220483Y-47702882D01*
X56240000Y-47699000D01*
X58240000Y-47699000D01*
X58259517Y-47702882D01*
G37*
G36*
X34579979Y-49058558D02*
G01*
X34640322Y-49098878D01*
X34680642Y-49159221D01*
X34694800Y-49230400D01*
X34694800Y-49600400D01*
X34680642Y-49671579D01*
X34640322Y-49731922D01*
X34579979Y-49772242D01*
X34508800Y-49786400D01*
X34238800Y-49786400D01*
X34167621Y-49772242D01*
X34107278Y-49731922D01*
X34066958Y-49671579D01*
X34052800Y-49600400D01*
X34052800Y-49230400D01*
X34066958Y-49159221D01*
X34107278Y-49098878D01*
X34167621Y-49058558D01*
X34238800Y-49044400D01*
X34508800Y-49044400D01*
X34579979Y-49058558D01*
G37*
G36*
X35599979Y-49058558D02*
G01*
X35660322Y-49098878D01*
X35700642Y-49159221D01*
X35714800Y-49230400D01*
X35714800Y-49600400D01*
X35700642Y-49671579D01*
X35660322Y-49731922D01*
X35599979Y-49772242D01*
X35528800Y-49786400D01*
X35258800Y-49786400D01*
X35187621Y-49772242D01*
X35127278Y-49731922D01*
X35086958Y-49671579D01*
X35072800Y-49600400D01*
X35072800Y-49230400D01*
X35086958Y-49159221D01*
X35127278Y-49098878D01*
X35187621Y-49058558D01*
X35258800Y-49044400D01*
X35528800Y-49044400D01*
X35599979Y-49058558D01*
G37*
G36*
X2454517Y-36802882D02*
G01*
X2471062Y-36813938D01*
X2482118Y-36830483D01*
X2486000Y-36850000D01*
X2486000Y-37250000D01*
X2482118Y-37269517D01*
X2471062Y-37286062D01*
X2454517Y-37297118D01*
X2435000Y-37301000D01*
X1785000Y-37301000D01*
X1765483Y-37297118D01*
X1748938Y-37286062D01*
X1737882Y-37269517D01*
X1734000Y-37250000D01*
X1734000Y-36850000D01*
X1737882Y-36830483D01*
X1748938Y-36813938D01*
X1765483Y-36802882D01*
X1785000Y-36799000D01*
X2435000Y-36799000D01*
X2454517Y-36802882D01*
G37*
G36*
X4354517Y-36802882D02*
G01*
X4371062Y-36813938D01*
X4382118Y-36830483D01*
X4386000Y-36850000D01*
X4386000Y-37250000D01*
X4382118Y-37269517D01*
X4371062Y-37286062D01*
X4354517Y-37297118D01*
X4335000Y-37301000D01*
X3685000Y-37301000D01*
X3665483Y-37297118D01*
X3648938Y-37286062D01*
X3637882Y-37269517D01*
X3634000Y-37250000D01*
X3634000Y-36850000D01*
X3637882Y-36830483D01*
X3648938Y-36813938D01*
X3665483Y-36802882D01*
X3685000Y-36799000D01*
X4335000Y-36799000D01*
X4354517Y-36802882D01*
G37*
G36*
X7554517Y-36802882D02*
G01*
X7571062Y-36813938D01*
X7582118Y-36830483D01*
X7586000Y-36850000D01*
X7586000Y-37250000D01*
X7582118Y-37269517D01*
X7571062Y-37286062D01*
X7554517Y-37297118D01*
X7535000Y-37301000D01*
X6885000Y-37301000D01*
X6865483Y-37297118D01*
X6848938Y-37286062D01*
X6837882Y-37269517D01*
X6834000Y-37250000D01*
X6834000Y-36850000D01*
X6837882Y-36830483D01*
X6848938Y-36813938D01*
X6865483Y-36802882D01*
X6885000Y-36799000D01*
X7535000Y-36799000D01*
X7554517Y-36802882D01*
G37*
G36*
X9454517Y-36802882D02*
G01*
X9471062Y-36813938D01*
X9482118Y-36830483D01*
X9486000Y-36850000D01*
X9486000Y-37250000D01*
X9482118Y-37269517D01*
X9471062Y-37286062D01*
X9454517Y-37297118D01*
X9435000Y-37301000D01*
X8785000Y-37301000D01*
X8765483Y-37297118D01*
X8748938Y-37286062D01*
X8737882Y-37269517D01*
X8734000Y-37250000D01*
X8734000Y-36850000D01*
X8737882Y-36830483D01*
X8748938Y-36813938D01*
X8765483Y-36802882D01*
X8785000Y-36799000D01*
X9435000Y-36799000D01*
X9454517Y-36802882D01*
G37*
G36*
X12754517Y-36702882D02*
G01*
X12771062Y-36713938D01*
X12782118Y-36730483D01*
X12786000Y-36750000D01*
X12786000Y-37150000D01*
X12782118Y-37169517D01*
X12771062Y-37186062D01*
X12754517Y-37197118D01*
X12735000Y-37201000D01*
X12085000Y-37201000D01*
X12065483Y-37197118D01*
X12048938Y-37186062D01*
X12037882Y-37169517D01*
X12034000Y-37150000D01*
X12034000Y-36750000D01*
X12037882Y-36730483D01*
X12048938Y-36713938D01*
X12065483Y-36702882D01*
X12085000Y-36699000D01*
X12735000Y-36699000D01*
X12754517Y-36702882D01*
G37*
G36*
X14654517Y-36702882D02*
G01*
X14671062Y-36713938D01*
X14682118Y-36730483D01*
X14686000Y-36750000D01*
X14686000Y-37150000D01*
X14682118Y-37169517D01*
X14671062Y-37186062D01*
X14654517Y-37197118D01*
X14635000Y-37201000D01*
X13985000Y-37201000D01*
X13965483Y-37197118D01*
X13948938Y-37186062D01*
X13937882Y-37169517D01*
X13934000Y-37150000D01*
X13934000Y-36750000D01*
X13937882Y-36730483D01*
X13948938Y-36713938D01*
X13965483Y-36702882D01*
X13985000Y-36699000D01*
X14635000Y-36699000D01*
X14654517Y-36702882D01*
G37*
G36*
X17554517Y-36602882D02*
G01*
X17571062Y-36613938D01*
X17582118Y-36630483D01*
X17586000Y-36650000D01*
X17586000Y-37050000D01*
X17582118Y-37069517D01*
X17571062Y-37086062D01*
X17554517Y-37097118D01*
X17535000Y-37101000D01*
X16885000Y-37101000D01*
X16865483Y-37097118D01*
X16848938Y-37086062D01*
X16837882Y-37069517D01*
X16834000Y-37050000D01*
X16834000Y-36650000D01*
X16837882Y-36630483D01*
X16848938Y-36613938D01*
X16865483Y-36602882D01*
X16885000Y-36599000D01*
X17535000Y-36599000D01*
X17554517Y-36602882D01*
G37*
G36*
X19454517Y-36602882D02*
G01*
X19471062Y-36613938D01*
X19482118Y-36630483D01*
X19486000Y-36650000D01*
X19486000Y-37050000D01*
X19482118Y-37069517D01*
X19471062Y-37086062D01*
X19454517Y-37097118D01*
X19435000Y-37101000D01*
X18785000Y-37101000D01*
X18765483Y-37097118D01*
X18748938Y-37086062D01*
X18737882Y-37069517D01*
X18734000Y-37050000D01*
X18734000Y-36650000D01*
X18737882Y-36630483D01*
X18748938Y-36613938D01*
X18765483Y-36602882D01*
X18785000Y-36599000D01*
X19435000Y-36599000D01*
X19454517Y-36602882D01*
G37*
G36*
X24354517Y-36502882D02*
G01*
X24371062Y-36513938D01*
X24382118Y-36530483D01*
X24386000Y-36550000D01*
X24386000Y-36950000D01*
X24382118Y-36969517D01*
X24371062Y-36986062D01*
X24354517Y-36997118D01*
X24335000Y-37001000D01*
X23685000Y-37001000D01*
X23665483Y-36997118D01*
X23648938Y-36986062D01*
X23637882Y-36969517D01*
X23634000Y-36950000D01*
X23634000Y-36550000D01*
X23637882Y-36530483D01*
X23648938Y-36513938D01*
X23665483Y-36502882D01*
X23685000Y-36499000D01*
X24335000Y-36499000D01*
X24354517Y-36502882D01*
G37*
G36*
X26254517Y-36502882D02*
G01*
X26271062Y-36513938D01*
X26282118Y-36530483D01*
X26286000Y-36550000D01*
X26286000Y-36950000D01*
X26282118Y-36969517D01*
X26271062Y-36986062D01*
X26254517Y-36997118D01*
X26235000Y-37001000D01*
X25585000Y-37001000D01*
X25565483Y-36997118D01*
X25548938Y-36986062D01*
X25537882Y-36969517D01*
X25534000Y-36950000D01*
X25534000Y-36550000D01*
X25537882Y-36530483D01*
X25548938Y-36513938D01*
X25565483Y-36502882D01*
X25585000Y-36499000D01*
X26235000Y-36499000D01*
X26254517Y-36502882D01*
G37*
G36*
X30654517Y-36402882D02*
G01*
X30671062Y-36413938D01*
X30682118Y-36430483D01*
X30686000Y-36450000D01*
X30686000Y-36850000D01*
X30682118Y-36869517D01*
X30671062Y-36886062D01*
X30654517Y-36897118D01*
X30635000Y-36901000D01*
X29985000Y-36901000D01*
X29965483Y-36897118D01*
X29948938Y-36886062D01*
X29937882Y-36869517D01*
X29934000Y-36850000D01*
X29934000Y-36450000D01*
X29937882Y-36430483D01*
X29948938Y-36413938D01*
X29965483Y-36402882D01*
X29985000Y-36399000D01*
X30635000Y-36399000D01*
X30654517Y-36402882D01*
G37*
G36*
X32554517Y-36402882D02*
G01*
X32571062Y-36413938D01*
X32582118Y-36430483D01*
X32586000Y-36450000D01*
X32586000Y-36850000D01*
X32582118Y-36869517D01*
X32571062Y-36886062D01*
X32554517Y-36897118D01*
X32535000Y-36901000D01*
X31885000Y-36901000D01*
X31865483Y-36897118D01*
X31848938Y-36886062D01*
X31837882Y-36869517D01*
X31834000Y-36850000D01*
X31834000Y-36450000D01*
X31837882Y-36430483D01*
X31848938Y-36413938D01*
X31865483Y-36402882D01*
X31885000Y-36399000D01*
X32535000Y-36399000D01*
X32554517Y-36402882D01*
G37*
G36*
X38477017Y-36300382D02*
G01*
X38493562Y-36311438D01*
X38504618Y-36327983D01*
X38508500Y-36347500D01*
X38508500Y-36747500D01*
X38504618Y-36767017D01*
X38493562Y-36783562D01*
X38477017Y-36794618D01*
X38457500Y-36798500D01*
X37807500Y-36798500D01*
X37787983Y-36794618D01*
X37771438Y-36783562D01*
X37760382Y-36767017D01*
X37756500Y-36747500D01*
X37756500Y-36347500D01*
X37760382Y-36327983D01*
X37771438Y-36311438D01*
X37787983Y-36300382D01*
X37807500Y-36296500D01*
X38457500Y-36296500D01*
X38477017Y-36300382D01*
G37*
G36*
X40377017Y-36300382D02*
G01*
X40393562Y-36311438D01*
X40404618Y-36327983D01*
X40408500Y-36347500D01*
X40408500Y-36747500D01*
X40404618Y-36767017D01*
X40393562Y-36783562D01*
X40377017Y-36794618D01*
X40357500Y-36798500D01*
X39707500Y-36798500D01*
X39687983Y-36794618D01*
X39671438Y-36783562D01*
X39660382Y-36767017D01*
X39656500Y-36747500D01*
X39656500Y-36347500D01*
X39660382Y-36327983D01*
X39671438Y-36311438D01*
X39687983Y-36300382D01*
X39707500Y-36296500D01*
X40357500Y-36296500D01*
X40377017Y-36300382D01*
G37*
G36*
X2454517Y-36152882D02*
G01*
X2471062Y-36163938D01*
X2482118Y-36180483D01*
X2486000Y-36200000D01*
X2486000Y-36600000D01*
X2482118Y-36619517D01*
X2471062Y-36636062D01*
X2454517Y-36647118D01*
X2435000Y-36651000D01*
X1785000Y-36651000D01*
X1765483Y-36647118D01*
X1748938Y-36636062D01*
X1737882Y-36619517D01*
X1734000Y-36600000D01*
X1734000Y-36200000D01*
X1737882Y-36180483D01*
X1748938Y-36163938D01*
X1765483Y-36152882D01*
X1785000Y-36149000D01*
X2435000Y-36149000D01*
X2454517Y-36152882D01*
G37*
G36*
X4354517Y-36152882D02*
G01*
X4371062Y-36163938D01*
X4382118Y-36180483D01*
X4386000Y-36200000D01*
X4386000Y-36600000D01*
X4382118Y-36619517D01*
X4371062Y-36636062D01*
X4354517Y-36647118D01*
X4335000Y-36651000D01*
X3685000Y-36651000D01*
X3665483Y-36647118D01*
X3648938Y-36636062D01*
X3637882Y-36619517D01*
X3634000Y-36600000D01*
X3634000Y-36200000D01*
X3637882Y-36180483D01*
X3648938Y-36163938D01*
X3665483Y-36152882D01*
X3685000Y-36149000D01*
X4335000Y-36149000D01*
X4354517Y-36152882D01*
G37*
G36*
X7554517Y-36152882D02*
G01*
X7571062Y-36163938D01*
X7582118Y-36180483D01*
X7586000Y-36200000D01*
X7586000Y-36600000D01*
X7582118Y-36619517D01*
X7571062Y-36636062D01*
X7554517Y-36647118D01*
X7535000Y-36651000D01*
X6885000Y-36651000D01*
X6865483Y-36647118D01*
X6848938Y-36636062D01*
X6837882Y-36619517D01*
X6834000Y-36600000D01*
X6834000Y-36200000D01*
X6837882Y-36180483D01*
X6848938Y-36163938D01*
X6865483Y-36152882D01*
X6885000Y-36149000D01*
X7535000Y-36149000D01*
X7554517Y-36152882D01*
G37*
G36*
X9454517Y-36152882D02*
G01*
X9471062Y-36163938D01*
X9482118Y-36180483D01*
X9486000Y-36200000D01*
X9486000Y-36600000D01*
X9482118Y-36619517D01*
X9471062Y-36636062D01*
X9454517Y-36647118D01*
X9435000Y-36651000D01*
X8785000Y-36651000D01*
X8765483Y-36647118D01*
X8748938Y-36636062D01*
X8737882Y-36619517D01*
X8734000Y-36600000D01*
X8734000Y-36200000D01*
X8737882Y-36180483D01*
X8748938Y-36163938D01*
X8765483Y-36152882D01*
X8785000Y-36149000D01*
X9435000Y-36149000D01*
X9454517Y-36152882D01*
G37*
G36*
X12754517Y-36052882D02*
G01*
X12771062Y-36063938D01*
X12782118Y-36080483D01*
X12786000Y-36100000D01*
X12786000Y-36500000D01*
X12782118Y-36519517D01*
X12771062Y-36536062D01*
X12754517Y-36547118D01*
X12735000Y-36551000D01*
X12085000Y-36551000D01*
X12065483Y-36547118D01*
X12048938Y-36536062D01*
X12037882Y-36519517D01*
X12034000Y-36500000D01*
X12034000Y-36100000D01*
X12037882Y-36080483D01*
X12048938Y-36063938D01*
X12065483Y-36052882D01*
X12085000Y-36049000D01*
X12735000Y-36049000D01*
X12754517Y-36052882D01*
G37*
G36*
X14654517Y-36052882D02*
G01*
X14671062Y-36063938D01*
X14682118Y-36080483D01*
X14686000Y-36100000D01*
X14686000Y-36500000D01*
X14682118Y-36519517D01*
X14671062Y-36536062D01*
X14654517Y-36547118D01*
X14635000Y-36551000D01*
X13985000Y-36551000D01*
X13965483Y-36547118D01*
X13948938Y-36536062D01*
X13937882Y-36519517D01*
X13934000Y-36500000D01*
X13934000Y-36100000D01*
X13937882Y-36080483D01*
X13948938Y-36063938D01*
X13965483Y-36052882D01*
X13985000Y-36049000D01*
X14635000Y-36049000D01*
X14654517Y-36052882D01*
G37*
G36*
X17554517Y-35952882D02*
G01*
X17571062Y-35963938D01*
X17582118Y-35980483D01*
X17586000Y-36000000D01*
X17586000Y-36400000D01*
X17582118Y-36419517D01*
X17571062Y-36436062D01*
X17554517Y-36447118D01*
X17535000Y-36451000D01*
X16885000Y-36451000D01*
X16865483Y-36447118D01*
X16848938Y-36436062D01*
X16837882Y-36419517D01*
X16834000Y-36400000D01*
X16834000Y-36000000D01*
X16837882Y-35980483D01*
X16848938Y-35963938D01*
X16865483Y-35952882D01*
X16885000Y-35949000D01*
X17535000Y-35949000D01*
X17554517Y-35952882D01*
G37*
G36*
X19454517Y-35952882D02*
G01*
X19471062Y-35963938D01*
X19482118Y-35980483D01*
X19486000Y-36000000D01*
X19486000Y-36400000D01*
X19482118Y-36419517D01*
X19471062Y-36436062D01*
X19454517Y-36447118D01*
X19435000Y-36451000D01*
X18785000Y-36451000D01*
X18765483Y-36447118D01*
X18748938Y-36436062D01*
X18737882Y-36419517D01*
X18734000Y-36400000D01*
X18734000Y-36000000D01*
X18737882Y-35980483D01*
X18748938Y-35963938D01*
X18765483Y-35952882D01*
X18785000Y-35949000D01*
X19435000Y-35949000D01*
X19454517Y-35952882D01*
G37*
G36*
X24354517Y-35852882D02*
G01*
X24371062Y-35863938D01*
X24382118Y-35880483D01*
X24386000Y-35900000D01*
X24386000Y-36300000D01*
X24382118Y-36319517D01*
X24371062Y-36336062D01*
X24354517Y-36347118D01*
X24335000Y-36351000D01*
X23685000Y-36351000D01*
X23665483Y-36347118D01*
X23648938Y-36336062D01*
X23637882Y-36319517D01*
X23634000Y-36300000D01*
X23634000Y-35900000D01*
X23637882Y-35880483D01*
X23648938Y-35863938D01*
X23665483Y-35852882D01*
X23685000Y-35849000D01*
X24335000Y-35849000D01*
X24354517Y-35852882D01*
G37*
G36*
X26254517Y-35852882D02*
G01*
X26271062Y-35863938D01*
X26282118Y-35880483D01*
X26286000Y-35900000D01*
X26286000Y-36300000D01*
X26282118Y-36319517D01*
X26271062Y-36336062D01*
X26254517Y-36347118D01*
X26235000Y-36351000D01*
X25585000Y-36351000D01*
X25565483Y-36347118D01*
X25548938Y-36336062D01*
X25537882Y-36319517D01*
X25534000Y-36300000D01*
X25534000Y-35900000D01*
X25537882Y-35880483D01*
X25548938Y-35863938D01*
X25565483Y-35852882D01*
X25585000Y-35849000D01*
X26235000Y-35849000D01*
X26254517Y-35852882D01*
G37*
G36*
X30654517Y-35752882D02*
G01*
X30671062Y-35763938D01*
X30682118Y-35780483D01*
X30686000Y-35800000D01*
X30686000Y-36200000D01*
X30682118Y-36219517D01*
X30671062Y-36236062D01*
X30654517Y-36247118D01*
X30635000Y-36251000D01*
X29985000Y-36251000D01*
X29965483Y-36247118D01*
X29948938Y-36236062D01*
X29937882Y-36219517D01*
X29934000Y-36200000D01*
X29934000Y-35800000D01*
X29937882Y-35780483D01*
X29948938Y-35763938D01*
X29965483Y-35752882D01*
X29985000Y-35749000D01*
X30635000Y-35749000D01*
X30654517Y-35752882D01*
G37*
G36*
X32554517Y-35752882D02*
G01*
X32571062Y-35763938D01*
X32582118Y-35780483D01*
X32586000Y-35800000D01*
X32586000Y-36200000D01*
X32582118Y-36219517D01*
X32571062Y-36236062D01*
X32554517Y-36247118D01*
X32535000Y-36251000D01*
X31885000Y-36251000D01*
X31865483Y-36247118D01*
X31848938Y-36236062D01*
X31837882Y-36219517D01*
X31834000Y-36200000D01*
X31834000Y-35800000D01*
X31837882Y-35780483D01*
X31848938Y-35763938D01*
X31865483Y-35752882D01*
X31885000Y-35749000D01*
X32535000Y-35749000D01*
X32554517Y-35752882D01*
G37*
G36*
X38477017Y-35650382D02*
G01*
X38493562Y-35661438D01*
X38504618Y-35677983D01*
X38508500Y-35697500D01*
X38508500Y-36097500D01*
X38504618Y-36117017D01*
X38493562Y-36133562D01*
X38477017Y-36144618D01*
X38457500Y-36148500D01*
X37807500Y-36148500D01*
X37787983Y-36144618D01*
X37771438Y-36133562D01*
X37760382Y-36117017D01*
X37756500Y-36097500D01*
X37756500Y-35697500D01*
X37760382Y-35677983D01*
X37771438Y-35661438D01*
X37787983Y-35650382D01*
X37807500Y-35646500D01*
X38457500Y-35646500D01*
X38477017Y-35650382D01*
G37*
G36*
X40377017Y-35650382D02*
G01*
X40393562Y-35661438D01*
X40404618Y-35677983D01*
X40408500Y-35697500D01*
X40408500Y-36097500D01*
X40404618Y-36117017D01*
X40393562Y-36133562D01*
X40377017Y-36144618D01*
X40357500Y-36148500D01*
X39707500Y-36148500D01*
X39687983Y-36144618D01*
X39671438Y-36133562D01*
X39660382Y-36117017D01*
X39656500Y-36097500D01*
X39656500Y-35697500D01*
X39660382Y-35677983D01*
X39671438Y-35661438D01*
X39687983Y-35650382D01*
X39707500Y-35646500D01*
X40357500Y-35646500D01*
X40377017Y-35650382D01*
G37*
G36*
X2454517Y-35502882D02*
G01*
X2471062Y-35513938D01*
X2482118Y-35530483D01*
X2486000Y-35550000D01*
X2486000Y-35950000D01*
X2482118Y-35969517D01*
X2471062Y-35986062D01*
X2454517Y-35997118D01*
X2435000Y-36001000D01*
X1785000Y-36001000D01*
X1765483Y-35997118D01*
X1748938Y-35986062D01*
X1737882Y-35969517D01*
X1734000Y-35950000D01*
X1734000Y-35550000D01*
X1737882Y-35530483D01*
X1748938Y-35513938D01*
X1765483Y-35502882D01*
X1785000Y-35499000D01*
X2435000Y-35499000D01*
X2454517Y-35502882D01*
G37*
G36*
X4354517Y-35502882D02*
G01*
X4371062Y-35513938D01*
X4382118Y-35530483D01*
X4386000Y-35550000D01*
X4386000Y-35950000D01*
X4382118Y-35969517D01*
X4371062Y-35986062D01*
X4354517Y-35997118D01*
X4335000Y-36001000D01*
X3685000Y-36001000D01*
X3665483Y-35997118D01*
X3648938Y-35986062D01*
X3637882Y-35969517D01*
X3634000Y-35950000D01*
X3634000Y-35550000D01*
X3637882Y-35530483D01*
X3648938Y-35513938D01*
X3665483Y-35502882D01*
X3685000Y-35499000D01*
X4335000Y-35499000D01*
X4354517Y-35502882D01*
G37*
G36*
X7554517Y-35502882D02*
G01*
X7571062Y-35513938D01*
X7582118Y-35530483D01*
X7586000Y-35550000D01*
X7586000Y-35950000D01*
X7582118Y-35969517D01*
X7571062Y-35986062D01*
X7554517Y-35997118D01*
X7535000Y-36001000D01*
X6885000Y-36001000D01*
X6865483Y-35997118D01*
X6848938Y-35986062D01*
X6837882Y-35969517D01*
X6834000Y-35950000D01*
X6834000Y-35550000D01*
X6837882Y-35530483D01*
X6848938Y-35513938D01*
X6865483Y-35502882D01*
X6885000Y-35499000D01*
X7535000Y-35499000D01*
X7554517Y-35502882D01*
G37*
G36*
X9454517Y-35502882D02*
G01*
X9471062Y-35513938D01*
X9482118Y-35530483D01*
X9486000Y-35550000D01*
X9486000Y-35950000D01*
X9482118Y-35969517D01*
X9471062Y-35986062D01*
X9454517Y-35997118D01*
X9435000Y-36001000D01*
X8785000Y-36001000D01*
X8765483Y-35997118D01*
X8748938Y-35986062D01*
X8737882Y-35969517D01*
X8734000Y-35950000D01*
X8734000Y-35550000D01*
X8737882Y-35530483D01*
X8748938Y-35513938D01*
X8765483Y-35502882D01*
X8785000Y-35499000D01*
X9435000Y-35499000D01*
X9454517Y-35502882D01*
G37*
G36*
X12754517Y-35402882D02*
G01*
X12771062Y-35413938D01*
X12782118Y-35430483D01*
X12786000Y-35450000D01*
X12786000Y-35850000D01*
X12782118Y-35869517D01*
X12771062Y-35886062D01*
X12754517Y-35897118D01*
X12735000Y-35901000D01*
X12085000Y-35901000D01*
X12065483Y-35897118D01*
X12048938Y-35886062D01*
X12037882Y-35869517D01*
X12034000Y-35850000D01*
X12034000Y-35450000D01*
X12037882Y-35430483D01*
X12048938Y-35413938D01*
X12065483Y-35402882D01*
X12085000Y-35399000D01*
X12735000Y-35399000D01*
X12754517Y-35402882D01*
G37*
G36*
X14654517Y-35402882D02*
G01*
X14671062Y-35413938D01*
X14682118Y-35430483D01*
X14686000Y-35450000D01*
X14686000Y-35850000D01*
X14682118Y-35869517D01*
X14671062Y-35886062D01*
X14654517Y-35897118D01*
X14635000Y-35901000D01*
X13985000Y-35901000D01*
X13965483Y-35897118D01*
X13948938Y-35886062D01*
X13937882Y-35869517D01*
X13934000Y-35850000D01*
X13934000Y-35450000D01*
X13937882Y-35430483D01*
X13948938Y-35413938D01*
X13965483Y-35402882D01*
X13985000Y-35399000D01*
X14635000Y-35399000D01*
X14654517Y-35402882D01*
G37*
G36*
X17554517Y-35302882D02*
G01*
X17571062Y-35313938D01*
X17582118Y-35330483D01*
X17586000Y-35350000D01*
X17586000Y-35750000D01*
X17582118Y-35769517D01*
X17571062Y-35786062D01*
X17554517Y-35797118D01*
X17535000Y-35801000D01*
X16885000Y-35801000D01*
X16865483Y-35797118D01*
X16848938Y-35786062D01*
X16837882Y-35769517D01*
X16834000Y-35750000D01*
X16834000Y-35350000D01*
X16837882Y-35330483D01*
X16848938Y-35313938D01*
X16865483Y-35302882D01*
X16885000Y-35299000D01*
X17535000Y-35299000D01*
X17554517Y-35302882D01*
G37*
G36*
X19454517Y-35302882D02*
G01*
X19471062Y-35313938D01*
X19482118Y-35330483D01*
X19486000Y-35350000D01*
X19486000Y-35750000D01*
X19482118Y-35769517D01*
X19471062Y-35786062D01*
X19454517Y-35797118D01*
X19435000Y-35801000D01*
X18785000Y-35801000D01*
X18765483Y-35797118D01*
X18748938Y-35786062D01*
X18737882Y-35769517D01*
X18734000Y-35750000D01*
X18734000Y-35350000D01*
X18737882Y-35330483D01*
X18748938Y-35313938D01*
X18765483Y-35302882D01*
X18785000Y-35299000D01*
X19435000Y-35299000D01*
X19454517Y-35302882D01*
G37*
G36*
X24354517Y-35202882D02*
G01*
X24371062Y-35213938D01*
X24382118Y-35230483D01*
X24386000Y-35250000D01*
X24386000Y-35650000D01*
X24382118Y-35669517D01*
X24371062Y-35686062D01*
X24354517Y-35697118D01*
X24335000Y-35701000D01*
X23685000Y-35701000D01*
X23665483Y-35697118D01*
X23648938Y-35686062D01*
X23637882Y-35669517D01*
X23634000Y-35650000D01*
X23634000Y-35250000D01*
X23637882Y-35230483D01*
X23648938Y-35213938D01*
X23665483Y-35202882D01*
X23685000Y-35199000D01*
X24335000Y-35199000D01*
X24354517Y-35202882D01*
G37*
G36*
X26254517Y-35202882D02*
G01*
X26271062Y-35213938D01*
X26282118Y-35230483D01*
X26286000Y-35250000D01*
X26286000Y-35650000D01*
X26282118Y-35669517D01*
X26271062Y-35686062D01*
X26254517Y-35697118D01*
X26235000Y-35701000D01*
X25585000Y-35701000D01*
X25565483Y-35697118D01*
X25548938Y-35686062D01*
X25537882Y-35669517D01*
X25534000Y-35650000D01*
X25534000Y-35250000D01*
X25537882Y-35230483D01*
X25548938Y-35213938D01*
X25565483Y-35202882D01*
X25585000Y-35199000D01*
X26235000Y-35199000D01*
X26254517Y-35202882D01*
G37*
G36*
X30654517Y-35102882D02*
G01*
X30671062Y-35113938D01*
X30682118Y-35130483D01*
X30686000Y-35150000D01*
X30686000Y-35550000D01*
X30682118Y-35569517D01*
X30671062Y-35586062D01*
X30654517Y-35597118D01*
X30635000Y-35601000D01*
X29985000Y-35601000D01*
X29965483Y-35597118D01*
X29948938Y-35586062D01*
X29937882Y-35569517D01*
X29934000Y-35550000D01*
X29934000Y-35150000D01*
X29937882Y-35130483D01*
X29948938Y-35113938D01*
X29965483Y-35102882D01*
X29985000Y-35099000D01*
X30635000Y-35099000D01*
X30654517Y-35102882D01*
G37*
G36*
X32554517Y-35102882D02*
G01*
X32571062Y-35113938D01*
X32582118Y-35130483D01*
X32586000Y-35150000D01*
X32586000Y-35550000D01*
X32582118Y-35569517D01*
X32571062Y-35586062D01*
X32554517Y-35597118D01*
X32535000Y-35601000D01*
X31885000Y-35601000D01*
X31865483Y-35597118D01*
X31848938Y-35586062D01*
X31837882Y-35569517D01*
X31834000Y-35550000D01*
X31834000Y-35150000D01*
X31837882Y-35130483D01*
X31848938Y-35113938D01*
X31865483Y-35102882D01*
X31885000Y-35099000D01*
X32535000Y-35099000D01*
X32554517Y-35102882D01*
G37*
G36*
X38477017Y-35000382D02*
G01*
X38493562Y-35011438D01*
X38504618Y-35027983D01*
X38508500Y-35047500D01*
X38508500Y-35447500D01*
X38504618Y-35467017D01*
X38493562Y-35483562D01*
X38477017Y-35494618D01*
X38457500Y-35498500D01*
X37807500Y-35498500D01*
X37787983Y-35494618D01*
X37771438Y-35483562D01*
X37760382Y-35467017D01*
X37756500Y-35447500D01*
X37756500Y-35047500D01*
X37760382Y-35027983D01*
X37771438Y-35011438D01*
X37787983Y-35000382D01*
X37807500Y-34996500D01*
X38457500Y-34996500D01*
X38477017Y-35000382D01*
G37*
G36*
X40377017Y-35000382D02*
G01*
X40393562Y-35011438D01*
X40404618Y-35027983D01*
X40408500Y-35047500D01*
X40408500Y-35447500D01*
X40404618Y-35467017D01*
X40393562Y-35483562D01*
X40377017Y-35494618D01*
X40357500Y-35498500D01*
X39707500Y-35498500D01*
X39687983Y-35494618D01*
X39671438Y-35483562D01*
X39660382Y-35467017D01*
X39656500Y-35447500D01*
X39656500Y-35047500D01*
X39660382Y-35027983D01*
X39671438Y-35011438D01*
X39687983Y-35000382D01*
X39707500Y-34996500D01*
X40357500Y-34996500D01*
X40377017Y-35000382D01*
G37*
G36*
X4167779Y-31803158D02*
G01*
X4228122Y-31843478D01*
X4268442Y-31903821D01*
X4282600Y-31975000D01*
X4282600Y-32245000D01*
X4268442Y-32316179D01*
X4228122Y-32376522D01*
X4167779Y-32416842D01*
X4096600Y-32431000D01*
X3726600Y-32431000D01*
X3655421Y-32416842D01*
X3595078Y-32376522D01*
X3554758Y-32316179D01*
X3540600Y-32245000D01*
X3540600Y-31975000D01*
X3554758Y-31903821D01*
X3595078Y-31843478D01*
X3655421Y-31803158D01*
X3726600Y-31789000D01*
X4096600Y-31789000D01*
X4167779Y-31803158D01*
G37*
G36*
X5430979Y-31803158D02*
G01*
X5491322Y-31843478D01*
X5531642Y-31903821D01*
X5545800Y-31975000D01*
X5545800Y-32245000D01*
X5531642Y-32316179D01*
X5491322Y-32376522D01*
X5430979Y-32416842D01*
X5359800Y-32431000D01*
X4989800Y-32431000D01*
X4918621Y-32416842D01*
X4858278Y-32376522D01*
X4817958Y-32316179D01*
X4803800Y-32245000D01*
X4803800Y-31975000D01*
X4817958Y-31903821D01*
X4858278Y-31843478D01*
X4918621Y-31803158D01*
X4989800Y-31789000D01*
X5359800Y-31789000D01*
X5430979Y-31803158D01*
G37*
G36*
X6694279Y-31803158D02*
G01*
X6754622Y-31843478D01*
X6794942Y-31903821D01*
X6809100Y-31975000D01*
X6809100Y-32245000D01*
X6794942Y-32316179D01*
X6754622Y-32376522D01*
X6694279Y-32416842D01*
X6623100Y-32431000D01*
X6253100Y-32431000D01*
X6181921Y-32416842D01*
X6121578Y-32376522D01*
X6081258Y-32316179D01*
X6067100Y-32245000D01*
X6067100Y-31975000D01*
X6081258Y-31903821D01*
X6121578Y-31843478D01*
X6181921Y-31803158D01*
X6253100Y-31789000D01*
X6623100Y-31789000D01*
X6694279Y-31803158D01*
G37*
G36*
X7957479Y-31803158D02*
G01*
X8017822Y-31843478D01*
X8058142Y-31903821D01*
X8072300Y-31975000D01*
X8072300Y-32245000D01*
X8058142Y-32316179D01*
X8017822Y-32376522D01*
X7957479Y-32416842D01*
X7886300Y-32431000D01*
X7516300Y-32431000D01*
X7445121Y-32416842D01*
X7384778Y-32376522D01*
X7344458Y-32316179D01*
X7330300Y-32245000D01*
X7330300Y-31975000D01*
X7344458Y-31903821D01*
X7384778Y-31843478D01*
X7445121Y-31803158D01*
X7516300Y-31789000D01*
X7886300Y-31789000D01*
X7957479Y-31803158D01*
G37*
G36*
X9220679Y-31803158D02*
G01*
X9281022Y-31843478D01*
X9321342Y-31903821D01*
X9335500Y-31975000D01*
X9335500Y-32245000D01*
X9321342Y-32316179D01*
X9281022Y-32376522D01*
X9220679Y-32416842D01*
X9149500Y-32431000D01*
X8779500Y-32431000D01*
X8708321Y-32416842D01*
X8647978Y-32376522D01*
X8607658Y-32316179D01*
X8593500Y-32245000D01*
X8593500Y-31975000D01*
X8607658Y-31903821D01*
X8647978Y-31843478D01*
X8708321Y-31803158D01*
X8779500Y-31789000D01*
X9149500Y-31789000D01*
X9220679Y-31803158D01*
G37*
G36*
X10483879Y-31803158D02*
G01*
X10544222Y-31843478D01*
X10584542Y-31903821D01*
X10598700Y-31975000D01*
X10598700Y-32245000D01*
X10584542Y-32316179D01*
X10544222Y-32376522D01*
X10483879Y-32416842D01*
X10412700Y-32431000D01*
X10042700Y-32431000D01*
X9971521Y-32416842D01*
X9911178Y-32376522D01*
X9870858Y-32316179D01*
X9856700Y-32245000D01*
X9856700Y-31975000D01*
X9870858Y-31903821D01*
X9911178Y-31843478D01*
X9971521Y-31803158D01*
X10042700Y-31789000D01*
X10412700Y-31789000D01*
X10483879Y-31803158D01*
G37*
G36*
X11747179Y-31803158D02*
G01*
X11807522Y-31843478D01*
X11847842Y-31903821D01*
X11862000Y-31975000D01*
X11862000Y-32245000D01*
X11847842Y-32316179D01*
X11807522Y-32376522D01*
X11747179Y-32416842D01*
X11676000Y-32431000D01*
X11306000Y-32431000D01*
X11234821Y-32416842D01*
X11174478Y-32376522D01*
X11134158Y-32316179D01*
X11120000Y-32245000D01*
X11120000Y-31975000D01*
X11134158Y-31903821D01*
X11174478Y-31843478D01*
X11234821Y-31803158D01*
X11306000Y-31789000D01*
X11676000Y-31789000D01*
X11747179Y-31803158D01*
G37*
G36*
X13010379Y-31803158D02*
G01*
X13070722Y-31843478D01*
X13111042Y-31903821D01*
X13125200Y-31975000D01*
X13125200Y-32245000D01*
X13111042Y-32316179D01*
X13070722Y-32376522D01*
X13010379Y-32416842D01*
X12939200Y-32431000D01*
X12569200Y-32431000D01*
X12498021Y-32416842D01*
X12437678Y-32376522D01*
X12397358Y-32316179D01*
X12383200Y-32245000D01*
X12383200Y-31975000D01*
X12397358Y-31903821D01*
X12437678Y-31843478D01*
X12498021Y-31803158D01*
X12569200Y-31789000D01*
X12939200Y-31789000D01*
X13010379Y-31803158D01*
G37*
G36*
X14273579Y-31803158D02*
G01*
X14333922Y-31843478D01*
X14374242Y-31903821D01*
X14388400Y-31975000D01*
X14388400Y-32245000D01*
X14374242Y-32316179D01*
X14333922Y-32376522D01*
X14273579Y-32416842D01*
X14202400Y-32431000D01*
X13832400Y-32431000D01*
X13761221Y-32416842D01*
X13700878Y-32376522D01*
X13660558Y-32316179D01*
X13646400Y-32245000D01*
X13646400Y-31975000D01*
X13660558Y-31903821D01*
X13700878Y-31843478D01*
X13761221Y-31803158D01*
X13832400Y-31789000D01*
X14202400Y-31789000D01*
X14273579Y-31803158D01*
G37*
G36*
X15536779Y-31803158D02*
G01*
X15597122Y-31843478D01*
X15637442Y-31903821D01*
X15651600Y-31975000D01*
X15651600Y-32245000D01*
X15637442Y-32316179D01*
X15597122Y-32376522D01*
X15536779Y-32416842D01*
X15465600Y-32431000D01*
X15095600Y-32431000D01*
X15024421Y-32416842D01*
X14964078Y-32376522D01*
X14923758Y-32316179D01*
X14909600Y-32245000D01*
X14909600Y-31975000D01*
X14923758Y-31903821D01*
X14964078Y-31843478D01*
X15024421Y-31803158D01*
X15095600Y-31789000D01*
X15465600Y-31789000D01*
X15536779Y-31803158D01*
G37*
G36*
X16800079Y-31803158D02*
G01*
X16860422Y-31843478D01*
X16900742Y-31903821D01*
X16914900Y-31975000D01*
X16914900Y-32245000D01*
X16900742Y-32316179D01*
X16860422Y-32376522D01*
X16800079Y-32416842D01*
X16728900Y-32431000D01*
X16358900Y-32431000D01*
X16287721Y-32416842D01*
X16227378Y-32376522D01*
X16187058Y-32316179D01*
X16172900Y-32245000D01*
X16172900Y-31975000D01*
X16187058Y-31903821D01*
X16227378Y-31843478D01*
X16287721Y-31803158D01*
X16358900Y-31789000D01*
X16728900Y-31789000D01*
X16800079Y-31803158D01*
G37*
G36*
X18063279Y-31803158D02*
G01*
X18123622Y-31843478D01*
X18163942Y-31903821D01*
X18178100Y-31975000D01*
X18178100Y-32245000D01*
X18163942Y-32316179D01*
X18123622Y-32376522D01*
X18063279Y-32416842D01*
X17992100Y-32431000D01*
X17622100Y-32431000D01*
X17550921Y-32416842D01*
X17490578Y-32376522D01*
X17450258Y-32316179D01*
X17436100Y-32245000D01*
X17436100Y-31975000D01*
X17450258Y-31903821D01*
X17490578Y-31843478D01*
X17550921Y-31803158D01*
X17622100Y-31789000D01*
X17992100Y-31789000D01*
X18063279Y-31803158D01*
G37*
G36*
X19326479Y-31803158D02*
G01*
X19386822Y-31843478D01*
X19427142Y-31903821D01*
X19441300Y-31975000D01*
X19441300Y-32245000D01*
X19427142Y-32316179D01*
X19386822Y-32376522D01*
X19326479Y-32416842D01*
X19255300Y-32431000D01*
X18885300Y-32431000D01*
X18814121Y-32416842D01*
X18753778Y-32376522D01*
X18713458Y-32316179D01*
X18699300Y-32245000D01*
X18699300Y-31975000D01*
X18713458Y-31903821D01*
X18753778Y-31843478D01*
X18814121Y-31803158D01*
X18885300Y-31789000D01*
X19255300Y-31789000D01*
X19326479Y-31803158D01*
G37*
G36*
X20589679Y-31803158D02*
G01*
X20650022Y-31843478D01*
X20690342Y-31903821D01*
X20704500Y-31975000D01*
X20704500Y-32245000D01*
X20690342Y-32316179D01*
X20650022Y-32376522D01*
X20589679Y-32416842D01*
X20518500Y-32431000D01*
X20148500Y-32431000D01*
X20077321Y-32416842D01*
X20016978Y-32376522D01*
X19976658Y-32316179D01*
X19962500Y-32245000D01*
X19962500Y-31975000D01*
X19976658Y-31903821D01*
X20016978Y-31843478D01*
X20077321Y-31803158D01*
X20148500Y-31789000D01*
X20518500Y-31789000D01*
X20589679Y-31803158D01*
G37*
G36*
X21852979Y-31803158D02*
G01*
X21913322Y-31843478D01*
X21953642Y-31903821D01*
X21967800Y-31975000D01*
X21967800Y-32245000D01*
X21953642Y-32316179D01*
X21913322Y-32376522D01*
X21852979Y-32416842D01*
X21781800Y-32431000D01*
X21411800Y-32431000D01*
X21340621Y-32416842D01*
X21280278Y-32376522D01*
X21239958Y-32316179D01*
X21225800Y-32245000D01*
X21225800Y-31975000D01*
X21239958Y-31903821D01*
X21280278Y-31843478D01*
X21340621Y-31803158D01*
X21411800Y-31789000D01*
X21781800Y-31789000D01*
X21852979Y-31803158D01*
G37*
G36*
X23116179Y-31803158D02*
G01*
X23176522Y-31843478D01*
X23216842Y-31903821D01*
X23231000Y-31975000D01*
X23231000Y-32245000D01*
X23216842Y-32316179D01*
X23176522Y-32376522D01*
X23116179Y-32416842D01*
X23045000Y-32431000D01*
X22675000Y-32431000D01*
X22603821Y-32416842D01*
X22543478Y-32376522D01*
X22503158Y-32316179D01*
X22489000Y-32245000D01*
X22489000Y-31975000D01*
X22503158Y-31903821D01*
X22543478Y-31843478D01*
X22603821Y-31803158D01*
X22675000Y-31789000D01*
X23045000Y-31789000D01*
X23116179Y-31803158D01*
G37*
G36*
X27027779Y-31803158D02*
G01*
X27088122Y-31843478D01*
X27128442Y-31903821D01*
X27142600Y-31975000D01*
X27142600Y-32245000D01*
X27128442Y-32316179D01*
X27088122Y-32376522D01*
X27027779Y-32416842D01*
X26956600Y-32431000D01*
X26586600Y-32431000D01*
X26515421Y-32416842D01*
X26455078Y-32376522D01*
X26414758Y-32316179D01*
X26400600Y-32245000D01*
X26400600Y-31975000D01*
X26414758Y-31903821D01*
X26455078Y-31843478D01*
X26515421Y-31803158D01*
X26586600Y-31789000D01*
X26956600Y-31789000D01*
X27027779Y-31803158D01*
G37*
G36*
X28216179Y-31803158D02*
G01*
X28276522Y-31843478D01*
X28316842Y-31903821D01*
X28331000Y-31975000D01*
X28331000Y-32245000D01*
X28316842Y-32316179D01*
X28276522Y-32376522D01*
X28216179Y-32416842D01*
X28145000Y-32431000D01*
X27775000Y-32431000D01*
X27703821Y-32416842D01*
X27643478Y-32376522D01*
X27603158Y-32316179D01*
X27589000Y-32245000D01*
X27589000Y-31975000D01*
X27603158Y-31903821D01*
X27643478Y-31843478D01*
X27703821Y-31803158D01*
X27775000Y-31789000D01*
X28145000Y-31789000D01*
X28216179Y-31803158D01*
G37*
G36*
X29567779Y-31803158D02*
G01*
X29628122Y-31843478D01*
X29668442Y-31903821D01*
X29682600Y-31975000D01*
X29682600Y-32245000D01*
X29668442Y-32316179D01*
X29628122Y-32376522D01*
X29567779Y-32416842D01*
X29496600Y-32431000D01*
X29126600Y-32431000D01*
X29055421Y-32416842D01*
X28995078Y-32376522D01*
X28954758Y-32316179D01*
X28940600Y-32245000D01*
X28940600Y-31975000D01*
X28954758Y-31903821D01*
X28995078Y-31843478D01*
X29055421Y-31803158D01*
X29126600Y-31789000D01*
X29496600Y-31789000D01*
X29567779Y-31803158D01*
G37*
G36*
X30716179Y-31803158D02*
G01*
X30776522Y-31843478D01*
X30816842Y-31903821D01*
X30831000Y-31975000D01*
X30831000Y-32245000D01*
X30816842Y-32316179D01*
X30776522Y-32376522D01*
X30716179Y-32416842D01*
X30645000Y-32431000D01*
X30275000Y-32431000D01*
X30203821Y-32416842D01*
X30143478Y-32376522D01*
X30103158Y-32316179D01*
X30089000Y-32245000D01*
X30089000Y-31975000D01*
X30103158Y-31903821D01*
X30143478Y-31843478D01*
X30203821Y-31803158D01*
X30275000Y-31789000D01*
X30645000Y-31789000D01*
X30716179Y-31803158D01*
G37*
G36*
X31980779Y-31803158D02*
G01*
X32041122Y-31843478D01*
X32081442Y-31903821D01*
X32095600Y-31975000D01*
X32095600Y-32245000D01*
X32081442Y-32316179D01*
X32041122Y-32376522D01*
X31980779Y-32416842D01*
X31909600Y-32431000D01*
X31539600Y-32431000D01*
X31468421Y-32416842D01*
X31408078Y-32376522D01*
X31367758Y-32316179D01*
X31353600Y-32245000D01*
X31353600Y-31975000D01*
X31367758Y-31903821D01*
X31408078Y-31843478D01*
X31468421Y-31803158D01*
X31539600Y-31789000D01*
X31909600Y-31789000D01*
X31980779Y-31803158D01*
G37*
G36*
X33316179Y-31803158D02*
G01*
X33376522Y-31843478D01*
X33416842Y-31903821D01*
X33431000Y-31975000D01*
X33431000Y-32245000D01*
X33416842Y-32316179D01*
X33376522Y-32376522D01*
X33316179Y-32416842D01*
X33245000Y-32431000D01*
X32875000Y-32431000D01*
X32803821Y-32416842D01*
X32743478Y-32376522D01*
X32703158Y-32316179D01*
X32689000Y-32245000D01*
X32689000Y-31975000D01*
X32703158Y-31903821D01*
X32743478Y-31843478D01*
X32803821Y-31803158D01*
X32875000Y-31789000D01*
X33245000Y-31789000D01*
X33316179Y-31803158D01*
G37*
G36*
X35816179Y-31803158D02*
G01*
X35876522Y-31843478D01*
X35916842Y-31903821D01*
X35931000Y-31975000D01*
X35931000Y-32245000D01*
X35916842Y-32316179D01*
X35876522Y-32376522D01*
X35816179Y-32416842D01*
X35745000Y-32431000D01*
X35375000Y-32431000D01*
X35303821Y-32416842D01*
X35243478Y-32376522D01*
X35203158Y-32316179D01*
X35189000Y-32245000D01*
X35189000Y-31975000D01*
X35203158Y-31903821D01*
X35243478Y-31843478D01*
X35303821Y-31803158D01*
X35375000Y-31789000D01*
X35745000Y-31789000D01*
X35816179Y-31803158D01*
G37*
G36*
X38316179Y-31803158D02*
G01*
X38376522Y-31843478D01*
X38416842Y-31903821D01*
X38431000Y-31975000D01*
X38431000Y-32245000D01*
X38416842Y-32316179D01*
X38376522Y-32376522D01*
X38316179Y-32416842D01*
X38245000Y-32431000D01*
X37875000Y-32431000D01*
X37803821Y-32416842D01*
X37743478Y-32376522D01*
X37703158Y-32316179D01*
X37689000Y-32245000D01*
X37689000Y-31975000D01*
X37703158Y-31903821D01*
X37743478Y-31843478D01*
X37803821Y-31803158D01*
X37875000Y-31789000D01*
X38245000Y-31789000D01*
X38316179Y-31803158D01*
G37*
G36*
X40816179Y-31803158D02*
G01*
X40876522Y-31843478D01*
X40916842Y-31903821D01*
X40931000Y-31975000D01*
X40931000Y-32245000D01*
X40916842Y-32316179D01*
X40876522Y-32376522D01*
X40816179Y-32416842D01*
X40745000Y-32431000D01*
X40375000Y-32431000D01*
X40303821Y-32416842D01*
X40243478Y-32376522D01*
X40203158Y-32316179D01*
X40189000Y-32245000D01*
X40189000Y-31975000D01*
X40203158Y-31903821D01*
X40243478Y-31843478D01*
X40303821Y-31803158D01*
X40375000Y-31789000D01*
X40745000Y-31789000D01*
X40816179Y-31803158D01*
G37*
G36*
X43416179Y-31803158D02*
G01*
X43476522Y-31843478D01*
X43516842Y-31903821D01*
X43531000Y-31975000D01*
X43531000Y-32245000D01*
X43516842Y-32316179D01*
X43476522Y-32376522D01*
X43416179Y-32416842D01*
X43345000Y-32431000D01*
X42975000Y-32431000D01*
X42903821Y-32416842D01*
X42843478Y-32376522D01*
X42803158Y-32316179D01*
X42789000Y-32245000D01*
X42789000Y-31975000D01*
X42803158Y-31903821D01*
X42843478Y-31843478D01*
X42903821Y-31803158D01*
X42975000Y-31789000D01*
X43345000Y-31789000D01*
X43416179Y-31803158D01*
G37*
G36*
X4167779Y-30783158D02*
G01*
X4228122Y-30823478D01*
X4268442Y-30883821D01*
X4282600Y-30955000D01*
X4282600Y-31225000D01*
X4268442Y-31296179D01*
X4228122Y-31356522D01*
X4167779Y-31396842D01*
X4096600Y-31411000D01*
X3726600Y-31411000D01*
X3655421Y-31396842D01*
X3595078Y-31356522D01*
X3554758Y-31296179D01*
X3540600Y-31225000D01*
X3540600Y-30955000D01*
X3554758Y-30883821D01*
X3595078Y-30823478D01*
X3655421Y-30783158D01*
X3726600Y-30769000D01*
X4096600Y-30769000D01*
X4167779Y-30783158D01*
G37*
G36*
X5430979Y-30783158D02*
G01*
X5491322Y-30823478D01*
X5531642Y-30883821D01*
X5545800Y-30955000D01*
X5545800Y-31225000D01*
X5531642Y-31296179D01*
X5491322Y-31356522D01*
X5430979Y-31396842D01*
X5359800Y-31411000D01*
X4989800Y-31411000D01*
X4918621Y-31396842D01*
X4858278Y-31356522D01*
X4817958Y-31296179D01*
X4803800Y-31225000D01*
X4803800Y-30955000D01*
X4817958Y-30883821D01*
X4858278Y-30823478D01*
X4918621Y-30783158D01*
X4989800Y-30769000D01*
X5359800Y-30769000D01*
X5430979Y-30783158D01*
G37*
G36*
X6694279Y-30783158D02*
G01*
X6754622Y-30823478D01*
X6794942Y-30883821D01*
X6809100Y-30955000D01*
X6809100Y-31225000D01*
X6794942Y-31296179D01*
X6754622Y-31356522D01*
X6694279Y-31396842D01*
X6623100Y-31411000D01*
X6253100Y-31411000D01*
X6181921Y-31396842D01*
X6121578Y-31356522D01*
X6081258Y-31296179D01*
X6067100Y-31225000D01*
X6067100Y-30955000D01*
X6081258Y-30883821D01*
X6121578Y-30823478D01*
X6181921Y-30783158D01*
X6253100Y-30769000D01*
X6623100Y-30769000D01*
X6694279Y-30783158D01*
G37*
G36*
X7957479Y-30783158D02*
G01*
X8017822Y-30823478D01*
X8058142Y-30883821D01*
X8072300Y-30955000D01*
X8072300Y-31225000D01*
X8058142Y-31296179D01*
X8017822Y-31356522D01*
X7957479Y-31396842D01*
X7886300Y-31411000D01*
X7516300Y-31411000D01*
X7445121Y-31396842D01*
X7384778Y-31356522D01*
X7344458Y-31296179D01*
X7330300Y-31225000D01*
X7330300Y-30955000D01*
X7344458Y-30883821D01*
X7384778Y-30823478D01*
X7445121Y-30783158D01*
X7516300Y-30769000D01*
X7886300Y-30769000D01*
X7957479Y-30783158D01*
G37*
G36*
X9220679Y-30783158D02*
G01*
X9281022Y-30823478D01*
X9321342Y-30883821D01*
X9335500Y-30955000D01*
X9335500Y-31225000D01*
X9321342Y-31296179D01*
X9281022Y-31356522D01*
X9220679Y-31396842D01*
X9149500Y-31411000D01*
X8779500Y-31411000D01*
X8708321Y-31396842D01*
X8647978Y-31356522D01*
X8607658Y-31296179D01*
X8593500Y-31225000D01*
X8593500Y-30955000D01*
X8607658Y-30883821D01*
X8647978Y-30823478D01*
X8708321Y-30783158D01*
X8779500Y-30769000D01*
X9149500Y-30769000D01*
X9220679Y-30783158D01*
G37*
G36*
X10483879Y-30783158D02*
G01*
X10544222Y-30823478D01*
X10584542Y-30883821D01*
X10598700Y-30955000D01*
X10598700Y-31225000D01*
X10584542Y-31296179D01*
X10544222Y-31356522D01*
X10483879Y-31396842D01*
X10412700Y-31411000D01*
X10042700Y-31411000D01*
X9971521Y-31396842D01*
X9911178Y-31356522D01*
X9870858Y-31296179D01*
X9856700Y-31225000D01*
X9856700Y-30955000D01*
X9870858Y-30883821D01*
X9911178Y-30823478D01*
X9971521Y-30783158D01*
X10042700Y-30769000D01*
X10412700Y-30769000D01*
X10483879Y-30783158D01*
G37*
G36*
X11747179Y-30783158D02*
G01*
X11807522Y-30823478D01*
X11847842Y-30883821D01*
X11862000Y-30955000D01*
X11862000Y-31225000D01*
X11847842Y-31296179D01*
X11807522Y-31356522D01*
X11747179Y-31396842D01*
X11676000Y-31411000D01*
X11306000Y-31411000D01*
X11234821Y-31396842D01*
X11174478Y-31356522D01*
X11134158Y-31296179D01*
X11120000Y-31225000D01*
X11120000Y-30955000D01*
X11134158Y-30883821D01*
X11174478Y-30823478D01*
X11234821Y-30783158D01*
X11306000Y-30769000D01*
X11676000Y-30769000D01*
X11747179Y-30783158D01*
G37*
G36*
X13010379Y-30783158D02*
G01*
X13070722Y-30823478D01*
X13111042Y-30883821D01*
X13125200Y-30955000D01*
X13125200Y-31225000D01*
X13111042Y-31296179D01*
X13070722Y-31356522D01*
X13010379Y-31396842D01*
X12939200Y-31411000D01*
X12569200Y-31411000D01*
X12498021Y-31396842D01*
X12437678Y-31356522D01*
X12397358Y-31296179D01*
X12383200Y-31225000D01*
X12383200Y-30955000D01*
X12397358Y-30883821D01*
X12437678Y-30823478D01*
X12498021Y-30783158D01*
X12569200Y-30769000D01*
X12939200Y-30769000D01*
X13010379Y-30783158D01*
G37*
G36*
X14273579Y-30783158D02*
G01*
X14333922Y-30823478D01*
X14374242Y-30883821D01*
X14388400Y-30955000D01*
X14388400Y-31225000D01*
X14374242Y-31296179D01*
X14333922Y-31356522D01*
X14273579Y-31396842D01*
X14202400Y-31411000D01*
X13832400Y-31411000D01*
X13761221Y-31396842D01*
X13700878Y-31356522D01*
X13660558Y-31296179D01*
X13646400Y-31225000D01*
X13646400Y-30955000D01*
X13660558Y-30883821D01*
X13700878Y-30823478D01*
X13761221Y-30783158D01*
X13832400Y-30769000D01*
X14202400Y-30769000D01*
X14273579Y-30783158D01*
G37*
G36*
X15536779Y-30783158D02*
G01*
X15597122Y-30823478D01*
X15637442Y-30883821D01*
X15651600Y-30955000D01*
X15651600Y-31225000D01*
X15637442Y-31296179D01*
X15597122Y-31356522D01*
X15536779Y-31396842D01*
X15465600Y-31411000D01*
X15095600Y-31411000D01*
X15024421Y-31396842D01*
X14964078Y-31356522D01*
X14923758Y-31296179D01*
X14909600Y-31225000D01*
X14909600Y-30955000D01*
X14923758Y-30883821D01*
X14964078Y-30823478D01*
X15024421Y-30783158D01*
X15095600Y-30769000D01*
X15465600Y-30769000D01*
X15536779Y-30783158D01*
G37*
G36*
X16800079Y-30783158D02*
G01*
X16860422Y-30823478D01*
X16900742Y-30883821D01*
X16914900Y-30955000D01*
X16914900Y-31225000D01*
X16900742Y-31296179D01*
X16860422Y-31356522D01*
X16800079Y-31396842D01*
X16728900Y-31411000D01*
X16358900Y-31411000D01*
X16287721Y-31396842D01*
X16227378Y-31356522D01*
X16187058Y-31296179D01*
X16172900Y-31225000D01*
X16172900Y-30955000D01*
X16187058Y-30883821D01*
X16227378Y-30823478D01*
X16287721Y-30783158D01*
X16358900Y-30769000D01*
X16728900Y-30769000D01*
X16800079Y-30783158D01*
G37*
G36*
X18063279Y-30783158D02*
G01*
X18123622Y-30823478D01*
X18163942Y-30883821D01*
X18178100Y-30955000D01*
X18178100Y-31225000D01*
X18163942Y-31296179D01*
X18123622Y-31356522D01*
X18063279Y-31396842D01*
X17992100Y-31411000D01*
X17622100Y-31411000D01*
X17550921Y-31396842D01*
X17490578Y-31356522D01*
X17450258Y-31296179D01*
X17436100Y-31225000D01*
X17436100Y-30955000D01*
X17450258Y-30883821D01*
X17490578Y-30823478D01*
X17550921Y-30783158D01*
X17622100Y-30769000D01*
X17992100Y-30769000D01*
X18063279Y-30783158D01*
G37*
G36*
X19326479Y-30783158D02*
G01*
X19386822Y-30823478D01*
X19427142Y-30883821D01*
X19441300Y-30955000D01*
X19441300Y-31225000D01*
X19427142Y-31296179D01*
X19386822Y-31356522D01*
X19326479Y-31396842D01*
X19255300Y-31411000D01*
X18885300Y-31411000D01*
X18814121Y-31396842D01*
X18753778Y-31356522D01*
X18713458Y-31296179D01*
X18699300Y-31225000D01*
X18699300Y-30955000D01*
X18713458Y-30883821D01*
X18753778Y-30823478D01*
X18814121Y-30783158D01*
X18885300Y-30769000D01*
X19255300Y-30769000D01*
X19326479Y-30783158D01*
G37*
G36*
X20589679Y-30783158D02*
G01*
X20650022Y-30823478D01*
X20690342Y-30883821D01*
X20704500Y-30955000D01*
X20704500Y-31225000D01*
X20690342Y-31296179D01*
X20650022Y-31356522D01*
X20589679Y-31396842D01*
X20518500Y-31411000D01*
X20148500Y-31411000D01*
X20077321Y-31396842D01*
X20016978Y-31356522D01*
X19976658Y-31296179D01*
X19962500Y-31225000D01*
X19962500Y-30955000D01*
X19976658Y-30883821D01*
X20016978Y-30823478D01*
X20077321Y-30783158D01*
X20148500Y-30769000D01*
X20518500Y-30769000D01*
X20589679Y-30783158D01*
G37*
G36*
X21852979Y-30783158D02*
G01*
X21913322Y-30823478D01*
X21953642Y-30883821D01*
X21967800Y-30955000D01*
X21967800Y-31225000D01*
X21953642Y-31296179D01*
X21913322Y-31356522D01*
X21852979Y-31396842D01*
X21781800Y-31411000D01*
X21411800Y-31411000D01*
X21340621Y-31396842D01*
X21280278Y-31356522D01*
X21239958Y-31296179D01*
X21225800Y-31225000D01*
X21225800Y-30955000D01*
X21239958Y-30883821D01*
X21280278Y-30823478D01*
X21340621Y-30783158D01*
X21411800Y-30769000D01*
X21781800Y-30769000D01*
X21852979Y-30783158D01*
G37*
G36*
X23116179Y-30783158D02*
G01*
X23176522Y-30823478D01*
X23216842Y-30883821D01*
X23231000Y-30955000D01*
X23231000Y-31225000D01*
X23216842Y-31296179D01*
X23176522Y-31356522D01*
X23116179Y-31396842D01*
X23045000Y-31411000D01*
X22675000Y-31411000D01*
X22603821Y-31396842D01*
X22543478Y-31356522D01*
X22503158Y-31296179D01*
X22489000Y-31225000D01*
X22489000Y-30955000D01*
X22503158Y-30883821D01*
X22543478Y-30823478D01*
X22603821Y-30783158D01*
X22675000Y-30769000D01*
X23045000Y-30769000D01*
X23116179Y-30783158D01*
G37*
G36*
X27027779Y-30783158D02*
G01*
X27088122Y-30823478D01*
X27128442Y-30883821D01*
X27142600Y-30955000D01*
X27142600Y-31225000D01*
X27128442Y-31296179D01*
X27088122Y-31356522D01*
X27027779Y-31396842D01*
X26956600Y-31411000D01*
X26586600Y-31411000D01*
X26515421Y-31396842D01*
X26455078Y-31356522D01*
X26414758Y-31296179D01*
X26400600Y-31225000D01*
X26400600Y-30955000D01*
X26414758Y-30883821D01*
X26455078Y-30823478D01*
X26515421Y-30783158D01*
X26586600Y-30769000D01*
X26956600Y-30769000D01*
X27027779Y-30783158D01*
G37*
G36*
X28216179Y-30783158D02*
G01*
X28276522Y-30823478D01*
X28316842Y-30883821D01*
X28331000Y-30955000D01*
X28331000Y-31225000D01*
X28316842Y-31296179D01*
X28276522Y-31356522D01*
X28216179Y-31396842D01*
X28145000Y-31411000D01*
X27775000Y-31411000D01*
X27703821Y-31396842D01*
X27643478Y-31356522D01*
X27603158Y-31296179D01*
X27589000Y-31225000D01*
X27589000Y-30955000D01*
X27603158Y-30883821D01*
X27643478Y-30823478D01*
X27703821Y-30783158D01*
X27775000Y-30769000D01*
X28145000Y-30769000D01*
X28216179Y-30783158D01*
G37*
G36*
X29567779Y-30783158D02*
G01*
X29628122Y-30823478D01*
X29668442Y-30883821D01*
X29682600Y-30955000D01*
X29682600Y-31225000D01*
X29668442Y-31296179D01*
X29628122Y-31356522D01*
X29567779Y-31396842D01*
X29496600Y-31411000D01*
X29126600Y-31411000D01*
X29055421Y-31396842D01*
X28995078Y-31356522D01*
X28954758Y-31296179D01*
X28940600Y-31225000D01*
X28940600Y-30955000D01*
X28954758Y-30883821D01*
X28995078Y-30823478D01*
X29055421Y-30783158D01*
X29126600Y-30769000D01*
X29496600Y-30769000D01*
X29567779Y-30783158D01*
G37*
G36*
X30716179Y-30783158D02*
G01*
X30776522Y-30823478D01*
X30816842Y-30883821D01*
X30831000Y-30955000D01*
X30831000Y-31225000D01*
X30816842Y-31296179D01*
X30776522Y-31356522D01*
X30716179Y-31396842D01*
X30645000Y-31411000D01*
X30275000Y-31411000D01*
X30203821Y-31396842D01*
X30143478Y-31356522D01*
X30103158Y-31296179D01*
X30089000Y-31225000D01*
X30089000Y-30955000D01*
X30103158Y-30883821D01*
X30143478Y-30823478D01*
X30203821Y-30783158D01*
X30275000Y-30769000D01*
X30645000Y-30769000D01*
X30716179Y-30783158D01*
G37*
G36*
X31980779Y-30783158D02*
G01*
X32041122Y-30823478D01*
X32081442Y-30883821D01*
X32095600Y-30955000D01*
X32095600Y-31225000D01*
X32081442Y-31296179D01*
X32041122Y-31356522D01*
X31980779Y-31396842D01*
X31909600Y-31411000D01*
X31539600Y-31411000D01*
X31468421Y-31396842D01*
X31408078Y-31356522D01*
X31367758Y-31296179D01*
X31353600Y-31225000D01*
X31353600Y-30955000D01*
X31367758Y-30883821D01*
X31408078Y-30823478D01*
X31468421Y-30783158D01*
X31539600Y-30769000D01*
X31909600Y-30769000D01*
X31980779Y-30783158D01*
G37*
G36*
X33316179Y-30783158D02*
G01*
X33376522Y-30823478D01*
X33416842Y-30883821D01*
X33431000Y-30955000D01*
X33431000Y-31225000D01*
X33416842Y-31296179D01*
X33376522Y-31356522D01*
X33316179Y-31396842D01*
X33245000Y-31411000D01*
X32875000Y-31411000D01*
X32803821Y-31396842D01*
X32743478Y-31356522D01*
X32703158Y-31296179D01*
X32689000Y-31225000D01*
X32689000Y-30955000D01*
X32703158Y-30883821D01*
X32743478Y-30823478D01*
X32803821Y-30783158D01*
X32875000Y-30769000D01*
X33245000Y-30769000D01*
X33316179Y-30783158D01*
G37*
G36*
X35816179Y-30783158D02*
G01*
X35876522Y-30823478D01*
X35916842Y-30883821D01*
X35931000Y-30955000D01*
X35931000Y-31225000D01*
X35916842Y-31296179D01*
X35876522Y-31356522D01*
X35816179Y-31396842D01*
X35745000Y-31411000D01*
X35375000Y-31411000D01*
X35303821Y-31396842D01*
X35243478Y-31356522D01*
X35203158Y-31296179D01*
X35189000Y-31225000D01*
X35189000Y-30955000D01*
X35203158Y-30883821D01*
X35243478Y-30823478D01*
X35303821Y-30783158D01*
X35375000Y-30769000D01*
X35745000Y-30769000D01*
X35816179Y-30783158D01*
G37*
G36*
X38316179Y-30783158D02*
G01*
X38376522Y-30823478D01*
X38416842Y-30883821D01*
X38431000Y-30955000D01*
X38431000Y-31225000D01*
X38416842Y-31296179D01*
X38376522Y-31356522D01*
X38316179Y-31396842D01*
X38245000Y-31411000D01*
X37875000Y-31411000D01*
X37803821Y-31396842D01*
X37743478Y-31356522D01*
X37703158Y-31296179D01*
X37689000Y-31225000D01*
X37689000Y-30955000D01*
X37703158Y-30883821D01*
X37743478Y-30823478D01*
X37803821Y-30783158D01*
X37875000Y-30769000D01*
X38245000Y-30769000D01*
X38316179Y-30783158D01*
G37*
G36*
X40816179Y-30783158D02*
G01*
X40876522Y-30823478D01*
X40916842Y-30883821D01*
X40931000Y-30955000D01*
X40931000Y-31225000D01*
X40916842Y-31296179D01*
X40876522Y-31356522D01*
X40816179Y-31396842D01*
X40745000Y-31411000D01*
X40375000Y-31411000D01*
X40303821Y-31396842D01*
X40243478Y-31356522D01*
X40203158Y-31296179D01*
X40189000Y-31225000D01*
X40189000Y-30955000D01*
X40203158Y-30883821D01*
X40243478Y-30823478D01*
X40303821Y-30783158D01*
X40375000Y-30769000D01*
X40745000Y-30769000D01*
X40816179Y-30783158D01*
G37*
G36*
X43416179Y-30783158D02*
G01*
X43476522Y-30823478D01*
X43516842Y-30883821D01*
X43531000Y-30955000D01*
X43531000Y-31225000D01*
X43516842Y-31296179D01*
X43476522Y-31356522D01*
X43416179Y-31396842D01*
X43345000Y-31411000D01*
X42975000Y-31411000D01*
X42903821Y-31396842D01*
X42843478Y-31356522D01*
X42803158Y-31296179D01*
X42789000Y-31225000D01*
X42789000Y-30955000D01*
X42803158Y-30883821D01*
X42843478Y-30823478D01*
X42903821Y-30783158D01*
X42975000Y-30769000D01*
X43345000Y-30769000D01*
X43416179Y-30783158D01*
G37*
G36*
X5342973Y-27130651D02*
G01*
X5505500Y-27203012D01*
X5649430Y-27307584D01*
X5768473Y-27439795D01*
X5857427Y-27593867D01*
X5912404Y-27763067D01*
X5931000Y-27940000D01*
X5912404Y-28116933D01*
X5857427Y-28286133D01*
X5768473Y-28440205D01*
X5649430Y-28572416D01*
X5505500Y-28676988D01*
X5342973Y-28749349D01*
X5168954Y-28786338D01*
X4991046Y-28786338D01*
X4817027Y-28749349D01*
X4654500Y-28676988D01*
X4510570Y-28572416D01*
X4391527Y-28440205D01*
X4302573Y-28286133D01*
X4247596Y-28116933D01*
X4229000Y-27940000D01*
X4247596Y-27763067D01*
X4302573Y-27593867D01*
X4391527Y-27439795D01*
X4510570Y-27307584D01*
X4654500Y-27203012D01*
X4817027Y-27130651D01*
X4991046Y-27093662D01*
X5168954Y-27093662D01*
X5342973Y-27130651D01*
G37*
G36*
X7882973Y-27130651D02*
G01*
X8045500Y-27203012D01*
X8189430Y-27307584D01*
X8308473Y-27439795D01*
X8397427Y-27593867D01*
X8452404Y-27763067D01*
X8471000Y-27940000D01*
X8452404Y-28116933D01*
X8397427Y-28286133D01*
X8308473Y-28440205D01*
X8189430Y-28572416D01*
X8045500Y-28676988D01*
X7882973Y-28749349D01*
X7708954Y-28786338D01*
X7531046Y-28786338D01*
X7357027Y-28749349D01*
X7194500Y-28676988D01*
X7050570Y-28572416D01*
X6931527Y-28440205D01*
X6842573Y-28286133D01*
X6787596Y-28116933D01*
X6769000Y-27940000D01*
X6787596Y-27763067D01*
X6842573Y-27593867D01*
X6931527Y-27439795D01*
X7050570Y-27307584D01*
X7194500Y-27203012D01*
X7357027Y-27130651D01*
X7531046Y-27093662D01*
X7708954Y-27093662D01*
X7882973Y-27130651D01*
G37*
G36*
X10422973Y-27130651D02*
G01*
X10585500Y-27203012D01*
X10729430Y-27307584D01*
X10848473Y-27439795D01*
X10937427Y-27593867D01*
X10992404Y-27763067D01*
X11011000Y-27940000D01*
X10992404Y-28116933D01*
X10937427Y-28286133D01*
X10848473Y-28440205D01*
X10729430Y-28572416D01*
X10585500Y-28676988D01*
X10422973Y-28749349D01*
X10248954Y-28786338D01*
X10071046Y-28786338D01*
X9897027Y-28749349D01*
X9734500Y-28676988D01*
X9590570Y-28572416D01*
X9471527Y-28440205D01*
X9382573Y-28286133D01*
X9327596Y-28116933D01*
X9309000Y-27940000D01*
X9327596Y-27763067D01*
X9382573Y-27593867D01*
X9471527Y-27439795D01*
X9590570Y-27307584D01*
X9734500Y-27203012D01*
X9897027Y-27130651D01*
X10071046Y-27093662D01*
X10248954Y-27093662D01*
X10422973Y-27130651D01*
G37*
G36*
X12962973Y-27130651D02*
G01*
X13125500Y-27203012D01*
X13269430Y-27307584D01*
X13388473Y-27439795D01*
X13477427Y-27593867D01*
X13532404Y-27763067D01*
X13551000Y-27940000D01*
X13532404Y-28116933D01*
X13477427Y-28286133D01*
X13388473Y-28440205D01*
X13269430Y-28572416D01*
X13125500Y-28676988D01*
X12962973Y-28749349D01*
X12788954Y-28786338D01*
X12611046Y-28786338D01*
X12437027Y-28749349D01*
X12274500Y-28676988D01*
X12130570Y-28572416D01*
X12011527Y-28440205D01*
X11922573Y-28286133D01*
X11867596Y-28116933D01*
X11849000Y-27940000D01*
X11867596Y-27763067D01*
X11922573Y-27593867D01*
X12011527Y-27439795D01*
X12130570Y-27307584D01*
X12274500Y-27203012D01*
X12437027Y-27130651D01*
X12611046Y-27093662D01*
X12788954Y-27093662D01*
X12962973Y-27130651D01*
G37*
G36*
X15502973Y-27130651D02*
G01*
X15665500Y-27203012D01*
X15809430Y-27307584D01*
X15928473Y-27439795D01*
X16017427Y-27593867D01*
X16072404Y-27763067D01*
X16091000Y-27940000D01*
X16072404Y-28116933D01*
X16017427Y-28286133D01*
X15928473Y-28440205D01*
X15809430Y-28572416D01*
X15665500Y-28676988D01*
X15502973Y-28749349D01*
X15328954Y-28786338D01*
X15151046Y-28786338D01*
X14977027Y-28749349D01*
X14814500Y-28676988D01*
X14670570Y-28572416D01*
X14551527Y-28440205D01*
X14462573Y-28286133D01*
X14407596Y-28116933D01*
X14389000Y-27940000D01*
X14407596Y-27763067D01*
X14462573Y-27593867D01*
X14551527Y-27439795D01*
X14670570Y-27307584D01*
X14814500Y-27203012D01*
X14977027Y-27130651D01*
X15151046Y-27093662D01*
X15328954Y-27093662D01*
X15502973Y-27130651D01*
G37*
G36*
X18042973Y-27130651D02*
G01*
X18205500Y-27203012D01*
X18349430Y-27307584D01*
X18468473Y-27439795D01*
X18557427Y-27593867D01*
X18612404Y-27763067D01*
X18631000Y-27940000D01*
X18612404Y-28116933D01*
X18557427Y-28286133D01*
X18468473Y-28440205D01*
X18349430Y-28572416D01*
X18205500Y-28676988D01*
X18042973Y-28749349D01*
X17868954Y-28786338D01*
X17691046Y-28786338D01*
X17517027Y-28749349D01*
X17354500Y-28676988D01*
X17210570Y-28572416D01*
X17091527Y-28440205D01*
X17002573Y-28286133D01*
X16947596Y-28116933D01*
X16929000Y-27940000D01*
X16947596Y-27763067D01*
X17002573Y-27593867D01*
X17091527Y-27439795D01*
X17210570Y-27307584D01*
X17354500Y-27203012D01*
X17517027Y-27130651D01*
X17691046Y-27093662D01*
X17868954Y-27093662D01*
X18042973Y-27130651D01*
G37*
G36*
X20582973Y-27130651D02*
G01*
X20745500Y-27203012D01*
X20889430Y-27307584D01*
X21008473Y-27439795D01*
X21097427Y-27593867D01*
X21152404Y-27763067D01*
X21171000Y-27940000D01*
X21152404Y-28116933D01*
X21097427Y-28286133D01*
X21008473Y-28440205D01*
X20889430Y-28572416D01*
X20745500Y-28676988D01*
X20582973Y-28749349D01*
X20408954Y-28786338D01*
X20231046Y-28786338D01*
X20057027Y-28749349D01*
X19894500Y-28676988D01*
X19750570Y-28572416D01*
X19631527Y-28440205D01*
X19542573Y-28286133D01*
X19487596Y-28116933D01*
X19469000Y-27940000D01*
X19487596Y-27763067D01*
X19542573Y-27593867D01*
X19631527Y-27439795D01*
X19750570Y-27307584D01*
X19894500Y-27203012D01*
X20057027Y-27130651D01*
X20231046Y-27093662D01*
X20408954Y-27093662D01*
X20582973Y-27130651D01*
G37*
G36*
X23122973Y-27130651D02*
G01*
X23285500Y-27203012D01*
X23429430Y-27307584D01*
X23548473Y-27439795D01*
X23637427Y-27593867D01*
X23692404Y-27763067D01*
X23711000Y-27940000D01*
X23692404Y-28116933D01*
X23637427Y-28286133D01*
X23548473Y-28440205D01*
X23429430Y-28572416D01*
X23285500Y-28676988D01*
X23122973Y-28749349D01*
X22948954Y-28786338D01*
X22771046Y-28786338D01*
X22597027Y-28749349D01*
X22434500Y-28676988D01*
X22290570Y-28572416D01*
X22171527Y-28440205D01*
X22082573Y-28286133D01*
X22027596Y-28116933D01*
X22009000Y-27940000D01*
X22027596Y-27763067D01*
X22082573Y-27593867D01*
X22171527Y-27439795D01*
X22290570Y-27307584D01*
X22434500Y-27203012D01*
X22597027Y-27130651D01*
X22771046Y-27093662D01*
X22948954Y-27093662D01*
X23122973Y-27130651D01*
G37*
G36*
X28202973Y-27130651D02*
G01*
X28365500Y-27203012D01*
X28509430Y-27307584D01*
X28628473Y-27439795D01*
X28717427Y-27593867D01*
X28772404Y-27763067D01*
X28791000Y-27940000D01*
X28772404Y-28116933D01*
X28717427Y-28286133D01*
X28628473Y-28440205D01*
X28509430Y-28572416D01*
X28365500Y-28676988D01*
X28202973Y-28749349D01*
X28028954Y-28786338D01*
X27851046Y-28786338D01*
X27677027Y-28749349D01*
X27514500Y-28676988D01*
X27370570Y-28572416D01*
X27251527Y-28440205D01*
X27162573Y-28286133D01*
X27107596Y-28116933D01*
X27089000Y-27940000D01*
X27107596Y-27763067D01*
X27162573Y-27593867D01*
X27251527Y-27439795D01*
X27370570Y-27307584D01*
X27514500Y-27203012D01*
X27677027Y-27130651D01*
X27851046Y-27093662D01*
X28028954Y-27093662D01*
X28202973Y-27130651D01*
G37*
G36*
X30742973Y-27130651D02*
G01*
X30905500Y-27203012D01*
X31049430Y-27307584D01*
X31168473Y-27439795D01*
X31257427Y-27593867D01*
X31312404Y-27763067D01*
X31331000Y-27940000D01*
X31312404Y-28116933D01*
X31257427Y-28286133D01*
X31168473Y-28440205D01*
X31049430Y-28572416D01*
X30905500Y-28676988D01*
X30742973Y-28749349D01*
X30568954Y-28786338D01*
X30391046Y-28786338D01*
X30217027Y-28749349D01*
X30054500Y-28676988D01*
X29910570Y-28572416D01*
X29791527Y-28440205D01*
X29702573Y-28286133D01*
X29647596Y-28116933D01*
X29629000Y-27940000D01*
X29647596Y-27763067D01*
X29702573Y-27593867D01*
X29791527Y-27439795D01*
X29910570Y-27307584D01*
X30054500Y-27203012D01*
X30217027Y-27130651D01*
X30391046Y-27093662D01*
X30568954Y-27093662D01*
X30742973Y-27130651D01*
G37*
G36*
X33282973Y-27130651D02*
G01*
X33445500Y-27203012D01*
X33589430Y-27307584D01*
X33708473Y-27439795D01*
X33797427Y-27593867D01*
X33852404Y-27763067D01*
X33871000Y-27940000D01*
X33852404Y-28116933D01*
X33797427Y-28286133D01*
X33708473Y-28440205D01*
X33589430Y-28572416D01*
X33445500Y-28676988D01*
X33282973Y-28749349D01*
X33108954Y-28786338D01*
X32931046Y-28786338D01*
X32757027Y-28749349D01*
X32594500Y-28676988D01*
X32450570Y-28572416D01*
X32331527Y-28440205D01*
X32242573Y-28286133D01*
X32187596Y-28116933D01*
X32169000Y-27940000D01*
X32187596Y-27763067D01*
X32242573Y-27593867D01*
X32331527Y-27439795D01*
X32450570Y-27307584D01*
X32594500Y-27203012D01*
X32757027Y-27130651D01*
X32931046Y-27093662D01*
X33108954Y-27093662D01*
X33282973Y-27130651D01*
G37*
G36*
X35822973Y-27130651D02*
G01*
X35985500Y-27203012D01*
X36129430Y-27307584D01*
X36248473Y-27439795D01*
X36337427Y-27593867D01*
X36392404Y-27763067D01*
X36411000Y-27940000D01*
X36392404Y-28116933D01*
X36337427Y-28286133D01*
X36248473Y-28440205D01*
X36129430Y-28572416D01*
X35985500Y-28676988D01*
X35822973Y-28749349D01*
X35648954Y-28786338D01*
X35471046Y-28786338D01*
X35297027Y-28749349D01*
X35134500Y-28676988D01*
X34990570Y-28572416D01*
X34871527Y-28440205D01*
X34782573Y-28286133D01*
X34727596Y-28116933D01*
X34709000Y-27940000D01*
X34727596Y-27763067D01*
X34782573Y-27593867D01*
X34871527Y-27439795D01*
X34990570Y-27307584D01*
X35134500Y-27203012D01*
X35297027Y-27130651D01*
X35471046Y-27093662D01*
X35648954Y-27093662D01*
X35822973Y-27130651D01*
G37*
G36*
X38362973Y-27130651D02*
G01*
X38525500Y-27203012D01*
X38669430Y-27307584D01*
X38788473Y-27439795D01*
X38877427Y-27593867D01*
X38932404Y-27763067D01*
X38951000Y-27940000D01*
X38932404Y-28116933D01*
X38877427Y-28286133D01*
X38788473Y-28440205D01*
X38669430Y-28572416D01*
X38525500Y-28676988D01*
X38362973Y-28749349D01*
X38188954Y-28786338D01*
X38011046Y-28786338D01*
X37837027Y-28749349D01*
X37674500Y-28676988D01*
X37530570Y-28572416D01*
X37411527Y-28440205D01*
X37322573Y-28286133D01*
X37267596Y-28116933D01*
X37249000Y-27940000D01*
X37267596Y-27763067D01*
X37322573Y-27593867D01*
X37411527Y-27439795D01*
X37530570Y-27307584D01*
X37674500Y-27203012D01*
X37837027Y-27130651D01*
X38011046Y-27093662D01*
X38188954Y-27093662D01*
X38362973Y-27130651D01*
G37*
G36*
X40902973Y-27130651D02*
G01*
X41065500Y-27203012D01*
X41209430Y-27307584D01*
X41328473Y-27439795D01*
X41417427Y-27593867D01*
X41472404Y-27763067D01*
X41491000Y-27940000D01*
X41472404Y-28116933D01*
X41417427Y-28286133D01*
X41328473Y-28440205D01*
X41209430Y-28572416D01*
X41065500Y-28676988D01*
X40902973Y-28749349D01*
X40728954Y-28786338D01*
X40551046Y-28786338D01*
X40377027Y-28749349D01*
X40214500Y-28676988D01*
X40070570Y-28572416D01*
X39951527Y-28440205D01*
X39862573Y-28286133D01*
X39807596Y-28116933D01*
X39789000Y-27940000D01*
X39807596Y-27763067D01*
X39862573Y-27593867D01*
X39951527Y-27439795D01*
X40070570Y-27307584D01*
X40214500Y-27203012D01*
X40377027Y-27130651D01*
X40551046Y-27093662D01*
X40728954Y-27093662D01*
X40902973Y-27130651D01*
G37*
G36*
X43442973Y-27130651D02*
G01*
X43605500Y-27203012D01*
X43749430Y-27307584D01*
X43868473Y-27439795D01*
X43957427Y-27593867D01*
X44012404Y-27763067D01*
X44031000Y-27940000D01*
X44012404Y-28116933D01*
X43957427Y-28286133D01*
X43868473Y-28440205D01*
X43749430Y-28572416D01*
X43605500Y-28676988D01*
X43442973Y-28749349D01*
X43268954Y-28786338D01*
X43091046Y-28786338D01*
X42917027Y-28749349D01*
X42754500Y-28676988D01*
X42610570Y-28572416D01*
X42491527Y-28440205D01*
X42402573Y-28286133D01*
X42347596Y-28116933D01*
X42329000Y-27940000D01*
X42347596Y-27763067D01*
X42402573Y-27593867D01*
X42491527Y-27439795D01*
X42610570Y-27307584D01*
X42754500Y-27203012D01*
X42917027Y-27130651D01*
X43091046Y-27093662D01*
X43268954Y-27093662D01*
X43442973Y-27130651D01*
G37*
G36*
X45982973Y-27130651D02*
G01*
X46145500Y-27203012D01*
X46289430Y-27307584D01*
X46408473Y-27439795D01*
X46497427Y-27593867D01*
X46552404Y-27763067D01*
X46571000Y-27940000D01*
X46552404Y-28116933D01*
X46497427Y-28286133D01*
X46408473Y-28440205D01*
X46289430Y-28572416D01*
X46145500Y-28676988D01*
X45982973Y-28749349D01*
X45808954Y-28786338D01*
X45631046Y-28786338D01*
X45457027Y-28749349D01*
X45294500Y-28676988D01*
X45150570Y-28572416D01*
X45031527Y-28440205D01*
X44942573Y-28286133D01*
X44887596Y-28116933D01*
X44869000Y-27940000D01*
X44887596Y-27763067D01*
X44942573Y-27593867D01*
X45031527Y-27439795D01*
X45150570Y-27307584D01*
X45294500Y-27203012D01*
X45457027Y-27130651D01*
X45631046Y-27093662D01*
X45808954Y-27093662D01*
X45982973Y-27130651D01*
G37*
G36*
X54956533Y-23276429D02*
G01*
X54961192Y-23278486D01*
X54964244Y-23278888D01*
X55002439Y-23296698D01*
X55055624Y-23320182D01*
X55132218Y-23396776D01*
X55155715Y-23449993D01*
X55173511Y-23488156D01*
X55173912Y-23491204D01*
X55175971Y-23495867D01*
X55183800Y-23563350D01*
X55183800Y-24050850D01*
X55175971Y-24118333D01*
X55173912Y-24122995D01*
X55173511Y-24126044D01*
X55155719Y-24164198D01*
X55132218Y-24217424D01*
X55055624Y-24294018D01*
X55002387Y-24317524D01*
X54964243Y-24335311D01*
X54961195Y-24335712D01*
X54956533Y-24337771D01*
X54889050Y-24345600D01*
X53976550Y-24345600D01*
X53909067Y-24337771D01*
X53904405Y-24335712D01*
X53901355Y-24335311D01*
X53863182Y-24317510D01*
X53809976Y-24294018D01*
X53733382Y-24217424D01*
X53709893Y-24164228D01*
X53692088Y-24126043D01*
X53691686Y-24122992D01*
X53689629Y-24118333D01*
X53681800Y-24050850D01*
X53681800Y-23563350D01*
X53689629Y-23495867D01*
X53691686Y-23491208D01*
X53692088Y-23488155D01*
X53709906Y-23449941D01*
X53733382Y-23396776D01*
X53809976Y-23320182D01*
X53863152Y-23296702D01*
X53901356Y-23278888D01*
X53904407Y-23278486D01*
X53909067Y-23276429D01*
X53976550Y-23268600D01*
X54889050Y-23268600D01*
X54956533Y-23276429D01*
G37*
G36*
X64602609Y-22667775D02*
G01*
X64735500Y-22722820D01*
X64849616Y-22810384D01*
X64937180Y-22924500D01*
X64992225Y-23057391D01*
X65011000Y-23200000D01*
X64992225Y-23342609D01*
X64937180Y-23475500D01*
X64849616Y-23589616D01*
X64735500Y-23677180D01*
X64602609Y-23732225D01*
X64460000Y-23751000D01*
X64317391Y-23732225D01*
X64184500Y-23677180D01*
X64070384Y-23589616D01*
X63982820Y-23475500D01*
X63927775Y-23342609D01*
X63909000Y-23200000D01*
X63927775Y-23057391D01*
X63982820Y-22924500D01*
X64070384Y-22810384D01*
X64184500Y-22722820D01*
X64317391Y-22667775D01*
X64460000Y-22649000D01*
X64602609Y-22667775D01*
G37*
G36*
X54956533Y-21401429D02*
G01*
X54961192Y-21403486D01*
X54964244Y-21403888D01*
X55002439Y-21421698D01*
X55055624Y-21445182D01*
X55132218Y-21521776D01*
X55155715Y-21574993D01*
X55173511Y-21613156D01*
X55173912Y-21616204D01*
X55175971Y-21620867D01*
X55183800Y-21688350D01*
X55183800Y-22175850D01*
X55175971Y-22243333D01*
X55173912Y-22247995D01*
X55173511Y-22251044D01*
X55155719Y-22289198D01*
X55132218Y-22342424D01*
X55055624Y-22419018D01*
X55002387Y-22442524D01*
X54964243Y-22460311D01*
X54961195Y-22460712D01*
X54956533Y-22462771D01*
X54889050Y-22470600D01*
X53976550Y-22470600D01*
X53909067Y-22462771D01*
X53904405Y-22460712D01*
X53901355Y-22460311D01*
X53863182Y-22442510D01*
X53809976Y-22419018D01*
X53733382Y-22342424D01*
X53709893Y-22289228D01*
X53692088Y-22251043D01*
X53691686Y-22247992D01*
X53689629Y-22243333D01*
X53681800Y-22175850D01*
X53681800Y-21688350D01*
X53689629Y-21620867D01*
X53691686Y-21616208D01*
X53692088Y-21613155D01*
X53709906Y-21574941D01*
X53733382Y-21521776D01*
X53809976Y-21445182D01*
X53863152Y-21421702D01*
X53901356Y-21403888D01*
X53904407Y-21403486D01*
X53909067Y-21401429D01*
X53976550Y-21393600D01*
X54889050Y-21393600D01*
X54956533Y-21401429D01*
G37*
G36*
X23679517Y-19472882D02*
G01*
X23696062Y-19483938D01*
X23707118Y-19500483D01*
X23711000Y-19520000D01*
X23711000Y-21120000D01*
X23707118Y-21139517D01*
X23696062Y-21156062D01*
X23679517Y-21167118D01*
X23660000Y-21171000D01*
X22060000Y-21171000D01*
X22040483Y-21167118D01*
X22023938Y-21156062D01*
X22012882Y-21139517D01*
X22009000Y-21120000D01*
X22009000Y-19520000D01*
X22012882Y-19500483D01*
X22023938Y-19483938D01*
X22040483Y-19472882D01*
X22060000Y-19469000D01*
X23660000Y-19469000D01*
X23679517Y-19472882D01*
G37*
G36*
X46539517Y-19472882D02*
G01*
X46556062Y-19483938D01*
X46567118Y-19500483D01*
X46571000Y-19520000D01*
X46571000Y-21120000D01*
X46567118Y-21139517D01*
X46556062Y-21156062D01*
X46539517Y-21167118D01*
X46520000Y-21171000D01*
X44920000Y-21171000D01*
X44900483Y-21167118D01*
X44883938Y-21156062D01*
X44872882Y-21139517D01*
X44869000Y-21120000D01*
X44869000Y-19520000D01*
X44872882Y-19500483D01*
X44883938Y-19483938D01*
X44900483Y-19472882D01*
X44920000Y-19469000D01*
X46520000Y-19469000D01*
X46539517Y-19472882D01*
G37*
G36*
X5342973Y-19510651D02*
G01*
X5505500Y-19583012D01*
X5649430Y-19687584D01*
X5768473Y-19819795D01*
X5857427Y-19973867D01*
X5912404Y-20143067D01*
X5931000Y-20320000D01*
X5912404Y-20496933D01*
X5857427Y-20666133D01*
X5768473Y-20820205D01*
X5649430Y-20952416D01*
X5505500Y-21056988D01*
X5342973Y-21129349D01*
X5168954Y-21166338D01*
X4991046Y-21166338D01*
X4817027Y-21129349D01*
X4654500Y-21056988D01*
X4510570Y-20952416D01*
X4391527Y-20820205D01*
X4302573Y-20666133D01*
X4247596Y-20496933D01*
X4229000Y-20320000D01*
X4247596Y-20143067D01*
X4302573Y-19973867D01*
X4391527Y-19819795D01*
X4510570Y-19687584D01*
X4654500Y-19583012D01*
X4817027Y-19510651D01*
X4991046Y-19473662D01*
X5168954Y-19473662D01*
X5342973Y-19510651D01*
G37*
G36*
X7882973Y-19510651D02*
G01*
X8045500Y-19583012D01*
X8189430Y-19687584D01*
X8308473Y-19819795D01*
X8397427Y-19973867D01*
X8452404Y-20143067D01*
X8471000Y-20320000D01*
X8452404Y-20496933D01*
X8397427Y-20666133D01*
X8308473Y-20820205D01*
X8189430Y-20952416D01*
X8045500Y-21056988D01*
X7882973Y-21129349D01*
X7708954Y-21166338D01*
X7531046Y-21166338D01*
X7357027Y-21129349D01*
X7194500Y-21056988D01*
X7050570Y-20952416D01*
X6931527Y-20820205D01*
X6842573Y-20666133D01*
X6787596Y-20496933D01*
X6769000Y-20320000D01*
X6787596Y-20143067D01*
X6842573Y-19973867D01*
X6931527Y-19819795D01*
X7050570Y-19687584D01*
X7194500Y-19583012D01*
X7357027Y-19510651D01*
X7531046Y-19473662D01*
X7708954Y-19473662D01*
X7882973Y-19510651D01*
G37*
G36*
X10422973Y-19510651D02*
G01*
X10585500Y-19583012D01*
X10729430Y-19687584D01*
X10848473Y-19819795D01*
X10937427Y-19973867D01*
X10992404Y-20143067D01*
X11011000Y-20320000D01*
X10992404Y-20496933D01*
X10937427Y-20666133D01*
X10848473Y-20820205D01*
X10729430Y-20952416D01*
X10585500Y-21056988D01*
X10422973Y-21129349D01*
X10248954Y-21166338D01*
X10071046Y-21166338D01*
X9897027Y-21129349D01*
X9734500Y-21056988D01*
X9590570Y-20952416D01*
X9471527Y-20820205D01*
X9382573Y-20666133D01*
X9327596Y-20496933D01*
X9309000Y-20320000D01*
X9327596Y-20143067D01*
X9382573Y-19973867D01*
X9471527Y-19819795D01*
X9590570Y-19687584D01*
X9734500Y-19583012D01*
X9897027Y-19510651D01*
X10071046Y-19473662D01*
X10248954Y-19473662D01*
X10422973Y-19510651D01*
G37*
G36*
X12962973Y-19510651D02*
G01*
X13125500Y-19583012D01*
X13269430Y-19687584D01*
X13388473Y-19819795D01*
X13477427Y-19973867D01*
X13532404Y-20143067D01*
X13551000Y-20320000D01*
X13532404Y-20496933D01*
X13477427Y-20666133D01*
X13388473Y-20820205D01*
X13269430Y-20952416D01*
X13125500Y-21056988D01*
X12962973Y-21129349D01*
X12788954Y-21166338D01*
X12611046Y-21166338D01*
X12437027Y-21129349D01*
X12274500Y-21056988D01*
X12130570Y-20952416D01*
X12011527Y-20820205D01*
X11922573Y-20666133D01*
X11867596Y-20496933D01*
X11849000Y-20320000D01*
X11867596Y-20143067D01*
X11922573Y-19973867D01*
X12011527Y-19819795D01*
X12130570Y-19687584D01*
X12274500Y-19583012D01*
X12437027Y-19510651D01*
X12611046Y-19473662D01*
X12788954Y-19473662D01*
X12962973Y-19510651D01*
G37*
G36*
X15502973Y-19510651D02*
G01*
X15665500Y-19583012D01*
X15809430Y-19687584D01*
X15928473Y-19819795D01*
X16017427Y-19973867D01*
X16072404Y-20143067D01*
X16091000Y-20320000D01*
X16072404Y-20496933D01*
X16017427Y-20666133D01*
X15928473Y-20820205D01*
X15809430Y-20952416D01*
X15665500Y-21056988D01*
X15502973Y-21129349D01*
X15328954Y-21166338D01*
X15151046Y-21166338D01*
X14977027Y-21129349D01*
X14814500Y-21056988D01*
X14670570Y-20952416D01*
X14551527Y-20820205D01*
X14462573Y-20666133D01*
X14407596Y-20496933D01*
X14389000Y-20320000D01*
X14407596Y-20143067D01*
X14462573Y-19973867D01*
X14551527Y-19819795D01*
X14670570Y-19687584D01*
X14814500Y-19583012D01*
X14977027Y-19510651D01*
X15151046Y-19473662D01*
X15328954Y-19473662D01*
X15502973Y-19510651D01*
G37*
G36*
X18042973Y-19510651D02*
G01*
X18205500Y-19583012D01*
X18349430Y-19687584D01*
X18468473Y-19819795D01*
X18557427Y-19973867D01*
X18612404Y-20143067D01*
X18631000Y-20320000D01*
X18612404Y-20496933D01*
X18557427Y-20666133D01*
X18468473Y-20820205D01*
X18349430Y-20952416D01*
X18205500Y-21056988D01*
X18042973Y-21129349D01*
X17868954Y-21166338D01*
X17691046Y-21166338D01*
X17517027Y-21129349D01*
X17354500Y-21056988D01*
X17210570Y-20952416D01*
X17091527Y-20820205D01*
X17002573Y-20666133D01*
X16947596Y-20496933D01*
X16929000Y-20320000D01*
X16947596Y-20143067D01*
X17002573Y-19973867D01*
X17091527Y-19819795D01*
X17210570Y-19687584D01*
X17354500Y-19583012D01*
X17517027Y-19510651D01*
X17691046Y-19473662D01*
X17868954Y-19473662D01*
X18042973Y-19510651D01*
G37*
G36*
X20582973Y-19510651D02*
G01*
X20745500Y-19583012D01*
X20889430Y-19687584D01*
X21008473Y-19819795D01*
X21097427Y-19973867D01*
X21152404Y-20143067D01*
X21171000Y-20320000D01*
X21152404Y-20496933D01*
X21097427Y-20666133D01*
X21008473Y-20820205D01*
X20889430Y-20952416D01*
X20745500Y-21056988D01*
X20582973Y-21129349D01*
X20408954Y-21166338D01*
X20231046Y-21166338D01*
X20057027Y-21129349D01*
X19894500Y-21056988D01*
X19750570Y-20952416D01*
X19631527Y-20820205D01*
X19542573Y-20666133D01*
X19487596Y-20496933D01*
X19469000Y-20320000D01*
X19487596Y-20143067D01*
X19542573Y-19973867D01*
X19631527Y-19819795D01*
X19750570Y-19687584D01*
X19894500Y-19583012D01*
X20057027Y-19510651D01*
X20231046Y-19473662D01*
X20408954Y-19473662D01*
X20582973Y-19510651D01*
G37*
G36*
X28202973Y-19510651D02*
G01*
X28365500Y-19583012D01*
X28509430Y-19687584D01*
X28628473Y-19819795D01*
X28717427Y-19973867D01*
X28772404Y-20143067D01*
X28791000Y-20320000D01*
X28772404Y-20496933D01*
X28717427Y-20666133D01*
X28628473Y-20820205D01*
X28509430Y-20952416D01*
X28365500Y-21056988D01*
X28202973Y-21129349D01*
X28028954Y-21166338D01*
X27851046Y-21166338D01*
X27677027Y-21129349D01*
X27514500Y-21056988D01*
X27370570Y-20952416D01*
X27251527Y-20820205D01*
X27162573Y-20666133D01*
X27107596Y-20496933D01*
X27089000Y-20320000D01*
X27107596Y-20143067D01*
X27162573Y-19973867D01*
X27251527Y-19819795D01*
X27370570Y-19687584D01*
X27514500Y-19583012D01*
X27677027Y-19510651D01*
X27851046Y-19473662D01*
X28028954Y-19473662D01*
X28202973Y-19510651D01*
G37*
G36*
X30742973Y-19510651D02*
G01*
X30905500Y-19583012D01*
X31049430Y-19687584D01*
X31168473Y-19819795D01*
X31257427Y-19973867D01*
X31312404Y-20143067D01*
X31331000Y-20320000D01*
X31312404Y-20496933D01*
X31257427Y-20666133D01*
X31168473Y-20820205D01*
X31049430Y-20952416D01*
X30905500Y-21056988D01*
X30742973Y-21129349D01*
X30568954Y-21166338D01*
X30391046Y-21166338D01*
X30217027Y-21129349D01*
X30054500Y-21056988D01*
X29910570Y-20952416D01*
X29791527Y-20820205D01*
X29702573Y-20666133D01*
X29647596Y-20496933D01*
X29629000Y-20320000D01*
X29647596Y-20143067D01*
X29702573Y-19973867D01*
X29791527Y-19819795D01*
X29910570Y-19687584D01*
X30054500Y-19583012D01*
X30217027Y-19510651D01*
X30391046Y-19473662D01*
X30568954Y-19473662D01*
X30742973Y-19510651D01*
G37*
G36*
X33282973Y-19510651D02*
G01*
X33445500Y-19583012D01*
X33589430Y-19687584D01*
X33708473Y-19819795D01*
X33797427Y-19973867D01*
X33852404Y-20143067D01*
X33871000Y-20320000D01*
X33852404Y-20496933D01*
X33797427Y-20666133D01*
X33708473Y-20820205D01*
X33589430Y-20952416D01*
X33445500Y-21056988D01*
X33282973Y-21129349D01*
X33108954Y-21166338D01*
X32931046Y-21166338D01*
X32757027Y-21129349D01*
X32594500Y-21056988D01*
X32450570Y-20952416D01*
X32331527Y-20820205D01*
X32242573Y-20666133D01*
X32187596Y-20496933D01*
X32169000Y-20320000D01*
X32187596Y-20143067D01*
X32242573Y-19973867D01*
X32331527Y-19819795D01*
X32450570Y-19687584D01*
X32594500Y-19583012D01*
X32757027Y-19510651D01*
X32931046Y-19473662D01*
X33108954Y-19473662D01*
X33282973Y-19510651D01*
G37*
G36*
X35822973Y-19510651D02*
G01*
X35985500Y-19583012D01*
X36129430Y-19687584D01*
X36248473Y-19819795D01*
X36337427Y-19973867D01*
X36392404Y-20143067D01*
X36411000Y-20320000D01*
X36392404Y-20496933D01*
X36337427Y-20666133D01*
X36248473Y-20820205D01*
X36129430Y-20952416D01*
X35985500Y-21056988D01*
X35822973Y-21129349D01*
X35648954Y-21166338D01*
X35471046Y-21166338D01*
X35297027Y-21129349D01*
X35134500Y-21056988D01*
X34990570Y-20952416D01*
X34871527Y-20820205D01*
X34782573Y-20666133D01*
X34727596Y-20496933D01*
X34709000Y-20320000D01*
X34727596Y-20143067D01*
X34782573Y-19973867D01*
X34871527Y-19819795D01*
X34990570Y-19687584D01*
X35134500Y-19583012D01*
X35297027Y-19510651D01*
X35471046Y-19473662D01*
X35648954Y-19473662D01*
X35822973Y-19510651D01*
G37*
G36*
X38362973Y-19510651D02*
G01*
X38525500Y-19583012D01*
X38669430Y-19687584D01*
X38788473Y-19819795D01*
X38877427Y-19973867D01*
X38932404Y-20143067D01*
X38951000Y-20320000D01*
X38932404Y-20496933D01*
X38877427Y-20666133D01*
X38788473Y-20820205D01*
X38669430Y-20952416D01*
X38525500Y-21056988D01*
X38362973Y-21129349D01*
X38188954Y-21166338D01*
X38011046Y-21166338D01*
X37837027Y-21129349D01*
X37674500Y-21056988D01*
X37530570Y-20952416D01*
X37411527Y-20820205D01*
X37322573Y-20666133D01*
X37267596Y-20496933D01*
X37249000Y-20320000D01*
X37267596Y-20143067D01*
X37322573Y-19973867D01*
X37411527Y-19819795D01*
X37530570Y-19687584D01*
X37674500Y-19583012D01*
X37837027Y-19510651D01*
X38011046Y-19473662D01*
X38188954Y-19473662D01*
X38362973Y-19510651D01*
G37*
G36*
X40902973Y-19510651D02*
G01*
X41065500Y-19583012D01*
X41209430Y-19687584D01*
X41328473Y-19819795D01*
X41417427Y-19973867D01*
X41472404Y-20143067D01*
X41491000Y-20320000D01*
X41472404Y-20496933D01*
X41417427Y-20666133D01*
X41328473Y-20820205D01*
X41209430Y-20952416D01*
X41065500Y-21056988D01*
X40902973Y-21129349D01*
X40728954Y-21166338D01*
X40551046Y-21166338D01*
X40377027Y-21129349D01*
X40214500Y-21056988D01*
X40070570Y-20952416D01*
X39951527Y-20820205D01*
X39862573Y-20666133D01*
X39807596Y-20496933D01*
X39789000Y-20320000D01*
X39807596Y-20143067D01*
X39862573Y-19973867D01*
X39951527Y-19819795D01*
X40070570Y-19687584D01*
X40214500Y-19583012D01*
X40377027Y-19510651D01*
X40551046Y-19473662D01*
X40728954Y-19473662D01*
X40902973Y-19510651D01*
G37*
G36*
X43442973Y-19510651D02*
G01*
X43605500Y-19583012D01*
X43749430Y-19687584D01*
X43868473Y-19819795D01*
X43957427Y-19973867D01*
X44012404Y-20143067D01*
X44031000Y-20320000D01*
X44012404Y-20496933D01*
X43957427Y-20666133D01*
X43868473Y-20820205D01*
X43749430Y-20952416D01*
X43605500Y-21056988D01*
X43442973Y-21129349D01*
X43268954Y-21166338D01*
X43091046Y-21166338D01*
X42917027Y-21129349D01*
X42754500Y-21056988D01*
X42610570Y-20952416D01*
X42491527Y-20820205D01*
X42402573Y-20666133D01*
X42347596Y-20496933D01*
X42329000Y-20320000D01*
X42347596Y-20143067D01*
X42402573Y-19973867D01*
X42491527Y-19819795D01*
X42610570Y-19687584D01*
X42754500Y-19583012D01*
X42917027Y-19510651D01*
X43091046Y-19473662D01*
X43268954Y-19473662D01*
X43442973Y-19510651D01*
G37*
G36*
X61529517Y-18502882D02*
G01*
X61546062Y-18513938D01*
X61557118Y-18530483D01*
X61561000Y-18550000D01*
X61561000Y-20050000D01*
X61557118Y-20069517D01*
X61546062Y-20086062D01*
X61529517Y-20097118D01*
X61510000Y-20101000D01*
X59510000Y-20101000D01*
X59490483Y-20097118D01*
X59473938Y-20086062D01*
X59462882Y-20069517D01*
X59459000Y-20050000D01*
X59459000Y-18550000D01*
X59462882Y-18530483D01*
X59473938Y-18513938D01*
X59490483Y-18502882D01*
X59510000Y-18499000D01*
X61510000Y-18499000D01*
X61529517Y-18502882D01*
G37*
G36*
X51733733Y-18431829D02*
G01*
X51738392Y-18433886D01*
X51741444Y-18434288D01*
X51779639Y-18452098D01*
X51832824Y-18475582D01*
X51909418Y-18552176D01*
X51932915Y-18605393D01*
X51950711Y-18643556D01*
X51951112Y-18646604D01*
X51953171Y-18651267D01*
X51961000Y-18718750D01*
X51961000Y-19206250D01*
X51953171Y-19273733D01*
X51951112Y-19278395D01*
X51950711Y-19281444D01*
X51932919Y-19319598D01*
X51909418Y-19372824D01*
X51832824Y-19449418D01*
X51779587Y-19472924D01*
X51741443Y-19490711D01*
X51738395Y-19491112D01*
X51733733Y-19493171D01*
X51666250Y-19501000D01*
X50753750Y-19501000D01*
X50686267Y-19493171D01*
X50681605Y-19491112D01*
X50678555Y-19490711D01*
X50640382Y-19472910D01*
X50587176Y-19449418D01*
X50510582Y-19372824D01*
X50487093Y-19319628D01*
X50469288Y-19281443D01*
X50468886Y-19278392D01*
X50466829Y-19273733D01*
X50459000Y-19206250D01*
X50459000Y-18718750D01*
X50466829Y-18651267D01*
X50468886Y-18646608D01*
X50469288Y-18643555D01*
X50487106Y-18605341D01*
X50510582Y-18552176D01*
X50587176Y-18475582D01*
X50640352Y-18452102D01*
X50678556Y-18434288D01*
X50681607Y-18433886D01*
X50686267Y-18431829D01*
X50753750Y-18424000D01*
X51666250Y-18424000D01*
X51733733Y-18431829D01*
G37*
G36*
X55229517Y-15052882D02*
G01*
X55246062Y-15063938D01*
X55257118Y-15080483D01*
X55261000Y-15100000D01*
X55261000Y-18900000D01*
X55257118Y-18919517D01*
X55246062Y-18936062D01*
X55229517Y-18947118D01*
X55210000Y-18951000D01*
X53210000Y-18951000D01*
X53190483Y-18947118D01*
X53173938Y-18936062D01*
X53162882Y-18919517D01*
X53159000Y-18900000D01*
X53159000Y-15100000D01*
X53162882Y-15080483D01*
X53173938Y-15063938D01*
X53190483Y-15052882D01*
X53210000Y-15049000D01*
X55210000Y-15049000D01*
X55229517Y-15052882D01*
G37*
G36*
X64233733Y-17344329D02*
G01*
X64238392Y-17346386D01*
X64241444Y-17346788D01*
X64279639Y-17364598D01*
X64332824Y-17388082D01*
X64409418Y-17464676D01*
X64432915Y-17517893D01*
X64450711Y-17556056D01*
X64451112Y-17559104D01*
X64453171Y-17563767D01*
X64461000Y-17631250D01*
X64461000Y-18118750D01*
X64453171Y-18186233D01*
X64451112Y-18190895D01*
X64450711Y-18193944D01*
X64432919Y-18232098D01*
X64409418Y-18285324D01*
X64332824Y-18361918D01*
X64279587Y-18385424D01*
X64241443Y-18403211D01*
X64238395Y-18403612D01*
X64233733Y-18405671D01*
X64166250Y-18413500D01*
X63253750Y-18413500D01*
X63186267Y-18405671D01*
X63181605Y-18403612D01*
X63178555Y-18403211D01*
X63140382Y-18385410D01*
X63087176Y-18361918D01*
X63010582Y-18285324D01*
X62987093Y-18232128D01*
X62969288Y-18193943D01*
X62968886Y-18190892D01*
X62966829Y-18186233D01*
X62959000Y-18118750D01*
X62959000Y-17631250D01*
X62966829Y-17563767D01*
X62968886Y-17559108D01*
X62969288Y-17556055D01*
X62987106Y-17517841D01*
X63010582Y-17464676D01*
X63087176Y-17388082D01*
X63140352Y-17364602D01*
X63178556Y-17346788D01*
X63181607Y-17346386D01*
X63186267Y-17344329D01*
X63253750Y-17336500D01*
X64166250Y-17336500D01*
X64233733Y-17344329D01*
G37*
G36*
X61529517Y-16202882D02*
G01*
X61546062Y-16213938D01*
X61557118Y-16230483D01*
X61561000Y-16250000D01*
X61561000Y-17750000D01*
X61557118Y-17769517D01*
X61546062Y-17786062D01*
X61529517Y-17797118D01*
X61510000Y-17801000D01*
X59510000Y-17801000D01*
X59490483Y-17797118D01*
X59473938Y-17786062D01*
X59462882Y-17769517D01*
X59459000Y-17750000D01*
X59459000Y-16250000D01*
X59462882Y-16230483D01*
X59473938Y-16213938D01*
X59490483Y-16202882D01*
X59510000Y-16199000D01*
X61510000Y-16199000D01*
X61529517Y-16202882D01*
G37*
G36*
X51733733Y-16556829D02*
G01*
X51738392Y-16558886D01*
X51741444Y-16559288D01*
X51779639Y-16577098D01*
X51832824Y-16600582D01*
X51909418Y-16677176D01*
X51932915Y-16730393D01*
X51950711Y-16768556D01*
X51951112Y-16771604D01*
X51953171Y-16776267D01*
X51961000Y-16843750D01*
X51961000Y-17331250D01*
X51953171Y-17398733D01*
X51951112Y-17403395D01*
X51950711Y-17406444D01*
X51932919Y-17444598D01*
X51909418Y-17497824D01*
X51832824Y-17574418D01*
X51779587Y-17597924D01*
X51741443Y-17615711D01*
X51738395Y-17616112D01*
X51733733Y-17618171D01*
X51666250Y-17626000D01*
X50753750Y-17626000D01*
X50686267Y-17618171D01*
X50681605Y-17616112D01*
X50678555Y-17615711D01*
X50640382Y-17597910D01*
X50587176Y-17574418D01*
X50510582Y-17497824D01*
X50487093Y-17444628D01*
X50469288Y-17406443D01*
X50468886Y-17403392D01*
X50466829Y-17398733D01*
X50459000Y-17331250D01*
X50459000Y-16843750D01*
X50466829Y-16776267D01*
X50468886Y-16771608D01*
X50469288Y-16768555D01*
X50487106Y-16730341D01*
X50510582Y-16677176D01*
X50587176Y-16600582D01*
X50640352Y-16577102D01*
X50678556Y-16559288D01*
X50681607Y-16558886D01*
X50686267Y-16556829D01*
X50753750Y-16549000D01*
X51666250Y-16549000D01*
X51733733Y-16556829D01*
G37*
G36*
X64233733Y-15469329D02*
G01*
X64238392Y-15471386D01*
X64241444Y-15471788D01*
X64279639Y-15489598D01*
X64332824Y-15513082D01*
X64409418Y-15589676D01*
X64432915Y-15642893D01*
X64450711Y-15681056D01*
X64451112Y-15684104D01*
X64453171Y-15688767D01*
X64461000Y-15756250D01*
X64461000Y-16243750D01*
X64453171Y-16311233D01*
X64451112Y-16315895D01*
X64450711Y-16318944D01*
X64432919Y-16357098D01*
X64409418Y-16410324D01*
X64332824Y-16486918D01*
X64279587Y-16510424D01*
X64241443Y-16528211D01*
X64238395Y-16528612D01*
X64233733Y-16530671D01*
X64166250Y-16538500D01*
X63253750Y-16538500D01*
X63186267Y-16530671D01*
X63181605Y-16528612D01*
X63178555Y-16528211D01*
X63140382Y-16510410D01*
X63087176Y-16486918D01*
X63010582Y-16410324D01*
X62987093Y-16357128D01*
X62969288Y-16318943D01*
X62968886Y-16315892D01*
X62966829Y-16311233D01*
X62959000Y-16243750D01*
X62959000Y-15756250D01*
X62966829Y-15688767D01*
X62968886Y-15684108D01*
X62969288Y-15681055D01*
X62987106Y-15642841D01*
X63010582Y-15589676D01*
X63087176Y-15513082D01*
X63140352Y-15489602D01*
X63178556Y-15471788D01*
X63181607Y-15471386D01*
X63186267Y-15469329D01*
X63253750Y-15461500D01*
X64166250Y-15461500D01*
X64233733Y-15469329D01*
G37*
G36*
X61529517Y-13902882D02*
G01*
X61546062Y-13913938D01*
X61557118Y-13930483D01*
X61561000Y-13950000D01*
X61561000Y-15450000D01*
X61557118Y-15469517D01*
X61546062Y-15486062D01*
X61529517Y-15497118D01*
X61510000Y-15501000D01*
X59510000Y-15501000D01*
X59490483Y-15497118D01*
X59473938Y-15486062D01*
X59462882Y-15469517D01*
X59459000Y-15450000D01*
X59459000Y-13950000D01*
X59462882Y-13930483D01*
X59473938Y-13913938D01*
X59490483Y-13902882D01*
X59510000Y-13899000D01*
X61510000Y-13899000D01*
X61529517Y-13902882D01*
G37*
G36*
X5342973Y-13160651D02*
G01*
X5505500Y-13233012D01*
X5649430Y-13337584D01*
X5768473Y-13469795D01*
X5857427Y-13623867D01*
X5912404Y-13793067D01*
X5931000Y-13970000D01*
X5912404Y-14146933D01*
X5857427Y-14316133D01*
X5768473Y-14470205D01*
X5649430Y-14602416D01*
X5505500Y-14706988D01*
X5342973Y-14779349D01*
X5168954Y-14816338D01*
X4991046Y-14816338D01*
X4817027Y-14779349D01*
X4654500Y-14706988D01*
X4510570Y-14602416D01*
X4391527Y-14470205D01*
X4302573Y-14316133D01*
X4247596Y-14146933D01*
X4229000Y-13970000D01*
X4247596Y-13793067D01*
X4302573Y-13623867D01*
X4391527Y-13469795D01*
X4510570Y-13337584D01*
X4654500Y-13233012D01*
X4817027Y-13160651D01*
X4991046Y-13123662D01*
X5168954Y-13123662D01*
X5342973Y-13160651D01*
G37*
G36*
X7882973Y-13160651D02*
G01*
X8045500Y-13233012D01*
X8189430Y-13337584D01*
X8308473Y-13469795D01*
X8397427Y-13623867D01*
X8452404Y-13793067D01*
X8471000Y-13970000D01*
X8452404Y-14146933D01*
X8397427Y-14316133D01*
X8308473Y-14470205D01*
X8189430Y-14602416D01*
X8045500Y-14706988D01*
X7882973Y-14779349D01*
X7708954Y-14816338D01*
X7531046Y-14816338D01*
X7357027Y-14779349D01*
X7194500Y-14706988D01*
X7050570Y-14602416D01*
X6931527Y-14470205D01*
X6842573Y-14316133D01*
X6787596Y-14146933D01*
X6769000Y-13970000D01*
X6787596Y-13793067D01*
X6842573Y-13623867D01*
X6931527Y-13469795D01*
X7050570Y-13337584D01*
X7194500Y-13233012D01*
X7357027Y-13160651D01*
X7531046Y-13123662D01*
X7708954Y-13123662D01*
X7882973Y-13160651D01*
G37*
G36*
X10422973Y-13160651D02*
G01*
X10585500Y-13233012D01*
X10729430Y-13337584D01*
X10848473Y-13469795D01*
X10937427Y-13623867D01*
X10992404Y-13793067D01*
X11011000Y-13970000D01*
X10992404Y-14146933D01*
X10937427Y-14316133D01*
X10848473Y-14470205D01*
X10729430Y-14602416D01*
X10585500Y-14706988D01*
X10422973Y-14779349D01*
X10248954Y-14816338D01*
X10071046Y-14816338D01*
X9897027Y-14779349D01*
X9734500Y-14706988D01*
X9590570Y-14602416D01*
X9471527Y-14470205D01*
X9382573Y-14316133D01*
X9327596Y-14146933D01*
X9309000Y-13970000D01*
X9327596Y-13793067D01*
X9382573Y-13623867D01*
X9471527Y-13469795D01*
X9590570Y-13337584D01*
X9734500Y-13233012D01*
X9897027Y-13160651D01*
X10071046Y-13123662D01*
X10248954Y-13123662D01*
X10422973Y-13160651D01*
G37*
G36*
X12962973Y-13160651D02*
G01*
X13125500Y-13233012D01*
X13269430Y-13337584D01*
X13388473Y-13469795D01*
X13477427Y-13623867D01*
X13532404Y-13793067D01*
X13551000Y-13970000D01*
X13532404Y-14146933D01*
X13477427Y-14316133D01*
X13388473Y-14470205D01*
X13269430Y-14602416D01*
X13125500Y-14706988D01*
X12962973Y-14779349D01*
X12788954Y-14816338D01*
X12611046Y-14816338D01*
X12437027Y-14779349D01*
X12274500Y-14706988D01*
X12130570Y-14602416D01*
X12011527Y-14470205D01*
X11922573Y-14316133D01*
X11867596Y-14146933D01*
X11849000Y-13970000D01*
X11867596Y-13793067D01*
X11922573Y-13623867D01*
X12011527Y-13469795D01*
X12130570Y-13337584D01*
X12274500Y-13233012D01*
X12437027Y-13160651D01*
X12611046Y-13123662D01*
X12788954Y-13123662D01*
X12962973Y-13160651D01*
G37*
G36*
X15502973Y-13160651D02*
G01*
X15665500Y-13233012D01*
X15809430Y-13337584D01*
X15928473Y-13469795D01*
X16017427Y-13623867D01*
X16072404Y-13793067D01*
X16091000Y-13970000D01*
X16072404Y-14146933D01*
X16017427Y-14316133D01*
X15928473Y-14470205D01*
X15809430Y-14602416D01*
X15665500Y-14706988D01*
X15502973Y-14779349D01*
X15328954Y-14816338D01*
X15151046Y-14816338D01*
X14977027Y-14779349D01*
X14814500Y-14706988D01*
X14670570Y-14602416D01*
X14551527Y-14470205D01*
X14462573Y-14316133D01*
X14407596Y-14146933D01*
X14389000Y-13970000D01*
X14407596Y-13793067D01*
X14462573Y-13623867D01*
X14551527Y-13469795D01*
X14670570Y-13337584D01*
X14814500Y-13233012D01*
X14977027Y-13160651D01*
X15151046Y-13123662D01*
X15328954Y-13123662D01*
X15502973Y-13160651D01*
G37*
G36*
X18042973Y-13160651D02*
G01*
X18205500Y-13233012D01*
X18349430Y-13337584D01*
X18468473Y-13469795D01*
X18557427Y-13623867D01*
X18612404Y-13793067D01*
X18631000Y-13970000D01*
X18612404Y-14146933D01*
X18557427Y-14316133D01*
X18468473Y-14470205D01*
X18349430Y-14602416D01*
X18205500Y-14706988D01*
X18042973Y-14779349D01*
X17868954Y-14816338D01*
X17691046Y-14816338D01*
X17517027Y-14779349D01*
X17354500Y-14706988D01*
X17210570Y-14602416D01*
X17091527Y-14470205D01*
X17002573Y-14316133D01*
X16947596Y-14146933D01*
X16929000Y-13970000D01*
X16947596Y-13793067D01*
X17002573Y-13623867D01*
X17091527Y-13469795D01*
X17210570Y-13337584D01*
X17354500Y-13233012D01*
X17517027Y-13160651D01*
X17691046Y-13123662D01*
X17868954Y-13123662D01*
X18042973Y-13160651D01*
G37*
G36*
X20582973Y-13160651D02*
G01*
X20745500Y-13233012D01*
X20889430Y-13337584D01*
X21008473Y-13469795D01*
X21097427Y-13623867D01*
X21152404Y-13793067D01*
X21171000Y-13970000D01*
X21152404Y-14146933D01*
X21097427Y-14316133D01*
X21008473Y-14470205D01*
X20889430Y-14602416D01*
X20745500Y-14706988D01*
X20582973Y-14779349D01*
X20408954Y-14816338D01*
X20231046Y-14816338D01*
X20057027Y-14779349D01*
X19894500Y-14706988D01*
X19750570Y-14602416D01*
X19631527Y-14470205D01*
X19542573Y-14316133D01*
X19487596Y-14146933D01*
X19469000Y-13970000D01*
X19487596Y-13793067D01*
X19542573Y-13623867D01*
X19631527Y-13469795D01*
X19750570Y-13337584D01*
X19894500Y-13233012D01*
X20057027Y-13160651D01*
X20231046Y-13123662D01*
X20408954Y-13123662D01*
X20582973Y-13160651D01*
G37*
G36*
X23122973Y-13160651D02*
G01*
X23285500Y-13233012D01*
X23429430Y-13337584D01*
X23548473Y-13469795D01*
X23637427Y-13623867D01*
X23692404Y-13793067D01*
X23711000Y-13970000D01*
X23692404Y-14146933D01*
X23637427Y-14316133D01*
X23548473Y-14470205D01*
X23429430Y-14602416D01*
X23285500Y-14706988D01*
X23122973Y-14779349D01*
X22948954Y-14816338D01*
X22771046Y-14816338D01*
X22597027Y-14779349D01*
X22434500Y-14706988D01*
X22290570Y-14602416D01*
X22171527Y-14470205D01*
X22082573Y-14316133D01*
X22027596Y-14146933D01*
X22009000Y-13970000D01*
X22027596Y-13793067D01*
X22082573Y-13623867D01*
X22171527Y-13469795D01*
X22290570Y-13337584D01*
X22434500Y-13233012D01*
X22597027Y-13160651D01*
X22771046Y-13123662D01*
X22948954Y-13123662D01*
X23122973Y-13160651D01*
G37*
G36*
X28202973Y-13160651D02*
G01*
X28365500Y-13233012D01*
X28509430Y-13337584D01*
X28628473Y-13469795D01*
X28717427Y-13623867D01*
X28772404Y-13793067D01*
X28791000Y-13970000D01*
X28772404Y-14146933D01*
X28717427Y-14316133D01*
X28628473Y-14470205D01*
X28509430Y-14602416D01*
X28365500Y-14706988D01*
X28202973Y-14779349D01*
X28028954Y-14816338D01*
X27851046Y-14816338D01*
X27677027Y-14779349D01*
X27514500Y-14706988D01*
X27370570Y-14602416D01*
X27251527Y-14470205D01*
X27162573Y-14316133D01*
X27107596Y-14146933D01*
X27089000Y-13970000D01*
X27107596Y-13793067D01*
X27162573Y-13623867D01*
X27251527Y-13469795D01*
X27370570Y-13337584D01*
X27514500Y-13233012D01*
X27677027Y-13160651D01*
X27851046Y-13123662D01*
X28028954Y-13123662D01*
X28202973Y-13160651D01*
G37*
G36*
X30742973Y-13160651D02*
G01*
X30905500Y-13233012D01*
X31049430Y-13337584D01*
X31168473Y-13469795D01*
X31257427Y-13623867D01*
X31312404Y-13793067D01*
X31331000Y-13970000D01*
X31312404Y-14146933D01*
X31257427Y-14316133D01*
X31168473Y-14470205D01*
X31049430Y-14602416D01*
X30905500Y-14706988D01*
X30742973Y-14779349D01*
X30568954Y-14816338D01*
X30391046Y-14816338D01*
X30217027Y-14779349D01*
X30054500Y-14706988D01*
X29910570Y-14602416D01*
X29791527Y-14470205D01*
X29702573Y-14316133D01*
X29647596Y-14146933D01*
X29629000Y-13970000D01*
X29647596Y-13793067D01*
X29702573Y-13623867D01*
X29791527Y-13469795D01*
X29910570Y-13337584D01*
X30054500Y-13233012D01*
X30217027Y-13160651D01*
X30391046Y-13123662D01*
X30568954Y-13123662D01*
X30742973Y-13160651D01*
G37*
G36*
X33282973Y-13160651D02*
G01*
X33445500Y-13233012D01*
X33589430Y-13337584D01*
X33708473Y-13469795D01*
X33797427Y-13623867D01*
X33852404Y-13793067D01*
X33871000Y-13970000D01*
X33852404Y-14146933D01*
X33797427Y-14316133D01*
X33708473Y-14470205D01*
X33589430Y-14602416D01*
X33445500Y-14706988D01*
X33282973Y-14779349D01*
X33108954Y-14816338D01*
X32931046Y-14816338D01*
X32757027Y-14779349D01*
X32594500Y-14706988D01*
X32450570Y-14602416D01*
X32331527Y-14470205D01*
X32242573Y-14316133D01*
X32187596Y-14146933D01*
X32169000Y-13970000D01*
X32187596Y-13793067D01*
X32242573Y-13623867D01*
X32331527Y-13469795D01*
X32450570Y-13337584D01*
X32594500Y-13233012D01*
X32757027Y-13160651D01*
X32931046Y-13123662D01*
X33108954Y-13123662D01*
X33282973Y-13160651D01*
G37*
G36*
X35822973Y-13160651D02*
G01*
X35985500Y-13233012D01*
X36129430Y-13337584D01*
X36248473Y-13469795D01*
X36337427Y-13623867D01*
X36392404Y-13793067D01*
X36411000Y-13970000D01*
X36392404Y-14146933D01*
X36337427Y-14316133D01*
X36248473Y-14470205D01*
X36129430Y-14602416D01*
X35985500Y-14706988D01*
X35822973Y-14779349D01*
X35648954Y-14816338D01*
X35471046Y-14816338D01*
X35297027Y-14779349D01*
X35134500Y-14706988D01*
X34990570Y-14602416D01*
X34871527Y-14470205D01*
X34782573Y-14316133D01*
X34727596Y-14146933D01*
X34709000Y-13970000D01*
X34727596Y-13793067D01*
X34782573Y-13623867D01*
X34871527Y-13469795D01*
X34990570Y-13337584D01*
X35134500Y-13233012D01*
X35297027Y-13160651D01*
X35471046Y-13123662D01*
X35648954Y-13123662D01*
X35822973Y-13160651D01*
G37*
G36*
X38362973Y-13160651D02*
G01*
X38525500Y-13233012D01*
X38669430Y-13337584D01*
X38788473Y-13469795D01*
X38877427Y-13623867D01*
X38932404Y-13793067D01*
X38951000Y-13970000D01*
X38932404Y-14146933D01*
X38877427Y-14316133D01*
X38788473Y-14470205D01*
X38669430Y-14602416D01*
X38525500Y-14706988D01*
X38362973Y-14779349D01*
X38188954Y-14816338D01*
X38011046Y-14816338D01*
X37837027Y-14779349D01*
X37674500Y-14706988D01*
X37530570Y-14602416D01*
X37411527Y-14470205D01*
X37322573Y-14316133D01*
X37267596Y-14146933D01*
X37249000Y-13970000D01*
X37267596Y-13793067D01*
X37322573Y-13623867D01*
X37411527Y-13469795D01*
X37530570Y-13337584D01*
X37674500Y-13233012D01*
X37837027Y-13160651D01*
X38011046Y-13123662D01*
X38188954Y-13123662D01*
X38362973Y-13160651D01*
G37*
G36*
X40902973Y-13160651D02*
G01*
X41065500Y-13233012D01*
X41209430Y-13337584D01*
X41328473Y-13469795D01*
X41417427Y-13623867D01*
X41472404Y-13793067D01*
X41491000Y-13970000D01*
X41472404Y-14146933D01*
X41417427Y-14316133D01*
X41328473Y-14470205D01*
X41209430Y-14602416D01*
X41065500Y-14706988D01*
X40902973Y-14779349D01*
X40728954Y-14816338D01*
X40551046Y-14816338D01*
X40377027Y-14779349D01*
X40214500Y-14706988D01*
X40070570Y-14602416D01*
X39951527Y-14470205D01*
X39862573Y-14316133D01*
X39807596Y-14146933D01*
X39789000Y-13970000D01*
X39807596Y-13793067D01*
X39862573Y-13623867D01*
X39951527Y-13469795D01*
X40070570Y-13337584D01*
X40214500Y-13233012D01*
X40377027Y-13160651D01*
X40551046Y-13123662D01*
X40728954Y-13123662D01*
X40902973Y-13160651D01*
G37*
G36*
X43442973Y-13160651D02*
G01*
X43605500Y-13233012D01*
X43749430Y-13337584D01*
X43868473Y-13469795D01*
X43957427Y-13623867D01*
X44012404Y-13793067D01*
X44031000Y-13970000D01*
X44012404Y-14146933D01*
X43957427Y-14316133D01*
X43868473Y-14470205D01*
X43749430Y-14602416D01*
X43605500Y-14706988D01*
X43442973Y-14779349D01*
X43268954Y-14816338D01*
X43091046Y-14816338D01*
X42917027Y-14779349D01*
X42754500Y-14706988D01*
X42610570Y-14602416D01*
X42491527Y-14470205D01*
X42402573Y-14316133D01*
X42347596Y-14146933D01*
X42329000Y-13970000D01*
X42347596Y-13793067D01*
X42402573Y-13623867D01*
X42491527Y-13469795D01*
X42610570Y-13337584D01*
X42754500Y-13233012D01*
X42917027Y-13160651D01*
X43091046Y-13123662D01*
X43268954Y-13123662D01*
X43442973Y-13160651D01*
G37*
G36*
X45982973Y-13160651D02*
G01*
X46145500Y-13233012D01*
X46289430Y-13337584D01*
X46408473Y-13469795D01*
X46497427Y-13623867D01*
X46552404Y-13793067D01*
X46571000Y-13970000D01*
X46552404Y-14146933D01*
X46497427Y-14316133D01*
X46408473Y-14470205D01*
X46289430Y-14602416D01*
X46145500Y-14706988D01*
X45982973Y-14779349D01*
X45808954Y-14816338D01*
X45631046Y-14816338D01*
X45457027Y-14779349D01*
X45294500Y-14706988D01*
X45150570Y-14602416D01*
X45031527Y-14470205D01*
X44942573Y-14316133D01*
X44887596Y-14146933D01*
X44869000Y-13970000D01*
X44887596Y-13793067D01*
X44942573Y-13623867D01*
X45031527Y-13469795D01*
X45150570Y-13337584D01*
X45294500Y-13233012D01*
X45457027Y-13160651D01*
X45631046Y-13123662D01*
X45808954Y-13123662D01*
X45982973Y-13160651D01*
G37*
G36*
X57629517Y-11577882D02*
G01*
X57646062Y-11588938D01*
X57657118Y-11605483D01*
X57661000Y-11625000D01*
X57661000Y-12075000D01*
X57657118Y-12094517D01*
X57646062Y-12111062D01*
X57629517Y-12122118D01*
X57610000Y-12126000D01*
X56910000Y-12126000D01*
X56890483Y-12122118D01*
X56873938Y-12111062D01*
X56862882Y-12094517D01*
X56859000Y-12075000D01*
X56859000Y-11625000D01*
X56862882Y-11605483D01*
X56873938Y-11588938D01*
X56890483Y-11577882D01*
X56910000Y-11574000D01*
X57610000Y-11574000D01*
X57629517Y-11577882D01*
G37*
G36*
X59629517Y-10927882D02*
G01*
X59646062Y-10938938D01*
X59657118Y-10955483D01*
X59661000Y-10975000D01*
X59661000Y-11425000D01*
X59657118Y-11444517D01*
X59646062Y-11461062D01*
X59629517Y-11472118D01*
X59610000Y-11476000D01*
X58910000Y-11476000D01*
X58890483Y-11472118D01*
X58873938Y-11461062D01*
X58862882Y-11444517D01*
X58859000Y-11425000D01*
X58859000Y-10975000D01*
X58862882Y-10955483D01*
X58873938Y-10938938D01*
X58890483Y-10927882D01*
X58910000Y-10924000D01*
X59610000Y-10924000D01*
X59629517Y-10927882D01*
G37*
G36*
X57629517Y-10277882D02*
G01*
X57646062Y-10288938D01*
X57657118Y-10305483D01*
X57661000Y-10325000D01*
X57661000Y-10775000D01*
X57657118Y-10794517D01*
X57646062Y-10811062D01*
X57629517Y-10822118D01*
X57610000Y-10826000D01*
X56910000Y-10826000D01*
X56890483Y-10822118D01*
X56873938Y-10811062D01*
X56862882Y-10794517D01*
X56859000Y-10775000D01*
X56859000Y-10325000D01*
X56862882Y-10305483D01*
X56873938Y-10288938D01*
X56890483Y-10277882D01*
X56910000Y-10274000D01*
X57610000Y-10274000D01*
X57629517Y-10277882D01*
G37*
G36*
X23679517Y-5502882D02*
G01*
X23696062Y-5513938D01*
X23707118Y-5530483D01*
X23711000Y-5550000D01*
X23711000Y-7150000D01*
X23707118Y-7169517D01*
X23696062Y-7186062D01*
X23679517Y-7197118D01*
X23660000Y-7201000D01*
X22060000Y-7201000D01*
X22040483Y-7197118D01*
X22023938Y-7186062D01*
X22012882Y-7169517D01*
X22009000Y-7150000D01*
X22009000Y-5550000D01*
X22012882Y-5530483D01*
X22023938Y-5513938D01*
X22040483Y-5502882D01*
X22060000Y-5499000D01*
X23660000Y-5499000D01*
X23679517Y-5502882D01*
G37*
G36*
X46539517Y-5502882D02*
G01*
X46556062Y-5513938D01*
X46567118Y-5530483D01*
X46571000Y-5550000D01*
X46571000Y-7150000D01*
X46567118Y-7169517D01*
X46556062Y-7186062D01*
X46539517Y-7197118D01*
X46520000Y-7201000D01*
X44920000Y-7201000D01*
X44900483Y-7197118D01*
X44883938Y-7186062D01*
X44872882Y-7169517D01*
X44869000Y-7150000D01*
X44869000Y-5550000D01*
X44872882Y-5530483D01*
X44883938Y-5513938D01*
X44900483Y-5502882D01*
X44920000Y-5499000D01*
X46520000Y-5499000D01*
X46539517Y-5502882D01*
G37*
G36*
X5342973Y-5540651D02*
G01*
X5505500Y-5613012D01*
X5649430Y-5717584D01*
X5768473Y-5849795D01*
X5857427Y-6003867D01*
X5912404Y-6173067D01*
X5931000Y-6350000D01*
X5912404Y-6526933D01*
X5857427Y-6696133D01*
X5768473Y-6850205D01*
X5649430Y-6982416D01*
X5505500Y-7086988D01*
X5342973Y-7159349D01*
X5168954Y-7196338D01*
X4991046Y-7196338D01*
X4817027Y-7159349D01*
X4654500Y-7086988D01*
X4510570Y-6982416D01*
X4391527Y-6850205D01*
X4302573Y-6696133D01*
X4247596Y-6526933D01*
X4229000Y-6350000D01*
X4247596Y-6173067D01*
X4302573Y-6003867D01*
X4391527Y-5849795D01*
X4510570Y-5717584D01*
X4654500Y-5613012D01*
X4817027Y-5540651D01*
X4991046Y-5503662D01*
X5168954Y-5503662D01*
X5342973Y-5540651D01*
G37*
G36*
X7882973Y-5540651D02*
G01*
X8045500Y-5613012D01*
X8189430Y-5717584D01*
X8308473Y-5849795D01*
X8397427Y-6003867D01*
X8452404Y-6173067D01*
X8471000Y-6350000D01*
X8452404Y-6526933D01*
X8397427Y-6696133D01*
X8308473Y-6850205D01*
X8189430Y-6982416D01*
X8045500Y-7086988D01*
X7882973Y-7159349D01*
X7708954Y-7196338D01*
X7531046Y-7196338D01*
X7357027Y-7159349D01*
X7194500Y-7086988D01*
X7050570Y-6982416D01*
X6931527Y-6850205D01*
X6842573Y-6696133D01*
X6787596Y-6526933D01*
X6769000Y-6350000D01*
X6787596Y-6173067D01*
X6842573Y-6003867D01*
X6931527Y-5849795D01*
X7050570Y-5717584D01*
X7194500Y-5613012D01*
X7357027Y-5540651D01*
X7531046Y-5503662D01*
X7708954Y-5503662D01*
X7882973Y-5540651D01*
G37*
G36*
X10422973Y-5540651D02*
G01*
X10585500Y-5613012D01*
X10729430Y-5717584D01*
X10848473Y-5849795D01*
X10937427Y-6003867D01*
X10992404Y-6173067D01*
X11011000Y-6350000D01*
X10992404Y-6526933D01*
X10937427Y-6696133D01*
X10848473Y-6850205D01*
X10729430Y-6982416D01*
X10585500Y-7086988D01*
X10422973Y-7159349D01*
X10248954Y-7196338D01*
X10071046Y-7196338D01*
X9897027Y-7159349D01*
X9734500Y-7086988D01*
X9590570Y-6982416D01*
X9471527Y-6850205D01*
X9382573Y-6696133D01*
X9327596Y-6526933D01*
X9309000Y-6350000D01*
X9327596Y-6173067D01*
X9382573Y-6003867D01*
X9471527Y-5849795D01*
X9590570Y-5717584D01*
X9734500Y-5613012D01*
X9897027Y-5540651D01*
X10071046Y-5503662D01*
X10248954Y-5503662D01*
X10422973Y-5540651D01*
G37*
G36*
X12962973Y-5540651D02*
G01*
X13125500Y-5613012D01*
X13269430Y-5717584D01*
X13388473Y-5849795D01*
X13477427Y-6003867D01*
X13532404Y-6173067D01*
X13551000Y-6350000D01*
X13532404Y-6526933D01*
X13477427Y-6696133D01*
X13388473Y-6850205D01*
X13269430Y-6982416D01*
X13125500Y-7086988D01*
X12962973Y-7159349D01*
X12788954Y-7196338D01*
X12611046Y-7196338D01*
X12437027Y-7159349D01*
X12274500Y-7086988D01*
X12130570Y-6982416D01*
X12011527Y-6850205D01*
X11922573Y-6696133D01*
X11867596Y-6526933D01*
X11849000Y-6350000D01*
X11867596Y-6173067D01*
X11922573Y-6003867D01*
X12011527Y-5849795D01*
X12130570Y-5717584D01*
X12274500Y-5613012D01*
X12437027Y-5540651D01*
X12611046Y-5503662D01*
X12788954Y-5503662D01*
X12962973Y-5540651D01*
G37*
G36*
X15502973Y-5540651D02*
G01*
X15665500Y-5613012D01*
X15809430Y-5717584D01*
X15928473Y-5849795D01*
X16017427Y-6003867D01*
X16072404Y-6173067D01*
X16091000Y-6350000D01*
X16072404Y-6526933D01*
X16017427Y-6696133D01*
X15928473Y-6850205D01*
X15809430Y-6982416D01*
X15665500Y-7086988D01*
X15502973Y-7159349D01*
X15328954Y-7196338D01*
X15151046Y-7196338D01*
X14977027Y-7159349D01*
X14814500Y-7086988D01*
X14670570Y-6982416D01*
X14551527Y-6850205D01*
X14462573Y-6696133D01*
X14407596Y-6526933D01*
X14389000Y-6350000D01*
X14407596Y-6173067D01*
X14462573Y-6003867D01*
X14551527Y-5849795D01*
X14670570Y-5717584D01*
X14814500Y-5613012D01*
X14977027Y-5540651D01*
X15151046Y-5503662D01*
X15328954Y-5503662D01*
X15502973Y-5540651D01*
G37*
G36*
X18042973Y-5540651D02*
G01*
X18205500Y-5613012D01*
X18349430Y-5717584D01*
X18468473Y-5849795D01*
X18557427Y-6003867D01*
X18612404Y-6173067D01*
X18631000Y-6350000D01*
X18612404Y-6526933D01*
X18557427Y-6696133D01*
X18468473Y-6850205D01*
X18349430Y-6982416D01*
X18205500Y-7086988D01*
X18042973Y-7159349D01*
X17868954Y-7196338D01*
X17691046Y-7196338D01*
X17517027Y-7159349D01*
X17354500Y-7086988D01*
X17210570Y-6982416D01*
X17091527Y-6850205D01*
X17002573Y-6696133D01*
X16947596Y-6526933D01*
X16929000Y-6350000D01*
X16947596Y-6173067D01*
X17002573Y-6003867D01*
X17091527Y-5849795D01*
X17210570Y-5717584D01*
X17354500Y-5613012D01*
X17517027Y-5540651D01*
X17691046Y-5503662D01*
X17868954Y-5503662D01*
X18042973Y-5540651D01*
G37*
G36*
X20582973Y-5540651D02*
G01*
X20745500Y-5613012D01*
X20889430Y-5717584D01*
X21008473Y-5849795D01*
X21097427Y-6003867D01*
X21152404Y-6173067D01*
X21171000Y-6350000D01*
X21152404Y-6526933D01*
X21097427Y-6696133D01*
X21008473Y-6850205D01*
X20889430Y-6982416D01*
X20745500Y-7086988D01*
X20582973Y-7159349D01*
X20408954Y-7196338D01*
X20231046Y-7196338D01*
X20057027Y-7159349D01*
X19894500Y-7086988D01*
X19750570Y-6982416D01*
X19631527Y-6850205D01*
X19542573Y-6696133D01*
X19487596Y-6526933D01*
X19469000Y-6350000D01*
X19487596Y-6173067D01*
X19542573Y-6003867D01*
X19631527Y-5849795D01*
X19750570Y-5717584D01*
X19894500Y-5613012D01*
X20057027Y-5540651D01*
X20231046Y-5503662D01*
X20408954Y-5503662D01*
X20582973Y-5540651D01*
G37*
G36*
X28202973Y-5540651D02*
G01*
X28365500Y-5613012D01*
X28509430Y-5717584D01*
X28628473Y-5849795D01*
X28717427Y-6003867D01*
X28772404Y-6173067D01*
X28791000Y-6350000D01*
X28772404Y-6526933D01*
X28717427Y-6696133D01*
X28628473Y-6850205D01*
X28509430Y-6982416D01*
X28365500Y-7086988D01*
X28202973Y-7159349D01*
X28028954Y-7196338D01*
X27851046Y-7196338D01*
X27677027Y-7159349D01*
X27514500Y-7086988D01*
X27370570Y-6982416D01*
X27251527Y-6850205D01*
X27162573Y-6696133D01*
X27107596Y-6526933D01*
X27089000Y-6350000D01*
X27107596Y-6173067D01*
X27162573Y-6003867D01*
X27251527Y-5849795D01*
X27370570Y-5717584D01*
X27514500Y-5613012D01*
X27677027Y-5540651D01*
X27851046Y-5503662D01*
X28028954Y-5503662D01*
X28202973Y-5540651D01*
G37*
G36*
X30742973Y-5540651D02*
G01*
X30905500Y-5613012D01*
X31049430Y-5717584D01*
X31168473Y-5849795D01*
X31257427Y-6003867D01*
X31312404Y-6173067D01*
X31331000Y-6350000D01*
X31312404Y-6526933D01*
X31257427Y-6696133D01*
X31168473Y-6850205D01*
X31049430Y-6982416D01*
X30905500Y-7086988D01*
X30742973Y-7159349D01*
X30568954Y-7196338D01*
X30391046Y-7196338D01*
X30217027Y-7159349D01*
X30054500Y-7086988D01*
X29910570Y-6982416D01*
X29791527Y-6850205D01*
X29702573Y-6696133D01*
X29647596Y-6526933D01*
X29629000Y-6350000D01*
X29647596Y-6173067D01*
X29702573Y-6003867D01*
X29791527Y-5849795D01*
X29910570Y-5717584D01*
X30054500Y-5613012D01*
X30217027Y-5540651D01*
X30391046Y-5503662D01*
X30568954Y-5503662D01*
X30742973Y-5540651D01*
G37*
G36*
X33282973Y-5540651D02*
G01*
X33445500Y-5613012D01*
X33589430Y-5717584D01*
X33708473Y-5849795D01*
X33797427Y-6003867D01*
X33852404Y-6173067D01*
X33871000Y-6350000D01*
X33852404Y-6526933D01*
X33797427Y-6696133D01*
X33708473Y-6850205D01*
X33589430Y-6982416D01*
X33445500Y-7086988D01*
X33282973Y-7159349D01*
X33108954Y-7196338D01*
X32931046Y-7196338D01*
X32757027Y-7159349D01*
X32594500Y-7086988D01*
X32450570Y-6982416D01*
X32331527Y-6850205D01*
X32242573Y-6696133D01*
X32187596Y-6526933D01*
X32169000Y-6350000D01*
X32187596Y-6173067D01*
X32242573Y-6003867D01*
X32331527Y-5849795D01*
X32450570Y-5717584D01*
X32594500Y-5613012D01*
X32757027Y-5540651D01*
X32931046Y-5503662D01*
X33108954Y-5503662D01*
X33282973Y-5540651D01*
G37*
G36*
X35822973Y-5540651D02*
G01*
X35985500Y-5613012D01*
X36129430Y-5717584D01*
X36248473Y-5849795D01*
X36337427Y-6003867D01*
X36392404Y-6173067D01*
X36411000Y-6350000D01*
X36392404Y-6526933D01*
X36337427Y-6696133D01*
X36248473Y-6850205D01*
X36129430Y-6982416D01*
X35985500Y-7086988D01*
X35822973Y-7159349D01*
X35648954Y-7196338D01*
X35471046Y-7196338D01*
X35297027Y-7159349D01*
X35134500Y-7086988D01*
X34990570Y-6982416D01*
X34871527Y-6850205D01*
X34782573Y-6696133D01*
X34727596Y-6526933D01*
X34709000Y-6350000D01*
X34727596Y-6173067D01*
X34782573Y-6003867D01*
X34871527Y-5849795D01*
X34990570Y-5717584D01*
X35134500Y-5613012D01*
X35297027Y-5540651D01*
X35471046Y-5503662D01*
X35648954Y-5503662D01*
X35822973Y-5540651D01*
G37*
G36*
X38362973Y-5540651D02*
G01*
X38525500Y-5613012D01*
X38669430Y-5717584D01*
X38788473Y-5849795D01*
X38877427Y-6003867D01*
X38932404Y-6173067D01*
X38951000Y-6350000D01*
X38932404Y-6526933D01*
X38877427Y-6696133D01*
X38788473Y-6850205D01*
X38669430Y-6982416D01*
X38525500Y-7086988D01*
X38362973Y-7159349D01*
X38188954Y-7196338D01*
X38011046Y-7196338D01*
X37837027Y-7159349D01*
X37674500Y-7086988D01*
X37530570Y-6982416D01*
X37411527Y-6850205D01*
X37322573Y-6696133D01*
X37267596Y-6526933D01*
X37249000Y-6350000D01*
X37267596Y-6173067D01*
X37322573Y-6003867D01*
X37411527Y-5849795D01*
X37530570Y-5717584D01*
X37674500Y-5613012D01*
X37837027Y-5540651D01*
X38011046Y-5503662D01*
X38188954Y-5503662D01*
X38362973Y-5540651D01*
G37*
G36*
X40902973Y-5540651D02*
G01*
X41065500Y-5613012D01*
X41209430Y-5717584D01*
X41328473Y-5849795D01*
X41417427Y-6003867D01*
X41472404Y-6173067D01*
X41491000Y-6350000D01*
X41472404Y-6526933D01*
X41417427Y-6696133D01*
X41328473Y-6850205D01*
X41209430Y-6982416D01*
X41065500Y-7086988D01*
X40902973Y-7159349D01*
X40728954Y-7196338D01*
X40551046Y-7196338D01*
X40377027Y-7159349D01*
X40214500Y-7086988D01*
X40070570Y-6982416D01*
X39951527Y-6850205D01*
X39862573Y-6696133D01*
X39807596Y-6526933D01*
X39789000Y-6350000D01*
X39807596Y-6173067D01*
X39862573Y-6003867D01*
X39951527Y-5849795D01*
X40070570Y-5717584D01*
X40214500Y-5613012D01*
X40377027Y-5540651D01*
X40551046Y-5503662D01*
X40728954Y-5503662D01*
X40902973Y-5540651D01*
G37*
G36*
X43442973Y-5540651D02*
G01*
X43605500Y-5613012D01*
X43749430Y-5717584D01*
X43868473Y-5849795D01*
X43957427Y-6003867D01*
X44012404Y-6173067D01*
X44031000Y-6350000D01*
X44012404Y-6526933D01*
X43957427Y-6696133D01*
X43868473Y-6850205D01*
X43749430Y-6982416D01*
X43605500Y-7086988D01*
X43442973Y-7159349D01*
X43268954Y-7196338D01*
X43091046Y-7196338D01*
X42917027Y-7159349D01*
X42754500Y-7086988D01*
X42610570Y-6982416D01*
X42491527Y-6850205D01*
X42402573Y-6696133D01*
X42347596Y-6526933D01*
X42329000Y-6350000D01*
X42347596Y-6173067D01*
X42402573Y-6003867D01*
X42491527Y-5849795D01*
X42610570Y-5717584D01*
X42754500Y-5613012D01*
X42917027Y-5540651D01*
X43091046Y-5503662D01*
X43268954Y-5503662D01*
X43442973Y-5540651D01*
G37*
M02*
