%TF.GenerationSoftware,KiCad,Pcbnew,8.0.5*%
%TF.CreationDate,2024-09-23T16:37:59-07:00*%
%TF.ProjectId,fluke_884x_continuity_buzzer,666c756b-655f-4383-9834-785f636f6e74,4*%
%TF.SameCoordinates,Original*%
%TF.FileFunction,Copper,L2,Inr*%
%TF.FilePolarity,Positive*%
%FSLAX46Y46*%
G04 Gerber Fmt 4.6, Leading zero omitted, Abs format (unit mm)*
G04 Created by KiCad (PCBNEW 8.0.5) date 2024-09-23 16:37:59*
%MOMM*%
%LPD*%
G01*
G04 APERTURE LIST*
%TA.AperFunction,ComponentPad*%
%ADD10C,3.000000*%
%TD*%
%TA.AperFunction,ComponentPad*%
%ADD11O,1.550000X0.890000*%
%TD*%
%TA.AperFunction,ComponentPad*%
%ADD12O,0.950000X1.250000*%
%TD*%
%TA.AperFunction,ComponentPad*%
%ADD13R,1.700000X1.700000*%
%TD*%
%TA.AperFunction,ComponentPad*%
%ADD14O,1.700000X1.700000*%
%TD*%
%TA.AperFunction,ComponentPad*%
%ADD15C,0.600000*%
%TD*%
%TA.AperFunction,ComponentPad*%
%ADD16R,2.000000X2.000000*%
%TD*%
%TA.AperFunction,ComponentPad*%
%ADD17C,2.000000*%
%TD*%
%TA.AperFunction,ComponentPad*%
%ADD18R,1.000000X1.000000*%
%TD*%
%TA.AperFunction,ComponentPad*%
%ADD19C,1.600000*%
%TD*%
%TA.AperFunction,ComponentPad*%
%ADD20R,1.600000X1.600000*%
%TD*%
%TA.AperFunction,ComponentPad*%
%ADD21O,1.600000X1.600000*%
%TD*%
%TA.AperFunction,ViaPad*%
%ADD22C,0.600000*%
%TD*%
%TA.AperFunction,Conductor*%
%ADD23C,0.400000*%
%TD*%
%TA.AperFunction,Conductor*%
%ADD24C,0.150000*%
%TD*%
G04 APERTURE END LIST*
D10*
%TO.N,GND*%
%TO.C,TP4*%
X2810000Y-2800000D03*
%TD*%
D11*
%TO.N,GND*%
%TO.C,J3*%
X69290000Y-53420550D03*
D12*
X66590000Y-52420550D03*
X66590000Y-47420550D03*
D11*
X69290000Y-46420550D03*
%TD*%
D13*
%TO.N,/~{USB_BOOT}*%
%TO.C,J2*%
X43217600Y-37558050D03*
D14*
%TO.N,GND*%
X43217600Y-40098050D03*
%TD*%
D15*
%TO.N,GND*%
%TO.C,U3*%
X21065000Y-47523450D03*
X19790000Y-47523450D03*
X18515000Y-47523450D03*
X21065000Y-48798450D03*
X19790000Y-48798450D03*
X18515000Y-48798450D03*
X21065000Y-50073450D03*
X19790000Y-50073450D03*
X18515000Y-50073450D03*
%TD*%
D16*
%TO.N,/GPIO28_ADC2*%
%TO.C,LS1*%
X65640000Y-36300000D03*
D17*
%TO.N,/GPIO29_ADC3*%
X55640000Y-36300000D03*
%TD*%
D18*
%TO.N,/GPIO26_ADC0*%
%TO.C,TP2*%
X50217600Y-53933050D03*
%TD*%
D19*
%TO.N,Net-(D1A-K)*%
%TO.C,C18*%
X59040000Y-7750000D03*
%TO.N,GND*%
X61540000Y-7750000D03*
%TD*%
D20*
%TO.N,/PDP*%
%TO.C,J204*%
X22860000Y-20320000D03*
D21*
%TO.N,/PS1*%
X20320000Y-20320000D03*
%TO.N,/Pd*%
X17780000Y-20320000D03*
%TO.N,/Pe*%
X15240000Y-20320000D03*
%TO.N,/Pf*%
X12700000Y-20320000D03*
%TO.N,/Pg*%
X10160000Y-20320000D03*
%TO.N,/PS3*%
X7620000Y-20320000D03*
%TO.N,/PS2*%
X5080000Y-20320000D03*
%TO.N,/Pb*%
X5080000Y-27940000D03*
%TO.N,/Pa*%
X7620000Y-27940000D03*
%TO.N,/Pc*%
X10160000Y-27940000D03*
%TO.N,/G0*%
X12700000Y-27940000D03*
%TO.N,/G1*%
X15240000Y-27940000D03*
%TO.N,/G4*%
X17780000Y-27940000D03*
%TO.N,/G3*%
X20320000Y-27940000D03*
%TO.N,/G2*%
X22860000Y-27940000D03*
%TD*%
D20*
%TO.N,/F1*%
%TO.C,J203*%
X45720000Y-20320000D03*
D21*
%TO.N,/F2*%
X43180000Y-20320000D03*
%TO.N,/S2*%
X40640000Y-20320000D03*
%TO.N,/S1*%
X38100000Y-20320000D03*
%TO.N,/S0*%
X35560000Y-20320000D03*
%TO.N,/G5*%
X33020000Y-20320000D03*
%TO.N,/G7*%
X30480000Y-20320000D03*
%TO.N,/G6*%
X27940000Y-20320000D03*
%TO.N,/RL0*%
X27940000Y-27940000D03*
%TO.N,/RL1*%
X30480000Y-27940000D03*
%TO.N,/RL6*%
X33020000Y-27940000D03*
%TO.N,/RL4*%
X35560000Y-27940000D03*
%TO.N,/RL2*%
X38100000Y-27940000D03*
%TO.N,/RL5*%
X40640000Y-27940000D03*
%TO.N,/RL3*%
X43180000Y-27940000D03*
%TO.N,/GND2*%
X45720000Y-27940000D03*
%TD*%
D18*
%TO.N,/GPIO27_ADC1*%
%TO.C,TP3*%
X45517600Y-53933050D03*
%TD*%
D20*
%TO.N,/G2*%
%TO.C,P204*%
X22860000Y-13970000D03*
D21*
%TO.N,/G3*%
X20320000Y-13970000D03*
%TO.N,/G4*%
X17780000Y-13970000D03*
%TO.N,/G1*%
X15240000Y-13970000D03*
%TO.N,/G0*%
X12700000Y-13970000D03*
%TO.N,/Pc*%
X10160000Y-13970000D03*
%TO.N,/Pa*%
X7620000Y-13970000D03*
%TO.N,/Pb*%
X5080000Y-13970000D03*
%TO.N,/PS2*%
X5080000Y-6350000D03*
%TO.N,/PS3*%
X7620000Y-6350000D03*
%TO.N,/Pg*%
X10160000Y-6350000D03*
%TO.N,/Pf*%
X12700000Y-6350000D03*
%TO.N,/Pe*%
X15240000Y-6350000D03*
%TO.N,/Pd*%
X17780000Y-6350000D03*
%TO.N,/PS1*%
X20320000Y-6350000D03*
%TO.N,/PDP*%
X22860000Y-6350000D03*
%TD*%
D20*
%TO.N,/GND2*%
%TO.C,P203*%
X45720000Y-13970000D03*
D21*
%TO.N,/RL3*%
X43180000Y-13970000D03*
%TO.N,/RL5*%
X40640000Y-13970000D03*
%TO.N,/RL2*%
X38100000Y-13970000D03*
%TO.N,/RL4*%
X35560000Y-13970000D03*
%TO.N,/RL6*%
X33020000Y-13970000D03*
%TO.N,/RL1*%
X30480000Y-13970000D03*
%TO.N,/RL0*%
X27940000Y-13970000D03*
%TO.N,/G6*%
X27940000Y-6350000D03*
%TO.N,/G7*%
X30480000Y-6350000D03*
%TO.N,/G5*%
X33020000Y-6350000D03*
%TO.N,/S0*%
X35560000Y-6350000D03*
%TO.N,/S1*%
X38100000Y-6350000D03*
%TO.N,/S2*%
X40640000Y-6350000D03*
%TO.N,/F2*%
X43180000Y-6350000D03*
%TO.N,/F1*%
X45720000Y-6350000D03*
%TD*%
D22*
%TO.N,GND*%
X58460000Y-23600000D03*
X8390000Y-45598450D03*
X62210000Y-19000000D03*
X12008000Y-49179450D03*
X18351200Y-55683050D03*
X63731600Y-48620550D03*
X28589600Y-47798450D03*
X57060000Y-23600000D03*
X10790000Y-43972450D03*
X33552600Y-53533050D03*
X12008000Y-50298450D03*
X59760000Y-23600000D03*
X36990600Y-43498450D03*
X61260000Y-22100000D03*
X57060000Y-22100000D03*
X27589600Y-52798450D03*
X67790400Y-52260950D03*
X4530000Y-38480000D03*
X58460000Y-22100000D03*
X23151200Y-42283050D03*
X8390000Y-54288450D03*
X59760000Y-22100000D03*
X12833500Y-48353950D03*
X27589600Y-51798450D03*
X28589600Y-48798450D03*
X33552600Y-52533050D03*
X61260000Y-23600000D03*
X10801500Y-49560450D03*
X12960500Y-45877450D03*
X30590600Y-39598450D03*
X67890400Y-48823250D03*
X6840000Y-45770000D03*
X4690000Y-54288450D03*
X18931200Y-40933050D03*
%TO.N,+3V3*%
X24467600Y-51883050D03*
X36990000Y-52350000D03*
X17272400Y-47861850D03*
X16890000Y-38150000D03*
X12460000Y-38300000D03*
X19160000Y-34000000D03*
X24860000Y-34200000D03*
X14160000Y-34200000D03*
X49460000Y-39500000D03*
X24160000Y-38400000D03*
X25248000Y-49148450D03*
X2060000Y-38400000D03*
X49460000Y-35900000D03*
X8460000Y-34600000D03*
X19567600Y-41533050D03*
X17424700Y-51163850D03*
X29090000Y-35600000D03*
X49460000Y-37200000D03*
X49460000Y-38400000D03*
%TO.N,+1V1*%
X21890000Y-49498450D03*
X24590000Y-48598450D03*
X17690000Y-49398450D03*
X14590000Y-49598450D03*
%TO.N,/QSPI_SS*%
X23527100Y-45632850D03*
X36319600Y-40238550D03*
%TO.N,Net-(D1A-K)*%
X59040000Y-12750000D03*
X31590000Y-33350000D03*
%TO.N,G0_3V*%
X19281200Y-54733050D03*
X12787400Y-33726900D03*
%TO.N,G1_3V*%
X15297100Y-37059800D03*
X19281200Y-55633050D03*
%TO.N,G2_3V*%
X17507200Y-44387850D03*
X22911000Y-33620400D03*
%TO.N,G6_3V*%
X17590000Y-41204650D03*
X25081400Y-36376900D03*
%TO.N,PA_3V*%
X7349100Y-34783000D03*
X13851200Y-51583050D03*
%TO.N,PB_3V*%
X5168718Y-35860401D03*
X12151200Y-51683050D03*
%TO.N,PC_3V*%
X10716000Y-37207400D03*
X15351200Y-50983050D03*
%TO.N,PE_3V*%
X14612600Y-33193200D03*
X20517600Y-55183050D03*
%TO.N,PG_3V*%
X14680300Y-51318450D03*
X9660000Y-34300000D03*
%TO.N,PS2_3V*%
X11151200Y-51683050D03*
X3090000Y-35990000D03*
%TO.N,PS3_3V*%
X5470000Y-37080000D03*
X12951200Y-51583050D03*
%TO.N,/GPIO29_ADC3*%
X39719600Y-54567750D03*
%TO.N,/GPIO28_ADC2*%
X40607600Y-54422550D03*
%TO.N,/VBUS*%
X63323050Y-52283050D03*
X28790000Y-34750000D03*
%TO.N,PF_3V*%
X13598600Y-37545500D03*
X19281200Y-53933050D03*
%TD*%
D23*
%TO.N,Net-(D1A-K)*%
X41936346Y-33350000D02*
X59090000Y-17850000D01*
X59090000Y-17850000D02*
X59090000Y-12450000D01*
X31590000Y-33350000D02*
X41936346Y-33350000D01*
D24*
%TO.N,G0_3V*%
X16190000Y-40950000D02*
X16190000Y-51641850D01*
X19281200Y-54733050D02*
X16190000Y-51641850D01*
X12787400Y-37547400D02*
X16190000Y-40950000D01*
X12787400Y-33726900D02*
X12787400Y-37547400D01*
%TO.N,G1_3V*%
X19152500Y-41960050D02*
X16690000Y-39250000D01*
X19813600Y-53616050D02*
X19152500Y-52954950D01*
X16690000Y-39250000D02*
X15297100Y-37112300D01*
X19281200Y-55633050D02*
X19813600Y-55100650D01*
X19152500Y-52954950D02*
X19152500Y-41960050D01*
X15297100Y-37112300D02*
X15297100Y-37059800D01*
X19813600Y-55100650D02*
X19813600Y-53616050D01*
%TO.N,PA_3V*%
X9390000Y-38250000D02*
X9360000Y-38217350D01*
X12534700Y-50266550D02*
X13851200Y-51583050D01*
X12534700Y-48961250D02*
X12534700Y-50266550D01*
X7349100Y-34783000D02*
X7886700Y-35320600D01*
X7886700Y-35320600D02*
X9390000Y-38250000D01*
X9360000Y-38217350D02*
X9360000Y-45786550D01*
X9360000Y-45786550D02*
X12534700Y-48961250D01*
%TO.N,PB_3V*%
X8916700Y-48448550D02*
X8916700Y-39268552D01*
X12151200Y-51683050D02*
X8916700Y-48448550D01*
X8916700Y-39268552D02*
X5508549Y-35860401D01*
X5508549Y-35860401D02*
X5168718Y-35860401D01*
%TO.N,PC_3V*%
X15351200Y-41950000D02*
X13616000Y-40750000D01*
X15351200Y-50983050D02*
X15351200Y-41950000D01*
X13616000Y-40750000D02*
X10716000Y-37850000D01*
X10716000Y-37850000D02*
X10716000Y-37207400D01*
%TO.N,PE_3V*%
X20285600Y-40211000D02*
X20290000Y-40150000D01*
X20290000Y-40150000D02*
X14612600Y-33193200D01*
X20434500Y-54786350D02*
X20434500Y-44759150D01*
X20434500Y-44759150D02*
X20285600Y-44610250D01*
X20285600Y-44610250D02*
X20285600Y-40211000D01*
X20517600Y-55183050D02*
X20434500Y-54786350D01*
%TO.N,PG_3V*%
X13546100Y-41568150D02*
X12190000Y-40350000D01*
X14680300Y-51318450D02*
X13546100Y-50184250D01*
X9790000Y-38430648D02*
X9790000Y-38350000D01*
X9764100Y-34404100D02*
X9660000Y-34300000D01*
X13546100Y-50184250D02*
X13546100Y-41568150D01*
X9790000Y-38350000D02*
X9764100Y-34404100D01*
X12190000Y-40350000D02*
X9790000Y-38430648D01*
%TO.N,PS2_3V*%
X3585000Y-36485000D02*
X3090000Y-35990000D01*
X7655000Y-38431116D02*
X5708884Y-36485000D01*
X7655000Y-48186850D02*
X7655000Y-38431116D01*
X11151200Y-51683050D02*
X7655000Y-48186850D01*
X5708884Y-36485000D02*
X3585000Y-36485000D01*
%TO.N,PS3_3V*%
X12951200Y-51583050D02*
X12951200Y-51663750D01*
X10930500Y-52280350D02*
X5470000Y-46819850D01*
X12334600Y-52280350D02*
X10930500Y-52280350D01*
X5470000Y-46819850D02*
X5470000Y-37080000D01*
X12951200Y-51663750D02*
X12334600Y-52280350D01*
D23*
%TO.N,/VBUS*%
X52190000Y-34750000D02*
X28790000Y-34750000D01*
X60490000Y-49450000D02*
X52190000Y-34750000D01*
X63323050Y-52283050D02*
X60490000Y-49450000D01*
%TD*%
%TA.AperFunction,Conductor*%
%TO.N,+3V3*%
G36*
X12222143Y-33422747D02*
G01*
X12280311Y-33441719D01*
X12316220Y-33491260D01*
X12316151Y-33552445D01*
X12312085Y-33562871D01*
X12302234Y-33584440D01*
X12302234Y-33584443D01*
X12281753Y-33726897D01*
X12281753Y-33726902D01*
X12302234Y-33869356D01*
X12324384Y-33917857D01*
X12362023Y-34000273D01*
X12456272Y-34109043D01*
X12464363Y-34114243D01*
X12466422Y-34115566D01*
X12505154Y-34162932D01*
X12511900Y-34198851D01*
X12511900Y-37602200D01*
X12526813Y-37638202D01*
X12526814Y-37638205D01*
X12553841Y-37703455D01*
X12553842Y-37703456D01*
X12553843Y-37703458D01*
X15885505Y-41035120D01*
X15913281Y-41089635D01*
X15914500Y-41105122D01*
X15914500Y-50603418D01*
X15895593Y-50661609D01*
X15846093Y-50697573D01*
X15784907Y-50697573D01*
X15740681Y-50668249D01*
X15682330Y-50600908D01*
X15672176Y-50594383D01*
X15633445Y-50547017D01*
X15626700Y-50511099D01*
X15626700Y-41989907D01*
X15628924Y-41969042D01*
X15632061Y-41954492D01*
X15628306Y-41933897D01*
X15626700Y-41916139D01*
X15626700Y-41895200D01*
X15621000Y-41881440D01*
X15615072Y-41861319D01*
X15612401Y-41846669D01*
X15601046Y-41829072D01*
X15592768Y-41813282D01*
X15588920Y-41803992D01*
X15584757Y-41793942D01*
X15574225Y-41783410D01*
X15561049Y-41767090D01*
X15552975Y-41754577D01*
X15550428Y-41752815D01*
X15535754Y-41742667D01*
X15522063Y-41731247D01*
X15507258Y-41716443D01*
X15507256Y-41716441D01*
X15493500Y-41710743D01*
X15475079Y-41700706D01*
X13800559Y-40542671D01*
X13786866Y-40531250D01*
X11020496Y-37764880D01*
X10992719Y-37710363D01*
X10991500Y-37694876D01*
X10991500Y-37679351D01*
X11010407Y-37621160D01*
X11036978Y-37596066D01*
X11038123Y-37595329D01*
X11047128Y-37589543D01*
X11141377Y-37480773D01*
X11201165Y-37349857D01*
X11216832Y-37240891D01*
X11221647Y-37207402D01*
X11221647Y-37207397D01*
X11201165Y-37064943D01*
X11167871Y-36992040D01*
X11141377Y-36934027D01*
X11047128Y-36825257D01*
X11047127Y-36825256D01*
X11047126Y-36825255D01*
X10926057Y-36747449D01*
X10926054Y-36747447D01*
X10926053Y-36747447D01*
X10926050Y-36747446D01*
X10787964Y-36706900D01*
X10787961Y-36706900D01*
X10644039Y-36706900D01*
X10644035Y-36706900D01*
X10505949Y-36747446D01*
X10505942Y-36747449D01*
X10384873Y-36825255D01*
X10290622Y-36934027D01*
X10245642Y-37032518D01*
X10204269Y-37077595D01*
X10144302Y-37089745D01*
X10088646Y-37064326D01*
X10058561Y-37011049D01*
X10056592Y-36992049D01*
X10041296Y-34661819D01*
X10059821Y-34603508D01*
X10065477Y-34596339D01*
X10085375Y-34573375D01*
X10085374Y-34573375D01*
X10085377Y-34573373D01*
X10145165Y-34442457D01*
X10162333Y-34323049D01*
X10165647Y-34300002D01*
X10165647Y-34299997D01*
X10145165Y-34157543D01*
X10137455Y-34140660D01*
X10085377Y-34026627D01*
X9991128Y-33917857D01*
X9991127Y-33917856D01*
X9991126Y-33917855D01*
X9870057Y-33840049D01*
X9870054Y-33840047D01*
X9870053Y-33840047D01*
X9870050Y-33840046D01*
X9731964Y-33799500D01*
X9731961Y-33799500D01*
X9588039Y-33799500D01*
X9588035Y-33799500D01*
X9449949Y-33840046D01*
X9449942Y-33840049D01*
X9328873Y-33917855D01*
X9234622Y-34026628D01*
X9174834Y-34157543D01*
X9154353Y-34299997D01*
X9154353Y-34300002D01*
X9174834Y-34442456D01*
X9205511Y-34509627D01*
X9234623Y-34573373D01*
X9328872Y-34682143D01*
X9445982Y-34757405D01*
X9484710Y-34804767D01*
X9491454Y-34840036D01*
X9508701Y-37467494D01*
X9490176Y-37525808D01*
X9440913Y-37562096D01*
X9379729Y-37562497D01*
X9329994Y-37526859D01*
X9321624Y-37513344D01*
X8738427Y-36376900D01*
X8138770Y-35208381D01*
X8135387Y-35201070D01*
X8122272Y-35169407D01*
X8120257Y-35164541D01*
X8120256Y-35164540D01*
X8120256Y-35164539D01*
X8114841Y-35156435D01*
X8115021Y-35156314D01*
X8113019Y-35153567D01*
X8112849Y-35153703D01*
X8106787Y-35146059D01*
X8076650Y-35120469D01*
X8070725Y-35115009D01*
X7875202Y-34919486D01*
X7847425Y-34864969D01*
X7847214Y-34835392D01*
X7854747Y-34783001D01*
X7854747Y-34782997D01*
X7834265Y-34640543D01*
X7814077Y-34596339D01*
X7774477Y-34509627D01*
X7680228Y-34400857D01*
X7680227Y-34400856D01*
X7680226Y-34400855D01*
X7559157Y-34323049D01*
X7559154Y-34323047D01*
X7559153Y-34323047D01*
X7559150Y-34323046D01*
X7421064Y-34282500D01*
X7421061Y-34282500D01*
X7277139Y-34282500D01*
X7277135Y-34282500D01*
X7139049Y-34323046D01*
X7139042Y-34323049D01*
X7017973Y-34400855D01*
X6923722Y-34509628D01*
X6863934Y-34640543D01*
X6843453Y-34782997D01*
X6843453Y-34783002D01*
X6863934Y-34925456D01*
X6908651Y-35023371D01*
X6923723Y-35056373D01*
X7017972Y-35165143D01*
X7017973Y-35165144D01*
X7139042Y-35242950D01*
X7139047Y-35242953D01*
X7245503Y-35274211D01*
X7277135Y-35283499D01*
X7277136Y-35283499D01*
X7277139Y-35283500D01*
X7277141Y-35283500D01*
X7418976Y-35283500D01*
X7477167Y-35302407D01*
X7488980Y-35312496D01*
X7650345Y-35473861D01*
X7668420Y-35498665D01*
X8060851Y-36263373D01*
X9058083Y-38206627D01*
X9073579Y-38236822D01*
X9084500Y-38282022D01*
X9084500Y-38807728D01*
X9065593Y-38865919D01*
X9016093Y-38901883D01*
X8954907Y-38901883D01*
X8915496Y-38877732D01*
X8135619Y-38097855D01*
X5664607Y-35626844D01*
X5664605Y-35626843D01*
X5630043Y-35612526D01*
X5593113Y-35585894D01*
X5499847Y-35478258D01*
X5499845Y-35478257D01*
X5378775Y-35400450D01*
X5378772Y-35400448D01*
X5378771Y-35400448D01*
X5378768Y-35400447D01*
X5240682Y-35359901D01*
X5240679Y-35359901D01*
X5096757Y-35359901D01*
X5096753Y-35359901D01*
X4958667Y-35400447D01*
X4958660Y-35400450D01*
X4837591Y-35478256D01*
X4743340Y-35587029D01*
X4683552Y-35717944D01*
X4663071Y-35860398D01*
X4663071Y-35860403D01*
X4683551Y-36002855D01*
X4713930Y-36069374D01*
X4720904Y-36130160D01*
X4690817Y-36183437D01*
X4635161Y-36208855D01*
X4623876Y-36209500D01*
X3740124Y-36209500D01*
X3681933Y-36190593D01*
X3670120Y-36180504D01*
X3616102Y-36126486D01*
X3588325Y-36071969D01*
X3588114Y-36042392D01*
X3595647Y-35990001D01*
X3595647Y-35989997D01*
X3575165Y-35847543D01*
X3515377Y-35716628D01*
X3515377Y-35716627D01*
X3421128Y-35607857D01*
X3421127Y-35607856D01*
X3421126Y-35607855D01*
X3300057Y-35530049D01*
X3300054Y-35530047D01*
X3300053Y-35530047D01*
X3300050Y-35530046D01*
X3161964Y-35489500D01*
X3161961Y-35489500D01*
X3018039Y-35489500D01*
X3018035Y-35489500D01*
X2879949Y-35530046D01*
X2879942Y-35530049D01*
X2758873Y-35607855D01*
X2664622Y-35716628D01*
X2604834Y-35847543D01*
X2584353Y-35989997D01*
X2584353Y-35990002D01*
X2604834Y-36132456D01*
X2651411Y-36234443D01*
X2664623Y-36263373D01*
X2758872Y-36372143D01*
X2758873Y-36372144D01*
X2766269Y-36376897D01*
X2879947Y-36449953D01*
X2986403Y-36481211D01*
X3018035Y-36490499D01*
X3018036Y-36490499D01*
X3018039Y-36490500D01*
X3018041Y-36490500D01*
X3159876Y-36490500D01*
X3218067Y-36509407D01*
X3229879Y-36519496D01*
X3428943Y-36718559D01*
X3530198Y-36760500D01*
X3530200Y-36760500D01*
X4911641Y-36760500D01*
X4969832Y-36779407D01*
X5005796Y-36828907D01*
X5005796Y-36890093D01*
X5001694Y-36900627D01*
X4984834Y-36937543D01*
X4964353Y-37079997D01*
X4964353Y-37080002D01*
X4984834Y-37222456D01*
X5015880Y-37290435D01*
X5044623Y-37353373D01*
X5138872Y-37462143D01*
X5146963Y-37467343D01*
X5149022Y-37468666D01*
X5187754Y-37516032D01*
X5194500Y-37551951D01*
X5194500Y-38275135D01*
X5175593Y-38333326D01*
X5126093Y-38369290D01*
X5064907Y-38369290D01*
X5015407Y-38333326D01*
X5005447Y-38316262D01*
X4955377Y-38206628D01*
X4955377Y-38206627D01*
X4861128Y-38097857D01*
X4861127Y-38097856D01*
X4861126Y-38097855D01*
X4740057Y-38020049D01*
X4740054Y-38020047D01*
X4740053Y-38020047D01*
X4740050Y-38020046D01*
X4601964Y-37979500D01*
X4601961Y-37979500D01*
X4458039Y-37979500D01*
X4458035Y-37979500D01*
X4319949Y-38020046D01*
X4319942Y-38020049D01*
X4198873Y-38097855D01*
X4104622Y-38206628D01*
X4044834Y-38337543D01*
X4024353Y-38479997D01*
X4024353Y-38480002D01*
X4044834Y-38622456D01*
X4104622Y-38753371D01*
X4104623Y-38753373D01*
X4198872Y-38862143D01*
X4198873Y-38862144D01*
X4274856Y-38910975D01*
X4319947Y-38939953D01*
X4426403Y-38971211D01*
X4458035Y-38980499D01*
X4458036Y-38980499D01*
X4458039Y-38980500D01*
X4458041Y-38980500D01*
X4601959Y-38980500D01*
X4601961Y-38980500D01*
X4740053Y-38939953D01*
X4861128Y-38862143D01*
X4955377Y-38753373D01*
X4992554Y-38671967D01*
X5005447Y-38643737D01*
X5046819Y-38598660D01*
X5106786Y-38586509D01*
X5162442Y-38611927D01*
X5192528Y-38665204D01*
X5194500Y-38684864D01*
X5194500Y-46874650D01*
X5236443Y-46975908D01*
X10774441Y-52513907D01*
X10801406Y-52525076D01*
X10801407Y-52525077D01*
X10820649Y-52533047D01*
X10875700Y-52555850D01*
X12389399Y-52555850D01*
X12389400Y-52555850D01*
X12490658Y-52513907D01*
X12568157Y-52436408D01*
X12568156Y-52436408D01*
X12892020Y-52112546D01*
X12946537Y-52084769D01*
X12962023Y-52083550D01*
X13023159Y-52083550D01*
X13023161Y-52083550D01*
X13161253Y-52043003D01*
X13282328Y-51965193D01*
X13326381Y-51914352D01*
X13378776Y-51882757D01*
X13439737Y-51887992D01*
X13476017Y-51914351D01*
X13512473Y-51956423D01*
X13520073Y-51965194D01*
X13641142Y-52043000D01*
X13641147Y-52043003D01*
X13739293Y-52071821D01*
X13779235Y-52083549D01*
X13779236Y-52083549D01*
X13779239Y-52083550D01*
X13779241Y-52083550D01*
X13923159Y-52083550D01*
X13923161Y-52083550D01*
X14061253Y-52043003D01*
X14182328Y-51965193D01*
X14276577Y-51856423D01*
X14300605Y-51803808D01*
X14341976Y-51758731D01*
X14401942Y-51746580D01*
X14444180Y-51761651D01*
X14470247Y-51778403D01*
X14576703Y-51809661D01*
X14608335Y-51818949D01*
X14608336Y-51818949D01*
X14608339Y-51818950D01*
X14608341Y-51818950D01*
X14752259Y-51818950D01*
X14752261Y-51818950D01*
X14890353Y-51778403D01*
X15011428Y-51700593D01*
X15105677Y-51591823D01*
X15134164Y-51529445D01*
X15175534Y-51484370D01*
X15235500Y-51472218D01*
X15252109Y-51475584D01*
X15279233Y-51483549D01*
X15279238Y-51483549D01*
X15279239Y-51483550D01*
X15279240Y-51483550D01*
X15423159Y-51483550D01*
X15423161Y-51483550D01*
X15561253Y-51443003D01*
X15682328Y-51365193D01*
X15740681Y-51297849D01*
X15793076Y-51266254D01*
X15854037Y-51271490D01*
X15900278Y-51311557D01*
X15914500Y-51362681D01*
X15914500Y-51696650D01*
X15927556Y-51728170D01*
X15956441Y-51797905D01*
X15956442Y-51797906D01*
X15956443Y-51797908D01*
X17386412Y-53227877D01*
X18755097Y-54596562D01*
X18782874Y-54651079D01*
X18783085Y-54680653D01*
X18777730Y-54717913D01*
X18775553Y-54733053D01*
X18796034Y-54875506D01*
X18855822Y-55006421D01*
X18855823Y-55006423D01*
X18909395Y-55068249D01*
X18952694Y-55118219D01*
X18976511Y-55174579D01*
X18962652Y-55234174D01*
X18952693Y-55247881D01*
X18869356Y-55344057D01*
X18816960Y-55375653D01*
X18755999Y-55370417D01*
X18719718Y-55344057D01*
X18682329Y-55300907D01*
X18682327Y-55300906D01*
X18561257Y-55223099D01*
X18561254Y-55223097D01*
X18561253Y-55223097D01*
X18561250Y-55223096D01*
X18423164Y-55182550D01*
X18423161Y-55182550D01*
X18279239Y-55182550D01*
X18279235Y-55182550D01*
X18141149Y-55223096D01*
X18141142Y-55223099D01*
X18020073Y-55300905D01*
X17925822Y-55409678D01*
X17866034Y-55540593D01*
X17845553Y-55683047D01*
X17845553Y-55683052D01*
X17866034Y-55825506D01*
X17918526Y-55940446D01*
X17925823Y-55956423D01*
X17976748Y-56015194D01*
X18020073Y-56065194D01*
X18101021Y-56117216D01*
X18139753Y-56164582D01*
X18143246Y-56225668D01*
X18110166Y-56277140D01*
X18053150Y-56299339D01*
X18047498Y-56299500D01*
X399500Y-56299500D01*
X341309Y-56280593D01*
X305345Y-56231093D01*
X300500Y-56200500D01*
X300500Y-54288447D01*
X4184353Y-54288447D01*
X4184353Y-54288452D01*
X4204834Y-54430906D01*
X4241539Y-54511277D01*
X4264623Y-54561823D01*
X4341963Y-54651079D01*
X4358873Y-54670594D01*
X4468393Y-54740978D01*
X4479947Y-54748403D01*
X4586403Y-54779661D01*
X4618035Y-54788949D01*
X4618036Y-54788949D01*
X4618039Y-54788950D01*
X4618041Y-54788950D01*
X4761959Y-54788950D01*
X4761961Y-54788950D01*
X4900053Y-54748403D01*
X5021128Y-54670593D01*
X5115377Y-54561823D01*
X5175165Y-54430907D01*
X5195647Y-54288450D01*
X5195647Y-54288447D01*
X7884353Y-54288447D01*
X7884353Y-54288452D01*
X7904834Y-54430906D01*
X7941539Y-54511277D01*
X7964623Y-54561823D01*
X8041963Y-54651079D01*
X8058873Y-54670594D01*
X8168393Y-54740978D01*
X8179947Y-54748403D01*
X8286403Y-54779661D01*
X8318035Y-54788949D01*
X8318036Y-54788949D01*
X8318039Y-54788950D01*
X8318041Y-54788950D01*
X8461959Y-54788950D01*
X8461961Y-54788950D01*
X8600053Y-54748403D01*
X8721128Y-54670593D01*
X8815377Y-54561823D01*
X8875165Y-54430907D01*
X8895647Y-54288450D01*
X8894445Y-54280093D01*
X8875165Y-54145993D01*
X8815377Y-54015078D01*
X8815377Y-54015077D01*
X8721128Y-53906307D01*
X8721127Y-53906306D01*
X8721126Y-53906305D01*
X8600057Y-53828499D01*
X8600054Y-53828497D01*
X8600053Y-53828497D01*
X8600050Y-53828496D01*
X8461964Y-53787950D01*
X8461961Y-53787950D01*
X8318039Y-53787950D01*
X8318035Y-53787950D01*
X8179949Y-53828496D01*
X8179942Y-53828499D01*
X8058873Y-53906305D01*
X7964622Y-54015078D01*
X7904834Y-54145993D01*
X7884353Y-54288447D01*
X5195647Y-54288447D01*
X5194445Y-54280093D01*
X5175165Y-54145993D01*
X5115377Y-54015078D01*
X5115377Y-54015077D01*
X5021128Y-53906307D01*
X5021127Y-53906306D01*
X5021126Y-53906305D01*
X4900057Y-53828499D01*
X4900054Y-53828497D01*
X4900053Y-53828497D01*
X4900050Y-53828496D01*
X4761964Y-53787950D01*
X4761961Y-53787950D01*
X4618039Y-53787950D01*
X4618035Y-53787950D01*
X4479949Y-53828496D01*
X4479942Y-53828499D01*
X4358873Y-53906305D01*
X4264622Y-54015078D01*
X4204834Y-54145993D01*
X4184353Y-54288447D01*
X300500Y-54288447D01*
X300500Y-33508534D01*
X319407Y-33450343D01*
X368907Y-33414379D01*
X399601Y-33409535D01*
X12222143Y-33422747D01*
G37*
%TD.AperFunction*%
%TA.AperFunction,Conductor*%
G36*
X22318010Y-33434030D02*
G01*
X22376176Y-33453001D01*
X22412085Y-33502542D01*
X22415888Y-33547117D01*
X22405353Y-33620395D01*
X22405353Y-33620402D01*
X22425834Y-33762856D01*
X22474472Y-33869356D01*
X22485623Y-33893773D01*
X22506492Y-33917857D01*
X22579873Y-34002544D01*
X22617349Y-34026628D01*
X22700947Y-34080353D01*
X22798657Y-34109043D01*
X22839035Y-34120899D01*
X22839036Y-34120899D01*
X22839039Y-34120900D01*
X22839041Y-34120900D01*
X22982959Y-34120900D01*
X22982961Y-34120900D01*
X23121053Y-34080353D01*
X23242128Y-34002543D01*
X23336377Y-33893773D01*
X23396165Y-33762857D01*
X23406108Y-33693699D01*
X23416647Y-33620402D01*
X23416647Y-33620397D01*
X23406302Y-33548444D01*
X23416735Y-33488155D01*
X23460613Y-33445512D01*
X23504401Y-33435355D01*
X31019084Y-33443753D01*
X31077248Y-33462724D01*
X31109021Y-33501625D01*
X31163263Y-33620395D01*
X31164623Y-33623373D01*
X31254329Y-33726900D01*
X31258873Y-33732144D01*
X31379942Y-33809950D01*
X31379947Y-33809953D01*
X31482436Y-33840046D01*
X31518035Y-33850499D01*
X31518036Y-33850499D01*
X31518039Y-33850500D01*
X31518041Y-33850500D01*
X31661959Y-33850500D01*
X31661961Y-33850500D01*
X31800053Y-33809953D01*
X31868110Y-33766215D01*
X31921632Y-33750500D01*
X41923698Y-33750500D01*
X41928707Y-33750627D01*
X41968747Y-33752655D01*
X41968747Y-33752654D01*
X41968749Y-33752655D01*
X41968750Y-33752654D01*
X41969594Y-33752587D01*
X41988175Y-33750618D01*
X41989068Y-33750500D01*
X41989073Y-33750500D01*
X42027816Y-33740117D01*
X42032619Y-33738960D01*
X42071860Y-33730548D01*
X42071868Y-33730543D01*
X42072777Y-33730220D01*
X42090053Y-33723571D01*
X42090930Y-33723207D01*
X42090933Y-33723207D01*
X42125674Y-33703148D01*
X42130034Y-33700776D01*
X42165735Y-33682507D01*
X42165736Y-33682505D01*
X42166514Y-33681969D01*
X42181489Y-33671070D01*
X42182252Y-33670483D01*
X42182259Y-33670480D01*
X42210629Y-33642108D01*
X42214218Y-33638696D01*
X42387549Y-33482074D01*
X42443397Y-33457092D01*
X42453999Y-33456532D01*
X50289372Y-33465288D01*
X50347539Y-33484260D01*
X50383448Y-33533801D01*
X50388257Y-33564852D01*
X50384348Y-34251064D01*
X50365110Y-34309146D01*
X50315406Y-34344827D01*
X50285350Y-34349500D01*
X29121632Y-34349500D01*
X29068110Y-34333784D01*
X29000053Y-34290047D01*
X29000050Y-34290046D01*
X28861964Y-34249500D01*
X28861961Y-34249500D01*
X28718039Y-34249500D01*
X28718035Y-34249500D01*
X28579949Y-34290046D01*
X28579942Y-34290049D01*
X28458873Y-34367855D01*
X28364622Y-34476628D01*
X28304834Y-34607543D01*
X28284353Y-34749997D01*
X28284353Y-34750002D01*
X28304834Y-34892456D01*
X28352082Y-34995913D01*
X28364623Y-35023373D01*
X28446496Y-35117860D01*
X28458873Y-35132144D01*
X28571927Y-35204799D01*
X28579947Y-35209953D01*
X28686403Y-35241211D01*
X28718035Y-35250499D01*
X28718036Y-35250499D01*
X28718039Y-35250500D01*
X28718041Y-35250500D01*
X28861959Y-35250500D01*
X28861961Y-35250500D01*
X29000053Y-35209953D01*
X29068110Y-35166215D01*
X29121632Y-35150500D01*
X50279659Y-35150500D01*
X50337850Y-35169407D01*
X50373814Y-35218907D01*
X50378656Y-35250063D01*
X50278279Y-52869830D01*
X50276773Y-53134114D01*
X50257535Y-53192196D01*
X50207831Y-53227877D01*
X50177775Y-53232550D01*
X49697852Y-53232550D01*
X49697851Y-53232550D01*
X49697841Y-53232551D01*
X49639372Y-53244182D01*
X49639366Y-53244184D01*
X49573051Y-53288495D01*
X49573045Y-53288501D01*
X49528734Y-53354816D01*
X49528732Y-53354822D01*
X49517101Y-53413291D01*
X49517100Y-53413303D01*
X49517100Y-54452796D01*
X49517101Y-54452808D01*
X49528732Y-54511277D01*
X49528734Y-54511283D01*
X49564631Y-54565006D01*
X49573048Y-54577602D01*
X49639369Y-54621917D01*
X49683831Y-54630761D01*
X49697841Y-54633548D01*
X49697846Y-54633548D01*
X49697852Y-54633550D01*
X49697853Y-54633550D01*
X50168666Y-54633550D01*
X50226857Y-54652457D01*
X50262821Y-54701957D01*
X50267663Y-54733110D01*
X50259320Y-56197673D01*
X50259301Y-56201064D01*
X50240063Y-56259146D01*
X50190359Y-56294827D01*
X50160303Y-56299500D01*
X19476548Y-56299500D01*
X19418357Y-56280593D01*
X19382393Y-56231093D01*
X19382393Y-56169907D01*
X19418357Y-56120407D01*
X19448656Y-56105510D01*
X19491253Y-56093003D01*
X19612328Y-56015193D01*
X19706577Y-55906423D01*
X19766365Y-55775507D01*
X19779586Y-55683550D01*
X19786847Y-55633052D01*
X19786847Y-55633050D01*
X19779313Y-55580654D01*
X19789745Y-55520369D01*
X19807298Y-55496566D01*
X19914659Y-55389205D01*
X19969174Y-55361430D01*
X20029606Y-55371001D01*
X20072871Y-55414266D01*
X20074714Y-55418085D01*
X20092221Y-55456420D01*
X20092222Y-55456421D01*
X20092223Y-55456423D01*
X20147632Y-55520369D01*
X20186473Y-55565194D01*
X20292063Y-55633052D01*
X20307547Y-55643003D01*
X20414003Y-55674261D01*
X20445635Y-55683549D01*
X20445636Y-55683549D01*
X20445639Y-55683550D01*
X20445641Y-55683550D01*
X20589559Y-55683550D01*
X20589561Y-55683550D01*
X20727653Y-55643003D01*
X20848728Y-55565193D01*
X20942977Y-55456423D01*
X21002765Y-55325507D01*
X21023247Y-55183050D01*
X21023175Y-55182550D01*
X21002765Y-55040593D01*
X20987159Y-55006421D01*
X20942977Y-54909677D01*
X20848728Y-54800907D01*
X20848727Y-54800906D01*
X20848726Y-54800905D01*
X20755477Y-54740978D01*
X20716745Y-54693612D01*
X20710000Y-54657694D01*
X20710000Y-54567747D01*
X39213953Y-54567747D01*
X39213953Y-54567752D01*
X39234434Y-54710206D01*
X39270396Y-54788950D01*
X39294223Y-54841123D01*
X39330079Y-54882503D01*
X39388473Y-54949894D01*
X39509542Y-55027700D01*
X39509547Y-55027703D01*
X39616003Y-55058961D01*
X39647635Y-55068249D01*
X39647636Y-55068249D01*
X39647639Y-55068250D01*
X39647641Y-55068250D01*
X39791559Y-55068250D01*
X39791561Y-55068250D01*
X39929653Y-55027703D01*
X40050728Y-54949893D01*
X40144977Y-54841123D01*
X40144980Y-54841115D01*
X40146452Y-54838826D01*
X40148218Y-54837381D01*
X40149613Y-54835772D01*
X40149891Y-54836013D01*
X40193815Y-54800091D01*
X40254900Y-54796592D01*
X40283264Y-54809058D01*
X40327335Y-54837381D01*
X40397547Y-54882503D01*
X40490094Y-54909677D01*
X40535635Y-54923049D01*
X40535636Y-54923049D01*
X40535639Y-54923050D01*
X40535641Y-54923050D01*
X40679559Y-54923050D01*
X40679561Y-54923050D01*
X40817653Y-54882503D01*
X40938728Y-54804693D01*
X41032977Y-54695923D01*
X41092765Y-54565007D01*
X41108898Y-54452798D01*
X41113247Y-54422552D01*
X41113247Y-54422547D01*
X41092765Y-54280093D01*
X41089256Y-54272410D01*
X41032977Y-54149177D01*
X40938728Y-54040407D01*
X40938727Y-54040406D01*
X40938726Y-54040405D01*
X40817657Y-53962599D01*
X40817654Y-53962597D01*
X40817653Y-53962597D01*
X40817650Y-53962596D01*
X40679564Y-53922050D01*
X40679561Y-53922050D01*
X40535639Y-53922050D01*
X40535635Y-53922050D01*
X40397549Y-53962596D01*
X40397542Y-53962599D01*
X40276473Y-54040405D01*
X40182219Y-54149182D01*
X40180739Y-54151485D01*
X40178971Y-54152929D01*
X40177587Y-54154528D01*
X40177310Y-54154288D01*
X40133371Y-54190213D01*
X40072285Y-54193703D01*
X40043935Y-54181241D01*
X39929657Y-54107799D01*
X39929654Y-54107797D01*
X39929653Y-54107797D01*
X39929650Y-54107796D01*
X39791564Y-54067250D01*
X39791561Y-54067250D01*
X39647639Y-54067250D01*
X39647635Y-54067250D01*
X39509549Y-54107796D01*
X39509542Y-54107799D01*
X39388473Y-54185605D01*
X39294222Y-54294378D01*
X39234434Y-54425293D01*
X39213953Y-54567747D01*
X20710000Y-54567747D01*
X20710000Y-51798447D01*
X27083953Y-51798447D01*
X27083953Y-51798452D01*
X27104434Y-51940906D01*
X27133637Y-52004850D01*
X27164223Y-52071823D01*
X27258472Y-52180593D01*
X27312269Y-52215166D01*
X27351000Y-52262532D01*
X27354493Y-52323618D01*
X27321413Y-52375090D01*
X27312269Y-52381734D01*
X27258472Y-52416307D01*
X27164222Y-52525078D01*
X27104434Y-52655993D01*
X27083953Y-52798447D01*
X27083953Y-52798452D01*
X27104434Y-52940906D01*
X27130112Y-52997132D01*
X27164223Y-53071823D01*
X27232749Y-53150907D01*
X27258473Y-53180594D01*
X27379542Y-53258400D01*
X27379547Y-53258403D01*
X27482032Y-53288495D01*
X27517635Y-53298949D01*
X27517636Y-53298949D01*
X27517639Y-53298950D01*
X27517641Y-53298950D01*
X27661559Y-53298950D01*
X27661561Y-53298950D01*
X27799653Y-53258403D01*
X27920728Y-53180593D01*
X28014977Y-53071823D01*
X28074765Y-52940907D01*
X28089153Y-52840834D01*
X28095247Y-52798452D01*
X28095247Y-52798447D01*
X28074765Y-52655993D01*
X28018617Y-52533047D01*
X33046953Y-52533047D01*
X33046953Y-52533052D01*
X33067434Y-52675506D01*
X33123580Y-52798447D01*
X33127223Y-52806423D01*
X33221472Y-52915193D01*
X33261484Y-52940907D01*
X33275269Y-52949766D01*
X33314000Y-52997132D01*
X33317493Y-53058218D01*
X33284413Y-53109690D01*
X33275270Y-53116332D01*
X33221475Y-53150905D01*
X33221472Y-53150907D01*
X33127222Y-53259678D01*
X33067434Y-53390593D01*
X33046953Y-53533047D01*
X33046953Y-53533052D01*
X33067434Y-53675506D01*
X33127222Y-53806421D01*
X33127223Y-53806423D01*
X33213771Y-53906305D01*
X33221473Y-53915194D01*
X33295234Y-53962597D01*
X33342547Y-53993003D01*
X33449003Y-54024261D01*
X33480635Y-54033549D01*
X33480636Y-54033549D01*
X33480639Y-54033550D01*
X33480641Y-54033550D01*
X33624559Y-54033550D01*
X33624561Y-54033550D01*
X33762653Y-53993003D01*
X33883728Y-53915193D01*
X33977977Y-53806423D01*
X34037765Y-53675507D01*
X34044592Y-53628021D01*
X34058247Y-53533052D01*
X34058247Y-53533047D01*
X34041030Y-53413303D01*
X44817100Y-53413303D01*
X44817100Y-54452796D01*
X44817101Y-54452808D01*
X44828732Y-54511277D01*
X44828734Y-54511283D01*
X44864631Y-54565006D01*
X44873048Y-54577602D01*
X44939369Y-54621917D01*
X44983831Y-54630761D01*
X44997841Y-54633548D01*
X44997846Y-54633548D01*
X44997852Y-54633550D01*
X44997853Y-54633550D01*
X46037347Y-54633550D01*
X46037348Y-54633550D01*
X46095831Y-54621917D01*
X46162152Y-54577602D01*
X46206467Y-54511281D01*
X46218100Y-54452798D01*
X46218100Y-53413302D01*
X46206467Y-53354819D01*
X46162152Y-53288498D01*
X46119021Y-53259678D01*
X46095833Y-53244184D01*
X46095831Y-53244183D01*
X46095828Y-53244182D01*
X46095827Y-53244182D01*
X46037358Y-53232551D01*
X46037348Y-53232550D01*
X44997852Y-53232550D01*
X44997851Y-53232550D01*
X44997841Y-53232551D01*
X44939372Y-53244182D01*
X44939366Y-53244184D01*
X44873051Y-53288495D01*
X44873045Y-53288501D01*
X44828734Y-53354816D01*
X44828732Y-53354822D01*
X44817101Y-53413291D01*
X44817100Y-53413303D01*
X34041030Y-53413303D01*
X34037765Y-53390593D01*
X33999805Y-53307473D01*
X33977977Y-53259677D01*
X33883728Y-53150907D01*
X33883727Y-53150906D01*
X33883726Y-53150905D01*
X33829931Y-53116334D01*
X33791200Y-53068969D01*
X33787706Y-53007883D01*
X33820785Y-52956410D01*
X33829931Y-52949766D01*
X33843716Y-52940907D01*
X33883728Y-52915193D01*
X33977977Y-52806423D01*
X34037765Y-52675507D01*
X34058247Y-52533050D01*
X34057100Y-52525075D01*
X34037765Y-52390593D01*
X33995684Y-52298450D01*
X33977977Y-52259677D01*
X33883728Y-52150907D01*
X33883727Y-52150906D01*
X33883726Y-52150905D01*
X33762657Y-52073099D01*
X33762654Y-52073097D01*
X33762653Y-52073097D01*
X33762650Y-52073096D01*
X33624564Y-52032550D01*
X33624561Y-52032550D01*
X33480639Y-52032550D01*
X33480635Y-52032550D01*
X33342549Y-52073096D01*
X33342542Y-52073099D01*
X33221473Y-52150905D01*
X33127222Y-52259678D01*
X33067434Y-52390593D01*
X33046953Y-52533047D01*
X28018617Y-52533047D01*
X28014977Y-52525077D01*
X27920728Y-52416307D01*
X27920727Y-52416306D01*
X27920726Y-52416305D01*
X27866931Y-52381734D01*
X27828200Y-52334369D01*
X27824706Y-52273283D01*
X27857785Y-52221810D01*
X27866931Y-52215166D01*
X27920726Y-52180594D01*
X27920725Y-52180594D01*
X27920728Y-52180593D01*
X28014977Y-52071823D01*
X28074765Y-51940907D01*
X28092300Y-51818949D01*
X28095247Y-51798452D01*
X28095247Y-51798447D01*
X28074765Y-51655993D01*
X28016973Y-51529448D01*
X28014977Y-51525077D01*
X27920728Y-51416307D01*
X27920727Y-51416306D01*
X27920726Y-51416305D01*
X27799657Y-51338499D01*
X27799654Y-51338497D01*
X27799653Y-51338497D01*
X27793891Y-51336805D01*
X27661564Y-51297950D01*
X27661561Y-51297950D01*
X27517639Y-51297950D01*
X27517635Y-51297950D01*
X27379549Y-51338496D01*
X27379542Y-51338499D01*
X27258473Y-51416305D01*
X27164222Y-51525078D01*
X27104434Y-51655993D01*
X27083953Y-51798447D01*
X20710000Y-51798447D01*
X20710000Y-50621254D01*
X20728907Y-50563063D01*
X20778407Y-50527099D01*
X20839593Y-50527099D01*
X20850131Y-50531203D01*
X20854947Y-50533403D01*
X20993035Y-50573949D01*
X20993036Y-50573949D01*
X20993039Y-50573950D01*
X20993041Y-50573950D01*
X21136959Y-50573950D01*
X21136961Y-50573950D01*
X21275053Y-50533403D01*
X21396128Y-50455593D01*
X21490377Y-50346823D01*
X21550165Y-50215907D01*
X21570647Y-50073450D01*
X21570482Y-50072304D01*
X21570647Y-50071352D01*
X21570647Y-50066369D01*
X21571509Y-50066369D01*
X21580913Y-50012017D01*
X21624789Y-49969372D01*
X21685352Y-49960662D01*
X21696349Y-49963219D01*
X21818039Y-49998950D01*
X21818041Y-49998950D01*
X21961959Y-49998950D01*
X21961961Y-49998950D01*
X22100053Y-49958403D01*
X22221128Y-49880593D01*
X22315377Y-49771823D01*
X22375165Y-49640907D01*
X22391737Y-49525645D01*
X22395647Y-49498452D01*
X22395647Y-49498447D01*
X22375165Y-49355993D01*
X22349114Y-49298950D01*
X22315377Y-49225077D01*
X22221128Y-49116307D01*
X22221127Y-49116306D01*
X22221126Y-49116305D01*
X22100057Y-49038499D01*
X22100054Y-49038497D01*
X22100053Y-49038497D01*
X22094931Y-49036993D01*
X21961964Y-48997950D01*
X21961961Y-48997950D01*
X21818039Y-48997950D01*
X21818035Y-48997950D01*
X21677601Y-49039185D01*
X21616440Y-49037437D01*
X21567988Y-49000074D01*
X21550750Y-48941367D01*
X21551718Y-48930106D01*
X21570647Y-48798452D01*
X21570647Y-48798447D01*
X21550165Y-48655993D01*
X21525348Y-48601653D01*
X21523884Y-48598447D01*
X24084353Y-48598447D01*
X24084353Y-48598452D01*
X24104834Y-48740906D01*
X24164622Y-48871821D01*
X24164623Y-48871823D01*
X24224883Y-48941367D01*
X24258873Y-48980594D01*
X24350043Y-49039185D01*
X24379947Y-49058403D01*
X24486403Y-49089661D01*
X24518035Y-49098949D01*
X24518036Y-49098949D01*
X24518039Y-49098950D01*
X24518041Y-49098950D01*
X24661959Y-49098950D01*
X24661961Y-49098950D01*
X24800053Y-49058403D01*
X24921128Y-48980593D01*
X25015377Y-48871823D01*
X25075165Y-48740907D01*
X25090417Y-48634828D01*
X25095647Y-48598452D01*
X25095647Y-48598447D01*
X25075165Y-48455993D01*
X25057040Y-48416305D01*
X25015377Y-48325077D01*
X24921128Y-48216307D01*
X24921127Y-48216306D01*
X24921126Y-48216305D01*
X24800057Y-48138499D01*
X24800054Y-48138497D01*
X24800053Y-48138497D01*
X24800050Y-48138496D01*
X24661964Y-48097950D01*
X24661961Y-48097950D01*
X24518039Y-48097950D01*
X24518035Y-48097950D01*
X24379949Y-48138496D01*
X24379942Y-48138499D01*
X24258873Y-48216305D01*
X24164622Y-48325078D01*
X24104834Y-48455993D01*
X24084353Y-48598447D01*
X21523884Y-48598447D01*
X21490377Y-48525077D01*
X21396128Y-48416307D01*
X21396127Y-48416306D01*
X21396126Y-48416305D01*
X21275057Y-48338499D01*
X21275054Y-48338497D01*
X21275053Y-48338497D01*
X21261216Y-48334434D01*
X21136964Y-48297950D01*
X21136961Y-48297950D01*
X20993039Y-48297950D01*
X20993035Y-48297950D01*
X20854945Y-48338497D01*
X20850125Y-48340699D01*
X20789338Y-48347673D01*
X20736062Y-48317585D01*
X20710645Y-48261929D01*
X20710000Y-48250645D01*
X20710000Y-48071254D01*
X20728907Y-48013063D01*
X20778407Y-47977099D01*
X20839593Y-47977099D01*
X20850131Y-47981203D01*
X20854947Y-47983403D01*
X20993035Y-48023949D01*
X20993036Y-48023949D01*
X20993039Y-48023950D01*
X20993041Y-48023950D01*
X21136959Y-48023950D01*
X21136961Y-48023950D01*
X21275053Y-47983403D01*
X21396128Y-47905593D01*
X21488970Y-47798447D01*
X28083953Y-47798447D01*
X28083953Y-47798452D01*
X28104434Y-47940906D01*
X28127044Y-47990413D01*
X28164223Y-48071823D01*
X28258472Y-48180593D01*
X28312269Y-48215166D01*
X28351000Y-48262532D01*
X28354493Y-48323618D01*
X28321413Y-48375090D01*
X28312269Y-48381734D01*
X28258472Y-48416307D01*
X28164222Y-48525078D01*
X28104434Y-48655993D01*
X28083953Y-48798447D01*
X28083953Y-48798452D01*
X28104434Y-48940906D01*
X28158093Y-49058400D01*
X28164223Y-49071823D01*
X28256491Y-49178307D01*
X28258473Y-49180594D01*
X28377009Y-49256772D01*
X28379547Y-49258403D01*
X28466267Y-49283866D01*
X28517635Y-49298949D01*
X28517636Y-49298949D01*
X28517639Y-49298950D01*
X28517641Y-49298950D01*
X28661559Y-49298950D01*
X28661561Y-49298950D01*
X28799653Y-49258403D01*
X28920728Y-49180593D01*
X29014977Y-49071823D01*
X29074765Y-48940907D01*
X29093025Y-48813903D01*
X29095247Y-48798452D01*
X29095247Y-48798447D01*
X29074765Y-48655993D01*
X29049948Y-48601653D01*
X29014977Y-48525077D01*
X28920728Y-48416307D01*
X28920727Y-48416306D01*
X28920726Y-48416305D01*
X28866931Y-48381734D01*
X28828200Y-48334369D01*
X28824706Y-48273283D01*
X28857785Y-48221810D01*
X28866931Y-48215166D01*
X28920728Y-48180593D01*
X29014977Y-48071823D01*
X29074765Y-47940907D01*
X29095247Y-47798450D01*
X29095013Y-47796823D01*
X29074765Y-47655993D01*
X29014977Y-47525078D01*
X29014977Y-47525077D01*
X28920728Y-47416307D01*
X28920727Y-47416306D01*
X28920726Y-47416305D01*
X28799657Y-47338499D01*
X28799654Y-47338497D01*
X28799653Y-47338497D01*
X28799650Y-47338496D01*
X28661564Y-47297950D01*
X28661561Y-47297950D01*
X28517639Y-47297950D01*
X28517635Y-47297950D01*
X28379549Y-47338496D01*
X28379542Y-47338499D01*
X28258473Y-47416305D01*
X28164222Y-47525078D01*
X28104434Y-47655993D01*
X28083953Y-47798447D01*
X21488970Y-47798447D01*
X21490377Y-47796823D01*
X21550165Y-47665907D01*
X21570647Y-47523450D01*
X21550165Y-47380993D01*
X21490377Y-47250077D01*
X21396128Y-47141307D01*
X21396127Y-47141306D01*
X21396126Y-47141305D01*
X21275057Y-47063499D01*
X21275054Y-47063497D01*
X21275053Y-47063497D01*
X21275050Y-47063496D01*
X21136964Y-47022950D01*
X21136961Y-47022950D01*
X20993039Y-47022950D01*
X20993035Y-47022950D01*
X20854945Y-47063497D01*
X20850125Y-47065699D01*
X20789338Y-47072673D01*
X20736062Y-47042585D01*
X20710645Y-46986929D01*
X20710000Y-46975645D01*
X20710000Y-45632847D01*
X23021453Y-45632847D01*
X23021453Y-45632852D01*
X23041934Y-45775306D01*
X23101722Y-45906221D01*
X23101723Y-45906223D01*
X23190229Y-46008365D01*
X23195973Y-46014994D01*
X23317042Y-46092800D01*
X23317047Y-46092803D01*
X23418831Y-46122689D01*
X23455135Y-46133349D01*
X23455136Y-46133349D01*
X23455139Y-46133350D01*
X23455141Y-46133350D01*
X23599059Y-46133350D01*
X23599061Y-46133350D01*
X23737153Y-46092803D01*
X23858228Y-46014993D01*
X23952477Y-45906223D01*
X24012265Y-45775307D01*
X24032747Y-45632850D01*
X24032542Y-45631426D01*
X24012265Y-45490393D01*
X23978974Y-45417497D01*
X23952477Y-45359477D01*
X23858228Y-45250707D01*
X23858227Y-45250706D01*
X23858226Y-45250705D01*
X23737157Y-45172899D01*
X23737154Y-45172897D01*
X23737153Y-45172897D01*
X23737150Y-45172896D01*
X23599064Y-45132350D01*
X23599061Y-45132350D01*
X23455139Y-45132350D01*
X23455135Y-45132350D01*
X23317049Y-45172896D01*
X23317042Y-45172899D01*
X23195973Y-45250705D01*
X23101722Y-45359478D01*
X23041934Y-45490393D01*
X23021453Y-45632847D01*
X20710000Y-45632847D01*
X20710000Y-44704350D01*
X20675593Y-44621285D01*
X20668057Y-44603092D01*
X20668057Y-44603091D01*
X20668056Y-44603090D01*
X20590096Y-44525129D01*
X20562319Y-44470612D01*
X20561100Y-44455126D01*
X20561100Y-43498447D01*
X36484953Y-43498447D01*
X36484953Y-43498452D01*
X36505434Y-43640906D01*
X36532001Y-43699078D01*
X36565223Y-43771823D01*
X36659472Y-43880593D01*
X36659473Y-43880594D01*
X36780542Y-43958400D01*
X36780547Y-43958403D01*
X36887003Y-43989661D01*
X36918635Y-43998949D01*
X36918636Y-43998949D01*
X36918639Y-43998950D01*
X36918641Y-43998950D01*
X37062559Y-43998950D01*
X37062561Y-43998950D01*
X37200653Y-43958403D01*
X37321728Y-43880593D01*
X37415977Y-43771823D01*
X37475765Y-43640907D01*
X37494227Y-43512499D01*
X37496247Y-43498452D01*
X37496247Y-43498447D01*
X37475765Y-43355993D01*
X37415977Y-43225078D01*
X37415977Y-43225077D01*
X37321728Y-43116307D01*
X37321727Y-43116306D01*
X37321726Y-43116305D01*
X37200657Y-43038499D01*
X37200654Y-43038497D01*
X37200653Y-43038497D01*
X37200650Y-43038496D01*
X37062564Y-42997950D01*
X37062561Y-42997950D01*
X36918639Y-42997950D01*
X36918635Y-42997950D01*
X36780549Y-43038496D01*
X36780542Y-43038499D01*
X36659473Y-43116305D01*
X36565222Y-43225078D01*
X36505434Y-43355993D01*
X36484953Y-43498447D01*
X20561100Y-43498447D01*
X20561100Y-42283047D01*
X22645553Y-42283047D01*
X22645553Y-42283052D01*
X22666034Y-42425506D01*
X22725822Y-42556421D01*
X22725823Y-42556423D01*
X22820072Y-42665193D01*
X22820073Y-42665194D01*
X22941142Y-42743000D01*
X22941147Y-42743003D01*
X23047603Y-42774261D01*
X23079235Y-42783549D01*
X23079236Y-42783549D01*
X23079239Y-42783550D01*
X23079241Y-42783550D01*
X23223159Y-42783550D01*
X23223161Y-42783550D01*
X23361253Y-42743003D01*
X23482328Y-42665193D01*
X23576577Y-42556423D01*
X23636365Y-42425507D01*
X23656847Y-42283050D01*
X23636365Y-42140593D01*
X23576577Y-42009677D01*
X23482328Y-41900907D01*
X23482327Y-41900906D01*
X23482326Y-41900905D01*
X23361257Y-41823099D01*
X23361254Y-41823097D01*
X23361253Y-41823097D01*
X23355995Y-41821553D01*
X23223164Y-41782550D01*
X23223161Y-41782550D01*
X23079239Y-41782550D01*
X23079235Y-41782550D01*
X22941149Y-41823096D01*
X22941142Y-41823099D01*
X22820073Y-41900905D01*
X22725822Y-42009678D01*
X22666034Y-42140593D01*
X22645553Y-42283047D01*
X20561100Y-42283047D01*
X20561100Y-40238547D01*
X35813953Y-40238547D01*
X35813953Y-40238552D01*
X35834434Y-40381006D01*
X35876492Y-40473099D01*
X35894223Y-40511923D01*
X35983414Y-40614856D01*
X35988473Y-40620694D01*
X36109055Y-40698187D01*
X36109547Y-40698503D01*
X36216003Y-40729761D01*
X36247635Y-40739049D01*
X36247636Y-40739049D01*
X36247639Y-40739050D01*
X36247641Y-40739050D01*
X36391559Y-40739050D01*
X36391561Y-40739050D01*
X36529653Y-40698503D01*
X36650728Y-40620693D01*
X36744977Y-40511923D01*
X36804765Y-40381007D01*
X36822802Y-40255558D01*
X36825247Y-40238552D01*
X36825247Y-40238547D01*
X36805046Y-40098046D01*
X42162017Y-40098046D01*
X42162017Y-40098053D01*
X42182298Y-40303979D01*
X42182299Y-40303984D01*
X42242368Y-40502004D01*
X42339916Y-40684502D01*
X42429730Y-40793941D01*
X42471190Y-40844460D01*
X42471195Y-40844464D01*
X42631147Y-40975733D01*
X42631148Y-40975733D01*
X42631150Y-40975735D01*
X42813646Y-41073282D01*
X42918610Y-41105122D01*
X43011665Y-41133350D01*
X43011670Y-41133351D01*
X43217597Y-41153633D01*
X43217600Y-41153633D01*
X43217603Y-41153633D01*
X43423529Y-41133351D01*
X43423534Y-41133350D01*
X43621554Y-41073282D01*
X43804050Y-40975735D01*
X43964010Y-40844460D01*
X44095285Y-40684500D01*
X44192832Y-40502004D01*
X44252900Y-40303984D01*
X44252901Y-40303979D01*
X44273183Y-40098053D01*
X44273183Y-40098046D01*
X44252901Y-39892120D01*
X44252900Y-39892115D01*
X44218464Y-39778596D01*
X44192832Y-39694096D01*
X44095285Y-39511600D01*
X44041707Y-39446315D01*
X43964014Y-39351645D01*
X43964010Y-39351640D01*
X43931643Y-39325077D01*
X43804052Y-39220366D01*
X43621554Y-39122818D01*
X43423534Y-39062749D01*
X43423529Y-39062748D01*
X43217603Y-39042467D01*
X43217597Y-39042467D01*
X43011670Y-39062748D01*
X43011665Y-39062749D01*
X42813645Y-39122818D01*
X42631147Y-39220366D01*
X42471195Y-39351635D01*
X42471185Y-39351645D01*
X42339916Y-39511597D01*
X42242368Y-39694095D01*
X42182299Y-39892115D01*
X42182298Y-39892120D01*
X42162017Y-40098046D01*
X36805046Y-40098046D01*
X36804765Y-40096093D01*
X36772732Y-40025951D01*
X36744977Y-39965177D01*
X36650728Y-39856407D01*
X36650727Y-39856406D01*
X36650726Y-39856405D01*
X36529657Y-39778599D01*
X36529654Y-39778597D01*
X36529653Y-39778597D01*
X36529650Y-39778596D01*
X36391564Y-39738050D01*
X36391561Y-39738050D01*
X36247639Y-39738050D01*
X36247635Y-39738050D01*
X36109549Y-39778596D01*
X36109542Y-39778599D01*
X35988473Y-39856405D01*
X35894222Y-39965178D01*
X35834434Y-40096093D01*
X35813953Y-40238547D01*
X20561100Y-40238547D01*
X20561100Y-40224487D01*
X20561355Y-40217393D01*
X20564407Y-40175074D01*
X20564642Y-40172364D01*
X20569618Y-40123235D01*
X20569616Y-40123230D01*
X20569572Y-40122756D01*
X20569561Y-40121822D01*
X20569403Y-40120556D01*
X20569090Y-40117721D01*
X20568977Y-40116543D01*
X20568790Y-40115658D01*
X20568728Y-40115167D01*
X20568729Y-40115163D01*
X20553136Y-40068222D01*
X20552315Y-40065627D01*
X20538092Y-40018266D01*
X20538090Y-40018264D01*
X20537851Y-40017813D01*
X20537495Y-40016982D01*
X20536915Y-40015961D01*
X20535536Y-40013451D01*
X20534949Y-40012347D01*
X20534424Y-40011580D01*
X20534180Y-40011151D01*
X20530101Y-40006438D01*
X20501865Y-39973812D01*
X20500055Y-39971658D01*
X20435140Y-39892115D01*
X20195479Y-39598447D01*
X30084953Y-39598447D01*
X30084953Y-39598452D01*
X30105434Y-39740906D01*
X30158182Y-39856405D01*
X30165223Y-39871823D01*
X30246114Y-39965177D01*
X30259473Y-39980594D01*
X30344943Y-40035522D01*
X30380547Y-40058403D01*
X30487003Y-40089661D01*
X30518635Y-40098949D01*
X30518636Y-40098949D01*
X30518639Y-40098950D01*
X30518641Y-40098950D01*
X30662559Y-40098950D01*
X30662561Y-40098950D01*
X30800653Y-40058403D01*
X30921728Y-39980593D01*
X31015977Y-39871823D01*
X31075765Y-39740907D01*
X31096247Y-39598450D01*
X31075765Y-39455993D01*
X31015977Y-39325077D01*
X30921728Y-39216307D01*
X30921727Y-39216306D01*
X30921726Y-39216305D01*
X30800657Y-39138499D01*
X30800654Y-39138497D01*
X30800653Y-39138497D01*
X30800650Y-39138496D01*
X30662564Y-39097950D01*
X30662561Y-39097950D01*
X30518639Y-39097950D01*
X30518635Y-39097950D01*
X30380549Y-39138496D01*
X30380542Y-39138499D01*
X30259473Y-39216305D01*
X30165222Y-39325078D01*
X30105434Y-39455993D01*
X30084953Y-39598447D01*
X20195479Y-39598447D01*
X17566393Y-36376897D01*
X24575753Y-36376897D01*
X24575753Y-36376902D01*
X24596234Y-36519356D01*
X24632994Y-36599847D01*
X24656023Y-36650273D01*
X24715192Y-36718558D01*
X24750273Y-36759044D01*
X24871342Y-36836850D01*
X24871347Y-36836853D01*
X24977803Y-36868111D01*
X25009435Y-36877399D01*
X25009436Y-36877399D01*
X25009439Y-36877400D01*
X25009441Y-36877400D01*
X25153359Y-36877400D01*
X25153361Y-36877400D01*
X25291453Y-36836853D01*
X25412528Y-36759043D01*
X25473824Y-36688303D01*
X42167100Y-36688303D01*
X42167100Y-38427796D01*
X42167101Y-38427808D01*
X42178732Y-38486277D01*
X42178734Y-38486283D01*
X42223045Y-38552598D01*
X42223048Y-38552602D01*
X42289369Y-38596917D01*
X42333831Y-38605761D01*
X42347841Y-38608548D01*
X42347846Y-38608548D01*
X42347852Y-38608550D01*
X42347853Y-38608550D01*
X44087347Y-38608550D01*
X44087348Y-38608550D01*
X44145831Y-38596917D01*
X44212152Y-38552602D01*
X44256467Y-38486281D01*
X44268100Y-38427798D01*
X44268100Y-36688302D01*
X44256467Y-36629819D01*
X44212152Y-36563498D01*
X44212148Y-36563495D01*
X44145833Y-36519184D01*
X44145831Y-36519183D01*
X44145828Y-36519182D01*
X44145827Y-36519182D01*
X44087358Y-36507551D01*
X44087348Y-36507550D01*
X42347852Y-36507550D01*
X42347851Y-36507550D01*
X42347841Y-36507551D01*
X42289372Y-36519182D01*
X42289366Y-36519184D01*
X42223051Y-36563495D01*
X42223045Y-36563501D01*
X42178734Y-36629816D01*
X42178732Y-36629822D01*
X42167101Y-36688291D01*
X42167100Y-36688303D01*
X25473824Y-36688303D01*
X25506777Y-36650273D01*
X25566565Y-36519357D01*
X25587047Y-36376900D01*
X25586363Y-36372144D01*
X25566565Y-36234443D01*
X25543271Y-36183437D01*
X25506777Y-36103527D01*
X25412528Y-35994757D01*
X25412527Y-35994756D01*
X25412526Y-35994755D01*
X25291457Y-35916949D01*
X25291454Y-35916947D01*
X25291453Y-35916947D01*
X25291450Y-35916946D01*
X25153364Y-35876400D01*
X25153361Y-35876400D01*
X25009439Y-35876400D01*
X25009435Y-35876400D01*
X24871349Y-35916946D01*
X24871342Y-35916949D01*
X24750273Y-35994755D01*
X24656022Y-36103528D01*
X24596234Y-36234443D01*
X24575753Y-36376897D01*
X17566393Y-36376897D01*
X15496087Y-33840049D01*
X15290274Y-33587856D01*
X15268130Y-33530818D01*
X15283741Y-33471658D01*
X15331145Y-33432972D01*
X15367078Y-33426262D01*
X22318010Y-33434030D01*
G37*
%TD.AperFunction*%
%TA.AperFunction,Conductor*%
G36*
X14106468Y-33424853D02*
G01*
X14164633Y-33443824D01*
X14181737Y-33461957D01*
X14182587Y-33461222D01*
X14187222Y-33466571D01*
X14187223Y-33466573D01*
X14242891Y-33530818D01*
X14281473Y-33575344D01*
X14351582Y-33620400D01*
X14402547Y-33653153D01*
X14502515Y-33682506D01*
X14540635Y-33693699D01*
X14540636Y-33693699D01*
X14540639Y-33693700D01*
X14618466Y-33693700D01*
X14676657Y-33712607D01*
X14695165Y-33730104D01*
X19926062Y-40139781D01*
X19987800Y-40215431D01*
X20009944Y-40272469D01*
X20010100Y-40278026D01*
X20010100Y-44665050D01*
X20052043Y-44766308D01*
X20130005Y-44844270D01*
X20157781Y-44898785D01*
X20159000Y-44914272D01*
X20159000Y-46984341D01*
X20140093Y-47042532D01*
X20090593Y-47078496D01*
X20029407Y-47078496D01*
X20006480Y-47067627D01*
X20000053Y-47063497D01*
X20000050Y-47063496D01*
X19861964Y-47022950D01*
X19861961Y-47022950D01*
X19718039Y-47022950D01*
X19718035Y-47022950D01*
X19579949Y-47063496D01*
X19573506Y-47066439D01*
X19572908Y-47065129D01*
X19521341Y-47078680D01*
X19464327Y-47056478D01*
X19431251Y-47005003D01*
X19428000Y-46979842D01*
X19428000Y-41968989D01*
X19428113Y-41964256D01*
X19428580Y-41954491D01*
X19430304Y-41918482D01*
X19430302Y-41918477D01*
X19429308Y-41911831D01*
X19428000Y-41905253D01*
X19428000Y-41905250D01*
X19410450Y-41862881D01*
X19408743Y-41858465D01*
X19393250Y-41815335D01*
X19393248Y-41815333D01*
X19393248Y-41815332D01*
X19389800Y-41809595D01*
X19386058Y-41803995D01*
X19386057Y-41803992D01*
X19376005Y-41793940D01*
X19353632Y-41771566D01*
X19350366Y-41768140D01*
X19280276Y-41691004D01*
X19136759Y-41533060D01*
X19111620Y-41477279D01*
X19124070Y-41417374D01*
X19156507Y-41383200D01*
X19239146Y-41330091D01*
X19262328Y-41315193D01*
X19356577Y-41206423D01*
X19416365Y-41075507D01*
X19436847Y-40933050D01*
X19436592Y-40931278D01*
X19416365Y-40790593D01*
X19392825Y-40739049D01*
X19356577Y-40659677D01*
X19262328Y-40550907D01*
X19262327Y-40550906D01*
X19262326Y-40550905D01*
X19141257Y-40473099D01*
X19141254Y-40473097D01*
X19141253Y-40473097D01*
X19141250Y-40473096D01*
X19003164Y-40432550D01*
X19003161Y-40432550D01*
X18859239Y-40432550D01*
X18859235Y-40432550D01*
X18721149Y-40473096D01*
X18721142Y-40473099D01*
X18600073Y-40550905D01*
X18592995Y-40559074D01*
X18505823Y-40659677D01*
X18505822Y-40659678D01*
X18501187Y-40665028D01*
X18499220Y-40663324D01*
X18460809Y-40694713D01*
X18399722Y-40698187D01*
X18351650Y-40669024D01*
X17508311Y-39740907D01*
X16914096Y-39086956D01*
X16904421Y-39074427D01*
X15771725Y-37336064D01*
X15755800Y-37276990D01*
X15764619Y-37240894D01*
X15782265Y-37202257D01*
X15799045Y-37085547D01*
X15802747Y-37059802D01*
X15802747Y-37059797D01*
X15782265Y-36917343D01*
X15745506Y-36836853D01*
X15722477Y-36786427D01*
X15628228Y-36677657D01*
X15628227Y-36677656D01*
X15628226Y-36677655D01*
X15507157Y-36599849D01*
X15507154Y-36599847D01*
X15507153Y-36599847D01*
X15507150Y-36599846D01*
X15369064Y-36559300D01*
X15369061Y-36559300D01*
X15225139Y-36559300D01*
X15225135Y-36559300D01*
X15087049Y-36599846D01*
X15087042Y-36599849D01*
X14965973Y-36677655D01*
X14871722Y-36786428D01*
X14811934Y-36917343D01*
X14791453Y-37059797D01*
X14791453Y-37059802D01*
X14811934Y-37202256D01*
X14843844Y-37272127D01*
X14871723Y-37333173D01*
X14958469Y-37433284D01*
X14965973Y-37441944D01*
X15077074Y-37513344D01*
X15087047Y-37519753D01*
X15225139Y-37560300D01*
X15231933Y-37562295D01*
X15231075Y-37565217D01*
X15274290Y-37586428D01*
X15288286Y-37603423D01*
X15610454Y-38097857D01*
X16435289Y-39363742D01*
X16445512Y-39384315D01*
X16449247Y-39394712D01*
X16449249Y-39394716D01*
X16465899Y-39413040D01*
X16475572Y-39425567D01*
X16489089Y-39446311D01*
X16489094Y-39446317D01*
X16498204Y-39452557D01*
X16515525Y-39467654D01*
X17507250Y-40559074D01*
X17532390Y-40614856D01*
X17519940Y-40674761D01*
X17474657Y-40715908D01*
X17461873Y-40720641D01*
X17379946Y-40744697D01*
X17379942Y-40744699D01*
X17258873Y-40822505D01*
X17164622Y-40931278D01*
X17104834Y-41062193D01*
X17084353Y-41204647D01*
X17084353Y-41204652D01*
X17104834Y-41347106D01*
X17134513Y-41412092D01*
X17164623Y-41478023D01*
X17236338Y-41560787D01*
X17258873Y-41586794D01*
X17375120Y-41661501D01*
X17379947Y-41664603D01*
X17469862Y-41691004D01*
X17518035Y-41705149D01*
X17518036Y-41705149D01*
X17518039Y-41705150D01*
X17518041Y-41705150D01*
X17661959Y-41705150D01*
X17661961Y-41705150D01*
X17800053Y-41664603D01*
X17921128Y-41586793D01*
X18015377Y-41478023D01*
X18062350Y-41375166D01*
X18103720Y-41330091D01*
X18163687Y-41317940D01*
X18219343Y-41343357D01*
X18225672Y-41349718D01*
X18825348Y-42009678D01*
X18851270Y-42038205D01*
X18876410Y-42093987D01*
X18877000Y-42104782D01*
X18877000Y-46979842D01*
X18858093Y-47038033D01*
X18808593Y-47073997D01*
X18747407Y-47073997D01*
X18730637Y-47066047D01*
X18725054Y-47063498D01*
X18725053Y-47063497D01*
X18725050Y-47063496D01*
X18586964Y-47022950D01*
X18586961Y-47022950D01*
X18443039Y-47022950D01*
X18443035Y-47022950D01*
X18304949Y-47063496D01*
X18304942Y-47063499D01*
X18183873Y-47141305D01*
X18089622Y-47250078D01*
X18029834Y-47380993D01*
X18009353Y-47523447D01*
X18009353Y-47523452D01*
X18029834Y-47665906D01*
X18089622Y-47796821D01*
X18089623Y-47796823D01*
X18143158Y-47858606D01*
X18183873Y-47905594D01*
X18302409Y-47981772D01*
X18304947Y-47983403D01*
X18391667Y-48008866D01*
X18443035Y-48023949D01*
X18443036Y-48023949D01*
X18443039Y-48023950D01*
X18443041Y-48023950D01*
X18586959Y-48023950D01*
X18586961Y-48023950D01*
X18725053Y-47983403D01*
X18725060Y-47983398D01*
X18731494Y-47980461D01*
X18732092Y-47981772D01*
X18783646Y-47968218D01*
X18840663Y-47990413D01*
X18873746Y-48041883D01*
X18877000Y-48067057D01*
X18877000Y-48254842D01*
X18858093Y-48313033D01*
X18808593Y-48348997D01*
X18747407Y-48348997D01*
X18730637Y-48341047D01*
X18725054Y-48338498D01*
X18725053Y-48338497D01*
X18711216Y-48334434D01*
X18586964Y-48297950D01*
X18586961Y-48297950D01*
X18443039Y-48297950D01*
X18443035Y-48297950D01*
X18304949Y-48338496D01*
X18304942Y-48338499D01*
X18183873Y-48416305D01*
X18089622Y-48525078D01*
X18029834Y-48655993D01*
X18009353Y-48798447D01*
X18009353Y-48798454D01*
X18013270Y-48825700D01*
X18002836Y-48885989D01*
X17958958Y-48928631D01*
X17898395Y-48937338D01*
X17887387Y-48934778D01*
X17761964Y-48897950D01*
X17761961Y-48897950D01*
X17618039Y-48897950D01*
X17618035Y-48897950D01*
X17479949Y-48938496D01*
X17479942Y-48938499D01*
X17358873Y-49016305D01*
X17264622Y-49125078D01*
X17204834Y-49255993D01*
X17184353Y-49398447D01*
X17184353Y-49398452D01*
X17204834Y-49540906D01*
X17250504Y-49640907D01*
X17264623Y-49671823D01*
X17348583Y-49768719D01*
X17358873Y-49780594D01*
X17479942Y-49858400D01*
X17479947Y-49858403D01*
X17586403Y-49889661D01*
X17618035Y-49898949D01*
X17618036Y-49898949D01*
X17618039Y-49898950D01*
X17618041Y-49898950D01*
X17761959Y-49898950D01*
X17761961Y-49898950D01*
X17898646Y-49858816D01*
X17959805Y-49860563D01*
X18008258Y-49897926D01*
X18025496Y-49956633D01*
X18024528Y-49967894D01*
X18009353Y-50073445D01*
X18009353Y-50073452D01*
X18029834Y-50215906D01*
X18067532Y-50298451D01*
X18089623Y-50346823D01*
X18142885Y-50408291D01*
X18183873Y-50455594D01*
X18302409Y-50531772D01*
X18304947Y-50533403D01*
X18391667Y-50558866D01*
X18443035Y-50573949D01*
X18443036Y-50573949D01*
X18443039Y-50573950D01*
X18443041Y-50573950D01*
X18586959Y-50573950D01*
X18586961Y-50573950D01*
X18725053Y-50533403D01*
X18725060Y-50533398D01*
X18731494Y-50530461D01*
X18732092Y-50531772D01*
X18783646Y-50518218D01*
X18840663Y-50540413D01*
X18873746Y-50591883D01*
X18877000Y-50617057D01*
X18877000Y-53009750D01*
X18897077Y-53058218D01*
X18902712Y-53071823D01*
X18902712Y-53071824D01*
X18918941Y-53111007D01*
X19115407Y-53307473D01*
X19143184Y-53361989D01*
X19133613Y-53422421D01*
X19090348Y-53465686D01*
X19073301Y-53472464D01*
X19071152Y-53473095D01*
X19071142Y-53473099D01*
X18950073Y-53550905D01*
X18855821Y-53659678D01*
X18834050Y-53707351D01*
X18792677Y-53752429D01*
X18732710Y-53764579D01*
X18677055Y-53739160D01*
X18673993Y-53736228D01*
X16494496Y-51556731D01*
X16466719Y-51502214D01*
X16465500Y-51486727D01*
X16465500Y-44387847D01*
X17001553Y-44387847D01*
X17001553Y-44387852D01*
X17022034Y-44530306D01*
X17081822Y-44661221D01*
X17081823Y-44661223D01*
X17172877Y-44766306D01*
X17176073Y-44769994D01*
X17291646Y-44844268D01*
X17297147Y-44847803D01*
X17383864Y-44873265D01*
X17435235Y-44888349D01*
X17435236Y-44888349D01*
X17435239Y-44888350D01*
X17435241Y-44888350D01*
X17579159Y-44888350D01*
X17579161Y-44888350D01*
X17717253Y-44847803D01*
X17838328Y-44769993D01*
X17932577Y-44661223D01*
X17992365Y-44530307D01*
X18012847Y-44387850D01*
X18008065Y-44354593D01*
X17992365Y-44245393D01*
X17932773Y-44114907D01*
X17932577Y-44114477D01*
X17838328Y-44005707D01*
X17838327Y-44005706D01*
X17838326Y-44005705D01*
X17717257Y-43927899D01*
X17717254Y-43927897D01*
X17717253Y-43927897D01*
X17717250Y-43927896D01*
X17579164Y-43887350D01*
X17579161Y-43887350D01*
X17435239Y-43887350D01*
X17435235Y-43887350D01*
X17297149Y-43927896D01*
X17297142Y-43927899D01*
X17176073Y-44005705D01*
X17081822Y-44114478D01*
X17022034Y-44245393D01*
X17001553Y-44387847D01*
X16465500Y-44387847D01*
X16465500Y-40895200D01*
X16423557Y-40793942D01*
X16423557Y-40793941D01*
X13789849Y-38160233D01*
X13762072Y-38105716D01*
X13771643Y-38045284D01*
X13806330Y-38006944D01*
X13808647Y-38005454D01*
X13808653Y-38005453D01*
X13929728Y-37927643D01*
X14023977Y-37818873D01*
X14083765Y-37687957D01*
X14101803Y-37562497D01*
X14104247Y-37545502D01*
X14104247Y-37545497D01*
X14083765Y-37403043D01*
X14077161Y-37388582D01*
X14023977Y-37272127D01*
X13929728Y-37163357D01*
X13929727Y-37163356D01*
X13929726Y-37163355D01*
X13808657Y-37085549D01*
X13808654Y-37085547D01*
X13808653Y-37085547D01*
X13808650Y-37085546D01*
X13670564Y-37045000D01*
X13670561Y-37045000D01*
X13526639Y-37045000D01*
X13526635Y-37045000D01*
X13388549Y-37085546D01*
X13388542Y-37085549D01*
X13267472Y-37163356D01*
X13267470Y-37163358D01*
X13236719Y-37198847D01*
X13184323Y-37230443D01*
X13123362Y-37225207D01*
X13077121Y-37185139D01*
X13062900Y-37134016D01*
X13062900Y-34198851D01*
X13081807Y-34140660D01*
X13108378Y-34115566D01*
X13109523Y-34114829D01*
X13118528Y-34109043D01*
X13212777Y-34000273D01*
X13272565Y-33869357D01*
X13287877Y-33762857D01*
X13293047Y-33726902D01*
X13293047Y-33726897D01*
X13272566Y-33584445D01*
X13270808Y-33580597D01*
X13263291Y-33564137D01*
X13256317Y-33503352D01*
X13286403Y-33450075D01*
X13342058Y-33424656D01*
X13353440Y-33424011D01*
X14106468Y-33424853D01*
G37*
%TD.AperFunction*%
%TD*%
%TA.AperFunction,Conductor*%
%TO.N,GND*%
G36*
X68113411Y-2499685D02*
G01*
X68159166Y-2552489D01*
X68170371Y-2603628D01*
X68239630Y-25676860D01*
X68220147Y-25743958D01*
X68167481Y-25789871D01*
X68116866Y-25801226D01*
X51022834Y-25971484D01*
X50955602Y-25952468D01*
X50909323Y-25900122D01*
X50898691Y-25831066D01*
X50927082Y-25767225D01*
X50938440Y-25755510D01*
X59317262Y-18184427D01*
X59329520Y-18175508D01*
X59329461Y-18175431D01*
X59335910Y-18170482D01*
X59335910Y-18170481D01*
X59335913Y-18170480D01*
X59363839Y-18142552D01*
X59368345Y-18138269D01*
X59397632Y-18111807D01*
X59397638Y-18111796D01*
X59402901Y-18105614D01*
X59402976Y-18105678D01*
X59405610Y-18102419D01*
X59405533Y-18102360D01*
X59410480Y-18095913D01*
X59430213Y-18061734D01*
X59433468Y-18056409D01*
X59454910Y-18023266D01*
X59454911Y-18023260D01*
X59458400Y-18015916D01*
X59458488Y-18015958D01*
X59460187Y-18012133D01*
X59460096Y-18012096D01*
X59463203Y-18004593D01*
X59463207Y-18004587D01*
X59473417Y-17966480D01*
X59475193Y-17960466D01*
X59487319Y-17922922D01*
X59487318Y-17922922D01*
X59487321Y-17922916D01*
X59487321Y-17922909D01*
X59488787Y-17914923D01*
X59488884Y-17914940D01*
X59489536Y-17910800D01*
X59489438Y-17910788D01*
X59490498Y-17902730D01*
X59490500Y-17902727D01*
X59490500Y-17863265D01*
X59490659Y-17856994D01*
X59492654Y-17817597D01*
X59492652Y-17817589D01*
X59492002Y-17809491D01*
X59492098Y-17809483D01*
X59490500Y-17794405D01*
X59490500Y-12995335D01*
X59501705Y-12943825D01*
X59525165Y-12892457D01*
X59545647Y-12750000D01*
X59525165Y-12607543D01*
X59522484Y-12601673D01*
X59501706Y-12556174D01*
X59490500Y-12504663D01*
X59490500Y-12397275D01*
X59490500Y-12397273D01*
X59463207Y-12295413D01*
X59410480Y-12204087D01*
X59335913Y-12129520D01*
X59244587Y-12076793D01*
X59142727Y-12049500D01*
X59037273Y-12049500D01*
X58935413Y-12076793D01*
X58935410Y-12076794D01*
X58844085Y-12129521D01*
X58769521Y-12204085D01*
X58716794Y-12295410D01*
X58716792Y-12295415D01*
X58699619Y-12359503D01*
X58673559Y-12408608D01*
X58614625Y-12476622D01*
X58614622Y-12476628D01*
X58554834Y-12607543D01*
X58534353Y-12750000D01*
X58554834Y-12892456D01*
X58601818Y-12995335D01*
X58614623Y-13023373D01*
X58659213Y-13074833D01*
X58688238Y-13138388D01*
X58689500Y-13156035D01*
X58689500Y-17617030D01*
X58669815Y-17684069D01*
X58648634Y-17709034D01*
X49522647Y-25955253D01*
X49459709Y-25985593D01*
X49440748Y-25987243D01*
X48285394Y-25998751D01*
X48218162Y-25979735D01*
X48171883Y-25927389D01*
X48160159Y-25874603D01*
X48183278Y-7750000D01*
X58034659Y-7750000D01*
X58053975Y-7946129D01*
X58053976Y-7946132D01*
X58101729Y-8103553D01*
X58111188Y-8134733D01*
X58204086Y-8308532D01*
X58204090Y-8308539D01*
X58329116Y-8460883D01*
X58481460Y-8585909D01*
X58481467Y-8585913D01*
X58655266Y-8678811D01*
X58655269Y-8678811D01*
X58655273Y-8678814D01*
X58843868Y-8736024D01*
X59040000Y-8755341D01*
X59236132Y-8736024D01*
X59424727Y-8678814D01*
X59598538Y-8585910D01*
X59750883Y-8460883D01*
X59875910Y-8308538D01*
X59935893Y-8196317D01*
X59968812Y-8134731D01*
X59968812Y-8134730D01*
X59968814Y-8134727D01*
X60017146Y-7975396D01*
X60055443Y-7916960D01*
X60119255Y-7888504D01*
X60188322Y-7899064D01*
X60240716Y-7945288D01*
X60255581Y-7979300D01*
X60313731Y-8196320D01*
X60313735Y-8196331D01*
X60409863Y-8402478D01*
X60460974Y-8475472D01*
X61140000Y-7796446D01*
X61140000Y-7802661D01*
X61167259Y-7904394D01*
X61219920Y-7995606D01*
X61294394Y-8070080D01*
X61385606Y-8122741D01*
X61487339Y-8150000D01*
X61493553Y-8150000D01*
X60814526Y-8829025D01*
X60887513Y-8880132D01*
X60887521Y-8880136D01*
X61093668Y-8976264D01*
X61093682Y-8976269D01*
X61313389Y-9035139D01*
X61313400Y-9035141D01*
X61539998Y-9054966D01*
X61540002Y-9054966D01*
X61766599Y-9035141D01*
X61766610Y-9035139D01*
X61986317Y-8976269D01*
X61986331Y-8976264D01*
X62192478Y-8880136D01*
X62265471Y-8829024D01*
X61586447Y-8150000D01*
X61592661Y-8150000D01*
X61694394Y-8122741D01*
X61785606Y-8070080D01*
X61860080Y-7995606D01*
X61912741Y-7904394D01*
X61940000Y-7802661D01*
X61940000Y-7796447D01*
X62619024Y-8475471D01*
X62670136Y-8402478D01*
X62766264Y-8196331D01*
X62766269Y-8196317D01*
X62825139Y-7976610D01*
X62825141Y-7976599D01*
X62844966Y-7750002D01*
X62844966Y-7749997D01*
X62825141Y-7523400D01*
X62825139Y-7523389D01*
X62766269Y-7303682D01*
X62766264Y-7303668D01*
X62670136Y-7097521D01*
X62670132Y-7097513D01*
X62619025Y-7024526D01*
X61940000Y-7703551D01*
X61940000Y-7697339D01*
X61912741Y-7595606D01*
X61860080Y-7504394D01*
X61785606Y-7429920D01*
X61694394Y-7377259D01*
X61592661Y-7350000D01*
X61586448Y-7350000D01*
X62265472Y-6670974D01*
X62192478Y-6619863D01*
X61986331Y-6523735D01*
X61986317Y-6523730D01*
X61766610Y-6464860D01*
X61766599Y-6464858D01*
X61540002Y-6445034D01*
X61539998Y-6445034D01*
X61313400Y-6464858D01*
X61313389Y-6464860D01*
X61093682Y-6523730D01*
X61093673Y-6523734D01*
X60887516Y-6619866D01*
X60887512Y-6619868D01*
X60814526Y-6670973D01*
X60814526Y-6670974D01*
X61493553Y-7350000D01*
X61487339Y-7350000D01*
X61385606Y-7377259D01*
X61294394Y-7429920D01*
X61219920Y-7504394D01*
X61167259Y-7595606D01*
X61140000Y-7697339D01*
X61140000Y-7703552D01*
X60460974Y-7024526D01*
X60460973Y-7024526D01*
X60409868Y-7097512D01*
X60409866Y-7097516D01*
X60313734Y-7303673D01*
X60313731Y-7303680D01*
X60255581Y-7520699D01*
X60219216Y-7580359D01*
X60156369Y-7610888D01*
X60086993Y-7602593D01*
X60033115Y-7558108D01*
X60017146Y-7524603D01*
X59968814Y-7365273D01*
X59968812Y-7365270D01*
X59968812Y-7365268D01*
X59875913Y-7191467D01*
X59875909Y-7191460D01*
X59750883Y-7039116D01*
X59598539Y-6914090D01*
X59598532Y-6914086D01*
X59424733Y-6821188D01*
X59424727Y-6821186D01*
X59236132Y-6763976D01*
X59236129Y-6763975D01*
X59040000Y-6744659D01*
X58843870Y-6763975D01*
X58655266Y-6821188D01*
X58481467Y-6914086D01*
X58481460Y-6914090D01*
X58329116Y-7039116D01*
X58204090Y-7191460D01*
X58204086Y-7191467D01*
X58111188Y-7365266D01*
X58053975Y-7553870D01*
X58034659Y-7750000D01*
X48183278Y-7750000D01*
X48189842Y-2603841D01*
X48209612Y-2536828D01*
X48262474Y-2491140D01*
X48313842Y-2480000D01*
X68046372Y-2480000D01*
X68113411Y-2499685D01*
G37*
%TD.AperFunction*%
%TD*%
M02*
