%TF.GenerationSoftware,KiCad,Pcbnew,8.0.5*%
%TF.CreationDate,2024-09-23T16:37:59-07:00*%
%TF.ProjectId,fluke_884x_continuity_buzzer,666c756b-655f-4383-9834-785f636f6e74,4*%
%TF.SameCoordinates,Original*%
%TF.FileFunction,Soldermask,Top*%
%TF.FilePolarity,Negative*%
%FSLAX46Y46*%
G04 Gerber Fmt 4.6, Leading zero omitted, Abs format (unit mm)*
G04 Created by KiCad (PCBNEW 8.0.5) date 2024-09-23 16:37:59*
%MOMM*%
%LPD*%
G01*
G04 APERTURE LIST*
G04 APERTURE END LIST*
G36*
X18594293Y-54526589D02*
G01*
X18656257Y-54567993D01*
X18697661Y-54629957D01*
X18712200Y-54703050D01*
X18712200Y-54983050D01*
X18697661Y-55056143D01*
X18656257Y-55118107D01*
X18594293Y-55159511D01*
X18521200Y-55174050D01*
X18181200Y-55174050D01*
X18108107Y-55159511D01*
X18046143Y-55118107D01*
X18004739Y-55056143D01*
X17990200Y-54983050D01*
X17990200Y-54703050D01*
X18004739Y-54629957D01*
X18046143Y-54567993D01*
X18108107Y-54526589D01*
X18181200Y-54512050D01*
X18521200Y-54512050D01*
X18594293Y-54526589D01*
G37*
G36*
X46037117Y-53385932D02*
G01*
X46053662Y-53396988D01*
X46064718Y-53413533D01*
X46068600Y-53433050D01*
X46068600Y-54433050D01*
X46064718Y-54452567D01*
X46053662Y-54469112D01*
X46037117Y-54480168D01*
X46017600Y-54484050D01*
X45017600Y-54484050D01*
X44998083Y-54480168D01*
X44981538Y-54469112D01*
X44970482Y-54452567D01*
X44966600Y-54433050D01*
X44966600Y-53433050D01*
X44970482Y-53413533D01*
X44981538Y-53396988D01*
X44998083Y-53385932D01*
X45017600Y-53382050D01*
X46017600Y-53382050D01*
X46037117Y-53385932D01*
G37*
G36*
X50737117Y-53385932D02*
G01*
X50753662Y-53396988D01*
X50764718Y-53413533D01*
X50768600Y-53433050D01*
X50768600Y-54433050D01*
X50764718Y-54452567D01*
X50753662Y-54469112D01*
X50737117Y-54480168D01*
X50717600Y-54484050D01*
X49717600Y-54484050D01*
X49698083Y-54480168D01*
X49681538Y-54469112D01*
X49670482Y-54452567D01*
X49666600Y-54433050D01*
X49666600Y-53433050D01*
X49670482Y-53413533D01*
X49681538Y-53396988D01*
X49698083Y-53385932D01*
X49717600Y-53382050D01*
X50717600Y-53382050D01*
X50737117Y-53385932D01*
G37*
G36*
X18594293Y-53566589D02*
G01*
X18656257Y-53607993D01*
X18697661Y-53669957D01*
X18712200Y-53743050D01*
X18712200Y-54023050D01*
X18697661Y-54096143D01*
X18656257Y-54158107D01*
X18594293Y-54199511D01*
X18521200Y-54214050D01*
X18181200Y-54214050D01*
X18108107Y-54199511D01*
X18046143Y-54158107D01*
X18004739Y-54096143D01*
X17990200Y-54023050D01*
X17990200Y-53743050D01*
X18004739Y-53669957D01*
X18046143Y-53607993D01*
X18108107Y-53566589D01*
X18181200Y-53552050D01*
X18521200Y-53552050D01*
X18594293Y-53566589D01*
G37*
G36*
X70084517Y-52173432D02*
G01*
X70101062Y-52184488D01*
X70112118Y-52201033D01*
X70116000Y-52220550D01*
X70116000Y-53420550D01*
X70112118Y-53440067D01*
X70111757Y-53440607D01*
X70111757Y-53485291D01*
X70078244Y-53610361D01*
X70013503Y-53722496D01*
X69921946Y-53814053D01*
X69809811Y-53878794D01*
X69684741Y-53912307D01*
X69620000Y-53916550D01*
X69618522Y-53916550D01*
X68961478Y-53916550D01*
X68960000Y-53916550D01*
X68895259Y-53912307D01*
X68770189Y-53878794D01*
X68658054Y-53814053D01*
X68566497Y-53722496D01*
X68501756Y-53610361D01*
X68468243Y-53485291D01*
X68468243Y-53440607D01*
X68467882Y-53440067D01*
X68464000Y-53420550D01*
X68464000Y-52220550D01*
X68467882Y-52201033D01*
X68478938Y-52184488D01*
X68495483Y-52173432D01*
X68515000Y-52169550D01*
X70065000Y-52169550D01*
X70084517Y-52173432D01*
G37*
G36*
X34800693Y-53186589D02*
G01*
X34862657Y-53227993D01*
X34904061Y-53289957D01*
X34918600Y-53363050D01*
X34918600Y-53703050D01*
X34904061Y-53776143D01*
X34862657Y-53838107D01*
X34800693Y-53879511D01*
X34727600Y-53894050D01*
X34447600Y-53894050D01*
X34374507Y-53879511D01*
X34312543Y-53838107D01*
X34271139Y-53776143D01*
X34256600Y-53703050D01*
X34256600Y-53363050D01*
X34271139Y-53289957D01*
X34312543Y-53227993D01*
X34374507Y-53186589D01*
X34447600Y-53172050D01*
X34727600Y-53172050D01*
X34800693Y-53186589D01*
G37*
G36*
X35760693Y-53186589D02*
G01*
X35822657Y-53227993D01*
X35864061Y-53289957D01*
X35878600Y-53363050D01*
X35878600Y-53703050D01*
X35864061Y-53776143D01*
X35822657Y-53838107D01*
X35760693Y-53879511D01*
X35687600Y-53894050D01*
X35407600Y-53894050D01*
X35334507Y-53879511D01*
X35272543Y-53838107D01*
X35231139Y-53776143D01*
X35216600Y-53703050D01*
X35216600Y-53363050D01*
X35231139Y-53289957D01*
X35272543Y-53227993D01*
X35334507Y-53186589D01*
X35407600Y-53172050D01*
X35687600Y-53172050D01*
X35760693Y-53186589D01*
G37*
G36*
X26008093Y-52451989D02*
G01*
X26070057Y-52493393D01*
X26111461Y-52555357D01*
X26126000Y-52628450D01*
X26126000Y-52968450D01*
X26111461Y-53041543D01*
X26070057Y-53103507D01*
X26008093Y-53144911D01*
X25935000Y-53159450D01*
X25655000Y-53159450D01*
X25581907Y-53144911D01*
X25519943Y-53103507D01*
X25478539Y-53041543D01*
X25464000Y-52968450D01*
X25464000Y-52628450D01*
X25478539Y-52555357D01*
X25519943Y-52493393D01*
X25581907Y-52451989D01*
X25655000Y-52437450D01*
X25935000Y-52437450D01*
X26008093Y-52451989D01*
G37*
G36*
X26968093Y-52451989D02*
G01*
X27030057Y-52493393D01*
X27071461Y-52555357D01*
X27086000Y-52628450D01*
X27086000Y-52968450D01*
X27071461Y-53041543D01*
X27030057Y-53103507D01*
X26968093Y-53144911D01*
X26895000Y-53159450D01*
X26615000Y-53159450D01*
X26541907Y-53144911D01*
X26479943Y-53103507D01*
X26438539Y-53041543D01*
X26424000Y-52968450D01*
X26424000Y-52628450D01*
X26438539Y-52555357D01*
X26479943Y-52493393D01*
X26541907Y-52451989D01*
X26615000Y-52437450D01*
X26895000Y-52437450D01*
X26968093Y-52451989D01*
G37*
G36*
X66791291Y-51784589D02*
G01*
X66910209Y-51853246D01*
X67007304Y-51950341D01*
X67075961Y-52069259D01*
X67111500Y-52201893D01*
X67116000Y-52270550D01*
X67116000Y-52570550D01*
X67111500Y-52639207D01*
X67075961Y-52771841D01*
X67007304Y-52890759D01*
X66910209Y-52987854D01*
X66791291Y-53056511D01*
X66658657Y-53092050D01*
X66521343Y-53092050D01*
X66388709Y-53056511D01*
X66269791Y-52987854D01*
X66172696Y-52890759D01*
X66104039Y-52771841D01*
X66068500Y-52639207D01*
X66064000Y-52570550D01*
X66064000Y-52270550D01*
X66068500Y-52201893D01*
X66104039Y-52069259D01*
X66172696Y-51950341D01*
X66269791Y-51853246D01*
X66388709Y-51784589D01*
X66521343Y-51749050D01*
X66658657Y-51749050D01*
X66791291Y-51784589D01*
G37*
G36*
X8079517Y-47322882D02*
G01*
X8096062Y-47333938D01*
X8107118Y-47350483D01*
X8111000Y-47370000D01*
X8111000Y-52970000D01*
X8107118Y-52989517D01*
X8096062Y-53006062D01*
X8079517Y-53017118D01*
X8060000Y-53021000D01*
X5960000Y-53021000D01*
X5940483Y-53017118D01*
X5923938Y-53006062D01*
X5912882Y-52989517D01*
X5909000Y-52970000D01*
X5909000Y-47370000D01*
X5912882Y-47350483D01*
X5923938Y-47333938D01*
X5940483Y-47322882D01*
X5960000Y-47319000D01*
X8060000Y-47319000D01*
X8079517Y-47322882D01*
G37*
G36*
X17278651Y-51755138D02*
G01*
X17311418Y-51777032D01*
X17333312Y-51809799D01*
X17341000Y-51848450D01*
X17341000Y-52623450D01*
X17333312Y-52662101D01*
X17311418Y-52694868D01*
X17278651Y-52716762D01*
X17240000Y-52724450D01*
X17140000Y-52724450D01*
X17101349Y-52716762D01*
X17068582Y-52694868D01*
X17046688Y-52662101D01*
X17039000Y-52623450D01*
X17039000Y-51848450D01*
X17046688Y-51809799D01*
X17068582Y-51777032D01*
X17101349Y-51755138D01*
X17140000Y-51747450D01*
X17240000Y-51747450D01*
X17278651Y-51755138D01*
G37*
G36*
X17678651Y-51755138D02*
G01*
X17711418Y-51777032D01*
X17733312Y-51809799D01*
X17741000Y-51848450D01*
X17741000Y-52623450D01*
X17733312Y-52662101D01*
X17711418Y-52694868D01*
X17678651Y-52716762D01*
X17640000Y-52724450D01*
X17540000Y-52724450D01*
X17501349Y-52716762D01*
X17468582Y-52694868D01*
X17446688Y-52662101D01*
X17439000Y-52623450D01*
X17439000Y-51848450D01*
X17446688Y-51809799D01*
X17468582Y-51777032D01*
X17501349Y-51755138D01*
X17540000Y-51747450D01*
X17640000Y-51747450D01*
X17678651Y-51755138D01*
G37*
G36*
X18078651Y-51755138D02*
G01*
X18111418Y-51777032D01*
X18133312Y-51809799D01*
X18141000Y-51848450D01*
X18141000Y-52623450D01*
X18133312Y-52662101D01*
X18111418Y-52694868D01*
X18078651Y-52716762D01*
X18040000Y-52724450D01*
X17940000Y-52724450D01*
X17901349Y-52716762D01*
X17868582Y-52694868D01*
X17846688Y-52662101D01*
X17839000Y-52623450D01*
X17839000Y-51848450D01*
X17846688Y-51809799D01*
X17868582Y-51777032D01*
X17901349Y-51755138D01*
X17940000Y-51747450D01*
X18040000Y-51747450D01*
X18078651Y-51755138D01*
G37*
G36*
X18478651Y-51755138D02*
G01*
X18511418Y-51777032D01*
X18533312Y-51809799D01*
X18541000Y-51848450D01*
X18541000Y-52623450D01*
X18533312Y-52662101D01*
X18511418Y-52694868D01*
X18478651Y-52716762D01*
X18440000Y-52724450D01*
X18340000Y-52724450D01*
X18301349Y-52716762D01*
X18268582Y-52694868D01*
X18246688Y-52662101D01*
X18239000Y-52623450D01*
X18239000Y-51848450D01*
X18246688Y-51809799D01*
X18268582Y-51777032D01*
X18301349Y-51755138D01*
X18340000Y-51747450D01*
X18440000Y-51747450D01*
X18478651Y-51755138D01*
G37*
G36*
X18878651Y-51755138D02*
G01*
X18911418Y-51777032D01*
X18933312Y-51809799D01*
X18941000Y-51848450D01*
X18941000Y-52623450D01*
X18933312Y-52662101D01*
X18911418Y-52694868D01*
X18878651Y-52716762D01*
X18840000Y-52724450D01*
X18740000Y-52724450D01*
X18701349Y-52716762D01*
X18668582Y-52694868D01*
X18646688Y-52662101D01*
X18639000Y-52623450D01*
X18639000Y-51848450D01*
X18646688Y-51809799D01*
X18668582Y-51777032D01*
X18701349Y-51755138D01*
X18740000Y-51747450D01*
X18840000Y-51747450D01*
X18878651Y-51755138D01*
G37*
G36*
X19278651Y-51755138D02*
G01*
X19311418Y-51777032D01*
X19333312Y-51809799D01*
X19341000Y-51848450D01*
X19341000Y-52623450D01*
X19333312Y-52662101D01*
X19311418Y-52694868D01*
X19278651Y-52716762D01*
X19240000Y-52724450D01*
X19140000Y-52724450D01*
X19101349Y-52716762D01*
X19068582Y-52694868D01*
X19046688Y-52662101D01*
X19039000Y-52623450D01*
X19039000Y-51848450D01*
X19046688Y-51809799D01*
X19068582Y-51777032D01*
X19101349Y-51755138D01*
X19140000Y-51747450D01*
X19240000Y-51747450D01*
X19278651Y-51755138D01*
G37*
G36*
X19678651Y-51755138D02*
G01*
X19711418Y-51777032D01*
X19733312Y-51809799D01*
X19741000Y-51848450D01*
X19741000Y-52623450D01*
X19733312Y-52662101D01*
X19711418Y-52694868D01*
X19678651Y-52716762D01*
X19640000Y-52724450D01*
X19540000Y-52724450D01*
X19501349Y-52716762D01*
X19468582Y-52694868D01*
X19446688Y-52662101D01*
X19439000Y-52623450D01*
X19439000Y-51848450D01*
X19446688Y-51809799D01*
X19468582Y-51777032D01*
X19501349Y-51755138D01*
X19540000Y-51747450D01*
X19640000Y-51747450D01*
X19678651Y-51755138D01*
G37*
G36*
X20078651Y-51755138D02*
G01*
X20111418Y-51777032D01*
X20133312Y-51809799D01*
X20141000Y-51848450D01*
X20141000Y-52623450D01*
X20133312Y-52662101D01*
X20111418Y-52694868D01*
X20078651Y-52716762D01*
X20040000Y-52724450D01*
X19940000Y-52724450D01*
X19901349Y-52716762D01*
X19868582Y-52694868D01*
X19846688Y-52662101D01*
X19839000Y-52623450D01*
X19839000Y-51848450D01*
X19846688Y-51809799D01*
X19868582Y-51777032D01*
X19901349Y-51755138D01*
X19940000Y-51747450D01*
X20040000Y-51747450D01*
X20078651Y-51755138D01*
G37*
G36*
X20478651Y-51755138D02*
G01*
X20511418Y-51777032D01*
X20533312Y-51809799D01*
X20541000Y-51848450D01*
X20541000Y-52623450D01*
X20533312Y-52662101D01*
X20511418Y-52694868D01*
X20478651Y-52716762D01*
X20440000Y-52724450D01*
X20340000Y-52724450D01*
X20301349Y-52716762D01*
X20268582Y-52694868D01*
X20246688Y-52662101D01*
X20239000Y-52623450D01*
X20239000Y-51848450D01*
X20246688Y-51809799D01*
X20268582Y-51777032D01*
X20301349Y-51755138D01*
X20340000Y-51747450D01*
X20440000Y-51747450D01*
X20478651Y-51755138D01*
G37*
G36*
X20878651Y-51755138D02*
G01*
X20911418Y-51777032D01*
X20933312Y-51809799D01*
X20941000Y-51848450D01*
X20941000Y-52623450D01*
X20933312Y-52662101D01*
X20911418Y-52694868D01*
X20878651Y-52716762D01*
X20840000Y-52724450D01*
X20740000Y-52724450D01*
X20701349Y-52716762D01*
X20668582Y-52694868D01*
X20646688Y-52662101D01*
X20639000Y-52623450D01*
X20639000Y-51848450D01*
X20646688Y-51809799D01*
X20668582Y-51777032D01*
X20701349Y-51755138D01*
X20740000Y-51747450D01*
X20840000Y-51747450D01*
X20878651Y-51755138D01*
G37*
G36*
X21278651Y-51755138D02*
G01*
X21311418Y-51777032D01*
X21333312Y-51809799D01*
X21341000Y-51848450D01*
X21341000Y-52623450D01*
X21333312Y-52662101D01*
X21311418Y-52694868D01*
X21278651Y-52716762D01*
X21240000Y-52724450D01*
X21140000Y-52724450D01*
X21101349Y-52716762D01*
X21068582Y-52694868D01*
X21046688Y-52662101D01*
X21039000Y-52623450D01*
X21039000Y-51848450D01*
X21046688Y-51809799D01*
X21068582Y-51777032D01*
X21101349Y-51755138D01*
X21140000Y-51747450D01*
X21240000Y-51747450D01*
X21278651Y-51755138D01*
G37*
G36*
X21678651Y-51755138D02*
G01*
X21711418Y-51777032D01*
X21733312Y-51809799D01*
X21741000Y-51848450D01*
X21741000Y-52623450D01*
X21733312Y-52662101D01*
X21711418Y-52694868D01*
X21678651Y-52716762D01*
X21640000Y-52724450D01*
X21540000Y-52724450D01*
X21501349Y-52716762D01*
X21468582Y-52694868D01*
X21446688Y-52662101D01*
X21439000Y-52623450D01*
X21439000Y-51848450D01*
X21446688Y-51809799D01*
X21468582Y-51777032D01*
X21501349Y-51755138D01*
X21540000Y-51747450D01*
X21640000Y-51747450D01*
X21678651Y-51755138D01*
G37*
G36*
X22078651Y-51755138D02*
G01*
X22111418Y-51777032D01*
X22133312Y-51809799D01*
X22141000Y-51848450D01*
X22141000Y-52623450D01*
X22133312Y-52662101D01*
X22111418Y-52694868D01*
X22078651Y-52716762D01*
X22040000Y-52724450D01*
X21940000Y-52724450D01*
X21901349Y-52716762D01*
X21868582Y-52694868D01*
X21846688Y-52662101D01*
X21839000Y-52623450D01*
X21839000Y-51848450D01*
X21846688Y-51809799D01*
X21868582Y-51777032D01*
X21901349Y-51755138D01*
X21940000Y-51747450D01*
X22040000Y-51747450D01*
X22078651Y-51755138D01*
G37*
G36*
X22478651Y-51755138D02*
G01*
X22511418Y-51777032D01*
X22533312Y-51809799D01*
X22541000Y-51848450D01*
X22541000Y-52623450D01*
X22533312Y-52662101D01*
X22511418Y-52694868D01*
X22478651Y-52716762D01*
X22440000Y-52724450D01*
X22340000Y-52724450D01*
X22301349Y-52716762D01*
X22268582Y-52694868D01*
X22246688Y-52662101D01*
X22239000Y-52623450D01*
X22239000Y-51848450D01*
X22246688Y-51809799D01*
X22268582Y-51777032D01*
X22301349Y-51755138D01*
X22340000Y-51747450D01*
X22440000Y-51747450D01*
X22478651Y-51755138D01*
G37*
G36*
X34800693Y-51786589D02*
G01*
X34862657Y-51827993D01*
X34904061Y-51889957D01*
X34918600Y-51963050D01*
X34918600Y-52303050D01*
X34904061Y-52376143D01*
X34862657Y-52438107D01*
X34800693Y-52479511D01*
X34727600Y-52494050D01*
X34447600Y-52494050D01*
X34374507Y-52479511D01*
X34312543Y-52438107D01*
X34271139Y-52376143D01*
X34256600Y-52303050D01*
X34256600Y-51963050D01*
X34271139Y-51889957D01*
X34312543Y-51827993D01*
X34374507Y-51786589D01*
X34447600Y-51772050D01*
X34727600Y-51772050D01*
X34800693Y-51786589D01*
G37*
G36*
X35760693Y-51786589D02*
G01*
X35822657Y-51827993D01*
X35864061Y-51889957D01*
X35878600Y-51963050D01*
X35878600Y-52303050D01*
X35864061Y-52376143D01*
X35822657Y-52438107D01*
X35760693Y-52479511D01*
X35687600Y-52494050D01*
X35407600Y-52494050D01*
X35334507Y-52479511D01*
X35272543Y-52438107D01*
X35231139Y-52376143D01*
X35216600Y-52303050D01*
X35216600Y-51963050D01*
X35231139Y-51889957D01*
X35272543Y-51827993D01*
X35334507Y-51786589D01*
X35407600Y-51772050D01*
X35687600Y-51772050D01*
X35760693Y-51786589D01*
G37*
G36*
X26008093Y-51451989D02*
G01*
X26070057Y-51493393D01*
X26111461Y-51555357D01*
X26126000Y-51628450D01*
X26126000Y-51968450D01*
X26111461Y-52041543D01*
X26070057Y-52103507D01*
X26008093Y-52144911D01*
X25935000Y-52159450D01*
X25655000Y-52159450D01*
X25581907Y-52144911D01*
X25519943Y-52103507D01*
X25478539Y-52041543D01*
X25464000Y-51968450D01*
X25464000Y-51628450D01*
X25478539Y-51555357D01*
X25519943Y-51493393D01*
X25581907Y-51451989D01*
X25655000Y-51437450D01*
X25935000Y-51437450D01*
X26008093Y-51451989D01*
G37*
G36*
X26968093Y-51451989D02*
G01*
X27030057Y-51493393D01*
X27071461Y-51555357D01*
X27086000Y-51628450D01*
X27086000Y-51968450D01*
X27071461Y-52041543D01*
X27030057Y-52103507D01*
X26968093Y-52144911D01*
X26895000Y-52159450D01*
X26615000Y-52159450D01*
X26541907Y-52144911D01*
X26479943Y-52103507D01*
X26438539Y-52041543D01*
X26424000Y-51968450D01*
X26424000Y-51628450D01*
X26438539Y-51555357D01*
X26479943Y-51493393D01*
X26541907Y-51451989D01*
X26615000Y-51437450D01*
X26895000Y-51437450D01*
X26968093Y-51451989D01*
G37*
G36*
X70084517Y-50123432D02*
G01*
X70101062Y-50134488D01*
X70112118Y-50151033D01*
X70116000Y-50170550D01*
X70116000Y-51670550D01*
X70112118Y-51690067D01*
X70101062Y-51706612D01*
X70084517Y-51717668D01*
X70065000Y-51721550D01*
X68515000Y-51721550D01*
X68495483Y-51717668D01*
X68478938Y-51706612D01*
X68467882Y-51690067D01*
X68464000Y-51670550D01*
X68464000Y-50170550D01*
X68467882Y-50151033D01*
X68478938Y-50134488D01*
X68495483Y-50123432D01*
X68515000Y-50119550D01*
X70065000Y-50119550D01*
X70084517Y-50123432D01*
G37*
G36*
X16778651Y-51255138D02*
G01*
X16811418Y-51277032D01*
X16833312Y-51309799D01*
X16841000Y-51348450D01*
X16841000Y-51448450D01*
X16833312Y-51487101D01*
X16811418Y-51519868D01*
X16778651Y-51541762D01*
X16740000Y-51549450D01*
X15965000Y-51549450D01*
X15926349Y-51541762D01*
X15893582Y-51519868D01*
X15871688Y-51487101D01*
X15864000Y-51448450D01*
X15864000Y-51348450D01*
X15871688Y-51309799D01*
X15893582Y-51277032D01*
X15926349Y-51255138D01*
X15965000Y-51247450D01*
X16740000Y-51247450D01*
X16778651Y-51255138D01*
G37*
G36*
X23653651Y-51255138D02*
G01*
X23686418Y-51277032D01*
X23708312Y-51309799D01*
X23716000Y-51348450D01*
X23716000Y-51448450D01*
X23708312Y-51487101D01*
X23686418Y-51519868D01*
X23653651Y-51541762D01*
X23615000Y-51549450D01*
X22840000Y-51549450D01*
X22801349Y-51541762D01*
X22768582Y-51519868D01*
X22746688Y-51487101D01*
X22739000Y-51448450D01*
X22739000Y-51348450D01*
X22746688Y-51309799D01*
X22768582Y-51277032D01*
X22801349Y-51255138D01*
X22840000Y-51247450D01*
X23615000Y-51247450D01*
X23653651Y-51255138D01*
G37*
G36*
X67284517Y-50973432D02*
G01*
X67301062Y-50984488D01*
X67312118Y-51001033D01*
X67316000Y-51020550D01*
X67316000Y-51420550D01*
X67312118Y-51440067D01*
X67301062Y-51456612D01*
X67284517Y-51467668D01*
X67265000Y-51471550D01*
X65915000Y-51471550D01*
X65895483Y-51467668D01*
X65878938Y-51456612D01*
X65867882Y-51440067D01*
X65864000Y-51420550D01*
X65864000Y-51020550D01*
X65867882Y-51001033D01*
X65878938Y-50984488D01*
X65895483Y-50973432D01*
X65915000Y-50969550D01*
X67265000Y-50969550D01*
X67284517Y-50973432D01*
G37*
G36*
X25971179Y-50441608D02*
G01*
X26031522Y-50481928D01*
X26071842Y-50542271D01*
X26086000Y-50613450D01*
X26086000Y-50983450D01*
X26071842Y-51054629D01*
X26031522Y-51114972D01*
X25971179Y-51155292D01*
X25900000Y-51169450D01*
X25630000Y-51169450D01*
X25558821Y-51155292D01*
X25498478Y-51114972D01*
X25458158Y-51054629D01*
X25444000Y-50983450D01*
X25444000Y-50613450D01*
X25458158Y-50542271D01*
X25498478Y-50481928D01*
X25558821Y-50441608D01*
X25630000Y-50427450D01*
X25900000Y-50427450D01*
X25971179Y-50441608D01*
G37*
G36*
X26991179Y-50441608D02*
G01*
X27051522Y-50481928D01*
X27091842Y-50542271D01*
X27106000Y-50613450D01*
X27106000Y-50983450D01*
X27091842Y-51054629D01*
X27051522Y-51114972D01*
X26991179Y-51155292D01*
X26920000Y-51169450D01*
X26650000Y-51169450D01*
X26578821Y-51155292D01*
X26518478Y-51114972D01*
X26478158Y-51054629D01*
X26464000Y-50983450D01*
X26464000Y-50613450D01*
X26478158Y-50542271D01*
X26518478Y-50481928D01*
X26578821Y-50441608D01*
X26650000Y-50427450D01*
X26920000Y-50427450D01*
X26991179Y-50441608D01*
G37*
G36*
X16778651Y-50855138D02*
G01*
X16811418Y-50877032D01*
X16833312Y-50909799D01*
X16841000Y-50948450D01*
X16841000Y-51048450D01*
X16833312Y-51087101D01*
X16811418Y-51119868D01*
X16778651Y-51141762D01*
X16740000Y-51149450D01*
X15965000Y-51149450D01*
X15926349Y-51141762D01*
X15893582Y-51119868D01*
X15871688Y-51087101D01*
X15864000Y-51048450D01*
X15864000Y-50948450D01*
X15871688Y-50909799D01*
X15893582Y-50877032D01*
X15926349Y-50855138D01*
X15965000Y-50847450D01*
X16740000Y-50847450D01*
X16778651Y-50855138D01*
G37*
G36*
X23653651Y-50855138D02*
G01*
X23686418Y-50877032D01*
X23708312Y-50909799D01*
X23716000Y-50948450D01*
X23716000Y-51048450D01*
X23708312Y-51087101D01*
X23686418Y-51119868D01*
X23653651Y-51141762D01*
X23615000Y-51149450D01*
X22840000Y-51149450D01*
X22801349Y-51141762D01*
X22768582Y-51119868D01*
X22746688Y-51087101D01*
X22739000Y-51048450D01*
X22739000Y-50948450D01*
X22746688Y-50909799D01*
X22768582Y-50877032D01*
X22801349Y-50855138D01*
X22840000Y-50847450D01*
X23615000Y-50847450D01*
X23653651Y-50855138D01*
G37*
G36*
X67284517Y-50323432D02*
G01*
X67301062Y-50334488D01*
X67312118Y-50351033D01*
X67316000Y-50370550D01*
X67316000Y-50770550D01*
X67312118Y-50790067D01*
X67301062Y-50806612D01*
X67284517Y-50817668D01*
X67265000Y-50821550D01*
X65915000Y-50821550D01*
X65895483Y-50817668D01*
X65878938Y-50806612D01*
X65867882Y-50790067D01*
X65864000Y-50770550D01*
X65864000Y-50370550D01*
X65867882Y-50351033D01*
X65878938Y-50334488D01*
X65895483Y-50323432D01*
X65915000Y-50319550D01*
X67265000Y-50319550D01*
X67284517Y-50323432D01*
G37*
G36*
X16778651Y-50455138D02*
G01*
X16811418Y-50477032D01*
X16833312Y-50509799D01*
X16841000Y-50548450D01*
X16841000Y-50648450D01*
X16833312Y-50687101D01*
X16811418Y-50719868D01*
X16778651Y-50741762D01*
X16740000Y-50749450D01*
X15965000Y-50749450D01*
X15926349Y-50741762D01*
X15893582Y-50719868D01*
X15871688Y-50687101D01*
X15864000Y-50648450D01*
X15864000Y-50548450D01*
X15871688Y-50509799D01*
X15893582Y-50477032D01*
X15926349Y-50455138D01*
X15965000Y-50447450D01*
X16740000Y-50447450D01*
X16778651Y-50455138D01*
G37*
G36*
X23653651Y-50455138D02*
G01*
X23686418Y-50477032D01*
X23708312Y-50509799D01*
X23716000Y-50548450D01*
X23716000Y-50648450D01*
X23708312Y-50687101D01*
X23686418Y-50719868D01*
X23653651Y-50741762D01*
X23615000Y-50749450D01*
X22840000Y-50749450D01*
X22801349Y-50741762D01*
X22768582Y-50719868D01*
X22746688Y-50687101D01*
X22739000Y-50648450D01*
X22739000Y-50548450D01*
X22746688Y-50509799D01*
X22768582Y-50477032D01*
X22801349Y-50455138D01*
X22840000Y-50447450D01*
X23615000Y-50447450D01*
X23653651Y-50455138D01*
G37*
G36*
X13038093Y-49951989D02*
G01*
X13100057Y-49993393D01*
X13141461Y-50055357D01*
X13156000Y-50128450D01*
X13156000Y-50468450D01*
X13141461Y-50541543D01*
X13100057Y-50603507D01*
X13038093Y-50644911D01*
X12965000Y-50659450D01*
X12685000Y-50659450D01*
X12611907Y-50644911D01*
X12549943Y-50603507D01*
X12508539Y-50541543D01*
X12494000Y-50468450D01*
X12494000Y-50128450D01*
X12508539Y-50055357D01*
X12549943Y-49993393D01*
X12611907Y-49951989D01*
X12685000Y-49937450D01*
X12965000Y-49937450D01*
X13038093Y-49951989D01*
G37*
G36*
X13998093Y-49951989D02*
G01*
X14060057Y-49993393D01*
X14101461Y-50055357D01*
X14116000Y-50128450D01*
X14116000Y-50468450D01*
X14101461Y-50541543D01*
X14060057Y-50603507D01*
X13998093Y-50644911D01*
X13925000Y-50659450D01*
X13645000Y-50659450D01*
X13571907Y-50644911D01*
X13509943Y-50603507D01*
X13468539Y-50541543D01*
X13454000Y-50468450D01*
X13454000Y-50128450D01*
X13468539Y-50055357D01*
X13509943Y-49993393D01*
X13571907Y-49951989D01*
X13645000Y-49937450D01*
X13925000Y-49937450D01*
X13998093Y-49951989D01*
G37*
G36*
X21320623Y-47162293D02*
G01*
X21383886Y-47204564D01*
X21426157Y-47267827D01*
X21441000Y-47342450D01*
X21441000Y-50254450D01*
X21426157Y-50329073D01*
X21383886Y-50392336D01*
X21320623Y-50434607D01*
X21246000Y-50449450D01*
X18334000Y-50449450D01*
X18259377Y-50434607D01*
X18196114Y-50392336D01*
X18153843Y-50329073D01*
X18139000Y-50254450D01*
X18139000Y-47342450D01*
X18153843Y-47267827D01*
X18196114Y-47204564D01*
X18259377Y-47162293D01*
X18334000Y-47147450D01*
X21246000Y-47147450D01*
X21320623Y-47162293D01*
G37*
G36*
X16778651Y-50055138D02*
G01*
X16811418Y-50077032D01*
X16833312Y-50109799D01*
X16841000Y-50148450D01*
X16841000Y-50248450D01*
X16833312Y-50287101D01*
X16811418Y-50319868D01*
X16778651Y-50341762D01*
X16740000Y-50349450D01*
X15965000Y-50349450D01*
X15926349Y-50341762D01*
X15893582Y-50319868D01*
X15871688Y-50287101D01*
X15864000Y-50248450D01*
X15864000Y-50148450D01*
X15871688Y-50109799D01*
X15893582Y-50077032D01*
X15926349Y-50055138D01*
X15965000Y-50047450D01*
X16740000Y-50047450D01*
X16778651Y-50055138D01*
G37*
G36*
X23653651Y-50055138D02*
G01*
X23686418Y-50077032D01*
X23708312Y-50109799D01*
X23716000Y-50148450D01*
X23716000Y-50248450D01*
X23708312Y-50287101D01*
X23686418Y-50319868D01*
X23653651Y-50341762D01*
X23615000Y-50349450D01*
X22840000Y-50349450D01*
X22801349Y-50341762D01*
X22768582Y-50319868D01*
X22746688Y-50287101D01*
X22739000Y-50248450D01*
X22739000Y-50148450D01*
X22746688Y-50109799D01*
X22768582Y-50077032D01*
X22801349Y-50055138D01*
X22840000Y-50047450D01*
X23615000Y-50047450D01*
X23653651Y-50055138D01*
G37*
G36*
X67284517Y-49673432D02*
G01*
X67301062Y-49684488D01*
X67312118Y-49701033D01*
X67316000Y-49720550D01*
X67316000Y-50120550D01*
X67312118Y-50140067D01*
X67301062Y-50156612D01*
X67284517Y-50167668D01*
X67265000Y-50171550D01*
X65915000Y-50171550D01*
X65895483Y-50167668D01*
X65878938Y-50156612D01*
X65867882Y-50140067D01*
X65864000Y-50120550D01*
X65864000Y-49720550D01*
X65867882Y-49701033D01*
X65878938Y-49684488D01*
X65895483Y-49673432D01*
X65915000Y-49669550D01*
X67265000Y-49669550D01*
X67284517Y-49673432D01*
G37*
G36*
X25971179Y-49441608D02*
G01*
X26031522Y-49481928D01*
X26071842Y-49542271D01*
X26086000Y-49613450D01*
X26086000Y-49983450D01*
X26071842Y-50054629D01*
X26031522Y-50114972D01*
X25971179Y-50155292D01*
X25900000Y-50169450D01*
X25630000Y-50169450D01*
X25558821Y-50155292D01*
X25498478Y-50114972D01*
X25458158Y-50054629D01*
X25444000Y-49983450D01*
X25444000Y-49613450D01*
X25458158Y-49542271D01*
X25498478Y-49481928D01*
X25558821Y-49441608D01*
X25630000Y-49427450D01*
X25900000Y-49427450D01*
X25971179Y-49441608D01*
G37*
G36*
X26991179Y-49441608D02*
G01*
X27051522Y-49481928D01*
X27091842Y-49542271D01*
X27106000Y-49613450D01*
X27106000Y-49983450D01*
X27091842Y-50054629D01*
X27051522Y-50114972D01*
X26991179Y-50155292D01*
X26920000Y-50169450D01*
X26650000Y-50169450D01*
X26578821Y-50155292D01*
X26518478Y-50114972D01*
X26478158Y-50054629D01*
X26464000Y-49983450D01*
X26464000Y-49613450D01*
X26478158Y-49542271D01*
X26518478Y-49481928D01*
X26578821Y-49441608D01*
X26650000Y-49427450D01*
X26920000Y-49427450D01*
X26991179Y-49441608D01*
G37*
G36*
X16778651Y-49655138D02*
G01*
X16811418Y-49677032D01*
X16833312Y-49709799D01*
X16841000Y-49748450D01*
X16841000Y-49848450D01*
X16833312Y-49887101D01*
X16811418Y-49919868D01*
X16778651Y-49941762D01*
X16740000Y-49949450D01*
X15965000Y-49949450D01*
X15926349Y-49941762D01*
X15893582Y-49919868D01*
X15871688Y-49887101D01*
X15864000Y-49848450D01*
X15864000Y-49748450D01*
X15871688Y-49709799D01*
X15893582Y-49677032D01*
X15926349Y-49655138D01*
X15965000Y-49647450D01*
X16740000Y-49647450D01*
X16778651Y-49655138D01*
G37*
G36*
X23653651Y-49655138D02*
G01*
X23686418Y-49677032D01*
X23708312Y-49709799D01*
X23716000Y-49748450D01*
X23716000Y-49848450D01*
X23708312Y-49887101D01*
X23686418Y-49919868D01*
X23653651Y-49941762D01*
X23615000Y-49949450D01*
X22840000Y-49949450D01*
X22801349Y-49941762D01*
X22768582Y-49919868D01*
X22746688Y-49887101D01*
X22739000Y-49848450D01*
X22739000Y-49748450D01*
X22746688Y-49709799D01*
X22768582Y-49677032D01*
X22801349Y-49655138D01*
X22840000Y-49647450D01*
X23615000Y-49647450D01*
X23653651Y-49655138D01*
G37*
G36*
X70084517Y-48123432D02*
G01*
X70101062Y-48134488D01*
X70112118Y-48151033D01*
X70116000Y-48170550D01*
X70116000Y-49670550D01*
X70112118Y-49690067D01*
X70101062Y-49706612D01*
X70084517Y-49717668D01*
X70065000Y-49721550D01*
X68515000Y-49721550D01*
X68495483Y-49717668D01*
X68478938Y-49706612D01*
X68467882Y-49690067D01*
X68464000Y-49670550D01*
X68464000Y-48170550D01*
X68467882Y-48151033D01*
X68478938Y-48134488D01*
X68495483Y-48123432D01*
X68515000Y-48119550D01*
X70065000Y-48119550D01*
X70084517Y-48123432D01*
G37*
G36*
X16778651Y-49255138D02*
G01*
X16811418Y-49277032D01*
X16833312Y-49309799D01*
X16841000Y-49348450D01*
X16841000Y-49448450D01*
X16833312Y-49487101D01*
X16811418Y-49519868D01*
X16778651Y-49541762D01*
X16740000Y-49549450D01*
X15965000Y-49549450D01*
X15926349Y-49541762D01*
X15893582Y-49519868D01*
X15871688Y-49487101D01*
X15864000Y-49448450D01*
X15864000Y-49348450D01*
X15871688Y-49309799D01*
X15893582Y-49277032D01*
X15926349Y-49255138D01*
X15965000Y-49247450D01*
X16740000Y-49247450D01*
X16778651Y-49255138D01*
G37*
G36*
X23653651Y-49255138D02*
G01*
X23686418Y-49277032D01*
X23708312Y-49309799D01*
X23716000Y-49348450D01*
X23716000Y-49448450D01*
X23708312Y-49487101D01*
X23686418Y-49519868D01*
X23653651Y-49541762D01*
X23615000Y-49549450D01*
X22840000Y-49549450D01*
X22801349Y-49541762D01*
X22768582Y-49519868D01*
X22746688Y-49487101D01*
X22739000Y-49448450D01*
X22739000Y-49348450D01*
X22746688Y-49309799D01*
X22768582Y-49277032D01*
X22801349Y-49255138D01*
X22840000Y-49247450D01*
X23615000Y-49247450D01*
X23653651Y-49255138D01*
G37*
G36*
X13038093Y-48832989D02*
G01*
X13100057Y-48874393D01*
X13141461Y-48936357D01*
X13156000Y-49009450D01*
X13156000Y-49349450D01*
X13141461Y-49422543D01*
X13100057Y-49484507D01*
X13038093Y-49525911D01*
X12965000Y-49540450D01*
X12685000Y-49540450D01*
X12611907Y-49525911D01*
X12549943Y-49484507D01*
X12508539Y-49422543D01*
X12494000Y-49349450D01*
X12494000Y-49009450D01*
X12508539Y-48936357D01*
X12549943Y-48874393D01*
X12611907Y-48832989D01*
X12685000Y-48818450D01*
X12965000Y-48818450D01*
X13038093Y-48832989D01*
G37*
G36*
X13998093Y-48832989D02*
G01*
X14060057Y-48874393D01*
X14101461Y-48936357D01*
X14116000Y-49009450D01*
X14116000Y-49349450D01*
X14101461Y-49422543D01*
X14060057Y-49484507D01*
X13998093Y-49525911D01*
X13925000Y-49540450D01*
X13645000Y-49540450D01*
X13571907Y-49525911D01*
X13509943Y-49484507D01*
X13468539Y-49422543D01*
X13454000Y-49349450D01*
X13454000Y-49009450D01*
X13468539Y-48936357D01*
X13509943Y-48874393D01*
X13571907Y-48832989D01*
X13645000Y-48818450D01*
X13925000Y-48818450D01*
X13998093Y-48832989D01*
G37*
G36*
X67284517Y-49023432D02*
G01*
X67301062Y-49034488D01*
X67312118Y-49051033D01*
X67316000Y-49070550D01*
X67316000Y-49470550D01*
X67312118Y-49490067D01*
X67301062Y-49506612D01*
X67284517Y-49517668D01*
X67265000Y-49521550D01*
X65915000Y-49521550D01*
X65895483Y-49517668D01*
X65878938Y-49506612D01*
X65867882Y-49490067D01*
X65864000Y-49470550D01*
X65864000Y-49070550D01*
X65867882Y-49051033D01*
X65878938Y-49034488D01*
X65895483Y-49023432D01*
X65915000Y-49019550D01*
X67265000Y-49019550D01*
X67284517Y-49023432D01*
G37*
G36*
X27008093Y-48451989D02*
G01*
X27070057Y-48493393D01*
X27111461Y-48555357D01*
X27126000Y-48628450D01*
X27126000Y-48968450D01*
X27111461Y-49041543D01*
X27070057Y-49103507D01*
X27008093Y-49144911D01*
X26935000Y-49159450D01*
X26655000Y-49159450D01*
X26581907Y-49144911D01*
X26519943Y-49103507D01*
X26478539Y-49041543D01*
X26464000Y-48968450D01*
X26464000Y-48628450D01*
X26478539Y-48555357D01*
X26519943Y-48493393D01*
X26581907Y-48451989D01*
X26655000Y-48437450D01*
X26935000Y-48437450D01*
X27008093Y-48451989D01*
G37*
G36*
X27968093Y-48451989D02*
G01*
X28030057Y-48493393D01*
X28071461Y-48555357D01*
X28086000Y-48628450D01*
X28086000Y-48968450D01*
X28071461Y-49041543D01*
X28030057Y-49103507D01*
X27968093Y-49144911D01*
X27895000Y-49159450D01*
X27615000Y-49159450D01*
X27541907Y-49144911D01*
X27479943Y-49103507D01*
X27438539Y-49041543D01*
X27424000Y-48968450D01*
X27424000Y-48628450D01*
X27438539Y-48555357D01*
X27479943Y-48493393D01*
X27541907Y-48451989D01*
X27615000Y-48437450D01*
X27895000Y-48437450D01*
X27968093Y-48451989D01*
G37*
G36*
X16778651Y-48855138D02*
G01*
X16811418Y-48877032D01*
X16833312Y-48909799D01*
X16841000Y-48948450D01*
X16841000Y-49048450D01*
X16833312Y-49087101D01*
X16811418Y-49119868D01*
X16778651Y-49141762D01*
X16740000Y-49149450D01*
X15965000Y-49149450D01*
X15926349Y-49141762D01*
X15893582Y-49119868D01*
X15871688Y-49087101D01*
X15864000Y-49048450D01*
X15864000Y-48948450D01*
X15871688Y-48909799D01*
X15893582Y-48877032D01*
X15926349Y-48855138D01*
X15965000Y-48847450D01*
X16740000Y-48847450D01*
X16778651Y-48855138D01*
G37*
G36*
X23653651Y-48855138D02*
G01*
X23686418Y-48877032D01*
X23708312Y-48909799D01*
X23716000Y-48948450D01*
X23716000Y-49048450D01*
X23708312Y-49087101D01*
X23686418Y-49119868D01*
X23653651Y-49141762D01*
X23615000Y-49149450D01*
X22840000Y-49149450D01*
X22801349Y-49141762D01*
X22768582Y-49119868D01*
X22746688Y-49087101D01*
X22739000Y-49048450D01*
X22739000Y-48948450D01*
X22746688Y-48909799D01*
X22768582Y-48877032D01*
X22801349Y-48855138D01*
X22840000Y-48847450D01*
X23615000Y-48847450D01*
X23653651Y-48855138D01*
G37*
G36*
X11033093Y-48446989D02*
G01*
X11095057Y-48488393D01*
X11136461Y-48550357D01*
X11151000Y-48623450D01*
X11151000Y-48903450D01*
X11136461Y-48976543D01*
X11095057Y-49038507D01*
X11033093Y-49079911D01*
X10960000Y-49094450D01*
X10620000Y-49094450D01*
X10546907Y-49079911D01*
X10484943Y-49038507D01*
X10443539Y-48976543D01*
X10429000Y-48903450D01*
X10429000Y-48623450D01*
X10443539Y-48550357D01*
X10484943Y-48488393D01*
X10546907Y-48446989D01*
X10620000Y-48432450D01*
X10960000Y-48432450D01*
X11033093Y-48446989D01*
G37*
G36*
X67284517Y-48373432D02*
G01*
X67301062Y-48384488D01*
X67312118Y-48401033D01*
X67316000Y-48420550D01*
X67316000Y-48820550D01*
X67312118Y-48840067D01*
X67301062Y-48856612D01*
X67284517Y-48867668D01*
X67265000Y-48871550D01*
X65915000Y-48871550D01*
X65895483Y-48867668D01*
X65878938Y-48856612D01*
X65867882Y-48840067D01*
X65864000Y-48820550D01*
X65864000Y-48420550D01*
X65867882Y-48401033D01*
X65878938Y-48384488D01*
X65895483Y-48373432D01*
X65915000Y-48369550D01*
X67265000Y-48369550D01*
X67284517Y-48373432D01*
G37*
G36*
X16778651Y-48455138D02*
G01*
X16811418Y-48477032D01*
X16833312Y-48509799D01*
X16841000Y-48548450D01*
X16841000Y-48648450D01*
X16833312Y-48687101D01*
X16811418Y-48719868D01*
X16778651Y-48741762D01*
X16740000Y-48749450D01*
X15965000Y-48749450D01*
X15926349Y-48741762D01*
X15893582Y-48719868D01*
X15871688Y-48687101D01*
X15864000Y-48648450D01*
X15864000Y-48548450D01*
X15871688Y-48509799D01*
X15893582Y-48477032D01*
X15926349Y-48455138D01*
X15965000Y-48447450D01*
X16740000Y-48447450D01*
X16778651Y-48455138D01*
G37*
G36*
X23653651Y-48455138D02*
G01*
X23686418Y-48477032D01*
X23708312Y-48509799D01*
X23716000Y-48548450D01*
X23716000Y-48648450D01*
X23708312Y-48687101D01*
X23686418Y-48719868D01*
X23653651Y-48741762D01*
X23615000Y-48749450D01*
X22840000Y-48749450D01*
X22801349Y-48741762D01*
X22768582Y-48719868D01*
X22746688Y-48687101D01*
X22739000Y-48648450D01*
X22739000Y-48548450D01*
X22746688Y-48509799D01*
X22768582Y-48477032D01*
X22801349Y-48455138D01*
X22840000Y-48447450D01*
X23615000Y-48447450D01*
X23653651Y-48455138D01*
G37*
G36*
X16778651Y-48055138D02*
G01*
X16811418Y-48077032D01*
X16833312Y-48109799D01*
X16841000Y-48148450D01*
X16841000Y-48248450D01*
X16833312Y-48287101D01*
X16811418Y-48319868D01*
X16778651Y-48341762D01*
X16740000Y-48349450D01*
X15965000Y-48349450D01*
X15926349Y-48341762D01*
X15893582Y-48319868D01*
X15871688Y-48287101D01*
X15864000Y-48248450D01*
X15864000Y-48148450D01*
X15871688Y-48109799D01*
X15893582Y-48077032D01*
X15926349Y-48055138D01*
X15965000Y-48047450D01*
X16740000Y-48047450D01*
X16778651Y-48055138D01*
G37*
G36*
X23653651Y-48055138D02*
G01*
X23686418Y-48077032D01*
X23708312Y-48109799D01*
X23716000Y-48148450D01*
X23716000Y-48248450D01*
X23708312Y-48287101D01*
X23686418Y-48319868D01*
X23653651Y-48341762D01*
X23615000Y-48349450D01*
X22840000Y-48349450D01*
X22801349Y-48341762D01*
X22768582Y-48319868D01*
X22746688Y-48287101D01*
X22739000Y-48248450D01*
X22739000Y-48148450D01*
X22746688Y-48109799D01*
X22768582Y-48077032D01*
X22801349Y-48055138D01*
X22840000Y-48047450D01*
X23615000Y-48047450D01*
X23653651Y-48055138D01*
G37*
G36*
X27008093Y-47451989D02*
G01*
X27070057Y-47493393D01*
X27111461Y-47555357D01*
X27126000Y-47628450D01*
X27126000Y-47968450D01*
X27111461Y-48041543D01*
X27070057Y-48103507D01*
X27008093Y-48144911D01*
X26935000Y-48159450D01*
X26655000Y-48159450D01*
X26581907Y-48144911D01*
X26519943Y-48103507D01*
X26478539Y-48041543D01*
X26464000Y-47968450D01*
X26464000Y-47628450D01*
X26478539Y-47555357D01*
X26519943Y-47493393D01*
X26581907Y-47451989D01*
X26655000Y-47437450D01*
X26935000Y-47437450D01*
X27008093Y-47451989D01*
G37*
G36*
X27968093Y-47451989D02*
G01*
X28030057Y-47493393D01*
X28071461Y-47555357D01*
X28086000Y-47628450D01*
X28086000Y-47968450D01*
X28071461Y-48041543D01*
X28030057Y-48103507D01*
X27968093Y-48144911D01*
X27895000Y-48159450D01*
X27615000Y-48159450D01*
X27541907Y-48144911D01*
X27479943Y-48103507D01*
X27438539Y-48041543D01*
X27424000Y-47968450D01*
X27424000Y-47628450D01*
X27438539Y-47555357D01*
X27479943Y-47493393D01*
X27541907Y-47451989D01*
X27615000Y-47437450D01*
X27895000Y-47437450D01*
X27968093Y-47451989D01*
G37*
G36*
X11033093Y-47486989D02*
G01*
X11095057Y-47528393D01*
X11136461Y-47590357D01*
X11151000Y-47663450D01*
X11151000Y-47943450D01*
X11136461Y-48016543D01*
X11095057Y-48078507D01*
X11033093Y-48119911D01*
X10960000Y-48134450D01*
X10620000Y-48134450D01*
X10546907Y-48119911D01*
X10484943Y-48078507D01*
X10443539Y-48016543D01*
X10429000Y-47943450D01*
X10429000Y-47663450D01*
X10443539Y-47590357D01*
X10484943Y-47528393D01*
X10546907Y-47486989D01*
X10620000Y-47472450D01*
X10960000Y-47472450D01*
X11033093Y-47486989D01*
G37*
G36*
X66791291Y-46784589D02*
G01*
X66910209Y-46853246D01*
X67007304Y-46950341D01*
X67075961Y-47069259D01*
X67111500Y-47201893D01*
X67116000Y-47270550D01*
X67116000Y-47570550D01*
X67111500Y-47639207D01*
X67075961Y-47771841D01*
X67007304Y-47890759D01*
X66910209Y-47987854D01*
X66791291Y-48056511D01*
X66658657Y-48092050D01*
X66521343Y-48092050D01*
X66388709Y-48056511D01*
X66269791Y-47987854D01*
X66172696Y-47890759D01*
X66104039Y-47771841D01*
X66068500Y-47639207D01*
X66064000Y-47570550D01*
X66064000Y-47270550D01*
X66068500Y-47201893D01*
X66104039Y-47069259D01*
X66172696Y-46950341D01*
X66269791Y-46853246D01*
X66388709Y-46784589D01*
X66521343Y-46749050D01*
X66658657Y-46749050D01*
X66791291Y-46784589D01*
G37*
G36*
X16778651Y-47655138D02*
G01*
X16811418Y-47677032D01*
X16833312Y-47709799D01*
X16841000Y-47748450D01*
X16841000Y-47848450D01*
X16833312Y-47887101D01*
X16811418Y-47919868D01*
X16778651Y-47941762D01*
X16740000Y-47949450D01*
X15965000Y-47949450D01*
X15926349Y-47941762D01*
X15893582Y-47919868D01*
X15871688Y-47887101D01*
X15864000Y-47848450D01*
X15864000Y-47748450D01*
X15871688Y-47709799D01*
X15893582Y-47677032D01*
X15926349Y-47655138D01*
X15965000Y-47647450D01*
X16740000Y-47647450D01*
X16778651Y-47655138D01*
G37*
G36*
X23653651Y-47655138D02*
G01*
X23686418Y-47677032D01*
X23708312Y-47709799D01*
X23716000Y-47748450D01*
X23716000Y-47848450D01*
X23708312Y-47887101D01*
X23686418Y-47919868D01*
X23653651Y-47941762D01*
X23615000Y-47949450D01*
X22840000Y-47949450D01*
X22801349Y-47941762D01*
X22768582Y-47919868D01*
X22746688Y-47887101D01*
X22739000Y-47848450D01*
X22739000Y-47748450D01*
X22746688Y-47709799D01*
X22768582Y-47677032D01*
X22801349Y-47655138D01*
X22840000Y-47647450D01*
X23615000Y-47647450D01*
X23653651Y-47655138D01*
G37*
G36*
X12371179Y-47141608D02*
G01*
X12431522Y-47181928D01*
X12471842Y-47242271D01*
X12486000Y-47313450D01*
X12486000Y-47683450D01*
X12471842Y-47754629D01*
X12431522Y-47814972D01*
X12371179Y-47855292D01*
X12300000Y-47869450D01*
X12030000Y-47869450D01*
X11958821Y-47855292D01*
X11898478Y-47814972D01*
X11858158Y-47754629D01*
X11844000Y-47683450D01*
X11844000Y-47313450D01*
X11858158Y-47242271D01*
X11898478Y-47181928D01*
X11958821Y-47141608D01*
X12030000Y-47127450D01*
X12300000Y-47127450D01*
X12371179Y-47141608D01*
G37*
G36*
X13391179Y-47141608D02*
G01*
X13451522Y-47181928D01*
X13491842Y-47242271D01*
X13506000Y-47313450D01*
X13506000Y-47683450D01*
X13491842Y-47754629D01*
X13451522Y-47814972D01*
X13391179Y-47855292D01*
X13320000Y-47869450D01*
X13050000Y-47869450D01*
X12978821Y-47855292D01*
X12918478Y-47814972D01*
X12878158Y-47754629D01*
X12864000Y-47683450D01*
X12864000Y-47313450D01*
X12878158Y-47242271D01*
X12918478Y-47181928D01*
X12978821Y-47141608D01*
X13050000Y-47127450D01*
X13320000Y-47127450D01*
X13391179Y-47141608D01*
G37*
G36*
X69684741Y-45928793D02*
G01*
X69809811Y-45962306D01*
X69921946Y-46027047D01*
X70013503Y-46118604D01*
X70078244Y-46230739D01*
X70111757Y-46355809D01*
X70111757Y-46400492D01*
X70112118Y-46401033D01*
X70116000Y-46420550D01*
X70116000Y-47620550D01*
X70112118Y-47640067D01*
X70101062Y-47656612D01*
X70084517Y-47667668D01*
X70065000Y-47671550D01*
X68515000Y-47671550D01*
X68495483Y-47667668D01*
X68478938Y-47656612D01*
X68467882Y-47640067D01*
X68464000Y-47620550D01*
X68464000Y-46420550D01*
X68467882Y-46401033D01*
X68468243Y-46400492D01*
X68468243Y-46355809D01*
X68501756Y-46230739D01*
X68566497Y-46118604D01*
X68658054Y-46027047D01*
X68770189Y-45962306D01*
X68895259Y-45928793D01*
X68960000Y-45924550D01*
X69620000Y-45924550D01*
X69684741Y-45928793D01*
G37*
G36*
X16778651Y-47255138D02*
G01*
X16811418Y-47277032D01*
X16833312Y-47309799D01*
X16841000Y-47348450D01*
X16841000Y-47448450D01*
X16833312Y-47487101D01*
X16811418Y-47519868D01*
X16778651Y-47541762D01*
X16740000Y-47549450D01*
X15965000Y-47549450D01*
X15926349Y-47541762D01*
X15893582Y-47519868D01*
X15871688Y-47487101D01*
X15864000Y-47448450D01*
X15864000Y-47348450D01*
X15871688Y-47309799D01*
X15893582Y-47277032D01*
X15926349Y-47255138D01*
X15965000Y-47247450D01*
X16740000Y-47247450D01*
X16778651Y-47255138D01*
G37*
G36*
X23653651Y-47255138D02*
G01*
X23686418Y-47277032D01*
X23708312Y-47309799D01*
X23716000Y-47348450D01*
X23716000Y-47448450D01*
X23708312Y-47487101D01*
X23686418Y-47519868D01*
X23653651Y-47541762D01*
X23615000Y-47549450D01*
X22840000Y-47549450D01*
X22801349Y-47541762D01*
X22768582Y-47519868D01*
X22746688Y-47487101D01*
X22739000Y-47448450D01*
X22739000Y-47348450D01*
X22746688Y-47309799D01*
X22768582Y-47277032D01*
X22801349Y-47255138D01*
X22840000Y-47247450D01*
X23615000Y-47247450D01*
X23653651Y-47255138D01*
G37*
G36*
X16778651Y-46855138D02*
G01*
X16811418Y-46877032D01*
X16833312Y-46909799D01*
X16841000Y-46948450D01*
X16841000Y-47048450D01*
X16833312Y-47087101D01*
X16811418Y-47119868D01*
X16778651Y-47141762D01*
X16740000Y-47149450D01*
X15965000Y-47149450D01*
X15926349Y-47141762D01*
X15893582Y-47119868D01*
X15871688Y-47087101D01*
X15864000Y-47048450D01*
X15864000Y-46948450D01*
X15871688Y-46909799D01*
X15893582Y-46877032D01*
X15926349Y-46855138D01*
X15965000Y-46847450D01*
X16740000Y-46847450D01*
X16778651Y-46855138D01*
G37*
G36*
X23653651Y-46855138D02*
G01*
X23686418Y-46877032D01*
X23708312Y-46909799D01*
X23716000Y-46948450D01*
X23716000Y-47048450D01*
X23708312Y-47087101D01*
X23686418Y-47119868D01*
X23653651Y-47141762D01*
X23615000Y-47149450D01*
X22840000Y-47149450D01*
X22801349Y-47141762D01*
X22768582Y-47119868D01*
X22746688Y-47087101D01*
X22739000Y-47048450D01*
X22739000Y-46948450D01*
X22746688Y-46909799D01*
X22768582Y-46877032D01*
X22801349Y-46855138D01*
X22840000Y-46847450D01*
X23615000Y-46847450D01*
X23653651Y-46855138D01*
G37*
G36*
X16778651Y-46455138D02*
G01*
X16811418Y-46477032D01*
X16833312Y-46509799D01*
X16841000Y-46548450D01*
X16841000Y-46648450D01*
X16833312Y-46687101D01*
X16811418Y-46719868D01*
X16778651Y-46741762D01*
X16740000Y-46749450D01*
X15965000Y-46749450D01*
X15926349Y-46741762D01*
X15893582Y-46719868D01*
X15871688Y-46687101D01*
X15864000Y-46648450D01*
X15864000Y-46548450D01*
X15871688Y-46509799D01*
X15893582Y-46477032D01*
X15926349Y-46455138D01*
X15965000Y-46447450D01*
X16740000Y-46447450D01*
X16778651Y-46455138D01*
G37*
G36*
X23653651Y-46455138D02*
G01*
X23686418Y-46477032D01*
X23708312Y-46509799D01*
X23716000Y-46548450D01*
X23716000Y-46648450D01*
X23708312Y-46687101D01*
X23686418Y-46719868D01*
X23653651Y-46741762D01*
X23615000Y-46749450D01*
X22840000Y-46749450D01*
X22801349Y-46741762D01*
X22768582Y-46719868D01*
X22746688Y-46687101D01*
X22739000Y-46648450D01*
X22739000Y-46548450D01*
X22746688Y-46509799D01*
X22768582Y-46477032D01*
X22801349Y-46455138D01*
X22840000Y-46447450D01*
X23615000Y-46447450D01*
X23653651Y-46455138D01*
G37*
G36*
X16778651Y-46055138D02*
G01*
X16811418Y-46077032D01*
X16833312Y-46109799D01*
X16841000Y-46148450D01*
X16841000Y-46248450D01*
X16833312Y-46287101D01*
X16811418Y-46319868D01*
X16778651Y-46341762D01*
X16740000Y-46349450D01*
X15965000Y-46349450D01*
X15926349Y-46341762D01*
X15893582Y-46319868D01*
X15871688Y-46287101D01*
X15864000Y-46248450D01*
X15864000Y-46148450D01*
X15871688Y-46109799D01*
X15893582Y-46077032D01*
X15926349Y-46055138D01*
X15965000Y-46047450D01*
X16740000Y-46047450D01*
X16778651Y-46055138D01*
G37*
G36*
X23653651Y-46055138D02*
G01*
X23686418Y-46077032D01*
X23708312Y-46109799D01*
X23716000Y-46148450D01*
X23716000Y-46248450D01*
X23708312Y-46287101D01*
X23686418Y-46319868D01*
X23653651Y-46341762D01*
X23615000Y-46349450D01*
X22840000Y-46349450D01*
X22801349Y-46341762D01*
X22768582Y-46319868D01*
X22746688Y-46287101D01*
X22739000Y-46248450D01*
X22739000Y-46148450D01*
X22746688Y-46109799D01*
X22768582Y-46077032D01*
X22801349Y-46055138D01*
X22840000Y-46047450D01*
X23615000Y-46047450D01*
X23653651Y-46055138D01*
G37*
G36*
X30836919Y-44612750D02*
G01*
X30902128Y-44656322D01*
X30945700Y-44721531D01*
X30961000Y-44798450D01*
X30961000Y-46098450D01*
X30945700Y-46175369D01*
X30902128Y-46240578D01*
X30836919Y-46284150D01*
X30760000Y-46299450D01*
X30460000Y-46299450D01*
X30383081Y-46284150D01*
X30317872Y-46240578D01*
X30274300Y-46175369D01*
X30259000Y-46098450D01*
X30259000Y-44798450D01*
X30274300Y-44721531D01*
X30317872Y-44656322D01*
X30383081Y-44612750D01*
X30460000Y-44597450D01*
X30760000Y-44597450D01*
X30836919Y-44612750D01*
G37*
G36*
X32106919Y-44612750D02*
G01*
X32172128Y-44656322D01*
X32215700Y-44721531D01*
X32231000Y-44798450D01*
X32231000Y-46098450D01*
X32215700Y-46175369D01*
X32172128Y-46240578D01*
X32106919Y-46284150D01*
X32030000Y-46299450D01*
X31730000Y-46299450D01*
X31653081Y-46284150D01*
X31587872Y-46240578D01*
X31544300Y-46175369D01*
X31529000Y-46098450D01*
X31529000Y-44798450D01*
X31544300Y-44721531D01*
X31587872Y-44656322D01*
X31653081Y-44612750D01*
X31730000Y-44597450D01*
X32030000Y-44597450D01*
X32106919Y-44612750D01*
G37*
G36*
X33376919Y-44612750D02*
G01*
X33442128Y-44656322D01*
X33485700Y-44721531D01*
X33501000Y-44798450D01*
X33501000Y-46098450D01*
X33485700Y-46175369D01*
X33442128Y-46240578D01*
X33376919Y-46284150D01*
X33300000Y-46299450D01*
X33000000Y-46299450D01*
X32923081Y-46284150D01*
X32857872Y-46240578D01*
X32814300Y-46175369D01*
X32799000Y-46098450D01*
X32799000Y-44798450D01*
X32814300Y-44721531D01*
X32857872Y-44656322D01*
X32923081Y-44612750D01*
X33000000Y-44597450D01*
X33300000Y-44597450D01*
X33376919Y-44612750D01*
G37*
G36*
X34646919Y-44612750D02*
G01*
X34712128Y-44656322D01*
X34755700Y-44721531D01*
X34771000Y-44798450D01*
X34771000Y-46098450D01*
X34755700Y-46175369D01*
X34712128Y-46240578D01*
X34646919Y-46284150D01*
X34570000Y-46299450D01*
X34270000Y-46299450D01*
X34193081Y-46284150D01*
X34127872Y-46240578D01*
X34084300Y-46175369D01*
X34069000Y-46098450D01*
X34069000Y-44798450D01*
X34084300Y-44721531D01*
X34127872Y-44656322D01*
X34193081Y-44612750D01*
X34270000Y-44597450D01*
X34570000Y-44597450D01*
X34646919Y-44612750D01*
G37*
G36*
X11033093Y-45476989D02*
G01*
X11095057Y-45518393D01*
X11136461Y-45580357D01*
X11151000Y-45653450D01*
X11151000Y-45933450D01*
X11136461Y-46006543D01*
X11095057Y-46068507D01*
X11033093Y-46109911D01*
X10960000Y-46124450D01*
X10620000Y-46124450D01*
X10546907Y-46109911D01*
X10484943Y-46068507D01*
X10443539Y-46006543D01*
X10429000Y-45933450D01*
X10429000Y-45653450D01*
X10443539Y-45580357D01*
X10484943Y-45518393D01*
X10546907Y-45476989D01*
X10620000Y-45462450D01*
X10960000Y-45462450D01*
X11033093Y-45476989D01*
G37*
G36*
X17278651Y-44880138D02*
G01*
X17311418Y-44902032D01*
X17333312Y-44934799D01*
X17341000Y-44973450D01*
X17341000Y-45748450D01*
X17333312Y-45787101D01*
X17311418Y-45819868D01*
X17278651Y-45841762D01*
X17240000Y-45849450D01*
X17140000Y-45849450D01*
X17101349Y-45841762D01*
X17068582Y-45819868D01*
X17046688Y-45787101D01*
X17039000Y-45748450D01*
X17039000Y-44973450D01*
X17046688Y-44934799D01*
X17068582Y-44902032D01*
X17101349Y-44880138D01*
X17140000Y-44872450D01*
X17240000Y-44872450D01*
X17278651Y-44880138D01*
G37*
G36*
X17678651Y-44880138D02*
G01*
X17711418Y-44902032D01*
X17733312Y-44934799D01*
X17741000Y-44973450D01*
X17741000Y-45748450D01*
X17733312Y-45787101D01*
X17711418Y-45819868D01*
X17678651Y-45841762D01*
X17640000Y-45849450D01*
X17540000Y-45849450D01*
X17501349Y-45841762D01*
X17468582Y-45819868D01*
X17446688Y-45787101D01*
X17439000Y-45748450D01*
X17439000Y-44973450D01*
X17446688Y-44934799D01*
X17468582Y-44902032D01*
X17501349Y-44880138D01*
X17540000Y-44872450D01*
X17640000Y-44872450D01*
X17678651Y-44880138D01*
G37*
G36*
X18078651Y-44880138D02*
G01*
X18111418Y-44902032D01*
X18133312Y-44934799D01*
X18141000Y-44973450D01*
X18141000Y-45748450D01*
X18133312Y-45787101D01*
X18111418Y-45819868D01*
X18078651Y-45841762D01*
X18040000Y-45849450D01*
X17940000Y-45849450D01*
X17901349Y-45841762D01*
X17868582Y-45819868D01*
X17846688Y-45787101D01*
X17839000Y-45748450D01*
X17839000Y-44973450D01*
X17846688Y-44934799D01*
X17868582Y-44902032D01*
X17901349Y-44880138D01*
X17940000Y-44872450D01*
X18040000Y-44872450D01*
X18078651Y-44880138D01*
G37*
G36*
X18478651Y-44880138D02*
G01*
X18511418Y-44902032D01*
X18533312Y-44934799D01*
X18541000Y-44973450D01*
X18541000Y-45748450D01*
X18533312Y-45787101D01*
X18511418Y-45819868D01*
X18478651Y-45841762D01*
X18440000Y-45849450D01*
X18340000Y-45849450D01*
X18301349Y-45841762D01*
X18268582Y-45819868D01*
X18246688Y-45787101D01*
X18239000Y-45748450D01*
X18239000Y-44973450D01*
X18246688Y-44934799D01*
X18268582Y-44902032D01*
X18301349Y-44880138D01*
X18340000Y-44872450D01*
X18440000Y-44872450D01*
X18478651Y-44880138D01*
G37*
G36*
X18878651Y-44880138D02*
G01*
X18911418Y-44902032D01*
X18933312Y-44934799D01*
X18941000Y-44973450D01*
X18941000Y-45748450D01*
X18933312Y-45787101D01*
X18911418Y-45819868D01*
X18878651Y-45841762D01*
X18840000Y-45849450D01*
X18740000Y-45849450D01*
X18701349Y-45841762D01*
X18668582Y-45819868D01*
X18646688Y-45787101D01*
X18639000Y-45748450D01*
X18639000Y-44973450D01*
X18646688Y-44934799D01*
X18668582Y-44902032D01*
X18701349Y-44880138D01*
X18740000Y-44872450D01*
X18840000Y-44872450D01*
X18878651Y-44880138D01*
G37*
G36*
X19278651Y-44880138D02*
G01*
X19311418Y-44902032D01*
X19333312Y-44934799D01*
X19341000Y-44973450D01*
X19341000Y-45748450D01*
X19333312Y-45787101D01*
X19311418Y-45819868D01*
X19278651Y-45841762D01*
X19240000Y-45849450D01*
X19140000Y-45849450D01*
X19101349Y-45841762D01*
X19068582Y-45819868D01*
X19046688Y-45787101D01*
X19039000Y-45748450D01*
X19039000Y-44973450D01*
X19046688Y-44934799D01*
X19068582Y-44902032D01*
X19101349Y-44880138D01*
X19140000Y-44872450D01*
X19240000Y-44872450D01*
X19278651Y-44880138D01*
G37*
G36*
X19678651Y-44880138D02*
G01*
X19711418Y-44902032D01*
X19733312Y-44934799D01*
X19741000Y-44973450D01*
X19741000Y-45748450D01*
X19733312Y-45787101D01*
X19711418Y-45819868D01*
X19678651Y-45841762D01*
X19640000Y-45849450D01*
X19540000Y-45849450D01*
X19501349Y-45841762D01*
X19468582Y-45819868D01*
X19446688Y-45787101D01*
X19439000Y-45748450D01*
X19439000Y-44973450D01*
X19446688Y-44934799D01*
X19468582Y-44902032D01*
X19501349Y-44880138D01*
X19540000Y-44872450D01*
X19640000Y-44872450D01*
X19678651Y-44880138D01*
G37*
G36*
X20078651Y-44880138D02*
G01*
X20111418Y-44902032D01*
X20133312Y-44934799D01*
X20141000Y-44973450D01*
X20141000Y-45748450D01*
X20133312Y-45787101D01*
X20111418Y-45819868D01*
X20078651Y-45841762D01*
X20040000Y-45849450D01*
X19940000Y-45849450D01*
X19901349Y-45841762D01*
X19868582Y-45819868D01*
X19846688Y-45787101D01*
X19839000Y-45748450D01*
X19839000Y-44973450D01*
X19846688Y-44934799D01*
X19868582Y-44902032D01*
X19901349Y-44880138D01*
X19940000Y-44872450D01*
X20040000Y-44872450D01*
X20078651Y-44880138D01*
G37*
G36*
X20478651Y-44880138D02*
G01*
X20511418Y-44902032D01*
X20533312Y-44934799D01*
X20541000Y-44973450D01*
X20541000Y-45748450D01*
X20533312Y-45787101D01*
X20511418Y-45819868D01*
X20478651Y-45841762D01*
X20440000Y-45849450D01*
X20340000Y-45849450D01*
X20301349Y-45841762D01*
X20268582Y-45819868D01*
X20246688Y-45787101D01*
X20239000Y-45748450D01*
X20239000Y-44973450D01*
X20246688Y-44934799D01*
X20268582Y-44902032D01*
X20301349Y-44880138D01*
X20340000Y-44872450D01*
X20440000Y-44872450D01*
X20478651Y-44880138D01*
G37*
G36*
X20878651Y-44880138D02*
G01*
X20911418Y-44902032D01*
X20933312Y-44934799D01*
X20941000Y-44973450D01*
X20941000Y-45748450D01*
X20933312Y-45787101D01*
X20911418Y-45819868D01*
X20878651Y-45841762D01*
X20840000Y-45849450D01*
X20740000Y-45849450D01*
X20701349Y-45841762D01*
X20668582Y-45819868D01*
X20646688Y-45787101D01*
X20639000Y-45748450D01*
X20639000Y-44973450D01*
X20646688Y-44934799D01*
X20668582Y-44902032D01*
X20701349Y-44880138D01*
X20740000Y-44872450D01*
X20840000Y-44872450D01*
X20878651Y-44880138D01*
G37*
G36*
X21278651Y-44880138D02*
G01*
X21311418Y-44902032D01*
X21333312Y-44934799D01*
X21341000Y-44973450D01*
X21341000Y-45748450D01*
X21333312Y-45787101D01*
X21311418Y-45819868D01*
X21278651Y-45841762D01*
X21240000Y-45849450D01*
X21140000Y-45849450D01*
X21101349Y-45841762D01*
X21068582Y-45819868D01*
X21046688Y-45787101D01*
X21039000Y-45748450D01*
X21039000Y-44973450D01*
X21046688Y-44934799D01*
X21068582Y-44902032D01*
X21101349Y-44880138D01*
X21140000Y-44872450D01*
X21240000Y-44872450D01*
X21278651Y-44880138D01*
G37*
G36*
X21678651Y-44880138D02*
G01*
X21711418Y-44902032D01*
X21733312Y-44934799D01*
X21741000Y-44973450D01*
X21741000Y-45748450D01*
X21733312Y-45787101D01*
X21711418Y-45819868D01*
X21678651Y-45841762D01*
X21640000Y-45849450D01*
X21540000Y-45849450D01*
X21501349Y-45841762D01*
X21468582Y-45819868D01*
X21446688Y-45787101D01*
X21439000Y-45748450D01*
X21439000Y-44973450D01*
X21446688Y-44934799D01*
X21468582Y-44902032D01*
X21501349Y-44880138D01*
X21540000Y-44872450D01*
X21640000Y-44872450D01*
X21678651Y-44880138D01*
G37*
G36*
X22078651Y-44880138D02*
G01*
X22111418Y-44902032D01*
X22133312Y-44934799D01*
X22141000Y-44973450D01*
X22141000Y-45748450D01*
X22133312Y-45787101D01*
X22111418Y-45819868D01*
X22078651Y-45841762D01*
X22040000Y-45849450D01*
X21940000Y-45849450D01*
X21901349Y-45841762D01*
X21868582Y-45819868D01*
X21846688Y-45787101D01*
X21839000Y-45748450D01*
X21839000Y-44973450D01*
X21846688Y-44934799D01*
X21868582Y-44902032D01*
X21901349Y-44880138D01*
X21940000Y-44872450D01*
X22040000Y-44872450D01*
X22078651Y-44880138D01*
G37*
G36*
X22478651Y-44880138D02*
G01*
X22511418Y-44902032D01*
X22533312Y-44934799D01*
X22541000Y-44973450D01*
X22541000Y-45748450D01*
X22533312Y-45787101D01*
X22511418Y-45819868D01*
X22478651Y-45841762D01*
X22440000Y-45849450D01*
X22340000Y-45849450D01*
X22301349Y-45841762D01*
X22268582Y-45819868D01*
X22246688Y-45787101D01*
X22239000Y-45748450D01*
X22239000Y-44973450D01*
X22246688Y-44934799D01*
X22268582Y-44902032D01*
X22301349Y-44880138D01*
X22340000Y-44872450D01*
X22440000Y-44872450D01*
X22478651Y-44880138D01*
G37*
G36*
X37203093Y-45146989D02*
G01*
X37265057Y-45188393D01*
X37306461Y-45250357D01*
X37321000Y-45323450D01*
X37321000Y-45603450D01*
X37306461Y-45676543D01*
X37265057Y-45738507D01*
X37203093Y-45779911D01*
X37130000Y-45794450D01*
X36790000Y-45794450D01*
X36716907Y-45779911D01*
X36654943Y-45738507D01*
X36613539Y-45676543D01*
X36599000Y-45603450D01*
X36599000Y-45323450D01*
X36613539Y-45250357D01*
X36654943Y-45188393D01*
X36716907Y-45146989D01*
X36790000Y-45132450D01*
X37130000Y-45132450D01*
X37203093Y-45146989D01*
G37*
G36*
X11033093Y-44516989D02*
G01*
X11095057Y-44558393D01*
X11136461Y-44620357D01*
X11151000Y-44693450D01*
X11151000Y-44973450D01*
X11136461Y-45046543D01*
X11095057Y-45108507D01*
X11033093Y-45149911D01*
X10960000Y-45164450D01*
X10620000Y-45164450D01*
X10546907Y-45149911D01*
X10484943Y-45108507D01*
X10443539Y-45046543D01*
X10429000Y-44973450D01*
X10429000Y-44693450D01*
X10443539Y-44620357D01*
X10484943Y-44558393D01*
X10546907Y-44516989D01*
X10620000Y-44502450D01*
X10960000Y-44502450D01*
X11033093Y-44516989D01*
G37*
G36*
X37203093Y-44186989D02*
G01*
X37265057Y-44228393D01*
X37306461Y-44290357D01*
X37321000Y-44363450D01*
X37321000Y-44643450D01*
X37306461Y-44716543D01*
X37265057Y-44778507D01*
X37203093Y-44819911D01*
X37130000Y-44834450D01*
X36790000Y-44834450D01*
X36716907Y-44819911D01*
X36654943Y-44778507D01*
X36613539Y-44716543D01*
X36599000Y-44643450D01*
X36599000Y-44363450D01*
X36613539Y-44290357D01*
X36654943Y-44228393D01*
X36716907Y-44186989D01*
X36790000Y-44172450D01*
X37130000Y-44172450D01*
X37203093Y-44186989D01*
G37*
G36*
X23424293Y-43696589D02*
G01*
X23486257Y-43737993D01*
X23527661Y-43799957D01*
X23542200Y-43873050D01*
X23542200Y-44153050D01*
X23527661Y-44226143D01*
X23486257Y-44288107D01*
X23424293Y-44329511D01*
X23351200Y-44344050D01*
X23011200Y-44344050D01*
X22938107Y-44329511D01*
X22876143Y-44288107D01*
X22834739Y-44226143D01*
X22820200Y-44153050D01*
X22820200Y-43873050D01*
X22834739Y-43799957D01*
X22876143Y-43737993D01*
X22938107Y-43696589D01*
X23011200Y-43682050D01*
X23351200Y-43682050D01*
X23424293Y-43696589D01*
G37*
G36*
X8079517Y-38322882D02*
G01*
X8096062Y-38333938D01*
X8107118Y-38350483D01*
X8111000Y-38370000D01*
X8111000Y-43970000D01*
X8107118Y-43989517D01*
X8096062Y-44006062D01*
X8079517Y-44017118D01*
X8060000Y-44021000D01*
X5960000Y-44021000D01*
X5940483Y-44017118D01*
X5923938Y-44006062D01*
X5912882Y-43989517D01*
X5909000Y-43970000D01*
X5909000Y-38370000D01*
X5912882Y-38350483D01*
X5923938Y-38333938D01*
X5940483Y-38322882D01*
X5960000Y-38319000D01*
X8060000Y-38319000D01*
X8079517Y-38322882D01*
G37*
G36*
X23424293Y-42736589D02*
G01*
X23486257Y-42777993D01*
X23527661Y-42839957D01*
X23542200Y-42913050D01*
X23542200Y-43193050D01*
X23527661Y-43266143D01*
X23486257Y-43328107D01*
X23424293Y-43369511D01*
X23351200Y-43384050D01*
X23011200Y-43384050D01*
X22938107Y-43369511D01*
X22876143Y-43328107D01*
X22834739Y-43266143D01*
X22820200Y-43193050D01*
X22820200Y-42913050D01*
X22834739Y-42839957D01*
X22876143Y-42777993D01*
X22938107Y-42736589D01*
X23011200Y-42722050D01*
X23351200Y-42722050D01*
X23424293Y-42736589D01*
G37*
G36*
X18794293Y-42561589D02*
G01*
X18856257Y-42602993D01*
X18897661Y-42664957D01*
X18912200Y-42738050D01*
X18912200Y-43018050D01*
X18897661Y-43091143D01*
X18856257Y-43153107D01*
X18794293Y-43194511D01*
X18721200Y-43209050D01*
X18381200Y-43209050D01*
X18308107Y-43194511D01*
X18246143Y-43153107D01*
X18204739Y-43091143D01*
X18190200Y-43018050D01*
X18190200Y-42738050D01*
X18204739Y-42664957D01*
X18246143Y-42602993D01*
X18308107Y-42561589D01*
X18381200Y-42547050D01*
X18721200Y-42547050D01*
X18794293Y-42561589D01*
G37*
G36*
X18794293Y-41601589D02*
G01*
X18856257Y-41642993D01*
X18897661Y-41704957D01*
X18912200Y-41778050D01*
X18912200Y-42058050D01*
X18897661Y-42131143D01*
X18856257Y-42193107D01*
X18794293Y-42234511D01*
X18721200Y-42249050D01*
X18381200Y-42249050D01*
X18308107Y-42234511D01*
X18246143Y-42193107D01*
X18204739Y-42131143D01*
X18190200Y-42058050D01*
X18190200Y-41778050D01*
X18204739Y-41704957D01*
X18246143Y-41642993D01*
X18308107Y-41601589D01*
X18381200Y-41587050D01*
X18721200Y-41587050D01*
X18794293Y-41601589D01*
G37*
G36*
X43265513Y-39201986D02*
G01*
X43311780Y-39201986D01*
X43351729Y-39210477D01*
X43393333Y-39214575D01*
X43445598Y-39230429D01*
X43496024Y-39241148D01*
X43528294Y-39255515D01*
X43562312Y-39265835D01*
X43616367Y-39294728D01*
X43668100Y-39317761D01*
X43692151Y-39335235D01*
X43718047Y-39349077D01*
X43770871Y-39392428D01*
X43820487Y-39428477D01*
X43836596Y-39446368D01*
X43854548Y-39461101D01*
X43902788Y-39519881D01*
X43946524Y-39568455D01*
X43955711Y-39584369D01*
X43966572Y-39597602D01*
X44006749Y-39672769D01*
X44040704Y-39731580D01*
X44044609Y-39743600D01*
X44049814Y-39753337D01*
X44078513Y-39847946D01*
X44098911Y-39910722D01*
X44099628Y-39917552D01*
X44101074Y-39922316D01*
X44115136Y-40065092D01*
X44118600Y-40098050D01*
X44115135Y-40131009D01*
X44101074Y-40273783D01*
X44099629Y-40278546D01*
X44098911Y-40285378D01*
X44078509Y-40348167D01*
X44049814Y-40442762D01*
X44044610Y-40452497D01*
X44040704Y-40464520D01*
X44006742Y-40523343D01*
X43966572Y-40598497D01*
X43955713Y-40611727D01*
X43946524Y-40627645D01*
X43902778Y-40676228D01*
X43854548Y-40734998D01*
X43836600Y-40749727D01*
X43820487Y-40767623D01*
X43770860Y-40803678D01*
X43718047Y-40847022D01*
X43692157Y-40860860D01*
X43668100Y-40878339D01*
X43616356Y-40901376D01*
X43562312Y-40930264D01*
X43528301Y-40940581D01*
X43496024Y-40954952D01*
X43445587Y-40965672D01*
X43393333Y-40981524D01*
X43351738Y-40985620D01*
X43311780Y-40994114D01*
X43265503Y-40994114D01*
X43217600Y-40998832D01*
X43169697Y-40994114D01*
X43123420Y-40994114D01*
X43083462Y-40985620D01*
X43041866Y-40981524D01*
X42989609Y-40965671D01*
X42939176Y-40954952D01*
X42906900Y-40940582D01*
X42872887Y-40930264D01*
X42818837Y-40901373D01*
X42767100Y-40878339D01*
X42743045Y-40860862D01*
X42717152Y-40847022D01*
X42664330Y-40803672D01*
X42614713Y-40767623D01*
X42598602Y-40749730D01*
X42580651Y-40734998D01*
X42532409Y-40676216D01*
X42488676Y-40627645D01*
X42479488Y-40611731D01*
X42468627Y-40598497D01*
X42428444Y-40523319D01*
X42394496Y-40464520D01*
X42390591Y-40452501D01*
X42385385Y-40442762D01*
X42356675Y-40348121D01*
X42336289Y-40285378D01*
X42335571Y-40278551D01*
X42334125Y-40273783D01*
X42320048Y-40130858D01*
X42316600Y-40098050D01*
X42320048Y-40065244D01*
X42334125Y-39922316D01*
X42335571Y-39917547D01*
X42336289Y-39910722D01*
X42356671Y-39847992D01*
X42385385Y-39753337D01*
X42390591Y-39743595D01*
X42394496Y-39731580D01*
X42428436Y-39672792D01*
X42468627Y-39597602D01*
X42479490Y-39584364D01*
X42488676Y-39568455D01*
X42532400Y-39519893D01*
X42580651Y-39461101D01*
X42598605Y-39446365D01*
X42614713Y-39428477D01*
X42664320Y-39392435D01*
X42717152Y-39349077D01*
X42743050Y-39335233D01*
X42767100Y-39317761D01*
X42818826Y-39294731D01*
X42872887Y-39265835D01*
X42906907Y-39255514D01*
X42939176Y-39241148D01*
X42989598Y-39230430D01*
X43041866Y-39214575D01*
X43083471Y-39210477D01*
X43123420Y-39201986D01*
X43169686Y-39201986D01*
X43217600Y-39197267D01*
X43265513Y-39201986D01*
G37*
G36*
X37177379Y-39376208D02*
G01*
X37237722Y-39416528D01*
X37278042Y-39476871D01*
X37292200Y-39548050D01*
X37292200Y-39918050D01*
X37278042Y-39989229D01*
X37237722Y-40049572D01*
X37177379Y-40089892D01*
X37106200Y-40104050D01*
X36836200Y-40104050D01*
X36765021Y-40089892D01*
X36704678Y-40049572D01*
X36664358Y-39989229D01*
X36650200Y-39918050D01*
X36650200Y-39548050D01*
X36664358Y-39476871D01*
X36704678Y-39416528D01*
X36765021Y-39376208D01*
X36836200Y-39362050D01*
X37106200Y-39362050D01*
X37177379Y-39376208D01*
G37*
G36*
X38197379Y-39376208D02*
G01*
X38257722Y-39416528D01*
X38298042Y-39476871D01*
X38312200Y-39548050D01*
X38312200Y-39918050D01*
X38298042Y-39989229D01*
X38257722Y-40049572D01*
X38197379Y-40089892D01*
X38126200Y-40104050D01*
X37856200Y-40104050D01*
X37785021Y-40089892D01*
X37724678Y-40049572D01*
X37684358Y-39989229D01*
X37670200Y-39918050D01*
X37670200Y-39548050D01*
X37684358Y-39476871D01*
X37724678Y-39416528D01*
X37785021Y-39376208D01*
X37856200Y-39362050D01*
X38126200Y-39362050D01*
X38197379Y-39376208D01*
G37*
G36*
X30836919Y-37412750D02*
G01*
X30902128Y-37456322D01*
X30945700Y-37521531D01*
X30961000Y-37598450D01*
X30961000Y-38898450D01*
X30945700Y-38975369D01*
X30902128Y-39040578D01*
X30836919Y-39084150D01*
X30760000Y-39099450D01*
X30460000Y-39099450D01*
X30383081Y-39084150D01*
X30317872Y-39040578D01*
X30274300Y-38975369D01*
X30259000Y-38898450D01*
X30259000Y-37598450D01*
X30274300Y-37521531D01*
X30317872Y-37456322D01*
X30383081Y-37412750D01*
X30460000Y-37397450D01*
X30760000Y-37397450D01*
X30836919Y-37412750D01*
G37*
G36*
X32106919Y-37412750D02*
G01*
X32172128Y-37456322D01*
X32215700Y-37521531D01*
X32231000Y-37598450D01*
X32231000Y-38898450D01*
X32215700Y-38975369D01*
X32172128Y-39040578D01*
X32106919Y-39084150D01*
X32030000Y-39099450D01*
X31730000Y-39099450D01*
X31653081Y-39084150D01*
X31587872Y-39040578D01*
X31544300Y-38975369D01*
X31529000Y-38898450D01*
X31529000Y-37598450D01*
X31544300Y-37521531D01*
X31587872Y-37456322D01*
X31653081Y-37412750D01*
X31730000Y-37397450D01*
X32030000Y-37397450D01*
X32106919Y-37412750D01*
G37*
G36*
X33376919Y-37412750D02*
G01*
X33442128Y-37456322D01*
X33485700Y-37521531D01*
X33501000Y-37598450D01*
X33501000Y-38898450D01*
X33485700Y-38975369D01*
X33442128Y-39040578D01*
X33376919Y-39084150D01*
X33300000Y-39099450D01*
X33000000Y-39099450D01*
X32923081Y-39084150D01*
X32857872Y-39040578D01*
X32814300Y-38975369D01*
X32799000Y-38898450D01*
X32799000Y-37598450D01*
X32814300Y-37521531D01*
X32857872Y-37456322D01*
X32923081Y-37412750D01*
X33000000Y-37397450D01*
X33300000Y-37397450D01*
X33376919Y-37412750D01*
G37*
G36*
X34646919Y-37412750D02*
G01*
X34712128Y-37456322D01*
X34755700Y-37521531D01*
X34771000Y-37598450D01*
X34771000Y-38898450D01*
X34755700Y-38975369D01*
X34712128Y-39040578D01*
X34646919Y-39084150D01*
X34570000Y-39099450D01*
X34270000Y-39099450D01*
X34193081Y-39084150D01*
X34127872Y-39040578D01*
X34084300Y-38975369D01*
X34069000Y-38898450D01*
X34069000Y-37598450D01*
X34084300Y-37521531D01*
X34127872Y-37456322D01*
X34193081Y-37412750D01*
X34270000Y-37397450D01*
X34570000Y-37397450D01*
X34646919Y-37412750D01*
G37*
G36*
X44087117Y-36660932D02*
G01*
X44103662Y-36671988D01*
X44114718Y-36688533D01*
X44118600Y-36708050D01*
X44118600Y-38408050D01*
X44114718Y-38427567D01*
X44103662Y-38444112D01*
X44087117Y-38455168D01*
X44067600Y-38459050D01*
X42367600Y-38459050D01*
X42348083Y-38455168D01*
X42331538Y-38444112D01*
X42320482Y-38427567D01*
X42316600Y-38408050D01*
X42316600Y-36708050D01*
X42320482Y-36688533D01*
X42331538Y-36671988D01*
X42348083Y-36660932D01*
X42367600Y-36657050D01*
X44067600Y-36657050D01*
X44087117Y-36660932D01*
G37*
G36*
X55687465Y-35253675D02*
G01*
X55736955Y-35253675D01*
X55792070Y-35263977D01*
X55845040Y-35269195D01*
X55885279Y-35281401D01*
X55927570Y-35289307D01*
X55986142Y-35311997D01*
X56042200Y-35329003D01*
X56074231Y-35346123D01*
X56108382Y-35359354D01*
X56167719Y-35396093D01*
X56223904Y-35426125D01*
X56247509Y-35445497D01*
X56273251Y-35461436D01*
X56330290Y-35513434D01*
X56383169Y-35556831D01*
X56398839Y-35575924D01*
X56416557Y-35592077D01*
X56467989Y-35660184D01*
X56513875Y-35716096D01*
X56522748Y-35732697D01*
X56533415Y-35746822D01*
X56575860Y-35832064D01*
X56610997Y-35897800D01*
X56614743Y-35910151D01*
X56619848Y-35920402D01*
X56649997Y-36026368D01*
X56670805Y-36094960D01*
X56671488Y-36101900D01*
X56672915Y-36106914D01*
X56687740Y-36266906D01*
X56691000Y-36300000D01*
X56687737Y-36333122D01*
X56672915Y-36493085D01*
X56671488Y-36498097D01*
X56670805Y-36505040D01*
X56649993Y-36573646D01*
X56619848Y-36679597D01*
X56614744Y-36689846D01*
X56610997Y-36702200D01*
X56575853Y-36767949D01*
X56533415Y-36853177D01*
X56522750Y-36867299D01*
X56513875Y-36883904D01*
X56467979Y-36939827D01*
X56416557Y-37007922D01*
X56398842Y-37024071D01*
X56383169Y-37043169D01*
X56330279Y-37086574D01*
X56273251Y-37138563D01*
X56247514Y-37154498D01*
X56223904Y-37173875D01*
X56167707Y-37203912D01*
X56108382Y-37240645D01*
X56074238Y-37253872D01*
X56042200Y-37270997D01*
X55986130Y-37288005D01*
X55927570Y-37310692D01*
X55885286Y-37318596D01*
X55845040Y-37330805D01*
X55792067Y-37336022D01*
X55736955Y-37346325D01*
X55687465Y-37346325D01*
X55640000Y-37351000D01*
X55592535Y-37346325D01*
X55543045Y-37346325D01*
X55487931Y-37336022D01*
X55434960Y-37330805D01*
X55394714Y-37318596D01*
X55352429Y-37310692D01*
X55293865Y-37288004D01*
X55237800Y-37270997D01*
X55205764Y-37253873D01*
X55171617Y-37240645D01*
X55112285Y-37203908D01*
X55056096Y-37173875D01*
X55032488Y-37154500D01*
X55006748Y-37138563D01*
X54949710Y-37086565D01*
X54896831Y-37043169D01*
X54881160Y-37024074D01*
X54863442Y-37007922D01*
X54812007Y-36939811D01*
X54766125Y-36883904D01*
X54757252Y-36867303D01*
X54746584Y-36853177D01*
X54704131Y-36767921D01*
X54669003Y-36702200D01*
X54665257Y-36689851D01*
X54660151Y-36679597D01*
X54629990Y-36573593D01*
X54609195Y-36505040D01*
X54608511Y-36498103D01*
X54607084Y-36493085D01*
X54592259Y-36333093D01*
X54589000Y-36300000D01*
X54592256Y-36266935D01*
X54607084Y-36106914D01*
X54608511Y-36101895D01*
X54609195Y-36094960D01*
X54629986Y-36026421D01*
X54660151Y-35920402D01*
X54665257Y-35910146D01*
X54669003Y-35897800D01*
X54704124Y-35832091D01*
X54746584Y-35746822D01*
X54757253Y-35732692D01*
X54766125Y-35716096D01*
X54811998Y-35660199D01*
X54863442Y-35592077D01*
X54881163Y-35575921D01*
X54896831Y-35556831D01*
X54949699Y-35513443D01*
X55006748Y-35461436D01*
X55032493Y-35445495D01*
X55056096Y-35426125D01*
X55112273Y-35396097D01*
X55171617Y-35359354D01*
X55205771Y-35346122D01*
X55237800Y-35329003D01*
X55293853Y-35311999D01*
X55352429Y-35289307D01*
X55394721Y-35281401D01*
X55434960Y-35269195D01*
X55487928Y-35263977D01*
X55543045Y-35253675D01*
X55592535Y-35253675D01*
X55640000Y-35249000D01*
X55687465Y-35253675D01*
G37*
G36*
X66659517Y-35252882D02*
G01*
X66676062Y-35263938D01*
X66687118Y-35280483D01*
X66691000Y-35300000D01*
X66691000Y-37300000D01*
X66687118Y-37319517D01*
X66676062Y-37336062D01*
X66659517Y-37347118D01*
X66640000Y-37351000D01*
X64640000Y-37351000D01*
X64620483Y-37347118D01*
X64603938Y-37336062D01*
X64592882Y-37319517D01*
X64589000Y-37300000D01*
X64589000Y-35300000D01*
X64592882Y-35280483D01*
X64603938Y-35263938D01*
X64620483Y-35252882D01*
X64640000Y-35249000D01*
X66640000Y-35249000D01*
X66659517Y-35252882D01*
G37*
G36*
X2392785Y-36810494D02*
G01*
X2441773Y-36843227D01*
X2474506Y-36892215D01*
X2486000Y-36950000D01*
X2486000Y-37150000D01*
X2474506Y-37207785D01*
X2441773Y-37256773D01*
X2392785Y-37289506D01*
X2335000Y-37301000D01*
X1885000Y-37301000D01*
X1827215Y-37289506D01*
X1778227Y-37256773D01*
X1745494Y-37207785D01*
X1734000Y-37150000D01*
X1734000Y-36950000D01*
X1745494Y-36892215D01*
X1778227Y-36843227D01*
X1827215Y-36810494D01*
X1885000Y-36799000D01*
X2335000Y-36799000D01*
X2392785Y-36810494D01*
G37*
G36*
X4292785Y-36810494D02*
G01*
X4341773Y-36843227D01*
X4374506Y-36892215D01*
X4386000Y-36950000D01*
X4386000Y-37150000D01*
X4374506Y-37207785D01*
X4341773Y-37256773D01*
X4292785Y-37289506D01*
X4235000Y-37301000D01*
X3785000Y-37301000D01*
X3727215Y-37289506D01*
X3678227Y-37256773D01*
X3645494Y-37207785D01*
X3634000Y-37150000D01*
X3634000Y-36950000D01*
X3645494Y-36892215D01*
X3678227Y-36843227D01*
X3727215Y-36810494D01*
X3785000Y-36799000D01*
X4235000Y-36799000D01*
X4292785Y-36810494D01*
G37*
G36*
X7492785Y-36810494D02*
G01*
X7541773Y-36843227D01*
X7574506Y-36892215D01*
X7586000Y-36950000D01*
X7586000Y-37150000D01*
X7574506Y-37207785D01*
X7541773Y-37256773D01*
X7492785Y-37289506D01*
X7435000Y-37301000D01*
X6985000Y-37301000D01*
X6927215Y-37289506D01*
X6878227Y-37256773D01*
X6845494Y-37207785D01*
X6834000Y-37150000D01*
X6834000Y-36950000D01*
X6845494Y-36892215D01*
X6878227Y-36843227D01*
X6927215Y-36810494D01*
X6985000Y-36799000D01*
X7435000Y-36799000D01*
X7492785Y-36810494D01*
G37*
G36*
X9392785Y-36810494D02*
G01*
X9441773Y-36843227D01*
X9474506Y-36892215D01*
X9486000Y-36950000D01*
X9486000Y-37150000D01*
X9474506Y-37207785D01*
X9441773Y-37256773D01*
X9392785Y-37289506D01*
X9335000Y-37301000D01*
X8885000Y-37301000D01*
X8827215Y-37289506D01*
X8778227Y-37256773D01*
X8745494Y-37207785D01*
X8734000Y-37150000D01*
X8734000Y-36950000D01*
X8745494Y-36892215D01*
X8778227Y-36843227D01*
X8827215Y-36810494D01*
X8885000Y-36799000D01*
X9335000Y-36799000D01*
X9392785Y-36810494D01*
G37*
G36*
X12692785Y-36710494D02*
G01*
X12741773Y-36743227D01*
X12774506Y-36792215D01*
X12786000Y-36850000D01*
X12786000Y-37050000D01*
X12774506Y-37107785D01*
X12741773Y-37156773D01*
X12692785Y-37189506D01*
X12635000Y-37201000D01*
X12185000Y-37201000D01*
X12127215Y-37189506D01*
X12078227Y-37156773D01*
X12045494Y-37107785D01*
X12034000Y-37050000D01*
X12034000Y-36850000D01*
X12045494Y-36792215D01*
X12078227Y-36743227D01*
X12127215Y-36710494D01*
X12185000Y-36699000D01*
X12635000Y-36699000D01*
X12692785Y-36710494D01*
G37*
G36*
X14592785Y-36710494D02*
G01*
X14641773Y-36743227D01*
X14674506Y-36792215D01*
X14686000Y-36850000D01*
X14686000Y-37050000D01*
X14674506Y-37107785D01*
X14641773Y-37156773D01*
X14592785Y-37189506D01*
X14535000Y-37201000D01*
X14085000Y-37201000D01*
X14027215Y-37189506D01*
X13978227Y-37156773D01*
X13945494Y-37107785D01*
X13934000Y-37050000D01*
X13934000Y-36850000D01*
X13945494Y-36792215D01*
X13978227Y-36743227D01*
X14027215Y-36710494D01*
X14085000Y-36699000D01*
X14535000Y-36699000D01*
X14592785Y-36710494D01*
G37*
G36*
X17492785Y-36610494D02*
G01*
X17541773Y-36643227D01*
X17574506Y-36692215D01*
X17586000Y-36750000D01*
X17586000Y-36950000D01*
X17574506Y-37007785D01*
X17541773Y-37056773D01*
X17492785Y-37089506D01*
X17435000Y-37101000D01*
X16985000Y-37101000D01*
X16927215Y-37089506D01*
X16878227Y-37056773D01*
X16845494Y-37007785D01*
X16834000Y-36950000D01*
X16834000Y-36750000D01*
X16845494Y-36692215D01*
X16878227Y-36643227D01*
X16927215Y-36610494D01*
X16985000Y-36599000D01*
X17435000Y-36599000D01*
X17492785Y-36610494D01*
G37*
G36*
X19392785Y-36610494D02*
G01*
X19441773Y-36643227D01*
X19474506Y-36692215D01*
X19486000Y-36750000D01*
X19486000Y-36950000D01*
X19474506Y-37007785D01*
X19441773Y-37056773D01*
X19392785Y-37089506D01*
X19335000Y-37101000D01*
X18885000Y-37101000D01*
X18827215Y-37089506D01*
X18778227Y-37056773D01*
X18745494Y-37007785D01*
X18734000Y-36950000D01*
X18734000Y-36750000D01*
X18745494Y-36692215D01*
X18778227Y-36643227D01*
X18827215Y-36610494D01*
X18885000Y-36599000D01*
X19335000Y-36599000D01*
X19392785Y-36610494D01*
G37*
G36*
X24292785Y-36510494D02*
G01*
X24341773Y-36543227D01*
X24374506Y-36592215D01*
X24386000Y-36650000D01*
X24386000Y-36850000D01*
X24374506Y-36907785D01*
X24341773Y-36956773D01*
X24292785Y-36989506D01*
X24235000Y-37001000D01*
X23785000Y-37001000D01*
X23727215Y-36989506D01*
X23678227Y-36956773D01*
X23645494Y-36907785D01*
X23634000Y-36850000D01*
X23634000Y-36650000D01*
X23645494Y-36592215D01*
X23678227Y-36543227D01*
X23727215Y-36510494D01*
X23785000Y-36499000D01*
X24235000Y-36499000D01*
X24292785Y-36510494D01*
G37*
G36*
X26192785Y-36510494D02*
G01*
X26241773Y-36543227D01*
X26274506Y-36592215D01*
X26286000Y-36650000D01*
X26286000Y-36850000D01*
X26274506Y-36907785D01*
X26241773Y-36956773D01*
X26192785Y-36989506D01*
X26135000Y-37001000D01*
X25685000Y-37001000D01*
X25627215Y-36989506D01*
X25578227Y-36956773D01*
X25545494Y-36907785D01*
X25534000Y-36850000D01*
X25534000Y-36650000D01*
X25545494Y-36592215D01*
X25578227Y-36543227D01*
X25627215Y-36510494D01*
X25685000Y-36499000D01*
X26135000Y-36499000D01*
X26192785Y-36510494D01*
G37*
G36*
X2392785Y-36160494D02*
G01*
X2441773Y-36193227D01*
X2474506Y-36242215D01*
X2486000Y-36300000D01*
X2486000Y-36500000D01*
X2474506Y-36557785D01*
X2441773Y-36606773D01*
X2392785Y-36639506D01*
X2335000Y-36651000D01*
X1885000Y-36651000D01*
X1827215Y-36639506D01*
X1778227Y-36606773D01*
X1745494Y-36557785D01*
X1734000Y-36500000D01*
X1734000Y-36300000D01*
X1745494Y-36242215D01*
X1778227Y-36193227D01*
X1827215Y-36160494D01*
X1885000Y-36149000D01*
X2335000Y-36149000D01*
X2392785Y-36160494D01*
G37*
G36*
X4292785Y-36160494D02*
G01*
X4341773Y-36193227D01*
X4374506Y-36242215D01*
X4386000Y-36300000D01*
X4386000Y-36500000D01*
X4374506Y-36557785D01*
X4341773Y-36606773D01*
X4292785Y-36639506D01*
X4235000Y-36651000D01*
X3785000Y-36651000D01*
X3727215Y-36639506D01*
X3678227Y-36606773D01*
X3645494Y-36557785D01*
X3634000Y-36500000D01*
X3634000Y-36300000D01*
X3645494Y-36242215D01*
X3678227Y-36193227D01*
X3727215Y-36160494D01*
X3785000Y-36149000D01*
X4235000Y-36149000D01*
X4292785Y-36160494D01*
G37*
G36*
X7492785Y-36160494D02*
G01*
X7541773Y-36193227D01*
X7574506Y-36242215D01*
X7586000Y-36300000D01*
X7586000Y-36500000D01*
X7574506Y-36557785D01*
X7541773Y-36606773D01*
X7492785Y-36639506D01*
X7435000Y-36651000D01*
X6985000Y-36651000D01*
X6927215Y-36639506D01*
X6878227Y-36606773D01*
X6845494Y-36557785D01*
X6834000Y-36500000D01*
X6834000Y-36300000D01*
X6845494Y-36242215D01*
X6878227Y-36193227D01*
X6927215Y-36160494D01*
X6985000Y-36149000D01*
X7435000Y-36149000D01*
X7492785Y-36160494D01*
G37*
G36*
X9392785Y-36160494D02*
G01*
X9441773Y-36193227D01*
X9474506Y-36242215D01*
X9486000Y-36300000D01*
X9486000Y-36500000D01*
X9474506Y-36557785D01*
X9441773Y-36606773D01*
X9392785Y-36639506D01*
X9335000Y-36651000D01*
X8885000Y-36651000D01*
X8827215Y-36639506D01*
X8778227Y-36606773D01*
X8745494Y-36557785D01*
X8734000Y-36500000D01*
X8734000Y-36300000D01*
X8745494Y-36242215D01*
X8778227Y-36193227D01*
X8827215Y-36160494D01*
X8885000Y-36149000D01*
X9335000Y-36149000D01*
X9392785Y-36160494D01*
G37*
G36*
X12692785Y-36060494D02*
G01*
X12741773Y-36093227D01*
X12774506Y-36142215D01*
X12786000Y-36200000D01*
X12786000Y-36400000D01*
X12774506Y-36457785D01*
X12741773Y-36506773D01*
X12692785Y-36539506D01*
X12635000Y-36551000D01*
X12185000Y-36551000D01*
X12127215Y-36539506D01*
X12078227Y-36506773D01*
X12045494Y-36457785D01*
X12034000Y-36400000D01*
X12034000Y-36200000D01*
X12045494Y-36142215D01*
X12078227Y-36093227D01*
X12127215Y-36060494D01*
X12185000Y-36049000D01*
X12635000Y-36049000D01*
X12692785Y-36060494D01*
G37*
G36*
X14592785Y-36060494D02*
G01*
X14641773Y-36093227D01*
X14674506Y-36142215D01*
X14686000Y-36200000D01*
X14686000Y-36400000D01*
X14674506Y-36457785D01*
X14641773Y-36506773D01*
X14592785Y-36539506D01*
X14535000Y-36551000D01*
X14085000Y-36551000D01*
X14027215Y-36539506D01*
X13978227Y-36506773D01*
X13945494Y-36457785D01*
X13934000Y-36400000D01*
X13934000Y-36200000D01*
X13945494Y-36142215D01*
X13978227Y-36093227D01*
X14027215Y-36060494D01*
X14085000Y-36049000D01*
X14535000Y-36049000D01*
X14592785Y-36060494D01*
G37*
G36*
X17492785Y-35960494D02*
G01*
X17541773Y-35993227D01*
X17574506Y-36042215D01*
X17586000Y-36100000D01*
X17586000Y-36300000D01*
X17574506Y-36357785D01*
X17541773Y-36406773D01*
X17492785Y-36439506D01*
X17435000Y-36451000D01*
X16985000Y-36451000D01*
X16927215Y-36439506D01*
X16878227Y-36406773D01*
X16845494Y-36357785D01*
X16834000Y-36300000D01*
X16834000Y-36100000D01*
X16845494Y-36042215D01*
X16878227Y-35993227D01*
X16927215Y-35960494D01*
X16985000Y-35949000D01*
X17435000Y-35949000D01*
X17492785Y-35960494D01*
G37*
G36*
X19392785Y-35960494D02*
G01*
X19441773Y-35993227D01*
X19474506Y-36042215D01*
X19486000Y-36100000D01*
X19486000Y-36300000D01*
X19474506Y-36357785D01*
X19441773Y-36406773D01*
X19392785Y-36439506D01*
X19335000Y-36451000D01*
X18885000Y-36451000D01*
X18827215Y-36439506D01*
X18778227Y-36406773D01*
X18745494Y-36357785D01*
X18734000Y-36300000D01*
X18734000Y-36100000D01*
X18745494Y-36042215D01*
X18778227Y-35993227D01*
X18827215Y-35960494D01*
X18885000Y-35949000D01*
X19335000Y-35949000D01*
X19392785Y-35960494D01*
G37*
G36*
X24292785Y-35860494D02*
G01*
X24341773Y-35893227D01*
X24374506Y-35942215D01*
X24386000Y-36000000D01*
X24386000Y-36200000D01*
X24374506Y-36257785D01*
X24341773Y-36306773D01*
X24292785Y-36339506D01*
X24235000Y-36351000D01*
X23785000Y-36351000D01*
X23727215Y-36339506D01*
X23678227Y-36306773D01*
X23645494Y-36257785D01*
X23634000Y-36200000D01*
X23634000Y-36000000D01*
X23645494Y-35942215D01*
X23678227Y-35893227D01*
X23727215Y-35860494D01*
X23785000Y-35849000D01*
X24235000Y-35849000D01*
X24292785Y-35860494D01*
G37*
G36*
X26192785Y-35860494D02*
G01*
X26241773Y-35893227D01*
X26274506Y-35942215D01*
X26286000Y-36000000D01*
X26286000Y-36200000D01*
X26274506Y-36257785D01*
X26241773Y-36306773D01*
X26192785Y-36339506D01*
X26135000Y-36351000D01*
X25685000Y-36351000D01*
X25627215Y-36339506D01*
X25578227Y-36306773D01*
X25545494Y-36257785D01*
X25534000Y-36200000D01*
X25534000Y-36000000D01*
X25545494Y-35942215D01*
X25578227Y-35893227D01*
X25627215Y-35860494D01*
X25685000Y-35849000D01*
X26135000Y-35849000D01*
X26192785Y-35860494D01*
G37*
G36*
X2392785Y-35510494D02*
G01*
X2441773Y-35543227D01*
X2474506Y-35592215D01*
X2486000Y-35650000D01*
X2486000Y-35850000D01*
X2474506Y-35907785D01*
X2441773Y-35956773D01*
X2392785Y-35989506D01*
X2335000Y-36001000D01*
X1885000Y-36001000D01*
X1827215Y-35989506D01*
X1778227Y-35956773D01*
X1745494Y-35907785D01*
X1734000Y-35850000D01*
X1734000Y-35650000D01*
X1745494Y-35592215D01*
X1778227Y-35543227D01*
X1827215Y-35510494D01*
X1885000Y-35499000D01*
X2335000Y-35499000D01*
X2392785Y-35510494D01*
G37*
G36*
X4292785Y-35510494D02*
G01*
X4341773Y-35543227D01*
X4374506Y-35592215D01*
X4386000Y-35650000D01*
X4386000Y-35850000D01*
X4374506Y-35907785D01*
X4341773Y-35956773D01*
X4292785Y-35989506D01*
X4235000Y-36001000D01*
X3785000Y-36001000D01*
X3727215Y-35989506D01*
X3678227Y-35956773D01*
X3645494Y-35907785D01*
X3634000Y-35850000D01*
X3634000Y-35650000D01*
X3645494Y-35592215D01*
X3678227Y-35543227D01*
X3727215Y-35510494D01*
X3785000Y-35499000D01*
X4235000Y-35499000D01*
X4292785Y-35510494D01*
G37*
G36*
X7492785Y-35510494D02*
G01*
X7541773Y-35543227D01*
X7574506Y-35592215D01*
X7586000Y-35650000D01*
X7586000Y-35850000D01*
X7574506Y-35907785D01*
X7541773Y-35956773D01*
X7492785Y-35989506D01*
X7435000Y-36001000D01*
X6985000Y-36001000D01*
X6927215Y-35989506D01*
X6878227Y-35956773D01*
X6845494Y-35907785D01*
X6834000Y-35850000D01*
X6834000Y-35650000D01*
X6845494Y-35592215D01*
X6878227Y-35543227D01*
X6927215Y-35510494D01*
X6985000Y-35499000D01*
X7435000Y-35499000D01*
X7492785Y-35510494D01*
G37*
G36*
X9392785Y-35510494D02*
G01*
X9441773Y-35543227D01*
X9474506Y-35592215D01*
X9486000Y-35650000D01*
X9486000Y-35850000D01*
X9474506Y-35907785D01*
X9441773Y-35956773D01*
X9392785Y-35989506D01*
X9335000Y-36001000D01*
X8885000Y-36001000D01*
X8827215Y-35989506D01*
X8778227Y-35956773D01*
X8745494Y-35907785D01*
X8734000Y-35850000D01*
X8734000Y-35650000D01*
X8745494Y-35592215D01*
X8778227Y-35543227D01*
X8827215Y-35510494D01*
X8885000Y-35499000D01*
X9335000Y-35499000D01*
X9392785Y-35510494D01*
G37*
G36*
X12692785Y-35410494D02*
G01*
X12741773Y-35443227D01*
X12774506Y-35492215D01*
X12786000Y-35550000D01*
X12786000Y-35750000D01*
X12774506Y-35807785D01*
X12741773Y-35856773D01*
X12692785Y-35889506D01*
X12635000Y-35901000D01*
X12185000Y-35901000D01*
X12127215Y-35889506D01*
X12078227Y-35856773D01*
X12045494Y-35807785D01*
X12034000Y-35750000D01*
X12034000Y-35550000D01*
X12045494Y-35492215D01*
X12078227Y-35443227D01*
X12127215Y-35410494D01*
X12185000Y-35399000D01*
X12635000Y-35399000D01*
X12692785Y-35410494D01*
G37*
G36*
X14592785Y-35410494D02*
G01*
X14641773Y-35443227D01*
X14674506Y-35492215D01*
X14686000Y-35550000D01*
X14686000Y-35750000D01*
X14674506Y-35807785D01*
X14641773Y-35856773D01*
X14592785Y-35889506D01*
X14535000Y-35901000D01*
X14085000Y-35901000D01*
X14027215Y-35889506D01*
X13978227Y-35856773D01*
X13945494Y-35807785D01*
X13934000Y-35750000D01*
X13934000Y-35550000D01*
X13945494Y-35492215D01*
X13978227Y-35443227D01*
X14027215Y-35410494D01*
X14085000Y-35399000D01*
X14535000Y-35399000D01*
X14592785Y-35410494D01*
G37*
G36*
X30622785Y-35360494D02*
G01*
X30671773Y-35393227D01*
X30704506Y-35442215D01*
X30716000Y-35500000D01*
X30716000Y-35700000D01*
X30704506Y-35757785D01*
X30671773Y-35806773D01*
X30622785Y-35839506D01*
X30565000Y-35851000D01*
X30115000Y-35851000D01*
X30057215Y-35839506D01*
X30008227Y-35806773D01*
X29975494Y-35757785D01*
X29964000Y-35700000D01*
X29964000Y-35500000D01*
X29975494Y-35442215D01*
X30008227Y-35393227D01*
X30057215Y-35360494D01*
X30115000Y-35349000D01*
X30565000Y-35349000D01*
X30622785Y-35360494D01*
G37*
G36*
X32522785Y-35360494D02*
G01*
X32571773Y-35393227D01*
X32604506Y-35442215D01*
X32616000Y-35500000D01*
X32616000Y-35700000D01*
X32604506Y-35757785D01*
X32571773Y-35806773D01*
X32522785Y-35839506D01*
X32465000Y-35851000D01*
X32015000Y-35851000D01*
X31957215Y-35839506D01*
X31908227Y-35806773D01*
X31875494Y-35757785D01*
X31864000Y-35700000D01*
X31864000Y-35500000D01*
X31875494Y-35442215D01*
X31908227Y-35393227D01*
X31957215Y-35360494D01*
X32015000Y-35349000D01*
X32465000Y-35349000D01*
X32522785Y-35360494D01*
G37*
G36*
X17492785Y-35310494D02*
G01*
X17541773Y-35343227D01*
X17574506Y-35392215D01*
X17586000Y-35450000D01*
X17586000Y-35650000D01*
X17574506Y-35707785D01*
X17541773Y-35756773D01*
X17492785Y-35789506D01*
X17435000Y-35801000D01*
X16985000Y-35801000D01*
X16927215Y-35789506D01*
X16878227Y-35756773D01*
X16845494Y-35707785D01*
X16834000Y-35650000D01*
X16834000Y-35450000D01*
X16845494Y-35392215D01*
X16878227Y-35343227D01*
X16927215Y-35310494D01*
X16985000Y-35299000D01*
X17435000Y-35299000D01*
X17492785Y-35310494D01*
G37*
G36*
X19392785Y-35310494D02*
G01*
X19441773Y-35343227D01*
X19474506Y-35392215D01*
X19486000Y-35450000D01*
X19486000Y-35650000D01*
X19474506Y-35707785D01*
X19441773Y-35756773D01*
X19392785Y-35789506D01*
X19335000Y-35801000D01*
X18885000Y-35801000D01*
X18827215Y-35789506D01*
X18778227Y-35756773D01*
X18745494Y-35707785D01*
X18734000Y-35650000D01*
X18734000Y-35450000D01*
X18745494Y-35392215D01*
X18778227Y-35343227D01*
X18827215Y-35310494D01*
X18885000Y-35299000D01*
X19335000Y-35299000D01*
X19392785Y-35310494D01*
G37*
G36*
X24292785Y-35210494D02*
G01*
X24341773Y-35243227D01*
X24374506Y-35292215D01*
X24386000Y-35350000D01*
X24386000Y-35550000D01*
X24374506Y-35607785D01*
X24341773Y-35656773D01*
X24292785Y-35689506D01*
X24235000Y-35701000D01*
X23785000Y-35701000D01*
X23727215Y-35689506D01*
X23678227Y-35656773D01*
X23645494Y-35607785D01*
X23634000Y-35550000D01*
X23634000Y-35350000D01*
X23645494Y-35292215D01*
X23678227Y-35243227D01*
X23727215Y-35210494D01*
X23785000Y-35199000D01*
X24235000Y-35199000D01*
X24292785Y-35210494D01*
G37*
G36*
X26192785Y-35210494D02*
G01*
X26241773Y-35243227D01*
X26274506Y-35292215D01*
X26286000Y-35350000D01*
X26286000Y-35550000D01*
X26274506Y-35607785D01*
X26241773Y-35656773D01*
X26192785Y-35689506D01*
X26135000Y-35701000D01*
X25685000Y-35701000D01*
X25627215Y-35689506D01*
X25578227Y-35656773D01*
X25545494Y-35607785D01*
X25534000Y-35550000D01*
X25534000Y-35350000D01*
X25545494Y-35292215D01*
X25578227Y-35243227D01*
X25627215Y-35210494D01*
X25685000Y-35199000D01*
X26135000Y-35199000D01*
X26192785Y-35210494D01*
G37*
G36*
X30622785Y-34710494D02*
G01*
X30671773Y-34743227D01*
X30704506Y-34792215D01*
X30716000Y-34850000D01*
X30716000Y-35050000D01*
X30704506Y-35107785D01*
X30671773Y-35156773D01*
X30622785Y-35189506D01*
X30565000Y-35201000D01*
X30115000Y-35201000D01*
X30057215Y-35189506D01*
X30008227Y-35156773D01*
X29975494Y-35107785D01*
X29964000Y-35050000D01*
X29964000Y-34850000D01*
X29975494Y-34792215D01*
X30008227Y-34743227D01*
X30057215Y-34710494D01*
X30115000Y-34699000D01*
X30565000Y-34699000D01*
X30622785Y-34710494D01*
G37*
G36*
X32522785Y-34710494D02*
G01*
X32571773Y-34743227D01*
X32604506Y-34792215D01*
X32616000Y-34850000D01*
X32616000Y-35050000D01*
X32604506Y-35107785D01*
X32571773Y-35156773D01*
X32522785Y-35189506D01*
X32465000Y-35201000D01*
X32015000Y-35201000D01*
X31957215Y-35189506D01*
X31908227Y-35156773D01*
X31875494Y-35107785D01*
X31864000Y-35050000D01*
X31864000Y-34850000D01*
X31875494Y-34792215D01*
X31908227Y-34743227D01*
X31957215Y-34710494D01*
X32015000Y-34699000D01*
X32465000Y-34699000D01*
X32522785Y-34710494D01*
G37*
G36*
X30622785Y-34060494D02*
G01*
X30671773Y-34093227D01*
X30704506Y-34142215D01*
X30716000Y-34200000D01*
X30716000Y-34400000D01*
X30704506Y-34457785D01*
X30671773Y-34506773D01*
X30622785Y-34539506D01*
X30565000Y-34551000D01*
X30115000Y-34551000D01*
X30057215Y-34539506D01*
X30008227Y-34506773D01*
X29975494Y-34457785D01*
X29964000Y-34400000D01*
X29964000Y-34200000D01*
X29975494Y-34142215D01*
X30008227Y-34093227D01*
X30057215Y-34060494D01*
X30115000Y-34049000D01*
X30565000Y-34049000D01*
X30622785Y-34060494D01*
G37*
G36*
X32522785Y-34060494D02*
G01*
X32571773Y-34093227D01*
X32604506Y-34142215D01*
X32616000Y-34200000D01*
X32616000Y-34400000D01*
X32604506Y-34457785D01*
X32571773Y-34506773D01*
X32522785Y-34539506D01*
X32465000Y-34551000D01*
X32015000Y-34551000D01*
X31957215Y-34539506D01*
X31908227Y-34506773D01*
X31875494Y-34457785D01*
X31864000Y-34400000D01*
X31864000Y-34200000D01*
X31875494Y-34142215D01*
X31908227Y-34093227D01*
X31957215Y-34060494D01*
X32015000Y-34049000D01*
X32465000Y-34049000D01*
X32522785Y-34060494D01*
G37*
G36*
X4167779Y-31803158D02*
G01*
X4228122Y-31843478D01*
X4268442Y-31903821D01*
X4282600Y-31975000D01*
X4282600Y-32245000D01*
X4268442Y-32316179D01*
X4228122Y-32376522D01*
X4167779Y-32416842D01*
X4096600Y-32431000D01*
X3726600Y-32431000D01*
X3655421Y-32416842D01*
X3595078Y-32376522D01*
X3554758Y-32316179D01*
X3540600Y-32245000D01*
X3540600Y-31975000D01*
X3554758Y-31903821D01*
X3595078Y-31843478D01*
X3655421Y-31803158D01*
X3726600Y-31789000D01*
X4096600Y-31789000D01*
X4167779Y-31803158D01*
G37*
G36*
X5430979Y-31803158D02*
G01*
X5491322Y-31843478D01*
X5531642Y-31903821D01*
X5545800Y-31975000D01*
X5545800Y-32245000D01*
X5531642Y-32316179D01*
X5491322Y-32376522D01*
X5430979Y-32416842D01*
X5359800Y-32431000D01*
X4989800Y-32431000D01*
X4918621Y-32416842D01*
X4858278Y-32376522D01*
X4817958Y-32316179D01*
X4803800Y-32245000D01*
X4803800Y-31975000D01*
X4817958Y-31903821D01*
X4858278Y-31843478D01*
X4918621Y-31803158D01*
X4989800Y-31789000D01*
X5359800Y-31789000D01*
X5430979Y-31803158D01*
G37*
G36*
X6694279Y-31803158D02*
G01*
X6754622Y-31843478D01*
X6794942Y-31903821D01*
X6809100Y-31975000D01*
X6809100Y-32245000D01*
X6794942Y-32316179D01*
X6754622Y-32376522D01*
X6694279Y-32416842D01*
X6623100Y-32431000D01*
X6253100Y-32431000D01*
X6181921Y-32416842D01*
X6121578Y-32376522D01*
X6081258Y-32316179D01*
X6067100Y-32245000D01*
X6067100Y-31975000D01*
X6081258Y-31903821D01*
X6121578Y-31843478D01*
X6181921Y-31803158D01*
X6253100Y-31789000D01*
X6623100Y-31789000D01*
X6694279Y-31803158D01*
G37*
G36*
X7957479Y-31803158D02*
G01*
X8017822Y-31843478D01*
X8058142Y-31903821D01*
X8072300Y-31975000D01*
X8072300Y-32245000D01*
X8058142Y-32316179D01*
X8017822Y-32376522D01*
X7957479Y-32416842D01*
X7886300Y-32431000D01*
X7516300Y-32431000D01*
X7445121Y-32416842D01*
X7384778Y-32376522D01*
X7344458Y-32316179D01*
X7330300Y-32245000D01*
X7330300Y-31975000D01*
X7344458Y-31903821D01*
X7384778Y-31843478D01*
X7445121Y-31803158D01*
X7516300Y-31789000D01*
X7886300Y-31789000D01*
X7957479Y-31803158D01*
G37*
G36*
X9220679Y-31803158D02*
G01*
X9281022Y-31843478D01*
X9321342Y-31903821D01*
X9335500Y-31975000D01*
X9335500Y-32245000D01*
X9321342Y-32316179D01*
X9281022Y-32376522D01*
X9220679Y-32416842D01*
X9149500Y-32431000D01*
X8779500Y-32431000D01*
X8708321Y-32416842D01*
X8647978Y-32376522D01*
X8607658Y-32316179D01*
X8593500Y-32245000D01*
X8593500Y-31975000D01*
X8607658Y-31903821D01*
X8647978Y-31843478D01*
X8708321Y-31803158D01*
X8779500Y-31789000D01*
X9149500Y-31789000D01*
X9220679Y-31803158D01*
G37*
G36*
X10483879Y-31803158D02*
G01*
X10544222Y-31843478D01*
X10584542Y-31903821D01*
X10598700Y-31975000D01*
X10598700Y-32245000D01*
X10584542Y-32316179D01*
X10544222Y-32376522D01*
X10483879Y-32416842D01*
X10412700Y-32431000D01*
X10042700Y-32431000D01*
X9971521Y-32416842D01*
X9911178Y-32376522D01*
X9870858Y-32316179D01*
X9856700Y-32245000D01*
X9856700Y-31975000D01*
X9870858Y-31903821D01*
X9911178Y-31843478D01*
X9971521Y-31803158D01*
X10042700Y-31789000D01*
X10412700Y-31789000D01*
X10483879Y-31803158D01*
G37*
G36*
X11747179Y-31803158D02*
G01*
X11807522Y-31843478D01*
X11847842Y-31903821D01*
X11862000Y-31975000D01*
X11862000Y-32245000D01*
X11847842Y-32316179D01*
X11807522Y-32376522D01*
X11747179Y-32416842D01*
X11676000Y-32431000D01*
X11306000Y-32431000D01*
X11234821Y-32416842D01*
X11174478Y-32376522D01*
X11134158Y-32316179D01*
X11120000Y-32245000D01*
X11120000Y-31975000D01*
X11134158Y-31903821D01*
X11174478Y-31843478D01*
X11234821Y-31803158D01*
X11306000Y-31789000D01*
X11676000Y-31789000D01*
X11747179Y-31803158D01*
G37*
G36*
X13010379Y-31803158D02*
G01*
X13070722Y-31843478D01*
X13111042Y-31903821D01*
X13125200Y-31975000D01*
X13125200Y-32245000D01*
X13111042Y-32316179D01*
X13070722Y-32376522D01*
X13010379Y-32416842D01*
X12939200Y-32431000D01*
X12569200Y-32431000D01*
X12498021Y-32416842D01*
X12437678Y-32376522D01*
X12397358Y-32316179D01*
X12383200Y-32245000D01*
X12383200Y-31975000D01*
X12397358Y-31903821D01*
X12437678Y-31843478D01*
X12498021Y-31803158D01*
X12569200Y-31789000D01*
X12939200Y-31789000D01*
X13010379Y-31803158D01*
G37*
G36*
X14273579Y-31803158D02*
G01*
X14333922Y-31843478D01*
X14374242Y-31903821D01*
X14388400Y-31975000D01*
X14388400Y-32245000D01*
X14374242Y-32316179D01*
X14333922Y-32376522D01*
X14273579Y-32416842D01*
X14202400Y-32431000D01*
X13832400Y-32431000D01*
X13761221Y-32416842D01*
X13700878Y-32376522D01*
X13660558Y-32316179D01*
X13646400Y-32245000D01*
X13646400Y-31975000D01*
X13660558Y-31903821D01*
X13700878Y-31843478D01*
X13761221Y-31803158D01*
X13832400Y-31789000D01*
X14202400Y-31789000D01*
X14273579Y-31803158D01*
G37*
G36*
X15536779Y-31803158D02*
G01*
X15597122Y-31843478D01*
X15637442Y-31903821D01*
X15651600Y-31975000D01*
X15651600Y-32245000D01*
X15637442Y-32316179D01*
X15597122Y-32376522D01*
X15536779Y-32416842D01*
X15465600Y-32431000D01*
X15095600Y-32431000D01*
X15024421Y-32416842D01*
X14964078Y-32376522D01*
X14923758Y-32316179D01*
X14909600Y-32245000D01*
X14909600Y-31975000D01*
X14923758Y-31903821D01*
X14964078Y-31843478D01*
X15024421Y-31803158D01*
X15095600Y-31789000D01*
X15465600Y-31789000D01*
X15536779Y-31803158D01*
G37*
G36*
X16800079Y-31803158D02*
G01*
X16860422Y-31843478D01*
X16900742Y-31903821D01*
X16914900Y-31975000D01*
X16914900Y-32245000D01*
X16900742Y-32316179D01*
X16860422Y-32376522D01*
X16800079Y-32416842D01*
X16728900Y-32431000D01*
X16358900Y-32431000D01*
X16287721Y-32416842D01*
X16227378Y-32376522D01*
X16187058Y-32316179D01*
X16172900Y-32245000D01*
X16172900Y-31975000D01*
X16187058Y-31903821D01*
X16227378Y-31843478D01*
X16287721Y-31803158D01*
X16358900Y-31789000D01*
X16728900Y-31789000D01*
X16800079Y-31803158D01*
G37*
G36*
X18063279Y-31803158D02*
G01*
X18123622Y-31843478D01*
X18163942Y-31903821D01*
X18178100Y-31975000D01*
X18178100Y-32245000D01*
X18163942Y-32316179D01*
X18123622Y-32376522D01*
X18063279Y-32416842D01*
X17992100Y-32431000D01*
X17622100Y-32431000D01*
X17550921Y-32416842D01*
X17490578Y-32376522D01*
X17450258Y-32316179D01*
X17436100Y-32245000D01*
X17436100Y-31975000D01*
X17450258Y-31903821D01*
X17490578Y-31843478D01*
X17550921Y-31803158D01*
X17622100Y-31789000D01*
X17992100Y-31789000D01*
X18063279Y-31803158D01*
G37*
G36*
X19326479Y-31803158D02*
G01*
X19386822Y-31843478D01*
X19427142Y-31903821D01*
X19441300Y-31975000D01*
X19441300Y-32245000D01*
X19427142Y-32316179D01*
X19386822Y-32376522D01*
X19326479Y-32416842D01*
X19255300Y-32431000D01*
X18885300Y-32431000D01*
X18814121Y-32416842D01*
X18753778Y-32376522D01*
X18713458Y-32316179D01*
X18699300Y-32245000D01*
X18699300Y-31975000D01*
X18713458Y-31903821D01*
X18753778Y-31843478D01*
X18814121Y-31803158D01*
X18885300Y-31789000D01*
X19255300Y-31789000D01*
X19326479Y-31803158D01*
G37*
G36*
X20589679Y-31803158D02*
G01*
X20650022Y-31843478D01*
X20690342Y-31903821D01*
X20704500Y-31975000D01*
X20704500Y-32245000D01*
X20690342Y-32316179D01*
X20650022Y-32376522D01*
X20589679Y-32416842D01*
X20518500Y-32431000D01*
X20148500Y-32431000D01*
X20077321Y-32416842D01*
X20016978Y-32376522D01*
X19976658Y-32316179D01*
X19962500Y-32245000D01*
X19962500Y-31975000D01*
X19976658Y-31903821D01*
X20016978Y-31843478D01*
X20077321Y-31803158D01*
X20148500Y-31789000D01*
X20518500Y-31789000D01*
X20589679Y-31803158D01*
G37*
G36*
X21852979Y-31803158D02*
G01*
X21913322Y-31843478D01*
X21953642Y-31903821D01*
X21967800Y-31975000D01*
X21967800Y-32245000D01*
X21953642Y-32316179D01*
X21913322Y-32376522D01*
X21852979Y-32416842D01*
X21781800Y-32431000D01*
X21411800Y-32431000D01*
X21340621Y-32416842D01*
X21280278Y-32376522D01*
X21239958Y-32316179D01*
X21225800Y-32245000D01*
X21225800Y-31975000D01*
X21239958Y-31903821D01*
X21280278Y-31843478D01*
X21340621Y-31803158D01*
X21411800Y-31789000D01*
X21781800Y-31789000D01*
X21852979Y-31803158D01*
G37*
G36*
X23116179Y-31803158D02*
G01*
X23176522Y-31843478D01*
X23216842Y-31903821D01*
X23231000Y-31975000D01*
X23231000Y-32245000D01*
X23216842Y-32316179D01*
X23176522Y-32376522D01*
X23116179Y-32416842D01*
X23045000Y-32431000D01*
X22675000Y-32431000D01*
X22603821Y-32416842D01*
X22543478Y-32376522D01*
X22503158Y-32316179D01*
X22489000Y-32245000D01*
X22489000Y-31975000D01*
X22503158Y-31903821D01*
X22543478Y-31843478D01*
X22603821Y-31803158D01*
X22675000Y-31789000D01*
X23045000Y-31789000D01*
X23116179Y-31803158D01*
G37*
G36*
X27027779Y-31803158D02*
G01*
X27088122Y-31843478D01*
X27128442Y-31903821D01*
X27142600Y-31975000D01*
X27142600Y-32245000D01*
X27128442Y-32316179D01*
X27088122Y-32376522D01*
X27027779Y-32416842D01*
X26956600Y-32431000D01*
X26586600Y-32431000D01*
X26515421Y-32416842D01*
X26455078Y-32376522D01*
X26414758Y-32316179D01*
X26400600Y-32245000D01*
X26400600Y-31975000D01*
X26414758Y-31903821D01*
X26455078Y-31843478D01*
X26515421Y-31803158D01*
X26586600Y-31789000D01*
X26956600Y-31789000D01*
X27027779Y-31803158D01*
G37*
G36*
X29567779Y-31803158D02*
G01*
X29628122Y-31843478D01*
X29668442Y-31903821D01*
X29682600Y-31975000D01*
X29682600Y-32245000D01*
X29668442Y-32316179D01*
X29628122Y-32376522D01*
X29567779Y-32416842D01*
X29496600Y-32431000D01*
X29126600Y-32431000D01*
X29055421Y-32416842D01*
X28995078Y-32376522D01*
X28954758Y-32316179D01*
X28940600Y-32245000D01*
X28940600Y-31975000D01*
X28954758Y-31903821D01*
X28995078Y-31843478D01*
X29055421Y-31803158D01*
X29126600Y-31789000D01*
X29496600Y-31789000D01*
X29567779Y-31803158D01*
G37*
G36*
X31980779Y-31803158D02*
G01*
X32041122Y-31843478D01*
X32081442Y-31903821D01*
X32095600Y-31975000D01*
X32095600Y-32245000D01*
X32081442Y-32316179D01*
X32041122Y-32376522D01*
X31980779Y-32416842D01*
X31909600Y-32431000D01*
X31539600Y-32431000D01*
X31468421Y-32416842D01*
X31408078Y-32376522D01*
X31367758Y-32316179D01*
X31353600Y-32245000D01*
X31353600Y-31975000D01*
X31367758Y-31903821D01*
X31408078Y-31843478D01*
X31468421Y-31803158D01*
X31539600Y-31789000D01*
X31909600Y-31789000D01*
X31980779Y-31803158D01*
G37*
G36*
X4167779Y-30783158D02*
G01*
X4228122Y-30823478D01*
X4268442Y-30883821D01*
X4282600Y-30955000D01*
X4282600Y-31225000D01*
X4268442Y-31296179D01*
X4228122Y-31356522D01*
X4167779Y-31396842D01*
X4096600Y-31411000D01*
X3726600Y-31411000D01*
X3655421Y-31396842D01*
X3595078Y-31356522D01*
X3554758Y-31296179D01*
X3540600Y-31225000D01*
X3540600Y-30955000D01*
X3554758Y-30883821D01*
X3595078Y-30823478D01*
X3655421Y-30783158D01*
X3726600Y-30769000D01*
X4096600Y-30769000D01*
X4167779Y-30783158D01*
G37*
G36*
X5430979Y-30783158D02*
G01*
X5491322Y-30823478D01*
X5531642Y-30883821D01*
X5545800Y-30955000D01*
X5545800Y-31225000D01*
X5531642Y-31296179D01*
X5491322Y-31356522D01*
X5430979Y-31396842D01*
X5359800Y-31411000D01*
X4989800Y-31411000D01*
X4918621Y-31396842D01*
X4858278Y-31356522D01*
X4817958Y-31296179D01*
X4803800Y-31225000D01*
X4803800Y-30955000D01*
X4817958Y-30883821D01*
X4858278Y-30823478D01*
X4918621Y-30783158D01*
X4989800Y-30769000D01*
X5359800Y-30769000D01*
X5430979Y-30783158D01*
G37*
G36*
X6694279Y-30783158D02*
G01*
X6754622Y-30823478D01*
X6794942Y-30883821D01*
X6809100Y-30955000D01*
X6809100Y-31225000D01*
X6794942Y-31296179D01*
X6754622Y-31356522D01*
X6694279Y-31396842D01*
X6623100Y-31411000D01*
X6253100Y-31411000D01*
X6181921Y-31396842D01*
X6121578Y-31356522D01*
X6081258Y-31296179D01*
X6067100Y-31225000D01*
X6067100Y-30955000D01*
X6081258Y-30883821D01*
X6121578Y-30823478D01*
X6181921Y-30783158D01*
X6253100Y-30769000D01*
X6623100Y-30769000D01*
X6694279Y-30783158D01*
G37*
G36*
X7957479Y-30783158D02*
G01*
X8017822Y-30823478D01*
X8058142Y-30883821D01*
X8072300Y-30955000D01*
X8072300Y-31225000D01*
X8058142Y-31296179D01*
X8017822Y-31356522D01*
X7957479Y-31396842D01*
X7886300Y-31411000D01*
X7516300Y-31411000D01*
X7445121Y-31396842D01*
X7384778Y-31356522D01*
X7344458Y-31296179D01*
X7330300Y-31225000D01*
X7330300Y-30955000D01*
X7344458Y-30883821D01*
X7384778Y-30823478D01*
X7445121Y-30783158D01*
X7516300Y-30769000D01*
X7886300Y-30769000D01*
X7957479Y-30783158D01*
G37*
G36*
X9220679Y-30783158D02*
G01*
X9281022Y-30823478D01*
X9321342Y-30883821D01*
X9335500Y-30955000D01*
X9335500Y-31225000D01*
X9321342Y-31296179D01*
X9281022Y-31356522D01*
X9220679Y-31396842D01*
X9149500Y-31411000D01*
X8779500Y-31411000D01*
X8708321Y-31396842D01*
X8647978Y-31356522D01*
X8607658Y-31296179D01*
X8593500Y-31225000D01*
X8593500Y-30955000D01*
X8607658Y-30883821D01*
X8647978Y-30823478D01*
X8708321Y-30783158D01*
X8779500Y-30769000D01*
X9149500Y-30769000D01*
X9220679Y-30783158D01*
G37*
G36*
X10483879Y-30783158D02*
G01*
X10544222Y-30823478D01*
X10584542Y-30883821D01*
X10598700Y-30955000D01*
X10598700Y-31225000D01*
X10584542Y-31296179D01*
X10544222Y-31356522D01*
X10483879Y-31396842D01*
X10412700Y-31411000D01*
X10042700Y-31411000D01*
X9971521Y-31396842D01*
X9911178Y-31356522D01*
X9870858Y-31296179D01*
X9856700Y-31225000D01*
X9856700Y-30955000D01*
X9870858Y-30883821D01*
X9911178Y-30823478D01*
X9971521Y-30783158D01*
X10042700Y-30769000D01*
X10412700Y-30769000D01*
X10483879Y-30783158D01*
G37*
G36*
X11747179Y-30783158D02*
G01*
X11807522Y-30823478D01*
X11847842Y-30883821D01*
X11862000Y-30955000D01*
X11862000Y-31225000D01*
X11847842Y-31296179D01*
X11807522Y-31356522D01*
X11747179Y-31396842D01*
X11676000Y-31411000D01*
X11306000Y-31411000D01*
X11234821Y-31396842D01*
X11174478Y-31356522D01*
X11134158Y-31296179D01*
X11120000Y-31225000D01*
X11120000Y-30955000D01*
X11134158Y-30883821D01*
X11174478Y-30823478D01*
X11234821Y-30783158D01*
X11306000Y-30769000D01*
X11676000Y-30769000D01*
X11747179Y-30783158D01*
G37*
G36*
X13010379Y-30783158D02*
G01*
X13070722Y-30823478D01*
X13111042Y-30883821D01*
X13125200Y-30955000D01*
X13125200Y-31225000D01*
X13111042Y-31296179D01*
X13070722Y-31356522D01*
X13010379Y-31396842D01*
X12939200Y-31411000D01*
X12569200Y-31411000D01*
X12498021Y-31396842D01*
X12437678Y-31356522D01*
X12397358Y-31296179D01*
X12383200Y-31225000D01*
X12383200Y-30955000D01*
X12397358Y-30883821D01*
X12437678Y-30823478D01*
X12498021Y-30783158D01*
X12569200Y-30769000D01*
X12939200Y-30769000D01*
X13010379Y-30783158D01*
G37*
G36*
X14273579Y-30783158D02*
G01*
X14333922Y-30823478D01*
X14374242Y-30883821D01*
X14388400Y-30955000D01*
X14388400Y-31225000D01*
X14374242Y-31296179D01*
X14333922Y-31356522D01*
X14273579Y-31396842D01*
X14202400Y-31411000D01*
X13832400Y-31411000D01*
X13761221Y-31396842D01*
X13700878Y-31356522D01*
X13660558Y-31296179D01*
X13646400Y-31225000D01*
X13646400Y-30955000D01*
X13660558Y-30883821D01*
X13700878Y-30823478D01*
X13761221Y-30783158D01*
X13832400Y-30769000D01*
X14202400Y-30769000D01*
X14273579Y-30783158D01*
G37*
G36*
X15536779Y-30783158D02*
G01*
X15597122Y-30823478D01*
X15637442Y-30883821D01*
X15651600Y-30955000D01*
X15651600Y-31225000D01*
X15637442Y-31296179D01*
X15597122Y-31356522D01*
X15536779Y-31396842D01*
X15465600Y-31411000D01*
X15095600Y-31411000D01*
X15024421Y-31396842D01*
X14964078Y-31356522D01*
X14923758Y-31296179D01*
X14909600Y-31225000D01*
X14909600Y-30955000D01*
X14923758Y-30883821D01*
X14964078Y-30823478D01*
X15024421Y-30783158D01*
X15095600Y-30769000D01*
X15465600Y-30769000D01*
X15536779Y-30783158D01*
G37*
G36*
X16800079Y-30783158D02*
G01*
X16860422Y-30823478D01*
X16900742Y-30883821D01*
X16914900Y-30955000D01*
X16914900Y-31225000D01*
X16900742Y-31296179D01*
X16860422Y-31356522D01*
X16800079Y-31396842D01*
X16728900Y-31411000D01*
X16358900Y-31411000D01*
X16287721Y-31396842D01*
X16227378Y-31356522D01*
X16187058Y-31296179D01*
X16172900Y-31225000D01*
X16172900Y-30955000D01*
X16187058Y-30883821D01*
X16227378Y-30823478D01*
X16287721Y-30783158D01*
X16358900Y-30769000D01*
X16728900Y-30769000D01*
X16800079Y-30783158D01*
G37*
G36*
X18063279Y-30783158D02*
G01*
X18123622Y-30823478D01*
X18163942Y-30883821D01*
X18178100Y-30955000D01*
X18178100Y-31225000D01*
X18163942Y-31296179D01*
X18123622Y-31356522D01*
X18063279Y-31396842D01*
X17992100Y-31411000D01*
X17622100Y-31411000D01*
X17550921Y-31396842D01*
X17490578Y-31356522D01*
X17450258Y-31296179D01*
X17436100Y-31225000D01*
X17436100Y-30955000D01*
X17450258Y-30883821D01*
X17490578Y-30823478D01*
X17550921Y-30783158D01*
X17622100Y-30769000D01*
X17992100Y-30769000D01*
X18063279Y-30783158D01*
G37*
G36*
X19326479Y-30783158D02*
G01*
X19386822Y-30823478D01*
X19427142Y-30883821D01*
X19441300Y-30955000D01*
X19441300Y-31225000D01*
X19427142Y-31296179D01*
X19386822Y-31356522D01*
X19326479Y-31396842D01*
X19255300Y-31411000D01*
X18885300Y-31411000D01*
X18814121Y-31396842D01*
X18753778Y-31356522D01*
X18713458Y-31296179D01*
X18699300Y-31225000D01*
X18699300Y-30955000D01*
X18713458Y-30883821D01*
X18753778Y-30823478D01*
X18814121Y-30783158D01*
X18885300Y-30769000D01*
X19255300Y-30769000D01*
X19326479Y-30783158D01*
G37*
G36*
X20589679Y-30783158D02*
G01*
X20650022Y-30823478D01*
X20690342Y-30883821D01*
X20704500Y-30955000D01*
X20704500Y-31225000D01*
X20690342Y-31296179D01*
X20650022Y-31356522D01*
X20589679Y-31396842D01*
X20518500Y-31411000D01*
X20148500Y-31411000D01*
X20077321Y-31396842D01*
X20016978Y-31356522D01*
X19976658Y-31296179D01*
X19962500Y-31225000D01*
X19962500Y-30955000D01*
X19976658Y-30883821D01*
X20016978Y-30823478D01*
X20077321Y-30783158D01*
X20148500Y-30769000D01*
X20518500Y-30769000D01*
X20589679Y-30783158D01*
G37*
G36*
X21852979Y-30783158D02*
G01*
X21913322Y-30823478D01*
X21953642Y-30883821D01*
X21967800Y-30955000D01*
X21967800Y-31225000D01*
X21953642Y-31296179D01*
X21913322Y-31356522D01*
X21852979Y-31396842D01*
X21781800Y-31411000D01*
X21411800Y-31411000D01*
X21340621Y-31396842D01*
X21280278Y-31356522D01*
X21239958Y-31296179D01*
X21225800Y-31225000D01*
X21225800Y-30955000D01*
X21239958Y-30883821D01*
X21280278Y-30823478D01*
X21340621Y-30783158D01*
X21411800Y-30769000D01*
X21781800Y-30769000D01*
X21852979Y-30783158D01*
G37*
G36*
X23116179Y-30783158D02*
G01*
X23176522Y-30823478D01*
X23216842Y-30883821D01*
X23231000Y-30955000D01*
X23231000Y-31225000D01*
X23216842Y-31296179D01*
X23176522Y-31356522D01*
X23116179Y-31396842D01*
X23045000Y-31411000D01*
X22675000Y-31411000D01*
X22603821Y-31396842D01*
X22543478Y-31356522D01*
X22503158Y-31296179D01*
X22489000Y-31225000D01*
X22489000Y-30955000D01*
X22503158Y-30883821D01*
X22543478Y-30823478D01*
X22603821Y-30783158D01*
X22675000Y-30769000D01*
X23045000Y-30769000D01*
X23116179Y-30783158D01*
G37*
G36*
X27027779Y-30783158D02*
G01*
X27088122Y-30823478D01*
X27128442Y-30883821D01*
X27142600Y-30955000D01*
X27142600Y-31225000D01*
X27128442Y-31296179D01*
X27088122Y-31356522D01*
X27027779Y-31396842D01*
X26956600Y-31411000D01*
X26586600Y-31411000D01*
X26515421Y-31396842D01*
X26455078Y-31356522D01*
X26414758Y-31296179D01*
X26400600Y-31225000D01*
X26400600Y-30955000D01*
X26414758Y-30883821D01*
X26455078Y-30823478D01*
X26515421Y-30783158D01*
X26586600Y-30769000D01*
X26956600Y-30769000D01*
X27027779Y-30783158D01*
G37*
G36*
X29567779Y-30783158D02*
G01*
X29628122Y-30823478D01*
X29668442Y-30883821D01*
X29682600Y-30955000D01*
X29682600Y-31225000D01*
X29668442Y-31296179D01*
X29628122Y-31356522D01*
X29567779Y-31396842D01*
X29496600Y-31411000D01*
X29126600Y-31411000D01*
X29055421Y-31396842D01*
X28995078Y-31356522D01*
X28954758Y-31296179D01*
X28940600Y-31225000D01*
X28940600Y-30955000D01*
X28954758Y-30883821D01*
X28995078Y-30823478D01*
X29055421Y-30783158D01*
X29126600Y-30769000D01*
X29496600Y-30769000D01*
X29567779Y-30783158D01*
G37*
G36*
X31980779Y-30783158D02*
G01*
X32041122Y-30823478D01*
X32081442Y-30883821D01*
X32095600Y-30955000D01*
X32095600Y-31225000D01*
X32081442Y-31296179D01*
X32041122Y-31356522D01*
X31980779Y-31396842D01*
X31909600Y-31411000D01*
X31539600Y-31411000D01*
X31468421Y-31396842D01*
X31408078Y-31356522D01*
X31367758Y-31296179D01*
X31353600Y-31225000D01*
X31353600Y-30955000D01*
X31367758Y-30883821D01*
X31408078Y-30823478D01*
X31468421Y-30783158D01*
X31539600Y-30769000D01*
X31909600Y-30769000D01*
X31980779Y-30783158D01*
G37*
G36*
X5342973Y-27130651D02*
G01*
X5505500Y-27203012D01*
X5649430Y-27307584D01*
X5768473Y-27439795D01*
X5857427Y-27593867D01*
X5912404Y-27763067D01*
X5931000Y-27940000D01*
X5912404Y-28116933D01*
X5857427Y-28286133D01*
X5768473Y-28440205D01*
X5649430Y-28572416D01*
X5505500Y-28676988D01*
X5342973Y-28749349D01*
X5168954Y-28786338D01*
X4991046Y-28786338D01*
X4817027Y-28749349D01*
X4654500Y-28676988D01*
X4510570Y-28572416D01*
X4391527Y-28440205D01*
X4302573Y-28286133D01*
X4247596Y-28116933D01*
X4229000Y-27940000D01*
X4247596Y-27763067D01*
X4302573Y-27593867D01*
X4391527Y-27439795D01*
X4510570Y-27307584D01*
X4654500Y-27203012D01*
X4817027Y-27130651D01*
X4991046Y-27093662D01*
X5168954Y-27093662D01*
X5342973Y-27130651D01*
G37*
G36*
X7882973Y-27130651D02*
G01*
X8045500Y-27203012D01*
X8189430Y-27307584D01*
X8308473Y-27439795D01*
X8397427Y-27593867D01*
X8452404Y-27763067D01*
X8471000Y-27940000D01*
X8452404Y-28116933D01*
X8397427Y-28286133D01*
X8308473Y-28440205D01*
X8189430Y-28572416D01*
X8045500Y-28676988D01*
X7882973Y-28749349D01*
X7708954Y-28786338D01*
X7531046Y-28786338D01*
X7357027Y-28749349D01*
X7194500Y-28676988D01*
X7050570Y-28572416D01*
X6931527Y-28440205D01*
X6842573Y-28286133D01*
X6787596Y-28116933D01*
X6769000Y-27940000D01*
X6787596Y-27763067D01*
X6842573Y-27593867D01*
X6931527Y-27439795D01*
X7050570Y-27307584D01*
X7194500Y-27203012D01*
X7357027Y-27130651D01*
X7531046Y-27093662D01*
X7708954Y-27093662D01*
X7882973Y-27130651D01*
G37*
G36*
X10422973Y-27130651D02*
G01*
X10585500Y-27203012D01*
X10729430Y-27307584D01*
X10848473Y-27439795D01*
X10937427Y-27593867D01*
X10992404Y-27763067D01*
X11011000Y-27940000D01*
X10992404Y-28116933D01*
X10937427Y-28286133D01*
X10848473Y-28440205D01*
X10729430Y-28572416D01*
X10585500Y-28676988D01*
X10422973Y-28749349D01*
X10248954Y-28786338D01*
X10071046Y-28786338D01*
X9897027Y-28749349D01*
X9734500Y-28676988D01*
X9590570Y-28572416D01*
X9471527Y-28440205D01*
X9382573Y-28286133D01*
X9327596Y-28116933D01*
X9309000Y-27940000D01*
X9327596Y-27763067D01*
X9382573Y-27593867D01*
X9471527Y-27439795D01*
X9590570Y-27307584D01*
X9734500Y-27203012D01*
X9897027Y-27130651D01*
X10071046Y-27093662D01*
X10248954Y-27093662D01*
X10422973Y-27130651D01*
G37*
G36*
X12962973Y-27130651D02*
G01*
X13125500Y-27203012D01*
X13269430Y-27307584D01*
X13388473Y-27439795D01*
X13477427Y-27593867D01*
X13532404Y-27763067D01*
X13551000Y-27940000D01*
X13532404Y-28116933D01*
X13477427Y-28286133D01*
X13388473Y-28440205D01*
X13269430Y-28572416D01*
X13125500Y-28676988D01*
X12962973Y-28749349D01*
X12788954Y-28786338D01*
X12611046Y-28786338D01*
X12437027Y-28749349D01*
X12274500Y-28676988D01*
X12130570Y-28572416D01*
X12011527Y-28440205D01*
X11922573Y-28286133D01*
X11867596Y-28116933D01*
X11849000Y-27940000D01*
X11867596Y-27763067D01*
X11922573Y-27593867D01*
X12011527Y-27439795D01*
X12130570Y-27307584D01*
X12274500Y-27203012D01*
X12437027Y-27130651D01*
X12611046Y-27093662D01*
X12788954Y-27093662D01*
X12962973Y-27130651D01*
G37*
G36*
X15502973Y-27130651D02*
G01*
X15665500Y-27203012D01*
X15809430Y-27307584D01*
X15928473Y-27439795D01*
X16017427Y-27593867D01*
X16072404Y-27763067D01*
X16091000Y-27940000D01*
X16072404Y-28116933D01*
X16017427Y-28286133D01*
X15928473Y-28440205D01*
X15809430Y-28572416D01*
X15665500Y-28676988D01*
X15502973Y-28749349D01*
X15328954Y-28786338D01*
X15151046Y-28786338D01*
X14977027Y-28749349D01*
X14814500Y-28676988D01*
X14670570Y-28572416D01*
X14551527Y-28440205D01*
X14462573Y-28286133D01*
X14407596Y-28116933D01*
X14389000Y-27940000D01*
X14407596Y-27763067D01*
X14462573Y-27593867D01*
X14551527Y-27439795D01*
X14670570Y-27307584D01*
X14814500Y-27203012D01*
X14977027Y-27130651D01*
X15151046Y-27093662D01*
X15328954Y-27093662D01*
X15502973Y-27130651D01*
G37*
G36*
X18042973Y-27130651D02*
G01*
X18205500Y-27203012D01*
X18349430Y-27307584D01*
X18468473Y-27439795D01*
X18557427Y-27593867D01*
X18612404Y-27763067D01*
X18631000Y-27940000D01*
X18612404Y-28116933D01*
X18557427Y-28286133D01*
X18468473Y-28440205D01*
X18349430Y-28572416D01*
X18205500Y-28676988D01*
X18042973Y-28749349D01*
X17868954Y-28786338D01*
X17691046Y-28786338D01*
X17517027Y-28749349D01*
X17354500Y-28676988D01*
X17210570Y-28572416D01*
X17091527Y-28440205D01*
X17002573Y-28286133D01*
X16947596Y-28116933D01*
X16929000Y-27940000D01*
X16947596Y-27763067D01*
X17002573Y-27593867D01*
X17091527Y-27439795D01*
X17210570Y-27307584D01*
X17354500Y-27203012D01*
X17517027Y-27130651D01*
X17691046Y-27093662D01*
X17868954Y-27093662D01*
X18042973Y-27130651D01*
G37*
G36*
X20582973Y-27130651D02*
G01*
X20745500Y-27203012D01*
X20889430Y-27307584D01*
X21008473Y-27439795D01*
X21097427Y-27593867D01*
X21152404Y-27763067D01*
X21171000Y-27940000D01*
X21152404Y-28116933D01*
X21097427Y-28286133D01*
X21008473Y-28440205D01*
X20889430Y-28572416D01*
X20745500Y-28676988D01*
X20582973Y-28749349D01*
X20408954Y-28786338D01*
X20231046Y-28786338D01*
X20057027Y-28749349D01*
X19894500Y-28676988D01*
X19750570Y-28572416D01*
X19631527Y-28440205D01*
X19542573Y-28286133D01*
X19487596Y-28116933D01*
X19469000Y-27940000D01*
X19487596Y-27763067D01*
X19542573Y-27593867D01*
X19631527Y-27439795D01*
X19750570Y-27307584D01*
X19894500Y-27203012D01*
X20057027Y-27130651D01*
X20231046Y-27093662D01*
X20408954Y-27093662D01*
X20582973Y-27130651D01*
G37*
G36*
X23122973Y-27130651D02*
G01*
X23285500Y-27203012D01*
X23429430Y-27307584D01*
X23548473Y-27439795D01*
X23637427Y-27593867D01*
X23692404Y-27763067D01*
X23711000Y-27940000D01*
X23692404Y-28116933D01*
X23637427Y-28286133D01*
X23548473Y-28440205D01*
X23429430Y-28572416D01*
X23285500Y-28676988D01*
X23122973Y-28749349D01*
X22948954Y-28786338D01*
X22771046Y-28786338D01*
X22597027Y-28749349D01*
X22434500Y-28676988D01*
X22290570Y-28572416D01*
X22171527Y-28440205D01*
X22082573Y-28286133D01*
X22027596Y-28116933D01*
X22009000Y-27940000D01*
X22027596Y-27763067D01*
X22082573Y-27593867D01*
X22171527Y-27439795D01*
X22290570Y-27307584D01*
X22434500Y-27203012D01*
X22597027Y-27130651D01*
X22771046Y-27093662D01*
X22948954Y-27093662D01*
X23122973Y-27130651D01*
G37*
G36*
X28202973Y-27130651D02*
G01*
X28365500Y-27203012D01*
X28509430Y-27307584D01*
X28628473Y-27439795D01*
X28717427Y-27593867D01*
X28772404Y-27763067D01*
X28791000Y-27940000D01*
X28772404Y-28116933D01*
X28717427Y-28286133D01*
X28628473Y-28440205D01*
X28509430Y-28572416D01*
X28365500Y-28676988D01*
X28202973Y-28749349D01*
X28028954Y-28786338D01*
X27851046Y-28786338D01*
X27677027Y-28749349D01*
X27514500Y-28676988D01*
X27370570Y-28572416D01*
X27251527Y-28440205D01*
X27162573Y-28286133D01*
X27107596Y-28116933D01*
X27089000Y-27940000D01*
X27107596Y-27763067D01*
X27162573Y-27593867D01*
X27251527Y-27439795D01*
X27370570Y-27307584D01*
X27514500Y-27203012D01*
X27677027Y-27130651D01*
X27851046Y-27093662D01*
X28028954Y-27093662D01*
X28202973Y-27130651D01*
G37*
G36*
X30742973Y-27130651D02*
G01*
X30905500Y-27203012D01*
X31049430Y-27307584D01*
X31168473Y-27439795D01*
X31257427Y-27593867D01*
X31312404Y-27763067D01*
X31331000Y-27940000D01*
X31312404Y-28116933D01*
X31257427Y-28286133D01*
X31168473Y-28440205D01*
X31049430Y-28572416D01*
X30905500Y-28676988D01*
X30742973Y-28749349D01*
X30568954Y-28786338D01*
X30391046Y-28786338D01*
X30217027Y-28749349D01*
X30054500Y-28676988D01*
X29910570Y-28572416D01*
X29791527Y-28440205D01*
X29702573Y-28286133D01*
X29647596Y-28116933D01*
X29629000Y-27940000D01*
X29647596Y-27763067D01*
X29702573Y-27593867D01*
X29791527Y-27439795D01*
X29910570Y-27307584D01*
X30054500Y-27203012D01*
X30217027Y-27130651D01*
X30391046Y-27093662D01*
X30568954Y-27093662D01*
X30742973Y-27130651D01*
G37*
G36*
X33282973Y-27130651D02*
G01*
X33445500Y-27203012D01*
X33589430Y-27307584D01*
X33708473Y-27439795D01*
X33797427Y-27593867D01*
X33852404Y-27763067D01*
X33871000Y-27940000D01*
X33852404Y-28116933D01*
X33797427Y-28286133D01*
X33708473Y-28440205D01*
X33589430Y-28572416D01*
X33445500Y-28676988D01*
X33282973Y-28749349D01*
X33108954Y-28786338D01*
X32931046Y-28786338D01*
X32757027Y-28749349D01*
X32594500Y-28676988D01*
X32450570Y-28572416D01*
X32331527Y-28440205D01*
X32242573Y-28286133D01*
X32187596Y-28116933D01*
X32169000Y-27940000D01*
X32187596Y-27763067D01*
X32242573Y-27593867D01*
X32331527Y-27439795D01*
X32450570Y-27307584D01*
X32594500Y-27203012D01*
X32757027Y-27130651D01*
X32931046Y-27093662D01*
X33108954Y-27093662D01*
X33282973Y-27130651D01*
G37*
G36*
X35822973Y-27130651D02*
G01*
X35985500Y-27203012D01*
X36129430Y-27307584D01*
X36248473Y-27439795D01*
X36337427Y-27593867D01*
X36392404Y-27763067D01*
X36411000Y-27940000D01*
X36392404Y-28116933D01*
X36337427Y-28286133D01*
X36248473Y-28440205D01*
X36129430Y-28572416D01*
X35985500Y-28676988D01*
X35822973Y-28749349D01*
X35648954Y-28786338D01*
X35471046Y-28786338D01*
X35297027Y-28749349D01*
X35134500Y-28676988D01*
X34990570Y-28572416D01*
X34871527Y-28440205D01*
X34782573Y-28286133D01*
X34727596Y-28116933D01*
X34709000Y-27940000D01*
X34727596Y-27763067D01*
X34782573Y-27593867D01*
X34871527Y-27439795D01*
X34990570Y-27307584D01*
X35134500Y-27203012D01*
X35297027Y-27130651D01*
X35471046Y-27093662D01*
X35648954Y-27093662D01*
X35822973Y-27130651D01*
G37*
G36*
X38362973Y-27130651D02*
G01*
X38525500Y-27203012D01*
X38669430Y-27307584D01*
X38788473Y-27439795D01*
X38877427Y-27593867D01*
X38932404Y-27763067D01*
X38951000Y-27940000D01*
X38932404Y-28116933D01*
X38877427Y-28286133D01*
X38788473Y-28440205D01*
X38669430Y-28572416D01*
X38525500Y-28676988D01*
X38362973Y-28749349D01*
X38188954Y-28786338D01*
X38011046Y-28786338D01*
X37837027Y-28749349D01*
X37674500Y-28676988D01*
X37530570Y-28572416D01*
X37411527Y-28440205D01*
X37322573Y-28286133D01*
X37267596Y-28116933D01*
X37249000Y-27940000D01*
X37267596Y-27763067D01*
X37322573Y-27593867D01*
X37411527Y-27439795D01*
X37530570Y-27307584D01*
X37674500Y-27203012D01*
X37837027Y-27130651D01*
X38011046Y-27093662D01*
X38188954Y-27093662D01*
X38362973Y-27130651D01*
G37*
G36*
X40902973Y-27130651D02*
G01*
X41065500Y-27203012D01*
X41209430Y-27307584D01*
X41328473Y-27439795D01*
X41417427Y-27593867D01*
X41472404Y-27763067D01*
X41491000Y-27940000D01*
X41472404Y-28116933D01*
X41417427Y-28286133D01*
X41328473Y-28440205D01*
X41209430Y-28572416D01*
X41065500Y-28676988D01*
X40902973Y-28749349D01*
X40728954Y-28786338D01*
X40551046Y-28786338D01*
X40377027Y-28749349D01*
X40214500Y-28676988D01*
X40070570Y-28572416D01*
X39951527Y-28440205D01*
X39862573Y-28286133D01*
X39807596Y-28116933D01*
X39789000Y-27940000D01*
X39807596Y-27763067D01*
X39862573Y-27593867D01*
X39951527Y-27439795D01*
X40070570Y-27307584D01*
X40214500Y-27203012D01*
X40377027Y-27130651D01*
X40551046Y-27093662D01*
X40728954Y-27093662D01*
X40902973Y-27130651D01*
G37*
G36*
X43442973Y-27130651D02*
G01*
X43605500Y-27203012D01*
X43749430Y-27307584D01*
X43868473Y-27439795D01*
X43957427Y-27593867D01*
X44012404Y-27763067D01*
X44031000Y-27940000D01*
X44012404Y-28116933D01*
X43957427Y-28286133D01*
X43868473Y-28440205D01*
X43749430Y-28572416D01*
X43605500Y-28676988D01*
X43442973Y-28749349D01*
X43268954Y-28786338D01*
X43091046Y-28786338D01*
X42917027Y-28749349D01*
X42754500Y-28676988D01*
X42610570Y-28572416D01*
X42491527Y-28440205D01*
X42402573Y-28286133D01*
X42347596Y-28116933D01*
X42329000Y-27940000D01*
X42347596Y-27763067D01*
X42402573Y-27593867D01*
X42491527Y-27439795D01*
X42610570Y-27307584D01*
X42754500Y-27203012D01*
X42917027Y-27130651D01*
X43091046Y-27093662D01*
X43268954Y-27093662D01*
X43442973Y-27130651D01*
G37*
G36*
X45982973Y-27130651D02*
G01*
X46145500Y-27203012D01*
X46289430Y-27307584D01*
X46408473Y-27439795D01*
X46497427Y-27593867D01*
X46552404Y-27763067D01*
X46571000Y-27940000D01*
X46552404Y-28116933D01*
X46497427Y-28286133D01*
X46408473Y-28440205D01*
X46289430Y-28572416D01*
X46145500Y-28676988D01*
X45982973Y-28749349D01*
X45808954Y-28786338D01*
X45631046Y-28786338D01*
X45457027Y-28749349D01*
X45294500Y-28676988D01*
X45150570Y-28572416D01*
X45031527Y-28440205D01*
X44942573Y-28286133D01*
X44887596Y-28116933D01*
X44869000Y-27940000D01*
X44887596Y-27763067D01*
X44942573Y-27593867D01*
X45031527Y-27439795D01*
X45150570Y-27307584D01*
X45294500Y-27203012D01*
X45457027Y-27130651D01*
X45631046Y-27093662D01*
X45808954Y-27093662D01*
X45982973Y-27130651D01*
G37*
G36*
X54976714Y-23276595D02*
G01*
X54981445Y-23278684D01*
X54984611Y-23279101D01*
X55024242Y-23297581D01*
X55077906Y-23321276D01*
X55156124Y-23399494D01*
X55179828Y-23453179D01*
X55198298Y-23492788D01*
X55198714Y-23495951D01*
X55200805Y-23500686D01*
X55208800Y-23569600D01*
X55208800Y-24069600D01*
X55200805Y-24138514D01*
X55198714Y-24143248D01*
X55198298Y-24146411D01*
X55179836Y-24186002D01*
X55156124Y-24239706D01*
X55077906Y-24317924D01*
X55024202Y-24341636D01*
X54984611Y-24360098D01*
X54981448Y-24360514D01*
X54976714Y-24362605D01*
X54907800Y-24370600D01*
X53957800Y-24370600D01*
X53888886Y-24362605D01*
X53884151Y-24360514D01*
X53880988Y-24360098D01*
X53841379Y-24341628D01*
X53787694Y-24317924D01*
X53709476Y-24239706D01*
X53685781Y-24186042D01*
X53667301Y-24146411D01*
X53666884Y-24143245D01*
X53664795Y-24138514D01*
X53656800Y-24069600D01*
X53656800Y-23569600D01*
X53664795Y-23500686D01*
X53666884Y-23495954D01*
X53667301Y-23492788D01*
X53685789Y-23453138D01*
X53709476Y-23399494D01*
X53787694Y-23321276D01*
X53841338Y-23297589D01*
X53880988Y-23279101D01*
X53884154Y-23278684D01*
X53888886Y-23276595D01*
X53957800Y-23268600D01*
X54907800Y-23268600D01*
X54976714Y-23276595D01*
G37*
G36*
X66379517Y-22152882D02*
G01*
X66396062Y-22163938D01*
X66407118Y-22180483D01*
X66411000Y-22200000D01*
X66411000Y-24200000D01*
X66407118Y-24219517D01*
X66396062Y-24236062D01*
X66379517Y-24247118D01*
X66360000Y-24251000D01*
X62560000Y-24251000D01*
X62540483Y-24247118D01*
X62523938Y-24236062D01*
X62512882Y-24219517D01*
X62509000Y-24200000D01*
X62509000Y-22200000D01*
X62512882Y-22180483D01*
X62523938Y-22163938D01*
X62540483Y-22152882D01*
X62560000Y-22149000D01*
X66360000Y-22149000D01*
X66379517Y-22152882D01*
G37*
G36*
X54976714Y-21376595D02*
G01*
X54981445Y-21378684D01*
X54984611Y-21379101D01*
X55024242Y-21397581D01*
X55077906Y-21421276D01*
X55156124Y-21499494D01*
X55179828Y-21553179D01*
X55198298Y-21592788D01*
X55198714Y-21595951D01*
X55200805Y-21600686D01*
X55208800Y-21669600D01*
X55208800Y-22169600D01*
X55200805Y-22238514D01*
X55198714Y-22243248D01*
X55198298Y-22246411D01*
X55179836Y-22286002D01*
X55156124Y-22339706D01*
X55077906Y-22417924D01*
X55024202Y-22441636D01*
X54984611Y-22460098D01*
X54981448Y-22460514D01*
X54976714Y-22462605D01*
X54907800Y-22470600D01*
X53957800Y-22470600D01*
X53888886Y-22462605D01*
X53884151Y-22460514D01*
X53880988Y-22460098D01*
X53841379Y-22441628D01*
X53787694Y-22417924D01*
X53709476Y-22339706D01*
X53685781Y-22286042D01*
X53667301Y-22246411D01*
X53666884Y-22243245D01*
X53664795Y-22238514D01*
X53656800Y-22169600D01*
X53656800Y-21669600D01*
X53664795Y-21600686D01*
X53666884Y-21595954D01*
X53667301Y-21592788D01*
X53685789Y-21553138D01*
X53709476Y-21499494D01*
X53787694Y-21421276D01*
X53841338Y-21397589D01*
X53880988Y-21379101D01*
X53884154Y-21378684D01*
X53888886Y-21376595D01*
X53957800Y-21368600D01*
X54907800Y-21368600D01*
X54976714Y-21376595D01*
G37*
G36*
X23679517Y-19472882D02*
G01*
X23696062Y-19483938D01*
X23707118Y-19500483D01*
X23711000Y-19520000D01*
X23711000Y-21120000D01*
X23707118Y-21139517D01*
X23696062Y-21156062D01*
X23679517Y-21167118D01*
X23660000Y-21171000D01*
X22060000Y-21171000D01*
X22040483Y-21167118D01*
X22023938Y-21156062D01*
X22012882Y-21139517D01*
X22009000Y-21120000D01*
X22009000Y-19520000D01*
X22012882Y-19500483D01*
X22023938Y-19483938D01*
X22040483Y-19472882D01*
X22060000Y-19469000D01*
X23660000Y-19469000D01*
X23679517Y-19472882D01*
G37*
G36*
X46539517Y-19472882D02*
G01*
X46556062Y-19483938D01*
X46567118Y-19500483D01*
X46571000Y-19520000D01*
X46571000Y-21120000D01*
X46567118Y-21139517D01*
X46556062Y-21156062D01*
X46539517Y-21167118D01*
X46520000Y-21171000D01*
X44920000Y-21171000D01*
X44900483Y-21167118D01*
X44883938Y-21156062D01*
X44872882Y-21139517D01*
X44869000Y-21120000D01*
X44869000Y-19520000D01*
X44872882Y-19500483D01*
X44883938Y-19483938D01*
X44900483Y-19472882D01*
X44920000Y-19469000D01*
X46520000Y-19469000D01*
X46539517Y-19472882D01*
G37*
G36*
X5342973Y-19510651D02*
G01*
X5505500Y-19583012D01*
X5649430Y-19687584D01*
X5768473Y-19819795D01*
X5857427Y-19973867D01*
X5912404Y-20143067D01*
X5931000Y-20320000D01*
X5912404Y-20496933D01*
X5857427Y-20666133D01*
X5768473Y-20820205D01*
X5649430Y-20952416D01*
X5505500Y-21056988D01*
X5342973Y-21129349D01*
X5168954Y-21166338D01*
X4991046Y-21166338D01*
X4817027Y-21129349D01*
X4654500Y-21056988D01*
X4510570Y-20952416D01*
X4391527Y-20820205D01*
X4302573Y-20666133D01*
X4247596Y-20496933D01*
X4229000Y-20320000D01*
X4247596Y-20143067D01*
X4302573Y-19973867D01*
X4391527Y-19819795D01*
X4510570Y-19687584D01*
X4654500Y-19583012D01*
X4817027Y-19510651D01*
X4991046Y-19473662D01*
X5168954Y-19473662D01*
X5342973Y-19510651D01*
G37*
G36*
X7882973Y-19510651D02*
G01*
X8045500Y-19583012D01*
X8189430Y-19687584D01*
X8308473Y-19819795D01*
X8397427Y-19973867D01*
X8452404Y-20143067D01*
X8471000Y-20320000D01*
X8452404Y-20496933D01*
X8397427Y-20666133D01*
X8308473Y-20820205D01*
X8189430Y-20952416D01*
X8045500Y-21056988D01*
X7882973Y-21129349D01*
X7708954Y-21166338D01*
X7531046Y-21166338D01*
X7357027Y-21129349D01*
X7194500Y-21056988D01*
X7050570Y-20952416D01*
X6931527Y-20820205D01*
X6842573Y-20666133D01*
X6787596Y-20496933D01*
X6769000Y-20320000D01*
X6787596Y-20143067D01*
X6842573Y-19973867D01*
X6931527Y-19819795D01*
X7050570Y-19687584D01*
X7194500Y-19583012D01*
X7357027Y-19510651D01*
X7531046Y-19473662D01*
X7708954Y-19473662D01*
X7882973Y-19510651D01*
G37*
G36*
X10422973Y-19510651D02*
G01*
X10585500Y-19583012D01*
X10729430Y-19687584D01*
X10848473Y-19819795D01*
X10937427Y-19973867D01*
X10992404Y-20143067D01*
X11011000Y-20320000D01*
X10992404Y-20496933D01*
X10937427Y-20666133D01*
X10848473Y-20820205D01*
X10729430Y-20952416D01*
X10585500Y-21056988D01*
X10422973Y-21129349D01*
X10248954Y-21166338D01*
X10071046Y-21166338D01*
X9897027Y-21129349D01*
X9734500Y-21056988D01*
X9590570Y-20952416D01*
X9471527Y-20820205D01*
X9382573Y-20666133D01*
X9327596Y-20496933D01*
X9309000Y-20320000D01*
X9327596Y-20143067D01*
X9382573Y-19973867D01*
X9471527Y-19819795D01*
X9590570Y-19687584D01*
X9734500Y-19583012D01*
X9897027Y-19510651D01*
X10071046Y-19473662D01*
X10248954Y-19473662D01*
X10422973Y-19510651D01*
G37*
G36*
X12962973Y-19510651D02*
G01*
X13125500Y-19583012D01*
X13269430Y-19687584D01*
X13388473Y-19819795D01*
X13477427Y-19973867D01*
X13532404Y-20143067D01*
X13551000Y-20320000D01*
X13532404Y-20496933D01*
X13477427Y-20666133D01*
X13388473Y-20820205D01*
X13269430Y-20952416D01*
X13125500Y-21056988D01*
X12962973Y-21129349D01*
X12788954Y-21166338D01*
X12611046Y-21166338D01*
X12437027Y-21129349D01*
X12274500Y-21056988D01*
X12130570Y-20952416D01*
X12011527Y-20820205D01*
X11922573Y-20666133D01*
X11867596Y-20496933D01*
X11849000Y-20320000D01*
X11867596Y-20143067D01*
X11922573Y-19973867D01*
X12011527Y-19819795D01*
X12130570Y-19687584D01*
X12274500Y-19583012D01*
X12437027Y-19510651D01*
X12611046Y-19473662D01*
X12788954Y-19473662D01*
X12962973Y-19510651D01*
G37*
G36*
X15502973Y-19510651D02*
G01*
X15665500Y-19583012D01*
X15809430Y-19687584D01*
X15928473Y-19819795D01*
X16017427Y-19973867D01*
X16072404Y-20143067D01*
X16091000Y-20320000D01*
X16072404Y-20496933D01*
X16017427Y-20666133D01*
X15928473Y-20820205D01*
X15809430Y-20952416D01*
X15665500Y-21056988D01*
X15502973Y-21129349D01*
X15328954Y-21166338D01*
X15151046Y-21166338D01*
X14977027Y-21129349D01*
X14814500Y-21056988D01*
X14670570Y-20952416D01*
X14551527Y-20820205D01*
X14462573Y-20666133D01*
X14407596Y-20496933D01*
X14389000Y-20320000D01*
X14407596Y-20143067D01*
X14462573Y-19973867D01*
X14551527Y-19819795D01*
X14670570Y-19687584D01*
X14814500Y-19583012D01*
X14977027Y-19510651D01*
X15151046Y-19473662D01*
X15328954Y-19473662D01*
X15502973Y-19510651D01*
G37*
G36*
X18042973Y-19510651D02*
G01*
X18205500Y-19583012D01*
X18349430Y-19687584D01*
X18468473Y-19819795D01*
X18557427Y-19973867D01*
X18612404Y-20143067D01*
X18631000Y-20320000D01*
X18612404Y-20496933D01*
X18557427Y-20666133D01*
X18468473Y-20820205D01*
X18349430Y-20952416D01*
X18205500Y-21056988D01*
X18042973Y-21129349D01*
X17868954Y-21166338D01*
X17691046Y-21166338D01*
X17517027Y-21129349D01*
X17354500Y-21056988D01*
X17210570Y-20952416D01*
X17091527Y-20820205D01*
X17002573Y-20666133D01*
X16947596Y-20496933D01*
X16929000Y-20320000D01*
X16947596Y-20143067D01*
X17002573Y-19973867D01*
X17091527Y-19819795D01*
X17210570Y-19687584D01*
X17354500Y-19583012D01*
X17517027Y-19510651D01*
X17691046Y-19473662D01*
X17868954Y-19473662D01*
X18042973Y-19510651D01*
G37*
G36*
X20582973Y-19510651D02*
G01*
X20745500Y-19583012D01*
X20889430Y-19687584D01*
X21008473Y-19819795D01*
X21097427Y-19973867D01*
X21152404Y-20143067D01*
X21171000Y-20320000D01*
X21152404Y-20496933D01*
X21097427Y-20666133D01*
X21008473Y-20820205D01*
X20889430Y-20952416D01*
X20745500Y-21056988D01*
X20582973Y-21129349D01*
X20408954Y-21166338D01*
X20231046Y-21166338D01*
X20057027Y-21129349D01*
X19894500Y-21056988D01*
X19750570Y-20952416D01*
X19631527Y-20820205D01*
X19542573Y-20666133D01*
X19487596Y-20496933D01*
X19469000Y-20320000D01*
X19487596Y-20143067D01*
X19542573Y-19973867D01*
X19631527Y-19819795D01*
X19750570Y-19687584D01*
X19894500Y-19583012D01*
X20057027Y-19510651D01*
X20231046Y-19473662D01*
X20408954Y-19473662D01*
X20582973Y-19510651D01*
G37*
G36*
X28202973Y-19510651D02*
G01*
X28365500Y-19583012D01*
X28509430Y-19687584D01*
X28628473Y-19819795D01*
X28717427Y-19973867D01*
X28772404Y-20143067D01*
X28791000Y-20320000D01*
X28772404Y-20496933D01*
X28717427Y-20666133D01*
X28628473Y-20820205D01*
X28509430Y-20952416D01*
X28365500Y-21056988D01*
X28202973Y-21129349D01*
X28028954Y-21166338D01*
X27851046Y-21166338D01*
X27677027Y-21129349D01*
X27514500Y-21056988D01*
X27370570Y-20952416D01*
X27251527Y-20820205D01*
X27162573Y-20666133D01*
X27107596Y-20496933D01*
X27089000Y-20320000D01*
X27107596Y-20143067D01*
X27162573Y-19973867D01*
X27251527Y-19819795D01*
X27370570Y-19687584D01*
X27514500Y-19583012D01*
X27677027Y-19510651D01*
X27851046Y-19473662D01*
X28028954Y-19473662D01*
X28202973Y-19510651D01*
G37*
G36*
X30742973Y-19510651D02*
G01*
X30905500Y-19583012D01*
X31049430Y-19687584D01*
X31168473Y-19819795D01*
X31257427Y-19973867D01*
X31312404Y-20143067D01*
X31331000Y-20320000D01*
X31312404Y-20496933D01*
X31257427Y-20666133D01*
X31168473Y-20820205D01*
X31049430Y-20952416D01*
X30905500Y-21056988D01*
X30742973Y-21129349D01*
X30568954Y-21166338D01*
X30391046Y-21166338D01*
X30217027Y-21129349D01*
X30054500Y-21056988D01*
X29910570Y-20952416D01*
X29791527Y-20820205D01*
X29702573Y-20666133D01*
X29647596Y-20496933D01*
X29629000Y-20320000D01*
X29647596Y-20143067D01*
X29702573Y-19973867D01*
X29791527Y-19819795D01*
X29910570Y-19687584D01*
X30054500Y-19583012D01*
X30217027Y-19510651D01*
X30391046Y-19473662D01*
X30568954Y-19473662D01*
X30742973Y-19510651D01*
G37*
G36*
X33282973Y-19510651D02*
G01*
X33445500Y-19583012D01*
X33589430Y-19687584D01*
X33708473Y-19819795D01*
X33797427Y-19973867D01*
X33852404Y-20143067D01*
X33871000Y-20320000D01*
X33852404Y-20496933D01*
X33797427Y-20666133D01*
X33708473Y-20820205D01*
X33589430Y-20952416D01*
X33445500Y-21056988D01*
X33282973Y-21129349D01*
X33108954Y-21166338D01*
X32931046Y-21166338D01*
X32757027Y-21129349D01*
X32594500Y-21056988D01*
X32450570Y-20952416D01*
X32331527Y-20820205D01*
X32242573Y-20666133D01*
X32187596Y-20496933D01*
X32169000Y-20320000D01*
X32187596Y-20143067D01*
X32242573Y-19973867D01*
X32331527Y-19819795D01*
X32450570Y-19687584D01*
X32594500Y-19583012D01*
X32757027Y-19510651D01*
X32931046Y-19473662D01*
X33108954Y-19473662D01*
X33282973Y-19510651D01*
G37*
G36*
X35822973Y-19510651D02*
G01*
X35985500Y-19583012D01*
X36129430Y-19687584D01*
X36248473Y-19819795D01*
X36337427Y-19973867D01*
X36392404Y-20143067D01*
X36411000Y-20320000D01*
X36392404Y-20496933D01*
X36337427Y-20666133D01*
X36248473Y-20820205D01*
X36129430Y-20952416D01*
X35985500Y-21056988D01*
X35822973Y-21129349D01*
X35648954Y-21166338D01*
X35471046Y-21166338D01*
X35297027Y-21129349D01*
X35134500Y-21056988D01*
X34990570Y-20952416D01*
X34871527Y-20820205D01*
X34782573Y-20666133D01*
X34727596Y-20496933D01*
X34709000Y-20320000D01*
X34727596Y-20143067D01*
X34782573Y-19973867D01*
X34871527Y-19819795D01*
X34990570Y-19687584D01*
X35134500Y-19583012D01*
X35297027Y-19510651D01*
X35471046Y-19473662D01*
X35648954Y-19473662D01*
X35822973Y-19510651D01*
G37*
G36*
X38362973Y-19510651D02*
G01*
X38525500Y-19583012D01*
X38669430Y-19687584D01*
X38788473Y-19819795D01*
X38877427Y-19973867D01*
X38932404Y-20143067D01*
X38951000Y-20320000D01*
X38932404Y-20496933D01*
X38877427Y-20666133D01*
X38788473Y-20820205D01*
X38669430Y-20952416D01*
X38525500Y-21056988D01*
X38362973Y-21129349D01*
X38188954Y-21166338D01*
X38011046Y-21166338D01*
X37837027Y-21129349D01*
X37674500Y-21056988D01*
X37530570Y-20952416D01*
X37411527Y-20820205D01*
X37322573Y-20666133D01*
X37267596Y-20496933D01*
X37249000Y-20320000D01*
X37267596Y-20143067D01*
X37322573Y-19973867D01*
X37411527Y-19819795D01*
X37530570Y-19687584D01*
X37674500Y-19583012D01*
X37837027Y-19510651D01*
X38011046Y-19473662D01*
X38188954Y-19473662D01*
X38362973Y-19510651D01*
G37*
G36*
X40902973Y-19510651D02*
G01*
X41065500Y-19583012D01*
X41209430Y-19687584D01*
X41328473Y-19819795D01*
X41417427Y-19973867D01*
X41472404Y-20143067D01*
X41491000Y-20320000D01*
X41472404Y-20496933D01*
X41417427Y-20666133D01*
X41328473Y-20820205D01*
X41209430Y-20952416D01*
X41065500Y-21056988D01*
X40902973Y-21129349D01*
X40728954Y-21166338D01*
X40551046Y-21166338D01*
X40377027Y-21129349D01*
X40214500Y-21056988D01*
X40070570Y-20952416D01*
X39951527Y-20820205D01*
X39862573Y-20666133D01*
X39807596Y-20496933D01*
X39789000Y-20320000D01*
X39807596Y-20143067D01*
X39862573Y-19973867D01*
X39951527Y-19819795D01*
X40070570Y-19687584D01*
X40214500Y-19583012D01*
X40377027Y-19510651D01*
X40551046Y-19473662D01*
X40728954Y-19473662D01*
X40902973Y-19510651D01*
G37*
G36*
X43442973Y-19510651D02*
G01*
X43605500Y-19583012D01*
X43749430Y-19687584D01*
X43868473Y-19819795D01*
X43957427Y-19973867D01*
X44012404Y-20143067D01*
X44031000Y-20320000D01*
X44012404Y-20496933D01*
X43957427Y-20666133D01*
X43868473Y-20820205D01*
X43749430Y-20952416D01*
X43605500Y-21056988D01*
X43442973Y-21129349D01*
X43268954Y-21166338D01*
X43091046Y-21166338D01*
X42917027Y-21129349D01*
X42754500Y-21056988D01*
X42610570Y-20952416D01*
X42491527Y-20820205D01*
X42402573Y-20666133D01*
X42347596Y-20496933D01*
X42329000Y-20320000D01*
X42347596Y-20143067D01*
X42402573Y-19973867D01*
X42491527Y-19819795D01*
X42610570Y-19687584D01*
X42754500Y-19583012D01*
X42917027Y-19510651D01*
X43091046Y-19473662D01*
X43268954Y-19473662D01*
X43442973Y-19510651D01*
G37*
G36*
X61140094Y-18499806D02*
G01*
X61224687Y-18508901D01*
X61244743Y-18516381D01*
X61266641Y-18519850D01*
X61301055Y-18537384D01*
X61338937Y-18551514D01*
X61360573Y-18567711D01*
X61385397Y-18580359D01*
X61409000Y-18603962D01*
X61435900Y-18624099D01*
X61456036Y-18650998D01*
X61479641Y-18674603D01*
X61492289Y-18699427D01*
X61508485Y-18721062D01*
X61522612Y-18758940D01*
X61540150Y-18793359D01*
X61543618Y-18815259D01*
X61551098Y-18835312D01*
X61560190Y-18919886D01*
X61561000Y-18925000D01*
X61561000Y-19675000D01*
X61560190Y-19680113D01*
X61551098Y-19764687D01*
X61543618Y-19784739D01*
X61540150Y-19806641D01*
X61522611Y-19841062D01*
X61508485Y-19878937D01*
X61492291Y-19900569D01*
X61479641Y-19925397D01*
X61456033Y-19949004D01*
X61435900Y-19975900D01*
X61409004Y-19996033D01*
X61385397Y-20019641D01*
X61360569Y-20032291D01*
X61338937Y-20048485D01*
X61301062Y-20062611D01*
X61266641Y-20080150D01*
X61244739Y-20083618D01*
X61224687Y-20091098D01*
X61140115Y-20100189D01*
X61135000Y-20101000D01*
X59885000Y-20101000D01*
X59879888Y-20100190D01*
X59795312Y-20091098D01*
X59775259Y-20083618D01*
X59753359Y-20080150D01*
X59718940Y-20062612D01*
X59681062Y-20048485D01*
X59659427Y-20032289D01*
X59634603Y-20019641D01*
X59610998Y-19996036D01*
X59584099Y-19975900D01*
X59563962Y-19949000D01*
X59540359Y-19925397D01*
X59527711Y-19900573D01*
X59511514Y-19878937D01*
X59497384Y-19841055D01*
X59479850Y-19806641D01*
X59476381Y-19784743D01*
X59468901Y-19764687D01*
X59459807Y-19680096D01*
X59459000Y-19675000D01*
X59459000Y-18925000D01*
X59459806Y-18919907D01*
X59468901Y-18835312D01*
X59476382Y-18815254D01*
X59479850Y-18793359D01*
X59497383Y-18758947D01*
X59511514Y-18721062D01*
X59527712Y-18699422D01*
X59540359Y-18674603D01*
X59563959Y-18651002D01*
X59584099Y-18624099D01*
X59611002Y-18603959D01*
X59634603Y-18580359D01*
X59659422Y-18567712D01*
X59681062Y-18551514D01*
X59718947Y-18537383D01*
X59753359Y-18519850D01*
X59775254Y-18516382D01*
X59795312Y-18508901D01*
X59879905Y-18499806D01*
X59885000Y-18499000D01*
X61135000Y-18499000D01*
X61140094Y-18499806D01*
G37*
G36*
X51753914Y-18431995D02*
G01*
X51758645Y-18434084D01*
X51761811Y-18434501D01*
X51801442Y-18452981D01*
X51855106Y-18476676D01*
X51933324Y-18554894D01*
X51957028Y-18608579D01*
X51975498Y-18648188D01*
X51975914Y-18651351D01*
X51978005Y-18656086D01*
X51986000Y-18725000D01*
X51986000Y-19225000D01*
X51978005Y-19293914D01*
X51975914Y-19298648D01*
X51975498Y-19301811D01*
X51957036Y-19341402D01*
X51933324Y-19395106D01*
X51855106Y-19473324D01*
X51801402Y-19497036D01*
X51761811Y-19515498D01*
X51758648Y-19515914D01*
X51753914Y-19518005D01*
X51685000Y-19526000D01*
X50735000Y-19526000D01*
X50666086Y-19518005D01*
X50661351Y-19515914D01*
X50658188Y-19515498D01*
X50618579Y-19497028D01*
X50564894Y-19473324D01*
X50486676Y-19395106D01*
X50462981Y-19341442D01*
X50444501Y-19301811D01*
X50444084Y-19298645D01*
X50441995Y-19293914D01*
X50434000Y-19225000D01*
X50434000Y-18725000D01*
X50441995Y-18656086D01*
X50444084Y-18651354D01*
X50444501Y-18648188D01*
X50462989Y-18608538D01*
X50486676Y-18554894D01*
X50564894Y-18476676D01*
X50618538Y-18452989D01*
X50658188Y-18434501D01*
X50661354Y-18434084D01*
X50666086Y-18431995D01*
X50735000Y-18424000D01*
X51685000Y-18424000D01*
X51753914Y-18431995D01*
G37*
G36*
X54840457Y-15064667D02*
G01*
X54847673Y-15067512D01*
X54852507Y-15068149D01*
X54916418Y-15094621D01*
X54980051Y-15119715D01*
X54983725Y-15122501D01*
X54985306Y-15123156D01*
X55045736Y-15169526D01*
X55099616Y-15210384D01*
X55140493Y-15264289D01*
X55186843Y-15324693D01*
X55187497Y-15326273D01*
X55190285Y-15329949D01*
X55215385Y-15393600D01*
X55241850Y-15457491D01*
X55242486Y-15462324D01*
X55245333Y-15469543D01*
X55261000Y-15600000D01*
X55261000Y-18400000D01*
X55245333Y-18530457D01*
X55242485Y-18537676D01*
X55241850Y-18542507D01*
X55215398Y-18606367D01*
X55190285Y-18670051D01*
X55187496Y-18673728D01*
X55186843Y-18675306D01*
X55140558Y-18735625D01*
X55099616Y-18789616D01*
X55045625Y-18830558D01*
X54985306Y-18876843D01*
X54983728Y-18877496D01*
X54980051Y-18880285D01*
X54916378Y-18905393D01*
X54852508Y-18931850D01*
X54847676Y-18932486D01*
X54840457Y-18935333D01*
X54710000Y-18951000D01*
X53710000Y-18951000D01*
X53579543Y-18935333D01*
X53572323Y-18932486D01*
X53567492Y-18931850D01*
X53503611Y-18905389D01*
X53439949Y-18880285D01*
X53436273Y-18877497D01*
X53434693Y-18876843D01*
X53374289Y-18830493D01*
X53320384Y-18789616D01*
X53279526Y-18735736D01*
X53233156Y-18675306D01*
X53232501Y-18673725D01*
X53229715Y-18670051D01*
X53204626Y-18606428D01*
X53178149Y-18542508D01*
X53177512Y-18537672D01*
X53174667Y-18530457D01*
X53159000Y-18400000D01*
X53159000Y-15600000D01*
X53174667Y-15469543D01*
X53177512Y-15462327D01*
X53178149Y-15457492D01*
X53204629Y-15393561D01*
X53229715Y-15329949D01*
X53232500Y-15326276D01*
X53233156Y-15324693D01*
X53279590Y-15264177D01*
X53320384Y-15210384D01*
X53374177Y-15169590D01*
X53434693Y-15123156D01*
X53436276Y-15122500D01*
X53439949Y-15119715D01*
X53503550Y-15094634D01*
X53567491Y-15068149D01*
X53572327Y-15067512D01*
X53579543Y-15064667D01*
X53710000Y-15049000D01*
X54710000Y-15049000D01*
X54840457Y-15064667D01*
G37*
G36*
X64253914Y-17344495D02*
G01*
X64258645Y-17346584D01*
X64261811Y-17347001D01*
X64301442Y-17365481D01*
X64355106Y-17389176D01*
X64433324Y-17467394D01*
X64457028Y-17521079D01*
X64475498Y-17560688D01*
X64475914Y-17563851D01*
X64478005Y-17568586D01*
X64486000Y-17637500D01*
X64486000Y-18137500D01*
X64478005Y-18206414D01*
X64475914Y-18211148D01*
X64475498Y-18214311D01*
X64457036Y-18253902D01*
X64433324Y-18307606D01*
X64355106Y-18385824D01*
X64301402Y-18409536D01*
X64261811Y-18427998D01*
X64258648Y-18428414D01*
X64253914Y-18430505D01*
X64185000Y-18438500D01*
X63235000Y-18438500D01*
X63166086Y-18430505D01*
X63161351Y-18428414D01*
X63158188Y-18427998D01*
X63118579Y-18409528D01*
X63064894Y-18385824D01*
X62986676Y-18307606D01*
X62962981Y-18253942D01*
X62944501Y-18214311D01*
X62944084Y-18211145D01*
X62941995Y-18206414D01*
X62934000Y-18137500D01*
X62934000Y-17637500D01*
X62941995Y-17568586D01*
X62944084Y-17563854D01*
X62944501Y-17560688D01*
X62962989Y-17521038D01*
X62986676Y-17467394D01*
X63064894Y-17389176D01*
X63118538Y-17365489D01*
X63158188Y-17347001D01*
X63161354Y-17346584D01*
X63166086Y-17344495D01*
X63235000Y-17336500D01*
X64185000Y-17336500D01*
X64253914Y-17344495D01*
G37*
G36*
X61140094Y-16199806D02*
G01*
X61224687Y-16208901D01*
X61244743Y-16216381D01*
X61266641Y-16219850D01*
X61301055Y-16237384D01*
X61338937Y-16251514D01*
X61360573Y-16267711D01*
X61385397Y-16280359D01*
X61409000Y-16303962D01*
X61435900Y-16324099D01*
X61456036Y-16350998D01*
X61479641Y-16374603D01*
X61492289Y-16399427D01*
X61508485Y-16421062D01*
X61522612Y-16458940D01*
X61540150Y-16493359D01*
X61543618Y-16515259D01*
X61551098Y-16535312D01*
X61560190Y-16619886D01*
X61561000Y-16625000D01*
X61561000Y-17375000D01*
X61560190Y-17380113D01*
X61551098Y-17464687D01*
X61543618Y-17484739D01*
X61540150Y-17506641D01*
X61522611Y-17541062D01*
X61508485Y-17578937D01*
X61492291Y-17600569D01*
X61479641Y-17625397D01*
X61456033Y-17649004D01*
X61435900Y-17675900D01*
X61409004Y-17696033D01*
X61385397Y-17719641D01*
X61360569Y-17732291D01*
X61338937Y-17748485D01*
X61301062Y-17762611D01*
X61266641Y-17780150D01*
X61244739Y-17783618D01*
X61224687Y-17791098D01*
X61140115Y-17800189D01*
X61135000Y-17801000D01*
X59885000Y-17801000D01*
X59879888Y-17800190D01*
X59795312Y-17791098D01*
X59775259Y-17783618D01*
X59753359Y-17780150D01*
X59718940Y-17762612D01*
X59681062Y-17748485D01*
X59659427Y-17732289D01*
X59634603Y-17719641D01*
X59610998Y-17696036D01*
X59584099Y-17675900D01*
X59563962Y-17649000D01*
X59540359Y-17625397D01*
X59527711Y-17600573D01*
X59511514Y-17578937D01*
X59497384Y-17541055D01*
X59479850Y-17506641D01*
X59476381Y-17484743D01*
X59468901Y-17464687D01*
X59459807Y-17380096D01*
X59459000Y-17375000D01*
X59459000Y-16625000D01*
X59459806Y-16619907D01*
X59468901Y-16535312D01*
X59476382Y-16515254D01*
X59479850Y-16493359D01*
X59497383Y-16458947D01*
X59511514Y-16421062D01*
X59527712Y-16399422D01*
X59540359Y-16374603D01*
X59563959Y-16351002D01*
X59584099Y-16324099D01*
X59611002Y-16303959D01*
X59634603Y-16280359D01*
X59659422Y-16267712D01*
X59681062Y-16251514D01*
X59718947Y-16237383D01*
X59753359Y-16219850D01*
X59775254Y-16216382D01*
X59795312Y-16208901D01*
X59879905Y-16199806D01*
X59885000Y-16199000D01*
X61135000Y-16199000D01*
X61140094Y-16199806D01*
G37*
G36*
X51753914Y-16531995D02*
G01*
X51758645Y-16534084D01*
X51761811Y-16534501D01*
X51801442Y-16552981D01*
X51855106Y-16576676D01*
X51933324Y-16654894D01*
X51957028Y-16708579D01*
X51975498Y-16748188D01*
X51975914Y-16751351D01*
X51978005Y-16756086D01*
X51986000Y-16825000D01*
X51986000Y-17325000D01*
X51978005Y-17393914D01*
X51975914Y-17398648D01*
X51975498Y-17401811D01*
X51957036Y-17441402D01*
X51933324Y-17495106D01*
X51855106Y-17573324D01*
X51801402Y-17597036D01*
X51761811Y-17615498D01*
X51758648Y-17615914D01*
X51753914Y-17618005D01*
X51685000Y-17626000D01*
X50735000Y-17626000D01*
X50666086Y-17618005D01*
X50661351Y-17615914D01*
X50658188Y-17615498D01*
X50618579Y-17597028D01*
X50564894Y-17573324D01*
X50486676Y-17495106D01*
X50462981Y-17441442D01*
X50444501Y-17401811D01*
X50444084Y-17398645D01*
X50441995Y-17393914D01*
X50434000Y-17325000D01*
X50434000Y-16825000D01*
X50441995Y-16756086D01*
X50444084Y-16751354D01*
X50444501Y-16748188D01*
X50462989Y-16708538D01*
X50486676Y-16654894D01*
X50564894Y-16576676D01*
X50618538Y-16552989D01*
X50658188Y-16534501D01*
X50661354Y-16534084D01*
X50666086Y-16531995D01*
X50735000Y-16524000D01*
X51685000Y-16524000D01*
X51753914Y-16531995D01*
G37*
G36*
X64253914Y-15444495D02*
G01*
X64258645Y-15446584D01*
X64261811Y-15447001D01*
X64301442Y-15465481D01*
X64355106Y-15489176D01*
X64433324Y-15567394D01*
X64457028Y-15621079D01*
X64475498Y-15660688D01*
X64475914Y-15663851D01*
X64478005Y-15668586D01*
X64486000Y-15737500D01*
X64486000Y-16237500D01*
X64478005Y-16306414D01*
X64475914Y-16311148D01*
X64475498Y-16314311D01*
X64457036Y-16353902D01*
X64433324Y-16407606D01*
X64355106Y-16485824D01*
X64301402Y-16509536D01*
X64261811Y-16527998D01*
X64258648Y-16528414D01*
X64253914Y-16530505D01*
X64185000Y-16538500D01*
X63235000Y-16538500D01*
X63166086Y-16530505D01*
X63161351Y-16528414D01*
X63158188Y-16527998D01*
X63118579Y-16509528D01*
X63064894Y-16485824D01*
X62986676Y-16407606D01*
X62962981Y-16353942D01*
X62944501Y-16314311D01*
X62944084Y-16311145D01*
X62941995Y-16306414D01*
X62934000Y-16237500D01*
X62934000Y-15737500D01*
X62941995Y-15668586D01*
X62944084Y-15663854D01*
X62944501Y-15660688D01*
X62962989Y-15621038D01*
X62986676Y-15567394D01*
X63064894Y-15489176D01*
X63118538Y-15465489D01*
X63158188Y-15447001D01*
X63161354Y-15446584D01*
X63166086Y-15444495D01*
X63235000Y-15436500D01*
X64185000Y-15436500D01*
X64253914Y-15444495D01*
G37*
G36*
X61140094Y-13899806D02*
G01*
X61224687Y-13908901D01*
X61244743Y-13916381D01*
X61266641Y-13919850D01*
X61301055Y-13937384D01*
X61338937Y-13951514D01*
X61360573Y-13967711D01*
X61385397Y-13980359D01*
X61409000Y-14003962D01*
X61435900Y-14024099D01*
X61456036Y-14050998D01*
X61479641Y-14074603D01*
X61492289Y-14099427D01*
X61508485Y-14121062D01*
X61522612Y-14158940D01*
X61540150Y-14193359D01*
X61543618Y-14215259D01*
X61551098Y-14235312D01*
X61560190Y-14319886D01*
X61561000Y-14325000D01*
X61561000Y-15075000D01*
X61560190Y-15080113D01*
X61551098Y-15164687D01*
X61543618Y-15184739D01*
X61540150Y-15206641D01*
X61522611Y-15241062D01*
X61508485Y-15278937D01*
X61492291Y-15300569D01*
X61479641Y-15325397D01*
X61456033Y-15349004D01*
X61435900Y-15375900D01*
X61409004Y-15396033D01*
X61385397Y-15419641D01*
X61360569Y-15432291D01*
X61338937Y-15448485D01*
X61301062Y-15462611D01*
X61266641Y-15480150D01*
X61244739Y-15483618D01*
X61224687Y-15491098D01*
X61140115Y-15500189D01*
X61135000Y-15501000D01*
X59885000Y-15501000D01*
X59879888Y-15500190D01*
X59795312Y-15491098D01*
X59775259Y-15483618D01*
X59753359Y-15480150D01*
X59718940Y-15462612D01*
X59681062Y-15448485D01*
X59659427Y-15432289D01*
X59634603Y-15419641D01*
X59610998Y-15396036D01*
X59584099Y-15375900D01*
X59563962Y-15349000D01*
X59540359Y-15325397D01*
X59527711Y-15300573D01*
X59511514Y-15278937D01*
X59497384Y-15241055D01*
X59479850Y-15206641D01*
X59476381Y-15184743D01*
X59468901Y-15164687D01*
X59459807Y-15080096D01*
X59459000Y-15075000D01*
X59459000Y-14325000D01*
X59459806Y-14319907D01*
X59468901Y-14235312D01*
X59476382Y-14215254D01*
X59479850Y-14193359D01*
X59497383Y-14158947D01*
X59511514Y-14121062D01*
X59527712Y-14099422D01*
X59540359Y-14074603D01*
X59563959Y-14051002D01*
X59584099Y-14024099D01*
X59611002Y-14003959D01*
X59634603Y-13980359D01*
X59659422Y-13967712D01*
X59681062Y-13951514D01*
X59718947Y-13937383D01*
X59753359Y-13919850D01*
X59775254Y-13916382D01*
X59795312Y-13908901D01*
X59879905Y-13899806D01*
X59885000Y-13899000D01*
X61135000Y-13899000D01*
X61140094Y-13899806D01*
G37*
G36*
X23679517Y-13122882D02*
G01*
X23696062Y-13133938D01*
X23707118Y-13150483D01*
X23711000Y-13170000D01*
X23711000Y-14770000D01*
X23707118Y-14789517D01*
X23696062Y-14806062D01*
X23679517Y-14817118D01*
X23660000Y-14821000D01*
X22060000Y-14821000D01*
X22040483Y-14817118D01*
X22023938Y-14806062D01*
X22012882Y-14789517D01*
X22009000Y-14770000D01*
X22009000Y-13170000D01*
X22012882Y-13150483D01*
X22023938Y-13133938D01*
X22040483Y-13122882D01*
X22060000Y-13119000D01*
X23660000Y-13119000D01*
X23679517Y-13122882D01*
G37*
G36*
X46539517Y-13122882D02*
G01*
X46556062Y-13133938D01*
X46567118Y-13150483D01*
X46571000Y-13170000D01*
X46571000Y-14770000D01*
X46567118Y-14789517D01*
X46556062Y-14806062D01*
X46539517Y-14817118D01*
X46520000Y-14821000D01*
X44920000Y-14821000D01*
X44900483Y-14817118D01*
X44883938Y-14806062D01*
X44872882Y-14789517D01*
X44869000Y-14770000D01*
X44869000Y-13170000D01*
X44872882Y-13150483D01*
X44883938Y-13133938D01*
X44900483Y-13122882D01*
X44920000Y-13119000D01*
X46520000Y-13119000D01*
X46539517Y-13122882D01*
G37*
G36*
X5342973Y-13160651D02*
G01*
X5505500Y-13233012D01*
X5649430Y-13337584D01*
X5768473Y-13469795D01*
X5857427Y-13623867D01*
X5912404Y-13793067D01*
X5931000Y-13970000D01*
X5912404Y-14146933D01*
X5857427Y-14316133D01*
X5768473Y-14470205D01*
X5649430Y-14602416D01*
X5505500Y-14706988D01*
X5342973Y-14779349D01*
X5168954Y-14816338D01*
X4991046Y-14816338D01*
X4817027Y-14779349D01*
X4654500Y-14706988D01*
X4510570Y-14602416D01*
X4391527Y-14470205D01*
X4302573Y-14316133D01*
X4247596Y-14146933D01*
X4229000Y-13970000D01*
X4247596Y-13793067D01*
X4302573Y-13623867D01*
X4391527Y-13469795D01*
X4510570Y-13337584D01*
X4654500Y-13233012D01*
X4817027Y-13160651D01*
X4991046Y-13123662D01*
X5168954Y-13123662D01*
X5342973Y-13160651D01*
G37*
G36*
X7882973Y-13160651D02*
G01*
X8045500Y-13233012D01*
X8189430Y-13337584D01*
X8308473Y-13469795D01*
X8397427Y-13623867D01*
X8452404Y-13793067D01*
X8471000Y-13970000D01*
X8452404Y-14146933D01*
X8397427Y-14316133D01*
X8308473Y-14470205D01*
X8189430Y-14602416D01*
X8045500Y-14706988D01*
X7882973Y-14779349D01*
X7708954Y-14816338D01*
X7531046Y-14816338D01*
X7357027Y-14779349D01*
X7194500Y-14706988D01*
X7050570Y-14602416D01*
X6931527Y-14470205D01*
X6842573Y-14316133D01*
X6787596Y-14146933D01*
X6769000Y-13970000D01*
X6787596Y-13793067D01*
X6842573Y-13623867D01*
X6931527Y-13469795D01*
X7050570Y-13337584D01*
X7194500Y-13233012D01*
X7357027Y-13160651D01*
X7531046Y-13123662D01*
X7708954Y-13123662D01*
X7882973Y-13160651D01*
G37*
G36*
X10422973Y-13160651D02*
G01*
X10585500Y-13233012D01*
X10729430Y-13337584D01*
X10848473Y-13469795D01*
X10937427Y-13623867D01*
X10992404Y-13793067D01*
X11011000Y-13970000D01*
X10992404Y-14146933D01*
X10937427Y-14316133D01*
X10848473Y-14470205D01*
X10729430Y-14602416D01*
X10585500Y-14706988D01*
X10422973Y-14779349D01*
X10248954Y-14816338D01*
X10071046Y-14816338D01*
X9897027Y-14779349D01*
X9734500Y-14706988D01*
X9590570Y-14602416D01*
X9471527Y-14470205D01*
X9382573Y-14316133D01*
X9327596Y-14146933D01*
X9309000Y-13970000D01*
X9327596Y-13793067D01*
X9382573Y-13623867D01*
X9471527Y-13469795D01*
X9590570Y-13337584D01*
X9734500Y-13233012D01*
X9897027Y-13160651D01*
X10071046Y-13123662D01*
X10248954Y-13123662D01*
X10422973Y-13160651D01*
G37*
G36*
X12962973Y-13160651D02*
G01*
X13125500Y-13233012D01*
X13269430Y-13337584D01*
X13388473Y-13469795D01*
X13477427Y-13623867D01*
X13532404Y-13793067D01*
X13551000Y-13970000D01*
X13532404Y-14146933D01*
X13477427Y-14316133D01*
X13388473Y-14470205D01*
X13269430Y-14602416D01*
X13125500Y-14706988D01*
X12962973Y-14779349D01*
X12788954Y-14816338D01*
X12611046Y-14816338D01*
X12437027Y-14779349D01*
X12274500Y-14706988D01*
X12130570Y-14602416D01*
X12011527Y-14470205D01*
X11922573Y-14316133D01*
X11867596Y-14146933D01*
X11849000Y-13970000D01*
X11867596Y-13793067D01*
X11922573Y-13623867D01*
X12011527Y-13469795D01*
X12130570Y-13337584D01*
X12274500Y-13233012D01*
X12437027Y-13160651D01*
X12611046Y-13123662D01*
X12788954Y-13123662D01*
X12962973Y-13160651D01*
G37*
G36*
X15502973Y-13160651D02*
G01*
X15665500Y-13233012D01*
X15809430Y-13337584D01*
X15928473Y-13469795D01*
X16017427Y-13623867D01*
X16072404Y-13793067D01*
X16091000Y-13970000D01*
X16072404Y-14146933D01*
X16017427Y-14316133D01*
X15928473Y-14470205D01*
X15809430Y-14602416D01*
X15665500Y-14706988D01*
X15502973Y-14779349D01*
X15328954Y-14816338D01*
X15151046Y-14816338D01*
X14977027Y-14779349D01*
X14814500Y-14706988D01*
X14670570Y-14602416D01*
X14551527Y-14470205D01*
X14462573Y-14316133D01*
X14407596Y-14146933D01*
X14389000Y-13970000D01*
X14407596Y-13793067D01*
X14462573Y-13623867D01*
X14551527Y-13469795D01*
X14670570Y-13337584D01*
X14814500Y-13233012D01*
X14977027Y-13160651D01*
X15151046Y-13123662D01*
X15328954Y-13123662D01*
X15502973Y-13160651D01*
G37*
G36*
X18042973Y-13160651D02*
G01*
X18205500Y-13233012D01*
X18349430Y-13337584D01*
X18468473Y-13469795D01*
X18557427Y-13623867D01*
X18612404Y-13793067D01*
X18631000Y-13970000D01*
X18612404Y-14146933D01*
X18557427Y-14316133D01*
X18468473Y-14470205D01*
X18349430Y-14602416D01*
X18205500Y-14706988D01*
X18042973Y-14779349D01*
X17868954Y-14816338D01*
X17691046Y-14816338D01*
X17517027Y-14779349D01*
X17354500Y-14706988D01*
X17210570Y-14602416D01*
X17091527Y-14470205D01*
X17002573Y-14316133D01*
X16947596Y-14146933D01*
X16929000Y-13970000D01*
X16947596Y-13793067D01*
X17002573Y-13623867D01*
X17091527Y-13469795D01*
X17210570Y-13337584D01*
X17354500Y-13233012D01*
X17517027Y-13160651D01*
X17691046Y-13123662D01*
X17868954Y-13123662D01*
X18042973Y-13160651D01*
G37*
G36*
X20582973Y-13160651D02*
G01*
X20745500Y-13233012D01*
X20889430Y-13337584D01*
X21008473Y-13469795D01*
X21097427Y-13623867D01*
X21152404Y-13793067D01*
X21171000Y-13970000D01*
X21152404Y-14146933D01*
X21097427Y-14316133D01*
X21008473Y-14470205D01*
X20889430Y-14602416D01*
X20745500Y-14706988D01*
X20582973Y-14779349D01*
X20408954Y-14816338D01*
X20231046Y-14816338D01*
X20057027Y-14779349D01*
X19894500Y-14706988D01*
X19750570Y-14602416D01*
X19631527Y-14470205D01*
X19542573Y-14316133D01*
X19487596Y-14146933D01*
X19469000Y-13970000D01*
X19487596Y-13793067D01*
X19542573Y-13623867D01*
X19631527Y-13469795D01*
X19750570Y-13337584D01*
X19894500Y-13233012D01*
X20057027Y-13160651D01*
X20231046Y-13123662D01*
X20408954Y-13123662D01*
X20582973Y-13160651D01*
G37*
G36*
X28202973Y-13160651D02*
G01*
X28365500Y-13233012D01*
X28509430Y-13337584D01*
X28628473Y-13469795D01*
X28717427Y-13623867D01*
X28772404Y-13793067D01*
X28791000Y-13970000D01*
X28772404Y-14146933D01*
X28717427Y-14316133D01*
X28628473Y-14470205D01*
X28509430Y-14602416D01*
X28365500Y-14706988D01*
X28202973Y-14779349D01*
X28028954Y-14816338D01*
X27851046Y-14816338D01*
X27677027Y-14779349D01*
X27514500Y-14706988D01*
X27370570Y-14602416D01*
X27251527Y-14470205D01*
X27162573Y-14316133D01*
X27107596Y-14146933D01*
X27089000Y-13970000D01*
X27107596Y-13793067D01*
X27162573Y-13623867D01*
X27251527Y-13469795D01*
X27370570Y-13337584D01*
X27514500Y-13233012D01*
X27677027Y-13160651D01*
X27851046Y-13123662D01*
X28028954Y-13123662D01*
X28202973Y-13160651D01*
G37*
G36*
X30742973Y-13160651D02*
G01*
X30905500Y-13233012D01*
X31049430Y-13337584D01*
X31168473Y-13469795D01*
X31257427Y-13623867D01*
X31312404Y-13793067D01*
X31331000Y-13970000D01*
X31312404Y-14146933D01*
X31257427Y-14316133D01*
X31168473Y-14470205D01*
X31049430Y-14602416D01*
X30905500Y-14706988D01*
X30742973Y-14779349D01*
X30568954Y-14816338D01*
X30391046Y-14816338D01*
X30217027Y-14779349D01*
X30054500Y-14706988D01*
X29910570Y-14602416D01*
X29791527Y-14470205D01*
X29702573Y-14316133D01*
X29647596Y-14146933D01*
X29629000Y-13970000D01*
X29647596Y-13793067D01*
X29702573Y-13623867D01*
X29791527Y-13469795D01*
X29910570Y-13337584D01*
X30054500Y-13233012D01*
X30217027Y-13160651D01*
X30391046Y-13123662D01*
X30568954Y-13123662D01*
X30742973Y-13160651D01*
G37*
G36*
X33282973Y-13160651D02*
G01*
X33445500Y-13233012D01*
X33589430Y-13337584D01*
X33708473Y-13469795D01*
X33797427Y-13623867D01*
X33852404Y-13793067D01*
X33871000Y-13970000D01*
X33852404Y-14146933D01*
X33797427Y-14316133D01*
X33708473Y-14470205D01*
X33589430Y-14602416D01*
X33445500Y-14706988D01*
X33282973Y-14779349D01*
X33108954Y-14816338D01*
X32931046Y-14816338D01*
X32757027Y-14779349D01*
X32594500Y-14706988D01*
X32450570Y-14602416D01*
X32331527Y-14470205D01*
X32242573Y-14316133D01*
X32187596Y-14146933D01*
X32169000Y-13970000D01*
X32187596Y-13793067D01*
X32242573Y-13623867D01*
X32331527Y-13469795D01*
X32450570Y-13337584D01*
X32594500Y-13233012D01*
X32757027Y-13160651D01*
X32931046Y-13123662D01*
X33108954Y-13123662D01*
X33282973Y-13160651D01*
G37*
G36*
X35822973Y-13160651D02*
G01*
X35985500Y-13233012D01*
X36129430Y-13337584D01*
X36248473Y-13469795D01*
X36337427Y-13623867D01*
X36392404Y-13793067D01*
X36411000Y-13970000D01*
X36392404Y-14146933D01*
X36337427Y-14316133D01*
X36248473Y-14470205D01*
X36129430Y-14602416D01*
X35985500Y-14706988D01*
X35822973Y-14779349D01*
X35648954Y-14816338D01*
X35471046Y-14816338D01*
X35297027Y-14779349D01*
X35134500Y-14706988D01*
X34990570Y-14602416D01*
X34871527Y-14470205D01*
X34782573Y-14316133D01*
X34727596Y-14146933D01*
X34709000Y-13970000D01*
X34727596Y-13793067D01*
X34782573Y-13623867D01*
X34871527Y-13469795D01*
X34990570Y-13337584D01*
X35134500Y-13233012D01*
X35297027Y-13160651D01*
X35471046Y-13123662D01*
X35648954Y-13123662D01*
X35822973Y-13160651D01*
G37*
G36*
X38362973Y-13160651D02*
G01*
X38525500Y-13233012D01*
X38669430Y-13337584D01*
X38788473Y-13469795D01*
X38877427Y-13623867D01*
X38932404Y-13793067D01*
X38951000Y-13970000D01*
X38932404Y-14146933D01*
X38877427Y-14316133D01*
X38788473Y-14470205D01*
X38669430Y-14602416D01*
X38525500Y-14706988D01*
X38362973Y-14779349D01*
X38188954Y-14816338D01*
X38011046Y-14816338D01*
X37837027Y-14779349D01*
X37674500Y-14706988D01*
X37530570Y-14602416D01*
X37411527Y-14470205D01*
X37322573Y-14316133D01*
X37267596Y-14146933D01*
X37249000Y-13970000D01*
X37267596Y-13793067D01*
X37322573Y-13623867D01*
X37411527Y-13469795D01*
X37530570Y-13337584D01*
X37674500Y-13233012D01*
X37837027Y-13160651D01*
X38011046Y-13123662D01*
X38188954Y-13123662D01*
X38362973Y-13160651D01*
G37*
G36*
X40902973Y-13160651D02*
G01*
X41065500Y-13233012D01*
X41209430Y-13337584D01*
X41328473Y-13469795D01*
X41417427Y-13623867D01*
X41472404Y-13793067D01*
X41491000Y-13970000D01*
X41472404Y-14146933D01*
X41417427Y-14316133D01*
X41328473Y-14470205D01*
X41209430Y-14602416D01*
X41065500Y-14706988D01*
X40902973Y-14779349D01*
X40728954Y-14816338D01*
X40551046Y-14816338D01*
X40377027Y-14779349D01*
X40214500Y-14706988D01*
X40070570Y-14602416D01*
X39951527Y-14470205D01*
X39862573Y-14316133D01*
X39807596Y-14146933D01*
X39789000Y-13970000D01*
X39807596Y-13793067D01*
X39862573Y-13623867D01*
X39951527Y-13469795D01*
X40070570Y-13337584D01*
X40214500Y-13233012D01*
X40377027Y-13160651D01*
X40551046Y-13123662D01*
X40728954Y-13123662D01*
X40902973Y-13160651D01*
G37*
G36*
X43442973Y-13160651D02*
G01*
X43605500Y-13233012D01*
X43749430Y-13337584D01*
X43868473Y-13469795D01*
X43957427Y-13623867D01*
X44012404Y-13793067D01*
X44031000Y-13970000D01*
X44012404Y-14146933D01*
X43957427Y-14316133D01*
X43868473Y-14470205D01*
X43749430Y-14602416D01*
X43605500Y-14706988D01*
X43442973Y-14779349D01*
X43268954Y-14816338D01*
X43091046Y-14816338D01*
X42917027Y-14779349D01*
X42754500Y-14706988D01*
X42610570Y-14602416D01*
X42491527Y-14470205D01*
X42402573Y-14316133D01*
X42347596Y-14146933D01*
X42329000Y-13970000D01*
X42347596Y-13793067D01*
X42402573Y-13623867D01*
X42491527Y-13469795D01*
X42610570Y-13337584D01*
X42754500Y-13233012D01*
X42917027Y-13160651D01*
X43091046Y-13123662D01*
X43268954Y-13123662D01*
X43442973Y-13160651D01*
G37*
G36*
X59302973Y-6940651D02*
G01*
X59465500Y-7013012D01*
X59609430Y-7117584D01*
X59728473Y-7249795D01*
X59817427Y-7403867D01*
X59872404Y-7573067D01*
X59891000Y-7750000D01*
X59872404Y-7926933D01*
X59817427Y-8096133D01*
X59728473Y-8250205D01*
X59609430Y-8382416D01*
X59465500Y-8486988D01*
X59302973Y-8559349D01*
X59128954Y-8596338D01*
X58951046Y-8596338D01*
X58777027Y-8559349D01*
X58614500Y-8486988D01*
X58470570Y-8382416D01*
X58351527Y-8250205D01*
X58262573Y-8096133D01*
X58207596Y-7926933D01*
X58189000Y-7750000D01*
X58207596Y-7573067D01*
X58262573Y-7403867D01*
X58351527Y-7249795D01*
X58470570Y-7117584D01*
X58614500Y-7013012D01*
X58777027Y-6940651D01*
X58951046Y-6903662D01*
X59128954Y-6903662D01*
X59302973Y-6940651D01*
G37*
G36*
X61802973Y-6940651D02*
G01*
X61965500Y-7013012D01*
X62109430Y-7117584D01*
X62228473Y-7249795D01*
X62317427Y-7403867D01*
X62372404Y-7573067D01*
X62391000Y-7750000D01*
X62372404Y-7926933D01*
X62317427Y-8096133D01*
X62228473Y-8250205D01*
X62109430Y-8382416D01*
X61965500Y-8486988D01*
X61802973Y-8559349D01*
X61628954Y-8596338D01*
X61451046Y-8596338D01*
X61277027Y-8559349D01*
X61114500Y-8486988D01*
X60970570Y-8382416D01*
X60851527Y-8250205D01*
X60762573Y-8096133D01*
X60707596Y-7926933D01*
X60689000Y-7750000D01*
X60707596Y-7573067D01*
X60762573Y-7403867D01*
X60851527Y-7249795D01*
X60970570Y-7117584D01*
X61114500Y-7013012D01*
X61277027Y-6940651D01*
X61451046Y-6903662D01*
X61628954Y-6903662D01*
X61802973Y-6940651D01*
G37*
G36*
X51490069Y-7136446D02*
G01*
X51543112Y-7171888D01*
X51578554Y-7224931D01*
X51591000Y-7287500D01*
X51591000Y-7512500D01*
X51578554Y-7575069D01*
X51543112Y-7628112D01*
X51490069Y-7663554D01*
X51427500Y-7676000D01*
X50952500Y-7676000D01*
X50889931Y-7663554D01*
X50836888Y-7628112D01*
X50801446Y-7575069D01*
X50789000Y-7512500D01*
X50789000Y-7287500D01*
X50801446Y-7224931D01*
X50836888Y-7171888D01*
X50889931Y-7136446D01*
X50952500Y-7124000D01*
X51427500Y-7124000D01*
X51490069Y-7136446D01*
G37*
G36*
X5342973Y-5540651D02*
G01*
X5505500Y-5613012D01*
X5649430Y-5717584D01*
X5768473Y-5849795D01*
X5857427Y-6003867D01*
X5912404Y-6173067D01*
X5931000Y-6350000D01*
X5912404Y-6526933D01*
X5857427Y-6696133D01*
X5768473Y-6850205D01*
X5649430Y-6982416D01*
X5505500Y-7086988D01*
X5342973Y-7159349D01*
X5168954Y-7196338D01*
X4991046Y-7196338D01*
X4817027Y-7159349D01*
X4654500Y-7086988D01*
X4510570Y-6982416D01*
X4391527Y-6850205D01*
X4302573Y-6696133D01*
X4247596Y-6526933D01*
X4229000Y-6350000D01*
X4247596Y-6173067D01*
X4302573Y-6003867D01*
X4391527Y-5849795D01*
X4510570Y-5717584D01*
X4654500Y-5613012D01*
X4817027Y-5540651D01*
X4991046Y-5503662D01*
X5168954Y-5503662D01*
X5342973Y-5540651D01*
G37*
G36*
X7882973Y-5540651D02*
G01*
X8045500Y-5613012D01*
X8189430Y-5717584D01*
X8308473Y-5849795D01*
X8397427Y-6003867D01*
X8452404Y-6173067D01*
X8471000Y-6350000D01*
X8452404Y-6526933D01*
X8397427Y-6696133D01*
X8308473Y-6850205D01*
X8189430Y-6982416D01*
X8045500Y-7086988D01*
X7882973Y-7159349D01*
X7708954Y-7196338D01*
X7531046Y-7196338D01*
X7357027Y-7159349D01*
X7194500Y-7086988D01*
X7050570Y-6982416D01*
X6931527Y-6850205D01*
X6842573Y-6696133D01*
X6787596Y-6526933D01*
X6769000Y-6350000D01*
X6787596Y-6173067D01*
X6842573Y-6003867D01*
X6931527Y-5849795D01*
X7050570Y-5717584D01*
X7194500Y-5613012D01*
X7357027Y-5540651D01*
X7531046Y-5503662D01*
X7708954Y-5503662D01*
X7882973Y-5540651D01*
G37*
G36*
X10422973Y-5540651D02*
G01*
X10585500Y-5613012D01*
X10729430Y-5717584D01*
X10848473Y-5849795D01*
X10937427Y-6003867D01*
X10992404Y-6173067D01*
X11011000Y-6350000D01*
X10992404Y-6526933D01*
X10937427Y-6696133D01*
X10848473Y-6850205D01*
X10729430Y-6982416D01*
X10585500Y-7086988D01*
X10422973Y-7159349D01*
X10248954Y-7196338D01*
X10071046Y-7196338D01*
X9897027Y-7159349D01*
X9734500Y-7086988D01*
X9590570Y-6982416D01*
X9471527Y-6850205D01*
X9382573Y-6696133D01*
X9327596Y-6526933D01*
X9309000Y-6350000D01*
X9327596Y-6173067D01*
X9382573Y-6003867D01*
X9471527Y-5849795D01*
X9590570Y-5717584D01*
X9734500Y-5613012D01*
X9897027Y-5540651D01*
X10071046Y-5503662D01*
X10248954Y-5503662D01*
X10422973Y-5540651D01*
G37*
G36*
X12962973Y-5540651D02*
G01*
X13125500Y-5613012D01*
X13269430Y-5717584D01*
X13388473Y-5849795D01*
X13477427Y-6003867D01*
X13532404Y-6173067D01*
X13551000Y-6350000D01*
X13532404Y-6526933D01*
X13477427Y-6696133D01*
X13388473Y-6850205D01*
X13269430Y-6982416D01*
X13125500Y-7086988D01*
X12962973Y-7159349D01*
X12788954Y-7196338D01*
X12611046Y-7196338D01*
X12437027Y-7159349D01*
X12274500Y-7086988D01*
X12130570Y-6982416D01*
X12011527Y-6850205D01*
X11922573Y-6696133D01*
X11867596Y-6526933D01*
X11849000Y-6350000D01*
X11867596Y-6173067D01*
X11922573Y-6003867D01*
X12011527Y-5849795D01*
X12130570Y-5717584D01*
X12274500Y-5613012D01*
X12437027Y-5540651D01*
X12611046Y-5503662D01*
X12788954Y-5503662D01*
X12962973Y-5540651D01*
G37*
G36*
X15502973Y-5540651D02*
G01*
X15665500Y-5613012D01*
X15809430Y-5717584D01*
X15928473Y-5849795D01*
X16017427Y-6003867D01*
X16072404Y-6173067D01*
X16091000Y-6350000D01*
X16072404Y-6526933D01*
X16017427Y-6696133D01*
X15928473Y-6850205D01*
X15809430Y-6982416D01*
X15665500Y-7086988D01*
X15502973Y-7159349D01*
X15328954Y-7196338D01*
X15151046Y-7196338D01*
X14977027Y-7159349D01*
X14814500Y-7086988D01*
X14670570Y-6982416D01*
X14551527Y-6850205D01*
X14462573Y-6696133D01*
X14407596Y-6526933D01*
X14389000Y-6350000D01*
X14407596Y-6173067D01*
X14462573Y-6003867D01*
X14551527Y-5849795D01*
X14670570Y-5717584D01*
X14814500Y-5613012D01*
X14977027Y-5540651D01*
X15151046Y-5503662D01*
X15328954Y-5503662D01*
X15502973Y-5540651D01*
G37*
G36*
X18042973Y-5540651D02*
G01*
X18205500Y-5613012D01*
X18349430Y-5717584D01*
X18468473Y-5849795D01*
X18557427Y-6003867D01*
X18612404Y-6173067D01*
X18631000Y-6350000D01*
X18612404Y-6526933D01*
X18557427Y-6696133D01*
X18468473Y-6850205D01*
X18349430Y-6982416D01*
X18205500Y-7086988D01*
X18042973Y-7159349D01*
X17868954Y-7196338D01*
X17691046Y-7196338D01*
X17517027Y-7159349D01*
X17354500Y-7086988D01*
X17210570Y-6982416D01*
X17091527Y-6850205D01*
X17002573Y-6696133D01*
X16947596Y-6526933D01*
X16929000Y-6350000D01*
X16947596Y-6173067D01*
X17002573Y-6003867D01*
X17091527Y-5849795D01*
X17210570Y-5717584D01*
X17354500Y-5613012D01*
X17517027Y-5540651D01*
X17691046Y-5503662D01*
X17868954Y-5503662D01*
X18042973Y-5540651D01*
G37*
G36*
X20582973Y-5540651D02*
G01*
X20745500Y-5613012D01*
X20889430Y-5717584D01*
X21008473Y-5849795D01*
X21097427Y-6003867D01*
X21152404Y-6173067D01*
X21171000Y-6350000D01*
X21152404Y-6526933D01*
X21097427Y-6696133D01*
X21008473Y-6850205D01*
X20889430Y-6982416D01*
X20745500Y-7086988D01*
X20582973Y-7159349D01*
X20408954Y-7196338D01*
X20231046Y-7196338D01*
X20057027Y-7159349D01*
X19894500Y-7086988D01*
X19750570Y-6982416D01*
X19631527Y-6850205D01*
X19542573Y-6696133D01*
X19487596Y-6526933D01*
X19469000Y-6350000D01*
X19487596Y-6173067D01*
X19542573Y-6003867D01*
X19631527Y-5849795D01*
X19750570Y-5717584D01*
X19894500Y-5613012D01*
X20057027Y-5540651D01*
X20231046Y-5503662D01*
X20408954Y-5503662D01*
X20582973Y-5540651D01*
G37*
G36*
X23122973Y-5540651D02*
G01*
X23285500Y-5613012D01*
X23429430Y-5717584D01*
X23548473Y-5849795D01*
X23637427Y-6003867D01*
X23692404Y-6173067D01*
X23711000Y-6350000D01*
X23692404Y-6526933D01*
X23637427Y-6696133D01*
X23548473Y-6850205D01*
X23429430Y-6982416D01*
X23285500Y-7086988D01*
X23122973Y-7159349D01*
X22948954Y-7196338D01*
X22771046Y-7196338D01*
X22597027Y-7159349D01*
X22434500Y-7086988D01*
X22290570Y-6982416D01*
X22171527Y-6850205D01*
X22082573Y-6696133D01*
X22027596Y-6526933D01*
X22009000Y-6350000D01*
X22027596Y-6173067D01*
X22082573Y-6003867D01*
X22171527Y-5849795D01*
X22290570Y-5717584D01*
X22434500Y-5613012D01*
X22597027Y-5540651D01*
X22771046Y-5503662D01*
X22948954Y-5503662D01*
X23122973Y-5540651D01*
G37*
G36*
X28202973Y-5540651D02*
G01*
X28365500Y-5613012D01*
X28509430Y-5717584D01*
X28628473Y-5849795D01*
X28717427Y-6003867D01*
X28772404Y-6173067D01*
X28791000Y-6350000D01*
X28772404Y-6526933D01*
X28717427Y-6696133D01*
X28628473Y-6850205D01*
X28509430Y-6982416D01*
X28365500Y-7086988D01*
X28202973Y-7159349D01*
X28028954Y-7196338D01*
X27851046Y-7196338D01*
X27677027Y-7159349D01*
X27514500Y-7086988D01*
X27370570Y-6982416D01*
X27251527Y-6850205D01*
X27162573Y-6696133D01*
X27107596Y-6526933D01*
X27089000Y-6350000D01*
X27107596Y-6173067D01*
X27162573Y-6003867D01*
X27251527Y-5849795D01*
X27370570Y-5717584D01*
X27514500Y-5613012D01*
X27677027Y-5540651D01*
X27851046Y-5503662D01*
X28028954Y-5503662D01*
X28202973Y-5540651D01*
G37*
G36*
X30742973Y-5540651D02*
G01*
X30905500Y-5613012D01*
X31049430Y-5717584D01*
X31168473Y-5849795D01*
X31257427Y-6003867D01*
X31312404Y-6173067D01*
X31331000Y-6350000D01*
X31312404Y-6526933D01*
X31257427Y-6696133D01*
X31168473Y-6850205D01*
X31049430Y-6982416D01*
X30905500Y-7086988D01*
X30742973Y-7159349D01*
X30568954Y-7196338D01*
X30391046Y-7196338D01*
X30217027Y-7159349D01*
X30054500Y-7086988D01*
X29910570Y-6982416D01*
X29791527Y-6850205D01*
X29702573Y-6696133D01*
X29647596Y-6526933D01*
X29629000Y-6350000D01*
X29647596Y-6173067D01*
X29702573Y-6003867D01*
X29791527Y-5849795D01*
X29910570Y-5717584D01*
X30054500Y-5613012D01*
X30217027Y-5540651D01*
X30391046Y-5503662D01*
X30568954Y-5503662D01*
X30742973Y-5540651D01*
G37*
G36*
X33282973Y-5540651D02*
G01*
X33445500Y-5613012D01*
X33589430Y-5717584D01*
X33708473Y-5849795D01*
X33797427Y-6003867D01*
X33852404Y-6173067D01*
X33871000Y-6350000D01*
X33852404Y-6526933D01*
X33797427Y-6696133D01*
X33708473Y-6850205D01*
X33589430Y-6982416D01*
X33445500Y-7086988D01*
X33282973Y-7159349D01*
X33108954Y-7196338D01*
X32931046Y-7196338D01*
X32757027Y-7159349D01*
X32594500Y-7086988D01*
X32450570Y-6982416D01*
X32331527Y-6850205D01*
X32242573Y-6696133D01*
X32187596Y-6526933D01*
X32169000Y-6350000D01*
X32187596Y-6173067D01*
X32242573Y-6003867D01*
X32331527Y-5849795D01*
X32450570Y-5717584D01*
X32594500Y-5613012D01*
X32757027Y-5540651D01*
X32931046Y-5503662D01*
X33108954Y-5503662D01*
X33282973Y-5540651D01*
G37*
G36*
X35822973Y-5540651D02*
G01*
X35985500Y-5613012D01*
X36129430Y-5717584D01*
X36248473Y-5849795D01*
X36337427Y-6003867D01*
X36392404Y-6173067D01*
X36411000Y-6350000D01*
X36392404Y-6526933D01*
X36337427Y-6696133D01*
X36248473Y-6850205D01*
X36129430Y-6982416D01*
X35985500Y-7086988D01*
X35822973Y-7159349D01*
X35648954Y-7196338D01*
X35471046Y-7196338D01*
X35297027Y-7159349D01*
X35134500Y-7086988D01*
X34990570Y-6982416D01*
X34871527Y-6850205D01*
X34782573Y-6696133D01*
X34727596Y-6526933D01*
X34709000Y-6350000D01*
X34727596Y-6173067D01*
X34782573Y-6003867D01*
X34871527Y-5849795D01*
X34990570Y-5717584D01*
X35134500Y-5613012D01*
X35297027Y-5540651D01*
X35471046Y-5503662D01*
X35648954Y-5503662D01*
X35822973Y-5540651D01*
G37*
G36*
X38362973Y-5540651D02*
G01*
X38525500Y-5613012D01*
X38669430Y-5717584D01*
X38788473Y-5849795D01*
X38877427Y-6003867D01*
X38932404Y-6173067D01*
X38951000Y-6350000D01*
X38932404Y-6526933D01*
X38877427Y-6696133D01*
X38788473Y-6850205D01*
X38669430Y-6982416D01*
X38525500Y-7086988D01*
X38362973Y-7159349D01*
X38188954Y-7196338D01*
X38011046Y-7196338D01*
X37837027Y-7159349D01*
X37674500Y-7086988D01*
X37530570Y-6982416D01*
X37411527Y-6850205D01*
X37322573Y-6696133D01*
X37267596Y-6526933D01*
X37249000Y-6350000D01*
X37267596Y-6173067D01*
X37322573Y-6003867D01*
X37411527Y-5849795D01*
X37530570Y-5717584D01*
X37674500Y-5613012D01*
X37837027Y-5540651D01*
X38011046Y-5503662D01*
X38188954Y-5503662D01*
X38362973Y-5540651D01*
G37*
G36*
X40902973Y-5540651D02*
G01*
X41065500Y-5613012D01*
X41209430Y-5717584D01*
X41328473Y-5849795D01*
X41417427Y-6003867D01*
X41472404Y-6173067D01*
X41491000Y-6350000D01*
X41472404Y-6526933D01*
X41417427Y-6696133D01*
X41328473Y-6850205D01*
X41209430Y-6982416D01*
X41065500Y-7086988D01*
X40902973Y-7159349D01*
X40728954Y-7196338D01*
X40551046Y-7196338D01*
X40377027Y-7159349D01*
X40214500Y-7086988D01*
X40070570Y-6982416D01*
X39951527Y-6850205D01*
X39862573Y-6696133D01*
X39807596Y-6526933D01*
X39789000Y-6350000D01*
X39807596Y-6173067D01*
X39862573Y-6003867D01*
X39951527Y-5849795D01*
X40070570Y-5717584D01*
X40214500Y-5613012D01*
X40377027Y-5540651D01*
X40551046Y-5503662D01*
X40728954Y-5503662D01*
X40902973Y-5540651D01*
G37*
G36*
X43442973Y-5540651D02*
G01*
X43605500Y-5613012D01*
X43749430Y-5717584D01*
X43868473Y-5849795D01*
X43957427Y-6003867D01*
X44012404Y-6173067D01*
X44031000Y-6350000D01*
X44012404Y-6526933D01*
X43957427Y-6696133D01*
X43868473Y-6850205D01*
X43749430Y-6982416D01*
X43605500Y-7086988D01*
X43442973Y-7159349D01*
X43268954Y-7196338D01*
X43091046Y-7196338D01*
X42917027Y-7159349D01*
X42754500Y-7086988D01*
X42610570Y-6982416D01*
X42491527Y-6850205D01*
X42402573Y-6696133D01*
X42347596Y-6526933D01*
X42329000Y-6350000D01*
X42347596Y-6173067D01*
X42402573Y-6003867D01*
X42491527Y-5849795D01*
X42610570Y-5717584D01*
X42754500Y-5613012D01*
X42917027Y-5540651D01*
X43091046Y-5503662D01*
X43268954Y-5503662D01*
X43442973Y-5540651D01*
G37*
G36*
X45982973Y-5540651D02*
G01*
X46145500Y-5613012D01*
X46289430Y-5717584D01*
X46408473Y-5849795D01*
X46497427Y-6003867D01*
X46552404Y-6173067D01*
X46571000Y-6350000D01*
X46552404Y-6526933D01*
X46497427Y-6696133D01*
X46408473Y-6850205D01*
X46289430Y-6982416D01*
X46145500Y-7086988D01*
X45982973Y-7159349D01*
X45808954Y-7196338D01*
X45631046Y-7196338D01*
X45457027Y-7159349D01*
X45294500Y-7086988D01*
X45150570Y-6982416D01*
X45031527Y-6850205D01*
X44942573Y-6696133D01*
X44887596Y-6526933D01*
X44869000Y-6350000D01*
X44887596Y-6173067D01*
X44942573Y-6003867D01*
X45031527Y-5849795D01*
X45150570Y-5717584D01*
X45294500Y-5613012D01*
X45457027Y-5540651D01*
X45631046Y-5503662D01*
X45808954Y-5503662D01*
X45982973Y-5540651D01*
G37*
G36*
X53490069Y-6486446D02*
G01*
X53543112Y-6521888D01*
X53578554Y-6574931D01*
X53591000Y-6637500D01*
X53591000Y-6862500D01*
X53578554Y-6925069D01*
X53543112Y-6978112D01*
X53490069Y-7013554D01*
X53427500Y-7026000D01*
X52952500Y-7026000D01*
X52889931Y-7013554D01*
X52836888Y-6978112D01*
X52801446Y-6925069D01*
X52789000Y-6862500D01*
X52789000Y-6637500D01*
X52801446Y-6574931D01*
X52836888Y-6521888D01*
X52889931Y-6486446D01*
X52952500Y-6474000D01*
X53427500Y-6474000D01*
X53490069Y-6486446D01*
G37*
G36*
X51490069Y-5836446D02*
G01*
X51543112Y-5871888D01*
X51578554Y-5924931D01*
X51591000Y-5987500D01*
X51591000Y-6212500D01*
X51578554Y-6275069D01*
X51543112Y-6328112D01*
X51490069Y-6363554D01*
X51427500Y-6376000D01*
X50952500Y-6376000D01*
X50889931Y-6363554D01*
X50836888Y-6328112D01*
X50801446Y-6275069D01*
X50789000Y-6212500D01*
X50789000Y-5987500D01*
X50801446Y-5924931D01*
X50836888Y-5871888D01*
X50889931Y-5836446D01*
X50952500Y-5824000D01*
X51427500Y-5824000D01*
X51490069Y-5836446D01*
G37*
G36*
X3052630Y-1268095D02*
G01*
X3289285Y-1324911D01*
X3514139Y-1418049D01*
X3721655Y-1545215D01*
X3906723Y-1703277D01*
X4064785Y-1888345D01*
X4191951Y-2095861D01*
X4285089Y-2320715D01*
X4341905Y-2557370D01*
X4361000Y-2800000D01*
X4341905Y-3042630D01*
X4285089Y-3279285D01*
X4191951Y-3504139D01*
X4064785Y-3711655D01*
X3906723Y-3896723D01*
X3721655Y-4054785D01*
X3514139Y-4181951D01*
X3289285Y-4275089D01*
X3052630Y-4331905D01*
X2810000Y-4351000D01*
X2567370Y-4331905D01*
X2330715Y-4275089D01*
X2105861Y-4181951D01*
X1898345Y-4054785D01*
X1713277Y-3896723D01*
X1555215Y-3711655D01*
X1428049Y-3504139D01*
X1334911Y-3279285D01*
X1278095Y-3042630D01*
X1259000Y-2800000D01*
X1278095Y-2557370D01*
X1334911Y-2320715D01*
X1428049Y-2095861D01*
X1555215Y-1888345D01*
X1713277Y-1703277D01*
X1898345Y-1545215D01*
X2105861Y-1418049D01*
X2330715Y-1324911D01*
X2567370Y-1268095D01*
X2810000Y-1249000D01*
X3052630Y-1268095D01*
G37*
M02*
