%TF.GenerationSoftware,KiCad,Pcbnew,8.0.0-rc2*%
%TF.CreationDate,2024-02-11T14:56:47-08:00*%
%TF.ProjectId,fluke_884x_continuity_buzzer,666c756b-655f-4383-9834-785f636f6e74,REV1*%
%TF.SameCoordinates,Original*%
%TF.FileFunction,Copper,L3,Inr*%
%TF.FilePolarity,Positive*%
%FSLAX46Y46*%
G04 Gerber Fmt 4.6, Leading zero omitted, Abs format (unit mm)*
G04 Created by KiCad (PCBNEW 8.0.0-rc2) date 2024-02-11 14:56:47*
%MOMM*%
%LPD*%
G01*
G04 APERTURE LIST*
%TA.AperFunction,ComponentPad*%
%ADD10O,1.550000X0.890000*%
%TD*%
%TA.AperFunction,ComponentPad*%
%ADD11O,0.950000X1.250000*%
%TD*%
%TA.AperFunction,ComponentPad*%
%ADD12R,1.700000X1.700000*%
%TD*%
%TA.AperFunction,ComponentPad*%
%ADD13O,1.700000X1.700000*%
%TD*%
%TA.AperFunction,ComponentPad*%
%ADD14C,0.600000*%
%TD*%
%TA.AperFunction,ComponentPad*%
%ADD15R,2.000000X2.000000*%
%TD*%
%TA.AperFunction,ComponentPad*%
%ADD16C,2.000000*%
%TD*%
%TA.AperFunction,ComponentPad*%
%ADD17R,1.600000X1.600000*%
%TD*%
%TA.AperFunction,ComponentPad*%
%ADD18O,1.600000X1.600000*%
%TD*%
%TA.AperFunction,ComponentPad*%
%ADD19C,1.000000*%
%TD*%
%TA.AperFunction,ViaPad*%
%ADD20C,0.600000*%
%TD*%
%TA.AperFunction,Conductor*%
%ADD21C,0.150000*%
%TD*%
G04 APERTURE END LIST*
D10*
%TO.N,GND*%
%TO.C,J3*%
X69253600Y-55937500D03*
D11*
X66553600Y-54937500D03*
X66553600Y-49937500D03*
D10*
X69253600Y-48937500D03*
%TD*%
D12*
%TO.N,/~{USB_BOOT}*%
%TO.C,J2*%
X41123600Y-45225000D03*
D13*
%TO.N,GND*%
X41123600Y-47765000D03*
%TD*%
D14*
%TO.N,GND*%
%TO.C,U3*%
X21737400Y-50040400D03*
X20462400Y-50040400D03*
X19187400Y-50040400D03*
X21737400Y-51315400D03*
X20462400Y-51315400D03*
X19187400Y-51315400D03*
X21737400Y-52590400D03*
X20462400Y-52590400D03*
X19187400Y-52590400D03*
%TD*%
D15*
%TO.N,/GPIO28_ADC2*%
%TO.C,LS1*%
X65640000Y-36300000D03*
D16*
%TO.N,/GPIO29_ADC3*%
X55640000Y-36300000D03*
%TD*%
D17*
%TO.N,/PDP*%
%TO.C,P204*%
X22860000Y-6350000D03*
D18*
%TO.N,/PS1*%
X20320000Y-6350000D03*
%TO.N,/Pd*%
X17780000Y-6350000D03*
%TO.N,/Pe*%
X15240000Y-6350000D03*
%TO.N,/Pf*%
X12700000Y-6350000D03*
%TO.N,/Pg*%
X10160000Y-6350000D03*
%TO.N,/PS3*%
X7620000Y-6350000D03*
%TO.N,/PS2*%
X5080000Y-6350000D03*
%TO.N,/Pb*%
X5080000Y-13970000D03*
%TO.N,/Pa*%
X7620000Y-13970000D03*
%TO.N,/Pc*%
X10160000Y-13970000D03*
%TO.N,/G0*%
X12700000Y-13970000D03*
%TO.N,/G1*%
X15240000Y-13970000D03*
%TO.N,/G4*%
X17780000Y-13970000D03*
%TO.N,/G3*%
X20320000Y-13970000D03*
%TO.N,/G2*%
X22860000Y-13970000D03*
%TD*%
D17*
%TO.N,/PDP*%
%TO.C,J204*%
X22860000Y-20320000D03*
D18*
%TO.N,/PS1*%
X20320000Y-20320000D03*
%TO.N,/Pd*%
X17780000Y-20320000D03*
%TO.N,/Pe*%
X15240000Y-20320000D03*
%TO.N,/Pf*%
X12700000Y-20320000D03*
%TO.N,/Pg*%
X10160000Y-20320000D03*
%TO.N,/PS3*%
X7620000Y-20320000D03*
%TO.N,/PS2*%
X5080000Y-20320000D03*
%TO.N,/Pb*%
X5080000Y-27940000D03*
%TO.N,/Pa*%
X7620000Y-27940000D03*
%TO.N,/Pc*%
X10160000Y-27940000D03*
%TO.N,/G0*%
X12700000Y-27940000D03*
%TO.N,/G1*%
X15240000Y-27940000D03*
%TO.N,/G4*%
X17780000Y-27940000D03*
%TO.N,/G3*%
X20320000Y-27940000D03*
%TO.N,/G2*%
X22860000Y-27940000D03*
%TD*%
D17*
%TO.N,/F1*%
%TO.C,J203*%
X45720000Y-20320000D03*
D18*
%TO.N,/F2*%
X43180000Y-20320000D03*
%TO.N,/S2*%
X40640000Y-20320000D03*
%TO.N,/S1*%
X38100000Y-20320000D03*
%TO.N,/S0*%
X35560000Y-20320000D03*
%TO.N,/G5*%
X33020000Y-20320000D03*
%TO.N,/G7*%
X30480000Y-20320000D03*
%TO.N,/G6*%
X27940000Y-20320000D03*
%TO.N,/RL0*%
X27940000Y-27940000D03*
%TO.N,/RL1*%
X30480000Y-27940000D03*
%TO.N,/RL6*%
X33020000Y-27940000D03*
%TO.N,/RL4*%
X35560000Y-27940000D03*
%TO.N,/RL2*%
X38100000Y-27940000D03*
%TO.N,/RL5*%
X40640000Y-27940000D03*
%TO.N,/RL3*%
X43180000Y-27940000D03*
%TO.N,GND*%
X45720000Y-27940000D03*
%TD*%
D19*
%TO.N,GND*%
%TO.C,TP1*%
X64460000Y-23200000D03*
%TD*%
D17*
%TO.N,/F1*%
%TO.C,P203*%
X45720000Y-6350000D03*
D18*
%TO.N,/F2*%
X43180000Y-6350000D03*
%TO.N,/S2*%
X40640000Y-6350000D03*
%TO.N,/S1*%
X38100000Y-6350000D03*
%TO.N,/S0*%
X35560000Y-6350000D03*
%TO.N,/G5*%
X33020000Y-6350000D03*
%TO.N,/G7*%
X30480000Y-6350000D03*
%TO.N,/G6*%
X27940000Y-6350000D03*
%TO.N,/RL0*%
X27940000Y-13970000D03*
%TO.N,/RL1*%
X30480000Y-13970000D03*
%TO.N,/RL6*%
X33020000Y-13970000D03*
%TO.N,/RL4*%
X35560000Y-13970000D03*
%TO.N,/RL2*%
X38100000Y-13970000D03*
%TO.N,/RL5*%
X40640000Y-13970000D03*
%TO.N,/RL3*%
X43180000Y-13970000D03*
%TO.N,GND*%
X45720000Y-13970000D03*
%TD*%
D20*
%TO.N,GND*%
X58460000Y-23600000D03*
X9062400Y-48115400D03*
X62210000Y-19000000D03*
X12680400Y-51696400D03*
X19023600Y-58200000D03*
X9062400Y-41405400D03*
X64404000Y-51137500D03*
X29262000Y-50315400D03*
X57060000Y-23600000D03*
X11462400Y-46489400D03*
X34225000Y-56050000D03*
X12680400Y-52815400D03*
X59760000Y-23600000D03*
X33962000Y-34390400D03*
X37663000Y-46015400D03*
X61260000Y-22100000D03*
X57060000Y-22100000D03*
X28262000Y-55315400D03*
X67754000Y-54777900D03*
X9062400Y-50105400D03*
X58460000Y-22100000D03*
X23823600Y-44800000D03*
X9062400Y-56805400D03*
X5930600Y-41405400D03*
X59760000Y-22100000D03*
X13505900Y-50870900D03*
X28262000Y-54315400D03*
X29262000Y-51315400D03*
X34225000Y-55050000D03*
X61260000Y-23600000D03*
X11473900Y-52077400D03*
X13632900Y-48394400D03*
X31263000Y-42115400D03*
X67854000Y-51340200D03*
X7562400Y-49205400D03*
X5362400Y-56805400D03*
X19603600Y-43450000D03*
%TO.N,+3V3*%
X25140000Y-54400000D03*
X37360000Y-54950000D03*
X17944800Y-50378800D03*
X17235000Y-38300000D03*
X7360000Y-38400000D03*
X12460000Y-38300000D03*
X19160000Y-34000000D03*
X24860000Y-34200000D03*
X14160000Y-34200000D03*
X49460000Y-39500000D03*
X24160000Y-38400000D03*
X25920400Y-51665400D03*
X21590000Y-42650000D03*
X2060000Y-38400000D03*
X49460000Y-35900000D03*
X8460000Y-34600000D03*
X20240000Y-44050000D03*
X18097100Y-53680800D03*
X30310000Y-37750000D03*
X49460000Y-37200000D03*
X24890000Y-45150000D03*
X49460000Y-38400000D03*
%TO.N,+1V1*%
X22562400Y-52015400D03*
X25262400Y-51115400D03*
X18362400Y-51915400D03*
X15262400Y-52115400D03*
%TO.N,/QSPI_SS*%
X24199500Y-48149800D03*
X36992000Y-42755500D03*
%TO.N,/RL0*%
X33240000Y-30350000D03*
%TO.N,/RL1*%
X32740000Y-29700000D03*
%TO.N,G0_3V*%
X19953600Y-57250000D03*
X12787400Y-33726900D03*
%TO.N,G1_3V*%
X15297100Y-37059800D03*
X19953600Y-58150000D03*
%TO.N,G2_3V*%
X18179600Y-46904800D03*
X22911000Y-33620400D03*
%TO.N,G6_3V*%
X18262400Y-43721600D03*
X25081400Y-36376900D03*
%TO.N,PA_3V*%
X7349100Y-34783000D03*
X14523600Y-54100000D03*
%TO.N,PB_3V*%
X5116900Y-36986400D03*
X12823600Y-54200000D03*
%TO.N,PC_3V*%
X10716000Y-37207400D03*
X16023600Y-53500000D03*
%TO.N,PE_3V*%
X14612600Y-33193200D03*
X21190000Y-57700000D03*
%TO.N,PG_3V*%
X15352700Y-53835400D03*
X9660000Y-34300000D03*
%TO.N,PS2_3V*%
X11823600Y-54200000D03*
X3292200Y-37515700D03*
%TO.N,PS3_3V*%
X5696500Y-42730800D03*
X13623600Y-54100000D03*
%TO.N,/GPIO26_ADC0*%
X43140000Y-50900000D03*
X42990000Y-56450000D03*
%TO.N,/GPIO29_ADC3*%
X40392000Y-57084700D03*
%TO.N,/GPIO27_ADC1*%
X40665000Y-38477700D03*
X22226900Y-56614500D03*
%TO.N,/GPIO28_ADC2*%
X41280000Y-56939500D03*
%TO.N,RL0_3V*%
X31542000Y-38474200D03*
X19062400Y-48862300D03*
%TO.N,RL1_3V*%
X22451600Y-43757900D03*
X35877000Y-38544700D03*
%TO.N,RL2_3V*%
X37897000Y-38455800D03*
X21884700Y-48771300D03*
%TO.N,RL3_3V*%
X22777300Y-48775700D03*
X39365000Y-38932000D03*
%TO.N,RL4_3V*%
X36991000Y-38463700D03*
X21702700Y-46983800D03*
%TO.N,RL5_3V*%
X38739000Y-38469300D03*
X22591400Y-46269400D03*
%TO.N,RL6_3V*%
X20578500Y-48966200D03*
X36573000Y-36062100D03*
%TO.N,Net-(D1-K)*%
X60840000Y-12450000D03*
X31590000Y-33350000D03*
%TO.N,/VBUS*%
X64240000Y-54800000D03*
X29040000Y-36850000D03*
%TO.N,+5V*%
X49090000Y-12850000D03*
X53740000Y-8100000D03*
%TO.N,PF_3V*%
X13598600Y-37545500D03*
X19953600Y-56450000D03*
X16637400Y-57395700D03*
%TD*%
D21*
%TO.N,/QSPI_SS*%
X24199500Y-48149800D02*
X29594000Y-42755500D01*
X29594000Y-42755500D02*
X36992000Y-42755500D01*
%TO.N,G6_3V*%
X18262400Y-43721600D02*
X18262400Y-43195900D01*
X18262400Y-43195900D02*
X25081400Y-36376900D01*
%TO.N,/GPIO29_ADC3*%
X60290000Y-37186600D02*
X60290000Y-36300000D01*
X60290000Y-36300000D02*
X55640000Y-36300000D01*
X40392000Y-57084700D02*
X60290000Y-37186600D01*
%TO.N,/GPIO27_ADC1*%
X24720000Y-56614500D02*
X40665000Y-40669500D01*
X40665000Y-40669500D02*
X40665000Y-38477700D01*
X22226900Y-56614500D02*
X24720000Y-56614500D01*
%TO.N,/GPIO28_ADC2*%
X61919000Y-36300000D02*
X65640000Y-36300000D01*
X41280000Y-56939500D02*
X61919000Y-36300000D01*
%TO.N,RL0_3V*%
X31542000Y-38474200D02*
X30859000Y-39156400D01*
X30859000Y-39156400D02*
X28359000Y-39156400D01*
X28359000Y-39156400D02*
X19062400Y-48452600D01*
X19062400Y-48452600D02*
X19062400Y-48862300D01*
%TO.N,RL2_3V*%
X23080000Y-47576000D02*
X24053500Y-47576000D01*
X24053500Y-47576000D02*
X30091000Y-41538400D01*
X30091000Y-41538400D02*
X34815000Y-41538400D01*
X34815000Y-41538400D02*
X37897000Y-38455800D01*
X21884700Y-48771300D02*
X23080000Y-47576000D01*
%TO.N,RL3_3V*%
X39365000Y-41130600D02*
X31720000Y-48775700D01*
X31720000Y-48775700D02*
X22777300Y-48775700D01*
X39365000Y-38932000D02*
X39365000Y-41130600D01*
%TO.N,RL4_3V*%
X36991000Y-38463700D02*
X35311000Y-40143600D01*
X24219000Y-46983800D02*
X21702700Y-46983800D01*
X35311000Y-40143600D02*
X31059000Y-40143600D01*
X31059000Y-40143600D02*
X24219000Y-46983800D01*
%TO.N,RL6_3V*%
X24363300Y-44931900D02*
X24363300Y-45041100D01*
X36573000Y-36062100D02*
X34714000Y-36062100D01*
X24363300Y-45041100D02*
X24036100Y-45368300D01*
X22573400Y-45368300D02*
X20578500Y-47363200D01*
X26152800Y-44623300D02*
X24671900Y-44623300D01*
X24671900Y-44623300D02*
X24363300Y-44931900D01*
X20578500Y-47363200D02*
X20578500Y-48966200D01*
X24036100Y-45368300D02*
X22573400Y-45368300D01*
X34714000Y-36062100D02*
X26152800Y-44623300D01*
%TO.N,PF_3V*%
X16637400Y-57395700D02*
X17583100Y-56450000D01*
X17583100Y-56450000D02*
X19953600Y-56450000D01*
%TD*%
M02*
