%TF.GenerationSoftware,KiCad,Pcbnew,8.0.0-rc2*%
%TF.CreationDate,2024-02-11T10:59:49-08:00*%
%TF.ProjectId,fluke_884x_continuity_buzzer,666c756b-655f-4383-9834-785f636f6e74,REV1*%
%TF.SameCoordinates,Original*%
%TF.FileFunction,Soldermask,Top*%
%TF.FilePolarity,Negative*%
%FSLAX46Y46*%
G04 Gerber Fmt 4.6, Leading zero omitted, Abs format (unit mm)*
G04 Created by KiCad (PCBNEW 8.0.0-rc2) date 2024-02-11 10:59:49*
%MOMM*%
%LPD*%
G01*
G04 APERTURE LIST*
G04 APERTURE END LIST*
G36*
X19266693Y-57043539D02*
G01*
X19328657Y-57084943D01*
X19370061Y-57146907D01*
X19384600Y-57220000D01*
X19384600Y-57500000D01*
X19370061Y-57573093D01*
X19328657Y-57635057D01*
X19266693Y-57676461D01*
X19193600Y-57691000D01*
X18853600Y-57691000D01*
X18780507Y-57676461D01*
X18718543Y-57635057D01*
X18677139Y-57573093D01*
X18662600Y-57500000D01*
X18662600Y-57220000D01*
X18677139Y-57146907D01*
X18718543Y-57084943D01*
X18780507Y-57043539D01*
X18853600Y-57029000D01*
X19193600Y-57029000D01*
X19266693Y-57043539D01*
G37*
G36*
X19266693Y-56083539D02*
G01*
X19328657Y-56124943D01*
X19370061Y-56186907D01*
X19384600Y-56260000D01*
X19384600Y-56540000D01*
X19370061Y-56613093D01*
X19328657Y-56675057D01*
X19266693Y-56716461D01*
X19193600Y-56731000D01*
X18853600Y-56731000D01*
X18780507Y-56716461D01*
X18718543Y-56675057D01*
X18677139Y-56613093D01*
X18662600Y-56540000D01*
X18662600Y-56260000D01*
X18677139Y-56186907D01*
X18718543Y-56124943D01*
X18780507Y-56083539D01*
X18853600Y-56069000D01*
X19193600Y-56069000D01*
X19266693Y-56083539D01*
G37*
G36*
X8415917Y-50809282D02*
G01*
X8432462Y-50820338D01*
X8443518Y-50836883D01*
X8447400Y-50856400D01*
X8447400Y-56456400D01*
X8443518Y-56475917D01*
X8432462Y-56492462D01*
X8415917Y-56503518D01*
X8396400Y-56507400D01*
X6296400Y-56507400D01*
X6276883Y-56503518D01*
X6260338Y-56492462D01*
X6249282Y-56475917D01*
X6245400Y-56456400D01*
X6245400Y-50856400D01*
X6249282Y-50836883D01*
X6260338Y-50820338D01*
X6276883Y-50809282D01*
X6296400Y-50805400D01*
X8396400Y-50805400D01*
X8415917Y-50809282D01*
G37*
G36*
X70048117Y-54690382D02*
G01*
X70064662Y-54701438D01*
X70075718Y-54717983D01*
X70079600Y-54737500D01*
X70079600Y-55937500D01*
X70075718Y-55957017D01*
X70075357Y-55957557D01*
X70075357Y-56002241D01*
X70041844Y-56127311D01*
X69977103Y-56239446D01*
X69885546Y-56331003D01*
X69773411Y-56395744D01*
X69648341Y-56429257D01*
X68923600Y-56433500D01*
X68858859Y-56429257D01*
X68733789Y-56395744D01*
X68621654Y-56331003D01*
X68530097Y-56239446D01*
X68465356Y-56127311D01*
X68431843Y-56002241D01*
X68431843Y-55957557D01*
X68431482Y-55957017D01*
X68427600Y-55937500D01*
X68427600Y-54737500D01*
X68431482Y-54717983D01*
X68442538Y-54701438D01*
X68459083Y-54690382D01*
X68478600Y-54686500D01*
X70028600Y-54686500D01*
X70048117Y-54690382D01*
G37*
G36*
X35473093Y-55703539D02*
G01*
X35535057Y-55744943D01*
X35576461Y-55806907D01*
X35591000Y-55880000D01*
X35591000Y-56220000D01*
X35576461Y-56293093D01*
X35535057Y-56355057D01*
X35473093Y-56396461D01*
X35400000Y-56411000D01*
X35120000Y-56411000D01*
X35046907Y-56396461D01*
X34984943Y-56355057D01*
X34943539Y-56293093D01*
X34929000Y-56220000D01*
X34929000Y-55880000D01*
X34943539Y-55806907D01*
X34984943Y-55744943D01*
X35046907Y-55703539D01*
X35120000Y-55689000D01*
X35400000Y-55689000D01*
X35473093Y-55703539D01*
G37*
G36*
X36433093Y-55703539D02*
G01*
X36495057Y-55744943D01*
X36536461Y-55806907D01*
X36551000Y-55880000D01*
X36551000Y-56220000D01*
X36536461Y-56293093D01*
X36495057Y-56355057D01*
X36433093Y-56396461D01*
X36360000Y-56411000D01*
X36080000Y-56411000D01*
X36006907Y-56396461D01*
X35944943Y-56355057D01*
X35903539Y-56293093D01*
X35889000Y-56220000D01*
X35889000Y-55880000D01*
X35903539Y-55806907D01*
X35944943Y-55744943D01*
X36006907Y-55703539D01*
X36080000Y-55689000D01*
X36360000Y-55689000D01*
X36433093Y-55703539D01*
G37*
G36*
X26680493Y-54968939D02*
G01*
X26742457Y-55010343D01*
X26783861Y-55072307D01*
X26798400Y-55145400D01*
X26798400Y-55485400D01*
X26783861Y-55558493D01*
X26742457Y-55620457D01*
X26680493Y-55661861D01*
X26607400Y-55676400D01*
X26327400Y-55676400D01*
X26254307Y-55661861D01*
X26192343Y-55620457D01*
X26150939Y-55558493D01*
X26136400Y-55485400D01*
X26136400Y-55145400D01*
X26150939Y-55072307D01*
X26192343Y-55010343D01*
X26254307Y-54968939D01*
X26327400Y-54954400D01*
X26607400Y-54954400D01*
X26680493Y-54968939D01*
G37*
G36*
X27640493Y-54968939D02*
G01*
X27702457Y-55010343D01*
X27743861Y-55072307D01*
X27758400Y-55145400D01*
X27758400Y-55485400D01*
X27743861Y-55558493D01*
X27702457Y-55620457D01*
X27640493Y-55661861D01*
X27567400Y-55676400D01*
X27287400Y-55676400D01*
X27214307Y-55661861D01*
X27152343Y-55620457D01*
X27110939Y-55558493D01*
X27096400Y-55485400D01*
X27096400Y-55145400D01*
X27110939Y-55072307D01*
X27152343Y-55010343D01*
X27214307Y-54968939D01*
X27287400Y-54954400D01*
X27567400Y-54954400D01*
X27640493Y-54968939D01*
G37*
G36*
X66754891Y-54301539D02*
G01*
X66873809Y-54370196D01*
X66970904Y-54467291D01*
X67039561Y-54586209D01*
X67075100Y-54718843D01*
X67079600Y-55087500D01*
X67075100Y-55156157D01*
X67039561Y-55288791D01*
X66970904Y-55407709D01*
X66873809Y-55504804D01*
X66754891Y-55573461D01*
X66622257Y-55609000D01*
X66484943Y-55609000D01*
X66352309Y-55573461D01*
X66233391Y-55504804D01*
X66136296Y-55407709D01*
X66067639Y-55288791D01*
X66032100Y-55156157D01*
X66027600Y-54787500D01*
X66032100Y-54718843D01*
X66067639Y-54586209D01*
X66136296Y-54467291D01*
X66233391Y-54370196D01*
X66352309Y-54301539D01*
X66484943Y-54266000D01*
X66622257Y-54266000D01*
X66754891Y-54301539D01*
G37*
G36*
X17951051Y-54272088D02*
G01*
X17983818Y-54293982D01*
X18005712Y-54326749D01*
X18013400Y-54365400D01*
X18013400Y-55140400D01*
X18005712Y-55179051D01*
X17983818Y-55211818D01*
X17951051Y-55233712D01*
X17912400Y-55241400D01*
X17812400Y-55241400D01*
X17773749Y-55233712D01*
X17740982Y-55211818D01*
X17719088Y-55179051D01*
X17711400Y-55140400D01*
X17711400Y-54365400D01*
X17719088Y-54326749D01*
X17740982Y-54293982D01*
X17773749Y-54272088D01*
X17812400Y-54264400D01*
X17912400Y-54264400D01*
X17951051Y-54272088D01*
G37*
G36*
X18351051Y-54272088D02*
G01*
X18383818Y-54293982D01*
X18405712Y-54326749D01*
X18413400Y-54365400D01*
X18413400Y-55140400D01*
X18405712Y-55179051D01*
X18383818Y-55211818D01*
X18351051Y-55233712D01*
X18312400Y-55241400D01*
X18212400Y-55241400D01*
X18173749Y-55233712D01*
X18140982Y-55211818D01*
X18119088Y-55179051D01*
X18111400Y-55140400D01*
X18111400Y-54365400D01*
X18119088Y-54326749D01*
X18140982Y-54293982D01*
X18173749Y-54272088D01*
X18212400Y-54264400D01*
X18312400Y-54264400D01*
X18351051Y-54272088D01*
G37*
G36*
X18751051Y-54272088D02*
G01*
X18783818Y-54293982D01*
X18805712Y-54326749D01*
X18813400Y-54365400D01*
X18813400Y-55140400D01*
X18805712Y-55179051D01*
X18783818Y-55211818D01*
X18751051Y-55233712D01*
X18712400Y-55241400D01*
X18612400Y-55241400D01*
X18573749Y-55233712D01*
X18540982Y-55211818D01*
X18519088Y-55179051D01*
X18511400Y-55140400D01*
X18511400Y-54365400D01*
X18519088Y-54326749D01*
X18540982Y-54293982D01*
X18573749Y-54272088D01*
X18612400Y-54264400D01*
X18712400Y-54264400D01*
X18751051Y-54272088D01*
G37*
G36*
X19151051Y-54272088D02*
G01*
X19183818Y-54293982D01*
X19205712Y-54326749D01*
X19213400Y-54365400D01*
X19213400Y-55140400D01*
X19205712Y-55179051D01*
X19183818Y-55211818D01*
X19151051Y-55233712D01*
X19112400Y-55241400D01*
X19012400Y-55241400D01*
X18973749Y-55233712D01*
X18940982Y-55211818D01*
X18919088Y-55179051D01*
X18911400Y-55140400D01*
X18911400Y-54365400D01*
X18919088Y-54326749D01*
X18940982Y-54293982D01*
X18973749Y-54272088D01*
X19012400Y-54264400D01*
X19112400Y-54264400D01*
X19151051Y-54272088D01*
G37*
G36*
X19551051Y-54272088D02*
G01*
X19583818Y-54293982D01*
X19605712Y-54326749D01*
X19613400Y-54365400D01*
X19613400Y-55140400D01*
X19605712Y-55179051D01*
X19583818Y-55211818D01*
X19551051Y-55233712D01*
X19512400Y-55241400D01*
X19412400Y-55241400D01*
X19373749Y-55233712D01*
X19340982Y-55211818D01*
X19319088Y-55179051D01*
X19311400Y-55140400D01*
X19311400Y-54365400D01*
X19319088Y-54326749D01*
X19340982Y-54293982D01*
X19373749Y-54272088D01*
X19412400Y-54264400D01*
X19512400Y-54264400D01*
X19551051Y-54272088D01*
G37*
G36*
X19951051Y-54272088D02*
G01*
X19983818Y-54293982D01*
X20005712Y-54326749D01*
X20013400Y-54365400D01*
X20013400Y-55140400D01*
X20005712Y-55179051D01*
X19983818Y-55211818D01*
X19951051Y-55233712D01*
X19912400Y-55241400D01*
X19812400Y-55241400D01*
X19773749Y-55233712D01*
X19740982Y-55211818D01*
X19719088Y-55179051D01*
X19711400Y-55140400D01*
X19711400Y-54365400D01*
X19719088Y-54326749D01*
X19740982Y-54293982D01*
X19773749Y-54272088D01*
X19812400Y-54264400D01*
X19912400Y-54264400D01*
X19951051Y-54272088D01*
G37*
G36*
X20351051Y-54272088D02*
G01*
X20383818Y-54293982D01*
X20405712Y-54326749D01*
X20413400Y-54365400D01*
X20413400Y-55140400D01*
X20405712Y-55179051D01*
X20383818Y-55211818D01*
X20351051Y-55233712D01*
X20312400Y-55241400D01*
X20212400Y-55241400D01*
X20173749Y-55233712D01*
X20140982Y-55211818D01*
X20119088Y-55179051D01*
X20111400Y-55140400D01*
X20111400Y-54365400D01*
X20119088Y-54326749D01*
X20140982Y-54293982D01*
X20173749Y-54272088D01*
X20212400Y-54264400D01*
X20312400Y-54264400D01*
X20351051Y-54272088D01*
G37*
G36*
X20751051Y-54272088D02*
G01*
X20783818Y-54293982D01*
X20805712Y-54326749D01*
X20813400Y-54365400D01*
X20813400Y-55140400D01*
X20805712Y-55179051D01*
X20783818Y-55211818D01*
X20751051Y-55233712D01*
X20712400Y-55241400D01*
X20612400Y-55241400D01*
X20573749Y-55233712D01*
X20540982Y-55211818D01*
X20519088Y-55179051D01*
X20511400Y-55140400D01*
X20511400Y-54365400D01*
X20519088Y-54326749D01*
X20540982Y-54293982D01*
X20573749Y-54272088D01*
X20612400Y-54264400D01*
X20712400Y-54264400D01*
X20751051Y-54272088D01*
G37*
G36*
X21151051Y-54272088D02*
G01*
X21183818Y-54293982D01*
X21205712Y-54326749D01*
X21213400Y-54365400D01*
X21213400Y-55140400D01*
X21205712Y-55179051D01*
X21183818Y-55211818D01*
X21151051Y-55233712D01*
X21112400Y-55241400D01*
X21012400Y-55241400D01*
X20973749Y-55233712D01*
X20940982Y-55211818D01*
X20919088Y-55179051D01*
X20911400Y-55140400D01*
X20911400Y-54365400D01*
X20919088Y-54326749D01*
X20940982Y-54293982D01*
X20973749Y-54272088D01*
X21012400Y-54264400D01*
X21112400Y-54264400D01*
X21151051Y-54272088D01*
G37*
G36*
X21551051Y-54272088D02*
G01*
X21583818Y-54293982D01*
X21605712Y-54326749D01*
X21613400Y-54365400D01*
X21613400Y-55140400D01*
X21605712Y-55179051D01*
X21583818Y-55211818D01*
X21551051Y-55233712D01*
X21512400Y-55241400D01*
X21412400Y-55241400D01*
X21373749Y-55233712D01*
X21340982Y-55211818D01*
X21319088Y-55179051D01*
X21311400Y-55140400D01*
X21311400Y-54365400D01*
X21319088Y-54326749D01*
X21340982Y-54293982D01*
X21373749Y-54272088D01*
X21412400Y-54264400D01*
X21512400Y-54264400D01*
X21551051Y-54272088D01*
G37*
G36*
X21951051Y-54272088D02*
G01*
X21983818Y-54293982D01*
X22005712Y-54326749D01*
X22013400Y-54365400D01*
X22013400Y-55140400D01*
X22005712Y-55179051D01*
X21983818Y-55211818D01*
X21951051Y-55233712D01*
X21912400Y-55241400D01*
X21812400Y-55241400D01*
X21773749Y-55233712D01*
X21740982Y-55211818D01*
X21719088Y-55179051D01*
X21711400Y-55140400D01*
X21711400Y-54365400D01*
X21719088Y-54326749D01*
X21740982Y-54293982D01*
X21773749Y-54272088D01*
X21812400Y-54264400D01*
X21912400Y-54264400D01*
X21951051Y-54272088D01*
G37*
G36*
X22351051Y-54272088D02*
G01*
X22383818Y-54293982D01*
X22405712Y-54326749D01*
X22413400Y-54365400D01*
X22413400Y-55140400D01*
X22405712Y-55179051D01*
X22383818Y-55211818D01*
X22351051Y-55233712D01*
X22312400Y-55241400D01*
X22212400Y-55241400D01*
X22173749Y-55233712D01*
X22140982Y-55211818D01*
X22119088Y-55179051D01*
X22111400Y-55140400D01*
X22111400Y-54365400D01*
X22119088Y-54326749D01*
X22140982Y-54293982D01*
X22173749Y-54272088D01*
X22212400Y-54264400D01*
X22312400Y-54264400D01*
X22351051Y-54272088D01*
G37*
G36*
X22751051Y-54272088D02*
G01*
X22783818Y-54293982D01*
X22805712Y-54326749D01*
X22813400Y-54365400D01*
X22813400Y-55140400D01*
X22805712Y-55179051D01*
X22783818Y-55211818D01*
X22751051Y-55233712D01*
X22712400Y-55241400D01*
X22612400Y-55241400D01*
X22573749Y-55233712D01*
X22540982Y-55211818D01*
X22519088Y-55179051D01*
X22511400Y-55140400D01*
X22511400Y-54365400D01*
X22519088Y-54326749D01*
X22540982Y-54293982D01*
X22573749Y-54272088D01*
X22612400Y-54264400D01*
X22712400Y-54264400D01*
X22751051Y-54272088D01*
G37*
G36*
X23151051Y-54272088D02*
G01*
X23183818Y-54293982D01*
X23205712Y-54326749D01*
X23213400Y-54365400D01*
X23213400Y-55140400D01*
X23205712Y-55179051D01*
X23183818Y-55211818D01*
X23151051Y-55233712D01*
X23112400Y-55241400D01*
X23012400Y-55241400D01*
X22973749Y-55233712D01*
X22940982Y-55211818D01*
X22919088Y-55179051D01*
X22911400Y-55140400D01*
X22911400Y-54365400D01*
X22919088Y-54326749D01*
X22940982Y-54293982D01*
X22973749Y-54272088D01*
X23012400Y-54264400D01*
X23112400Y-54264400D01*
X23151051Y-54272088D01*
G37*
G36*
X35473093Y-54303539D02*
G01*
X35535057Y-54344943D01*
X35576461Y-54406907D01*
X35591000Y-54480000D01*
X35591000Y-54820000D01*
X35576461Y-54893093D01*
X35535057Y-54955057D01*
X35473093Y-54996461D01*
X35400000Y-55011000D01*
X35120000Y-55011000D01*
X35046907Y-54996461D01*
X34984943Y-54955057D01*
X34943539Y-54893093D01*
X34929000Y-54820000D01*
X34929000Y-54480000D01*
X34943539Y-54406907D01*
X34984943Y-54344943D01*
X35046907Y-54303539D01*
X35120000Y-54289000D01*
X35400000Y-54289000D01*
X35473093Y-54303539D01*
G37*
G36*
X36433093Y-54303539D02*
G01*
X36495057Y-54344943D01*
X36536461Y-54406907D01*
X36551000Y-54480000D01*
X36551000Y-54820000D01*
X36536461Y-54893093D01*
X36495057Y-54955057D01*
X36433093Y-54996461D01*
X36360000Y-55011000D01*
X36080000Y-55011000D01*
X36006907Y-54996461D01*
X35944943Y-54955057D01*
X35903539Y-54893093D01*
X35889000Y-54820000D01*
X35889000Y-54480000D01*
X35903539Y-54406907D01*
X35944943Y-54344943D01*
X36006907Y-54303539D01*
X36080000Y-54289000D01*
X36360000Y-54289000D01*
X36433093Y-54303539D01*
G37*
G36*
X26680493Y-53968939D02*
G01*
X26742457Y-54010343D01*
X26783861Y-54072307D01*
X26798400Y-54145400D01*
X26798400Y-54485400D01*
X26783861Y-54558493D01*
X26742457Y-54620457D01*
X26680493Y-54661861D01*
X26607400Y-54676400D01*
X26327400Y-54676400D01*
X26254307Y-54661861D01*
X26192343Y-54620457D01*
X26150939Y-54558493D01*
X26136400Y-54485400D01*
X26136400Y-54145400D01*
X26150939Y-54072307D01*
X26192343Y-54010343D01*
X26254307Y-53968939D01*
X26327400Y-53954400D01*
X26607400Y-53954400D01*
X26680493Y-53968939D01*
G37*
G36*
X27640493Y-53968939D02*
G01*
X27702457Y-54010343D01*
X27743861Y-54072307D01*
X27758400Y-54145400D01*
X27758400Y-54485400D01*
X27743861Y-54558493D01*
X27702457Y-54620457D01*
X27640493Y-54661861D01*
X27567400Y-54676400D01*
X27287400Y-54676400D01*
X27214307Y-54661861D01*
X27152343Y-54620457D01*
X27110939Y-54558493D01*
X27096400Y-54485400D01*
X27096400Y-54145400D01*
X27110939Y-54072307D01*
X27152343Y-54010343D01*
X27214307Y-53968939D01*
X27287400Y-53954400D01*
X27567400Y-53954400D01*
X27640493Y-53968939D01*
G37*
G36*
X70048117Y-52640382D02*
G01*
X70064662Y-52651438D01*
X70075718Y-52667983D01*
X70079600Y-52687500D01*
X70079600Y-54187500D01*
X70075718Y-54207017D01*
X70064662Y-54223562D01*
X70048117Y-54234618D01*
X70028600Y-54238500D01*
X68478600Y-54238500D01*
X68459083Y-54234618D01*
X68442538Y-54223562D01*
X68431482Y-54207017D01*
X68427600Y-54187500D01*
X68427600Y-52687500D01*
X68431482Y-52667983D01*
X68442538Y-52651438D01*
X68459083Y-52640382D01*
X68478600Y-52636500D01*
X70028600Y-52636500D01*
X70048117Y-52640382D01*
G37*
G36*
X17451051Y-53772088D02*
G01*
X17483818Y-53793982D01*
X17505712Y-53826749D01*
X17513400Y-53865400D01*
X17513400Y-53965400D01*
X17505712Y-54004051D01*
X17483818Y-54036818D01*
X17451051Y-54058712D01*
X17412400Y-54066400D01*
X16637400Y-54066400D01*
X16598749Y-54058712D01*
X16565982Y-54036818D01*
X16544088Y-54004051D01*
X16536400Y-53965400D01*
X16536400Y-53865400D01*
X16544088Y-53826749D01*
X16565982Y-53793982D01*
X16598749Y-53772088D01*
X16637400Y-53764400D01*
X17412400Y-53764400D01*
X17451051Y-53772088D01*
G37*
G36*
X24326051Y-53772088D02*
G01*
X24358818Y-53793982D01*
X24380712Y-53826749D01*
X24388400Y-53865400D01*
X24388400Y-53965400D01*
X24380712Y-54004051D01*
X24358818Y-54036818D01*
X24326051Y-54058712D01*
X24287400Y-54066400D01*
X23512400Y-54066400D01*
X23473749Y-54058712D01*
X23440982Y-54036818D01*
X23419088Y-54004051D01*
X23411400Y-53965400D01*
X23411400Y-53865400D01*
X23419088Y-53826749D01*
X23440982Y-53793982D01*
X23473749Y-53772088D01*
X23512400Y-53764400D01*
X24287400Y-53764400D01*
X24326051Y-53772088D01*
G37*
G36*
X67248117Y-53490382D02*
G01*
X67264662Y-53501438D01*
X67275718Y-53517983D01*
X67279600Y-53537500D01*
X67279600Y-53937500D01*
X67275718Y-53957017D01*
X67264662Y-53973562D01*
X67248117Y-53984618D01*
X67228600Y-53988500D01*
X65878600Y-53988500D01*
X65859083Y-53984618D01*
X65842538Y-53973562D01*
X65831482Y-53957017D01*
X65827600Y-53937500D01*
X65827600Y-53537500D01*
X65831482Y-53517983D01*
X65842538Y-53501438D01*
X65859083Y-53490382D01*
X65878600Y-53486500D01*
X67228600Y-53486500D01*
X67248117Y-53490382D01*
G37*
G36*
X26643579Y-52958558D02*
G01*
X26703922Y-52998878D01*
X26744242Y-53059221D01*
X26758400Y-53130400D01*
X26758400Y-53500400D01*
X26744242Y-53571579D01*
X26703922Y-53631922D01*
X26643579Y-53672242D01*
X26572400Y-53686400D01*
X26302400Y-53686400D01*
X26231221Y-53672242D01*
X26170878Y-53631922D01*
X26130558Y-53571579D01*
X26116400Y-53500400D01*
X26116400Y-53130400D01*
X26130558Y-53059221D01*
X26170878Y-52998878D01*
X26231221Y-52958558D01*
X26302400Y-52944400D01*
X26572400Y-52944400D01*
X26643579Y-52958558D01*
G37*
G36*
X27663579Y-52958558D02*
G01*
X27723922Y-52998878D01*
X27764242Y-53059221D01*
X27778400Y-53130400D01*
X27778400Y-53500400D01*
X27764242Y-53571579D01*
X27723922Y-53631922D01*
X27663579Y-53672242D01*
X27592400Y-53686400D01*
X27322400Y-53686400D01*
X27251221Y-53672242D01*
X27190878Y-53631922D01*
X27150558Y-53571579D01*
X27136400Y-53500400D01*
X27136400Y-53130400D01*
X27150558Y-53059221D01*
X27190878Y-52998878D01*
X27251221Y-52958558D01*
X27322400Y-52944400D01*
X27592400Y-52944400D01*
X27663579Y-52958558D01*
G37*
G36*
X17451051Y-53372088D02*
G01*
X17483818Y-53393982D01*
X17505712Y-53426749D01*
X17513400Y-53465400D01*
X17513400Y-53565400D01*
X17505712Y-53604051D01*
X17483818Y-53636818D01*
X17451051Y-53658712D01*
X17412400Y-53666400D01*
X16637400Y-53666400D01*
X16598749Y-53658712D01*
X16565982Y-53636818D01*
X16544088Y-53604051D01*
X16536400Y-53565400D01*
X16536400Y-53465400D01*
X16544088Y-53426749D01*
X16565982Y-53393982D01*
X16598749Y-53372088D01*
X16637400Y-53364400D01*
X17412400Y-53364400D01*
X17451051Y-53372088D01*
G37*
G36*
X24326051Y-53372088D02*
G01*
X24358818Y-53393982D01*
X24380712Y-53426749D01*
X24388400Y-53465400D01*
X24388400Y-53565400D01*
X24380712Y-53604051D01*
X24358818Y-53636818D01*
X24326051Y-53658712D01*
X24287400Y-53666400D01*
X23512400Y-53666400D01*
X23473749Y-53658712D01*
X23440982Y-53636818D01*
X23419088Y-53604051D01*
X23411400Y-53565400D01*
X23411400Y-53465400D01*
X23419088Y-53426749D01*
X23440982Y-53393982D01*
X23473749Y-53372088D01*
X23512400Y-53364400D01*
X24287400Y-53364400D01*
X24326051Y-53372088D01*
G37*
G36*
X67248117Y-52840382D02*
G01*
X67264662Y-52851438D01*
X67275718Y-52867983D01*
X67279600Y-52887500D01*
X67279600Y-53287500D01*
X67275718Y-53307017D01*
X67264662Y-53323562D01*
X67248117Y-53334618D01*
X67228600Y-53338500D01*
X65878600Y-53338500D01*
X65859083Y-53334618D01*
X65842538Y-53323562D01*
X65831482Y-53307017D01*
X65827600Y-53287500D01*
X65827600Y-52887500D01*
X65831482Y-52867983D01*
X65842538Y-52851438D01*
X65859083Y-52840382D01*
X65878600Y-52836500D01*
X67228600Y-52836500D01*
X67248117Y-52840382D01*
G37*
G36*
X17451051Y-52972088D02*
G01*
X17483818Y-52993982D01*
X17505712Y-53026749D01*
X17513400Y-53065400D01*
X17513400Y-53165400D01*
X17505712Y-53204051D01*
X17483818Y-53236818D01*
X17451051Y-53258712D01*
X17412400Y-53266400D01*
X16637400Y-53266400D01*
X16598749Y-53258712D01*
X16565982Y-53236818D01*
X16544088Y-53204051D01*
X16536400Y-53165400D01*
X16536400Y-53065400D01*
X16544088Y-53026749D01*
X16565982Y-52993982D01*
X16598749Y-52972088D01*
X16637400Y-52964400D01*
X17412400Y-52964400D01*
X17451051Y-52972088D01*
G37*
G36*
X24326051Y-52972088D02*
G01*
X24358818Y-52993982D01*
X24380712Y-53026749D01*
X24388400Y-53065400D01*
X24388400Y-53165400D01*
X24380712Y-53204051D01*
X24358818Y-53236818D01*
X24326051Y-53258712D01*
X24287400Y-53266400D01*
X23512400Y-53266400D01*
X23473749Y-53258712D01*
X23440982Y-53236818D01*
X23419088Y-53204051D01*
X23411400Y-53165400D01*
X23411400Y-53065400D01*
X23419088Y-53026749D01*
X23440982Y-52993982D01*
X23473749Y-52972088D01*
X23512400Y-52964400D01*
X24287400Y-52964400D01*
X24326051Y-52972088D01*
G37*
G36*
X13710493Y-52468939D02*
G01*
X13772457Y-52510343D01*
X13813861Y-52572307D01*
X13828400Y-52645400D01*
X13828400Y-52985400D01*
X13813861Y-53058493D01*
X13772457Y-53120457D01*
X13710493Y-53161861D01*
X13637400Y-53176400D01*
X13357400Y-53176400D01*
X13284307Y-53161861D01*
X13222343Y-53120457D01*
X13180939Y-53058493D01*
X13166400Y-52985400D01*
X13166400Y-52645400D01*
X13180939Y-52572307D01*
X13222343Y-52510343D01*
X13284307Y-52468939D01*
X13357400Y-52454400D01*
X13637400Y-52454400D01*
X13710493Y-52468939D01*
G37*
G36*
X14670493Y-52468939D02*
G01*
X14732457Y-52510343D01*
X14773861Y-52572307D01*
X14788400Y-52645400D01*
X14788400Y-52985400D01*
X14773861Y-53058493D01*
X14732457Y-53120457D01*
X14670493Y-53161861D01*
X14597400Y-53176400D01*
X14317400Y-53176400D01*
X14244307Y-53161861D01*
X14182343Y-53120457D01*
X14140939Y-53058493D01*
X14126400Y-52985400D01*
X14126400Y-52645400D01*
X14140939Y-52572307D01*
X14182343Y-52510343D01*
X14244307Y-52468939D01*
X14317400Y-52454400D01*
X14597400Y-52454400D01*
X14670493Y-52468939D01*
G37*
G36*
X21993023Y-49679243D02*
G01*
X22056286Y-49721514D01*
X22098557Y-49784777D01*
X22113400Y-49859400D01*
X22113400Y-52771400D01*
X22098557Y-52846023D01*
X22056286Y-52909286D01*
X21993023Y-52951557D01*
X21918400Y-52966400D01*
X19006400Y-52966400D01*
X18931777Y-52951557D01*
X18868514Y-52909286D01*
X18826243Y-52846023D01*
X18811400Y-52771400D01*
X18811400Y-49859400D01*
X18826243Y-49784777D01*
X18868514Y-49721514D01*
X18931777Y-49679243D01*
X19006400Y-49664400D01*
X21918400Y-49664400D01*
X21993023Y-49679243D01*
G37*
G36*
X17451051Y-52572088D02*
G01*
X17483818Y-52593982D01*
X17505712Y-52626749D01*
X17513400Y-52665400D01*
X17513400Y-52765400D01*
X17505712Y-52804051D01*
X17483818Y-52836818D01*
X17451051Y-52858712D01*
X17412400Y-52866400D01*
X16637400Y-52866400D01*
X16598749Y-52858712D01*
X16565982Y-52836818D01*
X16544088Y-52804051D01*
X16536400Y-52765400D01*
X16536400Y-52665400D01*
X16544088Y-52626749D01*
X16565982Y-52593982D01*
X16598749Y-52572088D01*
X16637400Y-52564400D01*
X17412400Y-52564400D01*
X17451051Y-52572088D01*
G37*
G36*
X24326051Y-52572088D02*
G01*
X24358818Y-52593982D01*
X24380712Y-52626749D01*
X24388400Y-52665400D01*
X24388400Y-52765400D01*
X24380712Y-52804051D01*
X24358818Y-52836818D01*
X24326051Y-52858712D01*
X24287400Y-52866400D01*
X23512400Y-52866400D01*
X23473749Y-52858712D01*
X23440982Y-52836818D01*
X23419088Y-52804051D01*
X23411400Y-52765400D01*
X23411400Y-52665400D01*
X23419088Y-52626749D01*
X23440982Y-52593982D01*
X23473749Y-52572088D01*
X23512400Y-52564400D01*
X24287400Y-52564400D01*
X24326051Y-52572088D01*
G37*
G36*
X67248117Y-52190382D02*
G01*
X67264662Y-52201438D01*
X67275718Y-52217983D01*
X67279600Y-52237500D01*
X67279600Y-52637500D01*
X67275718Y-52657017D01*
X67264662Y-52673562D01*
X67248117Y-52684618D01*
X67228600Y-52688500D01*
X65878600Y-52688500D01*
X65859083Y-52684618D01*
X65842538Y-52673562D01*
X65831482Y-52657017D01*
X65827600Y-52637500D01*
X65827600Y-52237500D01*
X65831482Y-52217983D01*
X65842538Y-52201438D01*
X65859083Y-52190382D01*
X65878600Y-52186500D01*
X67228600Y-52186500D01*
X67248117Y-52190382D01*
G37*
G36*
X26643579Y-51958558D02*
G01*
X26703922Y-51998878D01*
X26744242Y-52059221D01*
X26758400Y-52130400D01*
X26758400Y-52500400D01*
X26744242Y-52571579D01*
X26703922Y-52631922D01*
X26643579Y-52672242D01*
X26572400Y-52686400D01*
X26302400Y-52686400D01*
X26231221Y-52672242D01*
X26170878Y-52631922D01*
X26130558Y-52571579D01*
X26116400Y-52500400D01*
X26116400Y-52130400D01*
X26130558Y-52059221D01*
X26170878Y-51998878D01*
X26231221Y-51958558D01*
X26302400Y-51944400D01*
X26572400Y-51944400D01*
X26643579Y-51958558D01*
G37*
G36*
X27663579Y-51958558D02*
G01*
X27723922Y-51998878D01*
X27764242Y-52059221D01*
X27778400Y-52130400D01*
X27778400Y-52500400D01*
X27764242Y-52571579D01*
X27723922Y-52631922D01*
X27663579Y-52672242D01*
X27592400Y-52686400D01*
X27322400Y-52686400D01*
X27251221Y-52672242D01*
X27190878Y-52631922D01*
X27150558Y-52571579D01*
X27136400Y-52500400D01*
X27136400Y-52130400D01*
X27150558Y-52059221D01*
X27190878Y-51998878D01*
X27251221Y-51958558D01*
X27322400Y-51944400D01*
X27592400Y-51944400D01*
X27663579Y-51958558D01*
G37*
G36*
X17451051Y-52172088D02*
G01*
X17483818Y-52193982D01*
X17505712Y-52226749D01*
X17513400Y-52265400D01*
X17513400Y-52365400D01*
X17505712Y-52404051D01*
X17483818Y-52436818D01*
X17451051Y-52458712D01*
X17412400Y-52466400D01*
X16637400Y-52466400D01*
X16598749Y-52458712D01*
X16565982Y-52436818D01*
X16544088Y-52404051D01*
X16536400Y-52365400D01*
X16536400Y-52265400D01*
X16544088Y-52226749D01*
X16565982Y-52193982D01*
X16598749Y-52172088D01*
X16637400Y-52164400D01*
X17412400Y-52164400D01*
X17451051Y-52172088D01*
G37*
G36*
X24326051Y-52172088D02*
G01*
X24358818Y-52193982D01*
X24380712Y-52226749D01*
X24388400Y-52265400D01*
X24388400Y-52365400D01*
X24380712Y-52404051D01*
X24358818Y-52436818D01*
X24326051Y-52458712D01*
X24287400Y-52466400D01*
X23512400Y-52466400D01*
X23473749Y-52458712D01*
X23440982Y-52436818D01*
X23419088Y-52404051D01*
X23411400Y-52365400D01*
X23411400Y-52265400D01*
X23419088Y-52226749D01*
X23440982Y-52193982D01*
X23473749Y-52172088D01*
X23512400Y-52164400D01*
X24287400Y-52164400D01*
X24326051Y-52172088D01*
G37*
G36*
X70048117Y-50640382D02*
G01*
X70064662Y-50651438D01*
X70075718Y-50667983D01*
X70079600Y-50687500D01*
X70079600Y-52187500D01*
X70075718Y-52207017D01*
X70064662Y-52223562D01*
X70048117Y-52234618D01*
X70028600Y-52238500D01*
X68478600Y-52238500D01*
X68459083Y-52234618D01*
X68442538Y-52223562D01*
X68431482Y-52207017D01*
X68427600Y-52187500D01*
X68427600Y-50687500D01*
X68431482Y-50667983D01*
X68442538Y-50651438D01*
X68459083Y-50640382D01*
X68478600Y-50636500D01*
X70028600Y-50636500D01*
X70048117Y-50640382D01*
G37*
G36*
X17451051Y-51772088D02*
G01*
X17483818Y-51793982D01*
X17505712Y-51826749D01*
X17513400Y-51865400D01*
X17513400Y-51965400D01*
X17505712Y-52004051D01*
X17483818Y-52036818D01*
X17451051Y-52058712D01*
X17412400Y-52066400D01*
X16637400Y-52066400D01*
X16598749Y-52058712D01*
X16565982Y-52036818D01*
X16544088Y-52004051D01*
X16536400Y-51965400D01*
X16536400Y-51865400D01*
X16544088Y-51826749D01*
X16565982Y-51793982D01*
X16598749Y-51772088D01*
X16637400Y-51764400D01*
X17412400Y-51764400D01*
X17451051Y-51772088D01*
G37*
G36*
X24326051Y-51772088D02*
G01*
X24358818Y-51793982D01*
X24380712Y-51826749D01*
X24388400Y-51865400D01*
X24388400Y-51965400D01*
X24380712Y-52004051D01*
X24358818Y-52036818D01*
X24326051Y-52058712D01*
X24287400Y-52066400D01*
X23512400Y-52066400D01*
X23473749Y-52058712D01*
X23440982Y-52036818D01*
X23419088Y-52004051D01*
X23411400Y-51965400D01*
X23411400Y-51865400D01*
X23419088Y-51826749D01*
X23440982Y-51793982D01*
X23473749Y-51772088D01*
X23512400Y-51764400D01*
X24287400Y-51764400D01*
X24326051Y-51772088D01*
G37*
G36*
X13710493Y-51349939D02*
G01*
X13772457Y-51391343D01*
X13813861Y-51453307D01*
X13828400Y-51526400D01*
X13828400Y-51866400D01*
X13813861Y-51939493D01*
X13772457Y-52001457D01*
X13710493Y-52042861D01*
X13637400Y-52057400D01*
X13357400Y-52057400D01*
X13284307Y-52042861D01*
X13222343Y-52001457D01*
X13180939Y-51939493D01*
X13166400Y-51866400D01*
X13166400Y-51526400D01*
X13180939Y-51453307D01*
X13222343Y-51391343D01*
X13284307Y-51349939D01*
X13357400Y-51335400D01*
X13637400Y-51335400D01*
X13710493Y-51349939D01*
G37*
G36*
X14670493Y-51349939D02*
G01*
X14732457Y-51391343D01*
X14773861Y-51453307D01*
X14788400Y-51526400D01*
X14788400Y-51866400D01*
X14773861Y-51939493D01*
X14732457Y-52001457D01*
X14670493Y-52042861D01*
X14597400Y-52057400D01*
X14317400Y-52057400D01*
X14244307Y-52042861D01*
X14182343Y-52001457D01*
X14140939Y-51939493D01*
X14126400Y-51866400D01*
X14126400Y-51526400D01*
X14140939Y-51453307D01*
X14182343Y-51391343D01*
X14244307Y-51349939D01*
X14317400Y-51335400D01*
X14597400Y-51335400D01*
X14670493Y-51349939D01*
G37*
G36*
X67248117Y-51540382D02*
G01*
X67264662Y-51551438D01*
X67275718Y-51567983D01*
X67279600Y-51587500D01*
X67279600Y-51987500D01*
X67275718Y-52007017D01*
X67264662Y-52023562D01*
X67248117Y-52034618D01*
X67228600Y-52038500D01*
X65878600Y-52038500D01*
X65859083Y-52034618D01*
X65842538Y-52023562D01*
X65831482Y-52007017D01*
X65827600Y-51987500D01*
X65827600Y-51587500D01*
X65831482Y-51567983D01*
X65842538Y-51551438D01*
X65859083Y-51540382D01*
X65878600Y-51536500D01*
X67228600Y-51536500D01*
X67248117Y-51540382D01*
G37*
G36*
X27680493Y-50968939D02*
G01*
X27742457Y-51010343D01*
X27783861Y-51072307D01*
X27798400Y-51145400D01*
X27798400Y-51485400D01*
X27783861Y-51558493D01*
X27742457Y-51620457D01*
X27680493Y-51661861D01*
X27607400Y-51676400D01*
X27327400Y-51676400D01*
X27254307Y-51661861D01*
X27192343Y-51620457D01*
X27150939Y-51558493D01*
X27136400Y-51485400D01*
X27136400Y-51145400D01*
X27150939Y-51072307D01*
X27192343Y-51010343D01*
X27254307Y-50968939D01*
X27327400Y-50954400D01*
X27607400Y-50954400D01*
X27680493Y-50968939D01*
G37*
G36*
X28640493Y-50968939D02*
G01*
X28702457Y-51010343D01*
X28743861Y-51072307D01*
X28758400Y-51145400D01*
X28758400Y-51485400D01*
X28743861Y-51558493D01*
X28702457Y-51620457D01*
X28640493Y-51661861D01*
X28567400Y-51676400D01*
X28287400Y-51676400D01*
X28214307Y-51661861D01*
X28152343Y-51620457D01*
X28110939Y-51558493D01*
X28096400Y-51485400D01*
X28096400Y-51145400D01*
X28110939Y-51072307D01*
X28152343Y-51010343D01*
X28214307Y-50968939D01*
X28287400Y-50954400D01*
X28567400Y-50954400D01*
X28640493Y-50968939D01*
G37*
G36*
X17451051Y-51372088D02*
G01*
X17483818Y-51393982D01*
X17505712Y-51426749D01*
X17513400Y-51465400D01*
X17513400Y-51565400D01*
X17505712Y-51604051D01*
X17483818Y-51636818D01*
X17451051Y-51658712D01*
X17412400Y-51666400D01*
X16637400Y-51666400D01*
X16598749Y-51658712D01*
X16565982Y-51636818D01*
X16544088Y-51604051D01*
X16536400Y-51565400D01*
X16536400Y-51465400D01*
X16544088Y-51426749D01*
X16565982Y-51393982D01*
X16598749Y-51372088D01*
X16637400Y-51364400D01*
X17412400Y-51364400D01*
X17451051Y-51372088D01*
G37*
G36*
X24326051Y-51372088D02*
G01*
X24358818Y-51393982D01*
X24380712Y-51426749D01*
X24388400Y-51465400D01*
X24388400Y-51565400D01*
X24380712Y-51604051D01*
X24358818Y-51636818D01*
X24326051Y-51658712D01*
X24287400Y-51666400D01*
X23512400Y-51666400D01*
X23473749Y-51658712D01*
X23440982Y-51636818D01*
X23419088Y-51604051D01*
X23411400Y-51565400D01*
X23411400Y-51465400D01*
X23419088Y-51426749D01*
X23440982Y-51393982D01*
X23473749Y-51372088D01*
X23512400Y-51364400D01*
X24287400Y-51364400D01*
X24326051Y-51372088D01*
G37*
G36*
X11705493Y-50963939D02*
G01*
X11767457Y-51005343D01*
X11808861Y-51067307D01*
X11823400Y-51140400D01*
X11823400Y-51420400D01*
X11808861Y-51493493D01*
X11767457Y-51555457D01*
X11705493Y-51596861D01*
X11632400Y-51611400D01*
X11292400Y-51611400D01*
X11219307Y-51596861D01*
X11157343Y-51555457D01*
X11115939Y-51493493D01*
X11101400Y-51420400D01*
X11101400Y-51140400D01*
X11115939Y-51067307D01*
X11157343Y-51005343D01*
X11219307Y-50963939D01*
X11292400Y-50949400D01*
X11632400Y-50949400D01*
X11705493Y-50963939D01*
G37*
G36*
X67248117Y-50890382D02*
G01*
X67264662Y-50901438D01*
X67275718Y-50917983D01*
X67279600Y-50937500D01*
X67279600Y-51337500D01*
X67275718Y-51357017D01*
X67264662Y-51373562D01*
X67248117Y-51384618D01*
X67228600Y-51388500D01*
X65878600Y-51388500D01*
X65859083Y-51384618D01*
X65842538Y-51373562D01*
X65831482Y-51357017D01*
X65827600Y-51337500D01*
X65827600Y-50937500D01*
X65831482Y-50917983D01*
X65842538Y-50901438D01*
X65859083Y-50890382D01*
X65878600Y-50886500D01*
X67228600Y-50886500D01*
X67248117Y-50890382D01*
G37*
G36*
X17451051Y-50972088D02*
G01*
X17483818Y-50993982D01*
X17505712Y-51026749D01*
X17513400Y-51065400D01*
X17513400Y-51165400D01*
X17505712Y-51204051D01*
X17483818Y-51236818D01*
X17451051Y-51258712D01*
X17412400Y-51266400D01*
X16637400Y-51266400D01*
X16598749Y-51258712D01*
X16565982Y-51236818D01*
X16544088Y-51204051D01*
X16536400Y-51165400D01*
X16536400Y-51065400D01*
X16544088Y-51026749D01*
X16565982Y-50993982D01*
X16598749Y-50972088D01*
X16637400Y-50964400D01*
X17412400Y-50964400D01*
X17451051Y-50972088D01*
G37*
G36*
X24326051Y-50972088D02*
G01*
X24358818Y-50993982D01*
X24380712Y-51026749D01*
X24388400Y-51065400D01*
X24388400Y-51165400D01*
X24380712Y-51204051D01*
X24358818Y-51236818D01*
X24326051Y-51258712D01*
X24287400Y-51266400D01*
X23512400Y-51266400D01*
X23473749Y-51258712D01*
X23440982Y-51236818D01*
X23419088Y-51204051D01*
X23411400Y-51165400D01*
X23411400Y-51065400D01*
X23419088Y-51026749D01*
X23440982Y-50993982D01*
X23473749Y-50972088D01*
X23512400Y-50964400D01*
X24287400Y-50964400D01*
X24326051Y-50972088D01*
G37*
G36*
X17451051Y-50572088D02*
G01*
X17483818Y-50593982D01*
X17505712Y-50626749D01*
X17513400Y-50665400D01*
X17513400Y-50765400D01*
X17505712Y-50804051D01*
X17483818Y-50836818D01*
X17451051Y-50858712D01*
X17412400Y-50866400D01*
X16637400Y-50866400D01*
X16598749Y-50858712D01*
X16565982Y-50836818D01*
X16544088Y-50804051D01*
X16536400Y-50765400D01*
X16536400Y-50665400D01*
X16544088Y-50626749D01*
X16565982Y-50593982D01*
X16598749Y-50572088D01*
X16637400Y-50564400D01*
X17412400Y-50564400D01*
X17451051Y-50572088D01*
G37*
G36*
X24326051Y-50572088D02*
G01*
X24358818Y-50593982D01*
X24380712Y-50626749D01*
X24388400Y-50665400D01*
X24388400Y-50765400D01*
X24380712Y-50804051D01*
X24358818Y-50836818D01*
X24326051Y-50858712D01*
X24287400Y-50866400D01*
X23512400Y-50866400D01*
X23473749Y-50858712D01*
X23440982Y-50836818D01*
X23419088Y-50804051D01*
X23411400Y-50765400D01*
X23411400Y-50665400D01*
X23419088Y-50626749D01*
X23440982Y-50593982D01*
X23473749Y-50572088D01*
X23512400Y-50564400D01*
X24287400Y-50564400D01*
X24326051Y-50572088D01*
G37*
G36*
X27680493Y-49968939D02*
G01*
X27742457Y-50010343D01*
X27783861Y-50072307D01*
X27798400Y-50145400D01*
X27798400Y-50485400D01*
X27783861Y-50558493D01*
X27742457Y-50620457D01*
X27680493Y-50661861D01*
X27607400Y-50676400D01*
X27327400Y-50676400D01*
X27254307Y-50661861D01*
X27192343Y-50620457D01*
X27150939Y-50558493D01*
X27136400Y-50485400D01*
X27136400Y-50145400D01*
X27150939Y-50072307D01*
X27192343Y-50010343D01*
X27254307Y-49968939D01*
X27327400Y-49954400D01*
X27607400Y-49954400D01*
X27680493Y-49968939D01*
G37*
G36*
X28640493Y-49968939D02*
G01*
X28702457Y-50010343D01*
X28743861Y-50072307D01*
X28758400Y-50145400D01*
X28758400Y-50485400D01*
X28743861Y-50558493D01*
X28702457Y-50620457D01*
X28640493Y-50661861D01*
X28567400Y-50676400D01*
X28287400Y-50676400D01*
X28214307Y-50661861D01*
X28152343Y-50620457D01*
X28110939Y-50558493D01*
X28096400Y-50485400D01*
X28096400Y-50145400D01*
X28110939Y-50072307D01*
X28152343Y-50010343D01*
X28214307Y-49968939D01*
X28287400Y-49954400D01*
X28567400Y-49954400D01*
X28640493Y-49968939D01*
G37*
G36*
X11705493Y-50003939D02*
G01*
X11767457Y-50045343D01*
X11808861Y-50107307D01*
X11823400Y-50180400D01*
X11823400Y-50460400D01*
X11808861Y-50533493D01*
X11767457Y-50595457D01*
X11705493Y-50636861D01*
X11632400Y-50651400D01*
X11292400Y-50651400D01*
X11219307Y-50636861D01*
X11157343Y-50595457D01*
X11115939Y-50533493D01*
X11101400Y-50460400D01*
X11101400Y-50180400D01*
X11115939Y-50107307D01*
X11157343Y-50045343D01*
X11219307Y-50003939D01*
X11292400Y-49989400D01*
X11632400Y-49989400D01*
X11705493Y-50003939D01*
G37*
G36*
X66754891Y-49301539D02*
G01*
X66873809Y-49370196D01*
X66970904Y-49467291D01*
X67039561Y-49586209D01*
X67075100Y-49718843D01*
X67079600Y-50087500D01*
X67075100Y-50156157D01*
X67039561Y-50288791D01*
X66970904Y-50407709D01*
X66873809Y-50504804D01*
X66754891Y-50573461D01*
X66622257Y-50609000D01*
X66484943Y-50609000D01*
X66352309Y-50573461D01*
X66233391Y-50504804D01*
X66136296Y-50407709D01*
X66067639Y-50288791D01*
X66032100Y-50156157D01*
X66027600Y-49787500D01*
X66032100Y-49718843D01*
X66067639Y-49586209D01*
X66136296Y-49467291D01*
X66233391Y-49370196D01*
X66352309Y-49301539D01*
X66484943Y-49266000D01*
X66622257Y-49266000D01*
X66754891Y-49301539D01*
G37*
G36*
X17451051Y-50172088D02*
G01*
X17483818Y-50193982D01*
X17505712Y-50226749D01*
X17513400Y-50265400D01*
X17513400Y-50365400D01*
X17505712Y-50404051D01*
X17483818Y-50436818D01*
X17451051Y-50458712D01*
X17412400Y-50466400D01*
X16637400Y-50466400D01*
X16598749Y-50458712D01*
X16565982Y-50436818D01*
X16544088Y-50404051D01*
X16536400Y-50365400D01*
X16536400Y-50265400D01*
X16544088Y-50226749D01*
X16565982Y-50193982D01*
X16598749Y-50172088D01*
X16637400Y-50164400D01*
X17412400Y-50164400D01*
X17451051Y-50172088D01*
G37*
G36*
X24326051Y-50172088D02*
G01*
X24358818Y-50193982D01*
X24380712Y-50226749D01*
X24388400Y-50265400D01*
X24388400Y-50365400D01*
X24380712Y-50404051D01*
X24358818Y-50436818D01*
X24326051Y-50458712D01*
X24287400Y-50466400D01*
X23512400Y-50466400D01*
X23473749Y-50458712D01*
X23440982Y-50436818D01*
X23419088Y-50404051D01*
X23411400Y-50365400D01*
X23411400Y-50265400D01*
X23419088Y-50226749D01*
X23440982Y-50193982D01*
X23473749Y-50172088D01*
X23512400Y-50164400D01*
X24287400Y-50164400D01*
X24326051Y-50172088D01*
G37*
G36*
X13043579Y-49658558D02*
G01*
X13103922Y-49698878D01*
X13144242Y-49759221D01*
X13158400Y-49830400D01*
X13158400Y-50200400D01*
X13144242Y-50271579D01*
X13103922Y-50331922D01*
X13043579Y-50372242D01*
X12972400Y-50386400D01*
X12702400Y-50386400D01*
X12631221Y-50372242D01*
X12570878Y-50331922D01*
X12530558Y-50271579D01*
X12516400Y-50200400D01*
X12516400Y-49830400D01*
X12530558Y-49759221D01*
X12570878Y-49698878D01*
X12631221Y-49658558D01*
X12702400Y-49644400D01*
X12972400Y-49644400D01*
X13043579Y-49658558D01*
G37*
G36*
X14063579Y-49658558D02*
G01*
X14123922Y-49698878D01*
X14164242Y-49759221D01*
X14178400Y-49830400D01*
X14178400Y-50200400D01*
X14164242Y-50271579D01*
X14123922Y-50331922D01*
X14063579Y-50372242D01*
X13992400Y-50386400D01*
X13722400Y-50386400D01*
X13651221Y-50372242D01*
X13590878Y-50331922D01*
X13550558Y-50271579D01*
X13536400Y-50200400D01*
X13536400Y-49830400D01*
X13550558Y-49759221D01*
X13590878Y-49698878D01*
X13651221Y-49658558D01*
X13722400Y-49644400D01*
X13992400Y-49644400D01*
X14063579Y-49658558D01*
G37*
G36*
X69648341Y-48445743D02*
G01*
X69773411Y-48479256D01*
X69885546Y-48543997D01*
X69977103Y-48635554D01*
X70041844Y-48747689D01*
X70075357Y-48872759D01*
X70075357Y-48917442D01*
X70075718Y-48917983D01*
X70079600Y-48937500D01*
X70079600Y-50137500D01*
X70075718Y-50157017D01*
X70064662Y-50173562D01*
X70048117Y-50184618D01*
X70028600Y-50188500D01*
X68478600Y-50188500D01*
X68459083Y-50184618D01*
X68442538Y-50173562D01*
X68431482Y-50157017D01*
X68427600Y-50137500D01*
X68427600Y-48937500D01*
X68431482Y-48917983D01*
X68431843Y-48917442D01*
X68431843Y-48872759D01*
X68465356Y-48747689D01*
X68530097Y-48635554D01*
X68621654Y-48543997D01*
X68733789Y-48479256D01*
X68858859Y-48445743D01*
X69583600Y-48441500D01*
X69648341Y-48445743D01*
G37*
G36*
X17451051Y-49772088D02*
G01*
X17483818Y-49793982D01*
X17505712Y-49826749D01*
X17513400Y-49865400D01*
X17513400Y-49965400D01*
X17505712Y-50004051D01*
X17483818Y-50036818D01*
X17451051Y-50058712D01*
X17412400Y-50066400D01*
X16637400Y-50066400D01*
X16598749Y-50058712D01*
X16565982Y-50036818D01*
X16544088Y-50004051D01*
X16536400Y-49965400D01*
X16536400Y-49865400D01*
X16544088Y-49826749D01*
X16565982Y-49793982D01*
X16598749Y-49772088D01*
X16637400Y-49764400D01*
X17412400Y-49764400D01*
X17451051Y-49772088D01*
G37*
G36*
X24326051Y-49772088D02*
G01*
X24358818Y-49793982D01*
X24380712Y-49826749D01*
X24388400Y-49865400D01*
X24388400Y-49965400D01*
X24380712Y-50004051D01*
X24358818Y-50036818D01*
X24326051Y-50058712D01*
X24287400Y-50066400D01*
X23512400Y-50066400D01*
X23473749Y-50058712D01*
X23440982Y-50036818D01*
X23419088Y-50004051D01*
X23411400Y-49965400D01*
X23411400Y-49865400D01*
X23419088Y-49826749D01*
X23440982Y-49793982D01*
X23473749Y-49772088D01*
X23512400Y-49764400D01*
X24287400Y-49764400D01*
X24326051Y-49772088D01*
G37*
G36*
X17451051Y-49372088D02*
G01*
X17483818Y-49393982D01*
X17505712Y-49426749D01*
X17513400Y-49465400D01*
X17513400Y-49565400D01*
X17505712Y-49604051D01*
X17483818Y-49636818D01*
X17451051Y-49658712D01*
X17412400Y-49666400D01*
X16637400Y-49666400D01*
X16598749Y-49658712D01*
X16565982Y-49636818D01*
X16544088Y-49604051D01*
X16536400Y-49565400D01*
X16536400Y-49465400D01*
X16544088Y-49426749D01*
X16565982Y-49393982D01*
X16598749Y-49372088D01*
X16637400Y-49364400D01*
X17412400Y-49364400D01*
X17451051Y-49372088D01*
G37*
G36*
X24326051Y-49372088D02*
G01*
X24358818Y-49393982D01*
X24380712Y-49426749D01*
X24388400Y-49465400D01*
X24388400Y-49565400D01*
X24380712Y-49604051D01*
X24358818Y-49636818D01*
X24326051Y-49658712D01*
X24287400Y-49666400D01*
X23512400Y-49666400D01*
X23473749Y-49658712D01*
X23440982Y-49636818D01*
X23419088Y-49604051D01*
X23411400Y-49565400D01*
X23411400Y-49465400D01*
X23419088Y-49426749D01*
X23440982Y-49393982D01*
X23473749Y-49372088D01*
X23512400Y-49364400D01*
X24287400Y-49364400D01*
X24326051Y-49372088D01*
G37*
G36*
X17451051Y-48972088D02*
G01*
X17483818Y-48993982D01*
X17505712Y-49026749D01*
X17513400Y-49065400D01*
X17513400Y-49165400D01*
X17505712Y-49204051D01*
X17483818Y-49236818D01*
X17451051Y-49258712D01*
X17412400Y-49266400D01*
X16637400Y-49266400D01*
X16598749Y-49258712D01*
X16565982Y-49236818D01*
X16544088Y-49204051D01*
X16536400Y-49165400D01*
X16536400Y-49065400D01*
X16544088Y-49026749D01*
X16565982Y-48993982D01*
X16598749Y-48972088D01*
X16637400Y-48964400D01*
X17412400Y-48964400D01*
X17451051Y-48972088D01*
G37*
G36*
X24326051Y-48972088D02*
G01*
X24358818Y-48993982D01*
X24380712Y-49026749D01*
X24388400Y-49065400D01*
X24388400Y-49165400D01*
X24380712Y-49204051D01*
X24358818Y-49236818D01*
X24326051Y-49258712D01*
X24287400Y-49266400D01*
X23512400Y-49266400D01*
X23473749Y-49258712D01*
X23440982Y-49236818D01*
X23419088Y-49204051D01*
X23411400Y-49165400D01*
X23411400Y-49065400D01*
X23419088Y-49026749D01*
X23440982Y-48993982D01*
X23473749Y-48972088D01*
X23512400Y-48964400D01*
X24287400Y-48964400D01*
X24326051Y-48972088D01*
G37*
G36*
X17451051Y-48572088D02*
G01*
X17483818Y-48593982D01*
X17505712Y-48626749D01*
X17513400Y-48665400D01*
X17513400Y-48765400D01*
X17505712Y-48804051D01*
X17483818Y-48836818D01*
X17451051Y-48858712D01*
X17412400Y-48866400D01*
X16637400Y-48866400D01*
X16598749Y-48858712D01*
X16565982Y-48836818D01*
X16544088Y-48804051D01*
X16536400Y-48765400D01*
X16536400Y-48665400D01*
X16544088Y-48626749D01*
X16565982Y-48593982D01*
X16598749Y-48572088D01*
X16637400Y-48564400D01*
X17412400Y-48564400D01*
X17451051Y-48572088D01*
G37*
G36*
X24326051Y-48572088D02*
G01*
X24358818Y-48593982D01*
X24380712Y-48626749D01*
X24388400Y-48665400D01*
X24388400Y-48765400D01*
X24380712Y-48804051D01*
X24358818Y-48836818D01*
X24326051Y-48858712D01*
X24287400Y-48866400D01*
X23512400Y-48866400D01*
X23473749Y-48858712D01*
X23440982Y-48836818D01*
X23419088Y-48804051D01*
X23411400Y-48765400D01*
X23411400Y-48665400D01*
X23419088Y-48626749D01*
X23440982Y-48593982D01*
X23473749Y-48572088D01*
X23512400Y-48564400D01*
X24287400Y-48564400D01*
X24326051Y-48572088D01*
G37*
G36*
X31509319Y-47129700D02*
G01*
X31574528Y-47173272D01*
X31618100Y-47238481D01*
X31633400Y-47315400D01*
X31633400Y-48615400D01*
X31618100Y-48692319D01*
X31574528Y-48757528D01*
X31509319Y-48801100D01*
X31432400Y-48816400D01*
X31132400Y-48816400D01*
X31055481Y-48801100D01*
X30990272Y-48757528D01*
X30946700Y-48692319D01*
X30931400Y-48615400D01*
X30931400Y-47315400D01*
X30946700Y-47238481D01*
X30990272Y-47173272D01*
X31055481Y-47129700D01*
X31132400Y-47114400D01*
X31432400Y-47114400D01*
X31509319Y-47129700D01*
G37*
G36*
X32779319Y-47129700D02*
G01*
X32844528Y-47173272D01*
X32888100Y-47238481D01*
X32903400Y-47315400D01*
X32903400Y-48615400D01*
X32888100Y-48692319D01*
X32844528Y-48757528D01*
X32779319Y-48801100D01*
X32702400Y-48816400D01*
X32402400Y-48816400D01*
X32325481Y-48801100D01*
X32260272Y-48757528D01*
X32216700Y-48692319D01*
X32201400Y-48615400D01*
X32201400Y-47315400D01*
X32216700Y-47238481D01*
X32260272Y-47173272D01*
X32325481Y-47129700D01*
X32402400Y-47114400D01*
X32702400Y-47114400D01*
X32779319Y-47129700D01*
G37*
G36*
X34049319Y-47129700D02*
G01*
X34114528Y-47173272D01*
X34158100Y-47238481D01*
X34173400Y-47315400D01*
X34173400Y-48615400D01*
X34158100Y-48692319D01*
X34114528Y-48757528D01*
X34049319Y-48801100D01*
X33972400Y-48816400D01*
X33672400Y-48816400D01*
X33595481Y-48801100D01*
X33530272Y-48757528D01*
X33486700Y-48692319D01*
X33471400Y-48615400D01*
X33471400Y-47315400D01*
X33486700Y-47238481D01*
X33530272Y-47173272D01*
X33595481Y-47129700D01*
X33672400Y-47114400D01*
X33972400Y-47114400D01*
X34049319Y-47129700D01*
G37*
G36*
X35319319Y-47129700D02*
G01*
X35384528Y-47173272D01*
X35428100Y-47238481D01*
X35443400Y-47315400D01*
X35443400Y-48615400D01*
X35428100Y-48692319D01*
X35384528Y-48757528D01*
X35319319Y-48801100D01*
X35242400Y-48816400D01*
X34942400Y-48816400D01*
X34865481Y-48801100D01*
X34800272Y-48757528D01*
X34756700Y-48692319D01*
X34741400Y-48615400D01*
X34741400Y-47315400D01*
X34756700Y-47238481D01*
X34800272Y-47173272D01*
X34865481Y-47129700D01*
X34942400Y-47114400D01*
X35242400Y-47114400D01*
X35319319Y-47129700D01*
G37*
G36*
X41171513Y-46868936D02*
G01*
X41217780Y-46868936D01*
X41257729Y-46877427D01*
X41299333Y-46881525D01*
X41351598Y-46897379D01*
X41402024Y-46908098D01*
X41434294Y-46922465D01*
X41468312Y-46932785D01*
X41522367Y-46961678D01*
X41574100Y-46984711D01*
X41598151Y-47002185D01*
X41624047Y-47016027D01*
X41676871Y-47059378D01*
X41726487Y-47095427D01*
X41742596Y-47113318D01*
X41760548Y-47128051D01*
X41808788Y-47186831D01*
X41852524Y-47235405D01*
X41861711Y-47251319D01*
X41872572Y-47264552D01*
X41912749Y-47339719D01*
X41946704Y-47398530D01*
X41950609Y-47410550D01*
X41955814Y-47420287D01*
X41984513Y-47514896D01*
X42004911Y-47577672D01*
X42005628Y-47584502D01*
X42007074Y-47589266D01*
X42021136Y-47732042D01*
X42024600Y-47765000D01*
X42021135Y-47797959D01*
X42007074Y-47940733D01*
X42005629Y-47945496D01*
X42004911Y-47952328D01*
X41984509Y-48015117D01*
X41955814Y-48109712D01*
X41950610Y-48119447D01*
X41946704Y-48131470D01*
X41912742Y-48190293D01*
X41872572Y-48265447D01*
X41861713Y-48278677D01*
X41852524Y-48294595D01*
X41808778Y-48343178D01*
X41760548Y-48401948D01*
X41742600Y-48416677D01*
X41726487Y-48434573D01*
X41676860Y-48470628D01*
X41624047Y-48513972D01*
X41598157Y-48527810D01*
X41574100Y-48545289D01*
X41522356Y-48568326D01*
X41468312Y-48597214D01*
X41434301Y-48607531D01*
X41402024Y-48621902D01*
X41351587Y-48632622D01*
X41299333Y-48648474D01*
X41257738Y-48652570D01*
X41217780Y-48661064D01*
X41171503Y-48661064D01*
X41123600Y-48665782D01*
X41075697Y-48661064D01*
X41029420Y-48661064D01*
X40989462Y-48652570D01*
X40947866Y-48648474D01*
X40895609Y-48632621D01*
X40845176Y-48621902D01*
X40812900Y-48607532D01*
X40778887Y-48597214D01*
X40724837Y-48568323D01*
X40673100Y-48545289D01*
X40649045Y-48527812D01*
X40623152Y-48513972D01*
X40570330Y-48470622D01*
X40520713Y-48434573D01*
X40504602Y-48416680D01*
X40486651Y-48401948D01*
X40438409Y-48343166D01*
X40394676Y-48294595D01*
X40385488Y-48278681D01*
X40374627Y-48265447D01*
X40334444Y-48190269D01*
X40300496Y-48131470D01*
X40296591Y-48119451D01*
X40291385Y-48109712D01*
X40262675Y-48015071D01*
X40242289Y-47952328D01*
X40241571Y-47945501D01*
X40240125Y-47940733D01*
X40226048Y-47797808D01*
X40222600Y-47765000D01*
X40226048Y-47732194D01*
X40240125Y-47589266D01*
X40241571Y-47584497D01*
X40242289Y-47577672D01*
X40262671Y-47514942D01*
X40291385Y-47420287D01*
X40296591Y-47410545D01*
X40300496Y-47398530D01*
X40334436Y-47339742D01*
X40374627Y-47264552D01*
X40385490Y-47251314D01*
X40394676Y-47235405D01*
X40438400Y-47186843D01*
X40486651Y-47128051D01*
X40504605Y-47113315D01*
X40520713Y-47095427D01*
X40570320Y-47059385D01*
X40623152Y-47016027D01*
X40649050Y-47002183D01*
X40673100Y-46984711D01*
X40724826Y-46961681D01*
X40778887Y-46932785D01*
X40812907Y-46922464D01*
X40845176Y-46908098D01*
X40895598Y-46897380D01*
X40947866Y-46881525D01*
X40989471Y-46877427D01*
X41029420Y-46868936D01*
X41075686Y-46868936D01*
X41123600Y-46864217D01*
X41171513Y-46868936D01*
G37*
G36*
X11705493Y-47993939D02*
G01*
X11767457Y-48035343D01*
X11808861Y-48097307D01*
X11823400Y-48170400D01*
X11823400Y-48450400D01*
X11808861Y-48523493D01*
X11767457Y-48585457D01*
X11705493Y-48626861D01*
X11632400Y-48641400D01*
X11292400Y-48641400D01*
X11219307Y-48626861D01*
X11157343Y-48585457D01*
X11115939Y-48523493D01*
X11101400Y-48450400D01*
X11101400Y-48170400D01*
X11115939Y-48097307D01*
X11157343Y-48035343D01*
X11219307Y-47993939D01*
X11292400Y-47979400D01*
X11632400Y-47979400D01*
X11705493Y-47993939D01*
G37*
G36*
X17951051Y-47397088D02*
G01*
X17983818Y-47418982D01*
X18005712Y-47451749D01*
X18013400Y-47490400D01*
X18013400Y-48265400D01*
X18005712Y-48304051D01*
X17983818Y-48336818D01*
X17951051Y-48358712D01*
X17912400Y-48366400D01*
X17812400Y-48366400D01*
X17773749Y-48358712D01*
X17740982Y-48336818D01*
X17719088Y-48304051D01*
X17711400Y-48265400D01*
X17711400Y-47490400D01*
X17719088Y-47451749D01*
X17740982Y-47418982D01*
X17773749Y-47397088D01*
X17812400Y-47389400D01*
X17912400Y-47389400D01*
X17951051Y-47397088D01*
G37*
G36*
X18351051Y-47397088D02*
G01*
X18383818Y-47418982D01*
X18405712Y-47451749D01*
X18413400Y-47490400D01*
X18413400Y-48265400D01*
X18405712Y-48304051D01*
X18383818Y-48336818D01*
X18351051Y-48358712D01*
X18312400Y-48366400D01*
X18212400Y-48366400D01*
X18173749Y-48358712D01*
X18140982Y-48336818D01*
X18119088Y-48304051D01*
X18111400Y-48265400D01*
X18111400Y-47490400D01*
X18119088Y-47451749D01*
X18140982Y-47418982D01*
X18173749Y-47397088D01*
X18212400Y-47389400D01*
X18312400Y-47389400D01*
X18351051Y-47397088D01*
G37*
G36*
X18751051Y-47397088D02*
G01*
X18783818Y-47418982D01*
X18805712Y-47451749D01*
X18813400Y-47490400D01*
X18813400Y-48265400D01*
X18805712Y-48304051D01*
X18783818Y-48336818D01*
X18751051Y-48358712D01*
X18712400Y-48366400D01*
X18612400Y-48366400D01*
X18573749Y-48358712D01*
X18540982Y-48336818D01*
X18519088Y-48304051D01*
X18511400Y-48265400D01*
X18511400Y-47490400D01*
X18519088Y-47451749D01*
X18540982Y-47418982D01*
X18573749Y-47397088D01*
X18612400Y-47389400D01*
X18712400Y-47389400D01*
X18751051Y-47397088D01*
G37*
G36*
X19151051Y-47397088D02*
G01*
X19183818Y-47418982D01*
X19205712Y-47451749D01*
X19213400Y-47490400D01*
X19213400Y-48265400D01*
X19205712Y-48304051D01*
X19183818Y-48336818D01*
X19151051Y-48358712D01*
X19112400Y-48366400D01*
X19012400Y-48366400D01*
X18973749Y-48358712D01*
X18940982Y-48336818D01*
X18919088Y-48304051D01*
X18911400Y-48265400D01*
X18911400Y-47490400D01*
X18919088Y-47451749D01*
X18940982Y-47418982D01*
X18973749Y-47397088D01*
X19012400Y-47389400D01*
X19112400Y-47389400D01*
X19151051Y-47397088D01*
G37*
G36*
X19551051Y-47397088D02*
G01*
X19583818Y-47418982D01*
X19605712Y-47451749D01*
X19613400Y-47490400D01*
X19613400Y-48265400D01*
X19605712Y-48304051D01*
X19583818Y-48336818D01*
X19551051Y-48358712D01*
X19512400Y-48366400D01*
X19412400Y-48366400D01*
X19373749Y-48358712D01*
X19340982Y-48336818D01*
X19319088Y-48304051D01*
X19311400Y-48265400D01*
X19311400Y-47490400D01*
X19319088Y-47451749D01*
X19340982Y-47418982D01*
X19373749Y-47397088D01*
X19412400Y-47389400D01*
X19512400Y-47389400D01*
X19551051Y-47397088D01*
G37*
G36*
X19951051Y-47397088D02*
G01*
X19983818Y-47418982D01*
X20005712Y-47451749D01*
X20013400Y-47490400D01*
X20013400Y-48265400D01*
X20005712Y-48304051D01*
X19983818Y-48336818D01*
X19951051Y-48358712D01*
X19912400Y-48366400D01*
X19812400Y-48366400D01*
X19773749Y-48358712D01*
X19740982Y-48336818D01*
X19719088Y-48304051D01*
X19711400Y-48265400D01*
X19711400Y-47490400D01*
X19719088Y-47451749D01*
X19740982Y-47418982D01*
X19773749Y-47397088D01*
X19812400Y-47389400D01*
X19912400Y-47389400D01*
X19951051Y-47397088D01*
G37*
G36*
X20351051Y-47397088D02*
G01*
X20383818Y-47418982D01*
X20405712Y-47451749D01*
X20413400Y-47490400D01*
X20413400Y-48265400D01*
X20405712Y-48304051D01*
X20383818Y-48336818D01*
X20351051Y-48358712D01*
X20312400Y-48366400D01*
X20212400Y-48366400D01*
X20173749Y-48358712D01*
X20140982Y-48336818D01*
X20119088Y-48304051D01*
X20111400Y-48265400D01*
X20111400Y-47490400D01*
X20119088Y-47451749D01*
X20140982Y-47418982D01*
X20173749Y-47397088D01*
X20212400Y-47389400D01*
X20312400Y-47389400D01*
X20351051Y-47397088D01*
G37*
G36*
X20751051Y-47397088D02*
G01*
X20783818Y-47418982D01*
X20805712Y-47451749D01*
X20813400Y-47490400D01*
X20813400Y-48265400D01*
X20805712Y-48304051D01*
X20783818Y-48336818D01*
X20751051Y-48358712D01*
X20712400Y-48366400D01*
X20612400Y-48366400D01*
X20573749Y-48358712D01*
X20540982Y-48336818D01*
X20519088Y-48304051D01*
X20511400Y-48265400D01*
X20511400Y-47490400D01*
X20519088Y-47451749D01*
X20540982Y-47418982D01*
X20573749Y-47397088D01*
X20612400Y-47389400D01*
X20712400Y-47389400D01*
X20751051Y-47397088D01*
G37*
G36*
X21151051Y-47397088D02*
G01*
X21183818Y-47418982D01*
X21205712Y-47451749D01*
X21213400Y-47490400D01*
X21213400Y-48265400D01*
X21205712Y-48304051D01*
X21183818Y-48336818D01*
X21151051Y-48358712D01*
X21112400Y-48366400D01*
X21012400Y-48366400D01*
X20973749Y-48358712D01*
X20940982Y-48336818D01*
X20919088Y-48304051D01*
X20911400Y-48265400D01*
X20911400Y-47490400D01*
X20919088Y-47451749D01*
X20940982Y-47418982D01*
X20973749Y-47397088D01*
X21012400Y-47389400D01*
X21112400Y-47389400D01*
X21151051Y-47397088D01*
G37*
G36*
X21551051Y-47397088D02*
G01*
X21583818Y-47418982D01*
X21605712Y-47451749D01*
X21613400Y-47490400D01*
X21613400Y-48265400D01*
X21605712Y-48304051D01*
X21583818Y-48336818D01*
X21551051Y-48358712D01*
X21512400Y-48366400D01*
X21412400Y-48366400D01*
X21373749Y-48358712D01*
X21340982Y-48336818D01*
X21319088Y-48304051D01*
X21311400Y-48265400D01*
X21311400Y-47490400D01*
X21319088Y-47451749D01*
X21340982Y-47418982D01*
X21373749Y-47397088D01*
X21412400Y-47389400D01*
X21512400Y-47389400D01*
X21551051Y-47397088D01*
G37*
G36*
X21951051Y-47397088D02*
G01*
X21983818Y-47418982D01*
X22005712Y-47451749D01*
X22013400Y-47490400D01*
X22013400Y-48265400D01*
X22005712Y-48304051D01*
X21983818Y-48336818D01*
X21951051Y-48358712D01*
X21912400Y-48366400D01*
X21812400Y-48366400D01*
X21773749Y-48358712D01*
X21740982Y-48336818D01*
X21719088Y-48304051D01*
X21711400Y-48265400D01*
X21711400Y-47490400D01*
X21719088Y-47451749D01*
X21740982Y-47418982D01*
X21773749Y-47397088D01*
X21812400Y-47389400D01*
X21912400Y-47389400D01*
X21951051Y-47397088D01*
G37*
G36*
X22351051Y-47397088D02*
G01*
X22383818Y-47418982D01*
X22405712Y-47451749D01*
X22413400Y-47490400D01*
X22413400Y-48265400D01*
X22405712Y-48304051D01*
X22383818Y-48336818D01*
X22351051Y-48358712D01*
X22312400Y-48366400D01*
X22212400Y-48366400D01*
X22173749Y-48358712D01*
X22140982Y-48336818D01*
X22119088Y-48304051D01*
X22111400Y-48265400D01*
X22111400Y-47490400D01*
X22119088Y-47451749D01*
X22140982Y-47418982D01*
X22173749Y-47397088D01*
X22212400Y-47389400D01*
X22312400Y-47389400D01*
X22351051Y-47397088D01*
G37*
G36*
X22751051Y-47397088D02*
G01*
X22783818Y-47418982D01*
X22805712Y-47451749D01*
X22813400Y-47490400D01*
X22813400Y-48265400D01*
X22805712Y-48304051D01*
X22783818Y-48336818D01*
X22751051Y-48358712D01*
X22712400Y-48366400D01*
X22612400Y-48366400D01*
X22573749Y-48358712D01*
X22540982Y-48336818D01*
X22519088Y-48304051D01*
X22511400Y-48265400D01*
X22511400Y-47490400D01*
X22519088Y-47451749D01*
X22540982Y-47418982D01*
X22573749Y-47397088D01*
X22612400Y-47389400D01*
X22712400Y-47389400D01*
X22751051Y-47397088D01*
G37*
G36*
X23151051Y-47397088D02*
G01*
X23183818Y-47418982D01*
X23205712Y-47451749D01*
X23213400Y-47490400D01*
X23213400Y-48265400D01*
X23205712Y-48304051D01*
X23183818Y-48336818D01*
X23151051Y-48358712D01*
X23112400Y-48366400D01*
X23012400Y-48366400D01*
X22973749Y-48358712D01*
X22940982Y-48336818D01*
X22919088Y-48304051D01*
X22911400Y-48265400D01*
X22911400Y-47490400D01*
X22919088Y-47451749D01*
X22940982Y-47418982D01*
X22973749Y-47397088D01*
X23012400Y-47389400D01*
X23112400Y-47389400D01*
X23151051Y-47397088D01*
G37*
G36*
X37875493Y-47663939D02*
G01*
X37937457Y-47705343D01*
X37978861Y-47767307D01*
X37993400Y-47840400D01*
X37993400Y-48120400D01*
X37978861Y-48193493D01*
X37937457Y-48255457D01*
X37875493Y-48296861D01*
X37802400Y-48311400D01*
X37462400Y-48311400D01*
X37389307Y-48296861D01*
X37327343Y-48255457D01*
X37285939Y-48193493D01*
X37271400Y-48120400D01*
X37271400Y-47840400D01*
X37285939Y-47767307D01*
X37327343Y-47705343D01*
X37389307Y-47663939D01*
X37462400Y-47649400D01*
X37802400Y-47649400D01*
X37875493Y-47663939D01*
G37*
G36*
X11705493Y-47033939D02*
G01*
X11767457Y-47075343D01*
X11808861Y-47137307D01*
X11823400Y-47210400D01*
X11823400Y-47490400D01*
X11808861Y-47563493D01*
X11767457Y-47625457D01*
X11705493Y-47666861D01*
X11632400Y-47681400D01*
X11292400Y-47681400D01*
X11219307Y-47666861D01*
X11157343Y-47625457D01*
X11115939Y-47563493D01*
X11101400Y-47490400D01*
X11101400Y-47210400D01*
X11115939Y-47137307D01*
X11157343Y-47075343D01*
X11219307Y-47033939D01*
X11292400Y-47019400D01*
X11632400Y-47019400D01*
X11705493Y-47033939D01*
G37*
G36*
X8415917Y-41809282D02*
G01*
X8432462Y-41820338D01*
X8443518Y-41836883D01*
X8447400Y-41856400D01*
X8447400Y-47456400D01*
X8443518Y-47475917D01*
X8432462Y-47492462D01*
X8415917Y-47503518D01*
X8396400Y-47507400D01*
X6296400Y-47507400D01*
X6276883Y-47503518D01*
X6260338Y-47492462D01*
X6249282Y-47475917D01*
X6245400Y-47456400D01*
X6245400Y-41856400D01*
X6249282Y-41836883D01*
X6260338Y-41820338D01*
X6276883Y-41809282D01*
X6296400Y-41805400D01*
X8396400Y-41805400D01*
X8415917Y-41809282D01*
G37*
G36*
X37875493Y-46703939D02*
G01*
X37937457Y-46745343D01*
X37978861Y-46807307D01*
X37993400Y-46880400D01*
X37993400Y-47160400D01*
X37978861Y-47233493D01*
X37937457Y-47295457D01*
X37875493Y-47336861D01*
X37802400Y-47351400D01*
X37462400Y-47351400D01*
X37389307Y-47336861D01*
X37327343Y-47295457D01*
X37285939Y-47233493D01*
X37271400Y-47160400D01*
X37271400Y-46880400D01*
X37285939Y-46807307D01*
X37327343Y-46745343D01*
X37389307Y-46703939D01*
X37462400Y-46689400D01*
X37802400Y-46689400D01*
X37875493Y-46703939D01*
G37*
G36*
X24096693Y-46213539D02*
G01*
X24158657Y-46254943D01*
X24200061Y-46316907D01*
X24214600Y-46390000D01*
X24214600Y-46670000D01*
X24200061Y-46743093D01*
X24158657Y-46805057D01*
X24096693Y-46846461D01*
X24023600Y-46861000D01*
X23683600Y-46861000D01*
X23610507Y-46846461D01*
X23548543Y-46805057D01*
X23507139Y-46743093D01*
X23492600Y-46670000D01*
X23492600Y-46390000D01*
X23507139Y-46316907D01*
X23548543Y-46254943D01*
X23610507Y-46213539D01*
X23683600Y-46199000D01*
X24023600Y-46199000D01*
X24096693Y-46213539D01*
G37*
G36*
X41993117Y-44327882D02*
G01*
X42009662Y-44338938D01*
X42020718Y-44355483D01*
X42024600Y-44375000D01*
X42024600Y-46075000D01*
X42020718Y-46094517D01*
X42009662Y-46111062D01*
X41993117Y-46122118D01*
X41973600Y-46126000D01*
X40273600Y-46126000D01*
X40254083Y-46122118D01*
X40237538Y-46111062D01*
X40226482Y-46094517D01*
X40222600Y-46075000D01*
X40222600Y-44375000D01*
X40226482Y-44355483D01*
X40237538Y-44338938D01*
X40254083Y-44327882D01*
X40273600Y-44324000D01*
X41973600Y-44324000D01*
X41993117Y-44327882D01*
G37*
G36*
X24096693Y-45253539D02*
G01*
X24158657Y-45294943D01*
X24200061Y-45356907D01*
X24214600Y-45430000D01*
X24214600Y-45710000D01*
X24200061Y-45783093D01*
X24158657Y-45845057D01*
X24096693Y-45886461D01*
X24023600Y-45901000D01*
X23683600Y-45901000D01*
X23610507Y-45886461D01*
X23548543Y-45845057D01*
X23507139Y-45783093D01*
X23492600Y-45710000D01*
X23492600Y-45430000D01*
X23507139Y-45356907D01*
X23548543Y-45294943D01*
X23610507Y-45253539D01*
X23683600Y-45239000D01*
X24023600Y-45239000D01*
X24096693Y-45253539D01*
G37*
G36*
X19466693Y-45078539D02*
G01*
X19528657Y-45119943D01*
X19570061Y-45181907D01*
X19584600Y-45255000D01*
X19584600Y-45535000D01*
X19570061Y-45608093D01*
X19528657Y-45670057D01*
X19466693Y-45711461D01*
X19393600Y-45726000D01*
X19053600Y-45726000D01*
X18980507Y-45711461D01*
X18918543Y-45670057D01*
X18877139Y-45608093D01*
X18862600Y-45535000D01*
X18862600Y-45255000D01*
X18877139Y-45181907D01*
X18918543Y-45119943D01*
X18980507Y-45078539D01*
X19053600Y-45064000D01*
X19393600Y-45064000D01*
X19466693Y-45078539D01*
G37*
G36*
X19466693Y-44118539D02*
G01*
X19528657Y-44159943D01*
X19570061Y-44221907D01*
X19584600Y-44295000D01*
X19584600Y-44575000D01*
X19570061Y-44648093D01*
X19528657Y-44710057D01*
X19466693Y-44751461D01*
X19393600Y-44766000D01*
X19053600Y-44766000D01*
X18980507Y-44751461D01*
X18918543Y-44710057D01*
X18877139Y-44648093D01*
X18862600Y-44575000D01*
X18862600Y-44295000D01*
X18877139Y-44221907D01*
X18918543Y-44159943D01*
X18980507Y-44118539D01*
X19053600Y-44104000D01*
X19393600Y-44104000D01*
X19466693Y-44118539D01*
G37*
G36*
X37849779Y-41893158D02*
G01*
X37910122Y-41933478D01*
X37950442Y-41993821D01*
X37964600Y-42065000D01*
X37964600Y-42435000D01*
X37950442Y-42506179D01*
X37910122Y-42566522D01*
X37849779Y-42606842D01*
X37778600Y-42621000D01*
X37508600Y-42621000D01*
X37437421Y-42606842D01*
X37377078Y-42566522D01*
X37336758Y-42506179D01*
X37322600Y-42435000D01*
X37322600Y-42065000D01*
X37336758Y-41993821D01*
X37377078Y-41933478D01*
X37437421Y-41893158D01*
X37508600Y-41879000D01*
X37778600Y-41879000D01*
X37849779Y-41893158D01*
G37*
G36*
X38869779Y-41893158D02*
G01*
X38930122Y-41933478D01*
X38970442Y-41993821D01*
X38984600Y-42065000D01*
X38984600Y-42435000D01*
X38970442Y-42506179D01*
X38930122Y-42566522D01*
X38869779Y-42606842D01*
X38798600Y-42621000D01*
X38528600Y-42621000D01*
X38457421Y-42606842D01*
X38397078Y-42566522D01*
X38356758Y-42506179D01*
X38342600Y-42435000D01*
X38342600Y-42065000D01*
X38356758Y-41993821D01*
X38397078Y-41933478D01*
X38457421Y-41893158D01*
X38528600Y-41879000D01*
X38798600Y-41879000D01*
X38869779Y-41893158D01*
G37*
G36*
X31509319Y-39929700D02*
G01*
X31574528Y-39973272D01*
X31618100Y-40038481D01*
X31633400Y-40115400D01*
X31633400Y-41415400D01*
X31618100Y-41492319D01*
X31574528Y-41557528D01*
X31509319Y-41601100D01*
X31432400Y-41616400D01*
X31132400Y-41616400D01*
X31055481Y-41601100D01*
X30990272Y-41557528D01*
X30946700Y-41492319D01*
X30931400Y-41415400D01*
X30931400Y-40115400D01*
X30946700Y-40038481D01*
X30990272Y-39973272D01*
X31055481Y-39929700D01*
X31132400Y-39914400D01*
X31432400Y-39914400D01*
X31509319Y-39929700D01*
G37*
G36*
X32779319Y-39929700D02*
G01*
X32844528Y-39973272D01*
X32888100Y-40038481D01*
X32903400Y-40115400D01*
X32903400Y-41415400D01*
X32888100Y-41492319D01*
X32844528Y-41557528D01*
X32779319Y-41601100D01*
X32702400Y-41616400D01*
X32402400Y-41616400D01*
X32325481Y-41601100D01*
X32260272Y-41557528D01*
X32216700Y-41492319D01*
X32201400Y-41415400D01*
X32201400Y-40115400D01*
X32216700Y-40038481D01*
X32260272Y-39973272D01*
X32325481Y-39929700D01*
X32402400Y-39914400D01*
X32702400Y-39914400D01*
X32779319Y-39929700D01*
G37*
G36*
X34049319Y-39929700D02*
G01*
X34114528Y-39973272D01*
X34158100Y-40038481D01*
X34173400Y-40115400D01*
X34173400Y-41415400D01*
X34158100Y-41492319D01*
X34114528Y-41557528D01*
X34049319Y-41601100D01*
X33972400Y-41616400D01*
X33672400Y-41616400D01*
X33595481Y-41601100D01*
X33530272Y-41557528D01*
X33486700Y-41492319D01*
X33471400Y-41415400D01*
X33471400Y-40115400D01*
X33486700Y-40038481D01*
X33530272Y-39973272D01*
X33595481Y-39929700D01*
X33672400Y-39914400D01*
X33972400Y-39914400D01*
X34049319Y-39929700D01*
G37*
G36*
X35319319Y-39929700D02*
G01*
X35384528Y-39973272D01*
X35428100Y-40038481D01*
X35443400Y-40115400D01*
X35443400Y-41415400D01*
X35428100Y-41492319D01*
X35384528Y-41557528D01*
X35319319Y-41601100D01*
X35242400Y-41616400D01*
X34942400Y-41616400D01*
X34865481Y-41601100D01*
X34800272Y-41557528D01*
X34756700Y-41492319D01*
X34741400Y-41415400D01*
X34741400Y-40115400D01*
X34756700Y-40038481D01*
X34800272Y-39973272D01*
X34865481Y-39929700D01*
X34942400Y-39914400D01*
X35242400Y-39914400D01*
X35319319Y-39929700D01*
G37*
G36*
X37843579Y-40458558D02*
G01*
X37903922Y-40498878D01*
X37944242Y-40559221D01*
X37958400Y-40630400D01*
X37958400Y-41000400D01*
X37944242Y-41071579D01*
X37903922Y-41131922D01*
X37843579Y-41172242D01*
X37772400Y-41186400D01*
X37502400Y-41186400D01*
X37431221Y-41172242D01*
X37370878Y-41131922D01*
X37330558Y-41071579D01*
X37316400Y-41000400D01*
X37316400Y-40630400D01*
X37330558Y-40559221D01*
X37370878Y-40498878D01*
X37431221Y-40458558D01*
X37502400Y-40444400D01*
X37772400Y-40444400D01*
X37843579Y-40458558D01*
G37*
G36*
X38863579Y-40458558D02*
G01*
X38923922Y-40498878D01*
X38964242Y-40559221D01*
X38978400Y-40630400D01*
X38978400Y-41000400D01*
X38964242Y-41071579D01*
X38923922Y-41131922D01*
X38863579Y-41172242D01*
X38792400Y-41186400D01*
X38522400Y-41186400D01*
X38451221Y-41172242D01*
X38390878Y-41131922D01*
X38350558Y-41071579D01*
X38336400Y-41000400D01*
X38336400Y-40630400D01*
X38350558Y-40559221D01*
X38390878Y-40498878D01*
X38451221Y-40458558D01*
X38522400Y-40444400D01*
X38792400Y-40444400D01*
X38863579Y-40458558D01*
G37*
G36*
X42186179Y-40053158D02*
G01*
X42246522Y-40093478D01*
X42286842Y-40153821D01*
X42301000Y-40225000D01*
X42301000Y-40495000D01*
X42286842Y-40566179D01*
X42246522Y-40626522D01*
X42186179Y-40666842D01*
X42115000Y-40681000D01*
X41745000Y-40681000D01*
X41673821Y-40666842D01*
X41613478Y-40626522D01*
X41573158Y-40566179D01*
X41559000Y-40495000D01*
X41559000Y-40225000D01*
X41573158Y-40153821D01*
X41613478Y-40093478D01*
X41673821Y-40053158D01*
X41745000Y-40039000D01*
X42115000Y-40039000D01*
X42186179Y-40053158D01*
G37*
G36*
X42186179Y-39033158D02*
G01*
X42246522Y-39073478D01*
X42286842Y-39133821D01*
X42301000Y-39205000D01*
X42301000Y-39475000D01*
X42286842Y-39546179D01*
X42246522Y-39606522D01*
X42186179Y-39646842D01*
X42115000Y-39661000D01*
X41745000Y-39661000D01*
X41673821Y-39646842D01*
X41613478Y-39606522D01*
X41573158Y-39546179D01*
X41559000Y-39475000D01*
X41559000Y-39205000D01*
X41573158Y-39133821D01*
X41613478Y-39073478D01*
X41673821Y-39033158D01*
X41745000Y-39019000D01*
X42115000Y-39019000D01*
X42186179Y-39033158D01*
G37*
G36*
X34972785Y-36485494D02*
G01*
X35021773Y-36518227D01*
X35054506Y-36567215D01*
X35066000Y-36625000D01*
X35066000Y-37900000D01*
X35054506Y-37957785D01*
X35021773Y-38006773D01*
X34972785Y-38039506D01*
X34915000Y-38051000D01*
X34715000Y-38051000D01*
X34657215Y-38039506D01*
X34608227Y-38006773D01*
X34575494Y-37957785D01*
X34564000Y-37900000D01*
X34564000Y-36625000D01*
X34575494Y-36567215D01*
X34608227Y-36518227D01*
X34657215Y-36485494D01*
X34715000Y-36474000D01*
X34915000Y-36474000D01*
X34972785Y-36485494D01*
G37*
G36*
X35622785Y-36485494D02*
G01*
X35671773Y-36518227D01*
X35704506Y-36567215D01*
X35716000Y-36625000D01*
X35716000Y-37900000D01*
X35704506Y-37957785D01*
X35671773Y-38006773D01*
X35622785Y-38039506D01*
X35565000Y-38051000D01*
X35365000Y-38051000D01*
X35307215Y-38039506D01*
X35258227Y-38006773D01*
X35225494Y-37957785D01*
X35214000Y-37900000D01*
X35214000Y-36625000D01*
X35225494Y-36567215D01*
X35258227Y-36518227D01*
X35307215Y-36485494D01*
X35365000Y-36474000D01*
X35565000Y-36474000D01*
X35622785Y-36485494D01*
G37*
G36*
X36272785Y-36485494D02*
G01*
X36321773Y-36518227D01*
X36354506Y-36567215D01*
X36366000Y-36625000D01*
X36366000Y-37900000D01*
X36354506Y-37957785D01*
X36321773Y-38006773D01*
X36272785Y-38039506D01*
X36215000Y-38051000D01*
X36015000Y-38051000D01*
X35957215Y-38039506D01*
X35908227Y-38006773D01*
X35875494Y-37957785D01*
X35864000Y-37900000D01*
X35864000Y-36625000D01*
X35875494Y-36567215D01*
X35908227Y-36518227D01*
X35957215Y-36485494D01*
X36015000Y-36474000D01*
X36215000Y-36474000D01*
X36272785Y-36485494D01*
G37*
G36*
X36922785Y-36485494D02*
G01*
X36971773Y-36518227D01*
X37004506Y-36567215D01*
X37016000Y-36625000D01*
X37016000Y-37900000D01*
X37004506Y-37957785D01*
X36971773Y-38006773D01*
X36922785Y-38039506D01*
X36865000Y-38051000D01*
X36665000Y-38051000D01*
X36607215Y-38039506D01*
X36558227Y-38006773D01*
X36525494Y-37957785D01*
X36514000Y-37900000D01*
X36514000Y-36625000D01*
X36525494Y-36567215D01*
X36558227Y-36518227D01*
X36607215Y-36485494D01*
X36665000Y-36474000D01*
X36865000Y-36474000D01*
X36922785Y-36485494D01*
G37*
G36*
X37572785Y-36485494D02*
G01*
X37621773Y-36518227D01*
X37654506Y-36567215D01*
X37666000Y-36625000D01*
X37666000Y-37900000D01*
X37654506Y-37957785D01*
X37621773Y-38006773D01*
X37572785Y-38039506D01*
X37515000Y-38051000D01*
X37315000Y-38051000D01*
X37257215Y-38039506D01*
X37208227Y-38006773D01*
X37175494Y-37957785D01*
X37164000Y-37900000D01*
X37164000Y-36625000D01*
X37175494Y-36567215D01*
X37208227Y-36518227D01*
X37257215Y-36485494D01*
X37315000Y-36474000D01*
X37515000Y-36474000D01*
X37572785Y-36485494D01*
G37*
G36*
X38222785Y-36485494D02*
G01*
X38271773Y-36518227D01*
X38304506Y-36567215D01*
X38316000Y-36625000D01*
X38316000Y-37900000D01*
X38304506Y-37957785D01*
X38271773Y-38006773D01*
X38222785Y-38039506D01*
X38165000Y-38051000D01*
X37965000Y-38051000D01*
X37907215Y-38039506D01*
X37858227Y-38006773D01*
X37825494Y-37957785D01*
X37814000Y-37900000D01*
X37814000Y-36625000D01*
X37825494Y-36567215D01*
X37858227Y-36518227D01*
X37907215Y-36485494D01*
X37965000Y-36474000D01*
X38165000Y-36474000D01*
X38222785Y-36485494D01*
G37*
G36*
X38872785Y-36485494D02*
G01*
X38921773Y-36518227D01*
X38954506Y-36567215D01*
X38966000Y-36625000D01*
X38966000Y-37900000D01*
X38954506Y-37957785D01*
X38921773Y-38006773D01*
X38872785Y-38039506D01*
X38815000Y-38051000D01*
X38615000Y-38051000D01*
X38557215Y-38039506D01*
X38508227Y-38006773D01*
X38475494Y-37957785D01*
X38464000Y-37900000D01*
X38464000Y-36625000D01*
X38475494Y-36567215D01*
X38508227Y-36518227D01*
X38557215Y-36485494D01*
X38615000Y-36474000D01*
X38815000Y-36474000D01*
X38872785Y-36485494D01*
G37*
G36*
X39522785Y-36485494D02*
G01*
X39571773Y-36518227D01*
X39604506Y-36567215D01*
X39616000Y-36625000D01*
X39616000Y-37900000D01*
X39604506Y-37957785D01*
X39571773Y-38006773D01*
X39522785Y-38039506D01*
X39465000Y-38051000D01*
X39265000Y-38051000D01*
X39207215Y-38039506D01*
X39158227Y-38006773D01*
X39125494Y-37957785D01*
X39114000Y-37900000D01*
X39114000Y-36625000D01*
X39125494Y-36567215D01*
X39158227Y-36518227D01*
X39207215Y-36485494D01*
X39265000Y-36474000D01*
X39465000Y-36474000D01*
X39522785Y-36485494D01*
G37*
G36*
X40172785Y-36485494D02*
G01*
X40221773Y-36518227D01*
X40254506Y-36567215D01*
X40266000Y-36625000D01*
X40266000Y-37900000D01*
X40254506Y-37957785D01*
X40221773Y-38006773D01*
X40172785Y-38039506D01*
X40115000Y-38051000D01*
X39915000Y-38051000D01*
X39857215Y-38039506D01*
X39808227Y-38006773D01*
X39775494Y-37957785D01*
X39764000Y-37900000D01*
X39764000Y-36625000D01*
X39775494Y-36567215D01*
X39808227Y-36518227D01*
X39857215Y-36485494D01*
X39915000Y-36474000D01*
X40115000Y-36474000D01*
X40172785Y-36485494D01*
G37*
G36*
X40822785Y-36485494D02*
G01*
X40871773Y-36518227D01*
X40904506Y-36567215D01*
X40916000Y-36625000D01*
X40916000Y-37900000D01*
X40904506Y-37957785D01*
X40871773Y-38006773D01*
X40822785Y-38039506D01*
X40765000Y-38051000D01*
X40565000Y-38051000D01*
X40507215Y-38039506D01*
X40458227Y-38006773D01*
X40425494Y-37957785D01*
X40414000Y-37900000D01*
X40414000Y-36625000D01*
X40425494Y-36567215D01*
X40458227Y-36518227D01*
X40507215Y-36485494D01*
X40565000Y-36474000D01*
X40765000Y-36474000D01*
X40822785Y-36485494D01*
G37*
G36*
X41472785Y-36485494D02*
G01*
X41521773Y-36518227D01*
X41554506Y-36567215D01*
X41566000Y-36625000D01*
X41566000Y-37900000D01*
X41554506Y-37957785D01*
X41521773Y-38006773D01*
X41472785Y-38039506D01*
X41415000Y-38051000D01*
X41215000Y-38051000D01*
X41157215Y-38039506D01*
X41108227Y-38006773D01*
X41075494Y-37957785D01*
X41064000Y-37900000D01*
X41064000Y-36625000D01*
X41075494Y-36567215D01*
X41108227Y-36518227D01*
X41157215Y-36485494D01*
X41215000Y-36474000D01*
X41415000Y-36474000D01*
X41472785Y-36485494D01*
G37*
G36*
X42122785Y-36485494D02*
G01*
X42171773Y-36518227D01*
X42204506Y-36567215D01*
X42216000Y-36625000D01*
X42216000Y-37900000D01*
X42204506Y-37957785D01*
X42171773Y-38006773D01*
X42122785Y-38039506D01*
X42065000Y-38051000D01*
X41865000Y-38051000D01*
X41807215Y-38039506D01*
X41758227Y-38006773D01*
X41725494Y-37957785D01*
X41714000Y-37900000D01*
X41714000Y-36625000D01*
X41725494Y-36567215D01*
X41758227Y-36518227D01*
X41807215Y-36485494D01*
X41865000Y-36474000D01*
X42065000Y-36474000D01*
X42122785Y-36485494D01*
G37*
G36*
X55687465Y-35253675D02*
G01*
X55736955Y-35253675D01*
X55792070Y-35263977D01*
X55845040Y-35269195D01*
X55885279Y-35281401D01*
X55927570Y-35289307D01*
X55986142Y-35311997D01*
X56042200Y-35329003D01*
X56074231Y-35346123D01*
X56108382Y-35359354D01*
X56167719Y-35396093D01*
X56223904Y-35426125D01*
X56247509Y-35445497D01*
X56273251Y-35461436D01*
X56330290Y-35513434D01*
X56383169Y-35556831D01*
X56398839Y-35575924D01*
X56416557Y-35592077D01*
X56467989Y-35660184D01*
X56513875Y-35716096D01*
X56522748Y-35732697D01*
X56533415Y-35746822D01*
X56575860Y-35832064D01*
X56610997Y-35897800D01*
X56614743Y-35910151D01*
X56619848Y-35920402D01*
X56649997Y-36026368D01*
X56670805Y-36094960D01*
X56671488Y-36101900D01*
X56672915Y-36106914D01*
X56687740Y-36266906D01*
X56691000Y-36300000D01*
X56687737Y-36333122D01*
X56672915Y-36493085D01*
X56671488Y-36498097D01*
X56670805Y-36505040D01*
X56649993Y-36573646D01*
X56619848Y-36679597D01*
X56614744Y-36689846D01*
X56610997Y-36702200D01*
X56575853Y-36767949D01*
X56533415Y-36853177D01*
X56522750Y-36867299D01*
X56513875Y-36883904D01*
X56467979Y-36939827D01*
X56416557Y-37007922D01*
X56398842Y-37024071D01*
X56383169Y-37043169D01*
X56330279Y-37086574D01*
X56273251Y-37138563D01*
X56247514Y-37154498D01*
X56223904Y-37173875D01*
X56167707Y-37203912D01*
X56108382Y-37240645D01*
X56074238Y-37253872D01*
X56042200Y-37270997D01*
X55986130Y-37288005D01*
X55927570Y-37310692D01*
X55885286Y-37318596D01*
X55845040Y-37330805D01*
X55792067Y-37336022D01*
X55736955Y-37346325D01*
X55687465Y-37346325D01*
X55640000Y-37351000D01*
X55592535Y-37346325D01*
X55543045Y-37346325D01*
X55487931Y-37336022D01*
X55434960Y-37330805D01*
X55394714Y-37318596D01*
X55352429Y-37310692D01*
X55293865Y-37288004D01*
X55237800Y-37270997D01*
X55205764Y-37253873D01*
X55171617Y-37240645D01*
X55112285Y-37203908D01*
X55056096Y-37173875D01*
X55032488Y-37154500D01*
X55006748Y-37138563D01*
X54949710Y-37086565D01*
X54896831Y-37043169D01*
X54881160Y-37024074D01*
X54863442Y-37007922D01*
X54812007Y-36939811D01*
X54766125Y-36883904D01*
X54757252Y-36867303D01*
X54746584Y-36853177D01*
X54704131Y-36767921D01*
X54669003Y-36702200D01*
X54665257Y-36689851D01*
X54660151Y-36679597D01*
X54629990Y-36573593D01*
X54609195Y-36505040D01*
X54608511Y-36498103D01*
X54607084Y-36493085D01*
X54592259Y-36333093D01*
X54589000Y-36300000D01*
X54592256Y-36266935D01*
X54607084Y-36106914D01*
X54608511Y-36101895D01*
X54609195Y-36094960D01*
X54629986Y-36026421D01*
X54660151Y-35920402D01*
X54665257Y-35910146D01*
X54669003Y-35897800D01*
X54704124Y-35832091D01*
X54746584Y-35746822D01*
X54757253Y-35732692D01*
X54766125Y-35716096D01*
X54811998Y-35660199D01*
X54863442Y-35592077D01*
X54881163Y-35575921D01*
X54896831Y-35556831D01*
X54949699Y-35513443D01*
X55006748Y-35461436D01*
X55032493Y-35445495D01*
X55056096Y-35426125D01*
X55112273Y-35396097D01*
X55171617Y-35359354D01*
X55205771Y-35346122D01*
X55237800Y-35329003D01*
X55293853Y-35311999D01*
X55352429Y-35289307D01*
X55394721Y-35281401D01*
X55434960Y-35269195D01*
X55487928Y-35263977D01*
X55543045Y-35253675D01*
X55592535Y-35253675D01*
X55640000Y-35249000D01*
X55687465Y-35253675D01*
G37*
G36*
X66659517Y-35252882D02*
G01*
X66676062Y-35263938D01*
X66687118Y-35280483D01*
X66691000Y-35300000D01*
X66691000Y-37300000D01*
X66687118Y-37319517D01*
X66676062Y-37336062D01*
X66659517Y-37347118D01*
X66640000Y-37351000D01*
X64640000Y-37351000D01*
X64620483Y-37347118D01*
X64603938Y-37336062D01*
X64592882Y-37319517D01*
X64589000Y-37300000D01*
X64589000Y-35300000D01*
X64592882Y-35280483D01*
X64603938Y-35263938D01*
X64620483Y-35252882D01*
X64640000Y-35249000D01*
X66640000Y-35249000D01*
X66659517Y-35252882D01*
G37*
G36*
X2454517Y-36802882D02*
G01*
X2471062Y-36813938D01*
X2482118Y-36830483D01*
X2486000Y-36850000D01*
X2486000Y-37250000D01*
X2482118Y-37269517D01*
X2471062Y-37286062D01*
X2454517Y-37297118D01*
X2435000Y-37301000D01*
X1785000Y-37301000D01*
X1765483Y-37297118D01*
X1748938Y-37286062D01*
X1737882Y-37269517D01*
X1734000Y-37250000D01*
X1734000Y-36850000D01*
X1737882Y-36830483D01*
X1748938Y-36813938D01*
X1765483Y-36802882D01*
X1785000Y-36799000D01*
X2435000Y-36799000D01*
X2454517Y-36802882D01*
G37*
G36*
X4354517Y-36802882D02*
G01*
X4371062Y-36813938D01*
X4382118Y-36830483D01*
X4386000Y-36850000D01*
X4386000Y-37250000D01*
X4382118Y-37269517D01*
X4371062Y-37286062D01*
X4354517Y-37297118D01*
X4335000Y-37301000D01*
X3685000Y-37301000D01*
X3665483Y-37297118D01*
X3648938Y-37286062D01*
X3637882Y-37269517D01*
X3634000Y-37250000D01*
X3634000Y-36850000D01*
X3637882Y-36830483D01*
X3648938Y-36813938D01*
X3665483Y-36802882D01*
X3685000Y-36799000D01*
X4335000Y-36799000D01*
X4354517Y-36802882D01*
G37*
G36*
X7554517Y-36802882D02*
G01*
X7571062Y-36813938D01*
X7582118Y-36830483D01*
X7586000Y-36850000D01*
X7586000Y-37250000D01*
X7582118Y-37269517D01*
X7571062Y-37286062D01*
X7554517Y-37297118D01*
X7535000Y-37301000D01*
X6885000Y-37301000D01*
X6865483Y-37297118D01*
X6848938Y-37286062D01*
X6837882Y-37269517D01*
X6834000Y-37250000D01*
X6834000Y-36850000D01*
X6837882Y-36830483D01*
X6848938Y-36813938D01*
X6865483Y-36802882D01*
X6885000Y-36799000D01*
X7535000Y-36799000D01*
X7554517Y-36802882D01*
G37*
G36*
X9454517Y-36802882D02*
G01*
X9471062Y-36813938D01*
X9482118Y-36830483D01*
X9486000Y-36850000D01*
X9486000Y-37250000D01*
X9482118Y-37269517D01*
X9471062Y-37286062D01*
X9454517Y-37297118D01*
X9435000Y-37301000D01*
X8785000Y-37301000D01*
X8765483Y-37297118D01*
X8748938Y-37286062D01*
X8737882Y-37269517D01*
X8734000Y-37250000D01*
X8734000Y-36850000D01*
X8737882Y-36830483D01*
X8748938Y-36813938D01*
X8765483Y-36802882D01*
X8785000Y-36799000D01*
X9435000Y-36799000D01*
X9454517Y-36802882D01*
G37*
G36*
X12754517Y-36702882D02*
G01*
X12771062Y-36713938D01*
X12782118Y-36730483D01*
X12786000Y-36750000D01*
X12786000Y-37150000D01*
X12782118Y-37169517D01*
X12771062Y-37186062D01*
X12754517Y-37197118D01*
X12735000Y-37201000D01*
X12085000Y-37201000D01*
X12065483Y-37197118D01*
X12048938Y-37186062D01*
X12037882Y-37169517D01*
X12034000Y-37150000D01*
X12034000Y-36750000D01*
X12037882Y-36730483D01*
X12048938Y-36713938D01*
X12065483Y-36702882D01*
X12085000Y-36699000D01*
X12735000Y-36699000D01*
X12754517Y-36702882D01*
G37*
G36*
X14654517Y-36702882D02*
G01*
X14671062Y-36713938D01*
X14682118Y-36730483D01*
X14686000Y-36750000D01*
X14686000Y-37150000D01*
X14682118Y-37169517D01*
X14671062Y-37186062D01*
X14654517Y-37197118D01*
X14635000Y-37201000D01*
X13985000Y-37201000D01*
X13965483Y-37197118D01*
X13948938Y-37186062D01*
X13937882Y-37169517D01*
X13934000Y-37150000D01*
X13934000Y-36750000D01*
X13937882Y-36730483D01*
X13948938Y-36713938D01*
X13965483Y-36702882D01*
X13985000Y-36699000D01*
X14635000Y-36699000D01*
X14654517Y-36702882D01*
G37*
G36*
X17554517Y-36602882D02*
G01*
X17571062Y-36613938D01*
X17582118Y-36630483D01*
X17586000Y-36650000D01*
X17586000Y-37050000D01*
X17582118Y-37069517D01*
X17571062Y-37086062D01*
X17554517Y-37097118D01*
X17535000Y-37101000D01*
X16885000Y-37101000D01*
X16865483Y-37097118D01*
X16848938Y-37086062D01*
X16837882Y-37069517D01*
X16834000Y-37050000D01*
X16834000Y-36650000D01*
X16837882Y-36630483D01*
X16848938Y-36613938D01*
X16865483Y-36602882D01*
X16885000Y-36599000D01*
X17535000Y-36599000D01*
X17554517Y-36602882D01*
G37*
G36*
X19454517Y-36602882D02*
G01*
X19471062Y-36613938D01*
X19482118Y-36630483D01*
X19486000Y-36650000D01*
X19486000Y-37050000D01*
X19482118Y-37069517D01*
X19471062Y-37086062D01*
X19454517Y-37097118D01*
X19435000Y-37101000D01*
X18785000Y-37101000D01*
X18765483Y-37097118D01*
X18748938Y-37086062D01*
X18737882Y-37069517D01*
X18734000Y-37050000D01*
X18734000Y-36650000D01*
X18737882Y-36630483D01*
X18748938Y-36613938D01*
X18765483Y-36602882D01*
X18785000Y-36599000D01*
X19435000Y-36599000D01*
X19454517Y-36602882D01*
G37*
G36*
X24354517Y-36502882D02*
G01*
X24371062Y-36513938D01*
X24382118Y-36530483D01*
X24386000Y-36550000D01*
X24386000Y-36950000D01*
X24382118Y-36969517D01*
X24371062Y-36986062D01*
X24354517Y-36997118D01*
X24335000Y-37001000D01*
X23685000Y-37001000D01*
X23665483Y-36997118D01*
X23648938Y-36986062D01*
X23637882Y-36969517D01*
X23634000Y-36950000D01*
X23634000Y-36550000D01*
X23637882Y-36530483D01*
X23648938Y-36513938D01*
X23665483Y-36502882D01*
X23685000Y-36499000D01*
X24335000Y-36499000D01*
X24354517Y-36502882D01*
G37*
G36*
X26254517Y-36502882D02*
G01*
X26271062Y-36513938D01*
X26282118Y-36530483D01*
X26286000Y-36550000D01*
X26286000Y-36950000D01*
X26282118Y-36969517D01*
X26271062Y-36986062D01*
X26254517Y-36997118D01*
X26235000Y-37001000D01*
X25585000Y-37001000D01*
X25565483Y-36997118D01*
X25548938Y-36986062D01*
X25537882Y-36969517D01*
X25534000Y-36950000D01*
X25534000Y-36550000D01*
X25537882Y-36530483D01*
X25548938Y-36513938D01*
X25565483Y-36502882D01*
X25585000Y-36499000D01*
X26235000Y-36499000D01*
X26254517Y-36502882D01*
G37*
G36*
X30654517Y-36402882D02*
G01*
X30671062Y-36413938D01*
X30682118Y-36430483D01*
X30686000Y-36450000D01*
X30686000Y-36850000D01*
X30682118Y-36869517D01*
X30671062Y-36886062D01*
X30654517Y-36897118D01*
X30635000Y-36901000D01*
X29985000Y-36901000D01*
X29965483Y-36897118D01*
X29948938Y-36886062D01*
X29937882Y-36869517D01*
X29934000Y-36850000D01*
X29934000Y-36450000D01*
X29937882Y-36430483D01*
X29948938Y-36413938D01*
X29965483Y-36402882D01*
X29985000Y-36399000D01*
X30635000Y-36399000D01*
X30654517Y-36402882D01*
G37*
G36*
X32554517Y-36402882D02*
G01*
X32571062Y-36413938D01*
X32582118Y-36430483D01*
X32586000Y-36450000D01*
X32586000Y-36850000D01*
X32582118Y-36869517D01*
X32571062Y-36886062D01*
X32554517Y-36897118D01*
X32535000Y-36901000D01*
X31885000Y-36901000D01*
X31865483Y-36897118D01*
X31848938Y-36886062D01*
X31837882Y-36869517D01*
X31834000Y-36850000D01*
X31834000Y-36450000D01*
X31837882Y-36430483D01*
X31848938Y-36413938D01*
X31865483Y-36402882D01*
X31885000Y-36399000D01*
X32535000Y-36399000D01*
X32554517Y-36402882D01*
G37*
G36*
X2454517Y-36152882D02*
G01*
X2471062Y-36163938D01*
X2482118Y-36180483D01*
X2486000Y-36200000D01*
X2486000Y-36600000D01*
X2482118Y-36619517D01*
X2471062Y-36636062D01*
X2454517Y-36647118D01*
X2435000Y-36651000D01*
X1785000Y-36651000D01*
X1765483Y-36647118D01*
X1748938Y-36636062D01*
X1737882Y-36619517D01*
X1734000Y-36600000D01*
X1734000Y-36200000D01*
X1737882Y-36180483D01*
X1748938Y-36163938D01*
X1765483Y-36152882D01*
X1785000Y-36149000D01*
X2435000Y-36149000D01*
X2454517Y-36152882D01*
G37*
G36*
X4354517Y-36152882D02*
G01*
X4371062Y-36163938D01*
X4382118Y-36180483D01*
X4386000Y-36200000D01*
X4386000Y-36600000D01*
X4382118Y-36619517D01*
X4371062Y-36636062D01*
X4354517Y-36647118D01*
X4335000Y-36651000D01*
X3685000Y-36651000D01*
X3665483Y-36647118D01*
X3648938Y-36636062D01*
X3637882Y-36619517D01*
X3634000Y-36600000D01*
X3634000Y-36200000D01*
X3637882Y-36180483D01*
X3648938Y-36163938D01*
X3665483Y-36152882D01*
X3685000Y-36149000D01*
X4335000Y-36149000D01*
X4354517Y-36152882D01*
G37*
G36*
X7554517Y-36152882D02*
G01*
X7571062Y-36163938D01*
X7582118Y-36180483D01*
X7586000Y-36200000D01*
X7586000Y-36600000D01*
X7582118Y-36619517D01*
X7571062Y-36636062D01*
X7554517Y-36647118D01*
X7535000Y-36651000D01*
X6885000Y-36651000D01*
X6865483Y-36647118D01*
X6848938Y-36636062D01*
X6837882Y-36619517D01*
X6834000Y-36600000D01*
X6834000Y-36200000D01*
X6837882Y-36180483D01*
X6848938Y-36163938D01*
X6865483Y-36152882D01*
X6885000Y-36149000D01*
X7535000Y-36149000D01*
X7554517Y-36152882D01*
G37*
G36*
X9454517Y-36152882D02*
G01*
X9471062Y-36163938D01*
X9482118Y-36180483D01*
X9486000Y-36200000D01*
X9486000Y-36600000D01*
X9482118Y-36619517D01*
X9471062Y-36636062D01*
X9454517Y-36647118D01*
X9435000Y-36651000D01*
X8785000Y-36651000D01*
X8765483Y-36647118D01*
X8748938Y-36636062D01*
X8737882Y-36619517D01*
X8734000Y-36600000D01*
X8734000Y-36200000D01*
X8737882Y-36180483D01*
X8748938Y-36163938D01*
X8765483Y-36152882D01*
X8785000Y-36149000D01*
X9435000Y-36149000D01*
X9454517Y-36152882D01*
G37*
G36*
X12754517Y-36052882D02*
G01*
X12771062Y-36063938D01*
X12782118Y-36080483D01*
X12786000Y-36100000D01*
X12786000Y-36500000D01*
X12782118Y-36519517D01*
X12771062Y-36536062D01*
X12754517Y-36547118D01*
X12735000Y-36551000D01*
X12085000Y-36551000D01*
X12065483Y-36547118D01*
X12048938Y-36536062D01*
X12037882Y-36519517D01*
X12034000Y-36500000D01*
X12034000Y-36100000D01*
X12037882Y-36080483D01*
X12048938Y-36063938D01*
X12065483Y-36052882D01*
X12085000Y-36049000D01*
X12735000Y-36049000D01*
X12754517Y-36052882D01*
G37*
G36*
X14654517Y-36052882D02*
G01*
X14671062Y-36063938D01*
X14682118Y-36080483D01*
X14686000Y-36100000D01*
X14686000Y-36500000D01*
X14682118Y-36519517D01*
X14671062Y-36536062D01*
X14654517Y-36547118D01*
X14635000Y-36551000D01*
X13985000Y-36551000D01*
X13965483Y-36547118D01*
X13948938Y-36536062D01*
X13937882Y-36519517D01*
X13934000Y-36500000D01*
X13934000Y-36100000D01*
X13937882Y-36080483D01*
X13948938Y-36063938D01*
X13965483Y-36052882D01*
X13985000Y-36049000D01*
X14635000Y-36049000D01*
X14654517Y-36052882D01*
G37*
G36*
X17554517Y-35952882D02*
G01*
X17571062Y-35963938D01*
X17582118Y-35980483D01*
X17586000Y-36000000D01*
X17586000Y-36400000D01*
X17582118Y-36419517D01*
X17571062Y-36436062D01*
X17554517Y-36447118D01*
X17535000Y-36451000D01*
X16885000Y-36451000D01*
X16865483Y-36447118D01*
X16848938Y-36436062D01*
X16837882Y-36419517D01*
X16834000Y-36400000D01*
X16834000Y-36000000D01*
X16837882Y-35980483D01*
X16848938Y-35963938D01*
X16865483Y-35952882D01*
X16885000Y-35949000D01*
X17535000Y-35949000D01*
X17554517Y-35952882D01*
G37*
G36*
X19454517Y-35952882D02*
G01*
X19471062Y-35963938D01*
X19482118Y-35980483D01*
X19486000Y-36000000D01*
X19486000Y-36400000D01*
X19482118Y-36419517D01*
X19471062Y-36436062D01*
X19454517Y-36447118D01*
X19435000Y-36451000D01*
X18785000Y-36451000D01*
X18765483Y-36447118D01*
X18748938Y-36436062D01*
X18737882Y-36419517D01*
X18734000Y-36400000D01*
X18734000Y-36000000D01*
X18737882Y-35980483D01*
X18748938Y-35963938D01*
X18765483Y-35952882D01*
X18785000Y-35949000D01*
X19435000Y-35949000D01*
X19454517Y-35952882D01*
G37*
G36*
X24354517Y-35852882D02*
G01*
X24371062Y-35863938D01*
X24382118Y-35880483D01*
X24386000Y-35900000D01*
X24386000Y-36300000D01*
X24382118Y-36319517D01*
X24371062Y-36336062D01*
X24354517Y-36347118D01*
X24335000Y-36351000D01*
X23685000Y-36351000D01*
X23665483Y-36347118D01*
X23648938Y-36336062D01*
X23637882Y-36319517D01*
X23634000Y-36300000D01*
X23634000Y-35900000D01*
X23637882Y-35880483D01*
X23648938Y-35863938D01*
X23665483Y-35852882D01*
X23685000Y-35849000D01*
X24335000Y-35849000D01*
X24354517Y-35852882D01*
G37*
G36*
X26254517Y-35852882D02*
G01*
X26271062Y-35863938D01*
X26282118Y-35880483D01*
X26286000Y-35900000D01*
X26286000Y-36300000D01*
X26282118Y-36319517D01*
X26271062Y-36336062D01*
X26254517Y-36347118D01*
X26235000Y-36351000D01*
X25585000Y-36351000D01*
X25565483Y-36347118D01*
X25548938Y-36336062D01*
X25537882Y-36319517D01*
X25534000Y-36300000D01*
X25534000Y-35900000D01*
X25537882Y-35880483D01*
X25548938Y-35863938D01*
X25565483Y-35852882D01*
X25585000Y-35849000D01*
X26235000Y-35849000D01*
X26254517Y-35852882D01*
G37*
G36*
X30654517Y-35752882D02*
G01*
X30671062Y-35763938D01*
X30682118Y-35780483D01*
X30686000Y-35800000D01*
X30686000Y-36200000D01*
X30682118Y-36219517D01*
X30671062Y-36236062D01*
X30654517Y-36247118D01*
X30635000Y-36251000D01*
X29985000Y-36251000D01*
X29965483Y-36247118D01*
X29948938Y-36236062D01*
X29937882Y-36219517D01*
X29934000Y-36200000D01*
X29934000Y-35800000D01*
X29937882Y-35780483D01*
X29948938Y-35763938D01*
X29965483Y-35752882D01*
X29985000Y-35749000D01*
X30635000Y-35749000D01*
X30654517Y-35752882D01*
G37*
G36*
X32554517Y-35752882D02*
G01*
X32571062Y-35763938D01*
X32582118Y-35780483D01*
X32586000Y-35800000D01*
X32586000Y-36200000D01*
X32582118Y-36219517D01*
X32571062Y-36236062D01*
X32554517Y-36247118D01*
X32535000Y-36251000D01*
X31885000Y-36251000D01*
X31865483Y-36247118D01*
X31848938Y-36236062D01*
X31837882Y-36219517D01*
X31834000Y-36200000D01*
X31834000Y-35800000D01*
X31837882Y-35780483D01*
X31848938Y-35763938D01*
X31865483Y-35752882D01*
X31885000Y-35749000D01*
X32535000Y-35749000D01*
X32554517Y-35752882D01*
G37*
G36*
X2454517Y-35502882D02*
G01*
X2471062Y-35513938D01*
X2482118Y-35530483D01*
X2486000Y-35550000D01*
X2486000Y-35950000D01*
X2482118Y-35969517D01*
X2471062Y-35986062D01*
X2454517Y-35997118D01*
X2435000Y-36001000D01*
X1785000Y-36001000D01*
X1765483Y-35997118D01*
X1748938Y-35986062D01*
X1737882Y-35969517D01*
X1734000Y-35950000D01*
X1734000Y-35550000D01*
X1737882Y-35530483D01*
X1748938Y-35513938D01*
X1765483Y-35502882D01*
X1785000Y-35499000D01*
X2435000Y-35499000D01*
X2454517Y-35502882D01*
G37*
G36*
X4354517Y-35502882D02*
G01*
X4371062Y-35513938D01*
X4382118Y-35530483D01*
X4386000Y-35550000D01*
X4386000Y-35950000D01*
X4382118Y-35969517D01*
X4371062Y-35986062D01*
X4354517Y-35997118D01*
X4335000Y-36001000D01*
X3685000Y-36001000D01*
X3665483Y-35997118D01*
X3648938Y-35986062D01*
X3637882Y-35969517D01*
X3634000Y-35950000D01*
X3634000Y-35550000D01*
X3637882Y-35530483D01*
X3648938Y-35513938D01*
X3665483Y-35502882D01*
X3685000Y-35499000D01*
X4335000Y-35499000D01*
X4354517Y-35502882D01*
G37*
G36*
X7554517Y-35502882D02*
G01*
X7571062Y-35513938D01*
X7582118Y-35530483D01*
X7586000Y-35550000D01*
X7586000Y-35950000D01*
X7582118Y-35969517D01*
X7571062Y-35986062D01*
X7554517Y-35997118D01*
X7535000Y-36001000D01*
X6885000Y-36001000D01*
X6865483Y-35997118D01*
X6848938Y-35986062D01*
X6837882Y-35969517D01*
X6834000Y-35950000D01*
X6834000Y-35550000D01*
X6837882Y-35530483D01*
X6848938Y-35513938D01*
X6865483Y-35502882D01*
X6885000Y-35499000D01*
X7535000Y-35499000D01*
X7554517Y-35502882D01*
G37*
G36*
X9454517Y-35502882D02*
G01*
X9471062Y-35513938D01*
X9482118Y-35530483D01*
X9486000Y-35550000D01*
X9486000Y-35950000D01*
X9482118Y-35969517D01*
X9471062Y-35986062D01*
X9454517Y-35997118D01*
X9435000Y-36001000D01*
X8785000Y-36001000D01*
X8765483Y-35997118D01*
X8748938Y-35986062D01*
X8737882Y-35969517D01*
X8734000Y-35950000D01*
X8734000Y-35550000D01*
X8737882Y-35530483D01*
X8748938Y-35513938D01*
X8765483Y-35502882D01*
X8785000Y-35499000D01*
X9435000Y-35499000D01*
X9454517Y-35502882D01*
G37*
G36*
X12754517Y-35402882D02*
G01*
X12771062Y-35413938D01*
X12782118Y-35430483D01*
X12786000Y-35450000D01*
X12786000Y-35850000D01*
X12782118Y-35869517D01*
X12771062Y-35886062D01*
X12754517Y-35897118D01*
X12735000Y-35901000D01*
X12085000Y-35901000D01*
X12065483Y-35897118D01*
X12048938Y-35886062D01*
X12037882Y-35869517D01*
X12034000Y-35850000D01*
X12034000Y-35450000D01*
X12037882Y-35430483D01*
X12048938Y-35413938D01*
X12065483Y-35402882D01*
X12085000Y-35399000D01*
X12735000Y-35399000D01*
X12754517Y-35402882D01*
G37*
G36*
X14654517Y-35402882D02*
G01*
X14671062Y-35413938D01*
X14682118Y-35430483D01*
X14686000Y-35450000D01*
X14686000Y-35850000D01*
X14682118Y-35869517D01*
X14671062Y-35886062D01*
X14654517Y-35897118D01*
X14635000Y-35901000D01*
X13985000Y-35901000D01*
X13965483Y-35897118D01*
X13948938Y-35886062D01*
X13937882Y-35869517D01*
X13934000Y-35850000D01*
X13934000Y-35450000D01*
X13937882Y-35430483D01*
X13948938Y-35413938D01*
X13965483Y-35402882D01*
X13985000Y-35399000D01*
X14635000Y-35399000D01*
X14654517Y-35402882D01*
G37*
G36*
X17554517Y-35302882D02*
G01*
X17571062Y-35313938D01*
X17582118Y-35330483D01*
X17586000Y-35350000D01*
X17586000Y-35750000D01*
X17582118Y-35769517D01*
X17571062Y-35786062D01*
X17554517Y-35797118D01*
X17535000Y-35801000D01*
X16885000Y-35801000D01*
X16865483Y-35797118D01*
X16848938Y-35786062D01*
X16837882Y-35769517D01*
X16834000Y-35750000D01*
X16834000Y-35350000D01*
X16837882Y-35330483D01*
X16848938Y-35313938D01*
X16865483Y-35302882D01*
X16885000Y-35299000D01*
X17535000Y-35299000D01*
X17554517Y-35302882D01*
G37*
G36*
X19454517Y-35302882D02*
G01*
X19471062Y-35313938D01*
X19482118Y-35330483D01*
X19486000Y-35350000D01*
X19486000Y-35750000D01*
X19482118Y-35769517D01*
X19471062Y-35786062D01*
X19454517Y-35797118D01*
X19435000Y-35801000D01*
X18785000Y-35801000D01*
X18765483Y-35797118D01*
X18748938Y-35786062D01*
X18737882Y-35769517D01*
X18734000Y-35750000D01*
X18734000Y-35350000D01*
X18737882Y-35330483D01*
X18748938Y-35313938D01*
X18765483Y-35302882D01*
X18785000Y-35299000D01*
X19435000Y-35299000D01*
X19454517Y-35302882D01*
G37*
G36*
X24354517Y-35202882D02*
G01*
X24371062Y-35213938D01*
X24382118Y-35230483D01*
X24386000Y-35250000D01*
X24386000Y-35650000D01*
X24382118Y-35669517D01*
X24371062Y-35686062D01*
X24354517Y-35697118D01*
X24335000Y-35701000D01*
X23685000Y-35701000D01*
X23665483Y-35697118D01*
X23648938Y-35686062D01*
X23637882Y-35669517D01*
X23634000Y-35650000D01*
X23634000Y-35250000D01*
X23637882Y-35230483D01*
X23648938Y-35213938D01*
X23665483Y-35202882D01*
X23685000Y-35199000D01*
X24335000Y-35199000D01*
X24354517Y-35202882D01*
G37*
G36*
X26254517Y-35202882D02*
G01*
X26271062Y-35213938D01*
X26282118Y-35230483D01*
X26286000Y-35250000D01*
X26286000Y-35650000D01*
X26282118Y-35669517D01*
X26271062Y-35686062D01*
X26254517Y-35697118D01*
X26235000Y-35701000D01*
X25585000Y-35701000D01*
X25565483Y-35697118D01*
X25548938Y-35686062D01*
X25537882Y-35669517D01*
X25534000Y-35650000D01*
X25534000Y-35250000D01*
X25537882Y-35230483D01*
X25548938Y-35213938D01*
X25565483Y-35202882D01*
X25585000Y-35199000D01*
X26235000Y-35199000D01*
X26254517Y-35202882D01*
G37*
G36*
X30654517Y-35102882D02*
G01*
X30671062Y-35113938D01*
X30682118Y-35130483D01*
X30686000Y-35150000D01*
X30686000Y-35550000D01*
X30682118Y-35569517D01*
X30671062Y-35586062D01*
X30654517Y-35597118D01*
X30635000Y-35601000D01*
X29985000Y-35601000D01*
X29965483Y-35597118D01*
X29948938Y-35586062D01*
X29937882Y-35569517D01*
X29934000Y-35550000D01*
X29934000Y-35150000D01*
X29937882Y-35130483D01*
X29948938Y-35113938D01*
X29965483Y-35102882D01*
X29985000Y-35099000D01*
X30635000Y-35099000D01*
X30654517Y-35102882D01*
G37*
G36*
X32554517Y-35102882D02*
G01*
X32571062Y-35113938D01*
X32582118Y-35130483D01*
X32586000Y-35150000D01*
X32586000Y-35550000D01*
X32582118Y-35569517D01*
X32571062Y-35586062D01*
X32554517Y-35597118D01*
X32535000Y-35601000D01*
X31885000Y-35601000D01*
X31865483Y-35597118D01*
X31848938Y-35586062D01*
X31837882Y-35569517D01*
X31834000Y-35550000D01*
X31834000Y-35150000D01*
X31837882Y-35130483D01*
X31848938Y-35113938D01*
X31865483Y-35102882D01*
X31885000Y-35099000D01*
X32535000Y-35099000D01*
X32554517Y-35102882D01*
G37*
G36*
X4167779Y-31803158D02*
G01*
X4228122Y-31843478D01*
X4268442Y-31903821D01*
X4282600Y-31975000D01*
X4282600Y-32245000D01*
X4268442Y-32316179D01*
X4228122Y-32376522D01*
X4167779Y-32416842D01*
X4096600Y-32431000D01*
X3726600Y-32431000D01*
X3655421Y-32416842D01*
X3595078Y-32376522D01*
X3554758Y-32316179D01*
X3540600Y-32245000D01*
X3540600Y-31975000D01*
X3554758Y-31903821D01*
X3595078Y-31843478D01*
X3655421Y-31803158D01*
X3726600Y-31789000D01*
X4096600Y-31789000D01*
X4167779Y-31803158D01*
G37*
G36*
X5430979Y-31803158D02*
G01*
X5491322Y-31843478D01*
X5531642Y-31903821D01*
X5545800Y-31975000D01*
X5545800Y-32245000D01*
X5531642Y-32316179D01*
X5491322Y-32376522D01*
X5430979Y-32416842D01*
X5359800Y-32431000D01*
X4989800Y-32431000D01*
X4918621Y-32416842D01*
X4858278Y-32376522D01*
X4817958Y-32316179D01*
X4803800Y-32245000D01*
X4803800Y-31975000D01*
X4817958Y-31903821D01*
X4858278Y-31843478D01*
X4918621Y-31803158D01*
X4989800Y-31789000D01*
X5359800Y-31789000D01*
X5430979Y-31803158D01*
G37*
G36*
X6694279Y-31803158D02*
G01*
X6754622Y-31843478D01*
X6794942Y-31903821D01*
X6809100Y-31975000D01*
X6809100Y-32245000D01*
X6794942Y-32316179D01*
X6754622Y-32376522D01*
X6694279Y-32416842D01*
X6623100Y-32431000D01*
X6253100Y-32431000D01*
X6181921Y-32416842D01*
X6121578Y-32376522D01*
X6081258Y-32316179D01*
X6067100Y-32245000D01*
X6067100Y-31975000D01*
X6081258Y-31903821D01*
X6121578Y-31843478D01*
X6181921Y-31803158D01*
X6253100Y-31789000D01*
X6623100Y-31789000D01*
X6694279Y-31803158D01*
G37*
G36*
X7957479Y-31803158D02*
G01*
X8017822Y-31843478D01*
X8058142Y-31903821D01*
X8072300Y-31975000D01*
X8072300Y-32245000D01*
X8058142Y-32316179D01*
X8017822Y-32376522D01*
X7957479Y-32416842D01*
X7886300Y-32431000D01*
X7516300Y-32431000D01*
X7445121Y-32416842D01*
X7384778Y-32376522D01*
X7344458Y-32316179D01*
X7330300Y-32245000D01*
X7330300Y-31975000D01*
X7344458Y-31903821D01*
X7384778Y-31843478D01*
X7445121Y-31803158D01*
X7516300Y-31789000D01*
X7886300Y-31789000D01*
X7957479Y-31803158D01*
G37*
G36*
X9220679Y-31803158D02*
G01*
X9281022Y-31843478D01*
X9321342Y-31903821D01*
X9335500Y-31975000D01*
X9335500Y-32245000D01*
X9321342Y-32316179D01*
X9281022Y-32376522D01*
X9220679Y-32416842D01*
X9149500Y-32431000D01*
X8779500Y-32431000D01*
X8708321Y-32416842D01*
X8647978Y-32376522D01*
X8607658Y-32316179D01*
X8593500Y-32245000D01*
X8593500Y-31975000D01*
X8607658Y-31903821D01*
X8647978Y-31843478D01*
X8708321Y-31803158D01*
X8779500Y-31789000D01*
X9149500Y-31789000D01*
X9220679Y-31803158D01*
G37*
G36*
X10483879Y-31803158D02*
G01*
X10544222Y-31843478D01*
X10584542Y-31903821D01*
X10598700Y-31975000D01*
X10598700Y-32245000D01*
X10584542Y-32316179D01*
X10544222Y-32376522D01*
X10483879Y-32416842D01*
X10412700Y-32431000D01*
X10042700Y-32431000D01*
X9971521Y-32416842D01*
X9911178Y-32376522D01*
X9870858Y-32316179D01*
X9856700Y-32245000D01*
X9856700Y-31975000D01*
X9870858Y-31903821D01*
X9911178Y-31843478D01*
X9971521Y-31803158D01*
X10042700Y-31789000D01*
X10412700Y-31789000D01*
X10483879Y-31803158D01*
G37*
G36*
X11747179Y-31803158D02*
G01*
X11807522Y-31843478D01*
X11847842Y-31903821D01*
X11862000Y-31975000D01*
X11862000Y-32245000D01*
X11847842Y-32316179D01*
X11807522Y-32376522D01*
X11747179Y-32416842D01*
X11676000Y-32431000D01*
X11306000Y-32431000D01*
X11234821Y-32416842D01*
X11174478Y-32376522D01*
X11134158Y-32316179D01*
X11120000Y-32245000D01*
X11120000Y-31975000D01*
X11134158Y-31903821D01*
X11174478Y-31843478D01*
X11234821Y-31803158D01*
X11306000Y-31789000D01*
X11676000Y-31789000D01*
X11747179Y-31803158D01*
G37*
G36*
X13010379Y-31803158D02*
G01*
X13070722Y-31843478D01*
X13111042Y-31903821D01*
X13125200Y-31975000D01*
X13125200Y-32245000D01*
X13111042Y-32316179D01*
X13070722Y-32376522D01*
X13010379Y-32416842D01*
X12939200Y-32431000D01*
X12569200Y-32431000D01*
X12498021Y-32416842D01*
X12437678Y-32376522D01*
X12397358Y-32316179D01*
X12383200Y-32245000D01*
X12383200Y-31975000D01*
X12397358Y-31903821D01*
X12437678Y-31843478D01*
X12498021Y-31803158D01*
X12569200Y-31789000D01*
X12939200Y-31789000D01*
X13010379Y-31803158D01*
G37*
G36*
X14273579Y-31803158D02*
G01*
X14333922Y-31843478D01*
X14374242Y-31903821D01*
X14388400Y-31975000D01*
X14388400Y-32245000D01*
X14374242Y-32316179D01*
X14333922Y-32376522D01*
X14273579Y-32416842D01*
X14202400Y-32431000D01*
X13832400Y-32431000D01*
X13761221Y-32416842D01*
X13700878Y-32376522D01*
X13660558Y-32316179D01*
X13646400Y-32245000D01*
X13646400Y-31975000D01*
X13660558Y-31903821D01*
X13700878Y-31843478D01*
X13761221Y-31803158D01*
X13832400Y-31789000D01*
X14202400Y-31789000D01*
X14273579Y-31803158D01*
G37*
G36*
X15536779Y-31803158D02*
G01*
X15597122Y-31843478D01*
X15637442Y-31903821D01*
X15651600Y-31975000D01*
X15651600Y-32245000D01*
X15637442Y-32316179D01*
X15597122Y-32376522D01*
X15536779Y-32416842D01*
X15465600Y-32431000D01*
X15095600Y-32431000D01*
X15024421Y-32416842D01*
X14964078Y-32376522D01*
X14923758Y-32316179D01*
X14909600Y-32245000D01*
X14909600Y-31975000D01*
X14923758Y-31903821D01*
X14964078Y-31843478D01*
X15024421Y-31803158D01*
X15095600Y-31789000D01*
X15465600Y-31789000D01*
X15536779Y-31803158D01*
G37*
G36*
X16800079Y-31803158D02*
G01*
X16860422Y-31843478D01*
X16900742Y-31903821D01*
X16914900Y-31975000D01*
X16914900Y-32245000D01*
X16900742Y-32316179D01*
X16860422Y-32376522D01*
X16800079Y-32416842D01*
X16728900Y-32431000D01*
X16358900Y-32431000D01*
X16287721Y-32416842D01*
X16227378Y-32376522D01*
X16187058Y-32316179D01*
X16172900Y-32245000D01*
X16172900Y-31975000D01*
X16187058Y-31903821D01*
X16227378Y-31843478D01*
X16287721Y-31803158D01*
X16358900Y-31789000D01*
X16728900Y-31789000D01*
X16800079Y-31803158D01*
G37*
G36*
X18063279Y-31803158D02*
G01*
X18123622Y-31843478D01*
X18163942Y-31903821D01*
X18178100Y-31975000D01*
X18178100Y-32245000D01*
X18163942Y-32316179D01*
X18123622Y-32376522D01*
X18063279Y-32416842D01*
X17992100Y-32431000D01*
X17622100Y-32431000D01*
X17550921Y-32416842D01*
X17490578Y-32376522D01*
X17450258Y-32316179D01*
X17436100Y-32245000D01*
X17436100Y-31975000D01*
X17450258Y-31903821D01*
X17490578Y-31843478D01*
X17550921Y-31803158D01*
X17622100Y-31789000D01*
X17992100Y-31789000D01*
X18063279Y-31803158D01*
G37*
G36*
X19326479Y-31803158D02*
G01*
X19386822Y-31843478D01*
X19427142Y-31903821D01*
X19441300Y-31975000D01*
X19441300Y-32245000D01*
X19427142Y-32316179D01*
X19386822Y-32376522D01*
X19326479Y-32416842D01*
X19255300Y-32431000D01*
X18885300Y-32431000D01*
X18814121Y-32416842D01*
X18753778Y-32376522D01*
X18713458Y-32316179D01*
X18699300Y-32245000D01*
X18699300Y-31975000D01*
X18713458Y-31903821D01*
X18753778Y-31843478D01*
X18814121Y-31803158D01*
X18885300Y-31789000D01*
X19255300Y-31789000D01*
X19326479Y-31803158D01*
G37*
G36*
X20589679Y-31803158D02*
G01*
X20650022Y-31843478D01*
X20690342Y-31903821D01*
X20704500Y-31975000D01*
X20704500Y-32245000D01*
X20690342Y-32316179D01*
X20650022Y-32376522D01*
X20589679Y-32416842D01*
X20518500Y-32431000D01*
X20148500Y-32431000D01*
X20077321Y-32416842D01*
X20016978Y-32376522D01*
X19976658Y-32316179D01*
X19962500Y-32245000D01*
X19962500Y-31975000D01*
X19976658Y-31903821D01*
X20016978Y-31843478D01*
X20077321Y-31803158D01*
X20148500Y-31789000D01*
X20518500Y-31789000D01*
X20589679Y-31803158D01*
G37*
G36*
X21852979Y-31803158D02*
G01*
X21913322Y-31843478D01*
X21953642Y-31903821D01*
X21967800Y-31975000D01*
X21967800Y-32245000D01*
X21953642Y-32316179D01*
X21913322Y-32376522D01*
X21852979Y-32416842D01*
X21781800Y-32431000D01*
X21411800Y-32431000D01*
X21340621Y-32416842D01*
X21280278Y-32376522D01*
X21239958Y-32316179D01*
X21225800Y-32245000D01*
X21225800Y-31975000D01*
X21239958Y-31903821D01*
X21280278Y-31843478D01*
X21340621Y-31803158D01*
X21411800Y-31789000D01*
X21781800Y-31789000D01*
X21852979Y-31803158D01*
G37*
G36*
X23116179Y-31803158D02*
G01*
X23176522Y-31843478D01*
X23216842Y-31903821D01*
X23231000Y-31975000D01*
X23231000Y-32245000D01*
X23216842Y-32316179D01*
X23176522Y-32376522D01*
X23116179Y-32416842D01*
X23045000Y-32431000D01*
X22675000Y-32431000D01*
X22603821Y-32416842D01*
X22543478Y-32376522D01*
X22503158Y-32316179D01*
X22489000Y-32245000D01*
X22489000Y-31975000D01*
X22503158Y-31903821D01*
X22543478Y-31843478D01*
X22603821Y-31803158D01*
X22675000Y-31789000D01*
X23045000Y-31789000D01*
X23116179Y-31803158D01*
G37*
G36*
X27027779Y-31803158D02*
G01*
X27088122Y-31843478D01*
X27128442Y-31903821D01*
X27142600Y-31975000D01*
X27142600Y-32245000D01*
X27128442Y-32316179D01*
X27088122Y-32376522D01*
X27027779Y-32416842D01*
X26956600Y-32431000D01*
X26586600Y-32431000D01*
X26515421Y-32416842D01*
X26455078Y-32376522D01*
X26414758Y-32316179D01*
X26400600Y-32245000D01*
X26400600Y-31975000D01*
X26414758Y-31903821D01*
X26455078Y-31843478D01*
X26515421Y-31803158D01*
X26586600Y-31789000D01*
X26956600Y-31789000D01*
X27027779Y-31803158D01*
G37*
G36*
X29567779Y-31803158D02*
G01*
X29628122Y-31843478D01*
X29668442Y-31903821D01*
X29682600Y-31975000D01*
X29682600Y-32245000D01*
X29668442Y-32316179D01*
X29628122Y-32376522D01*
X29567779Y-32416842D01*
X29496600Y-32431000D01*
X29126600Y-32431000D01*
X29055421Y-32416842D01*
X28995078Y-32376522D01*
X28954758Y-32316179D01*
X28940600Y-32245000D01*
X28940600Y-31975000D01*
X28954758Y-31903821D01*
X28995078Y-31843478D01*
X29055421Y-31803158D01*
X29126600Y-31789000D01*
X29496600Y-31789000D01*
X29567779Y-31803158D01*
G37*
G36*
X31980779Y-31803158D02*
G01*
X32041122Y-31843478D01*
X32081442Y-31903821D01*
X32095600Y-31975000D01*
X32095600Y-32245000D01*
X32081442Y-32316179D01*
X32041122Y-32376522D01*
X31980779Y-32416842D01*
X31909600Y-32431000D01*
X31539600Y-32431000D01*
X31468421Y-32416842D01*
X31408078Y-32376522D01*
X31367758Y-32316179D01*
X31353600Y-32245000D01*
X31353600Y-31975000D01*
X31367758Y-31903821D01*
X31408078Y-31843478D01*
X31468421Y-31803158D01*
X31539600Y-31789000D01*
X31909600Y-31789000D01*
X31980779Y-31803158D01*
G37*
G36*
X34972785Y-30760494D02*
G01*
X35021773Y-30793227D01*
X35054506Y-30842215D01*
X35066000Y-30900000D01*
X35066000Y-32175000D01*
X35054506Y-32232785D01*
X35021773Y-32281773D01*
X34972785Y-32314506D01*
X34915000Y-32326000D01*
X34715000Y-32326000D01*
X34657215Y-32314506D01*
X34608227Y-32281773D01*
X34575494Y-32232785D01*
X34564000Y-32175000D01*
X34564000Y-30900000D01*
X34575494Y-30842215D01*
X34608227Y-30793227D01*
X34657215Y-30760494D01*
X34715000Y-30749000D01*
X34915000Y-30749000D01*
X34972785Y-30760494D01*
G37*
G36*
X35622785Y-30760494D02*
G01*
X35671773Y-30793227D01*
X35704506Y-30842215D01*
X35716000Y-30900000D01*
X35716000Y-32175000D01*
X35704506Y-32232785D01*
X35671773Y-32281773D01*
X35622785Y-32314506D01*
X35565000Y-32326000D01*
X35365000Y-32326000D01*
X35307215Y-32314506D01*
X35258227Y-32281773D01*
X35225494Y-32232785D01*
X35214000Y-32175000D01*
X35214000Y-30900000D01*
X35225494Y-30842215D01*
X35258227Y-30793227D01*
X35307215Y-30760494D01*
X35365000Y-30749000D01*
X35565000Y-30749000D01*
X35622785Y-30760494D01*
G37*
G36*
X36272785Y-30760494D02*
G01*
X36321773Y-30793227D01*
X36354506Y-30842215D01*
X36366000Y-30900000D01*
X36366000Y-32175000D01*
X36354506Y-32232785D01*
X36321773Y-32281773D01*
X36272785Y-32314506D01*
X36215000Y-32326000D01*
X36015000Y-32326000D01*
X35957215Y-32314506D01*
X35908227Y-32281773D01*
X35875494Y-32232785D01*
X35864000Y-32175000D01*
X35864000Y-30900000D01*
X35875494Y-30842215D01*
X35908227Y-30793227D01*
X35957215Y-30760494D01*
X36015000Y-30749000D01*
X36215000Y-30749000D01*
X36272785Y-30760494D01*
G37*
G36*
X36922785Y-30760494D02*
G01*
X36971773Y-30793227D01*
X37004506Y-30842215D01*
X37016000Y-30900000D01*
X37016000Y-32175000D01*
X37004506Y-32232785D01*
X36971773Y-32281773D01*
X36922785Y-32314506D01*
X36865000Y-32326000D01*
X36665000Y-32326000D01*
X36607215Y-32314506D01*
X36558227Y-32281773D01*
X36525494Y-32232785D01*
X36514000Y-32175000D01*
X36514000Y-30900000D01*
X36525494Y-30842215D01*
X36558227Y-30793227D01*
X36607215Y-30760494D01*
X36665000Y-30749000D01*
X36865000Y-30749000D01*
X36922785Y-30760494D01*
G37*
G36*
X37572785Y-30760494D02*
G01*
X37621773Y-30793227D01*
X37654506Y-30842215D01*
X37666000Y-30900000D01*
X37666000Y-32175000D01*
X37654506Y-32232785D01*
X37621773Y-32281773D01*
X37572785Y-32314506D01*
X37515000Y-32326000D01*
X37315000Y-32326000D01*
X37257215Y-32314506D01*
X37208227Y-32281773D01*
X37175494Y-32232785D01*
X37164000Y-32175000D01*
X37164000Y-30900000D01*
X37175494Y-30842215D01*
X37208227Y-30793227D01*
X37257215Y-30760494D01*
X37315000Y-30749000D01*
X37515000Y-30749000D01*
X37572785Y-30760494D01*
G37*
G36*
X38222785Y-30760494D02*
G01*
X38271773Y-30793227D01*
X38304506Y-30842215D01*
X38316000Y-30900000D01*
X38316000Y-32175000D01*
X38304506Y-32232785D01*
X38271773Y-32281773D01*
X38222785Y-32314506D01*
X38165000Y-32326000D01*
X37965000Y-32326000D01*
X37907215Y-32314506D01*
X37858227Y-32281773D01*
X37825494Y-32232785D01*
X37814000Y-32175000D01*
X37814000Y-30900000D01*
X37825494Y-30842215D01*
X37858227Y-30793227D01*
X37907215Y-30760494D01*
X37965000Y-30749000D01*
X38165000Y-30749000D01*
X38222785Y-30760494D01*
G37*
G36*
X38872785Y-30760494D02*
G01*
X38921773Y-30793227D01*
X38954506Y-30842215D01*
X38966000Y-30900000D01*
X38966000Y-32175000D01*
X38954506Y-32232785D01*
X38921773Y-32281773D01*
X38872785Y-32314506D01*
X38815000Y-32326000D01*
X38615000Y-32326000D01*
X38557215Y-32314506D01*
X38508227Y-32281773D01*
X38475494Y-32232785D01*
X38464000Y-32175000D01*
X38464000Y-30900000D01*
X38475494Y-30842215D01*
X38508227Y-30793227D01*
X38557215Y-30760494D01*
X38615000Y-30749000D01*
X38815000Y-30749000D01*
X38872785Y-30760494D01*
G37*
G36*
X39522785Y-30760494D02*
G01*
X39571773Y-30793227D01*
X39604506Y-30842215D01*
X39616000Y-30900000D01*
X39616000Y-32175000D01*
X39604506Y-32232785D01*
X39571773Y-32281773D01*
X39522785Y-32314506D01*
X39465000Y-32326000D01*
X39265000Y-32326000D01*
X39207215Y-32314506D01*
X39158227Y-32281773D01*
X39125494Y-32232785D01*
X39114000Y-32175000D01*
X39114000Y-30900000D01*
X39125494Y-30842215D01*
X39158227Y-30793227D01*
X39207215Y-30760494D01*
X39265000Y-30749000D01*
X39465000Y-30749000D01*
X39522785Y-30760494D01*
G37*
G36*
X40172785Y-30760494D02*
G01*
X40221773Y-30793227D01*
X40254506Y-30842215D01*
X40266000Y-30900000D01*
X40266000Y-32175000D01*
X40254506Y-32232785D01*
X40221773Y-32281773D01*
X40172785Y-32314506D01*
X40115000Y-32326000D01*
X39915000Y-32326000D01*
X39857215Y-32314506D01*
X39808227Y-32281773D01*
X39775494Y-32232785D01*
X39764000Y-32175000D01*
X39764000Y-30900000D01*
X39775494Y-30842215D01*
X39808227Y-30793227D01*
X39857215Y-30760494D01*
X39915000Y-30749000D01*
X40115000Y-30749000D01*
X40172785Y-30760494D01*
G37*
G36*
X40822785Y-30760494D02*
G01*
X40871773Y-30793227D01*
X40904506Y-30842215D01*
X40916000Y-30900000D01*
X40916000Y-32175000D01*
X40904506Y-32232785D01*
X40871773Y-32281773D01*
X40822785Y-32314506D01*
X40765000Y-32326000D01*
X40565000Y-32326000D01*
X40507215Y-32314506D01*
X40458227Y-32281773D01*
X40425494Y-32232785D01*
X40414000Y-32175000D01*
X40414000Y-30900000D01*
X40425494Y-30842215D01*
X40458227Y-30793227D01*
X40507215Y-30760494D01*
X40565000Y-30749000D01*
X40765000Y-30749000D01*
X40822785Y-30760494D01*
G37*
G36*
X41472785Y-30760494D02*
G01*
X41521773Y-30793227D01*
X41554506Y-30842215D01*
X41566000Y-30900000D01*
X41566000Y-32175000D01*
X41554506Y-32232785D01*
X41521773Y-32281773D01*
X41472785Y-32314506D01*
X41415000Y-32326000D01*
X41215000Y-32326000D01*
X41157215Y-32314506D01*
X41108227Y-32281773D01*
X41075494Y-32232785D01*
X41064000Y-32175000D01*
X41064000Y-30900000D01*
X41075494Y-30842215D01*
X41108227Y-30793227D01*
X41157215Y-30760494D01*
X41215000Y-30749000D01*
X41415000Y-30749000D01*
X41472785Y-30760494D01*
G37*
G36*
X42122785Y-30760494D02*
G01*
X42171773Y-30793227D01*
X42204506Y-30842215D01*
X42216000Y-30900000D01*
X42216000Y-32175000D01*
X42204506Y-32232785D01*
X42171773Y-32281773D01*
X42122785Y-32314506D01*
X42065000Y-32326000D01*
X41865000Y-32326000D01*
X41807215Y-32314506D01*
X41758227Y-32281773D01*
X41725494Y-32232785D01*
X41714000Y-32175000D01*
X41714000Y-30900000D01*
X41725494Y-30842215D01*
X41758227Y-30793227D01*
X41807215Y-30760494D01*
X41865000Y-30749000D01*
X42065000Y-30749000D01*
X42122785Y-30760494D01*
G37*
G36*
X4167779Y-30783158D02*
G01*
X4228122Y-30823478D01*
X4268442Y-30883821D01*
X4282600Y-30955000D01*
X4282600Y-31225000D01*
X4268442Y-31296179D01*
X4228122Y-31356522D01*
X4167779Y-31396842D01*
X4096600Y-31411000D01*
X3726600Y-31411000D01*
X3655421Y-31396842D01*
X3595078Y-31356522D01*
X3554758Y-31296179D01*
X3540600Y-31225000D01*
X3540600Y-30955000D01*
X3554758Y-30883821D01*
X3595078Y-30823478D01*
X3655421Y-30783158D01*
X3726600Y-30769000D01*
X4096600Y-30769000D01*
X4167779Y-30783158D01*
G37*
G36*
X5430979Y-30783158D02*
G01*
X5491322Y-30823478D01*
X5531642Y-30883821D01*
X5545800Y-30955000D01*
X5545800Y-31225000D01*
X5531642Y-31296179D01*
X5491322Y-31356522D01*
X5430979Y-31396842D01*
X5359800Y-31411000D01*
X4989800Y-31411000D01*
X4918621Y-31396842D01*
X4858278Y-31356522D01*
X4817958Y-31296179D01*
X4803800Y-31225000D01*
X4803800Y-30955000D01*
X4817958Y-30883821D01*
X4858278Y-30823478D01*
X4918621Y-30783158D01*
X4989800Y-30769000D01*
X5359800Y-30769000D01*
X5430979Y-30783158D01*
G37*
G36*
X6694279Y-30783158D02*
G01*
X6754622Y-30823478D01*
X6794942Y-30883821D01*
X6809100Y-30955000D01*
X6809100Y-31225000D01*
X6794942Y-31296179D01*
X6754622Y-31356522D01*
X6694279Y-31396842D01*
X6623100Y-31411000D01*
X6253100Y-31411000D01*
X6181921Y-31396842D01*
X6121578Y-31356522D01*
X6081258Y-31296179D01*
X6067100Y-31225000D01*
X6067100Y-30955000D01*
X6081258Y-30883821D01*
X6121578Y-30823478D01*
X6181921Y-30783158D01*
X6253100Y-30769000D01*
X6623100Y-30769000D01*
X6694279Y-30783158D01*
G37*
G36*
X7957479Y-30783158D02*
G01*
X8017822Y-30823478D01*
X8058142Y-30883821D01*
X8072300Y-30955000D01*
X8072300Y-31225000D01*
X8058142Y-31296179D01*
X8017822Y-31356522D01*
X7957479Y-31396842D01*
X7886300Y-31411000D01*
X7516300Y-31411000D01*
X7445121Y-31396842D01*
X7384778Y-31356522D01*
X7344458Y-31296179D01*
X7330300Y-31225000D01*
X7330300Y-30955000D01*
X7344458Y-30883821D01*
X7384778Y-30823478D01*
X7445121Y-30783158D01*
X7516300Y-30769000D01*
X7886300Y-30769000D01*
X7957479Y-30783158D01*
G37*
G36*
X9220679Y-30783158D02*
G01*
X9281022Y-30823478D01*
X9321342Y-30883821D01*
X9335500Y-30955000D01*
X9335500Y-31225000D01*
X9321342Y-31296179D01*
X9281022Y-31356522D01*
X9220679Y-31396842D01*
X9149500Y-31411000D01*
X8779500Y-31411000D01*
X8708321Y-31396842D01*
X8647978Y-31356522D01*
X8607658Y-31296179D01*
X8593500Y-31225000D01*
X8593500Y-30955000D01*
X8607658Y-30883821D01*
X8647978Y-30823478D01*
X8708321Y-30783158D01*
X8779500Y-30769000D01*
X9149500Y-30769000D01*
X9220679Y-30783158D01*
G37*
G36*
X10483879Y-30783158D02*
G01*
X10544222Y-30823478D01*
X10584542Y-30883821D01*
X10598700Y-30955000D01*
X10598700Y-31225000D01*
X10584542Y-31296179D01*
X10544222Y-31356522D01*
X10483879Y-31396842D01*
X10412700Y-31411000D01*
X10042700Y-31411000D01*
X9971521Y-31396842D01*
X9911178Y-31356522D01*
X9870858Y-31296179D01*
X9856700Y-31225000D01*
X9856700Y-30955000D01*
X9870858Y-30883821D01*
X9911178Y-30823478D01*
X9971521Y-30783158D01*
X10042700Y-30769000D01*
X10412700Y-30769000D01*
X10483879Y-30783158D01*
G37*
G36*
X11747179Y-30783158D02*
G01*
X11807522Y-30823478D01*
X11847842Y-30883821D01*
X11862000Y-30955000D01*
X11862000Y-31225000D01*
X11847842Y-31296179D01*
X11807522Y-31356522D01*
X11747179Y-31396842D01*
X11676000Y-31411000D01*
X11306000Y-31411000D01*
X11234821Y-31396842D01*
X11174478Y-31356522D01*
X11134158Y-31296179D01*
X11120000Y-31225000D01*
X11120000Y-30955000D01*
X11134158Y-30883821D01*
X11174478Y-30823478D01*
X11234821Y-30783158D01*
X11306000Y-30769000D01*
X11676000Y-30769000D01*
X11747179Y-30783158D01*
G37*
G36*
X13010379Y-30783158D02*
G01*
X13070722Y-30823478D01*
X13111042Y-30883821D01*
X13125200Y-30955000D01*
X13125200Y-31225000D01*
X13111042Y-31296179D01*
X13070722Y-31356522D01*
X13010379Y-31396842D01*
X12939200Y-31411000D01*
X12569200Y-31411000D01*
X12498021Y-31396842D01*
X12437678Y-31356522D01*
X12397358Y-31296179D01*
X12383200Y-31225000D01*
X12383200Y-30955000D01*
X12397358Y-30883821D01*
X12437678Y-30823478D01*
X12498021Y-30783158D01*
X12569200Y-30769000D01*
X12939200Y-30769000D01*
X13010379Y-30783158D01*
G37*
G36*
X14273579Y-30783158D02*
G01*
X14333922Y-30823478D01*
X14374242Y-30883821D01*
X14388400Y-30955000D01*
X14388400Y-31225000D01*
X14374242Y-31296179D01*
X14333922Y-31356522D01*
X14273579Y-31396842D01*
X14202400Y-31411000D01*
X13832400Y-31411000D01*
X13761221Y-31396842D01*
X13700878Y-31356522D01*
X13660558Y-31296179D01*
X13646400Y-31225000D01*
X13646400Y-30955000D01*
X13660558Y-30883821D01*
X13700878Y-30823478D01*
X13761221Y-30783158D01*
X13832400Y-30769000D01*
X14202400Y-30769000D01*
X14273579Y-30783158D01*
G37*
G36*
X15536779Y-30783158D02*
G01*
X15597122Y-30823478D01*
X15637442Y-30883821D01*
X15651600Y-30955000D01*
X15651600Y-31225000D01*
X15637442Y-31296179D01*
X15597122Y-31356522D01*
X15536779Y-31396842D01*
X15465600Y-31411000D01*
X15095600Y-31411000D01*
X15024421Y-31396842D01*
X14964078Y-31356522D01*
X14923758Y-31296179D01*
X14909600Y-31225000D01*
X14909600Y-30955000D01*
X14923758Y-30883821D01*
X14964078Y-30823478D01*
X15024421Y-30783158D01*
X15095600Y-30769000D01*
X15465600Y-30769000D01*
X15536779Y-30783158D01*
G37*
G36*
X16800079Y-30783158D02*
G01*
X16860422Y-30823478D01*
X16900742Y-30883821D01*
X16914900Y-30955000D01*
X16914900Y-31225000D01*
X16900742Y-31296179D01*
X16860422Y-31356522D01*
X16800079Y-31396842D01*
X16728900Y-31411000D01*
X16358900Y-31411000D01*
X16287721Y-31396842D01*
X16227378Y-31356522D01*
X16187058Y-31296179D01*
X16172900Y-31225000D01*
X16172900Y-30955000D01*
X16187058Y-30883821D01*
X16227378Y-30823478D01*
X16287721Y-30783158D01*
X16358900Y-30769000D01*
X16728900Y-30769000D01*
X16800079Y-30783158D01*
G37*
G36*
X18063279Y-30783158D02*
G01*
X18123622Y-30823478D01*
X18163942Y-30883821D01*
X18178100Y-30955000D01*
X18178100Y-31225000D01*
X18163942Y-31296179D01*
X18123622Y-31356522D01*
X18063279Y-31396842D01*
X17992100Y-31411000D01*
X17622100Y-31411000D01*
X17550921Y-31396842D01*
X17490578Y-31356522D01*
X17450258Y-31296179D01*
X17436100Y-31225000D01*
X17436100Y-30955000D01*
X17450258Y-30883821D01*
X17490578Y-30823478D01*
X17550921Y-30783158D01*
X17622100Y-30769000D01*
X17992100Y-30769000D01*
X18063279Y-30783158D01*
G37*
G36*
X19326479Y-30783158D02*
G01*
X19386822Y-30823478D01*
X19427142Y-30883821D01*
X19441300Y-30955000D01*
X19441300Y-31225000D01*
X19427142Y-31296179D01*
X19386822Y-31356522D01*
X19326479Y-31396842D01*
X19255300Y-31411000D01*
X18885300Y-31411000D01*
X18814121Y-31396842D01*
X18753778Y-31356522D01*
X18713458Y-31296179D01*
X18699300Y-31225000D01*
X18699300Y-30955000D01*
X18713458Y-30883821D01*
X18753778Y-30823478D01*
X18814121Y-30783158D01*
X18885300Y-30769000D01*
X19255300Y-30769000D01*
X19326479Y-30783158D01*
G37*
G36*
X20589679Y-30783158D02*
G01*
X20650022Y-30823478D01*
X20690342Y-30883821D01*
X20704500Y-30955000D01*
X20704500Y-31225000D01*
X20690342Y-31296179D01*
X20650022Y-31356522D01*
X20589679Y-31396842D01*
X20518500Y-31411000D01*
X20148500Y-31411000D01*
X20077321Y-31396842D01*
X20016978Y-31356522D01*
X19976658Y-31296179D01*
X19962500Y-31225000D01*
X19962500Y-30955000D01*
X19976658Y-30883821D01*
X20016978Y-30823478D01*
X20077321Y-30783158D01*
X20148500Y-30769000D01*
X20518500Y-30769000D01*
X20589679Y-30783158D01*
G37*
G36*
X21852979Y-30783158D02*
G01*
X21913322Y-30823478D01*
X21953642Y-30883821D01*
X21967800Y-30955000D01*
X21967800Y-31225000D01*
X21953642Y-31296179D01*
X21913322Y-31356522D01*
X21852979Y-31396842D01*
X21781800Y-31411000D01*
X21411800Y-31411000D01*
X21340621Y-31396842D01*
X21280278Y-31356522D01*
X21239958Y-31296179D01*
X21225800Y-31225000D01*
X21225800Y-30955000D01*
X21239958Y-30883821D01*
X21280278Y-30823478D01*
X21340621Y-30783158D01*
X21411800Y-30769000D01*
X21781800Y-30769000D01*
X21852979Y-30783158D01*
G37*
G36*
X23116179Y-30783158D02*
G01*
X23176522Y-30823478D01*
X23216842Y-30883821D01*
X23231000Y-30955000D01*
X23231000Y-31225000D01*
X23216842Y-31296179D01*
X23176522Y-31356522D01*
X23116179Y-31396842D01*
X23045000Y-31411000D01*
X22675000Y-31411000D01*
X22603821Y-31396842D01*
X22543478Y-31356522D01*
X22503158Y-31296179D01*
X22489000Y-31225000D01*
X22489000Y-30955000D01*
X22503158Y-30883821D01*
X22543478Y-30823478D01*
X22603821Y-30783158D01*
X22675000Y-30769000D01*
X23045000Y-30769000D01*
X23116179Y-30783158D01*
G37*
G36*
X27027779Y-30783158D02*
G01*
X27088122Y-30823478D01*
X27128442Y-30883821D01*
X27142600Y-30955000D01*
X27142600Y-31225000D01*
X27128442Y-31296179D01*
X27088122Y-31356522D01*
X27027779Y-31396842D01*
X26956600Y-31411000D01*
X26586600Y-31411000D01*
X26515421Y-31396842D01*
X26455078Y-31356522D01*
X26414758Y-31296179D01*
X26400600Y-31225000D01*
X26400600Y-30955000D01*
X26414758Y-30883821D01*
X26455078Y-30823478D01*
X26515421Y-30783158D01*
X26586600Y-30769000D01*
X26956600Y-30769000D01*
X27027779Y-30783158D01*
G37*
G36*
X29567779Y-30783158D02*
G01*
X29628122Y-30823478D01*
X29668442Y-30883821D01*
X29682600Y-30955000D01*
X29682600Y-31225000D01*
X29668442Y-31296179D01*
X29628122Y-31356522D01*
X29567779Y-31396842D01*
X29496600Y-31411000D01*
X29126600Y-31411000D01*
X29055421Y-31396842D01*
X28995078Y-31356522D01*
X28954758Y-31296179D01*
X28940600Y-31225000D01*
X28940600Y-30955000D01*
X28954758Y-30883821D01*
X28995078Y-30823478D01*
X29055421Y-30783158D01*
X29126600Y-30769000D01*
X29496600Y-30769000D01*
X29567779Y-30783158D01*
G37*
G36*
X31980779Y-30783158D02*
G01*
X32041122Y-30823478D01*
X32081442Y-30883821D01*
X32095600Y-30955000D01*
X32095600Y-31225000D01*
X32081442Y-31296179D01*
X32041122Y-31356522D01*
X31980779Y-31396842D01*
X31909600Y-31411000D01*
X31539600Y-31411000D01*
X31468421Y-31396842D01*
X31408078Y-31356522D01*
X31367758Y-31296179D01*
X31353600Y-31225000D01*
X31353600Y-30955000D01*
X31367758Y-30883821D01*
X31408078Y-30823478D01*
X31468421Y-30783158D01*
X31539600Y-30769000D01*
X31909600Y-30769000D01*
X31980779Y-30783158D01*
G37*
G36*
X5342973Y-27130651D02*
G01*
X5505500Y-27203012D01*
X5649430Y-27307584D01*
X5768473Y-27439795D01*
X5857427Y-27593867D01*
X5912404Y-27763067D01*
X5931000Y-27940000D01*
X5912404Y-28116933D01*
X5857427Y-28286133D01*
X5768473Y-28440205D01*
X5649430Y-28572416D01*
X5505500Y-28676988D01*
X5342973Y-28749349D01*
X5168954Y-28786338D01*
X4991046Y-28786338D01*
X4817027Y-28749349D01*
X4654500Y-28676988D01*
X4510570Y-28572416D01*
X4391527Y-28440205D01*
X4302573Y-28286133D01*
X4247596Y-28116933D01*
X4229000Y-27940000D01*
X4247596Y-27763067D01*
X4302573Y-27593867D01*
X4391527Y-27439795D01*
X4510570Y-27307584D01*
X4654500Y-27203012D01*
X4817027Y-27130651D01*
X4991046Y-27093662D01*
X5168954Y-27093662D01*
X5342973Y-27130651D01*
G37*
G36*
X7882973Y-27130651D02*
G01*
X8045500Y-27203012D01*
X8189430Y-27307584D01*
X8308473Y-27439795D01*
X8397427Y-27593867D01*
X8452404Y-27763067D01*
X8471000Y-27940000D01*
X8452404Y-28116933D01*
X8397427Y-28286133D01*
X8308473Y-28440205D01*
X8189430Y-28572416D01*
X8045500Y-28676988D01*
X7882973Y-28749349D01*
X7708954Y-28786338D01*
X7531046Y-28786338D01*
X7357027Y-28749349D01*
X7194500Y-28676988D01*
X7050570Y-28572416D01*
X6931527Y-28440205D01*
X6842573Y-28286133D01*
X6787596Y-28116933D01*
X6769000Y-27940000D01*
X6787596Y-27763067D01*
X6842573Y-27593867D01*
X6931527Y-27439795D01*
X7050570Y-27307584D01*
X7194500Y-27203012D01*
X7357027Y-27130651D01*
X7531046Y-27093662D01*
X7708954Y-27093662D01*
X7882973Y-27130651D01*
G37*
G36*
X10422973Y-27130651D02*
G01*
X10585500Y-27203012D01*
X10729430Y-27307584D01*
X10848473Y-27439795D01*
X10937427Y-27593867D01*
X10992404Y-27763067D01*
X11011000Y-27940000D01*
X10992404Y-28116933D01*
X10937427Y-28286133D01*
X10848473Y-28440205D01*
X10729430Y-28572416D01*
X10585500Y-28676988D01*
X10422973Y-28749349D01*
X10248954Y-28786338D01*
X10071046Y-28786338D01*
X9897027Y-28749349D01*
X9734500Y-28676988D01*
X9590570Y-28572416D01*
X9471527Y-28440205D01*
X9382573Y-28286133D01*
X9327596Y-28116933D01*
X9309000Y-27940000D01*
X9327596Y-27763067D01*
X9382573Y-27593867D01*
X9471527Y-27439795D01*
X9590570Y-27307584D01*
X9734500Y-27203012D01*
X9897027Y-27130651D01*
X10071046Y-27093662D01*
X10248954Y-27093662D01*
X10422973Y-27130651D01*
G37*
G36*
X12962973Y-27130651D02*
G01*
X13125500Y-27203012D01*
X13269430Y-27307584D01*
X13388473Y-27439795D01*
X13477427Y-27593867D01*
X13532404Y-27763067D01*
X13551000Y-27940000D01*
X13532404Y-28116933D01*
X13477427Y-28286133D01*
X13388473Y-28440205D01*
X13269430Y-28572416D01*
X13125500Y-28676988D01*
X12962973Y-28749349D01*
X12788954Y-28786338D01*
X12611046Y-28786338D01*
X12437027Y-28749349D01*
X12274500Y-28676988D01*
X12130570Y-28572416D01*
X12011527Y-28440205D01*
X11922573Y-28286133D01*
X11867596Y-28116933D01*
X11849000Y-27940000D01*
X11867596Y-27763067D01*
X11922573Y-27593867D01*
X12011527Y-27439795D01*
X12130570Y-27307584D01*
X12274500Y-27203012D01*
X12437027Y-27130651D01*
X12611046Y-27093662D01*
X12788954Y-27093662D01*
X12962973Y-27130651D01*
G37*
G36*
X15502973Y-27130651D02*
G01*
X15665500Y-27203012D01*
X15809430Y-27307584D01*
X15928473Y-27439795D01*
X16017427Y-27593867D01*
X16072404Y-27763067D01*
X16091000Y-27940000D01*
X16072404Y-28116933D01*
X16017427Y-28286133D01*
X15928473Y-28440205D01*
X15809430Y-28572416D01*
X15665500Y-28676988D01*
X15502973Y-28749349D01*
X15328954Y-28786338D01*
X15151046Y-28786338D01*
X14977027Y-28749349D01*
X14814500Y-28676988D01*
X14670570Y-28572416D01*
X14551527Y-28440205D01*
X14462573Y-28286133D01*
X14407596Y-28116933D01*
X14389000Y-27940000D01*
X14407596Y-27763067D01*
X14462573Y-27593867D01*
X14551527Y-27439795D01*
X14670570Y-27307584D01*
X14814500Y-27203012D01*
X14977027Y-27130651D01*
X15151046Y-27093662D01*
X15328954Y-27093662D01*
X15502973Y-27130651D01*
G37*
G36*
X18042973Y-27130651D02*
G01*
X18205500Y-27203012D01*
X18349430Y-27307584D01*
X18468473Y-27439795D01*
X18557427Y-27593867D01*
X18612404Y-27763067D01*
X18631000Y-27940000D01*
X18612404Y-28116933D01*
X18557427Y-28286133D01*
X18468473Y-28440205D01*
X18349430Y-28572416D01*
X18205500Y-28676988D01*
X18042973Y-28749349D01*
X17868954Y-28786338D01*
X17691046Y-28786338D01*
X17517027Y-28749349D01*
X17354500Y-28676988D01*
X17210570Y-28572416D01*
X17091527Y-28440205D01*
X17002573Y-28286133D01*
X16947596Y-28116933D01*
X16929000Y-27940000D01*
X16947596Y-27763067D01*
X17002573Y-27593867D01*
X17091527Y-27439795D01*
X17210570Y-27307584D01*
X17354500Y-27203012D01*
X17517027Y-27130651D01*
X17691046Y-27093662D01*
X17868954Y-27093662D01*
X18042973Y-27130651D01*
G37*
G36*
X20582973Y-27130651D02*
G01*
X20745500Y-27203012D01*
X20889430Y-27307584D01*
X21008473Y-27439795D01*
X21097427Y-27593867D01*
X21152404Y-27763067D01*
X21171000Y-27940000D01*
X21152404Y-28116933D01*
X21097427Y-28286133D01*
X21008473Y-28440205D01*
X20889430Y-28572416D01*
X20745500Y-28676988D01*
X20582973Y-28749349D01*
X20408954Y-28786338D01*
X20231046Y-28786338D01*
X20057027Y-28749349D01*
X19894500Y-28676988D01*
X19750570Y-28572416D01*
X19631527Y-28440205D01*
X19542573Y-28286133D01*
X19487596Y-28116933D01*
X19469000Y-27940000D01*
X19487596Y-27763067D01*
X19542573Y-27593867D01*
X19631527Y-27439795D01*
X19750570Y-27307584D01*
X19894500Y-27203012D01*
X20057027Y-27130651D01*
X20231046Y-27093662D01*
X20408954Y-27093662D01*
X20582973Y-27130651D01*
G37*
G36*
X23122973Y-27130651D02*
G01*
X23285500Y-27203012D01*
X23429430Y-27307584D01*
X23548473Y-27439795D01*
X23637427Y-27593867D01*
X23692404Y-27763067D01*
X23711000Y-27940000D01*
X23692404Y-28116933D01*
X23637427Y-28286133D01*
X23548473Y-28440205D01*
X23429430Y-28572416D01*
X23285500Y-28676988D01*
X23122973Y-28749349D01*
X22948954Y-28786338D01*
X22771046Y-28786338D01*
X22597027Y-28749349D01*
X22434500Y-28676988D01*
X22290570Y-28572416D01*
X22171527Y-28440205D01*
X22082573Y-28286133D01*
X22027596Y-28116933D01*
X22009000Y-27940000D01*
X22027596Y-27763067D01*
X22082573Y-27593867D01*
X22171527Y-27439795D01*
X22290570Y-27307584D01*
X22434500Y-27203012D01*
X22597027Y-27130651D01*
X22771046Y-27093662D01*
X22948954Y-27093662D01*
X23122973Y-27130651D01*
G37*
G36*
X28202973Y-27130651D02*
G01*
X28365500Y-27203012D01*
X28509430Y-27307584D01*
X28628473Y-27439795D01*
X28717427Y-27593867D01*
X28772404Y-27763067D01*
X28791000Y-27940000D01*
X28772404Y-28116933D01*
X28717427Y-28286133D01*
X28628473Y-28440205D01*
X28509430Y-28572416D01*
X28365500Y-28676988D01*
X28202973Y-28749349D01*
X28028954Y-28786338D01*
X27851046Y-28786338D01*
X27677027Y-28749349D01*
X27514500Y-28676988D01*
X27370570Y-28572416D01*
X27251527Y-28440205D01*
X27162573Y-28286133D01*
X27107596Y-28116933D01*
X27089000Y-27940000D01*
X27107596Y-27763067D01*
X27162573Y-27593867D01*
X27251527Y-27439795D01*
X27370570Y-27307584D01*
X27514500Y-27203012D01*
X27677027Y-27130651D01*
X27851046Y-27093662D01*
X28028954Y-27093662D01*
X28202973Y-27130651D01*
G37*
G36*
X30742973Y-27130651D02*
G01*
X30905500Y-27203012D01*
X31049430Y-27307584D01*
X31168473Y-27439795D01*
X31257427Y-27593867D01*
X31312404Y-27763067D01*
X31331000Y-27940000D01*
X31312404Y-28116933D01*
X31257427Y-28286133D01*
X31168473Y-28440205D01*
X31049430Y-28572416D01*
X30905500Y-28676988D01*
X30742973Y-28749349D01*
X30568954Y-28786338D01*
X30391046Y-28786338D01*
X30217027Y-28749349D01*
X30054500Y-28676988D01*
X29910570Y-28572416D01*
X29791527Y-28440205D01*
X29702573Y-28286133D01*
X29647596Y-28116933D01*
X29629000Y-27940000D01*
X29647596Y-27763067D01*
X29702573Y-27593867D01*
X29791527Y-27439795D01*
X29910570Y-27307584D01*
X30054500Y-27203012D01*
X30217027Y-27130651D01*
X30391046Y-27093662D01*
X30568954Y-27093662D01*
X30742973Y-27130651D01*
G37*
G36*
X33282973Y-27130651D02*
G01*
X33445500Y-27203012D01*
X33589430Y-27307584D01*
X33708473Y-27439795D01*
X33797427Y-27593867D01*
X33852404Y-27763067D01*
X33871000Y-27940000D01*
X33852404Y-28116933D01*
X33797427Y-28286133D01*
X33708473Y-28440205D01*
X33589430Y-28572416D01*
X33445500Y-28676988D01*
X33282973Y-28749349D01*
X33108954Y-28786338D01*
X32931046Y-28786338D01*
X32757027Y-28749349D01*
X32594500Y-28676988D01*
X32450570Y-28572416D01*
X32331527Y-28440205D01*
X32242573Y-28286133D01*
X32187596Y-28116933D01*
X32169000Y-27940000D01*
X32187596Y-27763067D01*
X32242573Y-27593867D01*
X32331527Y-27439795D01*
X32450570Y-27307584D01*
X32594500Y-27203012D01*
X32757027Y-27130651D01*
X32931046Y-27093662D01*
X33108954Y-27093662D01*
X33282973Y-27130651D01*
G37*
G36*
X35822973Y-27130651D02*
G01*
X35985500Y-27203012D01*
X36129430Y-27307584D01*
X36248473Y-27439795D01*
X36337427Y-27593867D01*
X36392404Y-27763067D01*
X36411000Y-27940000D01*
X36392404Y-28116933D01*
X36337427Y-28286133D01*
X36248473Y-28440205D01*
X36129430Y-28572416D01*
X35985500Y-28676988D01*
X35822973Y-28749349D01*
X35648954Y-28786338D01*
X35471046Y-28786338D01*
X35297027Y-28749349D01*
X35134500Y-28676988D01*
X34990570Y-28572416D01*
X34871527Y-28440205D01*
X34782573Y-28286133D01*
X34727596Y-28116933D01*
X34709000Y-27940000D01*
X34727596Y-27763067D01*
X34782573Y-27593867D01*
X34871527Y-27439795D01*
X34990570Y-27307584D01*
X35134500Y-27203012D01*
X35297027Y-27130651D01*
X35471046Y-27093662D01*
X35648954Y-27093662D01*
X35822973Y-27130651D01*
G37*
G36*
X38362973Y-27130651D02*
G01*
X38525500Y-27203012D01*
X38669430Y-27307584D01*
X38788473Y-27439795D01*
X38877427Y-27593867D01*
X38932404Y-27763067D01*
X38951000Y-27940000D01*
X38932404Y-28116933D01*
X38877427Y-28286133D01*
X38788473Y-28440205D01*
X38669430Y-28572416D01*
X38525500Y-28676988D01*
X38362973Y-28749349D01*
X38188954Y-28786338D01*
X38011046Y-28786338D01*
X37837027Y-28749349D01*
X37674500Y-28676988D01*
X37530570Y-28572416D01*
X37411527Y-28440205D01*
X37322573Y-28286133D01*
X37267596Y-28116933D01*
X37249000Y-27940000D01*
X37267596Y-27763067D01*
X37322573Y-27593867D01*
X37411527Y-27439795D01*
X37530570Y-27307584D01*
X37674500Y-27203012D01*
X37837027Y-27130651D01*
X38011046Y-27093662D01*
X38188954Y-27093662D01*
X38362973Y-27130651D01*
G37*
G36*
X40902973Y-27130651D02*
G01*
X41065500Y-27203012D01*
X41209430Y-27307584D01*
X41328473Y-27439795D01*
X41417427Y-27593867D01*
X41472404Y-27763067D01*
X41491000Y-27940000D01*
X41472404Y-28116933D01*
X41417427Y-28286133D01*
X41328473Y-28440205D01*
X41209430Y-28572416D01*
X41065500Y-28676988D01*
X40902973Y-28749349D01*
X40728954Y-28786338D01*
X40551046Y-28786338D01*
X40377027Y-28749349D01*
X40214500Y-28676988D01*
X40070570Y-28572416D01*
X39951527Y-28440205D01*
X39862573Y-28286133D01*
X39807596Y-28116933D01*
X39789000Y-27940000D01*
X39807596Y-27763067D01*
X39862573Y-27593867D01*
X39951527Y-27439795D01*
X40070570Y-27307584D01*
X40214500Y-27203012D01*
X40377027Y-27130651D01*
X40551046Y-27093662D01*
X40728954Y-27093662D01*
X40902973Y-27130651D01*
G37*
G36*
X43442973Y-27130651D02*
G01*
X43605500Y-27203012D01*
X43749430Y-27307584D01*
X43868473Y-27439795D01*
X43957427Y-27593867D01*
X44012404Y-27763067D01*
X44031000Y-27940000D01*
X44012404Y-28116933D01*
X43957427Y-28286133D01*
X43868473Y-28440205D01*
X43749430Y-28572416D01*
X43605500Y-28676988D01*
X43442973Y-28749349D01*
X43268954Y-28786338D01*
X43091046Y-28786338D01*
X42917027Y-28749349D01*
X42754500Y-28676988D01*
X42610570Y-28572416D01*
X42491527Y-28440205D01*
X42402573Y-28286133D01*
X42347596Y-28116933D01*
X42329000Y-27940000D01*
X42347596Y-27763067D01*
X42402573Y-27593867D01*
X42491527Y-27439795D01*
X42610570Y-27307584D01*
X42754500Y-27203012D01*
X42917027Y-27130651D01*
X43091046Y-27093662D01*
X43268954Y-27093662D01*
X43442973Y-27130651D01*
G37*
G36*
X45982973Y-27130651D02*
G01*
X46145500Y-27203012D01*
X46289430Y-27307584D01*
X46408473Y-27439795D01*
X46497427Y-27593867D01*
X46552404Y-27763067D01*
X46571000Y-27940000D01*
X46552404Y-28116933D01*
X46497427Y-28286133D01*
X46408473Y-28440205D01*
X46289430Y-28572416D01*
X46145500Y-28676988D01*
X45982973Y-28749349D01*
X45808954Y-28786338D01*
X45631046Y-28786338D01*
X45457027Y-28749349D01*
X45294500Y-28676988D01*
X45150570Y-28572416D01*
X45031527Y-28440205D01*
X44942573Y-28286133D01*
X44887596Y-28116933D01*
X44869000Y-27940000D01*
X44887596Y-27763067D01*
X44942573Y-27593867D01*
X45031527Y-27439795D01*
X45150570Y-27307584D01*
X45294500Y-27203012D01*
X45457027Y-27130651D01*
X45631046Y-27093662D01*
X45808954Y-27093662D01*
X45982973Y-27130651D01*
G37*
G36*
X54956533Y-23276429D02*
G01*
X54961192Y-23278486D01*
X54964244Y-23278888D01*
X55002439Y-23296698D01*
X55055624Y-23320182D01*
X55132218Y-23396776D01*
X55155715Y-23449993D01*
X55173511Y-23488156D01*
X55173912Y-23491204D01*
X55175971Y-23495867D01*
X55183800Y-23563350D01*
X55183800Y-24050850D01*
X55175971Y-24118333D01*
X55173912Y-24122995D01*
X55173511Y-24126044D01*
X55155719Y-24164198D01*
X55132218Y-24217424D01*
X55055624Y-24294018D01*
X55002387Y-24317524D01*
X54964243Y-24335311D01*
X54961195Y-24335712D01*
X54956533Y-24337771D01*
X54889050Y-24345600D01*
X53976550Y-24345600D01*
X53909067Y-24337771D01*
X53904405Y-24335712D01*
X53901355Y-24335311D01*
X53863182Y-24317510D01*
X53809976Y-24294018D01*
X53733382Y-24217424D01*
X53709893Y-24164228D01*
X53692088Y-24126043D01*
X53691686Y-24122992D01*
X53689629Y-24118333D01*
X53681800Y-24050850D01*
X53681800Y-23563350D01*
X53689629Y-23495867D01*
X53691686Y-23491208D01*
X53692088Y-23488155D01*
X53709906Y-23449941D01*
X53733382Y-23396776D01*
X53809976Y-23320182D01*
X53863152Y-23296702D01*
X53901356Y-23278888D01*
X53904407Y-23278486D01*
X53909067Y-23276429D01*
X53976550Y-23268600D01*
X54889050Y-23268600D01*
X54956533Y-23276429D01*
G37*
G36*
X64602609Y-22667775D02*
G01*
X64735500Y-22722820D01*
X64849616Y-22810384D01*
X64937180Y-22924500D01*
X64992225Y-23057391D01*
X65011000Y-23200000D01*
X64992225Y-23342609D01*
X64937180Y-23475500D01*
X64849616Y-23589616D01*
X64735500Y-23677180D01*
X64602609Y-23732225D01*
X64460000Y-23751000D01*
X64317391Y-23732225D01*
X64184500Y-23677180D01*
X64070384Y-23589616D01*
X63982820Y-23475500D01*
X63927775Y-23342609D01*
X63909000Y-23200000D01*
X63927775Y-23057391D01*
X63982820Y-22924500D01*
X64070384Y-22810384D01*
X64184500Y-22722820D01*
X64317391Y-22667775D01*
X64460000Y-22649000D01*
X64602609Y-22667775D01*
G37*
G36*
X54956533Y-21401429D02*
G01*
X54961192Y-21403486D01*
X54964244Y-21403888D01*
X55002439Y-21421698D01*
X55055624Y-21445182D01*
X55132218Y-21521776D01*
X55155715Y-21574993D01*
X55173511Y-21613156D01*
X55173912Y-21616204D01*
X55175971Y-21620867D01*
X55183800Y-21688350D01*
X55183800Y-22175850D01*
X55175971Y-22243333D01*
X55173912Y-22247995D01*
X55173511Y-22251044D01*
X55155719Y-22289198D01*
X55132218Y-22342424D01*
X55055624Y-22419018D01*
X55002387Y-22442524D01*
X54964243Y-22460311D01*
X54961195Y-22460712D01*
X54956533Y-22462771D01*
X54889050Y-22470600D01*
X53976550Y-22470600D01*
X53909067Y-22462771D01*
X53904405Y-22460712D01*
X53901355Y-22460311D01*
X53863182Y-22442510D01*
X53809976Y-22419018D01*
X53733382Y-22342424D01*
X53709893Y-22289228D01*
X53692088Y-22251043D01*
X53691686Y-22247992D01*
X53689629Y-22243333D01*
X53681800Y-22175850D01*
X53681800Y-21688350D01*
X53689629Y-21620867D01*
X53691686Y-21616208D01*
X53692088Y-21613155D01*
X53709906Y-21574941D01*
X53733382Y-21521776D01*
X53809976Y-21445182D01*
X53863152Y-21421702D01*
X53901356Y-21403888D01*
X53904407Y-21403486D01*
X53909067Y-21401429D01*
X53976550Y-21393600D01*
X54889050Y-21393600D01*
X54956533Y-21401429D01*
G37*
G36*
X23679517Y-19472882D02*
G01*
X23696062Y-19483938D01*
X23707118Y-19500483D01*
X23711000Y-19520000D01*
X23711000Y-21120000D01*
X23707118Y-21139517D01*
X23696062Y-21156062D01*
X23679517Y-21167118D01*
X23660000Y-21171000D01*
X22060000Y-21171000D01*
X22040483Y-21167118D01*
X22023938Y-21156062D01*
X22012882Y-21139517D01*
X22009000Y-21120000D01*
X22009000Y-19520000D01*
X22012882Y-19500483D01*
X22023938Y-19483938D01*
X22040483Y-19472882D01*
X22060000Y-19469000D01*
X23660000Y-19469000D01*
X23679517Y-19472882D01*
G37*
G36*
X46539517Y-19472882D02*
G01*
X46556062Y-19483938D01*
X46567118Y-19500483D01*
X46571000Y-19520000D01*
X46571000Y-21120000D01*
X46567118Y-21139517D01*
X46556062Y-21156062D01*
X46539517Y-21167118D01*
X46520000Y-21171000D01*
X44920000Y-21171000D01*
X44900483Y-21167118D01*
X44883938Y-21156062D01*
X44872882Y-21139517D01*
X44869000Y-21120000D01*
X44869000Y-19520000D01*
X44872882Y-19500483D01*
X44883938Y-19483938D01*
X44900483Y-19472882D01*
X44920000Y-19469000D01*
X46520000Y-19469000D01*
X46539517Y-19472882D01*
G37*
G36*
X5342973Y-19510651D02*
G01*
X5505500Y-19583012D01*
X5649430Y-19687584D01*
X5768473Y-19819795D01*
X5857427Y-19973867D01*
X5912404Y-20143067D01*
X5931000Y-20320000D01*
X5912404Y-20496933D01*
X5857427Y-20666133D01*
X5768473Y-20820205D01*
X5649430Y-20952416D01*
X5505500Y-21056988D01*
X5342973Y-21129349D01*
X5168954Y-21166338D01*
X4991046Y-21166338D01*
X4817027Y-21129349D01*
X4654500Y-21056988D01*
X4510570Y-20952416D01*
X4391527Y-20820205D01*
X4302573Y-20666133D01*
X4247596Y-20496933D01*
X4229000Y-20320000D01*
X4247596Y-20143067D01*
X4302573Y-19973867D01*
X4391527Y-19819795D01*
X4510570Y-19687584D01*
X4654500Y-19583012D01*
X4817027Y-19510651D01*
X4991046Y-19473662D01*
X5168954Y-19473662D01*
X5342973Y-19510651D01*
G37*
G36*
X7882973Y-19510651D02*
G01*
X8045500Y-19583012D01*
X8189430Y-19687584D01*
X8308473Y-19819795D01*
X8397427Y-19973867D01*
X8452404Y-20143067D01*
X8471000Y-20320000D01*
X8452404Y-20496933D01*
X8397427Y-20666133D01*
X8308473Y-20820205D01*
X8189430Y-20952416D01*
X8045500Y-21056988D01*
X7882973Y-21129349D01*
X7708954Y-21166338D01*
X7531046Y-21166338D01*
X7357027Y-21129349D01*
X7194500Y-21056988D01*
X7050570Y-20952416D01*
X6931527Y-20820205D01*
X6842573Y-20666133D01*
X6787596Y-20496933D01*
X6769000Y-20320000D01*
X6787596Y-20143067D01*
X6842573Y-19973867D01*
X6931527Y-19819795D01*
X7050570Y-19687584D01*
X7194500Y-19583012D01*
X7357027Y-19510651D01*
X7531046Y-19473662D01*
X7708954Y-19473662D01*
X7882973Y-19510651D01*
G37*
G36*
X10422973Y-19510651D02*
G01*
X10585500Y-19583012D01*
X10729430Y-19687584D01*
X10848473Y-19819795D01*
X10937427Y-19973867D01*
X10992404Y-20143067D01*
X11011000Y-20320000D01*
X10992404Y-20496933D01*
X10937427Y-20666133D01*
X10848473Y-20820205D01*
X10729430Y-20952416D01*
X10585500Y-21056988D01*
X10422973Y-21129349D01*
X10248954Y-21166338D01*
X10071046Y-21166338D01*
X9897027Y-21129349D01*
X9734500Y-21056988D01*
X9590570Y-20952416D01*
X9471527Y-20820205D01*
X9382573Y-20666133D01*
X9327596Y-20496933D01*
X9309000Y-20320000D01*
X9327596Y-20143067D01*
X9382573Y-19973867D01*
X9471527Y-19819795D01*
X9590570Y-19687584D01*
X9734500Y-19583012D01*
X9897027Y-19510651D01*
X10071046Y-19473662D01*
X10248954Y-19473662D01*
X10422973Y-19510651D01*
G37*
G36*
X12962973Y-19510651D02*
G01*
X13125500Y-19583012D01*
X13269430Y-19687584D01*
X13388473Y-19819795D01*
X13477427Y-19973867D01*
X13532404Y-20143067D01*
X13551000Y-20320000D01*
X13532404Y-20496933D01*
X13477427Y-20666133D01*
X13388473Y-20820205D01*
X13269430Y-20952416D01*
X13125500Y-21056988D01*
X12962973Y-21129349D01*
X12788954Y-21166338D01*
X12611046Y-21166338D01*
X12437027Y-21129349D01*
X12274500Y-21056988D01*
X12130570Y-20952416D01*
X12011527Y-20820205D01*
X11922573Y-20666133D01*
X11867596Y-20496933D01*
X11849000Y-20320000D01*
X11867596Y-20143067D01*
X11922573Y-19973867D01*
X12011527Y-19819795D01*
X12130570Y-19687584D01*
X12274500Y-19583012D01*
X12437027Y-19510651D01*
X12611046Y-19473662D01*
X12788954Y-19473662D01*
X12962973Y-19510651D01*
G37*
G36*
X15502973Y-19510651D02*
G01*
X15665500Y-19583012D01*
X15809430Y-19687584D01*
X15928473Y-19819795D01*
X16017427Y-19973867D01*
X16072404Y-20143067D01*
X16091000Y-20320000D01*
X16072404Y-20496933D01*
X16017427Y-20666133D01*
X15928473Y-20820205D01*
X15809430Y-20952416D01*
X15665500Y-21056988D01*
X15502973Y-21129349D01*
X15328954Y-21166338D01*
X15151046Y-21166338D01*
X14977027Y-21129349D01*
X14814500Y-21056988D01*
X14670570Y-20952416D01*
X14551527Y-20820205D01*
X14462573Y-20666133D01*
X14407596Y-20496933D01*
X14389000Y-20320000D01*
X14407596Y-20143067D01*
X14462573Y-19973867D01*
X14551527Y-19819795D01*
X14670570Y-19687584D01*
X14814500Y-19583012D01*
X14977027Y-19510651D01*
X15151046Y-19473662D01*
X15328954Y-19473662D01*
X15502973Y-19510651D01*
G37*
G36*
X18042973Y-19510651D02*
G01*
X18205500Y-19583012D01*
X18349430Y-19687584D01*
X18468473Y-19819795D01*
X18557427Y-19973867D01*
X18612404Y-20143067D01*
X18631000Y-20320000D01*
X18612404Y-20496933D01*
X18557427Y-20666133D01*
X18468473Y-20820205D01*
X18349430Y-20952416D01*
X18205500Y-21056988D01*
X18042973Y-21129349D01*
X17868954Y-21166338D01*
X17691046Y-21166338D01*
X17517027Y-21129349D01*
X17354500Y-21056988D01*
X17210570Y-20952416D01*
X17091527Y-20820205D01*
X17002573Y-20666133D01*
X16947596Y-20496933D01*
X16929000Y-20320000D01*
X16947596Y-20143067D01*
X17002573Y-19973867D01*
X17091527Y-19819795D01*
X17210570Y-19687584D01*
X17354500Y-19583012D01*
X17517027Y-19510651D01*
X17691046Y-19473662D01*
X17868954Y-19473662D01*
X18042973Y-19510651D01*
G37*
G36*
X20582973Y-19510651D02*
G01*
X20745500Y-19583012D01*
X20889430Y-19687584D01*
X21008473Y-19819795D01*
X21097427Y-19973867D01*
X21152404Y-20143067D01*
X21171000Y-20320000D01*
X21152404Y-20496933D01*
X21097427Y-20666133D01*
X21008473Y-20820205D01*
X20889430Y-20952416D01*
X20745500Y-21056988D01*
X20582973Y-21129349D01*
X20408954Y-21166338D01*
X20231046Y-21166338D01*
X20057027Y-21129349D01*
X19894500Y-21056988D01*
X19750570Y-20952416D01*
X19631527Y-20820205D01*
X19542573Y-20666133D01*
X19487596Y-20496933D01*
X19469000Y-20320000D01*
X19487596Y-20143067D01*
X19542573Y-19973867D01*
X19631527Y-19819795D01*
X19750570Y-19687584D01*
X19894500Y-19583012D01*
X20057027Y-19510651D01*
X20231046Y-19473662D01*
X20408954Y-19473662D01*
X20582973Y-19510651D01*
G37*
G36*
X28202973Y-19510651D02*
G01*
X28365500Y-19583012D01*
X28509430Y-19687584D01*
X28628473Y-19819795D01*
X28717427Y-19973867D01*
X28772404Y-20143067D01*
X28791000Y-20320000D01*
X28772404Y-20496933D01*
X28717427Y-20666133D01*
X28628473Y-20820205D01*
X28509430Y-20952416D01*
X28365500Y-21056988D01*
X28202973Y-21129349D01*
X28028954Y-21166338D01*
X27851046Y-21166338D01*
X27677027Y-21129349D01*
X27514500Y-21056988D01*
X27370570Y-20952416D01*
X27251527Y-20820205D01*
X27162573Y-20666133D01*
X27107596Y-20496933D01*
X27089000Y-20320000D01*
X27107596Y-20143067D01*
X27162573Y-19973867D01*
X27251527Y-19819795D01*
X27370570Y-19687584D01*
X27514500Y-19583012D01*
X27677027Y-19510651D01*
X27851046Y-19473662D01*
X28028954Y-19473662D01*
X28202973Y-19510651D01*
G37*
G36*
X30742973Y-19510651D02*
G01*
X30905500Y-19583012D01*
X31049430Y-19687584D01*
X31168473Y-19819795D01*
X31257427Y-19973867D01*
X31312404Y-20143067D01*
X31331000Y-20320000D01*
X31312404Y-20496933D01*
X31257427Y-20666133D01*
X31168473Y-20820205D01*
X31049430Y-20952416D01*
X30905500Y-21056988D01*
X30742973Y-21129349D01*
X30568954Y-21166338D01*
X30391046Y-21166338D01*
X30217027Y-21129349D01*
X30054500Y-21056988D01*
X29910570Y-20952416D01*
X29791527Y-20820205D01*
X29702573Y-20666133D01*
X29647596Y-20496933D01*
X29629000Y-20320000D01*
X29647596Y-20143067D01*
X29702573Y-19973867D01*
X29791527Y-19819795D01*
X29910570Y-19687584D01*
X30054500Y-19583012D01*
X30217027Y-19510651D01*
X30391046Y-19473662D01*
X30568954Y-19473662D01*
X30742973Y-19510651D01*
G37*
G36*
X33282973Y-19510651D02*
G01*
X33445500Y-19583012D01*
X33589430Y-19687584D01*
X33708473Y-19819795D01*
X33797427Y-19973867D01*
X33852404Y-20143067D01*
X33871000Y-20320000D01*
X33852404Y-20496933D01*
X33797427Y-20666133D01*
X33708473Y-20820205D01*
X33589430Y-20952416D01*
X33445500Y-21056988D01*
X33282973Y-21129349D01*
X33108954Y-21166338D01*
X32931046Y-21166338D01*
X32757027Y-21129349D01*
X32594500Y-21056988D01*
X32450570Y-20952416D01*
X32331527Y-20820205D01*
X32242573Y-20666133D01*
X32187596Y-20496933D01*
X32169000Y-20320000D01*
X32187596Y-20143067D01*
X32242573Y-19973867D01*
X32331527Y-19819795D01*
X32450570Y-19687584D01*
X32594500Y-19583012D01*
X32757027Y-19510651D01*
X32931046Y-19473662D01*
X33108954Y-19473662D01*
X33282973Y-19510651D01*
G37*
G36*
X35822973Y-19510651D02*
G01*
X35985500Y-19583012D01*
X36129430Y-19687584D01*
X36248473Y-19819795D01*
X36337427Y-19973867D01*
X36392404Y-20143067D01*
X36411000Y-20320000D01*
X36392404Y-20496933D01*
X36337427Y-20666133D01*
X36248473Y-20820205D01*
X36129430Y-20952416D01*
X35985500Y-21056988D01*
X35822973Y-21129349D01*
X35648954Y-21166338D01*
X35471046Y-21166338D01*
X35297027Y-21129349D01*
X35134500Y-21056988D01*
X34990570Y-20952416D01*
X34871527Y-20820205D01*
X34782573Y-20666133D01*
X34727596Y-20496933D01*
X34709000Y-20320000D01*
X34727596Y-20143067D01*
X34782573Y-19973867D01*
X34871527Y-19819795D01*
X34990570Y-19687584D01*
X35134500Y-19583012D01*
X35297027Y-19510651D01*
X35471046Y-19473662D01*
X35648954Y-19473662D01*
X35822973Y-19510651D01*
G37*
G36*
X38362973Y-19510651D02*
G01*
X38525500Y-19583012D01*
X38669430Y-19687584D01*
X38788473Y-19819795D01*
X38877427Y-19973867D01*
X38932404Y-20143067D01*
X38951000Y-20320000D01*
X38932404Y-20496933D01*
X38877427Y-20666133D01*
X38788473Y-20820205D01*
X38669430Y-20952416D01*
X38525500Y-21056988D01*
X38362973Y-21129349D01*
X38188954Y-21166338D01*
X38011046Y-21166338D01*
X37837027Y-21129349D01*
X37674500Y-21056988D01*
X37530570Y-20952416D01*
X37411527Y-20820205D01*
X37322573Y-20666133D01*
X37267596Y-20496933D01*
X37249000Y-20320000D01*
X37267596Y-20143067D01*
X37322573Y-19973867D01*
X37411527Y-19819795D01*
X37530570Y-19687584D01*
X37674500Y-19583012D01*
X37837027Y-19510651D01*
X38011046Y-19473662D01*
X38188954Y-19473662D01*
X38362973Y-19510651D01*
G37*
G36*
X40902973Y-19510651D02*
G01*
X41065500Y-19583012D01*
X41209430Y-19687584D01*
X41328473Y-19819795D01*
X41417427Y-19973867D01*
X41472404Y-20143067D01*
X41491000Y-20320000D01*
X41472404Y-20496933D01*
X41417427Y-20666133D01*
X41328473Y-20820205D01*
X41209430Y-20952416D01*
X41065500Y-21056988D01*
X40902973Y-21129349D01*
X40728954Y-21166338D01*
X40551046Y-21166338D01*
X40377027Y-21129349D01*
X40214500Y-21056988D01*
X40070570Y-20952416D01*
X39951527Y-20820205D01*
X39862573Y-20666133D01*
X39807596Y-20496933D01*
X39789000Y-20320000D01*
X39807596Y-20143067D01*
X39862573Y-19973867D01*
X39951527Y-19819795D01*
X40070570Y-19687584D01*
X40214500Y-19583012D01*
X40377027Y-19510651D01*
X40551046Y-19473662D01*
X40728954Y-19473662D01*
X40902973Y-19510651D01*
G37*
G36*
X43442973Y-19510651D02*
G01*
X43605500Y-19583012D01*
X43749430Y-19687584D01*
X43868473Y-19819795D01*
X43957427Y-19973867D01*
X44012404Y-20143067D01*
X44031000Y-20320000D01*
X44012404Y-20496933D01*
X43957427Y-20666133D01*
X43868473Y-20820205D01*
X43749430Y-20952416D01*
X43605500Y-21056988D01*
X43442973Y-21129349D01*
X43268954Y-21166338D01*
X43091046Y-21166338D01*
X42917027Y-21129349D01*
X42754500Y-21056988D01*
X42610570Y-20952416D01*
X42491527Y-20820205D01*
X42402573Y-20666133D01*
X42347596Y-20496933D01*
X42329000Y-20320000D01*
X42347596Y-20143067D01*
X42402573Y-19973867D01*
X42491527Y-19819795D01*
X42610570Y-19687584D01*
X42754500Y-19583012D01*
X42917027Y-19510651D01*
X43091046Y-19473662D01*
X43268954Y-19473662D01*
X43442973Y-19510651D01*
G37*
G36*
X61529517Y-18502882D02*
G01*
X61546062Y-18513938D01*
X61557118Y-18530483D01*
X61561000Y-18550000D01*
X61561000Y-20050000D01*
X61557118Y-20069517D01*
X61546062Y-20086062D01*
X61529517Y-20097118D01*
X61510000Y-20101000D01*
X59510000Y-20101000D01*
X59490483Y-20097118D01*
X59473938Y-20086062D01*
X59462882Y-20069517D01*
X59459000Y-20050000D01*
X59459000Y-18550000D01*
X59462882Y-18530483D01*
X59473938Y-18513938D01*
X59490483Y-18502882D01*
X59510000Y-18499000D01*
X61510000Y-18499000D01*
X61529517Y-18502882D01*
G37*
G36*
X51733733Y-18431829D02*
G01*
X51738392Y-18433886D01*
X51741444Y-18434288D01*
X51779639Y-18452098D01*
X51832824Y-18475582D01*
X51909418Y-18552176D01*
X51932915Y-18605393D01*
X51950711Y-18643556D01*
X51951112Y-18646604D01*
X51953171Y-18651267D01*
X51961000Y-18718750D01*
X51961000Y-19206250D01*
X51953171Y-19273733D01*
X51951112Y-19278395D01*
X51950711Y-19281444D01*
X51932919Y-19319598D01*
X51909418Y-19372824D01*
X51832824Y-19449418D01*
X51779587Y-19472924D01*
X51741443Y-19490711D01*
X51738395Y-19491112D01*
X51733733Y-19493171D01*
X51666250Y-19501000D01*
X50753750Y-19501000D01*
X50686267Y-19493171D01*
X50681605Y-19491112D01*
X50678555Y-19490711D01*
X50640382Y-19472910D01*
X50587176Y-19449418D01*
X50510582Y-19372824D01*
X50487093Y-19319628D01*
X50469288Y-19281443D01*
X50468886Y-19278392D01*
X50466829Y-19273733D01*
X50459000Y-19206250D01*
X50459000Y-18718750D01*
X50466829Y-18651267D01*
X50468886Y-18646608D01*
X50469288Y-18643555D01*
X50487106Y-18605341D01*
X50510582Y-18552176D01*
X50587176Y-18475582D01*
X50640352Y-18452102D01*
X50678556Y-18434288D01*
X50681607Y-18433886D01*
X50686267Y-18431829D01*
X50753750Y-18424000D01*
X51666250Y-18424000D01*
X51733733Y-18431829D01*
G37*
G36*
X55229517Y-15052882D02*
G01*
X55246062Y-15063938D01*
X55257118Y-15080483D01*
X55261000Y-15100000D01*
X55261000Y-18900000D01*
X55257118Y-18919517D01*
X55246062Y-18936062D01*
X55229517Y-18947118D01*
X55210000Y-18951000D01*
X53210000Y-18951000D01*
X53190483Y-18947118D01*
X53173938Y-18936062D01*
X53162882Y-18919517D01*
X53159000Y-18900000D01*
X53159000Y-15100000D01*
X53162882Y-15080483D01*
X53173938Y-15063938D01*
X53190483Y-15052882D01*
X53210000Y-15049000D01*
X55210000Y-15049000D01*
X55229517Y-15052882D01*
G37*
G36*
X64233733Y-17344329D02*
G01*
X64238392Y-17346386D01*
X64241444Y-17346788D01*
X64279639Y-17364598D01*
X64332824Y-17388082D01*
X64409418Y-17464676D01*
X64432915Y-17517893D01*
X64450711Y-17556056D01*
X64451112Y-17559104D01*
X64453171Y-17563767D01*
X64461000Y-17631250D01*
X64461000Y-18118750D01*
X64453171Y-18186233D01*
X64451112Y-18190895D01*
X64450711Y-18193944D01*
X64432919Y-18232098D01*
X64409418Y-18285324D01*
X64332824Y-18361918D01*
X64279587Y-18385424D01*
X64241443Y-18403211D01*
X64238395Y-18403612D01*
X64233733Y-18405671D01*
X64166250Y-18413500D01*
X63253750Y-18413500D01*
X63186267Y-18405671D01*
X63181605Y-18403612D01*
X63178555Y-18403211D01*
X63140382Y-18385410D01*
X63087176Y-18361918D01*
X63010582Y-18285324D01*
X62987093Y-18232128D01*
X62969288Y-18193943D01*
X62968886Y-18190892D01*
X62966829Y-18186233D01*
X62959000Y-18118750D01*
X62959000Y-17631250D01*
X62966829Y-17563767D01*
X62968886Y-17559108D01*
X62969288Y-17556055D01*
X62987106Y-17517841D01*
X63010582Y-17464676D01*
X63087176Y-17388082D01*
X63140352Y-17364602D01*
X63178556Y-17346788D01*
X63181607Y-17346386D01*
X63186267Y-17344329D01*
X63253750Y-17336500D01*
X64166250Y-17336500D01*
X64233733Y-17344329D01*
G37*
G36*
X61529517Y-16202882D02*
G01*
X61546062Y-16213938D01*
X61557118Y-16230483D01*
X61561000Y-16250000D01*
X61561000Y-17750000D01*
X61557118Y-17769517D01*
X61546062Y-17786062D01*
X61529517Y-17797118D01*
X61510000Y-17801000D01*
X59510000Y-17801000D01*
X59490483Y-17797118D01*
X59473938Y-17786062D01*
X59462882Y-17769517D01*
X59459000Y-17750000D01*
X59459000Y-16250000D01*
X59462882Y-16230483D01*
X59473938Y-16213938D01*
X59490483Y-16202882D01*
X59510000Y-16199000D01*
X61510000Y-16199000D01*
X61529517Y-16202882D01*
G37*
G36*
X51733733Y-16556829D02*
G01*
X51738392Y-16558886D01*
X51741444Y-16559288D01*
X51779639Y-16577098D01*
X51832824Y-16600582D01*
X51909418Y-16677176D01*
X51932915Y-16730393D01*
X51950711Y-16768556D01*
X51951112Y-16771604D01*
X51953171Y-16776267D01*
X51961000Y-16843750D01*
X51961000Y-17331250D01*
X51953171Y-17398733D01*
X51951112Y-17403395D01*
X51950711Y-17406444D01*
X51932919Y-17444598D01*
X51909418Y-17497824D01*
X51832824Y-17574418D01*
X51779587Y-17597924D01*
X51741443Y-17615711D01*
X51738395Y-17616112D01*
X51733733Y-17618171D01*
X51666250Y-17626000D01*
X50753750Y-17626000D01*
X50686267Y-17618171D01*
X50681605Y-17616112D01*
X50678555Y-17615711D01*
X50640382Y-17597910D01*
X50587176Y-17574418D01*
X50510582Y-17497824D01*
X50487093Y-17444628D01*
X50469288Y-17406443D01*
X50468886Y-17403392D01*
X50466829Y-17398733D01*
X50459000Y-17331250D01*
X50459000Y-16843750D01*
X50466829Y-16776267D01*
X50468886Y-16771608D01*
X50469288Y-16768555D01*
X50487106Y-16730341D01*
X50510582Y-16677176D01*
X50587176Y-16600582D01*
X50640352Y-16577102D01*
X50678556Y-16559288D01*
X50681607Y-16558886D01*
X50686267Y-16556829D01*
X50753750Y-16549000D01*
X51666250Y-16549000D01*
X51733733Y-16556829D01*
G37*
G36*
X64233733Y-15469329D02*
G01*
X64238392Y-15471386D01*
X64241444Y-15471788D01*
X64279639Y-15489598D01*
X64332824Y-15513082D01*
X64409418Y-15589676D01*
X64432915Y-15642893D01*
X64450711Y-15681056D01*
X64451112Y-15684104D01*
X64453171Y-15688767D01*
X64461000Y-15756250D01*
X64461000Y-16243750D01*
X64453171Y-16311233D01*
X64451112Y-16315895D01*
X64450711Y-16318944D01*
X64432919Y-16357098D01*
X64409418Y-16410324D01*
X64332824Y-16486918D01*
X64279587Y-16510424D01*
X64241443Y-16528211D01*
X64238395Y-16528612D01*
X64233733Y-16530671D01*
X64166250Y-16538500D01*
X63253750Y-16538500D01*
X63186267Y-16530671D01*
X63181605Y-16528612D01*
X63178555Y-16528211D01*
X63140382Y-16510410D01*
X63087176Y-16486918D01*
X63010582Y-16410324D01*
X62987093Y-16357128D01*
X62969288Y-16318943D01*
X62968886Y-16315892D01*
X62966829Y-16311233D01*
X62959000Y-16243750D01*
X62959000Y-15756250D01*
X62966829Y-15688767D01*
X62968886Y-15684108D01*
X62969288Y-15681055D01*
X62987106Y-15642841D01*
X63010582Y-15589676D01*
X63087176Y-15513082D01*
X63140352Y-15489602D01*
X63178556Y-15471788D01*
X63181607Y-15471386D01*
X63186267Y-15469329D01*
X63253750Y-15461500D01*
X64166250Y-15461500D01*
X64233733Y-15469329D01*
G37*
G36*
X61529517Y-13902882D02*
G01*
X61546062Y-13913938D01*
X61557118Y-13930483D01*
X61561000Y-13950000D01*
X61561000Y-15450000D01*
X61557118Y-15469517D01*
X61546062Y-15486062D01*
X61529517Y-15497118D01*
X61510000Y-15501000D01*
X59510000Y-15501000D01*
X59490483Y-15497118D01*
X59473938Y-15486062D01*
X59462882Y-15469517D01*
X59459000Y-15450000D01*
X59459000Y-13950000D01*
X59462882Y-13930483D01*
X59473938Y-13913938D01*
X59490483Y-13902882D01*
X59510000Y-13899000D01*
X61510000Y-13899000D01*
X61529517Y-13902882D01*
G37*
G36*
X5342973Y-13160651D02*
G01*
X5505500Y-13233012D01*
X5649430Y-13337584D01*
X5768473Y-13469795D01*
X5857427Y-13623867D01*
X5912404Y-13793067D01*
X5931000Y-13970000D01*
X5912404Y-14146933D01*
X5857427Y-14316133D01*
X5768473Y-14470205D01*
X5649430Y-14602416D01*
X5505500Y-14706988D01*
X5342973Y-14779349D01*
X5168954Y-14816338D01*
X4991046Y-14816338D01*
X4817027Y-14779349D01*
X4654500Y-14706988D01*
X4510570Y-14602416D01*
X4391527Y-14470205D01*
X4302573Y-14316133D01*
X4247596Y-14146933D01*
X4229000Y-13970000D01*
X4247596Y-13793067D01*
X4302573Y-13623867D01*
X4391527Y-13469795D01*
X4510570Y-13337584D01*
X4654500Y-13233012D01*
X4817027Y-13160651D01*
X4991046Y-13123662D01*
X5168954Y-13123662D01*
X5342973Y-13160651D01*
G37*
G36*
X7882973Y-13160651D02*
G01*
X8045500Y-13233012D01*
X8189430Y-13337584D01*
X8308473Y-13469795D01*
X8397427Y-13623867D01*
X8452404Y-13793067D01*
X8471000Y-13970000D01*
X8452404Y-14146933D01*
X8397427Y-14316133D01*
X8308473Y-14470205D01*
X8189430Y-14602416D01*
X8045500Y-14706988D01*
X7882973Y-14779349D01*
X7708954Y-14816338D01*
X7531046Y-14816338D01*
X7357027Y-14779349D01*
X7194500Y-14706988D01*
X7050570Y-14602416D01*
X6931527Y-14470205D01*
X6842573Y-14316133D01*
X6787596Y-14146933D01*
X6769000Y-13970000D01*
X6787596Y-13793067D01*
X6842573Y-13623867D01*
X6931527Y-13469795D01*
X7050570Y-13337584D01*
X7194500Y-13233012D01*
X7357027Y-13160651D01*
X7531046Y-13123662D01*
X7708954Y-13123662D01*
X7882973Y-13160651D01*
G37*
G36*
X10422973Y-13160651D02*
G01*
X10585500Y-13233012D01*
X10729430Y-13337584D01*
X10848473Y-13469795D01*
X10937427Y-13623867D01*
X10992404Y-13793067D01*
X11011000Y-13970000D01*
X10992404Y-14146933D01*
X10937427Y-14316133D01*
X10848473Y-14470205D01*
X10729430Y-14602416D01*
X10585500Y-14706988D01*
X10422973Y-14779349D01*
X10248954Y-14816338D01*
X10071046Y-14816338D01*
X9897027Y-14779349D01*
X9734500Y-14706988D01*
X9590570Y-14602416D01*
X9471527Y-14470205D01*
X9382573Y-14316133D01*
X9327596Y-14146933D01*
X9309000Y-13970000D01*
X9327596Y-13793067D01*
X9382573Y-13623867D01*
X9471527Y-13469795D01*
X9590570Y-13337584D01*
X9734500Y-13233012D01*
X9897027Y-13160651D01*
X10071046Y-13123662D01*
X10248954Y-13123662D01*
X10422973Y-13160651D01*
G37*
G36*
X12962973Y-13160651D02*
G01*
X13125500Y-13233012D01*
X13269430Y-13337584D01*
X13388473Y-13469795D01*
X13477427Y-13623867D01*
X13532404Y-13793067D01*
X13551000Y-13970000D01*
X13532404Y-14146933D01*
X13477427Y-14316133D01*
X13388473Y-14470205D01*
X13269430Y-14602416D01*
X13125500Y-14706988D01*
X12962973Y-14779349D01*
X12788954Y-14816338D01*
X12611046Y-14816338D01*
X12437027Y-14779349D01*
X12274500Y-14706988D01*
X12130570Y-14602416D01*
X12011527Y-14470205D01*
X11922573Y-14316133D01*
X11867596Y-14146933D01*
X11849000Y-13970000D01*
X11867596Y-13793067D01*
X11922573Y-13623867D01*
X12011527Y-13469795D01*
X12130570Y-13337584D01*
X12274500Y-13233012D01*
X12437027Y-13160651D01*
X12611046Y-13123662D01*
X12788954Y-13123662D01*
X12962973Y-13160651D01*
G37*
G36*
X15502973Y-13160651D02*
G01*
X15665500Y-13233012D01*
X15809430Y-13337584D01*
X15928473Y-13469795D01*
X16017427Y-13623867D01*
X16072404Y-13793067D01*
X16091000Y-13970000D01*
X16072404Y-14146933D01*
X16017427Y-14316133D01*
X15928473Y-14470205D01*
X15809430Y-14602416D01*
X15665500Y-14706988D01*
X15502973Y-14779349D01*
X15328954Y-14816338D01*
X15151046Y-14816338D01*
X14977027Y-14779349D01*
X14814500Y-14706988D01*
X14670570Y-14602416D01*
X14551527Y-14470205D01*
X14462573Y-14316133D01*
X14407596Y-14146933D01*
X14389000Y-13970000D01*
X14407596Y-13793067D01*
X14462573Y-13623867D01*
X14551527Y-13469795D01*
X14670570Y-13337584D01*
X14814500Y-13233012D01*
X14977027Y-13160651D01*
X15151046Y-13123662D01*
X15328954Y-13123662D01*
X15502973Y-13160651D01*
G37*
G36*
X18042973Y-13160651D02*
G01*
X18205500Y-13233012D01*
X18349430Y-13337584D01*
X18468473Y-13469795D01*
X18557427Y-13623867D01*
X18612404Y-13793067D01*
X18631000Y-13970000D01*
X18612404Y-14146933D01*
X18557427Y-14316133D01*
X18468473Y-14470205D01*
X18349430Y-14602416D01*
X18205500Y-14706988D01*
X18042973Y-14779349D01*
X17868954Y-14816338D01*
X17691046Y-14816338D01*
X17517027Y-14779349D01*
X17354500Y-14706988D01*
X17210570Y-14602416D01*
X17091527Y-14470205D01*
X17002573Y-14316133D01*
X16947596Y-14146933D01*
X16929000Y-13970000D01*
X16947596Y-13793067D01*
X17002573Y-13623867D01*
X17091527Y-13469795D01*
X17210570Y-13337584D01*
X17354500Y-13233012D01*
X17517027Y-13160651D01*
X17691046Y-13123662D01*
X17868954Y-13123662D01*
X18042973Y-13160651D01*
G37*
G36*
X20582973Y-13160651D02*
G01*
X20745500Y-13233012D01*
X20889430Y-13337584D01*
X21008473Y-13469795D01*
X21097427Y-13623867D01*
X21152404Y-13793067D01*
X21171000Y-13970000D01*
X21152404Y-14146933D01*
X21097427Y-14316133D01*
X21008473Y-14470205D01*
X20889430Y-14602416D01*
X20745500Y-14706988D01*
X20582973Y-14779349D01*
X20408954Y-14816338D01*
X20231046Y-14816338D01*
X20057027Y-14779349D01*
X19894500Y-14706988D01*
X19750570Y-14602416D01*
X19631527Y-14470205D01*
X19542573Y-14316133D01*
X19487596Y-14146933D01*
X19469000Y-13970000D01*
X19487596Y-13793067D01*
X19542573Y-13623867D01*
X19631527Y-13469795D01*
X19750570Y-13337584D01*
X19894500Y-13233012D01*
X20057027Y-13160651D01*
X20231046Y-13123662D01*
X20408954Y-13123662D01*
X20582973Y-13160651D01*
G37*
G36*
X23122973Y-13160651D02*
G01*
X23285500Y-13233012D01*
X23429430Y-13337584D01*
X23548473Y-13469795D01*
X23637427Y-13623867D01*
X23692404Y-13793067D01*
X23711000Y-13970000D01*
X23692404Y-14146933D01*
X23637427Y-14316133D01*
X23548473Y-14470205D01*
X23429430Y-14602416D01*
X23285500Y-14706988D01*
X23122973Y-14779349D01*
X22948954Y-14816338D01*
X22771046Y-14816338D01*
X22597027Y-14779349D01*
X22434500Y-14706988D01*
X22290570Y-14602416D01*
X22171527Y-14470205D01*
X22082573Y-14316133D01*
X22027596Y-14146933D01*
X22009000Y-13970000D01*
X22027596Y-13793067D01*
X22082573Y-13623867D01*
X22171527Y-13469795D01*
X22290570Y-13337584D01*
X22434500Y-13233012D01*
X22597027Y-13160651D01*
X22771046Y-13123662D01*
X22948954Y-13123662D01*
X23122973Y-13160651D01*
G37*
G36*
X28202973Y-13160651D02*
G01*
X28365500Y-13233012D01*
X28509430Y-13337584D01*
X28628473Y-13469795D01*
X28717427Y-13623867D01*
X28772404Y-13793067D01*
X28791000Y-13970000D01*
X28772404Y-14146933D01*
X28717427Y-14316133D01*
X28628473Y-14470205D01*
X28509430Y-14602416D01*
X28365500Y-14706988D01*
X28202973Y-14779349D01*
X28028954Y-14816338D01*
X27851046Y-14816338D01*
X27677027Y-14779349D01*
X27514500Y-14706988D01*
X27370570Y-14602416D01*
X27251527Y-14470205D01*
X27162573Y-14316133D01*
X27107596Y-14146933D01*
X27089000Y-13970000D01*
X27107596Y-13793067D01*
X27162573Y-13623867D01*
X27251527Y-13469795D01*
X27370570Y-13337584D01*
X27514500Y-13233012D01*
X27677027Y-13160651D01*
X27851046Y-13123662D01*
X28028954Y-13123662D01*
X28202973Y-13160651D01*
G37*
G36*
X30742973Y-13160651D02*
G01*
X30905500Y-13233012D01*
X31049430Y-13337584D01*
X31168473Y-13469795D01*
X31257427Y-13623867D01*
X31312404Y-13793067D01*
X31331000Y-13970000D01*
X31312404Y-14146933D01*
X31257427Y-14316133D01*
X31168473Y-14470205D01*
X31049430Y-14602416D01*
X30905500Y-14706988D01*
X30742973Y-14779349D01*
X30568954Y-14816338D01*
X30391046Y-14816338D01*
X30217027Y-14779349D01*
X30054500Y-14706988D01*
X29910570Y-14602416D01*
X29791527Y-14470205D01*
X29702573Y-14316133D01*
X29647596Y-14146933D01*
X29629000Y-13970000D01*
X29647596Y-13793067D01*
X29702573Y-13623867D01*
X29791527Y-13469795D01*
X29910570Y-13337584D01*
X30054500Y-13233012D01*
X30217027Y-13160651D01*
X30391046Y-13123662D01*
X30568954Y-13123662D01*
X30742973Y-13160651D01*
G37*
G36*
X33282973Y-13160651D02*
G01*
X33445500Y-13233012D01*
X33589430Y-13337584D01*
X33708473Y-13469795D01*
X33797427Y-13623867D01*
X33852404Y-13793067D01*
X33871000Y-13970000D01*
X33852404Y-14146933D01*
X33797427Y-14316133D01*
X33708473Y-14470205D01*
X33589430Y-14602416D01*
X33445500Y-14706988D01*
X33282973Y-14779349D01*
X33108954Y-14816338D01*
X32931046Y-14816338D01*
X32757027Y-14779349D01*
X32594500Y-14706988D01*
X32450570Y-14602416D01*
X32331527Y-14470205D01*
X32242573Y-14316133D01*
X32187596Y-14146933D01*
X32169000Y-13970000D01*
X32187596Y-13793067D01*
X32242573Y-13623867D01*
X32331527Y-13469795D01*
X32450570Y-13337584D01*
X32594500Y-13233012D01*
X32757027Y-13160651D01*
X32931046Y-13123662D01*
X33108954Y-13123662D01*
X33282973Y-13160651D01*
G37*
G36*
X35822973Y-13160651D02*
G01*
X35985500Y-13233012D01*
X36129430Y-13337584D01*
X36248473Y-13469795D01*
X36337427Y-13623867D01*
X36392404Y-13793067D01*
X36411000Y-13970000D01*
X36392404Y-14146933D01*
X36337427Y-14316133D01*
X36248473Y-14470205D01*
X36129430Y-14602416D01*
X35985500Y-14706988D01*
X35822973Y-14779349D01*
X35648954Y-14816338D01*
X35471046Y-14816338D01*
X35297027Y-14779349D01*
X35134500Y-14706988D01*
X34990570Y-14602416D01*
X34871527Y-14470205D01*
X34782573Y-14316133D01*
X34727596Y-14146933D01*
X34709000Y-13970000D01*
X34727596Y-13793067D01*
X34782573Y-13623867D01*
X34871527Y-13469795D01*
X34990570Y-13337584D01*
X35134500Y-13233012D01*
X35297027Y-13160651D01*
X35471046Y-13123662D01*
X35648954Y-13123662D01*
X35822973Y-13160651D01*
G37*
G36*
X38362973Y-13160651D02*
G01*
X38525500Y-13233012D01*
X38669430Y-13337584D01*
X38788473Y-13469795D01*
X38877427Y-13623867D01*
X38932404Y-13793067D01*
X38951000Y-13970000D01*
X38932404Y-14146933D01*
X38877427Y-14316133D01*
X38788473Y-14470205D01*
X38669430Y-14602416D01*
X38525500Y-14706988D01*
X38362973Y-14779349D01*
X38188954Y-14816338D01*
X38011046Y-14816338D01*
X37837027Y-14779349D01*
X37674500Y-14706988D01*
X37530570Y-14602416D01*
X37411527Y-14470205D01*
X37322573Y-14316133D01*
X37267596Y-14146933D01*
X37249000Y-13970000D01*
X37267596Y-13793067D01*
X37322573Y-13623867D01*
X37411527Y-13469795D01*
X37530570Y-13337584D01*
X37674500Y-13233012D01*
X37837027Y-13160651D01*
X38011046Y-13123662D01*
X38188954Y-13123662D01*
X38362973Y-13160651D01*
G37*
G36*
X40902973Y-13160651D02*
G01*
X41065500Y-13233012D01*
X41209430Y-13337584D01*
X41328473Y-13469795D01*
X41417427Y-13623867D01*
X41472404Y-13793067D01*
X41491000Y-13970000D01*
X41472404Y-14146933D01*
X41417427Y-14316133D01*
X41328473Y-14470205D01*
X41209430Y-14602416D01*
X41065500Y-14706988D01*
X40902973Y-14779349D01*
X40728954Y-14816338D01*
X40551046Y-14816338D01*
X40377027Y-14779349D01*
X40214500Y-14706988D01*
X40070570Y-14602416D01*
X39951527Y-14470205D01*
X39862573Y-14316133D01*
X39807596Y-14146933D01*
X39789000Y-13970000D01*
X39807596Y-13793067D01*
X39862573Y-13623867D01*
X39951527Y-13469795D01*
X40070570Y-13337584D01*
X40214500Y-13233012D01*
X40377027Y-13160651D01*
X40551046Y-13123662D01*
X40728954Y-13123662D01*
X40902973Y-13160651D01*
G37*
G36*
X43442973Y-13160651D02*
G01*
X43605500Y-13233012D01*
X43749430Y-13337584D01*
X43868473Y-13469795D01*
X43957427Y-13623867D01*
X44012404Y-13793067D01*
X44031000Y-13970000D01*
X44012404Y-14146933D01*
X43957427Y-14316133D01*
X43868473Y-14470205D01*
X43749430Y-14602416D01*
X43605500Y-14706988D01*
X43442973Y-14779349D01*
X43268954Y-14816338D01*
X43091046Y-14816338D01*
X42917027Y-14779349D01*
X42754500Y-14706988D01*
X42610570Y-14602416D01*
X42491527Y-14470205D01*
X42402573Y-14316133D01*
X42347596Y-14146933D01*
X42329000Y-13970000D01*
X42347596Y-13793067D01*
X42402573Y-13623867D01*
X42491527Y-13469795D01*
X42610570Y-13337584D01*
X42754500Y-13233012D01*
X42917027Y-13160651D01*
X43091046Y-13123662D01*
X43268954Y-13123662D01*
X43442973Y-13160651D01*
G37*
G36*
X45982973Y-13160651D02*
G01*
X46145500Y-13233012D01*
X46289430Y-13337584D01*
X46408473Y-13469795D01*
X46497427Y-13623867D01*
X46552404Y-13793067D01*
X46571000Y-13970000D01*
X46552404Y-14146933D01*
X46497427Y-14316133D01*
X46408473Y-14470205D01*
X46289430Y-14602416D01*
X46145500Y-14706988D01*
X45982973Y-14779349D01*
X45808954Y-14816338D01*
X45631046Y-14816338D01*
X45457027Y-14779349D01*
X45294500Y-14706988D01*
X45150570Y-14602416D01*
X45031527Y-14470205D01*
X44942573Y-14316133D01*
X44887596Y-14146933D01*
X44869000Y-13970000D01*
X44887596Y-13793067D01*
X44942573Y-13623867D01*
X45031527Y-13469795D01*
X45150570Y-13337584D01*
X45294500Y-13233012D01*
X45457027Y-13160651D01*
X45631046Y-13123662D01*
X45808954Y-13123662D01*
X45982973Y-13160651D01*
G37*
G36*
X57629517Y-11577882D02*
G01*
X57646062Y-11588938D01*
X57657118Y-11605483D01*
X57661000Y-11625000D01*
X57661000Y-12075000D01*
X57657118Y-12094517D01*
X57646062Y-12111062D01*
X57629517Y-12122118D01*
X57610000Y-12126000D01*
X56910000Y-12126000D01*
X56890483Y-12122118D01*
X56873938Y-12111062D01*
X56862882Y-12094517D01*
X56859000Y-12075000D01*
X56859000Y-11625000D01*
X56862882Y-11605483D01*
X56873938Y-11588938D01*
X56890483Y-11577882D01*
X56910000Y-11574000D01*
X57610000Y-11574000D01*
X57629517Y-11577882D01*
G37*
G36*
X59629517Y-10927882D02*
G01*
X59646062Y-10938938D01*
X59657118Y-10955483D01*
X59661000Y-10975000D01*
X59661000Y-11425000D01*
X59657118Y-11444517D01*
X59646062Y-11461062D01*
X59629517Y-11472118D01*
X59610000Y-11476000D01*
X58910000Y-11476000D01*
X58890483Y-11472118D01*
X58873938Y-11461062D01*
X58862882Y-11444517D01*
X58859000Y-11425000D01*
X58859000Y-10975000D01*
X58862882Y-10955483D01*
X58873938Y-10938938D01*
X58890483Y-10927882D01*
X58910000Y-10924000D01*
X59610000Y-10924000D01*
X59629517Y-10927882D01*
G37*
G36*
X57629517Y-10277882D02*
G01*
X57646062Y-10288938D01*
X57657118Y-10305483D01*
X57661000Y-10325000D01*
X57661000Y-10775000D01*
X57657118Y-10794517D01*
X57646062Y-10811062D01*
X57629517Y-10822118D01*
X57610000Y-10826000D01*
X56910000Y-10826000D01*
X56890483Y-10822118D01*
X56873938Y-10811062D01*
X56862882Y-10794517D01*
X56859000Y-10775000D01*
X56859000Y-10325000D01*
X56862882Y-10305483D01*
X56873938Y-10288938D01*
X56890483Y-10277882D01*
X56910000Y-10274000D01*
X57610000Y-10274000D01*
X57629517Y-10277882D01*
G37*
G36*
X60516919Y-7539300D02*
G01*
X60582128Y-7582872D01*
X60625700Y-7648081D01*
X60641000Y-7725000D01*
X60641000Y-8750000D01*
X60625700Y-8826919D01*
X60582128Y-8892128D01*
X60516919Y-8935700D01*
X60440000Y-8951000D01*
X60140000Y-8951000D01*
X60063081Y-8935700D01*
X59997872Y-8892128D01*
X59954300Y-8826919D01*
X59939000Y-8750000D01*
X59939000Y-7725000D01*
X59954300Y-7648081D01*
X59997872Y-7582872D01*
X60063081Y-7539300D01*
X60140000Y-7524000D01*
X60440000Y-7524000D01*
X60516919Y-7539300D01*
G37*
G36*
X62416919Y-7539300D02*
G01*
X62482128Y-7582872D01*
X62525700Y-7648081D01*
X62541000Y-7725000D01*
X62541000Y-8750000D01*
X62525700Y-8826919D01*
X62482128Y-8892128D01*
X62416919Y-8935700D01*
X62340000Y-8951000D01*
X62040000Y-8951000D01*
X61963081Y-8935700D01*
X61897872Y-8892128D01*
X61854300Y-8826919D01*
X61839000Y-8750000D01*
X61839000Y-7725000D01*
X61854300Y-7648081D01*
X61897872Y-7582872D01*
X61963081Y-7539300D01*
X62040000Y-7524000D01*
X62340000Y-7524000D01*
X62416919Y-7539300D01*
G37*
G36*
X57333914Y-7606995D02*
G01*
X57338645Y-7609084D01*
X57341811Y-7609501D01*
X57381442Y-7627981D01*
X57435106Y-7651676D01*
X57513324Y-7729894D01*
X57537028Y-7783579D01*
X57555498Y-7823188D01*
X57555914Y-7826351D01*
X57558005Y-7831086D01*
X57566000Y-7900000D01*
X57566000Y-8400000D01*
X57558005Y-8468914D01*
X57555914Y-8473648D01*
X57555498Y-8476811D01*
X57537036Y-8516402D01*
X57513324Y-8570106D01*
X57435106Y-8648324D01*
X57381402Y-8672036D01*
X57341811Y-8690498D01*
X57338648Y-8690914D01*
X57333914Y-8693005D01*
X57265000Y-8701000D01*
X56315000Y-8701000D01*
X56246086Y-8693005D01*
X56241351Y-8690914D01*
X56238188Y-8690498D01*
X56198579Y-8672028D01*
X56144894Y-8648324D01*
X56066676Y-8570106D01*
X56042981Y-8516442D01*
X56024501Y-8476811D01*
X56024084Y-8473645D01*
X56021995Y-8468914D01*
X56014000Y-8400000D01*
X56014000Y-7900000D01*
X56021995Y-7831086D01*
X56024084Y-7826354D01*
X56024501Y-7823188D01*
X56042989Y-7783538D01*
X56066676Y-7729894D01*
X56144894Y-7651676D01*
X56198538Y-7627989D01*
X56238188Y-7609501D01*
X56241354Y-7609084D01*
X56246086Y-7606995D01*
X56315000Y-7599000D01*
X57265000Y-7599000D01*
X57333914Y-7606995D01*
G37*
G36*
X23679517Y-5502882D02*
G01*
X23696062Y-5513938D01*
X23707118Y-5530483D01*
X23711000Y-5550000D01*
X23711000Y-7150000D01*
X23707118Y-7169517D01*
X23696062Y-7186062D01*
X23679517Y-7197118D01*
X23660000Y-7201000D01*
X22060000Y-7201000D01*
X22040483Y-7197118D01*
X22023938Y-7186062D01*
X22012882Y-7169517D01*
X22009000Y-7150000D01*
X22009000Y-5550000D01*
X22012882Y-5530483D01*
X22023938Y-5513938D01*
X22040483Y-5502882D01*
X22060000Y-5499000D01*
X23660000Y-5499000D01*
X23679517Y-5502882D01*
G37*
G36*
X46539517Y-5502882D02*
G01*
X46556062Y-5513938D01*
X46567118Y-5530483D01*
X46571000Y-5550000D01*
X46571000Y-7150000D01*
X46567118Y-7169517D01*
X46556062Y-7186062D01*
X46539517Y-7197118D01*
X46520000Y-7201000D01*
X44920000Y-7201000D01*
X44900483Y-7197118D01*
X44883938Y-7186062D01*
X44872882Y-7169517D01*
X44869000Y-7150000D01*
X44869000Y-5550000D01*
X44872882Y-5530483D01*
X44883938Y-5513938D01*
X44900483Y-5502882D01*
X44920000Y-5499000D01*
X46520000Y-5499000D01*
X46539517Y-5502882D01*
G37*
G36*
X5342973Y-5540651D02*
G01*
X5505500Y-5613012D01*
X5649430Y-5717584D01*
X5768473Y-5849795D01*
X5857427Y-6003867D01*
X5912404Y-6173067D01*
X5931000Y-6350000D01*
X5912404Y-6526933D01*
X5857427Y-6696133D01*
X5768473Y-6850205D01*
X5649430Y-6982416D01*
X5505500Y-7086988D01*
X5342973Y-7159349D01*
X5168954Y-7196338D01*
X4991046Y-7196338D01*
X4817027Y-7159349D01*
X4654500Y-7086988D01*
X4510570Y-6982416D01*
X4391527Y-6850205D01*
X4302573Y-6696133D01*
X4247596Y-6526933D01*
X4229000Y-6350000D01*
X4247596Y-6173067D01*
X4302573Y-6003867D01*
X4391527Y-5849795D01*
X4510570Y-5717584D01*
X4654500Y-5613012D01*
X4817027Y-5540651D01*
X4991046Y-5503662D01*
X5168954Y-5503662D01*
X5342973Y-5540651D01*
G37*
G36*
X7882973Y-5540651D02*
G01*
X8045500Y-5613012D01*
X8189430Y-5717584D01*
X8308473Y-5849795D01*
X8397427Y-6003867D01*
X8452404Y-6173067D01*
X8471000Y-6350000D01*
X8452404Y-6526933D01*
X8397427Y-6696133D01*
X8308473Y-6850205D01*
X8189430Y-6982416D01*
X8045500Y-7086988D01*
X7882973Y-7159349D01*
X7708954Y-7196338D01*
X7531046Y-7196338D01*
X7357027Y-7159349D01*
X7194500Y-7086988D01*
X7050570Y-6982416D01*
X6931527Y-6850205D01*
X6842573Y-6696133D01*
X6787596Y-6526933D01*
X6769000Y-6350000D01*
X6787596Y-6173067D01*
X6842573Y-6003867D01*
X6931527Y-5849795D01*
X7050570Y-5717584D01*
X7194500Y-5613012D01*
X7357027Y-5540651D01*
X7531046Y-5503662D01*
X7708954Y-5503662D01*
X7882973Y-5540651D01*
G37*
G36*
X10422973Y-5540651D02*
G01*
X10585500Y-5613012D01*
X10729430Y-5717584D01*
X10848473Y-5849795D01*
X10937427Y-6003867D01*
X10992404Y-6173067D01*
X11011000Y-6350000D01*
X10992404Y-6526933D01*
X10937427Y-6696133D01*
X10848473Y-6850205D01*
X10729430Y-6982416D01*
X10585500Y-7086988D01*
X10422973Y-7159349D01*
X10248954Y-7196338D01*
X10071046Y-7196338D01*
X9897027Y-7159349D01*
X9734500Y-7086988D01*
X9590570Y-6982416D01*
X9471527Y-6850205D01*
X9382573Y-6696133D01*
X9327596Y-6526933D01*
X9309000Y-6350000D01*
X9327596Y-6173067D01*
X9382573Y-6003867D01*
X9471527Y-5849795D01*
X9590570Y-5717584D01*
X9734500Y-5613012D01*
X9897027Y-5540651D01*
X10071046Y-5503662D01*
X10248954Y-5503662D01*
X10422973Y-5540651D01*
G37*
G36*
X12962973Y-5540651D02*
G01*
X13125500Y-5613012D01*
X13269430Y-5717584D01*
X13388473Y-5849795D01*
X13477427Y-6003867D01*
X13532404Y-6173067D01*
X13551000Y-6350000D01*
X13532404Y-6526933D01*
X13477427Y-6696133D01*
X13388473Y-6850205D01*
X13269430Y-6982416D01*
X13125500Y-7086988D01*
X12962973Y-7159349D01*
X12788954Y-7196338D01*
X12611046Y-7196338D01*
X12437027Y-7159349D01*
X12274500Y-7086988D01*
X12130570Y-6982416D01*
X12011527Y-6850205D01*
X11922573Y-6696133D01*
X11867596Y-6526933D01*
X11849000Y-6350000D01*
X11867596Y-6173067D01*
X11922573Y-6003867D01*
X12011527Y-5849795D01*
X12130570Y-5717584D01*
X12274500Y-5613012D01*
X12437027Y-5540651D01*
X12611046Y-5503662D01*
X12788954Y-5503662D01*
X12962973Y-5540651D01*
G37*
G36*
X15502973Y-5540651D02*
G01*
X15665500Y-5613012D01*
X15809430Y-5717584D01*
X15928473Y-5849795D01*
X16017427Y-6003867D01*
X16072404Y-6173067D01*
X16091000Y-6350000D01*
X16072404Y-6526933D01*
X16017427Y-6696133D01*
X15928473Y-6850205D01*
X15809430Y-6982416D01*
X15665500Y-7086988D01*
X15502973Y-7159349D01*
X15328954Y-7196338D01*
X15151046Y-7196338D01*
X14977027Y-7159349D01*
X14814500Y-7086988D01*
X14670570Y-6982416D01*
X14551527Y-6850205D01*
X14462573Y-6696133D01*
X14407596Y-6526933D01*
X14389000Y-6350000D01*
X14407596Y-6173067D01*
X14462573Y-6003867D01*
X14551527Y-5849795D01*
X14670570Y-5717584D01*
X14814500Y-5613012D01*
X14977027Y-5540651D01*
X15151046Y-5503662D01*
X15328954Y-5503662D01*
X15502973Y-5540651D01*
G37*
G36*
X18042973Y-5540651D02*
G01*
X18205500Y-5613012D01*
X18349430Y-5717584D01*
X18468473Y-5849795D01*
X18557427Y-6003867D01*
X18612404Y-6173067D01*
X18631000Y-6350000D01*
X18612404Y-6526933D01*
X18557427Y-6696133D01*
X18468473Y-6850205D01*
X18349430Y-6982416D01*
X18205500Y-7086988D01*
X18042973Y-7159349D01*
X17868954Y-7196338D01*
X17691046Y-7196338D01*
X17517027Y-7159349D01*
X17354500Y-7086988D01*
X17210570Y-6982416D01*
X17091527Y-6850205D01*
X17002573Y-6696133D01*
X16947596Y-6526933D01*
X16929000Y-6350000D01*
X16947596Y-6173067D01*
X17002573Y-6003867D01*
X17091527Y-5849795D01*
X17210570Y-5717584D01*
X17354500Y-5613012D01*
X17517027Y-5540651D01*
X17691046Y-5503662D01*
X17868954Y-5503662D01*
X18042973Y-5540651D01*
G37*
G36*
X20582973Y-5540651D02*
G01*
X20745500Y-5613012D01*
X20889430Y-5717584D01*
X21008473Y-5849795D01*
X21097427Y-6003867D01*
X21152404Y-6173067D01*
X21171000Y-6350000D01*
X21152404Y-6526933D01*
X21097427Y-6696133D01*
X21008473Y-6850205D01*
X20889430Y-6982416D01*
X20745500Y-7086988D01*
X20582973Y-7159349D01*
X20408954Y-7196338D01*
X20231046Y-7196338D01*
X20057027Y-7159349D01*
X19894500Y-7086988D01*
X19750570Y-6982416D01*
X19631527Y-6850205D01*
X19542573Y-6696133D01*
X19487596Y-6526933D01*
X19469000Y-6350000D01*
X19487596Y-6173067D01*
X19542573Y-6003867D01*
X19631527Y-5849795D01*
X19750570Y-5717584D01*
X19894500Y-5613012D01*
X20057027Y-5540651D01*
X20231046Y-5503662D01*
X20408954Y-5503662D01*
X20582973Y-5540651D01*
G37*
G36*
X28202973Y-5540651D02*
G01*
X28365500Y-5613012D01*
X28509430Y-5717584D01*
X28628473Y-5849795D01*
X28717427Y-6003867D01*
X28772404Y-6173067D01*
X28791000Y-6350000D01*
X28772404Y-6526933D01*
X28717427Y-6696133D01*
X28628473Y-6850205D01*
X28509430Y-6982416D01*
X28365500Y-7086988D01*
X28202973Y-7159349D01*
X28028954Y-7196338D01*
X27851046Y-7196338D01*
X27677027Y-7159349D01*
X27514500Y-7086988D01*
X27370570Y-6982416D01*
X27251527Y-6850205D01*
X27162573Y-6696133D01*
X27107596Y-6526933D01*
X27089000Y-6350000D01*
X27107596Y-6173067D01*
X27162573Y-6003867D01*
X27251527Y-5849795D01*
X27370570Y-5717584D01*
X27514500Y-5613012D01*
X27677027Y-5540651D01*
X27851046Y-5503662D01*
X28028954Y-5503662D01*
X28202973Y-5540651D01*
G37*
G36*
X30742973Y-5540651D02*
G01*
X30905500Y-5613012D01*
X31049430Y-5717584D01*
X31168473Y-5849795D01*
X31257427Y-6003867D01*
X31312404Y-6173067D01*
X31331000Y-6350000D01*
X31312404Y-6526933D01*
X31257427Y-6696133D01*
X31168473Y-6850205D01*
X31049430Y-6982416D01*
X30905500Y-7086988D01*
X30742973Y-7159349D01*
X30568954Y-7196338D01*
X30391046Y-7196338D01*
X30217027Y-7159349D01*
X30054500Y-7086988D01*
X29910570Y-6982416D01*
X29791527Y-6850205D01*
X29702573Y-6696133D01*
X29647596Y-6526933D01*
X29629000Y-6350000D01*
X29647596Y-6173067D01*
X29702573Y-6003867D01*
X29791527Y-5849795D01*
X29910570Y-5717584D01*
X30054500Y-5613012D01*
X30217027Y-5540651D01*
X30391046Y-5503662D01*
X30568954Y-5503662D01*
X30742973Y-5540651D01*
G37*
G36*
X33282973Y-5540651D02*
G01*
X33445500Y-5613012D01*
X33589430Y-5717584D01*
X33708473Y-5849795D01*
X33797427Y-6003867D01*
X33852404Y-6173067D01*
X33871000Y-6350000D01*
X33852404Y-6526933D01*
X33797427Y-6696133D01*
X33708473Y-6850205D01*
X33589430Y-6982416D01*
X33445500Y-7086988D01*
X33282973Y-7159349D01*
X33108954Y-7196338D01*
X32931046Y-7196338D01*
X32757027Y-7159349D01*
X32594500Y-7086988D01*
X32450570Y-6982416D01*
X32331527Y-6850205D01*
X32242573Y-6696133D01*
X32187596Y-6526933D01*
X32169000Y-6350000D01*
X32187596Y-6173067D01*
X32242573Y-6003867D01*
X32331527Y-5849795D01*
X32450570Y-5717584D01*
X32594500Y-5613012D01*
X32757027Y-5540651D01*
X32931046Y-5503662D01*
X33108954Y-5503662D01*
X33282973Y-5540651D01*
G37*
G36*
X35822973Y-5540651D02*
G01*
X35985500Y-5613012D01*
X36129430Y-5717584D01*
X36248473Y-5849795D01*
X36337427Y-6003867D01*
X36392404Y-6173067D01*
X36411000Y-6350000D01*
X36392404Y-6526933D01*
X36337427Y-6696133D01*
X36248473Y-6850205D01*
X36129430Y-6982416D01*
X35985500Y-7086988D01*
X35822973Y-7159349D01*
X35648954Y-7196338D01*
X35471046Y-7196338D01*
X35297027Y-7159349D01*
X35134500Y-7086988D01*
X34990570Y-6982416D01*
X34871527Y-6850205D01*
X34782573Y-6696133D01*
X34727596Y-6526933D01*
X34709000Y-6350000D01*
X34727596Y-6173067D01*
X34782573Y-6003867D01*
X34871527Y-5849795D01*
X34990570Y-5717584D01*
X35134500Y-5613012D01*
X35297027Y-5540651D01*
X35471046Y-5503662D01*
X35648954Y-5503662D01*
X35822973Y-5540651D01*
G37*
G36*
X38362973Y-5540651D02*
G01*
X38525500Y-5613012D01*
X38669430Y-5717584D01*
X38788473Y-5849795D01*
X38877427Y-6003867D01*
X38932404Y-6173067D01*
X38951000Y-6350000D01*
X38932404Y-6526933D01*
X38877427Y-6696133D01*
X38788473Y-6850205D01*
X38669430Y-6982416D01*
X38525500Y-7086988D01*
X38362973Y-7159349D01*
X38188954Y-7196338D01*
X38011046Y-7196338D01*
X37837027Y-7159349D01*
X37674500Y-7086988D01*
X37530570Y-6982416D01*
X37411527Y-6850205D01*
X37322573Y-6696133D01*
X37267596Y-6526933D01*
X37249000Y-6350000D01*
X37267596Y-6173067D01*
X37322573Y-6003867D01*
X37411527Y-5849795D01*
X37530570Y-5717584D01*
X37674500Y-5613012D01*
X37837027Y-5540651D01*
X38011046Y-5503662D01*
X38188954Y-5503662D01*
X38362973Y-5540651D01*
G37*
G36*
X40902973Y-5540651D02*
G01*
X41065500Y-5613012D01*
X41209430Y-5717584D01*
X41328473Y-5849795D01*
X41417427Y-6003867D01*
X41472404Y-6173067D01*
X41491000Y-6350000D01*
X41472404Y-6526933D01*
X41417427Y-6696133D01*
X41328473Y-6850205D01*
X41209430Y-6982416D01*
X41065500Y-7086988D01*
X40902973Y-7159349D01*
X40728954Y-7196338D01*
X40551046Y-7196338D01*
X40377027Y-7159349D01*
X40214500Y-7086988D01*
X40070570Y-6982416D01*
X39951527Y-6850205D01*
X39862573Y-6696133D01*
X39807596Y-6526933D01*
X39789000Y-6350000D01*
X39807596Y-6173067D01*
X39862573Y-6003867D01*
X39951527Y-5849795D01*
X40070570Y-5717584D01*
X40214500Y-5613012D01*
X40377027Y-5540651D01*
X40551046Y-5503662D01*
X40728954Y-5503662D01*
X40902973Y-5540651D01*
G37*
G36*
X43442973Y-5540651D02*
G01*
X43605500Y-5613012D01*
X43749430Y-5717584D01*
X43868473Y-5849795D01*
X43957427Y-6003867D01*
X44012404Y-6173067D01*
X44031000Y-6350000D01*
X44012404Y-6526933D01*
X43957427Y-6696133D01*
X43868473Y-6850205D01*
X43749430Y-6982416D01*
X43605500Y-7086988D01*
X43442973Y-7159349D01*
X43268954Y-7196338D01*
X43091046Y-7196338D01*
X42917027Y-7159349D01*
X42754500Y-7086988D01*
X42610570Y-6982416D01*
X42491527Y-6850205D01*
X42402573Y-6696133D01*
X42347596Y-6526933D01*
X42329000Y-6350000D01*
X42347596Y-6173067D01*
X42402573Y-6003867D01*
X42491527Y-5849795D01*
X42610570Y-5717584D01*
X42754500Y-5613012D01*
X42917027Y-5540651D01*
X43091046Y-5503662D01*
X43268954Y-5503662D01*
X43442973Y-5540651D01*
G37*
G36*
X57333914Y-5706995D02*
G01*
X57338645Y-5709084D01*
X57341811Y-5709501D01*
X57381442Y-5727981D01*
X57435106Y-5751676D01*
X57513324Y-5829894D01*
X57537028Y-5883579D01*
X57555498Y-5923188D01*
X57555914Y-5926351D01*
X57558005Y-5931086D01*
X57566000Y-6000000D01*
X57566000Y-6500000D01*
X57558005Y-6568914D01*
X57555914Y-6573648D01*
X57555498Y-6576811D01*
X57537036Y-6616402D01*
X57513324Y-6670106D01*
X57435106Y-6748324D01*
X57381402Y-6772036D01*
X57341811Y-6790498D01*
X57338648Y-6790914D01*
X57333914Y-6793005D01*
X57265000Y-6801000D01*
X56315000Y-6801000D01*
X56246086Y-6793005D01*
X56241351Y-6790914D01*
X56238188Y-6790498D01*
X56198579Y-6772028D01*
X56144894Y-6748324D01*
X56066676Y-6670106D01*
X56042981Y-6616442D01*
X56024501Y-6576811D01*
X56024084Y-6573645D01*
X56021995Y-6568914D01*
X56014000Y-6500000D01*
X56014000Y-6000000D01*
X56021995Y-5931086D01*
X56024084Y-5926354D01*
X56024501Y-5923188D01*
X56042989Y-5883538D01*
X56066676Y-5829894D01*
X56144894Y-5751676D01*
X56198538Y-5727989D01*
X56238188Y-5709501D01*
X56241354Y-5709084D01*
X56246086Y-5706995D01*
X56315000Y-5699000D01*
X57265000Y-5699000D01*
X57333914Y-5706995D01*
G37*
G36*
X61466919Y-5264300D02*
G01*
X61532128Y-5307872D01*
X61575700Y-5373081D01*
X61591000Y-5450000D01*
X61591000Y-6475000D01*
X61575700Y-6551919D01*
X61532128Y-6617128D01*
X61466919Y-6660700D01*
X61390000Y-6676000D01*
X61090000Y-6676000D01*
X61013081Y-6660700D01*
X60947872Y-6617128D01*
X60904300Y-6551919D01*
X60889000Y-6475000D01*
X60889000Y-5450000D01*
X60904300Y-5373081D01*
X60947872Y-5307872D01*
X61013081Y-5264300D01*
X61090000Y-5249000D01*
X61390000Y-5249000D01*
X61466919Y-5264300D01*
G37*
M02*
