%TF.GenerationSoftware,KiCad,Pcbnew,8.0.4*%
%TF.CreationDate,2024-08-25T12:57:11-07:00*%
%TF.ProjectId,fluke_884x_continuity_buzzer,666c756b-655f-4383-9834-785f636f6e74,3*%
%TF.SameCoordinates,Original*%
%TF.FileFunction,Paste,Top*%
%TF.FilePolarity,Positive*%
%FSLAX46Y46*%
G04 Gerber Fmt 4.6, Leading zero omitted, Abs format (unit mm)*
G04 Created by KiCad (PCBNEW 8.0.4) date 2024-08-25 12:57:11*
%MOMM*%
%LPD*%
G01*
G04 APERTURE LIST*
G04 Aperture macros list*
%AMRoundRect*
0 Rectangle with rounded corners*
0 $1 Rounding radius*
0 $2 $3 $4 $5 $6 $7 $8 $9 X,Y pos of 4 corners*
0 Add a 4 corners polygon primitive as box body*
4,1,4,$2,$3,$4,$5,$6,$7,$8,$9,$2,$3,0*
0 Add four circle primitives for the rounded corners*
1,1,$1+$1,$2,$3*
1,1,$1+$1,$4,$5*
1,1,$1+$1,$6,$7*
1,1,$1+$1,$8,$9*
0 Add four rect primitives between the rounded corners*
20,1,$1+$1,$2,$3,$4,$5,0*
20,1,$1+$1,$4,$5,$6,$7,0*
20,1,$1+$1,$6,$7,$8,$9,0*
20,1,$1+$1,$8,$9,$2,$3,0*%
G04 Aperture macros list end*
%ADD10RoundRect,0.250000X-0.475000X0.250000X-0.475000X-0.250000X0.475000X-0.250000X0.475000X0.250000X0*%
%ADD11O,1.550000X0.890000*%
%ADD12O,0.950000X1.250000*%
%ADD13R,1.350000X0.400000*%
%ADD14R,1.550000X1.200000*%
%ADD15R,1.550000X1.500000*%
%ADD16RoundRect,0.140000X-0.140000X-0.170000X0.140000X-0.170000X0.140000X0.170000X-0.140000X0.170000X0*%
%ADD17RoundRect,0.140000X0.170000X-0.140000X0.170000X0.140000X-0.170000X0.140000X-0.170000X-0.140000X0*%
%ADD18RoundRect,0.135000X0.135000X0.185000X-0.135000X0.185000X-0.135000X-0.185000X0.135000X-0.185000X0*%
%ADD19RoundRect,0.375000X0.625000X0.375000X-0.625000X0.375000X-0.625000X-0.375000X0.625000X-0.375000X0*%
%ADD20RoundRect,0.500000X0.500000X1.400000X-0.500000X1.400000X-0.500000X-1.400000X0.500000X-1.400000X0*%
%ADD21RoundRect,0.150000X-0.150000X0.650000X-0.150000X-0.650000X0.150000X-0.650000X0.150000X0.650000X0*%
%ADD22RoundRect,0.140000X-0.170000X0.140000X-0.170000X-0.140000X0.170000X-0.140000X0.170000X0.140000X0*%
%ADD23RoundRect,0.135000X-0.135000X-0.185000X0.135000X-0.185000X0.135000X0.185000X-0.135000X0.185000X0*%
%ADD24RoundRect,0.140000X0.140000X0.170000X-0.140000X0.170000X-0.140000X-0.170000X0.140000X-0.170000X0*%
%ADD25RoundRect,0.250000X-0.292217X0.292217X-0.292217X-0.292217X0.292217X-0.292217X0.292217X0.292217X0*%
%ADD26RoundRect,0.050000X-0.050000X0.387500X-0.050000X-0.387500X0.050000X-0.387500X0.050000X0.387500X0*%
%ADD27RoundRect,0.050000X-0.387500X0.050000X-0.387500X-0.050000X0.387500X-0.050000X0.387500X0.050000X0*%
%ADD28R,2.100000X5.600000*%
%ADD29RoundRect,0.135000X-0.185000X0.135000X-0.185000X-0.135000X0.185000X-0.135000X0.185000X0.135000X0*%
%ADD30RoundRect,0.100000X0.225000X0.100000X-0.225000X0.100000X-0.225000X-0.100000X0.225000X-0.100000X0*%
%ADD31R,3.800000X2.000000*%
%ADD32RoundRect,0.112500X-0.237500X0.112500X-0.237500X-0.112500X0.237500X-0.112500X0.237500X0.112500X0*%
G04 APERTURE END LIST*
D10*
%TO.C,C2*%
X51210000Y-17075000D03*
X51210000Y-18975000D03*
%TD*%
D11*
%TO.C,J3*%
X69253600Y-55937500D03*
D12*
X66553600Y-54937500D03*
X66553600Y-49937500D03*
D11*
X69253600Y-48937500D03*
D13*
X66553600Y-53737500D03*
X66553600Y-53087500D03*
X66553600Y-52437500D03*
X66553600Y-51787500D03*
X66553600Y-51137500D03*
D14*
X69253600Y-55337500D03*
D15*
X69253600Y-53437500D03*
X69253600Y-51437500D03*
D14*
X69253600Y-49537500D03*
%TD*%
D16*
%TO.C,C15*%
X26467400Y-55315400D03*
X27427400Y-55315400D03*
%TD*%
%TO.C,C13*%
X26467400Y-54315400D03*
X27427400Y-54315400D03*
%TD*%
D17*
%TO.C,C4*%
X19223600Y-45395000D03*
X19223600Y-44435000D03*
%TD*%
%TO.C,C6*%
X37632400Y-47980400D03*
X37632400Y-47020400D03*
%TD*%
D18*
%TO.C,R27*%
X38657400Y-40815400D03*
X37637400Y-40815400D03*
%TD*%
D19*
%TO.C,U1*%
X60510000Y-19300000D03*
X60510000Y-17000000D03*
D20*
X54210000Y-17000000D03*
D19*
X60510000Y-14700000D03*
%TD*%
D21*
%TO.C,U2*%
X35092400Y-40765400D03*
X33822400Y-40765400D03*
X32552400Y-40765400D03*
X31282400Y-40765400D03*
X31282400Y-47965400D03*
X32552400Y-47965400D03*
X33822400Y-47965400D03*
X35092400Y-47965400D03*
%TD*%
D22*
%TO.C,C9*%
X11462400Y-50320400D03*
X11462400Y-51280400D03*
%TD*%
D23*
%TO.C,R28*%
X37643600Y-42250000D03*
X38663600Y-42250000D03*
%TD*%
D16*
%TO.C,C10*%
X27467400Y-51315400D03*
X28427400Y-51315400D03*
%TD*%
D22*
%TO.C,C17*%
X19023600Y-56400000D03*
X19023600Y-57360000D03*
%TD*%
D24*
%TO.C,C11*%
X14457400Y-51696400D03*
X13497400Y-51696400D03*
%TD*%
D18*
%TO.C,R30*%
X27457400Y-52315400D03*
X26437400Y-52315400D03*
%TD*%
D24*
%TO.C,C12*%
X14457400Y-52815400D03*
X13497400Y-52815400D03*
%TD*%
D10*
%TO.C,C1*%
X63710000Y-15987500D03*
X63710000Y-17887500D03*
%TD*%
D17*
%TO.C,C5*%
X23853600Y-46530000D03*
X23853600Y-45570000D03*
%TD*%
D24*
%TO.C,C16*%
X36220000Y-56050000D03*
X35260000Y-56050000D03*
%TD*%
D25*
%TO.C,U3*%
X21099900Y-50677900D03*
X19824900Y-50677900D03*
X21099900Y-51952900D03*
X19824900Y-51952900D03*
D26*
X23062400Y-47877900D03*
X22662400Y-47877900D03*
X22262400Y-47877900D03*
X21862400Y-47877900D03*
X21462400Y-47877900D03*
X21062400Y-47877900D03*
X20662400Y-47877900D03*
X20262400Y-47877900D03*
X19862400Y-47877900D03*
X19462400Y-47877900D03*
X19062400Y-47877900D03*
X18662400Y-47877900D03*
X18262400Y-47877900D03*
X17862400Y-47877900D03*
D27*
X17024900Y-48715400D03*
X17024900Y-49115400D03*
X17024900Y-49515400D03*
X17024900Y-49915400D03*
X17024900Y-50315400D03*
X17024900Y-50715400D03*
X17024900Y-51115400D03*
X17024900Y-51515400D03*
X17024900Y-51915400D03*
X17024900Y-52315400D03*
X17024900Y-52715400D03*
X17024900Y-53115400D03*
X17024900Y-53515400D03*
X17024900Y-53915400D03*
D26*
X17862400Y-54752900D03*
X18262400Y-54752900D03*
X18662400Y-54752900D03*
X19062400Y-54752900D03*
X19462400Y-54752900D03*
X19862400Y-54752900D03*
X20262400Y-54752900D03*
X20662400Y-54752900D03*
X21062400Y-54752900D03*
X21462400Y-54752900D03*
X21862400Y-54752900D03*
X22262400Y-54752900D03*
X22662400Y-54752900D03*
X23062400Y-54752900D03*
D27*
X23899900Y-53915400D03*
X23899900Y-53515400D03*
X23899900Y-53115400D03*
X23899900Y-52715400D03*
X23899900Y-52315400D03*
X23899900Y-51915400D03*
X23899900Y-51515400D03*
X23899900Y-51115400D03*
X23899900Y-50715400D03*
X23899900Y-50315400D03*
X23899900Y-49915400D03*
X23899900Y-49515400D03*
X23899900Y-49115400D03*
X23899900Y-48715400D03*
%TD*%
D17*
%TO.C,C7*%
X11462400Y-48310400D03*
X11462400Y-47350400D03*
%TD*%
D18*
%TO.C,R31*%
X27457400Y-53315400D03*
X26437400Y-53315400D03*
%TD*%
D16*
%TO.C,C8*%
X27467400Y-50315400D03*
X28427400Y-50315400D03*
%TD*%
D24*
%TO.C,C14*%
X36220000Y-54650000D03*
X35260000Y-54650000D03*
%TD*%
D18*
%TO.C,R29*%
X13857400Y-50015400D03*
X12837400Y-50015400D03*
%TD*%
D28*
%TO.C,Y1*%
X7346400Y-44656400D03*
X7346400Y-53656400D03*
%TD*%
D10*
%TO.C,C3*%
X54432800Y-21919600D03*
X54432800Y-23819600D03*
%TD*%
D29*
%TO.C,R7*%
X11491000Y-31090000D03*
X11491000Y-32110000D03*
%TD*%
%TO.C,R10*%
X15280600Y-31090000D03*
X15280600Y-32110000D03*
%TD*%
D30*
%TO.C,D5*%
X19110000Y-36850000D03*
X19110000Y-36200000D03*
X19110000Y-35550000D03*
X17210000Y-35550000D03*
X17210000Y-36200000D03*
X17210000Y-36850000D03*
%TD*%
%TO.C,D6*%
X14310000Y-36950000D03*
X14310000Y-36300000D03*
X14310000Y-35650000D03*
X12410000Y-35650000D03*
X12410000Y-36300000D03*
X12410000Y-36950000D03*
%TD*%
D29*
%TO.C,R15*%
X21596800Y-31090000D03*
X21596800Y-32110000D03*
%TD*%
%TO.C,R16*%
X22860000Y-31090000D03*
X22860000Y-32110000D03*
%TD*%
%TO.C,R17*%
X26771600Y-31090000D03*
X26771600Y-32110000D03*
%TD*%
%TO.C,R4*%
X7701300Y-31090000D03*
X7701300Y-32110000D03*
%TD*%
%TO.C,R2*%
X5174800Y-31090000D03*
X5174800Y-32110000D03*
%TD*%
D30*
%TO.C,D8*%
X4010000Y-37050000D03*
X4010000Y-36400000D03*
X4010000Y-35750000D03*
X2110000Y-35750000D03*
X2110000Y-36400000D03*
X2110000Y-37050000D03*
%TD*%
D29*
%TO.C,R9*%
X14017400Y-31090000D03*
X14017400Y-32110000D03*
%TD*%
%TO.C,R11*%
X16543900Y-31090000D03*
X16543900Y-32110000D03*
%TD*%
%TO.C,R14*%
X20333500Y-31090000D03*
X20333500Y-32110000D03*
%TD*%
D30*
%TO.C,D2*%
X32210000Y-36650000D03*
X32210000Y-36000000D03*
X32210000Y-35350000D03*
X30310000Y-35350000D03*
X30310000Y-36000000D03*
X30310000Y-36650000D03*
%TD*%
D29*
%TO.C,R3*%
X6438100Y-31090000D03*
X6438100Y-32110000D03*
%TD*%
D31*
%TO.C,TP1*%
X64460000Y-23200000D03*
%TD*%
D32*
%TO.C,D1*%
X51190000Y-6100000D03*
X51190000Y-7400000D03*
X53190000Y-6750000D03*
%TD*%
D30*
%TO.C,D4*%
X25910000Y-36750000D03*
X25910000Y-36100000D03*
X25910000Y-35450000D03*
X24010000Y-35450000D03*
X24010000Y-36100000D03*
X24010000Y-36750000D03*
%TD*%
D29*
%TO.C,R12*%
X17807100Y-31090000D03*
X17807100Y-32110000D03*
%TD*%
%TO.C,R19*%
X31724600Y-31090000D03*
X31724600Y-32110000D03*
%TD*%
%TO.C,R18*%
X29311600Y-31090000D03*
X29311600Y-32110000D03*
%TD*%
%TO.C,R6*%
X10227700Y-31090000D03*
X10227700Y-32110000D03*
%TD*%
D30*
%TO.C,D7*%
X9110000Y-37050000D03*
X9110000Y-36400000D03*
X9110000Y-35750000D03*
X7210000Y-35750000D03*
X7210000Y-36400000D03*
X7210000Y-37050000D03*
%TD*%
D29*
%TO.C,R1*%
X3911600Y-31090000D03*
X3911600Y-32110000D03*
%TD*%
%TO.C,R13*%
X19070300Y-31090000D03*
X19070300Y-32110000D03*
%TD*%
%TO.C,R8*%
X12754200Y-31090000D03*
X12754200Y-32110000D03*
%TD*%
%TO.C,R5*%
X8964500Y-31090000D03*
X8964500Y-32110000D03*
%TD*%
M02*
