%TF.GenerationSoftware,KiCad,Pcbnew,8.0.0-rc2*%
%TF.CreationDate,2024-01-29T17:44:33-08:00*%
%TF.ProjectId,fluke_884x_continuity_buzzer,666c756b-655f-4383-9834-785f636f6e74,REV1*%
%TF.SameCoordinates,Original*%
%TF.FileFunction,Soldermask,Bot*%
%TF.FilePolarity,Negative*%
%FSLAX46Y46*%
G04 Gerber Fmt 4.6, Leading zero omitted, Abs format (unit mm)*
G04 Created by KiCad (PCBNEW 8.0.0-rc2) date 2024-01-29 17:44:33*
%MOMM*%
%LPD*%
G01*
G04 APERTURE LIST*
G04 APERTURE END LIST*
G36*
X22082609Y-68417775D02*
G01*
X22215500Y-68472820D01*
X22329616Y-68560384D01*
X22417180Y-68674500D01*
X22472225Y-68807391D01*
X22491000Y-68950000D01*
X22472225Y-69092609D01*
X22417180Y-69225500D01*
X22329616Y-69339616D01*
X22215500Y-69427180D01*
X22082609Y-69482225D01*
X21940000Y-69501000D01*
X21797391Y-69482225D01*
X21664500Y-69427180D01*
X21550384Y-69339616D01*
X21462820Y-69225500D01*
X21407775Y-69092609D01*
X21389000Y-68950000D01*
X21407775Y-68807391D01*
X21462820Y-68674500D01*
X21550384Y-68560384D01*
X21664500Y-68472820D01*
X21797391Y-68417775D01*
X21940000Y-68399000D01*
X22082609Y-68417775D01*
G37*
G36*
X25132609Y-68417775D02*
G01*
X25265500Y-68472820D01*
X25379616Y-68560384D01*
X25467180Y-68674500D01*
X25522225Y-68807391D01*
X25541000Y-68950000D01*
X25522225Y-69092609D01*
X25467180Y-69225500D01*
X25379616Y-69339616D01*
X25265500Y-69427180D01*
X25132609Y-69482225D01*
X24990000Y-69501000D01*
X24847391Y-69482225D01*
X24714500Y-69427180D01*
X24600384Y-69339616D01*
X24512820Y-69225500D01*
X24457775Y-69092609D01*
X24439000Y-68950000D01*
X24457775Y-68807391D01*
X24512820Y-68674500D01*
X24600384Y-68560384D01*
X24714500Y-68472820D01*
X24847391Y-68417775D01*
X24990000Y-68399000D01*
X25132609Y-68417775D01*
G37*
G36*
X66384741Y-64045743D02*
G01*
X66509811Y-64079256D01*
X66621946Y-64143997D01*
X66713503Y-64235554D01*
X66778244Y-64347689D01*
X66811757Y-64472759D01*
X66811757Y-64602241D01*
X66778244Y-64727311D01*
X66713503Y-64839446D01*
X66621946Y-64931003D01*
X66509811Y-64995744D01*
X66384741Y-65029257D01*
X65660000Y-65033500D01*
X65595259Y-65029257D01*
X65470189Y-64995744D01*
X65358054Y-64931003D01*
X65266497Y-64839446D01*
X65201756Y-64727311D01*
X65168243Y-64602241D01*
X65168243Y-64472759D01*
X65201756Y-64347689D01*
X65266497Y-64235554D01*
X65358054Y-64143997D01*
X65470189Y-64079256D01*
X65595259Y-64045743D01*
X66320000Y-64041500D01*
X66384741Y-64045743D01*
G37*
G36*
X63491291Y-62901539D02*
G01*
X63610209Y-62970196D01*
X63707304Y-63067291D01*
X63775961Y-63186209D01*
X63811500Y-63318843D01*
X63816000Y-63687500D01*
X63811500Y-63756157D01*
X63775961Y-63888791D01*
X63707304Y-64007709D01*
X63610209Y-64104804D01*
X63491291Y-64173461D01*
X63358657Y-64209000D01*
X63221343Y-64209000D01*
X63088709Y-64173461D01*
X62969791Y-64104804D01*
X62872696Y-64007709D01*
X62804039Y-63888791D01*
X62768500Y-63756157D01*
X62764000Y-63387500D01*
X62768500Y-63318843D01*
X62804039Y-63186209D01*
X62872696Y-63067291D01*
X62969791Y-62970196D01*
X63088709Y-62901539D01*
X63221343Y-62866000D01*
X63358657Y-62866000D01*
X63491291Y-62901539D01*
G37*
G36*
X63491291Y-57901539D02*
G01*
X63610209Y-57970196D01*
X63707304Y-58067291D01*
X63775961Y-58186209D01*
X63811500Y-58318843D01*
X63816000Y-58687500D01*
X63811500Y-58756157D01*
X63775961Y-58888791D01*
X63707304Y-59007709D01*
X63610209Y-59104804D01*
X63491291Y-59173461D01*
X63358657Y-59209000D01*
X63221343Y-59209000D01*
X63088709Y-59173461D01*
X62969791Y-59104804D01*
X62872696Y-59007709D01*
X62804039Y-58888791D01*
X62768500Y-58756157D01*
X62764000Y-58387500D01*
X62768500Y-58318843D01*
X62804039Y-58186209D01*
X62872696Y-58067291D01*
X62969791Y-57970196D01*
X63088709Y-57901539D01*
X63221343Y-57866000D01*
X63358657Y-57866000D01*
X63491291Y-57901539D01*
G37*
G36*
X66384741Y-57045743D02*
G01*
X66509811Y-57079256D01*
X66621946Y-57143997D01*
X66713503Y-57235554D01*
X66778244Y-57347689D01*
X66811757Y-57472759D01*
X66811757Y-57602241D01*
X66778244Y-57727311D01*
X66713503Y-57839446D01*
X66621946Y-57931003D01*
X66509811Y-57995744D01*
X66384741Y-58029257D01*
X65660000Y-58033500D01*
X65595259Y-58029257D01*
X65470189Y-57995744D01*
X65358054Y-57931003D01*
X65266497Y-57839446D01*
X65201756Y-57727311D01*
X65168243Y-57602241D01*
X65168243Y-57472759D01*
X65201756Y-57347689D01*
X65266497Y-57235554D01*
X65358054Y-57143997D01*
X65470189Y-57079256D01*
X65595259Y-57045743D01*
X66320000Y-57041500D01*
X66384741Y-57045743D01*
G37*
G36*
X37907913Y-55468936D02*
G01*
X37954180Y-55468936D01*
X37994129Y-55477427D01*
X38035733Y-55481525D01*
X38087998Y-55497379D01*
X38138424Y-55508098D01*
X38170694Y-55522465D01*
X38204712Y-55532785D01*
X38258767Y-55561678D01*
X38310500Y-55584711D01*
X38334551Y-55602185D01*
X38360447Y-55616027D01*
X38413271Y-55659378D01*
X38462887Y-55695427D01*
X38478996Y-55713318D01*
X38496948Y-55728051D01*
X38545188Y-55786831D01*
X38588924Y-55835405D01*
X38598111Y-55851319D01*
X38608972Y-55864552D01*
X38649149Y-55939719D01*
X38683104Y-55998530D01*
X38687009Y-56010550D01*
X38692214Y-56020287D01*
X38720913Y-56114896D01*
X38741311Y-56177672D01*
X38742028Y-56184502D01*
X38743474Y-56189266D01*
X38757536Y-56332042D01*
X38761000Y-56365000D01*
X38757535Y-56397959D01*
X38743474Y-56540733D01*
X38742029Y-56545496D01*
X38741311Y-56552328D01*
X38720909Y-56615117D01*
X38692214Y-56709712D01*
X38687010Y-56719447D01*
X38683104Y-56731470D01*
X38649142Y-56790293D01*
X38608972Y-56865447D01*
X38598113Y-56878677D01*
X38588924Y-56894595D01*
X38545178Y-56943178D01*
X38496948Y-57001948D01*
X38479000Y-57016677D01*
X38462887Y-57034573D01*
X38413260Y-57070628D01*
X38360447Y-57113972D01*
X38334557Y-57127810D01*
X38310500Y-57145289D01*
X38258756Y-57168326D01*
X38204712Y-57197214D01*
X38170701Y-57207531D01*
X38138424Y-57221902D01*
X38087987Y-57232622D01*
X38035733Y-57248474D01*
X37994138Y-57252570D01*
X37954180Y-57261064D01*
X37907903Y-57261064D01*
X37860000Y-57265782D01*
X37812097Y-57261064D01*
X37765820Y-57261064D01*
X37725862Y-57252570D01*
X37684266Y-57248474D01*
X37632009Y-57232621D01*
X37581576Y-57221902D01*
X37549300Y-57207532D01*
X37515287Y-57197214D01*
X37461237Y-57168323D01*
X37409500Y-57145289D01*
X37385445Y-57127812D01*
X37359552Y-57113972D01*
X37306730Y-57070622D01*
X37257113Y-57034573D01*
X37241002Y-57016680D01*
X37223051Y-57001948D01*
X37174809Y-56943166D01*
X37131076Y-56894595D01*
X37121888Y-56878681D01*
X37111027Y-56865447D01*
X37070844Y-56790269D01*
X37036896Y-56731470D01*
X37032991Y-56719451D01*
X37027785Y-56709712D01*
X36999075Y-56615071D01*
X36978689Y-56552328D01*
X36977971Y-56545501D01*
X36976525Y-56540733D01*
X36962448Y-56397808D01*
X36959000Y-56365000D01*
X36962448Y-56332194D01*
X36976525Y-56189266D01*
X36977971Y-56184497D01*
X36978689Y-56177672D01*
X36999071Y-56114942D01*
X37027785Y-56020287D01*
X37032991Y-56010545D01*
X37036896Y-55998530D01*
X37070836Y-55939742D01*
X37111027Y-55864552D01*
X37121890Y-55851314D01*
X37131076Y-55835405D01*
X37174800Y-55786843D01*
X37223051Y-55728051D01*
X37241005Y-55713315D01*
X37257113Y-55695427D01*
X37306720Y-55659385D01*
X37359552Y-55616027D01*
X37385450Y-55602183D01*
X37409500Y-55584711D01*
X37461226Y-55561681D01*
X37515287Y-55532785D01*
X37549307Y-55522464D01*
X37581576Y-55508098D01*
X37631998Y-55497380D01*
X37684266Y-55481525D01*
X37725871Y-55477427D01*
X37765820Y-55468936D01*
X37812086Y-55468936D01*
X37860000Y-55464217D01*
X37907913Y-55468936D01*
G37*
G36*
X38729517Y-52927882D02*
G01*
X38746062Y-52938938D01*
X38757118Y-52955483D01*
X38761000Y-52975000D01*
X38761000Y-54675000D01*
X38757118Y-54694517D01*
X38746062Y-54711062D01*
X38729517Y-54722118D01*
X38710000Y-54726000D01*
X37010000Y-54726000D01*
X36990483Y-54722118D01*
X36973938Y-54711062D01*
X36962882Y-54694517D01*
X36959000Y-54675000D01*
X36959000Y-52975000D01*
X36962882Y-52955483D01*
X36973938Y-52938938D01*
X36990483Y-52927882D01*
X37010000Y-52924000D01*
X38710000Y-52924000D01*
X38729517Y-52927882D01*
G37*
G36*
X47287465Y-47703675D02*
G01*
X47336955Y-47703675D01*
X47392070Y-47713977D01*
X47445040Y-47719195D01*
X47485279Y-47731401D01*
X47527570Y-47739307D01*
X47586142Y-47761997D01*
X47642200Y-47779003D01*
X47674231Y-47796123D01*
X47708382Y-47809354D01*
X47767719Y-47846093D01*
X47823904Y-47876125D01*
X47847509Y-47895497D01*
X47873251Y-47911436D01*
X47930290Y-47963434D01*
X47983169Y-48006831D01*
X47998839Y-48025924D01*
X48016557Y-48042077D01*
X48067989Y-48110184D01*
X48113875Y-48166096D01*
X48122748Y-48182697D01*
X48133415Y-48196822D01*
X48175860Y-48282064D01*
X48210997Y-48347800D01*
X48214743Y-48360151D01*
X48219848Y-48370402D01*
X48249997Y-48476368D01*
X48270805Y-48544960D01*
X48271488Y-48551900D01*
X48272915Y-48556914D01*
X48287739Y-48716893D01*
X48291000Y-48750000D01*
X48287738Y-48783109D01*
X48272915Y-48943085D01*
X48271488Y-48948097D01*
X48270805Y-48955040D01*
X48249993Y-49023646D01*
X48219848Y-49129597D01*
X48214744Y-49139846D01*
X48210997Y-49152200D01*
X48175853Y-49217949D01*
X48133415Y-49303177D01*
X48122750Y-49317299D01*
X48113875Y-49333904D01*
X48067979Y-49389827D01*
X48016557Y-49457922D01*
X47998842Y-49474071D01*
X47983169Y-49493169D01*
X47930279Y-49536574D01*
X47873251Y-49588563D01*
X47847514Y-49604498D01*
X47823904Y-49623875D01*
X47767707Y-49653912D01*
X47708382Y-49690645D01*
X47674238Y-49703872D01*
X47642200Y-49720997D01*
X47586130Y-49738005D01*
X47527570Y-49760692D01*
X47485286Y-49768596D01*
X47445040Y-49780805D01*
X47392067Y-49786022D01*
X47336955Y-49796325D01*
X47287465Y-49796325D01*
X47240000Y-49801000D01*
X47192535Y-49796325D01*
X47143045Y-49796325D01*
X47087931Y-49786022D01*
X47034960Y-49780805D01*
X46994714Y-49768596D01*
X46952429Y-49760692D01*
X46893865Y-49738004D01*
X46837800Y-49720997D01*
X46805764Y-49703873D01*
X46771617Y-49690645D01*
X46712285Y-49653908D01*
X46656096Y-49623875D01*
X46632488Y-49604500D01*
X46606748Y-49588563D01*
X46549710Y-49536565D01*
X46496831Y-49493169D01*
X46481160Y-49474074D01*
X46463442Y-49457922D01*
X46412007Y-49389811D01*
X46366125Y-49333904D01*
X46357252Y-49317303D01*
X46346584Y-49303177D01*
X46304131Y-49217921D01*
X46269003Y-49152200D01*
X46265257Y-49139851D01*
X46260151Y-49129597D01*
X46229990Y-49023593D01*
X46209195Y-48955040D01*
X46208511Y-48948103D01*
X46207084Y-48943085D01*
X46192244Y-48782938D01*
X46189000Y-48750000D01*
X46192243Y-48717064D01*
X46207084Y-48556914D01*
X46208511Y-48551895D01*
X46209195Y-48544960D01*
X46229986Y-48476421D01*
X46260151Y-48370402D01*
X46265257Y-48360146D01*
X46269003Y-48347800D01*
X46304124Y-48282091D01*
X46346584Y-48196822D01*
X46357253Y-48182692D01*
X46366125Y-48166096D01*
X46411998Y-48110199D01*
X46463442Y-48042077D01*
X46481163Y-48025921D01*
X46496831Y-48006831D01*
X46549699Y-47963443D01*
X46606748Y-47911436D01*
X46632493Y-47895495D01*
X46656096Y-47876125D01*
X46712273Y-47846097D01*
X46771617Y-47809354D01*
X46805771Y-47796122D01*
X46837800Y-47779003D01*
X46893853Y-47761999D01*
X46952429Y-47739307D01*
X46994721Y-47731401D01*
X47034960Y-47719195D01*
X47087928Y-47713977D01*
X47143045Y-47703675D01*
X47192535Y-47703675D01*
X47240000Y-47699000D01*
X47287465Y-47703675D01*
G37*
G36*
X58259517Y-47702882D02*
G01*
X58276062Y-47713938D01*
X58287118Y-47730483D01*
X58291000Y-47750000D01*
X58291000Y-49750000D01*
X58287118Y-49769517D01*
X58276062Y-49786062D01*
X58259517Y-49797118D01*
X58240000Y-49801000D01*
X56240000Y-49801000D01*
X56220483Y-49797118D01*
X56203938Y-49786062D01*
X56192882Y-49769517D01*
X56189000Y-49750000D01*
X56189000Y-47750000D01*
X56192882Y-47730483D01*
X56203938Y-47713938D01*
X56220483Y-47702882D01*
X56240000Y-47699000D01*
X58240000Y-47699000D01*
X58259517Y-47702882D01*
G37*
G36*
X5342973Y-27130651D02*
G01*
X5505500Y-27203012D01*
X5649430Y-27307584D01*
X5768473Y-27439795D01*
X5857427Y-27593867D01*
X5912404Y-27763067D01*
X5931000Y-27940000D01*
X5912404Y-28116933D01*
X5857427Y-28286133D01*
X5768473Y-28440205D01*
X5649430Y-28572416D01*
X5505500Y-28676988D01*
X5342973Y-28749349D01*
X5168954Y-28786338D01*
X4991046Y-28786338D01*
X4817027Y-28749349D01*
X4654500Y-28676988D01*
X4510570Y-28572416D01*
X4391527Y-28440205D01*
X4302573Y-28286133D01*
X4247596Y-28116933D01*
X4229000Y-27940000D01*
X4247596Y-27763067D01*
X4302573Y-27593867D01*
X4391527Y-27439795D01*
X4510570Y-27307584D01*
X4654500Y-27203012D01*
X4817027Y-27130651D01*
X4991046Y-27093662D01*
X5168954Y-27093662D01*
X5342973Y-27130651D01*
G37*
G36*
X7882973Y-27130651D02*
G01*
X8045500Y-27203012D01*
X8189430Y-27307584D01*
X8308473Y-27439795D01*
X8397427Y-27593867D01*
X8452404Y-27763067D01*
X8471000Y-27940000D01*
X8452404Y-28116933D01*
X8397427Y-28286133D01*
X8308473Y-28440205D01*
X8189430Y-28572416D01*
X8045500Y-28676988D01*
X7882973Y-28749349D01*
X7708954Y-28786338D01*
X7531046Y-28786338D01*
X7357027Y-28749349D01*
X7194500Y-28676988D01*
X7050570Y-28572416D01*
X6931527Y-28440205D01*
X6842573Y-28286133D01*
X6787596Y-28116933D01*
X6769000Y-27940000D01*
X6787596Y-27763067D01*
X6842573Y-27593867D01*
X6931527Y-27439795D01*
X7050570Y-27307584D01*
X7194500Y-27203012D01*
X7357027Y-27130651D01*
X7531046Y-27093662D01*
X7708954Y-27093662D01*
X7882973Y-27130651D01*
G37*
G36*
X10422973Y-27130651D02*
G01*
X10585500Y-27203012D01*
X10729430Y-27307584D01*
X10848473Y-27439795D01*
X10937427Y-27593867D01*
X10992404Y-27763067D01*
X11011000Y-27940000D01*
X10992404Y-28116933D01*
X10937427Y-28286133D01*
X10848473Y-28440205D01*
X10729430Y-28572416D01*
X10585500Y-28676988D01*
X10422973Y-28749349D01*
X10248954Y-28786338D01*
X10071046Y-28786338D01*
X9897027Y-28749349D01*
X9734500Y-28676988D01*
X9590570Y-28572416D01*
X9471527Y-28440205D01*
X9382573Y-28286133D01*
X9327596Y-28116933D01*
X9309000Y-27940000D01*
X9327596Y-27763067D01*
X9382573Y-27593867D01*
X9471527Y-27439795D01*
X9590570Y-27307584D01*
X9734500Y-27203012D01*
X9897027Y-27130651D01*
X10071046Y-27093662D01*
X10248954Y-27093662D01*
X10422973Y-27130651D01*
G37*
G36*
X12962973Y-27130651D02*
G01*
X13125500Y-27203012D01*
X13269430Y-27307584D01*
X13388473Y-27439795D01*
X13477427Y-27593867D01*
X13532404Y-27763067D01*
X13551000Y-27940000D01*
X13532404Y-28116933D01*
X13477427Y-28286133D01*
X13388473Y-28440205D01*
X13269430Y-28572416D01*
X13125500Y-28676988D01*
X12962973Y-28749349D01*
X12788954Y-28786338D01*
X12611046Y-28786338D01*
X12437027Y-28749349D01*
X12274500Y-28676988D01*
X12130570Y-28572416D01*
X12011527Y-28440205D01*
X11922573Y-28286133D01*
X11867596Y-28116933D01*
X11849000Y-27940000D01*
X11867596Y-27763067D01*
X11922573Y-27593867D01*
X12011527Y-27439795D01*
X12130570Y-27307584D01*
X12274500Y-27203012D01*
X12437027Y-27130651D01*
X12611046Y-27093662D01*
X12788954Y-27093662D01*
X12962973Y-27130651D01*
G37*
G36*
X15502973Y-27130651D02*
G01*
X15665500Y-27203012D01*
X15809430Y-27307584D01*
X15928473Y-27439795D01*
X16017427Y-27593867D01*
X16072404Y-27763067D01*
X16091000Y-27940000D01*
X16072404Y-28116933D01*
X16017427Y-28286133D01*
X15928473Y-28440205D01*
X15809430Y-28572416D01*
X15665500Y-28676988D01*
X15502973Y-28749349D01*
X15328954Y-28786338D01*
X15151046Y-28786338D01*
X14977027Y-28749349D01*
X14814500Y-28676988D01*
X14670570Y-28572416D01*
X14551527Y-28440205D01*
X14462573Y-28286133D01*
X14407596Y-28116933D01*
X14389000Y-27940000D01*
X14407596Y-27763067D01*
X14462573Y-27593867D01*
X14551527Y-27439795D01*
X14670570Y-27307584D01*
X14814500Y-27203012D01*
X14977027Y-27130651D01*
X15151046Y-27093662D01*
X15328954Y-27093662D01*
X15502973Y-27130651D01*
G37*
G36*
X18042973Y-27130651D02*
G01*
X18205500Y-27203012D01*
X18349430Y-27307584D01*
X18468473Y-27439795D01*
X18557427Y-27593867D01*
X18612404Y-27763067D01*
X18631000Y-27940000D01*
X18612404Y-28116933D01*
X18557427Y-28286133D01*
X18468473Y-28440205D01*
X18349430Y-28572416D01*
X18205500Y-28676988D01*
X18042973Y-28749349D01*
X17868954Y-28786338D01*
X17691046Y-28786338D01*
X17517027Y-28749349D01*
X17354500Y-28676988D01*
X17210570Y-28572416D01*
X17091527Y-28440205D01*
X17002573Y-28286133D01*
X16947596Y-28116933D01*
X16929000Y-27940000D01*
X16947596Y-27763067D01*
X17002573Y-27593867D01*
X17091527Y-27439795D01*
X17210570Y-27307584D01*
X17354500Y-27203012D01*
X17517027Y-27130651D01*
X17691046Y-27093662D01*
X17868954Y-27093662D01*
X18042973Y-27130651D01*
G37*
G36*
X20582973Y-27130651D02*
G01*
X20745500Y-27203012D01*
X20889430Y-27307584D01*
X21008473Y-27439795D01*
X21097427Y-27593867D01*
X21152404Y-27763067D01*
X21171000Y-27940000D01*
X21152404Y-28116933D01*
X21097427Y-28286133D01*
X21008473Y-28440205D01*
X20889430Y-28572416D01*
X20745500Y-28676988D01*
X20582973Y-28749349D01*
X20408954Y-28786338D01*
X20231046Y-28786338D01*
X20057027Y-28749349D01*
X19894500Y-28676988D01*
X19750570Y-28572416D01*
X19631527Y-28440205D01*
X19542573Y-28286133D01*
X19487596Y-28116933D01*
X19469000Y-27940000D01*
X19487596Y-27763067D01*
X19542573Y-27593867D01*
X19631527Y-27439795D01*
X19750570Y-27307584D01*
X19894500Y-27203012D01*
X20057027Y-27130651D01*
X20231046Y-27093662D01*
X20408954Y-27093662D01*
X20582973Y-27130651D01*
G37*
G36*
X23122973Y-27130651D02*
G01*
X23285500Y-27203012D01*
X23429430Y-27307584D01*
X23548473Y-27439795D01*
X23637427Y-27593867D01*
X23692404Y-27763067D01*
X23711000Y-27940000D01*
X23692404Y-28116933D01*
X23637427Y-28286133D01*
X23548473Y-28440205D01*
X23429430Y-28572416D01*
X23285500Y-28676988D01*
X23122973Y-28749349D01*
X22948954Y-28786338D01*
X22771046Y-28786338D01*
X22597027Y-28749349D01*
X22434500Y-28676988D01*
X22290570Y-28572416D01*
X22171527Y-28440205D01*
X22082573Y-28286133D01*
X22027596Y-28116933D01*
X22009000Y-27940000D01*
X22027596Y-27763067D01*
X22082573Y-27593867D01*
X22171527Y-27439795D01*
X22290570Y-27307584D01*
X22434500Y-27203012D01*
X22597027Y-27130651D01*
X22771046Y-27093662D01*
X22948954Y-27093662D01*
X23122973Y-27130651D01*
G37*
G36*
X28202973Y-27130651D02*
G01*
X28365500Y-27203012D01*
X28509430Y-27307584D01*
X28628473Y-27439795D01*
X28717427Y-27593867D01*
X28772404Y-27763067D01*
X28791000Y-27940000D01*
X28772404Y-28116933D01*
X28717427Y-28286133D01*
X28628473Y-28440205D01*
X28509430Y-28572416D01*
X28365500Y-28676988D01*
X28202973Y-28749349D01*
X28028954Y-28786338D01*
X27851046Y-28786338D01*
X27677027Y-28749349D01*
X27514500Y-28676988D01*
X27370570Y-28572416D01*
X27251527Y-28440205D01*
X27162573Y-28286133D01*
X27107596Y-28116933D01*
X27089000Y-27940000D01*
X27107596Y-27763067D01*
X27162573Y-27593867D01*
X27251527Y-27439795D01*
X27370570Y-27307584D01*
X27514500Y-27203012D01*
X27677027Y-27130651D01*
X27851046Y-27093662D01*
X28028954Y-27093662D01*
X28202973Y-27130651D01*
G37*
G36*
X30742973Y-27130651D02*
G01*
X30905500Y-27203012D01*
X31049430Y-27307584D01*
X31168473Y-27439795D01*
X31257427Y-27593867D01*
X31312404Y-27763067D01*
X31331000Y-27940000D01*
X31312404Y-28116933D01*
X31257427Y-28286133D01*
X31168473Y-28440205D01*
X31049430Y-28572416D01*
X30905500Y-28676988D01*
X30742973Y-28749349D01*
X30568954Y-28786338D01*
X30391046Y-28786338D01*
X30217027Y-28749349D01*
X30054500Y-28676988D01*
X29910570Y-28572416D01*
X29791527Y-28440205D01*
X29702573Y-28286133D01*
X29647596Y-28116933D01*
X29629000Y-27940000D01*
X29647596Y-27763067D01*
X29702573Y-27593867D01*
X29791527Y-27439795D01*
X29910570Y-27307584D01*
X30054500Y-27203012D01*
X30217027Y-27130651D01*
X30391046Y-27093662D01*
X30568954Y-27093662D01*
X30742973Y-27130651D01*
G37*
G36*
X33282973Y-27130651D02*
G01*
X33445500Y-27203012D01*
X33589430Y-27307584D01*
X33708473Y-27439795D01*
X33797427Y-27593867D01*
X33852404Y-27763067D01*
X33871000Y-27940000D01*
X33852404Y-28116933D01*
X33797427Y-28286133D01*
X33708473Y-28440205D01*
X33589430Y-28572416D01*
X33445500Y-28676988D01*
X33282973Y-28749349D01*
X33108954Y-28786338D01*
X32931046Y-28786338D01*
X32757027Y-28749349D01*
X32594500Y-28676988D01*
X32450570Y-28572416D01*
X32331527Y-28440205D01*
X32242573Y-28286133D01*
X32187596Y-28116933D01*
X32169000Y-27940000D01*
X32187596Y-27763067D01*
X32242573Y-27593867D01*
X32331527Y-27439795D01*
X32450570Y-27307584D01*
X32594500Y-27203012D01*
X32757027Y-27130651D01*
X32931046Y-27093662D01*
X33108954Y-27093662D01*
X33282973Y-27130651D01*
G37*
G36*
X35822973Y-27130651D02*
G01*
X35985500Y-27203012D01*
X36129430Y-27307584D01*
X36248473Y-27439795D01*
X36337427Y-27593867D01*
X36392404Y-27763067D01*
X36411000Y-27940000D01*
X36392404Y-28116933D01*
X36337427Y-28286133D01*
X36248473Y-28440205D01*
X36129430Y-28572416D01*
X35985500Y-28676988D01*
X35822973Y-28749349D01*
X35648954Y-28786338D01*
X35471046Y-28786338D01*
X35297027Y-28749349D01*
X35134500Y-28676988D01*
X34990570Y-28572416D01*
X34871527Y-28440205D01*
X34782573Y-28286133D01*
X34727596Y-28116933D01*
X34709000Y-27940000D01*
X34727596Y-27763067D01*
X34782573Y-27593867D01*
X34871527Y-27439795D01*
X34990570Y-27307584D01*
X35134500Y-27203012D01*
X35297027Y-27130651D01*
X35471046Y-27093662D01*
X35648954Y-27093662D01*
X35822973Y-27130651D01*
G37*
G36*
X38362973Y-27130651D02*
G01*
X38525500Y-27203012D01*
X38669430Y-27307584D01*
X38788473Y-27439795D01*
X38877427Y-27593867D01*
X38932404Y-27763067D01*
X38951000Y-27940000D01*
X38932404Y-28116933D01*
X38877427Y-28286133D01*
X38788473Y-28440205D01*
X38669430Y-28572416D01*
X38525500Y-28676988D01*
X38362973Y-28749349D01*
X38188954Y-28786338D01*
X38011046Y-28786338D01*
X37837027Y-28749349D01*
X37674500Y-28676988D01*
X37530570Y-28572416D01*
X37411527Y-28440205D01*
X37322573Y-28286133D01*
X37267596Y-28116933D01*
X37249000Y-27940000D01*
X37267596Y-27763067D01*
X37322573Y-27593867D01*
X37411527Y-27439795D01*
X37530570Y-27307584D01*
X37674500Y-27203012D01*
X37837027Y-27130651D01*
X38011046Y-27093662D01*
X38188954Y-27093662D01*
X38362973Y-27130651D01*
G37*
G36*
X40902973Y-27130651D02*
G01*
X41065500Y-27203012D01*
X41209430Y-27307584D01*
X41328473Y-27439795D01*
X41417427Y-27593867D01*
X41472404Y-27763067D01*
X41491000Y-27940000D01*
X41472404Y-28116933D01*
X41417427Y-28286133D01*
X41328473Y-28440205D01*
X41209430Y-28572416D01*
X41065500Y-28676988D01*
X40902973Y-28749349D01*
X40728954Y-28786338D01*
X40551046Y-28786338D01*
X40377027Y-28749349D01*
X40214500Y-28676988D01*
X40070570Y-28572416D01*
X39951527Y-28440205D01*
X39862573Y-28286133D01*
X39807596Y-28116933D01*
X39789000Y-27940000D01*
X39807596Y-27763067D01*
X39862573Y-27593867D01*
X39951527Y-27439795D01*
X40070570Y-27307584D01*
X40214500Y-27203012D01*
X40377027Y-27130651D01*
X40551046Y-27093662D01*
X40728954Y-27093662D01*
X40902973Y-27130651D01*
G37*
G36*
X43442973Y-27130651D02*
G01*
X43605500Y-27203012D01*
X43749430Y-27307584D01*
X43868473Y-27439795D01*
X43957427Y-27593867D01*
X44012404Y-27763067D01*
X44031000Y-27940000D01*
X44012404Y-28116933D01*
X43957427Y-28286133D01*
X43868473Y-28440205D01*
X43749430Y-28572416D01*
X43605500Y-28676988D01*
X43442973Y-28749349D01*
X43268954Y-28786338D01*
X43091046Y-28786338D01*
X42917027Y-28749349D01*
X42754500Y-28676988D01*
X42610570Y-28572416D01*
X42491527Y-28440205D01*
X42402573Y-28286133D01*
X42347596Y-28116933D01*
X42329000Y-27940000D01*
X42347596Y-27763067D01*
X42402573Y-27593867D01*
X42491527Y-27439795D01*
X42610570Y-27307584D01*
X42754500Y-27203012D01*
X42917027Y-27130651D01*
X43091046Y-27093662D01*
X43268954Y-27093662D01*
X43442973Y-27130651D01*
G37*
G36*
X45982973Y-27130651D02*
G01*
X46145500Y-27203012D01*
X46289430Y-27307584D01*
X46408473Y-27439795D01*
X46497427Y-27593867D01*
X46552404Y-27763067D01*
X46571000Y-27940000D01*
X46552404Y-28116933D01*
X46497427Y-28286133D01*
X46408473Y-28440205D01*
X46289430Y-28572416D01*
X46145500Y-28676988D01*
X45982973Y-28749349D01*
X45808954Y-28786338D01*
X45631046Y-28786338D01*
X45457027Y-28749349D01*
X45294500Y-28676988D01*
X45150570Y-28572416D01*
X45031527Y-28440205D01*
X44942573Y-28286133D01*
X44887596Y-28116933D01*
X44869000Y-27940000D01*
X44887596Y-27763067D01*
X44942573Y-27593867D01*
X45031527Y-27439795D01*
X45150570Y-27307584D01*
X45294500Y-27203012D01*
X45457027Y-27130651D01*
X45631046Y-27093662D01*
X45808954Y-27093662D01*
X45982973Y-27130651D01*
G37*
G36*
X64602609Y-22667775D02*
G01*
X64735500Y-22722820D01*
X64849616Y-22810384D01*
X64937180Y-22924500D01*
X64992225Y-23057391D01*
X65011000Y-23200000D01*
X64992225Y-23342609D01*
X64937180Y-23475500D01*
X64849616Y-23589616D01*
X64735500Y-23677180D01*
X64602609Y-23732225D01*
X64460000Y-23751000D01*
X64317391Y-23732225D01*
X64184500Y-23677180D01*
X64070384Y-23589616D01*
X63982820Y-23475500D01*
X63927775Y-23342609D01*
X63909000Y-23200000D01*
X63927775Y-23057391D01*
X63982820Y-22924500D01*
X64070384Y-22810384D01*
X64184500Y-22722820D01*
X64317391Y-22667775D01*
X64460000Y-22649000D01*
X64602609Y-22667775D01*
G37*
G36*
X23679517Y-19472882D02*
G01*
X23696062Y-19483938D01*
X23707118Y-19500483D01*
X23711000Y-19520000D01*
X23711000Y-21120000D01*
X23707118Y-21139517D01*
X23696062Y-21156062D01*
X23679517Y-21167118D01*
X23660000Y-21171000D01*
X22060000Y-21171000D01*
X22040483Y-21167118D01*
X22023938Y-21156062D01*
X22012882Y-21139517D01*
X22009000Y-21120000D01*
X22009000Y-19520000D01*
X22012882Y-19500483D01*
X22023938Y-19483938D01*
X22040483Y-19472882D01*
X22060000Y-19469000D01*
X23660000Y-19469000D01*
X23679517Y-19472882D01*
G37*
G36*
X46539517Y-19472882D02*
G01*
X46556062Y-19483938D01*
X46567118Y-19500483D01*
X46571000Y-19520000D01*
X46571000Y-21120000D01*
X46567118Y-21139517D01*
X46556062Y-21156062D01*
X46539517Y-21167118D01*
X46520000Y-21171000D01*
X44920000Y-21171000D01*
X44900483Y-21167118D01*
X44883938Y-21156062D01*
X44872882Y-21139517D01*
X44869000Y-21120000D01*
X44869000Y-19520000D01*
X44872882Y-19500483D01*
X44883938Y-19483938D01*
X44900483Y-19472882D01*
X44920000Y-19469000D01*
X46520000Y-19469000D01*
X46539517Y-19472882D01*
G37*
G36*
X5342973Y-19510651D02*
G01*
X5505500Y-19583012D01*
X5649430Y-19687584D01*
X5768473Y-19819795D01*
X5857427Y-19973867D01*
X5912404Y-20143067D01*
X5931000Y-20320000D01*
X5912404Y-20496933D01*
X5857427Y-20666133D01*
X5768473Y-20820205D01*
X5649430Y-20952416D01*
X5505500Y-21056988D01*
X5342973Y-21129349D01*
X5168954Y-21166338D01*
X4991046Y-21166338D01*
X4817027Y-21129349D01*
X4654500Y-21056988D01*
X4510570Y-20952416D01*
X4391527Y-20820205D01*
X4302573Y-20666133D01*
X4247596Y-20496933D01*
X4229000Y-20320000D01*
X4247596Y-20143067D01*
X4302573Y-19973867D01*
X4391527Y-19819795D01*
X4510570Y-19687584D01*
X4654500Y-19583012D01*
X4817027Y-19510651D01*
X4991046Y-19473662D01*
X5168954Y-19473662D01*
X5342973Y-19510651D01*
G37*
G36*
X7882973Y-19510651D02*
G01*
X8045500Y-19583012D01*
X8189430Y-19687584D01*
X8308473Y-19819795D01*
X8397427Y-19973867D01*
X8452404Y-20143067D01*
X8471000Y-20320000D01*
X8452404Y-20496933D01*
X8397427Y-20666133D01*
X8308473Y-20820205D01*
X8189430Y-20952416D01*
X8045500Y-21056988D01*
X7882973Y-21129349D01*
X7708954Y-21166338D01*
X7531046Y-21166338D01*
X7357027Y-21129349D01*
X7194500Y-21056988D01*
X7050570Y-20952416D01*
X6931527Y-20820205D01*
X6842573Y-20666133D01*
X6787596Y-20496933D01*
X6769000Y-20320000D01*
X6787596Y-20143067D01*
X6842573Y-19973867D01*
X6931527Y-19819795D01*
X7050570Y-19687584D01*
X7194500Y-19583012D01*
X7357027Y-19510651D01*
X7531046Y-19473662D01*
X7708954Y-19473662D01*
X7882973Y-19510651D01*
G37*
G36*
X10422973Y-19510651D02*
G01*
X10585500Y-19583012D01*
X10729430Y-19687584D01*
X10848473Y-19819795D01*
X10937427Y-19973867D01*
X10992404Y-20143067D01*
X11011000Y-20320000D01*
X10992404Y-20496933D01*
X10937427Y-20666133D01*
X10848473Y-20820205D01*
X10729430Y-20952416D01*
X10585500Y-21056988D01*
X10422973Y-21129349D01*
X10248954Y-21166338D01*
X10071046Y-21166338D01*
X9897027Y-21129349D01*
X9734500Y-21056988D01*
X9590570Y-20952416D01*
X9471527Y-20820205D01*
X9382573Y-20666133D01*
X9327596Y-20496933D01*
X9309000Y-20320000D01*
X9327596Y-20143067D01*
X9382573Y-19973867D01*
X9471527Y-19819795D01*
X9590570Y-19687584D01*
X9734500Y-19583012D01*
X9897027Y-19510651D01*
X10071046Y-19473662D01*
X10248954Y-19473662D01*
X10422973Y-19510651D01*
G37*
G36*
X12962973Y-19510651D02*
G01*
X13125500Y-19583012D01*
X13269430Y-19687584D01*
X13388473Y-19819795D01*
X13477427Y-19973867D01*
X13532404Y-20143067D01*
X13551000Y-20320000D01*
X13532404Y-20496933D01*
X13477427Y-20666133D01*
X13388473Y-20820205D01*
X13269430Y-20952416D01*
X13125500Y-21056988D01*
X12962973Y-21129349D01*
X12788954Y-21166338D01*
X12611046Y-21166338D01*
X12437027Y-21129349D01*
X12274500Y-21056988D01*
X12130570Y-20952416D01*
X12011527Y-20820205D01*
X11922573Y-20666133D01*
X11867596Y-20496933D01*
X11849000Y-20320000D01*
X11867596Y-20143067D01*
X11922573Y-19973867D01*
X12011527Y-19819795D01*
X12130570Y-19687584D01*
X12274500Y-19583012D01*
X12437027Y-19510651D01*
X12611046Y-19473662D01*
X12788954Y-19473662D01*
X12962973Y-19510651D01*
G37*
G36*
X15502973Y-19510651D02*
G01*
X15665500Y-19583012D01*
X15809430Y-19687584D01*
X15928473Y-19819795D01*
X16017427Y-19973867D01*
X16072404Y-20143067D01*
X16091000Y-20320000D01*
X16072404Y-20496933D01*
X16017427Y-20666133D01*
X15928473Y-20820205D01*
X15809430Y-20952416D01*
X15665500Y-21056988D01*
X15502973Y-21129349D01*
X15328954Y-21166338D01*
X15151046Y-21166338D01*
X14977027Y-21129349D01*
X14814500Y-21056988D01*
X14670570Y-20952416D01*
X14551527Y-20820205D01*
X14462573Y-20666133D01*
X14407596Y-20496933D01*
X14389000Y-20320000D01*
X14407596Y-20143067D01*
X14462573Y-19973867D01*
X14551527Y-19819795D01*
X14670570Y-19687584D01*
X14814500Y-19583012D01*
X14977027Y-19510651D01*
X15151046Y-19473662D01*
X15328954Y-19473662D01*
X15502973Y-19510651D01*
G37*
G36*
X18042973Y-19510651D02*
G01*
X18205500Y-19583012D01*
X18349430Y-19687584D01*
X18468473Y-19819795D01*
X18557427Y-19973867D01*
X18612404Y-20143067D01*
X18631000Y-20320000D01*
X18612404Y-20496933D01*
X18557427Y-20666133D01*
X18468473Y-20820205D01*
X18349430Y-20952416D01*
X18205500Y-21056988D01*
X18042973Y-21129349D01*
X17868954Y-21166338D01*
X17691046Y-21166338D01*
X17517027Y-21129349D01*
X17354500Y-21056988D01*
X17210570Y-20952416D01*
X17091527Y-20820205D01*
X17002573Y-20666133D01*
X16947596Y-20496933D01*
X16929000Y-20320000D01*
X16947596Y-20143067D01*
X17002573Y-19973867D01*
X17091527Y-19819795D01*
X17210570Y-19687584D01*
X17354500Y-19583012D01*
X17517027Y-19510651D01*
X17691046Y-19473662D01*
X17868954Y-19473662D01*
X18042973Y-19510651D01*
G37*
G36*
X20582973Y-19510651D02*
G01*
X20745500Y-19583012D01*
X20889430Y-19687584D01*
X21008473Y-19819795D01*
X21097427Y-19973867D01*
X21152404Y-20143067D01*
X21171000Y-20320000D01*
X21152404Y-20496933D01*
X21097427Y-20666133D01*
X21008473Y-20820205D01*
X20889430Y-20952416D01*
X20745500Y-21056988D01*
X20582973Y-21129349D01*
X20408954Y-21166338D01*
X20231046Y-21166338D01*
X20057027Y-21129349D01*
X19894500Y-21056988D01*
X19750570Y-20952416D01*
X19631527Y-20820205D01*
X19542573Y-20666133D01*
X19487596Y-20496933D01*
X19469000Y-20320000D01*
X19487596Y-20143067D01*
X19542573Y-19973867D01*
X19631527Y-19819795D01*
X19750570Y-19687584D01*
X19894500Y-19583012D01*
X20057027Y-19510651D01*
X20231046Y-19473662D01*
X20408954Y-19473662D01*
X20582973Y-19510651D01*
G37*
G36*
X28202973Y-19510651D02*
G01*
X28365500Y-19583012D01*
X28509430Y-19687584D01*
X28628473Y-19819795D01*
X28717427Y-19973867D01*
X28772404Y-20143067D01*
X28791000Y-20320000D01*
X28772404Y-20496933D01*
X28717427Y-20666133D01*
X28628473Y-20820205D01*
X28509430Y-20952416D01*
X28365500Y-21056988D01*
X28202973Y-21129349D01*
X28028954Y-21166338D01*
X27851046Y-21166338D01*
X27677027Y-21129349D01*
X27514500Y-21056988D01*
X27370570Y-20952416D01*
X27251527Y-20820205D01*
X27162573Y-20666133D01*
X27107596Y-20496933D01*
X27089000Y-20320000D01*
X27107596Y-20143067D01*
X27162573Y-19973867D01*
X27251527Y-19819795D01*
X27370570Y-19687584D01*
X27514500Y-19583012D01*
X27677027Y-19510651D01*
X27851046Y-19473662D01*
X28028954Y-19473662D01*
X28202973Y-19510651D01*
G37*
G36*
X30742973Y-19510651D02*
G01*
X30905500Y-19583012D01*
X31049430Y-19687584D01*
X31168473Y-19819795D01*
X31257427Y-19973867D01*
X31312404Y-20143067D01*
X31331000Y-20320000D01*
X31312404Y-20496933D01*
X31257427Y-20666133D01*
X31168473Y-20820205D01*
X31049430Y-20952416D01*
X30905500Y-21056988D01*
X30742973Y-21129349D01*
X30568954Y-21166338D01*
X30391046Y-21166338D01*
X30217027Y-21129349D01*
X30054500Y-21056988D01*
X29910570Y-20952416D01*
X29791527Y-20820205D01*
X29702573Y-20666133D01*
X29647596Y-20496933D01*
X29629000Y-20320000D01*
X29647596Y-20143067D01*
X29702573Y-19973867D01*
X29791527Y-19819795D01*
X29910570Y-19687584D01*
X30054500Y-19583012D01*
X30217027Y-19510651D01*
X30391046Y-19473662D01*
X30568954Y-19473662D01*
X30742973Y-19510651D01*
G37*
G36*
X33282973Y-19510651D02*
G01*
X33445500Y-19583012D01*
X33589430Y-19687584D01*
X33708473Y-19819795D01*
X33797427Y-19973867D01*
X33852404Y-20143067D01*
X33871000Y-20320000D01*
X33852404Y-20496933D01*
X33797427Y-20666133D01*
X33708473Y-20820205D01*
X33589430Y-20952416D01*
X33445500Y-21056988D01*
X33282973Y-21129349D01*
X33108954Y-21166338D01*
X32931046Y-21166338D01*
X32757027Y-21129349D01*
X32594500Y-21056988D01*
X32450570Y-20952416D01*
X32331527Y-20820205D01*
X32242573Y-20666133D01*
X32187596Y-20496933D01*
X32169000Y-20320000D01*
X32187596Y-20143067D01*
X32242573Y-19973867D01*
X32331527Y-19819795D01*
X32450570Y-19687584D01*
X32594500Y-19583012D01*
X32757027Y-19510651D01*
X32931046Y-19473662D01*
X33108954Y-19473662D01*
X33282973Y-19510651D01*
G37*
G36*
X35822973Y-19510651D02*
G01*
X35985500Y-19583012D01*
X36129430Y-19687584D01*
X36248473Y-19819795D01*
X36337427Y-19973867D01*
X36392404Y-20143067D01*
X36411000Y-20320000D01*
X36392404Y-20496933D01*
X36337427Y-20666133D01*
X36248473Y-20820205D01*
X36129430Y-20952416D01*
X35985500Y-21056988D01*
X35822973Y-21129349D01*
X35648954Y-21166338D01*
X35471046Y-21166338D01*
X35297027Y-21129349D01*
X35134500Y-21056988D01*
X34990570Y-20952416D01*
X34871527Y-20820205D01*
X34782573Y-20666133D01*
X34727596Y-20496933D01*
X34709000Y-20320000D01*
X34727596Y-20143067D01*
X34782573Y-19973867D01*
X34871527Y-19819795D01*
X34990570Y-19687584D01*
X35134500Y-19583012D01*
X35297027Y-19510651D01*
X35471046Y-19473662D01*
X35648954Y-19473662D01*
X35822973Y-19510651D01*
G37*
G36*
X38362973Y-19510651D02*
G01*
X38525500Y-19583012D01*
X38669430Y-19687584D01*
X38788473Y-19819795D01*
X38877427Y-19973867D01*
X38932404Y-20143067D01*
X38951000Y-20320000D01*
X38932404Y-20496933D01*
X38877427Y-20666133D01*
X38788473Y-20820205D01*
X38669430Y-20952416D01*
X38525500Y-21056988D01*
X38362973Y-21129349D01*
X38188954Y-21166338D01*
X38011046Y-21166338D01*
X37837027Y-21129349D01*
X37674500Y-21056988D01*
X37530570Y-20952416D01*
X37411527Y-20820205D01*
X37322573Y-20666133D01*
X37267596Y-20496933D01*
X37249000Y-20320000D01*
X37267596Y-20143067D01*
X37322573Y-19973867D01*
X37411527Y-19819795D01*
X37530570Y-19687584D01*
X37674500Y-19583012D01*
X37837027Y-19510651D01*
X38011046Y-19473662D01*
X38188954Y-19473662D01*
X38362973Y-19510651D01*
G37*
G36*
X40902973Y-19510651D02*
G01*
X41065500Y-19583012D01*
X41209430Y-19687584D01*
X41328473Y-19819795D01*
X41417427Y-19973867D01*
X41472404Y-20143067D01*
X41491000Y-20320000D01*
X41472404Y-20496933D01*
X41417427Y-20666133D01*
X41328473Y-20820205D01*
X41209430Y-20952416D01*
X41065500Y-21056988D01*
X40902973Y-21129349D01*
X40728954Y-21166338D01*
X40551046Y-21166338D01*
X40377027Y-21129349D01*
X40214500Y-21056988D01*
X40070570Y-20952416D01*
X39951527Y-20820205D01*
X39862573Y-20666133D01*
X39807596Y-20496933D01*
X39789000Y-20320000D01*
X39807596Y-20143067D01*
X39862573Y-19973867D01*
X39951527Y-19819795D01*
X40070570Y-19687584D01*
X40214500Y-19583012D01*
X40377027Y-19510651D01*
X40551046Y-19473662D01*
X40728954Y-19473662D01*
X40902973Y-19510651D01*
G37*
G36*
X43442973Y-19510651D02*
G01*
X43605500Y-19583012D01*
X43749430Y-19687584D01*
X43868473Y-19819795D01*
X43957427Y-19973867D01*
X44012404Y-20143067D01*
X44031000Y-20320000D01*
X44012404Y-20496933D01*
X43957427Y-20666133D01*
X43868473Y-20820205D01*
X43749430Y-20952416D01*
X43605500Y-21056988D01*
X43442973Y-21129349D01*
X43268954Y-21166338D01*
X43091046Y-21166338D01*
X42917027Y-21129349D01*
X42754500Y-21056988D01*
X42610570Y-20952416D01*
X42491527Y-20820205D01*
X42402573Y-20666133D01*
X42347596Y-20496933D01*
X42329000Y-20320000D01*
X42347596Y-20143067D01*
X42402573Y-19973867D01*
X42491527Y-19819795D01*
X42610570Y-19687584D01*
X42754500Y-19583012D01*
X42917027Y-19510651D01*
X43091046Y-19473662D01*
X43268954Y-19473662D01*
X43442973Y-19510651D01*
G37*
G36*
X5342973Y-13160651D02*
G01*
X5505500Y-13233012D01*
X5649430Y-13337584D01*
X5768473Y-13469795D01*
X5857427Y-13623867D01*
X5912404Y-13793067D01*
X5931000Y-13970000D01*
X5912404Y-14146933D01*
X5857427Y-14316133D01*
X5768473Y-14470205D01*
X5649430Y-14602416D01*
X5505500Y-14706988D01*
X5342973Y-14779349D01*
X5168954Y-14816338D01*
X4991046Y-14816338D01*
X4817027Y-14779349D01*
X4654500Y-14706988D01*
X4510570Y-14602416D01*
X4391527Y-14470205D01*
X4302573Y-14316133D01*
X4247596Y-14146933D01*
X4229000Y-13970000D01*
X4247596Y-13793067D01*
X4302573Y-13623867D01*
X4391527Y-13469795D01*
X4510570Y-13337584D01*
X4654500Y-13233012D01*
X4817027Y-13160651D01*
X4991046Y-13123662D01*
X5168954Y-13123662D01*
X5342973Y-13160651D01*
G37*
G36*
X7882973Y-13160651D02*
G01*
X8045500Y-13233012D01*
X8189430Y-13337584D01*
X8308473Y-13469795D01*
X8397427Y-13623867D01*
X8452404Y-13793067D01*
X8471000Y-13970000D01*
X8452404Y-14146933D01*
X8397427Y-14316133D01*
X8308473Y-14470205D01*
X8189430Y-14602416D01*
X8045500Y-14706988D01*
X7882973Y-14779349D01*
X7708954Y-14816338D01*
X7531046Y-14816338D01*
X7357027Y-14779349D01*
X7194500Y-14706988D01*
X7050570Y-14602416D01*
X6931527Y-14470205D01*
X6842573Y-14316133D01*
X6787596Y-14146933D01*
X6769000Y-13970000D01*
X6787596Y-13793067D01*
X6842573Y-13623867D01*
X6931527Y-13469795D01*
X7050570Y-13337584D01*
X7194500Y-13233012D01*
X7357027Y-13160651D01*
X7531046Y-13123662D01*
X7708954Y-13123662D01*
X7882973Y-13160651D01*
G37*
G36*
X10422973Y-13160651D02*
G01*
X10585500Y-13233012D01*
X10729430Y-13337584D01*
X10848473Y-13469795D01*
X10937427Y-13623867D01*
X10992404Y-13793067D01*
X11011000Y-13970000D01*
X10992404Y-14146933D01*
X10937427Y-14316133D01*
X10848473Y-14470205D01*
X10729430Y-14602416D01*
X10585500Y-14706988D01*
X10422973Y-14779349D01*
X10248954Y-14816338D01*
X10071046Y-14816338D01*
X9897027Y-14779349D01*
X9734500Y-14706988D01*
X9590570Y-14602416D01*
X9471527Y-14470205D01*
X9382573Y-14316133D01*
X9327596Y-14146933D01*
X9309000Y-13970000D01*
X9327596Y-13793067D01*
X9382573Y-13623867D01*
X9471527Y-13469795D01*
X9590570Y-13337584D01*
X9734500Y-13233012D01*
X9897027Y-13160651D01*
X10071046Y-13123662D01*
X10248954Y-13123662D01*
X10422973Y-13160651D01*
G37*
G36*
X12962973Y-13160651D02*
G01*
X13125500Y-13233012D01*
X13269430Y-13337584D01*
X13388473Y-13469795D01*
X13477427Y-13623867D01*
X13532404Y-13793067D01*
X13551000Y-13970000D01*
X13532404Y-14146933D01*
X13477427Y-14316133D01*
X13388473Y-14470205D01*
X13269430Y-14602416D01*
X13125500Y-14706988D01*
X12962973Y-14779349D01*
X12788954Y-14816338D01*
X12611046Y-14816338D01*
X12437027Y-14779349D01*
X12274500Y-14706988D01*
X12130570Y-14602416D01*
X12011527Y-14470205D01*
X11922573Y-14316133D01*
X11867596Y-14146933D01*
X11849000Y-13970000D01*
X11867596Y-13793067D01*
X11922573Y-13623867D01*
X12011527Y-13469795D01*
X12130570Y-13337584D01*
X12274500Y-13233012D01*
X12437027Y-13160651D01*
X12611046Y-13123662D01*
X12788954Y-13123662D01*
X12962973Y-13160651D01*
G37*
G36*
X15502973Y-13160651D02*
G01*
X15665500Y-13233012D01*
X15809430Y-13337584D01*
X15928473Y-13469795D01*
X16017427Y-13623867D01*
X16072404Y-13793067D01*
X16091000Y-13970000D01*
X16072404Y-14146933D01*
X16017427Y-14316133D01*
X15928473Y-14470205D01*
X15809430Y-14602416D01*
X15665500Y-14706988D01*
X15502973Y-14779349D01*
X15328954Y-14816338D01*
X15151046Y-14816338D01*
X14977027Y-14779349D01*
X14814500Y-14706988D01*
X14670570Y-14602416D01*
X14551527Y-14470205D01*
X14462573Y-14316133D01*
X14407596Y-14146933D01*
X14389000Y-13970000D01*
X14407596Y-13793067D01*
X14462573Y-13623867D01*
X14551527Y-13469795D01*
X14670570Y-13337584D01*
X14814500Y-13233012D01*
X14977027Y-13160651D01*
X15151046Y-13123662D01*
X15328954Y-13123662D01*
X15502973Y-13160651D01*
G37*
G36*
X18042973Y-13160651D02*
G01*
X18205500Y-13233012D01*
X18349430Y-13337584D01*
X18468473Y-13469795D01*
X18557427Y-13623867D01*
X18612404Y-13793067D01*
X18631000Y-13970000D01*
X18612404Y-14146933D01*
X18557427Y-14316133D01*
X18468473Y-14470205D01*
X18349430Y-14602416D01*
X18205500Y-14706988D01*
X18042973Y-14779349D01*
X17868954Y-14816338D01*
X17691046Y-14816338D01*
X17517027Y-14779349D01*
X17354500Y-14706988D01*
X17210570Y-14602416D01*
X17091527Y-14470205D01*
X17002573Y-14316133D01*
X16947596Y-14146933D01*
X16929000Y-13970000D01*
X16947596Y-13793067D01*
X17002573Y-13623867D01*
X17091527Y-13469795D01*
X17210570Y-13337584D01*
X17354500Y-13233012D01*
X17517027Y-13160651D01*
X17691046Y-13123662D01*
X17868954Y-13123662D01*
X18042973Y-13160651D01*
G37*
G36*
X20582973Y-13160651D02*
G01*
X20745500Y-13233012D01*
X20889430Y-13337584D01*
X21008473Y-13469795D01*
X21097427Y-13623867D01*
X21152404Y-13793067D01*
X21171000Y-13970000D01*
X21152404Y-14146933D01*
X21097427Y-14316133D01*
X21008473Y-14470205D01*
X20889430Y-14602416D01*
X20745500Y-14706988D01*
X20582973Y-14779349D01*
X20408954Y-14816338D01*
X20231046Y-14816338D01*
X20057027Y-14779349D01*
X19894500Y-14706988D01*
X19750570Y-14602416D01*
X19631527Y-14470205D01*
X19542573Y-14316133D01*
X19487596Y-14146933D01*
X19469000Y-13970000D01*
X19487596Y-13793067D01*
X19542573Y-13623867D01*
X19631527Y-13469795D01*
X19750570Y-13337584D01*
X19894500Y-13233012D01*
X20057027Y-13160651D01*
X20231046Y-13123662D01*
X20408954Y-13123662D01*
X20582973Y-13160651D01*
G37*
G36*
X23122973Y-13160651D02*
G01*
X23285500Y-13233012D01*
X23429430Y-13337584D01*
X23548473Y-13469795D01*
X23637427Y-13623867D01*
X23692404Y-13793067D01*
X23711000Y-13970000D01*
X23692404Y-14146933D01*
X23637427Y-14316133D01*
X23548473Y-14470205D01*
X23429430Y-14602416D01*
X23285500Y-14706988D01*
X23122973Y-14779349D01*
X22948954Y-14816338D01*
X22771046Y-14816338D01*
X22597027Y-14779349D01*
X22434500Y-14706988D01*
X22290570Y-14602416D01*
X22171527Y-14470205D01*
X22082573Y-14316133D01*
X22027596Y-14146933D01*
X22009000Y-13970000D01*
X22027596Y-13793067D01*
X22082573Y-13623867D01*
X22171527Y-13469795D01*
X22290570Y-13337584D01*
X22434500Y-13233012D01*
X22597027Y-13160651D01*
X22771046Y-13123662D01*
X22948954Y-13123662D01*
X23122973Y-13160651D01*
G37*
G36*
X28202973Y-13160651D02*
G01*
X28365500Y-13233012D01*
X28509430Y-13337584D01*
X28628473Y-13469795D01*
X28717427Y-13623867D01*
X28772404Y-13793067D01*
X28791000Y-13970000D01*
X28772404Y-14146933D01*
X28717427Y-14316133D01*
X28628473Y-14470205D01*
X28509430Y-14602416D01*
X28365500Y-14706988D01*
X28202973Y-14779349D01*
X28028954Y-14816338D01*
X27851046Y-14816338D01*
X27677027Y-14779349D01*
X27514500Y-14706988D01*
X27370570Y-14602416D01*
X27251527Y-14470205D01*
X27162573Y-14316133D01*
X27107596Y-14146933D01*
X27089000Y-13970000D01*
X27107596Y-13793067D01*
X27162573Y-13623867D01*
X27251527Y-13469795D01*
X27370570Y-13337584D01*
X27514500Y-13233012D01*
X27677027Y-13160651D01*
X27851046Y-13123662D01*
X28028954Y-13123662D01*
X28202973Y-13160651D01*
G37*
G36*
X30742973Y-13160651D02*
G01*
X30905500Y-13233012D01*
X31049430Y-13337584D01*
X31168473Y-13469795D01*
X31257427Y-13623867D01*
X31312404Y-13793067D01*
X31331000Y-13970000D01*
X31312404Y-14146933D01*
X31257427Y-14316133D01*
X31168473Y-14470205D01*
X31049430Y-14602416D01*
X30905500Y-14706988D01*
X30742973Y-14779349D01*
X30568954Y-14816338D01*
X30391046Y-14816338D01*
X30217027Y-14779349D01*
X30054500Y-14706988D01*
X29910570Y-14602416D01*
X29791527Y-14470205D01*
X29702573Y-14316133D01*
X29647596Y-14146933D01*
X29629000Y-13970000D01*
X29647596Y-13793067D01*
X29702573Y-13623867D01*
X29791527Y-13469795D01*
X29910570Y-13337584D01*
X30054500Y-13233012D01*
X30217027Y-13160651D01*
X30391046Y-13123662D01*
X30568954Y-13123662D01*
X30742973Y-13160651D01*
G37*
G36*
X33282973Y-13160651D02*
G01*
X33445500Y-13233012D01*
X33589430Y-13337584D01*
X33708473Y-13469795D01*
X33797427Y-13623867D01*
X33852404Y-13793067D01*
X33871000Y-13970000D01*
X33852404Y-14146933D01*
X33797427Y-14316133D01*
X33708473Y-14470205D01*
X33589430Y-14602416D01*
X33445500Y-14706988D01*
X33282973Y-14779349D01*
X33108954Y-14816338D01*
X32931046Y-14816338D01*
X32757027Y-14779349D01*
X32594500Y-14706988D01*
X32450570Y-14602416D01*
X32331527Y-14470205D01*
X32242573Y-14316133D01*
X32187596Y-14146933D01*
X32169000Y-13970000D01*
X32187596Y-13793067D01*
X32242573Y-13623867D01*
X32331527Y-13469795D01*
X32450570Y-13337584D01*
X32594500Y-13233012D01*
X32757027Y-13160651D01*
X32931046Y-13123662D01*
X33108954Y-13123662D01*
X33282973Y-13160651D01*
G37*
G36*
X35822973Y-13160651D02*
G01*
X35985500Y-13233012D01*
X36129430Y-13337584D01*
X36248473Y-13469795D01*
X36337427Y-13623867D01*
X36392404Y-13793067D01*
X36411000Y-13970000D01*
X36392404Y-14146933D01*
X36337427Y-14316133D01*
X36248473Y-14470205D01*
X36129430Y-14602416D01*
X35985500Y-14706988D01*
X35822973Y-14779349D01*
X35648954Y-14816338D01*
X35471046Y-14816338D01*
X35297027Y-14779349D01*
X35134500Y-14706988D01*
X34990570Y-14602416D01*
X34871527Y-14470205D01*
X34782573Y-14316133D01*
X34727596Y-14146933D01*
X34709000Y-13970000D01*
X34727596Y-13793067D01*
X34782573Y-13623867D01*
X34871527Y-13469795D01*
X34990570Y-13337584D01*
X35134500Y-13233012D01*
X35297027Y-13160651D01*
X35471046Y-13123662D01*
X35648954Y-13123662D01*
X35822973Y-13160651D01*
G37*
G36*
X38362973Y-13160651D02*
G01*
X38525500Y-13233012D01*
X38669430Y-13337584D01*
X38788473Y-13469795D01*
X38877427Y-13623867D01*
X38932404Y-13793067D01*
X38951000Y-13970000D01*
X38932404Y-14146933D01*
X38877427Y-14316133D01*
X38788473Y-14470205D01*
X38669430Y-14602416D01*
X38525500Y-14706988D01*
X38362973Y-14779349D01*
X38188954Y-14816338D01*
X38011046Y-14816338D01*
X37837027Y-14779349D01*
X37674500Y-14706988D01*
X37530570Y-14602416D01*
X37411527Y-14470205D01*
X37322573Y-14316133D01*
X37267596Y-14146933D01*
X37249000Y-13970000D01*
X37267596Y-13793067D01*
X37322573Y-13623867D01*
X37411527Y-13469795D01*
X37530570Y-13337584D01*
X37674500Y-13233012D01*
X37837027Y-13160651D01*
X38011046Y-13123662D01*
X38188954Y-13123662D01*
X38362973Y-13160651D01*
G37*
G36*
X40902973Y-13160651D02*
G01*
X41065500Y-13233012D01*
X41209430Y-13337584D01*
X41328473Y-13469795D01*
X41417427Y-13623867D01*
X41472404Y-13793067D01*
X41491000Y-13970000D01*
X41472404Y-14146933D01*
X41417427Y-14316133D01*
X41328473Y-14470205D01*
X41209430Y-14602416D01*
X41065500Y-14706988D01*
X40902973Y-14779349D01*
X40728954Y-14816338D01*
X40551046Y-14816338D01*
X40377027Y-14779349D01*
X40214500Y-14706988D01*
X40070570Y-14602416D01*
X39951527Y-14470205D01*
X39862573Y-14316133D01*
X39807596Y-14146933D01*
X39789000Y-13970000D01*
X39807596Y-13793067D01*
X39862573Y-13623867D01*
X39951527Y-13469795D01*
X40070570Y-13337584D01*
X40214500Y-13233012D01*
X40377027Y-13160651D01*
X40551046Y-13123662D01*
X40728954Y-13123662D01*
X40902973Y-13160651D01*
G37*
G36*
X43442973Y-13160651D02*
G01*
X43605500Y-13233012D01*
X43749430Y-13337584D01*
X43868473Y-13469795D01*
X43957427Y-13623867D01*
X44012404Y-13793067D01*
X44031000Y-13970000D01*
X44012404Y-14146933D01*
X43957427Y-14316133D01*
X43868473Y-14470205D01*
X43749430Y-14602416D01*
X43605500Y-14706988D01*
X43442973Y-14779349D01*
X43268954Y-14816338D01*
X43091046Y-14816338D01*
X42917027Y-14779349D01*
X42754500Y-14706988D01*
X42610570Y-14602416D01*
X42491527Y-14470205D01*
X42402573Y-14316133D01*
X42347596Y-14146933D01*
X42329000Y-13970000D01*
X42347596Y-13793067D01*
X42402573Y-13623867D01*
X42491527Y-13469795D01*
X42610570Y-13337584D01*
X42754500Y-13233012D01*
X42917027Y-13160651D01*
X43091046Y-13123662D01*
X43268954Y-13123662D01*
X43442973Y-13160651D01*
G37*
G36*
X45982973Y-13160651D02*
G01*
X46145500Y-13233012D01*
X46289430Y-13337584D01*
X46408473Y-13469795D01*
X46497427Y-13623867D01*
X46552404Y-13793067D01*
X46571000Y-13970000D01*
X46552404Y-14146933D01*
X46497427Y-14316133D01*
X46408473Y-14470205D01*
X46289430Y-14602416D01*
X46145500Y-14706988D01*
X45982973Y-14779349D01*
X45808954Y-14816338D01*
X45631046Y-14816338D01*
X45457027Y-14779349D01*
X45294500Y-14706988D01*
X45150570Y-14602416D01*
X45031527Y-14470205D01*
X44942573Y-14316133D01*
X44887596Y-14146933D01*
X44869000Y-13970000D01*
X44887596Y-13793067D01*
X44942573Y-13623867D01*
X45031527Y-13469795D01*
X45150570Y-13337584D01*
X45294500Y-13233012D01*
X45457027Y-13160651D01*
X45631046Y-13123662D01*
X45808954Y-13123662D01*
X45982973Y-13160651D01*
G37*
G36*
X23679517Y-5502882D02*
G01*
X23696062Y-5513938D01*
X23707118Y-5530483D01*
X23711000Y-5550000D01*
X23711000Y-7150000D01*
X23707118Y-7169517D01*
X23696062Y-7186062D01*
X23679517Y-7197118D01*
X23660000Y-7201000D01*
X22060000Y-7201000D01*
X22040483Y-7197118D01*
X22023938Y-7186062D01*
X22012882Y-7169517D01*
X22009000Y-7150000D01*
X22009000Y-5550000D01*
X22012882Y-5530483D01*
X22023938Y-5513938D01*
X22040483Y-5502882D01*
X22060000Y-5499000D01*
X23660000Y-5499000D01*
X23679517Y-5502882D01*
G37*
G36*
X46539517Y-5502882D02*
G01*
X46556062Y-5513938D01*
X46567118Y-5530483D01*
X46571000Y-5550000D01*
X46571000Y-7150000D01*
X46567118Y-7169517D01*
X46556062Y-7186062D01*
X46539517Y-7197118D01*
X46520000Y-7201000D01*
X44920000Y-7201000D01*
X44900483Y-7197118D01*
X44883938Y-7186062D01*
X44872882Y-7169517D01*
X44869000Y-7150000D01*
X44869000Y-5550000D01*
X44872882Y-5530483D01*
X44883938Y-5513938D01*
X44900483Y-5502882D01*
X44920000Y-5499000D01*
X46520000Y-5499000D01*
X46539517Y-5502882D01*
G37*
G36*
X5342973Y-5540651D02*
G01*
X5505500Y-5613012D01*
X5649430Y-5717584D01*
X5768473Y-5849795D01*
X5857427Y-6003867D01*
X5912404Y-6173067D01*
X5931000Y-6350000D01*
X5912404Y-6526933D01*
X5857427Y-6696133D01*
X5768473Y-6850205D01*
X5649430Y-6982416D01*
X5505500Y-7086988D01*
X5342973Y-7159349D01*
X5168954Y-7196338D01*
X4991046Y-7196338D01*
X4817027Y-7159349D01*
X4654500Y-7086988D01*
X4510570Y-6982416D01*
X4391527Y-6850205D01*
X4302573Y-6696133D01*
X4247596Y-6526933D01*
X4229000Y-6350000D01*
X4247596Y-6173067D01*
X4302573Y-6003867D01*
X4391527Y-5849795D01*
X4510570Y-5717584D01*
X4654500Y-5613012D01*
X4817027Y-5540651D01*
X4991046Y-5503662D01*
X5168954Y-5503662D01*
X5342973Y-5540651D01*
G37*
G36*
X7882973Y-5540651D02*
G01*
X8045500Y-5613012D01*
X8189430Y-5717584D01*
X8308473Y-5849795D01*
X8397427Y-6003867D01*
X8452404Y-6173067D01*
X8471000Y-6350000D01*
X8452404Y-6526933D01*
X8397427Y-6696133D01*
X8308473Y-6850205D01*
X8189430Y-6982416D01*
X8045500Y-7086988D01*
X7882973Y-7159349D01*
X7708954Y-7196338D01*
X7531046Y-7196338D01*
X7357027Y-7159349D01*
X7194500Y-7086988D01*
X7050570Y-6982416D01*
X6931527Y-6850205D01*
X6842573Y-6696133D01*
X6787596Y-6526933D01*
X6769000Y-6350000D01*
X6787596Y-6173067D01*
X6842573Y-6003867D01*
X6931527Y-5849795D01*
X7050570Y-5717584D01*
X7194500Y-5613012D01*
X7357027Y-5540651D01*
X7531046Y-5503662D01*
X7708954Y-5503662D01*
X7882973Y-5540651D01*
G37*
G36*
X10422973Y-5540651D02*
G01*
X10585500Y-5613012D01*
X10729430Y-5717584D01*
X10848473Y-5849795D01*
X10937427Y-6003867D01*
X10992404Y-6173067D01*
X11011000Y-6350000D01*
X10992404Y-6526933D01*
X10937427Y-6696133D01*
X10848473Y-6850205D01*
X10729430Y-6982416D01*
X10585500Y-7086988D01*
X10422973Y-7159349D01*
X10248954Y-7196338D01*
X10071046Y-7196338D01*
X9897027Y-7159349D01*
X9734500Y-7086988D01*
X9590570Y-6982416D01*
X9471527Y-6850205D01*
X9382573Y-6696133D01*
X9327596Y-6526933D01*
X9309000Y-6350000D01*
X9327596Y-6173067D01*
X9382573Y-6003867D01*
X9471527Y-5849795D01*
X9590570Y-5717584D01*
X9734500Y-5613012D01*
X9897027Y-5540651D01*
X10071046Y-5503662D01*
X10248954Y-5503662D01*
X10422973Y-5540651D01*
G37*
G36*
X12962973Y-5540651D02*
G01*
X13125500Y-5613012D01*
X13269430Y-5717584D01*
X13388473Y-5849795D01*
X13477427Y-6003867D01*
X13532404Y-6173067D01*
X13551000Y-6350000D01*
X13532404Y-6526933D01*
X13477427Y-6696133D01*
X13388473Y-6850205D01*
X13269430Y-6982416D01*
X13125500Y-7086988D01*
X12962973Y-7159349D01*
X12788954Y-7196338D01*
X12611046Y-7196338D01*
X12437027Y-7159349D01*
X12274500Y-7086988D01*
X12130570Y-6982416D01*
X12011527Y-6850205D01*
X11922573Y-6696133D01*
X11867596Y-6526933D01*
X11849000Y-6350000D01*
X11867596Y-6173067D01*
X11922573Y-6003867D01*
X12011527Y-5849795D01*
X12130570Y-5717584D01*
X12274500Y-5613012D01*
X12437027Y-5540651D01*
X12611046Y-5503662D01*
X12788954Y-5503662D01*
X12962973Y-5540651D01*
G37*
G36*
X15502973Y-5540651D02*
G01*
X15665500Y-5613012D01*
X15809430Y-5717584D01*
X15928473Y-5849795D01*
X16017427Y-6003867D01*
X16072404Y-6173067D01*
X16091000Y-6350000D01*
X16072404Y-6526933D01*
X16017427Y-6696133D01*
X15928473Y-6850205D01*
X15809430Y-6982416D01*
X15665500Y-7086988D01*
X15502973Y-7159349D01*
X15328954Y-7196338D01*
X15151046Y-7196338D01*
X14977027Y-7159349D01*
X14814500Y-7086988D01*
X14670570Y-6982416D01*
X14551527Y-6850205D01*
X14462573Y-6696133D01*
X14407596Y-6526933D01*
X14389000Y-6350000D01*
X14407596Y-6173067D01*
X14462573Y-6003867D01*
X14551527Y-5849795D01*
X14670570Y-5717584D01*
X14814500Y-5613012D01*
X14977027Y-5540651D01*
X15151046Y-5503662D01*
X15328954Y-5503662D01*
X15502973Y-5540651D01*
G37*
G36*
X18042973Y-5540651D02*
G01*
X18205500Y-5613012D01*
X18349430Y-5717584D01*
X18468473Y-5849795D01*
X18557427Y-6003867D01*
X18612404Y-6173067D01*
X18631000Y-6350000D01*
X18612404Y-6526933D01*
X18557427Y-6696133D01*
X18468473Y-6850205D01*
X18349430Y-6982416D01*
X18205500Y-7086988D01*
X18042973Y-7159349D01*
X17868954Y-7196338D01*
X17691046Y-7196338D01*
X17517027Y-7159349D01*
X17354500Y-7086988D01*
X17210570Y-6982416D01*
X17091527Y-6850205D01*
X17002573Y-6696133D01*
X16947596Y-6526933D01*
X16929000Y-6350000D01*
X16947596Y-6173067D01*
X17002573Y-6003867D01*
X17091527Y-5849795D01*
X17210570Y-5717584D01*
X17354500Y-5613012D01*
X17517027Y-5540651D01*
X17691046Y-5503662D01*
X17868954Y-5503662D01*
X18042973Y-5540651D01*
G37*
G36*
X20582973Y-5540651D02*
G01*
X20745500Y-5613012D01*
X20889430Y-5717584D01*
X21008473Y-5849795D01*
X21097427Y-6003867D01*
X21152404Y-6173067D01*
X21171000Y-6350000D01*
X21152404Y-6526933D01*
X21097427Y-6696133D01*
X21008473Y-6850205D01*
X20889430Y-6982416D01*
X20745500Y-7086988D01*
X20582973Y-7159349D01*
X20408954Y-7196338D01*
X20231046Y-7196338D01*
X20057027Y-7159349D01*
X19894500Y-7086988D01*
X19750570Y-6982416D01*
X19631527Y-6850205D01*
X19542573Y-6696133D01*
X19487596Y-6526933D01*
X19469000Y-6350000D01*
X19487596Y-6173067D01*
X19542573Y-6003867D01*
X19631527Y-5849795D01*
X19750570Y-5717584D01*
X19894500Y-5613012D01*
X20057027Y-5540651D01*
X20231046Y-5503662D01*
X20408954Y-5503662D01*
X20582973Y-5540651D01*
G37*
G36*
X28202973Y-5540651D02*
G01*
X28365500Y-5613012D01*
X28509430Y-5717584D01*
X28628473Y-5849795D01*
X28717427Y-6003867D01*
X28772404Y-6173067D01*
X28791000Y-6350000D01*
X28772404Y-6526933D01*
X28717427Y-6696133D01*
X28628473Y-6850205D01*
X28509430Y-6982416D01*
X28365500Y-7086988D01*
X28202973Y-7159349D01*
X28028954Y-7196338D01*
X27851046Y-7196338D01*
X27677027Y-7159349D01*
X27514500Y-7086988D01*
X27370570Y-6982416D01*
X27251527Y-6850205D01*
X27162573Y-6696133D01*
X27107596Y-6526933D01*
X27089000Y-6350000D01*
X27107596Y-6173067D01*
X27162573Y-6003867D01*
X27251527Y-5849795D01*
X27370570Y-5717584D01*
X27514500Y-5613012D01*
X27677027Y-5540651D01*
X27851046Y-5503662D01*
X28028954Y-5503662D01*
X28202973Y-5540651D01*
G37*
G36*
X30742973Y-5540651D02*
G01*
X30905500Y-5613012D01*
X31049430Y-5717584D01*
X31168473Y-5849795D01*
X31257427Y-6003867D01*
X31312404Y-6173067D01*
X31331000Y-6350000D01*
X31312404Y-6526933D01*
X31257427Y-6696133D01*
X31168473Y-6850205D01*
X31049430Y-6982416D01*
X30905500Y-7086988D01*
X30742973Y-7159349D01*
X30568954Y-7196338D01*
X30391046Y-7196338D01*
X30217027Y-7159349D01*
X30054500Y-7086988D01*
X29910570Y-6982416D01*
X29791527Y-6850205D01*
X29702573Y-6696133D01*
X29647596Y-6526933D01*
X29629000Y-6350000D01*
X29647596Y-6173067D01*
X29702573Y-6003867D01*
X29791527Y-5849795D01*
X29910570Y-5717584D01*
X30054500Y-5613012D01*
X30217027Y-5540651D01*
X30391046Y-5503662D01*
X30568954Y-5503662D01*
X30742973Y-5540651D01*
G37*
G36*
X33282973Y-5540651D02*
G01*
X33445500Y-5613012D01*
X33589430Y-5717584D01*
X33708473Y-5849795D01*
X33797427Y-6003867D01*
X33852404Y-6173067D01*
X33871000Y-6350000D01*
X33852404Y-6526933D01*
X33797427Y-6696133D01*
X33708473Y-6850205D01*
X33589430Y-6982416D01*
X33445500Y-7086988D01*
X33282973Y-7159349D01*
X33108954Y-7196338D01*
X32931046Y-7196338D01*
X32757027Y-7159349D01*
X32594500Y-7086988D01*
X32450570Y-6982416D01*
X32331527Y-6850205D01*
X32242573Y-6696133D01*
X32187596Y-6526933D01*
X32169000Y-6350000D01*
X32187596Y-6173067D01*
X32242573Y-6003867D01*
X32331527Y-5849795D01*
X32450570Y-5717584D01*
X32594500Y-5613012D01*
X32757027Y-5540651D01*
X32931046Y-5503662D01*
X33108954Y-5503662D01*
X33282973Y-5540651D01*
G37*
G36*
X35822973Y-5540651D02*
G01*
X35985500Y-5613012D01*
X36129430Y-5717584D01*
X36248473Y-5849795D01*
X36337427Y-6003867D01*
X36392404Y-6173067D01*
X36411000Y-6350000D01*
X36392404Y-6526933D01*
X36337427Y-6696133D01*
X36248473Y-6850205D01*
X36129430Y-6982416D01*
X35985500Y-7086988D01*
X35822973Y-7159349D01*
X35648954Y-7196338D01*
X35471046Y-7196338D01*
X35297027Y-7159349D01*
X35134500Y-7086988D01*
X34990570Y-6982416D01*
X34871527Y-6850205D01*
X34782573Y-6696133D01*
X34727596Y-6526933D01*
X34709000Y-6350000D01*
X34727596Y-6173067D01*
X34782573Y-6003867D01*
X34871527Y-5849795D01*
X34990570Y-5717584D01*
X35134500Y-5613012D01*
X35297027Y-5540651D01*
X35471046Y-5503662D01*
X35648954Y-5503662D01*
X35822973Y-5540651D01*
G37*
G36*
X38362973Y-5540651D02*
G01*
X38525500Y-5613012D01*
X38669430Y-5717584D01*
X38788473Y-5849795D01*
X38877427Y-6003867D01*
X38932404Y-6173067D01*
X38951000Y-6350000D01*
X38932404Y-6526933D01*
X38877427Y-6696133D01*
X38788473Y-6850205D01*
X38669430Y-6982416D01*
X38525500Y-7086988D01*
X38362973Y-7159349D01*
X38188954Y-7196338D01*
X38011046Y-7196338D01*
X37837027Y-7159349D01*
X37674500Y-7086988D01*
X37530570Y-6982416D01*
X37411527Y-6850205D01*
X37322573Y-6696133D01*
X37267596Y-6526933D01*
X37249000Y-6350000D01*
X37267596Y-6173067D01*
X37322573Y-6003867D01*
X37411527Y-5849795D01*
X37530570Y-5717584D01*
X37674500Y-5613012D01*
X37837027Y-5540651D01*
X38011046Y-5503662D01*
X38188954Y-5503662D01*
X38362973Y-5540651D01*
G37*
G36*
X40902973Y-5540651D02*
G01*
X41065500Y-5613012D01*
X41209430Y-5717584D01*
X41328473Y-5849795D01*
X41417427Y-6003867D01*
X41472404Y-6173067D01*
X41491000Y-6350000D01*
X41472404Y-6526933D01*
X41417427Y-6696133D01*
X41328473Y-6850205D01*
X41209430Y-6982416D01*
X41065500Y-7086988D01*
X40902973Y-7159349D01*
X40728954Y-7196338D01*
X40551046Y-7196338D01*
X40377027Y-7159349D01*
X40214500Y-7086988D01*
X40070570Y-6982416D01*
X39951527Y-6850205D01*
X39862573Y-6696133D01*
X39807596Y-6526933D01*
X39789000Y-6350000D01*
X39807596Y-6173067D01*
X39862573Y-6003867D01*
X39951527Y-5849795D01*
X40070570Y-5717584D01*
X40214500Y-5613012D01*
X40377027Y-5540651D01*
X40551046Y-5503662D01*
X40728954Y-5503662D01*
X40902973Y-5540651D01*
G37*
G36*
X43442973Y-5540651D02*
G01*
X43605500Y-5613012D01*
X43749430Y-5717584D01*
X43868473Y-5849795D01*
X43957427Y-6003867D01*
X44012404Y-6173067D01*
X44031000Y-6350000D01*
X44012404Y-6526933D01*
X43957427Y-6696133D01*
X43868473Y-6850205D01*
X43749430Y-6982416D01*
X43605500Y-7086988D01*
X43442973Y-7159349D01*
X43268954Y-7196338D01*
X43091046Y-7196338D01*
X42917027Y-7159349D01*
X42754500Y-7086988D01*
X42610570Y-6982416D01*
X42491527Y-6850205D01*
X42402573Y-6696133D01*
X42347596Y-6526933D01*
X42329000Y-6350000D01*
X42347596Y-6173067D01*
X42402573Y-6003867D01*
X42491527Y-5849795D01*
X42610570Y-5717584D01*
X42754500Y-5613012D01*
X42917027Y-5540651D01*
X43091046Y-5503662D01*
X43268954Y-5503662D01*
X43442973Y-5540651D01*
G37*
M02*
