%TF.GenerationSoftware,KiCad,Pcbnew,8.0.4*%
%TF.CreationDate,2024-08-25T13:35:15-07:00*%
%TF.ProjectId,fluke_884x_continuity_buzzer,666c756b-655f-4383-9834-785f636f6e74,3*%
%TF.SameCoordinates,Original*%
%TF.FileFunction,Copper,L2,Inr*%
%TF.FilePolarity,Positive*%
%FSLAX46Y46*%
G04 Gerber Fmt 4.6, Leading zero omitted, Abs format (unit mm)*
G04 Created by KiCad (PCBNEW 8.0.4) date 2024-08-25 13:35:15*
%MOMM*%
%LPD*%
G01*
G04 APERTURE LIST*
%TA.AperFunction,ComponentPad*%
%ADD10O,1.550000X0.890000*%
%TD*%
%TA.AperFunction,ComponentPad*%
%ADD11O,0.950000X1.250000*%
%TD*%
%TA.AperFunction,ComponentPad*%
%ADD12R,1.700000X1.700000*%
%TD*%
%TA.AperFunction,ComponentPad*%
%ADD13O,1.700000X1.700000*%
%TD*%
%TA.AperFunction,ComponentPad*%
%ADD14C,0.600000*%
%TD*%
%TA.AperFunction,ComponentPad*%
%ADD15R,2.000000X2.000000*%
%TD*%
%TA.AperFunction,ComponentPad*%
%ADD16C,2.000000*%
%TD*%
%TA.AperFunction,ComponentPad*%
%ADD17R,1.000000X1.000000*%
%TD*%
%TA.AperFunction,ComponentPad*%
%ADD18C,1.600000*%
%TD*%
%TA.AperFunction,ComponentPad*%
%ADD19R,1.600000X1.600000*%
%TD*%
%TA.AperFunction,ComponentPad*%
%ADD20O,1.600000X1.600000*%
%TD*%
%TA.AperFunction,ViaPad*%
%ADD21C,0.600000*%
%TD*%
%TA.AperFunction,Conductor*%
%ADD22C,1.000000*%
%TD*%
%TA.AperFunction,Conductor*%
%ADD23C,0.150000*%
%TD*%
%TA.AperFunction,Conductor*%
%ADD24C,0.400000*%
%TD*%
G04 APERTURE END LIST*
D10*
%TO.N,GND*%
%TO.C,J3*%
X69253600Y-55937500D03*
D11*
X66553600Y-54937500D03*
X66553600Y-49937500D03*
D10*
X69253600Y-48937500D03*
%TD*%
D12*
%TO.N,/~{USB_BOOT}*%
%TO.C,J2*%
X41123600Y-45225000D03*
D13*
%TO.N,GND*%
X41123600Y-47765000D03*
%TD*%
D14*
%TO.N,GND*%
%TO.C,U3*%
X21737400Y-50040400D03*
X20462400Y-50040400D03*
X19187400Y-50040400D03*
X21737400Y-51315400D03*
X20462400Y-51315400D03*
X19187400Y-51315400D03*
X21737400Y-52590400D03*
X20462400Y-52590400D03*
X19187400Y-52590400D03*
%TD*%
D15*
%TO.N,/GPIO28_ADC2*%
%TO.C,LS1*%
X65640000Y-36300000D03*
D16*
%TO.N,/GPIO29_ADC3*%
X55640000Y-36300000D03*
%TD*%
D17*
%TO.N,/GPIO26_ADC0*%
%TO.C,TP2*%
X50890000Y-56450000D03*
%TD*%
D18*
%TO.N,Net-(D1A-K)*%
%TO.C,C18*%
X59040000Y-7750000D03*
%TO.N,GND*%
X61540000Y-7750000D03*
%TD*%
D19*
%TO.N,/PDP*%
%TO.C,J204*%
X22860000Y-20320000D03*
D20*
%TO.N,/PS1*%
X20320000Y-20320000D03*
%TO.N,/Pd*%
X17780000Y-20320000D03*
%TO.N,/Pe*%
X15240000Y-20320000D03*
%TO.N,/Pf*%
X12700000Y-20320000D03*
%TO.N,/Pg*%
X10160000Y-20320000D03*
%TO.N,/PS3*%
X7620000Y-20320000D03*
%TO.N,/PS2*%
X5080000Y-20320000D03*
%TO.N,/Pb*%
X5080000Y-27940000D03*
%TO.N,/Pa*%
X7620000Y-27940000D03*
%TO.N,/Pc*%
X10160000Y-27940000D03*
%TO.N,/G0*%
X12700000Y-27940000D03*
%TO.N,/G1*%
X15240000Y-27940000D03*
%TO.N,/G4*%
X17780000Y-27940000D03*
%TO.N,/G3*%
X20320000Y-27940000D03*
%TO.N,/G2*%
X22860000Y-27940000D03*
%TD*%
D19*
%TO.N,/F1*%
%TO.C,J203*%
X45720000Y-20320000D03*
D20*
%TO.N,/F2*%
X43180000Y-20320000D03*
%TO.N,/S2*%
X40640000Y-20320000D03*
%TO.N,/S1*%
X38100000Y-20320000D03*
%TO.N,/S0*%
X35560000Y-20320000D03*
%TO.N,/G5*%
X33020000Y-20320000D03*
%TO.N,/G7*%
X30480000Y-20320000D03*
%TO.N,/G6*%
X27940000Y-20320000D03*
%TO.N,/RL0*%
X27940000Y-27940000D03*
%TO.N,/RL1*%
X30480000Y-27940000D03*
%TO.N,/RL6*%
X33020000Y-27940000D03*
%TO.N,/RL4*%
X35560000Y-27940000D03*
%TO.N,/RL2*%
X38100000Y-27940000D03*
%TO.N,/RL5*%
X40640000Y-27940000D03*
%TO.N,/RL3*%
X43180000Y-27940000D03*
%TO.N,GND*%
X45720000Y-27940000D03*
%TD*%
D17*
%TO.N,/GPIO27_ADC1*%
%TO.C,TP3*%
X46190000Y-56450000D03*
%TD*%
D19*
%TO.N,/G2*%
%TO.C,P204*%
X22860000Y-13970000D03*
D20*
%TO.N,/G3*%
X20320000Y-13970000D03*
%TO.N,/G4*%
X17780000Y-13970000D03*
%TO.N,/G1*%
X15240000Y-13970000D03*
%TO.N,/G0*%
X12700000Y-13970000D03*
%TO.N,/Pc*%
X10160000Y-13970000D03*
%TO.N,/Pa*%
X7620000Y-13970000D03*
%TO.N,/Pb*%
X5080000Y-13970000D03*
%TO.N,/PS2*%
X5080000Y-6350000D03*
%TO.N,/PS3*%
X7620000Y-6350000D03*
%TO.N,/Pg*%
X10160000Y-6350000D03*
%TO.N,/Pf*%
X12700000Y-6350000D03*
%TO.N,/Pe*%
X15240000Y-6350000D03*
%TO.N,/Pd*%
X17780000Y-6350000D03*
%TO.N,/PS1*%
X20320000Y-6350000D03*
%TO.N,/PDP*%
X22860000Y-6350000D03*
%TD*%
D19*
%TO.N,GND*%
%TO.C,P203*%
X45720000Y-13970000D03*
D20*
%TO.N,/RL3*%
X43180000Y-13970000D03*
%TO.N,/RL5*%
X40640000Y-13970000D03*
%TO.N,/RL2*%
X38100000Y-13970000D03*
%TO.N,/RL4*%
X35560000Y-13970000D03*
%TO.N,/RL6*%
X33020000Y-13970000D03*
%TO.N,/RL1*%
X30480000Y-13970000D03*
%TO.N,/RL0*%
X27940000Y-13970000D03*
%TO.N,/G6*%
X27940000Y-6350000D03*
%TO.N,/G7*%
X30480000Y-6350000D03*
%TO.N,/G5*%
X33020000Y-6350000D03*
%TO.N,/S0*%
X35560000Y-6350000D03*
%TO.N,/S1*%
X38100000Y-6350000D03*
%TO.N,/S2*%
X40640000Y-6350000D03*
%TO.N,/F2*%
X43180000Y-6350000D03*
%TO.N,/F1*%
X45720000Y-6350000D03*
%TD*%
D21*
%TO.N,GND*%
X58460000Y-23600000D03*
X9062400Y-48115400D03*
X62210000Y-19000000D03*
X12680400Y-51696400D03*
X19023600Y-58200000D03*
X9062400Y-41405400D03*
X64404000Y-51137500D03*
X29262000Y-50315400D03*
X57060000Y-23600000D03*
X11462400Y-46489400D03*
X34225000Y-56050000D03*
X12680400Y-52815400D03*
X59760000Y-23600000D03*
X37663000Y-46015400D03*
X61260000Y-22100000D03*
X57060000Y-22100000D03*
X28262000Y-55315400D03*
X67754000Y-54777900D03*
X9062400Y-50105400D03*
X58460000Y-22100000D03*
X23823600Y-44800000D03*
X9062400Y-56805400D03*
X5930600Y-41405400D03*
X59760000Y-22100000D03*
X13505900Y-50870900D03*
X28262000Y-54315400D03*
X29262000Y-51315400D03*
X34225000Y-55050000D03*
X61260000Y-23600000D03*
X11473900Y-52077400D03*
X13632900Y-48394400D03*
X31263000Y-42115400D03*
X67854000Y-51340200D03*
X7562400Y-49205400D03*
X5362400Y-56805400D03*
X19603600Y-43450000D03*
%TO.N,+3V3*%
X25140000Y-54400000D03*
X37360000Y-54950000D03*
X17944800Y-50378800D03*
X17235000Y-38300000D03*
X7360000Y-38400000D03*
X12460000Y-38300000D03*
X19160000Y-34000000D03*
X24860000Y-34200000D03*
X14160000Y-34200000D03*
X49460000Y-39500000D03*
X24160000Y-38400000D03*
X25920400Y-51665400D03*
X21590000Y-42650000D03*
X2060000Y-38400000D03*
X49460000Y-35900000D03*
X8460000Y-34600000D03*
X20240000Y-44050000D03*
X18097100Y-53680800D03*
X30310000Y-37750000D03*
X49460000Y-37200000D03*
X24890000Y-45150000D03*
X49460000Y-38400000D03*
%TO.N,+1V1*%
X22562400Y-52015400D03*
X25262400Y-51115400D03*
X18362400Y-51915400D03*
X15262400Y-52115400D03*
%TO.N,/QSPI_SS*%
X24199500Y-48149800D03*
X36992000Y-42755500D03*
%TO.N,Net-(D1A-K)*%
X59040000Y-12750000D03*
X31590000Y-33350000D03*
%TO.N,G0_3V*%
X19953600Y-57250000D03*
X12787400Y-33726900D03*
%TO.N,G1_3V*%
X15297100Y-37059800D03*
X19953600Y-58150000D03*
%TO.N,G2_3V*%
X18179600Y-46904800D03*
X22911000Y-33620400D03*
%TO.N,G6_3V*%
X18262400Y-43721600D03*
X25081400Y-36376900D03*
%TO.N,PA_3V*%
X7349100Y-34783000D03*
X14523600Y-54100000D03*
%TO.N,PB_3V*%
X5116900Y-36986400D03*
X12823600Y-54200000D03*
%TO.N,PC_3V*%
X10716000Y-37207400D03*
X16023600Y-53500000D03*
%TO.N,PE_3V*%
X14612600Y-33193200D03*
X21190000Y-57700000D03*
%TO.N,PG_3V*%
X15352700Y-53835400D03*
X9660000Y-34300000D03*
%TO.N,PS2_3V*%
X11823600Y-54200000D03*
X3292200Y-37515700D03*
%TO.N,PS3_3V*%
X5696500Y-42730800D03*
X13623600Y-54100000D03*
%TO.N,/GPIO29_ADC3*%
X40392000Y-57084700D03*
%TO.N,/GPIO28_ADC2*%
X41280000Y-56939500D03*
%TO.N,/VBUS*%
X64240000Y-54800000D03*
X29040000Y-36850000D03*
%TO.N,PF_3V*%
X13598600Y-37545500D03*
X19953600Y-56450000D03*
X16637400Y-57395700D03*
%TD*%
D22*
%TO.N,GND*%
X47170000Y-15420000D02*
X47170000Y-26490000D01*
X45720000Y-13970000D02*
X47170000Y-15420000D01*
X47170000Y-26490000D02*
X45720000Y-27940000D01*
D23*
%TO.N,+3V3*%
X21590000Y-46077600D02*
X22313500Y-46801100D01*
X23238900Y-46801100D02*
X24890000Y-45150000D01*
X21590000Y-42650000D02*
X21590000Y-46077600D01*
X22313500Y-46801100D02*
X23238900Y-46801100D01*
D24*
%TO.N,Net-(D1A-K)*%
X41936346Y-33350000D02*
X59090000Y-17850000D01*
X59090000Y-17850000D02*
X59090000Y-12450000D01*
X31590000Y-33350000D02*
X41936346Y-33350000D01*
D23*
%TO.N,G0_3V*%
X16859800Y-39996200D02*
X12787400Y-35923800D01*
X12787400Y-35923800D02*
X12787400Y-33726900D01*
X16859800Y-54156200D02*
X16859800Y-39996200D01*
X19953600Y-57250000D02*
X16859800Y-54156200D01*
%TO.N,G1_3V*%
X20486000Y-57617600D02*
X20486000Y-56133000D01*
X17219200Y-39034400D02*
X15297100Y-37112300D01*
X19953600Y-58150000D02*
X20486000Y-57617600D01*
X17219200Y-41871300D02*
X17219200Y-39034400D01*
X19824900Y-44477000D02*
X17219200Y-41871300D01*
X20486000Y-56133000D02*
X19824900Y-55471900D01*
X19824900Y-55471900D02*
X19824900Y-44477000D01*
X15297100Y-37112300D02*
X15297100Y-37059800D01*
%TO.N,PA_3V*%
X13207100Y-52783500D02*
X14523600Y-54100000D01*
X13207100Y-51478200D02*
X13207100Y-52783500D01*
X7349100Y-34783000D02*
X7886700Y-35320600D01*
X10136500Y-48407600D02*
X13207100Y-51478200D01*
X10136500Y-40630200D02*
X10136500Y-48407600D01*
X7886700Y-38380400D02*
X10136500Y-40630200D01*
X7886700Y-35320600D02*
X7886700Y-38380400D01*
%TO.N,PB_3V*%
X5116900Y-38595300D02*
X9589100Y-43067500D01*
X5116900Y-36986400D02*
X5116900Y-38595300D01*
X9589100Y-50965500D02*
X12823600Y-54200000D01*
X9589100Y-43067500D02*
X9589100Y-50965500D01*
%TO.N,PC_3V*%
X16023600Y-43242500D02*
X10716000Y-37934900D01*
X10716000Y-37934900D02*
X10716000Y-37207400D01*
X16023600Y-53500000D02*
X16023600Y-43242500D01*
%TO.N,PE_3V*%
X21106900Y-47276100D02*
X20958000Y-47127200D01*
X21106900Y-57303300D02*
X21106900Y-47276100D01*
X20958000Y-39538600D02*
X14612600Y-33193200D01*
X20958000Y-47127200D02*
X20958000Y-39538600D01*
X21190000Y-57700000D02*
X21106900Y-57303300D01*
%TO.N,PG_3V*%
X9660000Y-39526600D02*
X14218500Y-44085100D01*
X14218500Y-52701200D02*
X15352700Y-53835400D01*
X9660000Y-34300000D02*
X9660000Y-39526600D01*
X14218500Y-44085100D02*
X14218500Y-52701200D01*
%TO.N,PS2_3V*%
X11823600Y-54200000D02*
X8202600Y-50579000D01*
X8202600Y-42426100D02*
X3292200Y-37515700D01*
X8202600Y-50579000D02*
X8202600Y-42426100D01*
%TO.N,PS3_3V*%
X13623600Y-54180700D02*
X13623600Y-54100000D01*
X5696500Y-48890900D02*
X11602900Y-54797300D01*
X11602900Y-54797300D02*
X13007000Y-54797300D01*
X13007000Y-54797300D02*
X13623600Y-54180700D01*
X5696500Y-42730800D02*
X5696500Y-48890900D01*
D24*
%TO.N,/VBUS*%
X63840761Y-54800000D02*
X64240000Y-54800000D01*
X29040000Y-36850000D02*
X45890761Y-36850000D01*
X45890761Y-36850000D02*
X63840761Y-54800000D01*
D23*
%TO.N,PF_3V*%
X16550300Y-57308600D02*
X16637400Y-57395700D01*
X16550300Y-40497200D02*
X16550300Y-57308600D01*
X13598600Y-37545500D02*
X16550300Y-40497200D01*
%TD*%
%TA.AperFunction,Conductor*%
%TO.N,+3V3*%
G36*
X70438637Y-33374568D02*
G01*
X70474634Y-33424044D01*
X70479500Y-33454700D01*
X70479500Y-59384100D01*
X70460593Y-59442291D01*
X70411093Y-59478255D01*
X70380500Y-59483100D01*
X399500Y-59483100D01*
X341309Y-59464193D01*
X305345Y-59414693D01*
X300500Y-59384100D01*
X300500Y-56805397D01*
X4856753Y-56805397D01*
X4856753Y-56805402D01*
X4877234Y-56947856D01*
X4913939Y-57028227D01*
X4937023Y-57078773D01*
X5014363Y-57168029D01*
X5031273Y-57187544D01*
X5112970Y-57240047D01*
X5152347Y-57265353D01*
X5258803Y-57296611D01*
X5290435Y-57305899D01*
X5290436Y-57305899D01*
X5290439Y-57305900D01*
X5290441Y-57305900D01*
X5434359Y-57305900D01*
X5434361Y-57305900D01*
X5572453Y-57265353D01*
X5693528Y-57187543D01*
X5787777Y-57078773D01*
X5847565Y-56947857D01*
X5868047Y-56805400D01*
X5868047Y-56805397D01*
X8556753Y-56805397D01*
X8556753Y-56805402D01*
X8577234Y-56947856D01*
X8613939Y-57028227D01*
X8637023Y-57078773D01*
X8714363Y-57168029D01*
X8731273Y-57187544D01*
X8812970Y-57240047D01*
X8852347Y-57265353D01*
X8958803Y-57296611D01*
X8990435Y-57305899D01*
X8990436Y-57305899D01*
X8990439Y-57305900D01*
X8990441Y-57305900D01*
X9134359Y-57305900D01*
X9134361Y-57305900D01*
X9272453Y-57265353D01*
X9393528Y-57187543D01*
X9487777Y-57078773D01*
X9547565Y-56947857D01*
X9568047Y-56805400D01*
X9566845Y-56797043D01*
X9547565Y-56662943D01*
X9487777Y-56532028D01*
X9487777Y-56532027D01*
X9393528Y-56423257D01*
X9393527Y-56423256D01*
X9393526Y-56423255D01*
X9272457Y-56345449D01*
X9272454Y-56345447D01*
X9272453Y-56345447D01*
X9272450Y-56345446D01*
X9134364Y-56304900D01*
X9134361Y-56304900D01*
X8990439Y-56304900D01*
X8990435Y-56304900D01*
X8852349Y-56345446D01*
X8852342Y-56345449D01*
X8731273Y-56423255D01*
X8637022Y-56532028D01*
X8577234Y-56662943D01*
X8556753Y-56805397D01*
X5868047Y-56805397D01*
X5866845Y-56797043D01*
X5847565Y-56662943D01*
X5787777Y-56532028D01*
X5787777Y-56532027D01*
X5693528Y-56423257D01*
X5693527Y-56423256D01*
X5693526Y-56423255D01*
X5572457Y-56345449D01*
X5572454Y-56345447D01*
X5572453Y-56345447D01*
X5572450Y-56345446D01*
X5434364Y-56304900D01*
X5434361Y-56304900D01*
X5290439Y-56304900D01*
X5290435Y-56304900D01*
X5152349Y-56345446D01*
X5152342Y-56345449D01*
X5031273Y-56423255D01*
X4937022Y-56532028D01*
X4877234Y-56662943D01*
X4856753Y-56805397D01*
X300500Y-56805397D01*
X300500Y-33501903D01*
X319407Y-33443712D01*
X368907Y-33407748D01*
X399429Y-33402903D01*
X12234675Y-33394920D01*
X12292877Y-33413788D01*
X12328874Y-33463264D01*
X12328915Y-33524449D01*
X12324794Y-33535046D01*
X12302233Y-33584445D01*
X12281753Y-33726897D01*
X12281753Y-33726902D01*
X12302234Y-33869356D01*
X12324384Y-33917857D01*
X12362023Y-34000273D01*
X12456272Y-34109043D01*
X12464363Y-34114243D01*
X12466422Y-34115566D01*
X12505154Y-34162932D01*
X12511900Y-34198851D01*
X12511900Y-35978600D01*
X12518592Y-35994755D01*
X12518593Y-35994758D01*
X12553841Y-36079855D01*
X12553842Y-36079856D01*
X12553843Y-36079858D01*
X12993341Y-36519356D01*
X13405768Y-36931783D01*
X13433545Y-36986300D01*
X13423974Y-37046732D01*
X13389287Y-37085071D01*
X13267473Y-37163355D01*
X13173222Y-37272128D01*
X13113434Y-37403043D01*
X13092953Y-37545497D01*
X13092953Y-37545502D01*
X13113434Y-37687956D01*
X13162441Y-37795264D01*
X13173223Y-37818873D01*
X13267472Y-37927643D01*
X13267473Y-37927644D01*
X13388542Y-38005450D01*
X13388547Y-38005453D01*
X13495003Y-38036711D01*
X13526635Y-38045999D01*
X13526636Y-38045999D01*
X13526639Y-38046000D01*
X13526641Y-38046000D01*
X13668477Y-38046000D01*
X13726668Y-38064907D01*
X13738481Y-38074996D01*
X16245804Y-40582319D01*
X16273581Y-40636836D01*
X16274800Y-40652323D01*
X16274800Y-42865077D01*
X16255893Y-42923268D01*
X16206393Y-42959232D01*
X16145207Y-42959232D01*
X16105796Y-42935081D01*
X11020496Y-37849781D01*
X10992719Y-37795264D01*
X10991500Y-37779777D01*
X10991500Y-37679351D01*
X11010407Y-37621160D01*
X11036978Y-37596066D01*
X11038123Y-37595329D01*
X11047128Y-37589543D01*
X11141377Y-37480773D01*
X11201165Y-37349857D01*
X11216625Y-37242327D01*
X11221647Y-37207402D01*
X11221647Y-37207397D01*
X11201165Y-37064943D01*
X11196965Y-37055746D01*
X11141377Y-36934027D01*
X11047128Y-36825257D01*
X11047127Y-36825256D01*
X11047126Y-36825255D01*
X10926057Y-36747449D01*
X10926054Y-36747447D01*
X10926053Y-36747447D01*
X10926050Y-36747446D01*
X10787964Y-36706900D01*
X10787961Y-36706900D01*
X10644039Y-36706900D01*
X10644035Y-36706900D01*
X10505949Y-36747446D01*
X10505942Y-36747449D01*
X10384873Y-36825255D01*
X10290622Y-36934028D01*
X10230834Y-37064943D01*
X10210353Y-37207397D01*
X10210353Y-37207402D01*
X10230834Y-37349856D01*
X10255695Y-37404292D01*
X10290623Y-37480773D01*
X10384872Y-37589543D01*
X10392963Y-37594743D01*
X10395022Y-37596066D01*
X10433754Y-37643432D01*
X10440500Y-37679351D01*
X10440500Y-37989700D01*
X10447817Y-38007365D01*
X10463821Y-38046001D01*
X10482441Y-38090955D01*
X10482442Y-38090956D01*
X10482443Y-38090958D01*
X15719105Y-43327620D01*
X15746881Y-43382135D01*
X15748100Y-43397622D01*
X15748100Y-51651289D01*
X15729193Y-51709480D01*
X15679693Y-51745444D01*
X15618507Y-51745444D01*
X15595577Y-51734573D01*
X15472457Y-51655449D01*
X15472454Y-51655447D01*
X15472453Y-51655447D01*
X15472450Y-51655446D01*
X15334364Y-51614900D01*
X15334361Y-51614900D01*
X15190439Y-51614900D01*
X15190435Y-51614900D01*
X15052349Y-51655446D01*
X15052342Y-51655449D01*
X14931273Y-51733255D01*
X14837022Y-51842028D01*
X14777234Y-51972943D01*
X14756753Y-52115397D01*
X14756753Y-52115402D01*
X14777234Y-52257856D01*
X14837022Y-52388771D01*
X14837023Y-52388773D01*
X14921549Y-52486322D01*
X14931273Y-52497544D01*
X15052342Y-52575350D01*
X15052347Y-52575353D01*
X15158803Y-52606611D01*
X15190435Y-52615899D01*
X15190436Y-52615899D01*
X15190439Y-52615900D01*
X15190441Y-52615900D01*
X15334359Y-52615900D01*
X15334361Y-52615900D01*
X15472453Y-52575353D01*
X15593528Y-52497543D01*
X15593529Y-52497541D01*
X15595576Y-52496226D01*
X15654752Y-52480671D01*
X15711768Y-52502870D01*
X15744847Y-52554342D01*
X15748100Y-52579510D01*
X15748100Y-53028049D01*
X15729193Y-53086240D01*
X15702624Y-53111333D01*
X15692472Y-53117857D01*
X15598222Y-53226628D01*
X15569736Y-53289003D01*
X15528364Y-53334080D01*
X15468397Y-53346231D01*
X15451792Y-53342866D01*
X15424663Y-53334900D01*
X15424661Y-53334900D01*
X15282823Y-53334900D01*
X15224632Y-53315993D01*
X15212819Y-53305904D01*
X14522996Y-52616081D01*
X14495219Y-52561564D01*
X14494000Y-52546077D01*
X14494000Y-44030300D01*
X14479367Y-43994972D01*
X14452059Y-43929044D01*
X14452058Y-43929043D01*
X14452058Y-43929042D01*
X9964496Y-39441480D01*
X9936719Y-39386963D01*
X9935500Y-39371476D01*
X9935500Y-34771951D01*
X9954407Y-34713760D01*
X9980978Y-34688666D01*
X9982123Y-34687929D01*
X9991128Y-34682143D01*
X10085377Y-34573373D01*
X10145165Y-34442457D01*
X10162333Y-34323049D01*
X10165647Y-34300002D01*
X10165647Y-34299997D01*
X10145165Y-34157543D01*
X10137455Y-34140660D01*
X10085377Y-34026627D01*
X9991128Y-33917857D01*
X9991127Y-33917856D01*
X9991126Y-33917855D01*
X9870057Y-33840049D01*
X9870054Y-33840047D01*
X9870053Y-33840047D01*
X9870050Y-33840046D01*
X9731964Y-33799500D01*
X9731961Y-33799500D01*
X9588039Y-33799500D01*
X9588035Y-33799500D01*
X9449949Y-33840046D01*
X9449942Y-33840049D01*
X9328873Y-33917855D01*
X9234622Y-34026628D01*
X9174834Y-34157543D01*
X9154353Y-34299997D01*
X9154353Y-34300002D01*
X9174834Y-34442456D01*
X9205511Y-34509627D01*
X9234623Y-34573373D01*
X9328872Y-34682143D01*
X9336963Y-34687343D01*
X9339022Y-34688666D01*
X9377754Y-34736032D01*
X9384500Y-34771951D01*
X9384500Y-39249576D01*
X9365593Y-39307767D01*
X9316093Y-39343731D01*
X9254907Y-39343731D01*
X9215496Y-39319580D01*
X8191196Y-38295280D01*
X8163419Y-38240763D01*
X8162200Y-38225276D01*
X8162200Y-35265800D01*
X8120257Y-35164542D01*
X8120257Y-35164541D01*
X8120256Y-35164540D01*
X7875202Y-34919485D01*
X7847425Y-34864969D01*
X7847214Y-34835392D01*
X7854747Y-34783001D01*
X7854747Y-34782997D01*
X7834265Y-34640543D01*
X7774477Y-34509628D01*
X7774477Y-34509627D01*
X7680228Y-34400857D01*
X7680227Y-34400856D01*
X7680226Y-34400855D01*
X7559157Y-34323049D01*
X7559154Y-34323047D01*
X7559153Y-34323047D01*
X7559150Y-34323046D01*
X7421064Y-34282500D01*
X7421061Y-34282500D01*
X7277139Y-34282500D01*
X7277135Y-34282500D01*
X7139049Y-34323046D01*
X7139042Y-34323049D01*
X7017973Y-34400855D01*
X6923722Y-34509628D01*
X6863934Y-34640543D01*
X6843453Y-34782997D01*
X6843453Y-34783002D01*
X6863934Y-34925456D01*
X6923722Y-35056371D01*
X6923723Y-35056373D01*
X7017451Y-35164542D01*
X7017973Y-35165144D01*
X7139042Y-35242950D01*
X7139047Y-35242953D01*
X7216858Y-35265800D01*
X7277135Y-35283499D01*
X7277136Y-35283499D01*
X7277139Y-35283500D01*
X7277141Y-35283500D01*
X7418977Y-35283500D01*
X7477168Y-35302407D01*
X7488980Y-35312496D01*
X7582203Y-35405718D01*
X7609981Y-35460234D01*
X7611200Y-35475722D01*
X7611200Y-38435200D01*
X7653143Y-38536458D01*
X9832005Y-40715320D01*
X9859781Y-40769835D01*
X9861000Y-40785322D01*
X9861000Y-42710777D01*
X9842093Y-42768968D01*
X9792593Y-42804932D01*
X9731407Y-42804932D01*
X9691996Y-42780781D01*
X8986119Y-42074904D01*
X8958342Y-42020387D01*
X8967913Y-41959955D01*
X9011178Y-41916690D01*
X9056123Y-41905900D01*
X9134359Y-41905900D01*
X9134361Y-41905900D01*
X9272453Y-41865353D01*
X9393528Y-41787543D01*
X9487777Y-41678773D01*
X9547565Y-41547857D01*
X9559518Y-41464721D01*
X9568047Y-41405402D01*
X9568047Y-41405397D01*
X9547565Y-41262943D01*
X9487777Y-41132028D01*
X9487777Y-41132027D01*
X9393528Y-41023257D01*
X9393527Y-41023256D01*
X9393526Y-41023255D01*
X9272457Y-40945449D01*
X9272454Y-40945447D01*
X9272453Y-40945447D01*
X9272450Y-40945446D01*
X9134364Y-40904900D01*
X9134361Y-40904900D01*
X8990439Y-40904900D01*
X8990435Y-40904900D01*
X8852349Y-40945446D01*
X8852342Y-40945449D01*
X8731273Y-41023255D01*
X8637022Y-41132028D01*
X8577234Y-41262943D01*
X8556753Y-41405397D01*
X8556753Y-41406530D01*
X8556460Y-41407429D01*
X8555745Y-41412408D01*
X8554883Y-41412284D01*
X8537846Y-41464721D01*
X8488346Y-41500685D01*
X8427160Y-41500685D01*
X8387749Y-41476534D01*
X5421396Y-38510181D01*
X5393619Y-38455664D01*
X5392400Y-38440177D01*
X5392400Y-37458351D01*
X5411307Y-37400160D01*
X5437878Y-37375066D01*
X5440714Y-37373243D01*
X5448028Y-37368543D01*
X5542277Y-37259773D01*
X5602065Y-37128857D01*
X5621676Y-36992457D01*
X5622547Y-36986402D01*
X5622547Y-36986397D01*
X5602065Y-36843943D01*
X5557996Y-36747447D01*
X5542277Y-36713027D01*
X5448028Y-36604257D01*
X5448027Y-36604256D01*
X5448026Y-36604255D01*
X5326957Y-36526449D01*
X5326954Y-36526447D01*
X5326953Y-36526447D01*
X5326950Y-36526446D01*
X5188864Y-36485900D01*
X5188861Y-36485900D01*
X5044939Y-36485900D01*
X5044935Y-36485900D01*
X4906849Y-36526446D01*
X4906842Y-36526449D01*
X4785773Y-36604255D01*
X4691522Y-36713028D01*
X4631734Y-36843943D01*
X4611253Y-36986397D01*
X4611253Y-36986402D01*
X4631734Y-37128856D01*
X4678905Y-37232143D01*
X4691523Y-37259773D01*
X4785772Y-37368543D01*
X4793086Y-37373243D01*
X4795922Y-37375066D01*
X4834654Y-37422432D01*
X4841400Y-37458351D01*
X4841400Y-38436277D01*
X4822493Y-38494468D01*
X4772993Y-38530432D01*
X4711807Y-38530432D01*
X4672396Y-38506281D01*
X3818301Y-37652186D01*
X3790524Y-37597669D01*
X3790313Y-37568098D01*
X3797847Y-37515700D01*
X3797102Y-37510520D01*
X3777365Y-37373243D01*
X3775219Y-37368543D01*
X3717577Y-37242327D01*
X3623328Y-37133557D01*
X3623327Y-37133556D01*
X3623326Y-37133555D01*
X3502257Y-37055749D01*
X3502254Y-37055747D01*
X3502253Y-37055747D01*
X3502250Y-37055746D01*
X3364164Y-37015200D01*
X3364161Y-37015200D01*
X3220239Y-37015200D01*
X3220235Y-37015200D01*
X3082149Y-37055746D01*
X3082142Y-37055749D01*
X2961073Y-37133555D01*
X2866822Y-37242328D01*
X2807034Y-37373243D01*
X2786553Y-37515697D01*
X2786553Y-37515702D01*
X2807034Y-37658156D01*
X2866822Y-37789071D01*
X2866823Y-37789073D01*
X2961072Y-37897843D01*
X2961073Y-37897844D01*
X3007443Y-37927644D01*
X3082147Y-37975653D01*
X3183638Y-38005453D01*
X3220235Y-38016199D01*
X3220236Y-38016199D01*
X3220239Y-38016200D01*
X3220241Y-38016200D01*
X3362077Y-38016200D01*
X3420268Y-38035107D01*
X3432081Y-38045196D01*
X6137737Y-40750852D01*
X6165514Y-40805369D01*
X6155943Y-40865801D01*
X6112678Y-40909066D01*
X6052246Y-40918637D01*
X6039843Y-40915846D01*
X6002566Y-40904901D01*
X6002562Y-40904900D01*
X6002561Y-40904900D01*
X5858639Y-40904900D01*
X5858635Y-40904900D01*
X5720549Y-40945446D01*
X5720542Y-40945449D01*
X5599473Y-41023255D01*
X5505222Y-41132028D01*
X5445434Y-41262943D01*
X5424953Y-41405397D01*
X5424953Y-41405402D01*
X5445434Y-41547856D01*
X5476053Y-41614900D01*
X5505223Y-41678773D01*
X5573166Y-41757184D01*
X5599473Y-41787544D01*
X5720542Y-41865350D01*
X5720547Y-41865353D01*
X5827003Y-41896611D01*
X5858635Y-41905899D01*
X5858636Y-41905899D01*
X5858639Y-41905900D01*
X5858641Y-41905900D01*
X6002559Y-41905900D01*
X6002561Y-41905900D01*
X6140653Y-41865353D01*
X6261728Y-41787543D01*
X6355977Y-41678773D01*
X6415765Y-41547857D01*
X6427718Y-41464721D01*
X6436247Y-41405402D01*
X6436247Y-41405397D01*
X6418792Y-41283996D01*
X6429225Y-41223707D01*
X6473103Y-41181065D01*
X6533666Y-41172357D01*
X6586788Y-41199903D01*
X7898104Y-42511219D01*
X7925881Y-42565736D01*
X7927100Y-42581223D01*
X7927100Y-48663527D01*
X7908193Y-48721718D01*
X7858693Y-48757682D01*
X7797507Y-48757682D01*
X7774582Y-48746814D01*
X7772461Y-48745451D01*
X7772454Y-48745448D01*
X7772453Y-48745447D01*
X7772450Y-48745446D01*
X7634364Y-48704900D01*
X7634361Y-48704900D01*
X7490439Y-48704900D01*
X7490435Y-48704900D01*
X7352349Y-48745446D01*
X7352342Y-48745449D01*
X7231273Y-48823255D01*
X7137022Y-48932028D01*
X7077234Y-49062943D01*
X7056753Y-49205397D01*
X7056753Y-49205402D01*
X7077234Y-49347856D01*
X7077750Y-49348985D01*
X7137023Y-49478773D01*
X7227673Y-49583389D01*
X7231273Y-49587544D01*
X7352342Y-49665350D01*
X7352347Y-49665353D01*
X7449519Y-49693885D01*
X7490435Y-49705899D01*
X7490436Y-49705899D01*
X7490439Y-49705900D01*
X7490441Y-49705900D01*
X7634359Y-49705900D01*
X7634361Y-49705900D01*
X7772453Y-49665353D01*
X7774576Y-49663988D01*
X7776611Y-49663453D01*
X7778894Y-49662411D01*
X7779074Y-49662805D01*
X7833749Y-49648433D01*
X7890766Y-49670630D01*
X7923847Y-49722102D01*
X7927100Y-49747272D01*
X7927100Y-50492877D01*
X7908193Y-50551068D01*
X7858693Y-50587032D01*
X7797507Y-50587032D01*
X7758096Y-50562881D01*
X6000996Y-48805781D01*
X5973219Y-48751264D01*
X5972000Y-48735777D01*
X5972000Y-43202751D01*
X5990907Y-43144560D01*
X6017478Y-43119466D01*
X6018623Y-43118729D01*
X6027628Y-43112943D01*
X6121877Y-43004173D01*
X6181665Y-42873257D01*
X6194961Y-42780781D01*
X6202147Y-42730802D01*
X6202147Y-42730797D01*
X6181665Y-42588343D01*
X6140198Y-42497544D01*
X6121877Y-42457427D01*
X6027628Y-42348657D01*
X6027627Y-42348656D01*
X6027626Y-42348655D01*
X5906557Y-42270849D01*
X5906554Y-42270847D01*
X5906553Y-42270847D01*
X5906550Y-42270846D01*
X5768464Y-42230300D01*
X5768461Y-42230300D01*
X5624539Y-42230300D01*
X5624535Y-42230300D01*
X5486449Y-42270846D01*
X5486442Y-42270849D01*
X5365373Y-42348655D01*
X5271122Y-42457428D01*
X5211334Y-42588343D01*
X5190853Y-42730797D01*
X5190853Y-42730802D01*
X5211334Y-42873256D01*
X5239569Y-42935081D01*
X5271123Y-43004173D01*
X5365372Y-43112943D01*
X5373463Y-43118143D01*
X5375522Y-43119466D01*
X5414254Y-43166832D01*
X5421000Y-43202751D01*
X5421000Y-48945700D01*
X5462943Y-49046958D01*
X11369343Y-54953358D01*
X11369342Y-54953358D01*
X11446838Y-55030853D01*
X11446842Y-55030857D01*
X11548100Y-55072800D01*
X11548101Y-55072800D01*
X13061799Y-55072800D01*
X13061800Y-55072800D01*
X13163058Y-55030857D01*
X13240557Y-54953358D01*
X13240556Y-54953358D01*
X13564420Y-54629496D01*
X13618937Y-54601719D01*
X13634423Y-54600500D01*
X13695559Y-54600500D01*
X13695561Y-54600500D01*
X13833653Y-54559953D01*
X13954728Y-54482143D01*
X13998781Y-54431302D01*
X14051176Y-54399707D01*
X14112137Y-54404942D01*
X14148417Y-54431301D01*
X14184873Y-54473373D01*
X14192473Y-54482144D01*
X14313542Y-54559950D01*
X14313547Y-54559953D01*
X14411693Y-54588771D01*
X14451635Y-54600499D01*
X14451636Y-54600499D01*
X14451639Y-54600500D01*
X14451641Y-54600500D01*
X14595559Y-54600500D01*
X14595561Y-54600500D01*
X14733653Y-54559953D01*
X14854728Y-54482143D01*
X14948977Y-54373373D01*
X14973005Y-54320758D01*
X15014376Y-54275681D01*
X15074342Y-54263530D01*
X15116580Y-54278601D01*
X15142647Y-54295353D01*
X15249103Y-54326611D01*
X15280735Y-54335899D01*
X15280736Y-54335899D01*
X15280739Y-54335900D01*
X15280741Y-54335900D01*
X15424659Y-54335900D01*
X15424661Y-54335900D01*
X15562753Y-54295353D01*
X15683828Y-54217543D01*
X15778077Y-54108773D01*
X15806564Y-54046395D01*
X15847934Y-54001320D01*
X15907900Y-53989168D01*
X15924509Y-53992534D01*
X15951633Y-54000499D01*
X15951638Y-54000499D01*
X15951639Y-54000500D01*
X15951640Y-54000500D01*
X16095559Y-54000500D01*
X16095561Y-54000500D01*
X16147910Y-53985129D01*
X16209068Y-53986876D01*
X16257521Y-54024239D01*
X16274800Y-54080119D01*
X16274800Y-57012952D01*
X16255893Y-57071143D01*
X16250620Y-57077782D01*
X16212023Y-57122326D01*
X16152234Y-57253243D01*
X16131753Y-57395697D01*
X16131753Y-57395702D01*
X16152234Y-57538156D01*
X16173719Y-57585200D01*
X16212023Y-57669073D01*
X16238823Y-57700002D01*
X16306273Y-57777844D01*
X16427342Y-57855650D01*
X16427347Y-57855653D01*
X16498779Y-57876627D01*
X16565435Y-57896199D01*
X16565436Y-57896199D01*
X16565439Y-57896200D01*
X16565441Y-57896200D01*
X16709359Y-57896200D01*
X16709361Y-57896200D01*
X16847453Y-57855653D01*
X16968528Y-57777843D01*
X17062777Y-57669073D01*
X17122565Y-57538157D01*
X17138600Y-57426628D01*
X17143047Y-57395702D01*
X17143047Y-57395697D01*
X17122565Y-57253243D01*
X17121084Y-57250000D01*
X17062777Y-57122327D01*
X16968528Y-57013557D01*
X16871276Y-56951057D01*
X16832545Y-56903691D01*
X16825800Y-56867773D01*
X16825800Y-54750823D01*
X16844707Y-54692632D01*
X16894207Y-54656668D01*
X16955393Y-54656668D01*
X16994804Y-54680819D01*
X19427497Y-57113512D01*
X19455274Y-57168029D01*
X19455485Y-57197603D01*
X19450130Y-57234863D01*
X19447953Y-57250003D01*
X19468434Y-57392456D01*
X19528222Y-57523371D01*
X19528223Y-57523373D01*
X19581795Y-57585199D01*
X19625094Y-57635169D01*
X19648911Y-57691529D01*
X19635052Y-57751124D01*
X19625093Y-57764831D01*
X19541756Y-57861007D01*
X19489360Y-57892603D01*
X19428399Y-57887367D01*
X19392118Y-57861007D01*
X19354729Y-57817857D01*
X19354727Y-57817856D01*
X19233657Y-57740049D01*
X19233654Y-57740047D01*
X19233653Y-57740047D01*
X19233650Y-57740046D01*
X19095564Y-57699500D01*
X19095561Y-57699500D01*
X18951639Y-57699500D01*
X18951635Y-57699500D01*
X18813549Y-57740046D01*
X18813542Y-57740049D01*
X18692473Y-57817855D01*
X18598222Y-57926628D01*
X18538434Y-58057543D01*
X18517953Y-58199997D01*
X18517953Y-58200002D01*
X18538434Y-58342456D01*
X18590926Y-58457396D01*
X18598223Y-58473373D01*
X18649148Y-58532144D01*
X18692473Y-58582144D01*
X18813542Y-58659950D01*
X18813547Y-58659953D01*
X18920003Y-58691211D01*
X18951635Y-58700499D01*
X18951636Y-58700499D01*
X18951639Y-58700500D01*
X18951641Y-58700500D01*
X19095559Y-58700500D01*
X19095561Y-58700500D01*
X19233653Y-58659953D01*
X19354728Y-58582143D01*
X19435444Y-58488990D01*
X19487838Y-58457396D01*
X19548799Y-58462631D01*
X19585081Y-58488992D01*
X19622470Y-58532141D01*
X19622472Y-58532143D01*
X19700273Y-58582143D01*
X19743547Y-58609953D01*
X19850003Y-58641211D01*
X19881635Y-58650499D01*
X19881636Y-58650499D01*
X19881639Y-58650500D01*
X19881641Y-58650500D01*
X20025559Y-58650500D01*
X20025561Y-58650500D01*
X20163653Y-58609953D01*
X20284728Y-58532143D01*
X20378977Y-58423373D01*
X20438765Y-58292457D01*
X20451986Y-58200500D01*
X20459247Y-58150002D01*
X20459247Y-58150000D01*
X20451713Y-58097604D01*
X20462145Y-58037319D01*
X20479698Y-58013516D01*
X20587059Y-57906155D01*
X20641574Y-57878380D01*
X20702006Y-57887951D01*
X20745271Y-57931216D01*
X20747114Y-57935035D01*
X20764621Y-57973370D01*
X20764622Y-57973371D01*
X20764623Y-57973373D01*
X20820032Y-58037319D01*
X20858873Y-58082144D01*
X20964463Y-58150002D01*
X20979947Y-58159953D01*
X21086403Y-58191211D01*
X21118035Y-58200499D01*
X21118036Y-58200499D01*
X21118039Y-58200500D01*
X21118041Y-58200500D01*
X21261959Y-58200500D01*
X21261961Y-58200500D01*
X21400053Y-58159953D01*
X21521128Y-58082143D01*
X21615377Y-57973373D01*
X21675165Y-57842457D01*
X21695647Y-57700000D01*
X21695575Y-57699500D01*
X21675165Y-57557543D01*
X21659559Y-57523371D01*
X21615377Y-57426627D01*
X21521128Y-57317857D01*
X21521127Y-57317856D01*
X21521126Y-57317855D01*
X21427877Y-57257928D01*
X21389145Y-57210562D01*
X21382400Y-57174644D01*
X21382400Y-57084697D01*
X39886353Y-57084697D01*
X39886353Y-57084702D01*
X39906834Y-57227156D01*
X39942796Y-57305900D01*
X39966623Y-57358073D01*
X40002479Y-57399453D01*
X40060873Y-57466844D01*
X40171837Y-57538156D01*
X40181947Y-57544653D01*
X40288403Y-57575911D01*
X40320035Y-57585199D01*
X40320036Y-57585199D01*
X40320039Y-57585200D01*
X40320041Y-57585200D01*
X40463959Y-57585200D01*
X40463961Y-57585200D01*
X40602053Y-57544653D01*
X40723128Y-57466843D01*
X40817377Y-57358073D01*
X40817380Y-57358065D01*
X40818852Y-57355776D01*
X40820618Y-57354331D01*
X40822013Y-57352722D01*
X40822291Y-57352963D01*
X40866215Y-57317041D01*
X40927300Y-57313542D01*
X40955664Y-57326008D01*
X41064102Y-57395697D01*
X41069947Y-57399453D01*
X41162494Y-57426627D01*
X41208035Y-57439999D01*
X41208036Y-57439999D01*
X41208039Y-57440000D01*
X41208041Y-57440000D01*
X41351959Y-57440000D01*
X41351961Y-57440000D01*
X41490053Y-57399453D01*
X41611128Y-57321643D01*
X41705377Y-57212873D01*
X41765165Y-57081957D01*
X41781298Y-56969748D01*
X41785647Y-56939502D01*
X41785647Y-56939497D01*
X41765165Y-56797043D01*
X41761656Y-56789360D01*
X41705377Y-56666127D01*
X41611128Y-56557357D01*
X41611127Y-56557356D01*
X41611126Y-56557355D01*
X41490057Y-56479549D01*
X41490054Y-56479547D01*
X41490053Y-56479547D01*
X41490050Y-56479546D01*
X41351964Y-56439000D01*
X41351961Y-56439000D01*
X41208039Y-56439000D01*
X41208035Y-56439000D01*
X41069949Y-56479546D01*
X41069942Y-56479549D01*
X40948873Y-56557355D01*
X40854619Y-56666132D01*
X40853139Y-56668435D01*
X40851371Y-56669879D01*
X40849987Y-56671478D01*
X40849710Y-56671238D01*
X40805771Y-56707163D01*
X40744685Y-56710653D01*
X40716335Y-56698191D01*
X40602057Y-56624749D01*
X40602054Y-56624747D01*
X40602053Y-56624747D01*
X40602050Y-56624746D01*
X40463964Y-56584200D01*
X40463961Y-56584200D01*
X40320039Y-56584200D01*
X40320035Y-56584200D01*
X40181949Y-56624746D01*
X40181942Y-56624749D01*
X40060873Y-56702555D01*
X39966622Y-56811328D01*
X39906834Y-56942243D01*
X39886353Y-57084697D01*
X21382400Y-57084697D01*
X21382400Y-54315397D01*
X27756353Y-54315397D01*
X27756353Y-54315402D01*
X27776834Y-54457856D01*
X27814702Y-54540773D01*
X27836623Y-54588773D01*
X27930872Y-54697543D01*
X27967324Y-54720969D01*
X27984669Y-54732116D01*
X28023400Y-54779482D01*
X28026893Y-54840568D01*
X27993813Y-54892040D01*
X27984669Y-54898684D01*
X27930872Y-54933257D01*
X27836622Y-55042028D01*
X27776834Y-55172943D01*
X27756353Y-55315394D01*
X27756353Y-55315402D01*
X27776834Y-55457856D01*
X27807963Y-55526018D01*
X27836623Y-55588773D01*
X27905149Y-55667857D01*
X27930873Y-55697544D01*
X28032725Y-55763000D01*
X28051947Y-55775353D01*
X28154432Y-55805445D01*
X28190035Y-55815899D01*
X28190036Y-55815899D01*
X28190039Y-55815900D01*
X28190041Y-55815900D01*
X28333959Y-55815900D01*
X28333961Y-55815900D01*
X28472053Y-55775353D01*
X28593128Y-55697543D01*
X28687377Y-55588773D01*
X28747165Y-55457857D01*
X28761553Y-55357784D01*
X28767647Y-55315402D01*
X28767647Y-55315394D01*
X28747165Y-55172943D01*
X28701691Y-55073371D01*
X28691017Y-55049997D01*
X33719353Y-55049997D01*
X33719353Y-55050002D01*
X33739834Y-55192456D01*
X33781887Y-55284537D01*
X33799623Y-55323373D01*
X33893872Y-55432143D01*
X33933884Y-55457857D01*
X33947669Y-55466716D01*
X33986400Y-55514082D01*
X33989893Y-55575168D01*
X33956813Y-55626640D01*
X33947669Y-55633284D01*
X33893872Y-55667857D01*
X33799622Y-55776628D01*
X33739834Y-55907543D01*
X33719353Y-56049997D01*
X33719353Y-56050002D01*
X33739834Y-56192456D01*
X33799622Y-56323371D01*
X33799623Y-56323373D01*
X33886171Y-56423255D01*
X33893873Y-56432144D01*
X33967634Y-56479547D01*
X34014947Y-56509953D01*
X34121403Y-56541211D01*
X34153035Y-56550499D01*
X34153036Y-56550499D01*
X34153039Y-56550500D01*
X34153041Y-56550500D01*
X34296959Y-56550500D01*
X34296961Y-56550500D01*
X34435053Y-56509953D01*
X34556128Y-56432143D01*
X34650377Y-56323373D01*
X34710165Y-56192457D01*
X34716992Y-56144971D01*
X34730647Y-56050002D01*
X34730647Y-56049997D01*
X34713430Y-55930253D01*
X45489500Y-55930253D01*
X45489500Y-56969746D01*
X45489501Y-56969758D01*
X45501132Y-57028227D01*
X45501134Y-57028233D01*
X45537031Y-57081956D01*
X45545448Y-57094552D01*
X45611769Y-57138867D01*
X45656231Y-57147711D01*
X45670241Y-57150498D01*
X45670246Y-57150498D01*
X45670252Y-57150500D01*
X45670253Y-57150500D01*
X46709747Y-57150500D01*
X46709748Y-57150500D01*
X46768231Y-57138867D01*
X46834552Y-57094552D01*
X46878867Y-57028231D01*
X46890500Y-56969748D01*
X46890500Y-55930253D01*
X50189500Y-55930253D01*
X50189500Y-56969746D01*
X50189501Y-56969758D01*
X50201132Y-57028227D01*
X50201134Y-57028233D01*
X50237031Y-57081956D01*
X50245448Y-57094552D01*
X50311769Y-57138867D01*
X50356231Y-57147711D01*
X50370241Y-57150498D01*
X50370246Y-57150498D01*
X50370252Y-57150500D01*
X50370253Y-57150500D01*
X51409747Y-57150500D01*
X51409748Y-57150500D01*
X51468231Y-57138867D01*
X51534552Y-57094552D01*
X51578867Y-57028231D01*
X51590500Y-56969748D01*
X51590500Y-55930252D01*
X51579295Y-55873921D01*
X68278100Y-55873921D01*
X68278100Y-56001078D01*
X68302905Y-56125782D01*
X68302907Y-56125788D01*
X68351565Y-56243258D01*
X68360153Y-56256110D01*
X68422208Y-56348982D01*
X68512118Y-56438892D01*
X68617841Y-56509534D01*
X68735315Y-56558194D01*
X68860024Y-56583000D01*
X68860025Y-56583000D01*
X69647175Y-56583000D01*
X69647176Y-56583000D01*
X69771885Y-56558194D01*
X69889359Y-56509534D01*
X69995082Y-56438892D01*
X70084992Y-56348982D01*
X70155634Y-56243259D01*
X70204294Y-56125785D01*
X70229100Y-56001076D01*
X70229100Y-55873924D01*
X70204294Y-55749215D01*
X70155634Y-55631741D01*
X70084992Y-55526018D01*
X69995082Y-55436108D01*
X69889359Y-55365466D01*
X69889360Y-55365466D01*
X69889358Y-55365465D01*
X69771888Y-55316807D01*
X69771882Y-55316805D01*
X69647178Y-55292000D01*
X69647176Y-55292000D01*
X68860024Y-55292000D01*
X68860021Y-55292000D01*
X68735317Y-55316805D01*
X68735311Y-55316807D01*
X68617841Y-55365465D01*
X68512118Y-55436108D01*
X68512114Y-55436111D01*
X68422211Y-55526014D01*
X68422208Y-55526018D01*
X68351565Y-55631741D01*
X68302907Y-55749211D01*
X68302905Y-55749217D01*
X68278100Y-55873921D01*
X51579295Y-55873921D01*
X51578867Y-55871769D01*
X51534552Y-55805448D01*
X51491421Y-55776628D01*
X51468233Y-55761134D01*
X51468231Y-55761133D01*
X51468228Y-55761132D01*
X51468227Y-55761132D01*
X51409758Y-55749501D01*
X51409748Y-55749500D01*
X50370252Y-55749500D01*
X50370251Y-55749500D01*
X50370241Y-55749501D01*
X50311772Y-55761132D01*
X50311766Y-55761134D01*
X50245451Y-55805445D01*
X50245445Y-55805451D01*
X50201134Y-55871766D01*
X50201132Y-55871772D01*
X50189501Y-55930241D01*
X50189500Y-55930253D01*
X46890500Y-55930253D01*
X46890500Y-55930252D01*
X46878867Y-55871769D01*
X46834552Y-55805448D01*
X46791421Y-55776628D01*
X46768233Y-55761134D01*
X46768231Y-55761133D01*
X46768228Y-55761132D01*
X46768227Y-55761132D01*
X46709758Y-55749501D01*
X46709748Y-55749500D01*
X45670252Y-55749500D01*
X45670251Y-55749500D01*
X45670241Y-55749501D01*
X45611772Y-55761132D01*
X45611766Y-55761134D01*
X45545451Y-55805445D01*
X45545445Y-55805451D01*
X45501134Y-55871766D01*
X45501132Y-55871772D01*
X45489501Y-55930241D01*
X45489500Y-55930253D01*
X34713430Y-55930253D01*
X34710165Y-55907543D01*
X34694812Y-55873925D01*
X34650377Y-55776627D01*
X34556128Y-55667857D01*
X34556127Y-55667856D01*
X34556126Y-55667855D01*
X34502331Y-55633284D01*
X34463600Y-55585919D01*
X34460106Y-55524833D01*
X34493185Y-55473360D01*
X34502331Y-55466716D01*
X34516116Y-55457857D01*
X34556128Y-55432143D01*
X34650377Y-55323373D01*
X34710165Y-55192457D01*
X34730464Y-55051273D01*
X34730647Y-55050002D01*
X34730647Y-55049997D01*
X34710165Y-54907543D01*
X34661051Y-54800000D01*
X34650377Y-54776627D01*
X34556128Y-54667857D01*
X34556127Y-54667856D01*
X34556126Y-54667855D01*
X34435057Y-54590049D01*
X34435054Y-54590047D01*
X34435053Y-54590047D01*
X34435050Y-54590046D01*
X34296964Y-54549500D01*
X34296961Y-54549500D01*
X34153039Y-54549500D01*
X34153035Y-54549500D01*
X34014949Y-54590046D01*
X34014942Y-54590049D01*
X33893873Y-54667855D01*
X33799622Y-54776628D01*
X33739834Y-54907543D01*
X33719353Y-55049997D01*
X28691017Y-55049997D01*
X28687377Y-55042027D01*
X28593128Y-54933257D01*
X28593127Y-54933256D01*
X28593126Y-54933255D01*
X28539331Y-54898684D01*
X28500600Y-54851319D01*
X28497106Y-54790233D01*
X28530185Y-54738760D01*
X28539331Y-54732116D01*
X28593126Y-54697544D01*
X28593125Y-54697544D01*
X28593128Y-54697543D01*
X28687377Y-54588773D01*
X28747165Y-54457857D01*
X28764103Y-54340049D01*
X28767647Y-54315402D01*
X28767647Y-54315397D01*
X28747165Y-54172943D01*
X28741584Y-54160723D01*
X28687377Y-54042027D01*
X28593128Y-53933257D01*
X28593127Y-53933256D01*
X28593126Y-53933255D01*
X28472057Y-53855449D01*
X28472054Y-53855447D01*
X28472053Y-53855447D01*
X28466291Y-53853755D01*
X28333964Y-53814900D01*
X28333961Y-53814900D01*
X28190039Y-53814900D01*
X28190035Y-53814900D01*
X28051949Y-53855446D01*
X28051942Y-53855449D01*
X27930873Y-53933255D01*
X27836622Y-54042028D01*
X27776834Y-54172943D01*
X27756353Y-54315397D01*
X21382400Y-54315397D01*
X21382400Y-53138204D01*
X21401307Y-53080013D01*
X21450807Y-53044049D01*
X21511993Y-53044049D01*
X21522531Y-53048153D01*
X21527347Y-53050353D01*
X21665435Y-53090899D01*
X21665436Y-53090899D01*
X21665439Y-53090900D01*
X21665441Y-53090900D01*
X21809359Y-53090900D01*
X21809361Y-53090900D01*
X21947453Y-53050353D01*
X22068528Y-52972543D01*
X22162777Y-52863773D01*
X22222565Y-52732857D01*
X22243047Y-52590400D01*
X22242882Y-52589254D01*
X22243047Y-52588302D01*
X22243047Y-52583319D01*
X22243909Y-52583319D01*
X22253313Y-52528967D01*
X22297189Y-52486322D01*
X22357752Y-52477612D01*
X22368749Y-52480169D01*
X22490439Y-52515900D01*
X22490441Y-52515900D01*
X22634359Y-52515900D01*
X22634361Y-52515900D01*
X22772453Y-52475353D01*
X22893528Y-52397543D01*
X22987777Y-52288773D01*
X23047565Y-52157857D01*
X23064137Y-52042595D01*
X23068047Y-52015402D01*
X23068047Y-52015397D01*
X23047565Y-51872943D01*
X23021514Y-51815900D01*
X22987777Y-51742027D01*
X22893528Y-51633257D01*
X22893527Y-51633256D01*
X22893526Y-51633255D01*
X22772457Y-51555449D01*
X22772454Y-51555447D01*
X22772453Y-51555447D01*
X22767331Y-51553943D01*
X22634364Y-51514900D01*
X22634361Y-51514900D01*
X22490439Y-51514900D01*
X22490435Y-51514900D01*
X22350001Y-51556135D01*
X22288840Y-51554387D01*
X22240388Y-51517024D01*
X22223150Y-51458317D01*
X22224118Y-51447056D01*
X22243047Y-51315402D01*
X22243047Y-51315397D01*
X22222565Y-51172943D01*
X22206379Y-51137502D01*
X22196284Y-51115397D01*
X24756753Y-51115397D01*
X24756753Y-51115402D01*
X24777234Y-51257856D01*
X24837022Y-51388771D01*
X24837023Y-51388773D01*
X24931272Y-51497543D01*
X24931273Y-51497544D01*
X25022443Y-51556135D01*
X25052347Y-51575353D01*
X25127614Y-51597453D01*
X25190435Y-51615899D01*
X25190436Y-51615899D01*
X25190439Y-51615900D01*
X25190441Y-51615900D01*
X25334359Y-51615900D01*
X25334361Y-51615900D01*
X25472453Y-51575353D01*
X25593528Y-51497543D01*
X25687777Y-51388773D01*
X25747565Y-51257857D01*
X25762817Y-51151778D01*
X25768047Y-51115402D01*
X25768047Y-51115397D01*
X25747565Y-50972943D01*
X25729440Y-50933255D01*
X25687777Y-50842027D01*
X25593528Y-50733257D01*
X25593527Y-50733256D01*
X25593526Y-50733255D01*
X25472457Y-50655449D01*
X25472454Y-50655447D01*
X25472453Y-50655447D01*
X25472450Y-50655446D01*
X25334364Y-50614900D01*
X25334361Y-50614900D01*
X25190439Y-50614900D01*
X25190435Y-50614900D01*
X25052349Y-50655446D01*
X25052342Y-50655449D01*
X24931273Y-50733255D01*
X24837022Y-50842028D01*
X24777234Y-50972943D01*
X24756753Y-51115397D01*
X22196284Y-51115397D01*
X22162777Y-51042027D01*
X22068528Y-50933257D01*
X22068527Y-50933256D01*
X22068526Y-50933255D01*
X21947457Y-50855449D01*
X21947454Y-50855447D01*
X21947453Y-50855447D01*
X21933616Y-50851384D01*
X21809364Y-50814900D01*
X21809361Y-50814900D01*
X21665439Y-50814900D01*
X21665435Y-50814900D01*
X21527345Y-50855447D01*
X21522525Y-50857649D01*
X21461738Y-50864623D01*
X21408462Y-50834535D01*
X21383045Y-50778879D01*
X21382400Y-50767595D01*
X21382400Y-50588204D01*
X21401307Y-50530013D01*
X21450807Y-50494049D01*
X21511993Y-50494049D01*
X21522531Y-50498153D01*
X21527347Y-50500353D01*
X21665435Y-50540899D01*
X21665436Y-50540899D01*
X21665439Y-50540900D01*
X21665441Y-50540900D01*
X21809359Y-50540900D01*
X21809361Y-50540900D01*
X21947453Y-50500353D01*
X22068528Y-50422543D01*
X22161370Y-50315397D01*
X28756353Y-50315397D01*
X28756353Y-50315402D01*
X28776834Y-50457856D01*
X28825775Y-50565019D01*
X28836623Y-50588773D01*
X28930872Y-50697543D01*
X28984669Y-50732116D01*
X29023400Y-50779482D01*
X29026893Y-50840568D01*
X28993813Y-50892040D01*
X28984669Y-50898684D01*
X28930872Y-50933257D01*
X28836622Y-51042028D01*
X28776834Y-51172943D01*
X28756353Y-51315397D01*
X28756353Y-51315402D01*
X28776834Y-51457856D01*
X28830493Y-51575350D01*
X28836623Y-51588773D01*
X28928891Y-51695257D01*
X28930873Y-51697544D01*
X29049409Y-51773722D01*
X29051947Y-51775353D01*
X29136399Y-51800150D01*
X29190035Y-51815899D01*
X29190036Y-51815899D01*
X29190039Y-51815900D01*
X29190041Y-51815900D01*
X29333959Y-51815900D01*
X29333961Y-51815900D01*
X29472053Y-51775353D01*
X29593128Y-51697543D01*
X29687377Y-51588773D01*
X29747165Y-51457857D01*
X29764081Y-51340202D01*
X29767647Y-51315402D01*
X29767647Y-51315397D01*
X29747165Y-51172943D01*
X29730979Y-51137502D01*
X29687377Y-51042027D01*
X29593128Y-50933257D01*
X29593127Y-50933256D01*
X29593126Y-50933255D01*
X29539331Y-50898684D01*
X29500600Y-50851319D01*
X29497106Y-50790233D01*
X29530185Y-50738760D01*
X29539331Y-50732116D01*
X29593128Y-50697543D01*
X29687377Y-50588773D01*
X29747165Y-50457857D01*
X29758526Y-50378836D01*
X29767647Y-50315402D01*
X29767647Y-50315397D01*
X29747165Y-50172943D01*
X29687377Y-50042028D01*
X29687377Y-50042027D01*
X29593128Y-49933257D01*
X29593127Y-49933256D01*
X29593126Y-49933255D01*
X29472057Y-49855449D01*
X29472054Y-49855447D01*
X29472053Y-49855447D01*
X29472050Y-49855446D01*
X29333964Y-49814900D01*
X29333961Y-49814900D01*
X29190039Y-49814900D01*
X29190035Y-49814900D01*
X29051949Y-49855446D01*
X29051942Y-49855449D01*
X28930873Y-49933255D01*
X28836622Y-50042028D01*
X28776834Y-50172943D01*
X28756353Y-50315397D01*
X22161370Y-50315397D01*
X22162777Y-50313773D01*
X22222565Y-50182857D01*
X22243047Y-50040400D01*
X22231910Y-49962943D01*
X22222565Y-49897943D01*
X22203158Y-49855449D01*
X22162777Y-49767027D01*
X22068528Y-49658257D01*
X22068527Y-49658256D01*
X22068526Y-49658255D01*
X21947457Y-49580449D01*
X21947454Y-49580447D01*
X21947453Y-49580447D01*
X21947450Y-49580446D01*
X21809364Y-49539900D01*
X21809361Y-49539900D01*
X21665439Y-49539900D01*
X21665435Y-49539900D01*
X21527345Y-49580447D01*
X21522525Y-49582649D01*
X21461738Y-49589623D01*
X21408462Y-49559535D01*
X21383045Y-49503879D01*
X21382400Y-49492595D01*
X21382400Y-48149797D01*
X23693853Y-48149797D01*
X23693853Y-48149802D01*
X23714334Y-48292256D01*
X23766264Y-48405964D01*
X23774123Y-48423173D01*
X23850575Y-48511404D01*
X23868373Y-48531944D01*
X23989442Y-48609750D01*
X23989447Y-48609753D01*
X24091231Y-48639639D01*
X24127535Y-48650299D01*
X24127536Y-48650299D01*
X24127539Y-48650300D01*
X24127541Y-48650300D01*
X24271459Y-48650300D01*
X24271461Y-48650300D01*
X24409553Y-48609753D01*
X24530628Y-48531943D01*
X24624877Y-48423173D01*
X24684665Y-48292257D01*
X24705147Y-48149800D01*
X24701010Y-48121028D01*
X24684665Y-48007343D01*
X24651374Y-47934447D01*
X24624877Y-47876427D01*
X24530628Y-47767657D01*
X24530627Y-47767656D01*
X24530626Y-47767655D01*
X24526488Y-47764996D01*
X40068017Y-47764996D01*
X40068017Y-47765003D01*
X40088298Y-47970929D01*
X40088299Y-47970934D01*
X40148368Y-48168954D01*
X40245916Y-48351452D01*
X40377185Y-48511404D01*
X40377190Y-48511410D01*
X40377195Y-48511414D01*
X40537147Y-48642683D01*
X40537148Y-48642683D01*
X40537150Y-48642685D01*
X40719646Y-48740232D01*
X40839349Y-48776543D01*
X40917665Y-48800300D01*
X40917670Y-48800301D01*
X41123597Y-48820583D01*
X41123600Y-48820583D01*
X41123603Y-48820583D01*
X41329529Y-48800301D01*
X41329534Y-48800300D01*
X41363304Y-48790056D01*
X41527554Y-48740232D01*
X41710050Y-48642685D01*
X41870010Y-48511410D01*
X42001285Y-48351450D01*
X42098832Y-48168954D01*
X42158900Y-47970934D01*
X42158901Y-47970929D01*
X42179183Y-47765003D01*
X42179183Y-47764996D01*
X42158901Y-47559070D01*
X42158900Y-47559065D01*
X42120119Y-47431222D01*
X42098832Y-47361046D01*
X42001285Y-47178550D01*
X41953267Y-47120040D01*
X41870014Y-47018595D01*
X41870010Y-47018590D01*
X41832202Y-46987562D01*
X41710052Y-46887316D01*
X41527554Y-46789768D01*
X41329534Y-46729699D01*
X41329529Y-46729698D01*
X41123603Y-46709417D01*
X41123597Y-46709417D01*
X40917670Y-46729698D01*
X40917665Y-46729699D01*
X40719645Y-46789768D01*
X40537147Y-46887316D01*
X40377195Y-47018585D01*
X40377185Y-47018595D01*
X40245916Y-47178547D01*
X40148368Y-47361045D01*
X40088299Y-47559065D01*
X40088298Y-47559070D01*
X40068017Y-47764996D01*
X24526488Y-47764996D01*
X24409557Y-47689849D01*
X24409554Y-47689847D01*
X24409553Y-47689847D01*
X24409550Y-47689846D01*
X24271464Y-47649300D01*
X24271461Y-47649300D01*
X24127539Y-47649300D01*
X24127535Y-47649300D01*
X23989449Y-47689846D01*
X23989442Y-47689849D01*
X23868373Y-47767655D01*
X23774122Y-47876428D01*
X23714334Y-48007343D01*
X23693853Y-48149797D01*
X21382400Y-48149797D01*
X21382400Y-47221300D01*
X21347993Y-47138235D01*
X21340457Y-47120042D01*
X21340457Y-47120041D01*
X21340456Y-47120040D01*
X21262496Y-47042079D01*
X21234719Y-46987562D01*
X21233500Y-46972076D01*
X21233500Y-46015397D01*
X37157353Y-46015397D01*
X37157353Y-46015402D01*
X37177834Y-46157856D01*
X37206010Y-46219552D01*
X37237623Y-46288773D01*
X37331872Y-46397543D01*
X37331873Y-46397544D01*
X37452942Y-46475350D01*
X37452947Y-46475353D01*
X37559403Y-46506611D01*
X37591035Y-46515899D01*
X37591036Y-46515899D01*
X37591039Y-46515900D01*
X37591041Y-46515900D01*
X37734959Y-46515900D01*
X37734961Y-46515900D01*
X37873053Y-46475353D01*
X37994128Y-46397543D01*
X38088377Y-46288773D01*
X38148165Y-46157857D01*
X38166627Y-46029449D01*
X38168647Y-46015402D01*
X38168647Y-46015397D01*
X38148165Y-45872943D01*
X38088377Y-45742028D01*
X38088377Y-45742027D01*
X37994128Y-45633257D01*
X37994127Y-45633256D01*
X37994126Y-45633255D01*
X37873057Y-45555449D01*
X37873054Y-45555447D01*
X37873053Y-45555447D01*
X37873050Y-45555446D01*
X37734964Y-45514900D01*
X37734961Y-45514900D01*
X37591039Y-45514900D01*
X37591035Y-45514900D01*
X37452949Y-45555446D01*
X37452942Y-45555449D01*
X37331873Y-45633255D01*
X37237622Y-45742028D01*
X37177834Y-45872943D01*
X37157353Y-46015397D01*
X21233500Y-46015397D01*
X21233500Y-44799997D01*
X23317953Y-44799997D01*
X23317953Y-44800002D01*
X23338434Y-44942456D01*
X23398222Y-45073371D01*
X23398223Y-45073373D01*
X23492472Y-45182143D01*
X23492473Y-45182144D01*
X23613542Y-45259950D01*
X23613547Y-45259953D01*
X23720003Y-45291211D01*
X23751635Y-45300499D01*
X23751636Y-45300499D01*
X23751639Y-45300500D01*
X23751641Y-45300500D01*
X23895559Y-45300500D01*
X23895561Y-45300500D01*
X24033653Y-45259953D01*
X24154728Y-45182143D01*
X24248977Y-45073373D01*
X24308765Y-44942457D01*
X24329247Y-44800000D01*
X24308765Y-44657543D01*
X24248977Y-44526627D01*
X24154728Y-44417857D01*
X24154727Y-44417856D01*
X24154726Y-44417855D01*
X24057315Y-44355253D01*
X40073100Y-44355253D01*
X40073100Y-46094746D01*
X40073101Y-46094758D01*
X40084732Y-46153227D01*
X40084734Y-46153233D01*
X40126693Y-46216028D01*
X40129048Y-46219552D01*
X40195369Y-46263867D01*
X40239831Y-46272711D01*
X40253841Y-46275498D01*
X40253846Y-46275498D01*
X40253852Y-46275500D01*
X40253853Y-46275500D01*
X41993347Y-46275500D01*
X41993348Y-46275500D01*
X42051831Y-46263867D01*
X42118152Y-46219552D01*
X42162467Y-46153231D01*
X42174100Y-46094748D01*
X42174100Y-44355252D01*
X42162467Y-44296769D01*
X42118152Y-44230448D01*
X42105659Y-44222100D01*
X42051833Y-44186134D01*
X42051831Y-44186133D01*
X42051828Y-44186132D01*
X42051827Y-44186132D01*
X41993358Y-44174501D01*
X41993348Y-44174500D01*
X40253852Y-44174500D01*
X40253851Y-44174500D01*
X40253841Y-44174501D01*
X40195372Y-44186132D01*
X40195366Y-44186134D01*
X40129051Y-44230445D01*
X40129045Y-44230451D01*
X40084734Y-44296766D01*
X40084732Y-44296772D01*
X40073101Y-44355241D01*
X40073100Y-44355253D01*
X24057315Y-44355253D01*
X24033657Y-44340049D01*
X24033654Y-44340047D01*
X24033653Y-44340047D01*
X24033650Y-44340046D01*
X23895564Y-44299500D01*
X23895561Y-44299500D01*
X23751639Y-44299500D01*
X23751635Y-44299500D01*
X23613549Y-44340046D01*
X23613542Y-44340049D01*
X23492473Y-44417855D01*
X23398222Y-44526628D01*
X23338434Y-44657543D01*
X23317953Y-44799997D01*
X21233500Y-44799997D01*
X21233500Y-42755497D01*
X36486353Y-42755497D01*
X36486353Y-42755502D01*
X36506834Y-42897956D01*
X36548892Y-42990049D01*
X36566623Y-43028873D01*
X36645122Y-43119466D01*
X36660873Y-43137644D01*
X36762182Y-43202751D01*
X36781947Y-43215453D01*
X36888403Y-43246711D01*
X36920035Y-43255999D01*
X36920036Y-43255999D01*
X36920039Y-43256000D01*
X36920041Y-43256000D01*
X37063959Y-43256000D01*
X37063961Y-43256000D01*
X37202053Y-43215453D01*
X37323128Y-43137643D01*
X37417377Y-43028873D01*
X37477165Y-42897957D01*
X37497647Y-42755500D01*
X37494095Y-42730797D01*
X37477165Y-42613043D01*
X37430663Y-42511219D01*
X37417377Y-42482127D01*
X37323128Y-42373357D01*
X37323127Y-42373356D01*
X37323126Y-42373355D01*
X37202057Y-42295549D01*
X37202054Y-42295547D01*
X37202053Y-42295547D01*
X37202050Y-42295546D01*
X37063964Y-42255000D01*
X37063961Y-42255000D01*
X36920039Y-42255000D01*
X36920035Y-42255000D01*
X36781949Y-42295546D01*
X36781942Y-42295549D01*
X36660873Y-42373355D01*
X36566622Y-42482128D01*
X36506834Y-42613043D01*
X36486353Y-42755497D01*
X21233500Y-42755497D01*
X21233500Y-42115397D01*
X30757353Y-42115397D01*
X30757353Y-42115402D01*
X30777834Y-42257856D01*
X30829643Y-42371300D01*
X30837623Y-42388773D01*
X30918514Y-42482127D01*
X30931873Y-42497544D01*
X31052942Y-42575350D01*
X31052947Y-42575353D01*
X31159403Y-42606611D01*
X31191035Y-42615899D01*
X31191036Y-42615899D01*
X31191039Y-42615900D01*
X31191041Y-42615900D01*
X31334959Y-42615900D01*
X31334961Y-42615900D01*
X31473053Y-42575353D01*
X31594128Y-42497543D01*
X31688377Y-42388773D01*
X31748165Y-42257857D01*
X31768647Y-42115400D01*
X31748165Y-41972943D01*
X31688377Y-41842027D01*
X31594128Y-41733257D01*
X31594127Y-41733256D01*
X31594126Y-41733255D01*
X31473057Y-41655449D01*
X31473054Y-41655447D01*
X31473053Y-41655447D01*
X31473050Y-41655446D01*
X31334964Y-41614900D01*
X31334961Y-41614900D01*
X31191039Y-41614900D01*
X31191035Y-41614900D01*
X31052949Y-41655446D01*
X31052942Y-41655449D01*
X30931873Y-41733255D01*
X30837622Y-41842028D01*
X30777834Y-41972943D01*
X30757353Y-42115397D01*
X21233500Y-42115397D01*
X21233500Y-39483802D01*
X21233498Y-39483794D01*
X21228529Y-39471799D01*
X21228528Y-39471797D01*
X21191558Y-39382542D01*
X18185912Y-36376897D01*
X24575753Y-36376897D01*
X24575753Y-36376902D01*
X24596234Y-36519356D01*
X24632994Y-36599847D01*
X24656023Y-36650273D01*
X24729898Y-36735530D01*
X24750273Y-36759044D01*
X24792882Y-36786427D01*
X24871347Y-36836853D01*
X24977803Y-36868111D01*
X25009435Y-36877399D01*
X25009436Y-36877399D01*
X25009439Y-36877400D01*
X25009441Y-36877400D01*
X25153359Y-36877400D01*
X25153361Y-36877400D01*
X25246688Y-36849997D01*
X28534353Y-36849997D01*
X28534353Y-36850002D01*
X28554834Y-36992456D01*
X28597131Y-37085071D01*
X28614623Y-37123373D01*
X28687434Y-37207402D01*
X28708873Y-37232144D01*
X28829942Y-37309950D01*
X28829947Y-37309953D01*
X28909028Y-37333173D01*
X28968035Y-37350499D01*
X28968036Y-37350499D01*
X28968039Y-37350500D01*
X28968041Y-37350500D01*
X29111959Y-37350500D01*
X29111961Y-37350500D01*
X29250053Y-37309953D01*
X29318110Y-37266215D01*
X29371632Y-37250500D01*
X45683860Y-37250500D01*
X45742051Y-37269407D01*
X45753864Y-37279496D01*
X63520281Y-55045913D01*
X63520280Y-55045913D01*
X63570794Y-55096426D01*
X63594848Y-55120480D01*
X63686174Y-55173207D01*
X63788034Y-55200500D01*
X63893488Y-55200500D01*
X63908368Y-55200500D01*
X63961889Y-55216215D01*
X64029947Y-55259953D01*
X64136403Y-55291211D01*
X64168035Y-55300499D01*
X64168036Y-55300499D01*
X64168039Y-55300500D01*
X64168041Y-55300500D01*
X64311959Y-55300500D01*
X64311961Y-55300500D01*
X64450053Y-55259953D01*
X64571128Y-55182143D01*
X64665377Y-55073373D01*
X64725165Y-54942457D01*
X64745647Y-54800000D01*
X64742103Y-54775353D01*
X64734284Y-54720968D01*
X65878100Y-54720968D01*
X65878100Y-55154031D01*
X65904060Y-55284537D01*
X65954978Y-55407466D01*
X65954979Y-55407468D01*
X65954980Y-55407469D01*
X66028905Y-55518106D01*
X66122994Y-55612195D01*
X66233631Y-55686120D01*
X66356564Y-55737040D01*
X66487069Y-55763000D01*
X66487070Y-55763000D01*
X66620130Y-55763000D01*
X66620131Y-55763000D01*
X66750636Y-55737040D01*
X66873569Y-55686120D01*
X66984206Y-55612195D01*
X67078295Y-55518106D01*
X67152220Y-55407469D01*
X67203140Y-55284536D01*
X67224844Y-55175424D01*
X67254741Y-55122042D01*
X67310307Y-55096426D01*
X67370316Y-55108363D01*
X67396762Y-55129910D01*
X67422871Y-55160042D01*
X67422872Y-55160043D01*
X67443352Y-55173205D01*
X67543947Y-55237853D01*
X67619214Y-55259953D01*
X67682035Y-55278399D01*
X67682036Y-55278399D01*
X67682039Y-55278400D01*
X67682041Y-55278400D01*
X67825959Y-55278400D01*
X67825961Y-55278400D01*
X67964053Y-55237853D01*
X68085128Y-55160043D01*
X68179377Y-55051273D01*
X68239165Y-54920357D01*
X68250637Y-54840568D01*
X68259647Y-54777902D01*
X68259647Y-54777897D01*
X68239165Y-54635443D01*
X68236449Y-54629496D01*
X68179377Y-54504527D01*
X68085128Y-54395757D01*
X68085127Y-54395756D01*
X68085126Y-54395755D01*
X67964057Y-54317949D01*
X67964054Y-54317947D01*
X67964053Y-54317947D01*
X67962136Y-54317384D01*
X67825964Y-54277400D01*
X67825961Y-54277400D01*
X67682039Y-54277400D01*
X67682035Y-54277400D01*
X67543949Y-54317946D01*
X67543942Y-54317949D01*
X67422872Y-54395756D01*
X67422870Y-54395758D01*
X67324592Y-54509177D01*
X67272196Y-54540773D01*
X67211235Y-54535537D01*
X67164994Y-54495469D01*
X67158308Y-54482230D01*
X67152220Y-54467531D01*
X67078295Y-54356894D01*
X66984206Y-54262805D01*
X66948992Y-54239276D01*
X66873566Y-54188878D01*
X66750637Y-54137960D01*
X66620131Y-54112000D01*
X66487069Y-54112000D01*
X66487068Y-54112000D01*
X66356562Y-54137960D01*
X66233633Y-54188878D01*
X66122997Y-54262802D01*
X66028902Y-54356897D01*
X65954978Y-54467533D01*
X65904060Y-54590462D01*
X65878100Y-54720968D01*
X64734284Y-54720968D01*
X64725165Y-54657543D01*
X64699114Y-54600500D01*
X64665377Y-54526627D01*
X64571128Y-54417857D01*
X64571127Y-54417856D01*
X64571126Y-54417855D01*
X64450057Y-54340049D01*
X64450054Y-54340047D01*
X64450053Y-54340047D01*
X64450050Y-54340046D01*
X64311964Y-54299500D01*
X64311961Y-54299500D01*
X64168039Y-54299500D01*
X64168035Y-54299500D01*
X64037060Y-54337958D01*
X64029951Y-54340046D01*
X64023153Y-54342042D01*
X64022256Y-54338988D01*
X63974791Y-54344390D01*
X63924538Y-54317384D01*
X60744651Y-51137497D01*
X63898353Y-51137497D01*
X63898353Y-51137502D01*
X63918834Y-51279956D01*
X63960596Y-51371400D01*
X63978623Y-51410873D01*
X64068762Y-51514900D01*
X64072873Y-51519644D01*
X64193942Y-51597450D01*
X64193947Y-51597453D01*
X64300403Y-51628711D01*
X64332035Y-51637999D01*
X64332036Y-51637999D01*
X64332039Y-51638000D01*
X64332041Y-51638000D01*
X64475959Y-51638000D01*
X64475961Y-51638000D01*
X64614053Y-51597453D01*
X64735128Y-51519643D01*
X64829377Y-51410873D01*
X64861654Y-51340197D01*
X67348353Y-51340197D01*
X67348353Y-51340202D01*
X67368834Y-51482656D01*
X67411167Y-51575350D01*
X67428623Y-51613573D01*
X67500394Y-51696402D01*
X67522873Y-51722344D01*
X67616265Y-51782363D01*
X67643947Y-51800153D01*
X67743336Y-51829336D01*
X67782035Y-51840699D01*
X67782036Y-51840699D01*
X67782039Y-51840700D01*
X67782041Y-51840700D01*
X67925959Y-51840700D01*
X67925961Y-51840700D01*
X68064053Y-51800153D01*
X68185128Y-51722343D01*
X68279377Y-51613573D01*
X68339165Y-51482657D01*
X68354919Y-51373086D01*
X68359647Y-51340202D01*
X68359647Y-51340197D01*
X68339165Y-51197743D01*
X68327839Y-51172943D01*
X68279377Y-51066827D01*
X68185128Y-50958057D01*
X68185127Y-50958056D01*
X68185126Y-50958055D01*
X68064057Y-50880249D01*
X68064054Y-50880247D01*
X68064053Y-50880247D01*
X68064050Y-50880246D01*
X67925964Y-50839700D01*
X67925961Y-50839700D01*
X67782039Y-50839700D01*
X67782035Y-50839700D01*
X67643949Y-50880246D01*
X67643942Y-50880249D01*
X67522873Y-50958055D01*
X67428622Y-51066828D01*
X67368834Y-51197743D01*
X67348353Y-51340197D01*
X64861654Y-51340197D01*
X64889165Y-51279957D01*
X64898860Y-51212527D01*
X64909647Y-51137502D01*
X64909647Y-51137497D01*
X64889165Y-50995043D01*
X64860947Y-50933255D01*
X64829377Y-50864127D01*
X64735128Y-50755357D01*
X64735127Y-50755356D01*
X64735126Y-50755355D01*
X64614057Y-50677549D01*
X64614054Y-50677547D01*
X64614053Y-50677547D01*
X64614050Y-50677546D01*
X64475964Y-50637000D01*
X64475961Y-50637000D01*
X64332039Y-50637000D01*
X64332035Y-50637000D01*
X64193949Y-50677546D01*
X64193942Y-50677549D01*
X64072873Y-50755355D01*
X63978622Y-50864128D01*
X63918834Y-50995043D01*
X63898353Y-51137497D01*
X60744651Y-51137497D01*
X59328122Y-49720968D01*
X65878100Y-49720968D01*
X65878100Y-50154031D01*
X65904060Y-50284537D01*
X65954978Y-50407466D01*
X66021726Y-50507363D01*
X66028905Y-50518106D01*
X66122994Y-50612195D01*
X66233631Y-50686120D01*
X66356564Y-50737040D01*
X66487069Y-50763000D01*
X66487070Y-50763000D01*
X66620130Y-50763000D01*
X66620131Y-50763000D01*
X66750636Y-50737040D01*
X66873569Y-50686120D01*
X66984206Y-50612195D01*
X67078295Y-50518106D01*
X67152220Y-50407469D01*
X67203140Y-50284536D01*
X67229100Y-50154031D01*
X67229100Y-49720969D01*
X67203140Y-49590464D01*
X67152220Y-49467531D01*
X67078295Y-49356894D01*
X66984206Y-49262805D01*
X66954953Y-49243259D01*
X66873566Y-49188878D01*
X66750637Y-49137960D01*
X66620131Y-49112000D01*
X66487069Y-49112000D01*
X66487068Y-49112000D01*
X66356562Y-49137960D01*
X66233633Y-49188878D01*
X66122997Y-49262802D01*
X66028902Y-49356897D01*
X65954978Y-49467533D01*
X65904060Y-49590462D01*
X65878100Y-49720968D01*
X59328122Y-49720968D01*
X58481075Y-48873921D01*
X68278100Y-48873921D01*
X68278100Y-49001078D01*
X68302905Y-49125782D01*
X68302907Y-49125788D01*
X68351565Y-49243258D01*
X68351566Y-49243259D01*
X68422208Y-49348982D01*
X68512118Y-49438892D01*
X68617841Y-49509534D01*
X68735315Y-49558194D01*
X68860024Y-49583000D01*
X68860025Y-49583000D01*
X69647175Y-49583000D01*
X69647176Y-49583000D01*
X69771885Y-49558194D01*
X69889359Y-49509534D01*
X69995082Y-49438892D01*
X70084992Y-49348982D01*
X70155634Y-49243259D01*
X70204294Y-49125785D01*
X70229100Y-49001076D01*
X70229100Y-48873924D01*
X70204294Y-48749215D01*
X70155634Y-48631741D01*
X70084992Y-48526018D01*
X69995082Y-48436108D01*
X69889359Y-48365466D01*
X69889360Y-48365466D01*
X69889358Y-48365465D01*
X69771888Y-48316807D01*
X69771882Y-48316805D01*
X69647178Y-48292000D01*
X69647176Y-48292000D01*
X68860024Y-48292000D01*
X68860021Y-48292000D01*
X68735317Y-48316805D01*
X68735311Y-48316807D01*
X68617841Y-48365465D01*
X68512118Y-48436108D01*
X68512114Y-48436111D01*
X68422211Y-48526014D01*
X68422208Y-48526018D01*
X68351565Y-48631741D01*
X68302907Y-48749211D01*
X68302905Y-48749217D01*
X68278100Y-48873921D01*
X58481075Y-48873921D01*
X55122054Y-45514900D01*
X46136674Y-36529520D01*
X46136671Y-36529518D01*
X46136670Y-36529517D01*
X46136669Y-36529516D01*
X46045352Y-36476794D01*
X46045354Y-36476794D01*
X46005831Y-36466204D01*
X45943488Y-36449500D01*
X45943486Y-36449500D01*
X29371632Y-36449500D01*
X29318110Y-36433784D01*
X29250053Y-36390047D01*
X29250050Y-36390046D01*
X29111964Y-36349500D01*
X29111961Y-36349500D01*
X28968039Y-36349500D01*
X28968035Y-36349500D01*
X28829949Y-36390046D01*
X28829942Y-36390049D01*
X28708873Y-36467855D01*
X28614622Y-36576628D01*
X28554834Y-36707543D01*
X28534353Y-36849997D01*
X25246688Y-36849997D01*
X25291453Y-36836853D01*
X25412528Y-36759043D01*
X25506777Y-36650273D01*
X25566565Y-36519357D01*
X25576609Y-36449500D01*
X25587047Y-36376902D01*
X25587047Y-36376897D01*
X25575991Y-36300000D01*
X54434357Y-36300000D01*
X54454885Y-36521536D01*
X54515771Y-36735528D01*
X54614942Y-36934689D01*
X54749019Y-37112236D01*
X54913438Y-37262124D01*
X55102599Y-37379247D01*
X55310060Y-37459618D01*
X55528757Y-37500500D01*
X55751243Y-37500500D01*
X55969940Y-37459618D01*
X56177401Y-37379247D01*
X56366562Y-37262124D01*
X56530981Y-37112236D01*
X56665058Y-36934689D01*
X56764229Y-36735528D01*
X56825115Y-36521536D01*
X56845643Y-36300000D01*
X56825115Y-36078464D01*
X56764229Y-35864472D01*
X56665058Y-35665311D01*
X56530981Y-35487764D01*
X56366562Y-35337876D01*
X56273497Y-35280253D01*
X64439500Y-35280253D01*
X64439500Y-37319746D01*
X64439501Y-37319758D01*
X64451132Y-37378227D01*
X64451134Y-37378233D01*
X64495445Y-37444548D01*
X64495448Y-37444552D01*
X64561769Y-37488867D01*
X64606231Y-37497711D01*
X64620241Y-37500498D01*
X64620246Y-37500498D01*
X64620252Y-37500500D01*
X64620253Y-37500500D01*
X66659747Y-37500500D01*
X66659748Y-37500500D01*
X66718231Y-37488867D01*
X66784552Y-37444552D01*
X66828867Y-37378231D01*
X66840500Y-37319748D01*
X66840500Y-35280252D01*
X66828867Y-35221769D01*
X66784552Y-35155448D01*
X66762005Y-35140382D01*
X66718233Y-35111134D01*
X66718231Y-35111133D01*
X66718228Y-35111132D01*
X66718227Y-35111132D01*
X66659758Y-35099501D01*
X66659748Y-35099500D01*
X64620252Y-35099500D01*
X64620251Y-35099500D01*
X64620241Y-35099501D01*
X64561772Y-35111132D01*
X64561766Y-35111134D01*
X64495451Y-35155445D01*
X64495445Y-35155451D01*
X64451134Y-35221766D01*
X64451132Y-35221772D01*
X64439501Y-35280241D01*
X64439500Y-35280253D01*
X56273497Y-35280253D01*
X56177401Y-35220753D01*
X55969940Y-35140382D01*
X55969939Y-35140381D01*
X55969937Y-35140381D01*
X55751243Y-35099500D01*
X55528757Y-35099500D01*
X55310062Y-35140381D01*
X55247696Y-35164542D01*
X55102599Y-35220753D01*
X54913438Y-35337876D01*
X54749020Y-35487763D01*
X54614943Y-35665309D01*
X54614938Y-35665318D01*
X54515772Y-35864469D01*
X54515771Y-35864472D01*
X54454885Y-36078464D01*
X54434357Y-36300000D01*
X25575991Y-36300000D01*
X25566565Y-36234443D01*
X25506777Y-36103528D01*
X25506777Y-36103527D01*
X25412528Y-35994757D01*
X25412527Y-35994756D01*
X25412526Y-35994755D01*
X25291457Y-35916949D01*
X25291454Y-35916947D01*
X25291453Y-35916947D01*
X25291450Y-35916946D01*
X25153364Y-35876400D01*
X25153361Y-35876400D01*
X25009439Y-35876400D01*
X25009435Y-35876400D01*
X24871349Y-35916946D01*
X24871342Y-35916949D01*
X24750273Y-35994755D01*
X24656022Y-36103528D01*
X24596234Y-36234443D01*
X24575753Y-36376897D01*
X18185912Y-36376897D01*
X15370775Y-33561760D01*
X15342999Y-33507244D01*
X15352570Y-33446812D01*
X15395835Y-33403547D01*
X15440707Y-33392758D01*
X22324430Y-33388115D01*
X22382634Y-33406983D01*
X22418631Y-33456459D01*
X22422489Y-33501203D01*
X22405353Y-33620395D01*
X22405353Y-33620402D01*
X22425834Y-33762856D01*
X22474472Y-33869356D01*
X22485623Y-33893773D01*
X22506492Y-33917857D01*
X22579873Y-34002544D01*
X22617349Y-34026628D01*
X22700947Y-34080353D01*
X22798657Y-34109043D01*
X22839035Y-34120899D01*
X22839036Y-34120899D01*
X22839039Y-34120900D01*
X22839041Y-34120900D01*
X22982959Y-34120900D01*
X22982961Y-34120900D01*
X23121053Y-34080353D01*
X23242128Y-34002543D01*
X23336377Y-33893773D01*
X23396165Y-33762857D01*
X23406108Y-33693699D01*
X23416647Y-33620402D01*
X23416647Y-33620397D01*
X23399396Y-33500412D01*
X23409829Y-33440123D01*
X23453707Y-33397480D01*
X23497316Y-33387324D01*
X31003144Y-33382261D01*
X31061344Y-33401128D01*
X31097341Y-33450604D01*
X31101199Y-33467172D01*
X31104834Y-33492455D01*
X31104835Y-33492457D01*
X31164623Y-33623373D01*
X31254329Y-33726900D01*
X31258873Y-33732144D01*
X31379942Y-33809950D01*
X31379947Y-33809953D01*
X31482436Y-33840046D01*
X31518035Y-33850499D01*
X31518036Y-33850499D01*
X31518039Y-33850500D01*
X31518041Y-33850500D01*
X31661959Y-33850500D01*
X31661961Y-33850500D01*
X31800053Y-33809953D01*
X31868110Y-33766215D01*
X31921632Y-33750500D01*
X41923698Y-33750500D01*
X41928707Y-33750627D01*
X41968747Y-33752655D01*
X41968747Y-33752654D01*
X41968749Y-33752655D01*
X41968750Y-33752654D01*
X41969594Y-33752587D01*
X41988175Y-33750618D01*
X41989068Y-33750500D01*
X41989073Y-33750500D01*
X42027816Y-33740117D01*
X42032619Y-33738960D01*
X42071860Y-33730548D01*
X42071868Y-33730543D01*
X42072777Y-33730220D01*
X42090053Y-33723571D01*
X42090930Y-33723207D01*
X42090933Y-33723207D01*
X42125674Y-33703148D01*
X42130034Y-33700776D01*
X42165735Y-33682507D01*
X42165736Y-33682505D01*
X42166514Y-33681969D01*
X42181489Y-33671070D01*
X42182252Y-33670483D01*
X42182259Y-33670480D01*
X42210629Y-33642108D01*
X42214217Y-33638697D01*
X42478359Y-33400019D01*
X42534207Y-33375037D01*
X42544648Y-33374476D01*
X70380437Y-33355701D01*
X70438637Y-33374568D01*
G37*
%TD.AperFunction*%
%TA.AperFunction,Conductor*%
G36*
X17304303Y-42346018D02*
G01*
X17689081Y-42730797D01*
X18067497Y-43109213D01*
X18095274Y-43163730D01*
X18085703Y-43224162D01*
X18051017Y-43262501D01*
X17931272Y-43339457D01*
X17837022Y-43448228D01*
X17777234Y-43579143D01*
X17756753Y-43721597D01*
X17756753Y-43721602D01*
X17777234Y-43864056D01*
X17837022Y-43994971D01*
X17837023Y-43994973D01*
X17931272Y-44103743D01*
X17931273Y-44103744D01*
X18052342Y-44181550D01*
X18052347Y-44181553D01*
X18158803Y-44212811D01*
X18190435Y-44222099D01*
X18190436Y-44222099D01*
X18190439Y-44222100D01*
X18190441Y-44222100D01*
X18334359Y-44222100D01*
X18334361Y-44222100D01*
X18472453Y-44181553D01*
X18593528Y-44103743D01*
X18687777Y-43994973D01*
X18711775Y-43942424D01*
X18753147Y-43897348D01*
X18813113Y-43885197D01*
X18868769Y-43910615D01*
X18871832Y-43913548D01*
X19520404Y-44562119D01*
X19548181Y-44616636D01*
X19549400Y-44632123D01*
X19549400Y-49496792D01*
X19530493Y-49554983D01*
X19480993Y-49590947D01*
X19419807Y-49590947D01*
X19403037Y-49582997D01*
X19397454Y-49580448D01*
X19397453Y-49580447D01*
X19397450Y-49580446D01*
X19259364Y-49539900D01*
X19259361Y-49539900D01*
X19115439Y-49539900D01*
X19115435Y-49539900D01*
X18977349Y-49580446D01*
X18977342Y-49580449D01*
X18856273Y-49658255D01*
X18762022Y-49767028D01*
X18702234Y-49897943D01*
X18681753Y-50040397D01*
X18681753Y-50040402D01*
X18702234Y-50182856D01*
X18731920Y-50247857D01*
X18762023Y-50313773D01*
X18846223Y-50410946D01*
X18856273Y-50422544D01*
X18974809Y-50498722D01*
X18977347Y-50500353D01*
X19064067Y-50525816D01*
X19115435Y-50540899D01*
X19115436Y-50540899D01*
X19115439Y-50540900D01*
X19115441Y-50540900D01*
X19259359Y-50540900D01*
X19259361Y-50540900D01*
X19397453Y-50500353D01*
X19397460Y-50500348D01*
X19403894Y-50497411D01*
X19404492Y-50498722D01*
X19456046Y-50485168D01*
X19513063Y-50507363D01*
X19546146Y-50558833D01*
X19549400Y-50584007D01*
X19549400Y-50771792D01*
X19530493Y-50829983D01*
X19480993Y-50865947D01*
X19419807Y-50865947D01*
X19403037Y-50857997D01*
X19397454Y-50855448D01*
X19397453Y-50855447D01*
X19383616Y-50851384D01*
X19259364Y-50814900D01*
X19259361Y-50814900D01*
X19115439Y-50814900D01*
X19115435Y-50814900D01*
X18977349Y-50855446D01*
X18977342Y-50855449D01*
X18856273Y-50933255D01*
X18762022Y-51042028D01*
X18702234Y-51172943D01*
X18681753Y-51315397D01*
X18681753Y-51315404D01*
X18685670Y-51342650D01*
X18675236Y-51402939D01*
X18631358Y-51445581D01*
X18570795Y-51454288D01*
X18559787Y-51451728D01*
X18434364Y-51414900D01*
X18434361Y-51414900D01*
X18290439Y-51414900D01*
X18290435Y-51414900D01*
X18152349Y-51455446D01*
X18152342Y-51455449D01*
X18031273Y-51533255D01*
X17937022Y-51642028D01*
X17877234Y-51772943D01*
X17856753Y-51915397D01*
X17856753Y-51915402D01*
X17877234Y-52057856D01*
X17922904Y-52157857D01*
X17937023Y-52188773D01*
X18020983Y-52285669D01*
X18031273Y-52297544D01*
X18152342Y-52375350D01*
X18152347Y-52375353D01*
X18258803Y-52406611D01*
X18290435Y-52415899D01*
X18290436Y-52415899D01*
X18290439Y-52415900D01*
X18290441Y-52415900D01*
X18434359Y-52415900D01*
X18434361Y-52415900D01*
X18571046Y-52375766D01*
X18632205Y-52377513D01*
X18680658Y-52414876D01*
X18697896Y-52473583D01*
X18696928Y-52484844D01*
X18681753Y-52590395D01*
X18681753Y-52590402D01*
X18702234Y-52732856D01*
X18739932Y-52815401D01*
X18762023Y-52863773D01*
X18815285Y-52925241D01*
X18856273Y-52972544D01*
X18974809Y-53048722D01*
X18977347Y-53050353D01*
X19064067Y-53075816D01*
X19115435Y-53090899D01*
X19115436Y-53090899D01*
X19115439Y-53090900D01*
X19115441Y-53090900D01*
X19259359Y-53090900D01*
X19259361Y-53090900D01*
X19397453Y-53050353D01*
X19397460Y-53050348D01*
X19403894Y-53047411D01*
X19404492Y-53048722D01*
X19456046Y-53035168D01*
X19513063Y-53057363D01*
X19546146Y-53108833D01*
X19549400Y-53134007D01*
X19549400Y-55526700D01*
X19569477Y-55575168D01*
X19575112Y-55588773D01*
X19575112Y-55588774D01*
X19591341Y-55627957D01*
X19787807Y-55824423D01*
X19815584Y-55878939D01*
X19806013Y-55939371D01*
X19762748Y-55982636D01*
X19745701Y-55989414D01*
X19743552Y-55990045D01*
X19743542Y-55990049D01*
X19622473Y-56067855D01*
X19528221Y-56176628D01*
X19506450Y-56224301D01*
X19465077Y-56269379D01*
X19405110Y-56281529D01*
X19349455Y-56256110D01*
X19346393Y-56253178D01*
X17164296Y-54071081D01*
X17136519Y-54016564D01*
X17135300Y-54001077D01*
X17135300Y-46904797D01*
X17673953Y-46904797D01*
X17673953Y-46904802D01*
X17694434Y-47047256D01*
X17754222Y-47178171D01*
X17754223Y-47178173D01*
X17845277Y-47283256D01*
X17848473Y-47286944D01*
X17964046Y-47361218D01*
X17969547Y-47364753D01*
X18056264Y-47390215D01*
X18107635Y-47405299D01*
X18107636Y-47405299D01*
X18107639Y-47405300D01*
X18107641Y-47405300D01*
X18251559Y-47405300D01*
X18251561Y-47405300D01*
X18389653Y-47364753D01*
X18510728Y-47286943D01*
X18604977Y-47178173D01*
X18664765Y-47047257D01*
X18685247Y-46904800D01*
X18682733Y-46887316D01*
X18664765Y-46762343D01*
X18605173Y-46631857D01*
X18604977Y-46631427D01*
X18510728Y-46522657D01*
X18510727Y-46522656D01*
X18510726Y-46522655D01*
X18389657Y-46444849D01*
X18389654Y-46444847D01*
X18389653Y-46444847D01*
X18389650Y-46444846D01*
X18251564Y-46404300D01*
X18251561Y-46404300D01*
X18107639Y-46404300D01*
X18107635Y-46404300D01*
X17969549Y-46444846D01*
X17969542Y-46444849D01*
X17848473Y-46522655D01*
X17754222Y-46631428D01*
X17694434Y-46762343D01*
X17673953Y-46904797D01*
X17135300Y-46904797D01*
X17135300Y-42416023D01*
X17154207Y-42357832D01*
X17203707Y-42321868D01*
X17264893Y-42321868D01*
X17304303Y-42346018D01*
G37*
%TD.AperFunction*%
%TA.AperFunction,Conductor*%
G36*
X14148441Y-33412536D02*
G01*
X14180357Y-33451540D01*
X14187221Y-33466570D01*
X14187222Y-33466571D01*
X14187223Y-33466573D01*
X14245909Y-33534301D01*
X14281473Y-33575344D01*
X14382633Y-33640355D01*
X14402547Y-33653153D01*
X14502515Y-33682506D01*
X14540635Y-33693699D01*
X14540636Y-33693699D01*
X14540639Y-33693700D01*
X14540641Y-33693700D01*
X14682477Y-33693700D01*
X14740668Y-33712607D01*
X14752481Y-33722696D01*
X20653504Y-39623719D01*
X20681281Y-39678236D01*
X20682500Y-39693723D01*
X20682500Y-47182000D01*
X20724443Y-47283258D01*
X20802405Y-47361220D01*
X20830181Y-47415735D01*
X20831400Y-47431222D01*
X20831400Y-49501291D01*
X20812493Y-49559482D01*
X20762993Y-49595446D01*
X20701807Y-49595446D01*
X20678880Y-49584577D01*
X20672453Y-49580447D01*
X20672450Y-49580446D01*
X20534364Y-49539900D01*
X20534361Y-49539900D01*
X20390439Y-49539900D01*
X20390435Y-49539900D01*
X20252349Y-49580446D01*
X20245906Y-49583389D01*
X20245308Y-49582079D01*
X20193741Y-49595630D01*
X20136727Y-49573428D01*
X20103651Y-49521953D01*
X20100400Y-49496792D01*
X20100400Y-44422200D01*
X20058457Y-44320942D01*
X20058457Y-44320941D01*
X19936731Y-44199215D01*
X19799353Y-44061838D01*
X19771576Y-44007322D01*
X19781147Y-43946890D01*
X19815833Y-43908551D01*
X19934728Y-43832143D01*
X20028977Y-43723373D01*
X20088765Y-43592457D01*
X20109247Y-43450000D01*
X20108992Y-43448228D01*
X20088765Y-43307543D01*
X20067805Y-43261647D01*
X20028977Y-43176627D01*
X19934728Y-43067857D01*
X19934727Y-43067856D01*
X19934726Y-43067855D01*
X19813657Y-42990049D01*
X19813654Y-42990047D01*
X19813653Y-42990047D01*
X19813650Y-42990046D01*
X19675564Y-42949500D01*
X19675561Y-42949500D01*
X19531639Y-42949500D01*
X19531635Y-42949500D01*
X19393549Y-42990046D01*
X19393542Y-42990049D01*
X19272473Y-43067855D01*
X19178222Y-43176627D01*
X19154663Y-43228214D01*
X19113290Y-43273291D01*
X19053323Y-43285440D01*
X18997667Y-43260022D01*
X18994606Y-43257090D01*
X17523696Y-41786180D01*
X17495919Y-41731663D01*
X17494700Y-41716176D01*
X17494700Y-38979600D01*
X17452757Y-38878342D01*
X17452753Y-38878338D01*
X17375258Y-38800842D01*
X17375258Y-38800843D01*
X15816602Y-37242187D01*
X15788825Y-37187670D01*
X15788614Y-37158098D01*
X15802747Y-37059800D01*
X15802164Y-37055747D01*
X15782265Y-36917343D01*
X15745506Y-36836853D01*
X15722477Y-36786427D01*
X15628228Y-36677657D01*
X15628227Y-36677656D01*
X15628226Y-36677655D01*
X15507157Y-36599849D01*
X15507154Y-36599847D01*
X15507153Y-36599847D01*
X15507150Y-36599846D01*
X15369064Y-36559300D01*
X15369061Y-36559300D01*
X15225139Y-36559300D01*
X15225135Y-36559300D01*
X15087049Y-36599846D01*
X15087042Y-36599849D01*
X14965973Y-36677655D01*
X14871722Y-36786428D01*
X14811934Y-36917343D01*
X14791453Y-37059797D01*
X14791453Y-37059802D01*
X14811934Y-37202256D01*
X14871722Y-37333171D01*
X14871723Y-37333173D01*
X14908560Y-37375685D01*
X14932377Y-37432045D01*
X14930408Y-37440509D01*
X14944733Y-37438241D01*
X14982769Y-37452738D01*
X15087042Y-37519750D01*
X15087047Y-37519753D01*
X15174741Y-37545502D01*
X15225135Y-37560299D01*
X15225136Y-37560299D01*
X15225139Y-37560300D01*
X15314477Y-37560300D01*
X15372668Y-37579207D01*
X15384481Y-37589296D01*
X16914704Y-39119519D01*
X16942481Y-39174036D01*
X16943700Y-39189523D01*
X16943700Y-39451476D01*
X16924793Y-39509667D01*
X16875293Y-39545631D01*
X16814107Y-39545631D01*
X16774696Y-39521480D01*
X14859242Y-37606026D01*
X14831465Y-37551509D01*
X14834081Y-37534987D01*
X14811316Y-37536943D01*
X14763736Y-37510520D01*
X13091896Y-35838680D01*
X13064119Y-35784163D01*
X13062900Y-35768676D01*
X13062900Y-34198851D01*
X13081807Y-34140660D01*
X13108378Y-34115566D01*
X13109523Y-34114829D01*
X13118528Y-34109043D01*
X13212777Y-34000273D01*
X13272565Y-33869357D01*
X13287877Y-33762857D01*
X13293047Y-33726902D01*
X13293047Y-33726897D01*
X13272565Y-33584443D01*
X13249666Y-33534301D01*
X13242691Y-33473514D01*
X13272777Y-33420237D01*
X13328433Y-33394819D01*
X13339626Y-33394175D01*
X14090240Y-33393669D01*
X14148441Y-33412536D01*
G37*
%TD.AperFunction*%
%TD*%
%TA.AperFunction,Conductor*%
%TO.N,GND*%
G36*
X67186367Y-4349349D02*
G01*
X67253301Y-4369386D01*
X67298777Y-4422430D01*
X67309713Y-4473635D01*
X67260285Y-25776934D01*
X67240445Y-25843927D01*
X67187535Y-25889560D01*
X67136934Y-25900644D01*
X51007194Y-25985092D01*
X50940053Y-25965759D01*
X50894022Y-25913195D01*
X50883716Y-25844090D01*
X50912408Y-25780383D01*
X50923396Y-25769105D01*
X59317262Y-18184427D01*
X59329520Y-18175508D01*
X59329461Y-18175431D01*
X59335910Y-18170482D01*
X59335910Y-18170481D01*
X59335913Y-18170480D01*
X59363839Y-18142552D01*
X59368345Y-18138269D01*
X59397632Y-18111807D01*
X59397638Y-18111796D01*
X59402901Y-18105614D01*
X59402976Y-18105678D01*
X59405610Y-18102419D01*
X59405533Y-18102360D01*
X59410480Y-18095913D01*
X59430213Y-18061734D01*
X59433468Y-18056409D01*
X59454910Y-18023266D01*
X59454911Y-18023260D01*
X59458400Y-18015916D01*
X59458488Y-18015958D01*
X59460187Y-18012133D01*
X59460096Y-18012096D01*
X59463203Y-18004593D01*
X59463207Y-18004587D01*
X59473417Y-17966480D01*
X59475193Y-17960466D01*
X59487319Y-17922922D01*
X59487318Y-17922922D01*
X59487321Y-17922916D01*
X59487321Y-17922909D01*
X59488787Y-17914923D01*
X59488884Y-17914940D01*
X59489536Y-17910800D01*
X59489438Y-17910788D01*
X59490498Y-17902730D01*
X59490500Y-17902727D01*
X59490500Y-17863265D01*
X59490659Y-17856994D01*
X59492654Y-17817597D01*
X59492652Y-17817589D01*
X59492002Y-17809491D01*
X59492098Y-17809483D01*
X59490500Y-17794405D01*
X59490500Y-12995335D01*
X59501705Y-12943825D01*
X59525165Y-12892457D01*
X59545647Y-12750000D01*
X59525165Y-12607543D01*
X59522484Y-12601673D01*
X59501706Y-12556174D01*
X59490500Y-12504663D01*
X59490500Y-12397275D01*
X59490500Y-12397273D01*
X59463207Y-12295413D01*
X59410480Y-12204087D01*
X59335913Y-12129520D01*
X59244587Y-12076793D01*
X59142727Y-12049500D01*
X59037273Y-12049500D01*
X58935413Y-12076793D01*
X58935410Y-12076794D01*
X58844085Y-12129521D01*
X58769521Y-12204085D01*
X58716794Y-12295410D01*
X58716792Y-12295415D01*
X58699619Y-12359503D01*
X58673559Y-12408608D01*
X58614625Y-12476622D01*
X58614622Y-12476628D01*
X58554834Y-12607543D01*
X58534353Y-12750000D01*
X58554834Y-12892456D01*
X58601818Y-12995335D01*
X58614623Y-13023373D01*
X58659213Y-13074833D01*
X58688238Y-13138388D01*
X58689500Y-13156035D01*
X58689500Y-17617030D01*
X58669815Y-17684069D01*
X58648634Y-17709034D01*
X49515912Y-25961337D01*
X49452974Y-25991677D01*
X49433427Y-25993331D01*
X48285511Y-25999342D01*
X48218370Y-25980009D01*
X48172339Y-25927445D01*
X48160865Y-25874491D01*
X48285862Y-7750000D01*
X58034659Y-7750000D01*
X58053975Y-7946129D01*
X58053976Y-7946132D01*
X58101729Y-8103553D01*
X58111188Y-8134733D01*
X58204086Y-8308532D01*
X58204090Y-8308539D01*
X58329116Y-8460883D01*
X58481460Y-8585909D01*
X58481467Y-8585913D01*
X58655266Y-8678811D01*
X58655269Y-8678811D01*
X58655273Y-8678814D01*
X58843868Y-8736024D01*
X59040000Y-8755341D01*
X59236132Y-8736024D01*
X59424727Y-8678814D01*
X59598538Y-8585910D01*
X59750883Y-8460883D01*
X59875910Y-8308538D01*
X59935893Y-8196317D01*
X59968812Y-8134731D01*
X59968812Y-8134730D01*
X59968814Y-8134727D01*
X60017146Y-7975396D01*
X60055443Y-7916960D01*
X60119255Y-7888504D01*
X60188322Y-7899064D01*
X60240716Y-7945288D01*
X60255581Y-7979300D01*
X60313731Y-8196320D01*
X60313735Y-8196331D01*
X60409863Y-8402478D01*
X60460974Y-8475472D01*
X61140000Y-7796446D01*
X61140000Y-7802661D01*
X61167259Y-7904394D01*
X61219920Y-7995606D01*
X61294394Y-8070080D01*
X61385606Y-8122741D01*
X61487339Y-8150000D01*
X61493553Y-8150000D01*
X60814526Y-8829025D01*
X60887513Y-8880132D01*
X60887521Y-8880136D01*
X61093668Y-8976264D01*
X61093682Y-8976269D01*
X61313389Y-9035139D01*
X61313400Y-9035141D01*
X61539998Y-9054966D01*
X61540002Y-9054966D01*
X61766599Y-9035141D01*
X61766610Y-9035139D01*
X61986317Y-8976269D01*
X61986331Y-8976264D01*
X62192478Y-8880136D01*
X62265471Y-8829024D01*
X61586447Y-8150000D01*
X61592661Y-8150000D01*
X61694394Y-8122741D01*
X61785606Y-8070080D01*
X61860080Y-7995606D01*
X61912741Y-7904394D01*
X61940000Y-7802661D01*
X61940000Y-7796447D01*
X62619024Y-8475471D01*
X62670136Y-8402478D01*
X62766264Y-8196331D01*
X62766269Y-8196317D01*
X62825139Y-7976610D01*
X62825141Y-7976599D01*
X62844966Y-7750002D01*
X62844966Y-7749997D01*
X62825141Y-7523400D01*
X62825139Y-7523389D01*
X62766269Y-7303682D01*
X62766264Y-7303668D01*
X62670136Y-7097521D01*
X62670132Y-7097513D01*
X62619025Y-7024526D01*
X61940000Y-7703551D01*
X61940000Y-7697339D01*
X61912741Y-7595606D01*
X61860080Y-7504394D01*
X61785606Y-7429920D01*
X61694394Y-7377259D01*
X61592661Y-7350000D01*
X61586448Y-7350000D01*
X62265472Y-6670974D01*
X62192478Y-6619863D01*
X61986331Y-6523735D01*
X61986317Y-6523730D01*
X61766610Y-6464860D01*
X61766599Y-6464858D01*
X61540002Y-6445034D01*
X61539998Y-6445034D01*
X61313400Y-6464858D01*
X61313389Y-6464860D01*
X61093682Y-6523730D01*
X61093673Y-6523734D01*
X60887516Y-6619866D01*
X60887512Y-6619868D01*
X60814526Y-6670973D01*
X60814526Y-6670974D01*
X61493553Y-7350000D01*
X61487339Y-7350000D01*
X61385606Y-7377259D01*
X61294394Y-7429920D01*
X61219920Y-7504394D01*
X61167259Y-7595606D01*
X61140000Y-7697339D01*
X61140000Y-7703552D01*
X60460974Y-7024526D01*
X60460973Y-7024526D01*
X60409868Y-7097512D01*
X60409866Y-7097516D01*
X60313734Y-7303673D01*
X60313731Y-7303680D01*
X60255581Y-7520699D01*
X60219216Y-7580359D01*
X60156369Y-7610888D01*
X60086993Y-7602593D01*
X60033115Y-7558108D01*
X60017146Y-7524603D01*
X59968814Y-7365273D01*
X59968812Y-7365270D01*
X59968812Y-7365268D01*
X59875913Y-7191467D01*
X59875909Y-7191460D01*
X59750883Y-7039116D01*
X59598539Y-6914090D01*
X59598532Y-6914086D01*
X59424733Y-6821188D01*
X59424727Y-6821186D01*
X59236132Y-6763976D01*
X59236129Y-6763975D01*
X59040000Y-6744659D01*
X58843870Y-6763975D01*
X58655266Y-6821188D01*
X58481467Y-6914086D01*
X58481460Y-6914090D01*
X58329116Y-7039116D01*
X58204090Y-7191460D01*
X58204086Y-7191467D01*
X58111188Y-7365266D01*
X58053975Y-7553870D01*
X58034659Y-7750000D01*
X48285862Y-7750000D01*
X48309146Y-4373793D01*
X48329292Y-4306892D01*
X48382411Y-4261502D01*
X48433793Y-4250651D01*
X67186367Y-4349349D01*
G37*
%TD.AperFunction*%
%TD*%
M02*
