%TF.GenerationSoftware,KiCad,Pcbnew,8.0.5*%
%TF.CreationDate,2024-09-23T16:37:59-07:00*%
%TF.ProjectId,fluke_884x_continuity_buzzer,666c756b-655f-4383-9834-785f636f6e74,4*%
%TF.SameCoordinates,Original*%
%TF.FileFunction,Copper,L1,Top*%
%TF.FilePolarity,Positive*%
%FSLAX46Y46*%
G04 Gerber Fmt 4.6, Leading zero omitted, Abs format (unit mm)*
G04 Created by KiCad (PCBNEW 8.0.5) date 2024-09-23 16:37:59*
%MOMM*%
%LPD*%
G01*
G04 APERTURE LIST*
G04 Aperture macros list*
%AMRoundRect*
0 Rectangle with rounded corners*
0 $1 Rounding radius*
0 $2 $3 $4 $5 $6 $7 $8 $9 X,Y pos of 4 corners*
0 Add a 4 corners polygon primitive as box body*
4,1,4,$2,$3,$4,$5,$6,$7,$8,$9,$2,$3,0*
0 Add four circle primitives for the rounded corners*
1,1,$1+$1,$2,$3*
1,1,$1+$1,$4,$5*
1,1,$1+$1,$6,$7*
1,1,$1+$1,$8,$9*
0 Add four rect primitives between the rounded corners*
20,1,$1+$1,$2,$3,$4,$5,0*
20,1,$1+$1,$4,$5,$6,$7,0*
20,1,$1+$1,$6,$7,$8,$9,0*
20,1,$1+$1,$8,$9,$2,$3,0*%
G04 Aperture macros list end*
%TA.AperFunction,ComponentPad*%
%ADD10C,3.000000*%
%TD*%
%TA.AperFunction,SMDPad,CuDef*%
%ADD11RoundRect,0.250000X-0.475000X0.250000X-0.475000X-0.250000X0.475000X-0.250000X0.475000X0.250000X0*%
%TD*%
%TA.AperFunction,SMDPad,CuDef*%
%ADD12R,1.350000X0.400000*%
%TD*%
%TA.AperFunction,ComponentPad*%
%ADD13O,1.550000X0.890000*%
%TD*%
%TA.AperFunction,SMDPad,CuDef*%
%ADD14R,1.550000X1.200000*%
%TD*%
%TA.AperFunction,ComponentPad*%
%ADD15O,0.950000X1.250000*%
%TD*%
%TA.AperFunction,SMDPad,CuDef*%
%ADD16R,1.550000X1.500000*%
%TD*%
%TA.AperFunction,ComponentPad*%
%ADD17R,1.700000X1.700000*%
%TD*%
%TA.AperFunction,ComponentPad*%
%ADD18O,1.700000X1.700000*%
%TD*%
%TA.AperFunction,SMDPad,CuDef*%
%ADD19RoundRect,0.140000X-0.140000X-0.170000X0.140000X-0.170000X0.140000X0.170000X-0.140000X0.170000X0*%
%TD*%
%TA.AperFunction,SMDPad,CuDef*%
%ADD20RoundRect,0.140000X0.170000X-0.140000X0.170000X0.140000X-0.170000X0.140000X-0.170000X-0.140000X0*%
%TD*%
%TA.AperFunction,SMDPad,CuDef*%
%ADD21RoundRect,0.375000X0.625000X0.375000X-0.625000X0.375000X-0.625000X-0.375000X0.625000X-0.375000X0*%
%TD*%
%TA.AperFunction,SMDPad,CuDef*%
%ADD22RoundRect,0.500000X0.500000X1.400000X-0.500000X1.400000X-0.500000X-1.400000X0.500000X-1.400000X0*%
%TD*%
%TA.AperFunction,SMDPad,CuDef*%
%ADD23RoundRect,0.150000X-0.150000X0.650000X-0.150000X-0.650000X0.150000X-0.650000X0.150000X0.650000X0*%
%TD*%
%TA.AperFunction,SMDPad,CuDef*%
%ADD24RoundRect,0.140000X-0.170000X0.140000X-0.170000X-0.140000X0.170000X-0.140000X0.170000X0.140000X0*%
%TD*%
%TA.AperFunction,SMDPad,CuDef*%
%ADD25RoundRect,0.135000X-0.135000X-0.185000X0.135000X-0.185000X0.135000X0.185000X-0.135000X0.185000X0*%
%TD*%
%TA.AperFunction,SMDPad,CuDef*%
%ADD26RoundRect,0.140000X0.140000X0.170000X-0.140000X0.170000X-0.140000X-0.170000X0.140000X-0.170000X0*%
%TD*%
%TA.AperFunction,SMDPad,CuDef*%
%ADD27RoundRect,0.135000X0.135000X0.185000X-0.135000X0.185000X-0.135000X-0.185000X0.135000X-0.185000X0*%
%TD*%
%TA.AperFunction,SMDPad,CuDef*%
%ADD28RoundRect,0.050000X-0.050000X0.387500X-0.050000X-0.387500X0.050000X-0.387500X0.050000X0.387500X0*%
%TD*%
%TA.AperFunction,SMDPad,CuDef*%
%ADD29RoundRect,0.050000X-0.387500X0.050000X-0.387500X-0.050000X0.387500X-0.050000X0.387500X0.050000X0*%
%TD*%
%TA.AperFunction,ComponentPad*%
%ADD30C,0.600000*%
%TD*%
%TA.AperFunction,SMDPad,CuDef*%
%ADD31RoundRect,0.144000X-1.456000X1.456000X-1.456000X-1.456000X1.456000X-1.456000X1.456000X1.456000X0*%
%TD*%
%TA.AperFunction,SMDPad,CuDef*%
%ADD32R,2.100000X5.600000*%
%TD*%
%TA.AperFunction,SMDPad,CuDef*%
%ADD33RoundRect,0.135000X-0.185000X0.135000X-0.185000X-0.135000X0.185000X-0.135000X0.185000X0.135000X0*%
%TD*%
%TA.AperFunction,SMDPad,CuDef*%
%ADD34RoundRect,0.100000X0.225000X0.100000X-0.225000X0.100000X-0.225000X-0.100000X0.225000X-0.100000X0*%
%TD*%
%TA.AperFunction,ComponentPad*%
%ADD35R,2.000000X2.000000*%
%TD*%
%TA.AperFunction,ComponentPad*%
%ADD36C,2.000000*%
%TD*%
%TA.AperFunction,ComponentPad*%
%ADD37R,1.000000X1.000000*%
%TD*%
%TA.AperFunction,ComponentPad*%
%ADD38C,1.600000*%
%TD*%
%TA.AperFunction,ComponentPad*%
%ADD39R,1.600000X1.600000*%
%TD*%
%TA.AperFunction,ComponentPad*%
%ADD40O,1.600000X1.600000*%
%TD*%
%TA.AperFunction,SMDPad,CuDef*%
%ADD41R,3.800000X2.000000*%
%TD*%
%TA.AperFunction,SMDPad,CuDef*%
%ADD42RoundRect,0.112500X-0.237500X0.112500X-0.237500X-0.112500X0.237500X-0.112500X0.237500X0.112500X0*%
%TD*%
%TA.AperFunction,ViaPad*%
%ADD43C,0.600000*%
%TD*%
%TA.AperFunction,Conductor*%
%ADD44C,0.150000*%
%TD*%
%TA.AperFunction,Conductor*%
%ADD45C,0.200000*%
%TD*%
%TA.AperFunction,Conductor*%
%ADD46C,1.000000*%
%TD*%
%TA.AperFunction,Conductor*%
%ADD47C,0.800000*%
%TD*%
%TA.AperFunction,Conductor*%
%ADD48C,0.600000*%
%TD*%
%TA.AperFunction,Conductor*%
%ADD49C,0.300000*%
%TD*%
%TA.AperFunction,Conductor*%
%ADD50C,0.400000*%
%TD*%
G04 APERTURE END LIST*
D10*
%TO.P,TP4,1,1*%
%TO.N,GND*%
X2810000Y-2800000D03*
%TD*%
D11*
%TO.P,C2,1*%
%TO.N,+3V3*%
X51210000Y-17075000D03*
%TO.P,C2,2*%
%TO.N,GND*%
X51210000Y-18975000D03*
%TD*%
D12*
%TO.P,J3,1,VBUS*%
%TO.N,/VBUS*%
X66590000Y-51220550D03*
%TO.P,J3,2,D-*%
%TO.N,/USB_D-*%
X66590000Y-50570550D03*
%TO.P,J3,3,D+*%
%TO.N,/USB_D+*%
X66590000Y-49920550D03*
%TO.P,J3,4,ID*%
%TO.N,unconnected-(J3-ID-Pad4)*%
X66590000Y-49270550D03*
%TO.P,J3,5,GND*%
%TO.N,GND*%
X66590000Y-48620550D03*
D13*
%TO.P,J3,6,Shield*%
X69290000Y-53420550D03*
D14*
X69290000Y-52820550D03*
D15*
X66590000Y-52420550D03*
D16*
X69290000Y-50920550D03*
X69290000Y-48920550D03*
D15*
X66590000Y-47420550D03*
D14*
X69290000Y-47020550D03*
D13*
X69290000Y-46420550D03*
%TD*%
D17*
%TO.P,J2,1,Pin_1*%
%TO.N,/~{USB_BOOT}*%
X43217600Y-37558050D03*
D18*
%TO.P,J2,2,Pin_2*%
%TO.N,GND*%
X43217600Y-40098050D03*
%TD*%
D19*
%TO.P,C15,1*%
%TO.N,+3V3*%
X25795000Y-52798450D03*
%TO.P,C15,2*%
%TO.N,GND*%
X26755000Y-52798450D03*
%TD*%
%TO.P,C13,1*%
%TO.N,+1V1*%
X25795000Y-51798450D03*
%TO.P,C13,2*%
%TO.N,GND*%
X26755000Y-51798450D03*
%TD*%
D20*
%TO.P,C4,1*%
%TO.N,+3V3*%
X18551200Y-42878050D03*
%TO.P,C4,2*%
%TO.N,GND*%
X18551200Y-41918050D03*
%TD*%
%TO.P,C6,1*%
%TO.N,+3V3*%
X36960000Y-45463450D03*
%TO.P,C6,2*%
%TO.N,GND*%
X36960000Y-44503450D03*
%TD*%
D21*
%TO.P,U1,1,GND*%
%TO.N,GND*%
X60510000Y-19300000D03*
%TO.P,U1,2,VO*%
%TO.N,+3V3*%
X60510000Y-17000000D03*
D22*
X54210000Y-17000000D03*
D21*
%TO.P,U1,3,VI*%
%TO.N,Net-(D1A-K)*%
X60510000Y-14700000D03*
%TD*%
D23*
%TO.P,U2,1,~{CS}*%
%TO.N,/QSPI_SS*%
X34420000Y-38248450D03*
%TO.P,U2,2,DO(IO1)*%
%TO.N,/QSPI_SD1*%
X33150000Y-38248450D03*
%TO.P,U2,3,IO2*%
%TO.N,/QSPI_SD2*%
X31880000Y-38248450D03*
%TO.P,U2,4,GND*%
%TO.N,GND*%
X30610000Y-38248450D03*
%TO.P,U2,5,DI(IO0)*%
%TO.N,/QSPI_SD0*%
X30610000Y-45448450D03*
%TO.P,U2,6,CLK*%
%TO.N,/QSPI_SCLK*%
X31880000Y-45448450D03*
%TO.P,U2,7,IO3*%
%TO.N,/QSPI_SD3*%
X33150000Y-45448450D03*
%TO.P,U2,8,VCC*%
%TO.N,+3V3*%
X34420000Y-45448450D03*
%TD*%
D24*
%TO.P,C9,1*%
%TO.N,Net-(C9-Pad1)*%
X10790000Y-47803450D03*
%TO.P,C9,2*%
%TO.N,GND*%
X10790000Y-48763450D03*
%TD*%
D25*
%TO.P,R28,1*%
%TO.N,/QSPI_SS*%
X36971200Y-39733050D03*
%TO.P,R28,2*%
%TO.N,/~{USB_BOOT}*%
X37991200Y-39733050D03*
%TD*%
D19*
%TO.P,C10,1*%
%TO.N,+3V3*%
X26795000Y-48798450D03*
%TO.P,C10,2*%
%TO.N,GND*%
X27755000Y-48798450D03*
%TD*%
D24*
%TO.P,C17,1*%
%TO.N,+3V3*%
X18351200Y-53883050D03*
%TO.P,C17,2*%
%TO.N,GND*%
X18351200Y-54843050D03*
%TD*%
D26*
%TO.P,C11,1*%
%TO.N,+3V3*%
X13785000Y-49179450D03*
%TO.P,C11,2*%
%TO.N,GND*%
X12825000Y-49179450D03*
%TD*%
D27*
%TO.P,R30,1*%
%TO.N,/USB_D+*%
X26785000Y-49798450D03*
%TO.P,R30,2*%
%TO.N,Net-(U3-USB_DP)*%
X25765000Y-49798450D03*
%TD*%
D26*
%TO.P,C12,1*%
%TO.N,+1V1*%
X13785000Y-50298450D03*
%TO.P,C12,2*%
%TO.N,GND*%
X12825000Y-50298450D03*
%TD*%
D11*
%TO.P,C1,1*%
%TO.N,Net-(D1A-K)*%
X63710000Y-15987500D03*
%TO.P,C1,2*%
%TO.N,GND*%
X63710000Y-17887500D03*
%TD*%
D20*
%TO.P,C5,1*%
%TO.N,+3V3*%
X23181200Y-44013050D03*
%TO.P,C5,2*%
%TO.N,GND*%
X23181200Y-43053050D03*
%TD*%
D26*
%TO.P,C16,1*%
%TO.N,+3V3*%
X35547600Y-53533050D03*
%TO.P,C16,2*%
%TO.N,GND*%
X34587600Y-53533050D03*
%TD*%
D28*
%TO.P,U3,1,IOVDD*%
%TO.N,+3V3*%
X22390000Y-45360950D03*
%TO.P,U3,2,GPIO0*%
%TO.N,/GPIO0*%
X21990000Y-45360950D03*
%TO.P,U3,3,GPIO1*%
%TO.N,/GPIO1*%
X21590000Y-45360950D03*
%TO.P,U3,4,GPIO2*%
%TO.N,/GPIO2*%
X21190000Y-45360950D03*
%TO.P,U3,5,GPIO3*%
%TO.N,/GPIO3*%
X20790000Y-45360950D03*
%TO.P,U3,6,GPIO4*%
%TO.N,/GPIO4*%
X20390000Y-45360950D03*
%TO.P,U3,7,GPIO5*%
%TO.N,G5_3V*%
X19990000Y-45360950D03*
%TO.P,U3,8,GPIO6*%
%TO.N,/GPIO6*%
X19590000Y-45360950D03*
%TO.P,U3,9,GPIO7*%
%TO.N,G7_3V*%
X19190000Y-45360950D03*
%TO.P,U3,10,IOVDD*%
%TO.N,+3V3*%
X18790000Y-45360950D03*
%TO.P,U3,11,GPIO8*%
%TO.N,/GPIO8*%
X18390000Y-45360950D03*
%TO.P,U3,12,GPIO9*%
%TO.N,G6_3V*%
X17990000Y-45360950D03*
%TO.P,U3,13,GPIO10*%
%TO.N,G2_3V*%
X17590000Y-45360950D03*
%TO.P,U3,14,GPIO11*%
%TO.N,PDP_3V*%
X17190000Y-45360950D03*
D29*
%TO.P,U3,15,GPIO12*%
%TO.N,G3_3V*%
X16352500Y-46198450D03*
%TO.P,U3,16,GPIO13*%
%TO.N,PS1_3V*%
X16352500Y-46598450D03*
%TO.P,U3,17,GPIO14*%
%TO.N,G4_3V*%
X16352500Y-46998450D03*
%TO.P,U3,18,GPIO15*%
%TO.N,PD_3V*%
X16352500Y-47398450D03*
%TO.P,U3,19,TESTEN*%
%TO.N,GND*%
X16352500Y-47798450D03*
%TO.P,U3,20,XIN*%
%TO.N,/XIN*%
X16352500Y-48198450D03*
%TO.P,U3,21,XOUT*%
%TO.N,/XOUT*%
X16352500Y-48598450D03*
%TO.P,U3,22,IOVDD*%
%TO.N,+3V3*%
X16352500Y-48998450D03*
%TO.P,U3,23,DVDD*%
%TO.N,+1V1*%
X16352500Y-49398450D03*
%TO.P,U3,24,SWCLK*%
%TO.N,unconnected-(U3-SWCLK-Pad24)*%
X16352500Y-49798450D03*
%TO.P,U3,25,SWD*%
%TO.N,unconnected-(U3-SWD-Pad25)*%
X16352500Y-50198450D03*
%TO.P,U3,26,RUN*%
%TO.N,unconnected-(U3-RUN-Pad26)*%
X16352500Y-50598450D03*
%TO.P,U3,27,GPIO16*%
%TO.N,PC_3V*%
X16352500Y-50998450D03*
%TO.P,U3,28,GPIO17*%
%TO.N,PG_3V*%
X16352500Y-51398450D03*
D28*
%TO.P,U3,29,GPIO18*%
%TO.N,PA_3V*%
X17190000Y-52235950D03*
%TO.P,U3,30,GPIO19*%
%TO.N,PS3_3V*%
X17590000Y-52235950D03*
%TO.P,U3,31,GPIO20*%
%TO.N,PB_3V*%
X17990000Y-52235950D03*
%TO.P,U3,32,GPIO21*%
%TO.N,PS2_3V*%
X18390000Y-52235950D03*
%TO.P,U3,33,IOVDD*%
%TO.N,+3V3*%
X18790000Y-52235950D03*
%TO.P,U3,34,GPIO22*%
%TO.N,PF_3V*%
X19190000Y-52235950D03*
%TO.P,U3,35,GPIO23*%
%TO.N,G0_3V*%
X19590000Y-52235950D03*
%TO.P,U3,36,GPIO24*%
%TO.N,G1_3V*%
X19990000Y-52235950D03*
%TO.P,U3,37,GPIO25*%
%TO.N,PE_3V*%
X20390000Y-52235950D03*
%TO.P,U3,38,GPIO26_ADC0*%
%TO.N,/GPIO26_ADC0*%
X20790000Y-52235950D03*
%TO.P,U3,39,GPIO27_ADC1*%
%TO.N,/GPIO27_ADC1*%
X21190000Y-52235950D03*
%TO.P,U3,40,GPIO28_ADC2*%
%TO.N,/GPIO28_ADC2*%
X21590000Y-52235950D03*
%TO.P,U3,41,GPIO29_ADC3*%
%TO.N,/GPIO29_ADC3*%
X21990000Y-52235950D03*
%TO.P,U3,42,IOVDD*%
%TO.N,+3V3*%
X22390000Y-52235950D03*
D29*
%TO.P,U3,43,ADC_AVDD*%
X23227500Y-51398450D03*
%TO.P,U3,44,VREG_IN*%
X23227500Y-50998450D03*
%TO.P,U3,45,VREG_VOUT*%
%TO.N,+1V1*%
X23227500Y-50598450D03*
%TO.P,U3,46,USB_DM*%
%TO.N,Net-(U3-USB_DM)*%
X23227500Y-50198450D03*
%TO.P,U3,47,USB_DP*%
%TO.N,Net-(U3-USB_DP)*%
X23227500Y-49798450D03*
%TO.P,U3,48,USB_VDD*%
%TO.N,+3V3*%
X23227500Y-49398450D03*
%TO.P,U3,49,IOVDD*%
X23227500Y-48998450D03*
%TO.P,U3,50,DVDD*%
%TO.N,+1V1*%
X23227500Y-48598450D03*
%TO.P,U3,51,QSPI_SD3*%
%TO.N,/QSPI_SD3*%
X23227500Y-48198450D03*
%TO.P,U3,52,QSPI_SCLK*%
%TO.N,/QSPI_SCLK*%
X23227500Y-47798450D03*
%TO.P,U3,53,QSPI_SD0*%
%TO.N,/QSPI_SD0*%
X23227500Y-47398450D03*
%TO.P,U3,54,QSPI_SD2*%
%TO.N,/QSPI_SD2*%
X23227500Y-46998450D03*
%TO.P,U3,55,QSPI_SD1*%
%TO.N,/QSPI_SD1*%
X23227500Y-46598450D03*
%TO.P,U3,56,QSPI_SS*%
%TO.N,/QSPI_SS*%
X23227500Y-46198450D03*
D30*
%TO.P,U3,57,GND*%
%TO.N,GND*%
X21065000Y-47523450D03*
X19790000Y-47523450D03*
X18515000Y-47523450D03*
X21065000Y-48798450D03*
X19790000Y-48798450D03*
D31*
X19790000Y-48798450D03*
D30*
X18515000Y-48798450D03*
X21065000Y-50073450D03*
X19790000Y-50073450D03*
X18515000Y-50073450D03*
%TD*%
D20*
%TO.P,C7,1*%
%TO.N,/XIN*%
X10790000Y-45793450D03*
%TO.P,C7,2*%
%TO.N,GND*%
X10790000Y-44833450D03*
%TD*%
D27*
%TO.P,R31,1*%
%TO.N,/USB_D-*%
X26785000Y-50798450D03*
%TO.P,R31,2*%
%TO.N,Net-(U3-USB_DM)*%
X25765000Y-50798450D03*
%TD*%
D19*
%TO.P,C8,1*%
%TO.N,+1V1*%
X26795000Y-47798450D03*
%TO.P,C8,2*%
%TO.N,GND*%
X27755000Y-47798450D03*
%TD*%
D26*
%TO.P,C14,1*%
%TO.N,+3V3*%
X35547600Y-52133050D03*
%TO.P,C14,2*%
%TO.N,GND*%
X34587600Y-52133050D03*
%TD*%
D27*
%TO.P,R29,1*%
%TO.N,/XOUT*%
X13185000Y-47498450D03*
%TO.P,R29,2*%
%TO.N,Net-(C9-Pad1)*%
X12165000Y-47498450D03*
%TD*%
D32*
%TO.P,Y1,1,1*%
%TO.N,/XIN*%
X7010000Y-41170000D03*
%TO.P,Y1,2,2*%
%TO.N,Net-(C9-Pad1)*%
X7010000Y-50170000D03*
%TD*%
D11*
%TO.P,C3,1*%
%TO.N,+3V3*%
X54432800Y-21919600D03*
%TO.P,C3,2*%
%TO.N,GND*%
X54432800Y-23819600D03*
%TD*%
D33*
%TO.P,R7,1*%
%TO.N,/Pf*%
X11491000Y-31090000D03*
%TO.P,R7,2*%
%TO.N,PF_3V*%
X11491000Y-32110000D03*
%TD*%
%TO.P,R10,1*%
%TO.N,/G1*%
X15280600Y-31090000D03*
%TO.P,R10,2*%
%TO.N,G1_3V*%
X15280600Y-32110000D03*
%TD*%
D34*
%TO.P,D5,1,A*%
%TO.N,G3_3V*%
X19110000Y-36850000D03*
%TO.P,D5,2,A*%
%TO.N,PS1_3V*%
X19110000Y-36200000D03*
%TO.P,D5,3,K*%
%TO.N,+3V3*%
X19110000Y-35550000D03*
%TO.P,D5,4,A*%
%TO.N,G4_3V*%
X17210000Y-35550000D03*
%TO.P,D5,5,A*%
%TO.N,PD_3V*%
X17210000Y-36200000D03*
%TO.P,D5,6,K*%
%TO.N,+3V3*%
X17210000Y-36850000D03*
%TD*%
%TO.P,D6,1,A*%
%TO.N,G1_3V*%
X14310000Y-36950000D03*
%TO.P,D6,2,A*%
%TO.N,PE_3V*%
X14310000Y-36300000D03*
%TO.P,D6,3,K*%
%TO.N,+3V3*%
X14310000Y-35650000D03*
%TO.P,D6,4,A*%
%TO.N,G0_3V*%
X12410000Y-35650000D03*
%TO.P,D6,5,A*%
%TO.N,PF_3V*%
X12410000Y-36300000D03*
%TO.P,D6,6,K*%
%TO.N,+3V3*%
X12410000Y-36950000D03*
%TD*%
D35*
%TO.P,LS1,1,1*%
%TO.N,/GPIO28_ADC2*%
X65640000Y-36300000D03*
D36*
%TO.P,LS1,2,2*%
%TO.N,/GPIO29_ADC3*%
X55640000Y-36300000D03*
%TD*%
D33*
%TO.P,R15,1*%
%TO.N,/PDP*%
X21596800Y-31090000D03*
%TO.P,R15,2*%
%TO.N,PDP_3V*%
X21596800Y-32110000D03*
%TD*%
%TO.P,R16,1*%
%TO.N,/G2*%
X22860000Y-31090000D03*
%TO.P,R16,2*%
%TO.N,G2_3V*%
X22860000Y-32110000D03*
%TD*%
%TO.P,R17,1*%
%TO.N,/G6*%
X26771600Y-31090000D03*
%TO.P,R17,2*%
%TO.N,G6_3V*%
X26771600Y-32110000D03*
%TD*%
%TO.P,R4,1*%
%TO.N,/Pa*%
X7701300Y-31090000D03*
%TO.P,R4,2*%
%TO.N,PA_3V*%
X7701300Y-32110000D03*
%TD*%
D37*
%TO.P,TP2,1,1*%
%TO.N,/GPIO26_ADC0*%
X50217600Y-53933050D03*
%TD*%
D33*
%TO.P,R2,1*%
%TO.N,/Pb*%
X5174800Y-31090000D03*
%TO.P,R2,2*%
%TO.N,PB_3V*%
X5174800Y-32110000D03*
%TD*%
D38*
%TO.P,C18,1*%
%TO.N,Net-(D1A-K)*%
X59040000Y-7750000D03*
%TO.P,C18,2*%
%TO.N,GND*%
X61540000Y-7750000D03*
%TD*%
D34*
%TO.P,D8,1,A*%
%TO.N,PB_3V*%
X4010000Y-37050000D03*
%TO.P,D8,2,A*%
%TO.N,PS2_3V*%
X4010000Y-36400000D03*
%TO.P,D8,3,K*%
%TO.N,unconnected-(D8C-K-Pad3)*%
X4010000Y-35750000D03*
%TO.P,D8,4,A*%
%TO.N,unconnected-(D8C-A-Pad4)*%
X2110000Y-35750000D03*
%TO.P,D8,5,A*%
%TO.N,unconnected-(D8D-A-Pad5)*%
X2110000Y-36400000D03*
%TO.P,D8,6,K*%
%TO.N,+3V3*%
X2110000Y-37050000D03*
%TD*%
D39*
%TO.P,J204,1,Pin_1*%
%TO.N,/PDP*%
X22860000Y-20320000D03*
D40*
%TO.P,J204,2,Pin_2*%
%TO.N,/PS1*%
X20320000Y-20320000D03*
%TO.P,J204,3,Pin_3*%
%TO.N,/Pd*%
X17780000Y-20320000D03*
%TO.P,J204,4,Pin_4*%
%TO.N,/Pe*%
X15240000Y-20320000D03*
%TO.P,J204,5,Pin_5*%
%TO.N,/Pf*%
X12700000Y-20320000D03*
%TO.P,J204,6,Pin_6*%
%TO.N,/Pg*%
X10160000Y-20320000D03*
%TO.P,J204,7,Pin_7*%
%TO.N,/PS3*%
X7620000Y-20320000D03*
%TO.P,J204,8,Pin_8*%
%TO.N,/PS2*%
X5080000Y-20320000D03*
%TO.P,J204,9,Pin_9*%
%TO.N,/Pb*%
X5080000Y-27940000D03*
%TO.P,J204,10,Pin_10*%
%TO.N,/Pa*%
X7620000Y-27940000D03*
%TO.P,J204,11,Pin_11*%
%TO.N,/Pc*%
X10160000Y-27940000D03*
%TO.P,J204,12,Pin_12*%
%TO.N,/G0*%
X12700000Y-27940000D03*
%TO.P,J204,13,Pin_13*%
%TO.N,/G1*%
X15240000Y-27940000D03*
%TO.P,J204,14,Pin_14*%
%TO.N,/G4*%
X17780000Y-27940000D03*
%TO.P,J204,15,Pin_15*%
%TO.N,/G3*%
X20320000Y-27940000D03*
%TO.P,J204,16,Pin_16*%
%TO.N,/G2*%
X22860000Y-27940000D03*
%TD*%
D39*
%TO.P,J203,1,Pin_1*%
%TO.N,/F1*%
X45720000Y-20320000D03*
D40*
%TO.P,J203,2,Pin_2*%
%TO.N,/F2*%
X43180000Y-20320000D03*
%TO.P,J203,3,Pin_3*%
%TO.N,/S2*%
X40640000Y-20320000D03*
%TO.P,J203,4,Pin_4*%
%TO.N,/S1*%
X38100000Y-20320000D03*
%TO.P,J203,5,Pin_5*%
%TO.N,/S0*%
X35560000Y-20320000D03*
%TO.P,J203,6,Pin_6*%
%TO.N,/G5*%
X33020000Y-20320000D03*
%TO.P,J203,7,Pin_7*%
%TO.N,/G7*%
X30480000Y-20320000D03*
%TO.P,J203,8,Pin_8*%
%TO.N,/G6*%
X27940000Y-20320000D03*
%TO.P,J203,9,Pin_9*%
%TO.N,/RL0*%
X27940000Y-27940000D03*
%TO.P,J203,10,Pin_10*%
%TO.N,/RL1*%
X30480000Y-27940000D03*
%TO.P,J203,11,Pin_11*%
%TO.N,/RL6*%
X33020000Y-27940000D03*
%TO.P,J203,12,Pin_12*%
%TO.N,/RL4*%
X35560000Y-27940000D03*
%TO.P,J203,13,Pin_13*%
%TO.N,/RL2*%
X38100000Y-27940000D03*
%TO.P,J203,14,Pin_14*%
%TO.N,/RL5*%
X40640000Y-27940000D03*
%TO.P,J203,15,Pin_15*%
%TO.N,/RL3*%
X43180000Y-27940000D03*
%TO.P,J203,16,Pin_16*%
%TO.N,/GND2*%
X45720000Y-27940000D03*
%TD*%
D33*
%TO.P,R9,1*%
%TO.N,/Pe*%
X14017400Y-31090000D03*
%TO.P,R9,2*%
%TO.N,PE_3V*%
X14017400Y-32110000D03*
%TD*%
%TO.P,R11,1*%
%TO.N,/Pd*%
X16543900Y-31090000D03*
%TO.P,R11,2*%
%TO.N,PD_3V*%
X16543900Y-32110000D03*
%TD*%
D37*
%TO.P,TP3,1,1*%
%TO.N,/GPIO27_ADC1*%
X45517600Y-53933050D03*
%TD*%
D33*
%TO.P,R14,1*%
%TO.N,/G3*%
X20333500Y-31090000D03*
%TO.P,R14,2*%
%TO.N,G3_3V*%
X20333500Y-32110000D03*
%TD*%
D34*
%TO.P,D2,1,A*%
%TO.N,G7_3V*%
X32240000Y-35600000D03*
%TO.P,D2,2,A*%
%TO.N,G5_3V*%
X32240000Y-34950000D03*
%TO.P,D2,3,K*%
%TO.N,Net-(D1A-K)*%
X32240000Y-34300000D03*
%TO.P,D2,4,A*%
%TO.N,/VBUS*%
X30340000Y-34300000D03*
%TO.P,D2,5,A*%
X30340000Y-34950000D03*
%TO.P,D2,6,K*%
%TO.N,+3V3*%
X30340000Y-35600000D03*
%TD*%
D33*
%TO.P,R3,1*%
%TO.N,/PS3*%
X6438100Y-31090000D03*
%TO.P,R3,2*%
%TO.N,PS3_3V*%
X6438100Y-32110000D03*
%TD*%
D41*
%TO.P,TP1,1,1*%
%TO.N,GND*%
X64460000Y-23200000D03*
%TD*%
D42*
%TO.P,D1,1,A*%
%TO.N,/F2*%
X51190000Y-6100000D03*
%TO.P,D1,2,K*%
%TO.N,/F1*%
X51190000Y-7400000D03*
%TO.P,D1,3,K*%
%TO.N,Net-(D1A-K)*%
X53190000Y-6750000D03*
%TD*%
D34*
%TO.P,D4,1,A*%
%TO.N,unconnected-(D4A-A-Pad1)*%
X25910000Y-36750000D03*
%TO.P,D4,2,A*%
%TO.N,G6_3V*%
X25910000Y-36100000D03*
%TO.P,D4,3,K*%
%TO.N,+3V3*%
X25910000Y-35450000D03*
%TO.P,D4,4,A*%
%TO.N,G2_3V*%
X24010000Y-35450000D03*
%TO.P,D4,5,A*%
%TO.N,PDP_3V*%
X24010000Y-36100000D03*
%TO.P,D4,6,K*%
%TO.N,+3V3*%
X24010000Y-36750000D03*
%TD*%
D33*
%TO.P,R12,1*%
%TO.N,/G4*%
X17807100Y-31090000D03*
%TO.P,R12,2*%
%TO.N,G4_3V*%
X17807100Y-32110000D03*
%TD*%
%TO.P,R19,1*%
%TO.N,/G5*%
X31724600Y-31090000D03*
%TO.P,R19,2*%
%TO.N,G5_3V*%
X31724600Y-32110000D03*
%TD*%
%TO.P,R18,1*%
%TO.N,/G7*%
X29311600Y-31090000D03*
%TO.P,R18,2*%
%TO.N,G7_3V*%
X29311600Y-32110000D03*
%TD*%
%TO.P,R6,1*%
%TO.N,/Pc*%
X10227700Y-31090000D03*
%TO.P,R6,2*%
%TO.N,PC_3V*%
X10227700Y-32110000D03*
%TD*%
D34*
%TO.P,D7,1,A*%
%TO.N,PC_3V*%
X9110000Y-37050000D03*
%TO.P,D7,2,A*%
%TO.N,PG_3V*%
X9110000Y-36400000D03*
%TO.P,D7,3,K*%
%TO.N,+3V3*%
X9110000Y-35750000D03*
%TO.P,D7,4,A*%
%TO.N,PA_3V*%
X7210000Y-35750000D03*
%TO.P,D7,5,A*%
%TO.N,PS3_3V*%
X7210000Y-36400000D03*
%TO.P,D7,6,K*%
%TO.N,+3V3*%
X7210000Y-37050000D03*
%TD*%
D33*
%TO.P,R1,1*%
%TO.N,/PS2*%
X3911600Y-31090000D03*
%TO.P,R1,2*%
%TO.N,PS2_3V*%
X3911600Y-32110000D03*
%TD*%
%TO.P,R13,1*%
%TO.N,/PS1*%
X19070300Y-31090000D03*
%TO.P,R13,2*%
%TO.N,PS1_3V*%
X19070300Y-32110000D03*
%TD*%
%TO.P,R8,1*%
%TO.N,/G0*%
X12754200Y-31090000D03*
%TO.P,R8,2*%
%TO.N,G0_3V*%
X12754200Y-32110000D03*
%TD*%
%TO.P,R5,1*%
%TO.N,/Pg*%
X8964500Y-31090000D03*
%TO.P,R5,2*%
%TO.N,PG_3V*%
X8964500Y-32110000D03*
%TD*%
D39*
%TO.P,P204,1,Pin_1*%
%TO.N,/G2*%
X22860000Y-13970000D03*
D40*
%TO.P,P204,2,Pin_2*%
%TO.N,/G3*%
X20320000Y-13970000D03*
%TO.P,P204,3,Pin_3*%
%TO.N,/G4*%
X17780000Y-13970000D03*
%TO.P,P204,4,Pin_4*%
%TO.N,/G1*%
X15240000Y-13970000D03*
%TO.P,P204,5,Pin_5*%
%TO.N,/G0*%
X12700000Y-13970000D03*
%TO.P,P204,6,Pin_6*%
%TO.N,/Pc*%
X10160000Y-13970000D03*
%TO.P,P204,7,Pin_7*%
%TO.N,/Pa*%
X7620000Y-13970000D03*
%TO.P,P204,8,Pin_8*%
%TO.N,/Pb*%
X5080000Y-13970000D03*
%TO.P,P204,9,Pin_9*%
%TO.N,/PS2*%
X5080000Y-6350000D03*
%TO.P,P204,10,Pin_10*%
%TO.N,/PS3*%
X7620000Y-6350000D03*
%TO.P,P204,11,Pin_11*%
%TO.N,/Pg*%
X10160000Y-6350000D03*
%TO.P,P204,12,Pin_12*%
%TO.N,/Pf*%
X12700000Y-6350000D03*
%TO.P,P204,13,Pin_13*%
%TO.N,/Pe*%
X15240000Y-6350000D03*
%TO.P,P204,14,Pin_14*%
%TO.N,/Pd*%
X17780000Y-6350000D03*
%TO.P,P204,15,Pin_15*%
%TO.N,/PS1*%
X20320000Y-6350000D03*
%TO.P,P204,16,Pin_16*%
%TO.N,/PDP*%
X22860000Y-6350000D03*
%TD*%
D39*
%TO.P,P203,1,Pin_1*%
%TO.N,/GND2*%
X45720000Y-13970000D03*
D40*
%TO.P,P203,2,Pin_2*%
%TO.N,/RL3*%
X43180000Y-13970000D03*
%TO.P,P203,3,Pin_3*%
%TO.N,/RL5*%
X40640000Y-13970000D03*
%TO.P,P203,4,Pin_4*%
%TO.N,/RL2*%
X38100000Y-13970000D03*
%TO.P,P203,5,Pin_5*%
%TO.N,/RL4*%
X35560000Y-13970000D03*
%TO.P,P203,6,Pin_6*%
%TO.N,/RL6*%
X33020000Y-13970000D03*
%TO.P,P203,7,Pin_7*%
%TO.N,/RL1*%
X30480000Y-13970000D03*
%TO.P,P203,8,Pin_8*%
%TO.N,/RL0*%
X27940000Y-13970000D03*
%TO.P,P203,9,Pin_9*%
%TO.N,/G6*%
X27940000Y-6350000D03*
%TO.P,P203,10,Pin_10*%
%TO.N,/G7*%
X30480000Y-6350000D03*
%TO.P,P203,11,Pin_11*%
%TO.N,/G5*%
X33020000Y-6350000D03*
%TO.P,P203,12,Pin_12*%
%TO.N,/S0*%
X35560000Y-6350000D03*
%TO.P,P203,13,Pin_13*%
%TO.N,/S1*%
X38100000Y-6350000D03*
%TO.P,P203,14,Pin_14*%
%TO.N,/S2*%
X40640000Y-6350000D03*
%TO.P,P203,15,Pin_15*%
%TO.N,/F2*%
X43180000Y-6350000D03*
%TO.P,P203,16,Pin_16*%
%TO.N,/F1*%
X45720000Y-6350000D03*
%TD*%
D43*
%TO.N,GND*%
X58460000Y-23600000D03*
X8390000Y-45598450D03*
X62210000Y-19000000D03*
X12008000Y-49179450D03*
X18351200Y-55683050D03*
X63731600Y-48620550D03*
X28589600Y-47798450D03*
X57060000Y-23600000D03*
X10790000Y-43972450D03*
X33552600Y-53533050D03*
X12008000Y-50298450D03*
X59760000Y-23600000D03*
X36990600Y-43498450D03*
X61260000Y-22100000D03*
X57060000Y-22100000D03*
X27589600Y-52798450D03*
X67790400Y-52260950D03*
X4530000Y-38480000D03*
X58460000Y-22100000D03*
X23151200Y-42283050D03*
X8390000Y-54288450D03*
X59760000Y-22100000D03*
X12833500Y-48353950D03*
X27589600Y-51798450D03*
X28589600Y-48798450D03*
X33552600Y-52533050D03*
X61260000Y-23600000D03*
X10801500Y-49560450D03*
X12960500Y-45877450D03*
X30590600Y-39598450D03*
X67890400Y-48823250D03*
X6840000Y-45770000D03*
X4690000Y-54288450D03*
X18931200Y-40933050D03*
%TO.N,+3V3*%
X24467600Y-51883050D03*
X36990000Y-52350000D03*
X17272400Y-47861850D03*
X16890000Y-38150000D03*
X12460000Y-38300000D03*
X19160000Y-34000000D03*
X24860000Y-34200000D03*
X14160000Y-34200000D03*
X49460000Y-39500000D03*
X24160000Y-38400000D03*
X25248000Y-49148450D03*
X2060000Y-38400000D03*
X49460000Y-35900000D03*
X8460000Y-34600000D03*
X19567600Y-41533050D03*
X17424700Y-51163850D03*
X29090000Y-35600000D03*
X49460000Y-37200000D03*
X49460000Y-38400000D03*
%TO.N,+1V1*%
X21890000Y-49498450D03*
X24590000Y-48598450D03*
X17690000Y-49398450D03*
X14590000Y-49598450D03*
%TO.N,/QSPI_SS*%
X23527100Y-45632850D03*
X36319600Y-40238550D03*
%TO.N,Net-(D1A-K)*%
X59040000Y-12750000D03*
X31590000Y-33350000D03*
%TO.N,G0_3V*%
X19281200Y-54733050D03*
X12787400Y-33726900D03*
%TO.N,G1_3V*%
X15297100Y-37059800D03*
X19281200Y-55633050D03*
%TO.N,G2_3V*%
X17507200Y-44387850D03*
X22911000Y-33620400D03*
%TO.N,G6_3V*%
X17590000Y-41204650D03*
X25081400Y-36376900D03*
%TO.N,PA_3V*%
X7349100Y-34783000D03*
X13851200Y-51583050D03*
%TO.N,PB_3V*%
X5168718Y-35860401D03*
X12151200Y-51683050D03*
%TO.N,PC_3V*%
X10716000Y-37207400D03*
X15351200Y-50983050D03*
%TO.N,PE_3V*%
X14612600Y-33193200D03*
X20517600Y-55183050D03*
%TO.N,PG_3V*%
X14680300Y-51318450D03*
X9660000Y-34300000D03*
%TO.N,PS2_3V*%
X11151200Y-51683050D03*
X3090000Y-35990000D03*
%TO.N,PS3_3V*%
X5470000Y-37080000D03*
X12951200Y-51583050D03*
%TO.N,/GPIO29_ADC3*%
X39719600Y-54567750D03*
%TO.N,/GPIO28_ADC2*%
X40607600Y-54422550D03*
%TO.N,/VBUS*%
X63323050Y-52283050D03*
X28790000Y-34750000D03*
%TO.N,PF_3V*%
X13598600Y-37545500D03*
X19281200Y-53933050D03*
%TD*%
D44*
%TO.N,GND*%
X30609600Y-38996350D02*
X30609600Y-38995950D01*
X67890400Y-48823250D02*
X68465400Y-48823250D01*
X10790000Y-49548950D02*
X10790000Y-48768450D01*
D45*
X68465400Y-48890650D02*
X68465400Y-48823250D01*
X26759600Y-51798450D02*
X27589600Y-51798450D01*
D44*
X10801500Y-49560450D02*
X10790000Y-49548950D01*
D45*
X36960600Y-44203450D02*
X36990600Y-44173450D01*
X27759600Y-48798450D02*
X28589600Y-48798450D01*
X16352500Y-47798450D02*
X15135500Y-47798450D01*
D44*
X33952600Y-52133050D02*
X33552600Y-52533050D01*
D45*
X36990600Y-44173450D02*
X36990600Y-43498450D01*
X30610600Y-39578450D02*
X30590600Y-39598450D01*
D44*
X68465400Y-51571950D02*
X68638400Y-51571950D01*
D45*
X60510000Y-19300000D02*
X61910000Y-19300000D01*
D44*
X68465400Y-51227450D02*
X68983100Y-51227450D01*
D45*
X62772000Y-18437500D02*
X63148000Y-18437500D01*
X63335000Y-17875000D02*
X62772000Y-18437500D01*
X36959600Y-44277350D02*
X36959600Y-44333850D01*
D44*
X23181200Y-42828050D02*
X23181200Y-43053050D01*
X18351200Y-54843050D02*
X18351200Y-55683050D01*
X68465400Y-48890650D02*
X69260100Y-48890650D01*
D45*
X34582600Y-53533050D02*
X33552600Y-53533050D01*
X36960600Y-44314050D02*
X36960600Y-44277150D01*
X18551200Y-41913050D02*
X18931200Y-40933050D01*
X68465400Y-52260950D02*
X68465400Y-52380550D01*
X30609600Y-39245750D02*
X30609600Y-38996350D01*
X68465400Y-51227450D02*
X68465400Y-51571950D01*
X30609600Y-38995950D02*
X30609600Y-38747050D01*
X15135500Y-47798450D02*
X13214500Y-45877450D01*
X65881200Y-48620550D02*
X63731600Y-48620550D01*
D44*
X11524500Y-48353950D02*
X11690500Y-48353950D01*
X67790400Y-52260950D02*
X68465400Y-52260950D01*
D45*
X61910000Y-19300000D02*
X62210000Y-19000000D01*
X36960600Y-44277150D02*
X36959600Y-44277350D01*
X36960600Y-44350950D02*
X36960600Y-44314050D01*
X68465400Y-48823250D02*
X68465400Y-47460550D01*
X30609600Y-38996350D02*
X30609600Y-38995950D01*
X68465400Y-50883050D02*
X68465400Y-51227450D01*
D44*
X23151200Y-42798050D02*
X23181200Y-42828050D01*
D45*
X13214500Y-45877450D02*
X12960500Y-45877450D01*
X30610600Y-38913450D02*
X30610600Y-39245950D01*
X12820000Y-49179450D02*
X12008000Y-49179450D01*
X12820000Y-50298450D02*
X12008000Y-50298450D01*
D44*
X34582600Y-52133050D02*
X33952600Y-52133050D01*
D45*
X27759600Y-47798450D02*
X28589600Y-47798450D01*
X30610600Y-39245950D02*
X30609600Y-39245750D01*
D44*
X30609600Y-38995950D02*
X30609600Y-38747050D01*
D45*
X62772000Y-18437500D02*
X62210000Y-19000000D01*
D44*
X10790000Y-48768450D02*
X11110000Y-48768450D01*
D45*
X26759600Y-52798450D02*
X27589600Y-52798450D01*
X68465400Y-51571950D02*
X68465400Y-52260950D01*
X8390000Y-45598450D02*
X9190000Y-45598450D01*
X36960600Y-44277150D02*
X36960600Y-44203450D01*
X10790000Y-44828450D02*
X10790000Y-43972450D01*
X23151200Y-42798050D02*
X23151200Y-42283050D01*
D44*
X11110000Y-48768450D02*
X11524500Y-48353950D01*
X69290000Y-53420550D02*
X69290000Y-52820550D01*
D45*
X63148000Y-18437500D02*
X63710000Y-17875000D01*
X30610600Y-39245950D02*
X30610600Y-39578450D01*
%TO.N,+3V3*%
X25910000Y-35450000D02*
X25910000Y-35250000D01*
X24010000Y-36750000D02*
X24010000Y-38250000D01*
D46*
X54433000Y-21932100D02*
X54432800Y-21932100D01*
D45*
X8220000Y-37010000D02*
X7210000Y-37050000D01*
D46*
X49460000Y-38400000D02*
X49460000Y-39500000D01*
X49460000Y-35900000D02*
X49460000Y-37200000D01*
X54210000Y-17000000D02*
X60510000Y-17000000D01*
D45*
X23227500Y-50998450D02*
X22590000Y-50998450D01*
X12410000Y-36950000D02*
X12410000Y-38250000D01*
X26789600Y-48798450D02*
X26027600Y-48798450D01*
D46*
X54432800Y-21932100D02*
X53733000Y-21932100D01*
D45*
X24010000Y-38250000D02*
X24160000Y-38400000D01*
X26027600Y-48798450D02*
X25677600Y-49148450D01*
X16352500Y-48998450D02*
X14284500Y-48998450D01*
D46*
X49460000Y-26204900D02*
X49460000Y-35900000D01*
D45*
X16352500Y-48998450D02*
X16990000Y-48998450D01*
X23227500Y-51398450D02*
X22390000Y-51398450D01*
X23227500Y-49398450D02*
X23990000Y-49398450D01*
X25677600Y-49148450D02*
X25248000Y-49148450D01*
D44*
X18551200Y-42748150D02*
X19567600Y-41731750D01*
D45*
X22390000Y-45360950D02*
X22390000Y-44498450D01*
X23990000Y-49398450D02*
X24240000Y-49148450D01*
D44*
X19567600Y-41731750D02*
X19567600Y-41533050D01*
D45*
X22390000Y-51198450D02*
X22390000Y-51398450D01*
X22590000Y-50998450D02*
X22390000Y-51198450D01*
X22590000Y-49398450D02*
X22390000Y-49198450D01*
X14103500Y-49179450D02*
X13785000Y-49179450D01*
X19160000Y-34000000D02*
X19160000Y-35500000D01*
D46*
X54210000Y-19704400D02*
X54210000Y-21709300D01*
D45*
X14284500Y-48998450D02*
X14103500Y-49179450D01*
D44*
X54122000Y-19616900D02*
X54122000Y-17087500D01*
D46*
X49460000Y-37200000D02*
X49460000Y-38400000D01*
D45*
X34420600Y-45448450D02*
X36940600Y-45448450D01*
X29040000Y-35600000D02*
X30340000Y-35600000D01*
X23227500Y-49398450D02*
X22590000Y-49398450D01*
X14310000Y-35650000D02*
X14310000Y-34350000D01*
X25248000Y-49148450D02*
X24240000Y-49148450D01*
D44*
X29090000Y-35600000D02*
X29040000Y-35600000D01*
D45*
X12410000Y-38250000D02*
X12460000Y-38300000D01*
X24090000Y-48998450D02*
X23227500Y-48998450D01*
X9110000Y-35250000D02*
X8460000Y-34600000D01*
D44*
X36773050Y-52133050D02*
X36990000Y-52350000D01*
D45*
X23227500Y-48998450D02*
X22790000Y-48998450D01*
X14310000Y-34350000D02*
X14160000Y-34200000D01*
X23690000Y-50998450D02*
X25490000Y-52798450D01*
D46*
X54210000Y-17699500D02*
X54210000Y-19704400D01*
D45*
X18790000Y-52235950D02*
X18781200Y-53333050D01*
X24240000Y-49148450D02*
X24090000Y-48998450D01*
D44*
X35547600Y-52133050D02*
X36773050Y-52133050D01*
D45*
X25910000Y-35250000D02*
X24860000Y-34200000D01*
X18751200Y-43083050D02*
X18551200Y-42883050D01*
D46*
X53733000Y-21932100D02*
X49460000Y-26204900D01*
D45*
X2110000Y-38350000D02*
X2060000Y-38400000D01*
X18790000Y-45360950D02*
X18790000Y-42998450D01*
X16890000Y-38150000D02*
X17210000Y-36850000D01*
X2110000Y-37050000D02*
X2110000Y-38350000D01*
X23227500Y-50998450D02*
X23690000Y-50998450D01*
X18781200Y-53333050D02*
X18610000Y-53624250D01*
X16990000Y-48998450D02*
X17190000Y-48798450D01*
D46*
X51210000Y-17087500D02*
X54122000Y-17087500D01*
D45*
X22390000Y-44498450D02*
X23151200Y-44278050D01*
X18610000Y-53624250D02*
X18351200Y-53883050D01*
D44*
X54210000Y-19704400D02*
X54122000Y-19616900D01*
D45*
X9110000Y-35750000D02*
X9110000Y-35250000D01*
X8460000Y-34600000D02*
X8220000Y-37010000D01*
D46*
X54210000Y-21709300D02*
X54433000Y-21932100D01*
D45*
X35552600Y-53533050D02*
X35552600Y-52133050D01*
X25490000Y-52798450D02*
X25789600Y-52798450D01*
X22390000Y-51398450D02*
X22390000Y-52235950D01*
D44*
%TO.N,+1V1*%
X21790000Y-49198450D02*
X21890000Y-49298450D01*
D45*
X13890000Y-50298450D02*
X14088700Y-50099750D01*
X25190000Y-51798450D02*
X25789600Y-51798450D01*
X24590000Y-48598450D02*
X25694600Y-48598450D01*
X23227500Y-48598450D02*
X24590000Y-48598450D01*
X23227500Y-50598450D02*
X22390000Y-50598450D01*
X25694600Y-48598450D02*
X26494600Y-47798450D01*
X23990000Y-50598450D02*
X25190000Y-51798450D01*
X26494600Y-47798450D02*
X26789600Y-47798450D01*
X16352500Y-49398450D02*
X14790000Y-49398450D01*
X14790000Y-49398450D02*
X14590000Y-49598450D01*
X14088700Y-50099750D02*
X14590000Y-49598450D01*
X13983700Y-50099750D02*
X13785000Y-50298450D01*
X23227500Y-50598450D02*
X23990000Y-50598450D01*
D44*
X21890000Y-49298450D02*
X21890000Y-49498450D01*
D45*
X14088700Y-50099750D02*
X13983700Y-50099750D01*
%TO.N,/XIN*%
X11595000Y-46598450D02*
X10790000Y-45793450D01*
X13252200Y-46598450D02*
X11595000Y-46598450D01*
X14852200Y-48198450D02*
X13252200Y-46598450D01*
X10790000Y-45793450D02*
X6674000Y-42139450D01*
X16352500Y-48198450D02*
X14852200Y-48198450D01*
D47*
%TO.N,/USB_D-*%
X26784600Y-50773450D02*
X26772600Y-50785950D01*
D45*
X64780000Y-50700000D02*
X65881200Y-50570550D01*
D47*
X64780000Y-50700000D02*
X26784600Y-50773450D01*
D45*
%TO.N,/USB_D+*%
X64680000Y-49652137D02*
X65430000Y-49890000D01*
X65430000Y-49890000D02*
X66559450Y-49890000D01*
D47*
X26785000Y-49810950D02*
X64680000Y-49652137D01*
D45*
%TO.N,/~{USB_BOOT}*%
X43217600Y-37558050D02*
X38094600Y-39908050D01*
D44*
%TO.N,/QSPI_SS*%
X36971600Y-39456750D02*
X36971600Y-39547750D01*
D45*
X36990600Y-39638850D02*
X36990600Y-39437350D01*
D44*
X23227500Y-45932450D02*
X23227500Y-46198450D01*
D45*
X36990600Y-39437350D02*
X36990600Y-39235950D01*
D44*
X36990600Y-38673450D02*
X36990600Y-39235950D01*
X36990600Y-38585950D02*
X36965000Y-38560350D01*
X23527100Y-45632850D02*
X23227500Y-45932450D01*
X36619700Y-39938650D02*
X36319600Y-40238550D01*
X36919600Y-39638850D02*
X36619700Y-39938650D01*
X34420600Y-38248450D02*
X36914600Y-38248450D01*
D45*
X36990600Y-38498550D02*
X36990600Y-38585950D01*
D44*
X36619700Y-39938650D02*
X36765600Y-39938650D01*
X36990600Y-39437350D02*
X36971600Y-39456750D01*
X36765600Y-39938650D02*
X36971200Y-39733050D01*
X36965000Y-38560350D02*
X36965000Y-38298450D01*
D45*
X36990600Y-38585950D02*
X36990600Y-38673450D01*
%TO.N,/XOUT*%
X13590000Y-47498450D02*
X13185000Y-47498450D01*
X16352500Y-48598450D02*
X14690000Y-48598450D01*
X14690000Y-48598450D02*
X13590000Y-47498450D01*
%TO.N,/QSPI_SD1*%
X23790000Y-46598450D02*
X29915000Y-40473450D01*
X29915000Y-37184620D02*
X30201170Y-36898450D01*
X23227500Y-46598450D02*
X23790000Y-46598450D01*
X29915000Y-40473450D02*
X29915000Y-37184620D01*
D44*
X32934600Y-37543250D02*
X33042100Y-37650750D01*
D45*
X32289800Y-36898450D02*
X32934600Y-37543250D01*
X30201170Y-36898450D02*
X32289800Y-36898450D01*
X32934600Y-37543250D02*
X33042100Y-37650750D01*
%TO.N,/QSPI_SD2*%
X31880600Y-39308450D02*
X31880600Y-39043450D01*
X23227500Y-46998450D02*
X24190000Y-46998450D01*
D44*
X31880600Y-39043450D02*
X31879600Y-39042850D01*
X31879600Y-39042850D02*
X31879600Y-38844250D01*
D45*
X31880600Y-39043450D02*
X31880600Y-38778450D01*
X24190000Y-46998450D02*
X31880600Y-39308450D01*
%TO.N,/QSPI_SD0*%
X23227500Y-47398450D02*
X24590000Y-47398450D01*
X24590000Y-47398450D02*
X26489600Y-45498450D01*
X26489600Y-45498450D02*
X30559600Y-45498450D01*
D44*
%TO.N,/QSPI_SCLK*%
X25324200Y-47709450D02*
X26689600Y-46098450D01*
X28889600Y-46098450D02*
X29390600Y-46598450D01*
X23227500Y-47798450D02*
X25324200Y-47709450D01*
X31585600Y-46303550D02*
X31880000Y-46009150D01*
X31290600Y-46598450D02*
X31585600Y-46303550D01*
X26689600Y-46098450D02*
X28889600Y-46098450D01*
X29390600Y-46598450D02*
X31290600Y-46598450D01*
D45*
X23227500Y-47788450D02*
X23227500Y-47798450D01*
X23222500Y-47793450D02*
X23227500Y-47788450D01*
D44*
%TO.N,/QSPI_SD3*%
X23876400Y-48090450D02*
X25552700Y-48049750D01*
X32714600Y-46473550D02*
X33149600Y-46038550D01*
X32714600Y-46473550D02*
X33149600Y-46038650D01*
X26889600Y-46698450D02*
X28689600Y-46698450D01*
X25552700Y-48049750D02*
X26889600Y-46698450D01*
X28689600Y-46698450D02*
X29190600Y-47198450D01*
X29190600Y-47198450D02*
X31990600Y-47198450D01*
X23665000Y-48198450D02*
X23876400Y-48090450D01*
X23227500Y-48198450D02*
X23665000Y-48198450D01*
X31990600Y-47198450D02*
X32714600Y-46473550D01*
D48*
%TO.N,/F1*%
X47170000Y-18870000D02*
X45720000Y-20320000D01*
X47170000Y-7800000D02*
X47170000Y-18870000D01*
X50140000Y-6350000D02*
X51190000Y-7400000D01*
X45720000Y-6350000D02*
X47170000Y-7800000D01*
X45720000Y-6350000D02*
X50140000Y-6350000D01*
%TO.N,/F2*%
X44430000Y-19070000D02*
X43180000Y-20320000D01*
X43180000Y-6350000D02*
X44430000Y-7600000D01*
X43180000Y-6350000D02*
X44430000Y-5100000D01*
X50190000Y-5100000D02*
X51190000Y-6100000D01*
X44430000Y-5100000D02*
X50190000Y-5100000D01*
X44430000Y-7600000D02*
X44430000Y-19070000D01*
D49*
%TO.N,/S2*%
X41740000Y-7450000D02*
X41740000Y-19220000D01*
X41740000Y-19220000D02*
X40640000Y-20320000D01*
X40640000Y-6350000D02*
X41740000Y-7450000D01*
%TO.N,/S1*%
X39200000Y-7450000D02*
X39200000Y-19220000D01*
X39200000Y-19220000D02*
X38100000Y-20320000D01*
X38100000Y-6350000D02*
X39200000Y-7450000D01*
%TO.N,/S0*%
X35560000Y-6350000D02*
X36660000Y-7450000D01*
X36660000Y-19220000D02*
X35560000Y-20320000D01*
X36660000Y-7450000D02*
X36660000Y-19220000D01*
%TO.N,/G5*%
X33020000Y-21346900D02*
X33020000Y-20320000D01*
D44*
X31738000Y-30669500D02*
X31725000Y-30682400D01*
D49*
X31728000Y-31090100D02*
X31738000Y-30669500D01*
X33020000Y-6350000D02*
X34120000Y-7450000D01*
X34120000Y-19220000D02*
X33020000Y-20320000D01*
D44*
X31725000Y-30682400D02*
X31725000Y-30886200D01*
D49*
X31725000Y-22410100D02*
X33020000Y-21346900D01*
X34120000Y-7450000D02*
X34120000Y-19220000D01*
X31738000Y-30669500D02*
X31750000Y-30124400D01*
X31750000Y-30124400D02*
X31725000Y-22410100D01*
%TO.N,/G7*%
X29312000Y-22515300D02*
X29312000Y-29434000D01*
X30480000Y-6350000D02*
X31580000Y-7450000D01*
D44*
X29312000Y-30362400D02*
X29312000Y-30362800D01*
X29312000Y-30726400D02*
X29312000Y-31090000D01*
X29312000Y-30726400D02*
X29311600Y-30726800D01*
D45*
X29312000Y-30726400D02*
X29312000Y-31090000D01*
X29312000Y-30362800D02*
X29312000Y-30726400D01*
D49*
X30480000Y-20320000D02*
X30480000Y-21346900D01*
X31580000Y-7450000D02*
X31580000Y-19220000D01*
D44*
X29312000Y-30362800D02*
X29312000Y-30726400D01*
D45*
X29312000Y-29434000D02*
X29312000Y-30362400D01*
X29312000Y-30362400D02*
X29312000Y-30362800D01*
D49*
X30480000Y-21346900D02*
X29312000Y-22515300D01*
D44*
X29311600Y-30726800D02*
X29311600Y-31090000D01*
D49*
X31580000Y-19220000D02*
X30480000Y-20320000D01*
D45*
%TO.N,/G6*%
X26772000Y-30362400D02*
X26772000Y-30362800D01*
D44*
X26772000Y-30362400D02*
X26772000Y-30362800D01*
D45*
X26772000Y-30726400D02*
X26772000Y-31090000D01*
D44*
X26772000Y-30726400D02*
X26772000Y-31090000D01*
D49*
X29040000Y-19220000D02*
X27940000Y-20320000D01*
D45*
X26772000Y-30362800D02*
X26772000Y-30726400D01*
D44*
X26772000Y-30726400D02*
X26771600Y-30726800D01*
D49*
X26772000Y-22515300D02*
X27940000Y-21346900D01*
X27940000Y-21346900D02*
X27940000Y-20320000D01*
X27940000Y-6350000D02*
X29040000Y-7450000D01*
D44*
X26771600Y-30726800D02*
X26771600Y-31090000D01*
X26772000Y-30362800D02*
X26772000Y-30726400D01*
D49*
X29040000Y-7450000D02*
X29040000Y-19220000D01*
X26772000Y-29434000D02*
X26772000Y-22515300D01*
D45*
X26772000Y-29434000D02*
X26772000Y-30362400D01*
D46*
%TO.N,Net-(D1A-K)*%
X59040000Y-7750000D02*
X59040000Y-13230000D01*
X53190000Y-6750000D02*
X58040000Y-6750000D01*
X62410000Y-14700000D02*
X63710000Y-16000000D01*
X58040000Y-6750000D02*
X59040000Y-7750000D01*
X60510000Y-14700000D02*
X62410000Y-14700000D01*
X59040000Y-13230000D02*
X60510000Y-14700000D01*
D50*
X32210000Y-33970000D02*
X31590000Y-33350000D01*
D49*
%TO.N,/PDP*%
X21596800Y-31090000D02*
X21596800Y-22610100D01*
X22860000Y-6350000D02*
X23960000Y-7450000D01*
X23960000Y-7450000D02*
X23960000Y-19220000D01*
X21596800Y-22610100D02*
X22860000Y-21346900D01*
X23960000Y-19220000D02*
X22860000Y-20320000D01*
X22860000Y-21346900D02*
X22860000Y-20320000D01*
%TO.N,/PS1*%
X21590000Y-19050000D02*
X20320000Y-20320000D01*
X21590000Y-7620000D02*
X21590000Y-19050000D01*
X20320000Y-20320000D02*
X20320000Y-21346900D01*
X20320000Y-6350000D02*
X21590000Y-7620000D01*
X19070300Y-22596600D02*
X19070300Y-31090000D01*
X20320000Y-21346900D02*
X19070300Y-22596600D01*
%TO.N,/Pd*%
X17780000Y-6350000D02*
X19050000Y-7620000D01*
X19050000Y-19050000D02*
X17780000Y-20320000D01*
X17780000Y-20320000D02*
X17780000Y-21346900D01*
X16543900Y-22583000D02*
X16543900Y-31090000D01*
X17780000Y-21346900D02*
X16543900Y-22583000D01*
X19050000Y-7620000D02*
X19050000Y-19050000D01*
%TO.N,/Pe*%
X16340000Y-7450000D02*
X16340000Y-19220000D01*
X15240000Y-21346900D02*
X14017400Y-22569500D01*
X14017400Y-22569500D02*
X14017400Y-31090000D01*
X15240000Y-20320000D02*
X15240000Y-21346900D01*
X16340000Y-19220000D02*
X15240000Y-20320000D01*
X15240000Y-6350000D02*
X16340000Y-7450000D01*
%TO.N,/Pf*%
X11491000Y-22555900D02*
X11491000Y-31090000D01*
X12700000Y-21346900D02*
X11491000Y-22555900D01*
X12700000Y-20320000D02*
X12700000Y-21346900D01*
X13800000Y-19220000D02*
X12700000Y-20320000D01*
X12700000Y-6350000D02*
X13800000Y-7450000D01*
X13800000Y-7450000D02*
X13800000Y-19220000D01*
%TO.N,/Pg*%
X10160000Y-21346900D02*
X8964500Y-22542400D01*
X10160000Y-6350000D02*
X11260000Y-7450000D01*
X11260000Y-19220000D02*
X10160000Y-20320000D01*
X11260000Y-7450000D02*
X11260000Y-19220000D01*
X10160000Y-20320000D02*
X10160000Y-21346900D01*
X8964500Y-22542400D02*
X8964500Y-31090000D01*
%TO.N,/PS3*%
X8720000Y-7450000D02*
X8720000Y-19220000D01*
X7620000Y-6350000D02*
X8720000Y-7450000D01*
X7620000Y-20320000D02*
X7620000Y-21346900D01*
X8720000Y-19220000D02*
X7620000Y-20320000D01*
X7620000Y-21346900D02*
X6438100Y-22528800D01*
X6438100Y-22528800D02*
X6438100Y-31090000D01*
%TO.N,/PS2*%
X6180000Y-7450000D02*
X6180000Y-19220000D01*
X5080000Y-6350000D02*
X6180000Y-7450000D01*
X3911600Y-22515300D02*
X3911600Y-31090000D01*
X6180000Y-19220000D02*
X5080000Y-20320000D01*
X5080000Y-21346900D02*
X3911600Y-22515300D01*
X5080000Y-20320000D02*
X5080000Y-21346900D01*
%TO.N,/Pb*%
X5174800Y-29061700D02*
X5174800Y-31090000D01*
X5080000Y-28966900D02*
X5174800Y-29061700D01*
X5080000Y-27940000D02*
X5080000Y-28966900D01*
%TO.N,/Pa*%
X7701300Y-29048200D02*
X7701300Y-31090000D01*
X7620000Y-27940000D02*
X7620000Y-28966900D01*
X7620000Y-28966900D02*
X7701300Y-29048200D01*
%TO.N,/Pc*%
X10227700Y-29034600D02*
X10227700Y-31090000D01*
X10160000Y-28966900D02*
X10227700Y-29034600D01*
X10160000Y-27940000D02*
X10160000Y-28966900D01*
%TO.N,/G0*%
X12754200Y-29021100D02*
X12754200Y-31090000D01*
X12700000Y-27940000D02*
X12700000Y-28966900D01*
X12700000Y-28966900D02*
X12754200Y-29021100D01*
%TO.N,/G1*%
X15240000Y-27940000D02*
X15240000Y-28966900D01*
X15240000Y-28966900D02*
X15280600Y-29007500D01*
X15280600Y-29007500D02*
X15280600Y-31090000D01*
%TO.N,/G4*%
X17780000Y-27940000D02*
X17780000Y-28966900D01*
X17780000Y-28966900D02*
X17807100Y-28994000D01*
X17807100Y-28994000D02*
X17807100Y-31090000D01*
%TO.N,/G3*%
X20320000Y-28966900D02*
X20333500Y-28980400D01*
X20320000Y-27940000D02*
X20320000Y-28966900D01*
X20333500Y-28980400D02*
X20333500Y-31090000D01*
%TO.N,/G2*%
X22860000Y-27940000D02*
X22860000Y-31090000D01*
D45*
%TO.N,G0_3V*%
X12754200Y-35305800D02*
X12410000Y-35650000D01*
X19831200Y-54183050D02*
X19281200Y-54733050D01*
X19590000Y-52235950D02*
X19590000Y-53464050D01*
X19831200Y-53705250D02*
X19831200Y-54183050D01*
X12754200Y-33760100D02*
X12754200Y-35305800D01*
X12754200Y-32110000D02*
X12754200Y-33760100D01*
X19590000Y-53464050D02*
X19831200Y-53705250D01*
D44*
X12787400Y-33726900D02*
X12754200Y-33760100D01*
%TO.N,G1_3V*%
X15187300Y-36950000D02*
X15297100Y-37059800D01*
D45*
X19281200Y-55633050D02*
X20181200Y-54733050D01*
X20181200Y-54733050D02*
X20217600Y-53383050D01*
X15280600Y-32110000D02*
X15280600Y-36354400D01*
X14685000Y-36950000D02*
X14310000Y-36950000D01*
X19990000Y-52849050D02*
X19990000Y-52235950D01*
X15280600Y-36354400D02*
X14685000Y-36950000D01*
X20217600Y-53383050D02*
X19990000Y-52849050D01*
D44*
X14685000Y-36950000D02*
X15187300Y-36950000D01*
%TO.N,G2_3V*%
X17507200Y-44387850D02*
X17590000Y-44470650D01*
X22911000Y-34351000D02*
X22911000Y-33620400D01*
D45*
X22860000Y-34300000D02*
X22911000Y-34351000D01*
X22860000Y-32110000D02*
X22860000Y-34300000D01*
D44*
X17590000Y-44470650D02*
X17590000Y-45360950D01*
D45*
X22911000Y-34351000D02*
X24010000Y-35450000D01*
D44*
%TO.N,G3_3V*%
X16514264Y-40350000D02*
X18490000Y-38950000D01*
D45*
X19485000Y-36850000D02*
X19297500Y-36850000D01*
X20333500Y-36001500D02*
X19485000Y-36850000D01*
D44*
X16352500Y-40511764D02*
X16514264Y-40350000D01*
X18490000Y-38950000D02*
X19290000Y-37950000D01*
X19290000Y-37950000D02*
X19297500Y-36850000D01*
X16352500Y-46198450D02*
X16352500Y-40511764D01*
D45*
X20333500Y-32110000D02*
X20333500Y-36001500D01*
D44*
%TO.N,G4_3V*%
X16352500Y-46998450D02*
X15781300Y-46998450D01*
X16390000Y-39250000D02*
X17790000Y-38250000D01*
D45*
X17807100Y-32110000D02*
X17160000Y-33700000D01*
D44*
X15344100Y-46561250D02*
X15344100Y-40150000D01*
D45*
X17185000Y-34625000D02*
X17210000Y-35550000D01*
D44*
X15781300Y-46998450D02*
X15344100Y-46561250D01*
X17811700Y-35251700D02*
X17185000Y-34625000D01*
D45*
X17160000Y-33700000D02*
X17185000Y-34625000D01*
D44*
X15344100Y-40150000D02*
X16390000Y-39250000D01*
X17790000Y-38250000D02*
X17811700Y-35251700D01*
%TO.N,G5_3V*%
X30315000Y-36325000D02*
X32690000Y-36350000D01*
X26618050Y-38050000D02*
X28590000Y-38050000D01*
X31724600Y-32110000D02*
X32790000Y-33175400D01*
X20780000Y-43900000D02*
X20802600Y-43865450D01*
X32790000Y-34780000D02*
X32620000Y-34950000D01*
X33290000Y-35550000D02*
X32690000Y-34950000D01*
X19990000Y-45360950D02*
X20000000Y-44440000D01*
X32690000Y-34950000D02*
X32240000Y-34950000D01*
X20000000Y-44440000D02*
X20780000Y-43900000D01*
X32790000Y-33175400D02*
X32790000Y-34780000D01*
X32690000Y-36350000D02*
X33290000Y-35550000D01*
X28590000Y-38050000D02*
X30315000Y-36325000D01*
X20802600Y-43865450D02*
X26618050Y-38050000D01*
X32620000Y-34950000D02*
X32240000Y-34950000D01*
D45*
%TO.N,G6_3V*%
X26772000Y-35763400D02*
X25910000Y-36100000D01*
D44*
X17590000Y-43725750D02*
X17590000Y-41204650D01*
X26772000Y-33845800D02*
X26772000Y-33845400D01*
X26772000Y-32326900D02*
X26772000Y-32272600D01*
X25081400Y-36376900D02*
X25358300Y-36100000D01*
X26772000Y-33845400D02*
X26772000Y-32977700D01*
D45*
X26772000Y-33845800D02*
X26772000Y-35763400D01*
D44*
X17990000Y-45360950D02*
X18033900Y-45317050D01*
D45*
X26772000Y-32977700D02*
X26772000Y-33845400D01*
X26772000Y-32326900D02*
X26772000Y-32543800D01*
X26772000Y-32272600D02*
X26772000Y-32326900D01*
X26772000Y-33845400D02*
X26772000Y-33845800D01*
D44*
X18033900Y-44169650D02*
X17590000Y-43725750D01*
X18033900Y-45317050D02*
X18033900Y-44169650D01*
X25358300Y-36100000D02*
X25910000Y-36100000D01*
X26772000Y-32977700D02*
X26772000Y-32543800D01*
D45*
X26772000Y-32543800D02*
X26772000Y-32977700D01*
D44*
X26772000Y-32543800D02*
X26772000Y-32326900D01*
%TO.N,G7_3V*%
X31370000Y-35600000D02*
X32240000Y-35600000D01*
X31290000Y-34088400D02*
X31290000Y-35520000D01*
X31815000Y-36025000D02*
X32240000Y-35600000D01*
X26493786Y-37750000D02*
X28465736Y-37750000D01*
X19190000Y-45360950D02*
X19230000Y-44350000D01*
X25293786Y-38950000D02*
X26493786Y-37750000D01*
X28465736Y-37750000D02*
X30190736Y-36025000D01*
X19230000Y-44350000D02*
X20810000Y-43390000D01*
X31290000Y-35520000D02*
X31370000Y-35600000D01*
X20810000Y-43390000D02*
X25293786Y-38950000D01*
X30190736Y-36025000D02*
X31815000Y-36025000D01*
X29311600Y-32110000D02*
X31290000Y-34088400D01*
D45*
%TO.N,PA_3V*%
X14504000Y-52235950D02*
X13851200Y-51583050D01*
D44*
X7381200Y-34815100D02*
X7349100Y-34783000D01*
X7701300Y-34815100D02*
X7381200Y-34815100D01*
D45*
X7701300Y-35258700D02*
X7210000Y-35750000D01*
X17190000Y-52235950D02*
X14504000Y-52235950D01*
X7701300Y-32110000D02*
X7701300Y-34815100D01*
X7701300Y-34815100D02*
X7701300Y-35258700D01*
%TO.N,PB_3V*%
X5174800Y-32110000D02*
X5174800Y-36260200D01*
X4385000Y-37050000D02*
X5174800Y-36260200D01*
X13741500Y-53273450D02*
X12151200Y-51683050D01*
X4385000Y-37050000D02*
X4010000Y-37050000D01*
X17510600Y-53273450D02*
X13741500Y-53273450D01*
X17990000Y-52794050D02*
X17510600Y-53273450D01*
X17990000Y-52235950D02*
X17990000Y-52794050D01*
%TO.N,PC_3V*%
X10227700Y-36457300D02*
X9681200Y-37003800D01*
D44*
X9884800Y-37207400D02*
X9681200Y-37003800D01*
D45*
X9635000Y-37050000D02*
X9110000Y-37050000D01*
X16352500Y-50998450D02*
X15366500Y-50998450D01*
X9681200Y-37003800D02*
X9635000Y-37050000D01*
X10227700Y-32110000D02*
X10227700Y-36457300D01*
X15366500Y-50998450D02*
X15351200Y-50983050D01*
D44*
X10716000Y-37207400D02*
X9884800Y-37207400D01*
D45*
%TO.N,PD_3V*%
X16543900Y-35908900D02*
X16676900Y-36041900D01*
D44*
X16352500Y-47398450D02*
X15695100Y-47398450D01*
D45*
X16676900Y-36041900D02*
X16835000Y-36200000D01*
D44*
X15695100Y-47398450D02*
X15008500Y-46711850D01*
X16676900Y-36424900D02*
X16676900Y-36041900D01*
X15008500Y-38093300D02*
X16676900Y-36424900D01*
X15008500Y-46711850D02*
X15008500Y-38093300D01*
D45*
X16835000Y-36200000D02*
X17210000Y-36200000D01*
X16543900Y-32110000D02*
X16543900Y-35908900D01*
%TO.N,PE_3V*%
X14885000Y-36250000D02*
X14835000Y-36300000D01*
X14885000Y-33465600D02*
X14885000Y-36250000D01*
X14017400Y-32110000D02*
X14885000Y-32977600D01*
X20517600Y-55183050D02*
X20617600Y-53283050D01*
D44*
X14885000Y-33465600D02*
X14612600Y-33193200D01*
D45*
X20390000Y-52699150D02*
X20390000Y-52235950D01*
X14885000Y-32977600D02*
X14885000Y-33465600D01*
X14835000Y-36300000D02*
X14310000Y-36300000D01*
X20617600Y-53283050D02*
X20390000Y-52699150D01*
%TO.N,PG_3V*%
X14751200Y-51283050D02*
X14715700Y-51318450D01*
X9485000Y-36400000D02*
X9685000Y-36200000D01*
D44*
X9660000Y-34300000D02*
X9685000Y-34300000D01*
D45*
X16217800Y-51533050D02*
X15001200Y-51533050D01*
X9685000Y-34300000D02*
X9685000Y-32830500D01*
X15001200Y-51533050D02*
X14751200Y-51283050D01*
X9685000Y-36200000D02*
X9685000Y-34300000D01*
X14715700Y-51318450D02*
X14680300Y-51318450D01*
X16352500Y-51398450D02*
X16217800Y-51533050D01*
X9685000Y-32830500D02*
X8964500Y-32110000D01*
X9110000Y-36400000D02*
X9485000Y-36400000D01*
D44*
%TO.N,PS1_3V*%
X16352500Y-46598450D02*
X15855400Y-46598450D01*
X16126396Y-40137868D02*
X17990000Y-38850000D01*
D45*
X18585000Y-36200000D02*
X19110000Y-36200000D01*
D44*
X15649800Y-46392850D02*
X15649800Y-40614464D01*
X18560000Y-38250000D02*
X18560000Y-36175000D01*
X15855400Y-46598450D02*
X15649800Y-46392850D01*
D45*
X19070300Y-32110000D02*
X18535000Y-32645300D01*
D44*
X15649800Y-40614464D02*
X16126396Y-40137868D01*
D45*
X18535000Y-36150000D02*
X18560000Y-36175000D01*
X18535000Y-32645300D02*
X18535000Y-36150000D01*
X18560000Y-36175000D02*
X18585000Y-36200000D01*
D44*
X17990000Y-38850000D02*
X18560000Y-38250000D01*
%TO.N,PS2_3V*%
X3560000Y-36400000D02*
X3500000Y-36400000D01*
X3500000Y-36400000D02*
X3090000Y-35990000D01*
D45*
X13091500Y-53623450D02*
X11151200Y-51683050D01*
X18390000Y-52235950D02*
X18390000Y-52889050D01*
X17655500Y-53623450D02*
X13091500Y-53623450D01*
X3911600Y-32110000D02*
X3435000Y-32586600D01*
X3560000Y-36400000D02*
X4010000Y-36400000D01*
X18390000Y-52889050D02*
X17655500Y-53623450D01*
X3435000Y-36275000D02*
X3560000Y-36400000D01*
X3435000Y-32586600D02*
X3435000Y-36275000D01*
%TO.N,PS3_3V*%
X6438100Y-36153100D02*
X6438100Y-32110000D01*
X7210000Y-36400000D02*
X6685000Y-36400000D01*
X17590000Y-52235950D02*
X17590000Y-52699150D01*
X14291500Y-52923450D02*
X12951200Y-51583050D01*
X6685000Y-36400000D02*
X6438100Y-36153100D01*
X17365600Y-52923450D02*
X14291500Y-52923450D01*
X17590000Y-52699150D02*
X17365600Y-52923450D01*
D44*
X6685000Y-36400000D02*
X6005000Y-37080000D01*
X6005000Y-37080000D02*
X5470000Y-37080000D01*
%TO.N,PDP_3V*%
X17143740Y-40650000D02*
X16980500Y-40850000D01*
D45*
X24010000Y-36100000D02*
X23485000Y-36100000D01*
X23485000Y-36100000D02*
X21596800Y-34211800D01*
D44*
X16980500Y-45151450D02*
X17190000Y-45360950D01*
X16980500Y-40850000D02*
X16980500Y-45151450D01*
X17924664Y-39950000D02*
X17143740Y-40650000D01*
X24010000Y-36100000D02*
X22474664Y-36100000D01*
X22474664Y-36100000D02*
X17924664Y-39950000D01*
D45*
X21596800Y-34211800D02*
X21596800Y-32110000D01*
D44*
%TO.N,/GPIO26_ADC0*%
X49117600Y-55833050D02*
X50217600Y-54733050D01*
X20790000Y-52830457D02*
X23792593Y-55833050D01*
X20790000Y-52235950D02*
X20790000Y-52830457D01*
X50217600Y-54733050D02*
X50217600Y-53933050D01*
X23792593Y-55833050D02*
X49117600Y-55833050D01*
%TO.N,/GPIO29_ADC3*%
X21990000Y-52235950D02*
X21990000Y-52663744D01*
X23894006Y-54567750D02*
X39719600Y-54567750D01*
X21990000Y-52663744D02*
X23894006Y-54567750D01*
%TO.N,/GPIO27_ADC1*%
X44417600Y-55533050D02*
X45217600Y-54733050D01*
X21190000Y-52235950D02*
X21190000Y-52712272D01*
X24010778Y-55533050D02*
X44417600Y-55533050D01*
X21190000Y-52712272D02*
X24010778Y-55533050D01*
X45217600Y-54733050D02*
X45517600Y-53933050D01*
%TO.N,/GPIO28_ADC2*%
X40517600Y-54512150D02*
X40517600Y-54333050D01*
X23994742Y-55092750D02*
X39936600Y-55092750D01*
X40517600Y-54333050D02*
X40607600Y-54422550D01*
X21590000Y-52235950D02*
X21590000Y-52688008D01*
X39936600Y-55092750D02*
X40517600Y-54512150D01*
X21590000Y-52688008D02*
X23994742Y-55092750D01*
%TO.N,Net-(C9-Pad1)*%
X12165000Y-47498450D02*
X11590000Y-47498450D01*
X11290000Y-47798450D02*
X10795000Y-47798450D01*
D45*
X6674000Y-48163450D02*
X10790000Y-47803450D01*
D44*
X11590000Y-47498450D02*
X11290000Y-47798450D01*
D50*
%TO.N,/VBUS*%
X30340000Y-34300000D02*
X30340000Y-34950000D01*
X28790000Y-34750000D02*
X29920000Y-34950000D01*
X64343700Y-52283050D02*
X66115000Y-51220550D01*
X63323050Y-52283050D02*
X64343700Y-52283050D01*
X29920000Y-34950000D02*
X30340000Y-34950000D01*
D45*
%TO.N,Net-(U3-USB_DP)*%
X23227500Y-49798450D02*
X25764600Y-49798450D01*
%TO.N,Net-(U3-USB_DM)*%
X24490000Y-50198450D02*
X25090000Y-50798450D01*
X23227500Y-50198450D02*
X24490000Y-50198450D01*
X25090000Y-50798450D02*
X25764600Y-50798450D01*
%TO.N,PF_3V*%
X11491000Y-35906000D02*
X11491000Y-32110000D01*
D44*
X12410000Y-36300000D02*
X12961700Y-36300000D01*
D45*
X11885000Y-36300000D02*
X11491000Y-35906000D01*
X19281200Y-53933050D02*
X19190000Y-53321850D01*
X19190000Y-53321850D02*
X19190000Y-52235950D01*
D44*
X12961700Y-36300000D02*
X12961700Y-36908600D01*
X12961700Y-36908600D02*
X13598600Y-37545500D01*
D45*
X12410000Y-36300000D02*
X11885000Y-36300000D01*
%TD*%
%TA.AperFunction,Conductor*%
%TO.N,+1V1*%
G36*
X21968300Y-46620124D02*
G01*
X21989974Y-46672450D01*
X21989974Y-49398450D01*
X22115974Y-49398450D01*
X22168300Y-49420124D01*
X22189974Y-49472450D01*
X22189974Y-49798450D01*
X22515974Y-49798450D01*
X22568300Y-49820124D01*
X22589974Y-49872450D01*
X22589974Y-50677875D01*
X22568300Y-50730201D01*
X22544294Y-50746241D01*
X22512088Y-50759582D01*
X22512087Y-50759583D01*
X22470580Y-50776776D01*
X22441370Y-50788875D01*
X22441073Y-50788160D01*
X22407151Y-50798450D01*
X21663974Y-50798450D01*
X21611648Y-50776776D01*
X21589974Y-50724450D01*
X21589974Y-47198450D01*
X21549136Y-47198450D01*
X21496810Y-47176776D01*
X21493170Y-47173136D01*
X21493170Y-47173135D01*
X21415315Y-47095280D01*
X21314594Y-47050807D01*
X21314590Y-47050806D01*
X21289968Y-47047950D01*
X18290032Y-47047950D01*
X18265409Y-47050806D01*
X18265405Y-47050807D01*
X18164684Y-47095280D01*
X18086830Y-47173134D01*
X18042357Y-47273855D01*
X18042356Y-47273859D01*
X18039500Y-47298482D01*
X18039500Y-49724450D01*
X18017826Y-49776776D01*
X17965500Y-49798450D01*
X17463974Y-49798450D01*
X17411648Y-49776776D01*
X17389974Y-49724450D01*
X17389974Y-49072450D01*
X17411648Y-49020124D01*
X17463974Y-48998450D01*
X17589974Y-48998450D01*
X17589974Y-48210883D01*
X17608046Y-48162426D01*
X17655282Y-48107913D01*
X17709097Y-47990076D01*
X17727533Y-47861850D01*
X17709097Y-47733624D01*
X17655282Y-47615787D01*
X17655280Y-47615785D01*
X17655280Y-47615784D01*
X17608048Y-47561274D01*
X17589974Y-47512815D01*
X17589974Y-46672450D01*
X17611648Y-46620124D01*
X17663974Y-46598450D01*
X21915974Y-46598450D01*
X21968300Y-46620124D01*
G37*
%TD.AperFunction*%
%TD*%
%TA.AperFunction,Conductor*%
%TO.N,+3V3*%
G36*
X22589974Y-48798450D02*
G01*
X22589974Y-49598450D01*
X22589974Y-49659757D01*
X22586703Y-49659435D01*
X22575485Y-49654788D01*
X22575475Y-49654785D01*
X22535628Y-49646859D01*
X22515974Y-49642950D01*
X22515972Y-49642950D01*
X22419474Y-49642950D01*
X22367148Y-49621276D01*
X22345474Y-49568950D01*
X22345474Y-49472451D01*
X22344628Y-49468198D01*
X22333637Y-49412943D01*
X22333635Y-49412939D01*
X22333370Y-49411605D01*
X22331318Y-49402368D01*
X22326697Y-49370227D01*
X22326697Y-49370224D01*
X22272882Y-49252387D01*
X22188049Y-49154483D01*
X22179462Y-49148964D01*
X22147164Y-49102440D01*
X22145474Y-49086714D01*
X22145474Y-46672451D01*
X22133638Y-46612948D01*
X22133637Y-46612947D01*
X22133637Y-46612943D01*
X22111963Y-46560617D01*
X22111957Y-46560606D01*
X22091668Y-46525463D01*
X22091666Y-46525461D01*
X22027809Y-46476462D01*
X22027805Y-46476460D01*
X21975485Y-46454788D01*
X21975475Y-46454785D01*
X21935628Y-46446859D01*
X21915974Y-46442950D01*
X17663974Y-46442950D01*
X17647105Y-46446305D01*
X17604472Y-46454785D01*
X17604462Y-46454788D01*
X17552147Y-46476458D01*
X17552130Y-46476466D01*
X17516987Y-46496755D01*
X17516985Y-46496757D01*
X17467986Y-46560614D01*
X17467984Y-46560618D01*
X17446312Y-46612938D01*
X17446309Y-46612948D01*
X17434474Y-46672451D01*
X17434474Y-47512809D01*
X17434475Y-47512825D01*
X17444276Y-47567149D01*
X17444277Y-47567152D01*
X17444278Y-47567156D01*
X17453918Y-47593002D01*
X17462351Y-47615613D01*
X17490527Y-47663103D01*
X17490528Y-47663104D01*
X17516152Y-47692675D01*
X17527540Y-47710394D01*
X17553941Y-47768204D01*
X17559875Y-47788414D01*
X17568919Y-47851318D01*
X17568919Y-47872380D01*
X17559875Y-47935283D01*
X17553941Y-47955493D01*
X17527541Y-48013300D01*
X17516155Y-48031017D01*
X17490525Y-48060597D01*
X17462349Y-48108087D01*
X17444275Y-48156546D01*
X17434474Y-48210881D01*
X17434474Y-48792912D01*
X17412800Y-48845238D01*
X17388794Y-48861278D01*
X17352141Y-48876461D01*
X17352138Y-48876462D01*
X17352137Y-48876463D01*
X17352130Y-48876466D01*
X17316987Y-48896755D01*
X17316985Y-48896757D01*
X17267986Y-48960614D01*
X17267984Y-48960618D01*
X17246312Y-49012938D01*
X17246309Y-49012948D01*
X17234474Y-49072451D01*
X17234474Y-49724448D01*
X17246309Y-49783951D01*
X17246312Y-49783961D01*
X17267982Y-49836276D01*
X17267990Y-49836293D01*
X17288279Y-49871436D01*
X17288281Y-49871438D01*
X17288282Y-49871439D01*
X17352141Y-49920439D01*
X17404467Y-49942113D01*
X17463974Y-49953950D01*
X17463976Y-49953950D01*
X17965500Y-49953950D01*
X18017826Y-49975624D01*
X18039500Y-50027950D01*
X18039500Y-50298417D01*
X18042356Y-50323040D01*
X18042357Y-50323044D01*
X18086830Y-50423765D01*
X18164685Y-50501620D01*
X18265406Y-50546093D01*
X18290032Y-50548950D01*
X21289968Y-50548950D01*
X21314594Y-50546093D01*
X21330583Y-50539032D01*
X21387204Y-50537723D01*
X21428168Y-50576835D01*
X21434474Y-50606727D01*
X21434474Y-50724448D01*
X21446309Y-50783951D01*
X21446312Y-50783961D01*
X21467982Y-50836276D01*
X21467990Y-50836293D01*
X21488279Y-50871436D01*
X21488281Y-50871438D01*
X21488282Y-50871439D01*
X21552141Y-50920439D01*
X21604467Y-50942113D01*
X21663974Y-50953950D01*
X21663976Y-50953950D01*
X22407150Y-50953950D01*
X22407151Y-50953950D01*
X22452290Y-50947254D01*
X22486212Y-50936964D01*
X22486211Y-50936963D01*
X22499039Y-50933072D01*
X22501389Y-50932401D01*
X22502860Y-50932007D01*
X22504581Y-50931391D01*
X22507990Y-50930357D01*
X22509541Y-50928949D01*
X22530087Y-50920440D01*
X22530088Y-50920439D01*
X22530093Y-50920437D01*
X22536822Y-50917650D01*
X22536822Y-50917649D01*
X22571595Y-50903246D01*
X22571598Y-50903244D01*
X22589974Y-50895631D01*
X22589974Y-51598450D01*
X16989974Y-51598450D01*
X16989974Y-45998450D01*
X22589974Y-45998450D01*
X22589974Y-48798450D01*
G37*
%TD.AperFunction*%
%TD*%
%TA.AperFunction,Conductor*%
%TO.N,GND*%
G36*
X10486128Y-37708041D02*
G01*
X10518547Y-37721469D01*
X10572291Y-37743730D01*
X10716000Y-37762650D01*
X10859709Y-37743730D01*
X10923374Y-37717359D01*
X10945872Y-37708041D01*
X10994089Y-37698450D01*
X11933500Y-37698450D01*
X12001621Y-37718452D01*
X12048114Y-37772108D01*
X12059500Y-37824450D01*
X12059500Y-37874876D01*
X12039498Y-37942997D01*
X12033462Y-37951580D01*
X11979139Y-38022374D01*
X11923670Y-38156290D01*
X11904750Y-38299999D01*
X11904750Y-38300000D01*
X11923670Y-38443709D01*
X11979137Y-38577624D01*
X12067378Y-38692621D01*
X12182375Y-38780862D01*
X12266821Y-38815839D01*
X12316291Y-38836330D01*
X12460000Y-38855250D01*
X12603709Y-38836330D01*
X12688155Y-38801351D01*
X12737624Y-38780862D01*
X12852616Y-38692625D01*
X12852616Y-38692624D01*
X12852621Y-38692621D01*
X12852624Y-38692616D01*
X12857641Y-38687600D01*
X12919952Y-38653572D01*
X12990768Y-38658633D01*
X13047606Y-38701177D01*
X13072420Y-38767696D01*
X13072741Y-38776367D01*
X13089974Y-45488451D01*
X15153069Y-47551545D01*
X15187094Y-47613857D01*
X15189974Y-47640640D01*
X15189974Y-47721950D01*
X15169972Y-47790071D01*
X15116316Y-47836564D01*
X15063974Y-47847950D01*
X15049572Y-47847950D01*
X14981451Y-47827948D01*
X14960477Y-47811045D01*
X13467418Y-46317985D01*
X13467408Y-46317977D01*
X13387492Y-46271837D01*
X13376959Y-46269014D01*
X13298344Y-46247950D01*
X13298342Y-46247950D01*
X11792372Y-46247950D01*
X11724251Y-46227948D01*
X11703277Y-46211045D01*
X11387404Y-45895172D01*
X11353378Y-45832860D01*
X11350499Y-45806077D01*
X11350499Y-45622717D01*
X11342129Y-45569868D01*
X11351229Y-45499457D01*
X11377483Y-45461063D01*
X11469719Y-45368827D01*
X11552030Y-45229647D01*
X11594505Y-45083450D01*
X10666000Y-45083450D01*
X10597879Y-45063448D01*
X10551386Y-45009792D01*
X10540000Y-44957450D01*
X10540000Y-44583450D01*
X11040000Y-44583450D01*
X11594505Y-44583450D01*
X11594505Y-44583449D01*
X11552030Y-44437252D01*
X11469719Y-44298072D01*
X11469716Y-44298068D01*
X11355381Y-44183733D01*
X11355377Y-44183730D01*
X11216197Y-44101419D01*
X11060912Y-44056304D01*
X11040000Y-44054658D01*
X11040000Y-44583450D01*
X10540000Y-44583450D01*
X10540000Y-44054659D01*
X10539999Y-44054658D01*
X10519088Y-44056304D01*
X10519087Y-44056304D01*
X10363802Y-44101419D01*
X10224622Y-44183730D01*
X10224618Y-44183733D01*
X10110283Y-44298068D01*
X10110280Y-44298072D01*
X10023942Y-44444061D01*
X9972049Y-44492513D01*
X9902198Y-44505218D01*
X9836567Y-44478142D01*
X9831839Y-44474148D01*
X8352850Y-43161167D01*
X8315186Y-43100984D01*
X8310500Y-43066940D01*
X8310500Y-38345325D01*
X8310499Y-38345322D01*
X8295966Y-38272260D01*
X8240601Y-38189399D01*
X8157740Y-38134034D01*
X8157739Y-38134033D01*
X8084677Y-38119500D01*
X8084674Y-38119500D01*
X5935326Y-38119500D01*
X5935322Y-38119500D01*
X5862260Y-38134033D01*
X5779399Y-38189399D01*
X5724033Y-38272260D01*
X5709500Y-38345322D01*
X5709500Y-43994677D01*
X5724033Y-44067739D01*
X5724034Y-44067740D01*
X5779399Y-44150601D01*
X5862260Y-44205966D01*
X5935326Y-44220500D01*
X8084674Y-44220500D01*
X8157740Y-44205966D01*
X8240601Y-44150601D01*
X8240601Y-44150600D01*
X8250920Y-44143706D01*
X8252336Y-44145825D01*
X8299308Y-44120171D01*
X8370124Y-44125229D01*
X8409750Y-44149060D01*
X10187150Y-45726957D01*
X10224814Y-45787139D01*
X10229500Y-45821182D01*
X10229500Y-45964182D01*
X10243982Y-46055623D01*
X10300142Y-46165842D01*
X10300143Y-46165844D01*
X10387605Y-46253306D01*
X10387607Y-46253307D01*
X10387609Y-46253309D01*
X10497825Y-46309467D01*
X10589265Y-46323950D01*
X10772626Y-46323949D01*
X10840747Y-46343951D01*
X10861717Y-46360849D01*
X11379788Y-46878920D01*
X11436586Y-46911712D01*
X11436587Y-46911713D01*
X11459705Y-46925060D01*
X11459712Y-46925064D01*
X11511776Y-46939014D01*
X11572397Y-46975964D01*
X11603419Y-47039824D01*
X11594991Y-47110319D01*
X11549789Y-47165066D01*
X11511777Y-47182426D01*
X11464367Y-47195130D01*
X11464362Y-47195131D01*
X11464361Y-47195132D01*
X11464360Y-47195132D01*
X11464356Y-47195134D01*
X11390141Y-47237982D01*
X11390135Y-47237987D01*
X11318160Y-47309961D01*
X11255848Y-47343985D01*
X11185032Y-47338919D01*
X11171864Y-47333131D01*
X11082178Y-47287434D01*
X11082176Y-47287433D01*
X11082175Y-47287433D01*
X10990735Y-47272950D01*
X10990731Y-47272950D01*
X10589267Y-47272950D01*
X10497826Y-47287432D01*
X10387607Y-47343592D01*
X10387605Y-47343593D01*
X10300142Y-47431056D01*
X10300140Y-47431059D01*
X10298037Y-47435187D01*
X10249285Y-47486799D01*
X10196753Y-47503498D01*
X8447479Y-47656496D01*
X8377874Y-47642505D01*
X8326883Y-47593105D01*
X8310500Y-47530975D01*
X8310500Y-47345325D01*
X8310499Y-47345322D01*
X8309225Y-47338919D01*
X8295966Y-47272260D01*
X8240601Y-47189399D01*
X8157740Y-47134034D01*
X8157739Y-47134033D01*
X8084677Y-47119500D01*
X8084674Y-47119500D01*
X5935326Y-47119500D01*
X5935322Y-47119500D01*
X5862260Y-47134033D01*
X5779399Y-47189399D01*
X5724033Y-47272260D01*
X5709500Y-47345322D01*
X5709500Y-52994677D01*
X5724033Y-53067739D01*
X5724034Y-53067740D01*
X5779399Y-53150601D01*
X5862260Y-53205966D01*
X5935326Y-53220500D01*
X8084674Y-53220500D01*
X8157740Y-53205966D01*
X8240601Y-53150601D01*
X8295966Y-53067740D01*
X8310500Y-52994674D01*
X8310500Y-49013450D01*
X9985495Y-49013450D01*
X10027969Y-49159647D01*
X10110280Y-49298827D01*
X10110283Y-49298831D01*
X10224618Y-49413166D01*
X10224622Y-49413169D01*
X10363802Y-49495480D01*
X10519083Y-49540594D01*
X10539999Y-49542240D01*
X10540000Y-49542240D01*
X10540000Y-49013450D01*
X9985495Y-49013450D01*
X8310500Y-49013450D01*
X8310500Y-48487614D01*
X8330502Y-48419493D01*
X8384158Y-48373000D01*
X8425516Y-48362094D01*
X9887975Y-48234181D01*
X9957578Y-48248172D01*
X10008569Y-48297572D01*
X10024758Y-48366699D01*
X10019949Y-48394854D01*
X9985494Y-48513449D01*
X9985495Y-48513450D01*
X10914000Y-48513450D01*
X10982121Y-48533452D01*
X11028614Y-48587108D01*
X11040000Y-48639450D01*
X11040000Y-49542239D01*
X11054092Y-49541131D01*
X11123572Y-49555729D01*
X11174130Y-49605573D01*
X11189974Y-49666743D01*
X11189974Y-51012196D01*
X11169972Y-51080317D01*
X11116316Y-51126810D01*
X11080421Y-51137118D01*
X11007490Y-51146720D01*
X10873575Y-51202187D01*
X10758578Y-51290428D01*
X10670337Y-51405425D01*
X10614870Y-51539340D01*
X10595950Y-51683049D01*
X10595950Y-51683050D01*
X10614870Y-51826759D01*
X10670337Y-51960674D01*
X10758578Y-52075671D01*
X10873575Y-52163912D01*
X10958021Y-52198889D01*
X11007491Y-52219380D01*
X11080421Y-52228981D01*
X11145347Y-52257703D01*
X11184439Y-52316968D01*
X11189974Y-52353903D01*
X11189974Y-54662450D01*
X11169972Y-54730571D01*
X11116316Y-54777064D01*
X11063974Y-54788450D01*
X3915827Y-54788450D01*
X3847706Y-54768448D01*
X3801213Y-54714792D01*
X3789827Y-54662597D01*
X3770122Y-37824597D01*
X3790044Y-37756453D01*
X3843646Y-37709898D01*
X3896122Y-37698450D01*
X10437911Y-37698450D01*
X10486128Y-37708041D01*
G37*
%TD.AperFunction*%
%TA.AperFunction,Conductor*%
G36*
X12719032Y-47913763D02*
G01*
X12764095Y-47942724D01*
X12822896Y-48001525D01*
X12822898Y-48001526D01*
X12938482Y-48058032D01*
X13013418Y-48068950D01*
X13013424Y-48068950D01*
X13356576Y-48068950D01*
X13356582Y-48068950D01*
X13431518Y-48058032D01*
X13431520Y-48058031D01*
X13500060Y-48024524D01*
X13570044Y-48012575D01*
X13635378Y-48040359D01*
X13644494Y-48048626D01*
X13999723Y-48403855D01*
X14033749Y-48466167D01*
X14028684Y-48536982D01*
X13986137Y-48593818D01*
X13919617Y-48618629D01*
X13910628Y-48618950D01*
X13614267Y-48618950D01*
X13522826Y-48633432D01*
X13412608Y-48689591D01*
X13387408Y-48714792D01*
X13350653Y-48751546D01*
X13288344Y-48785570D01*
X13261560Y-48788450D01*
X11725999Y-48788450D01*
X11657878Y-48768448D01*
X11611385Y-48714792D01*
X11599999Y-48662450D01*
X11599999Y-48558814D01*
X11597145Y-48522538D01*
X11552030Y-48367252D01*
X11465684Y-48221249D01*
X11467942Y-48219913D01*
X11446664Y-48165698D01*
X11460574Y-48096078D01*
X11485610Y-48066343D01*
X11484022Y-48064755D01*
X11524253Y-48024524D01*
X11585979Y-47962797D01*
X11648290Y-47928773D01*
X11719106Y-47933837D01*
X11764169Y-47962798D01*
X11802896Y-48001525D01*
X11802898Y-48001526D01*
X11918482Y-48058032D01*
X11993418Y-48068950D01*
X11993424Y-48068950D01*
X12336576Y-48068950D01*
X12336582Y-48068950D01*
X12411518Y-48058032D01*
X12527102Y-48001526D01*
X12552248Y-47976380D01*
X12585905Y-47942724D01*
X12648217Y-47908698D01*
X12719032Y-47913763D01*
G37*
%TD.AperFunction*%
%TD*%
%TA.AperFunction,Conductor*%
%TO.N,+3V3*%
G36*
X3035615Y-33412481D02*
G01*
X3093780Y-33431452D01*
X3129689Y-33480993D01*
X3134500Y-33511480D01*
X3134500Y-35390500D01*
X3115593Y-35448691D01*
X3066093Y-35484655D01*
X3035500Y-35489500D01*
X3018035Y-35489500D01*
X2879949Y-35530046D01*
X2879942Y-35530049D01*
X2767424Y-35602360D01*
X2708249Y-35617915D01*
X2651232Y-35595716D01*
X2623338Y-35559066D01*
X2587206Y-35477235D01*
X2507765Y-35397794D01*
X2404991Y-35352415D01*
X2404990Y-35352414D01*
X2404988Y-35352414D01*
X2379868Y-35349500D01*
X1840139Y-35349500D01*
X1840136Y-35349501D01*
X1815009Y-35352414D01*
X1712235Y-35397794D01*
X1632794Y-35477235D01*
X1587414Y-35580011D01*
X1584500Y-35605130D01*
X1584500Y-35894859D01*
X1584501Y-35894864D01*
X1587414Y-35919990D01*
X1605196Y-35960262D01*
X1632451Y-36021989D01*
X1636500Y-36031157D01*
X1634126Y-36032205D01*
X1647537Y-36077757D01*
X1634477Y-36117949D01*
X1636500Y-36118843D01*
X1632794Y-36127234D01*
X1632794Y-36127235D01*
X1615437Y-36166546D01*
X1587414Y-36230011D01*
X1584500Y-36255130D01*
X1584500Y-36544859D01*
X1584501Y-36544864D01*
X1587414Y-36569990D01*
X1587415Y-36569992D01*
X1594299Y-36585582D01*
X1600508Y-36646452D01*
X1573740Y-36695573D01*
X1557361Y-36711952D01*
X1557359Y-36711955D01*
X1499836Y-36824848D01*
X1499835Y-36824852D01*
X1487933Y-36900000D01*
X2732065Y-36900000D01*
X2732066Y-36899999D01*
X2720166Y-36824857D01*
X2720165Y-36824854D01*
X2662640Y-36711955D01*
X2646260Y-36695575D01*
X2618483Y-36641058D01*
X2625701Y-36585582D01*
X2632585Y-36569991D01*
X2635500Y-36544865D01*
X2635499Y-36474159D01*
X2654406Y-36415971D01*
X2703905Y-36380007D01*
X2765090Y-36380006D01*
X2788022Y-36390877D01*
X2872028Y-36444864D01*
X2879947Y-36449953D01*
X2972862Y-36477235D01*
X3018035Y-36490499D01*
X3018036Y-36490499D01*
X3018039Y-36490500D01*
X3018041Y-36490500D01*
X3159876Y-36490500D01*
X3218067Y-36509407D01*
X3229879Y-36519496D01*
X3288866Y-36578482D01*
X3343942Y-36633558D01*
X3407298Y-36659800D01*
X3418888Y-36665516D01*
X3444012Y-36680022D01*
X3450169Y-36681671D01*
X3501482Y-36714995D01*
X3523409Y-36772117D01*
X3515110Y-36817285D01*
X3487415Y-36880009D01*
X3487414Y-36880011D01*
X3484500Y-36905130D01*
X3484500Y-37194859D01*
X3484501Y-37194864D01*
X3487414Y-37219990D01*
X3500886Y-37250500D01*
X3532794Y-37322765D01*
X3612235Y-37402206D01*
X3612236Y-37402206D01*
X3612237Y-37402207D01*
X3616133Y-37404876D01*
X3653455Y-37453360D01*
X3655151Y-37514522D01*
X3625102Y-37561295D01*
X3622521Y-37563536D01*
X3622498Y-37563558D01*
X3590913Y-37596367D01*
X3544807Y-37684761D01*
X3524888Y-37752894D01*
X3524886Y-37752901D01*
X3514622Y-37824895D01*
X3534326Y-54662888D01*
X3540197Y-54717054D01*
X3551583Y-54769249D01*
X3551585Y-54769256D01*
X3558787Y-54795477D01*
X3608116Y-54882104D01*
X3608119Y-54882109D01*
X3654612Y-54935765D01*
X3687388Y-54967391D01*
X3775724Y-55013599D01*
X3775726Y-55013599D01*
X3775729Y-55013601D01*
X3806353Y-55022592D01*
X3843845Y-55033601D01*
X3856289Y-55035390D01*
X3915822Y-55043950D01*
X3915827Y-55043950D01*
X11063970Y-55043950D01*
X11063974Y-55043950D01*
X11118283Y-55038111D01*
X11170625Y-55026725D01*
X11197002Y-55019489D01*
X11283633Y-54970158D01*
X11337289Y-54923665D01*
X11368915Y-54890889D01*
X11415123Y-54802553D01*
X11415607Y-54800907D01*
X11424684Y-54769991D01*
X11435125Y-54734432D01*
X11438506Y-54710913D01*
X11445474Y-54662455D01*
X11445474Y-52641336D01*
X11464381Y-52583145D01*
X11513881Y-52547181D01*
X11575067Y-52547181D01*
X11614477Y-52571332D01*
X12846745Y-53803664D01*
X12846758Y-53803679D01*
X12887409Y-53844331D01*
X12887412Y-53844333D01*
X12907091Y-53864013D01*
X12907344Y-53864201D01*
X12909535Y-53865380D01*
X12939275Y-53882550D01*
X12939278Y-53882552D01*
X12970370Y-53900504D01*
X12973303Y-53902441D01*
X12974970Y-53903326D01*
X12975510Y-53903470D01*
X12975511Y-53903471D01*
X13013387Y-53913620D01*
X13013390Y-53913622D01*
X13013391Y-53913621D01*
X13019249Y-53915191D01*
X13051934Y-53923950D01*
X13091492Y-53923950D01*
X13131054Y-53923951D01*
X13131058Y-53923950D01*
X17642201Y-53923950D01*
X17700392Y-53942857D01*
X17736356Y-53992357D01*
X17741201Y-54022950D01*
X17741201Y-54076053D01*
X17743986Y-54105771D01*
X17743987Y-54105776D01*
X17787794Y-54230970D01*
X17866558Y-54337689D01*
X17866563Y-54337694D01*
X17888184Y-54353651D01*
X17923777Y-54403418D01*
X17923319Y-54464602D01*
X17902916Y-54497619D01*
X17902944Y-54497639D01*
X17902612Y-54498111D01*
X17899404Y-54503305D01*
X17897977Y-54504731D01*
X17897974Y-54504736D01*
X17847229Y-54613560D01*
X17847228Y-54613561D01*
X17842876Y-54646620D01*
X17840784Y-54662515D01*
X17840700Y-54663150D01*
X17840700Y-55022945D01*
X17840701Y-55022957D01*
X17847227Y-55072536D01*
X17847227Y-55072538D01*
X17897974Y-55181363D01*
X17897975Y-55181364D01*
X17897976Y-55181366D01*
X17953711Y-55237101D01*
X17981487Y-55291616D01*
X17971916Y-55352048D01*
X17958527Y-55371932D01*
X17925823Y-55409676D01*
X17866034Y-55540593D01*
X17845553Y-55683047D01*
X17845553Y-55683052D01*
X17866034Y-55825506D01*
X17918526Y-55940446D01*
X17925823Y-55956423D01*
X17976748Y-56015194D01*
X18020073Y-56065194D01*
X18101021Y-56117216D01*
X18139753Y-56164582D01*
X18143246Y-56225668D01*
X18110166Y-56277140D01*
X18053150Y-56299339D01*
X18047498Y-56299500D01*
X399500Y-56299500D01*
X341309Y-56280593D01*
X305345Y-56231093D01*
X300500Y-56200500D01*
X300500Y-37200000D01*
X1487934Y-37200000D01*
X1499833Y-37275142D01*
X1499834Y-37275145D01*
X1557359Y-37388044D01*
X1646956Y-37477641D01*
X1759848Y-37535163D01*
X1759852Y-37535164D01*
X1853515Y-37549999D01*
X1960000Y-37549999D01*
X1960000Y-37200001D01*
X2260000Y-37200001D01*
X2260000Y-37549998D01*
X2260001Y-37549999D01*
X2366483Y-37549999D01*
X2366485Y-37549998D01*
X2460141Y-37535166D01*
X2460151Y-37535163D01*
X2573043Y-37477641D01*
X2662641Y-37388043D01*
X2720163Y-37275151D01*
X2720164Y-37275147D01*
X2732067Y-37200000D01*
X2260001Y-37200000D01*
X2260000Y-37200001D01*
X1960000Y-37200001D01*
X1959999Y-37200000D01*
X1487934Y-37200000D01*
X300500Y-37200000D01*
X300500Y-33508534D01*
X319407Y-33450343D01*
X368907Y-33414379D01*
X399601Y-33409535D01*
X3035615Y-33412481D01*
G37*
%TD.AperFunction*%
%TA.AperFunction,Conductor*%
G36*
X50245528Y-51347504D02*
G01*
X50281587Y-51396934D01*
X50286490Y-51428273D01*
X50279266Y-52696454D01*
X50277409Y-53022550D01*
X50276773Y-53134114D01*
X50257535Y-53192196D01*
X50207831Y-53227877D01*
X50177775Y-53232550D01*
X49697852Y-53232550D01*
X49697851Y-53232550D01*
X49697841Y-53232551D01*
X49639372Y-53244182D01*
X49639366Y-53244184D01*
X49573051Y-53288495D01*
X49573045Y-53288501D01*
X49528734Y-53354816D01*
X49528732Y-53354822D01*
X49517101Y-53413291D01*
X49517100Y-53413303D01*
X49517100Y-54452796D01*
X49517101Y-54452808D01*
X49527431Y-54504736D01*
X49528733Y-54511281D01*
X49573048Y-54577602D01*
X49639369Y-54621917D01*
X49661447Y-54626308D01*
X49697837Y-54633548D01*
X49697846Y-54633548D01*
X49697852Y-54633550D01*
X49697857Y-54633550D01*
X49698569Y-54633620D01*
X49698877Y-54633754D01*
X49702623Y-54634500D01*
X49702459Y-54635321D01*
X49754630Y-54658131D01*
X49785577Y-54710913D01*
X49779590Y-54771805D01*
X49758885Y-54802149D01*
X49032481Y-55528554D01*
X48977964Y-55556331D01*
X48962477Y-55557550D01*
X45021723Y-55557550D01*
X44963532Y-55538643D01*
X44927568Y-55489143D01*
X44927568Y-55427957D01*
X44951719Y-55388547D01*
X45367253Y-54973011D01*
X45379502Y-54962606D01*
X45381482Y-54961182D01*
X45381491Y-54961179D01*
X45414592Y-54925750D01*
X45416899Y-54923365D01*
X45430587Y-54909677D01*
X45451157Y-54889108D01*
X45451159Y-54889101D01*
X45452515Y-54887074D01*
X45452946Y-54886530D01*
X45454710Y-54883790D01*
X45455024Y-54883179D01*
X45456314Y-54881098D01*
X45456317Y-54881095D01*
X45473344Y-54835686D01*
X45474541Y-54832651D01*
X45493100Y-54787850D01*
X45493100Y-54787844D01*
X45493577Y-54785448D01*
X45497976Y-54770001D01*
X45520135Y-54710913D01*
X45525058Y-54697787D01*
X45563195Y-54649941D01*
X45617754Y-54633550D01*
X46037347Y-54633550D01*
X46037348Y-54633550D01*
X46095831Y-54621917D01*
X46162152Y-54577602D01*
X46206467Y-54511281D01*
X46218100Y-54452798D01*
X46218100Y-53413302D01*
X46217134Y-53408448D01*
X46208702Y-53366056D01*
X46206467Y-53354819D01*
X46162152Y-53288498D01*
X46154057Y-53283089D01*
X46095833Y-53244184D01*
X46095831Y-53244183D01*
X46095828Y-53244182D01*
X46095827Y-53244182D01*
X46037358Y-53232551D01*
X46037348Y-53232550D01*
X44997852Y-53232550D01*
X44997851Y-53232550D01*
X44997841Y-53232551D01*
X44939372Y-53244182D01*
X44939366Y-53244184D01*
X44873051Y-53288495D01*
X44873045Y-53288501D01*
X44828734Y-53354816D01*
X44828732Y-53354822D01*
X44817101Y-53413291D01*
X44817100Y-53413303D01*
X44817100Y-54452796D01*
X44817101Y-54452808D01*
X44827431Y-54504736D01*
X44828733Y-54511281D01*
X44864631Y-54565006D01*
X44872122Y-54576216D01*
X44888731Y-54635104D01*
X44867554Y-54692508D01*
X44859811Y-54701221D01*
X44332481Y-55228553D01*
X44277964Y-55256331D01*
X44262477Y-55257550D01*
X40400560Y-55257550D01*
X40342369Y-55238643D01*
X40306405Y-55189143D01*
X40306405Y-55127957D01*
X40330581Y-55088522D01*
X40467175Y-54952022D01*
X40521701Y-54924264D01*
X40537154Y-54923050D01*
X40679559Y-54923050D01*
X40679561Y-54923050D01*
X40817653Y-54882503D01*
X40938728Y-54804693D01*
X41032977Y-54695923D01*
X41092765Y-54565007D01*
X41108898Y-54452798D01*
X41113247Y-54422552D01*
X41113247Y-54422547D01*
X41092765Y-54280093D01*
X41067076Y-54223843D01*
X41032977Y-54149177D01*
X40938728Y-54040407D01*
X40938727Y-54040406D01*
X40938726Y-54040405D01*
X40817657Y-53962599D01*
X40817654Y-53962597D01*
X40817653Y-53962597D01*
X40817650Y-53962596D01*
X40679564Y-53922050D01*
X40679561Y-53922050D01*
X40535639Y-53922050D01*
X40535635Y-53922050D01*
X40397549Y-53962596D01*
X40397542Y-53962599D01*
X40276473Y-54040405D01*
X40182219Y-54149182D01*
X40180739Y-54151485D01*
X40178971Y-54152929D01*
X40177587Y-54154528D01*
X40177310Y-54154288D01*
X40133371Y-54190213D01*
X40072285Y-54193703D01*
X40043935Y-54181241D01*
X39929657Y-54107799D01*
X39929654Y-54107797D01*
X39929653Y-54107797D01*
X39929650Y-54107796D01*
X39791564Y-54067250D01*
X39791561Y-54067250D01*
X39647639Y-54067250D01*
X39647635Y-54067250D01*
X39509549Y-54107796D01*
X39509542Y-54107799D01*
X39388473Y-54185605D01*
X39370435Y-54206423D01*
X39325672Y-54258081D01*
X39273278Y-54289677D01*
X39250854Y-54292250D01*
X35918643Y-54292250D01*
X35860452Y-54273343D01*
X35824488Y-54223843D01*
X35824488Y-54162657D01*
X35860452Y-54113157D01*
X35885945Y-54099806D01*
X35895520Y-54096455D01*
X36002239Y-54017691D01*
X36002241Y-54017689D01*
X36081005Y-53910970D01*
X36124812Y-53785777D01*
X36127600Y-53756050D01*
X36127600Y-53683051D01*
X36127599Y-53683050D01*
X35496600Y-53683050D01*
X35438409Y-53664143D01*
X35402445Y-53614643D01*
X35397600Y-53584050D01*
X35397600Y-53482050D01*
X35416507Y-53423859D01*
X35466007Y-53387895D01*
X35496600Y-53383050D01*
X36127598Y-53383050D01*
X36127599Y-53383049D01*
X36127599Y-53310046D01*
X36124813Y-53280328D01*
X36124812Y-53280323D01*
X36081005Y-53155129D01*
X36002241Y-53048410D01*
X36002239Y-53048408D01*
X35895522Y-52969645D01*
X35772203Y-52926495D01*
X35723522Y-52889429D01*
X35705925Y-52830829D01*
X35726133Y-52773077D01*
X35772203Y-52739605D01*
X35895522Y-52696454D01*
X36002239Y-52617691D01*
X36002241Y-52617689D01*
X36081005Y-52510970D01*
X36124812Y-52385777D01*
X36127600Y-52356050D01*
X36127600Y-52283051D01*
X36127599Y-52283050D01*
X35496600Y-52283050D01*
X35438409Y-52264143D01*
X35402445Y-52214643D01*
X35397600Y-52184050D01*
X35397600Y-52082050D01*
X35416507Y-52023859D01*
X35466007Y-51987895D01*
X35496600Y-51983050D01*
X36127598Y-51983050D01*
X36127599Y-51983049D01*
X36127599Y-51910046D01*
X36124813Y-51880328D01*
X36124812Y-51880323D01*
X36081005Y-51755129D01*
X36002241Y-51648410D01*
X36002239Y-51648408D01*
X35895520Y-51569644D01*
X35836047Y-51548834D01*
X35787367Y-51511769D01*
X35769770Y-51453169D01*
X35789978Y-51395417D01*
X35840273Y-51360573D01*
X35868551Y-51356390D01*
X50187305Y-51328710D01*
X50245528Y-51347504D01*
G37*
%TD.AperFunction*%
%TA.AperFunction,Conductor*%
G36*
X17169593Y-49696251D02*
G01*
X17186598Y-49735127D01*
X17200117Y-49803092D01*
X17221789Y-49855414D01*
X17254842Y-49908019D01*
X17258419Y-49913711D01*
X17333007Y-49966633D01*
X17385333Y-49988307D01*
X17463974Y-50003950D01*
X17463975Y-50003950D01*
X17890500Y-50003950D01*
X17948691Y-50022857D01*
X17984655Y-50072357D01*
X17989500Y-50102949D01*
X17989500Y-50294809D01*
X17989501Y-50294817D01*
X17996105Y-50344988D01*
X17996105Y-50344990D01*
X18047447Y-50455092D01*
X18047448Y-50455093D01*
X18047449Y-50455095D01*
X18133355Y-50541001D01*
X18243461Y-50592344D01*
X18293637Y-50598950D01*
X21285474Y-50598949D01*
X21343665Y-50617856D01*
X21379629Y-50667356D01*
X21384474Y-50697949D01*
X21384474Y-50724450D01*
X21400117Y-50803092D01*
X21421789Y-50855414D01*
X21450475Y-50901069D01*
X21458419Y-50913711D01*
X21533007Y-50966633D01*
X21585333Y-50988307D01*
X21663974Y-51003950D01*
X21663975Y-51003950D01*
X22393057Y-51003950D01*
X22451248Y-51022857D01*
X22487212Y-51072357D01*
X22491023Y-51088678D01*
X22499912Y-51149699D01*
X22499915Y-51149707D01*
X22502490Y-51154975D01*
X22511058Y-51215558D01*
X22502490Y-51241925D01*
X22499913Y-51247196D01*
X22492446Y-51298450D01*
X23127499Y-51298450D01*
X23127500Y-51298449D01*
X23127500Y-50997950D01*
X23146407Y-50939759D01*
X23195907Y-50903795D01*
X23226500Y-50898950D01*
X23228500Y-50898950D01*
X23286691Y-50917857D01*
X23322655Y-50967357D01*
X23327500Y-50997950D01*
X23327500Y-51298449D01*
X23327501Y-51298450D01*
X23962553Y-51298450D01*
X23953988Y-51239656D01*
X23964309Y-51179347D01*
X24008107Y-51136622D01*
X24068653Y-51127802D01*
X24121958Y-51155379D01*
X24949540Y-51982961D01*
X24949539Y-51982961D01*
X25005489Y-52038910D01*
X25074007Y-52078469D01*
X25074011Y-52078471D01*
X25150435Y-52098949D01*
X25150437Y-52098950D01*
X25150438Y-52098950D01*
X25229562Y-52098950D01*
X25277083Y-52098950D01*
X25335274Y-52117857D01*
X25366806Y-52156109D01*
X25371776Y-52166766D01*
X25371777Y-52166767D01*
X25371779Y-52166771D01*
X25373567Y-52169325D01*
X25374704Y-52173044D01*
X25375437Y-52174616D01*
X25375216Y-52174718D01*
X25391456Y-52227836D01*
X25371535Y-52285688D01*
X25351263Y-52305760D01*
X25340365Y-52313803D01*
X25340358Y-52313810D01*
X25261594Y-52420529D01*
X25217787Y-52545722D01*
X25215000Y-52575449D01*
X25215000Y-52648449D01*
X25215001Y-52648450D01*
X25846000Y-52648450D01*
X25904191Y-52667357D01*
X25940155Y-52716857D01*
X25945000Y-52747450D01*
X25945000Y-53408448D01*
X25945001Y-53408449D01*
X25988004Y-53408449D01*
X26017721Y-53405663D01*
X26017726Y-53405662D01*
X26142920Y-53361855D01*
X26249639Y-53283091D01*
X26249642Y-53283088D01*
X26265600Y-53261466D01*
X26315367Y-53225873D01*
X26376550Y-53226329D01*
X26409570Y-53246733D01*
X26409589Y-53246706D01*
X26410059Y-53247035D01*
X26415257Y-53250247D01*
X26416684Y-53251674D01*
X26525513Y-53302422D01*
X26575099Y-53308950D01*
X26934900Y-53308949D01*
X26984487Y-53302422D01*
X26984488Y-53302422D01*
X27076151Y-53259678D01*
X27093316Y-53251674D01*
X27144791Y-53200198D01*
X27199305Y-53172422D01*
X27259737Y-53181993D01*
X27268302Y-53186910D01*
X27379547Y-53258403D01*
X27463621Y-53283089D01*
X27517635Y-53298949D01*
X27517636Y-53298949D01*
X27517639Y-53298950D01*
X27517641Y-53298950D01*
X27661559Y-53298950D01*
X27661561Y-53298950D01*
X27799653Y-53258403D01*
X27920728Y-53180593D01*
X28014977Y-53071823D01*
X28074765Y-52940907D01*
X28084392Y-52873950D01*
X28095247Y-52798452D01*
X28095247Y-52798447D01*
X28074765Y-52655993D01*
X28066100Y-52637020D01*
X28014977Y-52525077D01*
X27920728Y-52416307D01*
X27920727Y-52416306D01*
X27920726Y-52416305D01*
X27866931Y-52381734D01*
X27828200Y-52334369D01*
X27824706Y-52273283D01*
X27857785Y-52221810D01*
X27866931Y-52215166D01*
X27896150Y-52196388D01*
X27920728Y-52180593D01*
X28014977Y-52071823D01*
X28074765Y-51940907D01*
X28083476Y-51880323D01*
X28095247Y-51798452D01*
X28095247Y-51798447D01*
X28074765Y-51655993D01*
X28026959Y-51551313D01*
X28014977Y-51525077D01*
X28014976Y-51525076D01*
X28014974Y-51525071D01*
X28014241Y-51523930D01*
X28013953Y-51522835D01*
X28012036Y-51518637D01*
X28012762Y-51518305D01*
X27998690Y-51464754D01*
X28020892Y-51407739D01*
X28072366Y-51374663D01*
X28097329Y-51371412D01*
X35222697Y-51357638D01*
X35280922Y-51376433D01*
X35316981Y-51425863D01*
X35317100Y-51487049D01*
X35281231Y-51536618D01*
X35255585Y-51550082D01*
X35199678Y-51569645D01*
X35092960Y-51648408D01*
X35092956Y-51648412D01*
X35076997Y-51670036D01*
X35027228Y-51705627D01*
X34966045Y-51705168D01*
X34933030Y-51684766D01*
X34933011Y-51684794D01*
X34932536Y-51684461D01*
X34927341Y-51681251D01*
X34925916Y-51679826D01*
X34925914Y-51679825D01*
X34925913Y-51679824D01*
X34817089Y-51629079D01*
X34817088Y-51629078D01*
X34800558Y-51626902D01*
X34767501Y-51622550D01*
X34767499Y-51622550D01*
X34407704Y-51622550D01*
X34407692Y-51622551D01*
X34358113Y-51629077D01*
X34358111Y-51629077D01*
X34249286Y-51679824D01*
X34164374Y-51764736D01*
X34147749Y-51800390D01*
X34106021Y-51845138D01*
X34058025Y-51857550D01*
X33897799Y-51857550D01*
X33826199Y-51887208D01*
X33796543Y-51899492D01*
X33796537Y-51899496D01*
X33692479Y-52003554D01*
X33637963Y-52031331D01*
X33622476Y-52032550D01*
X33480635Y-52032550D01*
X33342549Y-52073096D01*
X33342542Y-52073099D01*
X33221473Y-52150905D01*
X33127222Y-52259678D01*
X33067434Y-52390593D01*
X33046953Y-52533047D01*
X33046953Y-52533052D01*
X33067434Y-52675506D01*
X33123580Y-52798447D01*
X33127223Y-52806423D01*
X33221472Y-52915193D01*
X33261484Y-52940907D01*
X33275269Y-52949766D01*
X33314000Y-52997132D01*
X33317493Y-53058218D01*
X33284413Y-53109690D01*
X33275270Y-53116332D01*
X33244716Y-53135969D01*
X33221472Y-53150907D01*
X33127222Y-53259678D01*
X33067434Y-53390593D01*
X33046953Y-53533047D01*
X33046953Y-53533052D01*
X33067434Y-53675506D01*
X33120881Y-53792537D01*
X33127223Y-53806423D01*
X33211315Y-53903471D01*
X33221473Y-53915194D01*
X33342542Y-53993000D01*
X33342547Y-53993003D01*
X33426621Y-54017689D01*
X33480635Y-54033549D01*
X33480636Y-54033549D01*
X33480639Y-54033550D01*
X33480641Y-54033550D01*
X33624559Y-54033550D01*
X33624561Y-54033550D01*
X33762653Y-53993003D01*
X33883728Y-53915193D01*
X33924864Y-53867718D01*
X33977260Y-53836123D01*
X33999683Y-53833550D01*
X34069683Y-53833550D01*
X34127874Y-53852457D01*
X34159406Y-53890709D01*
X34164376Y-53901366D01*
X34249284Y-53986274D01*
X34358113Y-54037022D01*
X34407699Y-54043550D01*
X34767500Y-54043549D01*
X34817087Y-54037022D01*
X34817088Y-54037022D01*
X34904921Y-53996064D01*
X34925916Y-53986274D01*
X34927337Y-53984852D01*
X34929572Y-53983713D01*
X34933011Y-53981306D01*
X34933349Y-53981789D01*
X34981850Y-53957073D01*
X35042282Y-53966640D01*
X35076998Y-53996064D01*
X35092958Y-54017689D01*
X35092960Y-54017691D01*
X35199679Y-54096455D01*
X35209255Y-54099806D01*
X35257936Y-54136872D01*
X35275532Y-54195472D01*
X35255323Y-54253224D01*
X35205029Y-54288067D01*
X35176557Y-54292250D01*
X24049130Y-54292250D01*
X23990939Y-54273343D01*
X23979126Y-54263254D01*
X22707152Y-52991280D01*
X22685330Y-52948451D01*
X25215001Y-52948451D01*
X25215001Y-53021453D01*
X25217786Y-53051171D01*
X25217787Y-53051176D01*
X25261594Y-53176370D01*
X25340358Y-53283089D01*
X25340360Y-53283091D01*
X25447079Y-53361855D01*
X25572272Y-53405662D01*
X25601999Y-53408449D01*
X25645000Y-53408448D01*
X25645000Y-52948451D01*
X25644999Y-52948450D01*
X25215002Y-52948450D01*
X25215001Y-52948451D01*
X22685330Y-52948451D01*
X22679375Y-52936763D01*
X22688946Y-52876331D01*
X22707152Y-52851272D01*
X22728786Y-52829637D01*
X22780087Y-52724698D01*
X22790000Y-52656665D01*
X22790000Y-52335951D01*
X22789999Y-52335950D01*
X22389500Y-52335950D01*
X22331309Y-52317043D01*
X22295345Y-52267543D01*
X22290500Y-52236950D01*
X22290500Y-51823776D01*
X22290476Y-51823533D01*
X22290000Y-51813834D01*
X22290000Y-51500895D01*
X22238751Y-51508362D01*
X22133812Y-51559663D01*
X22124522Y-51568954D01*
X22070005Y-51596731D01*
X22054518Y-51597950D01*
X21915326Y-51597950D01*
X21915325Y-51597950D01*
X21915315Y-51597951D01*
X21842263Y-51612483D01*
X21842261Y-51612483D01*
X21842260Y-51612484D01*
X21842259Y-51612484D01*
X21833251Y-51616216D01*
X21832416Y-51614201D01*
X21786112Y-51627261D01*
X21747386Y-51614677D01*
X21746749Y-51616216D01*
X21737742Y-51612485D01*
X21737740Y-51612484D01*
X21737736Y-51612483D01*
X21664684Y-51597951D01*
X21664674Y-51597950D01*
X21515326Y-51597950D01*
X21515325Y-51597950D01*
X21515315Y-51597951D01*
X21442263Y-51612483D01*
X21442261Y-51612483D01*
X21442260Y-51612484D01*
X21442259Y-51612484D01*
X21433251Y-51616216D01*
X21432416Y-51614201D01*
X21386112Y-51627261D01*
X21347386Y-51614677D01*
X21346749Y-51616216D01*
X21337742Y-51612485D01*
X21337740Y-51612484D01*
X21337736Y-51612483D01*
X21264684Y-51597951D01*
X21264674Y-51597950D01*
X21115326Y-51597950D01*
X21115325Y-51597950D01*
X21115315Y-51597951D01*
X21042263Y-51612483D01*
X21042261Y-51612483D01*
X21042260Y-51612484D01*
X21042259Y-51612484D01*
X21033251Y-51616216D01*
X21032416Y-51614201D01*
X20986112Y-51627261D01*
X20947386Y-51614677D01*
X20946749Y-51616216D01*
X20937742Y-51612485D01*
X20937740Y-51612484D01*
X20937736Y-51612483D01*
X20864684Y-51597951D01*
X20864674Y-51597950D01*
X20715326Y-51597950D01*
X20715325Y-51597950D01*
X20715315Y-51597951D01*
X20642263Y-51612483D01*
X20642261Y-51612483D01*
X20642260Y-51612484D01*
X20642259Y-51612484D01*
X20633251Y-51616216D01*
X20632416Y-51614201D01*
X20586112Y-51627261D01*
X20547386Y-51614677D01*
X20546749Y-51616216D01*
X20537742Y-51612485D01*
X20537740Y-51612484D01*
X20537736Y-51612483D01*
X20464684Y-51597951D01*
X20464674Y-51597950D01*
X20315326Y-51597950D01*
X20315325Y-51597950D01*
X20315315Y-51597951D01*
X20242263Y-51612483D01*
X20242261Y-51612483D01*
X20242260Y-51612484D01*
X20242259Y-51612484D01*
X20233251Y-51616216D01*
X20232416Y-51614201D01*
X20186112Y-51627261D01*
X20147386Y-51614677D01*
X20146749Y-51616216D01*
X20137742Y-51612485D01*
X20137740Y-51612484D01*
X20137736Y-51612483D01*
X20064684Y-51597951D01*
X20064674Y-51597950D01*
X19915326Y-51597950D01*
X19915325Y-51597950D01*
X19915315Y-51597951D01*
X19842263Y-51612483D01*
X19842261Y-51612483D01*
X19842260Y-51612484D01*
X19842259Y-51612484D01*
X19833251Y-51616216D01*
X19832416Y-51614201D01*
X19786112Y-51627261D01*
X19747386Y-51614677D01*
X19746749Y-51616216D01*
X19737742Y-51612485D01*
X19737740Y-51612484D01*
X19737736Y-51612483D01*
X19664684Y-51597951D01*
X19664674Y-51597950D01*
X19515326Y-51597950D01*
X19515325Y-51597950D01*
X19515315Y-51597951D01*
X19442263Y-51612483D01*
X19442261Y-51612483D01*
X19442260Y-51612484D01*
X19442259Y-51612484D01*
X19433251Y-51616216D01*
X19432416Y-51614201D01*
X19386112Y-51627261D01*
X19347386Y-51614677D01*
X19346749Y-51616216D01*
X19337742Y-51612485D01*
X19337740Y-51612484D01*
X19337736Y-51612483D01*
X19264684Y-51597951D01*
X19264674Y-51597950D01*
X19125482Y-51597950D01*
X19067291Y-51579043D01*
X19055478Y-51568954D01*
X19046187Y-51559663D01*
X18941246Y-51508361D01*
X18890000Y-51500893D01*
X18890000Y-51813834D01*
X18889524Y-51823533D01*
X18889500Y-51823776D01*
X18889500Y-53271901D01*
X18870593Y-53330092D01*
X18821093Y-53366056D01*
X18759907Y-53366056D01*
X18731715Y-53351559D01*
X18729121Y-53349645D01*
X18600225Y-53304542D01*
X18551545Y-53267477D01*
X18533948Y-53208876D01*
X18554156Y-53151125D01*
X18562909Y-53141105D01*
X18568056Y-53135958D01*
X18568086Y-53135934D01*
X18574509Y-53129510D01*
X18574511Y-53129510D01*
X18604017Y-53100004D01*
X18628188Y-53075835D01*
X18630488Y-53073685D01*
X18630499Y-53073671D01*
X18631908Y-53071053D01*
X18653557Y-53033556D01*
X18653558Y-53033553D01*
X18653560Y-53033550D01*
X18669747Y-53005515D01*
X18670028Y-53005040D01*
X18670330Y-53004312D01*
X18672255Y-52999771D01*
X18690000Y-52975400D01*
X18690000Y-52938944D01*
X18690500Y-52931442D01*
X18690500Y-52873952D01*
X18690500Y-52873948D01*
X18690502Y-52849509D01*
X18690500Y-52849504D01*
X18690501Y-52843461D01*
X18690500Y-52843427D01*
X18690500Y-51823776D01*
X18690476Y-51823533D01*
X18690000Y-51813834D01*
X18690000Y-51500895D01*
X18638751Y-51508362D01*
X18533812Y-51559663D01*
X18524522Y-51568954D01*
X18470005Y-51596731D01*
X18454518Y-51597950D01*
X18315326Y-51597950D01*
X18315325Y-51597950D01*
X18315315Y-51597951D01*
X18242263Y-51612483D01*
X18242261Y-51612483D01*
X18242260Y-51612484D01*
X18242259Y-51612484D01*
X18233251Y-51616216D01*
X18232416Y-51614201D01*
X18186112Y-51627261D01*
X18147386Y-51614677D01*
X18146749Y-51616216D01*
X18137742Y-51612485D01*
X18137740Y-51612484D01*
X18137736Y-51612483D01*
X18064684Y-51597951D01*
X18064674Y-51597950D01*
X17915326Y-51597950D01*
X17915325Y-51597950D01*
X17915315Y-51597951D01*
X17842263Y-51612483D01*
X17842261Y-51612483D01*
X17842260Y-51612484D01*
X17842259Y-51612484D01*
X17833251Y-51616216D01*
X17832416Y-51614201D01*
X17786112Y-51627261D01*
X17747386Y-51614677D01*
X17746749Y-51616216D01*
X17737742Y-51612485D01*
X17737740Y-51612484D01*
X17737736Y-51612483D01*
X17664684Y-51597951D01*
X17664674Y-51597950D01*
X17515326Y-51597950D01*
X17515325Y-51597950D01*
X17515315Y-51597951D01*
X17442263Y-51612483D01*
X17442261Y-51612483D01*
X17442260Y-51612484D01*
X17442259Y-51612484D01*
X17433251Y-51616216D01*
X17432416Y-51614201D01*
X17386112Y-51627261D01*
X17347386Y-51614677D01*
X17346749Y-51616216D01*
X17337742Y-51612485D01*
X17337740Y-51612484D01*
X17337736Y-51612483D01*
X17264684Y-51597951D01*
X17264674Y-51597950D01*
X17115326Y-51597950D01*
X17115320Y-51597950D01*
X17104821Y-51600039D01*
X17044060Y-51592847D01*
X16999130Y-51551313D01*
X16988991Y-51500339D01*
X22490000Y-51500339D01*
X22490000Y-52135949D01*
X22490001Y-52135950D01*
X22789998Y-52135950D01*
X22789999Y-52135949D01*
X22789999Y-51897449D01*
X22808906Y-51839258D01*
X22858406Y-51803294D01*
X22888999Y-51798449D01*
X23127499Y-51798449D01*
X23127500Y-51798448D01*
X23127500Y-51498451D01*
X23327500Y-51498451D01*
X23327500Y-51798448D01*
X23327501Y-51798449D01*
X23648213Y-51798449D01*
X23648216Y-51798448D01*
X23716250Y-51788537D01*
X23821188Y-51737235D01*
X23903786Y-51654637D01*
X23955087Y-51549698D01*
X23962554Y-51498450D01*
X23327501Y-51498450D01*
X23327500Y-51498451D01*
X23127500Y-51498451D01*
X23127499Y-51498450D01*
X22491889Y-51498450D01*
X22490000Y-51500339D01*
X16988991Y-51500339D01*
X16987194Y-51491304D01*
X16988407Y-51483645D01*
X16990500Y-51473124D01*
X16990500Y-51323776D01*
X16987695Y-51309677D01*
X16983535Y-51288762D01*
X16975966Y-51250710D01*
X16975962Y-51250705D01*
X16972233Y-51241698D01*
X16974248Y-51240863D01*
X16961189Y-51194570D01*
X16973773Y-51155839D01*
X16972233Y-51155202D01*
X16975961Y-51146196D01*
X16975966Y-51146190D01*
X16990500Y-51073124D01*
X16990500Y-50923776D01*
X16975966Y-50850710D01*
X16975962Y-50850705D01*
X16972233Y-50841698D01*
X16974248Y-50840863D01*
X16961189Y-50794570D01*
X16973773Y-50755839D01*
X16972233Y-50755202D01*
X16975961Y-50746196D01*
X16975966Y-50746190D01*
X16990500Y-50673124D01*
X16990500Y-50523776D01*
X16990365Y-50523099D01*
X16982299Y-50482550D01*
X16975966Y-50450710D01*
X16975962Y-50450705D01*
X16972233Y-50441698D01*
X16974248Y-50440863D01*
X16961189Y-50394570D01*
X16973773Y-50355839D01*
X16972233Y-50355202D01*
X16975961Y-50346196D01*
X16975966Y-50346190D01*
X16990500Y-50273124D01*
X16990500Y-50123776D01*
X16975966Y-50050710D01*
X16975962Y-50050705D01*
X16972233Y-50041698D01*
X16974248Y-50040863D01*
X16961189Y-49994570D01*
X16973773Y-49955839D01*
X16972233Y-49955202D01*
X16975961Y-49946196D01*
X16975966Y-49946190D01*
X16990500Y-49873124D01*
X16990500Y-49754442D01*
X17009407Y-49696251D01*
X17058907Y-49660287D01*
X17120093Y-49660287D01*
X17169593Y-49696251D01*
G37*
%TD.AperFunction*%
%TA.AperFunction,Conductor*%
G36*
X30213943Y-33442853D02*
G01*
X30272110Y-33461825D01*
X30283834Y-33471849D01*
X30542481Y-33730496D01*
X30570258Y-33785013D01*
X30560687Y-33845445D01*
X30517422Y-33888710D01*
X30472477Y-33899500D01*
X30070138Y-33899500D01*
X30070135Y-33899501D01*
X30045009Y-33902414D01*
X29942235Y-33947794D01*
X29862794Y-34027235D01*
X29817414Y-34130011D01*
X29814500Y-34155130D01*
X29814500Y-34406541D01*
X29795593Y-34464732D01*
X29746093Y-34500696D01*
X29698246Y-34504026D01*
X29190523Y-34414163D01*
X29136518Y-34385403D01*
X29132959Y-34381511D01*
X29121128Y-34367857D01*
X29058781Y-34327789D01*
X29000057Y-34290049D01*
X29000054Y-34290047D01*
X29000053Y-34290047D01*
X29000050Y-34290046D01*
X28861964Y-34249500D01*
X28861961Y-34249500D01*
X28718039Y-34249500D01*
X28718035Y-34249500D01*
X28579949Y-34290046D01*
X28579942Y-34290049D01*
X28458873Y-34367855D01*
X28364622Y-34476628D01*
X28304834Y-34607543D01*
X28284353Y-34749997D01*
X28284353Y-34750002D01*
X28304834Y-34892456D01*
X28362569Y-35018875D01*
X28364623Y-35023373D01*
X28458872Y-35132143D01*
X28458873Y-35132144D01*
X28579942Y-35209950D01*
X28579947Y-35209953D01*
X28686403Y-35241211D01*
X28718035Y-35250499D01*
X28718036Y-35250499D01*
X28718039Y-35250500D01*
X28718041Y-35250500D01*
X28861959Y-35250500D01*
X28861961Y-35250500D01*
X28993235Y-35211955D01*
X29006848Y-35207958D01*
X29007421Y-35209911D01*
X29055728Y-35203755D01*
X29642080Y-35307535D01*
X29696082Y-35336293D01*
X29722868Y-35391303D01*
X29722604Y-35420505D01*
X29717933Y-35450000D01*
X30391000Y-35450000D01*
X30449191Y-35468907D01*
X30485155Y-35518407D01*
X30490000Y-35549000D01*
X30490000Y-35650500D01*
X30471093Y-35708691D01*
X30421593Y-35744655D01*
X30391000Y-35749500D01*
X30128748Y-35749500D01*
X30123671Y-35750000D01*
X29717934Y-35750000D01*
X29729833Y-35825142D01*
X29729834Y-35825145D01*
X29788700Y-35940676D01*
X29798271Y-36001108D01*
X29770494Y-36055625D01*
X28380617Y-37445504D01*
X28326100Y-37473281D01*
X28310613Y-37474500D01*
X26438986Y-37474500D01*
X26368521Y-37503688D01*
X26342365Y-37514522D01*
X26337727Y-37516443D01*
X25099587Y-38754582D01*
X25099242Y-38754924D01*
X20647495Y-43163197D01*
X20629243Y-43177458D01*
X19117894Y-44095747D01*
X19100732Y-44104029D01*
X19083299Y-44110455D01*
X19083297Y-44110456D01*
X19075556Y-44117607D01*
X19070622Y-44122165D01*
X19054855Y-44134050D01*
X19040110Y-44143009D01*
X19040109Y-44143009D01*
X19029128Y-44158003D01*
X19016445Y-44172218D01*
X19002795Y-44184829D01*
X19002795Y-44184830D01*
X18995567Y-44200497D01*
X18985545Y-44217515D01*
X18975354Y-44231429D01*
X18975351Y-44231436D01*
X18970943Y-44249492D01*
X18964666Y-44267475D01*
X18956881Y-44284351D01*
X18956881Y-44284353D01*
X18956198Y-44301596D01*
X18953453Y-44321149D01*
X18949363Y-44337905D01*
X18949363Y-44337907D01*
X18952199Y-44356262D01*
X18953283Y-44375291D01*
X18946955Y-44535215D01*
X18925761Y-44592613D01*
X18912792Y-44606182D01*
X18890000Y-44625893D01*
X18890000Y-44938834D01*
X18889524Y-44948533D01*
X18889500Y-44948776D01*
X18889500Y-45773124D01*
X18889500Y-45773127D01*
X18889523Y-45773354D01*
X18890000Y-45783063D01*
X18890000Y-46096003D01*
X18941252Y-46088536D01*
X19046188Y-46037236D01*
X19046189Y-46037235D01*
X19055476Y-46027949D01*
X19109992Y-46000169D01*
X19125482Y-45998950D01*
X19264673Y-45998950D01*
X19264674Y-45998950D01*
X19337740Y-45984416D01*
X19337746Y-45984411D01*
X19346752Y-45980683D01*
X19347586Y-45982698D01*
X19393880Y-45969639D01*
X19432610Y-45982223D01*
X19433248Y-45980683D01*
X19442255Y-45984412D01*
X19442260Y-45984416D01*
X19497808Y-45995465D01*
X19515315Y-45998948D01*
X19515320Y-45998948D01*
X19515326Y-45998950D01*
X19515327Y-45998950D01*
X19664673Y-45998950D01*
X19664674Y-45998950D01*
X19737740Y-45984416D01*
X19737746Y-45984411D01*
X19746752Y-45980683D01*
X19747586Y-45982698D01*
X19793880Y-45969639D01*
X19832610Y-45982223D01*
X19833248Y-45980683D01*
X19842255Y-45984412D01*
X19842260Y-45984416D01*
X19897808Y-45995465D01*
X19915315Y-45998948D01*
X19915320Y-45998948D01*
X19915326Y-45998950D01*
X19915327Y-45998950D01*
X20064673Y-45998950D01*
X20064674Y-45998950D01*
X20137740Y-45984416D01*
X20137746Y-45984411D01*
X20146752Y-45980683D01*
X20147586Y-45982698D01*
X20193880Y-45969639D01*
X20232610Y-45982223D01*
X20233248Y-45980683D01*
X20242255Y-45984412D01*
X20242260Y-45984416D01*
X20297808Y-45995465D01*
X20315315Y-45998948D01*
X20315320Y-45998948D01*
X20315326Y-45998950D01*
X20315327Y-45998950D01*
X20464673Y-45998950D01*
X20464674Y-45998950D01*
X20537740Y-45984416D01*
X20537746Y-45984411D01*
X20546752Y-45980683D01*
X20547586Y-45982698D01*
X20593880Y-45969639D01*
X20632610Y-45982223D01*
X20633248Y-45980683D01*
X20642255Y-45984412D01*
X20642260Y-45984416D01*
X20697808Y-45995465D01*
X20715315Y-45998948D01*
X20715320Y-45998948D01*
X20715326Y-45998950D01*
X20715327Y-45998950D01*
X20864673Y-45998950D01*
X20864674Y-45998950D01*
X20937740Y-45984416D01*
X20937746Y-45984411D01*
X20946752Y-45980683D01*
X20947586Y-45982698D01*
X20993880Y-45969639D01*
X21032610Y-45982223D01*
X21033248Y-45980683D01*
X21042255Y-45984412D01*
X21042260Y-45984416D01*
X21097808Y-45995465D01*
X21115315Y-45998948D01*
X21115320Y-45998948D01*
X21115326Y-45998950D01*
X21115327Y-45998950D01*
X21264673Y-45998950D01*
X21264674Y-45998950D01*
X21337740Y-45984416D01*
X21337746Y-45984411D01*
X21346752Y-45980683D01*
X21347586Y-45982698D01*
X21393880Y-45969639D01*
X21432610Y-45982223D01*
X21433248Y-45980683D01*
X21442255Y-45984412D01*
X21442260Y-45984416D01*
X21497808Y-45995465D01*
X21515315Y-45998948D01*
X21515320Y-45998948D01*
X21515326Y-45998950D01*
X21515327Y-45998950D01*
X21664673Y-45998950D01*
X21664674Y-45998950D01*
X21737740Y-45984416D01*
X21737746Y-45984411D01*
X21746752Y-45980683D01*
X21747586Y-45982698D01*
X21793880Y-45969639D01*
X21832610Y-45982223D01*
X21833248Y-45980683D01*
X21842255Y-45984412D01*
X21842260Y-45984416D01*
X21897808Y-45995465D01*
X21915315Y-45998948D01*
X21915320Y-45998948D01*
X21915326Y-45998950D01*
X21915327Y-45998950D01*
X22054518Y-45998950D01*
X22112709Y-46017857D01*
X22124522Y-46027946D01*
X22133812Y-46037236D01*
X22238751Y-46088537D01*
X22290000Y-46096004D01*
X22290000Y-45783063D01*
X22290477Y-45773354D01*
X22290499Y-45773127D01*
X22290500Y-45773124D01*
X22290500Y-45260949D01*
X22490000Y-45260949D01*
X22490001Y-45260950D01*
X22789998Y-45260950D01*
X22789999Y-45260949D01*
X22789999Y-44940236D01*
X22789998Y-44940233D01*
X22780087Y-44872199D01*
X22728785Y-44767261D01*
X22646187Y-44684663D01*
X22541246Y-44633361D01*
X22490000Y-44625893D01*
X22490000Y-45260949D01*
X22290500Y-45260949D01*
X22290500Y-44948776D01*
X22290476Y-44948533D01*
X22290000Y-44938834D01*
X22290000Y-44625895D01*
X22238751Y-44633362D01*
X22133812Y-44684663D01*
X22124522Y-44693954D01*
X22070005Y-44721731D01*
X22054518Y-44722950D01*
X21915326Y-44722950D01*
X21915325Y-44722950D01*
X21915315Y-44722951D01*
X21842263Y-44737483D01*
X21842261Y-44737483D01*
X21842260Y-44737484D01*
X21842259Y-44737484D01*
X21833251Y-44741216D01*
X21832416Y-44739201D01*
X21786112Y-44752261D01*
X21747386Y-44739677D01*
X21746749Y-44741216D01*
X21737742Y-44737485D01*
X21737740Y-44737484D01*
X21737736Y-44737483D01*
X21664684Y-44722951D01*
X21664674Y-44722950D01*
X21515326Y-44722950D01*
X21515325Y-44722950D01*
X21515315Y-44722951D01*
X21442263Y-44737483D01*
X21442261Y-44737483D01*
X21442260Y-44737484D01*
X21442259Y-44737484D01*
X21433251Y-44741216D01*
X21432416Y-44739201D01*
X21386112Y-44752261D01*
X21347386Y-44739677D01*
X21346749Y-44741216D01*
X21337742Y-44737485D01*
X21337740Y-44737484D01*
X21337736Y-44737483D01*
X21264684Y-44722951D01*
X21264674Y-44722950D01*
X21115326Y-44722950D01*
X21115325Y-44722950D01*
X21115315Y-44722951D01*
X21042263Y-44737483D01*
X21042261Y-44737483D01*
X21042260Y-44737484D01*
X21042259Y-44737484D01*
X21033251Y-44741216D01*
X21032416Y-44739201D01*
X20986112Y-44752261D01*
X20947386Y-44739677D01*
X20946749Y-44741216D01*
X20937742Y-44737485D01*
X20937740Y-44737484D01*
X20937736Y-44737483D01*
X20864684Y-44722951D01*
X20864674Y-44722950D01*
X20715326Y-44722950D01*
X20715325Y-44722950D01*
X20715315Y-44722951D01*
X20642263Y-44737483D01*
X20642261Y-44737483D01*
X20642260Y-44737484D01*
X20642259Y-44737484D01*
X20633251Y-44741216D01*
X20632416Y-44739201D01*
X20586112Y-44752261D01*
X20547386Y-44739677D01*
X20546749Y-44741216D01*
X20537742Y-44737485D01*
X20537740Y-44737484D01*
X20537736Y-44737483D01*
X20464684Y-44722951D01*
X20464674Y-44722950D01*
X20392223Y-44722950D01*
X20334032Y-44704043D01*
X20298068Y-44654543D01*
X20298068Y-44593357D01*
X20334032Y-44543857D01*
X20335871Y-44542553D01*
X20652220Y-44323542D01*
X20884040Y-44163051D01*
X22571201Y-44163051D01*
X22571201Y-44206053D01*
X22573986Y-44235771D01*
X22573987Y-44235776D01*
X22617794Y-44360970D01*
X22696558Y-44467689D01*
X22696560Y-44467691D01*
X22803279Y-44546455D01*
X22928472Y-44590262D01*
X22958199Y-44593049D01*
X23031199Y-44593048D01*
X23031200Y-44593048D01*
X23031200Y-44163051D01*
X23331200Y-44163051D01*
X23331200Y-44593048D01*
X23331201Y-44593049D01*
X23404204Y-44593049D01*
X23433921Y-44590263D01*
X23433926Y-44590262D01*
X23559120Y-44546455D01*
X23665839Y-44467691D01*
X23665841Y-44467689D01*
X23744605Y-44360970D01*
X23788412Y-44235777D01*
X23791200Y-44206050D01*
X23791200Y-44163051D01*
X23791199Y-44163050D01*
X23331201Y-44163050D01*
X23331200Y-44163051D01*
X23031200Y-44163051D01*
X23031199Y-44163050D01*
X22571202Y-44163050D01*
X22571201Y-44163051D01*
X20884040Y-44163051D01*
X20935910Y-44127141D01*
X20936210Y-44126935D01*
X20980558Y-44096672D01*
X20980558Y-44096670D01*
X20980573Y-44096661D01*
X20980926Y-44096297D01*
X20981335Y-44095877D01*
X20981858Y-44095343D01*
X20981871Y-44095322D01*
X20981873Y-44095321D01*
X21010972Y-44050174D01*
X21011960Y-44048663D01*
X21024789Y-44032874D01*
X22554591Y-42503072D01*
X22609106Y-42475297D01*
X22669538Y-42484868D01*
X22712803Y-42528133D01*
X22714646Y-42531950D01*
X22725822Y-42556422D01*
X22725823Y-42556423D01*
X22739957Y-42572735D01*
X22763774Y-42629094D01*
X22749915Y-42688689D01*
X22735143Y-42707566D01*
X22727977Y-42714732D01*
X22727974Y-42714736D01*
X22677229Y-42823560D01*
X22677228Y-42823561D01*
X22670700Y-42873150D01*
X22670700Y-43232945D01*
X22670701Y-43232957D01*
X22677227Y-43282536D01*
X22677227Y-43282538D01*
X22727974Y-43391363D01*
X22727975Y-43391364D01*
X22727976Y-43391366D01*
X22729401Y-43392791D01*
X22730542Y-43395031D01*
X22732944Y-43398461D01*
X22732461Y-43398798D01*
X22757177Y-43447306D01*
X22747606Y-43507738D01*
X22718186Y-43542447D01*
X22696562Y-43558406D01*
X22696558Y-43558410D01*
X22617794Y-43665129D01*
X22573987Y-43790322D01*
X22571200Y-43820049D01*
X22571200Y-43863049D01*
X22571201Y-43863050D01*
X23791198Y-43863050D01*
X23791199Y-43863049D01*
X23791199Y-43820046D01*
X23788413Y-43790328D01*
X23788412Y-43790323D01*
X23744605Y-43665129D01*
X23665841Y-43558410D01*
X23665839Y-43558408D01*
X23644214Y-43542448D01*
X23608622Y-43492680D01*
X23609080Y-43431496D01*
X23629484Y-43398480D01*
X23629456Y-43398461D01*
X23629797Y-43397972D01*
X23633002Y-43392787D01*
X23634424Y-43391366D01*
X23685172Y-43282537D01*
X23691700Y-43232951D01*
X23691699Y-42873150D01*
X23685172Y-42823563D01*
X23685172Y-42823561D01*
X23634425Y-42714736D01*
X23634424Y-42714735D01*
X23634424Y-42714734D01*
X23593682Y-42673992D01*
X23565907Y-42619478D01*
X23574790Y-42563390D01*
X23573636Y-42562863D01*
X23636365Y-42425506D01*
X23640624Y-42395888D01*
X23656847Y-42283050D01*
X23654033Y-42263480D01*
X23636365Y-42140593D01*
X23576577Y-42009678D01*
X23576577Y-42009677D01*
X23482328Y-41900907D01*
X23482327Y-41900906D01*
X23482326Y-41900905D01*
X23387480Y-41839952D01*
X23348749Y-41792586D01*
X23345255Y-41731501D01*
X23370997Y-41686666D01*
X26703170Y-38354496D01*
X26757687Y-38326719D01*
X26773174Y-38325500D01*
X28644799Y-38325500D01*
X28644800Y-38325500D01*
X28746058Y-38283557D01*
X28823557Y-38206058D01*
X28823556Y-38206058D01*
X29445497Y-37584117D01*
X29500013Y-37556341D01*
X29560445Y-37565912D01*
X29603710Y-37609177D01*
X29614500Y-37654122D01*
X29614500Y-40307970D01*
X29595593Y-40366161D01*
X29585504Y-40377974D01*
X24193054Y-45770423D01*
X24138537Y-45798200D01*
X24078105Y-45788629D01*
X24034840Y-45745364D01*
X24025058Y-45686330D01*
X24032747Y-45632852D01*
X24032747Y-45632847D01*
X24012265Y-45490393D01*
X23998819Y-45460950D01*
X23952477Y-45359477D01*
X23858228Y-45250707D01*
X23858227Y-45250706D01*
X23858226Y-45250705D01*
X23737157Y-45172899D01*
X23737154Y-45172897D01*
X23737153Y-45172897D01*
X23737150Y-45172896D01*
X23599064Y-45132350D01*
X23599061Y-45132350D01*
X23455139Y-45132350D01*
X23455135Y-45132350D01*
X23317049Y-45172896D01*
X23317042Y-45172899D01*
X23195973Y-45250705D01*
X23101722Y-45359478D01*
X23041934Y-45490393D01*
X23021453Y-45632846D01*
X23021453Y-45632847D01*
X23021453Y-45632850D01*
X23028986Y-45685245D01*
X23018551Y-45745534D01*
X23001002Y-45769332D01*
X22993942Y-45776392D01*
X22980464Y-45808932D01*
X22940727Y-45855458D01*
X22881232Y-45869741D01*
X22824704Y-45846326D01*
X22792735Y-45794157D01*
X22790000Y-45771046D01*
X22790000Y-45460951D01*
X22789999Y-45460950D01*
X22490001Y-45460950D01*
X22490000Y-45460951D01*
X22490000Y-46096004D01*
X22496288Y-46101442D01*
X22536535Y-46108330D01*
X22579260Y-46152128D01*
X22589500Y-46195976D01*
X22589500Y-46273122D01*
X22589501Y-46273134D01*
X22598341Y-46317572D01*
X22604034Y-46346190D01*
X22604035Y-46346192D01*
X22607766Y-46355199D01*
X22605751Y-46356033D01*
X22618811Y-46402338D01*
X22606227Y-46441063D01*
X22607766Y-46441701D01*
X22604033Y-46450713D01*
X22589501Y-46523765D01*
X22589500Y-46523777D01*
X22589500Y-46673122D01*
X22589501Y-46673134D01*
X22604033Y-46746186D01*
X22604034Y-46746190D01*
X22604035Y-46746192D01*
X22607766Y-46755199D01*
X22605751Y-46756033D01*
X22618811Y-46802338D01*
X22606227Y-46841063D01*
X22607766Y-46841701D01*
X22604033Y-46850713D01*
X22589501Y-46923765D01*
X22589500Y-46923777D01*
X22589500Y-47073122D01*
X22589501Y-47073134D01*
X22600590Y-47128877D01*
X22604034Y-47146190D01*
X22604035Y-47146192D01*
X22607766Y-47155199D01*
X22605751Y-47156033D01*
X22618811Y-47202338D01*
X22606227Y-47241063D01*
X22607766Y-47241701D01*
X22604033Y-47250713D01*
X22589501Y-47323765D01*
X22589500Y-47323777D01*
X22589500Y-47473122D01*
X22589501Y-47473134D01*
X22599834Y-47525077D01*
X22604034Y-47546190D01*
X22604035Y-47546192D01*
X22607766Y-47555199D01*
X22605751Y-47556033D01*
X22618811Y-47602338D01*
X22606227Y-47641063D01*
X22607766Y-47641701D01*
X22604033Y-47650713D01*
X22589501Y-47723765D01*
X22589500Y-47723777D01*
X22589500Y-47873122D01*
X22589501Y-47873134D01*
X22601128Y-47931582D01*
X22604034Y-47946190D01*
X22604035Y-47946192D01*
X22607766Y-47955199D01*
X22605751Y-47956033D01*
X22618811Y-48002338D01*
X22606227Y-48041063D01*
X22607766Y-48041701D01*
X22604033Y-48050713D01*
X22589501Y-48123765D01*
X22589500Y-48123777D01*
X22589500Y-48273122D01*
X22589501Y-48273134D01*
X22603842Y-48345226D01*
X22604034Y-48346190D01*
X22604035Y-48346192D01*
X22607766Y-48355199D01*
X22605751Y-48356033D01*
X22618811Y-48402338D01*
X22606227Y-48441063D01*
X22607766Y-48441701D01*
X22604033Y-48450713D01*
X22589501Y-48523765D01*
X22589500Y-48523777D01*
X22589500Y-48662967D01*
X22570593Y-48721158D01*
X22560506Y-48732968D01*
X22551214Y-48742260D01*
X22499912Y-48847201D01*
X22492446Y-48898450D01*
X22805385Y-48898450D01*
X22815086Y-48898926D01*
X22815322Y-48898949D01*
X22815326Y-48898950D01*
X23187938Y-48898950D01*
X24142917Y-48898950D01*
X24201108Y-48917857D01*
X24217733Y-48933117D01*
X24258872Y-48980593D01*
X24314147Y-49016116D01*
X24379702Y-49058246D01*
X24379947Y-49058403D01*
X24486403Y-49089661D01*
X24518035Y-49098949D01*
X24518036Y-49098949D01*
X24518039Y-49098950D01*
X24518041Y-49098950D01*
X24661959Y-49098950D01*
X24661961Y-49098950D01*
X24800053Y-49058403D01*
X24921128Y-48980593D01*
X24962264Y-48933118D01*
X25014660Y-48901523D01*
X25037083Y-48898950D01*
X25734163Y-48898950D01*
X25734163Y-48898949D01*
X25810589Y-48878471D01*
X25879111Y-48838910D01*
X25919574Y-48798447D01*
X25935061Y-48782961D01*
X26027923Y-48690098D01*
X26072282Y-48645738D01*
X26126797Y-48617961D01*
X26187229Y-48627532D01*
X26212289Y-48645738D01*
X26215001Y-48648450D01*
X26846000Y-48648450D01*
X26904191Y-48667357D01*
X26940155Y-48716857D01*
X26945000Y-48747450D01*
X26945000Y-48849450D01*
X26926093Y-48907641D01*
X26876593Y-48943605D01*
X26846000Y-48948450D01*
X26215002Y-48948450D01*
X26215001Y-48948451D01*
X26215001Y-49021453D01*
X26217786Y-49051171D01*
X26217787Y-49051176D01*
X26261594Y-49176370D01*
X26342205Y-49285592D01*
X26361547Y-49343640D01*
X26343076Y-49401970D01*
X26332843Y-49414094D01*
X26324307Y-49422701D01*
X26269906Y-49450704D01*
X26209435Y-49441383D01*
X26184010Y-49422992D01*
X26179065Y-49418047D01*
X26179065Y-49418046D01*
X26095404Y-49334385D01*
X26095402Y-49334384D01*
X26095401Y-49334383D01*
X25988175Y-49284382D01*
X25955601Y-49280094D01*
X25939316Y-49277950D01*
X25590684Y-49277950D01*
X25574398Y-49280094D01*
X25541825Y-49284382D01*
X25541824Y-49284382D01*
X25434598Y-49334383D01*
X25350933Y-49418048D01*
X25340329Y-49440790D01*
X25298601Y-49485538D01*
X25250605Y-49497950D01*
X23226500Y-49497950D01*
X23168309Y-49479043D01*
X23132345Y-49429543D01*
X23127500Y-49398950D01*
X23127500Y-49098451D01*
X23327500Y-49098451D01*
X23327500Y-49298449D01*
X23327501Y-49298450D01*
X23962553Y-49298450D01*
X23955087Y-49247199D01*
X23952511Y-49241930D01*
X23943940Y-49181348D01*
X23952511Y-49154968D01*
X23955087Y-49149696D01*
X23962554Y-49098450D01*
X23327501Y-49098450D01*
X23327500Y-49098451D01*
X23127500Y-49098451D01*
X23127499Y-49098450D01*
X22492446Y-49098450D01*
X22499911Y-49149699D01*
X22499912Y-49149701D01*
X22502490Y-49154975D01*
X22511058Y-49215558D01*
X22502486Y-49241935D01*
X22501713Y-49243516D01*
X22459167Y-49287488D01*
X22398901Y-49298054D01*
X22343934Y-49271179D01*
X22322721Y-49241159D01*
X22315377Y-49225077D01*
X22221128Y-49116307D01*
X22221127Y-49116306D01*
X22219654Y-49114606D01*
X22195837Y-49058246D01*
X22195474Y-49049775D01*
X22195474Y-46672451D01*
X22195474Y-46672450D01*
X22179831Y-46593809D01*
X22164887Y-46557730D01*
X22158158Y-46541485D01*
X22130322Y-46497184D01*
X22121529Y-46483189D01*
X22089787Y-46460667D01*
X22046940Y-46430266D01*
X22022738Y-46420242D01*
X21994615Y-46408593D01*
X21915974Y-46392950D01*
X17663974Y-46392950D01*
X17663973Y-46392950D01*
X17585331Y-46408593D01*
X17533009Y-46430265D01*
X17474713Y-46466894D01*
X17421790Y-46541483D01*
X17400117Y-46593810D01*
X17384474Y-46672449D01*
X17384474Y-47512817D01*
X17397430Y-47584629D01*
X17415502Y-47633085D01*
X17415504Y-47633089D01*
X17452739Y-47695845D01*
X17471304Y-47717271D01*
X17486538Y-47740975D01*
X17503981Y-47779170D01*
X17511919Y-47806205D01*
X17517894Y-47847758D01*
X17517894Y-47875940D01*
X17511919Y-47917493D01*
X17503981Y-47944528D01*
X17486539Y-47982721D01*
X17471307Y-48006423D01*
X17452740Y-48027851D01*
X17415501Y-48090614D01*
X17397429Y-48139070D01*
X17384474Y-48210881D01*
X17384474Y-48743392D01*
X17365567Y-48801583D01*
X17335914Y-48827061D01*
X17336536Y-48828050D01*
X17333008Y-48830266D01*
X17333007Y-48830267D01*
X17288839Y-48858019D01*
X17274713Y-48866895D01*
X17258686Y-48889483D01*
X17209592Y-48926000D01*
X17148411Y-48926686D01*
X17098511Y-48891279D01*
X17083211Y-48854278D01*
X17082356Y-48854543D01*
X17080087Y-48847200D01*
X17028785Y-48742260D01*
X17028783Y-48742258D01*
X17019494Y-48732968D01*
X16991718Y-48678451D01*
X16990500Y-48662967D01*
X16990500Y-48523777D01*
X16990498Y-48523765D01*
X16987015Y-48506258D01*
X16975966Y-48450710D01*
X16975962Y-48450705D01*
X16972233Y-48441698D01*
X16974248Y-48440863D01*
X16961189Y-48394570D01*
X16973773Y-48355839D01*
X16972233Y-48355202D01*
X16975961Y-48346196D01*
X16975966Y-48346190D01*
X16990500Y-48273124D01*
X16990500Y-48123776D01*
X16975966Y-48050710D01*
X16975962Y-48050705D01*
X16972233Y-48041698D01*
X16974248Y-48040863D01*
X16961189Y-47994570D01*
X16973773Y-47955839D01*
X16972233Y-47955202D01*
X16975961Y-47946196D01*
X16975966Y-47946190D01*
X16990500Y-47873124D01*
X16990500Y-47723776D01*
X16975966Y-47650710D01*
X16975962Y-47650705D01*
X16972233Y-47641698D01*
X16974248Y-47640863D01*
X16961189Y-47594570D01*
X16973773Y-47555839D01*
X16972233Y-47555202D01*
X16975961Y-47546196D01*
X16975966Y-47546190D01*
X16990500Y-47473124D01*
X16990500Y-47323776D01*
X16975966Y-47250710D01*
X16975962Y-47250705D01*
X16972233Y-47241698D01*
X16974248Y-47240863D01*
X16961189Y-47194570D01*
X16973773Y-47155839D01*
X16972233Y-47155202D01*
X16975961Y-47146196D01*
X16975966Y-47146190D01*
X16990500Y-47073124D01*
X16990500Y-46923776D01*
X16975966Y-46850710D01*
X16975962Y-46850705D01*
X16972233Y-46841698D01*
X16974248Y-46840863D01*
X16961189Y-46794570D01*
X16973773Y-46755839D01*
X16972233Y-46755202D01*
X16975961Y-46746196D01*
X16975966Y-46746190D01*
X16990500Y-46673124D01*
X16990500Y-46523776D01*
X16975966Y-46450710D01*
X16975962Y-46450705D01*
X16972233Y-46441698D01*
X16974248Y-46440863D01*
X16961189Y-46394570D01*
X16973773Y-46355839D01*
X16972233Y-46355202D01*
X16975961Y-46346196D01*
X16975966Y-46346190D01*
X16990500Y-46273124D01*
X16990500Y-46123776D01*
X16988411Y-46113275D01*
X16995600Y-46052515D01*
X17037130Y-46007583D01*
X17097139Y-45995644D01*
X17104812Y-45996858D01*
X17115326Y-45998950D01*
X17115327Y-45998950D01*
X17264673Y-45998950D01*
X17264674Y-45998950D01*
X17337740Y-45984416D01*
X17337746Y-45984411D01*
X17346752Y-45980683D01*
X17347586Y-45982698D01*
X17393880Y-45969639D01*
X17432610Y-45982223D01*
X17433248Y-45980683D01*
X17442255Y-45984412D01*
X17442260Y-45984416D01*
X17497808Y-45995465D01*
X17515315Y-45998948D01*
X17515320Y-45998948D01*
X17515326Y-45998950D01*
X17515327Y-45998950D01*
X17664673Y-45998950D01*
X17664674Y-45998950D01*
X17737740Y-45984416D01*
X17737746Y-45984411D01*
X17746752Y-45980683D01*
X17747586Y-45982698D01*
X17793880Y-45969639D01*
X17832610Y-45982223D01*
X17833248Y-45980683D01*
X17842255Y-45984412D01*
X17842260Y-45984416D01*
X17897808Y-45995465D01*
X17915315Y-45998948D01*
X17915320Y-45998948D01*
X17915326Y-45998950D01*
X17915327Y-45998950D01*
X18064673Y-45998950D01*
X18064674Y-45998950D01*
X18137740Y-45984416D01*
X18137746Y-45984411D01*
X18146752Y-45980683D01*
X18147586Y-45982698D01*
X18193880Y-45969639D01*
X18232610Y-45982223D01*
X18233248Y-45980683D01*
X18242255Y-45984412D01*
X18242260Y-45984416D01*
X18297808Y-45995465D01*
X18315315Y-45998948D01*
X18315320Y-45998948D01*
X18315326Y-45998950D01*
X18315327Y-45998950D01*
X18454518Y-45998950D01*
X18512709Y-46017857D01*
X18524522Y-46027946D01*
X18533812Y-46037236D01*
X18638751Y-46088537D01*
X18690000Y-46096004D01*
X18690000Y-45783063D01*
X18690477Y-45773354D01*
X18690499Y-45773127D01*
X18690500Y-45773124D01*
X18690500Y-44948776D01*
X18690476Y-44948533D01*
X18690000Y-44938834D01*
X18690000Y-44625895D01*
X18638751Y-44633362D01*
X18533812Y-44684663D01*
X18524522Y-44693954D01*
X18470005Y-44721731D01*
X18454518Y-44722950D01*
X18408400Y-44722950D01*
X18350209Y-44704043D01*
X18314245Y-44654543D01*
X18309400Y-44623950D01*
X18309400Y-44114850D01*
X18278115Y-44039321D01*
X18267457Y-44013591D01*
X17894496Y-43640629D01*
X17866719Y-43586113D01*
X17865500Y-43570626D01*
X17865500Y-43361123D01*
X17884407Y-43302932D01*
X17933907Y-43266968D01*
X17995093Y-43266968D01*
X18044155Y-43302335D01*
X18066555Y-43332686D01*
X18066560Y-43332691D01*
X18173279Y-43411455D01*
X18298472Y-43455262D01*
X18328199Y-43458049D01*
X18401199Y-43458048D01*
X18401200Y-43458048D01*
X18401200Y-43028051D01*
X18701200Y-43028051D01*
X18701200Y-43458048D01*
X18701201Y-43458049D01*
X18774204Y-43458049D01*
X18803921Y-43455263D01*
X18803926Y-43455262D01*
X18929120Y-43411455D01*
X19035839Y-43332691D01*
X19035841Y-43332689D01*
X19114605Y-43225970D01*
X19158412Y-43100777D01*
X19161200Y-43071050D01*
X19161200Y-43028051D01*
X19161199Y-43028050D01*
X18701201Y-43028050D01*
X18701200Y-43028051D01*
X18401200Y-43028051D01*
X18401200Y-42827050D01*
X18420107Y-42768859D01*
X18469607Y-42732895D01*
X18500200Y-42728050D01*
X19161198Y-42728050D01*
X19161199Y-42728049D01*
X19161199Y-42685046D01*
X19158413Y-42655328D01*
X19158412Y-42655323D01*
X19114605Y-42530129D01*
X19035841Y-42423410D01*
X19035839Y-42423408D01*
X19014214Y-42407448D01*
X18978622Y-42357680D01*
X18979080Y-42296496D01*
X18999484Y-42263480D01*
X18999456Y-42263461D01*
X18999797Y-42262972D01*
X19003002Y-42257787D01*
X19004424Y-42256366D01*
X19055172Y-42147537D01*
X19061700Y-42097951D01*
X19061699Y-41738150D01*
X19055172Y-41688563D01*
X19055172Y-41688561D01*
X19021351Y-41616032D01*
X19013894Y-41555303D01*
X19018771Y-41538402D01*
X19049029Y-41460367D01*
X19087695Y-41412948D01*
X19113441Y-41401168D01*
X19141253Y-41393003D01*
X19262328Y-41315193D01*
X19356577Y-41206423D01*
X19416365Y-41075507D01*
X19436847Y-40933050D01*
X19436592Y-40931278D01*
X19416365Y-40790593D01*
X19356577Y-40659678D01*
X19356577Y-40659677D01*
X19262328Y-40550907D01*
X19262327Y-40550906D01*
X19262326Y-40550905D01*
X19141257Y-40473099D01*
X19141254Y-40473097D01*
X19141253Y-40473097D01*
X19141250Y-40473096D01*
X19003164Y-40432550D01*
X19003161Y-40432550D01*
X18859239Y-40432550D01*
X18859235Y-40432550D01*
X18721149Y-40473096D01*
X18721142Y-40473099D01*
X18600073Y-40550905D01*
X18505822Y-40659678D01*
X18446034Y-40790593D01*
X18425553Y-40933047D01*
X18425553Y-40933052D01*
X18446034Y-41075506D01*
X18486893Y-41164973D01*
X18493868Y-41225760D01*
X18489144Y-41241891D01*
X18437786Y-41374341D01*
X18399120Y-41421760D01*
X18345495Y-41437550D01*
X18341310Y-41437550D01*
X18341292Y-41437551D01*
X18291713Y-41444077D01*
X18291711Y-41444078D01*
X18203810Y-41485067D01*
X18143081Y-41492524D01*
X18089567Y-41462861D01*
X18063709Y-41407408D01*
X18071920Y-41354212D01*
X18075165Y-41347107D01*
X18095392Y-41206423D01*
X18095647Y-41204652D01*
X18095647Y-41204647D01*
X18075165Y-41062193D01*
X18015377Y-40931277D01*
X17921128Y-40822507D01*
X17921127Y-40822506D01*
X17921126Y-40822505D01*
X17800057Y-40744699D01*
X17800054Y-40744698D01*
X17800053Y-40744697D01*
X17760659Y-40733130D01*
X17707548Y-40717535D01*
X17657041Y-40682999D01*
X17636480Y-40625372D01*
X17653719Y-40566665D01*
X17669357Y-40548829D01*
X18104593Y-40158694D01*
X18106675Y-40156881D01*
X21955718Y-36900000D01*
X23387934Y-36900000D01*
X23399833Y-36975142D01*
X23399834Y-36975145D01*
X23457359Y-37088044D01*
X23546956Y-37177641D01*
X23659848Y-37235163D01*
X23659852Y-37235164D01*
X23753515Y-37249999D01*
X23860000Y-37249999D01*
X23860000Y-36900001D01*
X23859999Y-36900000D01*
X23387934Y-36900000D01*
X21955718Y-36900000D01*
X22323060Y-36589172D01*
X22547897Y-36398925D01*
X22604532Y-36375770D01*
X22611845Y-36375500D01*
X23314380Y-36375500D01*
X23372571Y-36394407D01*
X23408535Y-36443907D01*
X23408535Y-36505093D01*
X23402590Y-36519444D01*
X23399836Y-36524847D01*
X23399835Y-36524852D01*
X23387933Y-36600000D01*
X24061000Y-36600000D01*
X24119191Y-36618907D01*
X24155155Y-36668407D01*
X24160000Y-36699000D01*
X24160000Y-37249998D01*
X24160001Y-37249999D01*
X24266483Y-37249999D01*
X24266485Y-37249998D01*
X24360141Y-37235166D01*
X24360151Y-37235163D01*
X24473043Y-37177641D01*
X24562641Y-37088043D01*
X24620163Y-36975151D01*
X24620164Y-36975147D01*
X24634999Y-36881485D01*
X24634999Y-36866271D01*
X24653903Y-36808079D01*
X24703401Y-36772113D01*
X24764587Y-36772110D01*
X24787518Y-36782980D01*
X24871347Y-36836853D01*
X24971537Y-36866271D01*
X25009435Y-36877399D01*
X25009436Y-36877399D01*
X25009439Y-36877400D01*
X25009441Y-36877400D01*
X25153359Y-36877400D01*
X25153361Y-36877400D01*
X25262466Y-36845364D01*
X25323625Y-36847111D01*
X25372078Y-36884474D01*
X25385883Y-36914362D01*
X25387413Y-36919987D01*
X25387415Y-36919991D01*
X25432794Y-37022765D01*
X25512235Y-37102206D01*
X25615009Y-37147585D01*
X25640135Y-37150500D01*
X26179864Y-37150499D01*
X26204991Y-37147585D01*
X26307765Y-37102206D01*
X26387206Y-37022765D01*
X26432585Y-36919991D01*
X26435500Y-36894865D01*
X26435499Y-36605136D01*
X26432585Y-36580009D01*
X26387206Y-36477235D01*
X26387205Y-36477234D01*
X26383500Y-36468843D01*
X26385875Y-36467794D01*
X26372462Y-36422261D01*
X26385526Y-36382051D01*
X26383500Y-36381157D01*
X26387204Y-36372766D01*
X26387206Y-36372765D01*
X26432585Y-36269991D01*
X26432585Y-36269985D01*
X26434540Y-36262805D01*
X26437334Y-36263565D01*
X26457432Y-36219650D01*
X26494301Y-36194434D01*
X26860733Y-36051347D01*
X26871115Y-36047941D01*
X26887989Y-36043421D01*
X26896021Y-36038782D01*
X26909515Y-36032298D01*
X26918155Y-36028926D01*
X26932233Y-36018571D01*
X26941366Y-36012603D01*
X26956511Y-36003860D01*
X26963073Y-35997297D01*
X26974419Y-35987549D01*
X26981898Y-35982050D01*
X26992814Y-35968408D01*
X27000096Y-35960273D01*
X27012460Y-35947911D01*
X27017103Y-35939867D01*
X27025544Y-35927511D01*
X27031337Y-35920275D01*
X27038355Y-35904262D01*
X27043283Y-35894521D01*
X27052021Y-35879389D01*
X27054420Y-35870430D01*
X27059380Y-35856298D01*
X27060260Y-35854290D01*
X27063102Y-35847808D01*
X27065735Y-35830541D01*
X27067979Y-35819834D01*
X27072499Y-35802964D01*
X27072500Y-35802964D01*
X27072500Y-35793680D01*
X27073631Y-35778757D01*
X27074199Y-35775029D01*
X27075029Y-35769589D01*
X27073103Y-35752224D01*
X27072500Y-35741311D01*
X27072500Y-33538453D01*
X27091407Y-33480262D01*
X27140907Y-33444298D01*
X27171604Y-33439454D01*
X30213943Y-33442853D01*
G37*
%TD.AperFunction*%
%TA.AperFunction,Conductor*%
G36*
X50289372Y-33465288D02*
G01*
X50347539Y-33484260D01*
X50383448Y-33533801D01*
X50388257Y-33564852D01*
X50300245Y-49013872D01*
X50281007Y-49071954D01*
X50231303Y-49107635D01*
X50201662Y-49112307D01*
X29110583Y-49200698D01*
X29052313Y-49182035D01*
X29016142Y-49132686D01*
X29015886Y-49071501D01*
X29020115Y-49060572D01*
X29021177Y-49058246D01*
X29074765Y-48940907D01*
X29087220Y-48854278D01*
X29095247Y-48798452D01*
X29095247Y-48798447D01*
X29074765Y-48655993D01*
X29057396Y-48617961D01*
X29014977Y-48525077D01*
X28920728Y-48416307D01*
X28920727Y-48416306D01*
X28920726Y-48416305D01*
X28866931Y-48381734D01*
X28828200Y-48334369D01*
X28824706Y-48273283D01*
X28857785Y-48221810D01*
X28866931Y-48215166D01*
X28920728Y-48180593D01*
X29014977Y-48071823D01*
X29074765Y-47940907D01*
X29095247Y-47798450D01*
X29094336Y-47792117D01*
X29074765Y-47655993D01*
X29074765Y-47655991D01*
X29055643Y-47614120D01*
X29048668Y-47553334D01*
X29078754Y-47500057D01*
X29134411Y-47474639D01*
X29145590Y-47473994D01*
X29189779Y-47473950D01*
X29189880Y-47473950D01*
X31926106Y-47473950D01*
X31926502Y-47473988D01*
X31935969Y-47473982D01*
X31935971Y-47473983D01*
X31989159Y-47473950D01*
X32045400Y-47473950D01*
X32045404Y-47473948D01*
X32045568Y-47473915D01*
X32045571Y-47473915D01*
X32095703Y-47453113D01*
X32095704Y-47453112D01*
X32095704Y-47453113D01*
X32095713Y-47453108D01*
X32146658Y-47432007D01*
X32146660Y-47432004D01*
X32146669Y-47432001D01*
X32146798Y-47431915D01*
X32146802Y-47431910D01*
X32146804Y-47431910D01*
X32186232Y-47392432D01*
X32224157Y-47354508D01*
X32224157Y-47354507D01*
X32230966Y-47347699D01*
X32231225Y-47347383D01*
X32233380Y-47345226D01*
X32909695Y-46668069D01*
X33099871Y-46477937D01*
X33154391Y-46450167D01*
X33169866Y-46448950D01*
X33333257Y-46448950D01*
X33333260Y-46448950D01*
X33401393Y-46439023D01*
X33506483Y-46387648D01*
X33589198Y-46304933D01*
X33640573Y-46199843D01*
X33640572Y-46199843D01*
X33643950Y-46192936D01*
X33645549Y-46193717D01*
X33675291Y-46151497D01*
X33733199Y-46131741D01*
X33791660Y-46149795D01*
X33828091Y-46198032D01*
X33867653Y-46311095D01*
X33948207Y-46420240D01*
X33948209Y-46420242D01*
X34057352Y-46500795D01*
X34185399Y-46545599D01*
X34215788Y-46548449D01*
X34269999Y-46548448D01*
X34270000Y-46548448D01*
X34270000Y-45598451D01*
X34570000Y-45598451D01*
X34570000Y-46548448D01*
X34570001Y-46548449D01*
X34624203Y-46548449D01*
X34654600Y-46545599D01*
X34654602Y-46545599D01*
X34782647Y-46500795D01*
X34891790Y-46420242D01*
X34891792Y-46420240D01*
X34972345Y-46311097D01*
X35017149Y-46183051D01*
X35019999Y-46152661D01*
X35020000Y-46152660D01*
X35020000Y-45613451D01*
X36350001Y-45613451D01*
X36350001Y-45656453D01*
X36352786Y-45686171D01*
X36352787Y-45686176D01*
X36396594Y-45811370D01*
X36475358Y-45918089D01*
X36475360Y-45918091D01*
X36582079Y-45996855D01*
X36707272Y-46040662D01*
X36736999Y-46043449D01*
X36809999Y-46043448D01*
X36810000Y-46043448D01*
X36810000Y-45613451D01*
X37110000Y-45613451D01*
X37110000Y-46043448D01*
X37110001Y-46043449D01*
X37183004Y-46043449D01*
X37212721Y-46040663D01*
X37212726Y-46040662D01*
X37337920Y-45996855D01*
X37444639Y-45918091D01*
X37444641Y-45918089D01*
X37523405Y-45811370D01*
X37567212Y-45686177D01*
X37570000Y-45656450D01*
X37570000Y-45613451D01*
X37569999Y-45613450D01*
X37110001Y-45613450D01*
X37110000Y-45613451D01*
X36810000Y-45613451D01*
X36809999Y-45613450D01*
X36350002Y-45613450D01*
X36350001Y-45613451D01*
X35020000Y-45613451D01*
X35020000Y-45598451D01*
X35019999Y-45598450D01*
X34570001Y-45598450D01*
X34570000Y-45598451D01*
X34270000Y-45598451D01*
X34270000Y-44348451D01*
X34570000Y-44348451D01*
X34570000Y-45298449D01*
X34570001Y-45298450D01*
X35019998Y-45298450D01*
X35019999Y-45298449D01*
X35019999Y-45270449D01*
X36350000Y-45270449D01*
X36350000Y-45313449D01*
X36350001Y-45313450D01*
X37569998Y-45313450D01*
X37569999Y-45313449D01*
X37569999Y-45270446D01*
X37567213Y-45240728D01*
X37567212Y-45240723D01*
X37523405Y-45115529D01*
X37444641Y-45008810D01*
X37444639Y-45008808D01*
X37423014Y-44992848D01*
X37387422Y-44943080D01*
X37387880Y-44881896D01*
X37408284Y-44848880D01*
X37408256Y-44848861D01*
X37408597Y-44848372D01*
X37411802Y-44843187D01*
X37413224Y-44841766D01*
X37463972Y-44732937D01*
X37470500Y-44683351D01*
X37470499Y-44323550D01*
X37463972Y-44273963D01*
X37463972Y-44273961D01*
X37413225Y-44165136D01*
X37413224Y-44165135D01*
X37413224Y-44165134D01*
X37328316Y-44080226D01*
X37328314Y-44080225D01*
X37322191Y-44074102D01*
X37324398Y-44071894D01*
X37296493Y-44034860D01*
X37291100Y-44002631D01*
X37291100Y-43952343D01*
X37310007Y-43894152D01*
X37317341Y-43886161D01*
X37317091Y-43885944D01*
X37321728Y-43880593D01*
X37415977Y-43771823D01*
X37475765Y-43640907D01*
X37487626Y-43558410D01*
X37496247Y-43498452D01*
X37496247Y-43498447D01*
X37475765Y-43355993D01*
X37465121Y-43332686D01*
X37415977Y-43225077D01*
X37321728Y-43116307D01*
X37321727Y-43116306D01*
X37321726Y-43116305D01*
X37200657Y-43038499D01*
X37200654Y-43038497D01*
X37200653Y-43038497D01*
X37200650Y-43038496D01*
X37062564Y-42997950D01*
X37062561Y-42997950D01*
X36918639Y-42997950D01*
X36918635Y-42997950D01*
X36780549Y-43038496D01*
X36780542Y-43038499D01*
X36659473Y-43116305D01*
X36565222Y-43225078D01*
X36505434Y-43355993D01*
X36484953Y-43498447D01*
X36484953Y-43498452D01*
X36505434Y-43640906D01*
X36565223Y-43771823D01*
X36652849Y-43872950D01*
X36664109Y-43885944D01*
X36662071Y-43887709D01*
X36687525Y-43929908D01*
X36690100Y-43952343D01*
X36690100Y-43971263D01*
X36671193Y-44029454D01*
X36632940Y-44060987D01*
X36591686Y-44080224D01*
X36506774Y-44165136D01*
X36456029Y-44273960D01*
X36456028Y-44273961D01*
X36449500Y-44323550D01*
X36449500Y-44683345D01*
X36449501Y-44683357D01*
X36456027Y-44732936D01*
X36456027Y-44732938D01*
X36506774Y-44841763D01*
X36506775Y-44841764D01*
X36506776Y-44841766D01*
X36508201Y-44843191D01*
X36509342Y-44845431D01*
X36511744Y-44848861D01*
X36511261Y-44849198D01*
X36535977Y-44897706D01*
X36526406Y-44958138D01*
X36496986Y-44992847D01*
X36475362Y-45008806D01*
X36475358Y-45008810D01*
X36396594Y-45115529D01*
X36352787Y-45240722D01*
X36350000Y-45270449D01*
X35019999Y-45270449D01*
X35019999Y-44744246D01*
X35017149Y-44713849D01*
X35017149Y-44713847D01*
X34972345Y-44585802D01*
X34891792Y-44476659D01*
X34891790Y-44476657D01*
X34782647Y-44396104D01*
X34654601Y-44351300D01*
X34624211Y-44348450D01*
X34570001Y-44348450D01*
X34570000Y-44348451D01*
X34270000Y-44348451D01*
X34270000Y-44348449D01*
X34215796Y-44348450D01*
X34185399Y-44351300D01*
X34185397Y-44351300D01*
X34057352Y-44396104D01*
X33948209Y-44476657D01*
X33948207Y-44476659D01*
X33867653Y-44585804D01*
X33828091Y-44698867D01*
X33791026Y-44747547D01*
X33732425Y-44765144D01*
X33674674Y-44744936D01*
X33645515Y-44703198D01*
X33643950Y-44703964D01*
X33619303Y-44653549D01*
X33589198Y-44591967D01*
X33506483Y-44509252D01*
X33498612Y-44505404D01*
X33401395Y-44457877D01*
X33374139Y-44453906D01*
X33333260Y-44447950D01*
X32966740Y-44447950D01*
X32932673Y-44452913D01*
X32898604Y-44457877D01*
X32793518Y-44509251D01*
X32710801Y-44591968D01*
X32659427Y-44697054D01*
X32649500Y-44765193D01*
X32649500Y-46108026D01*
X32630593Y-46166217D01*
X32620503Y-46178030D01*
X32565313Y-46233219D01*
X32564997Y-46233480D01*
X32542702Y-46255801D01*
X32488202Y-46283610D01*
X32427764Y-46274074D01*
X32384474Y-46230834D01*
X32374693Y-46171563D01*
X32377448Y-46152660D01*
X32380500Y-46131710D01*
X32380500Y-44765190D01*
X32370573Y-44697057D01*
X32319198Y-44591967D01*
X32236483Y-44509252D01*
X32228612Y-44505404D01*
X32131395Y-44457877D01*
X32104139Y-44453906D01*
X32063260Y-44447950D01*
X31696740Y-44447950D01*
X31662673Y-44452913D01*
X31628604Y-44457877D01*
X31523518Y-44509251D01*
X31440801Y-44591968D01*
X31389427Y-44697054D01*
X31379500Y-44765193D01*
X31379500Y-46079013D01*
X31360593Y-46137204D01*
X31350497Y-46149023D01*
X31277596Y-46221898D01*
X31223076Y-46249666D01*
X31162646Y-46240084D01*
X31119389Y-46196812D01*
X31109641Y-46137607D01*
X31110499Y-46131715D01*
X31110500Y-46131708D01*
X31110500Y-44765193D01*
X31107448Y-44744246D01*
X31100573Y-44697057D01*
X31049198Y-44591967D01*
X30966483Y-44509252D01*
X30958612Y-44505404D01*
X30861395Y-44457877D01*
X30834139Y-44453906D01*
X30793260Y-44447950D01*
X30426740Y-44447950D01*
X30392673Y-44452913D01*
X30358604Y-44457877D01*
X30253518Y-44509251D01*
X30170801Y-44591968D01*
X30119427Y-44697054D01*
X30109500Y-44765193D01*
X30109500Y-45098950D01*
X30090593Y-45157141D01*
X30041093Y-45193105D01*
X30010500Y-45197950D01*
X26654647Y-45197950D01*
X26596456Y-45179043D01*
X26560492Y-45129543D01*
X26560492Y-45068357D01*
X26584646Y-45028944D01*
X26715894Y-44897706D01*
X32059465Y-39554551D01*
X32059480Y-39554540D01*
X32065109Y-39548910D01*
X32065111Y-39548910D01*
X32101279Y-39512742D01*
X32117199Y-39496822D01*
X32119978Y-39494336D01*
X32120976Y-39493260D01*
X32122687Y-39490490D01*
X32123196Y-39489717D01*
X32124591Y-39486844D01*
X32141504Y-39457551D01*
X32157661Y-39429567D01*
X32159586Y-39426651D01*
X32160847Y-39424277D01*
X32160989Y-39423824D01*
X32161851Y-39419847D01*
X32169311Y-39392008D01*
X32180343Y-39350841D01*
X32181054Y-39348475D01*
X32181100Y-39348162D01*
X32181100Y-39318352D01*
X32181101Y-39284102D01*
X32181101Y-39276515D01*
X32200010Y-39218327D01*
X32230209Y-39192966D01*
X32229812Y-39192410D01*
X32236477Y-39187650D01*
X32236483Y-39187648D01*
X32319198Y-39104933D01*
X32370573Y-38999843D01*
X32380500Y-38931710D01*
X32380500Y-37653129D01*
X32399407Y-37594938D01*
X32448907Y-37558974D01*
X32510093Y-37558974D01*
X32549504Y-37583125D01*
X32620504Y-37654125D01*
X32648281Y-37708642D01*
X32649500Y-37724129D01*
X32649500Y-38931710D01*
X32656118Y-38977132D01*
X32659427Y-38999845D01*
X32710801Y-39104931D01*
X32710802Y-39104933D01*
X32793517Y-39187648D01*
X32844263Y-39212456D01*
X32898604Y-39239022D01*
X32898605Y-39239022D01*
X32898607Y-39239023D01*
X32966740Y-39248950D01*
X32966743Y-39248950D01*
X33333257Y-39248950D01*
X33333260Y-39248950D01*
X33401393Y-39239023D01*
X33506483Y-39187648D01*
X33589198Y-39104933D01*
X33640573Y-38999843D01*
X33650500Y-38931710D01*
X33650500Y-37565190D01*
X33919500Y-37565190D01*
X33919500Y-38931710D01*
X33926118Y-38977132D01*
X33929427Y-38999845D01*
X33980801Y-39104931D01*
X33980802Y-39104933D01*
X34063517Y-39187648D01*
X34114263Y-39212456D01*
X34168604Y-39239022D01*
X34168605Y-39239022D01*
X34168607Y-39239023D01*
X34236740Y-39248950D01*
X34236743Y-39248950D01*
X34603257Y-39248950D01*
X34603260Y-39248950D01*
X34671393Y-39239023D01*
X34776483Y-39187648D01*
X34859198Y-39104933D01*
X34910573Y-38999843D01*
X34920500Y-38931710D01*
X34920500Y-38622950D01*
X34939407Y-38564759D01*
X34988907Y-38528795D01*
X35019500Y-38523950D01*
X36590500Y-38523950D01*
X36648691Y-38542857D01*
X36684655Y-38592357D01*
X36686775Y-38605744D01*
X36687596Y-38605581D01*
X36688196Y-38608596D01*
X36690100Y-38627919D01*
X36690100Y-38713014D01*
X36711726Y-38793721D01*
X36715100Y-38819345D01*
X36715100Y-39090055D01*
X36711726Y-39115679D01*
X36688420Y-39202656D01*
X36686954Y-39202263D01*
X36663886Y-39250619D01*
X36647015Y-39262766D01*
X36647891Y-39264017D01*
X36640799Y-39268982D01*
X36557133Y-39352648D01*
X36507132Y-39459874D01*
X36507132Y-39459875D01*
X36503583Y-39486835D01*
X36502596Y-39494336D01*
X36500700Y-39508735D01*
X36500700Y-39627042D01*
X36481793Y-39685233D01*
X36471669Y-39697080D01*
X36469637Y-39699110D01*
X36469554Y-39699180D01*
X36459681Y-39709054D01*
X36405164Y-39736831D01*
X36389677Y-39738050D01*
X36247635Y-39738050D01*
X36109549Y-39778596D01*
X36109542Y-39778599D01*
X35988473Y-39856405D01*
X35894222Y-39965178D01*
X35834434Y-40096093D01*
X35813953Y-40238547D01*
X35813953Y-40238552D01*
X35834434Y-40381006D01*
X35876492Y-40473099D01*
X35894223Y-40511923D01*
X35988472Y-40620693D01*
X35988473Y-40620694D01*
X36087761Y-40684502D01*
X36109547Y-40698503D01*
X36211978Y-40728579D01*
X36247635Y-40739049D01*
X36247636Y-40739049D01*
X36247639Y-40739050D01*
X36247641Y-40739050D01*
X36391559Y-40739050D01*
X36391561Y-40739050D01*
X36529653Y-40698503D01*
X36650728Y-40620693D01*
X36744977Y-40511923D01*
X36804765Y-40381007D01*
X36810882Y-40338460D01*
X36837877Y-40283554D01*
X36891991Y-40255000D01*
X36908874Y-40253550D01*
X37145514Y-40253550D01*
X37145516Y-40253550D01*
X37194373Y-40247118D01*
X37301604Y-40197115D01*
X37385265Y-40113454D01*
X37391475Y-40100135D01*
X37433203Y-40055387D01*
X37493264Y-40043712D01*
X37548717Y-40069569D01*
X37570924Y-40100134D01*
X37577135Y-40113454D01*
X37660796Y-40197115D01*
X37660797Y-40197115D01*
X37660798Y-40197116D01*
X37768024Y-40247117D01*
X37768025Y-40247117D01*
X37768027Y-40247118D01*
X37816884Y-40253550D01*
X37816885Y-40253550D01*
X38165514Y-40253550D01*
X38165516Y-40253550D01*
X38214373Y-40247118D01*
X38321604Y-40197115D01*
X38405265Y-40113454D01*
X38405265Y-40113452D01*
X38407706Y-40109968D01*
X38422004Y-40098046D01*
X42162017Y-40098046D01*
X42162017Y-40098053D01*
X42182298Y-40303979D01*
X42182299Y-40303984D01*
X42242368Y-40502004D01*
X42339916Y-40684502D01*
X42442509Y-40809512D01*
X42471190Y-40844460D01*
X42471195Y-40844464D01*
X42631147Y-40975733D01*
X42631148Y-40975733D01*
X42631150Y-40975735D01*
X42813646Y-41073282D01*
X42951597Y-41115128D01*
X43011665Y-41133350D01*
X43011670Y-41133351D01*
X43217597Y-41153633D01*
X43217600Y-41153633D01*
X43217603Y-41153633D01*
X43423529Y-41133351D01*
X43423534Y-41133350D01*
X43621554Y-41073282D01*
X43804050Y-40975735D01*
X43964010Y-40844460D01*
X44095285Y-40684500D01*
X44192832Y-40502004D01*
X44252900Y-40303984D01*
X44252901Y-40303979D01*
X44273183Y-40098053D01*
X44273183Y-40098046D01*
X44252901Y-39892120D01*
X44252900Y-39892115D01*
X44218464Y-39778596D01*
X44192832Y-39694096D01*
X44095285Y-39511600D01*
X44079988Y-39492961D01*
X43964837Y-39352648D01*
X43964010Y-39351640D01*
X43963056Y-39350857D01*
X43804052Y-39220366D01*
X43621554Y-39122818D01*
X43423534Y-39062749D01*
X43423529Y-39062748D01*
X43217603Y-39042467D01*
X43217597Y-39042467D01*
X43011670Y-39062748D01*
X43011665Y-39062749D01*
X42813645Y-39122818D01*
X42631147Y-39220366D01*
X42471195Y-39351635D01*
X42471185Y-39351645D01*
X42339916Y-39511597D01*
X42242368Y-39694095D01*
X42182299Y-39892115D01*
X42182298Y-39892120D01*
X42162017Y-40098046D01*
X38422004Y-40098046D01*
X38447529Y-40076762D01*
X38487552Y-40058403D01*
X42043178Y-38427381D01*
X42103949Y-38420305D01*
X42157277Y-38450302D01*
X42175915Y-38479479D01*
X42178731Y-38486279D01*
X42203903Y-38523950D01*
X42223048Y-38552602D01*
X42289369Y-38596917D01*
X42332926Y-38605581D01*
X42347841Y-38608548D01*
X42347846Y-38608548D01*
X42347852Y-38608550D01*
X42347853Y-38608550D01*
X44087347Y-38608550D01*
X44087348Y-38608550D01*
X44145831Y-38596917D01*
X44212152Y-38552602D01*
X44256467Y-38486281D01*
X44268100Y-38427798D01*
X44268100Y-36688302D01*
X44256467Y-36629819D01*
X44212152Y-36563498D01*
X44212148Y-36563495D01*
X44145833Y-36519184D01*
X44145831Y-36519183D01*
X44145828Y-36519182D01*
X44145827Y-36519182D01*
X44087358Y-36507551D01*
X44087348Y-36507550D01*
X42347852Y-36507550D01*
X42347851Y-36507550D01*
X42347841Y-36507551D01*
X42289372Y-36519182D01*
X42289366Y-36519184D01*
X42223051Y-36563495D01*
X42223045Y-36563501D01*
X42178734Y-36629816D01*
X42178732Y-36629822D01*
X42167101Y-36688291D01*
X42167100Y-36688303D01*
X42167100Y-37645817D01*
X42148193Y-37704008D01*
X42109377Y-37735801D01*
X38523904Y-39380513D01*
X38463129Y-39387590D01*
X38411571Y-39358588D01*
X38411389Y-39358771D01*
X38410736Y-39358118D01*
X38409802Y-39357593D01*
X38408117Y-39355499D01*
X38405265Y-39352647D01*
X38405265Y-39352646D01*
X38321604Y-39268985D01*
X38321602Y-39268984D01*
X38321601Y-39268983D01*
X38214375Y-39218982D01*
X38181801Y-39214694D01*
X38165516Y-39212550D01*
X37816884Y-39212550D01*
X37800598Y-39214694D01*
X37768025Y-39218982D01*
X37768024Y-39218982D01*
X37660798Y-39268983D01*
X37577133Y-39352648D01*
X37570924Y-39365965D01*
X37529195Y-39410713D01*
X37469134Y-39422387D01*
X37413682Y-39396528D01*
X37391476Y-39365965D01*
X37385266Y-39352648D01*
X37385265Y-39352647D01*
X37385265Y-39352646D01*
X37320094Y-39287475D01*
X37292319Y-39232961D01*
X37291100Y-39217474D01*
X37291100Y-39196387D01*
X37291099Y-39196385D01*
X37269474Y-39115679D01*
X37266100Y-39090055D01*
X37266100Y-38819345D01*
X37269474Y-38793721D01*
X37291099Y-38713014D01*
X37291100Y-38713012D01*
X37291100Y-38458987D01*
X37291099Y-38458985D01*
X37288772Y-38450302D01*
X37275170Y-38399537D01*
X37270622Y-38382564D01*
X37270620Y-38382559D01*
X37253763Y-38353361D01*
X37240500Y-38303862D01*
X37240500Y-38243650D01*
X37231942Y-38222989D01*
X37198557Y-38142392D01*
X37121058Y-38064893D01*
X37121056Y-38064892D01*
X37115184Y-38059020D01*
X37112962Y-38057196D01*
X37070661Y-38014896D01*
X37070658Y-38014893D01*
X36969400Y-37972950D01*
X36969399Y-37972950D01*
X35019500Y-37972950D01*
X34961309Y-37954043D01*
X34925345Y-37904543D01*
X34920500Y-37873950D01*
X34920500Y-37565193D01*
X34919594Y-37558974D01*
X34910573Y-37497057D01*
X34909354Y-37494564D01*
X34881754Y-37438106D01*
X34859198Y-37391967D01*
X34776483Y-37309252D01*
X34762068Y-37302205D01*
X34671395Y-37257877D01*
X34644139Y-37253906D01*
X34603260Y-37247950D01*
X34236740Y-37247950D01*
X34202673Y-37252913D01*
X34168604Y-37257877D01*
X34063518Y-37309251D01*
X33980801Y-37391968D01*
X33929427Y-37497054D01*
X33926156Y-37519509D01*
X33919500Y-37565190D01*
X33650500Y-37565190D01*
X33640573Y-37497057D01*
X33639354Y-37494564D01*
X33611754Y-37438106D01*
X33589198Y-37391967D01*
X33506483Y-37309252D01*
X33492068Y-37302205D01*
X33401395Y-37257877D01*
X33374139Y-37253906D01*
X33333260Y-37247950D01*
X33333257Y-37247950D01*
X33105279Y-37247950D01*
X33047088Y-37229043D01*
X33035276Y-37218954D01*
X32615297Y-36798976D01*
X32587519Y-36744459D01*
X32597090Y-36684027D01*
X32640355Y-36640762D01*
X32671298Y-36630967D01*
X32674710Y-36630479D01*
X32674712Y-36630480D01*
X32700657Y-36626773D01*
X32715684Y-36625785D01*
X32741898Y-36626062D01*
X32750798Y-36622483D01*
X32773722Y-36616336D01*
X32783211Y-36614981D01*
X32805759Y-36601629D01*
X32819271Y-36594961D01*
X32843591Y-36585187D01*
X32850446Y-36578473D01*
X32869260Y-36564030D01*
X32877520Y-36559140D01*
X32893249Y-36538167D01*
X32903172Y-36526846D01*
X32921902Y-36508508D01*
X32925664Y-36499689D01*
X32937526Y-36479130D01*
X33494436Y-35736584D01*
X33503620Y-35725994D01*
X33523557Y-35706058D01*
X33526460Y-35699048D01*
X33538721Y-35677538D01*
X33543280Y-35671460D01*
X33550276Y-35644146D01*
X33554710Y-35630843D01*
X33565499Y-35604800D01*
X33565499Y-35597212D01*
X33568597Y-35572641D01*
X33570480Y-35565290D01*
X33568220Y-35549471D01*
X33566494Y-35537384D01*
X33565499Y-35523384D01*
X33565499Y-35495201D01*
X33565499Y-35495200D01*
X33562593Y-35488185D01*
X33556053Y-35464298D01*
X33554981Y-35456789D01*
X33540619Y-35432534D01*
X33534341Y-35419978D01*
X33531453Y-35413005D01*
X33523557Y-35393941D01*
X33518187Y-35388571D01*
X33503003Y-35369005D01*
X33499140Y-35362480D01*
X33499138Y-35362478D01*
X33476590Y-35345567D01*
X33465988Y-35336372D01*
X33274771Y-35145155D01*
X33082667Y-34953052D01*
X33054890Y-34898536D01*
X33061206Y-34845164D01*
X33065500Y-34834800D01*
X33065500Y-33545150D01*
X33084407Y-33486959D01*
X33133907Y-33450995D01*
X33164601Y-33446151D01*
X50289372Y-33465288D01*
G37*
%TD.AperFunction*%
%TA.AperFunction,Conductor*%
G36*
X14511260Y-48842242D02*
G01*
X14574011Y-48878471D01*
X14650435Y-48898949D01*
X14650437Y-48898950D01*
X16353500Y-48898950D01*
X16411691Y-48917857D01*
X16447655Y-48967357D01*
X16452500Y-48997950D01*
X16452500Y-48998950D01*
X16433593Y-49057141D01*
X16384093Y-49093105D01*
X16353500Y-49097950D01*
X14829562Y-49097950D01*
X14750438Y-49097950D01*
X14731018Y-49103152D01*
X14677509Y-49102515D01*
X14661963Y-49097950D01*
X14661961Y-49097950D01*
X14518039Y-49097950D01*
X14518037Y-49097950D01*
X14491888Y-49105628D01*
X14430728Y-49103879D01*
X14382276Y-49066515D01*
X14364999Y-49010637D01*
X14364999Y-48956450D01*
X14363196Y-48937222D01*
X14376589Y-48877521D01*
X14422515Y-48837093D01*
X14483433Y-48831381D01*
X14511260Y-48842242D01*
G37*
%TD.AperFunction*%
%TA.AperFunction,Conductor*%
G36*
X11091614Y-33421484D02*
G01*
X11149780Y-33440455D01*
X11185689Y-33489996D01*
X11190500Y-33520483D01*
X11190500Y-35945564D01*
X11210977Y-36021985D01*
X11210979Y-36021990D01*
X11237696Y-36068266D01*
X11250539Y-36090510D01*
X11644539Y-36484511D01*
X11679211Y-36519182D01*
X11700489Y-36540460D01*
X11741302Y-36564023D01*
X11768489Y-36579720D01*
X11809429Y-36625190D01*
X11815824Y-36686040D01*
X11807198Y-36710400D01*
X11799836Y-36724847D01*
X11799835Y-36724852D01*
X11787933Y-36800000D01*
X12461000Y-36800000D01*
X12519191Y-36818907D01*
X12555155Y-36868407D01*
X12560000Y-36899000D01*
X12560000Y-37449998D01*
X12560001Y-37449999D01*
X12666483Y-37449999D01*
X12666485Y-37449998D01*
X12760141Y-37435166D01*
X12760151Y-37435163D01*
X12873047Y-37377639D01*
X12887080Y-37363606D01*
X12941595Y-37335827D01*
X13002028Y-37345397D01*
X13027086Y-37363601D01*
X13072497Y-37409013D01*
X13100274Y-37463529D01*
X13100486Y-37493104D01*
X13093467Y-37541930D01*
X13092953Y-37545503D01*
X13113434Y-37687956D01*
X13173222Y-37818871D01*
X13173223Y-37818873D01*
X13221754Y-37874881D01*
X13267473Y-37927644D01*
X13352752Y-37982449D01*
X13388547Y-38005453D01*
X13495003Y-38036711D01*
X13526635Y-38045999D01*
X13526636Y-38045999D01*
X13526639Y-38046000D01*
X13526641Y-38046000D01*
X13670559Y-38046000D01*
X13670561Y-38046000D01*
X13808653Y-38005453D01*
X13929728Y-37927643D01*
X14023977Y-37818873D01*
X14083765Y-37687957D01*
X14098695Y-37584118D01*
X14104247Y-37545502D01*
X14104247Y-37545495D01*
X14092471Y-37463587D01*
X14102905Y-37403298D01*
X14146783Y-37360656D01*
X14190463Y-37350499D01*
X14579861Y-37350499D01*
X14579864Y-37350499D01*
X14604991Y-37347585D01*
X14707765Y-37302206D01*
X14709784Y-37300185D01*
X14713411Y-37298337D01*
X14715334Y-37297021D01*
X14715505Y-37297270D01*
X14764298Y-37272406D01*
X14824731Y-37281974D01*
X14867998Y-37325236D01*
X14869844Y-37329059D01*
X14871722Y-37333171D01*
X14871723Y-37333173D01*
X14941720Y-37413954D01*
X14965973Y-37441944D01*
X15047852Y-37494564D01*
X15086583Y-37541930D01*
X15090077Y-37603015D01*
X15064333Y-37647850D01*
X14852442Y-37859743D01*
X14852441Y-37859742D01*
X14774946Y-37937238D01*
X14774944Y-37937240D01*
X14774943Y-37937242D01*
X14740068Y-38021436D01*
X14733000Y-38038500D01*
X14733000Y-46531137D01*
X14714093Y-46589328D01*
X14664593Y-46625292D01*
X14603407Y-46625292D01*
X14563996Y-46601141D01*
X13374093Y-45411238D01*
X13346316Y-45356721D01*
X13345097Y-45341488D01*
X13328240Y-38775711D01*
X13328066Y-38766915D01*
X13327745Y-38758244D01*
X13311806Y-38678396D01*
X13286992Y-38611877D01*
X13286987Y-38611867D01*
X13286985Y-38611861D01*
X13272513Y-38581618D01*
X13267333Y-38570792D01*
X13267332Y-38570791D01*
X13267333Y-38570791D01*
X13200712Y-38496632D01*
X13191750Y-38489924D01*
X13143873Y-38454087D01*
X13143865Y-38454081D01*
X13105123Y-38430152D01*
X13057051Y-38416967D01*
X13008981Y-38403783D01*
X12938174Y-38398722D01*
X12938156Y-38398721D01*
X12893321Y-38399524D01*
X12892629Y-38399537D01*
X12892628Y-38399537D01*
X12892620Y-38399538D01*
X12797495Y-38429329D01*
X12797493Y-38429329D01*
X12735198Y-38463348D01*
X12735168Y-38463367D01*
X12731560Y-38466068D01*
X12725458Y-38468145D01*
X12619115Y-38549745D01*
X12596743Y-38562663D01*
X12589838Y-38565524D01*
X12589810Y-38565534D01*
X12589811Y-38565535D01*
X12549050Y-38582418D01*
X12524089Y-38589106D01*
X12472922Y-38595843D01*
X12447078Y-38595843D01*
X12395909Y-38589107D01*
X12370924Y-38582409D01*
X12369048Y-38581632D01*
X12369019Y-38581618D01*
X12323265Y-38562667D01*
X12300883Y-38549745D01*
X12259943Y-38518331D01*
X12241668Y-38500057D01*
X12239039Y-38496631D01*
X12210250Y-38459112D01*
X12197328Y-38436730D01*
X12194603Y-38430152D01*
X12177578Y-38389045D01*
X12170892Y-38364091D01*
X12164155Y-38312918D01*
X12164155Y-38287076D01*
X12164619Y-38283557D01*
X12170892Y-38235907D01*
X12177577Y-38210954D01*
X12197331Y-38163262D01*
X12210249Y-38140889D01*
X12236163Y-38107120D01*
X12237637Y-38105113D01*
X12242448Y-38098567D01*
X12243885Y-38096521D01*
X12248492Y-38089972D01*
X12284649Y-38014979D01*
X12304651Y-37946858D01*
X12310735Y-37904543D01*
X12315000Y-37874881D01*
X12315000Y-37824453D01*
X12314400Y-37818871D01*
X12309161Y-37770141D01*
X12297775Y-37717799D01*
X12290539Y-37691422D01*
X12241208Y-37604791D01*
X12238431Y-37601587D01*
X12214613Y-37545232D01*
X12228470Y-37485636D01*
X12243246Y-37466752D01*
X12260000Y-37449998D01*
X12260000Y-37100001D01*
X12259999Y-37100000D01*
X11787934Y-37100000D01*
X11799833Y-37175142D01*
X11799834Y-37175145D01*
X11860897Y-37294987D01*
X11859010Y-37295948D01*
X11874606Y-37343954D01*
X11855696Y-37402144D01*
X11806195Y-37438106D01*
X11775606Y-37442950D01*
X11302033Y-37442950D01*
X11243842Y-37424043D01*
X11207878Y-37374543D01*
X11204041Y-37329861D01*
X11221647Y-37207403D01*
X11221647Y-37207397D01*
X11201165Y-37064943D01*
X11185603Y-37030867D01*
X11141377Y-36934027D01*
X11047128Y-36825257D01*
X11047127Y-36825256D01*
X11047126Y-36825255D01*
X10926057Y-36747449D01*
X10926054Y-36747447D01*
X10926053Y-36747447D01*
X10926050Y-36747446D01*
X10787964Y-36706900D01*
X10787961Y-36706900D01*
X10644039Y-36706900D01*
X10644038Y-36706900D01*
X10644030Y-36706901D01*
X10624278Y-36712701D01*
X10563118Y-36710953D01*
X10514666Y-36673589D01*
X10497429Y-36614882D01*
X10507300Y-36580140D01*
X10505238Y-36579286D01*
X10507720Y-36573293D01*
X10507720Y-36573290D01*
X10507722Y-36573288D01*
X10528200Y-36496862D01*
X10528200Y-36417738D01*
X10528200Y-33519964D01*
X10547107Y-33461773D01*
X10596607Y-33425809D01*
X10627302Y-33420965D01*
X11091614Y-33421484D01*
G37*
%TD.AperFunction*%
%TA.AperFunction,Conductor*%
G36*
X17319191Y-36718907D02*
G01*
X17355155Y-36768407D01*
X17360000Y-36799000D01*
X17360000Y-37349998D01*
X17360001Y-37349999D01*
X17421288Y-37349999D01*
X17479479Y-37368906D01*
X17515443Y-37418406D01*
X17520284Y-37449714D01*
X17519559Y-37549998D01*
X17515889Y-38056995D01*
X17496561Y-38115047D01*
X17474435Y-38136838D01*
X16276292Y-38992654D01*
X16258389Y-39001728D01*
X16251838Y-39005429D01*
X16223128Y-39030134D01*
X16216101Y-39035649D01*
X16185276Y-39057667D01*
X16180123Y-39063152D01*
X16167054Y-39078386D01*
X15447574Y-39697502D01*
X15391133Y-39721125D01*
X15331586Y-39707062D01*
X15291677Y-39660684D01*
X15284000Y-39622460D01*
X15284000Y-38248422D01*
X15302907Y-38190231D01*
X15312990Y-38178424D01*
X16441524Y-37049889D01*
X16496037Y-37022115D01*
X16556469Y-37031686D01*
X16599733Y-37074950D01*
X16657358Y-37188043D01*
X16746956Y-37277641D01*
X16859848Y-37335163D01*
X16859852Y-37335164D01*
X16953515Y-37349999D01*
X17060000Y-37349999D01*
X17060000Y-36799000D01*
X17078907Y-36740809D01*
X17128407Y-36704845D01*
X17159000Y-36700000D01*
X17261000Y-36700000D01*
X17319191Y-36718907D01*
G37*
%TD.AperFunction*%
%TA.AperFunction,Conductor*%
G36*
X9285613Y-33419465D02*
G01*
X9343780Y-33438437D01*
X9379689Y-33487978D01*
X9384500Y-33518465D01*
X9384500Y-33828049D01*
X9365593Y-33886240D01*
X9339024Y-33911333D01*
X9328872Y-33917857D01*
X9234622Y-34026628D01*
X9174834Y-34157543D01*
X9154353Y-34299997D01*
X9154353Y-34300002D01*
X9174834Y-34442456D01*
X9226811Y-34556268D01*
X9234623Y-34573373D01*
X9328872Y-34682143D01*
X9336963Y-34687343D01*
X9339022Y-34688666D01*
X9377754Y-34736032D01*
X9384500Y-34771951D01*
X9384500Y-35151000D01*
X9365593Y-35209191D01*
X9316093Y-35245155D01*
X9285500Y-35250000D01*
X9260001Y-35250000D01*
X9260000Y-35250001D01*
X9260000Y-35801000D01*
X9241093Y-35859191D01*
X9191593Y-35895155D01*
X9161000Y-35900000D01*
X8487934Y-35900000D01*
X8499833Y-35975142D01*
X8499834Y-35975145D01*
X8557359Y-36088044D01*
X8573739Y-36104424D01*
X8601516Y-36158941D01*
X8594301Y-36214414D01*
X8587414Y-36230011D01*
X8584500Y-36255130D01*
X8584500Y-36544859D01*
X8584501Y-36544864D01*
X8587414Y-36569990D01*
X8607280Y-36614981D01*
X8631062Y-36668843D01*
X8636500Y-36681157D01*
X8634126Y-36682205D01*
X8647537Y-36727757D01*
X8634477Y-36767949D01*
X8636500Y-36768843D01*
X8632794Y-36777234D01*
X8632794Y-36777235D01*
X8606471Y-36836852D01*
X8587414Y-36880011D01*
X8584500Y-36905130D01*
X8584500Y-37194859D01*
X8584501Y-37194864D01*
X8587414Y-37219990D01*
X8600886Y-37250500D01*
X8623716Y-37302206D01*
X8624492Y-37303962D01*
X8630700Y-37364831D01*
X8599944Y-37417725D01*
X8543972Y-37442439D01*
X8533927Y-37442950D01*
X7896219Y-37442950D01*
X7838028Y-37424043D01*
X7802064Y-37374543D01*
X7802064Y-37313357D01*
X7808009Y-37299005D01*
X7820164Y-37275149D01*
X7820164Y-37275147D01*
X7832067Y-37200000D01*
X6587934Y-37200000D01*
X6599833Y-37275142D01*
X6599835Y-37275148D01*
X6611991Y-37299006D01*
X6621562Y-37359438D01*
X6593784Y-37413954D01*
X6539267Y-37441731D01*
X6523781Y-37442950D01*
X6270672Y-37442950D01*
X6212481Y-37424043D01*
X6176517Y-37374543D01*
X6176517Y-37313357D01*
X6200666Y-37273948D01*
X6238557Y-37236058D01*
X6238556Y-37236058D01*
X6545619Y-36928995D01*
X6600135Y-36901219D01*
X6615622Y-36900000D01*
X7832065Y-36900000D01*
X7832066Y-36899999D01*
X7820166Y-36824857D01*
X7820165Y-36824854D01*
X7762640Y-36711955D01*
X7746260Y-36695575D01*
X7718483Y-36641058D01*
X7725701Y-36585582D01*
X7732585Y-36569991D01*
X7735500Y-36544865D01*
X7735499Y-36255136D01*
X7732585Y-36230009D01*
X7687206Y-36127235D01*
X7687205Y-36127234D01*
X7683500Y-36118843D01*
X7685875Y-36117794D01*
X7672462Y-36072261D01*
X7685526Y-36032051D01*
X7683500Y-36031157D01*
X7687204Y-36022766D01*
X7687206Y-36022765D01*
X7732585Y-35919991D01*
X7735500Y-35894865D01*
X7735499Y-35690476D01*
X7754406Y-35632287D01*
X7764489Y-35620480D01*
X7784969Y-35600000D01*
X8487933Y-35600000D01*
X8959999Y-35600000D01*
X8960000Y-35599999D01*
X8960000Y-35250000D01*
X8853517Y-35250000D01*
X8853514Y-35250001D01*
X8759858Y-35264833D01*
X8759848Y-35264836D01*
X8646956Y-35322358D01*
X8557358Y-35411956D01*
X8499836Y-35524848D01*
X8499835Y-35524852D01*
X8487933Y-35600000D01*
X7784969Y-35600000D01*
X7941760Y-35443211D01*
X7946200Y-35435521D01*
X7954129Y-35421788D01*
X7970206Y-35393941D01*
X7981321Y-35374689D01*
X8001800Y-35298262D01*
X8001800Y-34775538D01*
X8001800Y-33517141D01*
X8020707Y-33458950D01*
X8070207Y-33422986D01*
X8100904Y-33418142D01*
X9285613Y-33419465D01*
G37*
%TD.AperFunction*%
%TA.AperFunction,Conductor*%
G36*
X14106468Y-33424853D02*
G01*
X14164633Y-33443824D01*
X14181737Y-33461957D01*
X14182587Y-33461222D01*
X14187222Y-33466571D01*
X14187223Y-33466573D01*
X14243402Y-33531407D01*
X14281473Y-33575344D01*
X14391720Y-33646195D01*
X14402547Y-33653153D01*
X14513391Y-33685699D01*
X14563898Y-33720234D01*
X14584460Y-33777861D01*
X14584500Y-33780689D01*
X14584500Y-35051000D01*
X14565593Y-35109191D01*
X14516093Y-35145155D01*
X14485500Y-35150000D01*
X14460001Y-35150000D01*
X14460000Y-35150001D01*
X14460000Y-35701000D01*
X14441093Y-35759191D01*
X14391593Y-35795155D01*
X14361000Y-35800000D01*
X13687934Y-35800000D01*
X13699833Y-35875142D01*
X13699834Y-35875145D01*
X13757359Y-35988044D01*
X13773739Y-36004424D01*
X13801516Y-36058941D01*
X13794301Y-36114413D01*
X13792740Y-36117949D01*
X13787414Y-36130011D01*
X13784500Y-36155130D01*
X13784500Y-36444859D01*
X13784501Y-36444864D01*
X13787414Y-36469990D01*
X13811437Y-36524397D01*
X13831624Y-36570116D01*
X13836500Y-36581157D01*
X13834126Y-36582205D01*
X13847537Y-36627757D01*
X13834477Y-36667949D01*
X13836500Y-36668843D01*
X13832794Y-36677234D01*
X13832794Y-36677235D01*
X13801792Y-36747449D01*
X13787414Y-36780011D01*
X13784500Y-36805130D01*
X13784500Y-36947129D01*
X13765593Y-37005320D01*
X13716093Y-37041284D01*
X13677642Y-37044588D01*
X13677642Y-37045000D01*
X13672852Y-37045000D01*
X13671421Y-37045123D01*
X13670565Y-37045000D01*
X13670561Y-37045000D01*
X13528724Y-37045000D01*
X13470533Y-37026093D01*
X13458720Y-37016004D01*
X13266196Y-36823480D01*
X13238419Y-36768963D01*
X13237200Y-36753476D01*
X13237200Y-36245200D01*
X13230908Y-36230011D01*
X13195257Y-36143942D01*
X13117758Y-36066443D01*
X13016500Y-36024500D01*
X13016499Y-36024500D01*
X12994219Y-36024500D01*
X12936028Y-36005593D01*
X12900064Y-35956093D01*
X12900064Y-35894907D01*
X12903649Y-35885524D01*
X12932585Y-35819991D01*
X12935500Y-35794865D01*
X12935499Y-35590477D01*
X12954406Y-35532288D01*
X12964487Y-35520483D01*
X12984971Y-35500000D01*
X13687933Y-35500000D01*
X14159999Y-35500000D01*
X14160000Y-35499999D01*
X14160000Y-35150000D01*
X14053517Y-35150000D01*
X14053514Y-35150001D01*
X13959858Y-35164833D01*
X13959848Y-35164836D01*
X13846956Y-35222358D01*
X13757358Y-35311956D01*
X13699836Y-35424848D01*
X13699835Y-35424852D01*
X13687933Y-35500000D01*
X12984971Y-35500000D01*
X12994660Y-35490311D01*
X13005060Y-35472298D01*
X13034221Y-35421789D01*
X13054700Y-35345362D01*
X13054700Y-34204120D01*
X13073607Y-34145929D01*
X13100179Y-34120835D01*
X13118523Y-34109046D01*
X13118522Y-34109046D01*
X13118528Y-34109043D01*
X13212777Y-34000273D01*
X13272565Y-33869357D01*
X13284692Y-33785013D01*
X13293047Y-33726902D01*
X13293047Y-33726897D01*
X13272566Y-33584445D01*
X13270808Y-33580597D01*
X13263291Y-33564137D01*
X13256317Y-33503352D01*
X13286403Y-33450075D01*
X13342058Y-33424656D01*
X13353440Y-33424011D01*
X14106468Y-33424853D01*
G37*
%TD.AperFunction*%
%TA.AperFunction,Conductor*%
G36*
X19934113Y-33431365D02*
G01*
X19992280Y-33450337D01*
X20028189Y-33499878D01*
X20033000Y-33530365D01*
X20033000Y-35836021D01*
X20014093Y-35894212D01*
X20004004Y-35906024D01*
X19803057Y-36106970D01*
X19748542Y-36134747D01*
X19688110Y-36125176D01*
X19644845Y-36081911D01*
X19634714Y-36048369D01*
X19634664Y-36047940D01*
X19632585Y-36030009D01*
X19630153Y-36024500D01*
X19625701Y-36014417D01*
X19619492Y-35953547D01*
X19646263Y-35904423D01*
X19662639Y-35888047D01*
X19720164Y-35775149D01*
X19720164Y-35775147D01*
X19732067Y-35700000D01*
X19059000Y-35700000D01*
X19000809Y-35681093D01*
X18964845Y-35631593D01*
X18960000Y-35601000D01*
X18960000Y-35050001D01*
X19260000Y-35050001D01*
X19260000Y-35399999D01*
X19260001Y-35400000D01*
X19732065Y-35400000D01*
X19732066Y-35399999D01*
X19720166Y-35324857D01*
X19720165Y-35324854D01*
X19662640Y-35211955D01*
X19573043Y-35122358D01*
X19460151Y-35064836D01*
X19460147Y-35064835D01*
X19366484Y-35050000D01*
X19260001Y-35050000D01*
X19260000Y-35050001D01*
X18960000Y-35050001D01*
X18960000Y-35050000D01*
X18934500Y-35050000D01*
X18876309Y-35031093D01*
X18840345Y-34981593D01*
X18835500Y-34951000D01*
X18835500Y-33529248D01*
X18854407Y-33471057D01*
X18903907Y-33435093D01*
X18934604Y-33430248D01*
X19934113Y-33431365D01*
G37*
%TD.AperFunction*%
%TA.AperFunction,Conductor*%
G36*
X26372614Y-33438561D02*
G01*
X26430780Y-33457532D01*
X26466689Y-33507073D01*
X26471500Y-33537560D01*
X26471500Y-34910971D01*
X26452593Y-34969162D01*
X26403093Y-35005126D01*
X26341907Y-35005126D01*
X26327555Y-34999181D01*
X26260148Y-34964835D01*
X26166484Y-34950000D01*
X26060001Y-34950000D01*
X26060000Y-34950001D01*
X26060000Y-35501000D01*
X26041093Y-35559191D01*
X25991593Y-35595155D01*
X25961000Y-35600000D01*
X25287934Y-35600000D01*
X25299833Y-35675142D01*
X25299835Y-35675148D01*
X25314689Y-35704301D01*
X25324260Y-35764733D01*
X25296482Y-35819249D01*
X25264366Y-35840709D01*
X25231580Y-35854290D01*
X25202242Y-35866442D01*
X25202241Y-35866442D01*
X25196396Y-35868864D01*
X25158509Y-35876400D01*
X25009435Y-35876400D01*
X24871349Y-35916946D01*
X24871342Y-35916949D01*
X24750272Y-35994756D01*
X24750270Y-35994758D01*
X24709318Y-36042020D01*
X24656922Y-36073616D01*
X24595962Y-36068380D01*
X24549721Y-36028313D01*
X24535499Y-35977189D01*
X24535499Y-35955140D01*
X24535499Y-35955136D01*
X24532585Y-35930009D01*
X24487206Y-35827235D01*
X24487205Y-35827234D01*
X24483500Y-35818843D01*
X24485875Y-35817794D01*
X24472462Y-35772261D01*
X24485526Y-35732051D01*
X24483500Y-35731157D01*
X24487204Y-35722766D01*
X24487206Y-35722765D01*
X24532585Y-35619991D01*
X24535500Y-35594865D01*
X24535499Y-35305136D01*
X24534903Y-35300000D01*
X25287933Y-35300000D01*
X25759999Y-35300000D01*
X25760000Y-35299999D01*
X25760000Y-34950000D01*
X25653517Y-34950000D01*
X25653514Y-34950001D01*
X25559858Y-34964833D01*
X25559848Y-34964836D01*
X25446956Y-35022358D01*
X25357358Y-35111956D01*
X25299836Y-35224848D01*
X25299835Y-35224852D01*
X25287933Y-35300000D01*
X24534903Y-35300000D01*
X24532585Y-35280009D01*
X24487206Y-35177235D01*
X24407765Y-35097794D01*
X24304991Y-35052415D01*
X24304990Y-35052414D01*
X24304988Y-35052414D01*
X24279869Y-35049500D01*
X24279865Y-35049500D01*
X24075479Y-35049500D01*
X24017288Y-35030593D01*
X24005475Y-35020504D01*
X23215496Y-34230525D01*
X23187719Y-34176008D01*
X23186500Y-34160521D01*
X23186500Y-34092351D01*
X23205407Y-34034160D01*
X23231978Y-34009066D01*
X23234439Y-34007484D01*
X23242128Y-34002543D01*
X23336377Y-33893773D01*
X23396165Y-33762857D01*
X23411938Y-33653153D01*
X23416647Y-33620402D01*
X23416647Y-33620397D01*
X23406302Y-33548444D01*
X23416735Y-33488155D01*
X23460613Y-33445512D01*
X23504401Y-33435355D01*
X26372614Y-33438561D01*
G37*
%TD.AperFunction*%
%TD*%
%TA.AperFunction,Conductor*%
%TO.N,GND*%
G36*
X68113411Y-2499685D02*
G01*
X68159166Y-2552489D01*
X68170371Y-2603628D01*
X68239630Y-25676860D01*
X68220147Y-25743958D01*
X68167481Y-25789871D01*
X68116866Y-25801226D01*
X50984321Y-25971868D01*
X50917089Y-25952852D01*
X50870810Y-25900506D01*
X50860178Y-25831450D01*
X50888569Y-25767609D01*
X50895387Y-25760211D01*
X52536090Y-24119586D01*
X53207801Y-24119586D01*
X53218294Y-24222297D01*
X53273441Y-24388719D01*
X53273443Y-24388724D01*
X53365484Y-24537945D01*
X53489454Y-24661915D01*
X53638675Y-24753956D01*
X53638680Y-24753958D01*
X53805102Y-24809105D01*
X53805109Y-24809106D01*
X53907819Y-24819599D01*
X54182799Y-24819599D01*
X54682800Y-24819599D01*
X54957772Y-24819599D01*
X54957786Y-24819598D01*
X55060497Y-24809105D01*
X55226919Y-24753958D01*
X55226924Y-24753956D01*
X55376145Y-24661915D01*
X55500115Y-24537945D01*
X55592156Y-24388724D01*
X55592158Y-24388719D01*
X55638840Y-24247844D01*
X62060000Y-24247844D01*
X62066401Y-24307372D01*
X62066403Y-24307379D01*
X62116645Y-24442086D01*
X62116649Y-24442093D01*
X62202809Y-24557187D01*
X62202812Y-24557190D01*
X62317906Y-24643350D01*
X62317913Y-24643354D01*
X62452620Y-24693596D01*
X62452627Y-24693598D01*
X62512155Y-24699999D01*
X62512172Y-24700000D01*
X64210000Y-24700000D01*
X64710000Y-24700000D01*
X66407828Y-24700000D01*
X66407844Y-24699999D01*
X66467372Y-24693598D01*
X66467379Y-24693596D01*
X66602086Y-24643354D01*
X66602093Y-24643350D01*
X66717187Y-24557190D01*
X66717190Y-24557187D01*
X66803350Y-24442093D01*
X66803354Y-24442086D01*
X66853596Y-24307379D01*
X66853598Y-24307372D01*
X66859999Y-24247844D01*
X66860000Y-24247827D01*
X66860000Y-23450000D01*
X64710000Y-23450000D01*
X64710000Y-24700000D01*
X64210000Y-24700000D01*
X64210000Y-23450000D01*
X62060000Y-23450000D01*
X62060000Y-24247844D01*
X55638840Y-24247844D01*
X55647305Y-24222297D01*
X55647306Y-24222290D01*
X55657799Y-24119586D01*
X55657800Y-24119573D01*
X55657800Y-24069600D01*
X54682800Y-24069600D01*
X54682800Y-24819599D01*
X54182799Y-24819599D01*
X54182800Y-24819598D01*
X54182800Y-24069600D01*
X53207801Y-24069600D01*
X53207801Y-24119586D01*
X52536090Y-24119586D01*
X53059274Y-23596427D01*
X53120595Y-23562945D01*
X53190286Y-23567931D01*
X53192883Y-23569600D01*
X55657799Y-23569600D01*
X55657799Y-23519628D01*
X55657798Y-23519613D01*
X55647305Y-23416902D01*
X55592158Y-23250480D01*
X55592156Y-23250475D01*
X55500115Y-23101254D01*
X55376145Y-22977284D01*
X55226924Y-22885243D01*
X55226919Y-22885241D01*
X55058717Y-22829505D01*
X55001272Y-22789733D01*
X54974449Y-22725217D01*
X54986764Y-22656441D01*
X55034307Y-22605241D01*
X55056766Y-22594758D01*
X55120682Y-22572393D01*
X55229950Y-22491750D01*
X55310593Y-22382482D01*
X55333019Y-22318390D01*
X55355446Y-22254301D01*
X55355446Y-22254299D01*
X55358300Y-22223869D01*
X55358300Y-22152155D01*
X62060000Y-22152155D01*
X62060000Y-22950000D01*
X64210000Y-22950000D01*
X64710000Y-22950000D01*
X66860000Y-22950000D01*
X66860000Y-22152172D01*
X66859999Y-22152155D01*
X66853598Y-22092627D01*
X66853596Y-22092620D01*
X66803354Y-21957913D01*
X66803350Y-21957906D01*
X66717190Y-21842812D01*
X66717187Y-21842809D01*
X66602093Y-21756649D01*
X66602086Y-21756645D01*
X66467379Y-21706403D01*
X66467372Y-21706401D01*
X66407844Y-21700000D01*
X64710000Y-21700000D01*
X64710000Y-22950000D01*
X64210000Y-22950000D01*
X64210000Y-21700000D01*
X62512155Y-21700000D01*
X62452627Y-21706401D01*
X62452620Y-21706403D01*
X62317913Y-21756645D01*
X62317906Y-21756649D01*
X62202812Y-21842809D01*
X62202809Y-21842812D01*
X62116649Y-21957906D01*
X62116645Y-21957913D01*
X62066403Y-22092620D01*
X62066401Y-22092627D01*
X62060000Y-22152155D01*
X55358300Y-22152155D01*
X55358300Y-21615330D01*
X55355446Y-21584900D01*
X55355446Y-21584898D01*
X55310593Y-21456719D01*
X55310592Y-21456717D01*
X55229950Y-21347450D01*
X55120682Y-21266807D01*
X55120680Y-21266806D01*
X54993545Y-21222319D01*
X54936769Y-21181597D01*
X54911022Y-21116644D01*
X54910500Y-21105278D01*
X54910500Y-19751096D01*
X59010000Y-19751096D01*
X59012897Y-19793824D01*
X59058831Y-19978523D01*
X59143390Y-20149022D01*
X59143392Y-20149025D01*
X59262632Y-20297366D01*
X59262633Y-20297367D01*
X59410974Y-20416607D01*
X59410977Y-20416609D01*
X59581476Y-20501168D01*
X59766175Y-20547102D01*
X59808903Y-20550000D01*
X60260000Y-20550000D01*
X60760000Y-20550000D01*
X61211097Y-20550000D01*
X61253824Y-20547102D01*
X61438523Y-20501168D01*
X61609022Y-20416609D01*
X61609025Y-20416607D01*
X61757366Y-20297367D01*
X61757367Y-20297366D01*
X61876607Y-20149025D01*
X61876609Y-20149022D01*
X61961168Y-19978523D01*
X62007102Y-19793824D01*
X62010000Y-19751096D01*
X62010000Y-19550000D01*
X60760000Y-19550000D01*
X60760000Y-20550000D01*
X60260000Y-20550000D01*
X60260000Y-19550000D01*
X59010000Y-19550000D01*
X59010000Y-19751096D01*
X54910500Y-19751096D01*
X54910500Y-19162485D01*
X54930185Y-19095446D01*
X54982989Y-19049691D01*
X54997609Y-19044100D01*
X54999606Y-19043478D01*
X55145185Y-18955472D01*
X55265472Y-18835185D01*
X55353478Y-18689606D01*
X55404086Y-18527196D01*
X55410500Y-18456616D01*
X55410500Y-17824500D01*
X55430185Y-17757461D01*
X55482989Y-17711706D01*
X55534500Y-17700500D01*
X59348213Y-17700500D01*
X59415252Y-17720185D01*
X59446588Y-17749013D01*
X59474545Y-17785447D01*
X59474547Y-17785448D01*
X59474549Y-17785451D01*
X59594767Y-17877698D01*
X59594769Y-17877698D01*
X59601215Y-17882645D01*
X59600347Y-17883775D01*
X59642507Y-17927987D01*
X59655732Y-17996594D01*
X59629766Y-18061459D01*
X59587388Y-18095899D01*
X59410974Y-18183392D01*
X59262633Y-18302632D01*
X59262632Y-18302633D01*
X59143392Y-18450974D01*
X59143390Y-18450977D01*
X59058831Y-18621476D01*
X59012897Y-18806175D01*
X59010000Y-18848903D01*
X59010000Y-19050000D01*
X62010000Y-19050000D01*
X62010000Y-18848903D01*
X62007102Y-18806175D01*
X61961168Y-18621476D01*
X61876609Y-18450977D01*
X61876607Y-18450974D01*
X61757367Y-18302633D01*
X61757366Y-18302632D01*
X61614118Y-18187486D01*
X62485001Y-18187486D01*
X62495494Y-18290197D01*
X62550641Y-18456619D01*
X62550643Y-18456624D01*
X62642684Y-18605845D01*
X62766654Y-18729815D01*
X62915875Y-18821856D01*
X62915880Y-18821858D01*
X63082302Y-18877005D01*
X63082309Y-18877006D01*
X63185019Y-18887499D01*
X63459999Y-18887499D01*
X63960000Y-18887499D01*
X64234972Y-18887499D01*
X64234986Y-18887498D01*
X64337697Y-18877005D01*
X64504119Y-18821858D01*
X64504124Y-18821856D01*
X64653345Y-18729815D01*
X64777315Y-18605845D01*
X64869356Y-18456624D01*
X64869358Y-18456619D01*
X64924505Y-18290197D01*
X64924506Y-18290190D01*
X64934999Y-18187486D01*
X64935000Y-18187473D01*
X64935000Y-18137500D01*
X63960000Y-18137500D01*
X63960000Y-18887499D01*
X63459999Y-18887499D01*
X63460000Y-18887498D01*
X63460000Y-18137500D01*
X62485001Y-18137500D01*
X62485001Y-18187486D01*
X61614118Y-18187486D01*
X61609025Y-18183392D01*
X61432611Y-18095899D01*
X61381299Y-18048478D01*
X61363770Y-17980843D01*
X61385589Y-17914468D01*
X61419311Y-17883331D01*
X61418785Y-17882645D01*
X61425230Y-17877698D01*
X61425233Y-17877698D01*
X61545451Y-17785451D01*
X61637698Y-17665233D01*
X61695687Y-17525236D01*
X61710500Y-17412720D01*
X61710500Y-16587280D01*
X61695687Y-16474764D01*
X61637698Y-16334767D01*
X61545451Y-16214549D01*
X61425233Y-16122302D01*
X61425229Y-16122300D01*
X61347638Y-16090161D01*
X61285236Y-16064313D01*
X61271171Y-16062461D01*
X61172727Y-16049500D01*
X61172720Y-16049500D01*
X59847280Y-16049500D01*
X59847272Y-16049500D01*
X59734764Y-16064313D01*
X59734763Y-16064313D01*
X59594770Y-16122300D01*
X59474545Y-16214552D01*
X59446588Y-16250987D01*
X59390160Y-16292189D01*
X59348213Y-16299500D01*
X55534500Y-16299500D01*
X55467461Y-16279815D01*
X55421706Y-16227011D01*
X55410500Y-16175500D01*
X55410500Y-15543386D01*
X55408795Y-15524619D01*
X55404086Y-15472804D01*
X55353478Y-15310394D01*
X55265472Y-15164815D01*
X55265470Y-15164813D01*
X55265469Y-15164811D01*
X55145188Y-15044530D01*
X54999606Y-14956522D01*
X54837196Y-14905914D01*
X54837194Y-14905913D01*
X54837192Y-14905913D01*
X54787778Y-14901423D01*
X54766616Y-14899500D01*
X53653384Y-14899500D01*
X53634145Y-14901248D01*
X53582807Y-14905913D01*
X53420393Y-14956522D01*
X53274811Y-15044530D01*
X53154530Y-15164811D01*
X53066522Y-15310393D01*
X53015913Y-15472807D01*
X53009500Y-15543386D01*
X53009500Y-16263000D01*
X52989815Y-16330039D01*
X52937011Y-16375794D01*
X52885500Y-16387000D01*
X51818335Y-16387000D01*
X51777379Y-16380041D01*
X51769698Y-16377353D01*
X51769699Y-16377353D01*
X51739270Y-16374500D01*
X51739266Y-16374500D01*
X50680734Y-16374500D01*
X50680730Y-16374500D01*
X50650300Y-16377353D01*
X50650298Y-16377353D01*
X50522119Y-16422206D01*
X50522117Y-16422207D01*
X50412850Y-16502850D01*
X50332207Y-16612117D01*
X50332206Y-16612119D01*
X50287353Y-16740298D01*
X50287353Y-16740300D01*
X50284500Y-16770730D01*
X50284500Y-17379269D01*
X50287353Y-17409699D01*
X50287353Y-17409701D01*
X50327782Y-17525236D01*
X50332207Y-17537882D01*
X50412850Y-17647150D01*
X50522118Y-17727793D01*
X50586033Y-17750158D01*
X50642807Y-17790878D01*
X50668555Y-17855830D01*
X50655099Y-17924392D01*
X50606712Y-17974795D01*
X50584082Y-17984904D01*
X50415878Y-18040642D01*
X50415875Y-18040643D01*
X50266654Y-18132684D01*
X50142684Y-18256654D01*
X50050643Y-18405875D01*
X50050641Y-18405880D01*
X49995494Y-18572302D01*
X49995493Y-18572309D01*
X49985000Y-18675013D01*
X49985000Y-18725000D01*
X52434999Y-18725000D01*
X52434999Y-18675028D01*
X52434998Y-18675013D01*
X52424505Y-18572302D01*
X52369358Y-18405880D01*
X52369356Y-18405875D01*
X52277315Y-18256654D01*
X52153345Y-18132684D01*
X52004124Y-18040643D01*
X52004119Y-18040641D01*
X51971118Y-18029706D01*
X51913673Y-17989933D01*
X51886850Y-17925418D01*
X51899165Y-17856642D01*
X51946708Y-17805442D01*
X52010122Y-17788000D01*
X52885500Y-17788000D01*
X52952539Y-17807685D01*
X52998294Y-17860489D01*
X53009500Y-17912000D01*
X53009500Y-18456616D01*
X53009501Y-18456624D01*
X53015913Y-18527192D01*
X53066522Y-18689606D01*
X53154530Y-18835188D01*
X53274811Y-18955469D01*
X53274813Y-18955470D01*
X53274815Y-18955472D01*
X53420394Y-19043478D01*
X53422386Y-19044098D01*
X53423663Y-19044949D01*
X53427235Y-19046557D01*
X53426967Y-19047150D01*
X53480535Y-19082833D01*
X53508511Y-19146857D01*
X53509500Y-19162485D01*
X53509500Y-21183606D01*
X53489815Y-21250645D01*
X53437011Y-21296400D01*
X53432953Y-21298167D01*
X53401193Y-21311322D01*
X53338907Y-21352940D01*
X53338906Y-21352940D01*
X53286479Y-21387969D01*
X53286473Y-21387973D01*
X53286470Y-21387976D01*
X53286464Y-21387981D01*
X53286458Y-21387986D01*
X53286455Y-21387988D01*
X53286452Y-21387991D01*
X53286443Y-21387999D01*
X53243832Y-21430611D01*
X53243830Y-21430613D01*
X49013461Y-25660783D01*
X49013457Y-25660785D01*
X49013458Y-25660786D01*
X48979856Y-25694387D01*
X48915894Y-25758346D01*
X48915879Y-25758367D01*
X48881507Y-25809807D01*
X48881507Y-25809809D01*
X48839233Y-25873074D01*
X48839228Y-25873081D01*
X48839227Y-25873084D01*
X48839221Y-25873097D01*
X48820618Y-25918008D01*
X48776777Y-25972411D01*
X48710482Y-25994475D01*
X48707293Y-25994548D01*
X48285394Y-25998750D01*
X48218162Y-25979734D01*
X48171883Y-25927388D01*
X48160159Y-25874602D01*
X48168577Y-19274986D01*
X49985001Y-19274986D01*
X49995494Y-19377697D01*
X50050641Y-19544119D01*
X50050643Y-19544124D01*
X50142684Y-19693345D01*
X50266654Y-19817315D01*
X50415875Y-19909356D01*
X50415880Y-19909358D01*
X50582302Y-19964505D01*
X50582309Y-19964506D01*
X50685019Y-19974999D01*
X50959999Y-19974999D01*
X51460000Y-19974999D01*
X51734972Y-19974999D01*
X51734986Y-19974998D01*
X51837697Y-19964505D01*
X52004119Y-19909358D01*
X52004124Y-19909356D01*
X52153345Y-19817315D01*
X52277315Y-19693345D01*
X52369356Y-19544124D01*
X52369358Y-19544119D01*
X52424505Y-19377697D01*
X52424506Y-19377690D01*
X52434999Y-19274986D01*
X52435000Y-19274973D01*
X52435000Y-19225000D01*
X51460000Y-19225000D01*
X51460000Y-19974999D01*
X50959999Y-19974999D01*
X50960000Y-19974998D01*
X50960000Y-19225000D01*
X49985001Y-19225000D01*
X49985001Y-19274986D01*
X48168577Y-19274986D01*
X48184267Y-6974340D01*
X48204037Y-6907328D01*
X48256899Y-6861640D01*
X48308267Y-6850500D01*
X49881324Y-6850500D01*
X49948363Y-6870185D01*
X49969005Y-6886819D01*
X50610969Y-7528782D01*
X50642136Y-7585861D01*
X50642847Y-7585654D01*
X50643789Y-7588888D01*
X50644454Y-7590105D01*
X50644915Y-7592750D01*
X50645501Y-7594760D01*
X50692150Y-7694799D01*
X50770201Y-7772850D01*
X50870240Y-7819499D01*
X50904537Y-7824014D01*
X50950352Y-7839566D01*
X50996814Y-7866392D01*
X51124107Y-7900500D01*
X51124109Y-7900500D01*
X51255890Y-7900500D01*
X51255892Y-7900500D01*
X51383186Y-7866392D01*
X51429651Y-7839564D01*
X51475462Y-7824013D01*
X51509760Y-7819499D01*
X51609799Y-7772850D01*
X51687850Y-7694799D01*
X51734499Y-7594760D01*
X51740500Y-7549179D01*
X51740499Y-7250822D01*
X51734499Y-7205240D01*
X51687850Y-7105201D01*
X51609799Y-7027150D01*
X51509760Y-6980501D01*
X51509758Y-6980500D01*
X51500648Y-6977845D01*
X51501445Y-6975108D01*
X51451381Y-6952961D01*
X51443782Y-6945969D01*
X51316808Y-6818995D01*
X52489499Y-6818995D01*
X52516418Y-6954322D01*
X52516421Y-6954332D01*
X52569221Y-7081804D01*
X52569228Y-7081817D01*
X52645885Y-7196541D01*
X52645888Y-7196545D01*
X52743454Y-7294111D01*
X52743458Y-7294114D01*
X52858182Y-7370771D01*
X52858195Y-7370778D01*
X52985667Y-7423578D01*
X52985672Y-7423580D01*
X52985676Y-7423580D01*
X52985677Y-7423581D01*
X53121004Y-7450500D01*
X53121007Y-7450500D01*
X57698481Y-7450500D01*
X57765520Y-7470185D01*
X57786162Y-7486819D01*
X58001681Y-7702338D01*
X58035166Y-7763661D01*
X58037403Y-7777865D01*
X58053975Y-7946129D01*
X58053976Y-7946132D01*
X58101729Y-8103553D01*
X58111188Y-8134733D01*
X58204086Y-8308532D01*
X58204090Y-8308539D01*
X58270189Y-8389079D01*
X58311353Y-8439238D01*
X58338666Y-8503546D01*
X58339500Y-8517902D01*
X58339500Y-13161006D01*
X58339500Y-13298994D01*
X58339500Y-13298996D01*
X58339499Y-13298996D01*
X58366418Y-13434322D01*
X58366421Y-13434332D01*
X58419222Y-13561807D01*
X58495887Y-13676545D01*
X58495888Y-13676546D01*
X59273181Y-14453838D01*
X59306666Y-14515161D01*
X59309500Y-14541519D01*
X59309500Y-15112727D01*
X59324313Y-15225235D01*
X59324313Y-15225236D01*
X59369657Y-15334707D01*
X59382302Y-15365233D01*
X59474549Y-15485451D01*
X59594767Y-15577698D01*
X59734764Y-15635687D01*
X59847280Y-15650500D01*
X59847287Y-15650500D01*
X61172713Y-15650500D01*
X61172720Y-15650500D01*
X61285236Y-15635687D01*
X61425233Y-15577698D01*
X61545451Y-15485451D01*
X61555156Y-15472804D01*
X61573412Y-15449013D01*
X61629840Y-15407811D01*
X61671787Y-15400500D01*
X62068481Y-15400500D01*
X62135520Y-15420185D01*
X62156162Y-15436819D01*
X62748181Y-16028838D01*
X62781666Y-16090161D01*
X62784500Y-16116519D01*
X62784500Y-16291769D01*
X62787353Y-16322199D01*
X62787353Y-16322201D01*
X62822348Y-16422207D01*
X62832207Y-16450382D01*
X62912850Y-16559650D01*
X63022118Y-16640293D01*
X63086033Y-16662658D01*
X63142807Y-16703378D01*
X63168555Y-16768330D01*
X63155099Y-16836892D01*
X63106712Y-16887295D01*
X63084082Y-16897404D01*
X62915878Y-16953142D01*
X62915875Y-16953143D01*
X62766654Y-17045184D01*
X62642684Y-17169154D01*
X62550643Y-17318375D01*
X62550641Y-17318380D01*
X62495494Y-17484802D01*
X62495493Y-17484809D01*
X62485000Y-17587513D01*
X62485000Y-17637500D01*
X64934999Y-17637500D01*
X64934999Y-17587528D01*
X64934998Y-17587513D01*
X64924505Y-17484802D01*
X64869358Y-17318380D01*
X64869356Y-17318375D01*
X64777315Y-17169154D01*
X64653345Y-17045184D01*
X64504124Y-16953143D01*
X64504119Y-16953141D01*
X64335917Y-16897405D01*
X64278472Y-16857633D01*
X64251649Y-16793117D01*
X64263964Y-16724341D01*
X64311507Y-16673141D01*
X64333966Y-16662658D01*
X64333972Y-16662656D01*
X64397882Y-16640293D01*
X64507150Y-16559650D01*
X64587793Y-16450382D01*
X64614345Y-16374500D01*
X64632646Y-16322201D01*
X64632646Y-16322199D01*
X64635500Y-16291769D01*
X64635500Y-15683230D01*
X64632646Y-15652800D01*
X64632646Y-15652798D01*
X64587793Y-15524619D01*
X64587792Y-15524617D01*
X64507150Y-15415350D01*
X64397882Y-15334707D01*
X64397880Y-15334706D01*
X64269700Y-15289853D01*
X64239270Y-15287000D01*
X64239266Y-15287000D01*
X64039019Y-15287000D01*
X63971980Y-15267315D01*
X63951338Y-15250681D01*
X62856546Y-14155888D01*
X62856545Y-14155887D01*
X62741807Y-14079222D01*
X62614332Y-14026421D01*
X62614322Y-14026418D01*
X62478996Y-13999500D01*
X62478994Y-13999500D01*
X62478993Y-13999500D01*
X61671787Y-13999500D01*
X61604748Y-13979815D01*
X61573412Y-13950987D01*
X61545454Y-13914552D01*
X61545452Y-13914550D01*
X61545451Y-13914549D01*
X61425233Y-13822302D01*
X61425229Y-13822300D01*
X61361801Y-13796027D01*
X61285236Y-13764313D01*
X61271171Y-13762461D01*
X61172727Y-13749500D01*
X61172720Y-13749500D01*
X60601519Y-13749500D01*
X60534480Y-13729815D01*
X60513838Y-13713181D01*
X59776819Y-12976162D01*
X59743334Y-12914839D01*
X59740500Y-12888481D01*
X59740500Y-8517902D01*
X59760185Y-8450863D01*
X59768642Y-8439242D01*
X59875910Y-8308538D01*
X59935893Y-8196317D01*
X59968812Y-8134731D01*
X59968812Y-8134730D01*
X59968814Y-8134727D01*
X60017146Y-7975396D01*
X60055443Y-7916960D01*
X60119255Y-7888504D01*
X60188322Y-7899064D01*
X60240716Y-7945288D01*
X60255581Y-7979300D01*
X60313731Y-8196320D01*
X60313735Y-8196331D01*
X60409863Y-8402478D01*
X60460974Y-8475472D01*
X61140000Y-7796446D01*
X61140000Y-7802661D01*
X61167259Y-7904394D01*
X61219920Y-7995606D01*
X61294394Y-8070080D01*
X61385606Y-8122741D01*
X61487339Y-8150000D01*
X61493553Y-8150000D01*
X60814526Y-8829025D01*
X60887513Y-8880132D01*
X60887521Y-8880136D01*
X61093668Y-8976264D01*
X61093682Y-8976269D01*
X61313389Y-9035139D01*
X61313400Y-9035141D01*
X61539998Y-9054966D01*
X61540002Y-9054966D01*
X61766599Y-9035141D01*
X61766610Y-9035139D01*
X61986317Y-8976269D01*
X61986331Y-8976264D01*
X62192478Y-8880136D01*
X62265471Y-8829024D01*
X61586447Y-8150000D01*
X61592661Y-8150000D01*
X61694394Y-8122741D01*
X61785606Y-8070080D01*
X61860080Y-7995606D01*
X61912741Y-7904394D01*
X61940000Y-7802661D01*
X61940000Y-7796447D01*
X62619024Y-8475471D01*
X62670136Y-8402478D01*
X62766264Y-8196331D01*
X62766269Y-8196317D01*
X62825139Y-7976610D01*
X62825141Y-7976599D01*
X62844966Y-7750002D01*
X62844966Y-7749997D01*
X62825141Y-7523400D01*
X62825139Y-7523389D01*
X62766269Y-7303682D01*
X62766264Y-7303668D01*
X62670136Y-7097521D01*
X62670132Y-7097513D01*
X62619025Y-7024526D01*
X61940000Y-7703551D01*
X61940000Y-7697339D01*
X61912741Y-7595606D01*
X61860080Y-7504394D01*
X61785606Y-7429920D01*
X61694394Y-7377259D01*
X61592661Y-7350000D01*
X61586448Y-7350000D01*
X62265472Y-6670974D01*
X62192478Y-6619863D01*
X61986331Y-6523735D01*
X61986317Y-6523730D01*
X61766610Y-6464860D01*
X61766599Y-6464858D01*
X61540002Y-6445034D01*
X61539998Y-6445034D01*
X61313400Y-6464858D01*
X61313389Y-6464860D01*
X61093682Y-6523730D01*
X61093673Y-6523734D01*
X60887516Y-6619866D01*
X60887512Y-6619868D01*
X60814526Y-6670973D01*
X60814526Y-6670974D01*
X61493553Y-7350000D01*
X61487339Y-7350000D01*
X61385606Y-7377259D01*
X61294394Y-7429920D01*
X61219920Y-7504394D01*
X61167259Y-7595606D01*
X61140000Y-7697339D01*
X61140000Y-7703552D01*
X60460974Y-7024526D01*
X60460973Y-7024526D01*
X60409868Y-7097512D01*
X60409866Y-7097516D01*
X60313734Y-7303673D01*
X60313731Y-7303680D01*
X60255581Y-7520699D01*
X60219216Y-7580359D01*
X60156369Y-7610888D01*
X60086993Y-7602593D01*
X60033115Y-7558108D01*
X60017146Y-7524603D01*
X59968814Y-7365273D01*
X59968812Y-7365270D01*
X59968812Y-7365268D01*
X59875913Y-7191467D01*
X59875909Y-7191460D01*
X59750883Y-7039116D01*
X59598539Y-6914090D01*
X59598532Y-6914086D01*
X59424733Y-6821188D01*
X59424727Y-6821186D01*
X59236132Y-6763976D01*
X59236129Y-6763975D01*
X59067865Y-6747403D01*
X59003078Y-6721242D01*
X58992338Y-6711681D01*
X58486546Y-6205888D01*
X58486545Y-6205887D01*
X58371807Y-6129222D01*
X58244332Y-6076421D01*
X58244322Y-6076418D01*
X58108996Y-6049500D01*
X58108994Y-6049500D01*
X58108993Y-6049500D01*
X53121007Y-6049500D01*
X53121005Y-6049500D01*
X52985677Y-6076418D01*
X52985667Y-6076421D01*
X52858195Y-6129221D01*
X52858182Y-6129228D01*
X52743458Y-6205885D01*
X52743454Y-6205888D01*
X52645888Y-6303454D01*
X52645885Y-6303458D01*
X52569228Y-6418182D01*
X52569221Y-6418195D01*
X52516421Y-6545667D01*
X52516418Y-6545677D01*
X52489500Y-6681004D01*
X52489500Y-6681007D01*
X52489500Y-6818993D01*
X52489500Y-6818995D01*
X52489499Y-6818995D01*
X51316808Y-6818995D01*
X51283481Y-6785668D01*
X51249996Y-6724345D01*
X51254980Y-6654653D01*
X51296852Y-6598720D01*
X51339066Y-6578213D01*
X51383186Y-6566392D01*
X51429654Y-6539563D01*
X51475463Y-6524013D01*
X51509760Y-6519499D01*
X51609799Y-6472850D01*
X51687850Y-6394799D01*
X51734499Y-6294760D01*
X51740500Y-6249179D01*
X51740499Y-5950822D01*
X51734499Y-5905240D01*
X51687850Y-5805201D01*
X51609799Y-5727150D01*
X51509760Y-5680501D01*
X51509758Y-5680500D01*
X51500648Y-5677845D01*
X51501445Y-5675108D01*
X51451379Y-5652958D01*
X51443783Y-5645969D01*
X50497316Y-4699502D01*
X50497314Y-4699500D01*
X50440250Y-4666554D01*
X50383187Y-4633608D01*
X50319539Y-4616554D01*
X50255892Y-4599500D01*
X48311455Y-4599500D01*
X48244416Y-4579815D01*
X48198661Y-4527011D01*
X48187455Y-4475342D01*
X48189842Y-2603842D01*
X48209612Y-2536828D01*
X48262474Y-2491140D01*
X48313842Y-2480000D01*
X68046372Y-2480000D01*
X68113411Y-2499685D01*
G37*
%TD.AperFunction*%
%TD*%
M02*
