%TF.GenerationSoftware,KiCad,Pcbnew,8.0.5*%
%TF.CreationDate,2024-09-23T16:37:59-07:00*%
%TF.ProjectId,fluke_884x_continuity_buzzer,666c756b-655f-4383-9834-785f636f6e74,4*%
%TF.SameCoordinates,Original*%
%TF.FileFunction,Copper,L4,Bot*%
%TF.FilePolarity,Positive*%
%FSLAX46Y46*%
G04 Gerber Fmt 4.6, Leading zero omitted, Abs format (unit mm)*
G04 Created by KiCad (PCBNEW 8.0.5) date 2024-09-23 16:37:59*
%MOMM*%
%LPD*%
G01*
G04 APERTURE LIST*
%TA.AperFunction,ComponentPad*%
%ADD10C,3.000000*%
%TD*%
%TA.AperFunction,ComponentPad*%
%ADD11O,1.550000X0.890000*%
%TD*%
%TA.AperFunction,ComponentPad*%
%ADD12O,0.950000X1.250000*%
%TD*%
%TA.AperFunction,ComponentPad*%
%ADD13R,1.700000X1.700000*%
%TD*%
%TA.AperFunction,ComponentPad*%
%ADD14O,1.700000X1.700000*%
%TD*%
%TA.AperFunction,ComponentPad*%
%ADD15C,0.600000*%
%TD*%
%TA.AperFunction,ComponentPad*%
%ADD16R,2.000000X2.000000*%
%TD*%
%TA.AperFunction,ComponentPad*%
%ADD17C,2.000000*%
%TD*%
%TA.AperFunction,ComponentPad*%
%ADD18R,1.000000X1.000000*%
%TD*%
%TA.AperFunction,ComponentPad*%
%ADD19C,1.600000*%
%TD*%
%TA.AperFunction,ComponentPad*%
%ADD20R,1.600000X1.600000*%
%TD*%
%TA.AperFunction,ComponentPad*%
%ADD21O,1.600000X1.600000*%
%TD*%
%TA.AperFunction,ViaPad*%
%ADD22C,0.600000*%
%TD*%
%TA.AperFunction,Conductor*%
%ADD23C,0.600000*%
%TD*%
%TA.AperFunction,Conductor*%
%ADD24C,0.200000*%
%TD*%
%TA.AperFunction,Conductor*%
%ADD25C,0.400000*%
%TD*%
%TA.AperFunction,Conductor*%
%ADD26C,0.300000*%
%TD*%
%TA.AperFunction,Conductor*%
%ADD27C,0.150000*%
%TD*%
%TA.AperFunction,Conductor*%
%ADD28C,1.000000*%
%TD*%
G04 APERTURE END LIST*
D10*
%TO.P,TP4,1,1*%
%TO.N,GND*%
X2810000Y-2800000D03*
%TD*%
D11*
%TO.P,J3,6,Shield*%
%TO.N,GND*%
X69290000Y-53420550D03*
D12*
X66590000Y-52420550D03*
X66590000Y-47420550D03*
D11*
X69290000Y-46420550D03*
%TD*%
D13*
%TO.P,J2,1,Pin_1*%
%TO.N,/~{USB_BOOT}*%
X43217600Y-37558050D03*
D14*
%TO.P,J2,2,Pin_2*%
%TO.N,GND*%
X43217600Y-40098050D03*
%TD*%
D15*
%TO.P,U3,57,GND*%
%TO.N,GND*%
X21065000Y-47523450D03*
X19790000Y-47523450D03*
X18515000Y-47523450D03*
X21065000Y-48798450D03*
X19790000Y-48798450D03*
X18515000Y-48798450D03*
X21065000Y-50073450D03*
X19790000Y-50073450D03*
X18515000Y-50073450D03*
%TD*%
D16*
%TO.P,LS1,1,1*%
%TO.N,/GPIO28_ADC2*%
X65640000Y-36300000D03*
D17*
%TO.P,LS1,2,2*%
%TO.N,/GPIO29_ADC3*%
X55640000Y-36300000D03*
%TD*%
D18*
%TO.P,TP2,1,1*%
%TO.N,/GPIO26_ADC0*%
X50217600Y-53933050D03*
%TD*%
D19*
%TO.P,C18,1*%
%TO.N,Net-(D1A-K)*%
X59040000Y-7750000D03*
%TO.P,C18,2*%
%TO.N,GND*%
X61540000Y-7750000D03*
%TD*%
D20*
%TO.P,J204,1,Pin_1*%
%TO.N,/PDP*%
X22860000Y-20320000D03*
D21*
%TO.P,J204,2,Pin_2*%
%TO.N,/PS1*%
X20320000Y-20320000D03*
%TO.P,J204,3,Pin_3*%
%TO.N,/Pd*%
X17780000Y-20320000D03*
%TO.P,J204,4,Pin_4*%
%TO.N,/Pe*%
X15240000Y-20320000D03*
%TO.P,J204,5,Pin_5*%
%TO.N,/Pf*%
X12700000Y-20320000D03*
%TO.P,J204,6,Pin_6*%
%TO.N,/Pg*%
X10160000Y-20320000D03*
%TO.P,J204,7,Pin_7*%
%TO.N,/PS3*%
X7620000Y-20320000D03*
%TO.P,J204,8,Pin_8*%
%TO.N,/PS2*%
X5080000Y-20320000D03*
%TO.P,J204,9,Pin_9*%
%TO.N,/Pb*%
X5080000Y-27940000D03*
%TO.P,J204,10,Pin_10*%
%TO.N,/Pa*%
X7620000Y-27940000D03*
%TO.P,J204,11,Pin_11*%
%TO.N,/Pc*%
X10160000Y-27940000D03*
%TO.P,J204,12,Pin_12*%
%TO.N,/G0*%
X12700000Y-27940000D03*
%TO.P,J204,13,Pin_13*%
%TO.N,/G1*%
X15240000Y-27940000D03*
%TO.P,J204,14,Pin_14*%
%TO.N,/G4*%
X17780000Y-27940000D03*
%TO.P,J204,15,Pin_15*%
%TO.N,/G3*%
X20320000Y-27940000D03*
%TO.P,J204,16,Pin_16*%
%TO.N,/G2*%
X22860000Y-27940000D03*
%TD*%
D20*
%TO.P,J203,1,Pin_1*%
%TO.N,/F1*%
X45720000Y-20320000D03*
D21*
%TO.P,J203,2,Pin_2*%
%TO.N,/F2*%
X43180000Y-20320000D03*
%TO.P,J203,3,Pin_3*%
%TO.N,/S2*%
X40640000Y-20320000D03*
%TO.P,J203,4,Pin_4*%
%TO.N,/S1*%
X38100000Y-20320000D03*
%TO.P,J203,5,Pin_5*%
%TO.N,/S0*%
X35560000Y-20320000D03*
%TO.P,J203,6,Pin_6*%
%TO.N,/G5*%
X33020000Y-20320000D03*
%TO.P,J203,7,Pin_7*%
%TO.N,/G7*%
X30480000Y-20320000D03*
%TO.P,J203,8,Pin_8*%
%TO.N,/G6*%
X27940000Y-20320000D03*
%TO.P,J203,9,Pin_9*%
%TO.N,/RL0*%
X27940000Y-27940000D03*
%TO.P,J203,10,Pin_10*%
%TO.N,/RL1*%
X30480000Y-27940000D03*
%TO.P,J203,11,Pin_11*%
%TO.N,/RL6*%
X33020000Y-27940000D03*
%TO.P,J203,12,Pin_12*%
%TO.N,/RL4*%
X35560000Y-27940000D03*
%TO.P,J203,13,Pin_13*%
%TO.N,/RL2*%
X38100000Y-27940000D03*
%TO.P,J203,14,Pin_14*%
%TO.N,/RL5*%
X40640000Y-27940000D03*
%TO.P,J203,15,Pin_15*%
%TO.N,/RL3*%
X43180000Y-27940000D03*
%TO.P,J203,16,Pin_16*%
%TO.N,/GND2*%
X45720000Y-27940000D03*
%TD*%
D18*
%TO.P,TP3,1,1*%
%TO.N,/GPIO27_ADC1*%
X45517600Y-53933050D03*
%TD*%
D20*
%TO.P,P204,1,Pin_1*%
%TO.N,/G2*%
X22860000Y-13970000D03*
D21*
%TO.P,P204,2,Pin_2*%
%TO.N,/G3*%
X20320000Y-13970000D03*
%TO.P,P204,3,Pin_3*%
%TO.N,/G4*%
X17780000Y-13970000D03*
%TO.P,P204,4,Pin_4*%
%TO.N,/G1*%
X15240000Y-13970000D03*
%TO.P,P204,5,Pin_5*%
%TO.N,/G0*%
X12700000Y-13970000D03*
%TO.P,P204,6,Pin_6*%
%TO.N,/Pc*%
X10160000Y-13970000D03*
%TO.P,P204,7,Pin_7*%
%TO.N,/Pa*%
X7620000Y-13970000D03*
%TO.P,P204,8,Pin_8*%
%TO.N,/Pb*%
X5080000Y-13970000D03*
%TO.P,P204,9,Pin_9*%
%TO.N,/PS2*%
X5080000Y-6350000D03*
%TO.P,P204,10,Pin_10*%
%TO.N,/PS3*%
X7620000Y-6350000D03*
%TO.P,P204,11,Pin_11*%
%TO.N,/Pg*%
X10160000Y-6350000D03*
%TO.P,P204,12,Pin_12*%
%TO.N,/Pf*%
X12700000Y-6350000D03*
%TO.P,P204,13,Pin_13*%
%TO.N,/Pe*%
X15240000Y-6350000D03*
%TO.P,P204,14,Pin_14*%
%TO.N,/Pd*%
X17780000Y-6350000D03*
%TO.P,P204,15,Pin_15*%
%TO.N,/PS1*%
X20320000Y-6350000D03*
%TO.P,P204,16,Pin_16*%
%TO.N,/PDP*%
X22860000Y-6350000D03*
%TD*%
D20*
%TO.P,P203,1,Pin_1*%
%TO.N,/GND2*%
X45720000Y-13970000D03*
D21*
%TO.P,P203,2,Pin_2*%
%TO.N,/RL3*%
X43180000Y-13970000D03*
%TO.P,P203,3,Pin_3*%
%TO.N,/RL5*%
X40640000Y-13970000D03*
%TO.P,P203,4,Pin_4*%
%TO.N,/RL2*%
X38100000Y-13970000D03*
%TO.P,P203,5,Pin_5*%
%TO.N,/RL4*%
X35560000Y-13970000D03*
%TO.P,P203,6,Pin_6*%
%TO.N,/RL6*%
X33020000Y-13970000D03*
%TO.P,P203,7,Pin_7*%
%TO.N,/RL1*%
X30480000Y-13970000D03*
%TO.P,P203,8,Pin_8*%
%TO.N,/RL0*%
X27940000Y-13970000D03*
%TO.P,P203,9,Pin_9*%
%TO.N,/G6*%
X27940000Y-6350000D03*
%TO.P,P203,10,Pin_10*%
%TO.N,/G7*%
X30480000Y-6350000D03*
%TO.P,P203,11,Pin_11*%
%TO.N,/G5*%
X33020000Y-6350000D03*
%TO.P,P203,12,Pin_12*%
%TO.N,/S0*%
X35560000Y-6350000D03*
%TO.P,P203,13,Pin_13*%
%TO.N,/S1*%
X38100000Y-6350000D03*
%TO.P,P203,14,Pin_14*%
%TO.N,/S2*%
X40640000Y-6350000D03*
%TO.P,P203,15,Pin_15*%
%TO.N,/F2*%
X43180000Y-6350000D03*
%TO.P,P203,16,Pin_16*%
%TO.N,/F1*%
X45720000Y-6350000D03*
%TD*%
D22*
%TO.N,GND*%
X58460000Y-23600000D03*
X8390000Y-45598450D03*
X62210000Y-19000000D03*
X12008000Y-49179450D03*
X18351200Y-55683050D03*
X63731600Y-48620550D03*
X28589600Y-47798450D03*
X57060000Y-23600000D03*
X10790000Y-43972450D03*
X33552600Y-53533050D03*
X12008000Y-50298450D03*
X59760000Y-23600000D03*
X36990600Y-43498450D03*
X61260000Y-22100000D03*
X57060000Y-22100000D03*
X27589600Y-52798450D03*
X67790400Y-52260950D03*
X4530000Y-38480000D03*
X58460000Y-22100000D03*
X23151200Y-42283050D03*
X8390000Y-54288450D03*
X59760000Y-22100000D03*
X12833500Y-48353950D03*
X27589600Y-51798450D03*
X28589600Y-48798450D03*
X33552600Y-52533050D03*
X61260000Y-23600000D03*
X10801500Y-49560450D03*
X12960500Y-45877450D03*
X30590600Y-39598450D03*
X67890400Y-48823250D03*
X6840000Y-45770000D03*
X4690000Y-54288450D03*
X18931200Y-40933050D03*
%TO.N,+3V3*%
X24467600Y-51883050D03*
X36990000Y-52350000D03*
X17272400Y-47861850D03*
X16890000Y-38150000D03*
X12460000Y-38300000D03*
X19160000Y-34000000D03*
X24860000Y-34200000D03*
X14160000Y-34200000D03*
X49460000Y-39500000D03*
X24160000Y-38400000D03*
X25248000Y-49148450D03*
X2060000Y-38400000D03*
X49460000Y-35900000D03*
X8460000Y-34600000D03*
X19567600Y-41533050D03*
X17424700Y-51163850D03*
X29090000Y-35600000D03*
X49460000Y-37200000D03*
X49460000Y-38400000D03*
%TO.N,+1V1*%
X21890000Y-49498450D03*
X24590000Y-48598450D03*
X17690000Y-49398450D03*
X14590000Y-49598450D03*
%TO.N,/QSPI_SS*%
X23527100Y-45632850D03*
X36319600Y-40238550D03*
%TO.N,Net-(D1A-K)*%
X59040000Y-12750000D03*
X31590000Y-33350000D03*
%TO.N,G0_3V*%
X19281200Y-54733050D03*
X12787400Y-33726900D03*
%TO.N,G1_3V*%
X15297100Y-37059800D03*
X19281200Y-55633050D03*
%TO.N,G2_3V*%
X17507200Y-44387850D03*
X22911000Y-33620400D03*
%TO.N,G6_3V*%
X17590000Y-41204650D03*
X25081400Y-36376900D03*
%TO.N,PA_3V*%
X7349100Y-34783000D03*
X13851200Y-51583050D03*
%TO.N,PB_3V*%
X5168718Y-35860401D03*
X12151200Y-51683050D03*
%TO.N,PC_3V*%
X10716000Y-37207400D03*
X15351200Y-50983050D03*
%TO.N,PE_3V*%
X14612600Y-33193200D03*
X20517600Y-55183050D03*
%TO.N,PG_3V*%
X14680300Y-51318450D03*
X9660000Y-34300000D03*
%TO.N,PS2_3V*%
X11151200Y-51683050D03*
X3090000Y-35990000D03*
%TO.N,PS3_3V*%
X5470000Y-37080000D03*
X12951200Y-51583050D03*
%TO.N,/GPIO29_ADC3*%
X39719600Y-54567750D03*
%TO.N,/GPIO28_ADC2*%
X40607600Y-54422550D03*
%TO.N,/VBUS*%
X63323050Y-52283050D03*
X28790000Y-34750000D03*
%TO.N,PF_3V*%
X13598600Y-37545500D03*
X19281200Y-53933050D03*
%TD*%
D23*
%TO.N,GND*%
X66615400Y-54520550D02*
X66615400Y-45320550D01*
D24*
%TO.N,+3V3*%
X19160000Y-36375000D02*
X19160000Y-34000000D01*
X24160000Y-34900000D02*
X24160000Y-38400000D01*
X16890000Y-38150000D02*
X19160000Y-36375000D01*
X12460000Y-35900000D02*
X12460000Y-38300000D01*
X24860000Y-34200000D02*
X24160000Y-34900000D01*
X14160000Y-34200000D02*
X12460000Y-35900000D01*
D25*
%TO.N,+1V1*%
X17680000Y-49388450D02*
X17690000Y-49398450D01*
X17690000Y-49398450D02*
X17690000Y-50167650D01*
X21345000Y-50723450D02*
X21890000Y-50178450D01*
X18245700Y-50723450D02*
X21345000Y-50723450D01*
X17690000Y-50167650D02*
X18245700Y-50723450D01*
X21890000Y-49488450D02*
X21890000Y-49498450D01*
X14800000Y-49388450D02*
X17680000Y-49388450D01*
X14590000Y-49598450D02*
X14800000Y-49388450D01*
X21890000Y-50178450D02*
X21890000Y-49498450D01*
X24590000Y-48598450D02*
X22780000Y-48598450D01*
X22780000Y-48598450D02*
X21890000Y-49488450D01*
D26*
%TO.N,/RL0*%
X27940000Y-13970000D02*
X29040000Y-15070000D01*
X29040000Y-26840000D02*
X27940000Y-27940000D01*
X29040000Y-15070000D02*
X29040000Y-26840000D01*
%TO.N,/RL1*%
X31580000Y-15070000D02*
X31580000Y-26840000D01*
X31580000Y-26840000D02*
X30480000Y-27940000D01*
X30480000Y-13970000D02*
X31580000Y-15070000D01*
%TO.N,/RL6*%
X33020000Y-13970000D02*
X34120000Y-15070000D01*
X34120000Y-15070000D02*
X34120000Y-26840000D01*
X34120000Y-26840000D02*
X33020000Y-27940000D01*
%TO.N,/RL4*%
X35560000Y-13970000D02*
X36660000Y-15070000D01*
X36660000Y-26840000D02*
X35560000Y-27940000D01*
X36660000Y-15070000D02*
X36660000Y-26840000D01*
%TO.N,/RL2*%
X38100000Y-13970000D02*
X39200000Y-15070000D01*
X39200000Y-15070000D02*
X39200000Y-26840000D01*
X39200000Y-26840000D02*
X38100000Y-27940000D01*
%TO.N,/RL5*%
X40640000Y-13970000D02*
X41740000Y-15070000D01*
X41740000Y-15070000D02*
X41740000Y-26840000D01*
X41740000Y-26840000D02*
X40640000Y-27940000D01*
%TO.N,/RL3*%
X44280000Y-26840000D02*
X43180000Y-27940000D01*
X44280000Y-15070000D02*
X44280000Y-26840000D01*
X43180000Y-13970000D02*
X44280000Y-15070000D01*
%TO.N,/Pb*%
X6180000Y-26840000D02*
X5080000Y-27940000D01*
X6180000Y-15070000D02*
X6180000Y-26840000D01*
X5080000Y-13970000D02*
X6180000Y-15070000D01*
%TO.N,/Pa*%
X8720000Y-15070000D02*
X8720000Y-26840000D01*
X7620000Y-13970000D02*
X8720000Y-15070000D01*
X8720000Y-26840000D02*
X7620000Y-27940000D01*
%TO.N,/Pc*%
X10160000Y-13970000D02*
X11260000Y-15070000D01*
X11260000Y-15070000D02*
X11260000Y-26840000D01*
X11260000Y-26840000D02*
X10160000Y-27940000D01*
%TO.N,/G0*%
X13800000Y-15070000D02*
X13800000Y-26840000D01*
X12700000Y-13970000D02*
X13800000Y-15070000D01*
X13800000Y-26840000D02*
X12700000Y-27940000D01*
%TO.N,/G1*%
X16340000Y-26840000D02*
X15240000Y-27940000D01*
X16340000Y-15070000D02*
X16340000Y-26840000D01*
X15240000Y-13970000D02*
X16340000Y-15070000D01*
%TO.N,/G4*%
X18880000Y-15070000D02*
X18880000Y-26840000D01*
X17780000Y-13970000D02*
X18880000Y-15070000D01*
X18880000Y-26840000D02*
X17780000Y-27940000D01*
%TO.N,/G3*%
X20320000Y-13970000D02*
X21420000Y-15070000D01*
X21420000Y-15070000D02*
X21420000Y-26840000D01*
X21420000Y-26840000D02*
X20320000Y-27940000D01*
%TO.N,/G2*%
X22860000Y-13970000D02*
X23960000Y-15070000D01*
X23960000Y-15070000D02*
X23960000Y-26840000D01*
X23960000Y-26840000D02*
X22860000Y-27940000D01*
D27*
%TO.N,G2_3V*%
X22238600Y-39656450D02*
X17507200Y-44387850D01*
X22238600Y-39656450D02*
X22238600Y-34292800D01*
X22238600Y-34292800D02*
X22911000Y-33620400D01*
D28*
%TO.N,/GND2*%
X47170000Y-26490000D02*
X45720000Y-27940000D01*
X47170000Y-15420000D02*
X47170000Y-26490000D01*
X45720000Y-13970000D02*
X47170000Y-15420000D01*
%TD*%
%TA.AperFunction,Conductor*%
%TO.N,GND*%
G36*
X70438691Y-319407D02*
G01*
X70474655Y-368907D01*
X70479500Y-399500D01*
X70479500Y-46051079D01*
X70460593Y-46109270D01*
X70411093Y-46145234D01*
X70349907Y-46145234D01*
X70300407Y-46109270D01*
X70289036Y-46088965D01*
X70280211Y-46067660D01*
X70198679Y-45945640D01*
X70094909Y-45841870D01*
X69972887Y-45760337D01*
X69837309Y-45704180D01*
X69693378Y-45675550D01*
X69440001Y-45675550D01*
X69440000Y-45675551D01*
X69440000Y-46170550D01*
X69140000Y-46170550D01*
X69140000Y-45675551D01*
X69139999Y-45675550D01*
X68886621Y-45675550D01*
X68742691Y-45704180D01*
X68742689Y-45704180D01*
X68607112Y-45760337D01*
X68607111Y-45760337D01*
X68485090Y-45841870D01*
X68381320Y-45945640D01*
X68299787Y-46067661D01*
X68299787Y-46067662D01*
X68243630Y-46203239D01*
X68230241Y-46270550D01*
X68761446Y-46270550D01*
X68753060Y-46278936D01*
X68715000Y-46370822D01*
X68715000Y-46470278D01*
X68753060Y-46562164D01*
X68761446Y-46570550D01*
X68230241Y-46570550D01*
X68243630Y-46637860D01*
X68299787Y-46773437D01*
X68299787Y-46773438D01*
X68381320Y-46895459D01*
X68485090Y-46999229D01*
X68607112Y-47080762D01*
X68742690Y-47136919D01*
X68886621Y-47165549D01*
X68886625Y-47165550D01*
X69139999Y-47165550D01*
X69140000Y-47165549D01*
X69140000Y-46670550D01*
X69440000Y-46670550D01*
X69440000Y-47165549D01*
X69440001Y-47165550D01*
X69693375Y-47165550D01*
X69693378Y-47165549D01*
X69837308Y-47136919D01*
X69837310Y-47136919D01*
X69972887Y-47080762D01*
X69972888Y-47080762D01*
X70094909Y-46999229D01*
X70198679Y-46895459D01*
X70280212Y-46773438D01*
X70280212Y-46773437D01*
X70289036Y-46752135D01*
X70328772Y-46705609D01*
X70388266Y-46691325D01*
X70444795Y-46714739D01*
X70476764Y-46766908D01*
X70479500Y-46790020D01*
X70479500Y-53051079D01*
X70460593Y-53109270D01*
X70411093Y-53145234D01*
X70349907Y-53145234D01*
X70300407Y-53109270D01*
X70289036Y-53088965D01*
X70280211Y-53067660D01*
X70198679Y-52945640D01*
X70094909Y-52841870D01*
X69972887Y-52760337D01*
X69837309Y-52704180D01*
X69693378Y-52675550D01*
X69440001Y-52675550D01*
X69440000Y-52675551D01*
X69440000Y-53170550D01*
X69140000Y-53170550D01*
X69140000Y-52675551D01*
X69139999Y-52675550D01*
X68886621Y-52675550D01*
X68742691Y-52704180D01*
X68742689Y-52704180D01*
X68607112Y-52760337D01*
X68607111Y-52760337D01*
X68485090Y-52841870D01*
X68381320Y-52945640D01*
X68299787Y-53067661D01*
X68299787Y-53067662D01*
X68243630Y-53203239D01*
X68230241Y-53270550D01*
X68761446Y-53270550D01*
X68753060Y-53278936D01*
X68715000Y-53370822D01*
X68715000Y-53470278D01*
X68753060Y-53562164D01*
X68761446Y-53570550D01*
X68230241Y-53570550D01*
X68243630Y-53637860D01*
X68299787Y-53773437D01*
X68299787Y-53773438D01*
X68381320Y-53895459D01*
X68485090Y-53999229D01*
X68607112Y-54080762D01*
X68742690Y-54136919D01*
X68886621Y-54165549D01*
X68886625Y-54165550D01*
X69139999Y-54165550D01*
X69140000Y-54165549D01*
X69140000Y-53670550D01*
X69440000Y-53670550D01*
X69440000Y-54165549D01*
X69440001Y-54165550D01*
X69693375Y-54165550D01*
X69693378Y-54165549D01*
X69837308Y-54136919D01*
X69837310Y-54136919D01*
X69972887Y-54080762D01*
X69972888Y-54080762D01*
X70094909Y-53999229D01*
X70198679Y-53895459D01*
X70280212Y-53773438D01*
X70280212Y-53773437D01*
X70289036Y-53752135D01*
X70328772Y-53705609D01*
X70388266Y-53691325D01*
X70444795Y-53714739D01*
X70476764Y-53766908D01*
X70479500Y-53790020D01*
X70479500Y-56200500D01*
X70460593Y-56258691D01*
X70411093Y-56294655D01*
X70380500Y-56299500D01*
X19476548Y-56299500D01*
X19418357Y-56280593D01*
X19382393Y-56231093D01*
X19382393Y-56169907D01*
X19418357Y-56120407D01*
X19448656Y-56105510D01*
X19491253Y-56093003D01*
X19612328Y-56015193D01*
X19706577Y-55906423D01*
X19766365Y-55775507D01*
X19779586Y-55683550D01*
X19786847Y-55633052D01*
X19786847Y-55633047D01*
X19766365Y-55490593D01*
X19706577Y-55359678D01*
X19706577Y-55359677D01*
X19612328Y-55250907D01*
X19609706Y-55247881D01*
X19585888Y-55191522D01*
X19587859Y-55183047D01*
X20011953Y-55183047D01*
X20011953Y-55183052D01*
X20032434Y-55325506D01*
X20092222Y-55456421D01*
X20092223Y-55456423D01*
X20186472Y-55565193D01*
X20186473Y-55565194D01*
X20292063Y-55633052D01*
X20307547Y-55643003D01*
X20414003Y-55674261D01*
X20445635Y-55683549D01*
X20445636Y-55683549D01*
X20445639Y-55683550D01*
X20445641Y-55683550D01*
X20589559Y-55683550D01*
X20589561Y-55683550D01*
X20727653Y-55643003D01*
X20848728Y-55565193D01*
X20942977Y-55456423D01*
X21002765Y-55325507D01*
X21023247Y-55183050D01*
X21006741Y-55068250D01*
X21002765Y-55040593D01*
X20987159Y-55006421D01*
X20942977Y-54909677D01*
X20848728Y-54800907D01*
X20848727Y-54800906D01*
X20848726Y-54800905D01*
X20727657Y-54723099D01*
X20727654Y-54723097D01*
X20727653Y-54723097D01*
X20727650Y-54723096D01*
X20589564Y-54682550D01*
X20589561Y-54682550D01*
X20445639Y-54682550D01*
X20445635Y-54682550D01*
X20307549Y-54723096D01*
X20307542Y-54723099D01*
X20186473Y-54800905D01*
X20092222Y-54909678D01*
X20032434Y-55040593D01*
X20011953Y-55183047D01*
X19587859Y-55183047D01*
X19599747Y-55131926D01*
X19609706Y-55118219D01*
X19653004Y-55068250D01*
X19706577Y-55006423D01*
X19766365Y-54875507D01*
X19786847Y-54733050D01*
X19785416Y-54723099D01*
X19766365Y-54590593D01*
X19755931Y-54567747D01*
X39213953Y-54567747D01*
X39213953Y-54567752D01*
X39234434Y-54710206D01*
X39244867Y-54733050D01*
X39294223Y-54841123D01*
X39330079Y-54882503D01*
X39388473Y-54949894D01*
X39509542Y-55027700D01*
X39509547Y-55027703D01*
X39616003Y-55058961D01*
X39647635Y-55068249D01*
X39647636Y-55068249D01*
X39647639Y-55068250D01*
X39647641Y-55068250D01*
X39791559Y-55068250D01*
X39791561Y-55068250D01*
X39929653Y-55027703D01*
X40050728Y-54949893D01*
X40144977Y-54841123D01*
X40144980Y-54841115D01*
X40146452Y-54838826D01*
X40148218Y-54837381D01*
X40149613Y-54835772D01*
X40149891Y-54836013D01*
X40193815Y-54800091D01*
X40254900Y-54796592D01*
X40283264Y-54809058D01*
X40327335Y-54837381D01*
X40397547Y-54882503D01*
X40490094Y-54909677D01*
X40535635Y-54923049D01*
X40535636Y-54923049D01*
X40535639Y-54923050D01*
X40535641Y-54923050D01*
X40679559Y-54923050D01*
X40679561Y-54923050D01*
X40817653Y-54882503D01*
X40938728Y-54804693D01*
X41032977Y-54695923D01*
X41092765Y-54565007D01*
X41108898Y-54452798D01*
X41113247Y-54422552D01*
X41113247Y-54422547D01*
X41092765Y-54280093D01*
X41087342Y-54268218D01*
X41032977Y-54149177D01*
X40938728Y-54040407D01*
X40938727Y-54040406D01*
X40938726Y-54040405D01*
X40817657Y-53962599D01*
X40817654Y-53962597D01*
X40817653Y-53962597D01*
X40817650Y-53962596D01*
X40679564Y-53922050D01*
X40679561Y-53922050D01*
X40535639Y-53922050D01*
X40535635Y-53922050D01*
X40397549Y-53962596D01*
X40397542Y-53962599D01*
X40276473Y-54040405D01*
X40182219Y-54149182D01*
X40180739Y-54151485D01*
X40178971Y-54152929D01*
X40177587Y-54154528D01*
X40177310Y-54154288D01*
X40133371Y-54190213D01*
X40072285Y-54193703D01*
X40043935Y-54181241D01*
X39929657Y-54107799D01*
X39929654Y-54107797D01*
X39929653Y-54107797D01*
X39929650Y-54107796D01*
X39791564Y-54067250D01*
X39791561Y-54067250D01*
X39647639Y-54067250D01*
X39647635Y-54067250D01*
X39509549Y-54107796D01*
X39509542Y-54107799D01*
X39388473Y-54185605D01*
X39294222Y-54294378D01*
X39234434Y-54425293D01*
X39213953Y-54567747D01*
X19755931Y-54567747D01*
X19706577Y-54459678D01*
X19706577Y-54459677D01*
X19653028Y-54397878D01*
X19629212Y-54341523D01*
X19643070Y-54281927D01*
X19653020Y-54268230D01*
X19706577Y-54206423D01*
X19766365Y-54075507D01*
X19786847Y-53933050D01*
X19785265Y-53922050D01*
X19766365Y-53790593D01*
X19755548Y-53766908D01*
X19706577Y-53659677D01*
X19612328Y-53550907D01*
X19612327Y-53550906D01*
X19612326Y-53550905D01*
X19491257Y-53473099D01*
X19491254Y-53473097D01*
X19491253Y-53473097D01*
X19491250Y-53473096D01*
X19353164Y-53432550D01*
X19353161Y-53432550D01*
X19209239Y-53432550D01*
X19209235Y-53432550D01*
X19071149Y-53473096D01*
X19071142Y-53473099D01*
X18950073Y-53550905D01*
X18855822Y-53659678D01*
X18796034Y-53790593D01*
X18775553Y-53933047D01*
X18775553Y-53933052D01*
X18796034Y-54075506D01*
X18855823Y-54206423D01*
X18909369Y-54268220D01*
X18933186Y-54324579D01*
X18919327Y-54384174D01*
X18909369Y-54397880D01*
X18855823Y-54459676D01*
X18796034Y-54590593D01*
X18775553Y-54733047D01*
X18775553Y-54733052D01*
X18796034Y-54875506D01*
X18855822Y-55006421D01*
X18855823Y-55006423D01*
X18909395Y-55068249D01*
X18952694Y-55118219D01*
X18976511Y-55174579D01*
X18962652Y-55234174D01*
X18952694Y-55247881D01*
X18855822Y-55359678D01*
X18796034Y-55490593D01*
X18775553Y-55633047D01*
X18775553Y-55633052D01*
X18796034Y-55775506D01*
X18855822Y-55906421D01*
X18855823Y-55906423D01*
X18950072Y-56015193D01*
X18950073Y-56015194D01*
X19071142Y-56093000D01*
X19071147Y-56093003D01*
X19113743Y-56105510D01*
X19164250Y-56140046D01*
X19184812Y-56197673D01*
X19167574Y-56256380D01*
X19119121Y-56293742D01*
X19085852Y-56299500D01*
X399500Y-56299500D01*
X341309Y-56280593D01*
X305345Y-56231093D01*
X300500Y-56200500D01*
X300500Y-53413303D01*
X44817100Y-53413303D01*
X44817100Y-54452796D01*
X44817101Y-54452808D01*
X44828732Y-54511277D01*
X44828733Y-54511281D01*
X44873048Y-54577602D01*
X44939369Y-54621917D01*
X44983831Y-54630761D01*
X44997841Y-54633548D01*
X44997846Y-54633548D01*
X44997852Y-54633550D01*
X44997853Y-54633550D01*
X46037347Y-54633550D01*
X46037348Y-54633550D01*
X46095831Y-54621917D01*
X46162152Y-54577602D01*
X46206467Y-54511281D01*
X46218100Y-54452798D01*
X46218100Y-53413303D01*
X49517100Y-53413303D01*
X49517100Y-54452796D01*
X49517101Y-54452808D01*
X49528732Y-54511277D01*
X49528733Y-54511281D01*
X49573048Y-54577602D01*
X49639369Y-54621917D01*
X49683831Y-54630761D01*
X49697841Y-54633548D01*
X49697846Y-54633548D01*
X49697852Y-54633550D01*
X49697853Y-54633550D01*
X50737347Y-54633550D01*
X50737348Y-54633550D01*
X50795831Y-54621917D01*
X50862152Y-54577602D01*
X50906467Y-54511281D01*
X50918100Y-54452798D01*
X50918100Y-53413302D01*
X50906467Y-53354819D01*
X50862152Y-53288498D01*
X50847842Y-53278936D01*
X50795833Y-53244184D01*
X50795831Y-53244183D01*
X50795828Y-53244182D01*
X50795827Y-53244182D01*
X50737358Y-53232551D01*
X50737348Y-53232550D01*
X49697852Y-53232550D01*
X49697851Y-53232550D01*
X49697841Y-53232551D01*
X49639372Y-53244182D01*
X49639366Y-53244184D01*
X49573051Y-53288495D01*
X49573045Y-53288501D01*
X49528734Y-53354816D01*
X49528732Y-53354822D01*
X49517101Y-53413291D01*
X49517100Y-53413303D01*
X46218100Y-53413303D01*
X46218100Y-53413302D01*
X46206467Y-53354819D01*
X46162152Y-53288498D01*
X46147842Y-53278936D01*
X46095833Y-53244184D01*
X46095831Y-53244183D01*
X46095828Y-53244182D01*
X46095827Y-53244182D01*
X46037358Y-53232551D01*
X46037348Y-53232550D01*
X44997852Y-53232550D01*
X44997851Y-53232550D01*
X44997841Y-53232551D01*
X44939372Y-53244182D01*
X44939366Y-53244184D01*
X44873051Y-53288495D01*
X44873045Y-53288501D01*
X44828734Y-53354816D01*
X44828732Y-53354822D01*
X44817101Y-53413291D01*
X44817100Y-53413303D01*
X300500Y-53413303D01*
X300500Y-51683047D01*
X10645553Y-51683047D01*
X10645553Y-51683052D01*
X10666034Y-51825506D01*
X10713433Y-51929294D01*
X10725823Y-51956423D01*
X10802132Y-52044489D01*
X10820073Y-52065194D01*
X10848636Y-52083550D01*
X10941147Y-52143003D01*
X11047603Y-52174261D01*
X11079235Y-52183549D01*
X11079236Y-52183549D01*
X11079239Y-52183550D01*
X11079241Y-52183550D01*
X11223159Y-52183550D01*
X11223161Y-52183550D01*
X11361253Y-52143003D01*
X11482328Y-52065193D01*
X11576382Y-51956647D01*
X11628776Y-51925053D01*
X11689737Y-51930288D01*
X11726016Y-51956646D01*
X11802132Y-52044489D01*
X11820073Y-52065194D01*
X11848636Y-52083550D01*
X11941147Y-52143003D01*
X12047603Y-52174261D01*
X12079235Y-52183549D01*
X12079236Y-52183549D01*
X12079239Y-52183550D01*
X12079241Y-52183550D01*
X12223159Y-52183550D01*
X12223161Y-52183550D01*
X12361253Y-52143003D01*
X12482328Y-52065193D01*
X12531076Y-52008933D01*
X12583472Y-51977337D01*
X12644433Y-51982572D01*
X12659419Y-51990480D01*
X12732453Y-52037416D01*
X12741147Y-52043003D01*
X12847603Y-52074261D01*
X12879235Y-52083549D01*
X12879236Y-52083549D01*
X12879239Y-52083550D01*
X12879241Y-52083550D01*
X13023159Y-52083550D01*
X13023161Y-52083550D01*
X13161253Y-52043003D01*
X13282328Y-51965193D01*
X13326381Y-51914352D01*
X13378776Y-51882757D01*
X13439737Y-51887992D01*
X13476017Y-51914351D01*
X13485291Y-51925053D01*
X13520073Y-51965194D01*
X13632453Y-52037416D01*
X13641147Y-52043003D01*
X13747603Y-52074261D01*
X13779235Y-52083549D01*
X13779236Y-52083549D01*
X13779239Y-52083550D01*
X13779241Y-52083550D01*
X13923159Y-52083550D01*
X13923161Y-52083550D01*
X14061253Y-52043003D01*
X14182328Y-51965193D01*
X14253507Y-51883047D01*
X23961953Y-51883047D01*
X23961953Y-51883052D01*
X23982434Y-52025506D01*
X24036093Y-52143000D01*
X24042223Y-52156423D01*
X24093716Y-52215849D01*
X24136473Y-52265194D01*
X24164253Y-52283047D01*
X24257547Y-52343003D01*
X24364003Y-52374261D01*
X24395635Y-52383549D01*
X24395636Y-52383549D01*
X24395639Y-52383550D01*
X24395641Y-52383550D01*
X24539559Y-52383550D01*
X24539561Y-52383550D01*
X24653833Y-52349997D01*
X36484353Y-52349997D01*
X36484353Y-52350002D01*
X36504834Y-52492456D01*
X36564622Y-52623371D01*
X36564623Y-52623373D01*
X36634642Y-52704180D01*
X36658873Y-52732144D01*
X36770192Y-52803684D01*
X36779947Y-52809953D01*
X36886403Y-52841211D01*
X36918035Y-52850499D01*
X36918036Y-52850499D01*
X36918039Y-52850500D01*
X36918041Y-52850500D01*
X37061959Y-52850500D01*
X37061961Y-52850500D01*
X37200053Y-52809953D01*
X37321128Y-52732143D01*
X37415377Y-52623373D01*
X37475165Y-52492457D01*
X37490823Y-52383550D01*
X37495647Y-52350002D01*
X37495647Y-52349997D01*
X37486021Y-52283047D01*
X62817403Y-52283047D01*
X62817403Y-52283052D01*
X62837884Y-52425506D01*
X62868460Y-52492456D01*
X62897673Y-52556423D01*
X62991922Y-52665193D01*
X62991923Y-52665194D01*
X63008039Y-52675551D01*
X63112997Y-52743003D01*
X63219453Y-52774261D01*
X63251085Y-52783549D01*
X63251086Y-52783549D01*
X63251089Y-52783550D01*
X63251091Y-52783550D01*
X63395009Y-52783550D01*
X63395011Y-52783550D01*
X63533103Y-52743003D01*
X63654178Y-52665193D01*
X63748427Y-52556423D01*
X63808215Y-52425507D01*
X63828697Y-52283050D01*
X63815925Y-52194216D01*
X65815000Y-52194216D01*
X65815000Y-52270549D01*
X65815001Y-52270550D01*
X66315000Y-52270550D01*
X66315000Y-52570550D01*
X65815001Y-52570550D01*
X65815000Y-52570551D01*
X65815000Y-52646883D01*
X65844783Y-52796608D01*
X65844783Y-52796610D01*
X65903202Y-52937647D01*
X65988015Y-53064580D01*
X66095969Y-53172534D01*
X66222902Y-53257347D01*
X66363940Y-53315766D01*
X66440000Y-53330896D01*
X66440000Y-52806076D01*
X66535299Y-52845550D01*
X66644701Y-52845550D01*
X66740000Y-52806076D01*
X66740000Y-53330895D01*
X66816058Y-53315766D01*
X66816060Y-53315766D01*
X66957097Y-53257347D01*
X67084030Y-53172534D01*
X67191984Y-53064580D01*
X67276797Y-52937647D01*
X67335216Y-52796610D01*
X67335216Y-52796608D01*
X67364999Y-52646883D01*
X67365000Y-52646879D01*
X67365000Y-52570551D01*
X67364999Y-52570550D01*
X66865000Y-52570550D01*
X66865000Y-52270550D01*
X67364999Y-52270550D01*
X67365000Y-52270549D01*
X67365000Y-52194220D01*
X67364999Y-52194216D01*
X67335216Y-52044491D01*
X67335216Y-52044489D01*
X67276797Y-51903452D01*
X67191984Y-51776519D01*
X67084030Y-51668565D01*
X66957099Y-51583753D01*
X66816059Y-51525333D01*
X66740000Y-51510203D01*
X66740000Y-52035023D01*
X66644701Y-51995550D01*
X66535299Y-51995550D01*
X66440000Y-52035023D01*
X66440000Y-51510203D01*
X66363940Y-51525333D01*
X66222900Y-51583753D01*
X66095969Y-51668565D01*
X65988015Y-51776519D01*
X65903202Y-51903452D01*
X65844783Y-52044489D01*
X65844783Y-52044491D01*
X65815000Y-52194216D01*
X63815925Y-52194216D01*
X63808215Y-52140593D01*
X63748427Y-52009677D01*
X63654178Y-51900907D01*
X63654177Y-51900906D01*
X63654176Y-51900905D01*
X63533107Y-51823099D01*
X63533104Y-51823097D01*
X63533103Y-51823097D01*
X63533100Y-51823096D01*
X63395014Y-51782550D01*
X63395011Y-51782550D01*
X63251089Y-51782550D01*
X63251085Y-51782550D01*
X63112999Y-51823096D01*
X63112992Y-51823099D01*
X62991923Y-51900905D01*
X62897672Y-52009678D01*
X62837884Y-52140593D01*
X62817403Y-52283047D01*
X37486021Y-52283047D01*
X37475165Y-52207543D01*
X37415377Y-52076627D01*
X37321128Y-51967857D01*
X37321127Y-51967856D01*
X37321126Y-51967855D01*
X37200057Y-51890049D01*
X37200054Y-51890047D01*
X37200053Y-51890047D01*
X37200050Y-51890046D01*
X37061964Y-51849500D01*
X37061961Y-51849500D01*
X36918039Y-51849500D01*
X36918035Y-51849500D01*
X36779949Y-51890046D01*
X36779942Y-51890049D01*
X36658873Y-51967855D01*
X36564622Y-52076628D01*
X36504834Y-52207543D01*
X36484353Y-52349997D01*
X24653833Y-52349997D01*
X24677653Y-52343003D01*
X24798728Y-52265193D01*
X24892977Y-52156423D01*
X24952765Y-52025507D01*
X24967208Y-51925053D01*
X24973247Y-51883052D01*
X24973247Y-51883047D01*
X24952765Y-51740593D01*
X24930327Y-51691461D01*
X24892977Y-51609677D01*
X24798728Y-51500907D01*
X24798727Y-51500906D01*
X24798726Y-51500905D01*
X24677657Y-51423099D01*
X24677654Y-51423097D01*
X24677653Y-51423097D01*
X24677650Y-51423096D01*
X24539564Y-51382550D01*
X24539561Y-51382550D01*
X24395639Y-51382550D01*
X24395635Y-51382550D01*
X24257549Y-51423096D01*
X24257542Y-51423099D01*
X24136473Y-51500905D01*
X24042222Y-51609678D01*
X23982434Y-51740593D01*
X23961953Y-51883047D01*
X14253507Y-51883047D01*
X14276577Y-51856423D01*
X14300605Y-51803808D01*
X14341976Y-51758731D01*
X14401942Y-51746580D01*
X14444180Y-51761651D01*
X14470247Y-51778403D01*
X14576703Y-51809661D01*
X14608335Y-51818949D01*
X14608336Y-51818949D01*
X14608339Y-51818950D01*
X14608341Y-51818950D01*
X14752259Y-51818950D01*
X14752261Y-51818950D01*
X14890353Y-51778403D01*
X15011428Y-51700593D01*
X15105677Y-51591823D01*
X15134164Y-51529445D01*
X15175534Y-51484370D01*
X15235500Y-51472218D01*
X15252109Y-51475584D01*
X15279233Y-51483549D01*
X15279238Y-51483549D01*
X15279239Y-51483550D01*
X15279240Y-51483550D01*
X15423159Y-51483550D01*
X15423161Y-51483550D01*
X15561253Y-51443003D01*
X15682328Y-51365193D01*
X15776577Y-51256423D01*
X15836365Y-51125507D01*
X15847929Y-51045077D01*
X15856847Y-50983052D01*
X15856847Y-50983047D01*
X15836365Y-50840593D01*
X15776577Y-50709678D01*
X15776577Y-50709677D01*
X15682328Y-50600907D01*
X15682327Y-50600906D01*
X15682326Y-50600905D01*
X15561257Y-50523099D01*
X15561254Y-50523097D01*
X15561253Y-50523097D01*
X15561250Y-50523096D01*
X15423164Y-50482550D01*
X15423161Y-50482550D01*
X15279239Y-50482550D01*
X15279235Y-50482550D01*
X15141149Y-50523096D01*
X15141142Y-50523099D01*
X15020073Y-50600905D01*
X14925822Y-50709678D01*
X14897336Y-50772053D01*
X14855964Y-50817130D01*
X14795997Y-50829281D01*
X14779392Y-50825916D01*
X14752263Y-50817950D01*
X14752261Y-50817950D01*
X14608339Y-50817950D01*
X14608335Y-50817950D01*
X14470249Y-50858496D01*
X14470242Y-50858499D01*
X14349173Y-50936305D01*
X14254922Y-51045077D01*
X14230894Y-51097691D01*
X14189521Y-51142768D01*
X14129554Y-51154917D01*
X14087319Y-51139848D01*
X14061256Y-51123098D01*
X14061250Y-51123096D01*
X13923164Y-51082550D01*
X13923161Y-51082550D01*
X13779239Y-51082550D01*
X13779235Y-51082550D01*
X13641149Y-51123096D01*
X13641142Y-51123099D01*
X13520072Y-51200906D01*
X13520070Y-51200908D01*
X13476019Y-51251746D01*
X13423623Y-51283342D01*
X13362662Y-51278106D01*
X13326381Y-51251746D01*
X13282329Y-51200908D01*
X13282327Y-51200906D01*
X13161257Y-51123099D01*
X13161254Y-51123097D01*
X13161253Y-51123097D01*
X13161250Y-51123096D01*
X13023164Y-51082550D01*
X13023161Y-51082550D01*
X12879239Y-51082550D01*
X12879235Y-51082550D01*
X12741149Y-51123096D01*
X12741142Y-51123099D01*
X12620072Y-51200906D01*
X12571322Y-51257167D01*
X12518926Y-51288762D01*
X12457965Y-51283526D01*
X12442980Y-51275619D01*
X12361257Y-51223099D01*
X12361254Y-51223097D01*
X12361253Y-51223097D01*
X12361250Y-51223096D01*
X12223164Y-51182550D01*
X12223161Y-51182550D01*
X12079239Y-51182550D01*
X12079235Y-51182550D01*
X11941149Y-51223096D01*
X11941142Y-51223099D01*
X11820072Y-51300906D01*
X11820070Y-51300908D01*
X11726019Y-51409450D01*
X11673624Y-51441046D01*
X11612663Y-51435810D01*
X11576381Y-51409450D01*
X11482329Y-51300908D01*
X11482327Y-51300906D01*
X11361257Y-51223099D01*
X11361254Y-51223097D01*
X11361253Y-51223097D01*
X11361250Y-51223096D01*
X11223164Y-51182550D01*
X11223161Y-51182550D01*
X11079239Y-51182550D01*
X11079235Y-51182550D01*
X10941149Y-51223096D01*
X10941142Y-51223099D01*
X10820073Y-51300905D01*
X10725822Y-51409678D01*
X10666034Y-51540593D01*
X10645553Y-51683047D01*
X300500Y-51683047D01*
X300500Y-49598447D01*
X14084353Y-49598447D01*
X14084353Y-49598452D01*
X14104834Y-49740906D01*
X14159779Y-49861217D01*
X14164623Y-49871823D01*
X14253437Y-49974321D01*
X14258873Y-49980594D01*
X14379942Y-50058400D01*
X14379947Y-50058403D01*
X14483934Y-50088936D01*
X14518035Y-50098949D01*
X14518036Y-50098949D01*
X14518039Y-50098950D01*
X14518041Y-50098950D01*
X14661959Y-50098950D01*
X14661961Y-50098950D01*
X14800053Y-50058403D01*
X14921128Y-49980593D01*
X15015377Y-49871823D01*
X15026794Y-49846822D01*
X15068165Y-49801746D01*
X15116847Y-49788950D01*
X17190500Y-49788950D01*
X17248691Y-49807857D01*
X17284655Y-49857357D01*
X17289500Y-49887950D01*
X17289500Y-50161764D01*
X17289494Y-50220343D01*
X17289498Y-50220371D01*
X17302422Y-50268609D01*
X17302423Y-50268613D01*
X17316783Y-50322221D01*
X17342616Y-50366964D01*
X17342621Y-50366972D01*
X17369500Y-50413538D01*
X17369517Y-50413560D01*
X17408198Y-50452242D01*
X17408197Y-50452242D01*
X17408204Y-50452247D01*
X17450302Y-50494353D01*
X17478075Y-50548872D01*
X17468497Y-50609303D01*
X17425229Y-50652564D01*
X17380292Y-50663350D01*
X17352735Y-50663350D01*
X17214649Y-50703896D01*
X17214642Y-50703899D01*
X17093573Y-50781705D01*
X16999322Y-50890478D01*
X16939534Y-51021393D01*
X16919053Y-51163847D01*
X16919053Y-51163852D01*
X16939534Y-51306306D01*
X16966428Y-51365194D01*
X16999323Y-51437223D01*
X17054505Y-51500907D01*
X17093573Y-51545994D01*
X17164885Y-51591823D01*
X17214647Y-51623803D01*
X17321103Y-51655061D01*
X17352735Y-51664349D01*
X17352736Y-51664349D01*
X17352739Y-51664350D01*
X17352741Y-51664350D01*
X17496659Y-51664350D01*
X17496661Y-51664350D01*
X17634753Y-51623803D01*
X17755828Y-51545993D01*
X17850077Y-51437223D01*
X17909865Y-51306307D01*
X17930347Y-51163850D01*
X17930347Y-51163847D01*
X17930772Y-51160891D01*
X17957767Y-51105983D01*
X18011881Y-51077429D01*
X18072444Y-51086136D01*
X18078262Y-51089241D01*
X18089737Y-51095868D01*
X18091124Y-51096701D01*
X18091138Y-51096707D01*
X18093039Y-51097173D01*
X18143309Y-51110642D01*
X18143308Y-51110644D01*
X18143316Y-51110644D01*
X18192937Y-51123945D01*
X18192938Y-51123945D01*
X18192942Y-51123946D01*
X18192971Y-51123950D01*
X18245664Y-51123950D01*
X18298391Y-51123955D01*
X18298393Y-51123954D01*
X18304715Y-51123955D01*
X18304808Y-51123950D01*
X21397725Y-51123950D01*
X21397727Y-51123950D01*
X21499588Y-51096657D01*
X21499590Y-51096655D01*
X21499592Y-51096655D01*
X21590908Y-51043933D01*
X21590908Y-51043932D01*
X21590913Y-51043930D01*
X22210480Y-50424363D01*
X22243620Y-50366963D01*
X22263169Y-50333103D01*
X22263179Y-50333084D01*
X22263206Y-50333038D01*
X22263207Y-50333037D01*
X22290500Y-50231177D01*
X22290500Y-49837458D01*
X22309407Y-49779267D01*
X22314684Y-49772623D01*
X22314823Y-49772461D01*
X22315377Y-49771823D01*
X22375165Y-49640907D01*
X22382436Y-49590331D01*
X22409429Y-49535428D01*
X22410424Y-49534418D01*
X22916898Y-49027946D01*
X22971414Y-49000169D01*
X22986901Y-48998950D01*
X24258368Y-48998950D01*
X24311889Y-49014665D01*
X24379947Y-49058403D01*
X24486403Y-49089661D01*
X24518035Y-49098949D01*
X24518036Y-49098949D01*
X24518039Y-49098950D01*
X24518041Y-49098950D01*
X24649452Y-49098950D01*
X24707643Y-49117857D01*
X24743607Y-49167357D01*
X24747444Y-49183861D01*
X24762834Y-49290906D01*
X24787303Y-49344484D01*
X24822623Y-49421823D01*
X24916872Y-49530593D01*
X24916873Y-49530594D01*
X25022463Y-49598452D01*
X25037947Y-49608403D01*
X25144403Y-49639661D01*
X25176035Y-49648949D01*
X25176036Y-49648949D01*
X25176039Y-49648950D01*
X25176041Y-49648950D01*
X25319959Y-49648950D01*
X25319961Y-49648950D01*
X25458053Y-49608403D01*
X25579128Y-49530593D01*
X25673377Y-49421823D01*
X25733165Y-49290907D01*
X25753647Y-49148450D01*
X25752216Y-49138499D01*
X25733165Y-49005993D01*
X25718303Y-48973450D01*
X25673377Y-48875077D01*
X25579128Y-48766307D01*
X25579127Y-48766306D01*
X25579126Y-48766305D01*
X25458057Y-48688499D01*
X25458054Y-48688497D01*
X25458053Y-48688497D01*
X25458050Y-48688496D01*
X25319964Y-48647950D01*
X25319961Y-48647950D01*
X25188548Y-48647950D01*
X25130357Y-48629043D01*
X25094393Y-48579543D01*
X25090556Y-48563039D01*
X25075165Y-48455993D01*
X25032399Y-48362350D01*
X25015377Y-48325077D01*
X24921128Y-48216307D01*
X24921127Y-48216306D01*
X24921126Y-48216305D01*
X24800057Y-48138499D01*
X24800054Y-48138497D01*
X24800053Y-48138497D01*
X24788896Y-48135221D01*
X24661964Y-48097950D01*
X24661961Y-48097950D01*
X24518039Y-48097950D01*
X24518035Y-48097950D01*
X24379949Y-48138496D01*
X24379946Y-48138497D01*
X24357098Y-48153181D01*
X24311889Y-48182234D01*
X24258368Y-48197950D01*
X22832727Y-48197950D01*
X22727273Y-48197950D01*
X22672314Y-48212676D01*
X22625407Y-48225244D01*
X22534091Y-48277966D01*
X22534086Y-48277970D01*
X21830337Y-48981717D01*
X21788231Y-49006701D01*
X21782807Y-49008294D01*
X21721647Y-49006551D01*
X21673192Y-48969191D01*
X21655950Y-48910485D01*
X21656757Y-48900384D01*
X21670177Y-48798450D01*
X21670177Y-48798449D01*
X21649556Y-48641822D01*
X21649554Y-48641814D01*
X21589101Y-48495866D01*
X21589099Y-48495863D01*
X21585026Y-48490555D01*
X21238358Y-48837222D01*
X21240000Y-48833260D01*
X21240000Y-48763640D01*
X21213357Y-48699321D01*
X21164129Y-48650093D01*
X21099810Y-48623450D01*
X21030190Y-48623450D01*
X20965871Y-48650093D01*
X20916643Y-48699321D01*
X20890000Y-48763640D01*
X20890000Y-48833260D01*
X20916643Y-48897579D01*
X20965871Y-48946807D01*
X21030190Y-48973450D01*
X21099810Y-48973450D01*
X21103772Y-48971808D01*
X20757104Y-49318477D01*
X20762412Y-49322549D01*
X20815372Y-49344486D01*
X20861898Y-49384222D01*
X20876182Y-49443717D01*
X20852768Y-49500245D01*
X20815373Y-49527414D01*
X20762412Y-49549351D01*
X20757105Y-49553422D01*
X21103775Y-49900092D01*
X21099810Y-49898450D01*
X21030190Y-49898450D01*
X20965871Y-49925093D01*
X20916643Y-49974321D01*
X20890000Y-50038640D01*
X20890000Y-50108260D01*
X20891642Y-50112225D01*
X20544972Y-49765555D01*
X20540901Y-49770862D01*
X20518964Y-49823823D01*
X20479227Y-49870348D01*
X20419732Y-49884632D01*
X20363205Y-49861217D01*
X20336036Y-49823822D01*
X20314101Y-49770866D01*
X20314099Y-49770863D01*
X20310025Y-49765555D01*
X19963359Y-50112220D01*
X19965000Y-50108260D01*
X19965000Y-50038640D01*
X19938357Y-49974321D01*
X19889129Y-49925093D01*
X19824810Y-49898450D01*
X19755190Y-49898450D01*
X19690871Y-49925093D01*
X19641643Y-49974321D01*
X19615000Y-50038640D01*
X19615000Y-50108260D01*
X19616642Y-50112225D01*
X19269972Y-49765555D01*
X19265901Y-49770862D01*
X19243964Y-49823823D01*
X19204227Y-49870348D01*
X19144732Y-49884632D01*
X19088205Y-49861217D01*
X19061036Y-49823822D01*
X19039101Y-49770866D01*
X19039099Y-49770863D01*
X19035026Y-49765555D01*
X18688358Y-50112223D01*
X18690000Y-50108260D01*
X18690000Y-50038640D01*
X18663357Y-49974321D01*
X18614129Y-49925093D01*
X18549810Y-49898450D01*
X18480190Y-49898450D01*
X18476222Y-49900093D01*
X18822894Y-49553421D01*
X18822895Y-49553421D01*
X18817587Y-49549350D01*
X18764627Y-49527413D01*
X18718102Y-49487676D01*
X18703818Y-49428181D01*
X18727233Y-49371654D01*
X18764629Y-49344484D01*
X18817592Y-49322546D01*
X18822894Y-49318477D01*
X18822895Y-49318476D01*
X19482104Y-49318476D01*
X19487412Y-49322549D01*
X19540372Y-49344486D01*
X19586898Y-49384222D01*
X19601182Y-49443717D01*
X19577768Y-49500245D01*
X19540373Y-49527414D01*
X19487412Y-49549351D01*
X19482105Y-49553422D01*
X19790000Y-49861317D01*
X20097895Y-49553422D01*
X20097895Y-49553421D01*
X20092587Y-49549350D01*
X20039627Y-49527413D01*
X19993102Y-49487676D01*
X19978818Y-49428181D01*
X20002233Y-49371654D01*
X20039629Y-49344484D01*
X20092592Y-49322546D01*
X20097894Y-49318477D01*
X19789999Y-49010582D01*
X19482104Y-49318476D01*
X18822895Y-49318476D01*
X18515000Y-49010581D01*
X18515000Y-49010582D01*
X18476225Y-48971807D01*
X18480190Y-48973450D01*
X18549810Y-48973450D01*
X18614129Y-48946807D01*
X18663357Y-48897579D01*
X18690000Y-48833260D01*
X18690000Y-48798449D01*
X18727132Y-48798449D01*
X19035027Y-49106344D01*
X19039096Y-49101042D01*
X19061034Y-49048079D01*
X19100770Y-49001553D01*
X19160265Y-48987268D01*
X19216793Y-49010682D01*
X19243963Y-49048077D01*
X19265900Y-49101037D01*
X19269972Y-49106345D01*
X19577867Y-48798450D01*
X19543057Y-48763640D01*
X19615000Y-48763640D01*
X19615000Y-48833260D01*
X19641643Y-48897579D01*
X19690871Y-48946807D01*
X19755190Y-48973450D01*
X19824810Y-48973450D01*
X19889129Y-48946807D01*
X19938357Y-48897579D01*
X19965000Y-48833260D01*
X19965000Y-48798449D01*
X20002132Y-48798449D01*
X20310027Y-49106344D01*
X20314096Y-49101042D01*
X20336034Y-49048079D01*
X20375770Y-49001553D01*
X20435265Y-48987268D01*
X20491793Y-49010682D01*
X20518963Y-49048077D01*
X20540900Y-49101037D01*
X20544972Y-49106345D01*
X20852867Y-48798450D01*
X20544972Y-48490555D01*
X20540901Y-48495862D01*
X20518964Y-48548823D01*
X20479227Y-48595348D01*
X20419732Y-48609632D01*
X20363205Y-48586217D01*
X20336036Y-48548822D01*
X20314101Y-48495866D01*
X20314099Y-48495863D01*
X20310025Y-48490555D01*
X20002132Y-48798449D01*
X19965000Y-48798449D01*
X19965000Y-48763640D01*
X19938357Y-48699321D01*
X19889129Y-48650093D01*
X19824810Y-48623450D01*
X19755190Y-48623450D01*
X19690871Y-48650093D01*
X19641643Y-48699321D01*
X19615000Y-48763640D01*
X19543057Y-48763640D01*
X19269972Y-48490555D01*
X19265901Y-48495862D01*
X19243964Y-48548823D01*
X19204227Y-48595348D01*
X19144732Y-48609632D01*
X19088205Y-48586217D01*
X19061036Y-48548822D01*
X19039101Y-48495866D01*
X19039099Y-48495863D01*
X19035025Y-48490555D01*
X18727132Y-48798449D01*
X18690000Y-48798449D01*
X18690000Y-48763640D01*
X18663357Y-48699321D01*
X18614129Y-48650093D01*
X18549810Y-48623450D01*
X18480190Y-48623450D01*
X18415871Y-48650093D01*
X18366643Y-48699321D01*
X18340000Y-48763640D01*
X18340000Y-48833260D01*
X18341642Y-48837224D01*
X17994972Y-48490555D01*
X17990900Y-48495863D01*
X17930445Y-48641814D01*
X17930443Y-48641822D01*
X17909823Y-48798449D01*
X17909823Y-48804939D01*
X17907960Y-48804939D01*
X17898396Y-48856527D01*
X17854012Y-48898643D01*
X17793350Y-48906627D01*
X17783505Y-48904275D01*
X17761966Y-48897951D01*
X17761962Y-48897950D01*
X17761961Y-48897950D01*
X17618039Y-48897950D01*
X17618035Y-48897950D01*
X17479949Y-48938496D01*
X17479946Y-48938497D01*
X17467016Y-48946807D01*
X17427449Y-48972234D01*
X17373928Y-48987950D01*
X14852727Y-48987950D01*
X14747273Y-48987950D01*
X14696505Y-49001553D01*
X14645407Y-49015244D01*
X14554091Y-49067966D01*
X14554084Y-49067971D01*
X14544494Y-49077562D01*
X14502385Y-49102546D01*
X14379947Y-49138497D01*
X14379942Y-49138499D01*
X14258873Y-49216305D01*
X14164622Y-49325078D01*
X14104834Y-49455993D01*
X14084353Y-49598447D01*
X300500Y-49598447D01*
X300500Y-47861847D01*
X16766753Y-47861847D01*
X16766753Y-47861852D01*
X16787234Y-48004306D01*
X16847022Y-48135221D01*
X16847023Y-48135223D01*
X16917282Y-48216307D01*
X16941273Y-48243994D01*
X17052953Y-48315766D01*
X17062347Y-48321803D01*
X17168803Y-48353061D01*
X17200435Y-48362349D01*
X17200436Y-48362349D01*
X17200439Y-48362350D01*
X17200441Y-48362350D01*
X17344359Y-48362350D01*
X17344361Y-48362350D01*
X17482453Y-48321803D01*
X17603528Y-48243993D01*
X17697777Y-48135223D01*
X17739677Y-48043476D01*
X18207104Y-48043476D01*
X18212412Y-48047549D01*
X18265372Y-48069486D01*
X18311898Y-48109222D01*
X18326182Y-48168717D01*
X18302768Y-48225245D01*
X18265373Y-48252414D01*
X18212412Y-48274351D01*
X18207105Y-48278422D01*
X18515000Y-48586317D01*
X18822895Y-48278422D01*
X18822895Y-48278421D01*
X18817587Y-48274350D01*
X18764627Y-48252413D01*
X18718102Y-48212676D01*
X18703818Y-48153181D01*
X18727233Y-48096654D01*
X18764629Y-48069484D01*
X18817592Y-48047546D01*
X18822894Y-48043477D01*
X18822893Y-48043476D01*
X19482104Y-48043476D01*
X19487412Y-48047549D01*
X19540372Y-48069486D01*
X19586898Y-48109222D01*
X19601182Y-48168717D01*
X19577768Y-48225245D01*
X19540373Y-48252414D01*
X19487412Y-48274351D01*
X19482105Y-48278422D01*
X19790000Y-48586317D01*
X20097895Y-48278422D01*
X20097895Y-48278421D01*
X20092587Y-48274350D01*
X20039627Y-48252413D01*
X19993102Y-48212676D01*
X19978818Y-48153181D01*
X20002233Y-48096654D01*
X20039629Y-48069484D01*
X20092592Y-48047546D01*
X20097894Y-48043477D01*
X20097893Y-48043476D01*
X20757104Y-48043476D01*
X20762412Y-48047549D01*
X20815372Y-48069486D01*
X20861898Y-48109222D01*
X20876182Y-48168717D01*
X20852768Y-48225245D01*
X20815373Y-48252414D01*
X20762412Y-48274351D01*
X20757105Y-48278422D01*
X21065000Y-48586317D01*
X21372895Y-48278422D01*
X21372895Y-48278421D01*
X21367587Y-48274350D01*
X21314627Y-48252413D01*
X21268102Y-48212676D01*
X21253818Y-48153181D01*
X21277233Y-48096654D01*
X21314629Y-48069484D01*
X21367592Y-48047546D01*
X21372894Y-48043477D01*
X21064999Y-47735582D01*
X20757104Y-48043476D01*
X20097893Y-48043476D01*
X19789999Y-47735582D01*
X19482104Y-48043476D01*
X18822893Y-48043476D01*
X18514999Y-47735582D01*
X18207104Y-48043476D01*
X17739677Y-48043476D01*
X17757565Y-48004307D01*
X17778047Y-47861850D01*
X17775703Y-47845550D01*
X17769167Y-47800089D01*
X17779600Y-47739799D01*
X17800248Y-47719732D01*
X17751544Y-47693288D01*
X17750425Y-47691631D01*
X17890071Y-47691631D01*
X17938155Y-47717002D01*
X17958623Y-47748114D01*
X17990899Y-47826036D01*
X17994972Y-47831345D01*
X18302867Y-47523450D01*
X18268057Y-47488640D01*
X18340000Y-47488640D01*
X18340000Y-47558260D01*
X18366643Y-47622579D01*
X18415871Y-47671807D01*
X18480190Y-47698450D01*
X18549810Y-47698450D01*
X18614129Y-47671807D01*
X18663357Y-47622579D01*
X18690000Y-47558260D01*
X18690000Y-47523449D01*
X18727132Y-47523449D01*
X19035027Y-47831344D01*
X19039096Y-47826042D01*
X19061034Y-47773079D01*
X19100770Y-47726553D01*
X19160265Y-47712268D01*
X19216793Y-47735682D01*
X19243963Y-47773077D01*
X19265900Y-47826037D01*
X19269972Y-47831345D01*
X19577867Y-47523450D01*
X19543057Y-47488640D01*
X19615000Y-47488640D01*
X19615000Y-47558260D01*
X19641643Y-47622579D01*
X19690871Y-47671807D01*
X19755190Y-47698450D01*
X19824810Y-47698450D01*
X19889129Y-47671807D01*
X19938357Y-47622579D01*
X19965000Y-47558260D01*
X19965000Y-47523449D01*
X20002132Y-47523449D01*
X20310027Y-47831344D01*
X20314096Y-47826042D01*
X20336034Y-47773079D01*
X20375770Y-47726553D01*
X20435265Y-47712268D01*
X20491793Y-47735682D01*
X20518963Y-47773077D01*
X20540900Y-47826037D01*
X20544972Y-47831345D01*
X20852867Y-47523450D01*
X20818057Y-47488640D01*
X20890000Y-47488640D01*
X20890000Y-47558260D01*
X20916643Y-47622579D01*
X20965871Y-47671807D01*
X21030190Y-47698450D01*
X21099810Y-47698450D01*
X21164129Y-47671807D01*
X21213357Y-47622579D01*
X21240000Y-47558260D01*
X21240000Y-47523449D01*
X21277132Y-47523449D01*
X21585027Y-47831344D01*
X21589098Y-47826040D01*
X21649555Y-47680080D01*
X21649556Y-47680080D01*
X21670177Y-47523450D01*
X21670177Y-47523449D01*
X21649556Y-47366822D01*
X21649554Y-47366814D01*
X21589101Y-47220866D01*
X21589099Y-47220863D01*
X21585025Y-47215555D01*
X21277132Y-47523449D01*
X21240000Y-47523449D01*
X21240000Y-47488640D01*
X21213357Y-47424321D01*
X21164129Y-47375093D01*
X21099810Y-47348450D01*
X21030190Y-47348450D01*
X20965871Y-47375093D01*
X20916643Y-47424321D01*
X20890000Y-47488640D01*
X20818057Y-47488640D01*
X20544972Y-47215555D01*
X20540901Y-47220862D01*
X20518964Y-47273823D01*
X20479227Y-47320348D01*
X20419732Y-47334632D01*
X20363205Y-47311217D01*
X20336036Y-47273822D01*
X20314101Y-47220866D01*
X20314099Y-47220863D01*
X20310025Y-47215555D01*
X20002132Y-47523449D01*
X19965000Y-47523449D01*
X19965000Y-47488640D01*
X19938357Y-47424321D01*
X19889129Y-47375093D01*
X19824810Y-47348450D01*
X19755190Y-47348450D01*
X19690871Y-47375093D01*
X19641643Y-47424321D01*
X19615000Y-47488640D01*
X19543057Y-47488640D01*
X19269972Y-47215555D01*
X19265901Y-47220862D01*
X19243964Y-47273823D01*
X19204227Y-47320348D01*
X19144732Y-47334632D01*
X19088205Y-47311217D01*
X19061036Y-47273822D01*
X19039101Y-47220866D01*
X19039099Y-47220863D01*
X19035025Y-47215555D01*
X18727132Y-47523449D01*
X18690000Y-47523449D01*
X18690000Y-47488640D01*
X18663357Y-47424321D01*
X18614129Y-47375093D01*
X18549810Y-47348450D01*
X18480190Y-47348450D01*
X18415871Y-47375093D01*
X18366643Y-47424321D01*
X18340000Y-47488640D01*
X18268057Y-47488640D01*
X17994972Y-47215555D01*
X17990900Y-47220863D01*
X17930445Y-47366814D01*
X17930443Y-47366822D01*
X17909823Y-47523449D01*
X17909823Y-47523450D01*
X17921509Y-47612219D01*
X17910359Y-47672380D01*
X17890071Y-47691631D01*
X17750425Y-47691631D01*
X17733304Y-47666271D01*
X17697777Y-47588477D01*
X17603528Y-47479707D01*
X17603527Y-47479706D01*
X17603526Y-47479705D01*
X17482457Y-47401899D01*
X17482454Y-47401897D01*
X17482453Y-47401897D01*
X17482450Y-47401896D01*
X17344364Y-47361350D01*
X17344361Y-47361350D01*
X17200439Y-47361350D01*
X17200435Y-47361350D01*
X17062349Y-47401896D01*
X17062342Y-47401899D01*
X16941273Y-47479705D01*
X16847022Y-47588478D01*
X16787234Y-47719393D01*
X16766753Y-47861847D01*
X300500Y-47861847D01*
X300500Y-47003422D01*
X18207105Y-47003422D01*
X18515000Y-47311317D01*
X18822895Y-47003422D01*
X19482105Y-47003422D01*
X19790000Y-47311317D01*
X20097895Y-47003422D01*
X20757105Y-47003422D01*
X21065000Y-47311317D01*
X21182101Y-47194216D01*
X65815000Y-47194216D01*
X65815000Y-47270549D01*
X65815001Y-47270550D01*
X66315000Y-47270550D01*
X66315000Y-47570550D01*
X65815001Y-47570550D01*
X65815000Y-47570551D01*
X65815000Y-47646883D01*
X65844783Y-47796608D01*
X65844783Y-47796610D01*
X65903202Y-47937647D01*
X65988015Y-48064580D01*
X66095969Y-48172534D01*
X66222902Y-48257347D01*
X66363940Y-48315766D01*
X66440000Y-48330896D01*
X66440000Y-47806076D01*
X66535299Y-47845550D01*
X66644701Y-47845550D01*
X66740000Y-47806076D01*
X66740000Y-48330895D01*
X66816058Y-48315766D01*
X66816060Y-48315766D01*
X66957097Y-48257347D01*
X67084030Y-48172534D01*
X67191984Y-48064580D01*
X67276797Y-47937647D01*
X67335216Y-47796610D01*
X67335216Y-47796608D01*
X67364999Y-47646883D01*
X67365000Y-47646879D01*
X67365000Y-47570551D01*
X67364999Y-47570550D01*
X66865000Y-47570550D01*
X66865000Y-47270550D01*
X67364999Y-47270550D01*
X67365000Y-47270549D01*
X67365000Y-47194220D01*
X67364999Y-47194216D01*
X67335216Y-47044491D01*
X67335216Y-47044489D01*
X67276797Y-46903452D01*
X67191984Y-46776519D01*
X67084030Y-46668565D01*
X66957099Y-46583753D01*
X66816059Y-46525333D01*
X66740000Y-46510203D01*
X66740000Y-47035023D01*
X66644701Y-46995550D01*
X66535299Y-46995550D01*
X66440000Y-47035023D01*
X66440000Y-46510203D01*
X66363940Y-46525333D01*
X66222900Y-46583753D01*
X66095969Y-46668565D01*
X65988015Y-46776519D01*
X65903202Y-46903452D01*
X65844783Y-47044489D01*
X65844783Y-47044491D01*
X65815000Y-47194216D01*
X21182101Y-47194216D01*
X21372895Y-47003422D01*
X21372895Y-47003421D01*
X21367586Y-46999349D01*
X21221631Y-46938894D01*
X21221630Y-46938893D01*
X21065001Y-46918273D01*
X21064999Y-46918273D01*
X20908372Y-46938893D01*
X20908364Y-46938895D01*
X20762413Y-46999350D01*
X20757105Y-47003422D01*
X20097895Y-47003422D01*
X20097895Y-47003421D01*
X20092586Y-46999349D01*
X19946631Y-46938894D01*
X19946630Y-46938893D01*
X19790001Y-46918273D01*
X19789999Y-46918273D01*
X19633372Y-46938893D01*
X19633364Y-46938895D01*
X19487413Y-46999350D01*
X19482105Y-47003422D01*
X18822895Y-47003422D01*
X18822895Y-47003421D01*
X18817586Y-46999349D01*
X18671631Y-46938894D01*
X18671630Y-46938893D01*
X18515001Y-46918273D01*
X18514999Y-46918273D01*
X18358372Y-46938893D01*
X18358364Y-46938895D01*
X18212413Y-46999350D01*
X18207105Y-47003422D01*
X300500Y-47003422D01*
X300500Y-45632847D01*
X23021453Y-45632847D01*
X23021453Y-45632852D01*
X23041934Y-45775306D01*
X23101722Y-45906221D01*
X23101723Y-45906223D01*
X23135878Y-45945640D01*
X23195973Y-46014994D01*
X23311075Y-46088965D01*
X23317047Y-46092803D01*
X23423503Y-46124061D01*
X23455135Y-46133349D01*
X23455136Y-46133349D01*
X23455139Y-46133350D01*
X23455141Y-46133350D01*
X23599059Y-46133350D01*
X23599061Y-46133350D01*
X23737153Y-46092803D01*
X23858228Y-46014993D01*
X23952477Y-45906223D01*
X24012265Y-45775307D01*
X24032747Y-45632850D01*
X24012265Y-45490393D01*
X23952477Y-45359477D01*
X23858228Y-45250707D01*
X23858227Y-45250706D01*
X23858226Y-45250705D01*
X23737157Y-45172899D01*
X23737154Y-45172897D01*
X23737153Y-45172897D01*
X23737150Y-45172896D01*
X23599064Y-45132350D01*
X23599061Y-45132350D01*
X23455139Y-45132350D01*
X23455135Y-45132350D01*
X23317049Y-45172896D01*
X23317042Y-45172899D01*
X23195973Y-45250705D01*
X23101722Y-45359478D01*
X23041934Y-45490393D01*
X23021453Y-45632847D01*
X300500Y-45632847D01*
X300500Y-44387847D01*
X17001553Y-44387847D01*
X17001553Y-44387852D01*
X17022034Y-44530306D01*
X17081822Y-44661221D01*
X17081823Y-44661223D01*
X17176072Y-44769993D01*
X17176073Y-44769994D01*
X17297142Y-44847800D01*
X17297147Y-44847803D01*
X17403603Y-44879061D01*
X17435235Y-44888349D01*
X17435236Y-44888349D01*
X17435239Y-44888350D01*
X17435241Y-44888350D01*
X17579159Y-44888350D01*
X17579161Y-44888350D01*
X17717253Y-44847803D01*
X17838328Y-44769993D01*
X17932577Y-44661223D01*
X17992365Y-44530307D01*
X18012847Y-44387850D01*
X18005313Y-44335453D01*
X18015745Y-44275168D01*
X18033298Y-44251365D01*
X22046119Y-40238547D01*
X35813953Y-40238547D01*
X35813953Y-40238552D01*
X35834434Y-40381006D01*
X35894222Y-40511921D01*
X35894223Y-40511923D01*
X35897115Y-40515260D01*
X35988473Y-40620694D01*
X36109542Y-40698500D01*
X36109547Y-40698503D01*
X36216003Y-40729761D01*
X36247635Y-40739049D01*
X36247636Y-40739049D01*
X36247639Y-40739050D01*
X36247641Y-40739050D01*
X36391559Y-40739050D01*
X36391561Y-40739050D01*
X36529653Y-40698503D01*
X36650728Y-40620693D01*
X36744977Y-40511923D01*
X36804765Y-40381007D01*
X36825247Y-40238550D01*
X36804765Y-40096093D01*
X36744977Y-39965177D01*
X36730136Y-39948050D01*
X42076573Y-39948050D01*
X42740155Y-39948050D01*
X42717600Y-40032224D01*
X42717600Y-40163876D01*
X42740155Y-40248050D01*
X42076573Y-40248050D01*
X42082338Y-40310266D01*
X42140664Y-40515260D01*
X42235657Y-40706033D01*
X42235662Y-40706042D01*
X42364096Y-40876114D01*
X42364106Y-40876125D01*
X42521595Y-41019697D01*
X42521594Y-41019697D01*
X42702806Y-41131897D01*
X42901541Y-41208888D01*
X43067599Y-41239930D01*
X43067600Y-41239930D01*
X43067600Y-40575495D01*
X43151774Y-40598050D01*
X43283426Y-40598050D01*
X43367600Y-40575495D01*
X43367600Y-41239930D01*
X43533658Y-41208888D01*
X43732393Y-41131897D01*
X43913604Y-41019697D01*
X44071093Y-40876125D01*
X44071103Y-40876114D01*
X44199537Y-40706042D01*
X44199542Y-40706033D01*
X44294535Y-40515260D01*
X44352861Y-40310266D01*
X44358627Y-40248050D01*
X43695045Y-40248050D01*
X43717600Y-40163876D01*
X43717600Y-40032224D01*
X43695045Y-39948050D01*
X44358626Y-39948050D01*
X44352861Y-39885833D01*
X44294535Y-39680839D01*
X44199542Y-39490066D01*
X44199537Y-39490057D01*
X44071103Y-39319985D01*
X44071093Y-39319974D01*
X43913604Y-39176402D01*
X43913605Y-39176402D01*
X43732393Y-39064202D01*
X43533661Y-38987212D01*
X43533655Y-38987210D01*
X43367600Y-38956168D01*
X43367600Y-39620604D01*
X43283426Y-39598050D01*
X43151774Y-39598050D01*
X43067600Y-39620604D01*
X43067600Y-38956169D01*
X43067599Y-38956168D01*
X42901544Y-38987210D01*
X42901538Y-38987212D01*
X42702806Y-39064202D01*
X42521595Y-39176402D01*
X42364106Y-39319974D01*
X42364096Y-39319985D01*
X42235662Y-39490057D01*
X42235657Y-39490066D01*
X42140664Y-39680839D01*
X42082338Y-39885833D01*
X42076573Y-39948050D01*
X36730136Y-39948050D01*
X36650728Y-39856407D01*
X36650727Y-39856406D01*
X36650726Y-39856405D01*
X36529657Y-39778599D01*
X36529654Y-39778597D01*
X36529653Y-39778597D01*
X36529650Y-39778596D01*
X36391564Y-39738050D01*
X36391561Y-39738050D01*
X36247639Y-39738050D01*
X36247635Y-39738050D01*
X36109549Y-39778596D01*
X36109542Y-39778599D01*
X35988473Y-39856405D01*
X35894222Y-39965178D01*
X35834434Y-40096093D01*
X35813953Y-40238547D01*
X22046119Y-40238547D01*
X22472157Y-39812509D01*
X22496715Y-39753220D01*
X22514100Y-39711250D01*
X22514100Y-38399997D01*
X23654353Y-38399997D01*
X23654353Y-38400002D01*
X23674834Y-38542456D01*
X23724177Y-38650499D01*
X23734623Y-38673373D01*
X23828872Y-38782143D01*
X23828873Y-38782144D01*
X23857436Y-38800500D01*
X23949947Y-38859953D01*
X24056403Y-38891211D01*
X24088035Y-38900499D01*
X24088036Y-38900499D01*
X24088039Y-38900500D01*
X24088041Y-38900500D01*
X24231959Y-38900500D01*
X24231961Y-38900500D01*
X24370053Y-38859953D01*
X24491128Y-38782143D01*
X24585377Y-38673373D01*
X24645165Y-38542457D01*
X24665647Y-38400000D01*
X24645165Y-38257543D01*
X24585377Y-38126627D01*
X24491128Y-38017857D01*
X24491127Y-38017856D01*
X24486491Y-38012506D01*
X24488524Y-38010743D01*
X24463067Y-37968505D01*
X24460500Y-37946105D01*
X24460500Y-36677233D01*
X24479407Y-36619042D01*
X24528907Y-36583078D01*
X24590093Y-36583078D01*
X24639593Y-36619042D01*
X24649553Y-36636107D01*
X24656021Y-36650270D01*
X24656022Y-36650271D01*
X24656023Y-36650273D01*
X24729898Y-36735530D01*
X24750273Y-36759044D01*
X24853300Y-36825255D01*
X24871347Y-36836853D01*
X24977803Y-36868111D01*
X25009435Y-36877399D01*
X25009436Y-36877399D01*
X25009439Y-36877400D01*
X25009441Y-36877400D01*
X25153359Y-36877400D01*
X25153361Y-36877400D01*
X25291453Y-36836853D01*
X25412528Y-36759043D01*
X25473824Y-36688303D01*
X42167100Y-36688303D01*
X42167100Y-38427796D01*
X42167101Y-38427808D01*
X42178732Y-38486277D01*
X42178734Y-38486283D01*
X42216269Y-38542457D01*
X42223048Y-38552602D01*
X42289369Y-38596917D01*
X42333831Y-38605761D01*
X42347841Y-38608548D01*
X42347846Y-38608548D01*
X42347852Y-38608550D01*
X42347853Y-38608550D01*
X44087347Y-38608550D01*
X44087348Y-38608550D01*
X44145831Y-38596917D01*
X44212152Y-38552602D01*
X44256467Y-38486281D01*
X44268100Y-38427798D01*
X44268100Y-38399997D01*
X48954353Y-38399997D01*
X48954353Y-38400002D01*
X48974834Y-38542456D01*
X49024177Y-38650499D01*
X49034623Y-38673373D01*
X49128872Y-38782143D01*
X49128873Y-38782144D01*
X49255903Y-38863781D01*
X49255238Y-38864815D01*
X49295012Y-38901322D01*
X49307160Y-38961290D01*
X49281740Y-39016945D01*
X49255682Y-39035876D01*
X49255903Y-39036219D01*
X49128873Y-39117855D01*
X49034622Y-39226628D01*
X48974834Y-39357543D01*
X48954353Y-39499997D01*
X48954353Y-39500002D01*
X48974834Y-39642456D01*
X49006252Y-39711250D01*
X49034623Y-39773373D01*
X49106570Y-39856405D01*
X49128873Y-39882144D01*
X49249942Y-39959950D01*
X49249947Y-39959953D01*
X49356403Y-39991211D01*
X49388035Y-40000499D01*
X49388036Y-40000499D01*
X49388039Y-40000500D01*
X49388041Y-40000500D01*
X49531959Y-40000500D01*
X49531961Y-40000500D01*
X49670053Y-39959953D01*
X49791128Y-39882143D01*
X49885377Y-39773373D01*
X49945165Y-39642457D01*
X49957090Y-39559517D01*
X49965647Y-39500002D01*
X49965647Y-39499997D01*
X49945165Y-39357543D01*
X49928013Y-39319985D01*
X49885377Y-39226627D01*
X49791128Y-39117857D01*
X49791127Y-39117856D01*
X49791126Y-39117855D01*
X49664097Y-39036219D01*
X49664761Y-39035184D01*
X49624990Y-38998683D01*
X49612838Y-38938716D01*
X49638255Y-38883060D01*
X49664317Y-38864124D01*
X49664097Y-38863781D01*
X49791126Y-38782144D01*
X49791125Y-38782144D01*
X49791128Y-38782143D01*
X49885377Y-38673373D01*
X49945165Y-38542457D01*
X49965647Y-38400000D01*
X49945165Y-38257543D01*
X49885377Y-38126627D01*
X49791128Y-38017857D01*
X49791127Y-38017856D01*
X49791126Y-38017855D01*
X49670057Y-37940049D01*
X49670054Y-37940047D01*
X49670053Y-37940047D01*
X49670050Y-37940046D01*
X49531964Y-37899500D01*
X49531961Y-37899500D01*
X49388039Y-37899500D01*
X49388035Y-37899500D01*
X49249949Y-37940046D01*
X49249942Y-37940049D01*
X49128873Y-38017855D01*
X49034622Y-38126628D01*
X48974834Y-38257543D01*
X48954353Y-38399997D01*
X44268100Y-38399997D01*
X44268100Y-37199997D01*
X48954353Y-37199997D01*
X48954353Y-37200002D01*
X48974834Y-37342456D01*
X49028341Y-37459618D01*
X49034623Y-37473373D01*
X49127448Y-37580500D01*
X49128873Y-37582144D01*
X49249942Y-37659950D01*
X49249947Y-37659953D01*
X49345318Y-37687956D01*
X49388035Y-37700499D01*
X49388036Y-37700499D01*
X49388039Y-37700500D01*
X49388041Y-37700500D01*
X49531959Y-37700500D01*
X49531961Y-37700500D01*
X49670053Y-37659953D01*
X49791128Y-37582143D01*
X49885377Y-37473373D01*
X49945165Y-37342457D01*
X49962418Y-37222457D01*
X49965647Y-37200002D01*
X49965647Y-37199997D01*
X49945165Y-37057543D01*
X49889059Y-36934690D01*
X49885377Y-36926627D01*
X49791128Y-36817857D01*
X49791127Y-36817856D01*
X49791126Y-36817855D01*
X49670057Y-36740049D01*
X49670054Y-36740047D01*
X49670053Y-36740047D01*
X49670050Y-36740046D01*
X49531964Y-36699500D01*
X49531961Y-36699500D01*
X49388039Y-36699500D01*
X49388035Y-36699500D01*
X49249949Y-36740046D01*
X49249942Y-36740049D01*
X49128873Y-36817855D01*
X49034622Y-36926628D01*
X48974834Y-37057543D01*
X48954353Y-37199997D01*
X44268100Y-37199997D01*
X44268100Y-36688302D01*
X44256467Y-36629819D01*
X44212152Y-36563498D01*
X44212148Y-36563495D01*
X44145833Y-36519184D01*
X44145831Y-36519183D01*
X44145828Y-36519182D01*
X44145827Y-36519182D01*
X44087358Y-36507551D01*
X44087348Y-36507550D01*
X42347852Y-36507550D01*
X42347851Y-36507550D01*
X42347841Y-36507551D01*
X42289372Y-36519182D01*
X42289366Y-36519184D01*
X42223051Y-36563495D01*
X42223045Y-36563501D01*
X42178734Y-36629816D01*
X42178732Y-36629822D01*
X42167101Y-36688291D01*
X42167100Y-36688303D01*
X25473824Y-36688303D01*
X25506777Y-36650273D01*
X25566565Y-36519357D01*
X25581632Y-36414562D01*
X25587047Y-36376902D01*
X25587047Y-36376897D01*
X25566565Y-36234443D01*
X25563856Y-36228511D01*
X25506777Y-36103527D01*
X25412528Y-35994757D01*
X25412527Y-35994756D01*
X25412526Y-35994755D01*
X25291457Y-35916949D01*
X25291454Y-35916947D01*
X25291453Y-35916947D01*
X25291450Y-35916946D01*
X25153364Y-35876400D01*
X25153361Y-35876400D01*
X25009439Y-35876400D01*
X25009435Y-35876400D01*
X24871349Y-35916946D01*
X24871342Y-35916949D01*
X24750273Y-35994755D01*
X24656022Y-36103527D01*
X24649553Y-36117694D01*
X24608180Y-36162771D01*
X24548213Y-36174920D01*
X24492557Y-36149502D01*
X24462471Y-36096224D01*
X24460500Y-36076566D01*
X24460500Y-35065477D01*
X24479407Y-35007286D01*
X24489484Y-34995486D01*
X24734972Y-34749997D01*
X28284353Y-34749997D01*
X28284353Y-34750002D01*
X28304834Y-34892456D01*
X28345794Y-34982144D01*
X28364623Y-35023373D01*
X28432738Y-35101982D01*
X28458873Y-35132144D01*
X28579942Y-35209950D01*
X28579947Y-35209953D01*
X28591966Y-35213482D01*
X28642474Y-35248014D01*
X28663038Y-35305641D01*
X28654132Y-35349598D01*
X28604833Y-35457545D01*
X28584353Y-35599997D01*
X28584353Y-35600002D01*
X28604834Y-35742456D01*
X28623810Y-35784007D01*
X28664623Y-35873373D01*
X28702379Y-35916946D01*
X28758873Y-35982144D01*
X28879942Y-36059950D01*
X28879947Y-36059953D01*
X28986403Y-36091211D01*
X29018035Y-36100499D01*
X29018036Y-36100499D01*
X29018039Y-36100500D01*
X29018041Y-36100500D01*
X29161959Y-36100500D01*
X29161961Y-36100500D01*
X29300053Y-36059953D01*
X29421128Y-35982143D01*
X29492307Y-35899997D01*
X48954353Y-35899997D01*
X48954353Y-35900002D01*
X48974834Y-36042456D01*
X49023721Y-36149502D01*
X49034623Y-36173373D01*
X49112606Y-36263371D01*
X49128873Y-36282144D01*
X49240570Y-36353927D01*
X49249947Y-36359953D01*
X49343172Y-36387326D01*
X49388035Y-36400499D01*
X49388036Y-36400499D01*
X49388039Y-36400500D01*
X49388041Y-36400500D01*
X49531959Y-36400500D01*
X49531961Y-36400500D01*
X49670053Y-36359953D01*
X49763342Y-36300000D01*
X54434357Y-36300000D01*
X54454885Y-36521536D01*
X54515771Y-36735528D01*
X54614942Y-36934689D01*
X54749019Y-37112236D01*
X54913438Y-37262124D01*
X55102599Y-37379247D01*
X55310060Y-37459618D01*
X55528757Y-37500500D01*
X55751243Y-37500500D01*
X55969940Y-37459618D01*
X56177401Y-37379247D01*
X56366562Y-37262124D01*
X56530981Y-37112236D01*
X56665058Y-36934689D01*
X56764229Y-36735528D01*
X56825115Y-36521536D01*
X56845643Y-36300000D01*
X56825115Y-36078464D01*
X56764229Y-35864472D01*
X56665058Y-35665311D01*
X56530981Y-35487764D01*
X56366562Y-35337876D01*
X56273497Y-35280253D01*
X64439500Y-35280253D01*
X64439500Y-37319746D01*
X64439501Y-37319758D01*
X64451132Y-37378227D01*
X64451134Y-37378233D01*
X64493705Y-37441944D01*
X64495448Y-37444552D01*
X64561769Y-37488867D01*
X64606231Y-37497711D01*
X64620241Y-37500498D01*
X64620246Y-37500498D01*
X64620252Y-37500500D01*
X64620253Y-37500500D01*
X66659747Y-37500500D01*
X66659748Y-37500500D01*
X66718231Y-37488867D01*
X66784552Y-37444552D01*
X66828867Y-37378231D01*
X66840500Y-37319748D01*
X66840500Y-35280252D01*
X66828867Y-35221769D01*
X66784552Y-35155448D01*
X66762005Y-35140382D01*
X66718233Y-35111134D01*
X66718231Y-35111133D01*
X66718228Y-35111132D01*
X66718227Y-35111132D01*
X66659758Y-35099501D01*
X66659748Y-35099500D01*
X64620252Y-35099500D01*
X64620251Y-35099500D01*
X64620241Y-35099501D01*
X64561772Y-35111132D01*
X64561766Y-35111134D01*
X64495451Y-35155445D01*
X64495445Y-35155451D01*
X64451134Y-35221766D01*
X64451132Y-35221772D01*
X64439501Y-35280241D01*
X64439500Y-35280253D01*
X56273497Y-35280253D01*
X56177401Y-35220753D01*
X55969940Y-35140382D01*
X55969939Y-35140381D01*
X55969937Y-35140381D01*
X55751243Y-35099500D01*
X55528757Y-35099500D01*
X55310062Y-35140381D01*
X55246145Y-35165143D01*
X55102599Y-35220753D01*
X55001259Y-35283500D01*
X54913438Y-35337876D01*
X54749020Y-35487763D01*
X54614943Y-35665309D01*
X54614938Y-35665318D01*
X54515772Y-35864469D01*
X54515771Y-35864472D01*
X54454885Y-36078464D01*
X54434357Y-36300000D01*
X49763342Y-36300000D01*
X49791128Y-36282143D01*
X49885377Y-36173373D01*
X49945165Y-36042457D01*
X49963210Y-35916949D01*
X49965647Y-35900002D01*
X49965647Y-35899997D01*
X49945165Y-35757543D01*
X49938275Y-35742456D01*
X49885377Y-35626627D01*
X49791128Y-35517857D01*
X49791127Y-35517856D01*
X49791126Y-35517855D01*
X49670057Y-35440049D01*
X49670054Y-35440047D01*
X49670053Y-35440047D01*
X49670050Y-35440046D01*
X49531964Y-35399500D01*
X49531961Y-35399500D01*
X49388039Y-35399500D01*
X49388035Y-35399500D01*
X49249949Y-35440046D01*
X49249942Y-35440049D01*
X49128873Y-35517855D01*
X49034622Y-35626628D01*
X48974834Y-35757543D01*
X48954353Y-35899997D01*
X29492307Y-35899997D01*
X29515377Y-35873373D01*
X29575165Y-35742457D01*
X29591819Y-35626627D01*
X29595647Y-35600002D01*
X29595647Y-35599997D01*
X29575165Y-35457543D01*
X29530573Y-35359901D01*
X29515377Y-35326627D01*
X29421128Y-35217857D01*
X29421127Y-35217856D01*
X29421126Y-35217855D01*
X29300057Y-35140049D01*
X29300054Y-35140047D01*
X29300053Y-35140047D01*
X29288029Y-35136516D01*
X29237523Y-35101982D01*
X29216961Y-35044355D01*
X29225867Y-35000402D01*
X29275165Y-34892457D01*
X29288386Y-34800500D01*
X29295647Y-34750002D01*
X29295647Y-34749997D01*
X29275165Y-34607543D01*
X29271719Y-34599997D01*
X29215377Y-34476627D01*
X29121128Y-34367857D01*
X29121127Y-34367856D01*
X29121126Y-34367855D01*
X29000057Y-34290049D01*
X29000054Y-34290047D01*
X29000053Y-34290047D01*
X29000050Y-34290046D01*
X28861964Y-34249500D01*
X28861961Y-34249500D01*
X28718039Y-34249500D01*
X28718035Y-34249500D01*
X28579949Y-34290046D01*
X28579942Y-34290049D01*
X28458873Y-34367855D01*
X28364622Y-34476628D01*
X28304834Y-34607543D01*
X28284353Y-34749997D01*
X24734972Y-34749997D01*
X24755475Y-34729494D01*
X24809990Y-34701719D01*
X24825477Y-34700500D01*
X24931959Y-34700500D01*
X24931961Y-34700500D01*
X25070053Y-34659953D01*
X25191128Y-34582143D01*
X25285377Y-34473373D01*
X25345165Y-34342457D01*
X25358530Y-34249500D01*
X25365647Y-34200002D01*
X25365647Y-34199997D01*
X25345165Y-34057543D01*
X25331046Y-34026627D01*
X25285377Y-33926627D01*
X25191128Y-33817857D01*
X25191127Y-33817856D01*
X25191126Y-33817855D01*
X25070057Y-33740049D01*
X25070054Y-33740047D01*
X25070053Y-33740047D01*
X25043138Y-33732144D01*
X24931964Y-33699500D01*
X24931961Y-33699500D01*
X24788039Y-33699500D01*
X24788035Y-33699500D01*
X24649949Y-33740046D01*
X24649942Y-33740049D01*
X24528873Y-33817855D01*
X24434622Y-33926628D01*
X24374834Y-34057543D01*
X24354353Y-34199996D01*
X24354353Y-34199997D01*
X24354353Y-34200000D01*
X24357442Y-34221482D01*
X24357442Y-34221483D01*
X24347007Y-34281772D01*
X24329453Y-34305574D01*
X23975489Y-34659539D01*
X23919539Y-34715489D01*
X23879980Y-34784007D01*
X23879978Y-34784011D01*
X23859500Y-34860435D01*
X23859500Y-37946105D01*
X23840593Y-38004296D01*
X23833258Y-38012289D01*
X23833509Y-38012506D01*
X23734622Y-38126628D01*
X23674834Y-38257543D01*
X23654353Y-38399997D01*
X22514100Y-38399997D01*
X22514100Y-34447923D01*
X22533007Y-34389732D01*
X22543096Y-34377919D01*
X22771119Y-34149896D01*
X22825636Y-34122119D01*
X22841123Y-34120900D01*
X22982959Y-34120900D01*
X22982961Y-34120900D01*
X23121053Y-34080353D01*
X23242128Y-34002543D01*
X23336377Y-33893773D01*
X23396165Y-33762857D01*
X23411938Y-33653153D01*
X23416647Y-33620402D01*
X23416647Y-33620397D01*
X23396165Y-33477943D01*
X23390972Y-33466573D01*
X23337733Y-33349997D01*
X31084353Y-33349997D01*
X31084353Y-33350002D01*
X31104834Y-33492456D01*
X31162103Y-33617855D01*
X31164623Y-33623373D01*
X31254329Y-33726900D01*
X31258873Y-33732144D01*
X31366282Y-33801171D01*
X31379947Y-33809953D01*
X31482436Y-33840046D01*
X31518035Y-33850499D01*
X31518036Y-33850499D01*
X31518039Y-33850500D01*
X31518041Y-33850500D01*
X31661959Y-33850500D01*
X31661961Y-33850500D01*
X31800053Y-33809953D01*
X31921128Y-33732143D01*
X32015377Y-33623373D01*
X32075165Y-33492457D01*
X32095647Y-33350000D01*
X32094893Y-33344757D01*
X32075165Y-33207543D01*
X32068613Y-33193197D01*
X32015377Y-33076627D01*
X31921128Y-32967857D01*
X31921127Y-32967856D01*
X31921126Y-32967855D01*
X31800057Y-32890049D01*
X31800054Y-32890047D01*
X31800053Y-32890047D01*
X31800050Y-32890046D01*
X31661964Y-32849500D01*
X31661961Y-32849500D01*
X31518039Y-32849500D01*
X31518035Y-32849500D01*
X31379949Y-32890046D01*
X31379942Y-32890049D01*
X31258873Y-32967855D01*
X31164622Y-33076628D01*
X31104834Y-33207543D01*
X31084353Y-33349997D01*
X23337733Y-33349997D01*
X23336377Y-33347027D01*
X23242128Y-33238257D01*
X23242127Y-33238256D01*
X23242126Y-33238255D01*
X23121057Y-33160449D01*
X23121054Y-33160447D01*
X23121053Y-33160447D01*
X23121050Y-33160446D01*
X22982964Y-33119900D01*
X22982961Y-33119900D01*
X22839039Y-33119900D01*
X22839035Y-33119900D01*
X22700949Y-33160446D01*
X22700942Y-33160449D01*
X22579873Y-33238255D01*
X22485622Y-33347028D01*
X22425834Y-33477943D01*
X22405353Y-33620397D01*
X22405353Y-33620403D01*
X22412885Y-33672794D01*
X22402451Y-33733083D01*
X22384897Y-33756885D01*
X22082542Y-34059242D01*
X22005046Y-34136738D01*
X22005044Y-34136740D01*
X22005043Y-34136742D01*
X21971444Y-34217857D01*
X21963100Y-34238000D01*
X21963100Y-39501326D01*
X21944193Y-39559517D01*
X21934104Y-39571330D01*
X20173050Y-41332383D01*
X20118533Y-41360160D01*
X20058101Y-41350589D01*
X20014836Y-41307324D01*
X20013006Y-41303535D01*
X19992977Y-41259677D01*
X19898728Y-41150907D01*
X19898727Y-41150906D01*
X19898726Y-41150905D01*
X19777657Y-41073099D01*
X19777654Y-41073097D01*
X19777653Y-41073097D01*
X19777650Y-41073096D01*
X19639564Y-41032550D01*
X19639561Y-41032550D01*
X19495639Y-41032550D01*
X19495635Y-41032550D01*
X19357549Y-41073096D01*
X19357542Y-41073099D01*
X19236473Y-41150905D01*
X19142222Y-41259678D01*
X19082434Y-41390593D01*
X19061953Y-41533047D01*
X19061953Y-41533052D01*
X19082434Y-41675506D01*
X19142222Y-41806421D01*
X19142223Y-41806423D01*
X19236472Y-41915193D01*
X19236473Y-41915194D01*
X19348485Y-41987179D01*
X19387216Y-42034545D01*
X19390710Y-42095630D01*
X19364966Y-42140467D01*
X17647080Y-43858354D01*
X17592563Y-43886131D01*
X17577076Y-43887350D01*
X17435235Y-43887350D01*
X17297149Y-43927896D01*
X17297142Y-43927899D01*
X17176073Y-44005705D01*
X17081822Y-44114478D01*
X17022034Y-44245393D01*
X17001553Y-44387847D01*
X300500Y-44387847D01*
X300500Y-41204647D01*
X17084353Y-41204647D01*
X17084353Y-41204652D01*
X17104834Y-41347106D01*
X17164622Y-41478021D01*
X17164623Y-41478023D01*
X17212304Y-41533050D01*
X17258873Y-41586794D01*
X17379942Y-41664600D01*
X17379947Y-41664603D01*
X17486403Y-41695861D01*
X17518035Y-41705149D01*
X17518036Y-41705149D01*
X17518039Y-41705150D01*
X17518041Y-41705150D01*
X17661959Y-41705150D01*
X17661961Y-41705150D01*
X17800053Y-41664603D01*
X17921128Y-41586793D01*
X18015377Y-41478023D01*
X18075165Y-41347107D01*
X18087735Y-41259678D01*
X18095647Y-41204652D01*
X18095647Y-41204647D01*
X18075165Y-41062193D01*
X18061627Y-41032550D01*
X18015377Y-40931277D01*
X17921128Y-40822507D01*
X17921127Y-40822506D01*
X17921126Y-40822505D01*
X17800057Y-40744699D01*
X17800054Y-40744697D01*
X17800053Y-40744697D01*
X17800050Y-40744696D01*
X17661964Y-40704150D01*
X17661961Y-40704150D01*
X17518039Y-40704150D01*
X17518035Y-40704150D01*
X17379949Y-40744696D01*
X17379942Y-40744699D01*
X17258873Y-40822505D01*
X17164622Y-40931278D01*
X17104834Y-41062193D01*
X17084353Y-41204647D01*
X300500Y-41204647D01*
X300500Y-38399997D01*
X1554353Y-38399997D01*
X1554353Y-38400002D01*
X1574834Y-38542456D01*
X1624177Y-38650499D01*
X1634623Y-38673373D01*
X1728872Y-38782143D01*
X1728873Y-38782144D01*
X1757436Y-38800500D01*
X1849947Y-38859953D01*
X1956403Y-38891211D01*
X1988035Y-38900499D01*
X1988036Y-38900499D01*
X1988039Y-38900500D01*
X1988041Y-38900500D01*
X2131959Y-38900500D01*
X2131961Y-38900500D01*
X2270053Y-38859953D01*
X2391128Y-38782143D01*
X2485377Y-38673373D01*
X2545165Y-38542457D01*
X2565647Y-38400000D01*
X2551269Y-38299997D01*
X11954353Y-38299997D01*
X11954353Y-38300002D01*
X11974834Y-38442456D01*
X12020504Y-38542457D01*
X12034623Y-38573373D01*
X12121271Y-38673371D01*
X12128873Y-38682144D01*
X12249942Y-38759950D01*
X12249947Y-38759953D01*
X12356403Y-38791211D01*
X12388035Y-38800499D01*
X12388036Y-38800499D01*
X12388039Y-38800500D01*
X12388041Y-38800500D01*
X12531959Y-38800500D01*
X12531961Y-38800500D01*
X12670053Y-38759953D01*
X12791128Y-38682143D01*
X12885377Y-38573373D01*
X12945165Y-38442457D01*
X12965647Y-38300000D01*
X12964562Y-38292457D01*
X12945165Y-38157543D01*
X12941719Y-38149997D01*
X16384353Y-38149997D01*
X16384353Y-38150002D01*
X16404834Y-38292456D01*
X16453947Y-38399997D01*
X16464623Y-38423373D01*
X16558872Y-38532143D01*
X16558873Y-38532144D01*
X16677764Y-38608550D01*
X16679947Y-38609953D01*
X16786403Y-38641211D01*
X16818035Y-38650499D01*
X16818036Y-38650499D01*
X16818039Y-38650500D01*
X16818041Y-38650500D01*
X16961959Y-38650500D01*
X16961961Y-38650500D01*
X17100053Y-38609953D01*
X17221128Y-38532143D01*
X17315377Y-38423373D01*
X17375165Y-38292457D01*
X17392239Y-38173698D01*
X17419234Y-38118792D01*
X17429241Y-38109806D01*
X19323044Y-36628969D01*
X19334511Y-36621232D01*
X19344511Y-36615460D01*
X19355267Y-36604703D01*
X19364279Y-36596726D01*
X19376268Y-36587353D01*
X19383216Y-36578123D01*
X19392295Y-36567674D01*
X19400460Y-36559511D01*
X19408070Y-36546328D01*
X19414703Y-36536302D01*
X19423859Y-36524143D01*
X19428179Y-36513436D01*
X19434245Y-36500992D01*
X19440021Y-36490989D01*
X19443958Y-36476294D01*
X19447775Y-36464879D01*
X19453470Y-36450770D01*
X19454872Y-36439308D01*
X19457515Y-36425698D01*
X19460500Y-36414562D01*
X19460500Y-36399350D01*
X19461233Y-36387326D01*
X19463080Y-36372232D01*
X19463067Y-36372143D01*
X19461469Y-36360803D01*
X19460500Y-36346984D01*
X19460500Y-34453893D01*
X19479407Y-34395702D01*
X19486741Y-34387711D01*
X19486491Y-34387494D01*
X19494788Y-34377919D01*
X19585377Y-34273373D01*
X19645165Y-34142457D01*
X19661819Y-34026627D01*
X19665647Y-34000002D01*
X19665647Y-33999997D01*
X19645165Y-33857543D01*
X19601922Y-33762856D01*
X19585377Y-33726627D01*
X19491128Y-33617857D01*
X19491127Y-33617856D01*
X19491126Y-33617855D01*
X19370057Y-33540049D01*
X19370054Y-33540047D01*
X19370053Y-33540047D01*
X19355143Y-33535669D01*
X19231964Y-33499500D01*
X19231961Y-33499500D01*
X19088039Y-33499500D01*
X19088035Y-33499500D01*
X18949949Y-33540046D01*
X18949942Y-33540049D01*
X18828873Y-33617855D01*
X18734622Y-33726628D01*
X18674834Y-33857543D01*
X18654353Y-33999997D01*
X18654353Y-34000002D01*
X18674834Y-34142456D01*
X18723720Y-34249500D01*
X18734623Y-34273373D01*
X18816493Y-34367857D01*
X18833509Y-34387494D01*
X18831471Y-34389259D01*
X18856925Y-34431458D01*
X18859500Y-34453893D01*
X18859500Y-36180250D01*
X18840593Y-36238441D01*
X18821482Y-36258238D01*
X17060389Y-37635303D01*
X17002902Y-37656253D01*
X16971518Y-37652306D01*
X16961962Y-37649500D01*
X16961961Y-37649500D01*
X16818039Y-37649500D01*
X16818035Y-37649500D01*
X16679949Y-37690046D01*
X16679942Y-37690049D01*
X16558873Y-37767855D01*
X16464622Y-37876628D01*
X16404834Y-38007543D01*
X16384353Y-38149997D01*
X12941719Y-38149997D01*
X12885377Y-38026628D01*
X12885377Y-38026627D01*
X12791128Y-37917857D01*
X12791127Y-37917856D01*
X12786491Y-37912506D01*
X12788524Y-37910743D01*
X12763067Y-37868505D01*
X12760500Y-37846105D01*
X12760500Y-37545497D01*
X13092953Y-37545497D01*
X13092953Y-37545502D01*
X13113434Y-37687956D01*
X13173222Y-37818871D01*
X13173223Y-37818873D01*
X13267472Y-37927643D01*
X13267473Y-37927644D01*
X13388542Y-38005450D01*
X13388547Y-38005453D01*
X13495003Y-38036711D01*
X13526635Y-38045999D01*
X13526636Y-38045999D01*
X13526639Y-38046000D01*
X13526641Y-38046000D01*
X13670559Y-38046000D01*
X13670561Y-38046000D01*
X13808653Y-38005453D01*
X13929728Y-37927643D01*
X14023977Y-37818873D01*
X14083765Y-37687957D01*
X14091335Y-37635303D01*
X14104247Y-37545502D01*
X14104247Y-37545497D01*
X14083765Y-37403043D01*
X14072897Y-37379246D01*
X14023977Y-37272127D01*
X13929728Y-37163357D01*
X13929727Y-37163356D01*
X13929726Y-37163355D01*
X13808657Y-37085549D01*
X13808654Y-37085547D01*
X13808653Y-37085547D01*
X13808650Y-37085546D01*
X13720958Y-37059797D01*
X14791453Y-37059797D01*
X14791453Y-37059802D01*
X14811934Y-37202256D01*
X14871722Y-37333171D01*
X14871723Y-37333173D01*
X14965972Y-37441943D01*
X14965973Y-37441944D01*
X15087042Y-37519750D01*
X15087047Y-37519753D01*
X15174741Y-37545502D01*
X15225135Y-37560299D01*
X15225136Y-37560299D01*
X15225139Y-37560300D01*
X15225141Y-37560300D01*
X15369059Y-37560300D01*
X15369061Y-37560300D01*
X15507153Y-37519753D01*
X15628228Y-37441943D01*
X15722477Y-37333173D01*
X15782265Y-37202257D01*
X15799045Y-37085547D01*
X15802747Y-37059802D01*
X15802747Y-37059797D01*
X15782265Y-36917343D01*
X15745506Y-36836853D01*
X15722477Y-36786427D01*
X15628228Y-36677657D01*
X15628227Y-36677656D01*
X15628226Y-36677655D01*
X15507157Y-36599849D01*
X15507154Y-36599847D01*
X15507153Y-36599847D01*
X15507150Y-36599846D01*
X15369064Y-36559300D01*
X15369061Y-36559300D01*
X15225139Y-36559300D01*
X15225135Y-36559300D01*
X15087049Y-36599846D01*
X15087042Y-36599849D01*
X14965973Y-36677655D01*
X14871722Y-36786428D01*
X14811934Y-36917343D01*
X14791453Y-37059797D01*
X13720958Y-37059797D01*
X13670564Y-37045000D01*
X13670561Y-37045000D01*
X13526639Y-37045000D01*
X13526635Y-37045000D01*
X13388549Y-37085546D01*
X13388542Y-37085549D01*
X13267473Y-37163355D01*
X13173222Y-37272128D01*
X13113434Y-37403043D01*
X13092953Y-37545497D01*
X12760500Y-37545497D01*
X12760500Y-36065478D01*
X12779407Y-36007287D01*
X12789490Y-35995480D01*
X14055474Y-34729495D01*
X14109991Y-34701719D01*
X14125478Y-34700500D01*
X14231959Y-34700500D01*
X14231961Y-34700500D01*
X14370053Y-34659953D01*
X14491128Y-34582143D01*
X14585377Y-34473373D01*
X14645165Y-34342457D01*
X14658530Y-34249500D01*
X14665647Y-34200002D01*
X14665647Y-34199997D01*
X14645165Y-34057543D01*
X14631046Y-34026627D01*
X14585377Y-33926627D01*
X14525504Y-33857529D01*
X14501688Y-33801171D01*
X14515547Y-33741576D01*
X14561788Y-33701509D01*
X14600325Y-33693700D01*
X14684559Y-33693700D01*
X14684561Y-33693700D01*
X14822653Y-33653153D01*
X14943728Y-33575343D01*
X15037977Y-33466573D01*
X15097765Y-33335657D01*
X15118247Y-33193200D01*
X15113538Y-33160449D01*
X15097765Y-33050743D01*
X15037977Y-32919828D01*
X15037977Y-32919827D01*
X14943728Y-32811057D01*
X14943727Y-32811056D01*
X14943726Y-32811055D01*
X14822657Y-32733249D01*
X14822654Y-32733247D01*
X14822653Y-32733247D01*
X14822650Y-32733246D01*
X14684564Y-32692700D01*
X14684561Y-32692700D01*
X14540639Y-32692700D01*
X14540635Y-32692700D01*
X14402549Y-32733246D01*
X14402542Y-32733249D01*
X14281473Y-32811055D01*
X14187222Y-32919828D01*
X14127434Y-33050743D01*
X14106953Y-33193197D01*
X14106953Y-33193202D01*
X14127434Y-33335656D01*
X14133985Y-33350000D01*
X14187223Y-33466573D01*
X14247095Y-33535669D01*
X14270912Y-33592029D01*
X14257053Y-33651624D01*
X14210812Y-33691691D01*
X14172275Y-33699500D01*
X14088035Y-33699500D01*
X13949949Y-33740046D01*
X13949942Y-33740049D01*
X13828873Y-33817855D01*
X13734622Y-33926628D01*
X13674834Y-34057543D01*
X13654353Y-34199997D01*
X13654353Y-34200003D01*
X13657441Y-34221482D01*
X13647007Y-34281771D01*
X13629453Y-34305574D01*
X12275489Y-35659540D01*
X12275488Y-35659539D01*
X12219539Y-35715489D01*
X12179980Y-35784007D01*
X12179978Y-35784011D01*
X12159500Y-35860435D01*
X12159500Y-37846105D01*
X12140593Y-37904296D01*
X12133258Y-37912289D01*
X12133509Y-37912506D01*
X12128872Y-37917856D01*
X12128872Y-37917857D01*
X12109643Y-37940049D01*
X12034622Y-38026628D01*
X11974834Y-38157543D01*
X11954353Y-38299997D01*
X2551269Y-38299997D01*
X2545165Y-38257543D01*
X2485377Y-38126627D01*
X2391128Y-38017857D01*
X2391127Y-38017856D01*
X2391126Y-38017855D01*
X2270057Y-37940049D01*
X2270054Y-37940047D01*
X2270053Y-37940047D01*
X2270050Y-37940046D01*
X2131964Y-37899500D01*
X2131961Y-37899500D01*
X1988039Y-37899500D01*
X1988035Y-37899500D01*
X1849949Y-37940046D01*
X1849942Y-37940049D01*
X1728873Y-38017855D01*
X1634622Y-38126628D01*
X1574834Y-38257543D01*
X1554353Y-38399997D01*
X300500Y-38399997D01*
X300500Y-37079997D01*
X4964353Y-37079997D01*
X4964353Y-37080002D01*
X4984834Y-37222456D01*
X5007519Y-37272128D01*
X5044623Y-37353373D01*
X5123631Y-37444554D01*
X5138873Y-37462144D01*
X5228510Y-37519750D01*
X5259947Y-37539953D01*
X5366403Y-37571211D01*
X5398035Y-37580499D01*
X5398036Y-37580499D01*
X5398039Y-37580500D01*
X5398041Y-37580500D01*
X5541959Y-37580500D01*
X5541961Y-37580500D01*
X5680053Y-37539953D01*
X5801128Y-37462143D01*
X5895377Y-37353373D01*
X5955165Y-37222457D01*
X5957330Y-37207397D01*
X10210353Y-37207397D01*
X10210353Y-37207402D01*
X10230834Y-37349856D01*
X10287243Y-37473373D01*
X10290623Y-37480773D01*
X10377036Y-37580500D01*
X10384873Y-37589544D01*
X10505942Y-37667350D01*
X10505947Y-37667353D01*
X10612403Y-37698611D01*
X10644035Y-37707899D01*
X10644036Y-37707899D01*
X10644039Y-37707900D01*
X10644041Y-37707900D01*
X10787959Y-37707900D01*
X10787961Y-37707900D01*
X10926053Y-37667353D01*
X11047128Y-37589543D01*
X11141377Y-37480773D01*
X11201165Y-37349857D01*
X11219482Y-37222457D01*
X11221647Y-37207402D01*
X11221647Y-37207397D01*
X11201165Y-37064943D01*
X11192057Y-37045000D01*
X11141377Y-36934027D01*
X11047128Y-36825257D01*
X11047127Y-36825256D01*
X11047126Y-36825255D01*
X10926057Y-36747449D01*
X10926054Y-36747447D01*
X10926053Y-36747447D01*
X10926050Y-36747446D01*
X10787964Y-36706900D01*
X10787961Y-36706900D01*
X10644039Y-36706900D01*
X10644035Y-36706900D01*
X10505949Y-36747446D01*
X10505942Y-36747449D01*
X10384873Y-36825255D01*
X10290622Y-36934028D01*
X10230834Y-37064943D01*
X10210353Y-37207397D01*
X5957330Y-37207397D01*
X5963662Y-37163357D01*
X5975647Y-37080002D01*
X5975647Y-37079997D01*
X5955165Y-36937543D01*
X5909181Y-36836853D01*
X5895377Y-36806627D01*
X5801128Y-36697857D01*
X5801127Y-36697856D01*
X5801126Y-36697855D01*
X5680057Y-36620049D01*
X5680054Y-36620047D01*
X5680053Y-36620047D01*
X5680050Y-36620046D01*
X5541964Y-36579500D01*
X5541961Y-36579500D01*
X5398039Y-36579500D01*
X5398035Y-36579500D01*
X5259949Y-36620046D01*
X5259942Y-36620049D01*
X5138873Y-36697855D01*
X5044622Y-36806628D01*
X4984834Y-36937543D01*
X4964353Y-37079997D01*
X300500Y-37079997D01*
X300500Y-35989997D01*
X2584353Y-35989997D01*
X2584353Y-35990002D01*
X2604834Y-36132456D01*
X2655111Y-36242545D01*
X2664623Y-36263373D01*
X2749046Y-36360803D01*
X2758873Y-36372144D01*
X2863383Y-36439308D01*
X2879947Y-36449953D01*
X2986403Y-36481211D01*
X3018035Y-36490499D01*
X3018036Y-36490499D01*
X3018039Y-36490500D01*
X3018041Y-36490500D01*
X3161959Y-36490500D01*
X3161961Y-36490500D01*
X3300053Y-36449953D01*
X3421128Y-36372143D01*
X3515377Y-36263373D01*
X3575165Y-36132457D01*
X3593162Y-36007287D01*
X3595647Y-35990002D01*
X3595647Y-35989997D01*
X3577013Y-35860398D01*
X4663071Y-35860398D01*
X4663071Y-35860403D01*
X4683552Y-36002857D01*
X4743340Y-36133772D01*
X4743341Y-36133774D01*
X4834035Y-36238441D01*
X4837591Y-36242545D01*
X4899207Y-36282143D01*
X4958665Y-36320354D01*
X5049360Y-36346984D01*
X5096753Y-36360900D01*
X5096754Y-36360900D01*
X5096757Y-36360901D01*
X5096759Y-36360901D01*
X5240677Y-36360901D01*
X5240679Y-36360901D01*
X5378771Y-36320354D01*
X5499846Y-36242544D01*
X5594095Y-36133774D01*
X5653883Y-36002858D01*
X5674365Y-35860401D01*
X5672516Y-35847543D01*
X5653883Y-35717944D01*
X5600019Y-35600000D01*
X5594095Y-35587028D01*
X5499846Y-35478258D01*
X5499845Y-35478257D01*
X5499844Y-35478256D01*
X5378775Y-35400450D01*
X5378772Y-35400448D01*
X5378771Y-35400448D01*
X5378768Y-35400447D01*
X5240682Y-35359901D01*
X5240679Y-35359901D01*
X5096757Y-35359901D01*
X5096753Y-35359901D01*
X4958667Y-35400447D01*
X4958660Y-35400450D01*
X4837591Y-35478256D01*
X4743340Y-35587029D01*
X4683552Y-35717944D01*
X4663071Y-35860398D01*
X3577013Y-35860398D01*
X3575165Y-35847543D01*
X3515377Y-35716627D01*
X3421128Y-35607857D01*
X3421127Y-35607856D01*
X3421126Y-35607855D01*
X3300057Y-35530049D01*
X3300054Y-35530047D01*
X3300053Y-35530047D01*
X3300050Y-35530046D01*
X3161964Y-35489500D01*
X3161961Y-35489500D01*
X3018039Y-35489500D01*
X3018035Y-35489500D01*
X2879949Y-35530046D01*
X2879942Y-35530049D01*
X2758873Y-35607855D01*
X2664622Y-35716628D01*
X2604834Y-35847543D01*
X2584353Y-35989997D01*
X300500Y-35989997D01*
X300500Y-34782997D01*
X6843453Y-34782997D01*
X6843453Y-34783002D01*
X6863934Y-34925456D01*
X6923722Y-35056371D01*
X6923723Y-35056373D01*
X6996228Y-35140049D01*
X7017973Y-35165144D01*
X7139042Y-35242950D01*
X7139047Y-35242953D01*
X7245503Y-35274211D01*
X7277135Y-35283499D01*
X7277136Y-35283499D01*
X7277139Y-35283500D01*
X7277141Y-35283500D01*
X7421059Y-35283500D01*
X7421061Y-35283500D01*
X7559153Y-35242953D01*
X7680228Y-35165143D01*
X7774477Y-35056373D01*
X7834265Y-34925457D01*
X7839952Y-34885901D01*
X7866947Y-34830996D01*
X7921061Y-34802442D01*
X7981623Y-34811149D01*
X8025502Y-34853791D01*
X8027997Y-34858865D01*
X8034621Y-34873371D01*
X8128873Y-34982144D01*
X8225676Y-35044355D01*
X8249947Y-35059953D01*
X8356403Y-35091211D01*
X8388035Y-35100499D01*
X8388036Y-35100499D01*
X8388039Y-35100500D01*
X8388041Y-35100500D01*
X8531959Y-35100500D01*
X8531961Y-35100500D01*
X8670053Y-35059953D01*
X8791128Y-34982143D01*
X8885377Y-34873373D01*
X8945165Y-34742457D01*
X8959818Y-34640543D01*
X8965647Y-34600002D01*
X8965647Y-34599997D01*
X8945165Y-34457543D01*
X8922044Y-34406915D01*
X8885377Y-34326627D01*
X8862302Y-34299997D01*
X9154353Y-34299997D01*
X9154353Y-34300002D01*
X9174834Y-34442456D01*
X9205511Y-34509627D01*
X9234623Y-34573373D01*
X9328872Y-34682143D01*
X9328873Y-34682144D01*
X9434463Y-34750002D01*
X9449947Y-34759953D01*
X9531882Y-34784011D01*
X9588035Y-34800499D01*
X9588036Y-34800499D01*
X9588039Y-34800500D01*
X9588041Y-34800500D01*
X9731959Y-34800500D01*
X9731961Y-34800500D01*
X9870053Y-34759953D01*
X9991128Y-34682143D01*
X10085377Y-34573373D01*
X10145165Y-34442457D01*
X10162333Y-34323049D01*
X10165647Y-34300002D01*
X10165647Y-34299997D01*
X10145165Y-34157543D01*
X10135665Y-34136742D01*
X10085377Y-34026627D01*
X9991128Y-33917857D01*
X9991127Y-33917856D01*
X9991126Y-33917855D01*
X9870057Y-33840049D01*
X9870054Y-33840047D01*
X9870053Y-33840047D01*
X9870050Y-33840046D01*
X9731964Y-33799500D01*
X9731961Y-33799500D01*
X9588039Y-33799500D01*
X9588035Y-33799500D01*
X9449949Y-33840046D01*
X9449942Y-33840049D01*
X9328873Y-33917855D01*
X9234622Y-34026628D01*
X9174834Y-34157543D01*
X9154353Y-34299997D01*
X8862302Y-34299997D01*
X8791128Y-34217857D01*
X8791127Y-34217856D01*
X8791126Y-34217855D01*
X8670057Y-34140049D01*
X8670054Y-34140047D01*
X8670053Y-34140047D01*
X8670050Y-34140046D01*
X8531964Y-34099500D01*
X8531961Y-34099500D01*
X8388039Y-34099500D01*
X8388035Y-34099500D01*
X8249949Y-34140046D01*
X8249942Y-34140049D01*
X8128873Y-34217855D01*
X8034622Y-34326628D01*
X7974834Y-34457543D01*
X7969147Y-34497097D01*
X7942150Y-34552004D01*
X7888036Y-34580557D01*
X7827473Y-34571849D01*
X7783596Y-34529206D01*
X7781101Y-34524132D01*
X7774477Y-34509628D01*
X7774477Y-34509627D01*
X7680228Y-34400857D01*
X7680227Y-34400856D01*
X7680226Y-34400855D01*
X7559157Y-34323049D01*
X7559154Y-34323047D01*
X7559153Y-34323047D01*
X7559150Y-34323046D01*
X7421064Y-34282500D01*
X7421061Y-34282500D01*
X7277139Y-34282500D01*
X7277135Y-34282500D01*
X7139049Y-34323046D01*
X7139042Y-34323049D01*
X7017973Y-34400855D01*
X6923722Y-34509628D01*
X6863934Y-34640543D01*
X6843453Y-34782997D01*
X300500Y-34782997D01*
X300500Y-33726897D01*
X12281753Y-33726897D01*
X12281753Y-33726902D01*
X12302234Y-33869356D01*
X12328390Y-33926628D01*
X12362023Y-34000273D01*
X12431410Y-34080350D01*
X12456273Y-34109044D01*
X12577342Y-34186850D01*
X12577347Y-34186853D01*
X12682931Y-34217855D01*
X12715435Y-34227399D01*
X12715436Y-34227399D01*
X12715439Y-34227400D01*
X12715441Y-34227400D01*
X12859359Y-34227400D01*
X12859361Y-34227400D01*
X12997453Y-34186853D01*
X13118528Y-34109043D01*
X13212777Y-34000273D01*
X13272565Y-33869357D01*
X13287877Y-33762857D01*
X13293047Y-33726902D01*
X13293047Y-33726897D01*
X13272565Y-33584443D01*
X13230555Y-33492456D01*
X13212777Y-33453527D01*
X13118528Y-33344757D01*
X13118527Y-33344756D01*
X13118526Y-33344755D01*
X12997457Y-33266949D01*
X12997454Y-33266947D01*
X12997453Y-33266947D01*
X12997450Y-33266946D01*
X12859364Y-33226400D01*
X12859361Y-33226400D01*
X12715439Y-33226400D01*
X12715435Y-33226400D01*
X12577349Y-33266946D01*
X12577342Y-33266949D01*
X12456273Y-33344755D01*
X12362022Y-33453528D01*
X12302234Y-33584443D01*
X12281753Y-33726897D01*
X300500Y-33726897D01*
X300500Y-13969996D01*
X4074659Y-13969996D01*
X4074659Y-13970003D01*
X4093974Y-14166126D01*
X4093975Y-14166129D01*
X4151187Y-14354730D01*
X4151188Y-14354732D01*
X4193464Y-14433824D01*
X4244090Y-14528538D01*
X4244092Y-14528540D01*
X4244093Y-14528542D01*
X4369112Y-14680878D01*
X4369121Y-14680887D01*
X4521457Y-14805906D01*
X4521462Y-14805910D01*
X4695273Y-14898814D01*
X4883868Y-14956024D01*
X4883870Y-14956024D01*
X4883873Y-14956025D01*
X5079997Y-14975341D01*
X5080000Y-14975341D01*
X5080003Y-14975341D01*
X5276126Y-14956025D01*
X5276127Y-14956024D01*
X5276132Y-14956024D01*
X5445082Y-14904773D01*
X5506255Y-14905974D01*
X5543824Y-14929506D01*
X5800504Y-15186186D01*
X5828281Y-15240703D01*
X5829500Y-15256190D01*
X5829500Y-19431490D01*
X5810593Y-19489681D01*
X5761093Y-19525645D01*
X5699907Y-19525645D01*
X5667696Y-19508019D01*
X5653885Y-19496685D01*
X5638538Y-19484090D01*
X5559361Y-19441769D01*
X5464732Y-19391188D01*
X5464730Y-19391187D01*
X5276129Y-19333975D01*
X5276126Y-19333974D01*
X5080003Y-19314659D01*
X5079997Y-19314659D01*
X4883873Y-19333974D01*
X4883870Y-19333975D01*
X4695269Y-19391187D01*
X4695267Y-19391188D01*
X4521467Y-19484087D01*
X4521457Y-19484093D01*
X4369121Y-19609112D01*
X4369112Y-19609121D01*
X4244093Y-19761457D01*
X4244087Y-19761467D01*
X4151188Y-19935267D01*
X4151187Y-19935269D01*
X4093975Y-20123870D01*
X4093974Y-20123873D01*
X4074659Y-20319996D01*
X4074659Y-20320003D01*
X4093974Y-20516126D01*
X4093975Y-20516129D01*
X4151187Y-20704730D01*
X4151188Y-20704732D01*
X4222218Y-20837618D01*
X4244090Y-20878538D01*
X4244092Y-20878540D01*
X4244093Y-20878542D01*
X4369112Y-21030878D01*
X4369121Y-21030887D01*
X4521456Y-21155905D01*
X4521462Y-21155910D01*
X4695273Y-21248814D01*
X4883868Y-21306024D01*
X4883870Y-21306024D01*
X4883873Y-21306025D01*
X5079997Y-21325341D01*
X5080000Y-21325341D01*
X5080003Y-21325341D01*
X5276126Y-21306025D01*
X5276127Y-21306024D01*
X5276132Y-21306024D01*
X5464727Y-21248814D01*
X5638538Y-21155910D01*
X5667694Y-21131981D01*
X5724671Y-21109681D01*
X5783874Y-21125129D01*
X5822690Y-21172426D01*
X5829500Y-21208509D01*
X5829500Y-26653810D01*
X5810593Y-26712001D01*
X5800503Y-26723814D01*
X5543823Y-26980493D01*
X5489307Y-27008270D01*
X5445082Y-27005226D01*
X5276132Y-26953975D01*
X5276126Y-26953974D01*
X5080003Y-26934659D01*
X5079997Y-26934659D01*
X4883873Y-26953974D01*
X4883870Y-26953975D01*
X4695269Y-27011187D01*
X4695267Y-27011188D01*
X4521467Y-27104087D01*
X4521457Y-27104093D01*
X4369121Y-27229112D01*
X4369112Y-27229121D01*
X4244093Y-27381457D01*
X4244087Y-27381467D01*
X4151188Y-27555267D01*
X4151187Y-27555269D01*
X4093975Y-27743870D01*
X4093974Y-27743873D01*
X4074659Y-27939996D01*
X4074659Y-27940003D01*
X4093974Y-28136126D01*
X4093975Y-28136129D01*
X4151187Y-28324730D01*
X4151188Y-28324732D01*
X4222218Y-28457618D01*
X4244090Y-28498538D01*
X4244092Y-28498540D01*
X4244093Y-28498542D01*
X4369112Y-28650878D01*
X4369121Y-28650887D01*
X4521457Y-28775906D01*
X4521462Y-28775910D01*
X4695273Y-28868814D01*
X4883868Y-28926024D01*
X4883870Y-28926024D01*
X4883873Y-28926025D01*
X5079997Y-28945341D01*
X5080000Y-28945341D01*
X5080003Y-28945341D01*
X5276126Y-28926025D01*
X5276127Y-28926024D01*
X5276132Y-28926024D01*
X5464727Y-28868814D01*
X5638538Y-28775910D01*
X5790883Y-28650883D01*
X5915910Y-28498538D01*
X6008814Y-28324727D01*
X6066024Y-28136132D01*
X6083474Y-27958964D01*
X6085341Y-27940003D01*
X6085341Y-27939996D01*
X6066025Y-27743873D01*
X6066024Y-27743871D01*
X6066024Y-27743870D01*
X6066024Y-27743868D01*
X6014772Y-27574913D01*
X6015973Y-27513743D01*
X6039504Y-27476176D01*
X6460470Y-27055212D01*
X6506614Y-26975288D01*
X6530500Y-26886144D01*
X6530500Y-20799334D01*
X6549407Y-20741143D01*
X6598907Y-20705179D01*
X6660093Y-20705179D01*
X6709593Y-20741143D01*
X6716809Y-20752665D01*
X6784090Y-20878538D01*
X6784092Y-20878540D01*
X6784093Y-20878542D01*
X6909112Y-21030878D01*
X6909121Y-21030887D01*
X7061456Y-21155905D01*
X7061462Y-21155910D01*
X7235273Y-21248814D01*
X7423868Y-21306024D01*
X7423870Y-21306024D01*
X7423873Y-21306025D01*
X7619997Y-21325341D01*
X7620000Y-21325341D01*
X7620003Y-21325341D01*
X7816126Y-21306025D01*
X7816127Y-21306024D01*
X7816132Y-21306024D01*
X8004727Y-21248814D01*
X8178538Y-21155910D01*
X8207694Y-21131981D01*
X8264671Y-21109681D01*
X8323874Y-21125129D01*
X8362690Y-21172426D01*
X8369500Y-21208509D01*
X8369500Y-26653810D01*
X8350593Y-26712001D01*
X8340503Y-26723814D01*
X8083823Y-26980493D01*
X8029307Y-27008270D01*
X7985082Y-27005226D01*
X7816132Y-26953975D01*
X7816126Y-26953974D01*
X7620003Y-26934659D01*
X7619997Y-26934659D01*
X7423873Y-26953974D01*
X7423870Y-26953975D01*
X7235269Y-27011187D01*
X7235267Y-27011188D01*
X7061467Y-27104087D01*
X7061457Y-27104093D01*
X6909121Y-27229112D01*
X6909112Y-27229121D01*
X6784093Y-27381457D01*
X6784087Y-27381467D01*
X6691188Y-27555267D01*
X6691187Y-27555269D01*
X6633975Y-27743870D01*
X6633974Y-27743873D01*
X6614659Y-27939996D01*
X6614659Y-27940003D01*
X6633974Y-28136126D01*
X6633975Y-28136129D01*
X6691187Y-28324730D01*
X6691188Y-28324732D01*
X6762218Y-28457618D01*
X6784090Y-28498538D01*
X6784092Y-28498540D01*
X6784093Y-28498542D01*
X6909112Y-28650878D01*
X6909121Y-28650887D01*
X7061457Y-28775906D01*
X7061462Y-28775910D01*
X7235273Y-28868814D01*
X7423868Y-28926024D01*
X7423870Y-28926024D01*
X7423873Y-28926025D01*
X7619997Y-28945341D01*
X7620000Y-28945341D01*
X7620003Y-28945341D01*
X7816126Y-28926025D01*
X7816127Y-28926024D01*
X7816132Y-28926024D01*
X8004727Y-28868814D01*
X8178538Y-28775910D01*
X8330883Y-28650883D01*
X8455910Y-28498538D01*
X8548814Y-28324727D01*
X8606024Y-28136132D01*
X8623474Y-27958964D01*
X8625341Y-27940003D01*
X8625341Y-27939996D01*
X8606025Y-27743873D01*
X8606024Y-27743871D01*
X8606024Y-27743870D01*
X8606024Y-27743868D01*
X8554772Y-27574913D01*
X8555973Y-27513743D01*
X8579504Y-27476176D01*
X9000470Y-27055212D01*
X9046614Y-26975288D01*
X9070500Y-26886144D01*
X9070500Y-20799334D01*
X9089407Y-20741143D01*
X9138907Y-20705179D01*
X9200093Y-20705179D01*
X9249593Y-20741143D01*
X9256809Y-20752665D01*
X9324090Y-20878538D01*
X9324092Y-20878540D01*
X9324093Y-20878542D01*
X9449112Y-21030878D01*
X9449121Y-21030887D01*
X9601456Y-21155905D01*
X9601462Y-21155910D01*
X9775273Y-21248814D01*
X9963868Y-21306024D01*
X9963870Y-21306024D01*
X9963873Y-21306025D01*
X10159997Y-21325341D01*
X10160000Y-21325341D01*
X10160003Y-21325341D01*
X10356126Y-21306025D01*
X10356127Y-21306024D01*
X10356132Y-21306024D01*
X10544727Y-21248814D01*
X10718538Y-21155910D01*
X10747694Y-21131981D01*
X10804671Y-21109681D01*
X10863874Y-21125129D01*
X10902690Y-21172426D01*
X10909500Y-21208509D01*
X10909500Y-26653810D01*
X10890593Y-26712001D01*
X10880503Y-26723814D01*
X10623823Y-26980493D01*
X10569307Y-27008270D01*
X10525082Y-27005226D01*
X10356132Y-26953975D01*
X10356126Y-26953974D01*
X10160003Y-26934659D01*
X10159997Y-26934659D01*
X9963873Y-26953974D01*
X9963870Y-26953975D01*
X9775269Y-27011187D01*
X9775267Y-27011188D01*
X9601467Y-27104087D01*
X9601457Y-27104093D01*
X9449121Y-27229112D01*
X9449112Y-27229121D01*
X9324093Y-27381457D01*
X9324087Y-27381467D01*
X9231188Y-27555267D01*
X9231187Y-27555269D01*
X9173975Y-27743870D01*
X9173974Y-27743873D01*
X9154659Y-27939996D01*
X9154659Y-27940003D01*
X9173974Y-28136126D01*
X9173975Y-28136129D01*
X9231187Y-28324730D01*
X9231188Y-28324732D01*
X9302218Y-28457618D01*
X9324090Y-28498538D01*
X9324092Y-28498540D01*
X9324093Y-28498542D01*
X9449112Y-28650878D01*
X9449121Y-28650887D01*
X9601457Y-28775906D01*
X9601462Y-28775910D01*
X9775273Y-28868814D01*
X9963868Y-28926024D01*
X9963870Y-28926024D01*
X9963873Y-28926025D01*
X10159997Y-28945341D01*
X10160000Y-28945341D01*
X10160003Y-28945341D01*
X10356126Y-28926025D01*
X10356127Y-28926024D01*
X10356132Y-28926024D01*
X10544727Y-28868814D01*
X10718538Y-28775910D01*
X10870883Y-28650883D01*
X10995910Y-28498538D01*
X11088814Y-28324727D01*
X11146024Y-28136132D01*
X11163474Y-27958964D01*
X11165341Y-27940003D01*
X11165341Y-27939996D01*
X11146025Y-27743873D01*
X11146024Y-27743871D01*
X11146024Y-27743870D01*
X11146024Y-27743868D01*
X11094772Y-27574913D01*
X11095973Y-27513743D01*
X11119504Y-27476176D01*
X11540470Y-27055212D01*
X11586614Y-26975288D01*
X11610500Y-26886144D01*
X11610500Y-20799334D01*
X11629407Y-20741143D01*
X11678907Y-20705179D01*
X11740093Y-20705179D01*
X11789593Y-20741143D01*
X11796809Y-20752665D01*
X11864090Y-20878538D01*
X11864092Y-20878540D01*
X11864093Y-20878542D01*
X11989112Y-21030878D01*
X11989121Y-21030887D01*
X12141456Y-21155905D01*
X12141462Y-21155910D01*
X12315273Y-21248814D01*
X12503868Y-21306024D01*
X12503870Y-21306024D01*
X12503873Y-21306025D01*
X12699997Y-21325341D01*
X12700000Y-21325341D01*
X12700003Y-21325341D01*
X12896126Y-21306025D01*
X12896127Y-21306024D01*
X12896132Y-21306024D01*
X13084727Y-21248814D01*
X13258538Y-21155910D01*
X13287694Y-21131981D01*
X13344671Y-21109681D01*
X13403874Y-21125129D01*
X13442690Y-21172426D01*
X13449500Y-21208509D01*
X13449500Y-26653810D01*
X13430593Y-26712001D01*
X13420503Y-26723814D01*
X13163823Y-26980493D01*
X13109307Y-27008270D01*
X13065082Y-27005226D01*
X12896132Y-26953975D01*
X12896126Y-26953974D01*
X12700003Y-26934659D01*
X12699997Y-26934659D01*
X12503873Y-26953974D01*
X12503870Y-26953975D01*
X12315269Y-27011187D01*
X12315267Y-27011188D01*
X12141467Y-27104087D01*
X12141457Y-27104093D01*
X11989121Y-27229112D01*
X11989112Y-27229121D01*
X11864093Y-27381457D01*
X11864087Y-27381467D01*
X11771188Y-27555267D01*
X11771187Y-27555269D01*
X11713975Y-27743870D01*
X11713974Y-27743873D01*
X11694659Y-27939996D01*
X11694659Y-27940003D01*
X11713974Y-28136126D01*
X11713975Y-28136129D01*
X11771187Y-28324730D01*
X11771188Y-28324732D01*
X11842218Y-28457618D01*
X11864090Y-28498538D01*
X11864092Y-28498540D01*
X11864093Y-28498542D01*
X11989112Y-28650878D01*
X11989121Y-28650887D01*
X12141457Y-28775906D01*
X12141462Y-28775910D01*
X12315273Y-28868814D01*
X12503868Y-28926024D01*
X12503870Y-28926024D01*
X12503873Y-28926025D01*
X12699997Y-28945341D01*
X12700000Y-28945341D01*
X12700003Y-28945341D01*
X12896126Y-28926025D01*
X12896127Y-28926024D01*
X12896132Y-28926024D01*
X13084727Y-28868814D01*
X13258538Y-28775910D01*
X13410883Y-28650883D01*
X13535910Y-28498538D01*
X13628814Y-28324727D01*
X13686024Y-28136132D01*
X13703474Y-27958964D01*
X13705341Y-27940003D01*
X13705341Y-27939996D01*
X13686025Y-27743873D01*
X13686024Y-27743871D01*
X13686024Y-27743870D01*
X13686024Y-27743868D01*
X13634772Y-27574913D01*
X13635973Y-27513743D01*
X13659504Y-27476176D01*
X14080470Y-27055212D01*
X14126614Y-26975288D01*
X14150500Y-26886144D01*
X14150500Y-20799334D01*
X14169407Y-20741143D01*
X14218907Y-20705179D01*
X14280093Y-20705179D01*
X14329593Y-20741143D01*
X14336809Y-20752665D01*
X14404090Y-20878538D01*
X14404092Y-20878540D01*
X14404093Y-20878542D01*
X14529112Y-21030878D01*
X14529121Y-21030887D01*
X14681456Y-21155905D01*
X14681462Y-21155910D01*
X14855273Y-21248814D01*
X15043868Y-21306024D01*
X15043870Y-21306024D01*
X15043873Y-21306025D01*
X15239997Y-21325341D01*
X15240000Y-21325341D01*
X15240003Y-21325341D01*
X15436126Y-21306025D01*
X15436127Y-21306024D01*
X15436132Y-21306024D01*
X15624727Y-21248814D01*
X15798538Y-21155910D01*
X15827694Y-21131981D01*
X15884671Y-21109681D01*
X15943874Y-21125129D01*
X15982690Y-21172426D01*
X15989500Y-21208509D01*
X15989500Y-26653810D01*
X15970593Y-26712001D01*
X15960503Y-26723814D01*
X15703823Y-26980493D01*
X15649307Y-27008270D01*
X15605082Y-27005226D01*
X15436132Y-26953975D01*
X15436126Y-26953974D01*
X15240003Y-26934659D01*
X15239997Y-26934659D01*
X15043873Y-26953974D01*
X15043870Y-26953975D01*
X14855269Y-27011187D01*
X14855267Y-27011188D01*
X14681467Y-27104087D01*
X14681457Y-27104093D01*
X14529121Y-27229112D01*
X14529112Y-27229121D01*
X14404093Y-27381457D01*
X14404087Y-27381467D01*
X14311188Y-27555267D01*
X14311187Y-27555269D01*
X14253975Y-27743870D01*
X14253974Y-27743873D01*
X14234659Y-27939996D01*
X14234659Y-27940003D01*
X14253974Y-28136126D01*
X14253975Y-28136129D01*
X14311187Y-28324730D01*
X14311188Y-28324732D01*
X14382218Y-28457618D01*
X14404090Y-28498538D01*
X14404092Y-28498540D01*
X14404093Y-28498542D01*
X14529112Y-28650878D01*
X14529121Y-28650887D01*
X14681457Y-28775906D01*
X14681462Y-28775910D01*
X14855273Y-28868814D01*
X15043868Y-28926024D01*
X15043870Y-28926024D01*
X15043873Y-28926025D01*
X15239997Y-28945341D01*
X15240000Y-28945341D01*
X15240003Y-28945341D01*
X15436126Y-28926025D01*
X15436127Y-28926024D01*
X15436132Y-28926024D01*
X15624727Y-28868814D01*
X15798538Y-28775910D01*
X15950883Y-28650883D01*
X16075910Y-28498538D01*
X16168814Y-28324727D01*
X16226024Y-28136132D01*
X16243474Y-27958964D01*
X16245341Y-27940003D01*
X16245341Y-27939996D01*
X16226025Y-27743873D01*
X16226024Y-27743871D01*
X16226024Y-27743870D01*
X16226024Y-27743868D01*
X16174772Y-27574913D01*
X16175973Y-27513743D01*
X16199504Y-27476176D01*
X16620470Y-27055212D01*
X16666614Y-26975288D01*
X16690500Y-26886144D01*
X16690500Y-20799334D01*
X16709407Y-20741143D01*
X16758907Y-20705179D01*
X16820093Y-20705179D01*
X16869593Y-20741143D01*
X16876809Y-20752665D01*
X16944090Y-20878538D01*
X16944092Y-20878540D01*
X16944093Y-20878542D01*
X17069112Y-21030878D01*
X17069121Y-21030887D01*
X17221456Y-21155905D01*
X17221462Y-21155910D01*
X17395273Y-21248814D01*
X17583868Y-21306024D01*
X17583870Y-21306024D01*
X17583873Y-21306025D01*
X17779997Y-21325341D01*
X17780000Y-21325341D01*
X17780003Y-21325341D01*
X17976126Y-21306025D01*
X17976127Y-21306024D01*
X17976132Y-21306024D01*
X18164727Y-21248814D01*
X18338538Y-21155910D01*
X18367694Y-21131981D01*
X18424671Y-21109681D01*
X18483874Y-21125129D01*
X18522690Y-21172426D01*
X18529500Y-21208509D01*
X18529500Y-26653810D01*
X18510593Y-26712001D01*
X18500503Y-26723814D01*
X18243823Y-26980493D01*
X18189307Y-27008270D01*
X18145082Y-27005226D01*
X17976132Y-26953975D01*
X17976126Y-26953974D01*
X17780003Y-26934659D01*
X17779997Y-26934659D01*
X17583873Y-26953974D01*
X17583870Y-26953975D01*
X17395269Y-27011187D01*
X17395267Y-27011188D01*
X17221467Y-27104087D01*
X17221457Y-27104093D01*
X17069121Y-27229112D01*
X17069112Y-27229121D01*
X16944093Y-27381457D01*
X16944087Y-27381467D01*
X16851188Y-27555267D01*
X16851187Y-27555269D01*
X16793975Y-27743870D01*
X16793974Y-27743873D01*
X16774659Y-27939996D01*
X16774659Y-27940003D01*
X16793974Y-28136126D01*
X16793975Y-28136129D01*
X16851187Y-28324730D01*
X16851188Y-28324732D01*
X16922218Y-28457618D01*
X16944090Y-28498538D01*
X16944092Y-28498540D01*
X16944093Y-28498542D01*
X17069112Y-28650878D01*
X17069121Y-28650887D01*
X17221457Y-28775906D01*
X17221462Y-28775910D01*
X17395273Y-28868814D01*
X17583868Y-28926024D01*
X17583870Y-28926024D01*
X17583873Y-28926025D01*
X17779997Y-28945341D01*
X17780000Y-28945341D01*
X17780003Y-28945341D01*
X17976126Y-28926025D01*
X17976127Y-28926024D01*
X17976132Y-28926024D01*
X18164727Y-28868814D01*
X18338538Y-28775910D01*
X18490883Y-28650883D01*
X18615910Y-28498538D01*
X18708814Y-28324727D01*
X18766024Y-28136132D01*
X18783474Y-27958964D01*
X18785341Y-27940003D01*
X18785341Y-27939996D01*
X18766025Y-27743873D01*
X18766024Y-27743871D01*
X18766024Y-27743870D01*
X18766024Y-27743868D01*
X18714772Y-27574913D01*
X18715973Y-27513743D01*
X18739504Y-27476176D01*
X19160470Y-27055212D01*
X19206614Y-26975288D01*
X19230500Y-26886144D01*
X19230500Y-20799334D01*
X19249407Y-20741143D01*
X19298907Y-20705179D01*
X19360093Y-20705179D01*
X19409593Y-20741143D01*
X19416809Y-20752665D01*
X19484090Y-20878538D01*
X19484092Y-20878540D01*
X19484093Y-20878542D01*
X19609112Y-21030878D01*
X19609121Y-21030887D01*
X19761456Y-21155905D01*
X19761462Y-21155910D01*
X19935273Y-21248814D01*
X20123868Y-21306024D01*
X20123870Y-21306024D01*
X20123873Y-21306025D01*
X20319997Y-21325341D01*
X20320000Y-21325341D01*
X20320003Y-21325341D01*
X20516126Y-21306025D01*
X20516127Y-21306024D01*
X20516132Y-21306024D01*
X20704727Y-21248814D01*
X20878538Y-21155910D01*
X20907694Y-21131981D01*
X20964671Y-21109681D01*
X21023874Y-21125129D01*
X21062690Y-21172426D01*
X21069500Y-21208509D01*
X21069500Y-26653810D01*
X21050593Y-26712001D01*
X21040503Y-26723814D01*
X20783823Y-26980493D01*
X20729307Y-27008270D01*
X20685082Y-27005226D01*
X20516132Y-26953975D01*
X20516126Y-26953974D01*
X20320003Y-26934659D01*
X20319997Y-26934659D01*
X20123873Y-26953974D01*
X20123870Y-26953975D01*
X19935269Y-27011187D01*
X19935267Y-27011188D01*
X19761467Y-27104087D01*
X19761457Y-27104093D01*
X19609121Y-27229112D01*
X19609112Y-27229121D01*
X19484093Y-27381457D01*
X19484087Y-27381467D01*
X19391188Y-27555267D01*
X19391187Y-27555269D01*
X19333975Y-27743870D01*
X19333974Y-27743873D01*
X19314659Y-27939996D01*
X19314659Y-27940003D01*
X19333974Y-28136126D01*
X19333975Y-28136129D01*
X19391187Y-28324730D01*
X19391188Y-28324732D01*
X19462218Y-28457618D01*
X19484090Y-28498538D01*
X19484092Y-28498540D01*
X19484093Y-28498542D01*
X19609112Y-28650878D01*
X19609121Y-28650887D01*
X19761457Y-28775906D01*
X19761462Y-28775910D01*
X19935273Y-28868814D01*
X20123868Y-28926024D01*
X20123870Y-28926024D01*
X20123873Y-28926025D01*
X20319997Y-28945341D01*
X20320000Y-28945341D01*
X20320003Y-28945341D01*
X20516126Y-28926025D01*
X20516127Y-28926024D01*
X20516132Y-28926024D01*
X20704727Y-28868814D01*
X20878538Y-28775910D01*
X21030883Y-28650883D01*
X21155910Y-28498538D01*
X21248814Y-28324727D01*
X21306024Y-28136132D01*
X21323474Y-27958964D01*
X21325341Y-27940003D01*
X21325341Y-27939996D01*
X21306025Y-27743873D01*
X21306024Y-27743871D01*
X21306024Y-27743870D01*
X21306024Y-27743868D01*
X21254772Y-27574913D01*
X21255973Y-27513743D01*
X21279504Y-27476176D01*
X21700470Y-27055212D01*
X21746614Y-26975288D01*
X21770500Y-26886144D01*
X21770500Y-21352916D01*
X21789407Y-21294725D01*
X21838907Y-21258761D01*
X21900093Y-21258761D01*
X21924495Y-21270597D01*
X21981769Y-21308867D01*
X22026231Y-21317711D01*
X22040241Y-21320498D01*
X22040246Y-21320498D01*
X22040252Y-21320500D01*
X23510500Y-21320500D01*
X23568691Y-21339407D01*
X23604655Y-21388907D01*
X23609500Y-21419500D01*
X23609500Y-26653810D01*
X23590593Y-26712001D01*
X23580503Y-26723814D01*
X23323823Y-26980493D01*
X23269307Y-27008270D01*
X23225082Y-27005226D01*
X23056132Y-26953975D01*
X23056126Y-26953974D01*
X22860003Y-26934659D01*
X22859997Y-26934659D01*
X22663873Y-26953974D01*
X22663870Y-26953975D01*
X22475269Y-27011187D01*
X22475267Y-27011188D01*
X22301467Y-27104087D01*
X22301457Y-27104093D01*
X22149121Y-27229112D01*
X22149112Y-27229121D01*
X22024093Y-27381457D01*
X22024087Y-27381467D01*
X21931188Y-27555267D01*
X21931187Y-27555269D01*
X21873975Y-27743870D01*
X21873974Y-27743873D01*
X21854659Y-27939996D01*
X21854659Y-27940003D01*
X21873974Y-28136126D01*
X21873975Y-28136129D01*
X21931187Y-28324730D01*
X21931188Y-28324732D01*
X22002218Y-28457618D01*
X22024090Y-28498538D01*
X22024092Y-28498540D01*
X22024093Y-28498542D01*
X22149112Y-28650878D01*
X22149121Y-28650887D01*
X22301457Y-28775906D01*
X22301462Y-28775910D01*
X22475273Y-28868814D01*
X22663868Y-28926024D01*
X22663870Y-28926024D01*
X22663873Y-28926025D01*
X22859997Y-28945341D01*
X22860000Y-28945341D01*
X22860003Y-28945341D01*
X23056126Y-28926025D01*
X23056127Y-28926024D01*
X23056132Y-28926024D01*
X23244727Y-28868814D01*
X23418538Y-28775910D01*
X23570883Y-28650883D01*
X23695910Y-28498538D01*
X23788814Y-28324727D01*
X23846024Y-28136132D01*
X23863474Y-27958964D01*
X23865341Y-27940003D01*
X23865341Y-27939996D01*
X23846025Y-27743873D01*
X23846024Y-27743871D01*
X23846024Y-27743870D01*
X23846024Y-27743868D01*
X23794772Y-27574913D01*
X23795973Y-27513743D01*
X23819504Y-27476176D01*
X24240470Y-27055212D01*
X24286614Y-26975288D01*
X24310500Y-26886144D01*
X24310500Y-15023856D01*
X24286614Y-14934712D01*
X24240470Y-14854788D01*
X24066560Y-14680878D01*
X23889496Y-14503813D01*
X23861719Y-14449297D01*
X23860500Y-14433810D01*
X23860500Y-13969996D01*
X26934659Y-13969996D01*
X26934659Y-13970003D01*
X26953974Y-14166126D01*
X26953975Y-14166129D01*
X27011187Y-14354730D01*
X27011188Y-14354732D01*
X27053464Y-14433824D01*
X27104090Y-14528538D01*
X27104092Y-14528540D01*
X27104093Y-14528542D01*
X27229112Y-14680878D01*
X27229121Y-14680887D01*
X27381457Y-14805906D01*
X27381462Y-14805910D01*
X27555273Y-14898814D01*
X27743868Y-14956024D01*
X27743870Y-14956024D01*
X27743873Y-14956025D01*
X27939997Y-14975341D01*
X27940000Y-14975341D01*
X27940003Y-14975341D01*
X28136126Y-14956025D01*
X28136127Y-14956024D01*
X28136132Y-14956024D01*
X28305082Y-14904773D01*
X28366255Y-14905974D01*
X28403824Y-14929506D01*
X28660504Y-15186186D01*
X28688281Y-15240703D01*
X28689500Y-15256190D01*
X28689500Y-19431490D01*
X28670593Y-19489681D01*
X28621093Y-19525645D01*
X28559907Y-19525645D01*
X28527696Y-19508019D01*
X28513885Y-19496685D01*
X28498538Y-19484090D01*
X28419361Y-19441769D01*
X28324732Y-19391188D01*
X28324730Y-19391187D01*
X28136129Y-19333975D01*
X28136126Y-19333974D01*
X27940003Y-19314659D01*
X27939997Y-19314659D01*
X27743873Y-19333974D01*
X27743870Y-19333975D01*
X27555269Y-19391187D01*
X27555267Y-19391188D01*
X27381467Y-19484087D01*
X27381457Y-19484093D01*
X27229121Y-19609112D01*
X27229112Y-19609121D01*
X27104093Y-19761457D01*
X27104087Y-19761467D01*
X27011188Y-19935267D01*
X27011187Y-19935269D01*
X26953975Y-20123870D01*
X26953974Y-20123873D01*
X26934659Y-20319996D01*
X26934659Y-20320003D01*
X26953974Y-20516126D01*
X26953975Y-20516129D01*
X27011187Y-20704730D01*
X27011188Y-20704732D01*
X27082218Y-20837618D01*
X27104090Y-20878538D01*
X27104092Y-20878540D01*
X27104093Y-20878542D01*
X27229112Y-21030878D01*
X27229121Y-21030887D01*
X27381456Y-21155905D01*
X27381462Y-21155910D01*
X27555273Y-21248814D01*
X27743868Y-21306024D01*
X27743870Y-21306024D01*
X27743873Y-21306025D01*
X27939997Y-21325341D01*
X27940000Y-21325341D01*
X27940003Y-21325341D01*
X28136126Y-21306025D01*
X28136127Y-21306024D01*
X28136132Y-21306024D01*
X28324727Y-21248814D01*
X28498538Y-21155910D01*
X28527694Y-21131981D01*
X28584671Y-21109681D01*
X28643874Y-21125129D01*
X28682690Y-21172426D01*
X28689500Y-21208509D01*
X28689500Y-26653810D01*
X28670593Y-26712001D01*
X28660503Y-26723814D01*
X28403823Y-26980493D01*
X28349307Y-27008270D01*
X28305082Y-27005226D01*
X28136132Y-26953975D01*
X28136126Y-26953974D01*
X27940003Y-26934659D01*
X27939997Y-26934659D01*
X27743873Y-26953974D01*
X27743870Y-26953975D01*
X27555269Y-27011187D01*
X27555267Y-27011188D01*
X27381467Y-27104087D01*
X27381457Y-27104093D01*
X27229121Y-27229112D01*
X27229112Y-27229121D01*
X27104093Y-27381457D01*
X27104087Y-27381467D01*
X27011188Y-27555267D01*
X27011187Y-27555269D01*
X26953975Y-27743870D01*
X26953974Y-27743873D01*
X26934659Y-27939996D01*
X26934659Y-27940003D01*
X26953974Y-28136126D01*
X26953975Y-28136129D01*
X27011187Y-28324730D01*
X27011188Y-28324732D01*
X27082218Y-28457618D01*
X27104090Y-28498538D01*
X27104092Y-28498540D01*
X27104093Y-28498542D01*
X27229112Y-28650878D01*
X27229121Y-28650887D01*
X27381457Y-28775906D01*
X27381462Y-28775910D01*
X27555273Y-28868814D01*
X27743868Y-28926024D01*
X27743870Y-28926024D01*
X27743873Y-28926025D01*
X27939997Y-28945341D01*
X27940000Y-28945341D01*
X27940003Y-28945341D01*
X28136126Y-28926025D01*
X28136127Y-28926024D01*
X28136132Y-28926024D01*
X28324727Y-28868814D01*
X28498538Y-28775910D01*
X28650883Y-28650883D01*
X28775910Y-28498538D01*
X28868814Y-28324727D01*
X28926024Y-28136132D01*
X28943474Y-27958964D01*
X28945341Y-27940003D01*
X28945341Y-27939996D01*
X28926025Y-27743873D01*
X28926024Y-27743871D01*
X28926024Y-27743870D01*
X28926024Y-27743868D01*
X28874772Y-27574913D01*
X28875973Y-27513743D01*
X28899504Y-27476176D01*
X29320470Y-27055212D01*
X29366614Y-26975288D01*
X29390500Y-26886144D01*
X29390500Y-20799334D01*
X29409407Y-20741143D01*
X29458907Y-20705179D01*
X29520093Y-20705179D01*
X29569593Y-20741143D01*
X29576809Y-20752665D01*
X29644090Y-20878538D01*
X29644092Y-20878540D01*
X29644093Y-20878542D01*
X29769112Y-21030878D01*
X29769121Y-21030887D01*
X29921456Y-21155905D01*
X29921462Y-21155910D01*
X30095273Y-21248814D01*
X30283868Y-21306024D01*
X30283870Y-21306024D01*
X30283873Y-21306025D01*
X30479997Y-21325341D01*
X30480000Y-21325341D01*
X30480003Y-21325341D01*
X30676126Y-21306025D01*
X30676127Y-21306024D01*
X30676132Y-21306024D01*
X30864727Y-21248814D01*
X31038538Y-21155910D01*
X31067694Y-21131981D01*
X31124671Y-21109681D01*
X31183874Y-21125129D01*
X31222690Y-21172426D01*
X31229500Y-21208509D01*
X31229500Y-26653810D01*
X31210593Y-26712001D01*
X31200503Y-26723814D01*
X30943823Y-26980493D01*
X30889307Y-27008270D01*
X30845082Y-27005226D01*
X30676132Y-26953975D01*
X30676126Y-26953974D01*
X30480003Y-26934659D01*
X30479997Y-26934659D01*
X30283873Y-26953974D01*
X30283870Y-26953975D01*
X30095269Y-27011187D01*
X30095267Y-27011188D01*
X29921467Y-27104087D01*
X29921457Y-27104093D01*
X29769121Y-27229112D01*
X29769112Y-27229121D01*
X29644093Y-27381457D01*
X29644087Y-27381467D01*
X29551188Y-27555267D01*
X29551187Y-27555269D01*
X29493975Y-27743870D01*
X29493974Y-27743873D01*
X29474659Y-27939996D01*
X29474659Y-27940003D01*
X29493974Y-28136126D01*
X29493975Y-28136129D01*
X29551187Y-28324730D01*
X29551188Y-28324732D01*
X29622218Y-28457618D01*
X29644090Y-28498538D01*
X29644092Y-28498540D01*
X29644093Y-28498542D01*
X29769112Y-28650878D01*
X29769121Y-28650887D01*
X29921457Y-28775906D01*
X29921462Y-28775910D01*
X30095273Y-28868814D01*
X30283868Y-28926024D01*
X30283870Y-28926024D01*
X30283873Y-28926025D01*
X30479997Y-28945341D01*
X30480000Y-28945341D01*
X30480003Y-28945341D01*
X30676126Y-28926025D01*
X30676127Y-28926024D01*
X30676132Y-28926024D01*
X30864727Y-28868814D01*
X31038538Y-28775910D01*
X31190883Y-28650883D01*
X31315910Y-28498538D01*
X31408814Y-28324727D01*
X31466024Y-28136132D01*
X31483474Y-27958964D01*
X31485341Y-27940003D01*
X31485341Y-27939996D01*
X31466025Y-27743873D01*
X31466024Y-27743871D01*
X31466024Y-27743870D01*
X31466024Y-27743868D01*
X31414772Y-27574913D01*
X31415973Y-27513743D01*
X31439504Y-27476176D01*
X31860470Y-27055212D01*
X31906614Y-26975288D01*
X31930500Y-26886144D01*
X31930500Y-20799334D01*
X31949407Y-20741143D01*
X31998907Y-20705179D01*
X32060093Y-20705179D01*
X32109593Y-20741143D01*
X32116809Y-20752665D01*
X32184090Y-20878538D01*
X32184092Y-20878540D01*
X32184093Y-20878542D01*
X32309112Y-21030878D01*
X32309121Y-21030887D01*
X32461456Y-21155905D01*
X32461462Y-21155910D01*
X32635273Y-21248814D01*
X32823868Y-21306024D01*
X32823870Y-21306024D01*
X32823873Y-21306025D01*
X33019997Y-21325341D01*
X33020000Y-21325341D01*
X33020003Y-21325341D01*
X33216126Y-21306025D01*
X33216127Y-21306024D01*
X33216132Y-21306024D01*
X33404727Y-21248814D01*
X33578538Y-21155910D01*
X33607694Y-21131981D01*
X33664671Y-21109681D01*
X33723874Y-21125129D01*
X33762690Y-21172426D01*
X33769500Y-21208509D01*
X33769500Y-26653810D01*
X33750593Y-26712001D01*
X33740503Y-26723814D01*
X33483823Y-26980493D01*
X33429307Y-27008270D01*
X33385082Y-27005226D01*
X33216132Y-26953975D01*
X33216126Y-26953974D01*
X33020003Y-26934659D01*
X33019997Y-26934659D01*
X32823873Y-26953974D01*
X32823870Y-26953975D01*
X32635269Y-27011187D01*
X32635267Y-27011188D01*
X32461467Y-27104087D01*
X32461457Y-27104093D01*
X32309121Y-27229112D01*
X32309112Y-27229121D01*
X32184093Y-27381457D01*
X32184087Y-27381467D01*
X32091188Y-27555267D01*
X32091187Y-27555269D01*
X32033975Y-27743870D01*
X32033974Y-27743873D01*
X32014659Y-27939996D01*
X32014659Y-27940003D01*
X32033974Y-28136126D01*
X32033975Y-28136129D01*
X32091187Y-28324730D01*
X32091188Y-28324732D01*
X32162218Y-28457618D01*
X32184090Y-28498538D01*
X32184092Y-28498540D01*
X32184093Y-28498542D01*
X32309112Y-28650878D01*
X32309121Y-28650887D01*
X32461457Y-28775906D01*
X32461462Y-28775910D01*
X32635273Y-28868814D01*
X32823868Y-28926024D01*
X32823870Y-28926024D01*
X32823873Y-28926025D01*
X33019997Y-28945341D01*
X33020000Y-28945341D01*
X33020003Y-28945341D01*
X33216126Y-28926025D01*
X33216127Y-28926024D01*
X33216132Y-28926024D01*
X33404727Y-28868814D01*
X33578538Y-28775910D01*
X33730883Y-28650883D01*
X33855910Y-28498538D01*
X33948814Y-28324727D01*
X34006024Y-28136132D01*
X34023474Y-27958964D01*
X34025341Y-27940003D01*
X34025341Y-27939996D01*
X34006025Y-27743873D01*
X34006024Y-27743871D01*
X34006024Y-27743870D01*
X34006024Y-27743868D01*
X33954772Y-27574913D01*
X33955973Y-27513743D01*
X33979504Y-27476176D01*
X34400470Y-27055212D01*
X34446614Y-26975288D01*
X34470500Y-26886144D01*
X34470500Y-20799334D01*
X34489407Y-20741143D01*
X34538907Y-20705179D01*
X34600093Y-20705179D01*
X34649593Y-20741143D01*
X34656809Y-20752665D01*
X34724090Y-20878538D01*
X34724092Y-20878540D01*
X34724093Y-20878542D01*
X34849112Y-21030878D01*
X34849121Y-21030887D01*
X35001456Y-21155905D01*
X35001462Y-21155910D01*
X35175273Y-21248814D01*
X35363868Y-21306024D01*
X35363870Y-21306024D01*
X35363873Y-21306025D01*
X35559997Y-21325341D01*
X35560000Y-21325341D01*
X35560003Y-21325341D01*
X35756126Y-21306025D01*
X35756127Y-21306024D01*
X35756132Y-21306024D01*
X35944727Y-21248814D01*
X36118538Y-21155910D01*
X36147694Y-21131981D01*
X36204671Y-21109681D01*
X36263874Y-21125129D01*
X36302690Y-21172426D01*
X36309500Y-21208509D01*
X36309500Y-26653810D01*
X36290593Y-26712001D01*
X36280503Y-26723814D01*
X36023823Y-26980493D01*
X35969307Y-27008270D01*
X35925082Y-27005226D01*
X35756132Y-26953975D01*
X35756126Y-26953974D01*
X35560003Y-26934659D01*
X35559997Y-26934659D01*
X35363873Y-26953974D01*
X35363870Y-26953975D01*
X35175269Y-27011187D01*
X35175267Y-27011188D01*
X35001467Y-27104087D01*
X35001457Y-27104093D01*
X34849121Y-27229112D01*
X34849112Y-27229121D01*
X34724093Y-27381457D01*
X34724087Y-27381467D01*
X34631188Y-27555267D01*
X34631187Y-27555269D01*
X34573975Y-27743870D01*
X34573974Y-27743873D01*
X34554659Y-27939996D01*
X34554659Y-27940003D01*
X34573974Y-28136126D01*
X34573975Y-28136129D01*
X34631187Y-28324730D01*
X34631188Y-28324732D01*
X34702218Y-28457618D01*
X34724090Y-28498538D01*
X34724092Y-28498540D01*
X34724093Y-28498542D01*
X34849112Y-28650878D01*
X34849121Y-28650887D01*
X35001457Y-28775906D01*
X35001462Y-28775910D01*
X35175273Y-28868814D01*
X35363868Y-28926024D01*
X35363870Y-28926024D01*
X35363873Y-28926025D01*
X35559997Y-28945341D01*
X35560000Y-28945341D01*
X35560003Y-28945341D01*
X35756126Y-28926025D01*
X35756127Y-28926024D01*
X35756132Y-28926024D01*
X35944727Y-28868814D01*
X36118538Y-28775910D01*
X36270883Y-28650883D01*
X36395910Y-28498538D01*
X36488814Y-28324727D01*
X36546024Y-28136132D01*
X36563474Y-27958964D01*
X36565341Y-27940003D01*
X36565341Y-27939996D01*
X36546025Y-27743873D01*
X36546024Y-27743871D01*
X36546024Y-27743870D01*
X36546024Y-27743868D01*
X36494772Y-27574913D01*
X36495973Y-27513743D01*
X36519504Y-27476176D01*
X36940470Y-27055212D01*
X36986614Y-26975288D01*
X37010500Y-26886144D01*
X37010500Y-20799334D01*
X37029407Y-20741143D01*
X37078907Y-20705179D01*
X37140093Y-20705179D01*
X37189593Y-20741143D01*
X37196809Y-20752665D01*
X37264090Y-20878538D01*
X37264092Y-20878540D01*
X37264093Y-20878542D01*
X37389112Y-21030878D01*
X37389121Y-21030887D01*
X37541456Y-21155905D01*
X37541462Y-21155910D01*
X37715273Y-21248814D01*
X37903868Y-21306024D01*
X37903870Y-21306024D01*
X37903873Y-21306025D01*
X38099997Y-21325341D01*
X38100000Y-21325341D01*
X38100003Y-21325341D01*
X38296126Y-21306025D01*
X38296127Y-21306024D01*
X38296132Y-21306024D01*
X38484727Y-21248814D01*
X38658538Y-21155910D01*
X38687694Y-21131981D01*
X38744671Y-21109681D01*
X38803874Y-21125129D01*
X38842690Y-21172426D01*
X38849500Y-21208509D01*
X38849500Y-26653810D01*
X38830593Y-26712001D01*
X38820503Y-26723814D01*
X38563823Y-26980493D01*
X38509307Y-27008270D01*
X38465082Y-27005226D01*
X38296132Y-26953975D01*
X38296126Y-26953974D01*
X38100003Y-26934659D01*
X38099997Y-26934659D01*
X37903873Y-26953974D01*
X37903870Y-26953975D01*
X37715269Y-27011187D01*
X37715267Y-27011188D01*
X37541467Y-27104087D01*
X37541457Y-27104093D01*
X37389121Y-27229112D01*
X37389112Y-27229121D01*
X37264093Y-27381457D01*
X37264087Y-27381467D01*
X37171188Y-27555267D01*
X37171187Y-27555269D01*
X37113975Y-27743870D01*
X37113974Y-27743873D01*
X37094659Y-27939996D01*
X37094659Y-27940003D01*
X37113974Y-28136126D01*
X37113975Y-28136129D01*
X37171187Y-28324730D01*
X37171188Y-28324732D01*
X37242218Y-28457618D01*
X37264090Y-28498538D01*
X37264092Y-28498540D01*
X37264093Y-28498542D01*
X37389112Y-28650878D01*
X37389121Y-28650887D01*
X37541457Y-28775906D01*
X37541462Y-28775910D01*
X37715273Y-28868814D01*
X37903868Y-28926024D01*
X37903870Y-28926024D01*
X37903873Y-28926025D01*
X38099997Y-28945341D01*
X38100000Y-28945341D01*
X38100003Y-28945341D01*
X38296126Y-28926025D01*
X38296127Y-28926024D01*
X38296132Y-28926024D01*
X38484727Y-28868814D01*
X38658538Y-28775910D01*
X38810883Y-28650883D01*
X38935910Y-28498538D01*
X39028814Y-28324727D01*
X39086024Y-28136132D01*
X39103474Y-27958964D01*
X39105341Y-27940003D01*
X39105341Y-27939996D01*
X39086025Y-27743873D01*
X39086024Y-27743871D01*
X39086024Y-27743870D01*
X39086024Y-27743868D01*
X39034772Y-27574913D01*
X39035973Y-27513743D01*
X39059504Y-27476176D01*
X39480470Y-27055212D01*
X39526614Y-26975288D01*
X39550500Y-26886144D01*
X39550500Y-20799334D01*
X39569407Y-20741143D01*
X39618907Y-20705179D01*
X39680093Y-20705179D01*
X39729593Y-20741143D01*
X39736809Y-20752665D01*
X39804090Y-20878538D01*
X39804092Y-20878540D01*
X39804093Y-20878542D01*
X39929112Y-21030878D01*
X39929121Y-21030887D01*
X40081456Y-21155905D01*
X40081462Y-21155910D01*
X40255273Y-21248814D01*
X40443868Y-21306024D01*
X40443870Y-21306024D01*
X40443873Y-21306025D01*
X40639997Y-21325341D01*
X40640000Y-21325341D01*
X40640003Y-21325341D01*
X40836126Y-21306025D01*
X40836127Y-21306024D01*
X40836132Y-21306024D01*
X41024727Y-21248814D01*
X41198538Y-21155910D01*
X41227694Y-21131981D01*
X41284671Y-21109681D01*
X41343874Y-21125129D01*
X41382690Y-21172426D01*
X41389500Y-21208509D01*
X41389500Y-26653810D01*
X41370593Y-26712001D01*
X41360503Y-26723814D01*
X41103823Y-26980493D01*
X41049307Y-27008270D01*
X41005082Y-27005226D01*
X40836132Y-26953975D01*
X40836126Y-26953974D01*
X40640003Y-26934659D01*
X40639997Y-26934659D01*
X40443873Y-26953974D01*
X40443870Y-26953975D01*
X40255269Y-27011187D01*
X40255267Y-27011188D01*
X40081467Y-27104087D01*
X40081457Y-27104093D01*
X39929121Y-27229112D01*
X39929112Y-27229121D01*
X39804093Y-27381457D01*
X39804087Y-27381467D01*
X39711188Y-27555267D01*
X39711187Y-27555269D01*
X39653975Y-27743870D01*
X39653974Y-27743873D01*
X39634659Y-27939996D01*
X39634659Y-27940003D01*
X39653974Y-28136126D01*
X39653975Y-28136129D01*
X39711187Y-28324730D01*
X39711188Y-28324732D01*
X39782218Y-28457618D01*
X39804090Y-28498538D01*
X39804092Y-28498540D01*
X39804093Y-28498542D01*
X39929112Y-28650878D01*
X39929121Y-28650887D01*
X40081457Y-28775906D01*
X40081462Y-28775910D01*
X40255273Y-28868814D01*
X40443868Y-28926024D01*
X40443870Y-28926024D01*
X40443873Y-28926025D01*
X40639997Y-28945341D01*
X40640000Y-28945341D01*
X40640003Y-28945341D01*
X40836126Y-28926025D01*
X40836127Y-28926024D01*
X40836132Y-28926024D01*
X41024727Y-28868814D01*
X41198538Y-28775910D01*
X41350883Y-28650883D01*
X41475910Y-28498538D01*
X41568814Y-28324727D01*
X41626024Y-28136132D01*
X41643474Y-27958964D01*
X41645341Y-27940003D01*
X41645341Y-27939996D01*
X41626025Y-27743873D01*
X41626024Y-27743871D01*
X41626024Y-27743870D01*
X41626024Y-27743868D01*
X41574772Y-27574913D01*
X41575973Y-27513743D01*
X41599504Y-27476176D01*
X42020470Y-27055212D01*
X42066614Y-26975288D01*
X42090500Y-26886144D01*
X42090500Y-20799334D01*
X42109407Y-20741143D01*
X42158907Y-20705179D01*
X42220093Y-20705179D01*
X42269593Y-20741143D01*
X42276809Y-20752665D01*
X42344090Y-20878538D01*
X42344092Y-20878540D01*
X42344093Y-20878542D01*
X42469112Y-21030878D01*
X42469121Y-21030887D01*
X42621456Y-21155905D01*
X42621462Y-21155910D01*
X42795273Y-21248814D01*
X42983868Y-21306024D01*
X42983870Y-21306024D01*
X42983873Y-21306025D01*
X43179997Y-21325341D01*
X43180000Y-21325341D01*
X43180003Y-21325341D01*
X43376126Y-21306025D01*
X43376127Y-21306024D01*
X43376132Y-21306024D01*
X43564727Y-21248814D01*
X43738538Y-21155910D01*
X43767694Y-21131981D01*
X43824671Y-21109681D01*
X43883874Y-21125129D01*
X43922690Y-21172426D01*
X43929500Y-21208509D01*
X43929500Y-26653810D01*
X43910593Y-26712001D01*
X43900503Y-26723814D01*
X43643823Y-26980493D01*
X43589307Y-27008270D01*
X43545082Y-27005226D01*
X43376132Y-26953975D01*
X43376126Y-26953974D01*
X43180003Y-26934659D01*
X43179997Y-26934659D01*
X42983873Y-26953974D01*
X42983870Y-26953975D01*
X42795269Y-27011187D01*
X42795267Y-27011188D01*
X42621467Y-27104087D01*
X42621457Y-27104093D01*
X42469121Y-27229112D01*
X42469112Y-27229121D01*
X42344093Y-27381457D01*
X42344087Y-27381467D01*
X42251188Y-27555267D01*
X42251187Y-27555269D01*
X42193975Y-27743870D01*
X42193974Y-27743873D01*
X42174659Y-27939996D01*
X42174659Y-27940003D01*
X42193974Y-28136126D01*
X42193975Y-28136129D01*
X42251187Y-28324730D01*
X42251188Y-28324732D01*
X42322218Y-28457618D01*
X42344090Y-28498538D01*
X42344092Y-28498540D01*
X42344093Y-28498542D01*
X42469112Y-28650878D01*
X42469121Y-28650887D01*
X42621457Y-28775906D01*
X42621462Y-28775910D01*
X42795273Y-28868814D01*
X42983868Y-28926024D01*
X42983870Y-28926024D01*
X42983873Y-28926025D01*
X43179997Y-28945341D01*
X43180000Y-28945341D01*
X43180003Y-28945341D01*
X43376126Y-28926025D01*
X43376127Y-28926024D01*
X43376132Y-28926024D01*
X43564727Y-28868814D01*
X43738538Y-28775910D01*
X43890883Y-28650883D01*
X44015910Y-28498538D01*
X44108814Y-28324727D01*
X44166024Y-28136132D01*
X44183474Y-27958964D01*
X44185341Y-27940003D01*
X44185341Y-27939996D01*
X44166025Y-27743873D01*
X44166024Y-27743871D01*
X44166024Y-27743870D01*
X44166024Y-27743868D01*
X44114772Y-27574913D01*
X44115973Y-27513743D01*
X44139504Y-27476176D01*
X44560470Y-27055212D01*
X44606614Y-26975288D01*
X44630500Y-26886144D01*
X44630500Y-21352916D01*
X44649407Y-21294725D01*
X44698907Y-21258761D01*
X44760093Y-21258761D01*
X44784495Y-21270597D01*
X44841769Y-21308867D01*
X44886231Y-21317711D01*
X44900241Y-21320498D01*
X44900246Y-21320498D01*
X44900252Y-21320500D01*
X46370500Y-21320500D01*
X46428691Y-21339407D01*
X46464655Y-21388907D01*
X46469500Y-21419500D01*
X46469500Y-26158834D01*
X46450593Y-26217025D01*
X46440504Y-26228838D01*
X45761334Y-26908007D01*
X45706817Y-26935784D01*
X45701034Y-26936526D01*
X45523872Y-26953974D01*
X45523870Y-26953975D01*
X45335269Y-27011187D01*
X45335267Y-27011188D01*
X45161467Y-27104087D01*
X45161457Y-27104093D01*
X45009121Y-27229112D01*
X45009112Y-27229121D01*
X44884093Y-27381457D01*
X44884087Y-27381467D01*
X44791188Y-27555267D01*
X44791187Y-27555269D01*
X44733975Y-27743870D01*
X44733974Y-27743873D01*
X44714659Y-27939996D01*
X44714659Y-27940003D01*
X44733974Y-28136126D01*
X44733975Y-28136129D01*
X44791187Y-28324730D01*
X44791188Y-28324732D01*
X44862218Y-28457618D01*
X44884090Y-28498538D01*
X44884092Y-28498540D01*
X44884093Y-28498542D01*
X45009112Y-28650878D01*
X45009121Y-28650887D01*
X45161457Y-28775906D01*
X45161462Y-28775910D01*
X45335273Y-28868814D01*
X45523868Y-28926024D01*
X45523870Y-28926024D01*
X45523873Y-28926025D01*
X45719997Y-28945341D01*
X45720000Y-28945341D01*
X45720003Y-28945341D01*
X45916126Y-28926025D01*
X45916127Y-28926024D01*
X45916132Y-28926024D01*
X46104727Y-28868814D01*
X46278538Y-28775910D01*
X46430883Y-28650883D01*
X46555910Y-28498538D01*
X46648814Y-28324727D01*
X46706024Y-28136132D01*
X46723473Y-27958963D01*
X46747992Y-27902907D01*
X46751975Y-27898680D01*
X47714114Y-26936543D01*
X47790775Y-26821811D01*
X47843580Y-26694328D01*
X47870500Y-26558994D01*
X47870500Y-26421006D01*
X47870500Y-15351007D01*
X47857412Y-15285212D01*
X47843580Y-15215672D01*
X47790775Y-15088189D01*
X47714114Y-14973457D01*
X46749496Y-14008839D01*
X46721719Y-13954322D01*
X46720500Y-13938835D01*
X46720500Y-13150253D01*
X46720498Y-13150241D01*
X46716898Y-13132143D01*
X46708867Y-13091769D01*
X46664552Y-13025448D01*
X46602486Y-12983976D01*
X46598233Y-12981134D01*
X46598231Y-12981133D01*
X46598228Y-12981132D01*
X46598227Y-12981132D01*
X46539758Y-12969501D01*
X46539748Y-12969500D01*
X44900252Y-12969500D01*
X44900251Y-12969500D01*
X44900241Y-12969501D01*
X44841772Y-12981132D01*
X44841766Y-12981134D01*
X44775451Y-13025445D01*
X44775445Y-13025451D01*
X44731134Y-13091766D01*
X44731132Y-13091772D01*
X44719501Y-13150241D01*
X44719500Y-13150253D01*
X44719500Y-14774810D01*
X44700593Y-14833001D01*
X44651093Y-14868965D01*
X44589907Y-14868965D01*
X44550496Y-14844814D01*
X44139506Y-14433824D01*
X44111729Y-14379307D01*
X44114772Y-14335083D01*
X44166024Y-14166132D01*
X44185341Y-13970000D01*
X44182272Y-13938835D01*
X44166025Y-13773873D01*
X44166024Y-13773870D01*
X44166024Y-13773868D01*
X44108814Y-13585273D01*
X44015910Y-13411462D01*
X44015906Y-13411457D01*
X43890887Y-13259121D01*
X43890878Y-13259112D01*
X43738542Y-13134093D01*
X43738540Y-13134092D01*
X43738538Y-13134090D01*
X43659361Y-13091769D01*
X43564732Y-13041188D01*
X43564730Y-13041187D01*
X43376129Y-12983975D01*
X43376126Y-12983974D01*
X43180003Y-12964659D01*
X43179997Y-12964659D01*
X42983873Y-12983974D01*
X42983870Y-12983975D01*
X42795269Y-13041187D01*
X42795267Y-13041188D01*
X42621467Y-13134087D01*
X42621457Y-13134093D01*
X42469121Y-13259112D01*
X42469112Y-13259121D01*
X42344093Y-13411457D01*
X42344087Y-13411467D01*
X42251188Y-13585267D01*
X42251187Y-13585269D01*
X42193975Y-13773870D01*
X42193974Y-13773873D01*
X42174659Y-13969996D01*
X42174659Y-13970003D01*
X42193974Y-14166126D01*
X42193975Y-14166129D01*
X42251187Y-14354730D01*
X42251188Y-14354732D01*
X42293464Y-14433824D01*
X42344090Y-14528538D01*
X42344092Y-14528540D01*
X42344093Y-14528542D01*
X42469112Y-14680878D01*
X42469121Y-14680887D01*
X42621457Y-14805906D01*
X42621462Y-14805910D01*
X42795273Y-14898814D01*
X42983868Y-14956024D01*
X42983870Y-14956024D01*
X42983873Y-14956025D01*
X43179997Y-14975341D01*
X43180000Y-14975341D01*
X43180003Y-14975341D01*
X43376126Y-14956025D01*
X43376127Y-14956024D01*
X43376132Y-14956024D01*
X43545082Y-14904773D01*
X43606255Y-14905974D01*
X43643824Y-14929506D01*
X43900504Y-15186186D01*
X43928281Y-15240703D01*
X43929500Y-15256190D01*
X43929500Y-19431490D01*
X43910593Y-19489681D01*
X43861093Y-19525645D01*
X43799907Y-19525645D01*
X43767696Y-19508019D01*
X43753885Y-19496685D01*
X43738538Y-19484090D01*
X43659361Y-19441769D01*
X43564732Y-19391188D01*
X43564730Y-19391187D01*
X43376129Y-19333975D01*
X43376126Y-19333974D01*
X43180003Y-19314659D01*
X43179997Y-19314659D01*
X42983873Y-19333974D01*
X42983870Y-19333975D01*
X42795269Y-19391187D01*
X42795267Y-19391188D01*
X42621467Y-19484087D01*
X42621457Y-19484093D01*
X42469121Y-19609112D01*
X42469112Y-19609121D01*
X42344093Y-19761457D01*
X42344089Y-19761463D01*
X42276810Y-19887334D01*
X42232704Y-19929740D01*
X42172096Y-19938123D01*
X42118135Y-19909280D01*
X42091434Y-19854229D01*
X42090500Y-19840665D01*
X42090500Y-15023857D01*
X42090500Y-15023856D01*
X42066614Y-14934712D01*
X42020470Y-14854788D01*
X41846560Y-14680878D01*
X41599506Y-14433823D01*
X41571729Y-14379307D01*
X41574772Y-14335083D01*
X41626024Y-14166132D01*
X41645341Y-13970000D01*
X41642272Y-13938835D01*
X41626025Y-13773873D01*
X41626024Y-13773870D01*
X41626024Y-13773868D01*
X41568814Y-13585273D01*
X41475910Y-13411462D01*
X41475906Y-13411457D01*
X41350887Y-13259121D01*
X41350878Y-13259112D01*
X41198542Y-13134093D01*
X41198540Y-13134092D01*
X41198538Y-13134090D01*
X41119361Y-13091769D01*
X41024732Y-13041188D01*
X41024730Y-13041187D01*
X40836129Y-12983975D01*
X40836126Y-12983974D01*
X40640003Y-12964659D01*
X40639997Y-12964659D01*
X40443873Y-12983974D01*
X40443870Y-12983975D01*
X40255269Y-13041187D01*
X40255267Y-13041188D01*
X40081467Y-13134087D01*
X40081457Y-13134093D01*
X39929121Y-13259112D01*
X39929112Y-13259121D01*
X39804093Y-13411457D01*
X39804087Y-13411467D01*
X39711188Y-13585267D01*
X39711187Y-13585269D01*
X39653975Y-13773870D01*
X39653974Y-13773873D01*
X39634659Y-13969996D01*
X39634659Y-13970003D01*
X39653974Y-14166126D01*
X39653975Y-14166129D01*
X39711187Y-14354730D01*
X39711188Y-14354732D01*
X39753464Y-14433824D01*
X39804090Y-14528538D01*
X39804092Y-14528540D01*
X39804093Y-14528542D01*
X39929112Y-14680878D01*
X39929121Y-14680887D01*
X40081457Y-14805906D01*
X40081462Y-14805910D01*
X40255273Y-14898814D01*
X40443868Y-14956024D01*
X40443870Y-14956024D01*
X40443873Y-14956025D01*
X40639997Y-14975341D01*
X40640000Y-14975341D01*
X40640003Y-14975341D01*
X40836126Y-14956025D01*
X40836127Y-14956024D01*
X40836132Y-14956024D01*
X41005082Y-14904773D01*
X41066255Y-14905974D01*
X41103824Y-14929506D01*
X41360504Y-15186186D01*
X41388281Y-15240703D01*
X41389500Y-15256190D01*
X41389500Y-19431490D01*
X41370593Y-19489681D01*
X41321093Y-19525645D01*
X41259907Y-19525645D01*
X41227696Y-19508019D01*
X41213885Y-19496685D01*
X41198538Y-19484090D01*
X41119361Y-19441769D01*
X41024732Y-19391188D01*
X41024730Y-19391187D01*
X40836129Y-19333975D01*
X40836126Y-19333974D01*
X40640003Y-19314659D01*
X40639997Y-19314659D01*
X40443873Y-19333974D01*
X40443870Y-19333975D01*
X40255269Y-19391187D01*
X40255267Y-19391188D01*
X40081467Y-19484087D01*
X40081457Y-19484093D01*
X39929121Y-19609112D01*
X39929112Y-19609121D01*
X39804093Y-19761457D01*
X39804089Y-19761463D01*
X39736810Y-19887334D01*
X39692704Y-19929740D01*
X39632096Y-19938123D01*
X39578135Y-19909280D01*
X39551434Y-19854229D01*
X39550500Y-19840665D01*
X39550500Y-15023857D01*
X39550500Y-15023856D01*
X39526614Y-14934712D01*
X39480470Y-14854788D01*
X39306560Y-14680878D01*
X39059506Y-14433823D01*
X39031729Y-14379307D01*
X39034772Y-14335083D01*
X39086024Y-14166132D01*
X39105341Y-13970000D01*
X39102272Y-13938835D01*
X39086025Y-13773873D01*
X39086024Y-13773870D01*
X39086024Y-13773868D01*
X39028814Y-13585273D01*
X38935910Y-13411462D01*
X38935906Y-13411457D01*
X38810887Y-13259121D01*
X38810878Y-13259112D01*
X38658542Y-13134093D01*
X38658540Y-13134092D01*
X38658538Y-13134090D01*
X38579361Y-13091769D01*
X38484732Y-13041188D01*
X38484730Y-13041187D01*
X38296129Y-12983975D01*
X38296126Y-12983974D01*
X38100003Y-12964659D01*
X38099997Y-12964659D01*
X37903873Y-12983974D01*
X37903870Y-12983975D01*
X37715269Y-13041187D01*
X37715267Y-13041188D01*
X37541467Y-13134087D01*
X37541457Y-13134093D01*
X37389121Y-13259112D01*
X37389112Y-13259121D01*
X37264093Y-13411457D01*
X37264087Y-13411467D01*
X37171188Y-13585267D01*
X37171187Y-13585269D01*
X37113975Y-13773870D01*
X37113974Y-13773873D01*
X37094659Y-13969996D01*
X37094659Y-13970003D01*
X37113974Y-14166126D01*
X37113975Y-14166129D01*
X37171187Y-14354730D01*
X37171188Y-14354732D01*
X37213464Y-14433824D01*
X37264090Y-14528538D01*
X37264092Y-14528540D01*
X37264093Y-14528542D01*
X37389112Y-14680878D01*
X37389121Y-14680887D01*
X37541457Y-14805906D01*
X37541462Y-14805910D01*
X37715273Y-14898814D01*
X37903868Y-14956024D01*
X37903870Y-14956024D01*
X37903873Y-14956025D01*
X38099997Y-14975341D01*
X38100000Y-14975341D01*
X38100003Y-14975341D01*
X38296126Y-14956025D01*
X38296127Y-14956024D01*
X38296132Y-14956024D01*
X38465082Y-14904773D01*
X38526255Y-14905974D01*
X38563824Y-14929506D01*
X38820504Y-15186186D01*
X38848281Y-15240703D01*
X38849500Y-15256190D01*
X38849500Y-19431490D01*
X38830593Y-19489681D01*
X38781093Y-19525645D01*
X38719907Y-19525645D01*
X38687696Y-19508019D01*
X38673885Y-19496685D01*
X38658538Y-19484090D01*
X38579361Y-19441769D01*
X38484732Y-19391188D01*
X38484730Y-19391187D01*
X38296129Y-19333975D01*
X38296126Y-19333974D01*
X38100003Y-19314659D01*
X38099997Y-19314659D01*
X37903873Y-19333974D01*
X37903870Y-19333975D01*
X37715269Y-19391187D01*
X37715267Y-19391188D01*
X37541467Y-19484087D01*
X37541457Y-19484093D01*
X37389121Y-19609112D01*
X37389112Y-19609121D01*
X37264093Y-19761457D01*
X37264089Y-19761463D01*
X37196810Y-19887334D01*
X37152704Y-19929740D01*
X37092096Y-19938123D01*
X37038135Y-19909280D01*
X37011434Y-19854229D01*
X37010500Y-19840665D01*
X37010500Y-15023857D01*
X37010500Y-15023856D01*
X36986614Y-14934712D01*
X36940470Y-14854788D01*
X36766560Y-14680878D01*
X36519506Y-14433823D01*
X36491729Y-14379307D01*
X36494772Y-14335083D01*
X36546024Y-14166132D01*
X36565341Y-13970000D01*
X36562272Y-13938835D01*
X36546025Y-13773873D01*
X36546024Y-13773870D01*
X36546024Y-13773868D01*
X36488814Y-13585273D01*
X36395910Y-13411462D01*
X36395906Y-13411457D01*
X36270887Y-13259121D01*
X36270878Y-13259112D01*
X36118542Y-13134093D01*
X36118540Y-13134092D01*
X36118538Y-13134090D01*
X36039361Y-13091769D01*
X35944732Y-13041188D01*
X35944730Y-13041187D01*
X35756129Y-12983975D01*
X35756126Y-12983974D01*
X35560003Y-12964659D01*
X35559997Y-12964659D01*
X35363873Y-12983974D01*
X35363870Y-12983975D01*
X35175269Y-13041187D01*
X35175267Y-13041188D01*
X35001467Y-13134087D01*
X35001457Y-13134093D01*
X34849121Y-13259112D01*
X34849112Y-13259121D01*
X34724093Y-13411457D01*
X34724087Y-13411467D01*
X34631188Y-13585267D01*
X34631187Y-13585269D01*
X34573975Y-13773870D01*
X34573974Y-13773873D01*
X34554659Y-13969996D01*
X34554659Y-13970003D01*
X34573974Y-14166126D01*
X34573975Y-14166129D01*
X34631187Y-14354730D01*
X34631188Y-14354732D01*
X34673464Y-14433824D01*
X34724090Y-14528538D01*
X34724092Y-14528540D01*
X34724093Y-14528542D01*
X34849112Y-14680878D01*
X34849121Y-14680887D01*
X35001457Y-14805906D01*
X35001462Y-14805910D01*
X35175273Y-14898814D01*
X35363868Y-14956024D01*
X35363870Y-14956024D01*
X35363873Y-14956025D01*
X35559997Y-14975341D01*
X35560000Y-14975341D01*
X35560003Y-14975341D01*
X35756126Y-14956025D01*
X35756127Y-14956024D01*
X35756132Y-14956024D01*
X35925082Y-14904773D01*
X35986255Y-14905974D01*
X36023824Y-14929506D01*
X36280504Y-15186186D01*
X36308281Y-15240703D01*
X36309500Y-15256190D01*
X36309500Y-19431490D01*
X36290593Y-19489681D01*
X36241093Y-19525645D01*
X36179907Y-19525645D01*
X36147696Y-19508019D01*
X36133885Y-19496685D01*
X36118538Y-19484090D01*
X36039361Y-19441769D01*
X35944732Y-19391188D01*
X35944730Y-19391187D01*
X35756129Y-19333975D01*
X35756126Y-19333974D01*
X35560003Y-19314659D01*
X35559997Y-19314659D01*
X35363873Y-19333974D01*
X35363870Y-19333975D01*
X35175269Y-19391187D01*
X35175267Y-19391188D01*
X35001467Y-19484087D01*
X35001457Y-19484093D01*
X34849121Y-19609112D01*
X34849112Y-19609121D01*
X34724093Y-19761457D01*
X34724089Y-19761463D01*
X34656810Y-19887334D01*
X34612704Y-19929740D01*
X34552096Y-19938123D01*
X34498135Y-19909280D01*
X34471434Y-19854229D01*
X34470500Y-19840665D01*
X34470500Y-15023857D01*
X34470500Y-15023856D01*
X34446614Y-14934712D01*
X34400470Y-14854788D01*
X34226560Y-14680878D01*
X33979506Y-14433823D01*
X33951729Y-14379307D01*
X33954772Y-14335083D01*
X34006024Y-14166132D01*
X34025341Y-13970000D01*
X34022272Y-13938835D01*
X34006025Y-13773873D01*
X34006024Y-13773870D01*
X34006024Y-13773868D01*
X33948814Y-13585273D01*
X33855910Y-13411462D01*
X33855906Y-13411457D01*
X33730887Y-13259121D01*
X33730878Y-13259112D01*
X33578542Y-13134093D01*
X33578540Y-13134092D01*
X33578538Y-13134090D01*
X33499361Y-13091769D01*
X33404732Y-13041188D01*
X33404730Y-13041187D01*
X33216129Y-12983975D01*
X33216126Y-12983974D01*
X33020003Y-12964659D01*
X33019997Y-12964659D01*
X32823873Y-12983974D01*
X32823870Y-12983975D01*
X32635269Y-13041187D01*
X32635267Y-13041188D01*
X32461467Y-13134087D01*
X32461457Y-13134093D01*
X32309121Y-13259112D01*
X32309112Y-13259121D01*
X32184093Y-13411457D01*
X32184087Y-13411467D01*
X32091188Y-13585267D01*
X32091187Y-13585269D01*
X32033975Y-13773870D01*
X32033974Y-13773873D01*
X32014659Y-13969996D01*
X32014659Y-13970003D01*
X32033974Y-14166126D01*
X32033975Y-14166129D01*
X32091187Y-14354730D01*
X32091188Y-14354732D01*
X32133464Y-14433824D01*
X32184090Y-14528538D01*
X32184092Y-14528540D01*
X32184093Y-14528542D01*
X32309112Y-14680878D01*
X32309121Y-14680887D01*
X32461457Y-14805906D01*
X32461462Y-14805910D01*
X32635273Y-14898814D01*
X32823868Y-14956024D01*
X32823870Y-14956024D01*
X32823873Y-14956025D01*
X33019997Y-14975341D01*
X33020000Y-14975341D01*
X33020003Y-14975341D01*
X33216126Y-14956025D01*
X33216127Y-14956024D01*
X33216132Y-14956024D01*
X33385082Y-14904773D01*
X33446255Y-14905974D01*
X33483824Y-14929506D01*
X33740504Y-15186186D01*
X33768281Y-15240703D01*
X33769500Y-15256190D01*
X33769500Y-19431490D01*
X33750593Y-19489681D01*
X33701093Y-19525645D01*
X33639907Y-19525645D01*
X33607696Y-19508019D01*
X33593885Y-19496685D01*
X33578538Y-19484090D01*
X33499361Y-19441769D01*
X33404732Y-19391188D01*
X33404730Y-19391187D01*
X33216129Y-19333975D01*
X33216126Y-19333974D01*
X33020003Y-19314659D01*
X33019997Y-19314659D01*
X32823873Y-19333974D01*
X32823870Y-19333975D01*
X32635269Y-19391187D01*
X32635267Y-19391188D01*
X32461467Y-19484087D01*
X32461457Y-19484093D01*
X32309121Y-19609112D01*
X32309112Y-19609121D01*
X32184093Y-19761457D01*
X32184089Y-19761463D01*
X32116810Y-19887334D01*
X32072704Y-19929740D01*
X32012096Y-19938123D01*
X31958135Y-19909280D01*
X31931434Y-19854229D01*
X31930500Y-19840665D01*
X31930500Y-15023857D01*
X31930500Y-15023856D01*
X31906614Y-14934712D01*
X31860470Y-14854788D01*
X31686560Y-14680878D01*
X31439506Y-14433823D01*
X31411729Y-14379307D01*
X31414772Y-14335083D01*
X31466024Y-14166132D01*
X31485341Y-13970000D01*
X31482272Y-13938835D01*
X31466025Y-13773873D01*
X31466024Y-13773870D01*
X31466024Y-13773868D01*
X31408814Y-13585273D01*
X31315910Y-13411462D01*
X31315906Y-13411457D01*
X31190887Y-13259121D01*
X31190878Y-13259112D01*
X31038542Y-13134093D01*
X31038540Y-13134092D01*
X31038538Y-13134090D01*
X30959361Y-13091769D01*
X30864732Y-13041188D01*
X30864730Y-13041187D01*
X30676129Y-12983975D01*
X30676126Y-12983974D01*
X30480003Y-12964659D01*
X30479997Y-12964659D01*
X30283873Y-12983974D01*
X30283870Y-12983975D01*
X30095269Y-13041187D01*
X30095267Y-13041188D01*
X29921467Y-13134087D01*
X29921457Y-13134093D01*
X29769121Y-13259112D01*
X29769112Y-13259121D01*
X29644093Y-13411457D01*
X29644087Y-13411467D01*
X29551188Y-13585267D01*
X29551187Y-13585269D01*
X29493975Y-13773870D01*
X29493974Y-13773873D01*
X29474659Y-13969996D01*
X29474659Y-13970003D01*
X29493974Y-14166126D01*
X29493975Y-14166129D01*
X29551187Y-14354730D01*
X29551188Y-14354732D01*
X29593464Y-14433824D01*
X29644090Y-14528538D01*
X29644092Y-14528540D01*
X29644093Y-14528542D01*
X29769112Y-14680878D01*
X29769121Y-14680887D01*
X29921457Y-14805906D01*
X29921462Y-14805910D01*
X30095273Y-14898814D01*
X30283868Y-14956024D01*
X30283870Y-14956024D01*
X30283873Y-14956025D01*
X30479997Y-14975341D01*
X30480000Y-14975341D01*
X30480003Y-14975341D01*
X30676126Y-14956025D01*
X30676127Y-14956024D01*
X30676132Y-14956024D01*
X30845082Y-14904773D01*
X30906255Y-14905974D01*
X30943824Y-14929506D01*
X31200504Y-15186186D01*
X31228281Y-15240703D01*
X31229500Y-15256190D01*
X31229500Y-19431490D01*
X31210593Y-19489681D01*
X31161093Y-19525645D01*
X31099907Y-19525645D01*
X31067696Y-19508019D01*
X31053885Y-19496685D01*
X31038538Y-19484090D01*
X30959361Y-19441769D01*
X30864732Y-19391188D01*
X30864730Y-19391187D01*
X30676129Y-19333975D01*
X30676126Y-19333974D01*
X30480003Y-19314659D01*
X30479997Y-19314659D01*
X30283873Y-19333974D01*
X30283870Y-19333975D01*
X30095269Y-19391187D01*
X30095267Y-19391188D01*
X29921467Y-19484087D01*
X29921457Y-19484093D01*
X29769121Y-19609112D01*
X29769112Y-19609121D01*
X29644093Y-19761457D01*
X29644089Y-19761463D01*
X29576810Y-19887334D01*
X29532704Y-19929740D01*
X29472096Y-19938123D01*
X29418135Y-19909280D01*
X29391434Y-19854229D01*
X29390500Y-19840665D01*
X29390500Y-15023857D01*
X29390500Y-15023856D01*
X29366614Y-14934712D01*
X29320470Y-14854788D01*
X29146560Y-14680878D01*
X28899506Y-14433823D01*
X28871729Y-14379307D01*
X28874772Y-14335083D01*
X28926024Y-14166132D01*
X28945341Y-13970000D01*
X28942272Y-13938835D01*
X28926025Y-13773873D01*
X28926024Y-13773870D01*
X28926024Y-13773868D01*
X28868814Y-13585273D01*
X28775910Y-13411462D01*
X28775906Y-13411457D01*
X28650887Y-13259121D01*
X28650878Y-13259112D01*
X28498542Y-13134093D01*
X28498540Y-13134092D01*
X28498538Y-13134090D01*
X28419361Y-13091769D01*
X28324732Y-13041188D01*
X28324730Y-13041187D01*
X28136129Y-12983975D01*
X28136126Y-12983974D01*
X27940003Y-12964659D01*
X27939997Y-12964659D01*
X27743873Y-12983974D01*
X27743870Y-12983975D01*
X27555269Y-13041187D01*
X27555267Y-13041188D01*
X27381467Y-13134087D01*
X27381457Y-13134093D01*
X27229121Y-13259112D01*
X27229112Y-13259121D01*
X27104093Y-13411457D01*
X27104087Y-13411467D01*
X27011188Y-13585267D01*
X27011187Y-13585269D01*
X26953975Y-13773870D01*
X26953974Y-13773873D01*
X26934659Y-13969996D01*
X23860500Y-13969996D01*
X23860500Y-13150253D01*
X23860498Y-13150241D01*
X23856898Y-13132143D01*
X23848867Y-13091769D01*
X23804552Y-13025448D01*
X23742486Y-12983976D01*
X23738233Y-12981134D01*
X23738231Y-12981133D01*
X23738228Y-12981132D01*
X23738227Y-12981132D01*
X23679758Y-12969501D01*
X23679748Y-12969500D01*
X22040252Y-12969500D01*
X22040251Y-12969500D01*
X22040241Y-12969501D01*
X21981772Y-12981132D01*
X21981766Y-12981134D01*
X21915451Y-13025445D01*
X21915445Y-13025451D01*
X21871134Y-13091766D01*
X21871132Y-13091772D01*
X21859501Y-13150241D01*
X21859500Y-13150253D01*
X21859500Y-14774810D01*
X21840593Y-14833001D01*
X21791093Y-14868965D01*
X21729907Y-14868965D01*
X21690496Y-14844814D01*
X21279506Y-14433824D01*
X21251729Y-14379307D01*
X21254772Y-14335083D01*
X21306024Y-14166132D01*
X21325341Y-13970000D01*
X21322272Y-13938835D01*
X21306025Y-13773873D01*
X21306024Y-13773870D01*
X21306024Y-13773868D01*
X21248814Y-13585273D01*
X21155910Y-13411462D01*
X21155906Y-13411457D01*
X21030887Y-13259121D01*
X21030878Y-13259112D01*
X20878542Y-13134093D01*
X20878540Y-13134092D01*
X20878538Y-13134090D01*
X20799361Y-13091769D01*
X20704732Y-13041188D01*
X20704730Y-13041187D01*
X20516129Y-12983975D01*
X20516126Y-12983974D01*
X20320003Y-12964659D01*
X20319997Y-12964659D01*
X20123873Y-12983974D01*
X20123870Y-12983975D01*
X19935269Y-13041187D01*
X19935267Y-13041188D01*
X19761467Y-13134087D01*
X19761457Y-13134093D01*
X19609121Y-13259112D01*
X19609112Y-13259121D01*
X19484093Y-13411457D01*
X19484087Y-13411467D01*
X19391188Y-13585267D01*
X19391187Y-13585269D01*
X19333975Y-13773870D01*
X19333974Y-13773873D01*
X19314659Y-13969996D01*
X19314659Y-13970003D01*
X19333974Y-14166126D01*
X19333975Y-14166129D01*
X19391187Y-14354730D01*
X19391188Y-14354732D01*
X19433464Y-14433824D01*
X19484090Y-14528538D01*
X19484092Y-14528540D01*
X19484093Y-14528542D01*
X19609112Y-14680878D01*
X19609121Y-14680887D01*
X19761457Y-14805906D01*
X19761462Y-14805910D01*
X19935273Y-14898814D01*
X20123868Y-14956024D01*
X20123870Y-14956024D01*
X20123873Y-14956025D01*
X20319997Y-14975341D01*
X20320000Y-14975341D01*
X20320003Y-14975341D01*
X20516126Y-14956025D01*
X20516127Y-14956024D01*
X20516132Y-14956024D01*
X20685082Y-14904773D01*
X20746255Y-14905974D01*
X20783824Y-14929506D01*
X21040504Y-15186186D01*
X21068281Y-15240703D01*
X21069500Y-15256190D01*
X21069500Y-19431490D01*
X21050593Y-19489681D01*
X21001093Y-19525645D01*
X20939907Y-19525645D01*
X20907696Y-19508019D01*
X20893885Y-19496685D01*
X20878538Y-19484090D01*
X20799361Y-19441769D01*
X20704732Y-19391188D01*
X20704730Y-19391187D01*
X20516129Y-19333975D01*
X20516126Y-19333974D01*
X20320003Y-19314659D01*
X20319997Y-19314659D01*
X20123873Y-19333974D01*
X20123870Y-19333975D01*
X19935269Y-19391187D01*
X19935267Y-19391188D01*
X19761467Y-19484087D01*
X19761457Y-19484093D01*
X19609121Y-19609112D01*
X19609112Y-19609121D01*
X19484093Y-19761457D01*
X19484089Y-19761463D01*
X19416810Y-19887334D01*
X19372704Y-19929740D01*
X19312096Y-19938123D01*
X19258135Y-19909280D01*
X19231434Y-19854229D01*
X19230500Y-19840665D01*
X19230500Y-15023857D01*
X19230500Y-15023856D01*
X19206614Y-14934712D01*
X19160470Y-14854788D01*
X18986560Y-14680878D01*
X18739506Y-14433823D01*
X18711729Y-14379307D01*
X18714772Y-14335083D01*
X18766024Y-14166132D01*
X18785341Y-13970000D01*
X18782272Y-13938835D01*
X18766025Y-13773873D01*
X18766024Y-13773870D01*
X18766024Y-13773868D01*
X18708814Y-13585273D01*
X18615910Y-13411462D01*
X18615906Y-13411457D01*
X18490887Y-13259121D01*
X18490878Y-13259112D01*
X18338542Y-13134093D01*
X18338540Y-13134092D01*
X18338538Y-13134090D01*
X18259361Y-13091769D01*
X18164732Y-13041188D01*
X18164730Y-13041187D01*
X17976129Y-12983975D01*
X17976126Y-12983974D01*
X17780003Y-12964659D01*
X17779997Y-12964659D01*
X17583873Y-12983974D01*
X17583870Y-12983975D01*
X17395269Y-13041187D01*
X17395267Y-13041188D01*
X17221467Y-13134087D01*
X17221457Y-13134093D01*
X17069121Y-13259112D01*
X17069112Y-13259121D01*
X16944093Y-13411457D01*
X16944087Y-13411467D01*
X16851188Y-13585267D01*
X16851187Y-13585269D01*
X16793975Y-13773870D01*
X16793974Y-13773873D01*
X16774659Y-13969996D01*
X16774659Y-13970003D01*
X16793974Y-14166126D01*
X16793975Y-14166129D01*
X16851187Y-14354730D01*
X16851188Y-14354732D01*
X16893464Y-14433824D01*
X16944090Y-14528538D01*
X16944092Y-14528540D01*
X16944093Y-14528542D01*
X17069112Y-14680878D01*
X17069121Y-14680887D01*
X17221457Y-14805906D01*
X17221462Y-14805910D01*
X17395273Y-14898814D01*
X17583868Y-14956024D01*
X17583870Y-14956024D01*
X17583873Y-14956025D01*
X17779997Y-14975341D01*
X17780000Y-14975341D01*
X17780003Y-14975341D01*
X17976126Y-14956025D01*
X17976127Y-14956024D01*
X17976132Y-14956024D01*
X18145082Y-14904773D01*
X18206255Y-14905974D01*
X18243824Y-14929506D01*
X18500504Y-15186186D01*
X18528281Y-15240703D01*
X18529500Y-15256190D01*
X18529500Y-19431490D01*
X18510593Y-19489681D01*
X18461093Y-19525645D01*
X18399907Y-19525645D01*
X18367696Y-19508019D01*
X18353885Y-19496685D01*
X18338538Y-19484090D01*
X18259361Y-19441769D01*
X18164732Y-19391188D01*
X18164730Y-19391187D01*
X17976129Y-19333975D01*
X17976126Y-19333974D01*
X17780003Y-19314659D01*
X17779997Y-19314659D01*
X17583873Y-19333974D01*
X17583870Y-19333975D01*
X17395269Y-19391187D01*
X17395267Y-19391188D01*
X17221467Y-19484087D01*
X17221457Y-19484093D01*
X17069121Y-19609112D01*
X17069112Y-19609121D01*
X16944093Y-19761457D01*
X16944089Y-19761463D01*
X16876810Y-19887334D01*
X16832704Y-19929740D01*
X16772096Y-19938123D01*
X16718135Y-19909280D01*
X16691434Y-19854229D01*
X16690500Y-19840665D01*
X16690500Y-15023857D01*
X16690500Y-15023856D01*
X16666614Y-14934712D01*
X16620470Y-14854788D01*
X16446560Y-14680878D01*
X16199506Y-14433823D01*
X16171729Y-14379307D01*
X16174772Y-14335083D01*
X16226024Y-14166132D01*
X16245341Y-13970000D01*
X16242272Y-13938835D01*
X16226025Y-13773873D01*
X16226024Y-13773870D01*
X16226024Y-13773868D01*
X16168814Y-13585273D01*
X16075910Y-13411462D01*
X16075906Y-13411457D01*
X15950887Y-13259121D01*
X15950878Y-13259112D01*
X15798542Y-13134093D01*
X15798540Y-13134092D01*
X15798538Y-13134090D01*
X15719361Y-13091769D01*
X15624732Y-13041188D01*
X15624730Y-13041187D01*
X15436129Y-12983975D01*
X15436126Y-12983974D01*
X15240003Y-12964659D01*
X15239997Y-12964659D01*
X15043873Y-12983974D01*
X15043870Y-12983975D01*
X14855269Y-13041187D01*
X14855267Y-13041188D01*
X14681467Y-13134087D01*
X14681457Y-13134093D01*
X14529121Y-13259112D01*
X14529112Y-13259121D01*
X14404093Y-13411457D01*
X14404087Y-13411467D01*
X14311188Y-13585267D01*
X14311187Y-13585269D01*
X14253975Y-13773870D01*
X14253974Y-13773873D01*
X14234659Y-13969996D01*
X14234659Y-13970003D01*
X14253974Y-14166126D01*
X14253975Y-14166129D01*
X14311187Y-14354730D01*
X14311188Y-14354732D01*
X14353464Y-14433824D01*
X14404090Y-14528538D01*
X14404092Y-14528540D01*
X14404093Y-14528542D01*
X14529112Y-14680878D01*
X14529121Y-14680887D01*
X14681457Y-14805906D01*
X14681462Y-14805910D01*
X14855273Y-14898814D01*
X15043868Y-14956024D01*
X15043870Y-14956024D01*
X15043873Y-14956025D01*
X15239997Y-14975341D01*
X15240000Y-14975341D01*
X15240003Y-14975341D01*
X15436126Y-14956025D01*
X15436127Y-14956024D01*
X15436132Y-14956024D01*
X15605082Y-14904773D01*
X15666255Y-14905974D01*
X15703824Y-14929506D01*
X15960504Y-15186186D01*
X15988281Y-15240703D01*
X15989500Y-15256190D01*
X15989500Y-19431490D01*
X15970593Y-19489681D01*
X15921093Y-19525645D01*
X15859907Y-19525645D01*
X15827696Y-19508019D01*
X15813885Y-19496685D01*
X15798538Y-19484090D01*
X15719361Y-19441769D01*
X15624732Y-19391188D01*
X15624730Y-19391187D01*
X15436129Y-19333975D01*
X15436126Y-19333974D01*
X15240003Y-19314659D01*
X15239997Y-19314659D01*
X15043873Y-19333974D01*
X15043870Y-19333975D01*
X14855269Y-19391187D01*
X14855267Y-19391188D01*
X14681467Y-19484087D01*
X14681457Y-19484093D01*
X14529121Y-19609112D01*
X14529112Y-19609121D01*
X14404093Y-19761457D01*
X14404089Y-19761463D01*
X14336810Y-19887334D01*
X14292704Y-19929740D01*
X14232096Y-19938123D01*
X14178135Y-19909280D01*
X14151434Y-19854229D01*
X14150500Y-19840665D01*
X14150500Y-15023857D01*
X14150500Y-15023856D01*
X14126614Y-14934712D01*
X14080470Y-14854788D01*
X13906560Y-14680878D01*
X13659506Y-14433823D01*
X13631729Y-14379307D01*
X13634772Y-14335083D01*
X13686024Y-14166132D01*
X13705341Y-13970000D01*
X13702272Y-13938835D01*
X13686025Y-13773873D01*
X13686024Y-13773870D01*
X13686024Y-13773868D01*
X13628814Y-13585273D01*
X13535910Y-13411462D01*
X13535906Y-13411457D01*
X13410887Y-13259121D01*
X13410878Y-13259112D01*
X13258542Y-13134093D01*
X13258540Y-13134092D01*
X13258538Y-13134090D01*
X13179361Y-13091769D01*
X13084732Y-13041188D01*
X13084730Y-13041187D01*
X12896129Y-12983975D01*
X12896126Y-12983974D01*
X12700003Y-12964659D01*
X12699997Y-12964659D01*
X12503873Y-12983974D01*
X12503870Y-12983975D01*
X12315269Y-13041187D01*
X12315267Y-13041188D01*
X12141467Y-13134087D01*
X12141457Y-13134093D01*
X11989121Y-13259112D01*
X11989112Y-13259121D01*
X11864093Y-13411457D01*
X11864087Y-13411467D01*
X11771188Y-13585267D01*
X11771187Y-13585269D01*
X11713975Y-13773870D01*
X11713974Y-13773873D01*
X11694659Y-13969996D01*
X11694659Y-13970003D01*
X11713974Y-14166126D01*
X11713975Y-14166129D01*
X11771187Y-14354730D01*
X11771188Y-14354732D01*
X11813464Y-14433824D01*
X11864090Y-14528538D01*
X11864092Y-14528540D01*
X11864093Y-14528542D01*
X11989112Y-14680878D01*
X11989121Y-14680887D01*
X12141457Y-14805906D01*
X12141462Y-14805910D01*
X12315273Y-14898814D01*
X12503868Y-14956024D01*
X12503870Y-14956024D01*
X12503873Y-14956025D01*
X12699997Y-14975341D01*
X12700000Y-14975341D01*
X12700003Y-14975341D01*
X12896126Y-14956025D01*
X12896127Y-14956024D01*
X12896132Y-14956024D01*
X13065082Y-14904773D01*
X13126255Y-14905974D01*
X13163824Y-14929506D01*
X13420504Y-15186186D01*
X13448281Y-15240703D01*
X13449500Y-15256190D01*
X13449500Y-19431490D01*
X13430593Y-19489681D01*
X13381093Y-19525645D01*
X13319907Y-19525645D01*
X13287696Y-19508019D01*
X13273885Y-19496685D01*
X13258538Y-19484090D01*
X13179361Y-19441769D01*
X13084732Y-19391188D01*
X13084730Y-19391187D01*
X12896129Y-19333975D01*
X12896126Y-19333974D01*
X12700003Y-19314659D01*
X12699997Y-19314659D01*
X12503873Y-19333974D01*
X12503870Y-19333975D01*
X12315269Y-19391187D01*
X12315267Y-19391188D01*
X12141467Y-19484087D01*
X12141457Y-19484093D01*
X11989121Y-19609112D01*
X11989112Y-19609121D01*
X11864093Y-19761457D01*
X11864089Y-19761463D01*
X11796810Y-19887334D01*
X11752704Y-19929740D01*
X11692096Y-19938123D01*
X11638135Y-19909280D01*
X11611434Y-19854229D01*
X11610500Y-19840665D01*
X11610500Y-15023857D01*
X11610500Y-15023856D01*
X11586614Y-14934712D01*
X11540470Y-14854788D01*
X11366560Y-14680878D01*
X11119506Y-14433823D01*
X11091729Y-14379307D01*
X11094772Y-14335083D01*
X11146024Y-14166132D01*
X11165341Y-13970000D01*
X11162272Y-13938835D01*
X11146025Y-13773873D01*
X11146024Y-13773870D01*
X11146024Y-13773868D01*
X11088814Y-13585273D01*
X10995910Y-13411462D01*
X10995906Y-13411457D01*
X10870887Y-13259121D01*
X10870878Y-13259112D01*
X10718542Y-13134093D01*
X10718540Y-13134092D01*
X10718538Y-13134090D01*
X10639361Y-13091769D01*
X10544732Y-13041188D01*
X10544730Y-13041187D01*
X10356129Y-12983975D01*
X10356126Y-12983974D01*
X10160003Y-12964659D01*
X10159997Y-12964659D01*
X9963873Y-12983974D01*
X9963870Y-12983975D01*
X9775269Y-13041187D01*
X9775267Y-13041188D01*
X9601467Y-13134087D01*
X9601457Y-13134093D01*
X9449121Y-13259112D01*
X9449112Y-13259121D01*
X9324093Y-13411457D01*
X9324087Y-13411467D01*
X9231188Y-13585267D01*
X9231187Y-13585269D01*
X9173975Y-13773870D01*
X9173974Y-13773873D01*
X9154659Y-13969996D01*
X9154659Y-13970003D01*
X9173974Y-14166126D01*
X9173975Y-14166129D01*
X9231187Y-14354730D01*
X9231188Y-14354732D01*
X9273464Y-14433824D01*
X9324090Y-14528538D01*
X9324092Y-14528540D01*
X9324093Y-14528542D01*
X9449112Y-14680878D01*
X9449121Y-14680887D01*
X9601457Y-14805906D01*
X9601462Y-14805910D01*
X9775273Y-14898814D01*
X9963868Y-14956024D01*
X9963870Y-14956024D01*
X9963873Y-14956025D01*
X10159997Y-14975341D01*
X10160000Y-14975341D01*
X10160003Y-14975341D01*
X10356126Y-14956025D01*
X10356127Y-14956024D01*
X10356132Y-14956024D01*
X10525082Y-14904773D01*
X10586255Y-14905974D01*
X10623824Y-14929506D01*
X10880504Y-15186186D01*
X10908281Y-15240703D01*
X10909500Y-15256190D01*
X10909500Y-19431490D01*
X10890593Y-19489681D01*
X10841093Y-19525645D01*
X10779907Y-19525645D01*
X10747696Y-19508019D01*
X10733885Y-19496685D01*
X10718538Y-19484090D01*
X10639361Y-19441769D01*
X10544732Y-19391188D01*
X10544730Y-19391187D01*
X10356129Y-19333975D01*
X10356126Y-19333974D01*
X10160003Y-19314659D01*
X10159997Y-19314659D01*
X9963873Y-19333974D01*
X9963870Y-19333975D01*
X9775269Y-19391187D01*
X9775267Y-19391188D01*
X9601467Y-19484087D01*
X9601457Y-19484093D01*
X9449121Y-19609112D01*
X9449112Y-19609121D01*
X9324093Y-19761457D01*
X9324089Y-19761463D01*
X9256810Y-19887334D01*
X9212704Y-19929740D01*
X9152096Y-19938123D01*
X9098135Y-19909280D01*
X9071434Y-19854229D01*
X9070500Y-19840665D01*
X9070500Y-15023857D01*
X9070500Y-15023856D01*
X9046614Y-14934712D01*
X9000470Y-14854788D01*
X8826560Y-14680878D01*
X8579506Y-14433823D01*
X8551729Y-14379307D01*
X8554772Y-14335083D01*
X8606024Y-14166132D01*
X8625341Y-13970000D01*
X8622272Y-13938835D01*
X8606025Y-13773873D01*
X8606024Y-13773870D01*
X8606024Y-13773868D01*
X8548814Y-13585273D01*
X8455910Y-13411462D01*
X8455906Y-13411457D01*
X8330887Y-13259121D01*
X8330878Y-13259112D01*
X8178542Y-13134093D01*
X8178540Y-13134092D01*
X8178538Y-13134090D01*
X8099361Y-13091769D01*
X8004732Y-13041188D01*
X8004730Y-13041187D01*
X7816129Y-12983975D01*
X7816126Y-12983974D01*
X7620003Y-12964659D01*
X7619997Y-12964659D01*
X7423873Y-12983974D01*
X7423870Y-12983975D01*
X7235269Y-13041187D01*
X7235267Y-13041188D01*
X7061467Y-13134087D01*
X7061457Y-13134093D01*
X6909121Y-13259112D01*
X6909112Y-13259121D01*
X6784093Y-13411457D01*
X6784087Y-13411467D01*
X6691188Y-13585267D01*
X6691187Y-13585269D01*
X6633975Y-13773870D01*
X6633974Y-13773873D01*
X6614659Y-13969996D01*
X6614659Y-13970003D01*
X6633974Y-14166126D01*
X6633975Y-14166129D01*
X6691187Y-14354730D01*
X6691188Y-14354732D01*
X6733464Y-14433824D01*
X6784090Y-14528538D01*
X6784092Y-14528540D01*
X6784093Y-14528542D01*
X6909112Y-14680878D01*
X6909121Y-14680887D01*
X7061457Y-14805906D01*
X7061462Y-14805910D01*
X7235273Y-14898814D01*
X7423868Y-14956024D01*
X7423870Y-14956024D01*
X7423873Y-14956025D01*
X7619997Y-14975341D01*
X7620000Y-14975341D01*
X7620003Y-14975341D01*
X7816126Y-14956025D01*
X7816127Y-14956024D01*
X7816132Y-14956024D01*
X7985082Y-14904773D01*
X8046255Y-14905974D01*
X8083824Y-14929506D01*
X8340504Y-15186186D01*
X8368281Y-15240703D01*
X8369500Y-15256190D01*
X8369500Y-19431490D01*
X8350593Y-19489681D01*
X8301093Y-19525645D01*
X8239907Y-19525645D01*
X8207696Y-19508019D01*
X8193885Y-19496685D01*
X8178538Y-19484090D01*
X8099361Y-19441769D01*
X8004732Y-19391188D01*
X8004730Y-19391187D01*
X7816129Y-19333975D01*
X7816126Y-19333974D01*
X7620003Y-19314659D01*
X7619997Y-19314659D01*
X7423873Y-19333974D01*
X7423870Y-19333975D01*
X7235269Y-19391187D01*
X7235267Y-19391188D01*
X7061467Y-19484087D01*
X7061457Y-19484093D01*
X6909121Y-19609112D01*
X6909112Y-19609121D01*
X6784093Y-19761457D01*
X6784089Y-19761463D01*
X6716810Y-19887334D01*
X6672704Y-19929740D01*
X6612096Y-19938123D01*
X6558135Y-19909280D01*
X6531434Y-19854229D01*
X6530500Y-19840665D01*
X6530500Y-15023857D01*
X6530500Y-15023856D01*
X6506614Y-14934712D01*
X6460470Y-14854788D01*
X6286560Y-14680878D01*
X6039506Y-14433823D01*
X6011729Y-14379307D01*
X6014772Y-14335083D01*
X6066024Y-14166132D01*
X6085341Y-13970000D01*
X6082272Y-13938835D01*
X6066025Y-13773873D01*
X6066024Y-13773870D01*
X6066024Y-13773868D01*
X6008814Y-13585273D01*
X5915910Y-13411462D01*
X5915906Y-13411457D01*
X5790887Y-13259121D01*
X5790878Y-13259112D01*
X5638542Y-13134093D01*
X5638540Y-13134092D01*
X5638538Y-13134090D01*
X5559361Y-13091769D01*
X5464732Y-13041188D01*
X5464730Y-13041187D01*
X5276129Y-12983975D01*
X5276126Y-12983974D01*
X5080003Y-12964659D01*
X5079997Y-12964659D01*
X4883873Y-12983974D01*
X4883870Y-12983975D01*
X4695269Y-13041187D01*
X4695267Y-13041188D01*
X4521467Y-13134087D01*
X4521457Y-13134093D01*
X4369121Y-13259112D01*
X4369112Y-13259121D01*
X4244093Y-13411457D01*
X4244087Y-13411467D01*
X4151188Y-13585267D01*
X4151187Y-13585269D01*
X4093975Y-13773870D01*
X4093974Y-13773873D01*
X4074659Y-13969996D01*
X300500Y-13969996D01*
X300500Y-12749997D01*
X58534353Y-12749997D01*
X58534353Y-12750002D01*
X58554834Y-12892456D01*
X58590020Y-12969501D01*
X58614623Y-13023373D01*
X58673888Y-13091769D01*
X58708873Y-13132144D01*
X58829942Y-13209950D01*
X58829947Y-13209953D01*
X58936403Y-13241211D01*
X58968035Y-13250499D01*
X58968036Y-13250499D01*
X58968039Y-13250500D01*
X58968041Y-13250500D01*
X59111959Y-13250500D01*
X59111961Y-13250500D01*
X59250053Y-13209953D01*
X59371128Y-13132143D01*
X59465377Y-13023373D01*
X59525165Y-12892457D01*
X59545647Y-12750000D01*
X59525165Y-12607543D01*
X59465377Y-12476627D01*
X59371128Y-12367857D01*
X59371127Y-12367856D01*
X59371126Y-12367855D01*
X59250057Y-12290049D01*
X59250054Y-12290047D01*
X59250053Y-12290047D01*
X59250050Y-12290046D01*
X59111964Y-12249500D01*
X59111961Y-12249500D01*
X58968039Y-12249500D01*
X58968035Y-12249500D01*
X58829949Y-12290046D01*
X58829942Y-12290049D01*
X58708873Y-12367855D01*
X58614622Y-12476628D01*
X58554834Y-12607543D01*
X58534353Y-12749997D01*
X300500Y-12749997D01*
X300500Y-7749996D01*
X58034659Y-7749996D01*
X58034659Y-7750003D01*
X58053974Y-7946126D01*
X58053975Y-7946129D01*
X58111187Y-8134730D01*
X58111188Y-8134732D01*
X58182218Y-8267618D01*
X58204090Y-8308538D01*
X58204092Y-8308540D01*
X58204093Y-8308542D01*
X58329112Y-8460878D01*
X58329121Y-8460887D01*
X58481457Y-8585906D01*
X58481462Y-8585910D01*
X58655273Y-8678814D01*
X58843868Y-8736024D01*
X58843870Y-8736024D01*
X58843873Y-8736025D01*
X59039997Y-8755341D01*
X59040000Y-8755341D01*
X59040003Y-8755341D01*
X59236126Y-8736025D01*
X59236127Y-8736024D01*
X59236132Y-8736024D01*
X59424727Y-8678814D01*
X59598538Y-8585910D01*
X59750883Y-8460883D01*
X59875910Y-8308538D01*
X59968814Y-8134727D01*
X60026024Y-7946132D01*
X60040155Y-7802661D01*
X60045341Y-7750003D01*
X60045341Y-7750000D01*
X60435287Y-7750000D01*
X60454097Y-7952989D01*
X60509887Y-8149070D01*
X60600750Y-8331548D01*
X60600759Y-8331563D01*
X60663379Y-8414486D01*
X61169533Y-7908332D01*
X61219920Y-7995606D01*
X61294394Y-8070080D01*
X61381664Y-8120465D01*
X60872320Y-8629809D01*
X60874263Y-8631580D01*
X60874270Y-8631586D01*
X61047581Y-8738895D01*
X61047586Y-8738898D01*
X61237683Y-8812541D01*
X61438070Y-8850000D01*
X61641930Y-8850000D01*
X61842316Y-8812541D01*
X62032413Y-8738898D01*
X62032418Y-8738895D01*
X62205731Y-8631584D01*
X62207676Y-8629809D01*
X61698333Y-8120466D01*
X61785606Y-8070080D01*
X61860080Y-7995606D01*
X61910466Y-7908333D01*
X62416619Y-8414486D01*
X62479239Y-8331564D01*
X62479249Y-8331548D01*
X62570112Y-8149070D01*
X62625902Y-7952989D01*
X62644712Y-7750000D01*
X62625902Y-7547010D01*
X62570112Y-7350929D01*
X62479249Y-7168451D01*
X62479244Y-7168442D01*
X62416618Y-7085513D01*
X61910465Y-7591665D01*
X61860080Y-7504394D01*
X61785606Y-7429920D01*
X61698332Y-7379532D01*
X62207677Y-6870188D01*
X62205736Y-6868419D01*
X62205733Y-6868417D01*
X62032418Y-6761104D01*
X62032413Y-6761101D01*
X61842316Y-6687458D01*
X61641930Y-6650000D01*
X61438070Y-6650000D01*
X61237683Y-6687458D01*
X61047588Y-6761101D01*
X60874263Y-6868419D01*
X60872321Y-6870189D01*
X61381666Y-7379533D01*
X61294394Y-7429920D01*
X61219920Y-7504394D01*
X61169533Y-7591665D01*
X60663379Y-7085511D01*
X60600759Y-7168436D01*
X60600750Y-7168451D01*
X60509887Y-7350929D01*
X60454097Y-7547010D01*
X60435287Y-7750000D01*
X60045341Y-7750000D01*
X60045341Y-7749996D01*
X60026025Y-7553873D01*
X60026024Y-7553870D01*
X60026024Y-7553868D01*
X59968814Y-7365273D01*
X59960650Y-7350000D01*
X59946942Y-7324353D01*
X59875910Y-7191462D01*
X59857013Y-7168436D01*
X59750887Y-7039121D01*
X59750878Y-7039112D01*
X59598542Y-6914093D01*
X59598540Y-6914092D01*
X59598538Y-6914090D01*
X59516405Y-6870189D01*
X59424732Y-6821188D01*
X59424730Y-6821187D01*
X59236129Y-6763975D01*
X59236126Y-6763974D01*
X59040003Y-6744659D01*
X59039997Y-6744659D01*
X58843873Y-6763974D01*
X58843870Y-6763975D01*
X58655269Y-6821187D01*
X58655267Y-6821188D01*
X58481467Y-6914087D01*
X58481457Y-6914093D01*
X58329121Y-7039112D01*
X58329112Y-7039121D01*
X58204093Y-7191457D01*
X58204087Y-7191467D01*
X58111188Y-7365267D01*
X58111187Y-7365269D01*
X58053975Y-7553870D01*
X58053974Y-7553873D01*
X58034659Y-7749996D01*
X300500Y-7749996D01*
X300500Y-6349996D01*
X4074659Y-6349996D01*
X4074659Y-6350003D01*
X4093974Y-6546126D01*
X4093975Y-6546129D01*
X4151187Y-6734730D01*
X4151188Y-6734732D01*
X4197399Y-6821186D01*
X4244090Y-6908538D01*
X4244092Y-6908540D01*
X4244093Y-6908542D01*
X4369112Y-7060878D01*
X4369121Y-7060887D01*
X4500170Y-7168436D01*
X4521462Y-7185910D01*
X4695273Y-7278814D01*
X4883868Y-7336024D01*
X4883870Y-7336024D01*
X4883873Y-7336025D01*
X5079997Y-7355341D01*
X5080000Y-7355341D01*
X5080003Y-7355341D01*
X5276126Y-7336025D01*
X5276127Y-7336024D01*
X5276132Y-7336024D01*
X5464727Y-7278814D01*
X5638538Y-7185910D01*
X5790883Y-7060883D01*
X5915910Y-6908538D01*
X6008814Y-6734727D01*
X6066024Y-6546132D01*
X6085341Y-6350000D01*
X6085341Y-6349996D01*
X6614659Y-6349996D01*
X6614659Y-6350003D01*
X6633974Y-6546126D01*
X6633975Y-6546129D01*
X6691187Y-6734730D01*
X6691188Y-6734732D01*
X6737399Y-6821186D01*
X6784090Y-6908538D01*
X6784092Y-6908540D01*
X6784093Y-6908542D01*
X6909112Y-7060878D01*
X6909121Y-7060887D01*
X7040170Y-7168436D01*
X7061462Y-7185910D01*
X7235273Y-7278814D01*
X7423868Y-7336024D01*
X7423870Y-7336024D01*
X7423873Y-7336025D01*
X7619997Y-7355341D01*
X7620000Y-7355341D01*
X7620003Y-7355341D01*
X7816126Y-7336025D01*
X7816127Y-7336024D01*
X7816132Y-7336024D01*
X8004727Y-7278814D01*
X8178538Y-7185910D01*
X8330883Y-7060883D01*
X8455910Y-6908538D01*
X8548814Y-6734727D01*
X8606024Y-6546132D01*
X8625341Y-6350000D01*
X8625341Y-6349996D01*
X9154659Y-6349996D01*
X9154659Y-6350003D01*
X9173974Y-6546126D01*
X9173975Y-6546129D01*
X9231187Y-6734730D01*
X9231188Y-6734732D01*
X9277399Y-6821186D01*
X9324090Y-6908538D01*
X9324092Y-6908540D01*
X9324093Y-6908542D01*
X9449112Y-7060878D01*
X9449121Y-7060887D01*
X9580170Y-7168436D01*
X9601462Y-7185910D01*
X9775273Y-7278814D01*
X9963868Y-7336024D01*
X9963870Y-7336024D01*
X9963873Y-7336025D01*
X10159997Y-7355341D01*
X10160000Y-7355341D01*
X10160003Y-7355341D01*
X10356126Y-7336025D01*
X10356127Y-7336024D01*
X10356132Y-7336024D01*
X10544727Y-7278814D01*
X10718538Y-7185910D01*
X10870883Y-7060883D01*
X10995910Y-6908538D01*
X11088814Y-6734727D01*
X11146024Y-6546132D01*
X11165341Y-6350000D01*
X11165341Y-6349996D01*
X11694659Y-6349996D01*
X11694659Y-6350003D01*
X11713974Y-6546126D01*
X11713975Y-6546129D01*
X11771187Y-6734730D01*
X11771188Y-6734732D01*
X11817399Y-6821186D01*
X11864090Y-6908538D01*
X11864092Y-6908540D01*
X11864093Y-6908542D01*
X11989112Y-7060878D01*
X11989121Y-7060887D01*
X12120170Y-7168436D01*
X12141462Y-7185910D01*
X12315273Y-7278814D01*
X12503868Y-7336024D01*
X12503870Y-7336024D01*
X12503873Y-7336025D01*
X12699997Y-7355341D01*
X12700000Y-7355341D01*
X12700003Y-7355341D01*
X12896126Y-7336025D01*
X12896127Y-7336024D01*
X12896132Y-7336024D01*
X13084727Y-7278814D01*
X13258538Y-7185910D01*
X13410883Y-7060883D01*
X13535910Y-6908538D01*
X13628814Y-6734727D01*
X13686024Y-6546132D01*
X13705341Y-6350000D01*
X13705341Y-6349996D01*
X14234659Y-6349996D01*
X14234659Y-6350003D01*
X14253974Y-6546126D01*
X14253975Y-6546129D01*
X14311187Y-6734730D01*
X14311188Y-6734732D01*
X14357399Y-6821186D01*
X14404090Y-6908538D01*
X14404092Y-6908540D01*
X14404093Y-6908542D01*
X14529112Y-7060878D01*
X14529121Y-7060887D01*
X14660170Y-7168436D01*
X14681462Y-7185910D01*
X14855273Y-7278814D01*
X15043868Y-7336024D01*
X15043870Y-7336024D01*
X15043873Y-7336025D01*
X15239997Y-7355341D01*
X15240000Y-7355341D01*
X15240003Y-7355341D01*
X15436126Y-7336025D01*
X15436127Y-7336024D01*
X15436132Y-7336024D01*
X15624727Y-7278814D01*
X15798538Y-7185910D01*
X15950883Y-7060883D01*
X16075910Y-6908538D01*
X16168814Y-6734727D01*
X16226024Y-6546132D01*
X16245341Y-6350000D01*
X16245341Y-6349996D01*
X16774659Y-6349996D01*
X16774659Y-6350003D01*
X16793974Y-6546126D01*
X16793975Y-6546129D01*
X16851187Y-6734730D01*
X16851188Y-6734732D01*
X16897399Y-6821186D01*
X16944090Y-6908538D01*
X16944092Y-6908540D01*
X16944093Y-6908542D01*
X17069112Y-7060878D01*
X17069121Y-7060887D01*
X17200170Y-7168436D01*
X17221462Y-7185910D01*
X17395273Y-7278814D01*
X17583868Y-7336024D01*
X17583870Y-7336024D01*
X17583873Y-7336025D01*
X17779997Y-7355341D01*
X17780000Y-7355341D01*
X17780003Y-7355341D01*
X17976126Y-7336025D01*
X17976127Y-7336024D01*
X17976132Y-7336024D01*
X18164727Y-7278814D01*
X18338538Y-7185910D01*
X18490883Y-7060883D01*
X18615910Y-6908538D01*
X18708814Y-6734727D01*
X18766024Y-6546132D01*
X18785341Y-6350000D01*
X18785341Y-6349996D01*
X19314659Y-6349996D01*
X19314659Y-6350003D01*
X19333974Y-6546126D01*
X19333975Y-6546129D01*
X19391187Y-6734730D01*
X19391188Y-6734732D01*
X19437399Y-6821186D01*
X19484090Y-6908538D01*
X19484092Y-6908540D01*
X19484093Y-6908542D01*
X19609112Y-7060878D01*
X19609121Y-7060887D01*
X19740170Y-7168436D01*
X19761462Y-7185910D01*
X19935273Y-7278814D01*
X20123868Y-7336024D01*
X20123870Y-7336024D01*
X20123873Y-7336025D01*
X20319997Y-7355341D01*
X20320000Y-7355341D01*
X20320003Y-7355341D01*
X20516126Y-7336025D01*
X20516127Y-7336024D01*
X20516132Y-7336024D01*
X20704727Y-7278814D01*
X20878538Y-7185910D01*
X21030883Y-7060883D01*
X21155910Y-6908538D01*
X21248814Y-6734727D01*
X21306024Y-6546132D01*
X21325341Y-6350000D01*
X21325341Y-6349996D01*
X21854659Y-6349996D01*
X21854659Y-6350003D01*
X21873974Y-6546126D01*
X21873975Y-6546129D01*
X21931187Y-6734730D01*
X21931188Y-6734732D01*
X21977399Y-6821186D01*
X22024090Y-6908538D01*
X22024092Y-6908540D01*
X22024093Y-6908542D01*
X22149112Y-7060878D01*
X22149121Y-7060887D01*
X22280170Y-7168436D01*
X22301462Y-7185910D01*
X22475273Y-7278814D01*
X22663868Y-7336024D01*
X22663870Y-7336024D01*
X22663873Y-7336025D01*
X22859997Y-7355341D01*
X22860000Y-7355341D01*
X22860003Y-7355341D01*
X23056126Y-7336025D01*
X23056127Y-7336024D01*
X23056132Y-7336024D01*
X23244727Y-7278814D01*
X23418538Y-7185910D01*
X23570883Y-7060883D01*
X23695910Y-6908538D01*
X23788814Y-6734727D01*
X23846024Y-6546132D01*
X23865341Y-6350000D01*
X23865341Y-6349996D01*
X26934659Y-6349996D01*
X26934659Y-6350003D01*
X26953974Y-6546126D01*
X26953975Y-6546129D01*
X27011187Y-6734730D01*
X27011188Y-6734732D01*
X27057399Y-6821186D01*
X27104090Y-6908538D01*
X27104092Y-6908540D01*
X27104093Y-6908542D01*
X27229112Y-7060878D01*
X27229121Y-7060887D01*
X27360170Y-7168436D01*
X27381462Y-7185910D01*
X27555273Y-7278814D01*
X27743868Y-7336024D01*
X27743870Y-7336024D01*
X27743873Y-7336025D01*
X27939997Y-7355341D01*
X27940000Y-7355341D01*
X27940003Y-7355341D01*
X28136126Y-7336025D01*
X28136127Y-7336024D01*
X28136132Y-7336024D01*
X28324727Y-7278814D01*
X28498538Y-7185910D01*
X28650883Y-7060883D01*
X28775910Y-6908538D01*
X28868814Y-6734727D01*
X28926024Y-6546132D01*
X28945341Y-6350000D01*
X28945341Y-6349996D01*
X29474659Y-6349996D01*
X29474659Y-6350003D01*
X29493974Y-6546126D01*
X29493975Y-6546129D01*
X29551187Y-6734730D01*
X29551188Y-6734732D01*
X29597399Y-6821186D01*
X29644090Y-6908538D01*
X29644092Y-6908540D01*
X29644093Y-6908542D01*
X29769112Y-7060878D01*
X29769121Y-7060887D01*
X29900170Y-7168436D01*
X29921462Y-7185910D01*
X30095273Y-7278814D01*
X30283868Y-7336024D01*
X30283870Y-7336024D01*
X30283873Y-7336025D01*
X30479997Y-7355341D01*
X30480000Y-7355341D01*
X30480003Y-7355341D01*
X30676126Y-7336025D01*
X30676127Y-7336024D01*
X30676132Y-7336024D01*
X30864727Y-7278814D01*
X31038538Y-7185910D01*
X31190883Y-7060883D01*
X31315910Y-6908538D01*
X31408814Y-6734727D01*
X31466024Y-6546132D01*
X31485341Y-6350000D01*
X31485341Y-6349996D01*
X32014659Y-6349996D01*
X32014659Y-6350003D01*
X32033974Y-6546126D01*
X32033975Y-6546129D01*
X32091187Y-6734730D01*
X32091188Y-6734732D01*
X32137399Y-6821186D01*
X32184090Y-6908538D01*
X32184092Y-6908540D01*
X32184093Y-6908542D01*
X32309112Y-7060878D01*
X32309121Y-7060887D01*
X32440170Y-7168436D01*
X32461462Y-7185910D01*
X32635273Y-7278814D01*
X32823868Y-7336024D01*
X32823870Y-7336024D01*
X32823873Y-7336025D01*
X33019997Y-7355341D01*
X33020000Y-7355341D01*
X33020003Y-7355341D01*
X33216126Y-7336025D01*
X33216127Y-7336024D01*
X33216132Y-7336024D01*
X33404727Y-7278814D01*
X33578538Y-7185910D01*
X33730883Y-7060883D01*
X33855910Y-6908538D01*
X33948814Y-6734727D01*
X34006024Y-6546132D01*
X34025341Y-6350000D01*
X34025341Y-6349996D01*
X34554659Y-6349996D01*
X34554659Y-6350003D01*
X34573974Y-6546126D01*
X34573975Y-6546129D01*
X34631187Y-6734730D01*
X34631188Y-6734732D01*
X34677399Y-6821186D01*
X34724090Y-6908538D01*
X34724092Y-6908540D01*
X34724093Y-6908542D01*
X34849112Y-7060878D01*
X34849121Y-7060887D01*
X34980170Y-7168436D01*
X35001462Y-7185910D01*
X35175273Y-7278814D01*
X35363868Y-7336024D01*
X35363870Y-7336024D01*
X35363873Y-7336025D01*
X35559997Y-7355341D01*
X35560000Y-7355341D01*
X35560003Y-7355341D01*
X35756126Y-7336025D01*
X35756127Y-7336024D01*
X35756132Y-7336024D01*
X35944727Y-7278814D01*
X36118538Y-7185910D01*
X36270883Y-7060883D01*
X36395910Y-6908538D01*
X36488814Y-6734727D01*
X36546024Y-6546132D01*
X36565341Y-6350000D01*
X36565341Y-6349996D01*
X37094659Y-6349996D01*
X37094659Y-6350003D01*
X37113974Y-6546126D01*
X37113975Y-6546129D01*
X37171187Y-6734730D01*
X37171188Y-6734732D01*
X37217399Y-6821186D01*
X37264090Y-6908538D01*
X37264092Y-6908540D01*
X37264093Y-6908542D01*
X37389112Y-7060878D01*
X37389121Y-7060887D01*
X37520170Y-7168436D01*
X37541462Y-7185910D01*
X37715273Y-7278814D01*
X37903868Y-7336024D01*
X37903870Y-7336024D01*
X37903873Y-7336025D01*
X38099997Y-7355341D01*
X38100000Y-7355341D01*
X38100003Y-7355341D01*
X38296126Y-7336025D01*
X38296127Y-7336024D01*
X38296132Y-7336024D01*
X38484727Y-7278814D01*
X38658538Y-7185910D01*
X38810883Y-7060883D01*
X38935910Y-6908538D01*
X39028814Y-6734727D01*
X39086024Y-6546132D01*
X39105341Y-6350000D01*
X39105341Y-6349996D01*
X39634659Y-6349996D01*
X39634659Y-6350003D01*
X39653974Y-6546126D01*
X39653975Y-6546129D01*
X39711187Y-6734730D01*
X39711188Y-6734732D01*
X39757399Y-6821186D01*
X39804090Y-6908538D01*
X39804092Y-6908540D01*
X39804093Y-6908542D01*
X39929112Y-7060878D01*
X39929121Y-7060887D01*
X40060170Y-7168436D01*
X40081462Y-7185910D01*
X40255273Y-7278814D01*
X40443868Y-7336024D01*
X40443870Y-7336024D01*
X40443873Y-7336025D01*
X40639997Y-7355341D01*
X40640000Y-7355341D01*
X40640003Y-7355341D01*
X40836126Y-7336025D01*
X40836127Y-7336024D01*
X40836132Y-7336024D01*
X41024727Y-7278814D01*
X41198538Y-7185910D01*
X41350883Y-7060883D01*
X41475910Y-6908538D01*
X41568814Y-6734727D01*
X41626024Y-6546132D01*
X41645341Y-6350000D01*
X41645341Y-6349996D01*
X42174659Y-6349996D01*
X42174659Y-6350003D01*
X42193974Y-6546126D01*
X42193975Y-6546129D01*
X42251187Y-6734730D01*
X42251188Y-6734732D01*
X42297399Y-6821186D01*
X42344090Y-6908538D01*
X42344092Y-6908540D01*
X42344093Y-6908542D01*
X42469112Y-7060878D01*
X42469121Y-7060887D01*
X42600170Y-7168436D01*
X42621462Y-7185910D01*
X42795273Y-7278814D01*
X42983868Y-7336024D01*
X42983870Y-7336024D01*
X42983873Y-7336025D01*
X43179997Y-7355341D01*
X43180000Y-7355341D01*
X43180003Y-7355341D01*
X43376126Y-7336025D01*
X43376127Y-7336024D01*
X43376132Y-7336024D01*
X43564727Y-7278814D01*
X43738538Y-7185910D01*
X43890883Y-7060883D01*
X44015910Y-6908538D01*
X44108814Y-6734727D01*
X44166024Y-6546132D01*
X44185341Y-6350000D01*
X44185341Y-6349996D01*
X44714659Y-6349996D01*
X44714659Y-6350003D01*
X44733974Y-6546126D01*
X44733975Y-6546129D01*
X44791187Y-6734730D01*
X44791188Y-6734732D01*
X44837399Y-6821186D01*
X44884090Y-6908538D01*
X44884092Y-6908540D01*
X44884093Y-6908542D01*
X45009112Y-7060878D01*
X45009121Y-7060887D01*
X45140170Y-7168436D01*
X45161462Y-7185910D01*
X45335273Y-7278814D01*
X45523868Y-7336024D01*
X45523870Y-7336024D01*
X45523873Y-7336025D01*
X45719997Y-7355341D01*
X45720000Y-7355341D01*
X45720003Y-7355341D01*
X45916126Y-7336025D01*
X45916127Y-7336024D01*
X45916132Y-7336024D01*
X46104727Y-7278814D01*
X46278538Y-7185910D01*
X46430883Y-7060883D01*
X46555910Y-6908538D01*
X46648814Y-6734727D01*
X46706024Y-6546132D01*
X46725341Y-6350000D01*
X46725341Y-6349996D01*
X46706025Y-6153873D01*
X46706024Y-6153870D01*
X46706024Y-6153868D01*
X46648814Y-5965273D01*
X46555910Y-5791462D01*
X46555906Y-5791457D01*
X46430887Y-5639121D01*
X46430878Y-5639112D01*
X46278542Y-5514093D01*
X46278540Y-5514092D01*
X46278538Y-5514090D01*
X46237618Y-5492218D01*
X46104732Y-5421188D01*
X46104730Y-5421187D01*
X45916129Y-5363975D01*
X45916126Y-5363974D01*
X45720003Y-5344659D01*
X45719997Y-5344659D01*
X45523873Y-5363974D01*
X45523870Y-5363975D01*
X45335269Y-5421187D01*
X45335267Y-5421188D01*
X45161467Y-5514087D01*
X45161457Y-5514093D01*
X45009121Y-5639112D01*
X45009112Y-5639121D01*
X44884093Y-5791457D01*
X44884087Y-5791467D01*
X44791188Y-5965267D01*
X44791187Y-5965269D01*
X44733975Y-6153870D01*
X44733974Y-6153873D01*
X44714659Y-6349996D01*
X44185341Y-6349996D01*
X44166025Y-6153873D01*
X44166024Y-6153870D01*
X44166024Y-6153868D01*
X44108814Y-5965273D01*
X44015910Y-5791462D01*
X44015906Y-5791457D01*
X43890887Y-5639121D01*
X43890878Y-5639112D01*
X43738542Y-5514093D01*
X43738540Y-5514092D01*
X43738538Y-5514090D01*
X43697618Y-5492218D01*
X43564732Y-5421188D01*
X43564730Y-5421187D01*
X43376129Y-5363975D01*
X43376126Y-5363974D01*
X43180003Y-5344659D01*
X43179997Y-5344659D01*
X42983873Y-5363974D01*
X42983870Y-5363975D01*
X42795269Y-5421187D01*
X42795267Y-5421188D01*
X42621467Y-5514087D01*
X42621457Y-5514093D01*
X42469121Y-5639112D01*
X42469112Y-5639121D01*
X42344093Y-5791457D01*
X42344087Y-5791467D01*
X42251188Y-5965267D01*
X42251187Y-5965269D01*
X42193975Y-6153870D01*
X42193974Y-6153873D01*
X42174659Y-6349996D01*
X41645341Y-6349996D01*
X41626025Y-6153873D01*
X41626024Y-6153870D01*
X41626024Y-6153868D01*
X41568814Y-5965273D01*
X41475910Y-5791462D01*
X41475906Y-5791457D01*
X41350887Y-5639121D01*
X41350878Y-5639112D01*
X41198542Y-5514093D01*
X41198540Y-5514092D01*
X41198538Y-5514090D01*
X41157618Y-5492218D01*
X41024732Y-5421188D01*
X41024730Y-5421187D01*
X40836129Y-5363975D01*
X40836126Y-5363974D01*
X40640003Y-5344659D01*
X40639997Y-5344659D01*
X40443873Y-5363974D01*
X40443870Y-5363975D01*
X40255269Y-5421187D01*
X40255267Y-5421188D01*
X40081467Y-5514087D01*
X40081457Y-5514093D01*
X39929121Y-5639112D01*
X39929112Y-5639121D01*
X39804093Y-5791457D01*
X39804087Y-5791467D01*
X39711188Y-5965267D01*
X39711187Y-5965269D01*
X39653975Y-6153870D01*
X39653974Y-6153873D01*
X39634659Y-6349996D01*
X39105341Y-6349996D01*
X39086025Y-6153873D01*
X39086024Y-6153870D01*
X39086024Y-6153868D01*
X39028814Y-5965273D01*
X38935910Y-5791462D01*
X38935906Y-5791457D01*
X38810887Y-5639121D01*
X38810878Y-5639112D01*
X38658542Y-5514093D01*
X38658540Y-5514092D01*
X38658538Y-5514090D01*
X38617618Y-5492218D01*
X38484732Y-5421188D01*
X38484730Y-5421187D01*
X38296129Y-5363975D01*
X38296126Y-5363974D01*
X38100003Y-5344659D01*
X38099997Y-5344659D01*
X37903873Y-5363974D01*
X37903870Y-5363975D01*
X37715269Y-5421187D01*
X37715267Y-5421188D01*
X37541467Y-5514087D01*
X37541457Y-5514093D01*
X37389121Y-5639112D01*
X37389112Y-5639121D01*
X37264093Y-5791457D01*
X37264087Y-5791467D01*
X37171188Y-5965267D01*
X37171187Y-5965269D01*
X37113975Y-6153870D01*
X37113974Y-6153873D01*
X37094659Y-6349996D01*
X36565341Y-6349996D01*
X36546025Y-6153873D01*
X36546024Y-6153870D01*
X36546024Y-6153868D01*
X36488814Y-5965273D01*
X36395910Y-5791462D01*
X36395906Y-5791457D01*
X36270887Y-5639121D01*
X36270878Y-5639112D01*
X36118542Y-5514093D01*
X36118540Y-5514092D01*
X36118538Y-5514090D01*
X36077618Y-5492218D01*
X35944732Y-5421188D01*
X35944730Y-5421187D01*
X35756129Y-5363975D01*
X35756126Y-5363974D01*
X35560003Y-5344659D01*
X35559997Y-5344659D01*
X35363873Y-5363974D01*
X35363870Y-5363975D01*
X35175269Y-5421187D01*
X35175267Y-5421188D01*
X35001467Y-5514087D01*
X35001457Y-5514093D01*
X34849121Y-5639112D01*
X34849112Y-5639121D01*
X34724093Y-5791457D01*
X34724087Y-5791467D01*
X34631188Y-5965267D01*
X34631187Y-5965269D01*
X34573975Y-6153870D01*
X34573974Y-6153873D01*
X34554659Y-6349996D01*
X34025341Y-6349996D01*
X34006025Y-6153873D01*
X34006024Y-6153870D01*
X34006024Y-6153868D01*
X33948814Y-5965273D01*
X33855910Y-5791462D01*
X33855906Y-5791457D01*
X33730887Y-5639121D01*
X33730878Y-5639112D01*
X33578542Y-5514093D01*
X33578540Y-5514092D01*
X33578538Y-5514090D01*
X33537618Y-5492218D01*
X33404732Y-5421188D01*
X33404730Y-5421187D01*
X33216129Y-5363975D01*
X33216126Y-5363974D01*
X33020003Y-5344659D01*
X33019997Y-5344659D01*
X32823873Y-5363974D01*
X32823870Y-5363975D01*
X32635269Y-5421187D01*
X32635267Y-5421188D01*
X32461467Y-5514087D01*
X32461457Y-5514093D01*
X32309121Y-5639112D01*
X32309112Y-5639121D01*
X32184093Y-5791457D01*
X32184087Y-5791467D01*
X32091188Y-5965267D01*
X32091187Y-5965269D01*
X32033975Y-6153870D01*
X32033974Y-6153873D01*
X32014659Y-6349996D01*
X31485341Y-6349996D01*
X31466025Y-6153873D01*
X31466024Y-6153870D01*
X31466024Y-6153868D01*
X31408814Y-5965273D01*
X31315910Y-5791462D01*
X31315906Y-5791457D01*
X31190887Y-5639121D01*
X31190878Y-5639112D01*
X31038542Y-5514093D01*
X31038540Y-5514092D01*
X31038538Y-5514090D01*
X30997618Y-5492218D01*
X30864732Y-5421188D01*
X30864730Y-5421187D01*
X30676129Y-5363975D01*
X30676126Y-5363974D01*
X30480003Y-5344659D01*
X30479997Y-5344659D01*
X30283873Y-5363974D01*
X30283870Y-5363975D01*
X30095269Y-5421187D01*
X30095267Y-5421188D01*
X29921467Y-5514087D01*
X29921457Y-5514093D01*
X29769121Y-5639112D01*
X29769112Y-5639121D01*
X29644093Y-5791457D01*
X29644087Y-5791467D01*
X29551188Y-5965267D01*
X29551187Y-5965269D01*
X29493975Y-6153870D01*
X29493974Y-6153873D01*
X29474659Y-6349996D01*
X28945341Y-6349996D01*
X28926025Y-6153873D01*
X28926024Y-6153870D01*
X28926024Y-6153868D01*
X28868814Y-5965273D01*
X28775910Y-5791462D01*
X28775906Y-5791457D01*
X28650887Y-5639121D01*
X28650878Y-5639112D01*
X28498542Y-5514093D01*
X28498540Y-5514092D01*
X28498538Y-5514090D01*
X28457618Y-5492218D01*
X28324732Y-5421188D01*
X28324730Y-5421187D01*
X28136129Y-5363975D01*
X28136126Y-5363974D01*
X27940003Y-5344659D01*
X27939997Y-5344659D01*
X27743873Y-5363974D01*
X27743870Y-5363975D01*
X27555269Y-5421187D01*
X27555267Y-5421188D01*
X27381467Y-5514087D01*
X27381457Y-5514093D01*
X27229121Y-5639112D01*
X27229112Y-5639121D01*
X27104093Y-5791457D01*
X27104087Y-5791467D01*
X27011188Y-5965267D01*
X27011187Y-5965269D01*
X26953975Y-6153870D01*
X26953974Y-6153873D01*
X26934659Y-6349996D01*
X23865341Y-6349996D01*
X23846025Y-6153873D01*
X23846024Y-6153870D01*
X23846024Y-6153868D01*
X23788814Y-5965273D01*
X23695910Y-5791462D01*
X23695906Y-5791457D01*
X23570887Y-5639121D01*
X23570878Y-5639112D01*
X23418542Y-5514093D01*
X23418540Y-5514092D01*
X23418538Y-5514090D01*
X23377618Y-5492218D01*
X23244732Y-5421188D01*
X23244730Y-5421187D01*
X23056129Y-5363975D01*
X23056126Y-5363974D01*
X22860003Y-5344659D01*
X22859997Y-5344659D01*
X22663873Y-5363974D01*
X22663870Y-5363975D01*
X22475269Y-5421187D01*
X22475267Y-5421188D01*
X22301467Y-5514087D01*
X22301457Y-5514093D01*
X22149121Y-5639112D01*
X22149112Y-5639121D01*
X22024093Y-5791457D01*
X22024087Y-5791467D01*
X21931188Y-5965267D01*
X21931187Y-5965269D01*
X21873975Y-6153870D01*
X21873974Y-6153873D01*
X21854659Y-6349996D01*
X21325341Y-6349996D01*
X21306025Y-6153873D01*
X21306024Y-6153870D01*
X21306024Y-6153868D01*
X21248814Y-5965273D01*
X21155910Y-5791462D01*
X21155906Y-5791457D01*
X21030887Y-5639121D01*
X21030878Y-5639112D01*
X20878542Y-5514093D01*
X20878540Y-5514092D01*
X20878538Y-5514090D01*
X20837618Y-5492218D01*
X20704732Y-5421188D01*
X20704730Y-5421187D01*
X20516129Y-5363975D01*
X20516126Y-5363974D01*
X20320003Y-5344659D01*
X20319997Y-5344659D01*
X20123873Y-5363974D01*
X20123870Y-5363975D01*
X19935269Y-5421187D01*
X19935267Y-5421188D01*
X19761467Y-5514087D01*
X19761457Y-5514093D01*
X19609121Y-5639112D01*
X19609112Y-5639121D01*
X19484093Y-5791457D01*
X19484087Y-5791467D01*
X19391188Y-5965267D01*
X19391187Y-5965269D01*
X19333975Y-6153870D01*
X19333974Y-6153873D01*
X19314659Y-6349996D01*
X18785341Y-6349996D01*
X18766025Y-6153873D01*
X18766024Y-6153870D01*
X18766024Y-6153868D01*
X18708814Y-5965273D01*
X18615910Y-5791462D01*
X18615906Y-5791457D01*
X18490887Y-5639121D01*
X18490878Y-5639112D01*
X18338542Y-5514093D01*
X18338540Y-5514092D01*
X18338538Y-5514090D01*
X18297618Y-5492218D01*
X18164732Y-5421188D01*
X18164730Y-5421187D01*
X17976129Y-5363975D01*
X17976126Y-5363974D01*
X17780003Y-5344659D01*
X17779997Y-5344659D01*
X17583873Y-5363974D01*
X17583870Y-5363975D01*
X17395269Y-5421187D01*
X17395267Y-5421188D01*
X17221467Y-5514087D01*
X17221457Y-5514093D01*
X17069121Y-5639112D01*
X17069112Y-5639121D01*
X16944093Y-5791457D01*
X16944087Y-5791467D01*
X16851188Y-5965267D01*
X16851187Y-5965269D01*
X16793975Y-6153870D01*
X16793974Y-6153873D01*
X16774659Y-6349996D01*
X16245341Y-6349996D01*
X16226025Y-6153873D01*
X16226024Y-6153870D01*
X16226024Y-6153868D01*
X16168814Y-5965273D01*
X16075910Y-5791462D01*
X16075906Y-5791457D01*
X15950887Y-5639121D01*
X15950878Y-5639112D01*
X15798542Y-5514093D01*
X15798540Y-5514092D01*
X15798538Y-5514090D01*
X15757618Y-5492218D01*
X15624732Y-5421188D01*
X15624730Y-5421187D01*
X15436129Y-5363975D01*
X15436126Y-5363974D01*
X15240003Y-5344659D01*
X15239997Y-5344659D01*
X15043873Y-5363974D01*
X15043870Y-5363975D01*
X14855269Y-5421187D01*
X14855267Y-5421188D01*
X14681467Y-5514087D01*
X14681457Y-5514093D01*
X14529121Y-5639112D01*
X14529112Y-5639121D01*
X14404093Y-5791457D01*
X14404087Y-5791467D01*
X14311188Y-5965267D01*
X14311187Y-5965269D01*
X14253975Y-6153870D01*
X14253974Y-6153873D01*
X14234659Y-6349996D01*
X13705341Y-6349996D01*
X13686025Y-6153873D01*
X13686024Y-6153870D01*
X13686024Y-6153868D01*
X13628814Y-5965273D01*
X13535910Y-5791462D01*
X13535906Y-5791457D01*
X13410887Y-5639121D01*
X13410878Y-5639112D01*
X13258542Y-5514093D01*
X13258540Y-5514092D01*
X13258538Y-5514090D01*
X13217618Y-5492218D01*
X13084732Y-5421188D01*
X13084730Y-5421187D01*
X12896129Y-5363975D01*
X12896126Y-5363974D01*
X12700003Y-5344659D01*
X12699997Y-5344659D01*
X12503873Y-5363974D01*
X12503870Y-5363975D01*
X12315269Y-5421187D01*
X12315267Y-5421188D01*
X12141467Y-5514087D01*
X12141457Y-5514093D01*
X11989121Y-5639112D01*
X11989112Y-5639121D01*
X11864093Y-5791457D01*
X11864087Y-5791467D01*
X11771188Y-5965267D01*
X11771187Y-5965269D01*
X11713975Y-6153870D01*
X11713974Y-6153873D01*
X11694659Y-6349996D01*
X11165341Y-6349996D01*
X11146025Y-6153873D01*
X11146024Y-6153870D01*
X11146024Y-6153868D01*
X11088814Y-5965273D01*
X10995910Y-5791462D01*
X10995906Y-5791457D01*
X10870887Y-5639121D01*
X10870878Y-5639112D01*
X10718542Y-5514093D01*
X10718540Y-5514092D01*
X10718538Y-5514090D01*
X10677618Y-5492218D01*
X10544732Y-5421188D01*
X10544730Y-5421187D01*
X10356129Y-5363975D01*
X10356126Y-5363974D01*
X10160003Y-5344659D01*
X10159997Y-5344659D01*
X9963873Y-5363974D01*
X9963870Y-5363975D01*
X9775269Y-5421187D01*
X9775267Y-5421188D01*
X9601467Y-5514087D01*
X9601457Y-5514093D01*
X9449121Y-5639112D01*
X9449112Y-5639121D01*
X9324093Y-5791457D01*
X9324087Y-5791467D01*
X9231188Y-5965267D01*
X9231187Y-5965269D01*
X9173975Y-6153870D01*
X9173974Y-6153873D01*
X9154659Y-6349996D01*
X8625341Y-6349996D01*
X8606025Y-6153873D01*
X8606024Y-6153870D01*
X8606024Y-6153868D01*
X8548814Y-5965273D01*
X8455910Y-5791462D01*
X8455906Y-5791457D01*
X8330887Y-5639121D01*
X8330878Y-5639112D01*
X8178542Y-5514093D01*
X8178540Y-5514092D01*
X8178538Y-5514090D01*
X8137618Y-5492218D01*
X8004732Y-5421188D01*
X8004730Y-5421187D01*
X7816129Y-5363975D01*
X7816126Y-5363974D01*
X7620003Y-5344659D01*
X7619997Y-5344659D01*
X7423873Y-5363974D01*
X7423870Y-5363975D01*
X7235269Y-5421187D01*
X7235267Y-5421188D01*
X7061467Y-5514087D01*
X7061457Y-5514093D01*
X6909121Y-5639112D01*
X6909112Y-5639121D01*
X6784093Y-5791457D01*
X6784087Y-5791467D01*
X6691188Y-5965267D01*
X6691187Y-5965269D01*
X6633975Y-6153870D01*
X6633974Y-6153873D01*
X6614659Y-6349996D01*
X6085341Y-6349996D01*
X6066025Y-6153873D01*
X6066024Y-6153870D01*
X6066024Y-6153868D01*
X6008814Y-5965273D01*
X5915910Y-5791462D01*
X5915906Y-5791457D01*
X5790887Y-5639121D01*
X5790878Y-5639112D01*
X5638542Y-5514093D01*
X5638540Y-5514092D01*
X5638538Y-5514090D01*
X5597618Y-5492218D01*
X5464732Y-5421188D01*
X5464730Y-5421187D01*
X5276129Y-5363975D01*
X5276126Y-5363974D01*
X5080003Y-5344659D01*
X5079997Y-5344659D01*
X4883873Y-5363974D01*
X4883870Y-5363975D01*
X4695269Y-5421187D01*
X4695267Y-5421188D01*
X4521467Y-5514087D01*
X4521457Y-5514093D01*
X4369121Y-5639112D01*
X4369112Y-5639121D01*
X4244093Y-5791457D01*
X4244087Y-5791467D01*
X4151188Y-5965267D01*
X4151187Y-5965269D01*
X4093975Y-6153870D01*
X4093974Y-6153873D01*
X4074659Y-6349996D01*
X300500Y-6349996D01*
X300500Y-2799997D01*
X1004953Y-2799997D01*
X1004953Y-2800002D01*
X1025113Y-3069022D01*
X1025115Y-3069032D01*
X1085146Y-3332049D01*
X1183706Y-3583174D01*
X1183715Y-3583193D01*
X1318600Y-3816820D01*
X1435038Y-3962827D01*
X2184310Y-3213554D01*
X2227437Y-3278097D01*
X2331903Y-3382563D01*
X2396443Y-3425687D01*
X1646351Y-4175780D01*
X1684569Y-4211240D01*
X1907484Y-4363220D01*
X2150541Y-4480270D01*
X2408334Y-4559789D01*
X2408344Y-4559791D01*
X2675105Y-4599999D01*
X2675114Y-4600000D01*
X2944886Y-4600000D01*
X2944894Y-4599999D01*
X3211655Y-4559791D01*
X3211665Y-4559789D01*
X3469458Y-4480270D01*
X3712516Y-4363220D01*
X3935434Y-4211237D01*
X3973647Y-4175780D01*
X3223555Y-3425688D01*
X3288097Y-3382563D01*
X3392563Y-3278097D01*
X3435688Y-3213555D01*
X4184960Y-3962827D01*
X4301399Y-3816820D01*
X4436284Y-3583193D01*
X4436293Y-3583174D01*
X4534853Y-3332049D01*
X4594884Y-3069032D01*
X4594886Y-3069022D01*
X4615047Y-2800002D01*
X4615047Y-2799997D01*
X4594886Y-2530977D01*
X4594884Y-2530967D01*
X4534853Y-2267950D01*
X4436293Y-2016825D01*
X4436284Y-2016806D01*
X4301399Y-1783179D01*
X4184960Y-1637171D01*
X3435687Y-2386443D01*
X3392563Y-2321903D01*
X3288097Y-2217437D01*
X3223554Y-2174310D01*
X3973647Y-1424218D01*
X3935430Y-1388759D01*
X3712516Y-1236779D01*
X3469458Y-1119729D01*
X3211665Y-1040210D01*
X3211655Y-1040208D01*
X2944894Y-1000000D01*
X2675105Y-1000000D01*
X2408344Y-1040208D01*
X2408334Y-1040210D01*
X2150541Y-1119729D01*
X1907484Y-1236779D01*
X1684569Y-1388759D01*
X1646351Y-1424218D01*
X2396444Y-2174311D01*
X2331903Y-2217437D01*
X2227437Y-2321903D01*
X2184311Y-2386444D01*
X1435038Y-1637171D01*
X1318606Y-1783172D01*
X1318596Y-1783187D01*
X1183715Y-2016806D01*
X1183706Y-2016825D01*
X1085146Y-2267950D01*
X1025115Y-2530967D01*
X1025113Y-2530977D01*
X1004953Y-2799997D01*
X300500Y-2799997D01*
X300500Y-399500D01*
X319407Y-341309D01*
X368907Y-305345D01*
X399500Y-300500D01*
X70380500Y-300500D01*
X70438691Y-319407D01*
G37*
%TD.AperFunction*%
%TD*%
M02*
