M48
; DRILL file {KiCad 8.0.0-rc2} date 2024-02-11T13:58:57-0800
; FORMAT={-:-/ absolute / inch / decimal}
; #@! TF.CreationDate,2024-02-11T13:58:57-08:00
; #@! TF.GenerationSoftware,Kicad,Pcbnew,8.0.0-rc2
; #@! TF.FileFunction,Plated,1,4,PTH
FMAT,2
INCH
; #@! TA.AperFunction,Plated,PTH,ViaDrill
T1C0.0138
; #@! TA.AperFunction,Plated,PTH,ComponentDrill
T2C0.0138
; #@! TA.AperFunction,Plated,PTH,ComponentDrill
T3C0.0197
; #@! TA.AperFunction,Plated,PTH,ComponentDrill
T4C0.0217
; #@! TA.AperFunction,Plated,PTH,ComponentDrill
T5C0.0315
; #@! TA.AperFunction,Plated,PTH,ComponentDrill
T6C0.0394
%
G90
G05
T1
X0.0811Y-1.5118
X0.1296Y-1.477
X0.2015Y-1.4562
X0.2111Y-2.2364
X0.2243Y-1.6823
X0.2335Y-1.6301
X0.2893Y-1.3694
X0.2898Y-1.5118
X0.2977Y-1.9372
X0.3331Y-1.3622
X0.3568Y-1.6301
X0.3568Y-1.8943
X0.3568Y-1.9727
X0.3568Y-2.2364
X0.3803Y-1.3504
X0.4219Y-1.4649
X0.4513Y-1.8303
X0.4517Y-2.0503
X0.4655Y-2.1339
X0.4906Y-1.5079
X0.4992Y-2.0353
X0.4992Y-2.0793
X0.5034Y-1.3278
X0.5049Y-2.1339
X0.5317Y-2.0028
X0.5354Y-1.4782
X0.5364Y-2.1299
X0.5367Y-1.9053
X0.5575Y-1.3465
X0.5718Y-2.1299
X0.5753Y-1.3068
X0.6009Y-2.0518
X0.6022Y-1.459
X0.6044Y-2.1195
X0.6309Y-2.1063
X0.655Y-2.2597
X0.6785Y-1.5079
X0.7065Y-1.9834
X0.7125Y-2.1134
X0.7157Y-1.8466
X0.719Y-1.7213
X0.7229Y-2.0439
X0.749Y-2.2913
X0.7505Y-1.9237
X0.7543Y-1.3386
X0.7718Y-1.7106
X0.7856Y-2.2224
X0.7856Y-2.2539
X0.7856Y-2.2894
X0.7969Y-1.7343
X0.8102Y-1.9278
X0.8343Y-2.2717
X0.85Y-1.6791
X0.8544Y-1.8498
X0.8616Y-1.9201
X0.8751Y-2.2289
X0.8839Y-1.7228
X0.8883Y-2.0479
X0.8894Y-1.8216
X0.8967Y-1.9203
X0.902Y-1.3236
X0.9379Y-1.7638
X0.9512Y-1.5118
X0.9527Y-1.8957
X0.9787Y-1.3465
X0.9799Y-1.7776
X0.9875Y-1.4322
X0.9898Y-2.1417
X0.9946Y-2.0124
X1.0205Y-2.0341
X1.1127Y-2.1384
X1.1127Y-2.1778
X1.1433Y-1.4508
X1.152Y-1.9809
X1.152Y-2.0203
X1.1933Y-1.4862
X1.2308Y-1.6581
X1.2418Y-1.5147
X1.2437Y-1.313
X1.289Y-1.1693
X1.3087Y-1.1949
X1.3371Y-1.354
X1.3474Y-2.1673
X1.3474Y-2.2067
X1.4125Y-1.5175
X1.4399Y-1.4198
X1.4563Y-1.5143
X1.4564Y-1.6833
X1.4709Y-2.1634
X1.4828Y-1.8116
X1.492Y-1.514
X1.5252Y-1.5145
X1.5498Y-1.5328
X1.5902Y-2.2474
X1.601Y-1.5149
X1.6252Y-2.2417
X1.6925Y-2.2224
X1.6984Y-2.0039
X1.9327Y-0.5059
X1.9472Y-1.4134
X1.9472Y-1.4646
X1.9472Y-1.5118
X1.9472Y-1.5551
X2.1157Y-0.3189
X2.2465Y-0.8701
X2.2465Y-0.9291
X2.3016Y-0.8701
X2.3016Y-0.9291
X2.3528Y-0.8701
X2.3528Y-0.9291
X2.3953Y-0.4902
X2.4118Y-0.8701
X2.4118Y-0.9291
X2.4492Y-0.748
X2.5291Y-2.1575
X2.5356Y-2.0133
X2.6675Y-2.1566
X2.6714Y-2.0213
T2
X0.7554Y-1.9701
X0.7554Y-2.0203
X0.7554Y-2.0705
X0.8056Y-1.9701
X0.8056Y-2.0203
X0.8056Y-2.0705
X0.8558Y-1.9701
X0.8558Y-2.0203
X0.8558Y-2.0705
T3
X2.5378Y-0.9134
T5
X0.2Y-0.25
X0.2Y-0.55
X0.2Y-0.8
X0.2Y-1.1
X0.3Y-0.25
X0.3Y-0.55
X0.3Y-0.8
X0.3Y-1.1
X0.4Y-0.25
X0.4Y-0.55
X0.4Y-0.8
X0.4Y-1.1
X0.5Y-0.25
X0.5Y-0.55
X0.5Y-0.8
X0.5Y-1.1
X0.6Y-0.25
X0.6Y-0.55
X0.6Y-0.8
X0.6Y-1.1
X0.7Y-0.25
X0.7Y-0.55
X0.7Y-0.8
X0.7Y-1.1
X0.8Y-0.25
X0.8Y-0.55
X0.8Y-0.8
X0.8Y-1.1
X0.9Y-0.25
X0.9Y-0.55
X0.9Y-0.8
X0.9Y-1.1
X1.1Y-0.25
X1.1Y-0.55
X1.1Y-0.8
X1.1Y-1.1
X1.2Y-0.25
X1.2Y-0.55
X1.2Y-0.8
X1.2Y-1.1
X1.3Y-0.25
X1.3Y-0.55
X1.3Y-0.8
X1.3Y-1.1
X1.4Y-0.25
X1.4Y-0.55
X1.4Y-0.8
X1.4Y-1.1
X1.5Y-0.25
X1.5Y-0.55
X1.5Y-0.8
X1.5Y-1.1
X1.6Y-0.25
X1.6Y-0.55
X1.6Y-0.8
X1.6Y-1.1
X1.7Y-0.25
X1.7Y-0.55
X1.7Y-0.8
X1.7Y-1.1
X1.8Y-0.25
X1.8Y-0.55
X1.8Y-0.8
X1.8Y-1.1
T6
X1.619Y-1.7805
X1.619Y-1.8805
X2.1906Y-1.4291
X2.5843Y-1.4291
T3
G00X2.7137Y-1.9267
M15
G01X2.7393Y-1.9267
M16
G05
G00X2.7137Y-2.2023
M15
G01X2.7393Y-2.2023
M16
G05
T4
G00X2.6202Y-1.9719
M15
G01X2.6202Y-1.9601
M16
G05
G00X2.6202Y-2.1688
M15
G01X2.6202Y-2.157
M16
G05
M30
