%TF.GenerationSoftware,KiCad,Pcbnew,8.0.0-rc2*%
%TF.CreationDate,2024-01-29T17:44:33-08:00*%
%TF.ProjectId,fluke_884x_continuity_buzzer,666c756b-655f-4383-9834-785f636f6e74,REV1*%
%TF.SameCoordinates,Original*%
%TF.FileFunction,Copper,L1,Top*%
%TF.FilePolarity,Positive*%
%FSLAX46Y46*%
G04 Gerber Fmt 4.6, Leading zero omitted, Abs format (unit mm)*
G04 Created by KiCad (PCBNEW 8.0.0-rc2) date 2024-01-29 17:44:33*
%MOMM*%
%LPD*%
G01*
G04 APERTURE LIST*
G04 Aperture macros list*
%AMRoundRect*
0 Rectangle with rounded corners*
0 $1 Rounding radius*
0 $2 $3 $4 $5 $6 $7 $8 $9 X,Y pos of 4 corners*
0 Add a 4 corners polygon primitive as box body*
4,1,4,$2,$3,$4,$5,$6,$7,$8,$9,$2,$3,0*
0 Add four circle primitives for the rounded corners*
1,1,$1+$1,$2,$3*
1,1,$1+$1,$4,$5*
1,1,$1+$1,$6,$7*
1,1,$1+$1,$8,$9*
0 Add four rect primitives between the rounded corners*
20,1,$1+$1,$2,$3,$4,$5,0*
20,1,$1+$1,$4,$5,$6,$7,0*
20,1,$1+$1,$6,$7,$8,$9,0*
20,1,$1+$1,$8,$9,$2,$3,0*%
G04 Aperture macros list end*
%TA.AperFunction,SMDPad,CuDef*%
%ADD10RoundRect,0.243750X-0.456250X0.243750X-0.456250X-0.243750X0.456250X-0.243750X0.456250X0.243750X0*%
%TD*%
%TA.AperFunction,SMDPad,CuDef*%
%ADD11R,1.350000X0.400000*%
%TD*%
%TA.AperFunction,ComponentPad*%
%ADD12O,1.550000X0.890000*%
%TD*%
%TA.AperFunction,SMDPad,CuDef*%
%ADD13R,1.550000X1.200000*%
%TD*%
%TA.AperFunction,ComponentPad*%
%ADD14O,0.950000X1.250000*%
%TD*%
%TA.AperFunction,SMDPad,CuDef*%
%ADD15R,1.550000X1.500000*%
%TD*%
%TA.AperFunction,ComponentPad*%
%ADD16R,1.700000X1.700000*%
%TD*%
%TA.AperFunction,ComponentPad*%
%ADD17O,1.700000X1.700000*%
%TD*%
%TA.AperFunction,SMDPad,CuDef*%
%ADD18RoundRect,0.140000X-0.140000X-0.170000X0.140000X-0.170000X0.140000X0.170000X-0.140000X0.170000X0*%
%TD*%
%TA.AperFunction,SMDPad,CuDef*%
%ADD19RoundRect,0.140000X0.170000X-0.140000X0.170000X0.140000X-0.170000X0.140000X-0.170000X-0.140000X0*%
%TD*%
%TA.AperFunction,SMDPad,CuDef*%
%ADD20RoundRect,0.135000X0.135000X0.185000X-0.135000X0.185000X-0.135000X-0.185000X0.135000X-0.185000X0*%
%TD*%
%TA.AperFunction,SMDPad,CuDef*%
%ADD21R,2.000000X1.500000*%
%TD*%
%TA.AperFunction,SMDPad,CuDef*%
%ADD22R,2.000000X3.800000*%
%TD*%
%TA.AperFunction,SMDPad,CuDef*%
%ADD23RoundRect,0.150000X-0.150000X0.650000X-0.150000X-0.650000X0.150000X-0.650000X0.150000X0.650000X0*%
%TD*%
%TA.AperFunction,SMDPad,CuDef*%
%ADD24RoundRect,0.140000X-0.170000X0.140000X-0.170000X-0.140000X0.170000X-0.140000X0.170000X0.140000X0*%
%TD*%
%TA.AperFunction,SMDPad,CuDef*%
%ADD25RoundRect,0.135000X-0.135000X-0.185000X0.135000X-0.185000X0.135000X0.185000X-0.135000X0.185000X0*%
%TD*%
%TA.AperFunction,SMDPad,CuDef*%
%ADD26RoundRect,0.140000X0.140000X0.170000X-0.140000X0.170000X-0.140000X-0.170000X0.140000X-0.170000X0*%
%TD*%
%TA.AperFunction,SMDPad,CuDef*%
%ADD27RoundRect,0.050000X-0.050000X0.387500X-0.050000X-0.387500X0.050000X-0.387500X0.050000X0.387500X0*%
%TD*%
%TA.AperFunction,SMDPad,CuDef*%
%ADD28RoundRect,0.050000X-0.387500X0.050000X-0.387500X-0.050000X0.387500X-0.050000X0.387500X0.050000X0*%
%TD*%
%TA.AperFunction,ComponentPad*%
%ADD29C,0.600000*%
%TD*%
%TA.AperFunction,SMDPad,CuDef*%
%ADD30RoundRect,0.144000X-1.456000X1.456000X-1.456000X-1.456000X1.456000X-1.456000X1.456000X1.456000X0*%
%TD*%
%TA.AperFunction,SMDPad,CuDef*%
%ADD31R,2.100000X5.600000*%
%TD*%
%TA.AperFunction,SMDPad,CuDef*%
%ADD32RoundRect,0.135000X-0.185000X0.135000X-0.185000X-0.135000X0.185000X-0.135000X0.185000X0.135000X0*%
%TD*%
%TA.AperFunction,SMDPad,CuDef*%
%ADD33R,0.650000X0.400000*%
%TD*%
%TA.AperFunction,ComponentPad*%
%ADD34R,2.000000X2.000000*%
%TD*%
%TA.AperFunction,ComponentPad*%
%ADD35C,2.000000*%
%TD*%
%TA.AperFunction,ComponentPad*%
%ADD36C,1.000000*%
%TD*%
%TA.AperFunction,ComponentPad*%
%ADD37R,1.600000X1.600000*%
%TD*%
%TA.AperFunction,ComponentPad*%
%ADD38O,1.600000X1.600000*%
%TD*%
%TA.AperFunction,SMDPad,CuDef*%
%ADD39R,0.700000X0.450000*%
%TD*%
%TA.AperFunction,ViaPad*%
%ADD40C,0.600000*%
%TD*%
%TA.AperFunction,Conductor*%
%ADD41C,0.200000*%
%TD*%
%TA.AperFunction,Conductor*%
%ADD42C,0.150000*%
%TD*%
%TA.AperFunction,Conductor*%
%ADD43C,1.000000*%
%TD*%
%TA.AperFunction,Conductor*%
%ADD44C,0.800000*%
%TD*%
%TA.AperFunction,Conductor*%
%ADD45C,0.400000*%
%TD*%
%TA.AperFunction,Conductor*%
%ADD46C,0.600000*%
%TD*%
%TA.AperFunction,Conductor*%
%ADD47C,0.300000*%
%TD*%
G04 APERTURE END LIST*
D10*
%TO.P,C2,1*%
%TO.N,+3V3*%
X51210000Y-17087500D03*
%TO.P,C2,2*%
%TO.N,GND*%
X51210000Y-18962500D03*
%TD*%
D11*
%TO.P,J3,1,VBUS*%
%TO.N,unconnected-(J3-VBUS-Pad1)*%
X63290000Y-62337500D03*
%TO.P,J3,2,D-*%
%TO.N,/USB_D-*%
X63290000Y-61687500D03*
%TO.P,J3,3,D+*%
%TO.N,/USB_D+*%
X63290000Y-61037500D03*
%TO.P,J3,4,ID*%
%TO.N,unconnected-(J3-ID-Pad4)*%
X63290000Y-60387500D03*
%TO.P,J3,5,GND*%
%TO.N,GND*%
X63290000Y-59737500D03*
D12*
%TO.P,J3,6,Shield*%
X65990000Y-64537500D03*
D13*
X65990000Y-63937500D03*
D14*
X63290000Y-63537500D03*
D15*
X65990000Y-62037500D03*
X65990000Y-60037500D03*
D14*
X63290000Y-58537500D03*
D13*
X65990000Y-58137500D03*
D12*
X65990000Y-57537500D03*
%TD*%
D16*
%TO.P,J2,1,Pin_1*%
%TO.N,/~{USB_BOOT}*%
X37860000Y-53825000D03*
D17*
%TO.P,J2,2,Pin_2*%
%TO.N,GND*%
X37860000Y-56365000D03*
%TD*%
D18*
%TO.P,C15,1*%
%TO.N,+3V3*%
X23203800Y-63915400D03*
%TO.P,C15,2*%
%TO.N,GND*%
X24163800Y-63915400D03*
%TD*%
%TO.P,C13,1*%
%TO.N,+1V1*%
X23203800Y-62915400D03*
%TO.P,C13,2*%
%TO.N,GND*%
X24163800Y-62915400D03*
%TD*%
D19*
%TO.P,C4,1*%
%TO.N,+3V3*%
X15960000Y-53995000D03*
%TO.P,C4,2*%
%TO.N,GND*%
X15960000Y-53035000D03*
%TD*%
%TO.P,C6,1*%
%TO.N,+3V3*%
X34368800Y-56580400D03*
%TO.P,C6,2*%
%TO.N,GND*%
X34368800Y-55620400D03*
%TD*%
D20*
%TO.P,R27,1*%
%TO.N,+3V3*%
X35393800Y-49415400D03*
%TO.P,R27,2*%
%TO.N,/QSPI_SS*%
X34373800Y-49415400D03*
%TD*%
D21*
%TO.P,U1,1,GND*%
%TO.N,GND*%
X60510000Y-19300000D03*
%TO.P,U1,2,VO*%
%TO.N,+3V3*%
X60510000Y-17000000D03*
D22*
X54210000Y-17000000D03*
D21*
%TO.P,U1,3,VI*%
%TO.N,Net-(D1-K)*%
X60510000Y-14700000D03*
%TD*%
D23*
%TO.P,U2,1,~{CS}*%
%TO.N,/QSPI_SS*%
X31828800Y-49365400D03*
%TO.P,U2,2,DO(IO1)*%
%TO.N,/QSPI_SD1*%
X30558800Y-49365400D03*
%TO.P,U2,3,IO2*%
%TO.N,/QSPI_SD2*%
X29288800Y-49365400D03*
%TO.P,U2,4,GND*%
%TO.N,GND*%
X28018800Y-49365400D03*
%TO.P,U2,5,DI(IO0)*%
%TO.N,/QSPI_SD0*%
X28018800Y-56565400D03*
%TO.P,U2,6,CLK*%
%TO.N,/QSPI_SCLK*%
X29288800Y-56565400D03*
%TO.P,U2,7,IO3*%
%TO.N,/QSPI_SD3*%
X30558800Y-56565400D03*
%TO.P,U2,8,VCC*%
%TO.N,+3V3*%
X31828800Y-56565400D03*
%TD*%
D24*
%TO.P,C9,1*%
%TO.N,Net-(C9-Pad1)*%
X8198800Y-58920400D03*
%TO.P,C9,2*%
%TO.N,GND*%
X8198800Y-59880400D03*
%TD*%
D25*
%TO.P,R28,1*%
%TO.N,/QSPI_SS*%
X34380000Y-50850000D03*
%TO.P,R28,2*%
%TO.N,/~{USB_BOOT}*%
X35400000Y-50850000D03*
%TD*%
D18*
%TO.P,C10,1*%
%TO.N,+3V3*%
X24203800Y-59915400D03*
%TO.P,C10,2*%
%TO.N,GND*%
X25163800Y-59915400D03*
%TD*%
D24*
%TO.P,C17,1*%
%TO.N,+3V3*%
X15760000Y-65000000D03*
%TO.P,C17,2*%
%TO.N,GND*%
X15760000Y-65960000D03*
%TD*%
D26*
%TO.P,C11,1*%
%TO.N,+3V3*%
X11193800Y-60296400D03*
%TO.P,C11,2*%
%TO.N,GND*%
X10233800Y-60296400D03*
%TD*%
D20*
%TO.P,R30,1*%
%TO.N,/USB_D+*%
X24193800Y-60915400D03*
%TO.P,R30,2*%
%TO.N,Net-(U3-USB_DP)*%
X23173800Y-60915400D03*
%TD*%
D26*
%TO.P,C12,1*%
%TO.N,+1V1*%
X11193800Y-61415400D03*
%TO.P,C12,2*%
%TO.N,GND*%
X10233800Y-61415400D03*
%TD*%
D10*
%TO.P,C1,1*%
%TO.N,Net-(D1-K)*%
X63710000Y-16000000D03*
%TO.P,C1,2*%
%TO.N,GND*%
X63710000Y-17875000D03*
%TD*%
D19*
%TO.P,C5,1*%
%TO.N,+3V3*%
X20590000Y-55130000D03*
%TO.P,C5,2*%
%TO.N,GND*%
X20590000Y-54170000D03*
%TD*%
D26*
%TO.P,C16,1*%
%TO.N,+3V3*%
X11855000Y-68800000D03*
%TO.P,C16,2*%
%TO.N,GND*%
X10895000Y-68800000D03*
%TD*%
D27*
%TO.P,U3,1,IOVDD*%
%TO.N,+3V3*%
X19798800Y-56477900D03*
%TO.P,U3,2,GPIO0*%
%TO.N,RL3_3V*%
X19398800Y-56477900D03*
%TO.P,U3,3,GPIO1*%
%TO.N,RL5_3V*%
X18998800Y-56477900D03*
%TO.P,U3,4,GPIO2*%
%TO.N,RL2_3V*%
X18598800Y-56477900D03*
%TO.P,U3,5,GPIO3*%
%TO.N,RL4_3V*%
X18198800Y-56477900D03*
%TO.P,U3,6,GPIO4*%
%TO.N,RL6_3V*%
X17798800Y-56477900D03*
%TO.P,U3,7,GPIO5*%
%TO.N,G5_3V*%
X17398800Y-56477900D03*
%TO.P,U3,8,GPIO6*%
%TO.N,RL1_3V*%
X16998800Y-56477900D03*
%TO.P,U3,9,GPIO7*%
%TO.N,G7_3V*%
X16598800Y-56477900D03*
%TO.P,U3,10,IOVDD*%
%TO.N,+3V3*%
X16198800Y-56477900D03*
%TO.P,U3,11,GPIO8*%
%TO.N,RL0_3V*%
X15798800Y-56477900D03*
%TO.P,U3,12,GPIO9*%
%TO.N,G6_3V*%
X15398800Y-56477900D03*
%TO.P,U3,13,GPIO10*%
%TO.N,G2_3V*%
X14998800Y-56477900D03*
%TO.P,U3,14,GPIO11*%
%TO.N,PDP_3V*%
X14598800Y-56477900D03*
D28*
%TO.P,U3,15,GPIO12*%
%TO.N,G3_3V*%
X13761300Y-57315400D03*
%TO.P,U3,16,GPIO13*%
%TO.N,PS1_3V*%
X13761300Y-57715400D03*
%TO.P,U3,17,GPIO14*%
%TO.N,G4_3V*%
X13761300Y-58115400D03*
%TO.P,U3,18,GPIO15*%
%TO.N,PD_3V*%
X13761300Y-58515400D03*
%TO.P,U3,19,TESTEN*%
%TO.N,GND*%
X13761300Y-58915400D03*
%TO.P,U3,20,XIN*%
%TO.N,/XIN*%
X13761300Y-59315400D03*
%TO.P,U3,21,XOUT*%
%TO.N,/XOUT*%
X13761300Y-59715400D03*
%TO.P,U3,22,IOVDD*%
%TO.N,+3V3*%
X13761300Y-60115400D03*
%TO.P,U3,23,DVDD*%
%TO.N,+1V1*%
X13761300Y-60515400D03*
%TO.P,U3,24,SWCLK*%
%TO.N,/SWCLK*%
X13761300Y-60915400D03*
%TO.P,U3,25,SWD*%
%TO.N,/SWD*%
X13761300Y-61315400D03*
%TO.P,U3,26,RUN*%
%TO.N,/RUN*%
X13761300Y-61715400D03*
%TO.P,U3,27,GPIO16*%
%TO.N,PC_3V*%
X13761300Y-62115400D03*
%TO.P,U3,28,GPIO17*%
%TO.N,PG_3V*%
X13761300Y-62515400D03*
D27*
%TO.P,U3,29,GPIO18*%
%TO.N,PA_3V*%
X14598800Y-63352900D03*
%TO.P,U3,30,GPIO19*%
%TO.N,PS3_3V*%
X14998800Y-63352900D03*
%TO.P,U3,31,GPIO20*%
%TO.N,PB_3V*%
X15398800Y-63352900D03*
%TO.P,U3,32,GPIO21*%
%TO.N,PS2_3V*%
X15798800Y-63352900D03*
%TO.P,U3,33,IOVDD*%
%TO.N,+3V3*%
X16198800Y-63352900D03*
%TO.P,U3,34,GPIO22*%
%TO.N,PF_3V*%
X16598800Y-63352900D03*
%TO.P,U3,35,GPIO23*%
%TO.N,G0_3V*%
X16998800Y-63352900D03*
%TO.P,U3,36,GPIO24*%
%TO.N,G1_3V*%
X17398800Y-63352900D03*
%TO.P,U3,37,GPIO25*%
%TO.N,PE_3V*%
X17798800Y-63352900D03*
%TO.P,U3,38,GPIO26_ADC0*%
%TO.N,/GPIO26_ADC0*%
X18198800Y-63352900D03*
%TO.P,U3,39,GPIO27_ADC1*%
%TO.N,/GPIO27_ADC1*%
X18598800Y-63352900D03*
%TO.P,U3,40,GPIO28_ADC2*%
%TO.N,/GPIO28_ADC2*%
X18998800Y-63352900D03*
%TO.P,U3,41,GPIO29_ADC3*%
%TO.N,/GPIO29_ADC3*%
X19398800Y-63352900D03*
%TO.P,U3,42,IOVDD*%
%TO.N,+3V3*%
X19798800Y-63352900D03*
D28*
%TO.P,U3,43,ADC_AVDD*%
X20636300Y-62515400D03*
%TO.P,U3,44,VREG_IN*%
X20636300Y-62115400D03*
%TO.P,U3,45,VREG_VOUT*%
%TO.N,+1V1*%
X20636300Y-61715400D03*
%TO.P,U3,46,USB_DM*%
%TO.N,Net-(U3-USB_DM)*%
X20636300Y-61315400D03*
%TO.P,U3,47,USB_DP*%
%TO.N,Net-(U3-USB_DP)*%
X20636300Y-60915400D03*
%TO.P,U3,48,USB_VDD*%
%TO.N,+3V3*%
X20636300Y-60515400D03*
%TO.P,U3,49,IOVDD*%
X20636300Y-60115400D03*
%TO.P,U3,50,DVDD*%
%TO.N,+1V1*%
X20636300Y-59715400D03*
%TO.P,U3,51,QSPI_SD3*%
%TO.N,/QSPI_SD3*%
X20636300Y-59315400D03*
%TO.P,U3,52,QSPI_SCLK*%
%TO.N,/QSPI_SCLK*%
X20636300Y-58915400D03*
%TO.P,U3,53,QSPI_SD0*%
%TO.N,/QSPI_SD0*%
X20636300Y-58515400D03*
%TO.P,U3,54,QSPI_SD2*%
%TO.N,/QSPI_SD2*%
X20636300Y-58115400D03*
%TO.P,U3,55,QSPI_SD1*%
%TO.N,/QSPI_SD1*%
X20636300Y-57715400D03*
%TO.P,U3,56,QSPI_SS*%
%TO.N,/QSPI_SS*%
X20636300Y-57315400D03*
D29*
%TO.P,U3,57,GND*%
%TO.N,GND*%
X18473800Y-58640400D03*
X17198800Y-58640400D03*
X15923800Y-58640400D03*
X18473800Y-59915400D03*
X17198800Y-59915400D03*
D30*
X17198800Y-59915400D03*
D29*
X15923800Y-59915400D03*
X18473800Y-61190400D03*
X17198800Y-61190400D03*
X15923800Y-61190400D03*
%TD*%
D19*
%TO.P,C7,1*%
%TO.N,/XIN*%
X8198800Y-56910400D03*
%TO.P,C7,2*%
%TO.N,GND*%
X8198800Y-55950400D03*
%TD*%
D20*
%TO.P,R31,1*%
%TO.N,/USB_D-*%
X24193800Y-61915400D03*
%TO.P,R31,2*%
%TO.N,Net-(U3-USB_DM)*%
X23173800Y-61915400D03*
%TD*%
D18*
%TO.P,C8,1*%
%TO.N,+1V1*%
X24203800Y-58915400D03*
%TO.P,C8,2*%
%TO.N,GND*%
X25163800Y-58915400D03*
%TD*%
D26*
%TO.P,C14,1*%
%TO.N,+3V3*%
X11855000Y-67400000D03*
%TO.P,C14,2*%
%TO.N,GND*%
X10895000Y-67400000D03*
%TD*%
D20*
%TO.P,R29,1*%
%TO.N,/XOUT*%
X10593800Y-58615400D03*
%TO.P,R29,2*%
%TO.N,Net-(C9-Pad1)*%
X9573800Y-58615400D03*
%TD*%
D31*
%TO.P,Y1,1,1*%
%TO.N,/XIN*%
X4082800Y-53256400D03*
%TO.P,Y1,2,2*%
%TO.N,Net-(C9-Pad1)*%
X4082800Y-62256400D03*
%TD*%
D10*
%TO.P,C3,1*%
%TO.N,+3V3*%
X54432800Y-21932100D03*
%TO.P,C3,2*%
%TO.N,GND*%
X54432800Y-23807100D03*
%TD*%
D32*
%TO.P,R7,1*%
%TO.N,/Pf*%
X11491000Y-31090000D03*
%TO.P,R7,2*%
%TO.N,PF_3V*%
X11491000Y-32110000D03*
%TD*%
%TO.P,R10,1*%
%TO.N,/G1*%
X15280600Y-31090000D03*
%TO.P,R10,2*%
%TO.N,G1_3V*%
X15280600Y-32110000D03*
%TD*%
%TO.P,R23,1*%
%TO.N,/RL4*%
X35560000Y-31090000D03*
%TO.P,R23,2*%
%TO.N,RL4_3V*%
X35560000Y-32110000D03*
%TD*%
D33*
%TO.P,D5,1,A*%
%TO.N,G3_3V*%
X19110000Y-36850000D03*
%TO.P,D5,2,A*%
%TO.N,PS1_3V*%
X19110000Y-36200000D03*
%TO.P,D5,3,K*%
%TO.N,+3V3*%
X19110000Y-35550000D03*
%TO.P,D5,4,A*%
%TO.N,G4_3V*%
X17210000Y-35550000D03*
%TO.P,D5,5,A*%
%TO.N,PD_3V*%
X17210000Y-36200000D03*
%TO.P,D5,6,K*%
%TO.N,+3V3*%
X17210000Y-36850000D03*
%TD*%
%TO.P,D6,1,A*%
%TO.N,G1_3V*%
X14310000Y-36950000D03*
%TO.P,D6,2,A*%
%TO.N,PE_3V*%
X14310000Y-36300000D03*
%TO.P,D6,3,K*%
%TO.N,+3V3*%
X14310000Y-35650000D03*
%TO.P,D6,4,A*%
%TO.N,G0_3V*%
X12410000Y-35650000D03*
%TO.P,D6,5,A*%
%TO.N,PF_3V*%
X12410000Y-36300000D03*
%TO.P,D6,6,K*%
%TO.N,+3V3*%
X12410000Y-36950000D03*
%TD*%
D34*
%TO.P,LS1,1,1*%
%TO.N,/GPIO28_ADC2*%
X57240000Y-48750000D03*
D35*
%TO.P,LS1,2,2*%
%TO.N,/GPIO29_ADC3*%
X47240000Y-48750000D03*
%TD*%
D36*
%TO.P,TP3,1,1*%
%TO.N,/GPIO27_ADC1*%
X24990000Y-68950000D03*
%TD*%
D32*
%TO.P,R15,1*%
%TO.N,/PDP*%
X21596800Y-31090000D03*
%TO.P,R15,2*%
%TO.N,PDP_3V*%
X21596800Y-32110000D03*
%TD*%
%TO.P,R16,1*%
%TO.N,/G2*%
X22860000Y-31090000D03*
%TO.P,R16,2*%
%TO.N,G2_3V*%
X22860000Y-32110000D03*
%TD*%
%TO.P,R17,1*%
%TO.N,/G6*%
X26771600Y-31090000D03*
%TO.P,R17,2*%
%TO.N,G6_3V*%
X26771600Y-32110000D03*
%TD*%
%TO.P,R18,1*%
%TO.N,/RL0*%
X27960000Y-31090000D03*
%TO.P,R18,2*%
%TO.N,RL0_3V*%
X27960000Y-32110000D03*
%TD*%
%TO.P,R4,1*%
%TO.N,/Pa*%
X7701300Y-31090000D03*
%TO.P,R4,2*%
%TO.N,PA_3V*%
X7701300Y-32110000D03*
%TD*%
%TO.P,R24,1*%
%TO.N,/RL2*%
X38060000Y-31090000D03*
%TO.P,R24,2*%
%TO.N,RL2_3V*%
X38060000Y-32110000D03*
%TD*%
%TO.P,R2,1*%
%TO.N,/Pb*%
X5174800Y-31090000D03*
%TO.P,R2,2*%
%TO.N,PB_3V*%
X5174800Y-32110000D03*
%TD*%
D33*
%TO.P,D8,1,A*%
%TO.N,PB_3V*%
X4010000Y-37050000D03*
%TO.P,D8,2,A*%
%TO.N,PS2_3V*%
X4010000Y-36400000D03*
%TO.P,D8,3,K*%
%TO.N,unconnected-(D8C-K-Pad3)*%
X4010000Y-35750000D03*
%TO.P,D8,4,A*%
%TO.N,unconnected-(D8C-A-Pad4)*%
X2110000Y-35750000D03*
%TO.P,D8,5,A*%
%TO.N,unconnected-(D8D-A-Pad5)*%
X2110000Y-36400000D03*
%TO.P,D8,6,K*%
%TO.N,+3V3*%
X2110000Y-37050000D03*
%TD*%
D37*
%TO.P,P204,1,Pin_1*%
%TO.N,/PDP*%
X22860000Y-6350000D03*
D38*
%TO.P,P204,2,Pin_2*%
%TO.N,/PS1*%
X20320000Y-6350000D03*
%TO.P,P204,3,Pin_3*%
%TO.N,/Pd*%
X17780000Y-6350000D03*
%TO.P,P204,4,Pin_4*%
%TO.N,/Pe*%
X15240000Y-6350000D03*
%TO.P,P204,5,Pin_5*%
%TO.N,/Pf*%
X12700000Y-6350000D03*
%TO.P,P204,6,Pin_6*%
%TO.N,/Pg*%
X10160000Y-6350000D03*
%TO.P,P204,7,Pin_7*%
%TO.N,/PS3*%
X7620000Y-6350000D03*
%TO.P,P204,8,Pin_8*%
%TO.N,/PS2*%
X5080000Y-6350000D03*
%TO.P,P204,9,Pin_9*%
%TO.N,/Pb*%
X5080000Y-13970000D03*
%TO.P,P204,10,Pin_10*%
%TO.N,/Pa*%
X7620000Y-13970000D03*
%TO.P,P204,11,Pin_11*%
%TO.N,/Pc*%
X10160000Y-13970000D03*
%TO.P,P204,12,Pin_12*%
%TO.N,/G0*%
X12700000Y-13970000D03*
%TO.P,P204,13,Pin_13*%
%TO.N,/G1*%
X15240000Y-13970000D03*
%TO.P,P204,14,Pin_14*%
%TO.N,/G4*%
X17780000Y-13970000D03*
%TO.P,P204,15,Pin_15*%
%TO.N,/G3*%
X20320000Y-13970000D03*
%TO.P,P204,16,Pin_16*%
%TO.N,/G2*%
X22860000Y-13970000D03*
%TD*%
D37*
%TO.P,J204,1,Pin_1*%
%TO.N,/PDP*%
X22860000Y-20320000D03*
D38*
%TO.P,J204,2,Pin_2*%
%TO.N,/PS1*%
X20320000Y-20320000D03*
%TO.P,J204,3,Pin_3*%
%TO.N,/Pd*%
X17780000Y-20320000D03*
%TO.P,J204,4,Pin_4*%
%TO.N,/Pe*%
X15240000Y-20320000D03*
%TO.P,J204,5,Pin_5*%
%TO.N,/Pf*%
X12700000Y-20320000D03*
%TO.P,J204,6,Pin_6*%
%TO.N,/Pg*%
X10160000Y-20320000D03*
%TO.P,J204,7,Pin_7*%
%TO.N,/PS3*%
X7620000Y-20320000D03*
%TO.P,J204,8,Pin_8*%
%TO.N,/PS2*%
X5080000Y-20320000D03*
%TO.P,J204,9,Pin_9*%
%TO.N,/Pb*%
X5080000Y-27940000D03*
%TO.P,J204,10,Pin_10*%
%TO.N,/Pa*%
X7620000Y-27940000D03*
%TO.P,J204,11,Pin_11*%
%TO.N,/Pc*%
X10160000Y-27940000D03*
%TO.P,J204,12,Pin_12*%
%TO.N,/G0*%
X12700000Y-27940000D03*
%TO.P,J204,13,Pin_13*%
%TO.N,/G1*%
X15240000Y-27940000D03*
%TO.P,J204,14,Pin_14*%
%TO.N,/G4*%
X17780000Y-27940000D03*
%TO.P,J204,15,Pin_15*%
%TO.N,/G3*%
X20320000Y-27940000D03*
%TO.P,J204,16,Pin_16*%
%TO.N,/G2*%
X22860000Y-27940000D03*
%TD*%
D37*
%TO.P,J203,1,Pin_1*%
%TO.N,/F1*%
X45720000Y-20320000D03*
D38*
%TO.P,J203,2,Pin_2*%
%TO.N,/F2*%
X43180000Y-20320000D03*
%TO.P,J203,3,Pin_3*%
%TO.N,/S2*%
X40640000Y-20320000D03*
%TO.P,J203,4,Pin_4*%
%TO.N,/S1*%
X38100000Y-20320000D03*
%TO.P,J203,5,Pin_5*%
%TO.N,/S0*%
X35560000Y-20320000D03*
%TO.P,J203,6,Pin_6*%
%TO.N,/G5*%
X33020000Y-20320000D03*
%TO.P,J203,7,Pin_7*%
%TO.N,/G7*%
X30480000Y-20320000D03*
%TO.P,J203,8,Pin_8*%
%TO.N,/G6*%
X27940000Y-20320000D03*
%TO.P,J203,9,Pin_9*%
%TO.N,/RL0*%
X27940000Y-27940000D03*
%TO.P,J203,10,Pin_10*%
%TO.N,/RL1*%
X30480000Y-27940000D03*
%TO.P,J203,11,Pin_11*%
%TO.N,/RL6*%
X33020000Y-27940000D03*
%TO.P,J203,12,Pin_12*%
%TO.N,/RL4*%
X35560000Y-27940000D03*
%TO.P,J203,13,Pin_13*%
%TO.N,/RL2*%
X38100000Y-27940000D03*
%TO.P,J203,14,Pin_14*%
%TO.N,/RL5*%
X40640000Y-27940000D03*
%TO.P,J203,15,Pin_15*%
%TO.N,/RL3*%
X43180000Y-27940000D03*
%TO.P,J203,16,Pin_16*%
%TO.N,GND*%
X45720000Y-27940000D03*
%TD*%
D32*
%TO.P,R22,1*%
%TO.N,/RL6*%
X33060000Y-31090000D03*
%TO.P,R22,2*%
%TO.N,RL6_3V*%
X33060000Y-32110000D03*
%TD*%
%TO.P,R9,1*%
%TO.N,/Pe*%
X14017400Y-31090000D03*
%TO.P,R9,2*%
%TO.N,PE_3V*%
X14017400Y-32110000D03*
%TD*%
D33*
%TO.P,D3,1,A*%
%TO.N,RL3_3V*%
X40032500Y-36547500D03*
%TO.P,D3,2,A*%
%TO.N,RL5_3V*%
X40032500Y-35897500D03*
%TO.P,D3,3,K*%
%TO.N,+3V3*%
X40032500Y-35247500D03*
%TO.P,D3,4,A*%
%TO.N,RL2_3V*%
X38132500Y-35247500D03*
%TO.P,D3,5,A*%
%TO.N,RL4_3V*%
X38132500Y-35897500D03*
%TO.P,D3,6,K*%
%TO.N,+3V3*%
X38132500Y-36547500D03*
%TD*%
D39*
%TO.P,D1,1,A2*%
%TO.N,/F2*%
X57260000Y-10550000D03*
%TO.P,D1,2,A1*%
%TO.N,/F1*%
X57260000Y-11850000D03*
%TO.P,D1,3,K*%
%TO.N,Net-(D1-K)*%
X59260000Y-11200000D03*
%TD*%
D32*
%TO.P,R11,1*%
%TO.N,/Pd*%
X16543900Y-31090000D03*
%TO.P,R11,2*%
%TO.N,PD_3V*%
X16543900Y-32110000D03*
%TD*%
%TO.P,R14,1*%
%TO.N,/G3*%
X20333500Y-31090000D03*
%TO.P,R14,2*%
%TO.N,G3_3V*%
X20333500Y-32110000D03*
%TD*%
D33*
%TO.P,D2,1,A*%
%TO.N,RL6_3V*%
X32210000Y-36650000D03*
%TO.P,D2,2,A*%
%TO.N,G5_3V*%
X32210000Y-36000000D03*
%TO.P,D2,3,K*%
%TO.N,+3V3*%
X32210000Y-35350000D03*
%TO.P,D2,4,A*%
%TO.N,RL1_3V*%
X30310000Y-35350000D03*
%TO.P,D2,5,A*%
%TO.N,G7_3V*%
X30310000Y-36000000D03*
%TO.P,D2,6,K*%
%TO.N,+3V3*%
X30310000Y-36650000D03*
%TD*%
D32*
%TO.P,R3,1*%
%TO.N,/PS3*%
X6438100Y-31090000D03*
%TO.P,R3,2*%
%TO.N,PS3_3V*%
X6438100Y-32110000D03*
%TD*%
D36*
%TO.P,TP1,1,1*%
%TO.N,GND*%
X64460000Y-23200000D03*
%TD*%
%TO.P,TP2,1,1*%
%TO.N,/GPIO26_ADC0*%
X21940000Y-68950000D03*
%TD*%
D33*
%TO.P,D4,1,A*%
%TO.N,RL0_3V*%
X25910000Y-36750000D03*
%TO.P,D4,2,A*%
%TO.N,G6_3V*%
X25910000Y-36100000D03*
%TO.P,D4,3,K*%
%TO.N,+3V3*%
X25910000Y-35450000D03*
%TO.P,D4,4,A*%
%TO.N,G2_3V*%
X24010000Y-35450000D03*
%TO.P,D4,5,A*%
%TO.N,PDP_3V*%
X24010000Y-36100000D03*
%TO.P,D4,6,K*%
%TO.N,+3V3*%
X24010000Y-36750000D03*
%TD*%
D32*
%TO.P,R12,1*%
%TO.N,/G4*%
X17807100Y-31090000D03*
%TO.P,R12,2*%
%TO.N,G4_3V*%
X17807100Y-32110000D03*
%TD*%
%TO.P,R21,1*%
%TO.N,/G5*%
X31724600Y-31090000D03*
%TO.P,R21,2*%
%TO.N,G5_3V*%
X31724600Y-32110000D03*
%TD*%
%TO.P,R19,1*%
%TO.N,/G7*%
X29311600Y-31090000D03*
%TO.P,R19,2*%
%TO.N,G7_3V*%
X29311600Y-32110000D03*
%TD*%
%TO.P,R6,1*%
%TO.N,/Pc*%
X10227700Y-31090000D03*
%TO.P,R6,2*%
%TO.N,PC_3V*%
X10227700Y-32110000D03*
%TD*%
D33*
%TO.P,D7,1,A*%
%TO.N,PC_3V*%
X9110000Y-37050000D03*
%TO.P,D7,2,A*%
%TO.N,PG_3V*%
X9110000Y-36400000D03*
%TO.P,D7,3,K*%
%TO.N,+3V3*%
X9110000Y-35750000D03*
%TO.P,D7,4,A*%
%TO.N,PA_3V*%
X7210000Y-35750000D03*
%TO.P,D7,5,A*%
%TO.N,PS3_3V*%
X7210000Y-36400000D03*
%TO.P,D7,6,K*%
%TO.N,+3V3*%
X7210000Y-37050000D03*
%TD*%
D32*
%TO.P,R1,1*%
%TO.N,/PS2*%
X3911600Y-31090000D03*
%TO.P,R1,2*%
%TO.N,PS2_3V*%
X3911600Y-32110000D03*
%TD*%
%TO.P,R13,1*%
%TO.N,/PS1*%
X19070300Y-31090000D03*
%TO.P,R13,2*%
%TO.N,PS1_3V*%
X19070300Y-32110000D03*
%TD*%
%TO.P,R8,1*%
%TO.N,/G0*%
X12754200Y-31090000D03*
%TO.P,R8,2*%
%TO.N,G0_3V*%
X12754200Y-32110000D03*
%TD*%
D37*
%TO.P,P203,1,Pin_1*%
%TO.N,/F1*%
X45720000Y-6350000D03*
D38*
%TO.P,P203,2,Pin_2*%
%TO.N,/F2*%
X43180000Y-6350000D03*
%TO.P,P203,3,Pin_3*%
%TO.N,/S2*%
X40640000Y-6350000D03*
%TO.P,P203,4,Pin_4*%
%TO.N,/S1*%
X38100000Y-6350000D03*
%TO.P,P203,5,Pin_5*%
%TO.N,/S0*%
X35560000Y-6350000D03*
%TO.P,P203,6,Pin_6*%
%TO.N,/G5*%
X33020000Y-6350000D03*
%TO.P,P203,7,Pin_7*%
%TO.N,/G7*%
X30480000Y-6350000D03*
%TO.P,P203,8,Pin_8*%
%TO.N,/G6*%
X27940000Y-6350000D03*
%TO.P,P203,9,Pin_9*%
%TO.N,/RL0*%
X27940000Y-13970000D03*
%TO.P,P203,10,Pin_10*%
%TO.N,/RL1*%
X30480000Y-13970000D03*
%TO.P,P203,11,Pin_11*%
%TO.N,/RL6*%
X33020000Y-13970000D03*
%TO.P,P203,12,Pin_12*%
%TO.N,/RL4*%
X35560000Y-13970000D03*
%TO.P,P203,13,Pin_13*%
%TO.N,/RL2*%
X38100000Y-13970000D03*
%TO.P,P203,14,Pin_14*%
%TO.N,/RL5*%
X40640000Y-13970000D03*
%TO.P,P203,15,Pin_15*%
%TO.N,/RL3*%
X43180000Y-13970000D03*
%TO.P,P203,16,Pin_16*%
%TO.N,GND*%
X45720000Y-13970000D03*
%TD*%
D32*
%TO.P,R20,1*%
%TO.N,/RL1*%
X30460000Y-31090000D03*
%TO.P,R20,2*%
%TO.N,RL1_3V*%
X30460000Y-32110000D03*
%TD*%
%TO.P,R25,1*%
%TO.N,/RL5*%
X40560000Y-31090000D03*
%TO.P,R25,2*%
%TO.N,RL5_3V*%
X40560000Y-32110000D03*
%TD*%
%TO.P,R26,1*%
%TO.N,/RL3*%
X43160000Y-31090000D03*
%TO.P,R26,2*%
%TO.N,RL3_3V*%
X43160000Y-32110000D03*
%TD*%
%TO.P,R5,1*%
%TO.N,/Pg*%
X8964500Y-31090000D03*
%TO.P,R5,2*%
%TO.N,PG_3V*%
X8964500Y-32110000D03*
%TD*%
D40*
%TO.N,GND*%
X9860000Y-68800000D03*
X25998800Y-58915400D03*
X5798800Y-58705400D03*
X57060000Y-23600000D03*
X16340000Y-52050000D03*
X25998800Y-59915400D03*
X8210300Y-60677400D03*
X58460000Y-22100000D03*
X24998800Y-62915400D03*
X5798800Y-56715400D03*
X4298800Y-57805400D03*
X24998800Y-63915400D03*
X2667000Y-50005400D03*
X5798800Y-65405400D03*
X59760000Y-23600000D03*
X2098800Y-65405400D03*
X5798800Y-50005400D03*
X9416800Y-61415400D03*
X58460000Y-23600000D03*
X9860000Y-67800000D03*
X15760000Y-66800000D03*
X61260000Y-23600000D03*
X27999000Y-50715400D03*
X8198800Y-55089400D03*
X59760000Y-22100000D03*
X61140000Y-59737500D03*
X10242300Y-59470900D03*
X63315200Y-56437500D03*
X34399000Y-54615400D03*
X57060000Y-22100000D03*
X9416800Y-60296400D03*
X61260000Y-22100000D03*
X20560000Y-53400000D03*
X10369300Y-56994400D03*
X63315200Y-65637500D03*
X62209800Y-19000000D03*
%TO.N,+3V3*%
X17235000Y-38300000D03*
X2060000Y-38400000D03*
X49460000Y-37200000D03*
X24160000Y-38400000D03*
X12995000Y-67700000D03*
X49460000Y-39500000D03*
X8460000Y-34600000D03*
X24860000Y-34200000D03*
X38132500Y-38027500D03*
X14681200Y-58978800D03*
X14833600Y-62280800D03*
X30360000Y-38100000D03*
X12460000Y-38300000D03*
X19160000Y-34000000D03*
X39160000Y-34500000D03*
X7360000Y-38400000D03*
X49460000Y-35900000D03*
X32210000Y-34250000D03*
X22656800Y-60265400D03*
X14160000Y-34200000D03*
X49460000Y-38400000D03*
%TO.N,+1V1*%
X19298800Y-60615400D03*
X21998800Y-59715400D03*
X11998800Y-60715400D03*
X15098800Y-60515400D03*
%TO.N,G0_3V*%
X16690000Y-65850000D03*
X15860000Y-43800000D03*
%TO.N,G1_3V*%
X16690000Y-66750000D03*
X15360000Y-38800000D03*
%TO.N,PA_3V*%
X11260000Y-62700000D03*
X13719488Y-46764116D03*
%TO.N,PB_3V*%
X9560000Y-62800000D03*
X12410000Y-49100000D03*
%TO.N,PC_3V*%
X12760000Y-62100000D03*
X15760000Y-46400000D03*
%TO.N,PE_3V*%
X18090000Y-66150000D03*
X14660000Y-39200000D03*
%TO.N,PG_3V*%
X12089177Y-62435411D03*
X9660000Y-34300000D03*
%TO.N,PS2_3V*%
X8560000Y-62800000D03*
X11860000Y-50400000D03*
%TO.N,PS3_3V*%
X12960000Y-47700000D03*
X10360000Y-62700000D03*
%TO.N,/GPIO29_ADC3*%
X51590000Y-64600000D03*
%TO.N,/GPIO28_ADC2*%
X52990000Y-65200000D03*
%TO.N,PF_3V*%
X15960000Y-45100000D03*
X16690000Y-65050000D03*
%TD*%
D41*
%TO.N,GND*%
X15960000Y-53030000D02*
X16340000Y-52050000D01*
%TO.N,G7_3V*%
X30310000Y-36000000D02*
X29935000Y-36000000D01*
X29935000Y-36000000D02*
X29735000Y-36200000D01*
X29735000Y-36200000D02*
X29735000Y-38345000D01*
X29735000Y-38345000D02*
X30690000Y-39300000D01*
X30690000Y-39300000D02*
X31090000Y-39300000D01*
X31090000Y-39300000D02*
X31090000Y-43800000D01*
X31090000Y-43800000D02*
X30740000Y-44100000D01*
X30740000Y-44100000D02*
X25560000Y-44100000D01*
X25560000Y-44100000D02*
X16598800Y-53061200D01*
X16598800Y-53061200D02*
X16598800Y-56477900D01*
X30310000Y-36000000D02*
X29785000Y-36000000D01*
X29785000Y-36000000D02*
X29311600Y-35526600D01*
X29311600Y-35526600D02*
X29311600Y-32110000D01*
%TO.N,RL1_3V*%
X16998800Y-56477900D02*
X16998800Y-53213537D01*
X31510000Y-37725000D02*
X30885000Y-37100000D01*
X30885000Y-37100000D02*
X30885000Y-35495000D01*
X16998800Y-53213537D02*
X25712337Y-44500000D01*
X25712337Y-44500000D02*
X30965026Y-44500000D01*
X30965026Y-44500000D02*
X31510000Y-43955026D01*
X31510000Y-43955026D02*
X31510000Y-37725000D01*
X30885000Y-35495000D02*
X30740000Y-35350000D01*
X30740000Y-35350000D02*
X30310000Y-35350000D01*
%TO.N,G5_3V*%
X31860000Y-44100000D02*
X31860000Y-37350000D01*
X31060000Y-44900000D02*
X31860000Y-44100000D01*
X31860000Y-37350000D02*
X31635000Y-37125000D01*
X31635000Y-37125000D02*
X31635000Y-35950000D01*
%TO.N,GND*%
X63290000Y-59737500D02*
X61140000Y-59737500D01*
D42*
X8933300Y-59470900D02*
X9099300Y-59470900D01*
D41*
X65165200Y-60075000D02*
X65165200Y-59327700D01*
X34369000Y-55394100D02*
X34368800Y-55394300D01*
X12544300Y-58915400D02*
X10623300Y-56994400D01*
X65165200Y-62747300D02*
X65165200Y-62747500D01*
X5798800Y-56715400D02*
X6598900Y-56715400D01*
D42*
X8518800Y-59885400D02*
X8933300Y-59470900D01*
X8198800Y-59885400D02*
X8518800Y-59885400D01*
D41*
X10228800Y-61415400D02*
X9416800Y-61415400D01*
X28019000Y-50695400D02*
X27999000Y-50715400D01*
X28018800Y-50362700D02*
X28018800Y-49365400D01*
X61909800Y-19300000D02*
X62209800Y-19000000D01*
X62772300Y-18437500D02*
X62209800Y-19000000D01*
X34369000Y-55467900D02*
X34369000Y-55394100D01*
D42*
X10260000Y-67400000D02*
X9860000Y-67800000D01*
X8210300Y-60677400D02*
X8198800Y-60665900D01*
D41*
X25168800Y-59915400D02*
X25998800Y-59915400D01*
D42*
X15760000Y-65960000D02*
X15760000Y-66800000D01*
D41*
X34368800Y-55394300D02*
X34368800Y-55620400D01*
X25168800Y-58915400D02*
X25998800Y-58915400D01*
X63334800Y-17875000D02*
X62772300Y-18437500D01*
X65165200Y-59327500D02*
X65165200Y-58577500D01*
X28019000Y-50030400D02*
X28019000Y-50362900D01*
X34369000Y-55394100D02*
X34369000Y-55320400D01*
X8198800Y-55945400D02*
X8198800Y-55089400D01*
X24168800Y-63915400D02*
X24998800Y-63915400D01*
X28019000Y-50362900D02*
X28019000Y-50695400D01*
X24168800Y-62915400D02*
X24998800Y-62915400D01*
X63147500Y-18437500D02*
X63710000Y-17875000D01*
D42*
X8198800Y-60665900D02*
X8198800Y-59885400D01*
D41*
X20560000Y-54430000D02*
X20560000Y-53400000D01*
X65165200Y-62747500D02*
X65165200Y-63497500D01*
X34399000Y-55290400D02*
X34399000Y-54615400D01*
X10228800Y-60296400D02*
X9416800Y-60296400D01*
X65165200Y-62000000D02*
X65165200Y-62747300D01*
X13761300Y-58915400D02*
X12544300Y-58915400D01*
X10623300Y-56994400D02*
X10369300Y-56994400D01*
D42*
X10890000Y-67400000D02*
X10260000Y-67400000D01*
D41*
X34369000Y-55320400D02*
X34399000Y-55290400D01*
X10890000Y-68800000D02*
X9860000Y-68800000D01*
X65165200Y-59327700D02*
X65165200Y-59327500D01*
X60510000Y-19300000D02*
X61909800Y-19300000D01*
X28019000Y-50362900D02*
X28018800Y-50362700D01*
X62772300Y-18437500D02*
X63147500Y-18437500D01*
%TO.N,+3V3*%
X20636300Y-60515400D02*
X21398800Y-60515400D01*
X16160000Y-54200000D02*
X15960000Y-54000000D01*
D43*
X51210000Y-17087500D02*
X54122500Y-17087500D01*
D41*
X31829000Y-56565400D02*
X34349000Y-56565400D01*
X23086300Y-60265400D02*
X21648800Y-60265400D01*
X12410000Y-38250000D02*
X12460000Y-38300000D01*
X19998800Y-62115400D02*
X19798800Y-62315400D01*
X22898800Y-63915400D02*
X23198800Y-63915400D01*
X13761300Y-60115400D02*
X11693300Y-60115400D01*
X30310000Y-36650000D02*
X30310000Y-38050000D01*
X20636300Y-62515400D02*
X19798800Y-62515400D01*
D43*
X54210000Y-17000000D02*
X54210000Y-21709300D01*
X49460000Y-26204901D02*
X49460000Y-35900000D01*
D41*
X16190000Y-64450000D02*
X16018800Y-64741200D01*
X19998800Y-60515400D02*
X19798800Y-60315400D01*
X20636300Y-60115400D02*
X20198800Y-60115400D01*
X23436300Y-59915400D02*
X23086300Y-60265400D01*
X7210000Y-38250000D02*
X7360000Y-38400000D01*
D43*
X54432800Y-21932100D02*
X53732801Y-21932100D01*
X54210000Y-17000000D02*
X60510000Y-17000000D01*
D41*
X32260000Y-34200000D02*
X32210000Y-34250000D01*
X16198800Y-56477900D02*
X16198800Y-54115400D01*
D43*
X49460000Y-38400000D02*
X49460000Y-39500000D01*
D41*
X25910000Y-35250000D02*
X24860000Y-34200000D01*
X11512300Y-60296400D02*
X11193800Y-60296400D01*
X2110000Y-37050000D02*
X2110000Y-38350000D01*
X19798800Y-62315400D02*
X19798800Y-62515400D01*
X21398800Y-60515400D02*
X21648800Y-60265400D01*
X14310000Y-35650000D02*
X14310000Y-34350000D01*
X16018800Y-64741200D02*
X15760000Y-65000000D01*
X17210000Y-36850000D02*
X17210000Y-38250000D01*
X7210000Y-37050000D02*
X7210000Y-38250000D01*
X19798800Y-55615400D02*
X20560000Y-55395000D01*
X19798800Y-56477900D02*
X19798800Y-55615400D01*
X19798800Y-62515400D02*
X19798800Y-63352900D01*
X20636300Y-62115400D02*
X19998800Y-62115400D01*
X9110000Y-35250000D02*
X8460000Y-34600000D01*
X13761300Y-60115400D02*
X14398800Y-60115400D01*
X20636300Y-62115400D02*
X21098800Y-62115400D01*
X17210000Y-38250000D02*
X17260000Y-38300000D01*
D43*
X49460000Y-35900000D02*
X49460000Y-37200000D01*
D41*
X21648800Y-60265400D02*
X21498800Y-60115400D01*
X24010000Y-38250000D02*
X24160000Y-38400000D01*
X25910000Y-35450000D02*
X25910000Y-35250000D01*
D43*
X49460000Y-37200000D02*
X49460000Y-38400000D01*
D41*
X16198800Y-63352900D02*
X16190000Y-64450000D01*
X38132500Y-36547500D02*
X38132500Y-38027500D01*
X19160000Y-34000000D02*
X19160000Y-35500000D01*
X20636300Y-60515400D02*
X19998800Y-60515400D01*
X30310000Y-38050000D02*
X30360000Y-38100000D01*
X12410000Y-36950000D02*
X12410000Y-38250000D01*
X11693300Y-60115400D02*
X11512300Y-60296400D01*
X14398800Y-60115400D02*
X14598800Y-59915400D01*
X24010000Y-36750000D02*
X24010000Y-38250000D01*
X24198800Y-59915400D02*
X23436300Y-59915400D01*
X11860000Y-68800000D02*
X11860000Y-67400000D01*
X21098800Y-62115400D02*
X22898800Y-63915400D01*
X32210000Y-35350000D02*
X32210000Y-34250000D01*
D43*
X53732801Y-21932100D02*
X49460000Y-26204901D01*
D41*
X2110000Y-38350000D02*
X2060000Y-38400000D01*
X21498800Y-60115400D02*
X20636300Y-60115400D01*
X17260000Y-38300000D02*
X17235000Y-38300000D01*
X38060000Y-38100000D02*
X38132500Y-38027500D01*
D43*
X54210000Y-21709300D02*
X54432800Y-21932100D01*
D41*
X14310000Y-34350000D02*
X14160000Y-34200000D01*
X9110000Y-35750000D02*
X9110000Y-35250000D01*
%TO.N,+1V1*%
X12198800Y-60515400D02*
X11998800Y-60715400D01*
D42*
X19298800Y-60415400D02*
X19298800Y-60615400D01*
D41*
X11392500Y-61216700D02*
X11193800Y-61415400D01*
X11497500Y-61216700D02*
X11392500Y-61216700D01*
D42*
X19198800Y-60315400D02*
X19298800Y-60415400D01*
D41*
X11298800Y-61415400D02*
X11497500Y-61216700D01*
X23903800Y-58915400D02*
X24198800Y-58915400D01*
X20636300Y-61715400D02*
X21398800Y-61715400D01*
X21398800Y-61715400D02*
X22598800Y-62915400D01*
X11497500Y-61216700D02*
X11998800Y-60715400D01*
X20636300Y-59715400D02*
X21998800Y-59715400D01*
X20636300Y-61715400D02*
X19798800Y-61715400D01*
X22598800Y-62915400D02*
X23198800Y-62915400D01*
X23103800Y-59715400D02*
X23903800Y-58915400D01*
X21998800Y-59715400D02*
X23103800Y-59715400D01*
X13761300Y-60515400D02*
X12198800Y-60515400D01*
%TO.N,/XIN*%
X8198800Y-56915400D02*
X7548300Y-57565900D01*
X8998800Y-57715400D02*
X8198800Y-56915400D01*
X10661000Y-57715400D02*
X8998800Y-57715400D01*
X12261000Y-59315400D02*
X10661000Y-57715400D01*
X5416300Y-57565900D02*
X4082800Y-56232400D01*
X7548300Y-57565900D02*
X5416300Y-57565900D01*
X13761300Y-59315400D02*
X12261000Y-59315400D01*
X4082800Y-56232400D02*
X4082800Y-53256400D01*
D44*
%TO.N,/USB_D-*%
X61490000Y-61900000D02*
X33591950Y-61890400D01*
D41*
X61490000Y-61900000D02*
X63290000Y-61687500D01*
D44*
X24181300Y-61902900D02*
X24193800Y-61890400D01*
X24193800Y-61890400D02*
X33696000Y-61890400D01*
D41*
%TO.N,/USB_D+*%
X61590000Y-60850000D02*
X62265200Y-61000000D01*
D45*
X32462900Y-60937500D02*
X32460000Y-60940400D01*
D44*
X24193800Y-60940400D02*
X32460000Y-60940400D01*
X61590000Y-60850000D02*
X32462900Y-60850000D01*
X24181300Y-60927900D02*
X24193800Y-60940400D01*
D41*
X62265200Y-61000000D02*
X63290000Y-61037500D01*
%TO.N,/~{USB_BOOT}*%
X37860000Y-53825000D02*
X35503400Y-51025000D01*
D42*
%TO.N,/QSPI_SS*%
X20798800Y-57315400D02*
X25898800Y-52215400D01*
X30399000Y-47415400D02*
X31829000Y-48845400D01*
D41*
X34399000Y-49440600D02*
X34399000Y-49790400D01*
D42*
X26999000Y-47415400D02*
X30399000Y-47415400D01*
X25898800Y-52215400D02*
X25898800Y-48515400D01*
X25898800Y-48515400D02*
X26999000Y-47415400D01*
D41*
X34399000Y-50890200D02*
X34399000Y-50352900D01*
D42*
X31829000Y-49365400D02*
X34323800Y-49365400D01*
X34399000Y-49790400D02*
X34399000Y-50352900D01*
D41*
%TO.N,/XOUT*%
X12098800Y-59715400D02*
X10998800Y-58615400D01*
X13761300Y-59715400D02*
X12098800Y-59715400D01*
X10998800Y-58615400D02*
X10593800Y-58615400D01*
%TO.N,/QSPI_SD1*%
X20636300Y-57715400D02*
X21198800Y-57715400D01*
X27399000Y-48015400D02*
X29699000Y-48015400D01*
X21198800Y-57715400D02*
X26499000Y-52415400D01*
X29699000Y-48015400D02*
X30558800Y-48875200D01*
X26499000Y-52415400D02*
X26499000Y-48915400D01*
X26499000Y-48915400D02*
X27399000Y-48015400D01*
%TO.N,/QSPI_SD2*%
X20636300Y-58115400D02*
X21598800Y-58115400D01*
X29289000Y-50160200D02*
X29289000Y-49895400D01*
X29289000Y-50160400D02*
X29289000Y-50160200D01*
X21598800Y-58115400D02*
X29289000Y-50425400D01*
X29289000Y-50425400D02*
X29289000Y-50160400D01*
%TO.N,/QSPI_SD0*%
X23898800Y-56615400D02*
X27968800Y-56615400D01*
X21998800Y-58515400D02*
X23898800Y-56615400D01*
X20636300Y-58515400D02*
X21998800Y-58515400D01*
D42*
%TO.N,/QSPI_SCLK*%
X26298800Y-57215400D02*
X26799000Y-57715400D01*
X28699000Y-57715400D02*
X29288800Y-57125600D01*
X24098800Y-57215400D02*
X26298800Y-57215400D01*
D41*
X20636300Y-58905400D02*
X20636300Y-58915400D01*
D42*
X22733000Y-58826400D02*
X24098800Y-57215400D01*
D41*
X20631300Y-58910400D02*
X20636300Y-58905400D01*
D42*
X26799000Y-57715400D02*
X28699000Y-57715400D01*
X20636300Y-58915400D02*
X22733000Y-58826400D01*
%TO.N,/QSPI_SD3*%
X26098800Y-57815400D02*
X26599000Y-58315400D01*
X26599000Y-58315400D02*
X29399000Y-58315400D01*
X22961600Y-59166700D02*
X24298800Y-57815400D01*
X21073800Y-59315400D02*
X21285200Y-59207400D01*
X29399000Y-58315400D02*
X30558800Y-57155600D01*
X20636300Y-59315400D02*
X21073800Y-59315400D01*
X21285200Y-59207400D02*
X22961600Y-59166700D01*
X24298800Y-57815400D02*
X26098800Y-57815400D01*
D46*
%TO.N,/F1*%
X47170000Y-18870000D02*
X45720000Y-20320000D01*
X45720000Y-6350000D02*
X47170000Y-7800000D01*
X47170000Y-7800000D02*
X47170000Y-18870000D01*
X51220000Y-11850000D02*
X57260000Y-11850000D01*
X45720000Y-6350000D02*
X51220000Y-11850000D01*
%TO.N,/F2*%
X43180000Y-6350000D02*
X44430000Y-7600000D01*
X44430000Y-7600000D02*
X44430000Y-19070000D01*
X44430000Y-5100000D02*
X51810000Y-5100000D01*
X43180000Y-6350000D02*
X44430000Y-5100000D01*
X51810000Y-5100000D02*
X57260000Y-10550000D01*
X44430000Y-19070000D02*
X43180000Y-20320000D01*
D47*
%TO.N,/S2*%
X41740000Y-7450000D02*
X41740000Y-19220000D01*
X41740000Y-19220000D02*
X40640000Y-20320000D01*
X40640000Y-6350000D02*
X41740000Y-7450000D01*
%TO.N,/S1*%
X38100000Y-6350000D02*
X39200000Y-7450000D01*
X39200000Y-19220000D02*
X38100000Y-20320000D01*
X39200000Y-7450000D02*
X39200000Y-19220000D01*
%TO.N,/S0*%
X36660000Y-19220000D02*
X35560000Y-20320000D01*
X35560000Y-6350000D02*
X36660000Y-7450000D01*
X36660000Y-7450000D02*
X36660000Y-19220000D01*
%TO.N,/G5*%
X33020000Y-6350000D02*
X34120000Y-7450000D01*
X31724600Y-22410100D02*
X33020000Y-21346900D01*
X31750000Y-30124400D02*
X31724600Y-22410100D01*
X31724600Y-31214600D02*
X31750000Y-30124400D01*
X33020000Y-21346900D02*
X33020000Y-20320000D01*
X34120000Y-7450000D02*
X34120000Y-19220000D01*
X34120000Y-19220000D02*
X33020000Y-20320000D01*
%TO.N,/G7*%
X31580000Y-19220000D02*
X30480000Y-20320000D01*
D41*
X29312000Y-29434000D02*
X29311600Y-29434400D01*
D47*
X29312000Y-22515300D02*
X29312000Y-29434000D01*
X30480000Y-6350000D02*
X31580000Y-7450000D01*
D41*
X29311600Y-29434400D02*
X29311600Y-31290800D01*
D47*
X31580000Y-7450000D02*
X31580000Y-19220000D01*
X30480000Y-20320000D02*
X30480000Y-21346900D01*
X30480000Y-21346900D02*
X29312000Y-22515300D01*
%TO.N,/G6*%
X27940000Y-6350000D02*
X29040000Y-7450000D01*
X29040000Y-19220000D02*
X27940000Y-20320000D01*
D41*
X26771600Y-29434400D02*
X26771600Y-31290800D01*
D47*
X26772000Y-29434000D02*
X26772000Y-22515300D01*
X26772000Y-22515300D02*
X27940000Y-21346900D01*
D41*
X26772000Y-29434000D02*
X26771600Y-29434400D01*
D47*
X27940000Y-21346900D02*
X27940000Y-20320000D01*
X29040000Y-7450000D02*
X29040000Y-19220000D01*
%TO.N,/RL0*%
X27940000Y-27940000D02*
X27940000Y-31270000D01*
%TO.N,/RL1*%
X30480000Y-27940000D02*
X30480000Y-31170000D01*
%TO.N,/RL6*%
X33020000Y-27940000D02*
X33020000Y-31150000D01*
%TO.N,/RL4*%
X35560000Y-27940000D02*
X35560000Y-31090000D01*
%TO.N,/RL2*%
X38100000Y-27940000D02*
X38100000Y-31150000D01*
%TO.N,/RL5*%
X40640000Y-27940000D02*
X40640000Y-31010000D01*
%TO.N,/RL3*%
X43180000Y-27940000D02*
X43180000Y-31070000D01*
%TO.N,/PDP*%
X23960000Y-7450000D02*
X23960000Y-19220000D01*
X22860000Y-6350000D02*
X23960000Y-7450000D01*
X21596800Y-22610100D02*
X22860000Y-21346900D01*
X21596800Y-31290800D02*
X21596800Y-22610100D01*
X22860000Y-21346900D02*
X22860000Y-20320000D01*
X23960000Y-19220000D02*
X22860000Y-20320000D01*
%TO.N,/PS1*%
X20320000Y-20320000D02*
X20320000Y-21346900D01*
X21590000Y-19050000D02*
X20320000Y-20320000D01*
X20320000Y-6350000D02*
X21590000Y-7620000D01*
X21590000Y-7620000D02*
X21590000Y-19050000D01*
X19070300Y-22596600D02*
X19070300Y-31290800D01*
X20320000Y-21346900D02*
X19070300Y-22596600D01*
%TO.N,/Pd*%
X17780000Y-20320000D02*
X17780000Y-21346900D01*
X17780000Y-6350000D02*
X19050000Y-7620000D01*
X16543900Y-22583000D02*
X16543900Y-31290800D01*
X19050000Y-19050000D02*
X17780000Y-20320000D01*
X19050000Y-7620000D02*
X19050000Y-19050000D01*
X17780000Y-21346900D02*
X16543900Y-22583000D01*
%TO.N,/Pe*%
X15240000Y-6350000D02*
X16340000Y-7450000D01*
X16340000Y-19220000D02*
X15240000Y-20320000D01*
X15240000Y-20320000D02*
X15240000Y-21346900D01*
X16340000Y-7450000D02*
X16340000Y-19220000D01*
X14017400Y-22569500D02*
X14017400Y-31290800D01*
X15240000Y-21346900D02*
X14017400Y-22569500D01*
%TO.N,/Pf*%
X13800000Y-7450000D02*
X13800000Y-19220000D01*
X12700000Y-20320000D02*
X12700000Y-21346900D01*
X12700000Y-21346900D02*
X11491000Y-22555900D01*
X11491000Y-22555900D02*
X11491000Y-31290800D01*
X12700000Y-6350000D02*
X13800000Y-7450000D01*
X13800000Y-19220000D02*
X12700000Y-20320000D01*
%TO.N,/Pg*%
X10160000Y-20320000D02*
X10160000Y-21346900D01*
X10160000Y-6350000D02*
X11260000Y-7450000D01*
X11260000Y-7450000D02*
X11260000Y-19220000D01*
X8964500Y-22542400D02*
X8964500Y-31290800D01*
X10160000Y-21346900D02*
X8964500Y-22542400D01*
X11260000Y-19220000D02*
X10160000Y-20320000D01*
%TO.N,/PS3*%
X7620000Y-21346900D02*
X6438100Y-22528800D01*
X6438100Y-22528800D02*
X6438100Y-31290800D01*
X7620000Y-6350000D02*
X8720000Y-7450000D01*
X7620000Y-20320000D02*
X7620000Y-21346900D01*
X8720000Y-7450000D02*
X8720000Y-19220000D01*
X8720000Y-19220000D02*
X7620000Y-20320000D01*
%TO.N,/PS2*%
X5080000Y-20320000D02*
X5080000Y-21346900D01*
X5080000Y-6350000D02*
X6180000Y-7450000D01*
X5080000Y-21346900D02*
X3911600Y-22515300D01*
X3911600Y-22515300D02*
X3911600Y-31290800D01*
X6180000Y-19220000D02*
X5080000Y-20320000D01*
X6180000Y-7450000D02*
X6180000Y-19220000D01*
%TO.N,/Pb*%
X5080000Y-28966900D02*
X5174800Y-29061700D01*
X5080000Y-27940000D02*
X5080000Y-28966900D01*
X5174800Y-29061700D02*
X5174800Y-31240000D01*
%TO.N,/Pa*%
X7620000Y-27940000D02*
X7620000Y-28966900D01*
X7620000Y-28966900D02*
X7701300Y-29048200D01*
X7701300Y-29048200D02*
X7701300Y-31240000D01*
%TO.N,/Pc*%
X10160000Y-28966900D02*
X10227700Y-29034600D01*
X10160000Y-27940000D02*
X10160000Y-28966900D01*
X10227700Y-29034600D02*
X10227700Y-31240000D01*
%TO.N,/G0*%
X12700000Y-28966900D02*
X12754200Y-29021100D01*
X12700000Y-27940000D02*
X12700000Y-28966900D01*
X12754200Y-29021100D02*
X12754200Y-31240000D01*
%TO.N,/G1*%
X15240000Y-28966900D02*
X15280600Y-29007500D01*
X15280600Y-29007500D02*
X15280600Y-31240000D01*
X15240000Y-27940000D02*
X15240000Y-28966900D01*
%TO.N,/G4*%
X17807100Y-28994000D02*
X17807100Y-31240000D01*
X17780000Y-27940000D02*
X17780000Y-28966900D01*
X17780000Y-28966900D02*
X17807100Y-28994000D01*
%TO.N,/G3*%
X20320000Y-27940000D02*
X20320000Y-28966900D01*
X20333500Y-28980400D02*
X20333500Y-31240000D01*
X20320000Y-28966900D02*
X20333500Y-28980400D01*
%TO.N,/G2*%
X22860000Y-27940000D02*
X22860000Y-31240000D01*
D41*
%TO.N,G0_3V*%
X12754200Y-32110000D02*
X12754200Y-35305800D01*
X13210000Y-41150000D02*
X15860000Y-43800000D01*
X12935000Y-35650000D02*
X13210000Y-35925000D01*
X12754200Y-35305800D02*
X12410000Y-35650000D01*
X17240000Y-65300000D02*
X16690000Y-65850000D01*
X12410000Y-35650000D02*
X12935000Y-35650000D01*
X17240000Y-64822182D02*
X17240000Y-65300000D01*
X16998800Y-64580982D02*
X17240000Y-64822182D01*
X13210000Y-35925000D02*
X13210000Y-41150000D01*
X16998800Y-63352900D02*
X16998800Y-64580982D01*
%TO.N,G1_3V*%
X17590000Y-65850000D02*
X17690000Y-64750000D01*
X14685000Y-36950000D02*
X14310000Y-36950000D01*
X17398800Y-63966008D02*
X17398800Y-63352900D01*
X14310000Y-37750000D02*
X15360000Y-38800000D01*
X14310000Y-36950000D02*
X14310000Y-37750000D01*
X17690000Y-64750000D02*
X17398800Y-63966008D01*
X15280600Y-36354400D02*
X14685000Y-36950000D01*
X15280600Y-32110000D02*
X15280600Y-36354400D01*
X16690000Y-66750000D02*
X17590000Y-65850000D01*
%TO.N,G2_3V*%
X24535000Y-35450000D02*
X24010000Y-35450000D01*
X22860000Y-32110000D02*
X22860000Y-34300000D01*
X24985000Y-42775000D02*
X24985000Y-35900000D01*
X22860000Y-34300000D02*
X24010000Y-35450000D01*
X14998800Y-56477900D02*
X14998800Y-54889172D01*
X14560000Y-51632233D02*
X16292232Y-49900000D01*
X14560000Y-54450372D02*
X14560000Y-51632233D01*
X17865026Y-49894974D02*
X24985000Y-42775000D01*
X14998800Y-54889172D02*
X14560000Y-54450372D01*
X16292232Y-49900000D02*
X17865026Y-49900000D01*
X24985000Y-35900000D02*
X24535000Y-35450000D01*
X17865026Y-49900000D02*
X17865026Y-49894974D01*
%TO.N,G3_3V*%
X16060000Y-49100000D02*
X17660000Y-49100000D01*
X19160000Y-47600000D02*
X19160000Y-47400000D01*
X19160000Y-47400000D02*
X19110000Y-47250000D01*
X20333500Y-36001500D02*
X19485000Y-36850000D01*
X19110000Y-47250000D02*
X19110000Y-36850000D01*
X13761300Y-51440985D02*
X16060000Y-49100000D01*
X13761300Y-57315400D02*
X13761300Y-51440985D01*
X19485000Y-36850000D02*
X19110000Y-36850000D01*
X20333500Y-32110000D02*
X20333500Y-36001500D01*
X17660000Y-49100000D02*
X19160000Y-47600000D01*
%TO.N,G4_3V*%
X17807100Y-32110000D02*
X17160000Y-33700000D01*
X15915025Y-48255026D02*
X17515026Y-48255026D01*
X17735000Y-35550000D02*
X17210000Y-35550000D01*
X12723800Y-57636024D02*
X12723800Y-51446251D01*
X17160000Y-33700000D02*
X17210000Y-35550000D01*
X12723800Y-51446251D02*
X15915025Y-48255026D01*
X13761300Y-58115400D02*
X13203176Y-58115400D01*
X17785000Y-47985052D02*
X17785000Y-35600000D01*
X17515026Y-48255026D02*
X17785000Y-47985052D01*
X17785000Y-35600000D02*
X17735000Y-35550000D01*
X13203176Y-58115400D02*
X12723800Y-57636024D01*
%TO.N,G5_3V*%
X31635000Y-35950000D02*
X31635000Y-32199600D01*
X32210000Y-36000000D02*
X31685000Y-36000000D01*
X31685000Y-36000000D02*
X31635000Y-35950000D01*
X17398800Y-56477900D02*
X17398800Y-53308511D01*
X17398800Y-53308511D02*
X25807311Y-44900000D01*
X25807311Y-44900000D02*
X31060000Y-44900000D01*
%TO.N,G6_3V*%
X16437207Y-50250000D02*
X18010000Y-50250000D01*
X25335000Y-36300000D02*
X25535000Y-36100000D01*
X15398800Y-54794198D02*
X14960000Y-54355398D01*
X18010000Y-50250000D02*
X25335000Y-42925000D01*
X26771600Y-35763400D02*
X25910000Y-36100000D01*
X14960000Y-51727208D02*
X16437207Y-50250000D01*
X15398800Y-56477900D02*
X15398800Y-54794198D01*
X14960000Y-54355398D02*
X14960000Y-51727208D01*
X25535000Y-36100000D02*
X25910000Y-36100000D01*
X25335000Y-42925000D02*
X25335000Y-36300000D01*
X26771600Y-32110000D02*
X26771600Y-35763400D01*
%TO.N,PA_3V*%
X8460000Y-36475000D02*
X8460000Y-41504628D01*
X11912900Y-63352900D02*
X11260000Y-62700000D01*
X7701300Y-35258700D02*
X7210000Y-35750000D01*
X7735000Y-35750000D02*
X8460000Y-36475000D01*
X7210000Y-35750000D02*
X7735000Y-35750000D01*
X7701300Y-32110000D02*
X7701300Y-35258700D01*
X14598800Y-63352900D02*
X11912900Y-63352900D01*
X8460000Y-41504628D02*
X13719488Y-46764116D01*
%TO.N,PB_3V*%
X14919424Y-64390400D02*
X11150400Y-64390400D01*
X4010000Y-37050000D02*
X4010000Y-40700000D01*
X11150400Y-64390400D02*
X9560000Y-62800000D01*
X15398800Y-63911024D02*
X14919424Y-64390400D01*
X5174800Y-36260200D02*
X4385000Y-37050000D01*
X4010000Y-40700000D02*
X12410000Y-49100000D01*
X5174800Y-32110000D02*
X5174800Y-36260200D01*
X4385000Y-37050000D02*
X4010000Y-37050000D01*
X15398800Y-63352900D02*
X15398800Y-63911024D01*
%TO.N,PC_3V*%
X10227700Y-36457300D02*
X9635000Y-37050000D01*
X9110000Y-39750000D02*
X15760000Y-46400000D01*
X13761300Y-62115400D02*
X12775400Y-62115400D01*
X9110000Y-37050000D02*
X9110000Y-39750000D01*
X12775400Y-62115400D02*
X12760000Y-62100000D01*
X9635000Y-37050000D02*
X9110000Y-37050000D01*
X10227700Y-32110000D02*
X10227700Y-36457300D01*
%TO.N,PD_3V*%
X16635000Y-36250000D02*
X16685000Y-36200000D01*
X15775077Y-47900000D02*
X15860000Y-47800000D01*
X12373800Y-57780998D02*
X12373800Y-51301277D01*
X12373800Y-51301277D02*
X15775077Y-47900000D01*
X13108202Y-58515400D02*
X12373800Y-57780998D01*
X13761300Y-58515400D02*
X13108202Y-58515400D01*
X16543900Y-32110000D02*
X16543900Y-35908900D01*
X16635000Y-47159922D02*
X16635000Y-36250000D01*
X16835000Y-36200000D02*
X17210000Y-36200000D01*
X15860000Y-47800000D02*
X16635000Y-47159922D01*
X16543900Y-35908900D02*
X16835000Y-36200000D01*
X16685000Y-36200000D02*
X17210000Y-36200000D01*
%TO.N,PE_3V*%
X14885000Y-32977600D02*
X14885000Y-36250000D01*
X18090000Y-66150000D02*
X18090000Y-64550000D01*
X14017400Y-32110000D02*
X14885000Y-32977600D01*
X18090000Y-64550000D02*
X17798800Y-63816050D01*
X17798800Y-63816050D02*
X17798800Y-63352900D01*
X13560000Y-36525000D02*
X13560000Y-38100000D01*
X14310000Y-36300000D02*
X13785000Y-36300000D01*
X14835000Y-36300000D02*
X14310000Y-36300000D01*
X13785000Y-36300000D02*
X13560000Y-36525000D01*
X14885000Y-36250000D02*
X14835000Y-36300000D01*
X13560000Y-38100000D02*
X14660000Y-39200000D01*
%TO.N,PG_3V*%
X12410000Y-62650000D02*
X12160000Y-62400000D01*
X9110000Y-36400000D02*
X9485000Y-36400000D01*
X13761300Y-62515400D02*
X13626700Y-62650000D01*
X9685000Y-32830500D02*
X8964500Y-32110000D01*
X9485000Y-36400000D02*
X9685000Y-36200000D01*
X12160000Y-62400000D02*
X12124589Y-62435411D01*
X12124589Y-62435411D02*
X12089177Y-62435411D01*
X9685000Y-36200000D02*
X9685000Y-32830500D01*
X13626700Y-62650000D02*
X12410000Y-62650000D01*
%TO.N,PS1_3V*%
X13761300Y-57715400D02*
X13298150Y-57715400D01*
X18585000Y-36200000D02*
X19110000Y-36200000D01*
X17612513Y-48652513D02*
X18535000Y-47730026D01*
X13073800Y-57491050D02*
X13073800Y-51591225D01*
X13298150Y-57715400D02*
X13073800Y-57491050D01*
X18535000Y-36150000D02*
X18585000Y-36200000D01*
X19070300Y-32110000D02*
X18535000Y-32645300D01*
X13073800Y-51591225D02*
X16012512Y-48652513D01*
X18535000Y-32645300D02*
X18535000Y-36150000D01*
X18535000Y-36250000D02*
X18585000Y-36200000D01*
X18535000Y-47730026D02*
X18535000Y-36250000D01*
X16012512Y-48652513D02*
X17612513Y-48652513D01*
%TO.N,PS2_3V*%
X15064398Y-64740400D02*
X10500400Y-64740400D01*
X15798800Y-63352900D02*
X15798800Y-64005998D01*
X3435000Y-36275000D02*
X3560000Y-36400000D01*
X4010000Y-36400000D02*
X3485000Y-36400000D01*
X3260000Y-41800000D02*
X11860000Y-50400000D01*
X3435000Y-32586600D02*
X3435000Y-36275000D01*
X10500400Y-64740400D02*
X8560000Y-62800000D01*
X3911600Y-32110000D02*
X3435000Y-32586600D01*
X3260000Y-36625000D02*
X3260000Y-41800000D01*
X3560000Y-36400000D02*
X4010000Y-36400000D01*
X15798800Y-64005998D02*
X15064398Y-64740400D01*
X3485000Y-36400000D02*
X3260000Y-36625000D01*
%TO.N,PS3_3V*%
X8060000Y-36875000D02*
X8060000Y-42800000D01*
X6685000Y-36400000D02*
X6438100Y-36153100D01*
X8060000Y-42800000D02*
X12960000Y-47700000D01*
X11700400Y-64040400D02*
X10360000Y-62700000D01*
X14774450Y-64040400D02*
X11700400Y-64040400D01*
X7210000Y-36400000D02*
X7585000Y-36400000D01*
X14998800Y-63816050D02*
X14774450Y-64040400D01*
X7210000Y-36400000D02*
X6685000Y-36400000D01*
X7585000Y-36400000D02*
X8060000Y-36875000D01*
X14998800Y-63352900D02*
X14998800Y-63816050D01*
X6438100Y-36153100D02*
X6438100Y-32110000D01*
%TO.N,PDP_3V*%
X14210000Y-51487259D02*
X16197259Y-49500000D01*
X23485000Y-36100000D02*
X21596800Y-34211800D01*
X14598800Y-54984146D02*
X14210000Y-54595346D01*
X23360000Y-43900000D02*
X23360000Y-36375000D01*
X24010000Y-36100000D02*
X23485000Y-36100000D01*
X21596800Y-34211800D02*
X21596800Y-32110000D01*
X14210000Y-54595346D02*
X14210000Y-51487259D01*
X23360000Y-36375000D02*
X23635000Y-36100000D01*
X16197259Y-49500000D02*
X17760000Y-49500000D01*
X23635000Y-36100000D02*
X24010000Y-36100000D01*
X17760000Y-49500000D02*
X23360000Y-43900000D01*
X14598800Y-56477900D02*
X14598800Y-54984146D01*
%TO.N,/GPIO26_ADC0*%
X18190000Y-63750000D02*
X18295000Y-64014646D01*
X18440000Y-65600000D02*
X21940000Y-68950000D01*
X18190000Y-63400000D02*
X18190000Y-63746254D01*
X18295000Y-64014646D02*
X18490000Y-64600000D01*
X18490000Y-64600000D02*
X18440000Y-65600000D01*
%TO.N,/GPIO29_ADC3*%
X19540000Y-64300000D02*
X19540000Y-64345327D01*
X19554862Y-64899602D02*
X50990398Y-64899602D01*
X19540000Y-64345327D02*
X19554862Y-64899602D01*
X50990398Y-64899602D02*
X51590000Y-64600000D01*
X19398800Y-63352900D02*
X19398800Y-63790354D01*
X19398800Y-63790354D02*
X19540000Y-64300000D01*
%TO.N,/GPIO27_ADC1*%
X18867879Y-65337790D02*
X18890000Y-65400000D01*
X18840000Y-64450000D02*
X18867879Y-65337790D01*
X20077275Y-66682622D02*
X22722622Y-66682622D01*
X18890000Y-65400000D02*
X20077275Y-66682622D01*
X18598800Y-63352900D02*
X18598800Y-63819198D01*
X18598800Y-63819198D02*
X18840000Y-64450000D01*
X22722622Y-66682622D02*
X24990000Y-68950000D01*
%TO.N,/GPIO28_ADC2*%
X18998800Y-63885329D02*
X19190000Y-64350000D01*
X19208874Y-65053906D02*
X19454968Y-65300000D01*
X19454968Y-65300000D02*
X52940000Y-65300000D01*
X19190000Y-64350000D02*
X19207329Y-64996316D01*
X18998800Y-63352900D02*
X18998800Y-63885329D01*
X19207329Y-64996316D02*
X19208874Y-65053906D01*
%TO.N,RL0_3V*%
X15400000Y-54300424D02*
X15400000Y-51782182D01*
X27960000Y-35225000D02*
X26435000Y-36750000D01*
X27960000Y-32110000D02*
X27960000Y-35225000D01*
X16582182Y-50600000D02*
X18260000Y-50600000D01*
X15798800Y-54699224D02*
X15400000Y-54300424D01*
X26435000Y-36750000D02*
X25910000Y-36750000D01*
X15400000Y-51782182D02*
X16582182Y-50600000D01*
X25910000Y-42950000D02*
X25910000Y-36750000D01*
X18260000Y-50600000D02*
X25910000Y-42950000D01*
X15798800Y-56477900D02*
X15798800Y-54699224D01*
%TO.N,RL1_3V*%
X29935000Y-35350000D02*
X30310000Y-35350000D01*
X30310000Y-35350000D02*
X30310000Y-32260000D01*
%TO.N,RL2_3V*%
X38707500Y-45652500D02*
X38707500Y-35347500D01*
X38707500Y-35347500D02*
X38607500Y-35247500D01*
X38060000Y-32110000D02*
X38060000Y-35175000D01*
X38607500Y-35247500D02*
X38132500Y-35247500D01*
X18598800Y-56477900D02*
X18598800Y-53593433D01*
X26092233Y-46100000D02*
X38260000Y-46100000D01*
X18598800Y-53593433D02*
X26092233Y-46100000D01*
X38260000Y-46100000D02*
X38707500Y-45652500D01*
%TO.N,RL3_3V*%
X40557500Y-36547500D02*
X43160000Y-33945000D01*
X19398800Y-56477900D02*
X19398800Y-53783382D01*
X26382182Y-46800000D02*
X38660000Y-46800000D01*
X40032500Y-36547500D02*
X40557500Y-36547500D01*
X43160000Y-33945000D02*
X43160000Y-32110000D01*
X19398800Y-53783382D02*
X26382182Y-46800000D01*
X40032500Y-45427500D02*
X40032500Y-36547500D01*
X38660000Y-46800000D02*
X40032500Y-45427500D01*
%TO.N,RL4_3V*%
X35560000Y-33850000D02*
X37607500Y-35897500D01*
X37557500Y-35947500D02*
X37607500Y-35897500D01*
X35560000Y-32110000D02*
X35560000Y-33850000D01*
X37557500Y-45397500D02*
X37557500Y-35947500D01*
X37607500Y-35897500D02*
X38132500Y-35897500D01*
X18198800Y-56477900D02*
X18198800Y-53498459D01*
X18198800Y-53498459D02*
X25997259Y-45700000D01*
X37260000Y-45700000D02*
X37557500Y-45397500D01*
X25997259Y-45700000D02*
X37260000Y-45700000D01*
%TO.N,RL5_3V*%
X40935013Y-32485013D02*
X40935013Y-35624987D01*
X18998800Y-56477900D02*
X18998800Y-53688408D01*
X40662500Y-35897500D02*
X40032500Y-35897500D01*
X39507500Y-35897500D02*
X40032500Y-35897500D01*
X39457500Y-45452500D02*
X39457500Y-35947500D01*
X39457500Y-35947500D02*
X39507500Y-35897500D01*
X26237207Y-46450000D02*
X38460000Y-46450000D01*
X40560000Y-32110000D02*
X40935013Y-32485013D01*
X18998800Y-53688408D02*
X26237207Y-46450000D01*
X38460000Y-46450000D02*
X39457500Y-45452500D01*
X40935013Y-35624987D02*
X40662500Y-35897500D01*
%TO.N,RL6_3V*%
X31260000Y-45300000D02*
X32210000Y-44350000D01*
X33060000Y-36175000D02*
X32585000Y-36650000D01*
X33060000Y-32110000D02*
X33060000Y-36175000D01*
X17798800Y-56477900D02*
X17798800Y-53403485D01*
X32210000Y-44350000D02*
X32210000Y-36650000D01*
X32585000Y-36650000D02*
X32210000Y-36650000D01*
X17798800Y-53403485D02*
X25902285Y-45300000D01*
X25902285Y-45300000D02*
X31260000Y-45300000D01*
%TO.N,Net-(C9-Pad1)*%
X5416300Y-57946900D02*
X4082800Y-59280400D01*
X8198800Y-58717900D02*
X7427800Y-57946900D01*
X4082800Y-59280400D02*
X4082800Y-62256400D01*
X7427800Y-57946900D02*
X5416300Y-57946900D01*
D42*
X8998800Y-58615400D02*
X8698800Y-58915400D01*
X9573800Y-58615400D02*
X8998800Y-58615400D01*
D41*
X8198800Y-58717900D02*
X8198800Y-58915400D01*
D42*
X8698800Y-58915400D02*
X8198800Y-58915400D01*
D41*
%TO.N,Net-(U3-USB_DP)*%
X20636300Y-60915400D02*
X23173800Y-60915400D01*
%TO.N,Net-(U3-USB_DM)*%
X21898800Y-61315400D02*
X22498800Y-61915400D01*
X20636300Y-61315400D02*
X21898800Y-61315400D01*
X22498800Y-61915400D02*
X23173800Y-61915400D01*
%TO.N,PF_3V*%
X16598800Y-64438800D02*
X16598800Y-63352900D01*
X16690000Y-65050000D02*
X16598800Y-64438800D01*
X12410000Y-36300000D02*
X11885000Y-36300000D01*
X11760000Y-40900000D02*
X15960000Y-45100000D01*
X11885000Y-36300000D02*
X11491000Y-35906000D01*
X11491000Y-35906000D02*
X11491000Y-32110000D01*
X11760000Y-36575000D02*
X11760000Y-40900000D01*
X12035000Y-36300000D02*
X11760000Y-36575000D01*
X12410000Y-36300000D02*
X12035000Y-36300000D01*
%TD*%
%TA.AperFunction,Conductor*%
%TO.N,Net-(D1-K)*%
G36*
X64353039Y-10719685D02*
G01*
X64398794Y-10772489D01*
X64410000Y-10824000D01*
X64410000Y-13300000D01*
X65086000Y-13300000D01*
X65153039Y-13319685D01*
X65198794Y-13372489D01*
X65210000Y-13424000D01*
X65210000Y-16876000D01*
X65190315Y-16943039D01*
X65137511Y-16988794D01*
X65086000Y-17000000D01*
X64772497Y-17000000D01*
X64705458Y-16980315D01*
X64659703Y-16927511D01*
X64649759Y-16858353D01*
X64678784Y-16794797D01*
X64684816Y-16788319D01*
X64759947Y-16713187D01*
X64852205Y-16563614D01*
X64907481Y-16396800D01*
X64907482Y-16396800D01*
X64917999Y-16293854D01*
X64918000Y-16293841D01*
X64918000Y-16254000D01*
X62502001Y-16254000D01*
X62502001Y-16293856D01*
X62512517Y-16396801D01*
X62512518Y-16396804D01*
X62567794Y-16563614D01*
X62660052Y-16713187D01*
X62735184Y-16788319D01*
X62768669Y-16849642D01*
X62763685Y-16919334D01*
X62721813Y-16975267D01*
X62656349Y-16999684D01*
X62647503Y-17000000D01*
X62334000Y-17000000D01*
X62266961Y-16980315D01*
X62221206Y-16927511D01*
X62210000Y-16876000D01*
X62210000Y-15746000D01*
X62502000Y-15746000D01*
X63456000Y-15746000D01*
X63456000Y-15004500D01*
X63964000Y-15004500D01*
X63964000Y-15746000D01*
X64917999Y-15746000D01*
X64917999Y-15706160D01*
X64917998Y-15706143D01*
X64907482Y-15603198D01*
X64907481Y-15603195D01*
X64852205Y-15436385D01*
X64759947Y-15286812D01*
X64635687Y-15162552D01*
X64486114Y-15070294D01*
X64319300Y-15015018D01*
X64319300Y-15015017D01*
X64216354Y-15004500D01*
X63964000Y-15004500D01*
X63456000Y-15004500D01*
X63203661Y-15004500D01*
X63203642Y-15004501D01*
X63100698Y-15015017D01*
X63100695Y-15015018D01*
X62933885Y-15070294D01*
X62784312Y-15162552D01*
X62660052Y-15286812D01*
X62567794Y-15436385D01*
X62512518Y-15603199D01*
X62512517Y-15603199D01*
X62502000Y-15706145D01*
X62502000Y-15746000D01*
X62210000Y-15746000D01*
X62210000Y-15100000D01*
X62142000Y-15100000D01*
X62074961Y-15080315D01*
X62029206Y-15027511D01*
X62018000Y-14976000D01*
X62018000Y-14954000D01*
X59002000Y-14954000D01*
X59002000Y-14976000D01*
X58982315Y-15043039D01*
X58929511Y-15088794D01*
X58878000Y-15100000D01*
X58734000Y-15100000D01*
X58666961Y-15080315D01*
X58621206Y-15027511D01*
X58610000Y-14976000D01*
X58610000Y-14446000D01*
X59002000Y-14446000D01*
X60256000Y-14446000D01*
X60256000Y-13442000D01*
X60764000Y-13442000D01*
X60764000Y-14446000D01*
X62018000Y-14446000D01*
X62018000Y-13901420D01*
X62017999Y-13901418D01*
X62011493Y-13840902D01*
X61960446Y-13704038D01*
X61872903Y-13587096D01*
X61755961Y-13499554D01*
X61755961Y-13499553D01*
X61619097Y-13448506D01*
X61558581Y-13442000D01*
X60764000Y-13442000D01*
X60256000Y-13442000D01*
X59461418Y-13442000D01*
X59400902Y-13448506D01*
X59264038Y-13499553D01*
X59264038Y-13499554D01*
X59147096Y-13587096D01*
X59059554Y-13704038D01*
X59059553Y-13704038D01*
X59008506Y-13840902D01*
X59002000Y-13901418D01*
X59002000Y-14446000D01*
X58610000Y-14446000D01*
X58610000Y-12033885D01*
X58629685Y-11966846D01*
X58682489Y-11921091D01*
X58751647Y-11911147D01*
X58777334Y-11917704D01*
X58800897Y-11926492D01*
X58800900Y-11926493D01*
X58861418Y-11932999D01*
X58861420Y-11933000D01*
X59035000Y-11933000D01*
X59035000Y-11425000D01*
X59485000Y-11425000D01*
X59485000Y-11933000D01*
X59658580Y-11933000D01*
X59658581Y-11932999D01*
X59719097Y-11926493D01*
X59855961Y-11875446D01*
X59855961Y-11875445D01*
X59972903Y-11787903D01*
X60060445Y-11670961D01*
X60060446Y-11670961D01*
X60111493Y-11534097D01*
X60117999Y-11473581D01*
X60118000Y-11473580D01*
X60118000Y-11425000D01*
X59485000Y-11425000D01*
X59035000Y-11425000D01*
X59035000Y-11099000D01*
X59054685Y-11031961D01*
X59107489Y-10986206D01*
X59159000Y-10975000D01*
X60118000Y-10975000D01*
X60118000Y-10926420D01*
X60117999Y-10926418D01*
X60111493Y-10865900D01*
X60109710Y-10858351D01*
X60111357Y-10857961D01*
X60107045Y-10797638D01*
X60140531Y-10736316D01*
X60201856Y-10702833D01*
X60228210Y-10700000D01*
X64286000Y-10700000D01*
X64353039Y-10719685D01*
G37*
%TD.AperFunction*%
%TD*%
%TA.AperFunction,Conductor*%
%TO.N,+1V1*%
G36*
X19377150Y-57737074D02*
G01*
X19398824Y-57789400D01*
X19398824Y-60515400D01*
X19524824Y-60515400D01*
X19577150Y-60537074D01*
X19598824Y-60589400D01*
X19598824Y-60915400D01*
X19924824Y-60915400D01*
X19977150Y-60937074D01*
X19998824Y-60989400D01*
X19998824Y-61794804D01*
X19977150Y-61847130D01*
X19953145Y-61863170D01*
X19920889Y-61876532D01*
X19920887Y-61876533D01*
X19879380Y-61893726D01*
X19850170Y-61905825D01*
X19849873Y-61905110D01*
X19815951Y-61915400D01*
X19072824Y-61915400D01*
X19020498Y-61893726D01*
X18998824Y-61841400D01*
X18998824Y-58315400D01*
X18957936Y-58315400D01*
X18905610Y-58293726D01*
X18901970Y-58290086D01*
X18901970Y-58290085D01*
X18824115Y-58212230D01*
X18723394Y-58167757D01*
X18723390Y-58167756D01*
X18698768Y-58164900D01*
X15698832Y-58164900D01*
X15674209Y-58167756D01*
X15674205Y-58167757D01*
X15573484Y-58212230D01*
X15495630Y-58290084D01*
X15451157Y-58390805D01*
X15451156Y-58390809D01*
X15448300Y-58415432D01*
X15448300Y-60841400D01*
X15426626Y-60893726D01*
X15374300Y-60915400D01*
X14872824Y-60915400D01*
X14820498Y-60893726D01*
X14798824Y-60841400D01*
X14798824Y-60189400D01*
X14820498Y-60137074D01*
X14872824Y-60115400D01*
X14998824Y-60115400D01*
X14998824Y-59327776D01*
X15016898Y-59279317D01*
X15064082Y-59224863D01*
X15117897Y-59107026D01*
X15136333Y-58978800D01*
X15117897Y-58850574D01*
X15064082Y-58732737D01*
X15064080Y-58732735D01*
X15064080Y-58732734D01*
X15064079Y-58732732D01*
X15016898Y-58678282D01*
X14998824Y-58629823D01*
X14998824Y-57789400D01*
X15020498Y-57737074D01*
X15072824Y-57715400D01*
X19324824Y-57715400D01*
X19377150Y-57737074D01*
G37*
%TD.AperFunction*%
%TD*%
%TA.AperFunction,Conductor*%
%TO.N,+3V3*%
G36*
X19998824Y-59915400D02*
G01*
X19998824Y-60715400D01*
X19998824Y-60776695D01*
X19995514Y-60776369D01*
X19984335Y-60771738D01*
X19984325Y-60771735D01*
X19944478Y-60763809D01*
X19924824Y-60759900D01*
X19924822Y-60759900D01*
X19828324Y-60759900D01*
X19775998Y-60738226D01*
X19754324Y-60685900D01*
X19754324Y-60589400D01*
X19742437Y-60529639D01*
X19740074Y-60519010D01*
X19735497Y-60487176D01*
X19735497Y-60487174D01*
X19681682Y-60369337D01*
X19596849Y-60271433D01*
X19596846Y-60271431D01*
X19588315Y-60265948D01*
X19556015Y-60219424D01*
X19554324Y-60203696D01*
X19554324Y-57789401D01*
X19542488Y-57729898D01*
X19542487Y-57729897D01*
X19542487Y-57729893D01*
X19520813Y-57677567D01*
X19520807Y-57677556D01*
X19500518Y-57642413D01*
X19500516Y-57642411D01*
X19436659Y-57593412D01*
X19436655Y-57593410D01*
X19384335Y-57571738D01*
X19384325Y-57571735D01*
X19344478Y-57563809D01*
X19324824Y-57559900D01*
X15072824Y-57559900D01*
X15055955Y-57563255D01*
X15013322Y-57571735D01*
X15013312Y-57571738D01*
X14960997Y-57593408D01*
X14960980Y-57593416D01*
X14925837Y-57613705D01*
X14925835Y-57613707D01*
X14876836Y-57677564D01*
X14876834Y-57677568D01*
X14855162Y-57729888D01*
X14855159Y-57729898D01*
X14843324Y-57789401D01*
X14843324Y-58629817D01*
X14843325Y-58629833D01*
X14853126Y-58684157D01*
X14853127Y-58684160D01*
X14853128Y-58684164D01*
X14871202Y-58732623D01*
X14899379Y-58780113D01*
X14924954Y-58809628D01*
X14936339Y-58827343D01*
X14962741Y-58885155D01*
X14968675Y-58905365D01*
X14977719Y-58968269D01*
X14977719Y-58989331D01*
X14968675Y-59052233D01*
X14962741Y-59072443D01*
X14936341Y-59130250D01*
X14924955Y-59147967D01*
X14899380Y-59177483D01*
X14871201Y-59224977D01*
X14853126Y-59273441D01*
X14843325Y-59327765D01*
X14843324Y-59327781D01*
X14843324Y-59909862D01*
X14821650Y-59962188D01*
X14797644Y-59978228D01*
X14760991Y-59993411D01*
X14760988Y-59993412D01*
X14760987Y-59993413D01*
X14760980Y-59993416D01*
X14725837Y-60013705D01*
X14725835Y-60013707D01*
X14676836Y-60077564D01*
X14676834Y-60077568D01*
X14655162Y-60129888D01*
X14655159Y-60129898D01*
X14643324Y-60189401D01*
X14643324Y-60841398D01*
X14655159Y-60900901D01*
X14655162Y-60900911D01*
X14676832Y-60953226D01*
X14676840Y-60953243D01*
X14697129Y-60988386D01*
X14697131Y-60988388D01*
X14697132Y-60988389D01*
X14760991Y-61037389D01*
X14813317Y-61059063D01*
X14872824Y-61070900D01*
X14872826Y-61070900D01*
X15374300Y-61070900D01*
X15426626Y-61092574D01*
X15448300Y-61144900D01*
X15448300Y-61415367D01*
X15451156Y-61439990D01*
X15451157Y-61439994D01*
X15495630Y-61540715D01*
X15573485Y-61618570D01*
X15674206Y-61663043D01*
X15698832Y-61665900D01*
X18698768Y-61665900D01*
X18723394Y-61663043D01*
X18739433Y-61655960D01*
X18796054Y-61654651D01*
X18837018Y-61693763D01*
X18843324Y-61723655D01*
X18843324Y-61841398D01*
X18855159Y-61900901D01*
X18855162Y-61900911D01*
X18876832Y-61953226D01*
X18876840Y-61953243D01*
X18897129Y-61988386D01*
X18897131Y-61988388D01*
X18897132Y-61988389D01*
X18960991Y-62037389D01*
X19013317Y-62059063D01*
X19072824Y-62070900D01*
X19072826Y-62070900D01*
X19815950Y-62070900D01*
X19815951Y-62070900D01*
X19861090Y-62064204D01*
X19861092Y-62064203D01*
X19861094Y-62064203D01*
X19873633Y-62060399D01*
X19895012Y-62053914D01*
X19895011Y-62053913D01*
X19907880Y-62050010D01*
X19910226Y-62049340D01*
X19911664Y-62048954D01*
X19913365Y-62048346D01*
X19916788Y-62047307D01*
X19918340Y-62045900D01*
X19998824Y-62012561D01*
X19998824Y-62715400D01*
X14398824Y-62715400D01*
X14398824Y-57115400D01*
X19998824Y-57115400D01*
X19998824Y-59915400D01*
G37*
%TD.AperFunction*%
%TD*%
%TA.AperFunction,Conductor*%
%TO.N,GND*%
G36*
X10440945Y-49525402D02*
G01*
X10487438Y-49579058D01*
X10498824Y-49631400D01*
X10498824Y-56605401D01*
X12561919Y-58668495D01*
X12595944Y-58730807D01*
X12598824Y-58757590D01*
X12598824Y-58838900D01*
X12578822Y-58907021D01*
X12525166Y-58953514D01*
X12472824Y-58964900D01*
X12458372Y-58964900D01*
X12390251Y-58944898D01*
X12369277Y-58927995D01*
X10876218Y-57434935D01*
X10876208Y-57434927D01*
X10796292Y-57388787D01*
X10785759Y-57385964D01*
X10707144Y-57364900D01*
X10707142Y-57364900D01*
X9196172Y-57364900D01*
X9128051Y-57344898D01*
X9107077Y-57327995D01*
X8796204Y-57017122D01*
X8762178Y-56954810D01*
X8759299Y-56928027D01*
X8759299Y-56739667D01*
X8750929Y-56686818D01*
X8760029Y-56616407D01*
X8786283Y-56578013D01*
X8878519Y-56485777D01*
X8960830Y-56346597D01*
X9003305Y-56200400D01*
X7394295Y-56200400D01*
X7436769Y-56346597D01*
X7519080Y-56485777D01*
X7519083Y-56485781D01*
X7611316Y-56578014D01*
X7645342Y-56640326D01*
X7646670Y-56686819D01*
X7638300Y-56739666D01*
X7638300Y-56928026D01*
X7618298Y-56996147D01*
X7601396Y-57017121D01*
X7440023Y-57178495D01*
X7377711Y-57212520D01*
X7350927Y-57215400D01*
X5613672Y-57215400D01*
X5545551Y-57195398D01*
X5524577Y-57178495D01*
X4868077Y-56521995D01*
X4834051Y-56459683D01*
X4839116Y-56388868D01*
X4881663Y-56332032D01*
X4948183Y-56307221D01*
X4957172Y-56306900D01*
X5157474Y-56306900D01*
X5230540Y-56292366D01*
X5313401Y-56237001D01*
X5368766Y-56154140D01*
X5383300Y-56081074D01*
X5383300Y-55700399D01*
X7394294Y-55700399D01*
X7394295Y-55700400D01*
X7948800Y-55700400D01*
X7948800Y-55171609D01*
X7948799Y-55171608D01*
X8448800Y-55171608D01*
X8448800Y-55700400D01*
X9003305Y-55700400D01*
X9003305Y-55700399D01*
X8960830Y-55554202D01*
X8878519Y-55415022D01*
X8878516Y-55415018D01*
X8764181Y-55300683D01*
X8764177Y-55300680D01*
X8624997Y-55218369D01*
X8469712Y-55173254D01*
X8448800Y-55171608D01*
X7948799Y-55171608D01*
X7927888Y-55173254D01*
X7927887Y-55173254D01*
X7772602Y-55218369D01*
X7633422Y-55300680D01*
X7633418Y-55300683D01*
X7519083Y-55415018D01*
X7519080Y-55415022D01*
X7436769Y-55554202D01*
X7394294Y-55700399D01*
X5383300Y-55700399D01*
X5383300Y-50431726D01*
X5368766Y-50358660D01*
X5313401Y-50275799D01*
X5230540Y-50220434D01*
X5230539Y-50220433D01*
X5157477Y-50205900D01*
X5157474Y-50205900D01*
X3008126Y-50205900D01*
X3008122Y-50205900D01*
X2935060Y-50220433D01*
X2852199Y-50275799D01*
X2796833Y-50358660D01*
X2782300Y-50431722D01*
X2782300Y-56081077D01*
X2796833Y-56154139D01*
X2796834Y-56154140D01*
X2852199Y-56237001D01*
X2935060Y-56292366D01*
X3008126Y-56306900D01*
X3648343Y-56306900D01*
X3716464Y-56326902D01*
X3757462Y-56369899D01*
X3763237Y-56379901D01*
X3802330Y-56447612D01*
X3802332Y-56447614D01*
X3802335Y-56447618D01*
X5022022Y-57667305D01*
X5056048Y-57729617D01*
X5050983Y-57800432D01*
X5022022Y-57845495D01*
X3802335Y-59065181D01*
X3802329Y-59065189D01*
X3764560Y-59130609D01*
X3764558Y-59130612D01*
X3757462Y-59142902D01*
X3706078Y-59191895D01*
X3648344Y-59205900D01*
X3008122Y-59205900D01*
X2935060Y-59220433D01*
X2852199Y-59275799D01*
X2796833Y-59358660D01*
X2782300Y-59431722D01*
X2782300Y-65081077D01*
X2796833Y-65154139D01*
X2796834Y-65154140D01*
X2852199Y-65237001D01*
X2935060Y-65292366D01*
X3008126Y-65306900D01*
X5157474Y-65306900D01*
X5230540Y-65292366D01*
X5313401Y-65237001D01*
X5368766Y-65154140D01*
X5383300Y-65081074D01*
X5383300Y-60130400D01*
X7394295Y-60130400D01*
X7436769Y-60276597D01*
X7519080Y-60415777D01*
X7519083Y-60415781D01*
X7633418Y-60530116D01*
X7633422Y-60530119D01*
X7772602Y-60612430D01*
X7927883Y-60657544D01*
X7948799Y-60659190D01*
X7948800Y-60659190D01*
X7948800Y-60130400D01*
X7394295Y-60130400D01*
X5383300Y-60130400D01*
X5383300Y-59431726D01*
X5368766Y-59358660D01*
X5313401Y-59275799D01*
X5230540Y-59220434D01*
X5230539Y-59220433D01*
X5157477Y-59205900D01*
X5157474Y-59205900D01*
X4957172Y-59205900D01*
X4889051Y-59185898D01*
X4842558Y-59132242D01*
X4832454Y-59061968D01*
X4861948Y-58997388D01*
X4868077Y-58990805D01*
X5524577Y-58334305D01*
X5586889Y-58300279D01*
X5613672Y-58297400D01*
X7230428Y-58297400D01*
X7298549Y-58317402D01*
X7319523Y-58334305D01*
X7606108Y-58620890D01*
X7640134Y-58683202D01*
X7641463Y-58729689D01*
X7638300Y-58749666D01*
X7638300Y-59091133D01*
X7646670Y-59143982D01*
X7637569Y-59214393D01*
X7611317Y-59252785D01*
X7519080Y-59345022D01*
X7436769Y-59484202D01*
X7394294Y-59630399D01*
X7394295Y-59630400D01*
X8322800Y-59630400D01*
X8390921Y-59650402D01*
X8437414Y-59704058D01*
X8448800Y-59756400D01*
X8448800Y-60659189D01*
X8462942Y-60658077D01*
X8532422Y-60672675D01*
X8582980Y-60722519D01*
X8598824Y-60783689D01*
X8598824Y-62129139D01*
X8578822Y-62197260D01*
X8525166Y-62243753D01*
X8489272Y-62254061D01*
X8416290Y-62263670D01*
X8282375Y-62319137D01*
X8167378Y-62407378D01*
X8079137Y-62522375D01*
X8023670Y-62656290D01*
X8004750Y-62799999D01*
X8004750Y-62800000D01*
X8023670Y-62943709D01*
X8079137Y-63077624D01*
X8167378Y-63192621D01*
X8282375Y-63280862D01*
X8416290Y-63336330D01*
X8425475Y-63337539D01*
X8489271Y-63345938D01*
X8554196Y-63374659D01*
X8593289Y-63433923D01*
X8598824Y-63470859D01*
X8598824Y-65779400D01*
X8578822Y-65847521D01*
X8525166Y-65894014D01*
X8472824Y-65905400D01*
X1324824Y-65905400D01*
X1256703Y-65885398D01*
X1210210Y-65831742D01*
X1198824Y-65779400D01*
X1198824Y-49631400D01*
X1218826Y-49563279D01*
X1272482Y-49516786D01*
X1324824Y-49505400D01*
X10372824Y-49505400D01*
X10440945Y-49525402D01*
G37*
%TD.AperFunction*%
%TA.AperFunction,Conductor*%
G36*
X10127832Y-59030713D02*
G01*
X10172895Y-59059674D01*
X10231696Y-59118475D01*
X10231698Y-59118476D01*
X10347282Y-59174982D01*
X10422218Y-59185900D01*
X10422224Y-59185900D01*
X10765376Y-59185900D01*
X10765382Y-59185900D01*
X10840318Y-59174982D01*
X10840320Y-59174981D01*
X10908860Y-59141474D01*
X10978844Y-59129525D01*
X11044178Y-59157309D01*
X11053294Y-59165576D01*
X11408523Y-59520805D01*
X11442549Y-59583117D01*
X11437484Y-59653932D01*
X11394937Y-59710768D01*
X11328417Y-59735579D01*
X11319428Y-59735900D01*
X11023065Y-59735900D01*
X10970216Y-59744270D01*
X10899805Y-59735169D01*
X10861414Y-59708916D01*
X10769181Y-59616683D01*
X10769177Y-59616680D01*
X10629996Y-59534368D01*
X10483800Y-59491894D01*
X10483800Y-59905400D01*
X9983800Y-59905400D01*
X9983800Y-59491894D01*
X9837603Y-59534368D01*
X9698422Y-59616680D01*
X9698418Y-59616683D01*
X9584083Y-59731018D01*
X9584080Y-59731022D01*
X9517537Y-59843540D01*
X9465644Y-59891992D01*
X9409084Y-59905400D01*
X9134799Y-59905400D01*
X9066678Y-59885398D01*
X9020185Y-59831742D01*
X9008799Y-59779400D01*
X9008799Y-59675764D01*
X9005945Y-59639488D01*
X8960830Y-59484202D01*
X8874484Y-59338199D01*
X8876742Y-59336863D01*
X8855464Y-59282648D01*
X8869374Y-59213028D01*
X8894410Y-59183293D01*
X8892822Y-59181705D01*
X8942285Y-59132242D01*
X8994779Y-59079747D01*
X9057090Y-59045723D01*
X9127906Y-59050787D01*
X9172969Y-59079748D01*
X9211696Y-59118475D01*
X9211698Y-59118476D01*
X9327282Y-59174982D01*
X9402218Y-59185900D01*
X9402224Y-59185900D01*
X9745376Y-59185900D01*
X9745382Y-59185900D01*
X9820318Y-59174982D01*
X9935902Y-59118476D01*
X9963245Y-59091133D01*
X9994705Y-59059674D01*
X10057017Y-59025648D01*
X10127832Y-59030713D01*
G37*
%TD.AperFunction*%
%TD*%
%TA.AperFunction,Conductor*%
%TO.N,GND*%
G36*
X48512808Y-9901330D02*
G01*
X48579738Y-9921366D01*
X48599832Y-9937646D01*
X50912686Y-12250500D01*
X50984762Y-12292113D01*
X51026810Y-12316390D01*
X51026814Y-12316392D01*
X51154108Y-12350500D01*
X51154110Y-12350500D01*
X57325890Y-12350500D01*
X57325892Y-12350500D01*
X57453186Y-12316392D01*
X57495238Y-12292112D01*
X57557238Y-12275500D01*
X57629750Y-12275500D01*
X57629751Y-12275499D01*
X57644568Y-12272552D01*
X57688229Y-12263868D01*
X57688229Y-12263867D01*
X57688231Y-12263867D01*
X57754552Y-12219552D01*
X57798867Y-12153231D01*
X57798867Y-12153229D01*
X57798868Y-12153229D01*
X57810499Y-12094752D01*
X57810500Y-12094750D01*
X57810500Y-11605249D01*
X57810499Y-11605247D01*
X57798868Y-11546770D01*
X57798867Y-11546769D01*
X57754552Y-11480447D01*
X57688230Y-11436132D01*
X57688229Y-11436131D01*
X57629752Y-11424500D01*
X57629748Y-11424500D01*
X57557238Y-11424500D01*
X57495238Y-11407887D01*
X57453188Y-11383609D01*
X57453187Y-11383608D01*
X57453186Y-11383608D01*
X57325892Y-11349500D01*
X57325891Y-11349500D01*
X51478676Y-11349500D01*
X51411637Y-11329815D01*
X51390995Y-11313181D01*
X50200168Y-10122354D01*
X50166683Y-10061031D01*
X50171667Y-9991339D01*
X50213539Y-9935406D01*
X50279003Y-9910989D01*
X50288467Y-9910676D01*
X55891645Y-9940166D01*
X55958575Y-9960202D01*
X55978668Y-9976482D01*
X56673181Y-10670995D01*
X56706666Y-10732318D01*
X56709500Y-10758676D01*
X56709500Y-10794752D01*
X56721131Y-10853229D01*
X56721132Y-10853230D01*
X56765447Y-10919552D01*
X56831769Y-10963867D01*
X56831770Y-10963868D01*
X56890247Y-10975499D01*
X56890250Y-10975500D01*
X56890252Y-10975500D01*
X56962762Y-10975500D01*
X57024761Y-10992112D01*
X57066814Y-11016392D01*
X57194108Y-11050500D01*
X57194110Y-11050500D01*
X57325891Y-11050500D01*
X57325893Y-11050500D01*
X57453186Y-11016392D01*
X57495238Y-10992112D01*
X57557238Y-10975500D01*
X57629750Y-10975500D01*
X57629751Y-10975499D01*
X57644568Y-10972552D01*
X57688229Y-10963868D01*
X57688229Y-10963867D01*
X57688231Y-10963867D01*
X57754552Y-10919552D01*
X57798867Y-10853231D01*
X57798867Y-10853229D01*
X57798868Y-10853229D01*
X57810499Y-10794752D01*
X57810500Y-10794750D01*
X57810500Y-10305249D01*
X57810499Y-10305247D01*
X57798868Y-10246770D01*
X57798867Y-10246769D01*
X57754552Y-10180447D01*
X57750009Y-10177412D01*
X57705204Y-10123799D01*
X57696497Y-10054474D01*
X57726652Y-9991447D01*
X57786095Y-9954728D01*
X57819542Y-9950313D01*
X67006156Y-9998663D01*
X67073088Y-10018700D01*
X67118564Y-10071744D01*
X67129500Y-10122661D01*
X67129500Y-25777330D01*
X67109815Y-25844369D01*
X67057011Y-25890124D01*
X67006149Y-25901328D01*
X50970279Y-25985286D01*
X50903138Y-25965953D01*
X50857107Y-25913389D01*
X50846801Y-25844284D01*
X50875493Y-25780577D01*
X50881923Y-25773634D01*
X52598457Y-24057100D01*
X53232800Y-24057100D01*
X53232800Y-24100415D01*
X53243207Y-24202273D01*
X53297894Y-24367309D01*
X53297896Y-24367314D01*
X53389170Y-24515291D01*
X53512108Y-24638229D01*
X53660085Y-24729503D01*
X53660090Y-24729505D01*
X53825126Y-24784192D01*
X53926984Y-24794599D01*
X53926997Y-24794600D01*
X54182800Y-24794600D01*
X54182800Y-24057100D01*
X54682800Y-24057100D01*
X54682800Y-24794600D01*
X54938603Y-24794600D01*
X54938615Y-24794599D01*
X55040473Y-24784192D01*
X55205509Y-24729505D01*
X55205514Y-24729503D01*
X55353491Y-24638229D01*
X55476429Y-24515291D01*
X55567703Y-24367314D01*
X55567705Y-24367309D01*
X55622392Y-24202273D01*
X55632799Y-24100415D01*
X55632800Y-24100402D01*
X55632800Y-24062075D01*
X63951476Y-24062075D01*
X64075462Y-24128348D01*
X64263969Y-24185531D01*
X64263965Y-24185531D01*
X64460000Y-24204838D01*
X64656032Y-24185531D01*
X64844537Y-24128348D01*
X64968523Y-24062076D01*
X64968523Y-24062075D01*
X64460001Y-23553553D01*
X64460000Y-23553553D01*
X63951476Y-24062075D01*
X55632800Y-24062075D01*
X55632800Y-24057100D01*
X54682800Y-24057100D01*
X54182800Y-24057100D01*
X53232800Y-24057100D01*
X52598457Y-24057100D01*
X53077951Y-23577606D01*
X53139270Y-23544124D01*
X53208962Y-23549108D01*
X53221397Y-23557100D01*
X55632800Y-23557100D01*
X55632800Y-23513797D01*
X55632799Y-23513784D01*
X55622392Y-23411926D01*
X55567705Y-23246890D01*
X55567703Y-23246885D01*
X55538784Y-23200000D01*
X63455161Y-23200000D01*
X63474468Y-23396032D01*
X63531651Y-23584537D01*
X63597923Y-23708522D01*
X64056719Y-23249728D01*
X64210000Y-23249728D01*
X64248060Y-23341614D01*
X64318386Y-23411940D01*
X64410272Y-23450000D01*
X64509728Y-23450000D01*
X64601614Y-23411940D01*
X64671940Y-23341614D01*
X64710000Y-23249728D01*
X64710000Y-23200000D01*
X64813553Y-23200000D01*
X65322075Y-23708523D01*
X65322076Y-23708523D01*
X65388348Y-23584537D01*
X65445531Y-23396032D01*
X65464838Y-23200000D01*
X65445531Y-23003967D01*
X65388348Y-22815462D01*
X65322075Y-22691476D01*
X64813553Y-23199999D01*
X64813553Y-23200000D01*
X64710000Y-23200000D01*
X64710000Y-23150272D01*
X64671940Y-23058386D01*
X64601614Y-22988060D01*
X64509728Y-22950000D01*
X64410272Y-22950000D01*
X64318386Y-22988060D01*
X64248060Y-23058386D01*
X64210000Y-23150272D01*
X64210000Y-23249728D01*
X64056719Y-23249728D01*
X64106447Y-23200000D01*
X63597923Y-22691476D01*
X63531649Y-22815466D01*
X63474468Y-23003967D01*
X63455161Y-23200000D01*
X55538784Y-23200000D01*
X55476429Y-23098908D01*
X55353491Y-22975970D01*
X55205514Y-22884696D01*
X55205509Y-22884694D01*
X55038932Y-22829496D01*
X54981487Y-22789723D01*
X54954664Y-22725207D01*
X54966979Y-22656432D01*
X55014522Y-22605232D01*
X55036976Y-22594750D01*
X55098979Y-22573055D01*
X55206730Y-22493530D01*
X55286255Y-22385779D01*
X55303001Y-22337923D01*
X63951476Y-22337923D01*
X64460000Y-22846447D01*
X64460001Y-22846447D01*
X64968522Y-22337923D01*
X64844537Y-22271651D01*
X64656030Y-22214468D01*
X64656034Y-22214468D01*
X64460000Y-22195161D01*
X64263967Y-22214468D01*
X64075466Y-22271649D01*
X63951476Y-22337923D01*
X55303001Y-22337923D01*
X55330486Y-22259374D01*
X55333300Y-22229364D01*
X55333300Y-21634836D01*
X55330486Y-21604826D01*
X55330484Y-21604822D01*
X55330484Y-21604818D01*
X55286255Y-21478421D01*
X55286254Y-21478419D01*
X55206730Y-21370669D01*
X55098980Y-21291145D01*
X55098978Y-21291144D01*
X54993545Y-21254251D01*
X54936769Y-21213529D01*
X54911022Y-21148576D01*
X54910500Y-21137210D01*
X54910500Y-19550000D01*
X59010000Y-19550000D01*
X59010000Y-20097844D01*
X59016401Y-20157372D01*
X59016403Y-20157379D01*
X59066645Y-20292086D01*
X59066649Y-20292093D01*
X59152809Y-20407187D01*
X59152812Y-20407190D01*
X59267906Y-20493350D01*
X59267913Y-20493354D01*
X59402620Y-20543596D01*
X59402627Y-20543598D01*
X59462155Y-20549999D01*
X59462172Y-20550000D01*
X60260000Y-20550000D01*
X60260000Y-19550000D01*
X60760000Y-19550000D01*
X60760000Y-20550000D01*
X61557828Y-20550000D01*
X61557844Y-20549999D01*
X61617372Y-20543598D01*
X61617379Y-20543596D01*
X61752086Y-20493354D01*
X61752093Y-20493350D01*
X61867187Y-20407190D01*
X61867190Y-20407187D01*
X61953350Y-20292093D01*
X61953354Y-20292086D01*
X62003596Y-20157379D01*
X62003598Y-20157372D01*
X62009999Y-20097844D01*
X62010000Y-20097827D01*
X62010000Y-19550000D01*
X60760000Y-19550000D01*
X60260000Y-19550000D01*
X59010000Y-19550000D01*
X54910500Y-19550000D01*
X54910500Y-19224500D01*
X54930185Y-19157461D01*
X54982989Y-19111706D01*
X55034500Y-19100500D01*
X55229750Y-19100500D01*
X55229751Y-19100499D01*
X55244568Y-19097552D01*
X55288229Y-19088868D01*
X55288229Y-19088867D01*
X55288231Y-19088867D01*
X55354552Y-19044552D01*
X55398867Y-18978231D01*
X55398867Y-18978229D01*
X55398868Y-18978229D01*
X55410499Y-18919752D01*
X55410500Y-18919750D01*
X55410500Y-17824500D01*
X55430185Y-17757461D01*
X55482989Y-17711706D01*
X55534500Y-17700500D01*
X59193961Y-17700500D01*
X59261000Y-17720185D01*
X59306755Y-17772989D01*
X59315578Y-17800308D01*
X59321132Y-17828229D01*
X59321132Y-17828230D01*
X59372233Y-17904707D01*
X59368511Y-17907193D01*
X59390478Y-17947421D01*
X59385494Y-18017113D01*
X59343622Y-18073046D01*
X59312647Y-18089960D01*
X59267916Y-18106644D01*
X59267906Y-18106649D01*
X59152812Y-18192809D01*
X59152809Y-18192812D01*
X59066649Y-18307906D01*
X59066645Y-18307913D01*
X59016403Y-18442620D01*
X59016401Y-18442627D01*
X59010000Y-18502155D01*
X59010000Y-19050000D01*
X62010000Y-19050000D01*
X62010000Y-18502172D01*
X62009999Y-18502155D01*
X62003598Y-18442627D01*
X62003596Y-18442620D01*
X61953354Y-18307913D01*
X61953350Y-18307906D01*
X61867190Y-18192812D01*
X61867187Y-18192809D01*
X61776607Y-18125000D01*
X62510000Y-18125000D01*
X62510000Y-18168315D01*
X62520407Y-18270173D01*
X62575094Y-18435209D01*
X62575096Y-18435214D01*
X62666370Y-18583191D01*
X62789308Y-18706129D01*
X62937285Y-18797403D01*
X62937290Y-18797405D01*
X63102326Y-18852092D01*
X63204184Y-18862499D01*
X63204197Y-18862500D01*
X63460000Y-18862500D01*
X63460000Y-18125000D01*
X63960000Y-18125000D01*
X63960000Y-18862500D01*
X64215803Y-18862500D01*
X64215815Y-18862499D01*
X64317673Y-18852092D01*
X64482709Y-18797405D01*
X64482714Y-18797403D01*
X64630691Y-18706129D01*
X64753629Y-18583191D01*
X64844903Y-18435214D01*
X64844905Y-18435209D01*
X64899592Y-18270173D01*
X64909999Y-18168315D01*
X64910000Y-18168302D01*
X64910000Y-18125000D01*
X63960000Y-18125000D01*
X63460000Y-18125000D01*
X62510000Y-18125000D01*
X61776607Y-18125000D01*
X61752093Y-18106649D01*
X61752087Y-18106646D01*
X61707353Y-18089961D01*
X61651420Y-18048089D01*
X61627003Y-17982625D01*
X61641855Y-17914352D01*
X61648652Y-17905298D01*
X61647767Y-17904707D01*
X61668735Y-17873324D01*
X61698867Y-17828231D01*
X61698867Y-17828229D01*
X61698868Y-17828229D01*
X61709855Y-17772989D01*
X61710500Y-17769748D01*
X61710500Y-16230252D01*
X61710500Y-16230249D01*
X61710499Y-16230247D01*
X61698868Y-16171770D01*
X61698867Y-16171769D01*
X61654552Y-16105447D01*
X61588230Y-16061132D01*
X61588229Y-16061131D01*
X61529752Y-16049500D01*
X61529748Y-16049500D01*
X59490252Y-16049500D01*
X59490247Y-16049500D01*
X59431770Y-16061131D01*
X59431769Y-16061132D01*
X59365447Y-16105447D01*
X59321132Y-16171769D01*
X59321132Y-16171770D01*
X59315578Y-16199692D01*
X59283193Y-16261603D01*
X59222477Y-16296177D01*
X59193961Y-16299500D01*
X55534500Y-16299500D01*
X55467461Y-16279815D01*
X55421706Y-16227011D01*
X55410500Y-16175500D01*
X55410500Y-15080249D01*
X55410499Y-15080247D01*
X55398868Y-15021770D01*
X55398867Y-15021769D01*
X55368290Y-14976007D01*
X58404500Y-14976007D01*
X58409197Y-15019686D01*
X58420397Y-15071174D01*
X58422342Y-15079133D01*
X58422890Y-15081373D01*
X58464522Y-15159500D01*
X58465899Y-15162083D01*
X58465901Y-15162086D01*
X58511660Y-15214895D01*
X58515072Y-15218377D01*
X58529246Y-15232843D01*
X58529247Y-15232844D01*
X58529249Y-15232845D01*
X58609059Y-15277488D01*
X58609063Y-15277490D01*
X58676102Y-15297175D01*
X58734000Y-15305500D01*
X58734004Y-15305500D01*
X58877991Y-15305500D01*
X58878000Y-15305500D01*
X58921684Y-15300803D01*
X58950875Y-15294452D01*
X58973174Y-15289602D01*
X58973190Y-15289598D01*
X58973195Y-15289597D01*
X58983373Y-15287110D01*
X59064085Y-15244100D01*
X59104298Y-15209254D01*
X59167852Y-15180230D01*
X59237010Y-15190173D01*
X59289815Y-15235928D01*
X59309500Y-15302967D01*
X59309500Y-15469752D01*
X59321131Y-15528229D01*
X59321132Y-15528230D01*
X59365447Y-15594552D01*
X59431769Y-15638867D01*
X59431770Y-15638868D01*
X59490247Y-15650499D01*
X59490250Y-15650500D01*
X59490252Y-15650500D01*
X61529750Y-15650500D01*
X61529751Y-15650499D01*
X61544568Y-15647552D01*
X61588229Y-15638868D01*
X61588229Y-15638867D01*
X61588231Y-15638867D01*
X61654552Y-15594552D01*
X61698867Y-15528231D01*
X61698867Y-15528229D01*
X61698868Y-15528229D01*
X61710499Y-15469752D01*
X61710500Y-15469750D01*
X61710500Y-15305157D01*
X61730185Y-15238118D01*
X61782989Y-15192363D01*
X61852147Y-15182419D01*
X61915703Y-15211444D01*
X61923066Y-15218370D01*
X61936716Y-15232302D01*
X61937245Y-15232842D01*
X61937249Y-15232845D01*
X61941032Y-15234961D01*
X61944067Y-15238058D01*
X61944294Y-15238232D01*
X61944269Y-15238264D01*
X61989932Y-15284866D01*
X62004500Y-15343182D01*
X62004500Y-16876007D01*
X62009197Y-16919686D01*
X62020397Y-16971174D01*
X62022890Y-16981372D01*
X62022891Y-16981375D01*
X62065899Y-17062083D01*
X62065901Y-17062086D01*
X62111660Y-17114895D01*
X62129242Y-17132839D01*
X62129246Y-17132843D01*
X62129247Y-17132844D01*
X62129249Y-17132845D01*
X62209059Y-17177488D01*
X62209063Y-17177490D01*
X62276102Y-17197175D01*
X62334000Y-17205500D01*
X62334004Y-17205500D01*
X62439590Y-17205500D01*
X62506629Y-17225185D01*
X62552384Y-17277989D01*
X62562328Y-17347147D01*
X62557296Y-17368504D01*
X62520407Y-17479826D01*
X62510000Y-17581684D01*
X62510000Y-17625000D01*
X64910000Y-17625000D01*
X64910000Y-17581697D01*
X64909999Y-17581684D01*
X64899592Y-17479826D01*
X64862704Y-17368504D01*
X64860302Y-17298676D01*
X64896034Y-17238634D01*
X64958554Y-17207441D01*
X64980410Y-17205500D01*
X65085991Y-17205500D01*
X65086000Y-17205500D01*
X65129684Y-17200803D01*
X65169106Y-17192227D01*
X65181174Y-17189602D01*
X65181190Y-17189598D01*
X65181195Y-17189597D01*
X65191373Y-17187110D01*
X65272085Y-17144100D01*
X65324889Y-17098345D01*
X65342843Y-17080754D01*
X65387490Y-17000937D01*
X65407175Y-16933898D01*
X65415500Y-16876000D01*
X65415500Y-13424000D01*
X65410803Y-13380316D01*
X65406897Y-13362364D01*
X65399602Y-13328825D01*
X65399348Y-13327789D01*
X65397110Y-13318627D01*
X65354100Y-13237915D01*
X65308345Y-13185111D01*
X65308339Y-13185104D01*
X65290757Y-13167160D01*
X65290756Y-13167159D01*
X65290754Y-13167157D01*
X65290752Y-13167156D01*
X65290750Y-13167154D01*
X65210940Y-13122511D01*
X65210935Y-13122509D01*
X65143903Y-13102826D01*
X65143899Y-13102825D01*
X65143898Y-13102825D01*
X65086000Y-13094500D01*
X65085996Y-13094500D01*
X64739500Y-13094500D01*
X64672461Y-13074815D01*
X64626706Y-13022011D01*
X64615500Y-12970500D01*
X64615500Y-10824008D01*
X64615499Y-10823992D01*
X64612355Y-10794752D01*
X64610803Y-10780316D01*
X64604317Y-10750502D01*
X64599602Y-10728825D01*
X64597910Y-10721903D01*
X64597110Y-10718627D01*
X64554100Y-10637915D01*
X64508345Y-10585111D01*
X64508339Y-10585104D01*
X64490757Y-10567160D01*
X64490756Y-10567159D01*
X64490754Y-10567157D01*
X64490752Y-10567156D01*
X64490750Y-10567154D01*
X64410940Y-10522511D01*
X64410935Y-10522509D01*
X64343903Y-10502826D01*
X64343899Y-10502825D01*
X64343898Y-10502825D01*
X64286000Y-10494500D01*
X60228210Y-10494500D01*
X60217065Y-10495097D01*
X60206254Y-10495676D01*
X60206244Y-10495677D01*
X60179892Y-10498509D01*
X60103374Y-10522466D01*
X60042071Y-10555938D01*
X60042027Y-10555964D01*
X60020766Y-10569321D01*
X59960167Y-10637830D01*
X59960164Y-10637834D01*
X59926682Y-10699150D01*
X59925821Y-10700850D01*
X59925097Y-10700483D01*
X59880844Y-10750502D01*
X59814885Y-10769500D01*
X59158992Y-10769500D01*
X59119111Y-10773789D01*
X59105855Y-10774500D01*
X58890247Y-10774500D01*
X58831770Y-10786131D01*
X58831769Y-10786132D01*
X58765447Y-10830447D01*
X58721132Y-10896769D01*
X58721131Y-10896770D01*
X58709500Y-10955247D01*
X58709500Y-11444752D01*
X58721131Y-11503229D01*
X58721132Y-11503230D01*
X58736590Y-11526364D01*
X58757468Y-11593041D01*
X58738984Y-11660421D01*
X58687005Y-11707112D01*
X58654900Y-11717392D01*
X58653263Y-11717678D01*
X58628627Y-11722775D01*
X58628626Y-11722775D01*
X58547916Y-11765784D01*
X58547913Y-11765786D01*
X58495104Y-11811545D01*
X58477160Y-11829127D01*
X58477154Y-11829134D01*
X58432511Y-11908944D01*
X58432509Y-11908949D01*
X58412826Y-11975981D01*
X58404500Y-12033888D01*
X58404500Y-14976007D01*
X55368290Y-14976007D01*
X55354552Y-14955447D01*
X55288230Y-14911132D01*
X55288229Y-14911131D01*
X55229752Y-14899500D01*
X55229748Y-14899500D01*
X53190252Y-14899500D01*
X53190247Y-14899500D01*
X53131770Y-14911131D01*
X53131769Y-14911132D01*
X53065447Y-14955447D01*
X53021132Y-15021769D01*
X53021131Y-15021770D01*
X53009500Y-15080247D01*
X53009500Y-16263000D01*
X52989815Y-16330039D01*
X52937011Y-16375794D01*
X52885500Y-16387000D01*
X51141005Y-16387000D01*
X51090146Y-16397117D01*
X51065954Y-16399500D01*
X50700232Y-16399500D01*
X50670230Y-16402313D01*
X50670218Y-16402315D01*
X50543821Y-16446544D01*
X50543819Y-16446545D01*
X50436069Y-16526069D01*
X50356545Y-16633819D01*
X50356544Y-16633821D01*
X50312315Y-16760218D01*
X50312313Y-16760230D01*
X50309500Y-16790231D01*
X50309500Y-17384768D01*
X50312313Y-17414769D01*
X50312315Y-17414781D01*
X50356544Y-17541178D01*
X50356545Y-17541180D01*
X50436069Y-17648930D01*
X50543819Y-17728454D01*
X50543821Y-17728455D01*
X50605818Y-17750149D01*
X50662594Y-17790870D01*
X50688341Y-17855823D01*
X50674885Y-17924385D01*
X50626497Y-17974787D01*
X50603867Y-17984896D01*
X50437290Y-18040094D01*
X50437285Y-18040096D01*
X50289308Y-18131370D01*
X50166370Y-18254308D01*
X50075096Y-18402285D01*
X50075094Y-18402290D01*
X50020407Y-18567326D01*
X50010000Y-18669184D01*
X50010000Y-18712500D01*
X52410000Y-18712500D01*
X52410000Y-18669197D01*
X52409999Y-18669184D01*
X52399592Y-18567326D01*
X52344905Y-18402290D01*
X52344903Y-18402285D01*
X52253629Y-18254308D01*
X52130691Y-18131370D01*
X51982714Y-18040096D01*
X51982709Y-18040094D01*
X51951359Y-18029706D01*
X51893914Y-17989933D01*
X51867091Y-17925417D01*
X51879406Y-17856641D01*
X51926949Y-17805442D01*
X51990363Y-17788000D01*
X52885500Y-17788000D01*
X52952539Y-17807685D01*
X52998294Y-17860489D01*
X53009500Y-17912000D01*
X53009500Y-18919752D01*
X53021131Y-18978229D01*
X53021132Y-18978230D01*
X53065447Y-19044552D01*
X53131769Y-19088867D01*
X53131770Y-19088868D01*
X53190247Y-19100499D01*
X53190250Y-19100500D01*
X53190252Y-19100500D01*
X53385500Y-19100500D01*
X53452539Y-19120185D01*
X53498294Y-19172989D01*
X53509500Y-19224500D01*
X53509500Y-21183524D01*
X53489815Y-21250563D01*
X53437011Y-21296318D01*
X53432954Y-21298085D01*
X53400989Y-21311325D01*
X53400983Y-21311328D01*
X53286257Y-21387985D01*
X48915887Y-25758355D01*
X48839222Y-25873094D01*
X48819545Y-25920598D01*
X48775704Y-25975001D01*
X48709409Y-25997065D01*
X48705634Y-25997142D01*
X48285426Y-25999343D01*
X48218285Y-25980010D01*
X48172254Y-25927447D01*
X48160779Y-25874575D01*
X48179587Y-22846447D01*
X48202158Y-19212500D01*
X50010000Y-19212500D01*
X50010000Y-19255815D01*
X50020407Y-19357673D01*
X50075094Y-19522709D01*
X50075096Y-19522714D01*
X50166370Y-19670691D01*
X50289308Y-19793629D01*
X50437285Y-19884903D01*
X50437290Y-19884905D01*
X50602326Y-19939592D01*
X50704184Y-19949999D01*
X50704197Y-19950000D01*
X50960000Y-19950000D01*
X50960000Y-19212500D01*
X51460000Y-19212500D01*
X51460000Y-19950000D01*
X51715803Y-19950000D01*
X51715815Y-19949999D01*
X51817673Y-19939592D01*
X51982709Y-19884905D01*
X51982714Y-19884903D01*
X52130691Y-19793629D01*
X52253629Y-19670691D01*
X52344903Y-19522714D01*
X52344905Y-19522709D01*
X52399592Y-19357673D01*
X52409999Y-19255815D01*
X52410000Y-19255802D01*
X52410000Y-19212500D01*
X51460000Y-19212500D01*
X50960000Y-19212500D01*
X50010000Y-19212500D01*
X48202158Y-19212500D01*
X48259230Y-10023877D01*
X48279331Y-9956963D01*
X48332418Y-9911537D01*
X48383875Y-9900651D01*
X48512808Y-9901330D01*
G37*
%TD.AperFunction*%
%TD*%
%TA.AperFunction,Conductor*%
%TO.N,+3V3*%
G36*
X67088584Y-33330428D02*
G01*
X67124614Y-33379880D01*
X67129500Y-33410598D01*
X67129500Y-57307326D01*
X67110593Y-57365517D01*
X67061093Y-57401481D01*
X66999907Y-57401481D01*
X66950407Y-57365517D01*
X66939036Y-57345212D01*
X66892034Y-57231741D01*
X66879480Y-57212953D01*
X66821392Y-57126018D01*
X66731482Y-57036108D01*
X66656347Y-56985904D01*
X66625758Y-56965465D01*
X66508288Y-56916807D01*
X66508282Y-56916805D01*
X66383578Y-56892000D01*
X66383576Y-56892000D01*
X65596424Y-56892000D01*
X65596421Y-56892000D01*
X65471717Y-56916805D01*
X65471711Y-56916807D01*
X65354241Y-56965465D01*
X65248518Y-57036108D01*
X65248514Y-57036111D01*
X65158611Y-57126014D01*
X65158608Y-57126018D01*
X65087965Y-57231741D01*
X65039307Y-57349211D01*
X65039305Y-57349217D01*
X65014500Y-57473921D01*
X65014500Y-58262274D01*
X64995593Y-58320465D01*
X64984596Y-58331770D01*
X64985278Y-58332452D01*
X64980691Y-58337038D01*
X64980689Y-58337040D01*
X64950069Y-58367660D01*
X64924738Y-58392991D01*
X64885180Y-58461507D01*
X64885178Y-58461511D01*
X64864700Y-58537935D01*
X64864700Y-60114564D01*
X64885178Y-60190988D01*
X64885180Y-60190992D01*
X64924738Y-60259508D01*
X64924740Y-60259511D01*
X64980689Y-60315460D01*
X64980691Y-60315461D01*
X64985278Y-60320048D01*
X64983033Y-60322292D01*
X65010390Y-60361997D01*
X65014500Y-60390225D01*
X65014500Y-60807246D01*
X65014501Y-60807258D01*
X65026132Y-60865727D01*
X65026134Y-60865733D01*
X65068566Y-60929236D01*
X65070448Y-60932052D01*
X65070451Y-60932054D01*
X65105068Y-60955185D01*
X65142947Y-61003236D01*
X65145349Y-61064374D01*
X65111355Y-61115247D01*
X65105068Y-61119815D01*
X65070451Y-61142945D01*
X65070445Y-61142951D01*
X65026134Y-61209266D01*
X65026132Y-61209272D01*
X65014501Y-61267741D01*
X65014500Y-61267753D01*
X65014500Y-61684774D01*
X64995593Y-61742965D01*
X64984596Y-61754270D01*
X64985278Y-61754952D01*
X64980691Y-61759538D01*
X64980689Y-61759540D01*
X64950157Y-61790072D01*
X64924738Y-61815491D01*
X64885180Y-61884007D01*
X64885178Y-61884011D01*
X64864700Y-61960435D01*
X64864700Y-63537064D01*
X64885178Y-63613488D01*
X64885180Y-63613492D01*
X64924738Y-63682008D01*
X64924740Y-63682011D01*
X64980689Y-63737960D01*
X64980691Y-63737961D01*
X64985278Y-63742548D01*
X64983033Y-63744792D01*
X65010390Y-63784497D01*
X65014500Y-63812725D01*
X65014500Y-64601078D01*
X65039305Y-64725782D01*
X65039307Y-64725788D01*
X65087965Y-64843258D01*
X65087966Y-64843259D01*
X65158608Y-64948982D01*
X65248518Y-65038892D01*
X65354241Y-65109534D01*
X65471715Y-65158194D01*
X65596424Y-65183000D01*
X65596425Y-65183000D01*
X66383575Y-65183000D01*
X66383576Y-65183000D01*
X66508285Y-65158194D01*
X66625759Y-65109534D01*
X66731482Y-65038892D01*
X66821392Y-64948982D01*
X66892034Y-64843259D01*
X66939036Y-64729786D01*
X66978773Y-64683262D01*
X67038268Y-64668978D01*
X67094796Y-64692393D01*
X67126765Y-64744562D01*
X67129500Y-64767673D01*
X67129500Y-70984100D01*
X67110593Y-71042291D01*
X67061093Y-71078255D01*
X67030500Y-71083100D01*
X399500Y-71083100D01*
X341309Y-71064193D01*
X305345Y-71014693D01*
X300500Y-70984100D01*
X300500Y-68800002D01*
X9354353Y-68800002D01*
X9374834Y-68942456D01*
X9378280Y-68950001D01*
X9434623Y-69073373D01*
X9516890Y-69168315D01*
X9528873Y-69182144D01*
X9635491Y-69250663D01*
X9649947Y-69259953D01*
X9734021Y-69284639D01*
X9788035Y-69300499D01*
X9788036Y-69300499D01*
X9788039Y-69300500D01*
X9788041Y-69300500D01*
X9931959Y-69300500D01*
X9931961Y-69300500D01*
X10070053Y-69259953D01*
X10191128Y-69182143D01*
X10232264Y-69134668D01*
X10284660Y-69103073D01*
X10307083Y-69100500D01*
X10377083Y-69100500D01*
X10435274Y-69119407D01*
X10466806Y-69157659D01*
X10471776Y-69168316D01*
X10556684Y-69253224D01*
X10665513Y-69303972D01*
X10715099Y-69310500D01*
X11074900Y-69310499D01*
X11124487Y-69303972D01*
X11124488Y-69303972D01*
X11212321Y-69263014D01*
X11233316Y-69253224D01*
X11234737Y-69251802D01*
X11236972Y-69250663D01*
X11240411Y-69248256D01*
X11240749Y-69248739D01*
X11289250Y-69224023D01*
X11349682Y-69233590D01*
X11384398Y-69263014D01*
X11400358Y-69284639D01*
X11400360Y-69284641D01*
X11507079Y-69363405D01*
X11632272Y-69407212D01*
X11661999Y-69409999D01*
X11705000Y-69409998D01*
X12005000Y-69409998D01*
X12005001Y-69409999D01*
X12048004Y-69409999D01*
X12077721Y-69407213D01*
X12077726Y-69407212D01*
X12202920Y-69363405D01*
X12309639Y-69284641D01*
X12309641Y-69284639D01*
X12388405Y-69177920D01*
X12432212Y-69052727D01*
X12435000Y-69023000D01*
X12435000Y-68950001D01*
X12434999Y-68950000D01*
X12005001Y-68950000D01*
X12005000Y-68950001D01*
X12005000Y-69409998D01*
X11705000Y-69409998D01*
X11705000Y-68749000D01*
X11723907Y-68690809D01*
X11773407Y-68654845D01*
X11804000Y-68650000D01*
X12434998Y-68650000D01*
X12434999Y-68649999D01*
X12434999Y-68576996D01*
X12432213Y-68547278D01*
X12432212Y-68547273D01*
X12388405Y-68422079D01*
X12309641Y-68315360D01*
X12309639Y-68315358D01*
X12202922Y-68236595D01*
X12079603Y-68193445D01*
X12030922Y-68156379D01*
X12013325Y-68097779D01*
X12033533Y-68040027D01*
X12079603Y-68006555D01*
X12202922Y-67963404D01*
X12309639Y-67884641D01*
X12309641Y-67884639D01*
X12388405Y-67777920D01*
X12432212Y-67652727D01*
X12435000Y-67623000D01*
X12435000Y-67550001D01*
X12434999Y-67550000D01*
X11804000Y-67550000D01*
X11745809Y-67531093D01*
X11709845Y-67481593D01*
X11705000Y-67451000D01*
X11705000Y-67249999D01*
X12005000Y-67249999D01*
X12005001Y-67250000D01*
X12434998Y-67250000D01*
X12434999Y-67249999D01*
X12434999Y-67176996D01*
X12432213Y-67147278D01*
X12432212Y-67147273D01*
X12388405Y-67022079D01*
X12309641Y-66915360D01*
X12309639Y-66915358D01*
X12202920Y-66836594D01*
X12077727Y-66792787D01*
X12048000Y-66790000D01*
X12005001Y-66790000D01*
X12005000Y-66790001D01*
X12005000Y-67249999D01*
X11705000Y-67249999D01*
X11705000Y-66789999D01*
X11661997Y-66790000D01*
X11632278Y-66792786D01*
X11632273Y-66792787D01*
X11507079Y-66836594D01*
X11400360Y-66915358D01*
X11400356Y-66915362D01*
X11384397Y-66936986D01*
X11334628Y-66972577D01*
X11273445Y-66972118D01*
X11240430Y-66951716D01*
X11240411Y-66951744D01*
X11239936Y-66951411D01*
X11234741Y-66948201D01*
X11233316Y-66946776D01*
X11233314Y-66946775D01*
X11233313Y-66946774D01*
X11124489Y-66896029D01*
X11124488Y-66896028D01*
X11107958Y-66893852D01*
X11074901Y-66889500D01*
X11074899Y-66889500D01*
X10715104Y-66889500D01*
X10715092Y-66889501D01*
X10665513Y-66896027D01*
X10665511Y-66896027D01*
X10556686Y-66946774D01*
X10471774Y-67031686D01*
X10455149Y-67067340D01*
X10413421Y-67112088D01*
X10365425Y-67124500D01*
X10205199Y-67124500D01*
X10133599Y-67154158D01*
X10103943Y-67166442D01*
X10103937Y-67166446D01*
X9999879Y-67270504D01*
X9945363Y-67298281D01*
X9929876Y-67299500D01*
X9788035Y-67299500D01*
X9649949Y-67340046D01*
X9649942Y-67340049D01*
X9528873Y-67417855D01*
X9434622Y-67526628D01*
X9374834Y-67657543D01*
X9354353Y-67799997D01*
X9354353Y-67800002D01*
X9374834Y-67942456D01*
X9434622Y-68073371D01*
X9434623Y-68073373D01*
X9528872Y-68182143D01*
X9582669Y-68216716D01*
X9621400Y-68264082D01*
X9624893Y-68325168D01*
X9591813Y-68376640D01*
X9582669Y-68383284D01*
X9528872Y-68417857D01*
X9434622Y-68526628D01*
X9374834Y-68657543D01*
X9354353Y-68799997D01*
X9354353Y-68800002D01*
X300500Y-68800002D01*
X300500Y-37294791D01*
X1485001Y-37294791D01*
X1487909Y-37319874D01*
X1533213Y-37422477D01*
X1612522Y-37501786D01*
X1715127Y-37547090D01*
X1740203Y-37549999D01*
X1959998Y-37549999D01*
X1960000Y-37549998D01*
X2260000Y-37549998D01*
X2260001Y-37549999D01*
X2479790Y-37549999D01*
X2479791Y-37549998D01*
X2504874Y-37547090D01*
X2607477Y-37501786D01*
X2686786Y-37422477D01*
X2732090Y-37319872D01*
X2734999Y-37294797D01*
X2735000Y-37294795D01*
X2735000Y-37200001D01*
X2734999Y-37200000D01*
X2260001Y-37200000D01*
X2260000Y-37200001D01*
X2260000Y-37549998D01*
X1960000Y-37549998D01*
X1960000Y-37200001D01*
X1959999Y-37200000D01*
X1485002Y-37200000D01*
X1485001Y-37200001D01*
X1485001Y-37294791D01*
X300500Y-37294791D01*
X300500Y-36899999D01*
X1485000Y-36899999D01*
X1485001Y-36900000D01*
X2734998Y-36900000D01*
X2734999Y-36899999D01*
X2734999Y-36805210D01*
X2734998Y-36805208D01*
X2732090Y-36780125D01*
X2686785Y-36677520D01*
X2686786Y-36677520D01*
X2664495Y-36655229D01*
X2636719Y-36600712D01*
X2635500Y-36585227D01*
X2635500Y-36180253D01*
X2635500Y-36180252D01*
X2623867Y-36121769D01*
X2623864Y-36121765D01*
X2620187Y-36112887D01*
X2615386Y-36051890D01*
X2620187Y-36037113D01*
X2623863Y-36028236D01*
X2623867Y-36028231D01*
X2635500Y-35969748D01*
X2635500Y-35530252D01*
X2635385Y-35529676D01*
X2630517Y-35505202D01*
X2623867Y-35471769D01*
X2579552Y-35405448D01*
X2574585Y-35402129D01*
X2513233Y-35361134D01*
X2513231Y-35361133D01*
X2513228Y-35361132D01*
X2513227Y-35361132D01*
X2454758Y-35349501D01*
X2454748Y-35349500D01*
X1765252Y-35349500D01*
X1765251Y-35349500D01*
X1765241Y-35349501D01*
X1706772Y-35361132D01*
X1706766Y-35361134D01*
X1640451Y-35405445D01*
X1640445Y-35405451D01*
X1596134Y-35471766D01*
X1596132Y-35471772D01*
X1584501Y-35530241D01*
X1584500Y-35530253D01*
X1584500Y-35969746D01*
X1584501Y-35969758D01*
X1596132Y-36028230D01*
X1599814Y-36037119D01*
X1604611Y-36098116D01*
X1599814Y-36112881D01*
X1596132Y-36121769D01*
X1584501Y-36180241D01*
X1584500Y-36180253D01*
X1584500Y-36585227D01*
X1565593Y-36643418D01*
X1555505Y-36655229D01*
X1533214Y-36677520D01*
X1487909Y-36780127D01*
X1485000Y-36805202D01*
X1485000Y-36899999D01*
X300500Y-36899999D01*
X300500Y-33499464D01*
X319407Y-33441273D01*
X368907Y-33405309D01*
X399365Y-33400464D01*
X3035370Y-33396948D01*
X3093584Y-33415778D01*
X3129614Y-33465230D01*
X3134500Y-33495948D01*
X3134500Y-36284521D01*
X3115593Y-36342712D01*
X3105506Y-36354521D01*
X3075489Y-36384540D01*
X3075488Y-36384539D01*
X3019539Y-36440489D01*
X2979980Y-36509007D01*
X2979978Y-36509011D01*
X2959500Y-36585435D01*
X2959500Y-41839564D01*
X2979978Y-41915988D01*
X2979980Y-41915992D01*
X3014021Y-41974952D01*
X3019540Y-41984511D01*
X6571764Y-45536735D01*
X10115925Y-49080896D01*
X10143702Y-49135413D01*
X10134131Y-49195845D01*
X10090866Y-49239110D01*
X10045921Y-49249900D01*
X1324824Y-49249900D01*
X1288618Y-49253792D01*
X1270513Y-49255739D01*
X1270512Y-49255739D01*
X1218185Y-49267122D01*
X1218179Y-49267123D01*
X1218173Y-49267125D01*
X1191796Y-49274361D01*
X1105165Y-49323692D01*
X1055904Y-49366376D01*
X1051502Y-49370191D01*
X1019884Y-49402959D01*
X1019881Y-49402963D01*
X973676Y-49491294D01*
X973672Y-49491302D01*
X953675Y-49559410D01*
X953671Y-49559426D01*
X943324Y-49631394D01*
X943324Y-49631400D01*
X943324Y-65779400D01*
X949163Y-65833709D01*
X960549Y-65886051D01*
X967785Y-65912428D01*
X1017116Y-65999059D01*
X1063609Y-66052715D01*
X1096385Y-66084341D01*
X1184721Y-66130549D01*
X1184723Y-66130549D01*
X1184726Y-66130551D01*
X1210097Y-66138000D01*
X1252842Y-66150551D01*
X1265286Y-66152340D01*
X1324819Y-66160900D01*
X1324824Y-66160900D01*
X8472820Y-66160900D01*
X8472824Y-66160900D01*
X8527133Y-66155061D01*
X8579475Y-66143675D01*
X8605852Y-66136439D01*
X8692483Y-66087108D01*
X8746139Y-66040615D01*
X8777765Y-66007839D01*
X8823973Y-65919503D01*
X8826051Y-65912428D01*
X8833799Y-65886038D01*
X8843975Y-65851382D01*
X8846979Y-65830485D01*
X8854324Y-65779405D01*
X8854324Y-63758303D01*
X8873231Y-63700112D01*
X8922731Y-63664148D01*
X8983917Y-63664148D01*
X9023328Y-63688299D01*
X10259940Y-64924911D01*
X10259939Y-64924911D01*
X10315889Y-64980860D01*
X10384407Y-65020419D01*
X10384411Y-65020421D01*
X10460835Y-65040899D01*
X10460837Y-65040900D01*
X15051001Y-65040900D01*
X15109192Y-65059807D01*
X15145156Y-65109307D01*
X15150001Y-65139900D01*
X15150001Y-65193003D01*
X15152786Y-65222721D01*
X15152787Y-65222726D01*
X15196594Y-65347920D01*
X15275358Y-65454639D01*
X15275363Y-65454644D01*
X15296984Y-65470601D01*
X15332577Y-65520368D01*
X15332119Y-65581552D01*
X15311716Y-65614569D01*
X15311744Y-65614589D01*
X15311412Y-65615061D01*
X15308204Y-65620255D01*
X15306777Y-65621681D01*
X15306774Y-65621686D01*
X15256029Y-65730510D01*
X15256028Y-65730511D01*
X15256028Y-65730513D01*
X15249584Y-65779465D01*
X15249500Y-65780100D01*
X15249500Y-66139895D01*
X15249501Y-66139907D01*
X15256027Y-66189486D01*
X15256027Y-66189488D01*
X15306774Y-66298313D01*
X15306775Y-66298314D01*
X15306776Y-66298316D01*
X15362511Y-66354051D01*
X15390287Y-66408566D01*
X15380716Y-66468998D01*
X15367327Y-66488882D01*
X15334623Y-66526626D01*
X15274834Y-66657543D01*
X15254353Y-66799997D01*
X15254353Y-66800002D01*
X15274834Y-66942456D01*
X15327326Y-67057396D01*
X15334623Y-67073373D01*
X15398662Y-67147278D01*
X15428873Y-67182144D01*
X15549942Y-67259950D01*
X15549947Y-67259953D01*
X15656403Y-67291211D01*
X15688035Y-67300499D01*
X15688036Y-67300499D01*
X15688039Y-67300500D01*
X15688041Y-67300500D01*
X15831959Y-67300500D01*
X15831961Y-67300500D01*
X15970053Y-67259953D01*
X16091128Y-67182143D01*
X16171844Y-67088990D01*
X16224238Y-67057396D01*
X16285199Y-67062631D01*
X16321481Y-67088992D01*
X16358870Y-67132141D01*
X16358872Y-67132143D01*
X16436673Y-67182143D01*
X16479947Y-67209953D01*
X16586403Y-67241211D01*
X16618035Y-67250499D01*
X16618036Y-67250499D01*
X16618039Y-67250500D01*
X16618041Y-67250500D01*
X16761959Y-67250500D01*
X16761961Y-67250500D01*
X16900053Y-67209953D01*
X17021128Y-67132143D01*
X17115377Y-67023373D01*
X17175165Y-66892457D01*
X17189495Y-66792787D01*
X17195647Y-66750002D01*
X17195647Y-66750000D01*
X17192558Y-66728518D01*
X17202990Y-66668228D01*
X17220543Y-66644426D01*
X17493879Y-66371090D01*
X17548394Y-66343315D01*
X17608826Y-66352886D01*
X17652091Y-66396151D01*
X17653934Y-66399968D01*
X17664622Y-66423372D01*
X17664623Y-66423373D01*
X17754092Y-66526627D01*
X17758873Y-66532144D01*
X17846391Y-66588388D01*
X17879947Y-66609953D01*
X17986403Y-66641211D01*
X18018035Y-66650499D01*
X18018036Y-66650499D01*
X18018039Y-66650500D01*
X18018041Y-66650500D01*
X18161959Y-66650500D01*
X18161961Y-66650500D01*
X18300053Y-66609953D01*
X18421128Y-66532143D01*
X18515377Y-66423373D01*
X18564047Y-66316800D01*
X18605419Y-66271724D01*
X18665385Y-66259573D01*
X18721041Y-66284991D01*
X18722545Y-66286400D01*
X20105307Y-67609901D01*
X21227631Y-68684126D01*
X21256596Y-68738021D01*
X21255434Y-68775166D01*
X21255582Y-68775184D01*
X21255382Y-68776823D01*
X21255305Y-68779317D01*
X21254861Y-68781118D01*
X21254860Y-68781128D01*
X21234355Y-68950000D01*
X21254860Y-69118872D01*
X21315182Y-69277930D01*
X21411817Y-69417929D01*
X21539148Y-69530734D01*
X21689775Y-69609790D01*
X21854944Y-69650500D01*
X21854947Y-69650500D01*
X22025053Y-69650500D01*
X22025056Y-69650500D01*
X22190225Y-69609790D01*
X22340852Y-69530734D01*
X22468183Y-69417929D01*
X22564818Y-69277930D01*
X22625140Y-69118872D01*
X22645645Y-68950000D01*
X22625140Y-68781128D01*
X22564818Y-68622070D01*
X22468183Y-68482071D01*
X22449287Y-68465331D01*
X22356675Y-68383284D01*
X22340852Y-68369266D01*
X22190225Y-68290210D01*
X22190224Y-68290209D01*
X22190223Y-68290209D01*
X22025058Y-68249500D01*
X22025056Y-68249500D01*
X21854944Y-68249500D01*
X21795782Y-68264082D01*
X21739015Y-68278073D01*
X21677990Y-68273640D01*
X21646870Y-68253468D01*
X20556627Y-67209950D01*
X20497796Y-67153640D01*
X20468832Y-67099746D01*
X20477079Y-67039119D01*
X20519386Y-66994917D01*
X20566251Y-66983122D01*
X22557143Y-66983122D01*
X22615334Y-67002029D01*
X22627147Y-67012118D01*
X24284703Y-68669674D01*
X24312480Y-68724191D01*
X24307268Y-68774779D01*
X24304859Y-68781129D01*
X24285271Y-68942456D01*
X24284355Y-68950000D01*
X24304860Y-69118872D01*
X24365182Y-69277930D01*
X24461817Y-69417929D01*
X24589148Y-69530734D01*
X24739775Y-69609790D01*
X24904944Y-69650500D01*
X24904947Y-69650500D01*
X25075053Y-69650500D01*
X25075056Y-69650500D01*
X25240225Y-69609790D01*
X25390852Y-69530734D01*
X25518183Y-69417929D01*
X25614818Y-69277930D01*
X25675140Y-69118872D01*
X25695645Y-68950000D01*
X25675140Y-68781128D01*
X25614818Y-68622070D01*
X25518183Y-68482071D01*
X25499287Y-68465331D01*
X25406675Y-68383284D01*
X25390852Y-68369266D01*
X25240225Y-68290210D01*
X25240224Y-68290209D01*
X25240223Y-68290209D01*
X25075058Y-68249500D01*
X25075056Y-68249500D01*
X24904944Y-68249500D01*
X24824334Y-68269368D01*
X24806347Y-68273801D01*
X24745322Y-68269368D01*
X24712652Y-68247681D01*
X23882826Y-67417855D01*
X22907133Y-66442162D01*
X22895852Y-66435649D01*
X22865034Y-66417856D01*
X22865033Y-66417856D01*
X22838610Y-66402600D01*
X22762186Y-66382122D01*
X22762184Y-66382122D01*
X20251857Y-66382122D01*
X20193666Y-66363215D01*
X20179205Y-66350373D01*
X19994237Y-66150551D01*
X19638967Y-65766750D01*
X19613314Y-65711204D01*
X19625210Y-65651186D01*
X19670111Y-65609622D01*
X19711620Y-65600500D01*
X52658368Y-65600500D01*
X52711889Y-65616215D01*
X52779947Y-65659953D01*
X52886403Y-65691211D01*
X52918035Y-65700499D01*
X52918036Y-65700499D01*
X52918039Y-65700500D01*
X52918041Y-65700500D01*
X53061959Y-65700500D01*
X53061961Y-65700500D01*
X53200053Y-65659953D01*
X53234988Y-65637502D01*
X62809553Y-65637502D01*
X62830034Y-65779956D01*
X62830100Y-65780100D01*
X62889823Y-65910873D01*
X62966236Y-65999059D01*
X62984073Y-66019644D01*
X63105142Y-66097450D01*
X63105147Y-66097453D01*
X63211603Y-66128711D01*
X63243235Y-66137999D01*
X63243236Y-66137999D01*
X63243239Y-66138000D01*
X63243241Y-66138000D01*
X63387159Y-66138000D01*
X63387161Y-66138000D01*
X63525253Y-66097453D01*
X63646328Y-66019643D01*
X63740577Y-65910873D01*
X63800365Y-65779957D01*
X63818320Y-65655077D01*
X63820847Y-65637502D01*
X63820847Y-65637497D01*
X63800365Y-65495043D01*
X63793267Y-65479500D01*
X63740577Y-65364127D01*
X63646328Y-65255357D01*
X63646327Y-65255356D01*
X63646326Y-65255355D01*
X63525257Y-65177549D01*
X63525254Y-65177547D01*
X63525253Y-65177547D01*
X63525250Y-65177546D01*
X63387164Y-65137000D01*
X63387161Y-65137000D01*
X63243239Y-65137000D01*
X63243235Y-65137000D01*
X63105149Y-65177546D01*
X63105142Y-65177549D01*
X62984073Y-65255355D01*
X62889822Y-65364128D01*
X62830034Y-65495043D01*
X62809553Y-65637497D01*
X62809553Y-65637502D01*
X53234988Y-65637502D01*
X53321128Y-65582143D01*
X53415377Y-65473373D01*
X53475165Y-65342457D01*
X53495647Y-65200000D01*
X53494562Y-65192457D01*
X53475165Y-65057543D01*
X53442813Y-64986703D01*
X53415377Y-64926627D01*
X53321128Y-64817857D01*
X53321127Y-64817856D01*
X53321126Y-64817855D01*
X53200057Y-64740049D01*
X53200054Y-64740047D01*
X53200053Y-64740047D01*
X53200050Y-64740046D01*
X53061964Y-64699500D01*
X53061961Y-64699500D01*
X52918039Y-64699500D01*
X52918035Y-64699500D01*
X52779949Y-64740046D01*
X52779942Y-64740049D01*
X52658873Y-64817855D01*
X52564622Y-64926628D01*
X52557774Y-64941625D01*
X52516403Y-64986703D01*
X52467720Y-64999500D01*
X52111824Y-64999500D01*
X52053633Y-64980593D01*
X52017669Y-64931093D01*
X52017669Y-64869907D01*
X52021771Y-64859373D01*
X52063649Y-64767673D01*
X52075165Y-64742457D01*
X52095492Y-64601078D01*
X52095647Y-64600002D01*
X52095647Y-64599997D01*
X52075165Y-64457543D01*
X52067108Y-64439900D01*
X52015377Y-64326627D01*
X51921128Y-64217857D01*
X51921127Y-64217856D01*
X51921126Y-64217855D01*
X51800057Y-64140049D01*
X51800054Y-64140047D01*
X51800053Y-64140047D01*
X51800050Y-64140046D01*
X51661964Y-64099500D01*
X51661961Y-64099500D01*
X51518039Y-64099500D01*
X51518035Y-64099500D01*
X51379949Y-64140046D01*
X51379942Y-64140049D01*
X51258873Y-64217855D01*
X51164622Y-64326628D01*
X51104836Y-64457539D01*
X51104833Y-64457547D01*
X51104627Y-64458986D01*
X51104092Y-64460073D01*
X51102842Y-64464332D01*
X51102104Y-64464115D01*
X51077628Y-64513892D01*
X51050888Y-64533450D01*
X50940397Y-64588661D01*
X50896145Y-64599102D01*
X25135393Y-64599102D01*
X25077202Y-64580195D01*
X25041238Y-64530695D01*
X25041238Y-64469509D01*
X25077202Y-64420009D01*
X25107502Y-64405112D01*
X25108189Y-64404910D01*
X25208853Y-64375353D01*
X25329928Y-64297543D01*
X25424177Y-64188773D01*
X25483965Y-64057857D01*
X25491210Y-64007466D01*
X25504447Y-63915402D01*
X25504447Y-63915397D01*
X25483965Y-63772943D01*
X25470084Y-63742548D01*
X25424177Y-63642027D01*
X25329928Y-63533257D01*
X25329927Y-63533256D01*
X25329926Y-63533255D01*
X25276131Y-63498684D01*
X25237400Y-63451319D01*
X25233906Y-63390233D01*
X25266985Y-63338760D01*
X25276131Y-63332116D01*
X25329928Y-63297543D01*
X25424177Y-63188773D01*
X25483965Y-63057857D01*
X25494585Y-62983993D01*
X25504447Y-62915402D01*
X25504447Y-62915397D01*
X25483965Y-62772943D01*
X25421236Y-62635587D01*
X25422825Y-62634861D01*
X25409519Y-62584255D01*
X25431713Y-62527237D01*
X25483183Y-62494154D01*
X25508358Y-62490900D01*
X33591153Y-62490900D01*
X61568851Y-62500527D01*
X61568855Y-62500526D01*
X61568857Y-62500526D01*
X61649930Y-62478831D01*
X61721592Y-62459657D01*
X61858551Y-62380647D01*
X61970393Y-62268881D01*
X62021844Y-62179834D01*
X62067325Y-62138912D01*
X62095950Y-62131050D01*
X62303894Y-62106501D01*
X62363899Y-62118455D01*
X62405419Y-62163398D01*
X62414500Y-62204818D01*
X62414500Y-62557246D01*
X62414501Y-62557258D01*
X62426132Y-62615727D01*
X62426134Y-62615733D01*
X62470445Y-62682048D01*
X62470448Y-62682052D01*
X62536769Y-62726367D01*
X62581231Y-62735211D01*
X62595241Y-62737998D01*
X62595246Y-62737998D01*
X62595252Y-62738000D01*
X62745192Y-62738000D01*
X62803383Y-62756907D01*
X62839347Y-62806407D01*
X62839347Y-62867593D01*
X62815197Y-62907001D01*
X62790150Y-62932049D01*
X62765302Y-62956897D01*
X62691378Y-63067533D01*
X62640460Y-63190462D01*
X62614500Y-63320968D01*
X62614500Y-63754031D01*
X62640460Y-63884537D01*
X62691378Y-64007466D01*
X62702820Y-64024591D01*
X62765305Y-64118106D01*
X62859394Y-64212195D01*
X62970031Y-64286120D01*
X62970032Y-64286120D01*
X62970033Y-64286121D01*
X63000525Y-64298751D01*
X63092964Y-64337040D01*
X63223469Y-64363000D01*
X63223470Y-64363000D01*
X63356530Y-64363000D01*
X63356531Y-64363000D01*
X63487036Y-64337040D01*
X63609969Y-64286120D01*
X63720606Y-64212195D01*
X63814695Y-64118106D01*
X63888620Y-64007469D01*
X63939540Y-63884536D01*
X63965500Y-63754031D01*
X63965500Y-63320969D01*
X63939540Y-63190464D01*
X63888620Y-63067531D01*
X63814695Y-62956894D01*
X63764802Y-62907001D01*
X63737027Y-62852487D01*
X63746598Y-62792055D01*
X63789863Y-62748790D01*
X63834808Y-62738000D01*
X63984747Y-62738000D01*
X63984748Y-62738000D01*
X64043231Y-62726367D01*
X64109552Y-62682052D01*
X64153867Y-62615731D01*
X64165500Y-62557248D01*
X64165500Y-62117752D01*
X64153867Y-62059269D01*
X64153864Y-62059265D01*
X64150187Y-62050387D01*
X64145386Y-61989390D01*
X64150187Y-61974613D01*
X64153863Y-61965736D01*
X64153867Y-61965731D01*
X64165500Y-61907248D01*
X64165500Y-61467752D01*
X64153867Y-61409269D01*
X64153864Y-61409265D01*
X64150187Y-61400387D01*
X64145386Y-61339390D01*
X64150187Y-61324613D01*
X64153863Y-61315736D01*
X64153867Y-61315731D01*
X64165500Y-61257248D01*
X64165500Y-60817752D01*
X64153867Y-60759269D01*
X64153864Y-60759265D01*
X64150187Y-60750387D01*
X64145386Y-60689390D01*
X64150187Y-60674613D01*
X64153863Y-60665736D01*
X64153867Y-60665731D01*
X64165500Y-60607248D01*
X64165500Y-60167752D01*
X64153867Y-60109269D01*
X64153864Y-60109265D01*
X64150187Y-60100387D01*
X64145386Y-60039390D01*
X64150187Y-60024613D01*
X64153863Y-60015736D01*
X64153867Y-60015731D01*
X64165500Y-59957248D01*
X64165500Y-59517752D01*
X64153867Y-59459269D01*
X64109552Y-59392948D01*
X64105248Y-59390072D01*
X64043233Y-59348634D01*
X64043231Y-59348633D01*
X64043228Y-59348632D01*
X64043227Y-59348632D01*
X63984758Y-59337001D01*
X63984748Y-59337000D01*
X63984747Y-59337000D01*
X63834808Y-59337000D01*
X63776617Y-59318093D01*
X63740653Y-59268593D01*
X63740653Y-59207407D01*
X63764802Y-59167998D01*
X63814695Y-59118106D01*
X63888620Y-59007469D01*
X63939540Y-58884536D01*
X63965500Y-58754031D01*
X63965500Y-58320969D01*
X63939540Y-58190464D01*
X63902621Y-58101332D01*
X63888621Y-58067533D01*
X63870709Y-58040726D01*
X63814695Y-57956894D01*
X63720606Y-57862805D01*
X63654364Y-57818544D01*
X63609966Y-57788878D01*
X63487037Y-57737960D01*
X63356531Y-57712000D01*
X63223469Y-57712000D01*
X63223468Y-57712000D01*
X63092962Y-57737960D01*
X62970033Y-57788878D01*
X62859397Y-57862802D01*
X62765302Y-57956897D01*
X62691378Y-58067533D01*
X62640460Y-58190462D01*
X62614500Y-58320968D01*
X62614500Y-58754031D01*
X62640460Y-58884537D01*
X62691378Y-59007466D01*
X62752988Y-59099673D01*
X62765305Y-59118106D01*
X62815197Y-59167998D01*
X62842973Y-59222513D01*
X62833402Y-59282945D01*
X62790137Y-59326210D01*
X62745192Y-59337000D01*
X62595252Y-59337000D01*
X62595251Y-59337000D01*
X62595241Y-59337001D01*
X62536772Y-59348632D01*
X62536766Y-59348634D01*
X62470451Y-59392945D01*
X62470447Y-59392949D01*
X62470413Y-59393001D01*
X62470332Y-59393064D01*
X62463554Y-59399843D01*
X62462751Y-59399040D01*
X62422363Y-59430881D01*
X62388097Y-59437000D01*
X61587083Y-59437000D01*
X61528892Y-59418093D01*
X61512264Y-59402831D01*
X61509675Y-59399843D01*
X61471128Y-59355357D01*
X61413144Y-59318093D01*
X61350057Y-59277549D01*
X61350054Y-59277547D01*
X61350053Y-59277547D01*
X61350050Y-59277546D01*
X61211964Y-59237000D01*
X61211961Y-59237000D01*
X61068039Y-59237000D01*
X61068035Y-59237000D01*
X60929949Y-59277546D01*
X60929942Y-59277549D01*
X60808873Y-59355355D01*
X60714622Y-59464128D01*
X60654834Y-59595043D01*
X60634353Y-59737497D01*
X60634353Y-59737502D01*
X60654834Y-59879956D01*
X60714622Y-60010871D01*
X60714623Y-60010873D01*
X60778283Y-60084341D01*
X60779434Y-60085669D01*
X60803251Y-60142029D01*
X60789392Y-60201624D01*
X60743151Y-60241691D01*
X60704614Y-60249500D01*
X32383843Y-60249500D01*
X32231116Y-60290423D01*
X32168390Y-60326637D01*
X32118892Y-60339900D01*
X26508358Y-60339900D01*
X26450167Y-60320993D01*
X26414203Y-60271493D01*
X26414203Y-60210307D01*
X26421337Y-60195259D01*
X26421236Y-60195213D01*
X26439001Y-60156314D01*
X26483965Y-60057857D01*
X26496420Y-59971232D01*
X26504447Y-59915402D01*
X26504447Y-59915397D01*
X26483965Y-59772943D01*
X26467779Y-59737502D01*
X26424177Y-59642027D01*
X26329928Y-59533257D01*
X26329927Y-59533256D01*
X26329926Y-59533255D01*
X26276131Y-59498684D01*
X26237400Y-59451319D01*
X26233906Y-59390233D01*
X26266985Y-59338760D01*
X26276131Y-59332116D01*
X26285321Y-59326210D01*
X26329928Y-59297543D01*
X26424177Y-59188773D01*
X26483965Y-59057857D01*
X26501198Y-58938000D01*
X26504447Y-58915402D01*
X26504447Y-58915397D01*
X26483965Y-58772943D01*
X26464826Y-58731034D01*
X26457851Y-58670247D01*
X26487937Y-58616970D01*
X26543593Y-58591552D01*
X26554845Y-58590907D01*
X26594056Y-58590900D01*
X26594075Y-58590900D01*
X29453799Y-58590900D01*
X29453800Y-58590900D01*
X29555058Y-58548957D01*
X29632557Y-58471458D01*
X30509119Y-57594896D01*
X30563636Y-57567119D01*
X30579123Y-57565900D01*
X30742057Y-57565900D01*
X30742060Y-57565900D01*
X30810193Y-57555973D01*
X30915283Y-57504598D01*
X30997998Y-57421883D01*
X31049373Y-57316793D01*
X31049372Y-57316793D01*
X31052750Y-57309886D01*
X31054349Y-57310667D01*
X31084091Y-57268447D01*
X31141999Y-57248691D01*
X31200460Y-57266745D01*
X31236891Y-57314982D01*
X31276453Y-57428045D01*
X31357007Y-57537190D01*
X31357009Y-57537192D01*
X31466152Y-57617745D01*
X31594199Y-57662549D01*
X31624588Y-57665399D01*
X31678799Y-57665398D01*
X31678800Y-57665398D01*
X31978800Y-57665398D01*
X31978801Y-57665399D01*
X32033003Y-57665399D01*
X32063400Y-57662549D01*
X32063402Y-57662549D01*
X32191447Y-57617745D01*
X32300590Y-57537192D01*
X32300592Y-57537190D01*
X32381145Y-57428047D01*
X32425949Y-57300001D01*
X32428799Y-57269611D01*
X32428800Y-57269610D01*
X32428800Y-56773403D01*
X33758801Y-56773403D01*
X33761586Y-56803121D01*
X33761587Y-56803126D01*
X33805394Y-56928320D01*
X33884158Y-57035039D01*
X33884160Y-57035041D01*
X33990879Y-57113805D01*
X34116072Y-57157612D01*
X34145799Y-57160399D01*
X34218799Y-57160398D01*
X34218800Y-57160398D01*
X34518800Y-57160398D01*
X34518801Y-57160399D01*
X34591804Y-57160399D01*
X34621521Y-57157613D01*
X34621526Y-57157612D01*
X34746720Y-57113805D01*
X34853439Y-57035041D01*
X34853441Y-57035039D01*
X34932205Y-56928320D01*
X34976012Y-56803127D01*
X34978800Y-56773400D01*
X34978800Y-56730401D01*
X34978799Y-56730400D01*
X34518801Y-56730400D01*
X34518800Y-56730401D01*
X34518800Y-57160398D01*
X34218800Y-57160398D01*
X34218800Y-56730401D01*
X34218799Y-56730400D01*
X33758802Y-56730400D01*
X33758801Y-56730401D01*
X33758801Y-56773403D01*
X32428800Y-56773403D01*
X32428800Y-56715401D01*
X32428799Y-56715400D01*
X31978801Y-56715400D01*
X31978800Y-56715401D01*
X31978800Y-57665398D01*
X31678800Y-57665398D01*
X31678800Y-56430399D01*
X33758800Y-56430399D01*
X33758801Y-56430400D01*
X34978798Y-56430400D01*
X34978799Y-56430399D01*
X34978799Y-56387396D01*
X34976700Y-56365003D01*
X36804417Y-56365003D01*
X36824698Y-56570929D01*
X36824699Y-56570934D01*
X36884768Y-56768954D01*
X36982316Y-56951452D01*
X37103547Y-57099173D01*
X37113590Y-57111410D01*
X37129466Y-57124439D01*
X37273547Y-57242683D01*
X37273548Y-57242683D01*
X37273550Y-57242685D01*
X37456046Y-57340232D01*
X37563647Y-57372872D01*
X37654065Y-57400300D01*
X37654070Y-57400301D01*
X37859997Y-57420583D01*
X37860000Y-57420583D01*
X37860003Y-57420583D01*
X38065929Y-57400301D01*
X38065934Y-57400300D01*
X38263954Y-57340232D01*
X38446450Y-57242685D01*
X38606410Y-57111410D01*
X38737685Y-56951450D01*
X38835232Y-56768954D01*
X38895300Y-56570934D01*
X38895301Y-56570929D01*
X38908442Y-56437502D01*
X62809553Y-56437502D01*
X62830034Y-56579956D01*
X62889822Y-56710871D01*
X62889823Y-56710873D01*
X62969756Y-56803121D01*
X62984073Y-56819644D01*
X63093665Y-56890074D01*
X63105147Y-56897453D01*
X63204751Y-56926699D01*
X63243235Y-56937999D01*
X63243236Y-56937999D01*
X63243239Y-56938000D01*
X63243241Y-56938000D01*
X63387159Y-56938000D01*
X63387161Y-56938000D01*
X63525253Y-56897453D01*
X63646328Y-56819643D01*
X63740577Y-56710873D01*
X63800365Y-56579957D01*
X63815126Y-56477292D01*
X63820847Y-56437502D01*
X63820847Y-56437497D01*
X63800365Y-56295043D01*
X63778193Y-56246493D01*
X63740577Y-56164127D01*
X63646328Y-56055357D01*
X63646327Y-56055356D01*
X63646326Y-56055355D01*
X63525257Y-55977549D01*
X63525254Y-55977547D01*
X63525253Y-55977547D01*
X63525250Y-55977546D01*
X63387164Y-55937000D01*
X63387161Y-55937000D01*
X63243239Y-55937000D01*
X63243235Y-55937000D01*
X63105149Y-55977546D01*
X63105142Y-55977549D01*
X62984073Y-56055355D01*
X62889822Y-56164128D01*
X62830034Y-56295043D01*
X62809553Y-56437497D01*
X62809553Y-56437502D01*
X38908442Y-56437502D01*
X38915583Y-56365003D01*
X38915583Y-56364996D01*
X38895301Y-56159070D01*
X38895300Y-56159065D01*
X38877078Y-56098997D01*
X38835232Y-55961046D01*
X38737685Y-55778550D01*
X38708381Y-55742843D01*
X38606414Y-55618595D01*
X38606410Y-55618590D01*
X38606404Y-55618585D01*
X38446452Y-55487316D01*
X38263954Y-55389768D01*
X38065934Y-55329699D01*
X38065929Y-55329698D01*
X37860003Y-55309417D01*
X37859997Y-55309417D01*
X37654070Y-55329698D01*
X37654065Y-55329699D01*
X37456045Y-55389768D01*
X37273547Y-55487316D01*
X37113595Y-55618585D01*
X37113585Y-55618595D01*
X36982316Y-55778547D01*
X36884768Y-55961045D01*
X36824699Y-56159065D01*
X36824698Y-56159070D01*
X36804417Y-56364996D01*
X36804417Y-56365003D01*
X34976700Y-56365003D01*
X34976013Y-56357678D01*
X34976012Y-56357673D01*
X34932205Y-56232479D01*
X34853441Y-56125760D01*
X34853439Y-56125758D01*
X34831814Y-56109798D01*
X34796222Y-56060030D01*
X34796680Y-55998846D01*
X34817084Y-55965830D01*
X34817056Y-55965811D01*
X34817397Y-55965322D01*
X34820602Y-55960137D01*
X34822024Y-55958716D01*
X34872772Y-55849887D01*
X34879300Y-55800301D01*
X34879299Y-55440500D01*
X34872772Y-55390913D01*
X34872772Y-55390911D01*
X34822025Y-55282086D01*
X34822024Y-55282085D01*
X34822024Y-55282084D01*
X34737116Y-55197176D01*
X34737114Y-55197175D01*
X34730991Y-55191052D01*
X34733088Y-55188954D01*
X34704885Y-55151507D01*
X34699500Y-55119300D01*
X34699500Y-55069293D01*
X34718407Y-55011102D01*
X34725741Y-55003111D01*
X34725491Y-55002894D01*
X34730128Y-54997543D01*
X34824377Y-54888773D01*
X34884165Y-54757857D01*
X34896026Y-54675360D01*
X34904647Y-54615402D01*
X34904647Y-54615397D01*
X34884165Y-54472943D01*
X34850618Y-54399486D01*
X34824377Y-54342027D01*
X34730128Y-54233257D01*
X34730127Y-54233256D01*
X34730126Y-54233255D01*
X34609057Y-54155449D01*
X34609054Y-54155447D01*
X34609053Y-54155447D01*
X34609050Y-54155446D01*
X34470964Y-54114900D01*
X34470961Y-54114900D01*
X34327039Y-54114900D01*
X34327035Y-54114900D01*
X34188949Y-54155446D01*
X34188942Y-54155449D01*
X34067873Y-54233255D01*
X33973622Y-54342028D01*
X33913834Y-54472943D01*
X33893353Y-54615397D01*
X33893353Y-54615402D01*
X33913834Y-54757856D01*
X33973623Y-54888773D01*
X34072509Y-55002894D01*
X34070471Y-55004659D01*
X34095925Y-55046858D01*
X34098500Y-55069293D01*
X34098500Y-55088400D01*
X34079593Y-55146591D01*
X34041340Y-55178124D01*
X34000486Y-55197174D01*
X33915574Y-55282086D01*
X33864829Y-55390910D01*
X33864828Y-55390911D01*
X33858300Y-55440500D01*
X33858300Y-55800295D01*
X33858301Y-55800307D01*
X33864827Y-55849886D01*
X33864827Y-55849888D01*
X33915574Y-55958713D01*
X33915575Y-55958714D01*
X33915576Y-55958716D01*
X33917001Y-55960141D01*
X33918142Y-55962381D01*
X33920544Y-55965811D01*
X33920061Y-55966148D01*
X33944777Y-56014656D01*
X33935206Y-56075088D01*
X33905786Y-56109797D01*
X33884162Y-56125756D01*
X33884158Y-56125760D01*
X33805394Y-56232479D01*
X33761587Y-56357672D01*
X33758800Y-56387399D01*
X33758800Y-56430399D01*
X31678800Y-56430399D01*
X31678800Y-56415399D01*
X31978800Y-56415399D01*
X31978801Y-56415400D01*
X32428798Y-56415400D01*
X32428799Y-56415399D01*
X32428799Y-55861196D01*
X32425949Y-55830799D01*
X32425949Y-55830797D01*
X32381145Y-55702752D01*
X32300592Y-55593609D01*
X32300590Y-55593607D01*
X32191447Y-55513054D01*
X32063401Y-55468250D01*
X32033011Y-55465400D01*
X31978801Y-55465400D01*
X31978800Y-55465401D01*
X31978800Y-56415399D01*
X31678800Y-56415399D01*
X31678800Y-55465399D01*
X31624596Y-55465400D01*
X31594199Y-55468250D01*
X31594197Y-55468250D01*
X31466152Y-55513054D01*
X31357009Y-55593607D01*
X31357007Y-55593609D01*
X31276453Y-55702754D01*
X31236891Y-55815817D01*
X31199826Y-55864497D01*
X31141225Y-55882094D01*
X31083474Y-55861886D01*
X31054315Y-55820148D01*
X31052750Y-55820914D01*
X31014583Y-55742843D01*
X30997998Y-55708917D01*
X30915283Y-55626202D01*
X30899723Y-55618595D01*
X30810195Y-55574827D01*
X30782939Y-55570856D01*
X30742060Y-55564900D01*
X30375540Y-55564900D01*
X30341473Y-55569863D01*
X30307404Y-55574827D01*
X30202318Y-55626201D01*
X30119601Y-55708918D01*
X30068227Y-55814004D01*
X30058300Y-55882143D01*
X30058300Y-57225476D01*
X30039393Y-57283667D01*
X30029303Y-57295480D01*
X29951371Y-57373411D01*
X29896854Y-57401188D01*
X29836422Y-57391616D01*
X29793158Y-57348351D01*
X29783403Y-57289132D01*
X29786247Y-57269611D01*
X29789300Y-57248660D01*
X29789300Y-55882140D01*
X29779373Y-55814007D01*
X29727998Y-55708917D01*
X29645283Y-55626202D01*
X29629723Y-55618595D01*
X29540195Y-55574827D01*
X29512939Y-55570856D01*
X29472060Y-55564900D01*
X29105540Y-55564900D01*
X29071473Y-55569863D01*
X29037404Y-55574827D01*
X28932318Y-55626201D01*
X28849601Y-55708918D01*
X28798227Y-55814004D01*
X28788300Y-55882143D01*
X28788300Y-57195477D01*
X28769393Y-57253668D01*
X28759303Y-57265481D01*
X28686487Y-57338296D01*
X28631970Y-57366073D01*
X28571538Y-57356501D01*
X28528274Y-57313236D01*
X28518520Y-57254011D01*
X28519300Y-57248660D01*
X28519300Y-55882140D01*
X28509373Y-55814007D01*
X28457998Y-55708917D01*
X28375283Y-55626202D01*
X28359723Y-55618595D01*
X28270195Y-55574827D01*
X28242939Y-55570856D01*
X28202060Y-55564900D01*
X27835540Y-55564900D01*
X27801473Y-55569863D01*
X27767404Y-55574827D01*
X27662318Y-55626201D01*
X27579601Y-55708918D01*
X27528227Y-55814004D01*
X27518300Y-55882143D01*
X27518300Y-56215900D01*
X27499393Y-56274091D01*
X27449893Y-56310055D01*
X27419300Y-56314900D01*
X24063335Y-56314900D01*
X24005144Y-56295993D01*
X23969180Y-56246493D01*
X23969180Y-56185307D01*
X23993332Y-56145896D01*
X25429244Y-54710021D01*
X29529458Y-50609914D01*
X29535522Y-50599412D01*
X29548561Y-50576827D01*
X29569020Y-50541392D01*
X29588259Y-50469598D01*
X29589500Y-50464967D01*
X29589500Y-50442027D01*
X29589500Y-50393664D01*
X29608407Y-50335476D01*
X29638940Y-50309833D01*
X29638606Y-50309365D01*
X29644565Y-50305110D01*
X29645025Y-50304724D01*
X29645283Y-50304598D01*
X29727998Y-50221883D01*
X29779373Y-50116793D01*
X29789300Y-50048660D01*
X29789300Y-48769679D01*
X29808207Y-48711488D01*
X29857707Y-48675524D01*
X29918893Y-48675524D01*
X29958304Y-48699675D01*
X30029304Y-48770675D01*
X30057081Y-48825192D01*
X30058300Y-48840679D01*
X30058300Y-50048660D01*
X30065390Y-50097326D01*
X30068227Y-50116795D01*
X30119601Y-50221881D01*
X30119602Y-50221883D01*
X30202317Y-50304598D01*
X30253184Y-50329465D01*
X30307404Y-50355972D01*
X30307405Y-50355972D01*
X30307407Y-50355973D01*
X30375540Y-50365900D01*
X30375543Y-50365900D01*
X30742057Y-50365900D01*
X30742060Y-50365900D01*
X30810193Y-50355973D01*
X30915283Y-50304598D01*
X30997998Y-50221883D01*
X31049373Y-50116793D01*
X31059300Y-50048660D01*
X31059300Y-48704323D01*
X31078207Y-48646132D01*
X31127707Y-48610168D01*
X31188893Y-48610168D01*
X31228304Y-48634319D01*
X31299304Y-48705319D01*
X31327081Y-48759836D01*
X31328300Y-48775323D01*
X31328300Y-50048660D01*
X31335390Y-50097326D01*
X31338227Y-50116795D01*
X31389601Y-50221881D01*
X31389602Y-50221883D01*
X31472317Y-50304598D01*
X31523184Y-50329465D01*
X31577404Y-50355972D01*
X31577405Y-50355972D01*
X31577407Y-50355973D01*
X31645540Y-50365900D01*
X31645543Y-50365900D01*
X32012057Y-50365900D01*
X32012060Y-50365900D01*
X32080193Y-50355973D01*
X32185283Y-50304598D01*
X32267998Y-50221883D01*
X32319373Y-50116793D01*
X32329300Y-50048660D01*
X32329300Y-49739900D01*
X32348207Y-49681709D01*
X32397707Y-49645745D01*
X32428300Y-49640900D01*
X33824432Y-49640900D01*
X33882623Y-49659807D01*
X33914156Y-49698061D01*
X33959733Y-49795801D01*
X33959734Y-49795802D01*
X33959735Y-49795804D01*
X34043396Y-49879465D01*
X34043397Y-49879465D01*
X34043398Y-49879466D01*
X34066339Y-49890164D01*
X34111087Y-49931892D01*
X34123500Y-49979888D01*
X34123500Y-50207005D01*
X34120126Y-50232629D01*
X34096820Y-50319606D01*
X34095414Y-50319229D01*
X34072261Y-50367766D01*
X34055769Y-50379645D01*
X34056693Y-50380965D01*
X34049600Y-50385931D01*
X33965933Y-50469598D01*
X33915932Y-50576824D01*
X33915932Y-50576825D01*
X33909500Y-50625685D01*
X33909500Y-51074314D01*
X33915932Y-51123174D01*
X33915932Y-51123175D01*
X33965933Y-51230401D01*
X33965934Y-51230402D01*
X33965935Y-51230404D01*
X34049596Y-51314065D01*
X34049597Y-51314065D01*
X34049598Y-51314066D01*
X34156824Y-51364067D01*
X34156825Y-51364067D01*
X34156827Y-51364068D01*
X34205684Y-51370500D01*
X34205685Y-51370500D01*
X34554314Y-51370500D01*
X34554316Y-51370500D01*
X34603173Y-51364068D01*
X34710404Y-51314065D01*
X34794065Y-51230404D01*
X34800275Y-51217085D01*
X34842003Y-51172337D01*
X34902064Y-51160662D01*
X34957517Y-51186519D01*
X34979724Y-51217084D01*
X34985935Y-51230404D01*
X35069596Y-51314065D01*
X35069597Y-51314065D01*
X35069598Y-51314066D01*
X35176824Y-51364067D01*
X35176825Y-51364067D01*
X35176827Y-51364068D01*
X35225684Y-51370500D01*
X35355348Y-51370500D01*
X35413539Y-51389407D01*
X35431089Y-51405749D01*
X36744422Y-52966189D01*
X36786243Y-53015879D01*
X36809248Y-53072575D01*
X36809500Y-53079628D01*
X36809500Y-54694746D01*
X36809501Y-54694758D01*
X36821132Y-54753227D01*
X36821133Y-54753231D01*
X36865448Y-54819552D01*
X36931769Y-54863867D01*
X36973245Y-54872117D01*
X36990241Y-54875498D01*
X36990246Y-54875498D01*
X36990252Y-54875500D01*
X36990253Y-54875500D01*
X38729747Y-54875500D01*
X38729748Y-54875500D01*
X38788231Y-54863867D01*
X38854552Y-54819552D01*
X38898867Y-54753231D01*
X38910500Y-54694748D01*
X38910500Y-52955252D01*
X38898867Y-52896769D01*
X38854552Y-52830448D01*
X38854548Y-52830445D01*
X38788233Y-52786134D01*
X38788231Y-52786133D01*
X38788228Y-52786132D01*
X38788227Y-52786132D01*
X38729758Y-52774501D01*
X38729748Y-52774500D01*
X38729747Y-52774500D01*
X37414694Y-52774500D01*
X37356503Y-52755593D01*
X37338955Y-52739254D01*
X35893755Y-51022135D01*
X35870752Y-50965440D01*
X35870500Y-50958387D01*
X35870500Y-50625685D01*
X35868424Y-50609914D01*
X35864068Y-50576827D01*
X35848040Y-50542456D01*
X35814066Y-50469598D01*
X35814065Y-50469597D01*
X35814065Y-50469596D01*
X35730404Y-50385935D01*
X35730402Y-50385934D01*
X35730401Y-50385933D01*
X35623175Y-50335932D01*
X35590601Y-50331644D01*
X35574316Y-50329500D01*
X35225684Y-50329500D01*
X35209398Y-50331644D01*
X35176825Y-50335932D01*
X35176824Y-50335932D01*
X35069598Y-50385933D01*
X34985933Y-50469598D01*
X34979724Y-50482915D01*
X34937995Y-50527663D01*
X34877934Y-50539337D01*
X34822482Y-50513478D01*
X34800276Y-50482915D01*
X34794065Y-50469596D01*
X34794064Y-50469595D01*
X34728496Y-50404026D01*
X34700719Y-50349509D01*
X34699500Y-50334023D01*
X34699500Y-50313337D01*
X34699499Y-50313335D01*
X34677874Y-50232629D01*
X34674500Y-50207005D01*
X34674500Y-49950176D01*
X34693407Y-49891985D01*
X34703496Y-49880172D01*
X34704202Y-49879465D01*
X34704204Y-49879465D01*
X34749390Y-49834278D01*
X34803905Y-49806503D01*
X34864337Y-49816074D01*
X34899047Y-49845495D01*
X34947734Y-49911463D01*
X34947736Y-49911465D01*
X35053245Y-49989335D01*
X35177016Y-50032644D01*
X35206396Y-50035399D01*
X35206400Y-50035400D01*
X35243799Y-50035400D01*
X35243800Y-50035399D01*
X35543800Y-50035399D01*
X35543801Y-50035400D01*
X35581200Y-50035400D01*
X35581203Y-50035399D01*
X35610583Y-50032644D01*
X35734354Y-49989335D01*
X35839863Y-49911465D01*
X35839865Y-49911463D01*
X35917735Y-49805954D01*
X35961044Y-49682183D01*
X35963799Y-49652803D01*
X35963800Y-49652800D01*
X35963800Y-49565401D01*
X35963799Y-49565400D01*
X35543801Y-49565400D01*
X35543800Y-49565401D01*
X35543800Y-50035399D01*
X35243800Y-50035399D01*
X35243800Y-49265399D01*
X35543800Y-49265399D01*
X35543801Y-49265400D01*
X35963799Y-49265400D01*
X35963800Y-49265399D01*
X35963800Y-49178000D01*
X35963799Y-49177996D01*
X35961044Y-49148616D01*
X35917735Y-49024845D01*
X35839865Y-48919336D01*
X35839863Y-48919334D01*
X35734354Y-48841464D01*
X35610583Y-48798155D01*
X35581203Y-48795400D01*
X35543801Y-48795400D01*
X35543800Y-48795401D01*
X35543800Y-49265399D01*
X35243800Y-49265399D01*
X35243800Y-48795401D01*
X35243799Y-48795400D01*
X35206396Y-48795400D01*
X35177016Y-48798155D01*
X35053245Y-48841464D01*
X34947736Y-48919334D01*
X34947734Y-48919336D01*
X34899047Y-48985305D01*
X34849279Y-49020897D01*
X34788095Y-49020439D01*
X34749390Y-48996521D01*
X34704204Y-48951335D01*
X34704202Y-48951334D01*
X34704201Y-48951333D01*
X34596975Y-48901332D01*
X34564401Y-48897044D01*
X34548116Y-48894900D01*
X34199484Y-48894900D01*
X34183198Y-48897044D01*
X34150625Y-48901332D01*
X34150624Y-48901332D01*
X34043398Y-48951333D01*
X33959732Y-49034999D01*
X33954767Y-49042091D01*
X33953133Y-49040946D01*
X33919060Y-49077487D01*
X33871063Y-49089900D01*
X32428300Y-49089900D01*
X32370109Y-49070993D01*
X32334145Y-49021493D01*
X32329300Y-48990900D01*
X32329300Y-48750000D01*
X46034357Y-48750000D01*
X46054885Y-48971536D01*
X46115771Y-49185528D01*
X46214942Y-49384689D01*
X46349019Y-49562236D01*
X46513438Y-49712124D01*
X46702599Y-49829247D01*
X46910060Y-49909618D01*
X47128757Y-49950500D01*
X47351243Y-49950500D01*
X47569940Y-49909618D01*
X47777401Y-49829247D01*
X47873499Y-49769746D01*
X56039500Y-49769746D01*
X56039501Y-49769758D01*
X56051132Y-49828227D01*
X56051134Y-49828233D01*
X56095445Y-49894548D01*
X56095448Y-49894552D01*
X56161769Y-49938867D01*
X56206231Y-49947711D01*
X56220241Y-49950498D01*
X56220246Y-49950498D01*
X56220252Y-49950500D01*
X56220253Y-49950500D01*
X58259747Y-49950500D01*
X58259748Y-49950500D01*
X58318231Y-49938867D01*
X58384552Y-49894552D01*
X58428867Y-49828231D01*
X58440500Y-49769748D01*
X58440500Y-47730252D01*
X58428867Y-47671769D01*
X58384552Y-47605448D01*
X58366677Y-47593504D01*
X58318233Y-47561134D01*
X58318231Y-47561133D01*
X58318228Y-47561132D01*
X58318227Y-47561132D01*
X58259758Y-47549501D01*
X58259748Y-47549500D01*
X56220252Y-47549500D01*
X56220251Y-47549500D01*
X56220241Y-47549501D01*
X56161772Y-47561132D01*
X56161766Y-47561134D01*
X56095451Y-47605445D01*
X56095445Y-47605451D01*
X56051134Y-47671766D01*
X56051132Y-47671772D01*
X56039501Y-47730241D01*
X56039500Y-47730253D01*
X56039500Y-49769746D01*
X47873499Y-49769746D01*
X47966562Y-49712124D01*
X48130981Y-49562236D01*
X48265058Y-49384689D01*
X48364229Y-49185528D01*
X48425115Y-48971536D01*
X48445643Y-48750000D01*
X48425115Y-48528464D01*
X48364229Y-48314472D01*
X48265058Y-48115311D01*
X48130981Y-47937764D01*
X47966562Y-47787876D01*
X47777401Y-47670753D01*
X47569940Y-47590382D01*
X47569939Y-47590381D01*
X47569937Y-47590381D01*
X47351243Y-47549500D01*
X47128757Y-47549500D01*
X46910062Y-47590381D01*
X46870894Y-47605555D01*
X46702599Y-47670753D01*
X46527460Y-47779194D01*
X46513438Y-47787876D01*
X46401878Y-47889577D01*
X46349019Y-47937764D01*
X46336361Y-47954526D01*
X46214943Y-48115309D01*
X46214938Y-48115318D01*
X46132018Y-48281843D01*
X46115771Y-48314472D01*
X46054885Y-48528464D01*
X46034357Y-48750000D01*
X32329300Y-48750000D01*
X32329300Y-48682143D01*
X32328251Y-48674940D01*
X32319373Y-48614007D01*
X32317496Y-48610168D01*
X32267998Y-48508918D01*
X32267998Y-48508917D01*
X32185283Y-48426202D01*
X32178273Y-48422775D01*
X32080195Y-48374827D01*
X32052939Y-48370856D01*
X32012060Y-48364900D01*
X32012057Y-48364900D01*
X31779124Y-48364900D01*
X31720933Y-48345993D01*
X31709120Y-48335904D01*
X31455359Y-48082143D01*
X30642716Y-47269501D01*
X30614941Y-47214987D01*
X30624512Y-47154555D01*
X30667777Y-47111290D01*
X30712722Y-47100500D01*
X38699563Y-47100500D01*
X38699563Y-47100499D01*
X38775989Y-47080021D01*
X38844511Y-47040460D01*
X38900460Y-46984511D01*
X40272960Y-45612011D01*
X40289125Y-45584012D01*
X40312521Y-45543489D01*
X40333000Y-45467062D01*
X40333000Y-37038048D01*
X40351907Y-36979857D01*
X40401407Y-36943893D01*
X40412670Y-36940953D01*
X40435731Y-36936367D01*
X40502052Y-36892052D01*
X40502087Y-36891998D01*
X40502167Y-36891935D01*
X40508946Y-36885157D01*
X40509748Y-36885959D01*
X40550137Y-36854119D01*
X40584403Y-36848000D01*
X40597063Y-36848000D01*
X40597063Y-36847999D01*
X40673489Y-36827521D01*
X40742011Y-36787960D01*
X40797960Y-36732011D01*
X43400460Y-34129511D01*
X43440022Y-34060988D01*
X43460500Y-33984562D01*
X43460500Y-33905438D01*
X43460500Y-33441901D01*
X43479407Y-33383710D01*
X43528907Y-33347746D01*
X43559360Y-33342902D01*
X67030371Y-33311598D01*
X67088584Y-33330428D01*
G37*
%TD.AperFunction*%
%TA.AperFunction,Conductor*%
G36*
X14578393Y-60812950D02*
G01*
X14595398Y-60851826D01*
X14608967Y-60920042D01*
X14630639Y-60972364D01*
X14663692Y-61024969D01*
X14667269Y-61030661D01*
X14741857Y-61083583D01*
X14794183Y-61105257D01*
X14872824Y-61120900D01*
X14872825Y-61120900D01*
X15299300Y-61120900D01*
X15357491Y-61139807D01*
X15393455Y-61189307D01*
X15398300Y-61219899D01*
X15398300Y-61411759D01*
X15398301Y-61411767D01*
X15404905Y-61461938D01*
X15404905Y-61461940D01*
X15456247Y-61572042D01*
X15456248Y-61572043D01*
X15456249Y-61572045D01*
X15542155Y-61657951D01*
X15652261Y-61709294D01*
X15702437Y-61715900D01*
X18694324Y-61715899D01*
X18752515Y-61734806D01*
X18788479Y-61784306D01*
X18793324Y-61814899D01*
X18793324Y-61841400D01*
X18808967Y-61920042D01*
X18830639Y-61972364D01*
X18832582Y-61975457D01*
X18867269Y-62030661D01*
X18941857Y-62083583D01*
X18994183Y-62105257D01*
X19072824Y-62120900D01*
X19072825Y-62120900D01*
X19801857Y-62120900D01*
X19860048Y-62139807D01*
X19896012Y-62189307D01*
X19899823Y-62205628D01*
X19908712Y-62266649D01*
X19908715Y-62266657D01*
X19911290Y-62271925D01*
X19919858Y-62332508D01*
X19911290Y-62358875D01*
X19908713Y-62364146D01*
X19901246Y-62415400D01*
X20536299Y-62415400D01*
X20536300Y-62415399D01*
X20536300Y-62114900D01*
X20555207Y-62056709D01*
X20604707Y-62020745D01*
X20635300Y-62015900D01*
X20637300Y-62015900D01*
X20695491Y-62034807D01*
X20731455Y-62084307D01*
X20736300Y-62114900D01*
X20736300Y-62415399D01*
X20736301Y-62415400D01*
X21371353Y-62415400D01*
X21362788Y-62356606D01*
X21373109Y-62296297D01*
X21416907Y-62253572D01*
X21477453Y-62244752D01*
X21530758Y-62272329D01*
X22358340Y-63099911D01*
X22358339Y-63099911D01*
X22414289Y-63155860D01*
X22482807Y-63195419D01*
X22482811Y-63195421D01*
X22559235Y-63215899D01*
X22559237Y-63215900D01*
X22559238Y-63215900D01*
X22685883Y-63215900D01*
X22744074Y-63234807D01*
X22775606Y-63273059D01*
X22780576Y-63283716D01*
X22780577Y-63283717D01*
X22780579Y-63283721D01*
X22782367Y-63286275D01*
X22783504Y-63289994D01*
X22784237Y-63291566D01*
X22784016Y-63291668D01*
X22800256Y-63344786D01*
X22780335Y-63402638D01*
X22760063Y-63422710D01*
X22749165Y-63430753D01*
X22749158Y-63430760D01*
X22670394Y-63537479D01*
X22626587Y-63662672D01*
X22623800Y-63692399D01*
X22623800Y-63765399D01*
X22623801Y-63765400D01*
X23254800Y-63765400D01*
X23312991Y-63784307D01*
X23348955Y-63833807D01*
X23353800Y-63864400D01*
X23353800Y-63966400D01*
X23334893Y-64024591D01*
X23285393Y-64060555D01*
X23254800Y-64065400D01*
X22623802Y-64065400D01*
X22623801Y-64065401D01*
X22623801Y-64138401D01*
X22626586Y-64168121D01*
X22626587Y-64168126D01*
X22670394Y-64293320D01*
X22749158Y-64400039D01*
X22749164Y-64400045D01*
X22776808Y-64420448D01*
X22812400Y-64470216D01*
X22811942Y-64531400D01*
X22775608Y-64580629D01*
X22718019Y-64599102D01*
X19943794Y-64599102D01*
X19885603Y-64580195D01*
X19849639Y-64530695D01*
X19844830Y-64502756D01*
X19842211Y-64405112D01*
X19840662Y-64347335D01*
X19840874Y-64342917D01*
X19840504Y-64299223D01*
X19840500Y-64298385D01*
X19840500Y-64260369D01*
X19840384Y-64259541D01*
X19840279Y-64258764D01*
X19840173Y-64257965D01*
X19840154Y-64257896D01*
X19840154Y-64257893D01*
X19830031Y-64221357D01*
X19829825Y-64220600D01*
X19827024Y-64210146D01*
X19830227Y-64149044D01*
X19868733Y-64101495D01*
X19908379Y-64086558D01*
X19950050Y-64080487D01*
X20054988Y-64029185D01*
X20137586Y-63946587D01*
X20188887Y-63841648D01*
X20198800Y-63773615D01*
X20198800Y-63452901D01*
X20198799Y-63452900D01*
X19798300Y-63452900D01*
X19740109Y-63433993D01*
X19704145Y-63384493D01*
X19699300Y-63353900D01*
X19699300Y-63252899D01*
X19898800Y-63252899D01*
X19898801Y-63252900D01*
X20198798Y-63252900D01*
X20198799Y-63252899D01*
X20198799Y-63014399D01*
X20217706Y-62956208D01*
X20267206Y-62920244D01*
X20297799Y-62915399D01*
X20536299Y-62915399D01*
X20536300Y-62915398D01*
X20736300Y-62915398D01*
X20736301Y-62915399D01*
X21057013Y-62915399D01*
X21057016Y-62915398D01*
X21125050Y-62905487D01*
X21229988Y-62854185D01*
X21312586Y-62771587D01*
X21363887Y-62666648D01*
X21371354Y-62615400D01*
X20736301Y-62615400D01*
X20736300Y-62615401D01*
X20736300Y-62915398D01*
X20536300Y-62915398D01*
X20536300Y-62615401D01*
X20536299Y-62615400D01*
X19900689Y-62615400D01*
X19898800Y-62617289D01*
X19898800Y-63252899D01*
X19699300Y-63252899D01*
X19699300Y-62940726D01*
X19699276Y-62940483D01*
X19698800Y-62930784D01*
X19698800Y-62617845D01*
X19647551Y-62625312D01*
X19542612Y-62676613D01*
X19533322Y-62685904D01*
X19478805Y-62713681D01*
X19463318Y-62714900D01*
X19324126Y-62714900D01*
X19324125Y-62714900D01*
X19324115Y-62714901D01*
X19251063Y-62729433D01*
X19251061Y-62729433D01*
X19251060Y-62729434D01*
X19251059Y-62729434D01*
X19242051Y-62733166D01*
X19241216Y-62731151D01*
X19194912Y-62744211D01*
X19156186Y-62731627D01*
X19155549Y-62733166D01*
X19146542Y-62729435D01*
X19146540Y-62729434D01*
X19146536Y-62729433D01*
X19073484Y-62714901D01*
X19073474Y-62714900D01*
X18924126Y-62714900D01*
X18924125Y-62714900D01*
X18924115Y-62714901D01*
X18851063Y-62729433D01*
X18851061Y-62729433D01*
X18851060Y-62729434D01*
X18851059Y-62729434D01*
X18842051Y-62733166D01*
X18841216Y-62731151D01*
X18794912Y-62744211D01*
X18756186Y-62731627D01*
X18755549Y-62733166D01*
X18746542Y-62729435D01*
X18746540Y-62729434D01*
X18746536Y-62729433D01*
X18673484Y-62714901D01*
X18673474Y-62714900D01*
X18524126Y-62714900D01*
X18524125Y-62714900D01*
X18524115Y-62714901D01*
X18451063Y-62729433D01*
X18451061Y-62729433D01*
X18451060Y-62729434D01*
X18451059Y-62729434D01*
X18442051Y-62733166D01*
X18441216Y-62731151D01*
X18394912Y-62744211D01*
X18356186Y-62731627D01*
X18355549Y-62733166D01*
X18346542Y-62729435D01*
X18346540Y-62729434D01*
X18346536Y-62729433D01*
X18273484Y-62714901D01*
X18273474Y-62714900D01*
X18124126Y-62714900D01*
X18124125Y-62714900D01*
X18124115Y-62714901D01*
X18051063Y-62729433D01*
X18051061Y-62729433D01*
X18051060Y-62729434D01*
X18051059Y-62729434D01*
X18042051Y-62733166D01*
X18041216Y-62731151D01*
X17994912Y-62744211D01*
X17956186Y-62731627D01*
X17955549Y-62733166D01*
X17946542Y-62729435D01*
X17946540Y-62729434D01*
X17946536Y-62729433D01*
X17873484Y-62714901D01*
X17873474Y-62714900D01*
X17724126Y-62714900D01*
X17724125Y-62714900D01*
X17724115Y-62714901D01*
X17651063Y-62729433D01*
X17651061Y-62729433D01*
X17651060Y-62729434D01*
X17651059Y-62729434D01*
X17642051Y-62733166D01*
X17641216Y-62731151D01*
X17594912Y-62744211D01*
X17556186Y-62731627D01*
X17555549Y-62733166D01*
X17546542Y-62729435D01*
X17546540Y-62729434D01*
X17546536Y-62729433D01*
X17473484Y-62714901D01*
X17473474Y-62714900D01*
X17324126Y-62714900D01*
X17324125Y-62714900D01*
X17324115Y-62714901D01*
X17251063Y-62729433D01*
X17251061Y-62729433D01*
X17251060Y-62729434D01*
X17251059Y-62729434D01*
X17242051Y-62733166D01*
X17241216Y-62731151D01*
X17194912Y-62744211D01*
X17156186Y-62731627D01*
X17155549Y-62733166D01*
X17146542Y-62729435D01*
X17146540Y-62729434D01*
X17146536Y-62729433D01*
X17073484Y-62714901D01*
X17073474Y-62714900D01*
X16924126Y-62714900D01*
X16924125Y-62714900D01*
X16924115Y-62714901D01*
X16851063Y-62729433D01*
X16851061Y-62729433D01*
X16851060Y-62729434D01*
X16851059Y-62729434D01*
X16842051Y-62733166D01*
X16841216Y-62731151D01*
X16794912Y-62744211D01*
X16756186Y-62731627D01*
X16755549Y-62733166D01*
X16746542Y-62729435D01*
X16746540Y-62729434D01*
X16746536Y-62729433D01*
X16673484Y-62714901D01*
X16673474Y-62714900D01*
X16534282Y-62714900D01*
X16476091Y-62695993D01*
X16464278Y-62685904D01*
X16454987Y-62676613D01*
X16350046Y-62625311D01*
X16298800Y-62617843D01*
X16298800Y-62930784D01*
X16298324Y-62940483D01*
X16298300Y-62940726D01*
X16298300Y-64388851D01*
X16279393Y-64447042D01*
X16229893Y-64483006D01*
X16168707Y-64483006D01*
X16140515Y-64468509D01*
X16137921Y-64466595D01*
X16009028Y-64421493D01*
X15960348Y-64384428D01*
X15942751Y-64325827D01*
X15962959Y-64268076D01*
X15971716Y-64258052D01*
X16039260Y-64190509D01*
X16044254Y-64181858D01*
X16051567Y-64169194D01*
X16068394Y-64140047D01*
X16078821Y-64121987D01*
X16078823Y-64121978D01*
X16080658Y-64117550D01*
X16098800Y-64092414D01*
X16098800Y-64055847D01*
X16099300Y-64048222D01*
X16099300Y-62940726D01*
X16099276Y-62940483D01*
X16098800Y-62930784D01*
X16098800Y-62617845D01*
X16047551Y-62625312D01*
X15942612Y-62676613D01*
X15933322Y-62685904D01*
X15878805Y-62713681D01*
X15863318Y-62714900D01*
X15724126Y-62714900D01*
X15724125Y-62714900D01*
X15724115Y-62714901D01*
X15651063Y-62729433D01*
X15651061Y-62729433D01*
X15651060Y-62729434D01*
X15651059Y-62729434D01*
X15642051Y-62733166D01*
X15641216Y-62731151D01*
X15594912Y-62744211D01*
X15556186Y-62731627D01*
X15555549Y-62733166D01*
X15546542Y-62729435D01*
X15546540Y-62729434D01*
X15546536Y-62729433D01*
X15473484Y-62714901D01*
X15473474Y-62714900D01*
X15324126Y-62714900D01*
X15324125Y-62714900D01*
X15324115Y-62714901D01*
X15251063Y-62729433D01*
X15251061Y-62729433D01*
X15251060Y-62729434D01*
X15251059Y-62729434D01*
X15242051Y-62733166D01*
X15241216Y-62731151D01*
X15194912Y-62744211D01*
X15156186Y-62731627D01*
X15155549Y-62733166D01*
X15146542Y-62729435D01*
X15146540Y-62729434D01*
X15146536Y-62729433D01*
X15073484Y-62714901D01*
X15073474Y-62714900D01*
X14924126Y-62714900D01*
X14924125Y-62714900D01*
X14924115Y-62714901D01*
X14851063Y-62729433D01*
X14851061Y-62729433D01*
X14851060Y-62729434D01*
X14851059Y-62729434D01*
X14842051Y-62733166D01*
X14841216Y-62731151D01*
X14794912Y-62744211D01*
X14756186Y-62731627D01*
X14755549Y-62733166D01*
X14746542Y-62729435D01*
X14746540Y-62729434D01*
X14746536Y-62729433D01*
X14673484Y-62714901D01*
X14673474Y-62714900D01*
X14524126Y-62714900D01*
X14524120Y-62714900D01*
X14513621Y-62716989D01*
X14452860Y-62709797D01*
X14407930Y-62668263D01*
X14395994Y-62608254D01*
X14397207Y-62600595D01*
X14399300Y-62590074D01*
X14399300Y-62440726D01*
X14396495Y-62426627D01*
X14392335Y-62405712D01*
X14384766Y-62367660D01*
X14384762Y-62367655D01*
X14381033Y-62358648D01*
X14383048Y-62357813D01*
X14369989Y-62311520D01*
X14382573Y-62272789D01*
X14381033Y-62272152D01*
X14384761Y-62263146D01*
X14384766Y-62263140D01*
X14399300Y-62190074D01*
X14399300Y-62040726D01*
X14384766Y-61967660D01*
X14384762Y-61967655D01*
X14381033Y-61958648D01*
X14383048Y-61957813D01*
X14369989Y-61911520D01*
X14382573Y-61872789D01*
X14381033Y-61872152D01*
X14384761Y-61863146D01*
X14384766Y-61863140D01*
X14399300Y-61790074D01*
X14399300Y-61640726D01*
X14399165Y-61640049D01*
X14391099Y-61599500D01*
X14384766Y-61567660D01*
X14384762Y-61567655D01*
X14381033Y-61558648D01*
X14383048Y-61557813D01*
X14369989Y-61511520D01*
X14382573Y-61472789D01*
X14381033Y-61472152D01*
X14384761Y-61463146D01*
X14384766Y-61463140D01*
X14399300Y-61390074D01*
X14399300Y-61240726D01*
X14384766Y-61167660D01*
X14384762Y-61167655D01*
X14381033Y-61158648D01*
X14383048Y-61157813D01*
X14369989Y-61111520D01*
X14382573Y-61072789D01*
X14381033Y-61072152D01*
X14384761Y-61063146D01*
X14384766Y-61063140D01*
X14399300Y-60990074D01*
X14399300Y-60871141D01*
X14418207Y-60812950D01*
X14467707Y-60776986D01*
X14528893Y-60776986D01*
X14578393Y-60812950D01*
G37*
%TD.AperFunction*%
%TA.AperFunction,Conductor*%
G36*
X26743459Y-47119407D02*
G01*
X26779423Y-47168907D01*
X26779423Y-47230093D01*
X26755265Y-47269510D01*
X25748400Y-48276190D01*
X25748360Y-48276224D01*
X25710107Y-48314477D01*
X25665248Y-48359328D01*
X25643412Y-48412046D01*
X25643409Y-48412053D01*
X25623300Y-48460588D01*
X25623300Y-48526344D01*
X25623295Y-48580533D01*
X25623300Y-48580580D01*
X25623300Y-52060276D01*
X25604393Y-52118467D01*
X25594304Y-52130280D01*
X20738681Y-56985904D01*
X20684164Y-57013681D01*
X20668677Y-57014900D01*
X20296327Y-57014900D01*
X20238136Y-56995993D01*
X20202172Y-56946493D01*
X20198362Y-56901621D01*
X20198800Y-56898615D01*
X20198800Y-56577901D01*
X20198799Y-56577900D01*
X19898801Y-56577900D01*
X19898800Y-56577901D01*
X19898800Y-57212954D01*
X19905088Y-57218392D01*
X19945335Y-57225280D01*
X19988060Y-57269078D01*
X19998300Y-57312926D01*
X19998300Y-57390072D01*
X19998301Y-57390084D01*
X20005853Y-57428047D01*
X20012834Y-57463140D01*
X20012835Y-57463142D01*
X20016566Y-57472149D01*
X20014551Y-57472983D01*
X20027611Y-57519288D01*
X20015027Y-57558013D01*
X20016566Y-57558651D01*
X20012833Y-57567663D01*
X19998301Y-57640715D01*
X19998300Y-57640727D01*
X19998300Y-57790072D01*
X19998301Y-57790084D01*
X20012767Y-57862802D01*
X20012834Y-57863140D01*
X20012835Y-57863142D01*
X20016566Y-57872149D01*
X20014551Y-57872983D01*
X20027611Y-57919288D01*
X20015027Y-57958013D01*
X20016566Y-57958651D01*
X20012833Y-57967663D01*
X19998301Y-58040715D01*
X19998300Y-58040727D01*
X19998300Y-58190072D01*
X19998301Y-58190084D01*
X20009401Y-58245883D01*
X20012834Y-58263140D01*
X20012835Y-58263142D01*
X20016566Y-58272149D01*
X20014551Y-58272983D01*
X20027611Y-58319288D01*
X20015027Y-58358013D01*
X20016566Y-58358651D01*
X20012833Y-58367663D01*
X19998301Y-58440715D01*
X19998300Y-58440727D01*
X19998300Y-58590072D01*
X19998301Y-58590084D01*
X20006207Y-58629825D01*
X20012834Y-58663140D01*
X20012835Y-58663142D01*
X20016566Y-58672149D01*
X20014551Y-58672983D01*
X20027611Y-58719288D01*
X20015027Y-58758013D01*
X20016566Y-58758651D01*
X20012833Y-58767663D01*
X19998301Y-58840715D01*
X19998300Y-58840727D01*
X19998300Y-58990072D01*
X19998301Y-58990084D01*
X20012833Y-59063136D01*
X20012834Y-59063140D01*
X20012835Y-59063142D01*
X20016566Y-59072149D01*
X20014551Y-59072983D01*
X20027611Y-59119288D01*
X20015027Y-59158013D01*
X20016566Y-59158651D01*
X20012833Y-59167663D01*
X19998301Y-59240715D01*
X19998300Y-59240727D01*
X19998300Y-59390072D01*
X19998301Y-59390084D01*
X20012642Y-59462176D01*
X20012834Y-59463140D01*
X20012835Y-59463142D01*
X20016566Y-59472149D01*
X20014551Y-59472983D01*
X20027611Y-59519288D01*
X20015027Y-59558013D01*
X20016566Y-59558651D01*
X20012833Y-59567663D01*
X19998301Y-59640715D01*
X19998300Y-59640727D01*
X19998300Y-59779917D01*
X19979393Y-59838108D01*
X19969306Y-59849918D01*
X19960014Y-59859210D01*
X19908712Y-59964151D01*
X19901246Y-60015400D01*
X20214185Y-60015400D01*
X20223886Y-60015876D01*
X20224122Y-60015899D01*
X20224126Y-60015900D01*
X20596738Y-60015900D01*
X21551717Y-60015900D01*
X21609908Y-60034807D01*
X21626533Y-60050067D01*
X21667672Y-60097543D01*
X21718987Y-60130521D01*
X21777501Y-60168126D01*
X21788747Y-60175353D01*
X21864014Y-60197453D01*
X21926835Y-60215899D01*
X21926836Y-60215899D01*
X21926839Y-60215900D01*
X21926841Y-60215900D01*
X22070759Y-60215900D01*
X22070761Y-60215900D01*
X22208853Y-60175353D01*
X22329928Y-60097543D01*
X22371064Y-60050068D01*
X22423460Y-60018473D01*
X22445883Y-60015900D01*
X23143363Y-60015900D01*
X23143363Y-60015899D01*
X23219789Y-59995421D01*
X23288311Y-59955860D01*
X23328774Y-59915397D01*
X23344261Y-59899911D01*
X23437123Y-59807048D01*
X23481282Y-59762888D01*
X23535797Y-59735111D01*
X23596229Y-59744682D01*
X23621289Y-59762888D01*
X23623801Y-59765400D01*
X24254800Y-59765400D01*
X24312991Y-59784307D01*
X24348955Y-59833807D01*
X24353800Y-59864400D01*
X24353800Y-59966400D01*
X24334893Y-60024591D01*
X24285393Y-60060555D01*
X24254800Y-60065400D01*
X23623802Y-60065400D01*
X23623801Y-60065401D01*
X23623801Y-60138403D01*
X23626586Y-60168121D01*
X23626587Y-60168126D01*
X23670394Y-60293320D01*
X23745602Y-60395221D01*
X23764944Y-60453269D01*
X23746473Y-60511599D01*
X23735954Y-60524010D01*
X23726424Y-60533541D01*
X23671909Y-60561321D01*
X23611477Y-60551753D01*
X23586416Y-60533547D01*
X23504204Y-60451335D01*
X23504202Y-60451334D01*
X23504201Y-60451333D01*
X23396975Y-60401332D01*
X23364401Y-60397044D01*
X23348116Y-60394900D01*
X22999484Y-60394900D01*
X22983198Y-60397044D01*
X22950625Y-60401332D01*
X22950624Y-60401332D01*
X22843398Y-60451333D01*
X22759733Y-60534998D01*
X22749129Y-60557740D01*
X22707401Y-60602488D01*
X22659405Y-60614900D01*
X20635300Y-60614900D01*
X20577109Y-60595993D01*
X20541145Y-60546493D01*
X20536300Y-60515900D01*
X20536300Y-60415399D01*
X20736300Y-60415399D01*
X20736301Y-60415400D01*
X21371353Y-60415400D01*
X21363887Y-60364149D01*
X21361311Y-60358880D01*
X21352740Y-60298298D01*
X21361311Y-60271918D01*
X21363887Y-60266646D01*
X21371354Y-60215400D01*
X20736301Y-60215400D01*
X20736300Y-60215401D01*
X20736300Y-60415399D01*
X20536300Y-60415399D01*
X20536300Y-60215401D01*
X20536299Y-60215400D01*
X19901246Y-60215400D01*
X19908711Y-60266649D01*
X19908712Y-60266651D01*
X19911290Y-60271925D01*
X19919858Y-60332508D01*
X19911286Y-60358885D01*
X19910513Y-60360466D01*
X19867967Y-60404438D01*
X19807701Y-60415004D01*
X19752734Y-60388129D01*
X19731521Y-60358109D01*
X19724177Y-60342027D01*
X19629928Y-60233257D01*
X19629927Y-60233256D01*
X19628504Y-60231614D01*
X19604687Y-60175254D01*
X19604324Y-60166783D01*
X19604324Y-57789401D01*
X19604324Y-57789400D01*
X19588681Y-57710759D01*
X19577844Y-57684596D01*
X19567008Y-57658435D01*
X19530379Y-57600139D01*
X19455790Y-57547216D01*
X19431588Y-57537192D01*
X19403465Y-57525543D01*
X19324824Y-57509900D01*
X15072824Y-57509900D01*
X15072823Y-57509900D01*
X14994181Y-57525543D01*
X14941859Y-57547215D01*
X14883563Y-57583844D01*
X14830640Y-57658433D01*
X14808967Y-57710760D01*
X14793324Y-57789399D01*
X14793324Y-58629825D01*
X14806280Y-58701637D01*
X14824354Y-58750096D01*
X14861591Y-58812856D01*
X14880104Y-58834221D01*
X14895335Y-58857923D01*
X14912780Y-58896122D01*
X14920719Y-58923157D01*
X14926694Y-58964709D01*
X14926694Y-58992891D01*
X14920719Y-59034443D01*
X14912780Y-59061479D01*
X14895337Y-59099673D01*
X14880107Y-59123373D01*
X14861590Y-59144745D01*
X14824354Y-59207501D01*
X14824352Y-59207505D01*
X14806280Y-59255961D01*
X14793324Y-59327773D01*
X14793324Y-59860342D01*
X14774417Y-59918533D01*
X14744764Y-59944011D01*
X14745386Y-59945000D01*
X14741858Y-59947216D01*
X14741857Y-59947217D01*
X14697689Y-59974969D01*
X14683563Y-59983845D01*
X14667493Y-60006493D01*
X14618399Y-60043008D01*
X14557217Y-60043693D01*
X14507318Y-60008286D01*
X14491998Y-59971232D01*
X14491156Y-59971493D01*
X14488887Y-59964150D01*
X14437585Y-59859210D01*
X14437583Y-59859208D01*
X14428294Y-59849918D01*
X14400518Y-59795401D01*
X14399300Y-59779917D01*
X14399300Y-59640727D01*
X14399298Y-59640715D01*
X14390213Y-59595043D01*
X14384766Y-59567660D01*
X14384762Y-59567655D01*
X14381033Y-59558648D01*
X14383048Y-59557813D01*
X14369989Y-59511520D01*
X14382573Y-59472789D01*
X14381033Y-59472152D01*
X14384761Y-59463146D01*
X14384766Y-59463140D01*
X14399300Y-59390074D01*
X14399300Y-59240726D01*
X14384766Y-59167660D01*
X14384762Y-59167655D01*
X14381033Y-59158648D01*
X14383048Y-59157813D01*
X14369989Y-59111520D01*
X14382573Y-59072789D01*
X14381033Y-59072152D01*
X14384761Y-59063146D01*
X14384766Y-59063140D01*
X14399300Y-58990074D01*
X14399300Y-58840726D01*
X14398005Y-58834218D01*
X14393756Y-58812853D01*
X14384766Y-58767660D01*
X14384762Y-58767655D01*
X14381033Y-58758648D01*
X14383048Y-58757813D01*
X14369989Y-58711520D01*
X14382573Y-58672789D01*
X14381033Y-58672152D01*
X14384761Y-58663146D01*
X14384766Y-58663140D01*
X14399300Y-58590074D01*
X14399300Y-58440726D01*
X14384766Y-58367660D01*
X14384762Y-58367655D01*
X14381033Y-58358648D01*
X14383048Y-58357813D01*
X14369989Y-58311520D01*
X14382573Y-58272789D01*
X14381033Y-58272152D01*
X14384761Y-58263146D01*
X14384766Y-58263140D01*
X14399300Y-58190074D01*
X14399300Y-58040726D01*
X14384766Y-57967660D01*
X14384762Y-57967655D01*
X14381033Y-57958648D01*
X14383048Y-57957813D01*
X14369989Y-57911520D01*
X14382573Y-57872789D01*
X14381033Y-57872152D01*
X14384761Y-57863146D01*
X14384766Y-57863140D01*
X14399300Y-57790074D01*
X14399300Y-57640726D01*
X14398703Y-57637727D01*
X14394007Y-57614119D01*
X14384766Y-57567660D01*
X14384762Y-57567655D01*
X14381033Y-57558648D01*
X14383048Y-57557813D01*
X14369989Y-57511520D01*
X14382573Y-57472789D01*
X14381033Y-57472152D01*
X14384761Y-57463146D01*
X14384766Y-57463140D01*
X14399300Y-57390074D01*
X14399300Y-57240726D01*
X14397211Y-57230225D01*
X14404400Y-57169465D01*
X14445930Y-57124533D01*
X14505939Y-57112594D01*
X14513612Y-57113808D01*
X14524126Y-57115900D01*
X14524127Y-57115900D01*
X14673473Y-57115900D01*
X14673474Y-57115900D01*
X14746540Y-57101366D01*
X14746546Y-57101361D01*
X14755552Y-57097633D01*
X14756386Y-57099648D01*
X14802680Y-57086589D01*
X14841410Y-57099173D01*
X14842048Y-57097633D01*
X14851055Y-57101362D01*
X14851060Y-57101366D01*
X14901554Y-57111410D01*
X14924115Y-57115898D01*
X14924120Y-57115898D01*
X14924126Y-57115900D01*
X14924127Y-57115900D01*
X15073473Y-57115900D01*
X15073474Y-57115900D01*
X15146540Y-57101366D01*
X15146546Y-57101361D01*
X15155552Y-57097633D01*
X15156386Y-57099648D01*
X15202680Y-57086589D01*
X15241410Y-57099173D01*
X15242048Y-57097633D01*
X15251055Y-57101362D01*
X15251060Y-57101366D01*
X15301554Y-57111410D01*
X15324115Y-57115898D01*
X15324120Y-57115898D01*
X15324126Y-57115900D01*
X15324127Y-57115900D01*
X15473473Y-57115900D01*
X15473474Y-57115900D01*
X15546540Y-57101366D01*
X15546546Y-57101361D01*
X15555552Y-57097633D01*
X15556386Y-57099648D01*
X15602680Y-57086589D01*
X15641410Y-57099173D01*
X15642048Y-57097633D01*
X15651055Y-57101362D01*
X15651060Y-57101366D01*
X15701554Y-57111410D01*
X15724115Y-57115898D01*
X15724120Y-57115898D01*
X15724126Y-57115900D01*
X15724127Y-57115900D01*
X15863318Y-57115900D01*
X15921509Y-57134807D01*
X15933322Y-57144896D01*
X15942612Y-57154186D01*
X16047551Y-57205487D01*
X16098800Y-57212954D01*
X16098800Y-56900013D01*
X16099277Y-56890304D01*
X16099299Y-56890077D01*
X16099300Y-56890074D01*
X16099300Y-56065726D01*
X16099300Y-54672999D01*
X16118207Y-54614808D01*
X16167707Y-54578844D01*
X16189035Y-54574434D01*
X16190035Y-54574340D01*
X16249740Y-54587718D01*
X16290178Y-54633635D01*
X16298300Y-54672905D01*
X16298300Y-56065726D01*
X16298300Y-56890074D01*
X16298300Y-56890077D01*
X16298323Y-56890304D01*
X16298800Y-56900013D01*
X16298800Y-57212953D01*
X16350052Y-57205486D01*
X16454988Y-57154186D01*
X16454989Y-57154185D01*
X16464276Y-57144899D01*
X16518792Y-57117119D01*
X16534282Y-57115900D01*
X16673473Y-57115900D01*
X16673474Y-57115900D01*
X16746540Y-57101366D01*
X16746546Y-57101361D01*
X16755552Y-57097633D01*
X16756386Y-57099648D01*
X16802680Y-57086589D01*
X16841410Y-57099173D01*
X16842048Y-57097633D01*
X16851055Y-57101362D01*
X16851060Y-57101366D01*
X16901554Y-57111410D01*
X16924115Y-57115898D01*
X16924120Y-57115898D01*
X16924126Y-57115900D01*
X16924127Y-57115900D01*
X17073473Y-57115900D01*
X17073474Y-57115900D01*
X17146540Y-57101366D01*
X17146546Y-57101361D01*
X17155552Y-57097633D01*
X17156386Y-57099648D01*
X17202680Y-57086589D01*
X17241410Y-57099173D01*
X17242048Y-57097633D01*
X17251055Y-57101362D01*
X17251060Y-57101366D01*
X17301554Y-57111410D01*
X17324115Y-57115898D01*
X17324120Y-57115898D01*
X17324126Y-57115900D01*
X17324127Y-57115900D01*
X17473473Y-57115900D01*
X17473474Y-57115900D01*
X17546540Y-57101366D01*
X17546546Y-57101361D01*
X17555552Y-57097633D01*
X17556386Y-57099648D01*
X17602680Y-57086589D01*
X17641410Y-57099173D01*
X17642048Y-57097633D01*
X17651055Y-57101362D01*
X17651060Y-57101366D01*
X17701554Y-57111410D01*
X17724115Y-57115898D01*
X17724120Y-57115898D01*
X17724126Y-57115900D01*
X17724127Y-57115900D01*
X17873473Y-57115900D01*
X17873474Y-57115900D01*
X17946540Y-57101366D01*
X17946546Y-57101361D01*
X17955552Y-57097633D01*
X17956386Y-57099648D01*
X18002680Y-57086589D01*
X18041410Y-57099173D01*
X18042048Y-57097633D01*
X18051055Y-57101362D01*
X18051060Y-57101366D01*
X18101554Y-57111410D01*
X18124115Y-57115898D01*
X18124120Y-57115898D01*
X18124126Y-57115900D01*
X18124127Y-57115900D01*
X18273473Y-57115900D01*
X18273474Y-57115900D01*
X18346540Y-57101366D01*
X18346546Y-57101361D01*
X18355552Y-57097633D01*
X18356386Y-57099648D01*
X18402680Y-57086589D01*
X18441410Y-57099173D01*
X18442048Y-57097633D01*
X18451055Y-57101362D01*
X18451060Y-57101366D01*
X18501554Y-57111410D01*
X18524115Y-57115898D01*
X18524120Y-57115898D01*
X18524126Y-57115900D01*
X18524127Y-57115900D01*
X18673473Y-57115900D01*
X18673474Y-57115900D01*
X18746540Y-57101366D01*
X18746546Y-57101361D01*
X18755552Y-57097633D01*
X18756386Y-57099648D01*
X18802680Y-57086589D01*
X18841410Y-57099173D01*
X18842048Y-57097633D01*
X18851055Y-57101362D01*
X18851060Y-57101366D01*
X18901554Y-57111410D01*
X18924115Y-57115898D01*
X18924120Y-57115898D01*
X18924126Y-57115900D01*
X18924127Y-57115900D01*
X19073473Y-57115900D01*
X19073474Y-57115900D01*
X19146540Y-57101366D01*
X19146546Y-57101361D01*
X19155552Y-57097633D01*
X19156386Y-57099648D01*
X19202680Y-57086589D01*
X19241410Y-57099173D01*
X19242048Y-57097633D01*
X19251055Y-57101362D01*
X19251060Y-57101366D01*
X19301554Y-57111410D01*
X19324115Y-57115898D01*
X19324120Y-57115898D01*
X19324126Y-57115900D01*
X19324127Y-57115900D01*
X19463318Y-57115900D01*
X19521509Y-57134807D01*
X19533322Y-57144896D01*
X19542612Y-57154186D01*
X19647551Y-57205487D01*
X19698800Y-57212954D01*
X19698800Y-56900013D01*
X19699277Y-56890304D01*
X19699299Y-56890077D01*
X19699300Y-56890074D01*
X19699300Y-56065726D01*
X19699300Y-55742843D01*
X19898800Y-55742843D01*
X19898800Y-56377899D01*
X19898801Y-56377900D01*
X20198798Y-56377900D01*
X20198799Y-56377899D01*
X20198799Y-56057186D01*
X20198798Y-56057183D01*
X20188887Y-55989149D01*
X20137585Y-55884211D01*
X20054987Y-55801613D01*
X19950046Y-55750311D01*
X19898800Y-55742843D01*
X19699300Y-55742843D01*
X19699300Y-55323003D01*
X19980001Y-55323003D01*
X19982786Y-55352721D01*
X19982787Y-55352726D01*
X20026594Y-55477920D01*
X20105358Y-55584639D01*
X20105360Y-55584641D01*
X20212079Y-55663405D01*
X20337272Y-55707212D01*
X20366999Y-55709999D01*
X20439999Y-55709998D01*
X20440000Y-55709998D01*
X20740000Y-55709998D01*
X20740001Y-55709999D01*
X20813004Y-55709999D01*
X20842721Y-55707213D01*
X20842726Y-55707212D01*
X20967920Y-55663405D01*
X21074639Y-55584641D01*
X21074641Y-55584639D01*
X21153405Y-55477920D01*
X21197212Y-55352727D01*
X21200000Y-55323000D01*
X21200000Y-55280001D01*
X21199999Y-55280000D01*
X20740001Y-55280000D01*
X20740000Y-55280001D01*
X20740000Y-55709998D01*
X20440000Y-55709998D01*
X20440000Y-55280001D01*
X20439999Y-55280000D01*
X19980002Y-55280000D01*
X19980001Y-55280001D01*
X19980001Y-55323003D01*
X19699300Y-55323003D01*
X19699300Y-53948859D01*
X19718207Y-53890668D01*
X19728290Y-53878862D01*
X19970833Y-53636318D01*
X20025348Y-53608542D01*
X20085780Y-53618113D01*
X20129045Y-53661378D01*
X20130887Y-53665194D01*
X20134621Y-53673370D01*
X20134622Y-53673371D01*
X20134623Y-53673373D01*
X20148757Y-53689685D01*
X20172574Y-53746044D01*
X20158715Y-53805639D01*
X20143943Y-53824516D01*
X20136777Y-53831682D01*
X20136774Y-53831686D01*
X20086029Y-53940510D01*
X20086028Y-53940511D01*
X20079500Y-53990100D01*
X20079500Y-54349895D01*
X20079501Y-54349907D01*
X20086027Y-54399486D01*
X20086027Y-54399488D01*
X20136774Y-54508313D01*
X20136775Y-54508314D01*
X20136776Y-54508316D01*
X20138201Y-54509741D01*
X20139342Y-54511981D01*
X20141744Y-54515411D01*
X20141261Y-54515748D01*
X20165977Y-54564256D01*
X20156406Y-54624688D01*
X20126986Y-54659397D01*
X20105362Y-54675356D01*
X20105358Y-54675360D01*
X20026594Y-54782079D01*
X19982787Y-54907272D01*
X19980000Y-54936999D01*
X19980000Y-54979999D01*
X19980001Y-54980000D01*
X21199998Y-54980000D01*
X21199999Y-54979999D01*
X21199999Y-54936996D01*
X21197213Y-54907278D01*
X21197212Y-54907273D01*
X21153405Y-54782079D01*
X21074641Y-54675360D01*
X21074639Y-54675358D01*
X21053014Y-54659398D01*
X21017422Y-54609630D01*
X21017880Y-54548446D01*
X21038284Y-54515430D01*
X21038256Y-54515411D01*
X21038597Y-54514922D01*
X21041802Y-54509737D01*
X21043224Y-54508316D01*
X21093972Y-54399487D01*
X21100500Y-54349901D01*
X21100499Y-53990100D01*
X21093972Y-53940513D01*
X21093972Y-53940511D01*
X21043225Y-53831686D01*
X21043224Y-53831685D01*
X21043224Y-53831684D01*
X21002482Y-53790942D01*
X20974707Y-53736428D01*
X20983590Y-53680340D01*
X20982436Y-53679813D01*
X21010614Y-53618113D01*
X21045165Y-53542457D01*
X21051992Y-53494971D01*
X21065647Y-53400002D01*
X21065647Y-53399997D01*
X21045165Y-53257543D01*
X20985377Y-53126628D01*
X20985377Y-53126627D01*
X20891128Y-53017857D01*
X20891127Y-53017856D01*
X20891126Y-53017855D01*
X20810731Y-52966189D01*
X20772000Y-52918823D01*
X20768506Y-52857738D01*
X20794248Y-52812903D01*
X26477657Y-47129496D01*
X26532174Y-47101719D01*
X26547661Y-47100500D01*
X26685268Y-47100500D01*
X26743459Y-47119407D01*
G37*
%TD.AperFunction*%
%TA.AperFunction,Conductor*%
G36*
X11920060Y-59959192D02*
G01*
X11982811Y-59995421D01*
X12059235Y-60015899D01*
X12059237Y-60015900D01*
X13762300Y-60015900D01*
X13820491Y-60034807D01*
X13856455Y-60084307D01*
X13861300Y-60114900D01*
X13861300Y-60115900D01*
X13842393Y-60174091D01*
X13792893Y-60210055D01*
X13762300Y-60214900D01*
X12238362Y-60214900D01*
X12159238Y-60214900D01*
X12139818Y-60220102D01*
X12086309Y-60219465D01*
X12070763Y-60214900D01*
X12070761Y-60214900D01*
X11926839Y-60214900D01*
X11926837Y-60214900D01*
X11900688Y-60222578D01*
X11839528Y-60220829D01*
X11791076Y-60183465D01*
X11773799Y-60127587D01*
X11773799Y-60073400D01*
X11771996Y-60054172D01*
X11785389Y-59994471D01*
X11831315Y-59954043D01*
X11892233Y-59948331D01*
X11920060Y-59959192D01*
G37*
%TD.AperFunction*%
%TA.AperFunction,Conductor*%
G36*
X6096684Y-33411773D02*
G01*
X6132714Y-33461225D01*
X6137600Y-33491943D01*
X6137600Y-36192664D01*
X6158078Y-36269087D01*
X6158079Y-36269089D01*
X6166989Y-36284521D01*
X6191945Y-36327747D01*
X6191947Y-36327750D01*
X6197640Y-36337611D01*
X6444539Y-36584511D01*
X6478936Y-36618907D01*
X6500489Y-36640460D01*
X6542832Y-36664907D01*
X6583772Y-36710374D01*
X6590169Y-36771224D01*
X6588862Y-36776625D01*
X6587909Y-36780126D01*
X6585000Y-36805202D01*
X6585000Y-36899999D01*
X6585001Y-36900000D01*
X7261000Y-36900000D01*
X7319191Y-36918907D01*
X7355155Y-36968407D01*
X7360000Y-36999000D01*
X7360000Y-37549998D01*
X7360001Y-37549999D01*
X7579790Y-37549999D01*
X7579791Y-37549998D01*
X7604874Y-37547090D01*
X7604876Y-37547089D01*
X7620511Y-37540186D01*
X7681380Y-37533977D01*
X7734274Y-37564732D01*
X7758989Y-37620704D01*
X7759500Y-37630750D01*
X7759500Y-42839564D01*
X7779978Y-42915988D01*
X7779980Y-42915992D01*
X7819538Y-42984508D01*
X7819540Y-42984511D01*
X10127187Y-45292158D01*
X12429453Y-47594424D01*
X12457230Y-47648941D01*
X12457441Y-47678514D01*
X12454354Y-47699997D01*
X12454353Y-47700002D01*
X12474834Y-47842456D01*
X12517381Y-47935619D01*
X12534623Y-47973373D01*
X12628872Y-48082143D01*
X12628873Y-48082144D01*
X12680493Y-48115318D01*
X12749947Y-48159953D01*
X12856403Y-48191211D01*
X12888035Y-48200499D01*
X12888036Y-48200499D01*
X12888039Y-48200500D01*
X12888041Y-48200500D01*
X13031959Y-48200500D01*
X13031961Y-48200500D01*
X13170053Y-48159953D01*
X13291128Y-48082143D01*
X13385377Y-47973373D01*
X13445165Y-47842457D01*
X13459236Y-47744592D01*
X13465647Y-47700002D01*
X13465647Y-47699997D01*
X13445165Y-47557543D01*
X13441492Y-47549500D01*
X13385377Y-47426627D01*
X13291128Y-47317857D01*
X13291127Y-47317856D01*
X13286491Y-47312506D01*
X13287529Y-47311606D01*
X13286419Y-47309767D01*
X13269648Y-47304052D01*
X13170057Y-47240049D01*
X13170054Y-47240047D01*
X13170053Y-47240047D01*
X13170050Y-47240046D01*
X13031964Y-47199500D01*
X13031961Y-47199500D01*
X12925479Y-47199500D01*
X12867288Y-47180593D01*
X12855475Y-47170504D01*
X8389496Y-42704525D01*
X8361719Y-42650008D01*
X8360500Y-42634521D01*
X8360500Y-42069107D01*
X8379407Y-42010916D01*
X8428907Y-41974952D01*
X8490093Y-41974952D01*
X8529504Y-41999103D01*
X13188941Y-46658540D01*
X13216718Y-46713057D01*
X13216929Y-46742630D01*
X13213842Y-46764113D01*
X13213841Y-46764118D01*
X13234322Y-46906572D01*
X13290656Y-47029924D01*
X13294111Y-47037489D01*
X13388360Y-47146259D01*
X13392997Y-47151610D01*
X13391957Y-47152510D01*
X13393065Y-47154346D01*
X13409839Y-47160063D01*
X13497531Y-47216419D01*
X13509435Y-47224069D01*
X13563859Y-47240049D01*
X13647523Y-47264615D01*
X13647524Y-47264615D01*
X13647527Y-47264616D01*
X13647529Y-47264616D01*
X13791447Y-47264616D01*
X13791449Y-47264616D01*
X13929541Y-47224069D01*
X14050616Y-47146259D01*
X14144865Y-47037489D01*
X14204653Y-46906573D01*
X14225135Y-46764116D01*
X14204653Y-46621659D01*
X14144865Y-46490743D01*
X14050616Y-46381973D01*
X14050615Y-46381972D01*
X14050614Y-46381971D01*
X13929545Y-46304165D01*
X13929542Y-46304163D01*
X13929541Y-46304163D01*
X13929538Y-46304162D01*
X13791452Y-46263616D01*
X13791449Y-46263616D01*
X13684967Y-46263616D01*
X13626776Y-46244709D01*
X13614963Y-46234620D01*
X8789496Y-41409153D01*
X8761719Y-41354636D01*
X8760500Y-41339149D01*
X8760500Y-40064478D01*
X8779407Y-40006287D01*
X8828907Y-39970323D01*
X8890093Y-39970323D01*
X8929501Y-39994472D01*
X12205533Y-43270504D01*
X15229453Y-46294424D01*
X15257230Y-46348941D01*
X15257442Y-46378515D01*
X15254353Y-46400002D01*
X15274834Y-46542456D01*
X15334622Y-46673371D01*
X15334623Y-46673373D01*
X15415495Y-46766705D01*
X15428873Y-46782144D01*
X15549942Y-46859950D01*
X15549947Y-46859953D01*
X15656403Y-46891211D01*
X15688035Y-46900499D01*
X15688036Y-46900499D01*
X15688039Y-46900500D01*
X15688041Y-46900500D01*
X15831959Y-46900500D01*
X15831961Y-46900500D01*
X15970053Y-46859953D01*
X16091128Y-46782143D01*
X16160681Y-46701872D01*
X16213076Y-46670278D01*
X16274037Y-46675513D01*
X16320278Y-46715581D01*
X16334500Y-46766705D01*
X16334500Y-46971733D01*
X16315593Y-47029924D01*
X16298543Y-47048065D01*
X15681797Y-47557439D01*
X15675060Y-47562536D01*
X15656561Y-47575326D01*
X15656556Y-47575331D01*
X15653811Y-47578564D01*
X15641410Y-47590796D01*
X15638142Y-47593494D01*
X15638133Y-47593504D01*
X15625088Y-47611829D01*
X15619899Y-47618496D01*
X15556552Y-47693088D01*
X15551096Y-47699008D01*
X12354278Y-50895827D01*
X12333692Y-50906315D01*
X12314709Y-50935395D01*
X12189289Y-51060816D01*
X12133339Y-51116766D01*
X12093780Y-51185284D01*
X12093778Y-51185288D01*
X12073300Y-51261712D01*
X12073300Y-57579536D01*
X12054393Y-57637727D01*
X12004893Y-57673691D01*
X11943707Y-57673691D01*
X11904296Y-57649540D01*
X10783320Y-56528564D01*
X10755543Y-56474047D01*
X10754324Y-56458560D01*
X10754324Y-49958303D01*
X10773231Y-49900112D01*
X10822731Y-49864148D01*
X10883917Y-49864148D01*
X10923328Y-49888299D01*
X11329453Y-50294424D01*
X11357230Y-50348941D01*
X11357441Y-50378514D01*
X11354354Y-50399997D01*
X11354353Y-50400002D01*
X11374834Y-50542456D01*
X11430332Y-50663977D01*
X11434623Y-50673373D01*
X11510545Y-50760992D01*
X11528873Y-50782144D01*
X11649942Y-50859950D01*
X11649947Y-50859953D01*
X11744446Y-50887700D01*
X11788035Y-50900499D01*
X11788036Y-50900499D01*
X11788039Y-50900500D01*
X11788041Y-50900500D01*
X11931959Y-50900500D01*
X11931961Y-50900500D01*
X12070053Y-50859953D01*
X12191128Y-50782143D01*
X12191129Y-50782140D01*
X12191181Y-50782108D01*
X12200806Y-50779577D01*
X12209455Y-50760992D01*
X12285377Y-50673373D01*
X12345165Y-50542457D01*
X12353726Y-50482915D01*
X12365647Y-50400002D01*
X12365647Y-50399997D01*
X12345165Y-50257543D01*
X12328879Y-50221883D01*
X12285377Y-50126627D01*
X12191128Y-50017857D01*
X12191127Y-50017856D01*
X12191126Y-50017855D01*
X12070057Y-49940049D01*
X12070054Y-49940047D01*
X12070053Y-49940047D01*
X12070050Y-49940046D01*
X11931964Y-49899500D01*
X11931961Y-49899500D01*
X11825479Y-49899500D01*
X11767288Y-49880593D01*
X11755475Y-49870504D01*
X3589496Y-41704525D01*
X3561719Y-41650008D01*
X3560500Y-41634521D01*
X3560500Y-40891915D01*
X3579407Y-40833724D01*
X3628907Y-40797760D01*
X3690093Y-40797760D01*
X3739593Y-40833724D01*
X3745235Y-40842413D01*
X3755642Y-40860438D01*
X3769540Y-40884511D01*
X7879453Y-44994424D01*
X11879453Y-48994424D01*
X11907230Y-49048941D01*
X11907441Y-49078514D01*
X11904354Y-49099997D01*
X11904353Y-49100002D01*
X11924834Y-49242456D01*
X11961934Y-49323692D01*
X11984623Y-49373373D01*
X12010263Y-49402963D01*
X12078873Y-49482144D01*
X12199127Y-49559426D01*
X12199947Y-49559953D01*
X12306403Y-49591211D01*
X12338035Y-49600499D01*
X12338036Y-49600499D01*
X12338039Y-49600500D01*
X12338041Y-49600500D01*
X12481959Y-49600500D01*
X12481961Y-49600500D01*
X12620053Y-49559953D01*
X12741128Y-49482143D01*
X12835377Y-49373373D01*
X12895165Y-49242457D01*
X12909576Y-49142227D01*
X12915647Y-49100002D01*
X12915647Y-49099997D01*
X12895165Y-48957543D01*
X12869494Y-48901332D01*
X12835377Y-48826627D01*
X12741128Y-48717857D01*
X12741127Y-48717856D01*
X12741126Y-48717855D01*
X12620057Y-48640049D01*
X12620054Y-48640047D01*
X12620053Y-48640047D01*
X12620050Y-48640046D01*
X12481964Y-48599500D01*
X12481961Y-48599500D01*
X12375479Y-48599500D01*
X12317288Y-48580593D01*
X12305475Y-48570504D01*
X4339496Y-40604525D01*
X4311719Y-40550008D01*
X4310500Y-40534521D01*
X4310500Y-37540548D01*
X4329407Y-37482357D01*
X4378907Y-37446393D01*
X4390170Y-37443453D01*
X4413231Y-37438867D01*
X4479552Y-37394552D01*
X4523466Y-37328830D01*
X4556283Y-37298096D01*
X4562008Y-37294791D01*
X6585001Y-37294791D01*
X6587909Y-37319874D01*
X6633213Y-37422477D01*
X6712522Y-37501786D01*
X6815127Y-37547090D01*
X6840203Y-37549999D01*
X7059998Y-37549999D01*
X7060000Y-37549998D01*
X7060000Y-37200001D01*
X7059999Y-37200000D01*
X6585002Y-37200000D01*
X6585001Y-37200001D01*
X6585001Y-37294791D01*
X4562008Y-37294791D01*
X4569511Y-37290460D01*
X4625460Y-37234511D01*
X5415260Y-36444711D01*
X5430833Y-36417738D01*
X5431602Y-36416407D01*
X5446565Y-36390489D01*
X5454821Y-36376189D01*
X5475300Y-36299762D01*
X5475300Y-33492562D01*
X5494207Y-33434371D01*
X5543707Y-33398407D01*
X5574163Y-33393562D01*
X6038469Y-33392943D01*
X6096684Y-33411773D01*
G37*
%TD.AperFunction*%
%TA.AperFunction,Conductor*%
G36*
X17319191Y-36718907D02*
G01*
X17355155Y-36768407D01*
X17360000Y-36799000D01*
X17360000Y-37349998D01*
X17360001Y-37349999D01*
X17385500Y-37349999D01*
X17443691Y-37368906D01*
X17479655Y-37418406D01*
X17484500Y-37448999D01*
X17484500Y-47819573D01*
X17465593Y-47877764D01*
X17455504Y-47889577D01*
X17419551Y-47925530D01*
X17365034Y-47953307D01*
X17349547Y-47954526D01*
X16420127Y-47954526D01*
X16361936Y-47935619D01*
X16325972Y-47886119D01*
X16325972Y-47824933D01*
X16357084Y-47779194D01*
X16625581Y-47557439D01*
X16800619Y-47412873D01*
X16814164Y-47403468D01*
X16819511Y-47400382D01*
X16834048Y-47385844D01*
X16841008Y-47379515D01*
X16856861Y-47366424D01*
X16860441Y-47361393D01*
X16871094Y-47348797D01*
X16875460Y-47344433D01*
X16885746Y-47326615D01*
X16890810Y-47318733D01*
X16902748Y-47301965D01*
X16904904Y-47296180D01*
X16911935Y-47281255D01*
X16915021Y-47275911D01*
X16920346Y-47256033D01*
X16923198Y-47247110D01*
X16930388Y-47227828D01*
X16930973Y-47221681D01*
X16933899Y-47205454D01*
X16935500Y-47199484D01*
X16935500Y-47178919D01*
X16935947Y-47169522D01*
X16937898Y-47149060D01*
X16936873Y-47142969D01*
X16935500Y-47126539D01*
X16935500Y-37448999D01*
X16954407Y-37390808D01*
X17003907Y-37354844D01*
X17034500Y-37349999D01*
X17059999Y-37349999D01*
X17060000Y-37349998D01*
X17060000Y-36799000D01*
X17078907Y-36740809D01*
X17128407Y-36704845D01*
X17159000Y-36700000D01*
X17261000Y-36700000D01*
X17319191Y-36718907D01*
G37*
%TD.AperFunction*%
%TA.AperFunction,Conductor*%
G36*
X38241691Y-36416407D02*
G01*
X38277655Y-36465907D01*
X38282500Y-36496500D01*
X38282500Y-37047498D01*
X38282501Y-37047499D01*
X38308000Y-37047499D01*
X38366191Y-37066406D01*
X38402155Y-37115906D01*
X38407000Y-37146499D01*
X38407000Y-45487021D01*
X38388093Y-45545212D01*
X38378004Y-45557025D01*
X38164525Y-45770504D01*
X38110008Y-45798281D01*
X38094521Y-45799500D01*
X37819836Y-45799500D01*
X37761645Y-45780593D01*
X37725681Y-45731093D01*
X37725681Y-45669907D01*
X37749250Y-45631083D01*
X37770731Y-45609240D01*
X37771064Y-45608905D01*
X37797960Y-45582011D01*
X37797960Y-45582010D01*
X37798003Y-45581968D01*
X37798441Y-45581388D01*
X37798930Y-45580745D01*
X37799455Y-45580059D01*
X37799486Y-45580003D01*
X37799489Y-45580001D01*
X37818224Y-45546915D01*
X37818569Y-45546314D01*
X37819206Y-45545212D01*
X37837521Y-45513489D01*
X37837552Y-45513436D01*
X37837824Y-45512764D01*
X37838125Y-45512029D01*
X37838460Y-45511218D01*
X37838476Y-45511153D01*
X37838478Y-45511151D01*
X37847997Y-45474399D01*
X37848131Y-45473890D01*
X37858000Y-45437062D01*
X37858000Y-45437058D01*
X37858017Y-45436995D01*
X37858109Y-45436252D01*
X37858217Y-45435409D01*
X37858319Y-45434630D01*
X37858318Y-45434558D01*
X37858319Y-45434556D01*
X37858003Y-45396615D01*
X37858000Y-45395791D01*
X37858000Y-37146499D01*
X37876907Y-37088308D01*
X37926407Y-37052344D01*
X37957000Y-37047499D01*
X37982499Y-37047499D01*
X37982500Y-37047498D01*
X37982500Y-36496500D01*
X38001407Y-36438309D01*
X38050907Y-36402345D01*
X38081500Y-36397500D01*
X38183500Y-36397500D01*
X38241691Y-36416407D01*
G37*
%TD.AperFunction*%
%TA.AperFunction,Conductor*%
G36*
X12519191Y-36818907D02*
G01*
X12555155Y-36868407D01*
X12560000Y-36899000D01*
X12560000Y-37449998D01*
X12560001Y-37449999D01*
X12779789Y-37449999D01*
X12799095Y-37447760D01*
X12859076Y-37459838D01*
X12900503Y-37504865D01*
X12909500Y-37546101D01*
X12909500Y-41189564D01*
X12929978Y-41265988D01*
X12929979Y-41265989D01*
X12961230Y-41320117D01*
X12969540Y-41334511D01*
X14244550Y-42609521D01*
X15329453Y-43694424D01*
X15357230Y-43748941D01*
X15357442Y-43778515D01*
X15354353Y-43800002D01*
X15354353Y-43800004D01*
X15357256Y-43820197D01*
X15346822Y-43880486D01*
X15302944Y-43923128D01*
X15242381Y-43931835D01*
X15189260Y-43904289D01*
X12089496Y-40804525D01*
X12061719Y-40750008D01*
X12060500Y-40734521D01*
X12060500Y-37548999D01*
X12079407Y-37490808D01*
X12128907Y-37454844D01*
X12159500Y-37449999D01*
X12259999Y-37449999D01*
X12260000Y-37449998D01*
X12260000Y-36899000D01*
X12278907Y-36840809D01*
X12328407Y-36804845D01*
X12359000Y-36800000D01*
X12461000Y-36800000D01*
X12519191Y-36818907D01*
G37*
%TD.AperFunction*%
%TA.AperFunction,Conductor*%
G36*
X24119191Y-36618907D02*
G01*
X24155155Y-36668407D01*
X24160000Y-36699000D01*
X24160000Y-37249998D01*
X24160001Y-37249999D01*
X24379790Y-37249999D01*
X24379791Y-37249998D01*
X24404874Y-37247090D01*
X24507477Y-37201786D01*
X24515496Y-37193768D01*
X24570013Y-37165991D01*
X24630445Y-37175562D01*
X24673710Y-37218827D01*
X24684500Y-37263772D01*
X24684500Y-42609521D01*
X24665593Y-42667712D01*
X24655504Y-42679525D01*
X23829504Y-43505525D01*
X23774987Y-43533302D01*
X23714555Y-43523731D01*
X23671290Y-43480466D01*
X23660500Y-43435521D01*
X23660500Y-37348999D01*
X23679407Y-37290808D01*
X23728907Y-37254844D01*
X23759500Y-37249999D01*
X23859999Y-37249999D01*
X23860000Y-37249998D01*
X23860000Y-36699000D01*
X23878907Y-36640809D01*
X23928407Y-36604845D01*
X23959000Y-36600000D01*
X24061000Y-36600000D01*
X24119191Y-36618907D01*
G37*
%TD.AperFunction*%
%TA.AperFunction,Conductor*%
G36*
X30419191Y-36518907D02*
G01*
X30455155Y-36568407D01*
X30460000Y-36599000D01*
X30460000Y-37149998D01*
X30460001Y-37149999D01*
X30511495Y-37149999D01*
X30569686Y-37168906D01*
X30602959Y-37211113D01*
X30604977Y-37215986D01*
X30615383Y-37234010D01*
X30624904Y-37250500D01*
X30644540Y-37284511D01*
X31180505Y-37820476D01*
X31208281Y-37874991D01*
X31209500Y-37890478D01*
X31209500Y-38900500D01*
X31190593Y-38958691D01*
X31141093Y-38994655D01*
X31110500Y-38999500D01*
X30855479Y-38999500D01*
X30797288Y-38980593D01*
X30785475Y-38970504D01*
X30064496Y-38249525D01*
X30036719Y-38195008D01*
X30035500Y-38179521D01*
X30035500Y-37248999D01*
X30054407Y-37190808D01*
X30103907Y-37154844D01*
X30134500Y-37149999D01*
X30159999Y-37149999D01*
X30160000Y-37149998D01*
X30160000Y-36599000D01*
X30178907Y-36540809D01*
X30228407Y-36504845D01*
X30259000Y-36500000D01*
X30361000Y-36500000D01*
X30419191Y-36518907D01*
G37*
%TD.AperFunction*%
%TA.AperFunction,Conductor*%
G36*
X19992084Y-33393241D02*
G01*
X20028114Y-33442693D01*
X20033000Y-33473411D01*
X20033000Y-35836021D01*
X20014093Y-35894212D01*
X20004004Y-35906025D01*
X19804504Y-36105525D01*
X19749987Y-36133302D01*
X19689555Y-36123731D01*
X19646290Y-36080466D01*
X19635500Y-36035521D01*
X19635500Y-36014771D01*
X19654407Y-35956580D01*
X19664498Y-35944766D01*
X19686786Y-35922478D01*
X19732090Y-35819872D01*
X19734999Y-35794797D01*
X19735000Y-35794795D01*
X19735000Y-35700001D01*
X19734999Y-35700000D01*
X19059000Y-35700000D01*
X19000809Y-35681093D01*
X18964845Y-35631593D01*
X18960000Y-35601000D01*
X18960000Y-35399999D01*
X19260000Y-35399999D01*
X19260001Y-35400000D01*
X19734998Y-35400000D01*
X19734999Y-35399999D01*
X19734999Y-35305210D01*
X19734998Y-35305208D01*
X19732090Y-35280125D01*
X19686786Y-35177522D01*
X19607477Y-35098213D01*
X19504872Y-35052909D01*
X19479797Y-35050000D01*
X19260001Y-35050000D01*
X19260000Y-35050001D01*
X19260000Y-35399999D01*
X18960000Y-35399999D01*
X18960000Y-35050001D01*
X18959999Y-35050000D01*
X18934500Y-35050000D01*
X18876309Y-35031093D01*
X18840345Y-34981593D01*
X18835500Y-34951000D01*
X18835500Y-33474744D01*
X18854407Y-33416553D01*
X18903907Y-33380589D01*
X18934365Y-33375744D01*
X19933868Y-33374411D01*
X19992084Y-33393241D01*
G37*
%TD.AperFunction*%
%TA.AperFunction,Conductor*%
G36*
X9343584Y-33407442D02*
G01*
X9379614Y-33456894D01*
X9384500Y-33487612D01*
X9384500Y-33828049D01*
X9365593Y-33886240D01*
X9339024Y-33911333D01*
X9328872Y-33917857D01*
X9234622Y-34026628D01*
X9174834Y-34157543D01*
X9154353Y-34299997D01*
X9154353Y-34300002D01*
X9174834Y-34442456D01*
X9234623Y-34573373D01*
X9328872Y-34682143D01*
X9336963Y-34687343D01*
X9339022Y-34688666D01*
X9377754Y-34736032D01*
X9384500Y-34771951D01*
X9384500Y-35151000D01*
X9365593Y-35209191D01*
X9316093Y-35245155D01*
X9285500Y-35250000D01*
X9260001Y-35250000D01*
X9260000Y-35250001D01*
X9260000Y-35801000D01*
X9241093Y-35859191D01*
X9191593Y-35895155D01*
X9161000Y-35900000D01*
X8485000Y-35900000D01*
X8467489Y-35917511D01*
X8412972Y-35945288D01*
X8352540Y-35935716D01*
X8327483Y-35917511D01*
X8009970Y-35599999D01*
X8485000Y-35599999D01*
X8485001Y-35600000D01*
X8959999Y-35600000D01*
X8960000Y-35599999D01*
X8960000Y-35250001D01*
X8959999Y-35250000D01*
X8740210Y-35250000D01*
X8740207Y-35250001D01*
X8715125Y-35252909D01*
X8612522Y-35298213D01*
X8533213Y-35377522D01*
X8487909Y-35480127D01*
X8485000Y-35505202D01*
X8485000Y-35599999D01*
X8009970Y-35599999D01*
X7963054Y-35553083D01*
X7935276Y-35498566D01*
X7944847Y-35438134D01*
X7947316Y-35433587D01*
X7950620Y-35427864D01*
X7954132Y-35421783D01*
X7978181Y-35380127D01*
X7981321Y-35374689D01*
X8001800Y-35298262D01*
X8001800Y-33489193D01*
X8020707Y-33431002D01*
X8070207Y-33395038D01*
X8100666Y-33390193D01*
X9285371Y-33388613D01*
X9343584Y-33407442D01*
G37*
%TD.AperFunction*%
%TA.AperFunction,Conductor*%
G36*
X14543584Y-33400507D02*
G01*
X14579614Y-33449959D01*
X14584500Y-33480677D01*
X14584500Y-35051000D01*
X14565593Y-35109191D01*
X14516093Y-35145155D01*
X14485500Y-35150000D01*
X14460001Y-35150000D01*
X14460000Y-35150001D01*
X14460000Y-35701000D01*
X14441093Y-35759191D01*
X14391593Y-35795155D01*
X14361000Y-35800000D01*
X13685002Y-35800000D01*
X13677639Y-35807362D01*
X13666094Y-35842896D01*
X13616594Y-35878860D01*
X13555408Y-35878860D01*
X13505908Y-35842896D01*
X13492588Y-35814970D01*
X13492504Y-35815005D01*
X13491838Y-35813399D01*
X13490375Y-35810330D01*
X13490022Y-35809013D01*
X13490022Y-35809012D01*
X13450460Y-35740489D01*
X13209970Y-35499999D01*
X13685000Y-35499999D01*
X13685001Y-35500000D01*
X14159999Y-35500000D01*
X14160000Y-35499999D01*
X14160000Y-35150001D01*
X14159999Y-35150000D01*
X13940210Y-35150000D01*
X13940207Y-35150001D01*
X13915125Y-35152909D01*
X13812522Y-35198213D01*
X13733213Y-35277522D01*
X13687909Y-35380127D01*
X13685000Y-35405202D01*
X13685000Y-35499999D01*
X13209970Y-35499999D01*
X13119511Y-35409540D01*
X13119505Y-35409536D01*
X13119503Y-35409535D01*
X13112422Y-35405447D01*
X13112420Y-35405446D01*
X13104198Y-35400699D01*
X13063258Y-35355229D01*
X13054700Y-35314964D01*
X13054700Y-33482454D01*
X13073607Y-33424263D01*
X13123107Y-33388299D01*
X13153566Y-33383454D01*
X14485370Y-33381677D01*
X14543584Y-33400507D01*
G37*
%TD.AperFunction*%
%TA.AperFunction,Conductor*%
G36*
X40593597Y-33365764D02*
G01*
X40629627Y-33415216D01*
X40634513Y-33445934D01*
X40634513Y-34689936D01*
X40615606Y-34748127D01*
X40566106Y-34784091D01*
X40504920Y-34784091D01*
X40495526Y-34780501D01*
X40427375Y-34750410D01*
X40427372Y-34750409D01*
X40402297Y-34747500D01*
X40182501Y-34747500D01*
X40182500Y-34747501D01*
X40182500Y-35298500D01*
X40163593Y-35356691D01*
X40114093Y-35392655D01*
X40083500Y-35397500D01*
X39407502Y-35397500D01*
X39407501Y-35397501D01*
X39407501Y-35492291D01*
X39410409Y-35517374D01*
X39411360Y-35520867D01*
X39411199Y-35524179D01*
X39411268Y-35524774D01*
X39411169Y-35524785D01*
X39408392Y-35581981D01*
X39370069Y-35629677D01*
X39365333Y-35632592D01*
X39322990Y-35657038D01*
X39322987Y-35657040D01*
X39272988Y-35707040D01*
X39217040Y-35762988D01*
X39192736Y-35805084D01*
X39147266Y-35846025D01*
X39086415Y-35852419D01*
X39033428Y-35821826D01*
X39008542Y-35765930D01*
X39008000Y-35755583D01*
X39008000Y-35307937D01*
X39007999Y-35307935D01*
X39006683Y-35303025D01*
X38987521Y-35231511D01*
X38975289Y-35210325D01*
X38947960Y-35162989D01*
X38892012Y-35107040D01*
X38882471Y-35097499D01*
X39407500Y-35097499D01*
X39407501Y-35097500D01*
X39882499Y-35097500D01*
X39882500Y-35097499D01*
X39882500Y-34747501D01*
X39882499Y-34747500D01*
X39662710Y-34747500D01*
X39662707Y-34747501D01*
X39637625Y-34750409D01*
X39535022Y-34795713D01*
X39455713Y-34875022D01*
X39410409Y-34977627D01*
X39407500Y-35002702D01*
X39407500Y-35097499D01*
X38882471Y-35097499D01*
X38792013Y-35007042D01*
X38792006Y-35007036D01*
X38789001Y-35005302D01*
X38788997Y-35005298D01*
X38788997Y-35005300D01*
X38723488Y-34967478D01*
X38664079Y-34951559D01*
X38612766Y-34918234D01*
X38607389Y-34910936D01*
X38602052Y-34902948D01*
X38602048Y-34902945D01*
X38535733Y-34858634D01*
X38535731Y-34858633D01*
X38535728Y-34858632D01*
X38535727Y-34858632D01*
X38477258Y-34847001D01*
X38477248Y-34847000D01*
X38477247Y-34847000D01*
X38459500Y-34847000D01*
X38401309Y-34828093D01*
X38365345Y-34778593D01*
X38360500Y-34748000D01*
X38360500Y-33448703D01*
X38379407Y-33390512D01*
X38428907Y-33354548D01*
X38459361Y-33349703D01*
X40535384Y-33346935D01*
X40593597Y-33365764D01*
G37*
%TD.AperFunction*%
%TA.AperFunction,Conductor*%
G36*
X26430184Y-33384654D02*
G01*
X26466214Y-33434106D01*
X26471100Y-33464824D01*
X26471100Y-34874371D01*
X26452193Y-34932562D01*
X26402693Y-34968526D01*
X26341507Y-34968526D01*
X26332114Y-34964937D01*
X26304872Y-34952909D01*
X26279797Y-34950000D01*
X26060001Y-34950000D01*
X26060000Y-34950001D01*
X26060000Y-35501000D01*
X26041093Y-35559191D01*
X25991593Y-35595155D01*
X25961000Y-35600000D01*
X25285000Y-35600000D01*
X25267489Y-35617511D01*
X25212972Y-35645288D01*
X25152540Y-35635716D01*
X25127483Y-35617511D01*
X24809970Y-35299999D01*
X25285000Y-35299999D01*
X25285001Y-35300000D01*
X25759999Y-35300000D01*
X25760000Y-35299999D01*
X25760000Y-34950001D01*
X25759999Y-34950000D01*
X25540210Y-34950000D01*
X25540207Y-34950001D01*
X25515125Y-34952909D01*
X25412522Y-34998213D01*
X25333213Y-35077522D01*
X25287909Y-35180127D01*
X25285000Y-35205202D01*
X25285000Y-35299999D01*
X24809970Y-35299999D01*
X24719514Y-35209543D01*
X24719511Y-35209540D01*
X24719505Y-35209536D01*
X24719503Y-35209535D01*
X24712422Y-35205447D01*
X24712420Y-35205446D01*
X24664054Y-35177522D01*
X24650988Y-35169978D01*
X24574564Y-35149500D01*
X24574562Y-35149500D01*
X24561903Y-35149500D01*
X24503712Y-35130593D01*
X24479587Y-35105501D01*
X24479552Y-35105448D01*
X24479548Y-35105445D01*
X24413233Y-35061134D01*
X24413231Y-35061133D01*
X24413228Y-35061132D01*
X24413227Y-35061132D01*
X24354758Y-35049501D01*
X24354748Y-35049500D01*
X24354747Y-35049500D01*
X24075479Y-35049500D01*
X24017288Y-35030593D01*
X24005475Y-35020504D01*
X23189496Y-34204525D01*
X23161719Y-34150008D01*
X23160500Y-34134521D01*
X23160500Y-33468975D01*
X23179407Y-33410784D01*
X23228907Y-33374820D01*
X23259360Y-33369976D01*
X26371970Y-33365824D01*
X26430184Y-33384654D01*
G37*
%TD.AperFunction*%
%TA.AperFunction,Conductor*%
G36*
X32718584Y-33376267D02*
G01*
X32754614Y-33425719D01*
X32759500Y-33456437D01*
X32759500Y-34769250D01*
X32740593Y-34827441D01*
X32691093Y-34863405D01*
X32629907Y-34863405D01*
X32620513Y-34859815D01*
X32604874Y-34852910D01*
X32604872Y-34852909D01*
X32579797Y-34850000D01*
X32360001Y-34850000D01*
X32360000Y-34850001D01*
X32360000Y-35401000D01*
X32341093Y-35459191D01*
X32291593Y-35495155D01*
X32261000Y-35500000D01*
X32159000Y-35500000D01*
X32100809Y-35481093D01*
X32064845Y-35431593D01*
X32060000Y-35401000D01*
X32060000Y-34850001D01*
X32059999Y-34850000D01*
X32034500Y-34850000D01*
X31976309Y-34831093D01*
X31940345Y-34781593D01*
X31935500Y-34751000D01*
X31935500Y-33457272D01*
X31954407Y-33399081D01*
X32003907Y-33363117D01*
X32034361Y-33358272D01*
X32660371Y-33357438D01*
X32718584Y-33376267D01*
G37*
%TD.AperFunction*%
%TD*%
M02*
