M48
; DRILL file {KiCad 8.0.0-rc2} date 2024-01-29T17:44:33-0800
; FORMAT={-:-/ absolute / inch / decimal}
; #@! TF.CreationDate,2024-01-29T17:44:33-08:00
; #@! TF.GenerationSoftware,Kicad,Pcbnew,8.0.0-rc2
; #@! TF.FileFunction,Plated,1,4,PTH
FMAT,2
INCH
; #@! TA.AperFunction,Plated,PTH,ViaDrill
T1C0.0138
; #@! TA.AperFunction,Plated,PTH,ComponentDrill
T2C0.0138
; #@! TA.AperFunction,Plated,PTH,ComponentDrill
T3C0.0197
; #@! TA.AperFunction,Plated,PTH,ComponentDrill
T4C0.0217
; #@! TA.AperFunction,Plated,PTH,ComponentDrill
T5C0.0315
; #@! TA.AperFunction,Plated,PTH,ComponentDrill
T6C0.0394
%
G90
G05
T1
X0.0811Y-1.5118
X0.0826Y-2.575
X0.105Y-1.9687
X0.1692Y-2.2758
X0.2283Y-1.9687
X0.2283Y-2.2329
X0.2283Y-2.3112
X0.2283Y-2.575
X0.2898Y-1.5118
X0.3228Y-2.1689
X0.3232Y-2.3889
X0.3331Y-1.3622
X0.337Y-2.4724
X0.3707Y-2.3739
X0.3707Y-2.4179
X0.3764Y-2.4724
X0.3803Y-1.3504
X0.3882Y-2.6693
X0.3882Y-2.7087
X0.4032Y-2.3414
X0.4079Y-2.4685
X0.4082Y-2.2439
X0.4433Y-2.4685
X0.4669Y-1.9843
X0.4724Y-2.3904
X0.476Y-2.4581
X0.4886Y-1.9331
X0.4906Y-1.5079
X0.5024Y-2.4449
X0.5102Y-1.878
X0.5116Y-2.6654
X0.5401Y-1.8411
X0.5575Y-1.3465
X0.5772Y-1.5433
X0.578Y-2.322
X0.584Y-2.452
X0.5944Y-2.3825
X0.6047Y-1.5276
X0.6205Y-1.8268
X0.6205Y-2.6299
X0.6244Y-1.7244
X0.6283Y-1.7756
X0.6433Y-2.0492
X0.6571Y-2.561
X0.6571Y-2.5925
X0.6571Y-2.628
X0.6785Y-1.5079
X0.7122Y-2.6043
X0.7543Y-1.3386
X0.7598Y-2.3864
X0.8094Y-2.1024
X0.8661Y-2.351
X0.892Y-2.3727
X0.9512Y-1.5118
X0.9787Y-1.3465
X0.9842Y-2.477
X0.9842Y-2.5164
X1.0236Y-2.3195
X1.0236Y-2.3589
X1.1023Y-1.9967
X1.1953Y-1.5
X1.2681Y-1.3484
X1.3543Y-2.1502
X1.5013Y-1.4971
X1.5417Y-1.3583
X1.9472Y-1.4134
X1.9472Y-1.4646
X1.9472Y-1.5118
X1.9472Y-1.5551
X2.0311Y-2.5433
X2.0862Y-2.5669
X2.2465Y-0.8701
X2.2465Y-0.9291
X2.3016Y-0.8701
X2.3016Y-0.9291
X2.3528Y-0.8701
X2.3528Y-0.9291
X2.4071Y-2.3519
X2.4118Y-0.8701
X2.4118Y-0.9291
X2.4492Y-0.748
X2.4927Y-2.2219
X2.4927Y-2.5842
T2
X0.6269Y-2.3087
X0.6269Y-2.3589
X0.6269Y-2.4091
X0.6771Y-2.3087
X0.6771Y-2.3589
X0.6771Y-2.4091
X0.7273Y-2.3087
X0.7273Y-2.3589
X0.7273Y-2.4091
T3
X0.8638Y-2.7146
X0.9839Y-2.7146
X2.5378Y-0.9134
T5
X0.2Y-0.25
X0.2Y-0.55
X0.2Y-0.8
X0.2Y-1.1
X0.3Y-0.25
X0.3Y-0.55
X0.3Y-0.8
X0.3Y-1.1
X0.4Y-0.25
X0.4Y-0.55
X0.4Y-0.8
X0.4Y-1.1
X0.5Y-0.25
X0.5Y-0.55
X0.5Y-0.8
X0.5Y-1.1
X0.6Y-0.25
X0.6Y-0.55
X0.6Y-0.8
X0.6Y-1.1
X0.7Y-0.25
X0.7Y-0.55
X0.7Y-0.8
X0.7Y-1.1
X0.8Y-0.25
X0.8Y-0.55
X0.8Y-0.8
X0.8Y-1.1
X0.9Y-0.25
X0.9Y-0.55
X0.9Y-0.8
X0.9Y-1.1
X1.1Y-0.25
X1.1Y-0.55
X1.1Y-0.8
X1.1Y-1.1
X1.2Y-0.25
X1.2Y-0.55
X1.2Y-0.8
X1.2Y-1.1
X1.3Y-0.25
X1.3Y-0.55
X1.3Y-0.8
X1.3Y-1.1
X1.4Y-0.25
X1.4Y-0.55
X1.4Y-0.8
X1.4Y-1.1
X1.5Y-0.25
X1.5Y-0.55
X1.5Y-0.8
X1.5Y-1.1
X1.6Y-0.25
X1.6Y-0.55
X1.6Y-0.8
X1.6Y-1.1
X1.7Y-0.25
X1.7Y-0.55
X1.7Y-0.8
X1.7Y-1.1
X1.8Y-0.25
X1.8Y-0.55
X1.8Y-0.8
X1.8Y-1.1
T6
X1.4906Y-2.1191
X1.4906Y-2.2191
X1.8598Y-1.9193
X2.2535Y-1.9193
T3
G00X2.5852Y-2.2653
M15
G01X2.6108Y-2.2653
M16
G05
G00X2.5852Y-2.5408
M15
G01X2.6108Y-2.5408
M16
G05
T4
G00X2.4917Y-2.3105
M15
G01X2.4917Y-2.2987
M16
G05
G00X2.4917Y-2.5074
M15
G01X2.4917Y-2.4956
M16
G05
M30
