%TF.GenerationSoftware,KiCad,Pcbnew,8.0.0-rc2*%
%TF.CreationDate,2024-01-29T17:44:33-08:00*%
%TF.ProjectId,fluke_884x_continuity_buzzer,666c756b-655f-4383-9834-785f636f6e74,REV1*%
%TF.SameCoordinates,Original*%
%TF.FileFunction,Copper,L2,Inr*%
%TF.FilePolarity,Positive*%
%FSLAX46Y46*%
G04 Gerber Fmt 4.6, Leading zero omitted, Abs format (unit mm)*
G04 Created by KiCad (PCBNEW 8.0.0-rc2) date 2024-01-29 17:44:33*
%MOMM*%
%LPD*%
G01*
G04 APERTURE LIST*
%TA.AperFunction,ComponentPad*%
%ADD10O,1.550000X0.890000*%
%TD*%
%TA.AperFunction,ComponentPad*%
%ADD11O,0.950000X1.250000*%
%TD*%
%TA.AperFunction,ComponentPad*%
%ADD12R,1.700000X1.700000*%
%TD*%
%TA.AperFunction,ComponentPad*%
%ADD13O,1.700000X1.700000*%
%TD*%
%TA.AperFunction,ComponentPad*%
%ADD14C,0.600000*%
%TD*%
%TA.AperFunction,ComponentPad*%
%ADD15R,2.000000X2.000000*%
%TD*%
%TA.AperFunction,ComponentPad*%
%ADD16C,2.000000*%
%TD*%
%TA.AperFunction,ComponentPad*%
%ADD17C,1.000000*%
%TD*%
%TA.AperFunction,ComponentPad*%
%ADD18R,1.600000X1.600000*%
%TD*%
%TA.AperFunction,ComponentPad*%
%ADD19O,1.600000X1.600000*%
%TD*%
%TA.AperFunction,ViaPad*%
%ADD20C,0.600000*%
%TD*%
%TA.AperFunction,Conductor*%
%ADD21C,1.000000*%
%TD*%
G04 APERTURE END LIST*
D10*
%TO.N,GND*%
%TO.C,J3*%
X65990000Y-64537500D03*
D11*
X63290000Y-63537500D03*
X63290000Y-58537500D03*
D10*
X65990000Y-57537500D03*
%TD*%
D12*
%TO.N,/~{USB_BOOT}*%
%TO.C,J2*%
X37860000Y-53825000D03*
D13*
%TO.N,GND*%
X37860000Y-56365000D03*
%TD*%
D14*
%TO.N,GND*%
%TO.C,U3*%
X18473800Y-58640400D03*
X17198800Y-58640400D03*
X15923800Y-58640400D03*
X18473800Y-59915400D03*
X17198800Y-59915400D03*
X15923800Y-59915400D03*
X18473800Y-61190400D03*
X17198800Y-61190400D03*
X15923800Y-61190400D03*
%TD*%
D15*
%TO.N,/GPIO28_ADC2*%
%TO.C,LS1*%
X57240000Y-48750000D03*
D16*
%TO.N,/GPIO29_ADC3*%
X47240000Y-48750000D03*
%TD*%
D17*
%TO.N,/GPIO27_ADC1*%
%TO.C,TP3*%
X24990000Y-68950000D03*
%TD*%
D18*
%TO.N,/PDP*%
%TO.C,P204*%
X22860000Y-6350000D03*
D19*
%TO.N,/PS1*%
X20320000Y-6350000D03*
%TO.N,/Pd*%
X17780000Y-6350000D03*
%TO.N,/Pe*%
X15240000Y-6350000D03*
%TO.N,/Pf*%
X12700000Y-6350000D03*
%TO.N,/Pg*%
X10160000Y-6350000D03*
%TO.N,/PS3*%
X7620000Y-6350000D03*
%TO.N,/PS2*%
X5080000Y-6350000D03*
%TO.N,/Pb*%
X5080000Y-13970000D03*
%TO.N,/Pa*%
X7620000Y-13970000D03*
%TO.N,/Pc*%
X10160000Y-13970000D03*
%TO.N,/G0*%
X12700000Y-13970000D03*
%TO.N,/G1*%
X15240000Y-13970000D03*
%TO.N,/G4*%
X17780000Y-13970000D03*
%TO.N,/G3*%
X20320000Y-13970000D03*
%TO.N,/G2*%
X22860000Y-13970000D03*
%TD*%
D18*
%TO.N,/PDP*%
%TO.C,J204*%
X22860000Y-20320000D03*
D19*
%TO.N,/PS1*%
X20320000Y-20320000D03*
%TO.N,/Pd*%
X17780000Y-20320000D03*
%TO.N,/Pe*%
X15240000Y-20320000D03*
%TO.N,/Pf*%
X12700000Y-20320000D03*
%TO.N,/Pg*%
X10160000Y-20320000D03*
%TO.N,/PS3*%
X7620000Y-20320000D03*
%TO.N,/PS2*%
X5080000Y-20320000D03*
%TO.N,/Pb*%
X5080000Y-27940000D03*
%TO.N,/Pa*%
X7620000Y-27940000D03*
%TO.N,/Pc*%
X10160000Y-27940000D03*
%TO.N,/G0*%
X12700000Y-27940000D03*
%TO.N,/G1*%
X15240000Y-27940000D03*
%TO.N,/G4*%
X17780000Y-27940000D03*
%TO.N,/G3*%
X20320000Y-27940000D03*
%TO.N,/G2*%
X22860000Y-27940000D03*
%TD*%
D18*
%TO.N,/F1*%
%TO.C,J203*%
X45720000Y-20320000D03*
D19*
%TO.N,/F2*%
X43180000Y-20320000D03*
%TO.N,/S2*%
X40640000Y-20320000D03*
%TO.N,/S1*%
X38100000Y-20320000D03*
%TO.N,/S0*%
X35560000Y-20320000D03*
%TO.N,/G5*%
X33020000Y-20320000D03*
%TO.N,/G7*%
X30480000Y-20320000D03*
%TO.N,/G6*%
X27940000Y-20320000D03*
%TO.N,/RL0*%
X27940000Y-27940000D03*
%TO.N,/RL1*%
X30480000Y-27940000D03*
%TO.N,/RL6*%
X33020000Y-27940000D03*
%TO.N,/RL4*%
X35560000Y-27940000D03*
%TO.N,/RL2*%
X38100000Y-27940000D03*
%TO.N,/RL5*%
X40640000Y-27940000D03*
%TO.N,/RL3*%
X43180000Y-27940000D03*
%TO.N,GND*%
X45720000Y-27940000D03*
%TD*%
D17*
%TO.N,GND*%
%TO.C,TP1*%
X64460000Y-23200000D03*
%TD*%
%TO.N,/GPIO26_ADC0*%
%TO.C,TP2*%
X21940000Y-68950000D03*
%TD*%
D18*
%TO.N,/F1*%
%TO.C,P203*%
X45720000Y-6350000D03*
D19*
%TO.N,/F2*%
X43180000Y-6350000D03*
%TO.N,/S2*%
X40640000Y-6350000D03*
%TO.N,/S1*%
X38100000Y-6350000D03*
%TO.N,/S0*%
X35560000Y-6350000D03*
%TO.N,/G5*%
X33020000Y-6350000D03*
%TO.N,/G7*%
X30480000Y-6350000D03*
%TO.N,/G6*%
X27940000Y-6350000D03*
%TO.N,/RL0*%
X27940000Y-13970000D03*
%TO.N,/RL1*%
X30480000Y-13970000D03*
%TO.N,/RL6*%
X33020000Y-13970000D03*
%TO.N,/RL4*%
X35560000Y-13970000D03*
%TO.N,/RL2*%
X38100000Y-13970000D03*
%TO.N,/RL5*%
X40640000Y-13970000D03*
%TO.N,/RL3*%
X43180000Y-13970000D03*
%TO.N,GND*%
X45720000Y-13970000D03*
%TD*%
D20*
%TO.N,GND*%
X9860000Y-68800000D03*
X25998800Y-58915400D03*
X5798800Y-58705400D03*
X57060000Y-23600000D03*
X16340000Y-52050000D03*
X25998800Y-59915400D03*
X8210300Y-60677400D03*
X58460000Y-22100000D03*
X24998800Y-62915400D03*
X5798800Y-56715400D03*
X4298800Y-57805400D03*
X24998800Y-63915400D03*
X2667000Y-50005400D03*
X5798800Y-65405400D03*
X59760000Y-23600000D03*
X2098800Y-65405400D03*
X5798800Y-50005400D03*
X9416800Y-61415400D03*
X58460000Y-23600000D03*
X9860000Y-67800000D03*
X15760000Y-66800000D03*
X61260000Y-23600000D03*
X27999000Y-50715400D03*
X8198800Y-55089400D03*
X59760000Y-22100000D03*
X61140000Y-59737500D03*
X10242300Y-59470900D03*
X63315200Y-56437500D03*
X34399000Y-54615400D03*
X57060000Y-22100000D03*
X9416800Y-60296400D03*
X61260000Y-22100000D03*
X20560000Y-53400000D03*
X10369300Y-56994400D03*
X63315200Y-65637500D03*
X62209800Y-19000000D03*
%TO.N,+3V3*%
X17235000Y-38300000D03*
X2060000Y-38400000D03*
X49460000Y-37200000D03*
X24160000Y-38400000D03*
X12995000Y-67700000D03*
X49460000Y-39500000D03*
X8460000Y-34600000D03*
X24860000Y-34200000D03*
X38132500Y-38027500D03*
X14681200Y-58978800D03*
X14833600Y-62280800D03*
X30360000Y-38100000D03*
X12460000Y-38300000D03*
X19160000Y-34000000D03*
X39160000Y-34500000D03*
X7360000Y-38400000D03*
X49460000Y-35900000D03*
X32210000Y-34250000D03*
X22656800Y-60265400D03*
X14160000Y-34200000D03*
X49460000Y-38400000D03*
%TO.N,+1V1*%
X19298800Y-60615400D03*
X21998800Y-59715400D03*
X11998800Y-60715400D03*
X15098800Y-60515400D03*
%TO.N,G0_3V*%
X16690000Y-65850000D03*
X15860000Y-43800000D03*
%TO.N,G1_3V*%
X16690000Y-66750000D03*
X15360000Y-38800000D03*
%TO.N,PA_3V*%
X11260000Y-62700000D03*
X13719488Y-46764116D03*
%TO.N,PB_3V*%
X9560000Y-62800000D03*
X12410000Y-49100000D03*
%TO.N,PC_3V*%
X12760000Y-62100000D03*
X15760000Y-46400000D03*
%TO.N,PE_3V*%
X18090000Y-66150000D03*
X14660000Y-39200000D03*
%TO.N,PG_3V*%
X12089177Y-62435411D03*
X9660000Y-34300000D03*
%TO.N,PS2_3V*%
X8560000Y-62800000D03*
X11860000Y-50400000D03*
%TO.N,PS3_3V*%
X12960000Y-47700000D03*
X10360000Y-62700000D03*
%TO.N,/GPIO29_ADC3*%
X51590000Y-64600000D03*
%TO.N,/GPIO28_ADC2*%
X52990000Y-65200000D03*
%TO.N,PF_3V*%
X15960000Y-45100000D03*
X16690000Y-65050000D03*
%TD*%
D21*
%TO.N,GND*%
X47170000Y-26490000D02*
X45720000Y-27940000D01*
X45720000Y-13970000D02*
X47170000Y-15420000D01*
X47170000Y-15420000D02*
X47170000Y-26490000D01*
%TD*%
%TA.AperFunction,Conductor*%
%TO.N,+3V3*%
G36*
X67088584Y-33330428D02*
G01*
X67124614Y-33379880D01*
X67129500Y-33410598D01*
X67129500Y-57307326D01*
X67110593Y-57365517D01*
X67061093Y-57401481D01*
X66999907Y-57401481D01*
X66950407Y-57365517D01*
X66939036Y-57345212D01*
X66892034Y-57231741D01*
X66881449Y-57215899D01*
X66821392Y-57126018D01*
X66731482Y-57036108D01*
X66625759Y-56965466D01*
X66625760Y-56965466D01*
X66625758Y-56965465D01*
X66508288Y-56916807D01*
X66508282Y-56916805D01*
X66383578Y-56892000D01*
X66383576Y-56892000D01*
X65596424Y-56892000D01*
X65596421Y-56892000D01*
X65471717Y-56916805D01*
X65471711Y-56916807D01*
X65354241Y-56965465D01*
X65248518Y-57036108D01*
X65248514Y-57036111D01*
X65158611Y-57126014D01*
X65158608Y-57126018D01*
X65087965Y-57231741D01*
X65039307Y-57349211D01*
X65039305Y-57349217D01*
X65014500Y-57473921D01*
X65014500Y-57601078D01*
X65039305Y-57725782D01*
X65039307Y-57725788D01*
X65087965Y-57843258D01*
X65087966Y-57843259D01*
X65158608Y-57948982D01*
X65248518Y-58038892D01*
X65354241Y-58109534D01*
X65471715Y-58158194D01*
X65596424Y-58183000D01*
X65596425Y-58183000D01*
X66383575Y-58183000D01*
X66383576Y-58183000D01*
X66508285Y-58158194D01*
X66625759Y-58109534D01*
X66731482Y-58038892D01*
X66821392Y-57948982D01*
X66892034Y-57843259D01*
X66939036Y-57729786D01*
X66978773Y-57683262D01*
X67038268Y-57668978D01*
X67094796Y-57692393D01*
X67126765Y-57744562D01*
X67129500Y-57767673D01*
X67129500Y-64307326D01*
X67110593Y-64365517D01*
X67061093Y-64401481D01*
X66999907Y-64401481D01*
X66950407Y-64365517D01*
X66939036Y-64345212D01*
X66892034Y-64231741D01*
X66878974Y-64212195D01*
X66821392Y-64126018D01*
X66731482Y-64036108D01*
X66625759Y-63965466D01*
X66625760Y-63965466D01*
X66625758Y-63965465D01*
X66508288Y-63916807D01*
X66508282Y-63916805D01*
X66383578Y-63892000D01*
X66383576Y-63892000D01*
X65596424Y-63892000D01*
X65596421Y-63892000D01*
X65471717Y-63916805D01*
X65471711Y-63916807D01*
X65354241Y-63965465D01*
X65248518Y-64036108D01*
X65248514Y-64036111D01*
X65158611Y-64126014D01*
X65158608Y-64126018D01*
X65087965Y-64231741D01*
X65039307Y-64349211D01*
X65039305Y-64349217D01*
X65014500Y-64473921D01*
X65014500Y-64601078D01*
X65039305Y-64725782D01*
X65039307Y-64725788D01*
X65087965Y-64843258D01*
X65087966Y-64843259D01*
X65158608Y-64948982D01*
X65248518Y-65038892D01*
X65354241Y-65109534D01*
X65471715Y-65158194D01*
X65596424Y-65183000D01*
X65596425Y-65183000D01*
X66383575Y-65183000D01*
X66383576Y-65183000D01*
X66508285Y-65158194D01*
X66625759Y-65109534D01*
X66731482Y-65038892D01*
X66821392Y-64948982D01*
X66892034Y-64843259D01*
X66939036Y-64729786D01*
X66978773Y-64683262D01*
X67038268Y-64668978D01*
X67094796Y-64692393D01*
X67126765Y-64744562D01*
X67129500Y-64767673D01*
X67129500Y-70984100D01*
X67110593Y-71042291D01*
X67061093Y-71078255D01*
X67030500Y-71083100D01*
X399500Y-71083100D01*
X341309Y-71064193D01*
X305345Y-71014693D01*
X300500Y-70984100D01*
X300500Y-68800002D01*
X9354353Y-68800002D01*
X9374834Y-68942456D01*
X9378280Y-68950001D01*
X9434623Y-69073373D01*
X9474048Y-69118872D01*
X9528873Y-69182144D01*
X9649942Y-69259950D01*
X9649947Y-69259953D01*
X9756403Y-69291211D01*
X9788035Y-69300499D01*
X9788036Y-69300499D01*
X9788039Y-69300500D01*
X9788041Y-69300500D01*
X9931959Y-69300500D01*
X9931961Y-69300500D01*
X10070053Y-69259953D01*
X10191128Y-69182143D01*
X10285377Y-69073373D01*
X10341720Y-68950000D01*
X21234355Y-68950000D01*
X21254860Y-69118872D01*
X21315182Y-69277930D01*
X21411817Y-69417929D01*
X21539148Y-69530734D01*
X21689775Y-69609790D01*
X21854944Y-69650500D01*
X21854947Y-69650500D01*
X22025053Y-69650500D01*
X22025056Y-69650500D01*
X22190225Y-69609790D01*
X22340852Y-69530734D01*
X22468183Y-69417929D01*
X22564818Y-69277930D01*
X22625140Y-69118872D01*
X22645645Y-68950000D01*
X24284355Y-68950000D01*
X24304860Y-69118872D01*
X24365182Y-69277930D01*
X24461817Y-69417929D01*
X24589148Y-69530734D01*
X24739775Y-69609790D01*
X24904944Y-69650500D01*
X24904947Y-69650500D01*
X25075053Y-69650500D01*
X25075056Y-69650500D01*
X25240225Y-69609790D01*
X25390852Y-69530734D01*
X25518183Y-69417929D01*
X25614818Y-69277930D01*
X25675140Y-69118872D01*
X25695645Y-68950000D01*
X25675140Y-68781128D01*
X25614818Y-68622070D01*
X25518183Y-68482071D01*
X25390852Y-68369266D01*
X25240225Y-68290210D01*
X25240224Y-68290209D01*
X25240223Y-68290209D01*
X25075058Y-68249500D01*
X25075056Y-68249500D01*
X24904944Y-68249500D01*
X24904941Y-68249500D01*
X24739776Y-68290209D01*
X24589146Y-68369267D01*
X24461818Y-68482069D01*
X24461817Y-68482071D01*
X24365182Y-68622070D01*
X24304860Y-68781128D01*
X24284355Y-68950000D01*
X22645645Y-68950000D01*
X22625140Y-68781128D01*
X22564818Y-68622070D01*
X22468183Y-68482071D01*
X22340852Y-68369266D01*
X22190225Y-68290210D01*
X22190224Y-68290209D01*
X22190223Y-68290209D01*
X22025058Y-68249500D01*
X22025056Y-68249500D01*
X21854944Y-68249500D01*
X21854941Y-68249500D01*
X21689776Y-68290209D01*
X21539146Y-68369267D01*
X21411818Y-68482069D01*
X21411817Y-68482071D01*
X21315182Y-68622070D01*
X21254860Y-68781128D01*
X21234355Y-68950000D01*
X10341720Y-68950000D01*
X10345165Y-68942457D01*
X10365647Y-68800000D01*
X10345165Y-68657543D01*
X10285377Y-68526627D01*
X10191128Y-68417857D01*
X10191127Y-68417856D01*
X10191126Y-68417855D01*
X10137331Y-68383284D01*
X10098600Y-68335919D01*
X10095106Y-68274833D01*
X10128185Y-68223360D01*
X10137331Y-68216716D01*
X10191126Y-68182144D01*
X10191125Y-68182144D01*
X10191128Y-68182143D01*
X10285377Y-68073373D01*
X10345165Y-67942457D01*
X10365647Y-67800000D01*
X10345165Y-67657543D01*
X10285377Y-67526627D01*
X10191128Y-67417857D01*
X10191127Y-67417856D01*
X10191126Y-67417855D01*
X10070057Y-67340049D01*
X10070054Y-67340047D01*
X10070053Y-67340047D01*
X10070050Y-67340046D01*
X9931964Y-67299500D01*
X9931961Y-67299500D01*
X9788039Y-67299500D01*
X9788035Y-67299500D01*
X9649949Y-67340046D01*
X9649942Y-67340049D01*
X9528873Y-67417855D01*
X9434622Y-67526628D01*
X9374834Y-67657543D01*
X9354353Y-67799997D01*
X9354353Y-67800002D01*
X9374834Y-67942456D01*
X9434622Y-68073371D01*
X9434623Y-68073373D01*
X9528872Y-68182143D01*
X9582669Y-68216716D01*
X9621400Y-68264082D01*
X9624893Y-68325168D01*
X9591813Y-68376640D01*
X9582669Y-68383284D01*
X9528872Y-68417857D01*
X9434622Y-68526628D01*
X9374834Y-68657543D01*
X9354353Y-68799997D01*
X9354353Y-68800002D01*
X300500Y-68800002D01*
X300500Y-66800002D01*
X15254353Y-66800002D01*
X15274834Y-66942456D01*
X15327326Y-67057396D01*
X15334623Y-67073373D01*
X15385548Y-67132144D01*
X15428873Y-67182144D01*
X15549942Y-67259950D01*
X15549947Y-67259953D01*
X15656403Y-67291211D01*
X15688035Y-67300499D01*
X15688036Y-67300499D01*
X15688039Y-67300500D01*
X15688041Y-67300500D01*
X15831959Y-67300500D01*
X15831961Y-67300500D01*
X15970053Y-67259953D01*
X16091128Y-67182143D01*
X16171844Y-67088990D01*
X16224238Y-67057396D01*
X16285199Y-67062631D01*
X16321481Y-67088992D01*
X16358870Y-67132141D01*
X16358872Y-67132143D01*
X16436673Y-67182143D01*
X16479947Y-67209953D01*
X16586403Y-67241211D01*
X16618035Y-67250499D01*
X16618036Y-67250499D01*
X16618039Y-67250500D01*
X16618041Y-67250500D01*
X16761959Y-67250500D01*
X16761961Y-67250500D01*
X16900053Y-67209953D01*
X17021128Y-67132143D01*
X17115377Y-67023373D01*
X17175165Y-66892457D01*
X17195647Y-66750000D01*
X17175165Y-66607543D01*
X17115377Y-66476627D01*
X17021128Y-66367857D01*
X17018506Y-66364831D01*
X16994688Y-66308472D01*
X17008547Y-66248876D01*
X17018506Y-66235169D01*
X17021128Y-66232143D01*
X17092303Y-66150002D01*
X17584353Y-66150002D01*
X17604834Y-66292456D01*
X17637887Y-66364831D01*
X17664623Y-66423373D01*
X17754093Y-66526628D01*
X17758873Y-66532144D01*
X17846391Y-66588388D01*
X17879947Y-66609953D01*
X17986403Y-66641211D01*
X18018035Y-66650499D01*
X18018036Y-66650499D01*
X18018039Y-66650500D01*
X18018041Y-66650500D01*
X18161959Y-66650500D01*
X18161961Y-66650500D01*
X18300053Y-66609953D01*
X18421128Y-66532143D01*
X18515377Y-66423373D01*
X18575165Y-66292457D01*
X18595647Y-66150000D01*
X18591818Y-66123371D01*
X18575165Y-66007543D01*
X18568275Y-65992456D01*
X18515377Y-65876627D01*
X18421128Y-65767857D01*
X18421127Y-65767856D01*
X18421126Y-65767855D01*
X18300057Y-65690049D01*
X18300054Y-65690047D01*
X18300053Y-65690047D01*
X18300050Y-65690046D01*
X18161964Y-65649500D01*
X18161961Y-65649500D01*
X18018039Y-65649500D01*
X18018035Y-65649500D01*
X17879949Y-65690046D01*
X17879942Y-65690049D01*
X17758873Y-65767855D01*
X17664622Y-65876628D01*
X17604834Y-66007543D01*
X17584353Y-66149997D01*
X17584353Y-66150002D01*
X17092303Y-66150002D01*
X17115377Y-66123373D01*
X17175165Y-65992457D01*
X17195647Y-65850000D01*
X17186667Y-65787544D01*
X17175165Y-65707543D01*
X17143177Y-65637500D01*
X17115377Y-65576627D01*
X17061828Y-65514828D01*
X17038012Y-65458473D01*
X17051870Y-65398877D01*
X17061820Y-65385180D01*
X17115377Y-65323373D01*
X17171719Y-65200002D01*
X52484353Y-65200002D01*
X52504834Y-65342456D01*
X52550080Y-65441529D01*
X52564623Y-65473373D01*
X52654093Y-65576628D01*
X52658873Y-65582144D01*
X52779942Y-65659950D01*
X52779947Y-65659953D01*
X52882436Y-65690046D01*
X52918035Y-65700499D01*
X52918036Y-65700499D01*
X52918039Y-65700500D01*
X52918041Y-65700500D01*
X53061959Y-65700500D01*
X53061961Y-65700500D01*
X53200053Y-65659953D01*
X53234988Y-65637502D01*
X62809553Y-65637502D01*
X62830034Y-65779956D01*
X62887551Y-65905899D01*
X62889823Y-65910873D01*
X62984072Y-66019643D01*
X62984073Y-66019644D01*
X63105142Y-66097450D01*
X63105147Y-66097453D01*
X63211603Y-66128711D01*
X63243235Y-66137999D01*
X63243236Y-66137999D01*
X63243239Y-66138000D01*
X63243241Y-66138000D01*
X63387159Y-66138000D01*
X63387161Y-66138000D01*
X63525253Y-66097453D01*
X63646328Y-66019643D01*
X63740577Y-65910873D01*
X63800365Y-65779957D01*
X63807192Y-65732471D01*
X63820847Y-65637502D01*
X63820847Y-65637497D01*
X63800365Y-65495043D01*
X63740577Y-65364127D01*
X63646328Y-65255357D01*
X63646327Y-65255356D01*
X63646326Y-65255355D01*
X63525257Y-65177549D01*
X63525254Y-65177547D01*
X63525253Y-65177547D01*
X63525250Y-65177546D01*
X63387164Y-65137000D01*
X63387161Y-65137000D01*
X63243239Y-65137000D01*
X63243235Y-65137000D01*
X63105149Y-65177546D01*
X63105142Y-65177549D01*
X62984073Y-65255355D01*
X62889822Y-65364128D01*
X62830034Y-65495043D01*
X62809553Y-65637497D01*
X62809553Y-65637502D01*
X53234988Y-65637502D01*
X53321128Y-65582143D01*
X53415377Y-65473373D01*
X53475165Y-65342457D01*
X53495647Y-65200000D01*
X53494562Y-65192457D01*
X53475165Y-65057543D01*
X53440731Y-64982144D01*
X53415377Y-64926627D01*
X53321128Y-64817857D01*
X53321127Y-64817856D01*
X53321126Y-64817855D01*
X53200057Y-64740049D01*
X53200054Y-64740047D01*
X53200053Y-64740047D01*
X53200050Y-64740046D01*
X53061964Y-64699500D01*
X53061961Y-64699500D01*
X52918039Y-64699500D01*
X52918035Y-64699500D01*
X52779949Y-64740046D01*
X52779942Y-64740049D01*
X52658873Y-64817855D01*
X52564622Y-64926628D01*
X52504834Y-65057543D01*
X52484353Y-65199997D01*
X52484353Y-65200002D01*
X17171719Y-65200002D01*
X17175165Y-65192457D01*
X17183853Y-65132027D01*
X17195647Y-65050002D01*
X17195647Y-65049997D01*
X17175165Y-64907543D01*
X17145807Y-64843259D01*
X17115377Y-64776627D01*
X17021128Y-64667857D01*
X17021127Y-64667856D01*
X17021126Y-64667855D01*
X16915544Y-64600002D01*
X51084353Y-64600002D01*
X51104834Y-64742456D01*
X51139268Y-64817855D01*
X51164623Y-64873373D01*
X51230138Y-64948982D01*
X51258873Y-64982144D01*
X51364463Y-65050002D01*
X51379947Y-65059953D01*
X51486403Y-65091211D01*
X51518035Y-65100499D01*
X51518036Y-65100499D01*
X51518039Y-65100500D01*
X51518041Y-65100500D01*
X51661959Y-65100500D01*
X51661961Y-65100500D01*
X51800053Y-65059953D01*
X51921128Y-64982143D01*
X52015377Y-64873373D01*
X52075165Y-64742457D01*
X52095492Y-64601078D01*
X52095647Y-64600002D01*
X52095647Y-64599997D01*
X52075165Y-64457543D01*
X52056147Y-64415900D01*
X52015377Y-64326627D01*
X51921128Y-64217857D01*
X51921127Y-64217856D01*
X51921126Y-64217855D01*
X51800057Y-64140049D01*
X51800054Y-64140047D01*
X51800053Y-64140047D01*
X51800050Y-64140046D01*
X51661964Y-64099500D01*
X51661961Y-64099500D01*
X51518039Y-64099500D01*
X51518035Y-64099500D01*
X51379949Y-64140046D01*
X51379942Y-64140049D01*
X51258873Y-64217855D01*
X51164622Y-64326628D01*
X51104834Y-64457543D01*
X51084353Y-64599997D01*
X51084353Y-64600002D01*
X16915544Y-64600002D01*
X16900057Y-64590049D01*
X16900054Y-64590047D01*
X16900053Y-64590047D01*
X16900050Y-64590046D01*
X16761964Y-64549500D01*
X16761961Y-64549500D01*
X16618039Y-64549500D01*
X16618035Y-64549500D01*
X16479949Y-64590046D01*
X16479942Y-64590049D01*
X16358873Y-64667855D01*
X16264622Y-64776628D01*
X16204834Y-64907543D01*
X16184353Y-65049997D01*
X16184353Y-65050002D01*
X16204834Y-65192456D01*
X16264623Y-65323373D01*
X16318169Y-65385170D01*
X16341986Y-65441529D01*
X16328127Y-65501124D01*
X16318169Y-65514830D01*
X16264623Y-65576626D01*
X16204834Y-65707543D01*
X16184353Y-65849997D01*
X16184353Y-65850002D01*
X16204834Y-65992456D01*
X16264622Y-66123371D01*
X16264623Y-66123373D01*
X16358509Y-66231725D01*
X16361494Y-66235169D01*
X16385311Y-66291529D01*
X16371452Y-66351124D01*
X16361493Y-66364831D01*
X16278156Y-66461007D01*
X16225760Y-66492603D01*
X16164799Y-66487367D01*
X16128518Y-66461007D01*
X16091129Y-66417857D01*
X16091127Y-66417856D01*
X15970057Y-66340049D01*
X15970054Y-66340047D01*
X15970053Y-66340047D01*
X15970050Y-66340046D01*
X15831964Y-66299500D01*
X15831961Y-66299500D01*
X15688039Y-66299500D01*
X15688035Y-66299500D01*
X15549949Y-66340046D01*
X15549942Y-66340049D01*
X15428873Y-66417855D01*
X15334622Y-66526628D01*
X15274834Y-66657543D01*
X15254353Y-66799997D01*
X15254353Y-66800002D01*
X300500Y-66800002D01*
X300500Y-65405402D01*
X1593153Y-65405402D01*
X1613634Y-65547856D01*
X1654574Y-65637500D01*
X1673423Y-65678773D01*
X1750614Y-65767857D01*
X1767673Y-65787544D01*
X1864857Y-65850000D01*
X1888747Y-65865353D01*
X1995203Y-65896611D01*
X2026835Y-65905899D01*
X2026836Y-65905899D01*
X2026839Y-65905900D01*
X2026841Y-65905900D01*
X2170759Y-65905900D01*
X2170761Y-65905900D01*
X2308853Y-65865353D01*
X2429928Y-65787543D01*
X2524177Y-65678773D01*
X2583965Y-65547857D01*
X2598035Y-65450000D01*
X2604447Y-65405402D01*
X5293153Y-65405402D01*
X5313634Y-65547856D01*
X5354574Y-65637500D01*
X5373423Y-65678773D01*
X5450614Y-65767857D01*
X5467673Y-65787544D01*
X5564857Y-65850000D01*
X5588747Y-65865353D01*
X5695203Y-65896611D01*
X5726835Y-65905899D01*
X5726836Y-65905899D01*
X5726839Y-65905900D01*
X5726841Y-65905900D01*
X5870759Y-65905900D01*
X5870761Y-65905900D01*
X6008853Y-65865353D01*
X6129928Y-65787543D01*
X6224177Y-65678773D01*
X6283965Y-65547857D01*
X6298035Y-65450000D01*
X6304447Y-65405402D01*
X6304447Y-65405397D01*
X6283965Y-65262943D01*
X6255220Y-65200002D01*
X6224177Y-65132027D01*
X6129928Y-65023257D01*
X6129927Y-65023256D01*
X6129926Y-65023255D01*
X6008857Y-64945449D01*
X6008854Y-64945447D01*
X6008853Y-64945447D01*
X6008850Y-64945446D01*
X5870764Y-64904900D01*
X5870761Y-64904900D01*
X5726839Y-64904900D01*
X5726835Y-64904900D01*
X5588749Y-64945446D01*
X5588742Y-64945449D01*
X5467673Y-65023255D01*
X5373422Y-65132028D01*
X5313634Y-65262943D01*
X5293153Y-65405397D01*
X5293153Y-65405402D01*
X2604447Y-65405402D01*
X2604447Y-65405397D01*
X2583965Y-65262943D01*
X2555220Y-65200002D01*
X2524177Y-65132027D01*
X2429928Y-65023257D01*
X2429927Y-65023256D01*
X2429926Y-65023255D01*
X2308857Y-64945449D01*
X2308854Y-64945447D01*
X2308853Y-64945447D01*
X2308850Y-64945446D01*
X2170764Y-64904900D01*
X2170761Y-64904900D01*
X2026839Y-64904900D01*
X2026835Y-64904900D01*
X1888749Y-64945446D01*
X1888742Y-64945449D01*
X1767673Y-65023255D01*
X1673422Y-65132028D01*
X1613634Y-65262943D01*
X1593153Y-65405397D01*
X1593153Y-65405402D01*
X300500Y-65405402D01*
X300500Y-63915402D01*
X24493153Y-63915402D01*
X24513634Y-64057856D01*
X24544763Y-64126018D01*
X24573423Y-64188773D01*
X24610655Y-64231741D01*
X24667673Y-64297544D01*
X24788742Y-64375350D01*
X24788747Y-64375353D01*
X24877732Y-64401481D01*
X24926835Y-64415899D01*
X24926836Y-64415899D01*
X24926839Y-64415900D01*
X24926841Y-64415900D01*
X25070759Y-64415900D01*
X25070761Y-64415900D01*
X25208853Y-64375353D01*
X25329928Y-64297543D01*
X25424177Y-64188773D01*
X25483965Y-64057857D01*
X25504447Y-63915400D01*
X25504447Y-63915394D01*
X25483965Y-63772943D01*
X25475328Y-63754031D01*
X62614500Y-63754031D01*
X62640460Y-63884537D01*
X62691378Y-64007466D01*
X62691379Y-64007468D01*
X62691380Y-64007469D01*
X62765305Y-64118106D01*
X62859394Y-64212195D01*
X62970031Y-64286120D01*
X63092964Y-64337040D01*
X63223469Y-64363000D01*
X63223470Y-64363000D01*
X63356530Y-64363000D01*
X63356531Y-64363000D01*
X63487036Y-64337040D01*
X63609969Y-64286120D01*
X63720606Y-64212195D01*
X63814695Y-64118106D01*
X63888620Y-64007469D01*
X63939540Y-63884536D01*
X63965500Y-63754031D01*
X63965500Y-63320969D01*
X63939540Y-63190464D01*
X63894673Y-63082144D01*
X63888621Y-63067533D01*
X63875060Y-63047238D01*
X63814695Y-62956894D01*
X63720606Y-62862805D01*
X63685392Y-62839276D01*
X63609966Y-62788878D01*
X63487037Y-62737960D01*
X63356531Y-62712000D01*
X63223469Y-62712000D01*
X63223468Y-62712000D01*
X63092962Y-62737960D01*
X62970033Y-62788878D01*
X62859397Y-62862802D01*
X62765302Y-62956897D01*
X62691378Y-63067533D01*
X62640460Y-63190462D01*
X62614500Y-63320968D01*
X62614500Y-63754031D01*
X25475328Y-63754031D01*
X25424177Y-63642028D01*
X25424177Y-63642027D01*
X25329928Y-63533257D01*
X25329927Y-63533256D01*
X25329926Y-63533255D01*
X25276131Y-63498684D01*
X25237400Y-63451319D01*
X25233906Y-63390233D01*
X25266985Y-63338760D01*
X25276131Y-63332116D01*
X25329928Y-63297543D01*
X25424177Y-63188773D01*
X25483965Y-63057857D01*
X25504447Y-62915400D01*
X25501566Y-62895364D01*
X25483965Y-62772943D01*
X25478384Y-62760723D01*
X25424177Y-62642027D01*
X25329928Y-62533257D01*
X25329927Y-62533256D01*
X25329926Y-62533255D01*
X25208857Y-62455449D01*
X25208854Y-62455447D01*
X25208853Y-62455447D01*
X25203091Y-62453755D01*
X25070764Y-62414900D01*
X25070761Y-62414900D01*
X24926839Y-62414900D01*
X24926835Y-62414900D01*
X24788749Y-62455446D01*
X24788742Y-62455449D01*
X24667673Y-62533255D01*
X24573422Y-62642028D01*
X24513634Y-62772943D01*
X24493153Y-62915397D01*
X24493153Y-62915402D01*
X24513634Y-63057856D01*
X24573422Y-63188771D01*
X24573423Y-63188773D01*
X24667672Y-63297543D01*
X24721469Y-63332116D01*
X24760200Y-63379482D01*
X24763693Y-63440568D01*
X24730613Y-63492040D01*
X24721469Y-63498684D01*
X24667672Y-63533257D01*
X24573422Y-63642028D01*
X24513634Y-63772943D01*
X24493153Y-63915394D01*
X24493153Y-63915402D01*
X300500Y-63915402D01*
X300500Y-62800002D01*
X8054353Y-62800002D01*
X8074834Y-62942456D01*
X8127537Y-63057857D01*
X8134623Y-63073373D01*
X8228871Y-63182142D01*
X8228873Y-63182144D01*
X8257436Y-63200500D01*
X8349947Y-63259953D01*
X8456403Y-63291211D01*
X8488035Y-63300499D01*
X8488036Y-63300499D01*
X8488039Y-63300500D01*
X8488041Y-63300500D01*
X8631959Y-63300500D01*
X8631961Y-63300500D01*
X8770053Y-63259953D01*
X8891128Y-63182143D01*
X8985182Y-63073597D01*
X9037576Y-63042003D01*
X9098537Y-63047238D01*
X9134816Y-63073596D01*
X9228871Y-63182142D01*
X9228873Y-63182144D01*
X9257436Y-63200500D01*
X9349947Y-63259953D01*
X9456403Y-63291211D01*
X9488035Y-63300499D01*
X9488036Y-63300499D01*
X9488039Y-63300500D01*
X9488041Y-63300500D01*
X9631959Y-63300500D01*
X9631961Y-63300500D01*
X9770053Y-63259953D01*
X9891128Y-63182143D01*
X9939876Y-63125883D01*
X9992272Y-63094287D01*
X10053233Y-63099522D01*
X10068219Y-63107430D01*
X10149947Y-63159953D01*
X10248093Y-63188771D01*
X10288035Y-63200499D01*
X10288036Y-63200499D01*
X10288039Y-63200500D01*
X10288041Y-63200500D01*
X10431959Y-63200500D01*
X10431961Y-63200500D01*
X10570053Y-63159953D01*
X10691128Y-63082143D01*
X10735181Y-63031302D01*
X10787576Y-62999707D01*
X10848537Y-63004942D01*
X10884817Y-63031301D01*
X10921271Y-63073371D01*
X10928873Y-63082144D01*
X10947768Y-63094287D01*
X11049947Y-63159953D01*
X11148093Y-63188771D01*
X11188035Y-63200499D01*
X11188036Y-63200499D01*
X11188039Y-63200500D01*
X11188041Y-63200500D01*
X11331959Y-63200500D01*
X11331961Y-63200500D01*
X11470053Y-63159953D01*
X11591128Y-63082143D01*
X11685377Y-62973373D01*
X11709419Y-62920728D01*
X11750789Y-62875653D01*
X11810755Y-62863501D01*
X11852992Y-62878570D01*
X11879124Y-62895364D01*
X11961175Y-62919456D01*
X12017212Y-62935910D01*
X12017213Y-62935910D01*
X12017216Y-62935911D01*
X12017218Y-62935911D01*
X12161136Y-62935911D01*
X12161138Y-62935911D01*
X12299230Y-62895364D01*
X12420305Y-62817554D01*
X12514554Y-62708784D01*
X12543035Y-62646417D01*
X12584406Y-62601342D01*
X12644372Y-62589190D01*
X12660979Y-62592555D01*
X12688035Y-62600499D01*
X12688036Y-62600499D01*
X12688039Y-62600500D01*
X12688040Y-62600500D01*
X12831959Y-62600500D01*
X12831961Y-62600500D01*
X12970053Y-62559953D01*
X13091128Y-62482143D01*
X13185377Y-62373373D01*
X13245165Y-62242457D01*
X13265647Y-62100000D01*
X13245165Y-61957543D01*
X13185377Y-61826627D01*
X13091128Y-61717857D01*
X13091127Y-61717856D01*
X13091126Y-61717855D01*
X12970057Y-61640049D01*
X12970054Y-61640047D01*
X12970053Y-61640047D01*
X12970050Y-61640046D01*
X12831964Y-61599500D01*
X12831961Y-61599500D01*
X12688039Y-61599500D01*
X12688035Y-61599500D01*
X12549949Y-61640046D01*
X12549942Y-61640049D01*
X12428873Y-61717855D01*
X12334622Y-61826628D01*
X12306141Y-61888992D01*
X12264769Y-61934069D01*
X12204802Y-61946220D01*
X12188199Y-61942856D01*
X12161139Y-61934911D01*
X12161138Y-61934911D01*
X12017216Y-61934911D01*
X12017212Y-61934911D01*
X11879126Y-61975457D01*
X11879119Y-61975460D01*
X11758050Y-62053266D01*
X11663799Y-62162038D01*
X11639757Y-62214682D01*
X11598384Y-62259759D01*
X11538417Y-62271908D01*
X11496181Y-62256838D01*
X11470057Y-62240049D01*
X11470054Y-62240047D01*
X11470053Y-62240047D01*
X11470050Y-62240046D01*
X11331964Y-62199500D01*
X11331961Y-62199500D01*
X11188039Y-62199500D01*
X11188035Y-62199500D01*
X11049949Y-62240046D01*
X11049942Y-62240049D01*
X10928872Y-62317856D01*
X10928870Y-62317858D01*
X10884819Y-62368696D01*
X10832423Y-62400292D01*
X10771462Y-62395056D01*
X10735181Y-62368696D01*
X10691129Y-62317858D01*
X10691127Y-62317856D01*
X10570057Y-62240049D01*
X10570054Y-62240047D01*
X10570053Y-62240047D01*
X10570050Y-62240046D01*
X10431964Y-62199500D01*
X10431961Y-62199500D01*
X10288039Y-62199500D01*
X10288035Y-62199500D01*
X10149949Y-62240046D01*
X10149942Y-62240049D01*
X10028872Y-62317856D01*
X9980122Y-62374117D01*
X9927726Y-62405712D01*
X9866765Y-62400476D01*
X9851780Y-62392569D01*
X9770057Y-62340049D01*
X9770054Y-62340047D01*
X9770053Y-62340047D01*
X9770050Y-62340046D01*
X9631964Y-62299500D01*
X9631961Y-62299500D01*
X9488039Y-62299500D01*
X9488035Y-62299500D01*
X9349949Y-62340046D01*
X9349942Y-62340049D01*
X9228872Y-62417856D01*
X9228870Y-62417858D01*
X9134819Y-62526400D01*
X9082424Y-62557996D01*
X9021463Y-62552760D01*
X8985181Y-62526400D01*
X8891129Y-62417858D01*
X8891127Y-62417856D01*
X8770057Y-62340049D01*
X8770054Y-62340047D01*
X8770053Y-62340047D01*
X8770050Y-62340046D01*
X8631964Y-62299500D01*
X8631961Y-62299500D01*
X8488039Y-62299500D01*
X8488035Y-62299500D01*
X8349949Y-62340046D01*
X8349942Y-62340049D01*
X8228873Y-62417855D01*
X8134622Y-62526628D01*
X8074834Y-62657543D01*
X8054353Y-62799997D01*
X8054353Y-62800002D01*
X300500Y-62800002D01*
X300500Y-61415402D01*
X8911153Y-61415402D01*
X8931634Y-61557856D01*
X8973877Y-61650353D01*
X8991423Y-61688773D01*
X9085672Y-61797543D01*
X9085673Y-61797544D01*
X9130929Y-61826628D01*
X9206747Y-61875353D01*
X9313203Y-61906611D01*
X9344835Y-61915899D01*
X9344836Y-61915899D01*
X9344839Y-61915900D01*
X9344841Y-61915900D01*
X9488759Y-61915900D01*
X9488761Y-61915900D01*
X9626853Y-61875353D01*
X9747928Y-61797543D01*
X9842177Y-61688773D01*
X9901965Y-61557857D01*
X9915492Y-61463773D01*
X9922447Y-61415402D01*
X9922447Y-61415397D01*
X9901965Y-61272943D01*
X9875914Y-61215900D01*
X9842177Y-61142027D01*
X9747928Y-61033257D01*
X9747927Y-61033256D01*
X9747926Y-61033255D01*
X9626857Y-60955449D01*
X9626849Y-60955445D01*
X9611333Y-60950890D01*
X9560825Y-60916355D01*
X9540263Y-60858728D01*
X9557501Y-60800021D01*
X9605953Y-60762658D01*
X9611333Y-60760910D01*
X9626853Y-60756353D01*
X9690574Y-60715402D01*
X11493153Y-60715402D01*
X11513634Y-60857856D01*
X11542074Y-60920130D01*
X11573423Y-60988773D01*
X11657949Y-61086322D01*
X11667673Y-61097544D01*
X11736892Y-61142028D01*
X11788747Y-61175353D01*
X11895203Y-61206611D01*
X11926835Y-61215899D01*
X11926836Y-61215899D01*
X11926839Y-61215900D01*
X11926841Y-61215900D01*
X12070759Y-61215900D01*
X12070761Y-61215900D01*
X12208853Y-61175353D01*
X12329928Y-61097543D01*
X12424177Y-60988773D01*
X12483965Y-60857857D01*
X12491097Y-60808255D01*
X12504447Y-60715402D01*
X12504447Y-60715397D01*
X12483965Y-60572943D01*
X12466611Y-60534943D01*
X12457687Y-60515402D01*
X14593153Y-60515402D01*
X14613634Y-60657856D01*
X14673422Y-60788771D01*
X14673423Y-60788773D01*
X14734039Y-60858728D01*
X14767673Y-60897544D01*
X14888742Y-60975350D01*
X14888747Y-60975353D01*
X14995203Y-61006611D01*
X15026835Y-61015899D01*
X15026836Y-61015899D01*
X15026839Y-61015900D01*
X15026841Y-61015900D01*
X15170759Y-61015900D01*
X15170761Y-61015900D01*
X15307446Y-60975766D01*
X15368605Y-60977513D01*
X15417058Y-61014876D01*
X15434296Y-61073583D01*
X15433328Y-61084844D01*
X15418153Y-61190395D01*
X15418153Y-61190402D01*
X15438634Y-61332856D01*
X15476332Y-61415402D01*
X15498423Y-61463773D01*
X15579946Y-61557856D01*
X15592673Y-61572544D01*
X15713742Y-61650350D01*
X15713747Y-61650353D01*
X15820203Y-61681611D01*
X15851835Y-61690899D01*
X15851836Y-61690899D01*
X15851839Y-61690900D01*
X15851841Y-61690900D01*
X15995759Y-61690900D01*
X15995761Y-61690900D01*
X16133853Y-61650353D01*
X16254928Y-61572543D01*
X16349177Y-61463773D01*
X16408965Y-61332857D01*
X16429447Y-61190402D01*
X16693153Y-61190402D01*
X16713634Y-61332856D01*
X16751332Y-61415402D01*
X16773423Y-61463773D01*
X16854946Y-61557856D01*
X16867673Y-61572544D01*
X16988742Y-61650350D01*
X16988747Y-61650353D01*
X17095203Y-61681611D01*
X17126835Y-61690899D01*
X17126836Y-61690899D01*
X17126839Y-61690900D01*
X17126841Y-61690900D01*
X17270759Y-61690900D01*
X17270761Y-61690900D01*
X17408853Y-61650353D01*
X17529928Y-61572543D01*
X17624177Y-61463773D01*
X17683965Y-61332857D01*
X17704447Y-61190402D01*
X17968153Y-61190402D01*
X17988634Y-61332856D01*
X18026332Y-61415402D01*
X18048423Y-61463773D01*
X18129946Y-61557856D01*
X18142673Y-61572544D01*
X18263742Y-61650350D01*
X18263747Y-61650353D01*
X18370203Y-61681611D01*
X18401835Y-61690899D01*
X18401836Y-61690899D01*
X18401839Y-61690900D01*
X18401841Y-61690900D01*
X18545759Y-61690900D01*
X18545761Y-61690900D01*
X18683853Y-61650353D01*
X18804928Y-61572543D01*
X18899177Y-61463773D01*
X18958965Y-61332857D01*
X18979447Y-61190400D01*
X18979282Y-61189254D01*
X18979447Y-61188302D01*
X18979447Y-61183319D01*
X18980309Y-61183319D01*
X18989713Y-61128967D01*
X19033589Y-61086322D01*
X19094152Y-61077612D01*
X19105149Y-61080169D01*
X19226839Y-61115900D01*
X19226841Y-61115900D01*
X19370759Y-61115900D01*
X19370761Y-61115900D01*
X19508853Y-61075353D01*
X19629928Y-60997543D01*
X19724177Y-60888773D01*
X19783965Y-60757857D01*
X19798343Y-60657856D01*
X19804447Y-60615402D01*
X19804447Y-60615397D01*
X19783965Y-60472943D01*
X19757914Y-60415900D01*
X19724177Y-60342027D01*
X19629928Y-60233257D01*
X19629927Y-60233256D01*
X19629926Y-60233255D01*
X19508857Y-60155449D01*
X19508854Y-60155447D01*
X19508853Y-60155447D01*
X19503724Y-60153941D01*
X19370764Y-60114900D01*
X19370761Y-60114900D01*
X19226839Y-60114900D01*
X19226835Y-60114900D01*
X19086401Y-60156135D01*
X19025240Y-60154387D01*
X18976788Y-60117024D01*
X18959550Y-60058317D01*
X18960518Y-60047056D01*
X18979447Y-59915402D01*
X18979447Y-59915397D01*
X18958965Y-59772943D01*
X18942779Y-59737502D01*
X18932686Y-59715402D01*
X21493153Y-59715402D01*
X21513634Y-59857856D01*
X21552359Y-59942650D01*
X21573423Y-59988773D01*
X21633683Y-60058317D01*
X21667673Y-60097544D01*
X21758843Y-60156135D01*
X21788747Y-60175353D01*
X21864014Y-60197453D01*
X21926835Y-60215899D01*
X21926836Y-60215899D01*
X21926839Y-60215900D01*
X21926841Y-60215900D01*
X22070759Y-60215900D01*
X22070761Y-60215900D01*
X22208853Y-60175353D01*
X22329928Y-60097543D01*
X22424177Y-59988773D01*
X22457685Y-59915402D01*
X25493153Y-59915402D01*
X25513634Y-60057856D01*
X25567293Y-60175350D01*
X25573423Y-60188773D01*
X25665691Y-60295257D01*
X25667673Y-60297544D01*
X25736892Y-60342028D01*
X25788747Y-60375353D01*
X25886403Y-60404027D01*
X25926835Y-60415899D01*
X25926836Y-60415899D01*
X25926839Y-60415900D01*
X25926841Y-60415900D01*
X26070759Y-60415900D01*
X26070761Y-60415900D01*
X26208853Y-60375353D01*
X26329928Y-60297543D01*
X26424177Y-60188773D01*
X26483965Y-60057857D01*
X26502226Y-59930849D01*
X26504447Y-59915402D01*
X26504447Y-59915397D01*
X26483965Y-59772943D01*
X26467779Y-59737502D01*
X60634353Y-59737502D01*
X60654834Y-59879956D01*
X60696596Y-59971400D01*
X60714623Y-60010873D01*
X60804762Y-60114900D01*
X60808873Y-60119644D01*
X60929942Y-60197450D01*
X60929947Y-60197453D01*
X61036403Y-60228711D01*
X61068035Y-60237999D01*
X61068036Y-60237999D01*
X61068039Y-60238000D01*
X61068041Y-60238000D01*
X61211959Y-60238000D01*
X61211961Y-60238000D01*
X61350053Y-60197453D01*
X61471128Y-60119643D01*
X61565377Y-60010873D01*
X61625165Y-59879957D01*
X61636413Y-59801723D01*
X61645647Y-59737502D01*
X61645647Y-59737497D01*
X61625165Y-59595043D01*
X61596947Y-59533255D01*
X61565377Y-59464127D01*
X61471128Y-59355357D01*
X61471127Y-59355356D01*
X61471126Y-59355355D01*
X61350057Y-59277549D01*
X61350054Y-59277547D01*
X61350053Y-59277547D01*
X61350050Y-59277546D01*
X61211964Y-59237000D01*
X61211961Y-59237000D01*
X61068039Y-59237000D01*
X61068035Y-59237000D01*
X60929949Y-59277546D01*
X60929942Y-59277549D01*
X60808873Y-59355355D01*
X60714622Y-59464128D01*
X60654834Y-59595043D01*
X60634353Y-59737497D01*
X60634353Y-59737502D01*
X26467779Y-59737502D01*
X26424177Y-59642027D01*
X26329928Y-59533257D01*
X26329927Y-59533256D01*
X26329926Y-59533255D01*
X26276131Y-59498684D01*
X26237400Y-59451319D01*
X26233906Y-59390233D01*
X26266985Y-59338760D01*
X26276131Y-59332116D01*
X26329928Y-59297543D01*
X26424177Y-59188773D01*
X26483965Y-59057857D01*
X26491210Y-59007466D01*
X26504447Y-58915402D01*
X26504447Y-58915397D01*
X26483965Y-58772943D01*
X26475328Y-58754031D01*
X62614500Y-58754031D01*
X62640460Y-58884537D01*
X62691378Y-59007466D01*
X62745694Y-59088757D01*
X62765305Y-59118106D01*
X62859394Y-59212195D01*
X62970031Y-59286120D01*
X63092964Y-59337040D01*
X63223469Y-59363000D01*
X63223470Y-59363000D01*
X63356530Y-59363000D01*
X63356531Y-59363000D01*
X63487036Y-59337040D01*
X63609969Y-59286120D01*
X63720606Y-59212195D01*
X63814695Y-59118106D01*
X63888620Y-59007469D01*
X63939540Y-58884536D01*
X63965500Y-58754031D01*
X63965500Y-58320969D01*
X63939540Y-58190464D01*
X63888620Y-58067531D01*
X63814695Y-57956894D01*
X63720606Y-57862805D01*
X63691353Y-57843259D01*
X63609966Y-57788878D01*
X63487037Y-57737960D01*
X63356531Y-57712000D01*
X63223469Y-57712000D01*
X63223468Y-57712000D01*
X63092962Y-57737960D01*
X62970033Y-57788878D01*
X62859397Y-57862802D01*
X62765302Y-57956897D01*
X62691378Y-58067533D01*
X62640460Y-58190462D01*
X62614500Y-58320968D01*
X62614500Y-58754031D01*
X26475328Y-58754031D01*
X26475327Y-58754029D01*
X26424177Y-58642027D01*
X26329928Y-58533257D01*
X26329927Y-58533256D01*
X26329926Y-58533255D01*
X26208857Y-58455449D01*
X26208854Y-58455447D01*
X26208853Y-58455447D01*
X26208850Y-58455446D01*
X26070764Y-58414900D01*
X26070761Y-58414900D01*
X25926839Y-58414900D01*
X25926835Y-58414900D01*
X25788749Y-58455446D01*
X25788742Y-58455449D01*
X25667673Y-58533255D01*
X25573422Y-58642028D01*
X25513634Y-58772943D01*
X25493153Y-58915397D01*
X25493153Y-58915402D01*
X25513634Y-59057856D01*
X25533041Y-59100350D01*
X25573423Y-59188773D01*
X25667672Y-59297543D01*
X25721469Y-59332116D01*
X25760200Y-59379482D01*
X25763693Y-59440568D01*
X25730613Y-59492040D01*
X25721469Y-59498684D01*
X25667672Y-59533257D01*
X25573422Y-59642028D01*
X25513634Y-59772943D01*
X25493153Y-59915397D01*
X25493153Y-59915402D01*
X22457685Y-59915402D01*
X22483965Y-59857857D01*
X22500296Y-59744271D01*
X22504447Y-59715402D01*
X22504447Y-59715397D01*
X22483965Y-59572943D01*
X22465840Y-59533255D01*
X22424177Y-59442027D01*
X22329928Y-59333257D01*
X22329927Y-59333256D01*
X22329926Y-59333255D01*
X22208857Y-59255449D01*
X22208854Y-59255447D01*
X22208853Y-59255447D01*
X22208850Y-59255446D01*
X22070764Y-59214900D01*
X22070761Y-59214900D01*
X21926839Y-59214900D01*
X21926835Y-59214900D01*
X21788749Y-59255446D01*
X21788742Y-59255449D01*
X21667673Y-59333255D01*
X21573422Y-59442028D01*
X21513634Y-59572943D01*
X21493153Y-59715397D01*
X21493153Y-59715402D01*
X18932686Y-59715402D01*
X18899177Y-59642027D01*
X18804928Y-59533257D01*
X18804927Y-59533256D01*
X18804926Y-59533255D01*
X18683857Y-59455449D01*
X18683854Y-59455447D01*
X18683853Y-59455447D01*
X18683850Y-59455446D01*
X18545764Y-59414900D01*
X18545761Y-59414900D01*
X18401839Y-59414900D01*
X18401835Y-59414900D01*
X18263749Y-59455446D01*
X18263742Y-59455449D01*
X18142673Y-59533255D01*
X18048422Y-59642028D01*
X17988634Y-59772943D01*
X17968153Y-59915397D01*
X17968153Y-59915402D01*
X17988634Y-60057856D01*
X18042293Y-60175350D01*
X18048423Y-60188773D01*
X18140691Y-60295257D01*
X18142673Y-60297544D01*
X18211892Y-60342028D01*
X18263747Y-60375353D01*
X18361403Y-60404027D01*
X18401835Y-60415899D01*
X18401836Y-60415899D01*
X18401839Y-60415900D01*
X18401841Y-60415900D01*
X18545759Y-60415900D01*
X18545761Y-60415900D01*
X18683853Y-60375353D01*
X18683855Y-60375351D01*
X18686197Y-60374664D01*
X18747358Y-60376411D01*
X18795811Y-60413774D01*
X18813049Y-60472481D01*
X18812081Y-60483742D01*
X18793153Y-60615395D01*
X18793153Y-60615404D01*
X18793318Y-60616553D01*
X18793153Y-60617506D01*
X18793153Y-60622481D01*
X18792292Y-60622481D01*
X18782881Y-60676841D01*
X18739000Y-60719481D01*
X18678437Y-60728185D01*
X18667434Y-60725626D01*
X18545764Y-60689900D01*
X18545761Y-60689900D01*
X18401839Y-60689900D01*
X18401835Y-60689900D01*
X18263749Y-60730446D01*
X18263742Y-60730449D01*
X18142673Y-60808255D01*
X18048422Y-60917028D01*
X17988634Y-61047943D01*
X17968153Y-61190397D01*
X17968153Y-61190402D01*
X17704447Y-61190402D01*
X17704447Y-61190400D01*
X17704446Y-61190395D01*
X17683965Y-61047943D01*
X17660948Y-60997543D01*
X17624177Y-60917027D01*
X17529928Y-60808257D01*
X17529927Y-60808256D01*
X17529926Y-60808255D01*
X17408857Y-60730449D01*
X17408854Y-60730447D01*
X17408853Y-60730447D01*
X17401490Y-60728285D01*
X17270764Y-60689900D01*
X17270761Y-60689900D01*
X17126839Y-60689900D01*
X17126835Y-60689900D01*
X16988749Y-60730446D01*
X16988742Y-60730449D01*
X16867673Y-60808255D01*
X16773422Y-60917028D01*
X16713634Y-61047943D01*
X16693153Y-61190397D01*
X16693153Y-61190402D01*
X16429447Y-61190402D01*
X16429447Y-61190400D01*
X16429446Y-61190395D01*
X16408965Y-61047943D01*
X16385948Y-60997543D01*
X16349177Y-60917027D01*
X16254928Y-60808257D01*
X16254927Y-60808256D01*
X16254926Y-60808255D01*
X16133857Y-60730449D01*
X16133854Y-60730447D01*
X16133853Y-60730447D01*
X16126490Y-60728285D01*
X15995764Y-60689900D01*
X15995761Y-60689900D01*
X15851839Y-60689900D01*
X15851835Y-60689900D01*
X15715154Y-60730033D01*
X15653993Y-60728285D01*
X15605541Y-60690922D01*
X15588303Y-60632215D01*
X15589271Y-60620954D01*
X15604447Y-60515402D01*
X15604447Y-60515398D01*
X15600529Y-60488151D01*
X15610962Y-60427862D01*
X15654839Y-60385219D01*
X15715401Y-60376511D01*
X15726396Y-60379067D01*
X15851839Y-60415900D01*
X15851841Y-60415900D01*
X15995759Y-60415900D01*
X15995761Y-60415900D01*
X16133853Y-60375353D01*
X16254928Y-60297543D01*
X16349177Y-60188773D01*
X16408965Y-60057857D01*
X16427226Y-59930849D01*
X16429447Y-59915402D01*
X16693153Y-59915402D01*
X16713634Y-60057856D01*
X16767293Y-60175350D01*
X16773423Y-60188773D01*
X16865691Y-60295257D01*
X16867673Y-60297544D01*
X16936892Y-60342028D01*
X16988747Y-60375353D01*
X17086403Y-60404027D01*
X17126835Y-60415899D01*
X17126836Y-60415899D01*
X17126839Y-60415900D01*
X17126841Y-60415900D01*
X17270759Y-60415900D01*
X17270761Y-60415900D01*
X17408853Y-60375353D01*
X17529928Y-60297543D01*
X17624177Y-60188773D01*
X17683965Y-60057857D01*
X17702226Y-59930849D01*
X17704447Y-59915402D01*
X17704447Y-59915397D01*
X17683965Y-59772943D01*
X17667779Y-59737502D01*
X17624177Y-59642027D01*
X17529928Y-59533257D01*
X17529927Y-59533256D01*
X17529926Y-59533255D01*
X17408857Y-59455449D01*
X17408854Y-59455447D01*
X17408853Y-59455447D01*
X17408850Y-59455446D01*
X17270764Y-59414900D01*
X17270761Y-59414900D01*
X17126839Y-59414900D01*
X17126835Y-59414900D01*
X16988749Y-59455446D01*
X16988742Y-59455449D01*
X16867673Y-59533255D01*
X16773422Y-59642028D01*
X16713634Y-59772943D01*
X16693153Y-59915397D01*
X16693153Y-59915402D01*
X16429447Y-59915402D01*
X16429447Y-59915397D01*
X16408965Y-59772943D01*
X16392779Y-59737502D01*
X16349177Y-59642027D01*
X16254928Y-59533257D01*
X16254927Y-59533256D01*
X16254926Y-59533255D01*
X16133857Y-59455449D01*
X16133854Y-59455447D01*
X16133853Y-59455447D01*
X16133850Y-59455446D01*
X15995764Y-59414900D01*
X15995761Y-59414900D01*
X15851839Y-59414900D01*
X15851835Y-59414900D01*
X15713749Y-59455446D01*
X15713742Y-59455449D01*
X15592673Y-59533255D01*
X15498422Y-59642028D01*
X15438634Y-59772943D01*
X15418153Y-59915397D01*
X15418153Y-59915404D01*
X15422070Y-59942650D01*
X15411636Y-60002939D01*
X15367758Y-60045581D01*
X15307195Y-60054288D01*
X15296187Y-60051728D01*
X15170764Y-60014900D01*
X15170761Y-60014900D01*
X15026839Y-60014900D01*
X15026835Y-60014900D01*
X14888749Y-60055446D01*
X14888742Y-60055449D01*
X14767673Y-60133255D01*
X14673422Y-60242028D01*
X14613634Y-60372943D01*
X14593153Y-60515397D01*
X14593153Y-60515402D01*
X12457687Y-60515402D01*
X12424177Y-60442027D01*
X12329928Y-60333257D01*
X12329927Y-60333256D01*
X12329926Y-60333255D01*
X12208857Y-60255449D01*
X12208854Y-60255447D01*
X12208853Y-60255447D01*
X12208850Y-60255446D01*
X12070764Y-60214900D01*
X12070761Y-60214900D01*
X11926839Y-60214900D01*
X11926835Y-60214900D01*
X11788749Y-60255446D01*
X11788742Y-60255449D01*
X11667673Y-60333255D01*
X11573422Y-60442028D01*
X11513634Y-60572943D01*
X11493153Y-60715397D01*
X11493153Y-60715402D01*
X9690574Y-60715402D01*
X9747928Y-60678543D01*
X9842177Y-60569773D01*
X9901965Y-60438857D01*
X9911096Y-60375350D01*
X9922447Y-60296402D01*
X9922447Y-60296397D01*
X9901965Y-60153943D01*
X9901965Y-60153941D01*
X9843701Y-60026362D01*
X9836726Y-59965576D01*
X9866812Y-59912299D01*
X9922468Y-59886881D01*
X9982435Y-59899032D01*
X9987271Y-59901949D01*
X10032247Y-59930853D01*
X10138703Y-59962111D01*
X10170335Y-59971399D01*
X10170336Y-59971399D01*
X10170339Y-59971400D01*
X10170341Y-59971400D01*
X10314259Y-59971400D01*
X10314261Y-59971400D01*
X10452353Y-59930853D01*
X10573428Y-59853043D01*
X10667677Y-59744273D01*
X10727465Y-59613357D01*
X10738982Y-59533255D01*
X10747947Y-59470902D01*
X10747947Y-59470897D01*
X10727465Y-59328443D01*
X10708137Y-59286121D01*
X10667677Y-59197527D01*
X10573428Y-59088757D01*
X10573427Y-59088756D01*
X10573426Y-59088755D01*
X10452357Y-59010949D01*
X10452354Y-59010947D01*
X10452353Y-59010947D01*
X10452350Y-59010946D01*
X10314264Y-58970400D01*
X10314261Y-58970400D01*
X10170339Y-58970400D01*
X10170335Y-58970400D01*
X10032249Y-59010946D01*
X10032242Y-59010949D01*
X9911173Y-59088755D01*
X9816922Y-59197528D01*
X9757134Y-59328443D01*
X9736653Y-59470897D01*
X9736653Y-59470902D01*
X9757133Y-59613354D01*
X9815399Y-59740937D01*
X9822373Y-59801723D01*
X9792286Y-59855000D01*
X9736630Y-59880418D01*
X9676664Y-59868267D01*
X9671843Y-59865360D01*
X9626853Y-59836447D01*
X9626850Y-59836446D01*
X9488764Y-59795900D01*
X9488761Y-59795900D01*
X9344839Y-59795900D01*
X9344835Y-59795900D01*
X9206749Y-59836446D01*
X9206742Y-59836449D01*
X9085673Y-59914255D01*
X8991422Y-60023028D01*
X8931634Y-60153943D01*
X8911153Y-60296397D01*
X8911153Y-60296402D01*
X8931634Y-60438856D01*
X8954147Y-60488151D01*
X8991423Y-60569773D01*
X9045529Y-60632215D01*
X9085673Y-60678544D01*
X9166436Y-60730447D01*
X9206747Y-60756353D01*
X9222268Y-60760910D01*
X9272774Y-60795446D01*
X9293336Y-60853073D01*
X9276098Y-60911780D01*
X9227645Y-60949143D01*
X9222278Y-60950886D01*
X9206754Y-60955445D01*
X9206747Y-60955447D01*
X9206742Y-60955449D01*
X9085673Y-61033255D01*
X8991422Y-61142028D01*
X8931634Y-61272943D01*
X8911153Y-61415397D01*
X8911153Y-61415402D01*
X300500Y-61415402D01*
X300500Y-60677402D01*
X7704653Y-60677402D01*
X7725134Y-60819856D01*
X7784179Y-60949143D01*
X7784923Y-60950773D01*
X7869121Y-61047943D01*
X7879173Y-61059544D01*
X7966865Y-61115900D01*
X8000247Y-61137353D01*
X8106703Y-61168611D01*
X8138335Y-61177899D01*
X8138336Y-61177899D01*
X8138339Y-61177900D01*
X8138341Y-61177900D01*
X8282259Y-61177900D01*
X8282261Y-61177900D01*
X8420353Y-61137353D01*
X8541428Y-61059543D01*
X8635677Y-60950773D01*
X8695465Y-60819857D01*
X8710483Y-60715402D01*
X8715947Y-60677402D01*
X8715947Y-60677397D01*
X8695465Y-60534943D01*
X8686539Y-60515398D01*
X8635677Y-60404027D01*
X8541428Y-60295257D01*
X8541427Y-60295256D01*
X8541426Y-60295255D01*
X8420357Y-60217449D01*
X8420354Y-60217447D01*
X8420353Y-60217447D01*
X8420350Y-60217446D01*
X8282264Y-60176900D01*
X8282261Y-60176900D01*
X8138339Y-60176900D01*
X8138335Y-60176900D01*
X8000249Y-60217446D01*
X8000242Y-60217449D01*
X7879173Y-60295255D01*
X7784922Y-60404028D01*
X7725134Y-60534943D01*
X7704653Y-60677397D01*
X7704653Y-60677402D01*
X300500Y-60677402D01*
X300500Y-58705402D01*
X5293153Y-58705402D01*
X5313634Y-58847856D01*
X5330386Y-58884536D01*
X5373423Y-58978773D01*
X5441949Y-59057857D01*
X5467673Y-59087544D01*
X5550697Y-59140900D01*
X5588747Y-59165353D01*
X5695203Y-59196611D01*
X5726835Y-59205899D01*
X5726836Y-59205899D01*
X5726839Y-59205900D01*
X5726841Y-59205900D01*
X5870759Y-59205900D01*
X5870761Y-59205900D01*
X6008853Y-59165353D01*
X6129928Y-59087543D01*
X6224177Y-58978773D01*
X6283965Y-58847857D01*
X6290792Y-58800371D01*
X6304447Y-58705402D01*
X6304447Y-58705397D01*
X6295102Y-58640402D01*
X15418153Y-58640402D01*
X15438634Y-58782856D01*
X15468319Y-58847856D01*
X15498423Y-58913773D01*
X15582623Y-59010946D01*
X15592673Y-59022544D01*
X15695700Y-59088755D01*
X15713747Y-59100353D01*
X15820203Y-59131611D01*
X15851835Y-59140899D01*
X15851836Y-59140899D01*
X15851839Y-59140900D01*
X15851841Y-59140900D01*
X15995759Y-59140900D01*
X15995761Y-59140900D01*
X16133853Y-59100353D01*
X16254928Y-59022543D01*
X16349177Y-58913773D01*
X16408965Y-58782857D01*
X16429447Y-58640402D01*
X16693153Y-58640402D01*
X16713634Y-58782856D01*
X16743319Y-58847856D01*
X16773423Y-58913773D01*
X16857623Y-59010946D01*
X16867673Y-59022544D01*
X16970700Y-59088755D01*
X16988747Y-59100353D01*
X17095203Y-59131611D01*
X17126835Y-59140899D01*
X17126836Y-59140899D01*
X17126839Y-59140900D01*
X17126841Y-59140900D01*
X17270759Y-59140900D01*
X17270761Y-59140900D01*
X17408853Y-59100353D01*
X17529928Y-59022543D01*
X17624177Y-58913773D01*
X17683965Y-58782857D01*
X17704447Y-58640402D01*
X17968153Y-58640402D01*
X17988634Y-58782856D01*
X18018319Y-58847856D01*
X18048423Y-58913773D01*
X18132623Y-59010946D01*
X18142673Y-59022544D01*
X18245700Y-59088755D01*
X18263747Y-59100353D01*
X18370203Y-59131611D01*
X18401835Y-59140899D01*
X18401836Y-59140899D01*
X18401839Y-59140900D01*
X18401841Y-59140900D01*
X18545759Y-59140900D01*
X18545761Y-59140900D01*
X18683853Y-59100353D01*
X18804928Y-59022543D01*
X18899177Y-58913773D01*
X18958965Y-58782857D01*
X18979447Y-58640400D01*
X18968310Y-58562943D01*
X18958965Y-58497943D01*
X18939558Y-58455449D01*
X18899177Y-58367027D01*
X18804928Y-58258257D01*
X18804927Y-58258256D01*
X18804926Y-58258255D01*
X18683857Y-58180449D01*
X18683854Y-58180447D01*
X18683853Y-58180447D01*
X18683850Y-58180446D01*
X18545764Y-58139900D01*
X18545761Y-58139900D01*
X18401839Y-58139900D01*
X18401835Y-58139900D01*
X18263749Y-58180446D01*
X18263742Y-58180449D01*
X18142673Y-58258255D01*
X18048422Y-58367028D01*
X17988634Y-58497943D01*
X17968153Y-58640397D01*
X17968153Y-58640402D01*
X17704447Y-58640402D01*
X17704447Y-58640400D01*
X17693310Y-58562943D01*
X17683965Y-58497943D01*
X17664558Y-58455449D01*
X17624177Y-58367027D01*
X17529928Y-58258257D01*
X17529927Y-58258256D01*
X17529926Y-58258255D01*
X17408857Y-58180449D01*
X17408854Y-58180447D01*
X17408853Y-58180447D01*
X17408850Y-58180446D01*
X17270764Y-58139900D01*
X17270761Y-58139900D01*
X17126839Y-58139900D01*
X17126835Y-58139900D01*
X16988749Y-58180446D01*
X16988742Y-58180449D01*
X16867673Y-58258255D01*
X16773422Y-58367028D01*
X16713634Y-58497943D01*
X16693153Y-58640397D01*
X16693153Y-58640402D01*
X16429447Y-58640402D01*
X16429447Y-58640400D01*
X16418310Y-58562943D01*
X16408965Y-58497943D01*
X16389558Y-58455449D01*
X16349177Y-58367027D01*
X16254928Y-58258257D01*
X16254927Y-58258256D01*
X16254926Y-58258255D01*
X16133857Y-58180449D01*
X16133854Y-58180447D01*
X16133853Y-58180447D01*
X16133850Y-58180446D01*
X15995764Y-58139900D01*
X15995761Y-58139900D01*
X15851839Y-58139900D01*
X15851835Y-58139900D01*
X15713749Y-58180446D01*
X15713742Y-58180449D01*
X15592673Y-58258255D01*
X15498422Y-58367028D01*
X15438634Y-58497943D01*
X15418153Y-58640397D01*
X15418153Y-58640402D01*
X6295102Y-58640402D01*
X6283965Y-58562943D01*
X6254280Y-58497943D01*
X6224177Y-58432027D01*
X6129928Y-58323257D01*
X6129927Y-58323256D01*
X6129926Y-58323255D01*
X6008857Y-58245449D01*
X6008854Y-58245447D01*
X6008853Y-58245447D01*
X6008850Y-58245446D01*
X5870764Y-58204900D01*
X5870761Y-58204900D01*
X5726839Y-58204900D01*
X5726835Y-58204900D01*
X5588749Y-58245446D01*
X5588742Y-58245449D01*
X5467673Y-58323255D01*
X5373422Y-58432028D01*
X5313634Y-58562943D01*
X5293153Y-58705397D01*
X5293153Y-58705402D01*
X300500Y-58705402D01*
X300500Y-57805402D01*
X3793153Y-57805402D01*
X3813634Y-57947856D01*
X3814150Y-57948985D01*
X3873423Y-58078773D01*
X3967672Y-58187543D01*
X3967673Y-58187544D01*
X4077702Y-58258255D01*
X4088747Y-58265353D01*
X4195203Y-58296611D01*
X4226835Y-58305899D01*
X4226836Y-58305899D01*
X4226839Y-58305900D01*
X4226841Y-58305900D01*
X4370759Y-58305900D01*
X4370761Y-58305900D01*
X4508853Y-58265353D01*
X4629928Y-58187543D01*
X4724177Y-58078773D01*
X4783965Y-57947857D01*
X4790792Y-57900371D01*
X4804447Y-57805402D01*
X4804447Y-57805397D01*
X4783965Y-57662943D01*
X4724177Y-57532028D01*
X4724177Y-57532027D01*
X4629928Y-57423257D01*
X4629927Y-57423256D01*
X4629926Y-57423255D01*
X4508857Y-57345449D01*
X4508854Y-57345447D01*
X4508853Y-57345447D01*
X4508053Y-57345212D01*
X4370764Y-57304900D01*
X4370761Y-57304900D01*
X4226839Y-57304900D01*
X4226835Y-57304900D01*
X4088749Y-57345446D01*
X4088742Y-57345449D01*
X3967673Y-57423255D01*
X3873422Y-57532028D01*
X3813634Y-57662943D01*
X3793153Y-57805397D01*
X3793153Y-57805402D01*
X300500Y-57805402D01*
X300500Y-56715402D01*
X5293153Y-56715402D01*
X5313634Y-56857856D01*
X5331718Y-56897453D01*
X5373423Y-56988773D01*
X5467672Y-57097543D01*
X5467673Y-57097544D01*
X5588742Y-57175350D01*
X5588747Y-57175353D01*
X5695203Y-57206611D01*
X5726835Y-57215899D01*
X5726836Y-57215899D01*
X5726839Y-57215900D01*
X5726841Y-57215900D01*
X5870759Y-57215900D01*
X5870761Y-57215900D01*
X6008853Y-57175353D01*
X6129928Y-57097543D01*
X6219299Y-56994402D01*
X9863653Y-56994402D01*
X9884134Y-57136856D01*
X9943922Y-57267771D01*
X9943923Y-57267773D01*
X10014494Y-57349217D01*
X10038173Y-57376544D01*
X10159242Y-57454350D01*
X10159247Y-57454353D01*
X10265703Y-57485611D01*
X10297335Y-57494899D01*
X10297336Y-57494899D01*
X10297339Y-57494900D01*
X10297341Y-57494900D01*
X10441259Y-57494900D01*
X10441261Y-57494900D01*
X10579353Y-57454353D01*
X10700428Y-57376543D01*
X10794677Y-57267773D01*
X10854465Y-57136857D01*
X10868950Y-57036111D01*
X10874947Y-56994402D01*
X10874947Y-56994397D01*
X10854465Y-56851943D01*
X10839714Y-56819643D01*
X10794677Y-56721027D01*
X10700428Y-56612257D01*
X10700427Y-56612256D01*
X10700426Y-56612255D01*
X10579357Y-56534449D01*
X10579354Y-56534447D01*
X10579353Y-56534447D01*
X10579350Y-56534446D01*
X10441264Y-56493900D01*
X10441261Y-56493900D01*
X10297339Y-56493900D01*
X10297335Y-56493900D01*
X10159249Y-56534446D01*
X10159242Y-56534449D01*
X10038173Y-56612255D01*
X9943922Y-56721028D01*
X9884134Y-56851943D01*
X9863653Y-56994397D01*
X9863653Y-56994402D01*
X6219299Y-56994402D01*
X6224177Y-56988773D01*
X6283965Y-56857857D01*
X6304447Y-56715400D01*
X6303796Y-56710873D01*
X6283965Y-56572943D01*
X6224177Y-56442028D01*
X6224177Y-56442027D01*
X6157436Y-56365003D01*
X36804417Y-56365003D01*
X36824698Y-56570929D01*
X36824699Y-56570934D01*
X36884768Y-56768954D01*
X36982316Y-56951452D01*
X37113585Y-57111404D01*
X37113590Y-57111410D01*
X37113595Y-57111414D01*
X37273547Y-57242683D01*
X37273548Y-57242683D01*
X37273550Y-57242685D01*
X37456046Y-57340232D01*
X37575749Y-57376543D01*
X37654065Y-57400300D01*
X37654070Y-57400301D01*
X37859997Y-57420583D01*
X37860000Y-57420583D01*
X37860003Y-57420583D01*
X38065929Y-57400301D01*
X38065934Y-57400300D01*
X38263954Y-57340232D01*
X38446450Y-57242685D01*
X38606410Y-57111410D01*
X38737685Y-56951450D01*
X38835232Y-56768954D01*
X38895300Y-56570934D01*
X38895301Y-56570929D01*
X38908442Y-56437502D01*
X62809553Y-56437502D01*
X62830034Y-56579956D01*
X62844785Y-56612255D01*
X62889823Y-56710873D01*
X62940150Y-56768954D01*
X62984073Y-56819644D01*
X63043534Y-56857857D01*
X63105147Y-56897453D01*
X63211603Y-56928711D01*
X63243235Y-56937999D01*
X63243236Y-56937999D01*
X63243239Y-56938000D01*
X63243241Y-56938000D01*
X63387159Y-56938000D01*
X63387161Y-56938000D01*
X63525253Y-56897453D01*
X63646328Y-56819643D01*
X63740577Y-56710873D01*
X63800365Y-56579957D01*
X63820847Y-56437500D01*
X63800365Y-56295043D01*
X63740577Y-56164127D01*
X63646328Y-56055357D01*
X63646327Y-56055356D01*
X63646326Y-56055355D01*
X63525257Y-55977549D01*
X63525254Y-55977547D01*
X63525253Y-55977547D01*
X63525250Y-55977546D01*
X63387164Y-55937000D01*
X63387161Y-55937000D01*
X63243239Y-55937000D01*
X63243235Y-55937000D01*
X63105149Y-55977546D01*
X63105142Y-55977549D01*
X62984073Y-56055355D01*
X62889822Y-56164128D01*
X62830034Y-56295043D01*
X62809553Y-56437497D01*
X62809553Y-56437502D01*
X38908442Y-56437502D01*
X38915583Y-56365003D01*
X38915583Y-56364996D01*
X38895301Y-56159070D01*
X38895300Y-56159065D01*
X38877078Y-56098997D01*
X38835232Y-55961046D01*
X38737685Y-55778550D01*
X38606410Y-55618590D01*
X38522044Y-55549353D01*
X38446452Y-55487316D01*
X38263954Y-55389768D01*
X38065934Y-55329699D01*
X38065929Y-55329698D01*
X37860003Y-55309417D01*
X37859997Y-55309417D01*
X37654070Y-55329698D01*
X37654065Y-55329699D01*
X37456045Y-55389768D01*
X37273547Y-55487316D01*
X37113595Y-55618585D01*
X37113585Y-55618595D01*
X36982316Y-55778547D01*
X36884768Y-55961045D01*
X36824699Y-56159065D01*
X36824698Y-56159070D01*
X36804417Y-56364996D01*
X36804417Y-56365003D01*
X6157436Y-56365003D01*
X6129928Y-56333257D01*
X6129927Y-56333256D01*
X6129926Y-56333255D01*
X6008857Y-56255449D01*
X6008854Y-56255447D01*
X6008853Y-56255447D01*
X6008850Y-56255446D01*
X5870764Y-56214900D01*
X5870761Y-56214900D01*
X5726839Y-56214900D01*
X5726835Y-56214900D01*
X5588749Y-56255446D01*
X5588742Y-56255449D01*
X5467673Y-56333255D01*
X5373422Y-56442028D01*
X5313634Y-56572943D01*
X5293153Y-56715397D01*
X5293153Y-56715402D01*
X300500Y-56715402D01*
X300500Y-55089402D01*
X7693153Y-55089402D01*
X7713634Y-55231856D01*
X7749056Y-55309417D01*
X7773423Y-55362773D01*
X7867672Y-55471543D01*
X7867673Y-55471544D01*
X7892215Y-55487316D01*
X7988747Y-55549353D01*
X8095203Y-55580611D01*
X8126835Y-55589899D01*
X8126836Y-55589899D01*
X8126839Y-55589900D01*
X8126841Y-55589900D01*
X8270759Y-55589900D01*
X8270761Y-55589900D01*
X8408853Y-55549353D01*
X8529928Y-55471543D01*
X8624177Y-55362773D01*
X8683965Y-55231857D01*
X8704447Y-55089400D01*
X8702427Y-55075353D01*
X8683965Y-54946943D01*
X8657398Y-54888771D01*
X8624177Y-54816027D01*
X8529928Y-54707257D01*
X8529927Y-54707256D01*
X8529926Y-54707255D01*
X8408857Y-54629449D01*
X8408854Y-54629447D01*
X8408853Y-54629447D01*
X8408850Y-54629446D01*
X8361021Y-54615402D01*
X33893353Y-54615402D01*
X33913834Y-54757856D01*
X33942010Y-54819552D01*
X33973623Y-54888773D01*
X34067872Y-54997543D01*
X34067873Y-54997544D01*
X34188942Y-55075350D01*
X34188947Y-55075353D01*
X34295403Y-55106611D01*
X34327035Y-55115899D01*
X34327036Y-55115899D01*
X34327039Y-55115900D01*
X34327041Y-55115900D01*
X34470959Y-55115900D01*
X34470961Y-55115900D01*
X34609053Y-55075353D01*
X34730128Y-54997543D01*
X34824377Y-54888773D01*
X34884165Y-54757857D01*
X34893239Y-54694746D01*
X36809500Y-54694746D01*
X36809501Y-54694758D01*
X36821132Y-54753227D01*
X36821134Y-54753233D01*
X36863093Y-54816028D01*
X36865448Y-54819552D01*
X36931769Y-54863867D01*
X36976231Y-54872711D01*
X36990241Y-54875498D01*
X36990246Y-54875498D01*
X36990252Y-54875500D01*
X36990253Y-54875500D01*
X38729747Y-54875500D01*
X38729748Y-54875500D01*
X38788231Y-54863867D01*
X38854552Y-54819552D01*
X38898867Y-54753231D01*
X38910500Y-54694748D01*
X38910500Y-52955252D01*
X38898867Y-52896769D01*
X38854552Y-52830448D01*
X38854548Y-52830445D01*
X38788233Y-52786134D01*
X38788231Y-52786133D01*
X38788228Y-52786132D01*
X38788227Y-52786132D01*
X38729758Y-52774501D01*
X38729748Y-52774500D01*
X36990252Y-52774500D01*
X36990251Y-52774500D01*
X36990241Y-52774501D01*
X36931772Y-52786132D01*
X36931766Y-52786134D01*
X36865451Y-52830445D01*
X36865445Y-52830451D01*
X36821134Y-52896766D01*
X36821132Y-52896772D01*
X36809501Y-52955241D01*
X36809500Y-52955253D01*
X36809500Y-54694746D01*
X34893239Y-54694746D01*
X34902627Y-54629449D01*
X34904647Y-54615402D01*
X34904647Y-54615397D01*
X34884165Y-54472943D01*
X34824377Y-54342028D01*
X34824377Y-54342027D01*
X34730128Y-54233257D01*
X34730127Y-54233256D01*
X34730126Y-54233255D01*
X34609057Y-54155449D01*
X34609054Y-54155447D01*
X34609053Y-54155447D01*
X34609050Y-54155446D01*
X34470964Y-54114900D01*
X34470961Y-54114900D01*
X34327039Y-54114900D01*
X34327035Y-54114900D01*
X34188949Y-54155446D01*
X34188942Y-54155449D01*
X34067873Y-54233255D01*
X33973622Y-54342028D01*
X33913834Y-54472943D01*
X33893353Y-54615397D01*
X33893353Y-54615402D01*
X8361021Y-54615402D01*
X8270764Y-54588900D01*
X8270761Y-54588900D01*
X8126839Y-54588900D01*
X8126835Y-54588900D01*
X7988749Y-54629446D01*
X7988742Y-54629449D01*
X7867673Y-54707255D01*
X7773422Y-54816028D01*
X7713634Y-54946943D01*
X7693153Y-55089397D01*
X7693153Y-55089402D01*
X300500Y-55089402D01*
X300500Y-53400002D01*
X20054353Y-53400002D01*
X20074834Y-53542456D01*
X20134622Y-53673371D01*
X20134623Y-53673373D01*
X20228872Y-53782143D01*
X20228873Y-53782144D01*
X20349942Y-53859950D01*
X20349947Y-53859953D01*
X20456403Y-53891211D01*
X20488035Y-53900499D01*
X20488036Y-53900499D01*
X20488039Y-53900500D01*
X20488041Y-53900500D01*
X20631959Y-53900500D01*
X20631961Y-53900500D01*
X20770053Y-53859953D01*
X20891128Y-53782143D01*
X20985377Y-53673373D01*
X21045165Y-53542457D01*
X21065647Y-53400000D01*
X21045165Y-53257543D01*
X20985377Y-53126627D01*
X20891128Y-53017857D01*
X20891127Y-53017856D01*
X20891126Y-53017855D01*
X20770057Y-52940049D01*
X20770054Y-52940047D01*
X20770053Y-52940047D01*
X20770050Y-52940046D01*
X20631964Y-52899500D01*
X20631961Y-52899500D01*
X20488039Y-52899500D01*
X20488035Y-52899500D01*
X20349949Y-52940046D01*
X20349942Y-52940049D01*
X20228873Y-53017855D01*
X20134622Y-53126628D01*
X20074834Y-53257543D01*
X20054353Y-53399997D01*
X20054353Y-53400002D01*
X300500Y-53400002D01*
X300500Y-52050002D01*
X15834353Y-52050002D01*
X15854834Y-52192456D01*
X15914622Y-52323371D01*
X15914623Y-52323373D01*
X16008872Y-52432143D01*
X16008873Y-52432144D01*
X16129942Y-52509950D01*
X16129947Y-52509953D01*
X16236403Y-52541211D01*
X16268035Y-52550499D01*
X16268036Y-52550499D01*
X16268039Y-52550500D01*
X16268041Y-52550500D01*
X16411959Y-52550500D01*
X16411961Y-52550500D01*
X16550053Y-52509953D01*
X16671128Y-52432143D01*
X16765377Y-52323373D01*
X16825165Y-52192457D01*
X16845647Y-52050000D01*
X16825165Y-51907543D01*
X16765377Y-51776627D01*
X16671128Y-51667857D01*
X16671127Y-51667856D01*
X16671126Y-51667855D01*
X16550057Y-51590049D01*
X16550054Y-51590047D01*
X16550053Y-51590047D01*
X16550050Y-51590046D01*
X16411964Y-51549500D01*
X16411961Y-51549500D01*
X16268039Y-51549500D01*
X16268035Y-51549500D01*
X16129949Y-51590046D01*
X16129942Y-51590049D01*
X16008873Y-51667855D01*
X15914622Y-51776628D01*
X15854834Y-51907543D01*
X15834353Y-52049997D01*
X15834353Y-52050002D01*
X300500Y-52050002D01*
X300500Y-50005402D01*
X2161353Y-50005402D01*
X2181834Y-50147856D01*
X2212453Y-50214900D01*
X2241623Y-50278773D01*
X2335872Y-50387543D01*
X2335873Y-50387544D01*
X2456942Y-50465350D01*
X2456947Y-50465353D01*
X2563403Y-50496611D01*
X2595035Y-50505899D01*
X2595036Y-50505899D01*
X2595039Y-50505900D01*
X2595041Y-50505900D01*
X2738959Y-50505900D01*
X2738961Y-50505900D01*
X2877053Y-50465353D01*
X2998128Y-50387543D01*
X3092377Y-50278773D01*
X3152165Y-50147857D01*
X3170856Y-50017857D01*
X3172647Y-50005402D01*
X5293153Y-50005402D01*
X5313634Y-50147856D01*
X5344253Y-50214900D01*
X5373423Y-50278773D01*
X5467672Y-50387543D01*
X5467673Y-50387544D01*
X5588742Y-50465350D01*
X5588747Y-50465353D01*
X5695203Y-50496611D01*
X5726835Y-50505899D01*
X5726836Y-50505899D01*
X5726839Y-50505900D01*
X5726841Y-50505900D01*
X5870759Y-50505900D01*
X5870761Y-50505900D01*
X6008853Y-50465353D01*
X6110541Y-50400002D01*
X11354353Y-50400002D01*
X11374834Y-50542456D01*
X11434622Y-50673371D01*
X11434623Y-50673373D01*
X11528872Y-50782143D01*
X11528873Y-50782144D01*
X11649942Y-50859950D01*
X11649947Y-50859953D01*
X11756403Y-50891211D01*
X11788035Y-50900499D01*
X11788036Y-50900499D01*
X11788039Y-50900500D01*
X11788041Y-50900500D01*
X11931959Y-50900500D01*
X11931961Y-50900500D01*
X12070053Y-50859953D01*
X12191128Y-50782143D01*
X12248959Y-50715402D01*
X27493353Y-50715402D01*
X27513834Y-50857856D01*
X27573622Y-50988771D01*
X27573623Y-50988773D01*
X27667872Y-51097543D01*
X27667873Y-51097544D01*
X27788942Y-51175350D01*
X27788947Y-51175353D01*
X27895403Y-51206611D01*
X27927035Y-51215899D01*
X27927036Y-51215899D01*
X27927039Y-51215900D01*
X27927041Y-51215900D01*
X28070959Y-51215900D01*
X28070961Y-51215900D01*
X28209053Y-51175353D01*
X28330128Y-51097543D01*
X28424377Y-50988773D01*
X28484165Y-50857857D01*
X28504647Y-50715400D01*
X28498604Y-50673373D01*
X28484165Y-50572943D01*
X28453547Y-50505900D01*
X28424377Y-50442027D01*
X28330128Y-50333257D01*
X28330127Y-50333256D01*
X28330126Y-50333255D01*
X28209057Y-50255449D01*
X28209054Y-50255447D01*
X28209053Y-50255447D01*
X28209050Y-50255446D01*
X28070964Y-50214900D01*
X28070961Y-50214900D01*
X27927039Y-50214900D01*
X27927035Y-50214900D01*
X27788949Y-50255446D01*
X27788942Y-50255449D01*
X27667873Y-50333255D01*
X27573622Y-50442028D01*
X27513834Y-50572943D01*
X27493353Y-50715397D01*
X27493353Y-50715402D01*
X12248959Y-50715402D01*
X12285377Y-50673373D01*
X12345165Y-50542457D01*
X12356251Y-50465350D01*
X12365647Y-50400002D01*
X12365647Y-50399997D01*
X12345165Y-50257543D01*
X12325690Y-50214900D01*
X12285377Y-50126627D01*
X12191128Y-50017857D01*
X12191127Y-50017856D01*
X12191126Y-50017855D01*
X12070057Y-49940049D01*
X12070054Y-49940047D01*
X12070053Y-49940047D01*
X12070050Y-49940046D01*
X11931964Y-49899500D01*
X11931961Y-49899500D01*
X11788039Y-49899500D01*
X11788035Y-49899500D01*
X11649949Y-49940046D01*
X11649942Y-49940049D01*
X11528873Y-50017855D01*
X11434622Y-50126628D01*
X11374834Y-50257543D01*
X11354353Y-50399997D01*
X11354353Y-50400002D01*
X6110541Y-50400002D01*
X6129928Y-50387543D01*
X6224177Y-50278773D01*
X6283965Y-50147857D01*
X6302656Y-50017857D01*
X6304447Y-50005402D01*
X6304447Y-50005397D01*
X6283965Y-49862943D01*
X6268112Y-49828231D01*
X6224177Y-49732027D01*
X6129928Y-49623257D01*
X6129927Y-49623256D01*
X6129926Y-49623255D01*
X6008857Y-49545449D01*
X6008854Y-49545447D01*
X6008853Y-49545447D01*
X6008850Y-49545446D01*
X5870764Y-49504900D01*
X5870761Y-49504900D01*
X5726839Y-49504900D01*
X5726835Y-49504900D01*
X5588749Y-49545446D01*
X5588742Y-49545449D01*
X5467673Y-49623255D01*
X5373422Y-49732028D01*
X5313634Y-49862943D01*
X5293153Y-50005397D01*
X5293153Y-50005402D01*
X3172647Y-50005402D01*
X3172647Y-50005397D01*
X3152165Y-49862943D01*
X3136312Y-49828231D01*
X3092377Y-49732027D01*
X2998128Y-49623257D01*
X2998127Y-49623256D01*
X2998126Y-49623255D01*
X2877057Y-49545449D01*
X2877054Y-49545447D01*
X2877053Y-49545447D01*
X2877050Y-49545446D01*
X2738964Y-49504900D01*
X2738961Y-49504900D01*
X2595039Y-49504900D01*
X2595035Y-49504900D01*
X2456949Y-49545446D01*
X2456942Y-49545449D01*
X2335873Y-49623255D01*
X2241622Y-49732028D01*
X2181834Y-49862943D01*
X2161353Y-50005397D01*
X2161353Y-50005402D01*
X300500Y-50005402D01*
X300500Y-49100002D01*
X11904353Y-49100002D01*
X11924834Y-49242456D01*
X11984622Y-49373371D01*
X11984623Y-49373373D01*
X12078872Y-49482143D01*
X12078873Y-49482144D01*
X12177375Y-49545447D01*
X12199947Y-49559953D01*
X12306403Y-49591211D01*
X12338035Y-49600499D01*
X12338036Y-49600499D01*
X12338039Y-49600500D01*
X12338041Y-49600500D01*
X12481959Y-49600500D01*
X12481961Y-49600500D01*
X12620053Y-49559953D01*
X12741128Y-49482143D01*
X12835377Y-49373373D01*
X12895165Y-49242457D01*
X12915647Y-49100000D01*
X12895165Y-48957543D01*
X12835377Y-48826627D01*
X12768980Y-48750000D01*
X46034357Y-48750000D01*
X46054885Y-48971536D01*
X46115771Y-49185528D01*
X46214942Y-49384689D01*
X46349019Y-49562236D01*
X46513438Y-49712124D01*
X46702599Y-49829247D01*
X46910060Y-49909618D01*
X47128757Y-49950500D01*
X47351243Y-49950500D01*
X47569940Y-49909618D01*
X47777401Y-49829247D01*
X47873499Y-49769746D01*
X56039500Y-49769746D01*
X56039501Y-49769758D01*
X56051132Y-49828227D01*
X56051133Y-49828231D01*
X56095448Y-49894552D01*
X56161769Y-49938867D01*
X56206231Y-49947711D01*
X56220241Y-49950498D01*
X56220246Y-49950498D01*
X56220252Y-49950500D01*
X56220253Y-49950500D01*
X58259747Y-49950500D01*
X58259748Y-49950500D01*
X58318231Y-49938867D01*
X58384552Y-49894552D01*
X58428867Y-49828231D01*
X58440500Y-49769748D01*
X58440500Y-47730252D01*
X58428867Y-47671769D01*
X58384552Y-47605448D01*
X58362005Y-47590382D01*
X58318233Y-47561134D01*
X58318231Y-47561133D01*
X58318228Y-47561132D01*
X58318227Y-47561132D01*
X58259758Y-47549501D01*
X58259748Y-47549500D01*
X56220252Y-47549500D01*
X56220251Y-47549500D01*
X56220241Y-47549501D01*
X56161772Y-47561132D01*
X56161766Y-47561134D01*
X56095451Y-47605445D01*
X56095445Y-47605451D01*
X56051134Y-47671766D01*
X56051132Y-47671772D01*
X56039501Y-47730241D01*
X56039500Y-47730253D01*
X56039500Y-49769746D01*
X47873499Y-49769746D01*
X47966562Y-49712124D01*
X48130981Y-49562236D01*
X48265058Y-49384689D01*
X48364229Y-49185528D01*
X48425115Y-48971536D01*
X48445643Y-48750000D01*
X48425115Y-48528464D01*
X48364229Y-48314472D01*
X48265058Y-48115311D01*
X48130981Y-47937764D01*
X47966562Y-47787876D01*
X47777401Y-47670753D01*
X47569940Y-47590382D01*
X47569939Y-47590381D01*
X47569937Y-47590381D01*
X47351243Y-47549500D01*
X47128757Y-47549500D01*
X46910062Y-47590381D01*
X46833797Y-47619926D01*
X46702599Y-47670753D01*
X46606503Y-47730253D01*
X46513438Y-47787876D01*
X46349020Y-47937763D01*
X46214943Y-48115309D01*
X46214938Y-48115318D01*
X46115772Y-48314469D01*
X46115771Y-48314472D01*
X46054885Y-48528464D01*
X46034357Y-48750000D01*
X12768980Y-48750000D01*
X12741128Y-48717857D01*
X12741127Y-48717856D01*
X12741126Y-48717855D01*
X12620057Y-48640049D01*
X12620054Y-48640047D01*
X12620053Y-48640047D01*
X12620050Y-48640046D01*
X12481964Y-48599500D01*
X12481961Y-48599500D01*
X12338039Y-48599500D01*
X12338035Y-48599500D01*
X12199949Y-48640046D01*
X12199942Y-48640049D01*
X12078873Y-48717855D01*
X11984622Y-48826628D01*
X11924834Y-48957543D01*
X11904353Y-49099997D01*
X11904353Y-49100002D01*
X300500Y-49100002D01*
X300500Y-47700002D01*
X12454353Y-47700002D01*
X12474834Y-47842456D01*
X12518360Y-47937763D01*
X12534623Y-47973373D01*
X12628872Y-48082143D01*
X12628873Y-48082144D01*
X12680493Y-48115318D01*
X12749947Y-48159953D01*
X12856403Y-48191211D01*
X12888035Y-48200499D01*
X12888036Y-48200499D01*
X12888039Y-48200500D01*
X12888041Y-48200500D01*
X13031959Y-48200500D01*
X13031961Y-48200500D01*
X13170053Y-48159953D01*
X13291128Y-48082143D01*
X13385377Y-47973373D01*
X13445165Y-47842457D01*
X13453012Y-47787876D01*
X13465647Y-47700002D01*
X13465647Y-47699997D01*
X13445165Y-47557543D01*
X13385377Y-47426628D01*
X13385377Y-47426627D01*
X13291128Y-47317857D01*
X13291127Y-47317856D01*
X13286491Y-47312506D01*
X13287529Y-47311606D01*
X13286419Y-47309767D01*
X13269648Y-47304052D01*
X13170057Y-47240049D01*
X13170054Y-47240047D01*
X13170053Y-47240047D01*
X13170050Y-47240046D01*
X13031964Y-47199500D01*
X13031961Y-47199500D01*
X12888039Y-47199500D01*
X12888035Y-47199500D01*
X12749949Y-47240046D01*
X12749942Y-47240049D01*
X12628873Y-47317855D01*
X12534622Y-47426628D01*
X12474834Y-47557543D01*
X12454353Y-47699997D01*
X12454353Y-47700002D01*
X300500Y-47700002D01*
X300500Y-46764118D01*
X13213841Y-46764118D01*
X13234322Y-46906572D01*
X13294110Y-47037487D01*
X13294111Y-47037489D01*
X13388360Y-47146259D01*
X13392997Y-47151610D01*
X13391957Y-47152510D01*
X13393065Y-47154346D01*
X13409839Y-47160063D01*
X13509430Y-47224066D01*
X13509435Y-47224069D01*
X13563859Y-47240049D01*
X13647523Y-47264615D01*
X13647524Y-47264615D01*
X13647527Y-47264616D01*
X13647529Y-47264616D01*
X13791447Y-47264616D01*
X13791449Y-47264616D01*
X13929541Y-47224069D01*
X14050616Y-47146259D01*
X14144865Y-47037489D01*
X14204653Y-46906573D01*
X14225135Y-46764116D01*
X14204653Y-46621659D01*
X14144865Y-46490743D01*
X14066238Y-46400002D01*
X15254353Y-46400002D01*
X15274834Y-46542456D01*
X15334622Y-46673371D01*
X15334623Y-46673373D01*
X15428872Y-46782143D01*
X15428873Y-46782144D01*
X15549942Y-46859950D01*
X15549947Y-46859953D01*
X15656403Y-46891211D01*
X15688035Y-46900499D01*
X15688036Y-46900499D01*
X15688039Y-46900500D01*
X15688041Y-46900500D01*
X15831959Y-46900500D01*
X15831961Y-46900500D01*
X15970053Y-46859953D01*
X16091128Y-46782143D01*
X16185377Y-46673373D01*
X16245165Y-46542457D01*
X16265647Y-46400000D01*
X16263055Y-46381973D01*
X16245165Y-46257543D01*
X16185377Y-46126628D01*
X16185377Y-46126627D01*
X16091128Y-46017857D01*
X16091127Y-46017856D01*
X16091126Y-46017855D01*
X15970057Y-45940049D01*
X15970054Y-45940047D01*
X15970053Y-45940047D01*
X15970050Y-45940046D01*
X15831964Y-45899500D01*
X15831961Y-45899500D01*
X15688039Y-45899500D01*
X15688035Y-45899500D01*
X15549949Y-45940046D01*
X15549942Y-45940049D01*
X15428873Y-46017855D01*
X15334622Y-46126628D01*
X15274834Y-46257543D01*
X15254353Y-46399997D01*
X15254353Y-46400002D01*
X14066238Y-46400002D01*
X14050616Y-46381973D01*
X14050615Y-46381972D01*
X14050614Y-46381971D01*
X13929545Y-46304165D01*
X13929542Y-46304163D01*
X13929541Y-46304163D01*
X13929538Y-46304162D01*
X13791452Y-46263616D01*
X13791449Y-46263616D01*
X13647527Y-46263616D01*
X13647523Y-46263616D01*
X13509437Y-46304162D01*
X13509430Y-46304165D01*
X13388361Y-46381971D01*
X13294110Y-46490744D01*
X13234322Y-46621659D01*
X13213841Y-46764113D01*
X13213841Y-46764118D01*
X300500Y-46764118D01*
X300500Y-45100002D01*
X15454353Y-45100002D01*
X15474834Y-45242456D01*
X15534622Y-45373371D01*
X15534623Y-45373373D01*
X15628872Y-45482143D01*
X15628873Y-45482144D01*
X15749942Y-45559950D01*
X15749947Y-45559953D01*
X15856403Y-45591211D01*
X15888035Y-45600499D01*
X15888036Y-45600499D01*
X15888039Y-45600500D01*
X15888041Y-45600500D01*
X16031959Y-45600500D01*
X16031961Y-45600500D01*
X16170053Y-45559953D01*
X16291128Y-45482143D01*
X16385377Y-45373373D01*
X16445165Y-45242457D01*
X16465647Y-45100000D01*
X16445165Y-44957543D01*
X16385377Y-44826627D01*
X16291128Y-44717857D01*
X16291127Y-44717856D01*
X16291126Y-44717855D01*
X16170057Y-44640049D01*
X16170054Y-44640047D01*
X16170053Y-44640047D01*
X16170050Y-44640046D01*
X16031964Y-44599500D01*
X16031961Y-44599500D01*
X15888039Y-44599500D01*
X15888035Y-44599500D01*
X15749949Y-44640046D01*
X15749942Y-44640049D01*
X15628873Y-44717855D01*
X15534622Y-44826628D01*
X15474834Y-44957543D01*
X15454353Y-45099997D01*
X15454353Y-45100002D01*
X300500Y-45100002D01*
X300500Y-43800002D01*
X15354353Y-43800002D01*
X15374834Y-43942456D01*
X15434622Y-44073371D01*
X15434623Y-44073373D01*
X15528872Y-44182143D01*
X15528873Y-44182144D01*
X15649942Y-44259950D01*
X15649947Y-44259953D01*
X15756403Y-44291211D01*
X15788035Y-44300499D01*
X15788036Y-44300499D01*
X15788039Y-44300500D01*
X15788041Y-44300500D01*
X15931959Y-44300500D01*
X15931961Y-44300500D01*
X16070053Y-44259953D01*
X16191128Y-44182143D01*
X16285377Y-44073373D01*
X16345165Y-43942457D01*
X16365647Y-43800000D01*
X16345165Y-43657543D01*
X16285377Y-43526627D01*
X16191128Y-43417857D01*
X16191127Y-43417856D01*
X16191126Y-43417855D01*
X16070057Y-43340049D01*
X16070054Y-43340047D01*
X16070053Y-43340047D01*
X16070050Y-43340046D01*
X15931964Y-43299500D01*
X15931961Y-43299500D01*
X15788039Y-43299500D01*
X15788035Y-43299500D01*
X15649949Y-43340046D01*
X15649942Y-43340049D01*
X15528873Y-43417855D01*
X15434622Y-43526628D01*
X15374834Y-43657543D01*
X15354353Y-43799997D01*
X15354353Y-43800002D01*
X300500Y-43800002D01*
X300500Y-39200002D01*
X14154353Y-39200002D01*
X14174834Y-39342456D01*
X14234622Y-39473371D01*
X14234623Y-39473373D01*
X14328872Y-39582143D01*
X14328873Y-39582144D01*
X14449942Y-39659950D01*
X14449947Y-39659953D01*
X14556403Y-39691211D01*
X14588035Y-39700499D01*
X14588036Y-39700499D01*
X14588039Y-39700500D01*
X14588041Y-39700500D01*
X14731959Y-39700500D01*
X14731961Y-39700500D01*
X14870053Y-39659953D01*
X14991128Y-39582143D01*
X15085377Y-39473373D01*
X15143319Y-39346498D01*
X15184689Y-39301423D01*
X15244656Y-39289272D01*
X15261260Y-39292637D01*
X15280133Y-39298178D01*
X15288035Y-39300499D01*
X15288036Y-39300499D01*
X15288039Y-39300500D01*
X15288040Y-39300500D01*
X15431959Y-39300500D01*
X15431961Y-39300500D01*
X15570053Y-39259953D01*
X15691128Y-39182143D01*
X15785377Y-39073373D01*
X15845165Y-38942457D01*
X15865647Y-38800000D01*
X15857027Y-38740049D01*
X15845165Y-38657543D01*
X15785377Y-38526628D01*
X15785377Y-38526627D01*
X15691128Y-38417857D01*
X15691127Y-38417856D01*
X15691126Y-38417855D01*
X15570057Y-38340049D01*
X15570054Y-38340047D01*
X15570053Y-38340047D01*
X15570050Y-38340046D01*
X15431964Y-38299500D01*
X15431961Y-38299500D01*
X15288039Y-38299500D01*
X15288035Y-38299500D01*
X15149949Y-38340046D01*
X15149942Y-38340049D01*
X15028873Y-38417855D01*
X14934622Y-38526628D01*
X14876681Y-38653499D01*
X14835309Y-38698576D01*
X14775342Y-38710727D01*
X14758737Y-38707362D01*
X14731964Y-38699500D01*
X14731961Y-38699500D01*
X14588039Y-38699500D01*
X14588035Y-38699500D01*
X14449949Y-38740046D01*
X14449942Y-38740049D01*
X14328873Y-38817855D01*
X14234622Y-38926628D01*
X14174834Y-39057543D01*
X14154353Y-39199997D01*
X14154353Y-39200002D01*
X300500Y-39200002D01*
X300500Y-34300002D01*
X9154353Y-34300002D01*
X9174834Y-34442456D01*
X9234622Y-34573371D01*
X9234623Y-34573373D01*
X9328872Y-34682143D01*
X9328873Y-34682144D01*
X9449942Y-34759950D01*
X9449947Y-34759953D01*
X9556403Y-34791211D01*
X9588035Y-34800499D01*
X9588036Y-34800499D01*
X9588039Y-34800500D01*
X9588041Y-34800500D01*
X9731959Y-34800500D01*
X9731961Y-34800500D01*
X9870053Y-34759953D01*
X9991128Y-34682143D01*
X10085377Y-34573373D01*
X10145165Y-34442457D01*
X10165647Y-34300000D01*
X10145165Y-34157543D01*
X10085377Y-34026627D01*
X9991128Y-33917857D01*
X9991127Y-33917856D01*
X9991126Y-33917855D01*
X9870057Y-33840049D01*
X9870054Y-33840047D01*
X9870053Y-33840047D01*
X9870050Y-33840046D01*
X9731964Y-33799500D01*
X9731961Y-33799500D01*
X9588039Y-33799500D01*
X9588035Y-33799500D01*
X9449949Y-33840046D01*
X9449942Y-33840049D01*
X9328873Y-33917855D01*
X9234622Y-34026628D01*
X9174834Y-34157543D01*
X9154353Y-34299997D01*
X9154353Y-34300002D01*
X300500Y-34300002D01*
X300500Y-33499464D01*
X319407Y-33441273D01*
X368907Y-33405309D01*
X399365Y-33400464D01*
X67030371Y-33311598D01*
X67088584Y-33330428D01*
G37*
%TD.AperFunction*%
%TD*%
M02*
